<?xml version="1.0" encoding="UTF-8" standalone="no"?>
<!-- Generator: Adobe Illustrator 21.0.2, SVG Export Plug-In . SVG Version: 6.00 Build 0)  -->

<svg
   xmlns:dc="http://purl.org/dc/elements/1.1/"
   xmlns:cc="http://creativecommons.org/ns#"
   xmlns:rdf="http://www.w3.org/1999/02/22-rdf-syntax-ns#"
   xmlns:svg="http://www.w3.org/2000/svg"
   xmlns="http://www.w3.org/2000/svg"
   xmlns:sodipodi="http://sodipodi.sourceforge.net/DTD/sodipodi-0.dtd"
   xmlns:inkscape="http://www.inkscape.org/namespaces/inkscape"
   version="1.1"
   id="Layer_1"
   x="0px"
   y="0px"
   viewBox="0 0 200 200"
   style="enable-background:new 0 0 200 200;"
   xml:space="preserve"
   inkscape:version="0.91 r13725"
   sodipodi:docname="cal.svg"><metadata
     id="metadata11"><rdf:RDF><cc:Work
         rdf:about=""><dc:format>image/svg+xml</dc:format><dc:type
           rdf:resource="http://purl.org/dc/dcmitype/StillImage" /></cc:Work></rdf:RDF></metadata><defs
     id="defs9" /><sodipodi:namedview
     pagecolor="#ffffff"
     bordercolor="#666666"
     borderopacity="1"
     objecttolerance="10"
     gridtolerance="10"
     guidetolerance="10"
     inkscape:pageopacity="0"
     inkscape:pageshadow="2"
     inkscape:window-width="1335"
     inkscape:window-height="827"
     id="namedview7"
     showgrid="false"
     inkscape:zoom="1.18"
     inkscape:cx="100"
     inkscape:cy="100"
     inkscape:window-x="0"
     inkscape:window-y="24"
     inkscape:window-maximized="0"
     inkscape:current-layer="Layer_1" /><style
     type="text/css"
     id="style3">
	.st0{fill:#FFFFFF;}
</style><path
     class="st0"
     d="m 73,95.55 0,9 c 0,2.52 -2.016,4.464 -4.464,4.464 l -9,0 c -2.52,0 -4.464,-2.016 -4.464,-4.464 l 0,-9 c 0,-2.52 2.016,-4.464 4.464,-4.464 l 9,0 C 70.984,91.014 73,93.03 73,95.55 Z m -4.536,31.464 -8.928,0 c -2.52,0 -4.464,2.016 -4.464,4.464 l 0,9 c 0,2.52 2.016,4.464 4.464,4.464 l 9,0 c 2.52,0 4.464,-2.016 4.464,-4.464 l 0,-9 c 0,-2.448 -2.016,-4.464 -4.536,-4.464 z m 36,-36 -8.928,0 c -2.52,0 -4.464,2.016 -4.464,4.464 l 0,9 c 0,2.52 2.016,4.464 4.464,4.464 l 9,0 c 2.52,0 4.464,-2.016 4.464,-4.464 l 0,-8.928 c 0,-2.52 -2.016,-4.536 -4.536,-4.536 z m 0,36 -8.928,0 c -2.52,0 -4.464,2.016 -4.464,4.464 l 0,9 c 0,2.52 2.016,4.464 4.464,4.464 l 9,0 c 2.52,0 4.464,-2.016 4.464,-4.464 l 0,-9 c 0,-2.448 -2.016,-4.464 -4.536,-4.464 z m 36,-36 -9,0 c -2.52,0 -4.464,2.016 -4.464,4.464 l 0,9 c 0,2.52 2.016,4.464 4.464,4.464 l 9,0 c 2.52,0 4.464,-2.016 4.464,-4.464 l 0,-8.928 c 0.072,-2.52 -1.944,-4.536 -4.464,-4.536 z m 0,36 -9,0 c -2.52,0 -4.464,2.016 -4.464,4.464 l 0,9 c 0,2.52 2.016,4.464 4.464,4.464 l 9,0 c 2.52,0 4.464,-2.016 4.464,-4.464 l 0,-9 c 0.072,-2.448 -1.944,-4.464 -4.464,-4.464 z m -80.928,-72 9,0 c 2.52,0 4.464,-2.016 4.464,-4.464 l 0,-18 c 0,-2.52 -2.016,-4.464 -4.464,-4.464 l -9,0 c -2.52,0 -4.464,2.016 -4.464,4.464 l 0,18 c -0.072,2.448 1.944,4.464 4.464,4.464 z m 112.464,9 0,90 c 0,9.936 -8.064,18 -18,18 l -108,0 c -9.936,0 -18,-8.064 -18,-18 l 0,-90 c 0,-9.936 8.064,-18 18,-18 l 4.464,0 0,4.464 c 0,4.968 4.032,9 9,9 l 9,0 c 4.968,0 9,-4.032 9,-9 l 0,-4.464 45,0 0,4.464 c 0,4.968 4.032,9 9,9 l 9,0 c 4.968,0 9,-4.032 9,-9 l 0,-4.464 4.464,0 c 10.008,0 18.072,8.064 18.072,18 z m -9,18 c 0,-4.968 -4.032,-9 -9,-9 l -108,0 c -4.968,0 -9,4.032 -9,9 l 0,72 c 0,4.968 4.032,9 9,9 l 108,0 c 4.968,0 9,-4.032 9,-9 l 0,-72 z m -31.464,-27 9,0 c 2.52,0 4.464,-2.016 4.464,-4.464 l 0,-18 c 0,-2.52 -2.016,-4.464 -4.464,-4.464 l -9,0 c -2.52,0 -4.464,2.016 -4.464,4.464 l 0,18 c -0.072,2.448 1.944,4.464 4.464,4.464 z"
     id="path5"
     inkscape:connector-curvature="0"
     style="fill:#ffffff" /></svg>