<?xml version="1.0" encoding="utf-8"?>
<!-- Generator: Adobe Illustrator 21.0.2, SVG Export Plug-In . SVG Version: 6.00 Build 0)  -->
<svg version="1.1" id="Layer_1" xmlns="http://www.w3.org/2000/svg" xmlns:xlink="http://www.w3.org/1999/xlink" x="0px" y="0px"
	 viewBox="0 0 430 430" style="enable-background:new 0 0 430 430;" xml:space="preserve">
<style type="text/css">
	.st0{fill:#FFFFFF;}
	.st1{fill:#45C5E6;}
	.st2{fill:#D81117;}
</style>
<g id="XMLID_388_">
	<path class="st0" d="M214.9,418.7c-112.3,0-203.6-91.3-203.6-203.6c0-112.3,91.3-203.6,203.6-203.6s203.6,91.3,203.6,203.6
		C418.5,327.3,327.2,418.7,214.9,418.7z"/>
	<path class="st1" d="M214.9,22.9c51.3,0,99.6,20,135.8,56.3C387,115.5,407,163.7,407,215.1s-20,99.6-56.3,135.8
		c-36.3,36.3-84.5,56.3-135.8,56.3c-51.3,0-99.6-20-135.8-56.3c-36.3-36.3-56.3-84.5-56.3-135.8s20-99.6,56.3-135.8
		C115.3,42.9,163.6,22.9,214.9,22.9 M214.9-0.1C96.1-0.1-0.2,96.2-0.2,215.1s96.3,215.1,215.1,215.1S430,333.9,430,215.1
		S333.7-0.1,214.9-0.1L214.9-0.1z"/>
</g>
<path class="st2" d="M93,149.1c1.1-3.6,1.9-7.3,3.5-10.7c11-23.1,42.4-26.4,58-6.1c1,1.3,2.1,1.6,3.6,1.6c51.2,0,102.5,0,153.7,0
	c9.7,0,14.6,4.9,14.6,14.6c0,10.6,0,21.2,0.1,31.8c0,1.1,0.5,2.5,1.2,3.3c9.5,11.3,11.2,27.3,3.3,39.7c-3.4,5.4-4.8,10.7-4.7,17.1
	c0.3,18.5,0.1,37,0.1,55.5c0,9.4-5,14.5-14.5,14.5c-64.1,0-128.2-0.1-192.4-0.1c-7.5,0-12.4-3.2-14-9.2c-0.4-1.7-0.6-3.6-0.6-5.4
	c0-36.8,0-73.5-0.1-110.3c0-1.7-0.6-3.5-1.4-5.1c-3.1-6-7.5-11.3-9.2-18.1c-0.4-1.7-0.8-3.3-1.2-5C93,154.5,93,151.8,93,149.1z
	 M184.2,183.2c13.3-13.3,26.4-26.4,39.2-39.2c-20.6,0-41.6,0-62.8,0c0.2,1,0.3,1.9,0.5,2.7c1.6,8.1,0.5,15.8-3.6,22.9
	c-6.8,11.8-13.8,23.4-20.8,35c-4.7,7.9-13.7,7.8-18.5-0.1c-0.8-1.3-1.6-2.7-2.8-4.5c0,22,0,43.2,0,64.3
	c12.9-12.9,25.8-25.8,38.7-38.7c-0.4-0.4-0.9-1-1.4-1.5c-2.6-2.6-5.3-5.2-7.9-7.9c-2.1-2.2-2.1-5-0.3-6.8c1.9-1.8,4.5-1.7,6.8,0.4
	c0.9,0.8,1.7,1.7,2.5,2.5c5.3,5.3,10.6,10.6,15.6,15.6c7.9-7.9,15.6-15.6,23.4-23.5c-9.1-9.1-18.5-18.4-27.8-27.8
	c-2.6-2.6-2.9-5.2-0.9-7.3c2-2.1,4.6-1.8,7.3,0.8c1.9,1.9,3.8,3.8,5.7,5.7C179.6,178.6,182,181.1,184.2,183.2z M316.2,174.1
	c0-9.1,0-18.3,0-27.5c0-1.7-1.1-2.6-2.8-2.6c-2-0.1-4,0.1-5.9-0.1c-2-0.2-3.4,0.5-4.8,1.9c-17.2,17.3-34.4,34.5-51.6,51.7
	c-0.6,0.6-1.2,1.2-2,2.1c1.4,1.3,2.7,2.3,3.9,3.5c1.9,2,4,3.9,5.7,6c1.6,2,1.2,4.5-0.5,6.3c-1.7,1.7-4.2,2-6.3,0.6
	c-0.8-0.6-1.6-1.3-2.3-2c-2.4-2.4-4.8-4.9-6.9-7.1c-6,5.9-11.6,11.6-16.8,16.8c11.3,11.3,22.8,22.8,34.4,34.4c2.9-2.9,6-6,9.1-9.2
	c2.5-2.5,5.3-2.9,7.3-0.9c2.1,2,1.8,4.6-0.8,7.3c-0.8,0.8-1.7,1.7-2.5,2.5c-2.4,2.4-4.8,4.7-7.3,7.2c9.4,9.4,18.5,18.5,27.6,27.6
	c2.6,2.6,4.8,6,7.9,7.3c3.1,1.3,7.2,0.4,10.8,0.4c3.5,0,4-0.5,4-4c0-14.9,0-29.9,0-44.8c0-0.6-0.1-1.3-0.3-2.6
	c-2,3.3-3.4,6.1-5.2,8.6c-1.3,1.8-2.9,3.7-4.8,4.7c-5,2.7-10.4,0.7-13.6-4.7c-6.7-11.2-13.5-22.3-19.9-33.6c-2-3.6-3.6-7.6-4.5-11.6
	c-4.4-21.5,13.7-42,35.6-40.4C307.7,172.1,311.8,173.3,316.2,174.1z M233.7,148.1c-13.9,14-28.1,28.1-41.9,41.9
	c8.9,8.9,17.9,17.9,26.7,26.7c13.9-13.8,27.9-27.9,41.9-41.8C251.6,165.9,242.6,157,233.7,148.1z M301.5,253.1
	c0.6-0.9,0.9-1.5,1.3-2.1c6.5-10.8,13-21.7,19.4-32.5c8.3-14,1.5-31.3-14.2-35.8c-9.8-2.8-18.2,0-24.7,7.6c-6.8,8-8.2,17.3-3.2,26.5
	C286.7,229,294.2,240.8,301.5,253.1z M127.4,200.3c0.5-0.8,0.9-1.4,1.3-2.1c6.5-10.8,13-21.7,19.4-32.5c6.2-10.4,4-23.2-5.2-31.1
	c-8.8-7.5-22-7.5-30.9,0c-9.3,7.9-11.6,20.6-5.4,31c6.5,10.8,12.9,21.7,19.4,32.5C126.4,198.8,126.8,199.5,127.4,200.3z
	 M162.1,286.3c4.2,4.2,8.3,8.4,12.6,12.4c0.8,0.8,2.2,1.4,3.3,1.4c16,0.1,32.1,0.1,48.1,0.1c0.6,0,1.3-0.1,1.5-0.1
	c-13.1-13.1-26.4-26.4-39.5-39.5C179.6,268.8,171,277.4,162.1,286.3z M206.2,264.5c7.7-7.7,15.5-15.3,23-22.9
	c-9.9-9.9-19.8-19.8-29.4-29.4c-7.6,7.6-15.3,15.3-22.9,23C186.5,244.8,196.4,254.7,206.2,264.5z M161,233.1
	c-8.6,8.6-17.3,17.3-25.6,25.6c6.7,6.7,13.6,13.7,20.3,20.4c8.5-8.5,17.2-17.1,25.7-25.6C174.6,246.7,167.7,239.7,161,233.1z
	 M162.3,300.1c-11.5-11.5-23-23-34.7-34.6c-3.8,3.8-7.8,7.8-11.7,11.9c-0.5,0.5-0.8,1.5-0.8,2.3c-0.1,5.6-0.1,11.2,0,16.8
	c0,2.9,0.6,3.5,3.5,3.5c7.2,0,14.4,0,21.6,0C147.6,300.1,155,300.1,162.3,300.1z M236.1,295c0.9,0.8,1.8,1.4,2.5,2.3
	c1.7,2.3,3.9,2.9,6.7,2.9c13.3-0.1,26.5-0.1,39.8,0c0.8,0,1.6,0,2.3,0c-9.5-9.5-18.9-18.9-28.2-28.2
	C251.8,279.4,244.1,287,236.1,295z M213.3,271.4c5.4,5.4,11,11,16.3,16.3c7.6-7.6,15.3-15.3,22.6-22.7c-5.3-5.3-10.9-10.9-16.2-16.2
	C228.6,256.2,220.9,263.9,213.3,271.4z M291.1,144.1c-15.9,0-31.7,0-47.2,0c7.9,7.9,15.9,15.9,23.6,23.6
	C275.2,160,283.1,152.1,291.1,144.1z"/>
<path class="st2" d="M301.6,219.9c-7.7,0-14-6.3-14-14c0-7.7,6.4-14.1,14-14.1c7.7,0,14,6.4,14,14.1
	C315.6,213.7,309.3,219.9,301.6,219.9z M301.6,202c-2.1,0-4,1.8-4,3.9c0,2.1,1.9,3.9,4,3.9c2,0,3.8-1.8,3.8-3.8
	C305.5,203.9,303.7,202.1,301.6,202z"/>
<path class="st2" d="M127.5,167.2c-7.7,0-14-6.2-14.1-13.9c0-7.7,6.2-14.1,13.9-14.1c7.6-0.1,14.1,6.3,14.1,14
	C141.5,160.8,135.2,167.2,127.5,167.2z M131.3,153.3c0-2.1-1.8-3.9-3.9-3.9c-2,0-3.8,1.7-3.9,3.7c-0.1,2.1,1.7,4,3.8,4.1
	C129.3,157.2,131.2,155.3,131.3,153.3z"/>
</svg>
