<?xml version="1.0" encoding="UTF-8" standalone="no"?>
<!-- Generator: Adobe Illustrator 21.0.2, SVG Export Plug-In . SVG Version: 6.00 Build 0)  -->

<svg
   xmlns:dc="http://purl.org/dc/elements/1.1/"
   xmlns:cc="http://creativecommons.org/ns#"
   xmlns:rdf="http://www.w3.org/1999/02/22-rdf-syntax-ns#"
   xmlns:svg="http://www.w3.org/2000/svg"
   xmlns="http://www.w3.org/2000/svg"
   xmlns:sodipodi="http://sodipodi.sourceforge.net/DTD/sodipodi-0.dtd"
   xmlns:inkscape="http://www.inkscape.org/namespaces/inkscape"
   version="1.1"
   id="Layer_1"
   x="0px"
   y="0px"
   viewBox="0 0 238 200"
   style="enable-background:new 0 0 238 200;"
   xml:space="preserve"
   inkscape:version="0.91 r13725"
   sodipodi:docname="ci.svg"><metadata
     id="metadata14"><rdf:RDF><cc:Work
         rdf:about=""><dc:format>image/svg+xml</dc:format><dc:type
           rdf:resource="http://purl.org/dc/dcmitype/StillImage" /></cc:Work></rdf:RDF></metadata><defs
     id="defs12" /><sodipodi:namedview
     pagecolor="#ffffff"
     bordercolor="#666666"
     borderopacity="1"
     objecttolerance="10"
     gridtolerance="10"
     guidetolerance="10"
     inkscape:pageopacity="0"
     inkscape:pageshadow="2"
     inkscape:window-width="1424"
     inkscape:window-height="831"
     id="namedview10"
     showgrid="false"
     inkscape:zoom="1.0462185"
     inkscape:cx="119"
     inkscape:cy="100"
     inkscape:window-x="0"
     inkscape:window-y="24"
     inkscape:window-maximized="0"
     inkscape:current-layer="Layer_1" /><style
     type="text/css"
     id="style3">
	.st0{fill:#FFFFFF;}
</style><g
     id="XMLID_3025_"
     transform="matrix(0.75,0,0,0.75,29.7625,24.0875)"><path
       id="XMLID_3026_"
       class="st0"
       d="m 86.4,77.8 c -6,-8.1 -15.8,-12.5 -25.8,-12.5 -18,0 -30.1,13.8 -30.1,31.3 0,17.8 12.3,30.7 30.6,30.7 9.6,0 19.2,-4.6 25.3,-12 l 0,35.2 c -9.8,3 -16.8,5.2 -25.9,5.2 -15.7,0 -30.7,-6 -42.4,-16.6 C 5.5,128 -0.2,113.3 -0.2,96.5 -0.2,81.1 5.6,66.2 16.4,55.1 27.5,43.7 43.5,36.8 59.4,36.8 c 9.4,0 18.1,2.1 26.8,5.7 l 0,35.3 z"
       inkscape:connector-curvature="0"
       style="fill:#ffffff" /><path
       id="XMLID_3028_"
       class="st0"
       d="m 138.3,138.4 c 0,9.6 -7.8,17.5 -17.5,17.5 -9.8,0 -17.5,-8 -17.5,-17.5 0,-9.7 7.8,-17.5 17.5,-17.5 9.7,-0.1 17.5,7.7 17.5,17.5 z"
       inkscape:connector-curvature="0"
       style="fill:#ffffff" /><path
       id="XMLID_3030_"
       class="st0"
       d="m 185.4,152.9 -29.4,0 0,-113.1 29.4,0 0,113.1 z"
       inkscape:connector-curvature="0"
       style="fill:#ffffff" /><path
       id="XMLID_3032_"
       class="st0"
       d="m 238.3,138.4 c 0,9.6 -7.8,17.5 -17.5,17.5 -9.8,0 -17.5,-8 -17.5,-17.5 0,-9.7 7.8,-17.5 17.5,-17.5 9.7,-0.1 17.5,7.7 17.5,17.5 z"
       inkscape:connector-curvature="0"
       style="fill:#ffffff" /></g></svg>