<?xml version="1.0" encoding="utf-8"?>
<!-- Generator: Adobe Illustrator 22.0.0, SVG Export Plug-In . SVG Version: 6.00 Build 0)  -->
<svg version="1.1" id="Layer_1" xmlns="http://www.w3.org/2000/svg" xmlns:xlink="http://www.w3.org/1999/xlink" x="0px" y="0px"
	 viewBox="0 0 430 430" style="enable-background:new 0 0 430 430;" xml:space="preserve">
<style type="text/css">
	.st0{fill:#FFFFFF;}
	.st1{fill:#45C5E6;}
	.st2{fill:#D81117;}
</style>
<g id="XMLID_388_">
	<path class="st0" d="M214.9,418.7c-112.3,0-203.6-91.3-203.6-203.6S102.6,11.5,214.9,11.5s203.6,91.3,203.6,203.6
		C418.5,327.3,327.2,418.7,214.9,418.7z"/>
	<path class="st1" d="M214.9,22.9c51.3,0,99.6,20,135.8,56.3C387,115.5,407,163.7,407,215.1s-20,99.6-56.3,135.8
		c-36.3,36.3-84.5,56.3-135.8,56.3s-99.6-20-135.8-56.3c-36.3-36.3-56.3-84.5-56.3-135.8s20-99.6,56.3-135.8
		C115.3,42.9,163.6,22.9,214.9,22.9 M214.9-0.1C96.1-0.1-0.2,96.2-0.2,215.1s96.3,215.1,215.1,215.1S430,333.9,430,215.1
		S333.7-0.1,214.9-0.1L214.9-0.1z"/>
</g>
<path class="st2" d="M203.9,296.4c-43.5,0-59.6-0.1-103.2,0.2c-6.6,0-8.8-1.5-8.7-8.4c0.4-30,0.2-59.9,0.2-89.9
	c0-30.2,0.1-60.4-0.1-90.6c0-5.5,1.4-7.2,7.1-7.2c33.5,0.3,66.9,0,100.4,0.3c3.1,0,6.8,1.7,9,3.8c9.2,8.6,18.2,17.6,26.8,26.8
	c2,2.1,3.4,5.6,3.5,8.4c0.4,13.8,0.3,39.9,0.1,53.7c0,3.9-6.7,10.7-2.8,12.6c0,0-33.9-12.9-47.1,18.6
	c-13.2,31.5,14.3,55.7,14.3,55.7L203.9,296.4z M185.9,210.3c-23.4,0-46,0-68.5,0c0-4.3,0-7.7,0-11.6c3,0,5.5,0,8.1,0
	c22.2,0,44.5,0.1,66.7-0.1c2.9,0,5.8-1,8.5-2.1c7.3-2.9,14.6-0.3,21.8-3.5c1.5-0.7,3.9-1.8,4-2.8c0.3-11.6,0.2-28.9,0.2-41.1
	c-12.7,0-24.3,0-36.6,0c0-12.3,0-23.9,0-35.8c-28.8,0-57,0-85.4,0c0,57.1,0,113.6,0,170.5c30.7,0,61,0,93.1,0
	c-15.2-13.5-20.7-29.8-20.1-48.8c-10.7,0-20.5,0-30.3,0c-10,0-20,0-30,0c0-4.5,0-7.9,0-12.1c2.9,0,5.4,0,7.9,0c15.2,0,30.4,0,45.7,0
	C181.8,222.9,181.8,222.9,185.9,210.3z M221.6,137.1c-6.2-6.5-12.3-12.9-19-19.9c0,6.9,0,13.3,0,19.9
	C209.4,137.1,215.7,137.1,221.6,137.1z"/>
<path id="XMLID_1652_" class="st2" d="M117.3,185.6c0-3.8,0-7,0-10.8c32.1,0,64,0,96.4,0c0,3.5,0,6.8,0,10.8
	C181.7,185.6,149.9,185.6,117.3,185.6z"/>
<path id="XMLID_1655_" class="st0" d="M171.4,249.5c-0.1,23.4,18.3,42.1,41.5,42.2c23.4,0.2,42.5-18.8,42.4-42.2
	c-0.1-23.1-18.7-41.7-42-41.7C189.8,207.8,171.4,226.1,171.4,249.5z"/>
<g id="XMLID_1523_">
	<path id="XMLID_1711_" class="st2" d="M228.2,293.4c7.3-6.3,12.6-13.6,15.6-22.3c4.9-14.3,4.1-28.1-5.2-40.6
		c-12-16.3-35.4-18-49.5-3.8c-4.9,4.9-6.5,11.1-6.3,17.8c0.1,2.5,0.5,5,1.1,7.3c4.3,16.4,22.6,19.4,32.4,14.5
		c7.4-3.7,10.7-12.7,7.4-20.1c-2.2-4.9-7.1-7.9-12.7-7.4c3.6,1.4,6.1,3.4,7.2,6.9c2.8,8.8-3.7,16-13.3,14.8
		c-6.6-0.8-11.6-3.8-13.4-10.5c-1.9-7.1-1.6-13.8,4.3-19.1c11.3-10.1,28.8-7.7,37.4,5.3c7.6,11.5,7.5,23.8,1.7,35.8
		c-7.6,15.8-20.7,24.7-37.9,27.2c-12,1.8-23-0.9-32.2-9.2c-6.1-5.5-10.1-12.6-12.6-20.4c-7.2-22.3-4.7-43.3,11.6-60.8
		c26.4-28.3,71.1-28.9,96.6,5c10,13.3,16.9,28,19,44.7c0.8,6.2,0.7,12.6,0.1,18.8c-0.8,8-5.5,13.8-12.5,17.4
		c-11.1,5.7-22.5,6-34,1.1C231.4,295.4,229.9,294.4,228.2,293.4z"/>
	<path id="XMLID_1710_" class="st2" d="M138.9,330.5c3.2-5.2,7.3-9,11.8-12.4c7.1-5.3,15-9.3,23.3-12.6c0.7-0.3,1.5-0.4,2.2-0.2
		c15.9,4.6,30.7,1.8,44.7-6.6c0.3-0.2,0.6-0.3,1-0.5c5.4,4.6,11.8,7.4,18.9,8.3c14.1,1.9,27-0.7,37.7-10.7
		c5.6-5.2,8.7-11.9,9.1-19.4c0.3-6.5-0.2-13-0.2-19.4c0-1.2,0.1-2.5,0.3-3.7c0.9-4.3,2.4-8.6,2.7-12.9c0.4-4.6-0.1-9.2-0.4-13.8
		c-0.6-9.2-1.7-18.3-0.6-27.5c0.4-3.3,1.4-6.6,2.5-9.8c0.6-1.7,1.8-3.3,3-4.6c2.3-2.5,5.2-4.2,7.2-7.2c2.2-3.3,7.2-3.2,10.2-0.7
		c3.2,2.6,3.8,7.1,1.5,10.5c-2.3,3.3-6.6,4.3-10.1,2.3c-0.5-0.3-1-0.7-2.1-1.3c-1,1.7-2.5,3.2-3,5c-0.9,3.2-1.8,6.5-1.7,9.7
		c0.2,9.9,0.9,19.9,1.3,29.8c0.1,1.9,0,3.8,0.4,5.6c0.2,1.1,0.8,2.3,1.7,3c2.8,2.3,6.1,3.1,9.7,2.2c1.2-0.3,1.8-0.8,1.5-2.3
		c-1.9-10.9-2.3-21.7,0.7-32.5c1.3-4.8,3.4-9.3,6.4-13.4c0.6-0.8,1-1.9,1-3c0.3-4.4,4-7.8,8.3-7.4c4.5,0.4,7.6,4.2,7.1,8.7
		c-0.5,4.3-4.5,7.4-8.9,6.6c-1.2-0.2-1.7,0.2-2.3,1.1c-3.8,5.8-5.4,12.4-5.9,19.2c-0.6,8.3,0.8,16.4,2.2,24.5
		c2.9,16.6,3.1,33.3-1.8,49.7c-3.6,12-9.9,22.2-20.8,29c-7,4.4-14.8,6.5-23,6.6c-9.9,0.2-19.8,0.1-29.7,0.1c-34.4,0-68.7,0-103.1,0
		C140.9,330.5,140.1,330.5,138.9,330.5z"/>
</g>
</svg>
