<?xml version="1.0" encoding="utf-8"?>
<!-- Generator: Adobe Illustrator 22.0.0, SVG Export Plug-In . SVG Version: 6.00 Build 0)  -->
<svg version="1.1" id="Layer_1" xmlns="http://www.w3.org/2000/svg" xmlns:xlink="http://www.w3.org/1999/xlink" x="0px" y="0px"
	 viewBox="0 0 430 430" style="enable-background:new 0 0 430 430;" xml:space="preserve">
<style type="text/css">
	.st0{fill:#FFFFFF;}
	.st1{fill:#45C5E6;}
	.st2{fill:#D81117;}
</style>
<g id="XMLID_388_">
	<path class="st0" d="M214.9,418.7c-112.3,0-203.6-91.3-203.6-203.6S102.6,11.5,214.9,11.5s203.6,91.3,203.6,203.6
		C418.5,327.3,327.2,418.7,214.9,418.7z"/>
	<path class="st1" d="M214.9,22.9c51.3,0,99.6,20,135.8,56.3C387,115.5,407,163.7,407,215.1s-20,99.6-56.3,135.8
		c-36.3,36.3-84.5,56.3-135.8,56.3s-99.6-20-135.8-56.3c-36.3-36.3-56.3-84.5-56.3-135.8s20-99.6,56.3-135.8
		C115.3,42.9,163.6,22.9,214.9,22.9 M214.9-0.1C96.1-0.1-0.2,96.2-0.2,215.1s96.3,215.1,215.1,215.1S430,333.9,430,215.1
		S333.7-0.1,214.9-0.1L214.9-0.1z"/>
</g>
<path id="XMLID_1655_" class="st0" d="M171.4,249.5c-0.1,23.4,18.3,42.1,41.5,42.2c23.4,0.2,42.5-18.8,42.4-42.2
	c-0.1-23.1-18.7-41.7-42-41.7C189.8,207.8,171.4,226.1,171.4,249.5z"/>
<g id="XMLID_44_">
	<path id="XMLID_47_" class="st2" d="M213.8,115.5c18.1,0,32.8,14.7,32.8,32.8c0,11.2-5.7,21.5-15.1,27.6l-17.7,11.3l-17.7-11.3
		c-9.4-6.1-15.1-16.4-15.1-27.6C181,130.2,195.7,115.5,213.8,115.5 M213.8,213l27.3,2.5c11.9,1.1,22.9,6.5,31,15.4
		c8.2,8.9,12.7,20.4,12.7,32.4v32.6c0,5.8-3.9,10.9-9.5,12.5c-12.4,3.4-31.3,7.1-55.5,7.1c-21.2,0-43.2-2.7-65.6-8.1
		c-6.7-1.6-11.4-7.6-11.4-14.5v-29.6c0-12,4.5-23.6,12.7-32.4c8.1-8.8,19.1-14.3,31-15.4L213.8,213 M213.8,94
		c-30,0-54.3,24.3-54.3,54.3c0,19.2,10,36,25,45.7c-35.4,3.2-63.3,33-63.3,69.3v56.4l0.1,0.9l3.9,1.2c36.6,11.4,68.4,15.3,94.6,15.3
		c51.1,0,80.7-14.6,82.6-15.5l3.6-1.8h0.4v-56.4c0-36.2-27.9-66.1-63.3-69.3c15-9.7,25-26.5,25-45.7C268.1,118.3,243.8,94,213.8,94
		L213.8,94z"/>
</g>
<circle id="XMLID_77_" class="st2" cx="213.8" cy="145.8" r="46.1"/>
<circle id="XMLID_78_" class="st0" cx="213.8" cy="146.9" r="34.2"/>
</svg>
