<?xml version="1.0" encoding="utf-8"?>
<!-- Generator: Adobe Illustrator 22.0.0, SVG Export Plug-In . SVG Version: 6.00 Build 0)  -->
<svg version="1.1" id="Layer_1" xmlns="http://www.w3.org/2000/svg" xmlns:xlink="http://www.w3.org/1999/xlink" x="0px" y="0px"
	 viewBox="0 0 430 430" style="enable-background:new 0 0 430 430;" xml:space="preserve">
<style type="text/css">
	.st0{fill:#FFFFFF;}
	.st1{fill:#45C5E6;}
	.st2{fill:#D81117;}
</style>
<g id="XMLID_388_">
	<path class="st0" d="M214.9,418.7c-112.3,0-203.6-91.3-203.6-203.6S102.6,11.5,214.9,11.5s203.6,91.3,203.6,203.6
		C418.5,327.3,327.2,418.7,214.9,418.7z"/>
	<path class="st1" d="M214.9,22.9c51.3,0,99.6,20,135.8,56.3C387,115.5,407,163.7,407,215.1s-20,99.6-56.3,135.8
		c-36.3,36.3-84.5,56.3-135.8,56.3s-99.6-20-135.8-56.3c-36.3-36.3-56.3-84.5-56.3-135.8s20-99.6,56.3-135.8
		C115.3,42.9,163.6,22.9,214.9,22.9 M214.9-0.1C96.1-0.1-0.2,96.2-0.2,215.1s96.3,215.1,215.1,215.1S430,333.9,430,215.1
		S333.7-0.1,214.9-0.1L214.9-0.1z"/>
</g>
<path id="XMLID_1655_" class="st0" d="M171.4,249.5c-0.1,23.4,18.3,42.1,41.5,42.2c23.4,0.2,42.5-18.8,42.4-42.2
	c-0.1-23.1-18.7-41.7-42-41.7C189.8,207.8,171.4,226.1,171.4,249.5z"/>
<g id="XMLID_14_">
	<path id="XMLID_15_" class="st2" d="M93.2,201.8c0-33,0.1-66-0.1-98.9c-0.1-6,1.5-7.9,7.7-7.9c36.6,0.3,73.1,0,109.7,0.3
		c3.3,0,7.4,1.9,9.9,4.2c10.1,9.4,19.8,19.2,29.3,29.2c2.2,2.3,3.8,6.1,3.8,9.2c0.4,15.1,0.3,30.2,0.1,45.2c-0.1,4.3,1,6,5.6,7
		c31.6,7,50.6,34.2,46.9,66.4c-3.4,30.1-29.4,52.4-61,52.4c-47.6,0-95.1-0.1-142.7,0.2c-7.2,0-9.6-1.6-9.5-9.2
		C93.4,267.2,93.2,234.5,93.2,201.8z M195.6,215c-25.6,0-50.2,0-74.8,0c0-4.7,0-8.4,0-12.7c3.3,0,6,0,8.8,0
		c24.3,0,48.6,0.1,72.9-0.1c3.1,0,6.4-1.1,9.3-2.3c8-3.2,15.9-6.6,23.8-10.1c1.6-0.7,4.3-2,4.3-3.1c0.3-12.6,0.2-25.3,0.2-38.7
		c-13.9,0-26.6,0-40,0c0-13.4,0-26.1,0-39.1c-31.5,0-62.3,0-93.3,0c0,62.3,0,124.1,0,186.3c33.6,0,66.6,0,101.6,0
		C192,280.4,186,262.7,186.6,242c-11.7,0-22.4,0-33.1,0c-10.9,0-21.8,0-32.7,0c0-4.9,0-8.6,0-13.3c3.1,0,5.9,0,8.6,0
		c16.6,0,33.2,0,49.9,0C191.1,228.7,191.1,228.7,195.6,215z M201.1,248.6c-0.1,25.5,20,45.9,45.3,46.1c25.5,0.2,46.4-20.6,46.3-46.1
		c-0.1-25.3-20.5-45.5-45.9-45.5C221.2,203.1,201.2,223,201.1,248.6z M234.6,135c-6.8-7.1-13.5-14.1-20.7-21.7c0,7.6,0,14.5,0,21.7
		C221.3,135,228.2,135,234.6,135z"/>
	<path id="XMLID_23_" class="st2" d="M120.6,188c0-4.2,0-7.7,0-11.7c35.1,0,69.9,0,105.3,0c0,3.8,0,7.5,0,11.7
		C191,188,156.2,188,120.6,188z"/>
</g>
<circle id="XMLID_35_" class="st2" cx="257.1" cy="257.9" r="78.9"/>
<circle id="XMLID_37_" class="st0" cx="258" cy="258.4" r="66.5"/>
<g id="XMLID_38_">
	<g>
		<path id="XMLID_30_" class="st2" d="M244.7,249.3c1.9,0.4,3.8,0.7,5.8,0.7c7.8,0,17.7-4.5,17.7-13.6c0-5.6-4.3-10.3-10-10.3
			c-6.3,0-9.6,4.5-9.6,10.4h-27.3c0.1-20.9,18.3-32.2,37.6-32.2c8.6,0,17.3,2.7,24,8.5c6.9,5.8,11.8,14.7,11.8,23.7
			c0,15.5-10.8,25.2-24.8,29.6v9.7h-25.1L244.7,249.3L244.7,249.3z M273.8,297.1c0,8.8-7.1,16.1-16.1,16.1
			c-8.9,0-16.1-7.3-16.1-16.1c0-8.9,7.1-16.1,16.1-16.1C266.7,281.1,273.8,288.2,273.8,297.1z"/>
	</g>
</g>
</svg>
