<?xml version="1.0" encoding="utf-8"?>
<!-- Generator: Adobe Illustrator 21.0.2, SVG Export Plug-In . SVG Version: 6.00 Build 0)  -->
<svg version="1.1" id="Layer_1" xmlns="http://www.w3.org/2000/svg" xmlns:xlink="http://www.w3.org/1999/xlink" x="0px" y="0px"
	 viewBox="0 0 998.6 1386.8" style="enable-background:new 0 0 998.6 1386.8;" xml:space="preserve">
<style type="text/css">
	.st0{fill:none;stroke:#E42527;stroke-width:4;stroke-miterlimit:10;}
	.st1{fill:#9D9D9C;}
	.st2{fill:#929191;}
	.st3{fill:#FFFFFF;}
	.st4{fill:#E42527;}
</style>
<line id="XMLID_7826_" class="st0" x1="722.4" y1="134" x2="722.4" y2="1337.1"/>
<rect id="XMLID_7545_" x="97.7" y="637.5" class="st1" width="350.1" height="158.5"/>
<rect id="XMLID_7543_" x="97.7" y="953.8" class="st2" width="350.1" height="158.5"/>
<rect id="XMLID_7542_" x="549.9" y="-4.9" class="st1" width="350.1" height="158.5"/>
<g id="XMLID_23890_">
	<g>
		<path id="XMLID_241_" class="st3" d="M174,715c-0.9-1.2-2.4-1.9-4-1.9c-2.8,0-4.7,2.1-4.7,4.8c0,2.8,1.9,4.7,4.7,4.7
			c1.5,0,3-0.7,3.9-1.9v5.4c-1.5,0.5-2.6,0.8-4,0.8c-2.4,0-4.7-0.9-6.6-2.6c-1.9-1.7-2.8-4-2.8-6.6c0-2.4,0.9-4.7,2.6-6.4
			c1.7-1.8,4.2-2.8,6.6-2.8c1.5,0,2.8,0.3,4.1,0.9V715z"/>
		<path id="XMLID_238_" class="st3" d="M195.2,717.6c0,5.6-4.1,9.6-9.7,9.6s-9.7-4-9.7-9.6c0-5.3,4.6-9,9.7-9
			C190.6,708.6,195.2,712.3,195.2,717.6z M180.6,717.6c0,3,2.2,5.2,4.9,5.2s4.9-2.2,4.9-5.2c0-2.4-2.2-4.6-4.9-4.6
			S180.6,715.2,180.6,717.6z"/>
		<path id="XMLID_236_" class="st3" d="M197.3,709.2h4.5l8.3,10.7h0v-10.7h4.5v17.5h-4.5l-8.3-10.7h0v10.7h-4.5V709.2z"/>
		<path id="XMLID_234_" class="st3" d="M224.6,726.6h-4.5V713h-3.7v-3.8h12v3.8h-3.7V726.6z"/>
		<path id="XMLID_231_" class="st3" d="M244.5,726.6h-5.6l-4.3-6.7h0v6.7H230v-17.5h6.8c3.4,0,6.1,1.6,6.1,5.4
			c0,2.4-1.3,4.5-3.8,4.9L244.5,726.6z M234.6,717h0.4c1.5,0,3.1-0.3,3.1-2.2c0-1.9-1.7-2.2-3.1-2.2h-0.4V717z"/>
		<path id="XMLID_229_" class="st3" d="M250.3,726.6h-4.5v-17.5h4.5V726.6z"/>
		<path id="XMLID_225_" class="st3" d="M253.3,726.6v-17.5h6.5c3.1,0,5.2,1.2,5.2,4.5c0,1.6-0.5,2.8-1.9,3.6v0
			c2.5,0.3,3.6,2,3.6,4.4c0,3.7-3.1,4.9-6.3,4.9H253.3z M257.8,716h0.5c1.2,0,2.5-0.2,2.5-1.7c0-1.6-1.4-1.7-2.6-1.7h-0.3V716z
			 M257.8,723.1h0.6c1.3,0,3.6,0.1,3.6-1.9c0-2.1-2.2-1.9-3.7-1.9h-0.5V723.1z"/>
		<path id="XMLID_223_" class="st3" d="M284.1,709.2v9.8c0,2.2-0.1,4.5-1.8,6.2c-1.5,1.4-3.8,1.9-5.8,1.9s-4.3-0.5-5.8-1.9
			c-1.7-1.7-1.8-3.9-1.8-6.2v-9.8h4.5v9.2c0,2.3,0.2,4.7,3.1,4.7s3.1-2.5,3.1-4.7v-9.2H284.1z"/>
		<path id="XMLID_221_" class="st3" d="M285,709.2h5.4l3.3,4.7l3.3-4.7h5.4l-6.4,9.1v8.4h-4.5v-8.4L285,709.2z"/>
		<path id="XMLID_219_" class="st3" d="M308,713v2.9h5.1v3.8H308v3h5.4v3.8h-9.9v-17.5h9.9v3.8H308z"/>
		<path id="XMLID_217_" class="st3" d="M316.2,709.2h4.5l8.3,10.7h0v-10.7h4.5v17.5h-4.5l-8.3-10.7h0v10.7h-4.5V709.2z"/>
		<path id="XMLID_215_" class="st3" d="M343.5,726.6H339V713h-3.7v-3.8h12v3.8h-3.7V726.6z"/>
		<path id="XMLID_213_" class="st3" d="M353.5,713v2.9h5.1v3.8h-5.1v3h5.4v3.8h-9.9v-17.5h9.9v3.8H353.5z"/>
	</g>
</g>
<g id="XMLID_23789_">
	<g>
		<path id="XMLID_1229_" class="st3" d="M154.9,1002.8l4.2-10.6h4.9l-7.5,17.5h-3.5l-7.3-17.5h4.9L154.9,1002.8z"/>
		<path id="XMLID_1227_" class="st3" d="M169.8,996.1v2.9h5.1v3.8h-5.1v3h5.4v3.8h-9.9v-17.5h9.9v3.8H169.8z"/>
		<path id="XMLID_1225_" class="st3" d="M178,992.2h4.5l8.3,10.7h0v-10.7h4.5v17.5h-4.5l-8.3-10.7h0v10.7H178V992.2z"/>
		<path id="XMLID_1223_" class="st3" d="M205.3,1009.7h-4.5v-13.6H197v-3.8h12v3.8h-3.8V1009.7z"/>
		<path id="XMLID_1220_" class="st3" d="M213.8,1006.6l-1.2,3h-4.8l6.7-17.5h5l6.6,17.5h-4.8l-1.1-3H213.8z M216.9,997.6
			L216.9,997.6l-1.9,5.6h3.8L216.9,997.6z"/>
		<path id="XMLID_1218_" class="st3" d="M227.4,992.2h4.5l8.3,10.7h0v-10.7h4.5v17.5h-4.5L232,999h0v10.7h-4.5V992.2z"/>
		<path id="XMLID_1216_" class="st3" d="M252.3,1009.7h-4.5v-17.5h4.5V1009.7z"/>
		<path id="XMLID_1214_" class="st3" d="M259.8,1005.8h5.4v3.8h-10v-17.5h4.5V1005.8z"/>
		<path id="XMLID_1212_" class="st3" d="M271.3,1005.8h5.4v3.8h-10v-17.5h4.5V1005.8z"/>
		<path id="XMLID_1209_" class="st3" d="M282.6,1006.6l-1.2,3h-4.8l6.7-17.5h5l6.6,17.5H290l-1.1-3H282.6z M285.8,997.6L285.8,997.6
			l-1.9,5.6h3.8L285.8,997.6z"/>
		<path id="XMLID_1206_" class="st3" d="M319.3,992.2v9.8c0,2.2-0.1,4.5-1.8,6.2c-1.5,1.4-3.8,1.9-5.8,1.9s-4.3-0.5-5.8-1.9
			c-1.7-1.7-1.8-3.9-1.8-6.2v-9.8h4.5v9.2c0,2.3,0.2,4.7,3.1,4.7s3.1-2.5,3.1-4.7v-9.2H319.3z M311.2,991.1l-1.9-1.4l3.3-4l2.6,1.9
			L311.2,991.1z"/>
		<path id="XMLID_1204_" class="st3" d="M322.2,992.2h4.5l8.3,10.7h0v-10.7h4.5v17.5h-4.5l-8.3-10.7h0v10.7h-4.5V992.2z"/>
		<path id="XMLID_1202_" class="st3" d="M347.1,1009.7h-4.5v-17.5h4.5V1009.7z"/>
		<path id="XMLID_1200_" class="st3" d="M362.6,998.1c-0.9-1.2-2.4-1.9-4-1.9c-2.8,0-4.7,2.1-4.7,4.8c0,2.8,1.9,4.7,4.7,4.7
			c1.5,0,3-0.7,3.9-1.9v5.4c-1.5,0.5-2.6,0.8-4,0.8c-2.4,0-4.7-0.9-6.6-2.6c-1.9-1.7-2.8-4-2.8-6.6c0-2.4,0.9-4.7,2.6-6.4
			c1.7-1.8,4.2-2.8,6.6-2.8c1.5,0,2.8,0.3,4.1,0.9V998.1z"/>
		<path id="XMLID_1197_" class="st3" d="M369.8,1006.6l-1.2,3h-4.8l6.7-17.5h5l6.6,17.5h-4.8l-1.1-3H369.8z M373,997.6L373,997.6
			l-1.9,5.6h3.8L373,997.6z"/>
		<path id="XMLID_1195_" class="st3" d="M173,1023.8v2.9h5.1v3.8H173v3h5.4v3.8h-9.9V1020h9.9v3.8H173z"/>
		<path id="XMLID_1193_" class="st3" d="M185.3,1027.1L185.3,1027.1c1-1.4,2.2-1.9,3.8-1.9c3.2,0,4.5,2,4.5,4.9v7.3h-4.2v-5.8
			c0-1.1,0.2-3.1-1.9-3.1c-1.7,0-2.2,1.3-2.2,2.8v6.2h-4.2v-11.9h4.2V1027.1z"/>
		<path id="XMLID_1191_" class="st3" d="M201,1037.4h-4.2v-8.4h-1.4v-3.5h1.4v-3.6h4.2v3.6h2.4v3.5H201V1037.4z"/>
		<path id="XMLID_1189_" class="st3" d="M208.9,1027.5L208.9,1027.5c0.9-1.5,2.2-2.1,3.9-2.1h0.8v4.1c-0.6-0.3-1.1-0.4-1.8-0.4
			c-2.3,0-2.9,1.6-2.9,3.6v4.8h-4.2v-11.9h4.2V1027.5z"/>
		<path id="XMLID_1186_" class="st3" d="M227.4,1032.2h-8.9c0,1.7,0.9,2.6,2.6,2.6c0.9,0,1.6-0.3,2-1.1h4.1
			c-0.3,1.4-1.2,2.4-2.2,3.1c-1.1,0.7-2.4,1-3.8,1c-3.9,0-6.9-2.2-6.9-6.3c0-4,2.7-6.3,6.6-6.3c4.1,0,6.5,2.5,6.5,6.6V1032.2z
			 M223.5,1029.8c-0.2-1.1-1.2-1.9-2.4-1.9c-1.2,0-2.2,0.6-2.5,1.9H223.5z"/>
		<path id="XMLID_1183_" class="st3" d="M242.3,1036.3c0,5-2.5,7.1-6.9,7.1c-2.7,0-6.4-1.4-6.8-4.5h4.7c0.1,0.4,0.4,0.7,0.8,0.9
			c0.4,0.2,0.8,0.3,1.2,0.3c2.3,0,2.7-1.5,2.7-3.4v-0.6c-1.1,1.1-2.2,1.6-3.8,1.6c-3.5,0-5.9-2.6-5.9-6.1c0-3.5,2.5-6.4,6.1-6.4
			c1.4,0,2.7,0.5,3.5,1.6h0v-1.3h4.2V1036.3z M232.8,1031.4c0,1.5,1,2.7,2.7,2.7c1.7,0,2.7-1.2,2.7-2.7c0-1.5-1-2.7-2.7-2.7
			C233.8,1028.7,232.8,1030,232.8,1031.4z"/>
		<path id="XMLID_1180_" class="st3" d="M258,1037.4h-4.2v-1.3h0c-0.7,1.2-2.2,1.7-3.6,1.7c-3.5,0-6-2.9-6-6.3s2.4-6.3,5.9-6.3
			c1.4,0,2.8,0.5,3.7,1.6v-1.2h4.2V1037.4z M248.5,1031.5c0,1.5,1,2.7,2.7,2.7c1.7,0,2.7-1.2,2.7-2.7c0-1.5-1-2.7-2.7-2.7
			C249.5,1028.8,248.5,1030.1,248.5,1031.5z"/>
		<path id="XMLID_1178_" class="st3" d="M273.3,1037.4h-4.2v-8.4h-1.4v-3.5h1.4v-3.6h4.2v3.6h2.4v3.5h-2.4V1037.4z"/>
		<path id="XMLID_1175_" class="st3" d="M290.5,1031.5c0,4-3.3,6.3-7.2,6.3c-3.8,0-7.2-2.3-7.2-6.3s3.3-6.3,7.2-6.3
			C287.1,1025.2,290.5,1027.5,290.5,1031.5z M280.6,1031.5c0,1.5,1,2.7,2.7,2.7c1.7,0,2.7-1.2,2.7-2.7c0-1.5-1-2.7-2.7-2.7
			C281.6,1028.8,280.6,1030.1,280.6,1031.5z"/>
		<path id="XMLID_1172_" class="st3" d="M301.3,1036.1L301.3,1036.1c-0.8,1.2-2.2,1.7-3.6,1.7c-3.5,0-6-2.9-6-6.3s2.4-6.3,5.9-6.3
			c1.4,0,2.8,0.5,3.7,1.6v-8.5h4.2v19.2h-4.2V1036.1z M296,1031.5c0,1.5,1,2.7,2.7,2.7c1.7,0,2.7-1.2,2.7-2.7c0-1.5-1-2.7-2.7-2.7
			C297,1028.8,296,1030.1,296,1031.5z"/>
		<path id="XMLID_1169_" class="st3" d="M321.1,1037.4h-4.2v-1.3h0c-0.7,1.2-2.2,1.7-3.6,1.7c-3.5,0-6-2.9-6-6.3s2.4-6.3,5.9-6.3
			c1.4,0,2.8,0.5,3.7,1.6v-1.2h4.2V1037.4z M311.6,1031.5c0,1.5,1,2.7,2.7,2.7c1.7,0,2.7-1.2,2.7-2.7c0-1.5-1-2.7-2.7-2.7
			C312.6,1028.8,311.6,1030.1,311.6,1031.5z"/>
		<path id="XMLID_1167_" class="st3" d="M336.1,1037.4h-4.2v-19.2h4.2V1037.4z"/>
		<path id="XMLID_1164_" class="st3" d="M351.8,1037.4h-4.2v-1.3h0c-0.7,1.2-2.2,1.7-3.6,1.7c-3.5,0-6-2.9-6-6.3s2.4-6.3,5.9-6.3
			c1.4,0,2.8,0.5,3.7,1.6v-1.2h4.2V1037.4z M342.3,1031.5c0,1.5,1,2.7,2.7,2.7c1.7,0,2.7-1.2,2.7-2.7c0-1.5-1-2.7-2.7-2.7
			C343.3,1028.8,342.3,1030.1,342.3,1031.5z"/>
		<path id="XMLID_1161_" class="st3" d="M183,1063.9L183,1063.9c-0.8,1.2-2.2,1.7-3.6,1.7c-3.5,0-6-2.9-6-6.3c0-3.4,2.4-6.3,5.9-6.3
			c1.4,0,2.8,0.5,3.7,1.6v-8.5h4.2v19.2H183V1063.9z M177.7,1059.3c0,1.5,1,2.7,2.7,2.7c1.7,0,2.7-1.2,2.7-2.7c0-1.5-1-2.7-2.7-2.7
			C178.7,1056.6,177.7,1057.8,177.7,1059.3z"/>
		<path id="XMLID_1158_" class="st3" d="M203.3,1059.3c0,4-3.3,6.3-7.2,6.3c-3.8,0-7.2-2.3-7.2-6.3s3.3-6.3,7.2-6.3
			C199.9,1052.9,203.3,1055.2,203.3,1059.3z M193.4,1059.3c0,1.5,1,2.7,2.7,2.7c1.7,0,2.7-1.2,2.7-2.7c0-1.5-1-2.7-2.7-2.7
			C194.4,1056.6,193.4,1057.8,193.4,1059.3z"/>
		<path id="XMLID_1156_" class="st3" d="M213.7,1057.2c-0.6-0.5-1.4-0.8-2.2-0.8c-1.6,0-2.9,1.2-2.9,2.9c0,1.7,1.2,2.9,3,2.9
			c0.7,0,1.6-0.3,2.1-0.8v3.6c-0.9,0.5-1.9,0.7-3,0.7c-3.5,0-6.5-2.6-6.5-6.2c0-3.8,2.9-6.5,6.6-6.5c1,0,1.9,0.2,2.8,0.7V1057.2z"/>
		<path id="XMLID_1154_" class="st3" d="M220.5,1053.3v6.3c0,1.5,0.4,2.6,2.1,2.6c1.7,0,2.1-1.1,2.1-2.6v-6.3h4.2v7.2
			c0,3.9-2.8,5.1-6.3,5.1c-3.6,0-6.3-1.2-6.3-5.1v-7.2H220.5z"/>
		<path id="XMLID_1152_" class="st3" d="M235.8,1054.8L235.8,1054.8c1-1.3,2.3-1.9,3.8-1.9c1.7,0,3.2,0.7,4.1,2.3
			c0.8-1.5,2.4-2.3,4-2.3c3,0,4.1,2,4.1,4.7v7.6h-4.2v-5.7c0-1.2,0-3.2-1.7-3.2c-1.9,0-2,1.8-2,3.2v5.7h-4.2v-5.7
			c0-1.3,0-3.3-1.9-3.3c-1.9,0-1.9,2-1.9,3.3v5.7h-4.2v-11.9h4.2V1054.8z"/>
		<path id="XMLID_1149_" class="st3" d="M266.7,1060h-8.9c0,1.7,0.9,2.6,2.6,2.6c0.9,0,1.6-0.3,2-1.1h4.1c-0.3,1.4-1.2,2.4-2.2,3.1
			c-1.1,0.7-2.4,1-3.8,1c-3.9,0-6.9-2.2-6.9-6.3c0-4,2.7-6.3,6.6-6.3c4.1,0,6.5,2.5,6.5,6.6V1060z M262.8,1057.6
			c-0.2-1.1-1.2-1.9-2.4-1.9c-1.2,0-2.2,0.6-2.5,1.9H262.8z"/>
		<path id="XMLID_1147_" class="st3" d="M272.8,1054.9L272.8,1054.9c1-1.4,2.2-1.9,3.8-1.9c3.2,0,4.5,2,4.5,4.9v7.3h-4.2v-5.8
			c0-1.1,0.2-3.1-1.9-3.1c-1.7,0-2.2,1.3-2.2,2.8v6.2h-4.2v-11.9h4.2V1054.9z"/>
		<path id="XMLID_1145_" class="st3" d="M288.5,1065.2h-4.2v-8.4H283v-3.5h1.4v-3.6h4.2v3.6h2.4v3.5h-2.4V1065.2z"/>
		<path id="XMLID_1142_" class="st3" d="M305.2,1065.2H301v-1.3h0c-0.7,1.2-2.2,1.7-3.6,1.7c-3.5,0-6-2.9-6-6.3
			c0-3.4,2.4-6.3,5.9-6.3c1.4,0,2.8,0.5,3.7,1.6v-1.2h4.2V1065.2z M295.8,1059.3c0,1.5,1,2.7,2.7,2.7c1.7,0,2.7-1.2,2.7-2.7
			c0-1.5-1-2.7-2.7-2.7C296.7,1056.6,295.8,1057.8,295.8,1059.3z"/>
		<path id="XMLID_1140_" class="st3" d="M316.6,1057.2c-0.6-0.5-1.4-0.8-2.2-0.8c-1.6,0-2.9,1.2-2.9,2.9c0,1.7,1.2,2.9,3,2.9
			c0.7,0,1.6-0.3,2.1-0.8v3.6c-0.9,0.5-1.9,0.7-3,0.7c-3.5,0-6.5-2.6-6.5-6.2c0-3.8,2.9-6.5,6.6-6.5c1,0,1.9,0.2,2.8,0.7V1057.2z"/>
		<path id="XMLID_1137_" class="st3" d="M323.7,1048.8c0,1.3-1.1,2.4-2.4,2.4c-1.3,0-2.4-1.1-2.4-2.4c0-1.3,1.1-2.4,2.4-2.4
			C322.6,1046.4,323.7,1047.5,323.7,1048.8z M323.4,1065.2h-4.2v-11.9h4.2V1065.2z"/>
		<path id="XMLID_1133_" class="st3" d="M339.6,1059.3c0,4-3.3,6.3-7.2,6.3c-3.8,0-7.2-2.3-7.2-6.3s3.3-6.3,7.2-6.3
			C336.3,1052.9,339.6,1055.2,339.6,1059.3z M329.8,1059.3c0,1.5,1,2.7,2.7,2.7c1.7,0,2.7-1.2,2.7-2.7c0-1.5-1-2.7-2.7-2.7
			C330.8,1056.6,329.8,1057.8,329.8,1059.3z M332,1051.6l-1.9-1.4l3.3-4l2.6,1.9L332,1051.6z"/>
		<path id="XMLID_1131_" class="st3" d="M345.7,1054.9L345.7,1054.9c1-1.4,2.2-1.9,3.8-1.9c3.2,0,4.5,2,4.5,4.9v7.3h-4.2v-5.8
			c0-1.1,0.2-3.1-1.9-3.1c-1.7,0-2.2,1.3-2.2,2.8v6.2h-4.2v-11.9h4.2V1054.9z"/>
	</g>
</g>
<g id="XMLID_23641_">
	<g>
		<path id="XMLID_1840_" class="st3" d="M602.2,48l-1.2,3h-4.8l6.7-17.5h5l6.6,17.5h-4.8l-1.1-3H602.2z M605.4,38.9L605.4,38.9
			l-1.9,5.6h3.8L605.4,38.9z"/>
		<path id="XMLID_1836_" class="st3" d="M630.3,51h-5.6l-4.3-6.7h0V51h-4.5V33.5h6.8c3.4,0,6.1,1.6,6.1,5.4c0,2.4-1.3,4.5-3.8,4.9
			L630.3,51z M620.4,41.4h0.4c1.5,0,3.1-0.3,3.1-2.2c0-1.9-1.7-2.2-3.1-2.2h-0.4V41.4z"/>
		<path id="XMLID_1834_" class="st3" d="M636.1,37.4v2.9h5.1v3.8h-5.1v3h5.4V51h-9.9V33.5h9.9v3.8H636.1z"/>
		<path id="XMLID_1831_" class="st3" d="M648.7,48l-1.2,3h-4.8l6.7-17.5h5L661,51h-4.8l-1.1-3H648.7z M651.9,38.9L651.9,38.9
			l-1.9,5.6h3.8L651.9,38.9z"/>
		<path id="XMLID_1829_" class="st3" d="M677.3,51h-4.5V37.4H669v-3.8h12v3.8h-3.8V51z"/>
		<path id="XMLID_1827_" class="st3" d="M687.2,37.4v2.9h5.1v3.8h-5.1v3h5.4V51h-9.9V33.5h9.9v3.8H687.2z"/>
		<path id="XMLID_1825_" class="st3" d="M707.9,39.4c-0.9-1.2-2.4-1.9-4-1.9c-2.8,0-4.7,2.1-4.7,4.8c0,2.8,1.9,4.7,4.7,4.7
			c1.5,0,3-0.7,3.9-1.9v5.4c-1.5,0.5-2.6,0.8-4,0.8c-2.4,0-4.7-0.9-6.6-2.6c-1.9-1.7-2.8-4-2.8-6.6c0-2.4,0.9-4.7,2.6-6.4
			c1.7-1.8,4.2-2.8,6.6-2.8c1.5,0,2.8,0.3,4.1,0.9V39.4z"/>
		<path id="XMLID_1823_" class="st3" d="M710.7,33.5h4.5l8.3,10.7h0V33.5h4.5V51h-4.5l-8.3-10.7h0V51h-4.5V33.5z"/>
		<path id="XMLID_1821_" class="st3" d="M735.6,51H731V33.5h4.5V51z"/>
		<path id="XMLID_1819_" class="st3" d="M751,39.4c-0.9-1.2-2.4-1.9-4-1.9c-2.8,0-4.7,2.1-4.7,4.8c0,2.8,1.9,4.7,4.7,4.7
			c1.5,0,3-0.7,3.9-1.9v5.4c-1.5,0.5-2.6,0.8-4,0.8c-2.4,0-4.7-0.9-6.6-2.6c-1.9-1.7-2.8-4-2.8-6.6c0-2.4,0.9-4.7,2.6-6.4
			c1.7-1.8,4.2-2.8,6.6-2.8c1.5,0,2.8,0.3,4.1,0.9V39.4z"/>
		<path id="XMLID_1816_" class="st3" d="M772.2,42c0,5.6-4.1,9.6-9.7,9.6c-5.6,0-9.7-4-9.7-9.6c0-5.3,4.6-9,9.7-9
			C767.6,33,772.2,36.7,772.2,42z M757.7,42c0,3,2.2,5.2,4.9,5.2c2.7,0,4.9-2.2,4.9-5.2c0-2.4-2.2-4.6-4.9-4.6
			C759.9,37.4,757.7,39.6,757.7,42z"/>
		<path id="XMLID_1814_" class="st3" d="M783.9,38c-0.8-0.7-1.9-1.2-3-1.2c-0.8,0-1.9,0.5-1.9,1.5c0,1,1.2,1.4,2,1.7l1.2,0.3
			c2.4,0.7,4.3,1.9,4.3,4.8c0,1.7-0.4,3.5-1.8,4.7c-1.4,1.2-3.2,1.6-5,1.6c-2.2,0-4.4-0.7-6.1-2l1.9-3.7c1.1,1,2.5,1.8,4,1.8
			c1.1,0,2.2-0.5,2.2-1.8c0-1.3-1.8-1.7-2.8-2c-2.8-0.8-4.7-1.6-4.7-4.9c0-3.5,2.5-5.9,6-5.9c1.8,0,3.9,0.6,5.5,1.4L783.9,38z"/>
		<path id="XMLID_1812_" class="st3" d="M799.9,31.8l-8.8,21.4h-3.3l8.8-21.4H799.9z"/>
		<path id="XMLID_1809_" class="st3" d="M806.5,48l-1.2,3h-4.8l6.7-17.5h5l6.6,17.5h-4.8l-1.1-3H806.5z M809.6,38.9L809.6,38.9
			l-1.9,5.6h3.8L809.6,38.9z"/>
		<path id="XMLID_1806_" class="st3" d="M834.6,51H829l-4.3-6.7h0V51h-4.5V33.5h6.8c3.4,0,6.1,1.6,6.1,5.4c0,2.4-1.3,4.5-3.8,4.9
			L834.6,51z M824.6,41.4h0.4c1.5,0,3.1-0.3,3.1-2.2c0-1.9-1.7-2.2-3.1-2.2h-0.4V41.4z"/>
		<path id="XMLID_1803_" class="st3" d="M850.8,52.1l-1.4-1.6c-1.3,0.8-2.9,1.1-4.8,1.1c-5.6,0-9.7-4-9.7-9.6c0-5.3,4.6-9,9.7-9
			c5.4,0,9.7,3.7,9.7,9.4c0,2.3-0.8,4.3-2.2,6.1l2.9,3L850.8,52.1z M848.7,44.9c0.5-0.7,0.8-1.7,0.8-2.6c0-2.6-2.2-5-4.9-5
			c-2.7,0-5,2.2-5,4.6c0,3,2.2,5.2,5,5.2c0.5,0,0.9-0.1,1.4-0.2l-2.8-2.8l4.3-0.5L848.7,44.9z"/>
		<path id="XMLID_1801_" class="st3" d="M608.3,78.8h-4.5V61.3h4.5V78.8z"/>
		<path id="XMLID_1799_" class="st3" d="M615.4,68.4L615.4,68.4c1-1.4,2.2-1.9,3.8-1.9c3.2,0,4.5,2,4.5,4.9v7.3h-4.2V73
			c0-1.1,0.2-3.1-1.9-3.1c-1.7,0-2.2,1.3-2.2,2.8v6.2h-4.2V66.9h4.2V68.4z"/>
		<path id="XMLID_1797_" class="st3" d="M634.3,70c-0.6-0.3-1.6-0.6-2.3-0.6c-0.5,0-1.3,0.2-1.3,0.8c0,0.8,1.3,0.9,1.9,1
			c2,0.4,3.4,1.3,3.4,3.5c0,3.1-2.8,4.4-5.6,4.4c-1.7,0-3.4-0.5-4.8-1.4l1.5-2.9c0.9,0.6,2.3,1.2,3.3,1.2c0.5,0,1.3-0.3,1.3-0.9
			c0-0.9-1.3-1-2.6-1.3c-1.3-0.3-2.6-1-2.6-3.1c0-2.9,2.6-4.2,5.2-4.2c1.3,0,2.7,0.2,3.9,0.8L634.3,70z"/>
		<path id="XMLID_1794_" class="st3" d="M642.4,68.2L642.4,68.2c0.8-1.2,2.2-1.7,3.6-1.7c3.5,0,6,3,6,6.4c0,3.4-2.4,6.3-5.9,6.3
			c-1.4,0-2.8-0.5-3.7-1.5v7.1h-4.2V66.9h4.2V68.2z M642.3,72.9c0,1.5,1,2.7,2.7,2.7c1.7,0,2.7-1.2,2.7-2.7c0-1.5-1-2.7-2.7-2.7
			C643.3,70.2,642.3,71.4,642.3,72.9z"/>
		<path id="XMLID_1791_" class="st3" d="M666.3,73.5h-8.9c0,1.7,0.9,2.6,2.6,2.6c0.9,0,1.6-0.3,2-1.1h4.1c-0.3,1.4-1.2,2.4-2.2,3.1
			c-1.1,0.7-2.4,1-3.8,1c-3.9,0-6.9-2.2-6.9-6.3c0-4,2.7-6.3,6.6-6.3c4.1,0,6.5,2.5,6.5,6.6V73.5z M662.4,71.1
			c-0.2-1.1-1.2-1.9-2.4-1.9c-1.2,0-2.2,0.6-2.5,1.9H662.4z"/>
		<path id="XMLID_1789_" class="st3" d="M676.8,70.8c-0.6-0.5-1.4-0.8-2.2-0.8c-1.6,0-2.9,1.2-2.9,2.9c0,1.7,1.2,2.9,3,2.9
			c0.7,0,1.6-0.3,2.1-0.8v3.6c-0.9,0.5-1.9,0.7-3,0.7c-3.5,0-6.5-2.6-6.5-6.2c0-3.8,2.9-6.5,6.6-6.5c1,0,1.9,0.2,2.8,0.7V70.8z"/>
		<path id="XMLID_1787_" class="st3" d="M688,70.8c-0.6-0.5-1.4-0.8-2.2-0.8c-1.6,0-2.9,1.2-2.9,2.9c0,1.7,1.2,2.9,3,2.9
			c0.7,0,1.6-0.3,2.1-0.8v3.6c-0.9,0.5-1.9,0.7-3,0.7c-3.5,0-6.5-2.6-6.5-6.2c0-3.8,2.9-6.5,6.6-6.5c1,0,1.9,0.2,2.8,0.7V70.8z"/>
		<path id="XMLID_1784_" class="st3" d="M695.1,62.3c0,1.3-1.1,2.4-2.4,2.4c-1.3,0-2.4-1.1-2.4-2.4c0-1.3,1.1-2.4,2.4-2.4
			C694,60,695.1,61,695.1,62.3z M694.8,78.8h-4.2V66.9h4.2V78.8z"/>
		<path id="XMLID_1780_" class="st3" d="M711,72.9c0,4-3.3,6.3-7.2,6.3c-3.8,0-7.2-2.3-7.2-6.3c0-4.1,3.3-6.3,7.2-6.3
			C707.7,66.5,711,68.8,711,72.9z M701.2,72.9c0,1.5,1,2.7,2.7,2.7c1.7,0,2.7-1.2,2.7-2.7c0-1.5-1-2.7-2.7-2.7
			C702.1,70.2,701.2,71.4,701.2,72.9z M703.4,65.1l-1.9-1.4l3.3-4l2.6,1.9L703.4,65.1z"/>
		<path id="XMLID_1778_" class="st3" d="M717.1,68.4L717.1,68.4c1-1.4,2.2-1.9,3.8-1.9c3.2,0,4.5,2,4.5,4.9v7.3h-4.2V73
			c0-1.1,0.2-3.1-1.9-3.1c-1.7,0-2.2,1.3-2.2,2.8v6.2h-4.2V66.9h4.2V68.4z"/>
		<path id="XMLID_1776_" class="st3" d="M746.3,69.6v3.5h-11.6v-3.5H746.3z"/>
		<path id="XMLID_1774_" class="st3" d="M760.3,78.8h-4.5V61.3h4.5V78.8z"/>
		<path id="XMLID_1772_" class="st3" d="M767.4,68.4L767.4,68.4c1-1.4,2.2-1.9,3.8-1.9c3.2,0,4.5,2,4.5,4.9v7.3h-4.2V73
			c0-1.1,0.2-3.1-1.9-3.1c-1.7,0-2.2,1.3-2.2,2.8v6.2h-4.2V66.9h4.2V68.4z"/>
		<path id="XMLID_1770_" class="st3" d="M783.1,78.8h-4.2v-8.4h-1.5v-3.5h1.5v-1.5c0-1.6,0-2.8,1.2-4.2c1-1.2,2.5-1.9,4.1-1.9
			c0.6,0,1.2,0.1,1.8,0.4v3.6c-0.5-0.2-0.9-0.4-1.5-0.4c-1.1,0-1.5,0.6-1.5,2v1.9h2.9v3.5h-2.9V78.8z"/>
		<path id="XMLID_1767_" class="st3" d="M800.9,72.9c0,4-3.3,6.3-7.2,6.3c-3.8,0-7.2-2.3-7.2-6.3c0-4.1,3.3-6.3,7.2-6.3
			C797.5,66.5,800.9,68.8,800.9,72.9z M791,72.9c0,1.5,1,2.7,2.7,2.7c1.7,0,2.7-1.2,2.7-2.7c0-1.5-1-2.7-2.7-2.7
			C792,70.2,791,71.4,791,72.9z"/>
		<path id="XMLID_1765_" class="st3" d="M807,68.8L807,68.8c0.9-1.5,2.2-2.1,3.9-2.1h0.8v4.1c-0.6-0.3-1.1-0.4-1.8-0.4
			c-2.3,0-2.9,1.6-2.9,3.6v4.8h-4.2V66.9h4.2V68.8z"/>
		<path id="XMLID_1763_" class="st3" d="M817.5,68.4L817.5,68.4c1-1.3,2.3-1.9,3.8-1.9c1.7,0,3.2,0.7,4.1,2.3c0.8-1.5,2.4-2.3,4-2.3
			c3,0,4.1,2,4.1,4.7v7.6h-4.2v-5.7c0-1.2,0-3.2-1.7-3.2c-1.9,0-2,1.8-2,3.2v5.7h-4.2v-5.7c0-1.3,0-3.3-1.9-3.3
			c-1.9,0-1.9,2-1.9,3.3v5.7h-4.2V66.9h4.2V68.4z"/>
		<path id="XMLID_1760_" class="st3" d="M848.3,73.5h-8.9c0,1.7,0.9,2.6,2.6,2.6c0.9,0,1.6-0.3,2-1.1h4.1c-0.3,1.4-1.2,2.4-2.2,3.1
			c-1.1,0.7-2.4,1-3.8,1c-3.9,0-6.9-2.2-6.9-6.3c0-4,2.7-6.3,6.6-6.3c4.1,0,6.5,2.5,6.5,6.6V73.5z M844.4,71.1
			c-0.2-1.1-1.2-1.9-2.4-1.9c-1.2,0-2.2,0.6-2.5,1.9H844.4z"/>
		<path id="XMLID_1757_" class="st3" d="M648.8,101.3H640c0,1.7,0.9,2.6,2.6,2.6c0.9,0,1.6-0.3,2-1.1h4.1c-0.3,1.4-1.2,2.4-2.2,3.1
			c-1.1,0.7-2.4,1-3.8,1c-3.9,0-6.9-2.2-6.9-6.3c0-4,2.7-6.3,6.6-6.3c4.1,0,6.5,2.5,6.5,6.6V101.3z M644.9,98.9
			c-0.2-1.1-1.2-1.9-2.4-1.9c-1.2,0-2.2,0.6-2.5,1.9H644.9z"/>
		<path id="XMLID_1755_" class="st3" d="M655,96.2L655,96.2c1-1.3,2.3-1.9,3.8-1.9c1.7,0,3.2,0.7,4.1,2.3c0.8-1.5,2.4-2.3,4-2.3
			c3,0,4.1,2,4.1,4.7v7.6h-4.2v-5.7c0-1.2,0-3.2-1.7-3.2c-1.9,0-2,1.8-2,3.2v5.7h-4.2v-5.7c0-1.3,0-3.3-1.9-3.3
			c-1.9,0-1.9,2-1.9,3.3v5.7h-4.2V94.7h4.2V96.2z"/>
		<path id="XMLID_1752_" class="st3" d="M678.1,90.1c0,1.3-1.1,2.4-2.4,2.4c-1.3,0-2.4-1.1-2.4-2.4c0-1.3,1.1-2.4,2.4-2.4
			C677.1,87.8,678.1,88.8,678.1,90.1z M677.9,106.6h-4.2V94.7h4.2V106.6z"/>
		<path id="XMLID_1750_" class="st3" d="M685.3,106.6H681v-8.4h-1.4v-3.5h1.4v-3.6h4.2v3.6h2.4v3.5h-2.4V106.6z"/>
		<path id="XMLID_1747_" class="st3" d="M701.2,101.3h-8.9c0,1.7,0.9,2.6,2.6,2.6c0.9,0,1.6-0.3,2-1.1h4.1c-0.3,1.4-1.2,2.4-2.2,3.1
			c-1.1,0.7-2.4,1-3.8,1c-3.9,0-6.9-2.2-6.9-6.3c0-4,2.7-6.3,6.6-6.3c4.1,0,6.5,2.5,6.5,6.6V101.3z M697.3,98.9
			c-0.2-1.1-1.2-1.9-2.4-1.9c-1.2,0-2.2,0.6-2.5,1.9H697.3z"/>
		<path id="XMLID_1744_" class="st3" d="M710.9,87.3h4.2v8.5c0.9-1,2.3-1.6,3.7-1.6c3.5,0,5.9,2.9,5.9,6.3c0,3.4-2.5,6.3-6,6.3
			c-1.4,0-2.8-0.5-3.6-1.7h0v1.3h-4.2V87.3z M715,100.6c0,1.5,1,2.7,2.7,2.7c1.7,0,2.7-1.2,2.7-2.7c0-1.5-1-2.7-2.7-2.7
			C716,97.9,715,99.2,715,100.6z"/>
		<path id="XMLID_1741_" class="st3" d="M740.2,100.6c0,4-3.3,6.3-7.2,6.3c-3.8,0-7.2-2.3-7.2-6.3s3.3-6.3,7.2-6.3
			C736.9,94.3,740.2,96.6,740.2,100.6z M730.4,100.6c0,1.5,1,2.7,2.7,2.7c1.7,0,2.7-1.2,2.7-2.7c0-1.5-1-2.7-2.7-2.7
			C731.4,97.9,730.4,99.2,730.4,100.6z"/>
		<path id="XMLID_1739_" class="st3" d="M746.4,106.6h-4.2V87.3h4.2V106.6z"/>
		<path id="XMLID_1736_" class="st3" d="M761.3,101.3h-8.9c0,1.7,0.9,2.6,2.6,2.6c0.9,0,1.6-0.3,2-1.1h4.1c-0.3,1.4-1.2,2.4-2.2,3.1
			c-1.1,0.7-2.4,1-3.8,1c-3.9,0-6.9-2.2-6.9-6.3c0-4,2.7-6.3,6.6-6.3c4.1,0,6.5,2.5,6.5,6.6V101.3z M757.4,98.9
			c-0.2-1.1-1.2-1.9-2.4-1.9c-1.2,0-2.2,0.6-2.5,1.9H757.4z"/>
		<path id="XMLID_1734_" class="st3" d="M767.9,106.6h-4.2v-8.4h-1.4v-3.5h1.4v-3.6h4.2v3.6h2.4v3.5h-2.4V106.6z"/>
		<path id="XMLID_1731_" class="st3" d="M784.6,106.6h-4.2v-1.3h0c-0.7,1.2-2.2,1.7-3.6,1.7c-3.5,0-6-2.9-6-6.3
			c0-3.4,2.4-6.3,5.9-6.3c1.4,0,2.8,0.5,3.7,1.6v-1.2h4.2V106.6z M775.1,100.6c0,1.5,1,2.7,2.7,2.7c1.7,0,2.7-1.2,2.7-2.7
			c0-1.5-1-2.7-2.7-2.7C776.1,97.9,775.1,99.2,775.1,100.6z"/>
		<path id="XMLID_1728_" class="st3" d="M804.2,105.2L804.2,105.2c-0.8,1.2-2.2,1.7-3.6,1.7c-3.5,0-6-2.9-6-6.3
			c0-3.4,2.4-6.3,5.9-6.3c1.4,0,2.8,0.5,3.7,1.6v-8.5h4.2v19.2h-4.2V105.2z M799,100.6c0,1.5,1,2.7,2.7,2.7c1.7,0,2.7-1.2,2.7-2.7
			c0-1.5-1-2.7-2.7-2.7C800,97.9,799,99.2,799,100.6z"/>
		<path id="XMLID_1725_" class="st3" d="M823.3,101.3h-8.9c0,1.7,0.9,2.6,2.6,2.6c0.9,0,1.6-0.3,2-1.1h4.1c-0.3,1.4-1.2,2.4-2.2,3.1
			c-1.1,0.7-2.4,1-3.8,1c-3.9,0-6.9-2.2-6.9-6.3c0-4,2.7-6.3,6.6-6.3c4.1,0,6.5,2.5,6.5,6.6V101.3z M819.4,98.9
			c-0.2-1.1-1.2-1.9-2.4-1.9c-1.2,0-2.2,0.6-2.5,1.9H819.4z"/>
		<path id="XMLID_1723_" class="st3" d="M669,134.3h-4.2v-19.2h4.2V134.3z"/>
		<path id="XMLID_1720_" class="st3" d="M676.2,117.9c0,1.3-1.1,2.4-2.4,2.4c-1.3,0-2.4-1.1-2.4-2.4c0-1.3,1.1-2.4,2.4-2.4
			C675.1,115.5,676.2,116.6,676.2,117.9z M675.9,134.3h-4.2v-11.9h4.2V134.3z"/>
		<path id="XMLID_1717_" class="st3" d="M691.9,140.3h-4.2v-7.1c-0.9,1-2.3,1.5-3.7,1.5c-3.5,0-5.9-2.9-5.9-6.3c0-3.4,2.5-6.4,6-6.4
			c1.4,0,2.8,0.6,3.6,1.7h0v-1.3h4.2V140.3z M682.4,128.4c0,1.5,1,2.7,2.7,2.7c1.7,0,2.7-1.2,2.7-2.7c0-1.5-1-2.7-2.7-2.7
			C683.4,125.7,682.4,126.9,682.4,128.4z"/>
		<path id="XMLID_1715_" class="st3" d="M698.7,122.5v6.3c0,1.5,0.4,2.6,2.1,2.6c1.7,0,2.1-1.1,2.1-2.6v-6.3h4.2v7.2
			c0,3.9-2.8,5.1-6.3,5.1c-3.6,0-6.3-1.2-6.3-5.1v-7.2H698.7z"/>
		<path id="XMLID_1712_" class="st3" d="M714.2,117.9c0,1.3-1.1,2.4-2.4,2.4c-1.3,0-2.4-1.1-2.4-2.4c0-1.3,1.1-2.4,2.4-2.4
			C713.2,115.5,714.2,116.6,714.2,117.9z M714,134.3h-4.2v-11.9h4.2V134.3z"/>
		<path id="XMLID_1709_" class="st3" d="M725.7,133L725.7,133c-0.8,1.2-2.2,1.7-3.6,1.7c-3.5,0-6-2.9-6-6.3c0-3.4,2.4-6.3,5.9-6.3
			c1.4,0,2.8,0.5,3.7,1.6v-8.5h4.2v19.2h-4.2V133z M720.4,128.4c0,1.5,1,2.7,2.7,2.7c1.7,0,2.7-1.2,2.7-2.7c0-1.5-1-2.7-2.7-2.7
			C721.4,125.7,720.4,126.9,720.4,128.4z"/>
		<path id="XMLID_1706_" class="st3" d="M745.5,134.3h-4.2V133h0c-0.7,1.2-2.2,1.7-3.6,1.7c-3.5,0-6-2.9-6-6.3
			c0-3.4,2.4-6.3,5.9-6.3c1.4,0,2.8,0.5,3.7,1.6v-1.2h4.2V134.3z M736,128.4c0,1.5,1,2.7,2.7,2.7c1.7,0,2.7-1.2,2.7-2.7
			c0-1.5-1-2.7-2.7-2.7C737,125.7,736,126.9,736,128.4z"/>
		<path id="XMLID_1704_" class="st3" d="M756.9,126.3c-0.6-0.5-1.4-0.8-2.2-0.8c-1.6,0-2.9,1.2-2.9,2.9c0,1.7,1.2,2.9,3,2.9
			c0.7,0,1.6-0.3,2.1-0.8v3.6c-0.9,0.5-1.9,0.7-3,0.7c-3.5,0-6.5-2.6-6.5-6.2c0-3.8,2.9-6.5,6.6-6.5c1,0,1.9,0.2,2.8,0.7V126.3z"/>
		<path id="XMLID_1701_" class="st3" d="M764,117.9c0,1.3-1.1,2.4-2.4,2.4c-1.3,0-2.4-1.1-2.4-2.4c0-1.3,1.1-2.4,2.4-2.4
			C762.9,115.5,764,116.6,764,117.9z M763.7,134.3h-4.2v-11.9h4.2V134.3z"/>
		<path id="XMLID_1697_" class="st3" d="M779.9,128.4c0,4-3.3,6.3-7.2,6.3c-3.8,0-7.2-2.3-7.2-6.3c0-4.1,3.3-6.3,7.2-6.3
			C776.6,122.1,779.9,124.4,779.9,128.4z M770.1,128.4c0,1.5,1,2.7,2.7,2.7c1.7,0,2.7-1.2,2.7-2.7c0-1.5-1-2.7-2.7-2.7
			C771.1,125.7,770.1,126.9,770.1,128.4z M772.3,120.7l-1.9-1.4l3.3-4l2.6,1.9L772.3,120.7z"/>
		<path id="XMLID_1695_" class="st3" d="M786,124L786,124c1-1.4,2.2-1.9,3.8-1.9c3.2,0,4.5,2,4.5,4.9v7.3h-4.2v-5.8
			c0-1.1,0.2-3.1-1.9-3.1c-1.7,0-2.2,1.3-2.2,2.8v6.2h-4.2v-11.9h4.2V124z"/>
	</g>
</g>
<rect id="XMLID_7538_" x="549.9" y="200.7" class="st1" width="350.1" height="158.5"/>
<g id="XMLID_23577_">
	<g>
		<path id="XMLID_538_" class="st3" d="M639.4,263.2c-0.9-1.2-2.4-1.9-4-1.9c-2.8,0-4.7,2.1-4.7,4.8c0,2.8,1.9,4.7,4.7,4.7
			c1.5,0,3-0.7,3.9-1.9v5.4c-1.5,0.5-2.6,0.8-4,0.8c-2.4,0-4.7-0.9-6.6-2.6c-1.9-1.7-2.8-4-2.8-6.6c0-2.4,0.9-4.7,2.6-6.4
			c1.7-1.8,4.2-2.8,6.6-2.8c1.5,0,2.8,0.3,4.1,0.9V263.2z"/>
		<path id="XMLID_535_" class="st3" d="M660.7,265.7c0,5.6-4.1,9.6-9.7,9.6c-5.6,0-9.7-4-9.7-9.6c0-5.3,4.6-9,9.7-9
			C656,256.7,660.7,260.4,660.7,265.7z M646.1,265.7c0,3,2.2,5.2,4.9,5.2s4.9-2.2,4.9-5.2c0-2.4-2.2-4.6-4.9-4.6
			S646.1,263.3,646.1,265.7z"/>
		<path id="XMLID_533_" class="st3" d="M662.8,257.3h4.5l8.3,10.7h0v-10.7h4.5v17.5h-4.5l-8.3-10.7h0v10.7h-4.5V257.3z"/>
		<path id="XMLID_531_" class="st3" d="M690.1,274.8h-4.5v-13.6h-3.7v-3.8h12v3.8h-3.7V274.8z"/>
		<path id="XMLID_528_" class="st3" d="M710,274.8h-5.6l-4.3-6.7h0v6.7h-4.5v-17.5h6.8c3.4,0,6.1,1.6,6.1,5.4c0,2.4-1.3,4.5-3.8,4.9
			L710,274.8z M700,265.1h0.4c1.5,0,3.1-0.3,3.1-2.2c0-1.9-1.7-2.2-3.1-2.2H700V265.1z"/>
		<path id="XMLID_526_" class="st3" d="M715.8,274.8h-4.5v-17.5h4.5V274.8z"/>
		<path id="XMLID_521_" class="st3" d="M718.7,274.8v-17.5h6.5c3.1,0,5.2,1.2,5.2,4.5c0,1.6-0.5,2.8-1.9,3.6v0
			c2.5,0.3,3.6,2,3.6,4.4c0,3.7-3.1,4.9-6.3,4.9H718.7z M723.3,264.2h0.5c1.2,0,2.5-0.2,2.5-1.7c0-1.6-1.4-1.7-2.6-1.7h-0.3V264.2z
			 M723.3,271.3h0.6c1.3,0,3.6,0.1,3.6-1.9c0-2.1-2.2-1.9-3.7-1.9h-0.5V271.3z"/>
		<path id="XMLID_519_" class="st3" d="M749.6,257.3v9.8c0,2.2-0.1,4.5-1.8,6.2c-1.5,1.4-3.8,1.9-5.8,1.9c-2,0-4.3-0.5-5.8-1.9
			c-1.7-1.7-1.8-3.9-1.8-6.2v-9.8h4.5v9.2c0,2.3,0.2,4.7,3.1,4.7s3.1-2.5,3.1-4.7v-9.2H749.6z"/>
		<path id="XMLID_517_" class="st3" d="M750.5,257.3h5.4l3.3,4.7l3.3-4.7h5.4l-6.4,9.1v8.4h-4.5v-8.4L750.5,257.3z"/>
		<path id="XMLID_515_" class="st3" d="M773.5,261.1v2.9h5.1v3.8h-5.1v3h5.4v3.8h-9.9v-17.5h9.9v3.8H773.5z"/>
		<path id="XMLID_513_" class="st3" d="M781.7,257.3h4.5l8.3,10.7h0v-10.7h4.5v17.5h-4.5l-8.3-10.7h0v10.7h-4.5V257.3z"/>
		<path id="XMLID_511_" class="st3" d="M809,274.8h-4.5v-13.6h-3.7v-3.8h12v3.8H809V274.8z"/>
		<path id="XMLID_509_" class="st3" d="M818.9,261.1v2.9h5.1v3.8h-5.1v3h5.4v3.8h-9.9v-17.5h9.9v3.8H818.9z"/>
		<path id="XMLID_507_" class="st3" d="M644.8,290.9c-0.9-1.2-2.4-1.9-4-1.9c-2.8,0-4.7,2.1-4.7,4.8c0,2.8,1.9,4.7,4.7,4.7
			c1.5,0,3-0.7,3.9-1.9v5.4c-1.5,0.5-2.6,0.8-4,0.8c-2.4,0-4.7-0.9-6.6-2.6c-1.9-1.7-2.8-4-2.8-6.6c0-2.4,0.9-4.7,2.6-6.4
			c1.7-1.8,4.2-2.8,6.6-2.8c1.5,0,2.8,0.3,4.1,0.9V290.9z"/>
		<path id="XMLID_504_" class="st3" d="M660.5,302.5h-4.2v-1.3h0c-0.7,1.2-2.2,1.7-3.6,1.7c-3.5,0-6-2.9-6-6.3
			c0-3.4,2.4-6.3,5.9-6.3c1.4,0,2.8,0.5,3.7,1.6v-1.2h4.2V302.5z M651,296.6c0,1.5,1,2.7,2.7,2.7s2.7-1.2,2.7-2.7
			c0-1.5-1-2.7-2.7-2.7S651,295.1,651,296.6z"/>
		<path id="XMLID_502_" class="st3" d="M667.5,292.2L667.5,292.2c1-1.4,2.2-1.9,3.8-1.9c3.2,0,4.5,2,4.5,4.9v7.3h-4.2v-5.8
			c0-1.1,0.2-3.1-1.9-3.1c-1.7,0-2.2,1.3-2.2,2.8v6.2h-4.2v-11.9h4.2V292.2z"/>
		<path id="XMLID_500_" class="st3" d="M687.2,294.5c-0.6-0.5-1.4-0.8-2.2-0.8c-1.6,0-2.9,1.2-2.9,2.9c0,1.7,1.2,2.9,3,2.9
			c0.7,0,1.6-0.3,2.1-0.8v3.6c-0.9,0.5-1.9,0.7-3,0.7c-3.5,0-6.5-2.6-6.5-6.2c0-3.8,2.9-6.5,6.6-6.5c1,0,1.9,0.2,2.8,0.7V294.5z"/>
		<path id="XMLID_497_" class="st3" d="M702,297.3h-8.9c0,1.7,0.9,2.6,2.6,2.6c0.9,0,1.6-0.3,2-1.1h4.1c-0.3,1.4-1.2,2.4-2.2,3.1
			c-1.1,0.7-2.4,1-3.8,1c-3.9,0-6.9-2.2-6.9-6.3c0-4,2.7-6.3,6.6-6.3c4.1,0,6.5,2.5,6.5,6.6V297.3z M698.1,294.9
			c-0.2-1.1-1.2-1.9-2.4-1.9c-1.2,0-2.2,0.6-2.5,1.9H698.1z"/>
		<path id="XMLID_495_" class="st3" d="M708.1,302.5h-4.2v-19.2h4.2V302.5z"/>
		<path id="XMLID_492_" class="st3" d="M723.9,302.5h-4.2v-1.3h0c-0.7,1.2-2.2,1.7-3.6,1.7c-3.5,0-6-2.9-6-6.3
			c0-3.4,2.4-6.3,5.9-6.3c1.4,0,2.8,0.5,3.7,1.6v-1.2h4.2V302.5z M714.4,296.6c0,1.5,1,2.7,2.7,2.7c1.7,0,2.7-1.2,2.7-2.7
			c0-1.5-1-2.7-2.7-2.7C715.4,293.9,714.4,295.1,714.4,296.6z"/>
		<path id="XMLID_489_" class="st3" d="M746.8,297.3h-8.9c0,1.7,0.9,2.6,2.6,2.6c0.9,0,1.6-0.3,2-1.1h4.1c-0.3,1.4-1.2,2.4-2.2,3.1
			c-1.1,0.7-2.4,1-3.8,1c-3.9,0-6.9-2.2-6.9-6.3c0-4,2.7-6.3,6.6-6.3c4.1,0,6.5,2.5,6.5,6.6V297.3z M742.9,294.9
			c-0.2-1.1-1.2-1.9-2.4-1.9c-1.2,0-2.2,0.6-2.5,1.9H742.9z"/>
		<path id="XMLID_487_" class="st3" d="M752.9,292.2L752.9,292.2c1-1.4,2.2-1.9,3.8-1.9c3.2,0,4.5,2,4.5,4.9v7.3H757v-5.8
			c0-1.1,0.2-3.1-1.9-3.1c-1.7,0-2.2,1.3-2.2,2.8v6.2h-4.2v-11.9h4.2V292.2z"/>
		<path id="XMLID_485_" class="st3" d="M780.5,294.5c-0.6-0.5-1.4-0.8-2.2-0.8c-1.6,0-2.9,1.2-2.9,2.9c0,1.7,1.2,2.9,3,2.9
			c0.7,0,1.6-0.3,2.1-0.8v3.6c-0.9,0.5-1.9,0.7-3,0.7c-3.5,0-6.5-2.6-6.5-6.2c0-3.8,2.9-6.5,6.6-6.5c1,0,1.9,0.2,2.8,0.7V294.5z"/>
		<path id="XMLID_482_" class="st3" d="M796.1,302.5h-4.2v-1.3h0c-0.7,1.2-2.2,1.7-3.6,1.7c-3.5,0-6-2.9-6-6.3
			c0-3.4,2.4-6.3,5.9-6.3c1.4,0,2.8,0.5,3.7,1.6v-1.2h4.2V302.5z M786.6,296.6c0,1.5,1,2.7,2.7,2.7c1.7,0,2.7-1.2,2.7-2.7
			c0-1.5-1-2.7-2.7-2.7C787.6,293.9,786.6,295.1,786.6,296.6z"/>
		<path id="XMLID_479_" class="st3" d="M803.4,286.1c0,1.3-1.1,2.4-2.4,2.4c-1.3,0-2.4-1.1-2.4-2.4c0-1.3,1.1-2.4,2.4-2.4
			C802.3,283.7,803.4,284.8,803.4,286.1z M803.1,308.5h-4.2v-17.8h4.2V308.5z"/>
		<path id="XMLID_476_" class="st3" d="M818.9,302.5h-4.2v-1.3h0c-0.7,1.2-2.2,1.7-3.6,1.7c-3.5,0-6-2.9-6-6.3
			c0-3.4,2.4-6.3,5.9-6.3c1.4,0,2.8,0.5,3.7,1.6v-1.2h4.2V302.5z M809.4,296.6c0,1.5,1,2.7,2.7,2.7c1.7,0,2.7-1.2,2.7-2.7
			c0-1.5-1-2.7-2.7-2.7C810.4,293.9,809.4,295.1,809.4,296.6z"/>
	</g>
</g>
<rect id="XMLID_7247_" x="549.9" y="406.2" class="st1" width="350.1" height="158.5"/>
<g id="XMLID_23508_">
	<g>
		<path id="XMLID_641_" class="st3" d="M708.8,432.9c-0.9-1.2-2.4-1.9-4-1.9c-2.8,0-4.7,2.1-4.7,4.8c0,2.8,1.9,4.7,4.7,4.7
			c1.5,0,3-0.7,3.9-1.9v5.4c-1.5,0.5-2.6,0.8-4,0.8c-2.4,0-4.7-0.9-6.6-2.6c-1.9-1.7-2.8-4-2.8-6.6c0-2.4,0.9-4.7,2.6-6.4
			c1.7-1.8,4.2-2.8,6.6-2.8c1.5,0,2.8,0.3,4.1,0.9V432.9z"/>
		<path id="XMLID_638_" class="st3" d="M716,441.5l-1.2,3H710l6.7-17.5h5l6.6,17.5h-4.8l-1.1-3H716z M719.2,432.4L719.2,432.4
			l-1.9,5.6h3.8L719.2,432.4z"/>
		<path id="XMLID_636_" class="st3" d="M738.1,427v11.8c0,3.7-1.9,6.1-5.8,6.1c-1.9,0-3.4-1-4.5-2.6l2.6-2.8
			c0.5,0.7,1.2,1.5,1.8,1.5c1.3,0,1.3-1.6,1.3-2.6V427H738.1z"/>
		<path id="XMLID_633_" class="st3" d="M745.4,441.5l-1.2,3h-4.8l6.7-17.5h5l6.6,17.5h-4.8l-1.1-3H745.4z M748.6,432.4L748.6,432.4
			l-1.9,5.6h3.8L748.6,432.4z"/>
		<path id="XMLID_631_" class="st3" d="M619.7,458.7v2.9h5.1v3.8h-5.1v3h5.4v3.8h-9.9v-17.5h9.9v3.8H619.7z"/>
		<path id="XMLID_629_" class="st3" d="M632,461.9L632,461.9c1-1.3,2.3-1.9,3.8-1.9c1.7,0,3.2,0.7,4.1,2.3c0.8-1.5,2.4-2.3,4-2.3
			c3,0,4.1,2,4.1,4.7v7.6h-4.2v-5.7c0-1.2,0-3.2-1.7-3.2c-1.9,0-2,1.8-2,3.2v5.7h-4.2v-5.7c0-1.3,0-3.3-1.9-3.3
			c-1.9,0-1.9,2-1.9,3.3v5.7h-4.2v-11.9h4.2V461.9z"/>
		<path id="XMLID_626_" class="st3" d="M655.2,455.8c0,1.3-1.1,2.4-2.4,2.4c-1.3,0-2.4-1.1-2.4-2.4c0-1.3,1.1-2.4,2.4-2.4
			C654.1,453.5,655.2,454.5,655.2,455.8z M654.9,472.3h-4.2v-11.9h4.2V472.3z"/>
		<path id="XMLID_624_" class="st3" d="M662.3,472.3h-4.2v-8.4h-1.4v-3.5h1.4v-3.6h4.2v3.6h2.4v3.5h-2.4V472.3z"/>
		<path id="XMLID_621_" class="st3" d="M678.2,467h-8.9c0,1.7,0.9,2.6,2.6,2.6c0.9,0,1.6-0.3,2-1.1h4.1c-0.3,1.4-1.2,2.4-2.2,3.1
			c-1.1,0.7-2.4,1-3.8,1c-3.9,0-6.9-2.2-6.9-6.3c0-4,2.7-6.3,6.6-6.3c4.1,0,6.5,2.5,6.5,6.6V467z M674.3,464.6
			c-0.2-1.1-1.2-1.9-2.4-1.9c-1.2,0-2.2,0.6-2.5,1.9H674.3z"/>
		<path id="XMLID_619_" class="st3" d="M696.6,464.3c-0.6-0.5-1.4-0.8-2.2-0.8c-1.6,0-2.9,1.2-2.9,2.9c0,1.7,1.2,2.9,3,2.9
			c0.7,0,1.6-0.3,2.1-0.8v3.6c-0.9,0.5-1.9,0.7-3,0.7c-3.5,0-6.5-2.6-6.5-6.2c0-3.8,2.9-6.5,6.6-6.5c1,0,1.9,0.2,2.8,0.7V464.3z"/>
		<path id="XMLID_616_" class="st3" d="M712.7,466.3c0,4-3.3,6.3-7.2,6.3c-3.8,0-7.2-2.3-7.2-6.3c0-4.1,3.3-6.3,7.2-6.3
			C709.4,460,712.7,462.3,712.7,466.3z M702.8,466.3c0,1.5,1,2.7,2.7,2.7c1.7,0,2.7-1.2,2.7-2.7c0-1.5-1-2.7-2.7-2.7
			C703.8,463.7,702.8,464.9,702.8,466.3z"/>
		<path id="XMLID_614_" class="st3" d="M718.8,461.9L718.8,461.9c1-1.3,2.3-1.9,3.8-1.9c1.7,0,3.2,0.7,4.1,2.3
			c0.8-1.5,2.4-2.3,4-2.3c3,0,4.1,2,4.1,4.7v7.6h-4.2v-5.7c0-1.2,0-3.2-1.7-3.2c-1.9,0-2,1.8-2,3.2v5.7h-4.2v-5.7
			c0-1.3,0-3.3-1.9-3.3c-1.9,0-1.9,2-1.9,3.3v5.7h-4.2v-11.9h4.2V461.9z"/>
		<path id="XMLID_611_" class="st3" d="M741.5,461.7L741.5,461.7c0.8-1.2,2.2-1.7,3.6-1.7c3.5,0,6,3,6,6.4c0,3.4-2.4,6.3-5.9,6.3
			c-1.4,0-2.8-0.5-3.7-1.5v7.1h-4.2v-17.8h4.2V461.7z M741.4,466.3c0,1.5,1,2.7,2.7,2.7c1.7,0,2.7-1.2,2.7-2.7c0-1.5-1-2.7-2.7-2.7
			C742.4,463.7,741.4,464.9,741.4,466.3z"/>
		<path id="XMLID_609_" class="st3" d="M757.5,462.3L757.5,462.3c0.9-1.5,2.2-2.1,3.9-2.1h0.8v4.1c-0.6-0.3-1.1-0.4-1.8-0.4
			c-2.3,0-2.9,1.6-2.9,3.6v4.8h-4.2v-11.9h4.2V462.3z"/>
		<path id="XMLID_606_" class="st3" d="M776.8,466.3c0,4-3.3,6.3-7.2,6.3c-3.8,0-7.2-2.3-7.2-6.3c0-4.1,3.3-6.3,7.2-6.3
			C773.4,460,776.8,462.3,776.8,466.3z M766.9,466.3c0,1.5,1,2.7,2.7,2.7c1.7,0,2.7-1.2,2.7-2.7c0-1.5-1-2.7-2.7-2.7
			C767.9,463.7,766.9,464.9,766.9,466.3z"/>
		<path id="XMLID_603_" class="st3" d="M778.5,453.1h4.2v8.5c0.9-1,2.3-1.6,3.7-1.6c3.5,0,5.9,2.9,5.9,6.3c0,3.4-2.5,6.3-6,6.3
			c-1.4,0-2.8-0.5-3.6-1.7h0v1.3h-4.2V453.1z M782.6,466.3c0,1.5,1,2.7,2.7,2.7c1.7,0,2.7-1.2,2.7-2.7c0-1.5-1-2.7-2.7-2.7
			C783.6,463.7,782.6,464.9,782.6,466.3z"/>
		<path id="XMLID_600_" class="st3" d="M807.4,472.3h-4.2V471h0c-0.7,1.2-2.2,1.7-3.6,1.7c-3.5,0-6-2.9-6-6.3c0-3.4,2.4-6.3,5.9-6.3
			c1.4,0,2.8,0.5,3.7,1.6v-1.2h4.2V472.3z M797.9,466.3c0,1.5,1,2.7,2.7,2.7s2.7-1.2,2.7-2.7c0-1.5-1-2.7-2.7-2.7
			S797.9,464.9,797.9,466.3z"/>
		<path id="XMLID_598_" class="st3" d="M814.4,461.9L814.4,461.9c1-1.4,2.2-1.9,3.8-1.9c3.2,0,4.5,2,4.5,4.9v7.3h-4.2v-5.8
			c0-1.1,0.2-3.1-1.9-3.1c-1.7,0-2.2,1.3-2.2,2.8v6.2h-4.2v-11.9h4.2V461.9z"/>
		<path id="XMLID_596_" class="st3" d="M830.1,472.3h-4.2v-8.4h-1.4v-3.5h1.4v-3.6h4.2v3.6h2.4v3.5h-2.4V472.3z"/>
		<path id="XMLID_593_" class="st3" d="M846.1,467h-8.9c0,1.7,0.9,2.6,2.6,2.6c0.9,0,1.6-0.3,2-1.1h4.1c-0.3,1.4-1.2,2.4-2.2,3.1
			c-1.1,0.7-2.4,1-3.8,1c-3.9,0-6.9-2.2-6.9-6.3c0-4,2.7-6.3,6.6-6.3c4.1,0,6.5,2.5,6.5,6.6V467z M842.1,464.6
			c-0.2-1.1-1.2-1.9-2.4-1.9c-1.2,0-2.2,0.6-2.5,1.9H842.1z"/>
		<path id="XMLID_590_" class="st3" d="M690.3,498.7L690.3,498.7c-0.8,1.2-2.2,1.7-3.6,1.7c-3.5,0-6-2.9-6-6.3
			c0-3.4,2.4-6.3,5.9-6.3c1.4,0,2.8,0.5,3.7,1.6v-8.5h4.2V500h-4.2V498.7z M685,494.1c0,1.5,1,2.7,2.7,2.7c1.7,0,2.7-1.2,2.7-2.7
			c0-1.5-1-2.7-2.7-2.7C686,491.4,685,492.7,685,494.1z"/>
		<path id="XMLID_587_" class="st3" d="M709.3,494.8h-8.9c0,1.7,0.9,2.6,2.6,2.6c0.9,0,1.6-0.3,2-1.1h4.1c-0.3,1.4-1.2,2.4-2.2,3.1
			c-1.1,0.7-2.4,1-3.8,1c-3.9,0-6.9-2.2-6.9-6.3c0-4,2.7-6.3,6.6-6.3c4.1,0,6.5,2.5,6.5,6.6V494.8z M705.4,492.4
			c-0.2-1.1-1.2-1.9-2.4-1.9c-1.2,0-2.2,0.6-2.5,1.9H705.4z"/>
		<path id="XMLID_584_" class="st3" d="M723.2,489.5L723.2,489.5c0.8-1.2,2.2-1.7,3.6-1.7c3.5,0,6,3,6,6.4c0,3.4-2.4,6.3-5.9,6.3
			c-1.4,0-2.8-0.5-3.7-1.5v7.1H719v-17.8h4.2V489.5z M723.1,494.1c0,1.5,1,2.7,2.7,2.7s2.7-1.2,2.7-2.7c0-1.5-1-2.7-2.7-2.7
			S723.1,492.7,723.1,494.1z"/>
		<path id="XMLID_581_" class="st3" d="M747.9,500h-4.2v-1.3h0c-0.7,1.2-2.2,1.7-3.6,1.7c-3.5,0-6-2.9-6-6.3c0-3.4,2.4-6.3,5.9-6.3
			c1.4,0,2.8,0.5,3.7,1.6v-1.2h4.2V500z M738.4,494.1c0,1.5,1,2.7,2.7,2.7c1.7,0,2.7-1.2,2.7-2.7c0-1.5-1-2.7-2.7-2.7
			C739.4,491.4,738.4,492.7,738.4,494.1z"/>
		<path id="XMLID_578_" class="st3" d="M763.8,498.9c0,5-2.5,7.1-6.9,7.1c-2.7,0-6.4-1.4-6.8-4.5h4.7c0.1,0.4,0.4,0.7,0.8,0.9
			c0.4,0.2,0.8,0.3,1.2,0.3c2.3,0,2.7-1.5,2.7-3.4v-0.6c-1.1,1.1-2.2,1.6-3.8,1.6c-3.5,0-5.9-2.6-5.9-6.1c0-3.5,2.5-6.4,6.1-6.4
			c1.4,0,2.7,0.5,3.5,1.6h0v-1.3h4.2V498.9z M754.3,494c0,1.5,1,2.7,2.7,2.7c1.7,0,2.7-1.2,2.7-2.7c0-1.5-1-2.7-2.7-2.7
			C755.3,491.3,754.3,492.6,754.3,494z"/>
		<path id="XMLID_547_" class="st3" d="M779.8,494.1c0,4-3.3,6.3-7.2,6.3c-3.8,0-7.2-2.3-7.2-6.3c0-4.1,3.3-6.3,7.2-6.3
			C776.5,487.8,779.8,490.1,779.8,494.1z M770,494.1c0,1.5,1,2.7,2.7,2.7c1.7,0,2.7-1.2,2.7-2.7c0-1.5-1-2.7-2.7-2.7
			C771,491.4,770,492.7,770,494.1z"/>
	</g>
</g>
<rect id="XMLID_7223_" x="549.9" y="611.7" class="st1" width="350.1" height="158.5"/>
<g id="XMLID_23379_">
	<g>
		<path id="XMLID_1557_" class="st3" d="M639.4,648.9c-0.9-1.2-2.4-1.9-4-1.9c-2.8,0-4.7,2.1-4.7,4.8c0,2.8,1.9,4.7,4.7,4.7
			c1.5,0,3-0.7,3.9-1.9v5.4c-1.5,0.5-2.6,0.8-4,0.8c-2.4,0-4.7-0.9-6.6-2.6c-1.9-1.7-2.8-4-2.8-6.6c0-2.4,0.9-4.7,2.6-6.4
			c1.7-1.8,4.2-2.8,6.6-2.8c1.5,0,2.8,0.3,4.1,0.9V648.9z"/>
		<path id="XMLID_1554_" class="st3" d="M660.7,651.5c0,5.6-4.1,9.6-9.7,9.6c-5.6,0-9.7-4-9.7-9.6c0-5.3,4.6-9,9.7-9
			C656,642.5,660.7,646.2,660.7,651.5z M646.1,651.5c0,3,2.2,5.2,4.9,5.2s4.9-2.2,4.9-5.2c0-2.4-2.2-4.6-4.9-4.6
			S646.1,649.1,646.1,651.5z"/>
		<path id="XMLID_1552_" class="st3" d="M662.8,643.1h4.5l8.3,10.7h0v-10.7h4.5v17.5h-4.5l-8.3-10.7h0v10.7h-4.5V643.1z"/>
		<path id="XMLID_1550_" class="st3" d="M690.1,660.5h-4.5v-13.6h-3.7v-3.8h12v3.8h-3.7V660.5z"/>
		<path id="XMLID_1547_" class="st3" d="M710,660.5h-5.6l-4.3-6.7h0v6.7h-4.5v-17.5h6.8c3.4,0,6.1,1.6,6.1,5.4
			c0,2.4-1.3,4.5-3.8,4.9L710,660.5z M700,650.9h0.4c1.5,0,3.1-0.3,3.1-2.2c0-1.9-1.7-2.2-3.1-2.2H700V650.9z"/>
		<path id="XMLID_1545_" class="st3" d="M715.8,660.5h-4.5v-17.5h4.5V660.5z"/>
		<path id="XMLID_1541_" class="st3" d="M718.7,660.5v-17.5h6.5c3.1,0,5.2,1.2,5.2,4.5c0,1.6-0.5,2.8-1.9,3.6v0
			c2.5,0.3,3.6,2,3.6,4.4c0,3.7-3.1,4.9-6.3,4.9H718.7z M723.3,649.9h0.5c1.2,0,2.5-0.2,2.5-1.7c0-1.6-1.4-1.7-2.6-1.7h-0.3V649.9z
			 M723.3,657.1h0.6c1.3,0,3.6,0.1,3.6-1.9c0-2.1-2.2-1.9-3.7-1.9h-0.5V657.1z"/>
		<path id="XMLID_1539_" class="st3" d="M749.6,643.1v9.8c0,2.2-0.1,4.5-1.8,6.2c-1.5,1.4-3.8,1.9-5.8,1.9c-2,0-4.3-0.5-5.8-1.9
			c-1.7-1.7-1.8-3.9-1.8-6.2v-9.8h4.5v9.2c0,2.3,0.2,4.7,3.1,4.7s3.1-2.5,3.1-4.7v-9.2H749.6z"/>
		<path id="XMLID_1537_" class="st3" d="M750.5,643.1h5.4l3.3,4.7l3.3-4.7h5.4l-6.4,9.1v8.4h-4.5v-8.4L750.5,643.1z"/>
		<path id="XMLID_1535_" class="st3" d="M773.5,646.9v2.9h5.1v3.8h-5.1v3h5.4v3.8h-9.9v-17.5h9.9v3.8H773.5z"/>
		<path id="XMLID_1533_" class="st3" d="M781.7,643.1h4.5l8.3,10.7h0v-10.7h4.5v17.5h-4.5l-8.3-10.7h0v10.7h-4.5V643.1z"/>
		<path id="XMLID_1531_" class="st3" d="M809,660.5h-4.5v-13.6h-3.7v-3.8h12v3.8H809V660.5z"/>
		<path id="XMLID_1529_" class="st3" d="M818.9,646.9v2.9h5.1v3.8h-5.1v3h5.4v3.8h-9.9v-17.5h9.9v3.8H818.9z"/>
		<path id="XMLID_1527_" class="st3" d="M578.9,684.5h5.4v3.8h-10v-17.5h4.5V684.5z"/>
		<path id="XMLID_1525_" class="st3" d="M589.9,688.3h-4.2v-19.2h4.2V688.3z"/>
		<path id="XMLID_1522_" class="st3" d="M604.9,683.1H596c0,1.7,0.9,2.6,2.6,2.6c0.9,0,1.6-0.3,2-1.1h4.1c-0.3,1.4-1.2,2.4-2.2,3.1
			c-1.1,0.7-2.4,1-3.8,1c-3.9,0-6.9-2.2-6.9-6.3c0-4,2.7-6.3,6.6-6.3c4.1,0,6.5,2.5,6.5,6.6V683.1z M601,680.6
			c-0.2-1.1-1.2-1.9-2.4-1.9c-1.2,0-2.2,0.6-2.5,1.9H601z"/>
		<path id="XMLID_1520_" class="st3" d="M612.6,682.5l2.8-6.1h4.7l-6.2,11.9h-2.7l-6.2-11.9h4.7L612.6,682.5z"/>
		<path id="XMLID_1517_" class="st3" d="M634.2,688.3H630V687h0c-0.7,1.2-2.2,1.7-3.6,1.7c-3.5,0-6-2.9-6-6.3c0-3.4,2.4-6.3,5.9-6.3
			c1.4,0,2.8,0.5,3.7,1.6v-1.2h4.2V688.3z M624.7,682.4c0,1.5,1,2.7,2.7,2.7c1.7,0,2.7-1.2,2.7-2.7c0-1.5-1-2.7-2.7-2.7
			C625.7,679.7,624.7,680.9,624.7,682.4z"/>
		<path id="XMLID_1514_" class="st3" d="M657.2,683.1h-8.9c0,1.7,0.9,2.6,2.6,2.6c0.9,0,1.6-0.3,2-1.1h4.1c-0.3,1.4-1.2,2.4-2.2,3.1
			c-1.1,0.7-2.4,1-3.8,1c-3.9,0-6.9-2.2-6.9-6.3c0-4,2.7-6.3,6.6-6.3c4.1,0,6.5,2.5,6.5,6.6V683.1z M653.2,680.6
			c-0.2-1.1-1.2-1.9-2.4-1.9c-1.2,0-2.2,0.6-2.5,1.9H653.2z"/>
		<path id="XMLID_1512_" class="st3" d="M663.3,688.3h-4.2v-19.2h4.2V688.3z"/>
		<path id="XMLID_1510_" class="st3" d="M682.6,680.3c-0.6-0.5-1.4-0.8-2.2-0.8c-1.6,0-2.9,1.2-2.9,2.9c0,1.7,1.2,2.9,3,2.9
			c0.7,0,1.6-0.3,2.1-0.8v3.6c-0.9,0.5-1.9,0.7-3,0.7c-3.5,0-6.5-2.6-6.5-6.2c0-3.8,2.9-6.5,6.6-6.5c1,0,1.9,0.2,2.8,0.7V680.3z"/>
		<path id="XMLID_1507_" class="st3" d="M698.6,682.4c0,4-3.3,6.3-7.2,6.3c-3.8,0-7.2-2.3-7.2-6.3c0-4.1,3.3-6.3,7.2-6.3
			C695.3,676,698.6,678.3,698.6,682.4z M688.7,682.4c0,1.5,1,2.7,2.7,2.7s2.7-1.2,2.7-2.7c0-1.5-1-2.7-2.7-2.7
			S688.7,680.9,688.7,682.4z"/>
		<path id="XMLID_1505_" class="st3" d="M704.7,677.9L704.7,677.9c1-1.3,2.3-1.9,3.8-1.9c1.7,0,3.2,0.7,4.1,2.3
			c0.8-1.5,2.4-2.3,4-2.3c3,0,4.1,2,4.1,4.7v7.6h-4.2v-5.7c0-1.2,0-3.2-1.7-3.2c-1.9,0-2,1.8-2,3.2v5.7h-4.2v-5.7
			c0-1.3,0-3.3-1.9-3.3c-1.9,0-1.9,2-1.9,3.3v5.7h-4.2v-11.9h4.2V677.9z"/>
		<path id="XMLID_1502_" class="st3" d="M727.5,677.8L727.5,677.8c0.8-1.2,2.2-1.7,3.6-1.7c3.5,0,6,3,6,6.4c0,3.4-2.4,6.3-5.9,6.3
			c-1.4,0-2.8-0.5-3.7-1.5v7.1h-4.2v-17.8h4.2V677.8z M727.3,682.4c0,1.5,1,2.7,2.7,2.7s2.7-1.2,2.7-2.7c0-1.5-1-2.7-2.7-2.7
			S727.3,680.9,727.3,682.4z"/>
		<path id="XMLID_1500_" class="st3" d="M743.4,678.4L743.4,678.4c0.9-1.5,2.2-2.1,3.9-2.1h0.8v4.1c-0.6-0.3-1.1-0.4-1.8-0.4
			c-2.3,0-2.9,1.6-2.9,3.6v4.8h-4.2v-11.9h4.2V678.4z"/>
		<path id="XMLID_1497_" class="st3" d="M762.7,682.4c0,4-3.3,6.3-7.2,6.3c-3.8,0-7.2-2.3-7.2-6.3c0-4.1,3.3-6.3,7.2-6.3
			C759.3,676,762.7,678.3,762.7,682.4z M752.8,682.4c0,1.5,1,2.7,2.7,2.7c1.7,0,2.7-1.2,2.7-2.7c0-1.5-1-2.7-2.7-2.7
			C753.8,679.7,752.8,680.9,752.8,682.4z"/>
		<path id="XMLID_1494_" class="st3" d="M764.4,669.1h4.2v8.5c0.9-1,2.3-1.6,3.7-1.6c3.5,0,5.9,2.9,5.9,6.3c0,3.4-2.5,6.3-6,6.3
			c-1.4,0-2.8-0.5-3.6-1.7h0v1.3h-4.2V669.1z M768.5,682.4c0,1.5,1,2.7,2.7,2.7c1.7,0,2.7-1.2,2.7-2.7c0-1.5-1-2.7-2.7-2.7
			C769.5,679.7,768.5,680.9,768.5,682.4z"/>
		<path id="XMLID_1491_" class="st3" d="M793.3,688.3h-4.2V687h0c-0.7,1.2-2.2,1.7-3.6,1.7c-3.5,0-6-2.9-6-6.3
			c0-3.4,2.4-6.3,5.9-6.3c1.4,0,2.8,0.5,3.7,1.6v-1.2h4.2V688.3z M783.9,682.4c0,1.5,1,2.7,2.7,2.7c1.7,0,2.7-1.2,2.7-2.7
			c0-1.5-1-2.7-2.7-2.7C784.9,679.7,783.9,680.9,783.9,682.4z"/>
		<path id="XMLID_1489_" class="st3" d="M800.4,678L800.4,678c1-1.4,2.2-1.9,3.8-1.9c3.2,0,4.5,2,4.5,4.9v7.3h-4.2v-5.8
			c0-1.1,0.2-3.1-1.9-3.1c-1.7,0-2.2,1.3-2.2,2.8v6.2h-4.2v-11.9h4.2V678z"/>
		<path id="XMLID_1487_" class="st3" d="M816.1,688.3h-4.2v-8.4h-1.4v-3.5h1.4v-3.6h4.2v3.6h2.4v3.5h-2.4V688.3z"/>
		<path id="XMLID_1484_" class="st3" d="M832,683.1h-8.9c0,1.7,0.9,2.6,2.6,2.6c0.9,0,1.6-0.3,2-1.1h4.1c-0.3,1.4-1.2,2.4-2.2,3.1
			c-1.1,0.7-2.4,1-3.8,1c-3.9,0-6.9-2.2-6.9-6.3c0-4,2.7-6.3,6.6-6.3c4.1,0,6.5,2.5,6.5,6.6V683.1z M828.1,680.6
			c-0.2-1.1-1.2-1.9-2.4-1.9c-1.2,0-2.2,0.6-2.5,1.9H828.1z"/>
		<path id="XMLID_1481_" class="st3" d="M850.8,687L850.8,687c-0.8,1.2-2.2,1.7-3.6,1.7c-3.5,0-6-2.9-6-6.3c0-3.4,2.4-6.3,5.9-6.3
			c1.4,0,2.8,0.5,3.7,1.6v-8.5h4.2v19.2h-4.2V687z M845.5,682.4c0,1.5,1,2.7,2.7,2.7c1.7,0,2.7-1.2,2.7-2.7c0-1.5-1-2.7-2.7-2.7
			C846.5,679.7,845.5,680.9,845.5,682.4z"/>
		<path id="XMLID_1478_" class="st3" d="M869.8,683.1H861c0,1.7,0.9,2.6,2.6,2.6c0.9,0,1.6-0.3,2-1.1h4.1c-0.3,1.4-1.2,2.4-2.2,3.1
			c-1.1,0.7-2.4,1-3.8,1c-3.9,0-6.9-2.2-6.9-6.3c0-4,2.7-6.3,6.6-6.3c4.1,0,6.5,2.5,6.5,6.6V683.1z M865.9,680.6
			c-0.2-1.1-1.2-1.9-2.4-1.9c-1.2,0-2.2,0.6-2.5,1.9H865.9z"/>
		<path id="XMLID_1475_" class="st3" d="M606.9,705.6L606.9,705.6c0.8-1.2,2.2-1.7,3.6-1.7c3.5,0,6,3,6,6.4c0,3.4-2.4,6.3-5.9,6.3
			c-1.4,0-2.8-0.5-3.7-1.5v7.1h-4.2v-17.8h4.2V705.6z M606.8,710.2c0,1.5,1,2.7,2.7,2.7c1.7,0,2.7-1.2,2.7-2.7c0-1.5-1-2.7-2.7-2.7
			C607.8,707.5,606.8,708.7,606.8,710.2z"/>
		<path id="XMLID_1472_" class="st3" d="M631.6,716.1h-4.2v-1.3h0c-0.7,1.2-2.2,1.7-3.6,1.7c-3.5,0-6-2.9-6-6.3
			c0-3.4,2.4-6.3,5.9-6.3c1.4,0,2.8,0.5,3.7,1.6v-1.2h4.2V716.1z M622.1,710.2c0,1.5,1,2.7,2.7,2.7c1.7,0,2.7-1.2,2.7-2.7
			c0-1.5-1-2.7-2.7-2.7C623.1,707.5,622.1,708.7,622.1,710.2z"/>
		<path id="XMLID_1469_" class="st3" d="M647.5,714.9c0,5-2.5,7.1-6.9,7.1c-2.7,0-6.4-1.4-6.8-4.5h4.7c0.1,0.4,0.4,0.7,0.8,0.9
			c0.4,0.2,0.8,0.3,1.2,0.3c2.3,0,2.7-1.5,2.7-3.4v-0.6c-1.1,1.1-2.2,1.6-3.8,1.6c-3.5,0-5.9-2.6-5.9-6.1c0-3.5,2.5-6.4,6.1-6.4
			c1.4,0,2.7,0.5,3.5,1.6h0v-1.3h4.2V714.9z M638,710.1c0,1.5,1,2.7,2.7,2.7c1.7,0,2.7-1.2,2.7-2.7c0-1.5-1-2.7-2.7-2.7
			C639,707.4,638,708.6,638,710.1z"/>
		<path id="XMLID_1466_" class="st3" d="M663.5,710.2c0,4-3.3,6.3-7.2,6.3c-3.8,0-7.2-2.3-7.2-6.3c0-4.1,3.3-6.3,7.2-6.3
			C660.2,703.8,663.5,706.1,663.5,710.2z M653.7,710.2c0,1.5,1,2.7,2.7,2.7c1.7,0,2.7-1.2,2.7-2.7c0-1.5-1-2.7-2.7-2.7
			C654.7,707.5,653.7,708.7,653.7,710.2z"/>
		<path id="XMLID_1463_" class="st3" d="M686.3,716.1h-4.2v-1.3h0c-0.7,1.2-2.2,1.7-3.6,1.7c-3.5,0-6-2.9-6-6.3
			c0-3.4,2.4-6.3,5.9-6.3c1.4,0,2.8,0.5,3.7,1.6v-1.2h4.2V716.1z M676.9,710.2c0,1.5,1,2.7,2.7,2.7c1.7,0,2.7-1.2,2.7-2.7
			c0-1.5-1-2.7-2.7-2.7C677.8,707.5,676.9,708.7,676.9,710.2z"/>
		<path id="XMLID_1461_" class="st3" d="M693.4,716.1h-4.2v-19.2h4.2V716.1z"/>
		<path id="XMLID_1457_" class="st3" d="M717.1,716.1h-4.2v-1.3h0c-0.7,1.2-2.2,1.7-3.6,1.7c-3.5,0-6-2.9-6-6.3
			c0-3.4,2.4-6.3,5.9-6.3c1.4,0,2.8,0.5,3.7,1.6v-1.2h4.2V716.1z M707.6,710.2c0,1.5,1,2.7,2.7,2.7c1.7,0,2.7-1.2,2.7-2.7
			c0-1.5-1-2.7-2.7-2.7C708.6,707.5,707.6,708.7,707.6,710.2z M710,702.5l-1.9-1.4l3.3-4l2.6,1.9L710,702.5z"/>
		<path id="XMLID_1455_" class="st3" d="M724.1,706.2L724.1,706.2c0.9-1.5,2.2-2.1,3.9-2.1h0.8v4.1c-0.6-0.3-1.1-0.4-1.8-0.4
			c-2.3,0-2.9,1.6-2.9,3.6v4.8h-4.2v-11.9h4.2V706.2z"/>
		<path id="XMLID_1452_" class="st3" d="M742.5,710.9h-8.9c0,1.7,0.9,2.6,2.6,2.6c0.9,0,1.6-0.3,2-1.1h4.1c-0.3,1.4-1.2,2.4-2.2,3.1
			c-1.1,0.7-2.4,1-3.8,1c-3.9,0-6.9-2.2-6.9-6.3c0-4,2.7-6.3,6.6-6.3c4.1,0,6.5,2.5,6.5,6.6V710.9z M738.6,708.4
			c-0.2-1.1-1.2-1.9-2.4-1.9c-1.2,0-2.2,0.6-2.5,1.9H738.6z"/>
		<path id="XMLID_1449_" class="st3" d="M757.4,716.1h-4.2v-1.3h0c-0.7,1.2-2.2,1.7-3.6,1.7c-3.5,0-6-2.9-6-6.3
			c0-3.4,2.4-6.3,5.9-6.3c1.4,0,2.8,0.5,3.7,1.6v-1.2h4.2V716.1z M748,710.2c0,1.5,1,2.7,2.7,2.7c1.7,0,2.7-1.2,2.7-2.7
			c0-1.5-1-2.7-2.7-2.7C749,707.5,748,708.7,748,710.2z"/>
		<path id="XMLID_1447_" class="st3" d="M772.8,716.1h-4.2v-8.4h-1.4v-3.5h1.4v-3.6h4.2v3.6h2.4v3.5h-2.4V716.1z"/>
		<path id="XMLID_1443_" class="st3" d="M788.7,710.9h-8.9c0,1.7,0.9,2.6,2.6,2.6c0.9,0,1.6-0.3,2-1.1h4.1c-0.3,1.4-1.2,2.4-2.2,3.1
			c-1.1,0.7-2.4,1-3.8,1c-3.9,0-6.9-2.2-6.9-6.3c0-4,2.7-6.3,6.6-6.3c4.1,0,6.5,2.5,6.5,6.6V710.9z M781.7,702.5l-1.9-1.4l3.3-4
			l2.6,1.9L781.7,702.5z M784.8,708.4c-0.2-1.1-1.2-1.9-2.4-1.9c-1.2,0-2.2,0.6-2.5,1.9H784.8z"/>
		<path id="XMLID_1441_" class="st3" d="M799.2,708.1c-0.6-0.5-1.4-0.8-2.2-0.8c-1.6,0-2.9,1.2-2.9,2.9c0,1.7,1.2,2.9,3,2.9
			c0.7,0,1.6-0.3,2.1-0.8v3.6c-0.9,0.5-1.9,0.7-3,0.7c-3.5,0-6.5-2.6-6.5-6.2c0-3.8,2.9-6.5,6.6-6.5c1,0,1.9,0.2,2.8,0.7V708.1z"/>
		<path id="XMLID_1439_" class="st3" d="M806,705.7L806,705.7c1-1.4,2.2-1.9,3.8-1.9c3.2,0,4.5,2,4.5,4.9v7.3h-4.2v-5.8
			c0-1.1,0.2-3.1-1.9-3.1c-1.7,0-2.2,1.3-2.2,2.8v6.2h-4.2v-11.9h4.2V705.7z"/>
		<path id="XMLID_1436_" class="st3" d="M821.6,699.7c0,1.3-1.1,2.4-2.4,2.4c-1.3,0-2.4-1.1-2.4-2.4c0-1.3,1.1-2.4,2.4-2.4
			C820.5,697.3,821.6,698.4,821.6,699.7z M821.3,716.1h-4.2v-11.9h4.2V716.1z"/>
		<path id="XMLID_1434_" class="st3" d="M832.7,708.1c-0.6-0.5-1.4-0.8-2.2-0.8c-1.6,0-2.9,1.2-2.9,2.9c0,1.7,1.2,2.9,3,2.9
			c0.7,0,1.6-0.3,2.1-0.8v3.6c-0.9,0.5-1.9,0.7-3,0.7c-3.5,0-6.5-2.6-6.5-6.2c0-3.8,2.9-6.5,6.6-6.5c1,0,1.9,0.2,2.8,0.7V708.1z"/>
		<path id="XMLID_1430_" class="st3" d="M848.3,716.1h-4.2v-1.3h0c-0.7,1.2-2.2,1.7-3.6,1.7c-3.5,0-6-2.9-6-6.3
			c0-3.4,2.4-6.3,5.9-6.3c1.4,0,2.8,0.5,3.7,1.6v-1.2h4.2V716.1z M838.8,710.2c0,1.5,1,2.7,2.7,2.7c1.7,0,2.7-1.2,2.7-2.7
			c0-1.5-1-2.7-2.7-2.7C839.8,707.5,838.8,708.7,838.8,710.2z"/>
	</g>
</g>
<rect id="XMLID_7221_" x="549.9" y="817.2" class="st1" width="350.1" height="158.5"/>
<g id="XMLID_23293_">
	<g>
		<path id="XMLID_858_" class="st3" d="M602.2,854.2l-1.2,3h-4.8l6.7-17.5h5l6.6,17.5h-4.8l-1.1-3H602.2z M605.4,845.2L605.4,845.2
			l-1.9,5.6h3.8L605.4,845.2z"/>
		<path id="XMLID_855_" class="st3" d="M630.3,857.3h-5.6l-4.3-6.7h0v6.7h-4.5v-17.5h6.8c3.4,0,6.1,1.6,6.1,5.4
			c0,2.4-1.3,4.5-3.8,4.9L630.3,857.3z M620.4,847.7h0.4c1.5,0,3.1-0.3,3.1-2.2c0-1.9-1.7-2.2-3.1-2.2h-0.4V847.7z"/>
		<path id="XMLID_853_" class="st3" d="M636.1,843.7v2.9h5.1v3.8h-5.1v3h5.4v3.8h-9.9v-17.5h9.9v3.8H636.1z"/>
		<path id="XMLID_850_" class="st3" d="M648.7,854.2l-1.2,3h-4.8l6.7-17.5h5l6.6,17.5h-4.8l-1.1-3H648.7z M651.9,845.2L651.9,845.2
			l-1.9,5.6h3.8L651.9,845.2z"/>
		<path id="XMLID_848_" class="st3" d="M677.3,857.3h-4.5v-13.6H669v-3.8h12v3.8h-3.8V857.3z"/>
		<path id="XMLID_846_" class="st3" d="M687.2,843.7v2.9h5.1v3.8h-5.1v3h5.4v3.8h-9.9v-17.5h9.9v3.8H687.2z"/>
		<path id="XMLID_844_" class="st3" d="M707.9,845.7c-0.9-1.2-2.4-1.9-4-1.9c-2.8,0-4.7,2.1-4.7,4.8c0,2.8,1.9,4.7,4.7,4.7
			c1.5,0,3-0.7,3.9-1.9v5.4c-1.5,0.5-2.6,0.8-4,0.8c-2.4,0-4.7-0.9-6.6-2.6c-1.9-1.7-2.8-4-2.8-6.6c0-2.4,0.9-4.7,2.6-6.4
			c1.7-1.8,4.2-2.8,6.6-2.8c1.5,0,2.8,0.3,4.1,0.9V845.7z"/>
		<path id="XMLID_842_" class="st3" d="M710.7,839.8h4.5l8.3,10.7h0v-10.7h4.5v17.5h-4.5l-8.3-10.7h0v10.7h-4.5V839.8z"/>
		<path id="XMLID_840_" class="st3" d="M735.6,857.3H731v-17.5h4.5V857.3z"/>
		<path id="XMLID_838_" class="st3" d="M751,845.7c-0.9-1.2-2.4-1.9-4-1.9c-2.8,0-4.7,2.1-4.7,4.8c0,2.8,1.9,4.7,4.7,4.7
			c1.5,0,3-0.7,3.9-1.9v5.4c-1.5,0.5-2.6,0.8-4,0.8c-2.4,0-4.7-0.9-6.6-2.6c-1.9-1.7-2.8-4-2.8-6.6c0-2.4,0.9-4.7,2.6-6.4
			c1.7-1.8,4.2-2.8,6.6-2.8c1.5,0,2.8,0.3,4.1,0.9V845.7z"/>
		<path id="XMLID_835_" class="st3" d="M772.2,848.2c0,5.6-4.1,9.6-9.7,9.6c-5.6,0-9.7-4-9.7-9.6c0-5.3,4.6-9,9.7-9
			C767.6,839.2,772.2,843,772.2,848.2z M757.7,848.3c0,3,2.2,5.2,4.9,5.2c2.7,0,4.9-2.2,4.9-5.2c0-2.4-2.2-4.6-4.9-4.6
			C759.9,843.6,757.7,845.8,757.7,848.3z"/>
		<path id="XMLID_833_" class="st3" d="M783.9,844.3c-0.8-0.7-1.9-1.2-3-1.2c-0.8,0-1.9,0.5-1.9,1.5c0,1,1.2,1.4,2,1.7l1.2,0.3
			c2.4,0.7,4.3,1.9,4.3,4.8c0,1.7-0.4,3.5-1.8,4.7c-1.4,1.2-3.2,1.6-5,1.6c-2.2,0-4.4-0.7-6.1-2l1.9-3.7c1.1,1,2.5,1.8,4,1.8
			c1.1,0,2.2-0.5,2.2-1.8c0-1.3-1.8-1.7-2.8-2c-2.8-0.8-4.7-1.6-4.7-4.9c0-3.5,2.5-5.9,6-5.9c1.8,0,3.9,0.6,5.5,1.4L783.9,844.3z"/>
		<path id="XMLID_831_" class="st3" d="M799.9,838.1l-8.8,21.4h-3.3l8.8-21.4H799.9z"/>
		<path id="XMLID_828_" class="st3" d="M806.5,854.2l-1.2,3h-4.8l6.7-17.5h5l6.6,17.5h-4.8l-1.1-3H806.5z M809.6,845.2L809.6,845.2
			l-1.9,5.6h3.8L809.6,845.2z"/>
		<path id="XMLID_825_" class="st3" d="M834.6,857.3H829l-4.3-6.7h0v6.7h-4.5v-17.5h6.8c3.4,0,6.1,1.6,6.1,5.4
			c0,2.4-1.3,4.5-3.8,4.9L834.6,857.3z M824.6,847.7h0.4c1.5,0,3.1-0.3,3.1-2.2c0-1.9-1.7-2.2-3.1-2.2h-0.4V847.7z"/>
		<path id="XMLID_822_" class="st3" d="M850.8,858.4l-1.4-1.6c-1.3,0.8-2.9,1.1-4.8,1.1c-5.6,0-9.7-4-9.7-9.6c0-5.3,4.6-9,9.7-9
			c5.4,0,9.7,3.7,9.7,9.4c0,2.3-0.8,4.3-2.2,6.1l2.9,3L850.8,858.4z M848.7,851.2c0.5-0.7,0.8-1.7,0.8-2.6c0-2.6-2.2-5-4.9-5
			c-2.7,0-5,2.2-5,4.6c0,3,2.2,5.2,5,5.2c0.5,0,0.9-0.1,1.4-0.2l-2.8-2.8l4.3-0.5L848.7,851.2z"/>
		<path id="XMLID_820_" class="st3" d="M606.4,873.5c-0.9-1.2-2.4-1.9-4-1.9c-2.8,0-4.7,2.1-4.7,4.8c0,2.8,1.9,4.7,4.7,4.7
			c1.5,0,3-0.7,3.9-1.9v5.4c-1.5,0.5-2.6,0.8-4,0.8c-2.4,0-4.7-0.9-6.6-2.6c-1.9-1.7-2.8-4-2.8-6.6c0-2.4,0.9-4.7,2.6-6.4
			c1.7-1.8,4.2-2.8,6.6-2.8c1.5,0,2.8,0.3,4.1,0.9V873.5z"/>
		<path id="XMLID_817_" class="st3" d="M622.5,879.1c0,4-3.3,6.3-7.2,6.3c-3.8,0-7.2-2.3-7.2-6.3c0-4.1,3.3-6.3,7.2-6.3
			C619.2,872.8,622.5,875.1,622.5,879.1z M612.7,879.1c0,1.5,1,2.7,2.7,2.7c1.7,0,2.7-1.2,2.7-2.7c0-1.5-1-2.7-2.7-2.7
			C613.7,876.4,612.7,877.7,612.7,879.1z"/>
		<path id="XMLID_814_" class="st3" d="M628.6,874.7L628.6,874.7c1-1.4,2.2-1.9,3.8-1.9c3.2,0,4.5,2,4.5,4.9v7.3h-4.2v-5.8
			c0-1.1,0.2-3.1-1.9-3.1c-1.7,0-2.2,1.3-2.2,2.8v6.2h-4.2v-11.9h4.2V874.7z"/>
		<path id="XMLID_812_" class="st3" d="M644.4,885.1h-4.2v-8.4h-1.5v-3.5h1.5v-1.5c0-1.6,0-2.8,1.2-4.2c1-1.2,2.5-1.9,4.1-1.9
			c0.6,0,1.2,0.1,1.8,0.4v3.6c-0.5-0.2-0.9-0.4-1.5-0.4c-1.1,0-1.5,0.6-1.5,2v1.9h2.9v3.5h-2.9V885.1z"/>
		<path id="XMLID_809_" class="st3" d="M662.1,879.1c0,4-3.3,6.3-7.2,6.3c-3.8,0-7.2-2.3-7.2-6.3c0-4.1,3.3-6.3,7.2-6.3
			C658.8,872.8,662.1,875.1,662.1,879.1z M652.3,879.1c0,1.5,1,2.7,2.7,2.7c1.7,0,2.7-1.2,2.7-2.7c0-1.5-1-2.7-2.7-2.7
			C653.3,876.4,652.3,877.7,652.3,879.1z"/>
		<path id="XMLID_807_" class="st3" d="M668.2,875.1L668.2,875.1c0.9-1.5,2.2-2.1,3.9-2.1h0.8v4.1c-0.6-0.3-1.1-0.4-1.8-0.4
			c-2.3,0-2.9,1.6-2.9,3.6v4.8H664v-11.9h4.2V875.1z"/>
		<path id="XMLID_805_" class="st3" d="M678.7,874.7L678.7,874.7c1-1.3,2.3-1.9,3.8-1.9c1.7,0,3.2,0.7,4.1,2.3
			c0.8-1.5,2.4-2.3,4-2.3c3,0,4.1,2,4.1,4.7v7.6h-4.2v-5.7c0-1.2,0-3.2-1.7-3.2c-1.9,0-2,1.8-2,3.2v5.7h-4.2v-5.7
			c0-1.3,0-3.3-1.9-3.3c-1.9,0-1.9,2-1.9,3.3v5.7h-4.2v-11.9h4.2V874.7z"/>
		<path id="XMLID_802_" class="st3" d="M701.9,868.6c0,1.3-1.1,2.4-2.4,2.4c-1.3,0-2.4-1.1-2.4-2.4c0-1.3,1.1-2.4,2.4-2.4
			C700.8,866.3,701.9,867.3,701.9,868.6z M701.6,885.1h-4.2v-11.9h4.2V885.1z"/>
		<path id="XMLID_799_" class="st3" d="M713.3,883.7L713.3,883.7c-0.8,1.2-2.2,1.7-3.6,1.7c-3.5,0-6-2.9-6-6.3
			c0-3.4,2.4-6.3,5.9-6.3c1.4,0,2.8,0.5,3.7,1.6v-8.5h4.2v19.2h-4.2V883.7z M708.1,879.1c0,1.5,1,2.7,2.7,2.7c1.7,0,2.7-1.2,2.7-2.7
			c0-1.5-1-2.7-2.7-2.7C709,876.4,708.1,877.7,708.1,879.1z"/>
		<path id="XMLID_796_" class="st3" d="M733.2,885.1H729v-1.3h0c-0.7,1.2-2.2,1.7-3.6,1.7c-3.5,0-6-2.9-6-6.3c0-3.4,2.4-6.3,5.9-6.3
			c1.4,0,2.8,0.5,3.7,1.6v-1.2h4.2V885.1z M723.7,879.1c0,1.5,1,2.7,2.7,2.7c1.7,0,2.7-1.2,2.7-2.7c0-1.5-1-2.7-2.7-2.7
			C724.7,876.4,723.7,877.7,723.7,879.1z"/>
		<path id="XMLID_793_" class="st3" d="M744.9,883.7L744.9,883.7c-0.8,1.2-2.2,1.7-3.6,1.7c-3.5,0-6-2.9-6-6.3
			c0-3.4,2.4-6.3,5.9-6.3c1.4,0,2.8,0.5,3.7,1.6v-8.5h4.2v19.2h-4.2V883.7z M739.6,879.1c0,1.5,1,2.7,2.7,2.7c1.7,0,2.7-1.2,2.7-2.7
			c0-1.5-1-2.7-2.7-2.7C740.6,876.4,739.6,877.7,739.6,879.1z"/>
		<path id="XMLID_790_" class="st3" d="M768.6,883.7L768.6,883.7c-0.8,1.2-2.2,1.7-3.6,1.7c-3.5,0-6-2.9-6-6.3
			c0-3.4,2.4-6.3,5.9-6.3c1.4,0,2.8,0.5,3.7,1.6v-8.5h4.2v19.2h-4.2V883.7z M763.3,879.1c0,1.5,1,2.7,2.7,2.7c1.7,0,2.7-1.2,2.7-2.7
			c0-1.5-1-2.7-2.7-2.7C764.3,876.4,763.3,877.7,763.3,879.1z"/>
		<path id="XMLID_787_" class="st3" d="M787.7,879.8h-8.9c0,1.7,0.9,2.6,2.6,2.6c0.9,0,1.6-0.3,2-1.1h4.1c-0.3,1.4-1.2,2.4-2.2,3.1
			c-1.1,0.7-2.4,1-3.8,1c-3.9,0-6.9-2.2-6.9-6.3c0-4,2.7-6.3,6.6-6.3c4.1,0,6.5,2.5,6.5,6.6V879.8z M783.8,877.4
			c-0.2-1.1-1.2-1.9-2.4-1.9c-1.2,0-2.2,0.6-2.5,1.9H783.8z"/>
		<path id="XMLID_784_" class="st3" d="M801.6,874.5L801.6,874.5c0.8-1.2,2.2-1.7,3.6-1.7c3.5,0,6,3,6,6.4c0,3.4-2.4,6.3-5.9,6.3
			c-1.4,0-2.8-0.5-3.7-1.5v7.1h-4.2v-17.8h4.2V874.5z M801.5,879.1c0,1.5,1,2.7,2.7,2.7c1.7,0,2.7-1.2,2.7-2.7c0-1.5-1-2.7-2.7-2.7
			C802.5,876.4,801.5,877.7,801.5,879.1z"/>
		<path id="XMLID_781_" class="st3" d="M826.3,885.1h-4.2v-1.3h0c-0.7,1.2-2.2,1.7-3.6,1.7c-3.5,0-6-2.9-6-6.3
			c0-3.4,2.4-6.3,5.9-6.3c1.4,0,2.8,0.5,3.7,1.6v-1.2h4.2V885.1z M816.8,879.1c0,1.5,1,2.7,2.7,2.7c1.7,0,2.7-1.2,2.7-2.7
			c0-1.5-1-2.7-2.7-2.7C817.8,876.4,816.8,877.7,816.8,879.1z"/>
		<path id="XMLID_778_" class="st3" d="M842.1,883.9c0,5-2.5,7.1-6.9,7.1c-2.7,0-6.4-1.4-6.8-4.5h4.7c0.1,0.4,0.4,0.7,0.8,0.9
			c0.4,0.2,0.8,0.3,1.2,0.3c2.3,0,2.7-1.5,2.7-3.4v-0.6c-1.1,1.1-2.2,1.6-3.8,1.6c-3.5,0-5.9-2.6-5.9-6.1c0-3.5,2.5-6.4,6.1-6.4
			c1.4,0,2.7,0.5,3.5,1.6h0v-1.3h4.2V883.9z M832.6,879c0,1.5,1,2.7,2.7,2.7c1.7,0,2.7-1.2,2.7-2.7c0-1.5-1-2.7-2.7-2.7
			C833.6,876.4,832.6,877.6,832.6,879z"/>
		<path id="XMLID_775_" class="st3" d="M858.2,879.1c0,4-3.3,6.3-7.2,6.3c-3.8,0-7.2-2.3-7.2-6.3c0-4.1,3.3-6.3,7.2-6.3
			C854.9,872.8,858.2,875.1,858.2,879.1z M848.3,879.1c0,1.5,1,2.7,2.7,2.7c1.7,0,2.7-1.2,2.7-2.7c0-1.5-1-2.7-2.7-2.7
			C849.3,876.4,848.3,877.7,848.3,879.1z"/>
	</g>
</g>
<rect id="XMLID_7219_" x="549.9" y="1022.8" class="st1" width="350.1" height="158.5"/>
<g id="XMLID_23207_">
	<g>
		<path id="XMLID_932_" class="st3" d="M631.5,1058.7v11.8c0,3.7-1.9,6.1-5.8,6.1c-1.9,0-3.4-1-4.5-2.6l2.6-2.8
			c0.5,0.7,1.2,1.5,1.8,1.5c1.3,0,1.3-1.6,1.3-2.6v-11.5H631.5z"/>
		<path id="XMLID_930_" class="st3" d="M638.9,1062.6v2.9h5.1v3.8h-5.1v3h5.4v3.8h-9.9v-17.5h9.9v3.8H638.9z"/>
		<path id="XMLID_928_" class="st3" d="M651.6,1062.6v2.9h5v3.8h-5v6.9h-4.5v-17.5h10v3.8H651.6z"/>
		<path id="XMLID_926_" class="st3" d="M664.2,1062.6v2.9h5.1v3.8h-5.1v3h5.4v3.8h-9.9v-17.5h9.9v3.8H664.2z"/>
		<path id="XMLID_923_" class="st3" d="M680.3,1058.7h6.4c4.9,0,8.9,3.8,8.9,8.7s-4,8.7-8.9,8.7h-6.4V1058.7z M684.8,1072.3h1
			c2.7,0,5-1.5,5-4.9c0-3.1-2.1-4.9-5-4.9h-1.1V1072.3z"/>
		<path id="XMLID_921_" class="st3" d="M702.2,1062.6v2.9h5.1v3.8h-5.1v3h5.4v3.8h-9.9v-17.5h9.9v3.8H702.2z"/>
		<path id="XMLID_918_" class="st3" d="M718.4,1058.7h6.4c4.9,0,8.9,3.8,8.9,8.7s-4,8.7-8.9,8.7h-6.4V1058.7z M722.9,1072.3h1
			c2.7,0,5-1.5,5-4.9c0-3.1-2.1-4.9-5-4.9h-1.1V1072.3z"/>
		<path id="XMLID_916_" class="st3" d="M740.3,1076.2h-4.5v-17.5h4.5V1076.2z"/>
		<path id="XMLID_914_" class="st3" d="M750.6,1069.3l4.2-10.6h4.9l-7.5,17.5h-3.5l-7.3-17.5h4.9L750.6,1069.3z"/>
		<path id="XMLID_912_" class="st3" d="M765.4,1076.2h-4.5v-17.5h4.5V1076.2z"/>
		<path id="XMLID_910_" class="st3" d="M778,1063.2c-0.8-0.7-1.9-1.2-3-1.2c-0.8,0-1.9,0.5-1.9,1.5c0,1,1.2,1.4,2,1.7l1.2,0.3
			c2.4,0.7,4.3,1.9,4.3,4.8c0,1.7-0.4,3.5-1.8,4.7c-1.4,1.2-3.2,1.6-5,1.6c-2.2,0-4.4-0.7-6.1-2l1.9-3.7c1.1,1,2.5,1.8,4,1.8
			c1.1,0,2.2-0.5,2.2-1.8c0-1.3-1.8-1.7-2.8-2c-2.8-0.8-4.7-1.6-4.7-4.9c0-3.5,2.5-5.9,6-5.9c1.8,0,3.9,0.6,5.5,1.4L778,1063.2z"/>
		<path id="XMLID_908_" class="st3" d="M787.2,1076.2h-4.5v-17.5h4.5V1076.2z"/>
		<path id="XMLID_904_" class="st3" d="M808.6,1067.1c0,5.6-4.1,9.6-9.7,9.6c-5.6,0-9.7-4-9.7-9.6c0-5.3,4.6-9,9.7-9
			C803.9,1058.1,808.6,1061.8,808.6,1067.1z M794,1067.1c0,3,2.2,5.2,4.9,5.2c2.7,0,4.9-2.2,4.9-5.2c0-2.4-2.2-4.6-4.9-4.6
			C796.2,1062.5,794,1064.7,794,1067.1z M798.4,1057.7l-1.9-1.4l3.3-4l2.6,1.9L798.4,1057.7z"/>
		<path id="XMLID_901_" class="st3" d="M810.7,1058.7h4.5l8.3,10.7h0v-10.7h4.5v17.5h-4.5l-8.3-10.7h0v10.7h-4.5V1058.7z"/>
		<path id="XMLID_898_" class="st3" d="M581.9,1100.9l-1.2,3h-4.8l6.7-17.5h5l6.6,17.5h-4.8l-1.1-3H581.9z M585.1,1091.9
			L585.1,1091.9l-1.9,5.6h3.8L585.1,1091.9z"/>
		<path id="XMLID_895_" class="st3" d="M599.5,1093.4L599.5,1093.4c0.8-1.2,2.2-1.7,3.6-1.7c3.5,0,6,3,6,6.4c0,3.4-2.4,6.3-5.9,6.3
			c-1.4,0-2.8-0.5-3.7-1.5v7.1h-4.2v-17.8h4.2V1093.4z M599.4,1098c0,1.5,1,2.7,2.7,2.7s2.7-1.2,2.7-2.7c0-1.5-1-2.7-2.7-2.7
			S599.4,1096.6,599.4,1098z"/>
		<path id="XMLID_893_" class="st3" d="M615.4,1094L615.4,1094c0.9-1.5,2.2-2.1,3.9-2.1h0.8v4.1c-0.6-0.3-1.1-0.4-1.8-0.4
			c-2.3,0-2.9,1.6-2.9,3.6v4.8h-4.2v-11.9h4.2V1094z"/>
		<path id="XMLID_890_" class="st3" d="M634.7,1098c0,4-3.3,6.3-7.2,6.3c-3.8,0-7.2-2.3-7.2-6.3c0-4.1,3.3-6.3,7.2-6.3
			C631.4,1091.7,634.7,1094,634.7,1098z M624.9,1098c0,1.5,1,2.7,2.7,2.7c1.7,0,2.7-1.2,2.7-2.7c0-1.5-1-2.7-2.7-2.7
			C625.8,1095.3,624.9,1096.6,624.9,1098z"/>
		<path id="XMLID_887_" class="st3" d="M636.5,1084.7h4.2v8.5c0.9-1,2.3-1.6,3.7-1.6c3.5,0,5.9,2.9,5.9,6.3c0,3.4-2.5,6.3-6,6.3
			c-1.4,0-2.8-0.5-3.6-1.7h0v1.3h-4.2V1084.7z M640.5,1098c0,1.5,1,2.7,2.7,2.7c1.7,0,2.7-1.2,2.7-2.7c0-1.5-1-2.7-2.7-2.7
			C641.5,1095.3,640.5,1096.6,640.5,1098z"/>
		<path id="XMLID_884_" class="st3" d="M665.4,1104h-4.2v-1.3h0c-0.7,1.2-2.2,1.7-3.6,1.7c-3.5,0-6-2.9-6-6.3c0-3.4,2.4-6.3,5.9-6.3
			c1.4,0,2.8,0.5,3.7,1.6v-1.2h4.2V1104z M655.9,1098c0,1.5,1,2.7,2.7,2.7c1.7,0,2.7-1.2,2.7-2.7c0-1.5-1-2.7-2.7-2.7
			C656.9,1095.3,655.9,1096.6,655.9,1098z"/>
		<path id="XMLID_882_" class="st3" d="M676.7,1095.9c-0.6-0.5-1.4-0.8-2.2-0.8c-1.6,0-2.9,1.2-2.9,2.9c0,1.7,1.2,2.9,3,2.9
			c0.7,0,1.6-0.3,2.1-0.8v3.6c-0.9,0.5-1.9,0.7-3,0.7c-3.5,0-6.5-2.6-6.5-6.2c0-3.8,2.9-6.5,6.6-6.5c1,0,1.9,0.2,2.8,0.7V1095.9z"/>
		<path id="XMLID_878_" class="st3" d="M683.8,1087.5c0,1.3-1.1,2.4-2.4,2.4c-1.3,0-2.4-1.1-2.4-2.4c0-1.3,1.1-2.4,2.4-2.4
			C682.8,1085.2,683.8,1086.2,683.8,1087.5z M683.6,1104h-4.2v-11.9h4.2V1104z"/>
		<path id="XMLID_874_" class="st3" d="M699.8,1098c0,4-3.3,6.3-7.2,6.3c-3.8,0-7.2-2.3-7.2-6.3c0-4.1,3.3-6.3,7.2-6.3
			C696.4,1091.7,699.8,1094,699.8,1098z M689.9,1098c0,1.5,1,2.7,2.7,2.7s2.7-1.2,2.7-2.7c0-1.5-1-2.7-2.7-2.7
			S689.9,1096.6,689.9,1098z M692.2,1090.3l-1.9-1.4l3.3-4l2.6,1.9L692.2,1090.3z"/>
		<path id="XMLID_872_" class="st3" d="M705.9,1093.6L705.9,1093.6c1-1.4,2.2-1.9,3.8-1.9c3.2,0,4.5,2,4.5,4.9v7.3H710v-5.8
			c0-1.1,0.2-3.1-1.9-3.1c-1.7,0-2.2,1.3-2.2,2.8v6.2h-4.2v-11.9h4.2V1093.6z"/>
		<path id="XMLID_870_" class="st3" d="M732.8,1095.1c-0.6-0.3-1.6-0.6-2.3-0.6c-0.5,0-1.3,0.2-1.3,0.8c0,0.8,1.3,0.9,1.9,1
			c2,0.4,3.4,1.3,3.4,3.5c0,3.1-2.8,4.4-5.6,4.4c-1.7,0-3.4-0.5-4.8-1.4l1.5-2.9c0.9,0.6,2.3,1.2,3.3,1.2c0.5,0,1.3-0.3,1.3-0.9
			c0-0.9-1.3-1-2.6-1.3c-1.3-0.3-2.6-1-2.6-3.1c0-2.9,2.6-4.2,5.2-4.2c1.3,0,2.7,0.2,3.9,0.8L732.8,1095.1z"/>
		<path id="XMLID_867_" class="st3" d="M749,1098.7h-8.9c0,1.7,0.9,2.6,2.6,2.6c0.9,0,1.6-0.3,2-1.1h4.1c-0.3,1.4-1.2,2.4-2.2,3.1
			c-1.1,0.7-2.4,1-3.8,1c-3.9,0-6.9-2.2-6.9-6.3c0-4,2.7-6.3,6.6-6.3c4.1,0,6.5,2.5,6.5,6.6V1098.7z M745.1,1096.3
			c-0.2-1.1-1.2-1.9-2.4-1.9c-1.2,0-2.2,0.6-2.5,1.9H745.1z"/>
		<path id="XMLID_865_" class="st3" d="M755.1,1104h-4.2v-19.2h4.2V1104z"/>
		<path id="XMLID_863_" class="st3" d="M762.1,1104h-4.2v-19.2h4.2V1104z"/>
		<path id="XMLID_815_" class="st3" d="M777.9,1104h-4.2v-1.3h0c-0.7,1.2-2.2,1.7-3.6,1.7c-3.5,0-6-2.9-6-6.3c0-3.4,2.4-6.3,5.9-6.3
			c1.4,0,2.8,0.5,3.7,1.6v-1.2h4.2V1104z M768.4,1098c0,1.5,1,2.7,2.7,2.7c1.7,0,2.7-1.2,2.7-2.7c0-1.5-1-2.7-2.7-2.7
			C769.4,1095.3,768.4,1096.6,768.4,1098z"/>
		<path id="XMLID_773_" class="st3" d="M786.9,1092.1h4.9l3.2,6.1l3.1-6.1h4.8l-9.5,17.8h-4.7l4.1-7.5L786.9,1092.1z"/>
		<path id="XMLID_769_" class="st3" d="M816.2,1104H812v-8.4h-1.5v-3.5h1.5v-1.5c0-1.6,0-2.8,1.2-4.2c1-1.2,2.5-1.9,4.1-1.9
			c0.6,0,1.2,0.1,1.8,0.4v3.6c-0.5-0.2-0.9-0.4-1.5-0.4c-1.1,0-1.5,0.6-1.5,2v1.9h2.9v3.5h-2.9V1104z M824.9,1087.5
			c0,1.3-1.1,2.4-2.4,2.4c-1.3,0-2.4-1.1-2.4-2.4c0-1.3,1.1-2.4,2.4-2.4C823.8,1085.2,824.9,1086.2,824.9,1087.5z M824.6,1104h-4.2
			v-11.9h4.2V1104z"/>
		<path id="XMLID_767_" class="st3" d="M831.6,1094L831.6,1094c0.9-1.5,2.2-2.1,3.9-2.1h0.8v4.1c-0.6-0.3-1.1-0.4-1.8-0.4
			c-2.3,0-2.9,1.6-2.9,3.6v4.8h-4.2v-11.9h4.2V1094z"/>
		<path id="XMLID_765_" class="st3" d="M842.1,1093.6L842.1,1093.6c1-1.3,2.3-1.9,3.8-1.9c1.7,0,3.2,0.7,4.1,2.3
			c0.8-1.5,2.4-2.3,4-2.3c3,0,4.1,2,4.1,4.7v7.6h-4.2v-5.7c0-1.2,0-3.2-1.7-3.2c-1.9,0-2,1.8-2,3.2v5.7h-4.2v-5.7
			c0-1.3,0-3.3-1.9-3.3s-1.9,2-1.9,3.3v5.7h-4.2v-11.9h4.2V1093.6z"/>
		<path id="XMLID_762_" class="st3" d="M873.8,1104h-4.2v-1.3h0c-0.7,1.2-2.2,1.7-3.6,1.7c-3.5,0-6-2.9-6-6.3c0-3.4,2.4-6.3,5.9-6.3
			c1.4,0,2.8,0.5,3.7,1.6v-1.2h4.2V1104z M864.3,1098c0,1.5,1,2.7,2.7,2.7c1.7,0,2.7-1.2,2.7-2.7c0-1.5-1-2.7-2.7-2.7
			C865.3,1095.3,864.3,1096.6,864.3,1098z"/>
	</g>
</g>
<rect id="XMLID_7209_" x="549.9" y="1228.3" class="st1" width="350.1" height="158.5"/>
<g id="XMLID_23116_">
	<g>
		<path id="XMLID_1059_" class="st3" d="M660.4,1268.7c-0.8-0.7-1.9-1.2-3-1.2c-0.8,0-1.9,0.5-1.9,1.5c0,1,1.2,1.4,2,1.7l1.2,0.3
			c2.4,0.7,4.3,1.9,4.3,4.8c0,1.7-0.4,3.5-1.8,4.7c-1.4,1.2-3.2,1.6-5,1.6c-2.2,0-4.4-0.7-6.1-2l1.9-3.7c1.1,1,2.5,1.8,4,1.8
			c1.1,0,2.2-0.5,2.2-1.8c0-1.3-1.8-1.7-2.8-2c-2.8-0.8-4.7-1.6-4.7-4.9c0-3.5,2.5-5.9,6-5.9c1.8,0,3.9,0.6,5.5,1.4L660.4,1268.7z"
			/>
		<path id="XMLID_1057_" class="st3" d="M680.2,1264.2v9.8c0,2.2-0.1,4.5-1.8,6.2c-1.5,1.4-3.7,1.9-5.8,1.9c-2,0-4.3-0.5-5.8-1.9
			c-1.7-1.7-1.8-3.9-1.8-6.2v-9.8h4.5v9.2c0,2.3,0.2,4.7,3.1,4.7c2.9,0,3.1-2.5,3.1-4.7v-9.2H680.2z"/>
		<path id="XMLID_1053_" class="st3" d="M683.1,1281.6v-17.5h6.5c3.1,0,5.2,1.2,5.2,4.5c0,1.6-0.5,2.8-1.9,3.6v0
			c2.5,0.3,3.6,2,3.6,4.4c0,3.7-3.1,4.9-6.3,4.9H683.1z M687.6,1271h0.5c1.2,0,2.5-0.2,2.5-1.7c0-1.6-1.4-1.7-2.6-1.7h-0.3V1271z
			 M687.6,1278.2h0.6c1.3,0,3.6,0.1,3.6-1.9c0-2.1-2.2-1.9-3.7-1.9h-0.5V1278.2z"/>
		<path id="XMLID_1050_" class="st3" d="M703.2,1278.6l-1.2,3h-4.8l6.7-17.5h5l6.6,17.5h-4.8l-1.1-3H703.2z M706.4,1269.6
			L706.4,1269.6l-1.9,5.6h3.8L706.4,1269.6z"/>
		<path id="XMLID_1048_" class="st3" d="M721.4,1277.8h5.4v3.8h-10v-17.5h4.5V1277.8z"/>
		<path id="XMLID_1046_" class="st3" d="M740.8,1270c-0.9-1.2-2.4-1.9-4-1.9c-2.8,0-4.7,2.1-4.7,4.8c0,2.8,1.9,4.7,4.7,4.7
			c1.5,0,3-0.7,3.9-1.9v5.4c-1.5,0.5-2.6,0.8-4,0.8c-2.4,0-4.7-0.9-6.6-2.6c-1.9-1.7-2.8-4-2.8-6.6c0-2.4,0.9-4.7,2.6-6.4
			c1.7-1.8,4.2-2.8,6.6-2.8c1.5,0,2.8,0.3,4.1,0.9V1270z"/>
		<path id="XMLID_1043_" class="st3" d="M748,1278.6l-1.2,3H742l6.7-17.5h5l6.6,17.5h-4.8l-1.1-3H748z M751.2,1269.6L751.2,1269.6
			l-1.9,5.6h3.8L751.2,1269.6z"/>
		<path id="XMLID_1041_" class="st3" d="M766.2,1277.8h5.4v3.8h-10v-17.5h4.5V1277.8z"/>
		<path id="XMLID_1038_" class="st3" d="M773.1,1264.2h6.4c4.9,0,8.9,3.8,8.9,8.7c0,4.9-4,8.7-8.9,8.7h-6.4V1264.2z M777.7,1277.8h1
			c2.7,0,5-1.5,5-4.9c0-3.1-2.1-4.9-5-4.9h-1.1V1277.8z"/>
		<path id="XMLID_1036_" class="st3" d="M795.1,1268v2.9h5.1v3.8h-5.1v3h5.4v3.8h-9.9v-17.5h9.9v3.8H795.1z"/>
		<path id="XMLID_1033_" class="st3" d="M614.6,1306.4l-1.2,3h-4.8l6.7-17.5h5l6.6,17.5H622l-1.1-3H614.6z M617.8,1297.4
			L617.8,1297.4l-1.9,5.6h3.8L617.8,1297.4z"/>
		<path id="XMLID_1030_" class="st3" d="M632.2,1298.9L632.2,1298.9c0.8-1.2,2.2-1.7,3.6-1.7c3.5,0,6,3,6,6.4c0,3.4-2.4,6.3-5.9,6.3
			c-1.4,0-2.8-0.5-3.7-1.5v7.1H628v-17.8h4.2V1298.9z M632.1,1303.5c0,1.5,1,2.7,2.7,2.7c1.7,0,2.7-1.2,2.7-2.7c0-1.5-1-2.7-2.7-2.7
			C633.1,1300.8,632.1,1302,632.1,1303.5z"/>
		<path id="XMLID_1028_" class="st3" d="M648.1,1299.5L648.1,1299.5c0.9-1.5,2.2-2.1,3.9-2.1h0.8v4.1c-0.6-0.3-1.1-0.4-1.8-0.4
			c-2.3,0-2.9,1.6-2.9,3.6v4.8h-4.2v-11.9h4.2V1299.5z"/>
		<path id="XMLID_1026_" class="st3" d="M658.6,1297.5v6.3c0,1.5,0.4,2.6,2.1,2.6c1.7,0,2.1-1.1,2.1-2.6v-6.3h4.2v7.2
			c0,3.9-2.8,5.1-6.3,5.1s-6.3-1.2-6.3-5.1v-7.2H658.6z"/>
		<path id="XMLID_1023_" class="st3" d="M681.9,1304.2H673c0,1.7,0.9,2.6,2.6,2.6c0.9,0,1.6-0.3,2-1.1h4.1c-0.3,1.4-1.2,2.4-2.2,3.1
			c-1.1,0.7-2.4,1-3.8,1c-3.9,0-6.9-2.2-6.9-6.3c0-4,2.7-6.3,6.6-6.3c4.1,0,6.5,2.5,6.5,6.6V1304.2z M678,1301.8
			c-0.2-1.1-1.2-1.9-2.4-1.9c-1.2,0-2.2,0.6-2.5,1.9H678z"/>
		<path id="XMLID_1020_" class="st3" d="M683.7,1290.2h4.2v8.5c0.9-1,2.3-1.6,3.7-1.6c3.5,0,5.9,2.9,5.9,6.3c0,3.4-2.5,6.3-6,6.3
			c-1.4,0-2.8-0.5-3.6-1.7h0v1.3h-4.2V1290.2z M687.7,1303.5c0,1.5,1,2.7,2.7,2.7s2.7-1.2,2.7-2.7c0-1.5-1-2.7-2.7-2.7
			S687.7,1302,687.7,1303.5z"/>
		<path id="XMLID_1017_" class="st3" d="M712.6,1309.4h-4.2v-1.3h0c-0.7,1.2-2.2,1.7-3.6,1.7c-3.5,0-6-2.9-6-6.3
			c0-3.4,2.4-6.3,5.9-6.3c1.4,0,2.8,0.5,3.7,1.6v-1.2h4.2V1309.4z M703.1,1303.5c0,1.5,1,2.7,2.7,2.7c1.7,0,2.7-1.2,2.7-2.7
			c0-1.5-1-2.7-2.7-2.7C704.1,1300.8,703.1,1302,703.1,1303.5z"/>
		<path id="XMLID_1014_" class="st3" d="M735.5,1304.2h-8.9c0,1.7,0.9,2.6,2.6,2.6c0.9,0,1.6-0.3,2-1.1h4.1
			c-0.3,1.4-1.2,2.4-2.2,3.1c-1.1,0.7-2.4,1-3.8,1c-3.9,0-6.9-2.2-6.9-6.3c0-4,2.7-6.3,6.6-6.3c4.1,0,6.5,2.5,6.5,6.6V1304.2z
			 M731.6,1301.8c-0.2-1.1-1.2-1.9-2.4-1.9c-1.2,0-2.2,0.6-2.5,1.9H731.6z"/>
		<path id="XMLID_1012_" class="st3" d="M741.6,1309.4h-4.2v-19.2h4.2V1309.4z"/>
		<path id="XMLID_1009_" class="st3" d="M765.3,1309.4h-4.2v-1.3h0c-0.7,1.2-2.2,1.7-3.6,1.7c-3.5,0-6-2.9-6-6.3
			c0-3.4,2.4-6.3,5.9-6.3c1.4,0,2.8,0.5,3.7,1.6v-1.2h4.2V1309.4z M755.8,1303.5c0,1.5,1,2.7,2.7,2.7c1.7,0,2.7-1.2,2.7-2.7
			c0-1.5-1-2.7-2.7-2.7C756.8,1300.8,755.8,1302,755.8,1303.5z"/>
		<path id="XMLID_1007_" class="st3" d="M774,1303.6l2.8-6.1h4.7l-6.2,11.9h-2.7l-6.2-11.9h4.7L774,1303.6z"/>
		<path id="XMLID_1004_" class="st3" d="M795.5,1309.4h-4.2v-1.3h0c-0.7,1.2-2.2,1.7-3.6,1.7c-3.5,0-6-2.9-6-6.3
			c0-3.4,2.4-6.3,5.9-6.3c1.4,0,2.8,0.5,3.7,1.6v-1.2h4.2V1309.4z M786.1,1303.5c0,1.5,1,2.7,2.7,2.7c1.7,0,2.7-1.2,2.7-2.7
			c0-1.5-1-2.7-2.7-2.7C787.1,1300.8,786.1,1302,786.1,1303.5z"/>
		<path id="XMLID_1002_" class="st3" d="M802.6,1309.4h-4.2v-19.2h4.2V1309.4z"/>
		<path id="XMLID_1000_" class="st3" d="M809.5,1297.5v6.3c0,1.5,0.4,2.6,2.1,2.6c1.7,0,2.1-1.1,2.1-2.6v-6.3h4.2v7.2
			c0,3.9-2.8,5.1-6.3,5.1s-6.3-1.2-6.3-5.1v-7.2H809.5z"/>
		<path id="XMLID_996_" class="st3" d="M834,1303.5c0,4-3.3,6.3-7.2,6.3c-3.8,0-7.2-2.3-7.2-6.3s3.3-6.3,7.2-6.3
			C830.7,1297.1,834,1299.4,834,1303.5z M824.2,1303.5c0,1.5,1,2.7,2.7,2.7c1.7,0,2.7-1.2,2.7-2.7c0-1.5-1-2.7-2.7-2.7
			C825.1,1300.8,824.2,1302,824.2,1303.5z M826.4,1295.8l-1.9-1.4l3.3-4l2.6,1.9L826.4,1295.8z"/>
		<path id="XMLID_994_" class="st3" d="M659,1328.4c-0.6-0.3-1.6-0.6-2.3-0.6c-0.5,0-1.3,0.2-1.3,0.8c0,0.8,1.3,0.9,1.9,1
			c2,0.4,3.4,1.3,3.4,3.5c0,3.1-2.8,4.4-5.6,4.4c-1.7,0-3.4-0.5-4.8-1.4l1.5-2.9c0.9,0.6,2.3,1.2,3.3,1.2c0.5,0,1.3-0.3,1.3-0.9
			c0-0.9-1.3-1-2.6-1.3c-1.3-0.3-2.6-1-2.6-3.1c0-2.9,2.6-4.2,5.2-4.2c1.3,0,2.7,0.2,3.9,0.8L659,1328.4z"/>
		<path id="XMLID_991_" class="st3" d="M675.2,1332h-8.9c0,1.7,0.9,2.6,2.6,2.6c0.9,0,1.6-0.3,2-1.1h4.1c-0.3,1.4-1.2,2.4-2.2,3.1
			c-1.1,0.7-2.4,1-3.8,1c-3.9,0-6.9-2.2-6.9-6.3c0-4,2.7-6.3,6.6-6.3c4.1,0,6.5,2.5,6.5,6.6V1332z M671.3,1329.5
			c-0.2-1.1-1.2-1.9-2.4-1.9c-1.2,0-2.2,0.6-2.5,1.9H671.3z"/>
		<path id="XMLID_989_" class="st3" d="M681.3,1337.2h-4.2V1318h4.2V1337.2z"/>
		<path id="XMLID_987_" class="st3" d="M688.3,1337.2h-4.2V1318h4.2V1337.2z"/>
		<path id="XMLID_984_" class="st3" d="M704.1,1337.2h-4.2v-1.3h0c-0.7,1.2-2.2,1.7-3.6,1.7c-3.5,0-6-2.9-6-6.3
			c0-3.4,2.4-6.3,5.9-6.3c1.4,0,2.8,0.5,3.7,1.6v-1.2h4.2V1337.2z M694.6,1331.3c0,1.5,1,2.7,2.7,2.7c1.7,0,2.7-1.2,2.7-2.7
			c0-1.5-1-2.7-2.7-2.7C695.6,1328.6,694.6,1329.8,694.6,1331.3z"/>
		<path id="XMLID_982_" class="st3" d="M713.1,1325.3h4.9l3.2,6.1l3.1-6.1h4.8l-9.5,17.8h-4.7l4.1-7.5L713.1,1325.3z"/>
		<path id="XMLID_978_" class="st3" d="M742.4,1337.2h-4.2v-8.4h-1.5v-3.5h1.5v-1.5c0-1.6,0-2.8,1.2-4.2c1-1.2,2.5-1.9,4.1-1.9
			c0.6,0,1.2,0.1,1.8,0.4v3.6c-0.5-0.2-0.9-0.4-1.5-0.4c-1.1,0-1.5,0.6-1.5,2v1.9h2.9v3.5h-2.9V1337.2z M751.1,1320.8
			c0,1.3-1.1,2.4-2.4,2.4c-1.3,0-2.4-1.1-2.4-2.4c0-1.3,1.1-2.4,2.4-2.4C750,1318.4,751.1,1319.5,751.1,1320.8z M750.8,1337.2h-4.2
			v-11.9h4.2V1337.2z"/>
		<path id="XMLID_976_" class="st3" d="M757.8,1327.3L757.8,1327.3c0.9-1.5,2.2-2.1,3.9-2.1h0.8v4.1c-0.6-0.3-1.1-0.4-1.8-0.4
			c-2.3,0-2.9,1.6-2.9,3.6v4.8h-4.2v-11.9h4.2V1327.3z"/>
		<path id="XMLID_974_" class="st3" d="M768.3,1326.8L768.3,1326.8c1-1.3,2.3-1.9,3.8-1.9c1.7,0,3.2,0.7,4.1,2.3
			c0.8-1.5,2.4-2.3,4-2.3c3,0,4.1,2,4.1,4.7v7.6H780v-5.7c0-1.2,0-3.2-1.7-3.2c-1.9,0-2,1.8-2,3.2v5.7h-4.2v-5.7
			c0-1.3,0-3.3-1.9-3.3s-1.9,2-1.9,3.3v5.7h-4.2v-11.9h4.2V1326.8z"/>
		<path id="XMLID_971_" class="st3" d="M800,1337.2h-4.2v-1.3h0c-0.7,1.2-2.2,1.7-3.6,1.7c-3.5,0-6-2.9-6-6.3c0-3.4,2.4-6.3,5.9-6.3
			c1.4,0,2.8,0.5,3.7,1.6v-1.2h4.2V1337.2z M790.5,1331.3c0,1.5,1,2.7,2.7,2.7c1.7,0,2.7-1.2,2.7-2.7c0-1.5-1-2.7-2.7-2.7
			C791.5,1328.6,790.5,1329.8,790.5,1331.3z"/>
	</g>
</g>
<polygon id="XMLID_6231_" class="st4" points="555,74.4 540.3,82.9 525.5,91.4 525.5,74.4 525.5,57.3 540.3,65.9 "/>
<polygon id="XMLID_6230_" class="st4" points="722.4,207.8 713.9,193 705.3,178.3 722.4,178.3 739.4,178.3 730.9,193 "/>
<polygon id="XMLID_6228_" class="st4" points="722.4,412.3 713.9,397.5 705.3,382.7 722.4,382.7 739.4,382.7 730.9,397.5 "/>
<polygon id="XMLID_6226_" class="st4" points="722.4,616.7 713.9,602 705.3,587.2 722.4,587.2 739.4,587.2 730.9,602 "/>
<polygon id="XMLID_1615_" class="st4" points="722.4,821.2 713.9,806.4 705.3,791.7 722.4,791.7 739.4,791.7 730.9,806.4 "/>
<polygon id="XMLID_1614_" class="st4" points="722.4,1025.6 713.9,1010.9 705.3,996.1 722.4,996.1 739.4,996.1 730.9,1010.9 "/>
<polygon id="XMLID_1613_" class="st4" points="722.4,1230.1 713.9,1215.4 705.3,1200.6 722.4,1200.6 739.4,1200.6 730.9,1215.4 "/>
<polygon id="XMLID_1097_" class="st4" points="272.7,950.8 264.2,936 255.7,921.3 272.7,921.3 289.7,921.3 281.2,936 "/>
<polygon id="XMLID_1096_" class="st4" points="272.7,1113 281.2,1127.7 289.7,1142.5 272.7,1142.5 255.7,1142.5 264.2,1127.7 "/>
<line id="XMLID_524_" class="st0" x1="272.7" y1="787.8" x2="272.7" y2="946.7"/>
<polyline id="XMLID_466_" class="st0" points="272.7,1127.7 272.7,1314 549.9,1314 "/>
<polyline id="XMLID_67_" class="st0" points="447.8,1032.2 498.3,1032.2 498.3,73.5 549.9,73.5 "/>
</svg>
