<?xml version="1.0" encoding="utf-8"?>
<!-- Generator: Adobe Illustrator 21.0.2, SVG Export Plug-In . SVG Version: 6.00 Build 0)  -->
<svg version="1.1" id="Layer_1" xmlns="http://www.w3.org/2000/svg" xmlns:xlink="http://www.w3.org/1999/xlink" x="0px" y="0px"
	 viewBox="0 0 998.6 1017.7" style="enable-background:new 0 0 998.6 1017.7;" xml:space="preserve">
<style type="text/css">
	.st0{fill:none;stroke:#E42527;stroke-width:4;stroke-miterlimit:10;}
	.st1{fill:#D81117;}
	.st2{fill:#929191;}
	.st3{fill:#9D9D9C;}
	.st4{fill:#FFFFFF;}
	.st5{fill:#E42527;}
</style>
<line id="XMLID_4885_" class="st0" x1="497.1" y1="88.1" x2="497.1" y2="937.8"/>
<rect id="XMLID_4884_" x="98.4" y="409.4" class="st1" width="223.5" height="101.2"/>
<rect id="XMLID_4883_" x="98.4" y="611.3" class="st2" width="223.5" height="101.2"/>
<rect id="XMLID_4882_" x="387" y="-0.6" class="st3" width="223.5" height="101.2"/>
<rect id="XMLID_4881_" x="663.5" y="130.6" class="st3" width="236.5" height="101.2"/>
<g id="XMLID_15822_">
	<g>
		<path id="XMLID_1312_" class="st4" d="M132.9,441.9l2.7-6.8h3.1l-4.8,11.1h-2.2l-4.7-11.1h3.1L132.9,441.9z"/>
		<path id="XMLID_1309_" class="st4" d="M144.5,437.3c0,1.6-1.4,2.4-3,2.4c-1.6,0-3-0.9-3-2.4c0-1.6,1.4-2.4,3-2.4
			C143.1,434.9,144.5,435.7,144.5,437.3z M140.4,437.3c0,0.6,0.5,1,1.1,1c0.6,0,1.1-0.4,1.1-1c0-0.6-0.5-1-1.1-1
			C140.9,436.3,140.4,436.7,140.4,437.3z"/>
		<path id="XMLID_1305_" class="st4" d="M150.6,446.3v-11.1h4.1c2,0,3.3,0.8,3.3,2.9c0,1-0.3,1.8-1.2,2.3v0c1.6,0.2,2.3,1.3,2.3,2.8
			c0,2.3-2,3.1-4,3.1H150.6z M153.5,439.5h0.3c0.8,0,1.6-0.1,1.6-1.1c0-1-0.9-1.1-1.7-1.1h-0.2V439.5z M153.5,444.1h0.4
			c0.9,0,2.3,0,2.3-1.2c0-1.3-1.4-1.2-2.4-1.2h-0.3V444.1z"/>
		<path id="XMLID_1302_" class="st4" d="M165.6,437.3c0,1.6-1.4,2.4-3,2.4c-1.6,0-3-0.9-3-2.4c0-1.6,1.4-2.4,3-2.4
			C164.2,434.9,165.6,435.7,165.6,437.3z M161.5,437.3c0,0.6,0.5,1,1.1,1c0.6,0,1.1-0.4,1.1-1c0-0.6-0.5-1-1.1-1
			C162,436.3,161.5,436.7,161.5,437.3z"/>
		<path id="XMLID_1299_" class="st4" d="M174.5,444.4l-0.8,1.9h-3.1l4.3-11.1h3.2l4.2,11.1h-3.1l-0.7-1.9H174.5z M176.6,438.6
			L176.6,438.6l-1.2,3.5h2.4L176.6,438.6z"/>
		<path id="XMLID_1296_" class="st4" d="M192.5,446.3h-3.6l-2.7-4.3h0v4.3h-2.9v-11.1h4.3c2.2,0,3.9,1,3.9,3.4
			c0,1.5-0.9,2.9-2.4,3.1L192.5,446.3z M186.1,440.2h0.3c0.9,0,2-0.2,2-1.4c0-1.2-1.1-1.4-2-1.4h-0.3V440.2z"/>
		<path id="XMLID_1294_" class="st4" d="M196.2,437.6v1.9h3.3v2.5h-3.3v1.9h3.4v2.5h-6.3v-11.1h6.3v2.5H196.2z"/>
		<path id="XMLID_1291_" class="st4" d="M204.2,444.4l-0.8,1.9h-3.1l4.3-11.1h3.2l4.2,11.1H209l-0.7-1.9H204.2z M206.3,438.6
			L206.3,438.6l-1.2,3.5h2.4L206.3,438.6z"/>
		<path id="XMLID_1289_" class="st4" d="M222.5,446.3h-2.9v-8.7h-2.4v-2.5h7.7v2.5h-2.4V446.3z"/>
		<path id="XMLID_1287_" class="st4" d="M228.8,437.6v1.9h3.3v2.5h-3.3v1.9h3.4v2.5h-6.3v-11.1h6.3v2.5H228.8z"/>
		<path id="XMLID_1285_" class="st4" d="M242,438.9c-0.6-0.8-1.6-1.2-2.5-1.2c-1.8,0-3,1.4-3,3.1c0,1.8,1.2,3,3,3
			c0.9,0,1.9-0.5,2.5-1.2v3.5c-1,0.3-1.7,0.5-2.6,0.5c-1.6,0-3-0.6-4.2-1.6c-1.2-1.1-1.8-2.6-1.8-4.2c0-1.5,0.6-3,1.6-4.1
			c1.1-1.1,2.7-1.8,4.2-1.8c0.9,0,1.8,0.2,2.6,0.6V438.9z"/>
		<path id="XMLID_1283_" class="st4" d="M243.8,435.2h2.9l5.3,6.8h0v-6.8h2.9v11.1H252l-5.3-6.8h0v6.8h-2.9V435.2z"/>
		<path id="XMLID_1281_" class="st4" d="M259.7,446.3h-2.9v-11.1h2.9V446.3z"/>
		<path id="XMLID_1279_" class="st4" d="M269.5,438.9c-0.6-0.8-1.6-1.2-2.5-1.2c-1.8,0-3,1.4-3,3.1c0,1.8,1.2,3,3,3
			c0.9,0,1.9-0.5,2.5-1.2v3.5c-1,0.3-1.7,0.5-2.6,0.5c-1.6,0-3-0.6-4.2-1.6c-1.2-1.1-1.8-2.6-1.8-4.2c0-1.5,0.6-3,1.6-4.1
			c1.1-1.1,2.7-1.8,4.2-1.8c0.9,0,1.8,0.2,2.6,0.6V438.9z"/>
		<path id="XMLID_1276_" class="st4" d="M274.2,444.4l-0.8,1.9h-3.1l4.3-11.1h3.2l4.2,11.1h-3.1l-0.7-1.9H274.2z M276.2,438.6
			L276.2,438.6l-1.2,3.5h2.4L276.2,438.6z"/>
		<path id="XMLID_1274_" class="st4" d="M175.7,452.9h3.5l2.1,3l2.1-3h3.5l-4.1,5.8v5.3h-2.9v-5.3L175.7,452.9z"/>
		<path id="XMLID_1272_" class="st4" d="M195.4,461.6h3.5v2.5h-6.4v-11.1h2.9V461.6z"/>
		<path id="XMLID_1270_" class="st4" d="M202.7,455.3v1.9h3.3v2.5h-3.3v1.9h3.4v2.5h-6.3v-11.1h6.3v2.5H202.7z"/>
		<path id="XMLID_1268_" class="st4" d="M219.1,457.8c0,1.6-0.1,3-1.1,4.4c-1.1,1.5-2.7,2.2-4.6,2.2c-3.5,0-5.9-2.4-5.9-5.9
			c0-3.6,2.5-6,6-6c2.3,0,4.1,1,5,3.1l-2.7,1.2c-0.4-1.1-1.2-1.8-2.4-1.8c-1.9,0-2.9,1.8-2.9,3.5c0,1.7,1,3.5,2.9,3.5
			c1.3,0,2.2-0.6,2.3-1.9h-2.4v-2.3H219.1z"/>
		<path id="XMLID_1265_" class="st4" d="M223.2,462.1l-0.8,1.9h-3.1l4.3-11.1h3.2L231,464h-3.1l-0.7-1.9H223.2z M225.2,456.3
			L225.2,456.3l-1.2,3.5h2.4L225.2,456.3z"/>
		<path id="XMLID_1263_" class="st4" d="M234.8,461.6h3.5v2.5h-6.4v-11.1h2.9V461.6z"/>
		<path id="XMLID_1260_" class="st4" d="M150.3,481.8h-3.6l-2.7-4.3h0v4.3H141v-11.1h4.3c2.2,0,3.9,1,3.9,3.4c0,1.5-0.9,2.9-2.4,3.1
			L150.3,481.8z M143.9,475.6h0.3c0.9,0,2-0.2,2-1.4c0-1.2-1.1-1.4-2-1.4h-0.3V475.6z"/>
		<path id="XMLID_1257_" class="st4" d="M158.8,478.4h-5.7c0,1.1,0.6,1.7,1.7,1.7c0.6,0,1-0.2,1.3-0.7h2.6c-0.2,0.9-0.7,1.5-1.4,2
			c-0.7,0.4-1.6,0.6-2.4,0.6c-2.5,0-4.4-1.4-4.4-4c0-2.5,1.7-4,4.2-4c2.6,0,4.2,1.6,4.2,4.2V478.4z M156.3,476.9
			c-0.1-0.7-0.8-1.2-1.5-1.2c-0.8,0-1.4,0.4-1.6,1.2H156.3z"/>
		<path id="XMLID_1255_" class="st4" d="M163.7,478.1l1.8-3.9h3l-4,7.6h-1.7l-4-7.6h3L163.7,478.1z"/>
		<path id="XMLID_1252_" class="st4" d="M172.1,471.3c0,0.8-0.7,1.5-1.5,1.5c-0.8,0-1.5-0.7-1.5-1.5c0-0.8,0.7-1.5,1.5-1.5
			C171.4,469.8,172.1,470.4,172.1,471.3z M171.9,481.8h-2.7v-7.6h2.7V481.8z"/>
		<path id="XMLID_1250_" class="st4" d="M178.7,476.1c-0.4-0.2-1-0.4-1.4-0.4c-0.3,0-0.8,0.1-0.8,0.5c0,0.5,0.8,0.6,1.2,0.7
			c1.3,0.3,2.2,0.8,2.2,2.2c0,2-1.8,2.8-3.6,2.8c-1.1,0-2.1-0.3-3.1-0.9l1-1.9c0.5,0.4,1.5,0.8,2.1,0.8c0.3,0,0.8-0.2,0.8-0.6
			c0-0.6-0.8-0.6-1.7-0.8c-0.8-0.2-1.7-0.6-1.7-2c0-1.9,1.7-2.7,3.3-2.7c0.9,0,1.7,0.1,2.5,0.5L178.7,476.1z"/>
		<path id="XMLID_1247_" class="st4" d="M184.1,471.3c0,0.8-0.7,1.5-1.5,1.5c-0.8,0-1.5-0.7-1.5-1.5c0-0.8,0.7-1.5,1.5-1.5
			C183.4,469.8,184.1,470.4,184.1,471.3z M183.9,481.8h-2.7v-7.6h2.7V481.8z"/>
		<path id="XMLID_1243_" class="st4" d="M194.3,478c0,2.6-2.1,4-4.6,4c-2.4,0-4.6-1.4-4.6-4c0-2.6,2.1-4,4.6-4
			C192.2,473.9,194.3,475.4,194.3,478z M188,478c0,1,0.6,1.7,1.7,1.7c1.1,0,1.7-0.7,1.7-1.7c0-0.9-0.6-1.7-1.7-1.7
			C188.6,476.3,188,477.1,188,478z M189.4,473.1l-1.2-0.9l2.1-2.5l1.6,1.2L189.4,473.1z"/>
		<path id="XMLID_1241_" class="st4" d="M198.2,475.2L198.2,475.2c0.7-0.9,1.4-1.2,2.5-1.2c2,0,2.9,1.3,2.9,3.1v4.7h-2.7v-3.7
			c0-0.7,0.1-2-1.2-2c-1.1,0-1.4,0.8-1.4,1.8v3.9h-2.7v-7.6h2.7V475.2z"/>
		<path id="XMLID_1238_" class="st4" d="M212.9,475L212.9,475c0.5-0.8,1.4-1.1,2.3-1.1c2.3,0,3.8,1.9,3.8,4.1c0,2.2-1.6,4-3.8,4
			c-0.9,0-1.8-0.3-2.3-1v4.5h-2.7v-11.4h2.7V475z M212.8,478c0,1,0.6,1.7,1.7,1.7c1.1,0,1.7-0.7,1.7-1.7c0-0.9-0.6-1.7-1.7-1.7
			C213.5,476.3,212.8,477.1,212.8,478z"/>
		<path id="XMLID_1039_" class="st4" d="M223.1,475.4L223.1,475.4c0.5-0.9,1.4-1.3,2.5-1.3h0.5v2.6c-0.4-0.2-0.7-0.3-1.1-0.3
			c-1.5,0-1.9,1-1.9,2.3v3.1h-2.7v-7.6h2.7V475.4z"/>
		<path id="XMLID_1036_" class="st4" d="M234.9,478.4h-5.7c0,1.1,0.6,1.7,1.7,1.7c0.6,0,1-0.2,1.3-0.7h2.6c-0.2,0.9-0.7,1.5-1.4,2
			c-0.7,0.4-1.6,0.6-2.4,0.6c-2.5,0-4.4-1.4-4.4-4c0-2.5,1.7-4,4.2-4c2.6,0,4.2,1.6,4.2,4.2V478.4z M232.4,476.9
			c-0.1-0.7-0.8-1.2-1.5-1.2c-0.8,0-1.4,0.4-1.6,1.2H232.4z"/>
		<path id="XMLID_1034_" class="st4" d="M239.8,478.1l1.8-3.9h3l-4,7.6H239l-4-7.6h3L239.8,478.1z"/>
		<path id="XMLID_1031_" class="st4" d="M248.2,471.3c0,0.8-0.7,1.5-1.5,1.5c-0.8,0-1.5-0.7-1.5-1.5c0-0.8,0.7-1.5,1.5-1.5
			C247.5,469.8,248.2,470.4,248.2,471.3z M248,481.8h-2.7v-7.6h2.7V481.8z"/>
		<path id="XMLID_1028_" class="st4" d="M258.1,481.8h-2.7v-0.8h0c-0.5,0.8-1.4,1.1-2.3,1.1c-2.2,0-3.8-1.9-3.8-4s1.6-4,3.8-4
			c0.9,0,1.8,0.3,2.3,1v-0.7h2.7V481.8z M252,478c0,1,0.6,1.7,1.7,1.7s1.7-0.7,1.7-1.7c0-0.9-0.6-1.7-1.7-1.7S252,477.1,252,478z"/>
		<path id="XMLID_1026_" class="st4" d="M263.2,480.3c0,0.9-0.8,1.7-1.7,1.7c-1,0-1.7-0.8-1.7-1.7c0-1,0.8-1.7,1.7-1.7
			C262.5,478.6,263.2,479.4,263.2,480.3z"/>
	</g>
</g>
<g id="XMLID_15787_">
	<g>
		<path id="XMLID_272_" class="st4" d="M134.9,663.6l2.7-6.8h3.1l-4.8,11.1h-2.2l-4.7-11.1h3.1L134.9,663.6z"/>
		<path id="XMLID_270_" class="st4" d="M144.4,659.2v1.9h3.3v2.5h-3.3v1.9h3.4v2.5h-6.3v-11.1h6.3v2.5H144.4z"/>
		<path id="XMLID_268_" class="st4" d="M149.6,656.8h2.9l5.3,6.8h0v-6.8h2.9v11.1h-2.9l-5.3-6.8h0v6.8h-2.9V656.8z"/>
		<path id="XMLID_266_" class="st4" d="M167.1,667.9h-2.9v-8.7h-2.4v-2.5h7.7v2.5h-2.4V667.9z"/>
		<path id="XMLID_263_" class="st4" d="M172.5,666l-0.8,1.9h-3.1l4.3-11.1h3.2l4.2,11.1h-3.1l-0.7-1.9H172.5z M174.5,660.2
			L174.5,660.2l-1.2,3.5h2.4L174.5,660.2z"/>
		<path id="XMLID_261_" class="st4" d="M181.2,656.8h2.9l5.3,6.8h0v-6.8h2.9v11.1h-2.9l-5.3-6.8h0v6.8h-2.9V656.8z"/>
		<path id="XMLID_259_" class="st4" d="M197.1,667.9h-2.9v-11.1h2.9V667.9z"/>
		<path id="XMLID_257_" class="st4" d="M201.9,665.5h3.5v2.5H199v-11.1h2.9V665.5z"/>
		<path id="XMLID_255_" class="st4" d="M209.2,665.5h3.5v2.5h-6.4v-11.1h2.9V665.5z"/>
		<path id="XMLID_252_" class="st4" d="M216.4,666l-0.8,1.9h-3.1l4.3-11.1h3.2l4.2,11.1h-3.1l-0.7-1.9H216.4z M218.5,660.2
			L218.5,660.2l-1.2,3.5h2.4L218.5,660.2z"/>
		<path id="XMLID_249_" class="st4" d="M239.9,656.8v6.3c0,1.4-0.1,2.9-1.2,3.9c-0.9,0.9-2.4,1.2-3.7,1.2c-1.3,0-2.8-0.3-3.7-1.2
			c-1.1-1.1-1.2-2.5-1.2-3.9v-6.3h2.9v5.9c0,1.4,0.1,3,2,3c1.9,0,2-1.6,2-3v-5.9H239.9z M234.6,656.1l-1.2-0.9l2.1-2.5l1.6,1.2
			L234.6,656.1z"/>
		<path id="XMLID_247_" class="st4" d="M241.7,656.8h2.9l5.3,6.8h0v-6.8h2.9v11.1h-2.9l-5.3-6.8h0v6.8h-2.9V656.8z"/>
		<path id="XMLID_245_" class="st4" d="M257.6,667.9h-2.9v-11.1h2.9V667.9z"/>
		<path id="XMLID_243_" class="st4" d="M267.5,660.5c-0.6-0.8-1.6-1.2-2.5-1.2c-1.8,0-3,1.4-3,3.1c0,1.8,1.2,3,3,3
			c0.9,0,1.9-0.5,2.5-1.2v3.5c-1,0.3-1.7,0.5-2.6,0.5c-1.6,0-3-0.6-4.2-1.6c-1.2-1.1-1.8-2.6-1.8-4.2c0-1.5,0.6-3,1.6-4.1
			c1.1-1.1,2.7-1.8,4.2-1.8c0.9,0,1.8,0.2,2.6,0.6V660.5z"/>
		<path id="XMLID_240_" class="st4" d="M272.1,666l-0.8,1.9h-3.1l4.3-11.1h3.2l4.2,11.1h-3.1l-0.7-1.9H272.1z M274.1,660.2
			L274.1,660.2l-1.2,3.5h2.4L274.1,660.2z"/>
	</g>
</g>
<g id="XMLID_15693_">
	<g>
		<path id="XMLID_1234_" class="st4" d="M410.2,48l-0.8,1.9h-3.1l4.3-11.1h3.2L418,50h-3.1l-0.7-1.9H410.2z M412.2,42.3L412.2,42.3
			l-1.2,3.5h2.4L412.2,42.3z"/>
		<path id="XMLID_1230_" class="st4" d="M418.9,50V38.8h4.1c2,0,3.3,0.8,3.3,2.9c0,1-0.3,1.8-1.2,2.3v0c1.6,0.2,2.3,1.3,2.3,2.8
			c0,2.3-2,3.1-4,3.1H418.9z M421.8,43.2h0.3c0.8,0,1.6-0.1,1.6-1.1c0-1-0.9-1.1-1.7-1.1h-0.2V43.2z M421.8,47.8h0.4
			c0.9,0,2.3,0,2.3-1.2c0-1.3-1.4-1.2-2.4-1.2h-0.3V47.8z"/>
		<path id="XMLID_1227_" class="st4" d="M440.7,44.2c0,3.6-2.6,6.1-6.2,6.1s-6.2-2.5-6.2-6.1c0-3.4,3-5.7,6.2-5.7
			S440.7,40.8,440.7,44.2z M431.4,44.2c0,1.9,1.4,3.3,3.1,3.3c1.7,0,3.1-1.4,3.1-3.3c0-1.5-1.4-2.9-3.1-2.9
			C432.8,41.3,431.4,42.7,431.4,44.2z"/>
		<path id="XMLID_1225_" class="st4" d="M453.1,43.8c0,1.6-0.1,3-1.1,4.4c-1.1,1.5-2.7,2.2-4.6,2.2c-3.5,0-5.9-2.4-5.9-5.9
			c0-3.6,2.5-6,6-6c2.3,0,4.1,1,5,3.1l-2.7,1.2c-0.4-1.1-1.2-1.8-2.4-1.8c-1.9,0-2.9,1.8-2.9,3.5c0,1.7,1,3.5,2.9,3.5
			c1.3,0,2.2-0.6,2.3-1.9h-2.4v-2.3H453.1z"/>
		<path id="XMLID_1222_" class="st4" d="M457.3,48l-0.8,1.9h-3.1l4.3-11.1h3.2l4.2,11.1H462l-0.7-1.9H457.3z M459.3,42.3L459.3,42.3
			l-1.2,3.5h2.4L459.3,42.3z"/>
		<path id="XMLID_1219_" class="st4" d="M466,38.8h4.1c3.1,0,5.7,2.4,5.7,5.6c0,3.1-2.6,5.6-5.7,5.6H466V38.8z M468.9,47.5h0.6
			c1.7,0,3.2-0.9,3.2-3.1c0-2-1.3-3.1-3.2-3.1h-0.7V47.5z"/>
		<path id="XMLID_1216_" class="st4" d="M488.9,44.2c0,3.6-2.6,6.1-6.2,6.1c-3.6,0-6.2-2.5-6.2-6.1c0-3.4,3-5.7,6.2-5.7
			C485.9,38.5,488.9,40.8,488.9,44.2z M479.6,44.2c0,1.9,1.4,3.3,3.1,3.3c1.7,0,3.1-1.4,3.1-3.3c0-1.5-1.4-2.9-3.1-2.9
			C481,41.3,479.6,42.7,479.6,44.2z"/>
		<path id="XMLID_1214_" class="st4" d="M504.9,38.8v6.3c0,1.4-0.1,2.9-1.2,3.9c-0.9,0.9-2.4,1.2-3.7,1.2s-2.8-0.3-3.7-1.2
			c-1.1-1.1-1.2-2.5-1.2-3.9v-6.3h2.9v5.9c0,1.4,0.1,3,2,3c1.9,0,2-1.6,2-3v-5.9H504.9z"/>
		<path id="XMLID_1211_" class="st4" d="M516,50h-3.6l-2.7-4.3h0V50h-2.9V38.8h4.3c2.2,0,3.9,1,3.9,3.4c0,1.5-0.9,2.9-2.4,3.1
			L516,50z M509.7,43.8h0.3c0.9,0,2-0.2,2-1.4c0-1.2-1.1-1.4-2-1.4h-0.3V43.8z"/>
		<path id="XMLID_1207_" class="st4" d="M516.8,50V38.8h4.1c2,0,3.3,0.8,3.3,2.9c0,1-0.3,1.8-1.2,2.3v0c1.6,0.2,2.3,1.3,2.3,2.8
			c0,2.3-2,3.1-4,3.1H516.8z M519.7,43.2h0.3c0.8,0,1.6-0.1,1.6-1.1c0-1-0.9-1.1-1.7-1.1h-0.2V43.2z M519.7,47.8h0.4
			c0.9,0,2.3,0,2.3-1.2c0-1.3-1.4-1.2-2.4-1.2h-0.3V47.8z"/>
		<path id="XMLID_1100_" class="st4" d="M529.7,48l-0.8,1.9h-3.1l4.3-11.1h3.2l4.2,11.1h-3.1l-0.7-1.9H529.7z M531.7,42.3
			L531.7,42.3l-1.2,3.5h2.4L531.7,42.3z"/>
		<path id="XMLID_1098_" class="st4" d="M538.4,38.8h2.9l5.3,6.8h0v-6.8h2.9V50h-2.9l-5.3-6.8h0V50h-2.9V38.8z"/>
		<path id="XMLID_1096_" class="st4" d="M554.3,50h-2.9V38.8h2.9V50z"/>
		<path id="XMLID_1094_" class="st4" d="M562.3,41.7c-0.5-0.4-1.2-0.7-1.9-0.7c-0.5,0-1.2,0.3-1.2,0.9c0,0.6,0.8,0.9,1.3,1.1
			l0.7,0.2c1.6,0.5,2.7,1.2,2.7,3c0,1.1-0.3,2.2-1.2,3c-0.9,0.7-2,1-3.2,1c-1.4,0-2.8-0.5-3.9-1.3l1.2-2.3c0.7,0.6,1.6,1.2,2.6,1.2
			c0.7,0,1.4-0.3,1.4-1.1c0-0.8-1.1-1.1-1.8-1.3c-1.8-0.5-3-1-3-3.1c0-2.3,1.6-3.7,3.8-3.7c1.1,0,2.5,0.4,3.5,0.9L562.3,41.7z"/>
		<path id="XMLID_1092_" class="st4" d="M566.5,38.8h2.9l2.3,6l2.4-6h2.9l1.7,11.1h-2.9l-0.8-6.4h0l-2.7,6.4H571l-2.6-6.4h0
			l-0.9,6.4h-2.9L566.5,38.8z"/>
		<path id="XMLID_1089_" class="st4" d="M591.5,44.2c0,3.6-2.6,6.1-6.2,6.1s-6.2-2.5-6.2-6.1c0-3.4,3-5.7,6.2-5.7
			S591.5,40.8,591.5,44.2z M582.2,44.2c0,1.9,1.4,3.3,3.1,3.3c1.7,0,3.1-1.4,3.1-3.3c0-1.5-1.4-2.9-3.1-2.9
			C583.7,41.3,582.2,42.7,582.2,44.2z"/>
		<path id="XMLID_1087_" class="st4" d="M420.7,63.3l2.7-6.8h3.1l-4.8,11.1h-2.2l-4.7-11.1h3.1L420.7,63.3z"/>
		<path id="XMLID_1084_" class="st4" d="M433.9,64.4h-5.7c0,1.1,0.6,1.7,1.7,1.7c0.6,0,1-0.2,1.3-0.7h2.6c-0.2,0.9-0.7,1.5-1.4,2
			c-0.7,0.4-1.6,0.6-2.4,0.6c-2.5,0-4.4-1.4-4.4-4c0-2.5,1.7-4,4.2-4c2.6,0,4.2,1.6,4.2,4.2V64.4z M431.4,62.8
			c-0.1-0.7-0.8-1.2-1.5-1.2c-0.8,0-1.4,0.4-1.6,1.2H431.4z"/>
		<path id="XMLID_1082_" class="st4" d="M437.8,61.4L437.8,61.4c0.5-0.9,1.4-1.3,2.5-1.3h0.5v2.6c-0.4-0.2-0.7-0.3-1.1-0.3
			c-1.5,0-1.9,1-1.9,2.3v3.1h-2.7v-7.6h2.7V61.4z"/>
		<path id="XMLID_1079_" class="st4" d="M444.7,57.2c0,0.8-0.7,1.5-1.5,1.5c-0.8,0-1.5-0.7-1.5-1.5c0-0.8,0.7-1.5,1.5-1.5
			C444,55.7,444.7,56.4,444.7,57.2z M444.5,67.7h-2.7v-7.6h2.7V67.7z"/>
		<path id="XMLID_1075_" class="st4" d="M449.1,67.7h-2.7v-5.4h-0.9v-2.2h0.9v-1c0-1,0-1.8,0.8-2.7c0.7-0.8,1.6-1.2,2.6-1.2
			c0.4,0,0.8,0.1,1.2,0.3v2.3c-0.3-0.1-0.6-0.3-0.9-0.3c-0.7,0-0.9,0.4-0.9,1.3v1.2h1.9v2.2h-1.9V67.7z M454.7,57.2
			c0,0.8-0.7,1.5-1.5,1.5c-0.8,0-1.5-0.7-1.5-1.5c0-0.8,0.7-1.5,1.5-1.5C454,55.7,454.7,56.4,454.7,57.2z M454.5,67.7h-2.7v-7.6h2.7
			V67.7z"/>
		<path id="XMLID_1073_" class="st4" d="M461.8,62.6c-0.4-0.3-0.9-0.5-1.4-0.5c-1,0-1.8,0.8-1.8,1.8c0,1.1,0.8,1.9,1.9,1.9
			c0.5,0,1-0.2,1.3-0.5v2.3c-0.6,0.3-1.2,0.4-1.9,0.4c-2.2,0-4.1-1.7-4.1-4c0-2.4,1.9-4.1,4.2-4.1c0.6,0,1.2,0.1,1.8,0.4V62.6z"/>
		<path id="XMLID_1070_" class="st4" d="M471.7,67.7H469v-0.8h0c-0.5,0.8-1.4,1.1-2.3,1.1c-2.2,0-3.8-1.9-3.8-4c0-2.2,1.6-4,3.8-4
			c0.9,0,1.8,0.3,2.3,1v-0.7h2.7V67.7z M465.7,63.9c0,1,0.6,1.7,1.7,1.7c1.1,0,1.7-0.7,1.7-1.7c0-0.9-0.6-1.7-1.7-1.7
			C466.3,62.2,465.7,63,465.7,63.9z"/>
		<path id="XMLID_1068_" class="st4" d="M479,62.6c-0.4-0.3-0.9-0.5-1.4-0.5c-1,0-1.8,0.8-1.8,1.8c0,1.1,0.8,1.9,1.9,1.9
			c0.5,0,1-0.2,1.3-0.5v2.3c-0.6,0.3-1.2,0.4-1.9,0.4c-2.2,0-4.1-1.7-4.1-4c0-2.4,1.9-4.1,4.2-4.1c0.6,0,1.2,0.1,1.8,0.4V62.6z"/>
		<path id="XMLID_1065_" class="st4" d="M483.5,57.2c0,0.8-0.7,1.5-1.5,1.5c-0.8,0-1.5-0.7-1.5-1.5c0-0.8,0.7-1.5,1.5-1.5
			C482.8,55.7,483.5,56.4,483.5,57.2z M483.3,67.7h-2.7v-7.6h2.7V67.7z"/>
		<path id="XMLID_1061_" class="st4" d="M493.7,63.9c0,2.6-2.1,4-4.6,4c-2.4,0-4.6-1.4-4.6-4s2.1-4,4.6-4
			C491.6,59.9,493.7,61.3,493.7,63.9z M487.4,63.9c0,1,0.6,1.7,1.7,1.7c1.1,0,1.7-0.7,1.7-1.7c0-0.9-0.6-1.7-1.7-1.7
			C488,62.2,487.4,63,487.4,63.9z M488.8,59l-1.2-0.9l2.1-2.5l1.6,1.2L488.8,59z"/>
		<path id="XMLID_1059_" class="st4" d="M497.6,61.1L497.6,61.1c0.7-0.9,1.4-1.2,2.5-1.2c2,0,2.9,1.3,2.9,3.1v4.7h-2.7V64
			c0-0.7,0.1-2-1.2-2c-1.1,0-1.4,0.8-1.4,1.8v3.9h-2.7v-7.6h2.7V61.1z"/>
		<path id="XMLID_1056_" class="st4" d="M517.5,64.4h-5.7c0,1.1,0.6,1.7,1.7,1.7c0.6,0,1-0.2,1.3-0.7h2.6c-0.2,0.9-0.7,1.5-1.4,2
			c-0.7,0.4-1.6,0.6-2.4,0.6c-2.5,0-4.4-1.4-4.4-4c0-2.5,1.7-4,4.2-4c2.6,0,4.2,1.6,4.2,4.2V64.4z M515,62.8
			c-0.1-0.7-0.8-1.2-1.5-1.2c-0.8,0-1.4,0.4-1.6,1.2H515z"/>
		<path id="XMLID_1054_" class="st4" d="M526.8,67.7h-2.9V56.6h2.9V67.7z"/>
		<path id="XMLID_1052_" class="st4" d="M531.3,61.1L531.3,61.1c0.7-0.9,1.4-1.2,2.5-1.2c2,0,2.9,1.3,2.9,3.1v4.7h-2.7V64
			c0-0.7,0.1-2-1.2-2c-1.1,0-1.4,0.8-1.4,1.8v3.9h-2.7v-7.6h2.7V61.1z"/>
		<path id="XMLID_1050_" class="st4" d="M541.3,67.7h-2.7v-5.4h-0.9v-2.2h0.9v-1c0-1,0-1.8,0.8-2.7c0.7-0.8,1.6-1.2,2.6-1.2
			c0.4,0,0.8,0.1,1.2,0.3v2.3c-0.3-0.1-0.6-0.3-0.9-0.3c-0.7,0-0.9,0.4-0.9,1.3v1.2h1.9v2.2h-1.9V67.7z"/>
		<path id="XMLID_1047_" class="st4" d="M552.7,63.9c0,2.6-2.1,4-4.6,4c-2.4,0-4.6-1.4-4.6-4s2.1-4,4.6-4
			C550.5,59.9,552.7,61.3,552.7,63.9z M546.4,63.9c0,1,0.6,1.7,1.7,1.7c1.1,0,1.7-0.7,1.7-1.7c0-0.9-0.6-1.7-1.7-1.7
			C547,62.2,546.4,63,546.4,63.9z"/>
		<path id="XMLID_1045_" class="st4" d="M556.6,61.4L556.6,61.4c0.5-0.9,1.4-1.3,2.5-1.3h0.5v2.6c-0.4-0.2-0.7-0.3-1.1-0.3
			c-1.5,0-1.9,1-1.9,2.3v3.1h-2.7v-7.6h2.7V61.4z"/>
		<path id="XMLID_1043_" class="st4" d="M563.3,61.1L563.3,61.1c0.7-0.8,1.4-1.2,2.4-1.2c1.1,0,2,0.4,2.6,1.4
			c0.5-0.9,1.5-1.4,2.6-1.4c1.9,0,2.6,1.3,2.6,3v4.8h-2.7v-3.6c0-0.8,0-2.1-1.1-2.1c-1.2,0-1.3,1.2-1.3,2.1v3.6h-2.7v-3.6
			c0-0.8,0-2.1-1.2-2.1c-1.2,0-1.2,1.3-1.2,2.1v3.6h-2.7v-7.6h2.7V61.1z"/>
		<path id="XMLID_1040_" class="st4" d="M583,64.4h-5.7c0,1.1,0.6,1.7,1.7,1.7c0.6,0,1-0.2,1.3-0.7h2.6c-0.2,0.9-0.7,1.5-1.4,2
			c-0.7,0.4-1.6,0.6-2.4,0.6c-2.5,0-4.4-1.4-4.4-4c0-2.5,1.7-4,4.2-4c2.6,0,4.2,1.6,4.2,4.2V64.4z M580.5,62.8
			c-0.1-0.7-0.8-1.2-1.5-1.2c-0.8,0-1.4,0.4-1.6,1.2H580.5z"/>
	</g>
</g>
<g id="XMLID_15633_">
	<g>
		<path id="XMLID_565_" class="st4" d="M720.3,168.7c-0.6-0.8-1.6-1.2-2.5-1.2c-1.8,0-3,1.4-3,3.1c0,1.8,1.2,3,3,3
			c0.9,0,1.9-0.5,2.5-1.2v3.5c-1,0.3-1.7,0.5-2.6,0.5c-1.6,0-3-0.6-4.2-1.6c-1.2-1.1-1.8-2.6-1.8-4.2c0-1.5,0.6-3,1.6-4.1
			c1.1-1.1,2.7-1.8,4.2-1.8c0.9,0,1.8,0.2,2.6,0.6V168.7z"/>
		<path id="XMLID_562_" class="st4" d="M733.9,170.3c0,3.6-2.6,6.1-6.2,6.1c-3.6,0-6.2-2.5-6.2-6.1c0-3.4,3-5.7,6.2-5.7
			C730.9,164.6,733.9,167,733.9,170.3z M724.6,170.3c0,1.9,1.4,3.3,3.1,3.3c1.7,0,3.1-1.4,3.1-3.3c0-1.5-1.4-2.9-3.1-2.9
			C726,167.4,724.6,168.8,724.6,170.3z"/>
		<path id="XMLID_560_" class="st4" d="M735.2,165h2.9l5.3,6.8h0V165h2.9v11.1h-2.9l-5.3-6.8h0v6.8h-2.9V165z"/>
		<path id="XMLID_558_" class="st4" d="M752.7,176.1h-2.9v-8.7h-2.4V165h7.7v2.5h-2.4V176.1z"/>
		<path id="XMLID_555_" class="st4" d="M765.4,176.1h-3.6l-2.7-4.3h0v4.3h-2.9V165h4.3c2.2,0,3.9,1,3.9,3.4c0,1.5-0.9,2.9-2.4,3.1
			L765.4,176.1z M759,170h0.3c0.9,0,2-0.2,2-1.4c0-1.2-1.1-1.4-2-1.4H759V170z"/>
		<path id="XMLID_553_" class="st4" d="M769.1,176.1h-2.9V165h2.9V176.1z"/>
		<path id="XMLID_549_" class="st4" d="M771,176.1V165h4.1c2,0,3.3,0.8,3.3,2.9c0,1-0.3,1.8-1.2,2.3v0c1.6,0.2,2.3,1.3,2.3,2.8
			c0,2.3-2,3.1-4,3.1H771z M773.8,169.3h0.3c0.8,0,1.6-0.1,1.6-1.1c0-1-0.9-1.1-1.7-1.1h-0.2V169.3z M773.8,173.9h0.4
			c0.9,0,2.3,0,2.3-1.2c0-1.3-1.4-1.2-2.4-1.2h-0.3V173.9z"/>
		<path id="XMLID_547_" class="st4" d="M790.6,165v6.3c0,1.4-0.1,2.9-1.2,3.9c-0.9,0.9-2.4,1.2-3.7,1.2c-1.3,0-2.8-0.3-3.7-1.2
			c-1.1-1.1-1.2-2.5-1.2-3.9V165h2.9v5.9c0,1.4,0.1,3,2,3s2-1.6,2-3V165H790.6z"/>
		<path id="XMLID_545_" class="st4" d="M791.2,165h3.5l2.1,3l2.1-3h3.5l-4.1,5.8v5.3h-2.9v-5.3L791.2,165z"/>
		<path id="XMLID_543_" class="st4" d="M805.9,167.4v1.9h3.3v2.5h-3.3v1.9h3.4v2.5H803V165h6.3v2.5H805.9z"/>
		<path id="XMLID_541_" class="st4" d="M811.1,165h2.9l5.3,6.8h0V165h2.9v11.1h-2.9l-5.3-6.8h0v6.8h-2.9V165z"/>
		<path id="XMLID_539_" class="st4" d="M828.6,176.1h-2.9v-8.7h-2.4V165h7.7v2.5h-2.4V176.1z"/>
		<path id="XMLID_537_" class="st4" d="M834.9,167.4v1.9h3.3v2.5h-3.3v1.9h3.4v2.5H832V165h6.3v2.5H834.9z"/>
		<path id="XMLID_535_" class="st4" d="M735.8,186.4c-0.6-0.8-1.6-1.2-2.5-1.2c-1.8,0-3,1.4-3,3.1c0,1.8,1.2,3,3,3
			c0.9,0,1.9-0.5,2.5-1.2v3.5c-1,0.3-1.7,0.5-2.6,0.5c-1.6,0-3-0.6-4.2-1.6c-1.2-1.1-1.8-2.6-1.8-4.2c0-1.5,0.6-3,1.6-4.1
			c1.1-1.1,2.7-1.8,4.2-1.8c0.9,0,1.8,0.2,2.6,0.6V186.4z"/>
		<path id="XMLID_532_" class="st4" d="M746.1,190.1c0,2.6-2.1,4-4.6,4c-2.4,0-4.6-1.4-4.6-4c0-2.6,2.1-4,4.6-4
			C744,186,746.1,187.5,746.1,190.1z M739.8,190.1c0,1,0.6,1.7,1.7,1.7c1.1,0,1.7-0.7,1.7-1.7c0-0.9-0.6-1.7-1.7-1.7
			C740.5,188.3,739.8,189.1,739.8,190.1z"/>
		<path id="XMLID_530_" class="st4" d="M750,187.5L750,187.5c0.5-0.9,1.4-1.3,2.5-1.3h0.5v2.6c-0.4-0.2-0.7-0.3-1.1-0.3
			c-1.5,0-1.9,1-1.9,2.3v3.1h-2.7v-7.6h2.7V187.5z"/>
		<path id="XMLID_528_" class="st4" d="M756.7,187.5L756.7,187.5c0.5-0.9,1.4-1.3,2.5-1.3h0.5v2.6c-0.4-0.2-0.7-0.3-1.1-0.3
			c-1.5,0-1.9,1-1.9,2.3v3.1H754v-7.6h2.7V187.5z"/>
		<path id="XMLID_497_" class="st4" d="M768.5,190.5h-5.7c0,1.1,0.6,1.7,1.7,1.7c0.6,0,1-0.2,1.3-0.7h2.6c-0.2,0.9-0.7,1.5-1.4,2
			s-1.6,0.6-2.4,0.6c-2.5,0-4.4-1.4-4.4-4c0-2.5,1.7-4,4.2-4c2.6,0,4.2,1.6,4.2,4.2V190.5z M766,188.9c-0.1-0.7-0.8-1.2-1.5-1.2
			c-0.8,0-1.4,0.4-1.6,1.2H766z"/>
		<path id="XMLID_495_" class="st4" d="M775.2,188.7c-0.4-0.3-0.9-0.5-1.4-0.5c-1,0-1.8,0.8-1.8,1.8c0,1.1,0.8,1.9,1.9,1.9
			c0.5,0,1-0.2,1.3-0.5v2.3c-0.6,0.3-1.2,0.4-1.9,0.4c-2.2,0-4.1-1.7-4.1-4c0-2.4,1.9-4.1,4.2-4.1c0.6,0,1.2,0.1,1.8,0.4V188.7z"/>
		<path id="XMLID_493_" class="st4" d="M782.3,188.7c-0.4-0.3-0.9-0.5-1.4-0.5c-1,0-1.8,0.8-1.8,1.8c0,1.1,0.8,1.9,1.9,1.9
			c0.5,0,1-0.2,1.3-0.5v2.3c-0.6,0.3-1.2,0.4-1.9,0.4c-2.2,0-4.1-1.7-4.1-4c0-2.4,1.9-4.1,4.2-4.1c0.6,0,1.2,0.1,1.8,0.4V188.7z"/>
		<path id="XMLID_490_" class="st4" d="M786.9,183.3c0,0.8-0.7,1.5-1.5,1.5c-0.8,0-1.5-0.7-1.5-1.5c0-0.8,0.7-1.5,1.5-1.5
			C786.2,181.8,786.9,182.5,786.9,183.3z M786.7,193.8H784v-7.6h2.7V193.8z"/>
		<path id="XMLID_487_" class="st4" d="M797,190.1c0,2.6-2.1,4-4.6,4c-2.4,0-4.6-1.4-4.6-4c0-2.6,2.1-4,4.6-4
			C794.9,186,797,187.5,797,190.1z M790.7,190.1c0,1,0.6,1.7,1.7,1.7c1.1,0,1.7-0.7,1.7-1.7c0-0.9-0.6-1.7-1.7-1.7
			C791.4,188.3,790.7,189.1,790.7,190.1z"/>
		<path id="XMLID_485_" class="st4" d="M800.9,187.2L800.9,187.2c0.7-0.9,1.4-1.2,2.5-1.2c2,0,2.9,1.3,2.9,3.1v4.7h-2.7v-3.7
			c0-0.7,0.1-2-1.2-2c-1.1,0-1.4,0.8-1.4,1.8v3.9h-2.7v-7.6h2.7V187.2z"/>
		<path id="XMLID_482_" class="st4" d="M815.8,190.5h-5.7c0,1.1,0.6,1.7,1.7,1.7c0.6,0,1-0.2,1.3-0.7h2.6c-0.2,0.9-0.7,1.5-1.4,2
			s-1.6,0.6-2.4,0.6c-2.5,0-4.4-1.4-4.4-4c0-2.5,1.7-4,4.2-4c2.6,0,4.2,1.6,4.2,4.2V190.5z M813.3,188.9c-0.1-0.7-0.8-1.2-1.5-1.2
			c-0.8,0-1.4,0.4-1.6,1.2H813.3z"/>
		<path id="XMLID_480_" class="st4" d="M822,188.2c-0.4-0.2-1-0.4-1.4-0.4c-0.3,0-0.8,0.1-0.8,0.5c0,0.5,0.8,0.6,1.2,0.7
			c1.3,0.3,2.2,0.8,2.2,2.2c0,2-1.8,2.8-3.6,2.8c-1.1,0-2.1-0.3-3.1-0.9l1-1.9c0.5,0.4,1.5,0.8,2.1,0.8c0.3,0,0.8-0.2,0.8-0.6
			c0-0.6-0.8-0.6-1.7-0.8c-0.8-0.2-1.7-0.6-1.7-2c0-1.9,1.7-2.7,3.3-2.7c0.9,0,1.7,0.1,2.5,0.5L822,188.2z"/>
	</g>
</g>
<rect id="XMLID_4868_" x="387" y="130.6" class="st3" width="223.5" height="101.2"/>
<rect id="XMLID_4867_" x="387" y="261.8" class="st3" width="223.5" height="101.2"/>
<g id="XMLID_15520_">
	<g>
		<path id="XMLID_1571_" class="st4" d="M420.8,168.6l-0.8,1.9H417l4.3-11.1h3.2l4.2,11.1h-3.1l-0.7-1.9H420.8z M422.8,162.9
			L422.8,162.9l-1.2,3.5h2.4L422.8,162.9z"/>
		<path id="XMLID_1568_" class="st4" d="M438.8,170.6h-3.6l-2.7-4.3h0v4.3h-2.9v-11.1h4.3c2.2,0,3.9,1,3.9,3.4
			c0,1.5-0.9,2.9-2.4,3.1L438.8,170.6z M432.4,164.4h0.3c0.9,0,2-0.2,2-1.4c0-1.2-1.1-1.4-2-1.4h-0.3V164.4z"/>
		<path id="XMLID_1566_" class="st4" d="M442.4,161.9v1.9h3.3v2.5h-3.3v1.9h3.4v2.5h-6.3v-11.1h6.3v2.5H442.4z"/>
		<path id="XMLID_1563_" class="st4" d="M450.5,168.6l-0.8,1.9h-3.1l4.3-11.1h3.2l4.2,11.1h-3.1l-0.7-1.9H450.5z M452.5,162.9
			L452.5,162.9l-1.2,3.5h2.4L452.5,162.9z"/>
		<path id="XMLID_1561_" class="st4" d="M468.7,170.6h-2.9v-8.7h-2.4v-2.5h7.7v2.5h-2.4V170.6z"/>
		<path id="XMLID_1559_" class="st4" d="M475.1,161.9v1.9h3.3v2.5h-3.3v1.9h3.4v2.5h-6.3v-11.1h6.3v2.5H475.1z"/>
		<path id="XMLID_1557_" class="st4" d="M488.3,163.2c-0.6-0.8-1.6-1.2-2.5-1.2c-1.8,0-3,1.4-3,3.1c0,1.8,1.2,3,3,3
			c0.9,0,1.9-0.5,2.5-1.2v3.5c-1,0.3-1.7,0.5-2.6,0.5c-1.6,0-3-0.6-4.2-1.6c-1.2-1.1-1.8-2.6-1.8-4.2c0-1.5,0.6-3,1.6-4.1
			c1.1-1.1,2.7-1.8,4.2-1.8c0.9,0,1.8,0.2,2.6,0.6V163.2z"/>
		<path id="XMLID_1555_" class="st4" d="M490,159.4h2.9l5.3,6.8h0v-6.8h2.9v11.1h-2.9l-5.3-6.8h0v6.8H490V159.4z"/>
		<path id="XMLID_1553_" class="st4" d="M506,170.6h-2.9v-11.1h2.9V170.6z"/>
		<path id="XMLID_1551_" class="st4" d="M515.8,163.2c-0.6-0.8-1.6-1.2-2.5-1.2c-1.8,0-3,1.4-3,3.1c0,1.8,1.2,3,3,3
			c0.9,0,1.9-0.5,2.5-1.2v3.5c-1,0.3-1.7,0.5-2.6,0.5c-1.6,0-3-0.6-4.2-1.6c-1.2-1.1-1.8-2.6-1.8-4.2c0-1.5,0.6-3,1.6-4.1
			c1.1-1.1,2.7-1.8,4.2-1.8c0.9,0,1.8,0.2,2.6,0.6V163.2z"/>
		<path id="XMLID_1527_" class="st4" d="M529.4,164.8c0,3.6-2.6,6.1-6.2,6.1s-6.2-2.5-6.2-6.1c0-3.4,3-5.7,6.2-5.7
			S529.4,161.4,529.4,164.8z M520,164.8c0,1.9,1.4,3.3,3.1,3.3s3.1-1.4,3.1-3.3c0-1.5-1.4-2.9-3.1-2.9S520,163.3,520,164.8z"/>
		<path id="XMLID_1454_" class="st4" d="M536.8,162.3c-0.5-0.4-1.2-0.7-1.9-0.7c-0.5,0-1.2,0.3-1.2,0.9c0,0.6,0.8,0.9,1.3,1.1
			l0.7,0.2c1.6,0.5,2.7,1.2,2.7,3c0,1.1-0.3,2.2-1.2,3c-0.9,0.7-2,1-3.2,1c-1.4,0-2.8-0.5-3.9-1.3l1.2-2.3c0.7,0.6,1.6,1.2,2.6,1.2
			c0.7,0,1.4-0.3,1.4-1.1c0-0.8-1.1-1.1-1.8-1.3c-1.8-0.5-3-1-3-3.1c0-2.3,1.6-3.7,3.8-3.7c1.1,0,2.5,0.4,3.5,0.9L536.8,162.3z"/>
		<path id="XMLID_1452_" class="st4" d="M547,158.3l-5.6,13.6h-2.1l5.6-13.6H547z"/>
		<path id="XMLID_1449_" class="st4" d="M551.2,168.6l-0.8,1.9h-3.1l4.3-11.1h3.2l4.2,11.1h-3.1l-0.7-1.9H551.2z M553.2,162.9
			L553.2,162.9l-1.2,3.5h2.4L553.2,162.9z"/>
		<path id="XMLID_1446_" class="st4" d="M569.2,170.6h-3.6l-2.7-4.3h0v4.3h-2.9v-11.1h4.3c2.2,0,3.9,1,3.9,3.4
			c0,1.5-0.9,2.9-2.4,3.1L569.2,170.6z M562.8,164.4h0.3c0.9,0,2-0.2,2-1.4c0-1.2-1.1-1.4-2-1.4h-0.3V164.4z"/>
		<path id="XMLID_1443_" class="st4" d="M579.5,171.3l-0.9-1c-0.9,0.5-1.9,0.7-3.1,0.7c-3.6,0-6.2-2.5-6.2-6.1c0-3.4,3-5.7,6.2-5.7
			c3.5,0,6.2,2.3,6.2,6c0,1.5-0.5,2.8-1.4,3.9l1.9,1.9L579.5,171.3z M578.2,166.7c0.3-0.5,0.5-1.1,0.5-1.6c0-1.7-1.4-3.2-3.1-3.2
			c-1.7,0-3.2,1.4-3.2,2.9c0,1.9,1.4,3.3,3.2,3.3c0.3,0,0.6,0,0.9-0.1l-1.8-1.8l2.7-0.3L578.2,166.7z"/>
		<path id="XMLID_1441_" class="st4" d="M429.8,188.3h-2.9v-11.1h2.9V188.3z"/>
		<path id="XMLID_1439_" class="st4" d="M434.3,181.7L434.3,181.7c0.7-0.9,1.4-1.2,2.5-1.2c2,0,2.9,1.3,2.9,3.1v4.7h-2.7v-3.7
			c0-0.7,0.1-2-1.2-2c-1.1,0-1.4,0.8-1.4,1.8v3.9h-2.7v-7.6h2.7V181.7z"/>
		<path id="XMLID_1437_" class="st4" d="M446.4,182.7c-0.4-0.2-1-0.4-1.4-0.4c-0.3,0-0.8,0.1-0.8,0.5c0,0.5,0.8,0.6,1.2,0.7
			c1.3,0.3,2.2,0.8,2.2,2.2c0,2-1.8,2.8-3.6,2.8c-1.1,0-2.1-0.3-3.1-0.9l1-1.9c0.5,0.4,1.5,0.8,2.1,0.8c0.3,0,0.8-0.2,0.8-0.6
			c0-0.6-0.8-0.6-1.7-0.8c-0.8-0.2-1.7-0.6-1.7-2c0-1.9,1.7-2.7,3.3-2.7c0.9,0,1.7,0.1,2.5,0.5L446.4,182.7z"/>
		<path id="XMLID_1414_" class="st4" d="M451.5,181.6L451.5,181.6c0.5-0.8,1.4-1.1,2.3-1.1c2.3,0,3.8,1.9,3.8,4.1c0,2.2-1.6,4-3.8,4
			c-0.9,0-1.8-0.3-2.3-1v4.5h-2.7v-11.4h2.7V181.6z M451.5,184.5c0,1,0.6,1.7,1.7,1.7c1.1,0,1.7-0.7,1.7-1.7c0-0.9-0.6-1.7-1.7-1.7
			C452.1,182.8,451.5,183.6,451.5,184.5z"/>
		<path id="XMLID_1411_" class="st4" d="M466.8,185h-5.7c0,1.1,0.6,1.7,1.7,1.7c0.6,0,1-0.2,1.3-0.7h2.6c-0.2,0.9-0.7,1.5-1.4,2
			c-0.7,0.4-1.6,0.6-2.4,0.6c-2.5,0-4.4-1.4-4.4-4c0-2.5,1.7-4,4.2-4c2.6,0,4.2,1.6,4.2,4.2V185z M464.3,183.4
			c-0.1-0.7-0.8-1.2-1.5-1.2c-0.8,0-1.4,0.4-1.6,1.2H464.3z"/>
		<path id="XMLID_1409_" class="st4" d="M473.5,183.2c-0.4-0.3-0.9-0.5-1.4-0.5c-1,0-1.8,0.8-1.8,1.8c0,1.1,0.8,1.9,1.9,1.9
			c0.5,0,1-0.2,1.3-0.5v2.3c-0.6,0.3-1.2,0.4-1.9,0.4c-2.2,0-4.1-1.7-4.1-4c0-2.4,1.9-4.1,4.2-4.1c0.6,0,1.2,0.1,1.8,0.4V183.2z"/>
		<path id="XMLID_1407_" class="st4" d="M480.6,183.2c-0.4-0.3-0.9-0.5-1.4-0.5c-1,0-1.8,0.8-1.8,1.8c0,1.1,0.8,1.9,1.9,1.9
			c0.5,0,1-0.2,1.3-0.5v2.3c-0.6,0.3-1.2,0.4-1.9,0.4c-2.2,0-4.1-1.7-4.1-4c0-2.4,1.9-4.1,4.2-4.1c0.6,0,1.2,0.1,1.8,0.4V183.2z"/>
		<path id="XMLID_1404_" class="st4" d="M485.2,177.8c0,0.8-0.7,1.5-1.5,1.5c-0.8,0-1.5-0.7-1.5-1.5c0-0.8,0.7-1.5,1.5-1.5
			C484.5,176.3,485.2,177,485.2,177.8z M485,188.3h-2.7v-7.6h2.7V188.3z"/>
		<path id="XMLID_1400_" class="st4" d="M495.3,184.5c0,2.6-2.1,4-4.6,4c-2.4,0-4.6-1.4-4.6-4c0-2.6,2.1-4,4.6-4
			C493.2,180.5,495.3,181.9,495.3,184.5z M489,184.5c0,1,0.6,1.7,1.7,1.7c1.1,0,1.7-0.7,1.7-1.7c0-0.9-0.6-1.7-1.7-1.7
			C489.7,182.8,489,183.6,489,184.5z M490.5,179.6l-1.2-0.9l2.1-2.5l1.6,1.2L490.5,179.6z"/>
		<path id="XMLID_1398_" class="st4" d="M499.2,181.7L499.2,181.7c0.7-0.9,1.4-1.2,2.5-1.2c2,0,2.9,1.3,2.9,3.1v4.7h-2.7v-3.7
			c0-0.7,0.1-2-1.2-2c-1.1,0-1.4,0.8-1.4,1.8v3.9h-2.7v-7.6h2.7V181.7z"/>
		<path id="XMLID_1396_" class="st4" d="M514.1,188.3h-2.7V176h2.7V188.3z"/>
		<path id="XMLID_1394_" class="st4" d="M518.5,188.3h-2.7V176h2.7V188.3z"/>
		<path id="XMLID_1391_" class="st4" d="M528.1,185h-5.7c0,1.1,0.6,1.7,1.7,1.7c0.6,0,1-0.2,1.3-0.7h2.6c-0.2,0.9-0.7,1.5-1.4,2
			c-0.7,0.4-1.6,0.6-2.4,0.6c-2.5,0-4.4-1.4-4.4-4c0-2.5,1.7-4,4.2-4c2.6,0,4.2,1.6,4.2,4.2V185z M525.6,183.4
			c-0.1-0.7-0.8-1.2-1.5-1.2c-0.8,0-1.4,0.4-1.6,1.2H525.6z"/>
		<path id="XMLID_1389_" class="st4" d="M532,181.7L532,181.7c0.7-0.9,1.4-1.2,2.5-1.2c2,0,2.9,1.3,2.9,3.1v4.7h-2.7v-3.7
			c0-0.7,0.1-2-1.2-2c-1.1,0-1.4,0.8-1.4,1.8v3.9h-2.7v-7.6h2.7V181.7z"/>
		<path id="XMLID_1386_" class="st4" d="M547.4,188.3h-2.7v-0.8h0c-0.5,0.8-1.4,1.1-2.3,1.1c-2.2,0-3.8-1.9-3.8-4c0-2.2,1.6-4,3.8-4
			c0.9,0,1.8,0.3,2.3,1v-0.7h2.7V188.3z M541.3,184.5c0,1,0.6,1.7,1.7,1.7c1.1,0,1.7-0.7,1.7-1.7c0-0.9-0.6-1.7-1.7-1.7
			C542,182.8,541.3,183.6,541.3,184.5z"/>
		<path id="XMLID_1383_" class="st4" d="M554.9,187.5L554.9,187.5c-0.5,0.8-1.4,1.1-2.3,1.1c-2.2,0-3.8-1.9-3.8-4c0-2.2,1.6-4,3.8-4
			c0.9,0,1.8,0.3,2.3,1V176h2.7v12.3h-2.7V187.5z M551.5,184.5c0,1,0.6,1.7,1.7,1.7c1.1,0,1.7-0.7,1.7-1.7c0-0.9-0.6-1.7-1.7-1.7
			C552.1,182.8,551.5,183.6,551.5,184.5z"/>
		<path id="XMLID_1380_" class="st4" d="M567.8,184.5c0,2.6-2.1,4-4.6,4c-2.4,0-4.6-1.4-4.6-4c0-2.6,2.1-4,4.6-4
			C565.7,180.5,567.8,181.9,567.8,184.5z M561.5,184.5c0,1,0.6,1.7,1.7,1.7c1.1,0,1.7-0.7,1.7-1.7c0-0.9-0.6-1.7-1.7-1.7
			C562.1,182.8,561.5,183.6,561.5,184.5z"/>
		<path id="XMLID_1377_" class="st4" d="M453.1,205.2L453.1,205.2c-0.5,0.8-1.4,1.1-2.3,1.1c-2.2,0-3.8-1.9-3.8-4c0-2.2,1.6-4,3.8-4
			c0.9,0,1.8,0.3,2.3,1v-5.4h2.7V206h-2.7V205.2z M449.7,202.2c0,1,0.6,1.7,1.7,1.7c1.1,0,1.7-0.7,1.7-1.7c0-0.9-0.6-1.7-1.7-1.7
			C450.3,200.5,449.7,201.3,449.7,202.2z"/>
		<path id="XMLID_1374_" class="st4" d="M465.2,202.7h-5.7c0,1.1,0.6,1.7,1.7,1.7c0.6,0,1-0.2,1.3-0.7h2.6c-0.2,0.9-0.7,1.5-1.4,2
			c-0.7,0.4-1.6,0.6-2.4,0.6c-2.5,0-4.4-1.4-4.4-4c0-2.5,1.7-4,4.2-4c2.6,0,4.2,1.6,4.2,4.2V202.7z M462.7,201.1
			c-0.1-0.7-0.8-1.2-1.5-1.2c-0.8,0-1.4,0.4-1.6,1.2H462.7z"/>
		<path id="XMLID_1372_" class="st4" d="M474.5,206h-2.7v-5.4h-0.9v-2.2h0.9v-1c0-1,0-1.8,0.8-2.7c0.7-0.8,1.6-1.2,2.6-1.2
			c0.4,0,0.8,0.1,1.2,0.3v2.3c-0.3-0.1-0.6-0.3-0.9-0.3c-0.7,0-0.9,0.4-0.9,1.3v1.2h1.9v2.2h-1.9V206z"/>
		<path id="XMLID_1369_" class="st4" d="M485.8,202.2c0,2.6-2.1,4-4.6,4c-2.4,0-4.6-1.4-4.6-4c0-2.6,2.1-4,4.6-4
			C483.7,198.2,485.8,199.7,485.8,202.2z M479.5,202.2c0,1,0.6,1.7,1.7,1.7c1.1,0,1.7-0.7,1.7-1.7c0-0.9-0.6-1.7-1.7-1.7
			C480.2,200.5,479.5,201.3,479.5,202.2z"/>
		<path id="XMLID_1367_" class="st4" d="M489.7,199.7L489.7,199.7c0.5-0.9,1.4-1.3,2.5-1.3h0.5v2.6c-0.4-0.2-0.7-0.3-1.1-0.3
			c-1.5,0-1.9,1-1.9,2.3v3.1H487v-7.6h2.7V199.7z"/>
		<path id="XMLID_1365_" class="st4" d="M496.4,199.4L496.4,199.4c0.7-0.8,1.4-1.2,2.4-1.2c1.1,0,2,0.4,2.6,1.4
			c0.5-0.9,1.5-1.4,2.6-1.4c1.9,0,2.6,1.3,2.6,3v4.8h-2.7v-3.6c0-0.8,0-2.1-1.1-2.1c-1.2,0-1.3,1.2-1.3,2.1v3.6h-2.7v-3.6
			c0-0.8,0-2.1-1.2-2.1c-1.2,0-1.2,1.3-1.2,2.1v3.6h-2.7v-7.6h2.7V199.4z"/>
		<path id="XMLID_1363_" class="st4" d="M511,198.4v4c0,1,0.2,1.6,1.3,1.6c1.1,0,1.3-0.7,1.3-1.6v-4h2.7v4.6c0,2.5-1.8,3.3-4,3.3
			c-2.3,0-4-0.8-4-3.3v-4.6H511z"/>
		<path id="XMLID_1361_" class="st4" d="M520.8,206h-2.7v-12.3h2.7V206z"/>
		<path id="XMLID_1358_" class="st4" d="M530.8,206h-2.7v-0.8h0c-0.5,0.8-1.4,1.1-2.3,1.1c-2.2,0-3.8-1.9-3.8-4c0-2.2,1.6-4,3.8-4
			c0.9,0,1.8,0.3,2.3,1v-0.7h2.7V206z M524.8,202.2c0,1,0.6,1.7,1.7,1.7c1.1,0,1.7-0.7,1.7-1.7c0-0.9-0.6-1.7-1.7-1.7
			C525.4,200.5,524.8,201.3,524.8,202.2z"/>
		<path id="XMLID_1356_" class="st4" d="M535.3,199.7L535.3,199.7c0.5-0.9,1.4-1.3,2.5-1.3h0.5v2.6c-0.4-0.2-0.7-0.3-1.1-0.3
			c-1.5,0-1.9,1-1.9,2.3v3.1h-2.7v-7.6h2.7V199.7z"/>
		<path id="XMLID_1353_" class="st4" d="M542.2,195.5c0,0.8-0.7,1.5-1.5,1.5c-0.8,0-1.5-0.7-1.5-1.5c0-0.8,0.7-1.5,1.5-1.5
			C541.5,194,542.2,194.7,542.2,195.5z M542,206h-2.7v-7.6h2.7V206z"/>
		<path id="XMLID_1350_" class="st4" d="M552.3,202.2c0,2.6-2.1,4-4.6,4c-2.4,0-4.6-1.4-4.6-4c0-2.6,2.1-4,4.6-4
			C550.2,198.2,552.3,199.7,552.3,202.2z M546,202.2c0,1,0.6,1.7,1.7,1.7c1.1,0,1.7-0.7,1.7-1.7c0-0.9-0.6-1.7-1.7-1.7
			C546.7,200.5,546,201.3,546,202.2z"/>
	</g>
</g>
<g id="XMLID_15444_">
	<g>
		<path id="XMLID_761_" class="st4" d="M446.9,293.2c-0.5-0.4-1.2-0.7-1.9-0.7c-0.5,0-1.2,0.3-1.2,0.9c0,0.6,0.8,0.9,1.3,1.1
			l0.7,0.2c1.6,0.5,2.7,1.2,2.7,3c0,1.1-0.3,2.2-1.2,3c-0.9,0.7-2,1-3.2,1c-1.4,0-2.8-0.5-3.9-1.3l1.2-2.3c0.7,0.6,1.6,1.2,2.6,1.2
			c0.7,0,1.4-0.3,1.4-1.1c0-0.8-1.1-1.1-1.8-1.3c-1.8-0.5-3-1-3-3.1c0-2.3,1.6-3.7,3.8-3.7c1.1,0,2.5,0.4,3.5,0.9L446.9,293.2z"/>
		<path id="XMLID_759_" class="st4" d="M452.8,292.8v1.9h3.3v2.5h-3.3v1.9h3.4v2.5h-6.3v-11.1h6.3v2.5H452.8z"/>
		<path id="XMLID_757_" class="st4" d="M466,294.1c-0.6-0.8-1.6-1.2-2.5-1.2c-1.8,0-3,1.4-3,3.1c0,1.8,1.2,3,3,3
			c0.9,0,1.9-0.5,2.5-1.2v3.5c-1,0.3-1.7,0.5-2.6,0.5c-1.6,0-3-0.6-4.2-1.6c-1.2-1.1-1.8-2.6-1.8-4.2c0-1.5,0.6-3,1.6-4.1
			c1.1-1.1,2.7-1.8,4.2-1.8c0.9,0,1.8,0.2,2.6,0.6V294.1z"/>
		<path id="XMLID_754_" class="st4" d="M477,301.5h-3.6l-2.7-4.3h0v4.3h-2.9v-11.1h4.3c2.2,0,3.9,1,3.9,3.4c0,1.5-0.9,2.9-2.4,3.1
			L477,301.5z M470.7,295.4h0.3c0.9,0,2-0.2,2-1.4c0-1.2-1.1-1.4-2-1.4h-0.3V295.4z"/>
		<path id="XMLID_752_" class="st4" d="M480.7,292.8v1.9h3.3v2.5h-3.3v1.9h3.4v2.5h-6.3v-11.1h6.3v2.5H480.7z"/>
		<path id="XMLID_750_" class="st4" d="M490.4,301.5h-2.9v-8.7h-2.4v-2.5h7.7v2.5h-2.4V301.5z"/>
		<path id="XMLID_747_" class="st4" d="M495.8,299.6l-0.8,1.9h-3.1l4.3-11.1h3.2l4.2,11.1h-3.1l-0.7-1.9H495.8z M497.8,293.8
			L497.8,293.8l-1.2,3.5h2.4L497.8,293.8z"/>
		<path id="XMLID_744_" class="st4" d="M513.7,301.5h-3.6l-2.7-4.3h0v4.3h-2.9v-11.1h4.3c2.2,0,3.9,1,3.9,3.4c0,1.5-0.9,2.9-2.4,3.1
			L513.7,301.5z M507.4,295.4h0.3c0.9,0,2-0.2,2-1.4c0-1.2-1.1-1.4-2-1.4h-0.3V295.4z"/>
		<path id="XMLID_742_" class="st4" d="M517.4,301.5h-2.9v-11.1h2.9V301.5z"/>
		<path id="XMLID_739_" class="st4" d="M522.1,299.6l-0.8,1.9h-3.1l4.3-11.1h3.2l4.2,11.1h-3.1l-0.7-1.9H522.1z M524.2,293.8
			L524.2,293.8l-1.2,3.5h2.4L524.2,293.8z"/>
		<path id="XMLID_736_" class="st4" d="M535.9,290.4h4.1c3.1,0,5.7,2.4,5.7,5.6s-2.6,5.6-5.7,5.6h-4.1V290.4z M538.8,299h0.6
			c1.7,0,3.2-0.9,3.2-3.1c0-2-1.3-3.1-3.2-3.1h-0.7V299z"/>
		<path id="XMLID_732_" class="st4" d="M549.9,292.8v1.9h3.3v2.5h-3.3v1.9h3.4v2.5H547v-11.1h6.3v2.5H549.9z"/>
		<path id="XMLID_730_" class="st4" d="M456.8,311c-0.5-0.4-1.2-0.7-1.9-0.7c-0.5,0-1.2,0.3-1.2,0.9c0,0.6,0.8,0.9,1.3,1.1l0.7,0.2
			c1.6,0.5,2.7,1.2,2.7,3c0,1.1-0.3,2.2-1.2,3c-0.9,0.7-2,1-3.2,1c-1.4,0-2.8-0.5-3.9-1.3l1.2-2.3c0.7,0.6,1.6,1.2,2.6,1.2
			c0.7,0,1.4-0.3,1.4-1.1c0-0.8-1.1-1.1-1.8-1.3c-1.8-0.5-3-1-3-3.1c0-2.3,1.6-3.7,3.8-3.7c1.1,0,2.5,0.4,3.5,0.9L456.8,311z"/>
		<path id="XMLID_728_" class="st4" d="M462.7,310.5v1.9h3.3v2.5h-3.3v1.9h3.4v2.5h-6.3v-11.1h6.3v2.5H462.7z"/>
		<path id="XMLID_725_" class="st4" d="M477.2,319.2h-3.6l-2.7-4.3h0v4.3h-2.9v-11.1h4.3c2.2,0,3.9,1,3.9,3.4c0,1.5-0.9,2.9-2.4,3.1
			L477.2,319.2z M470.8,313.1h0.3c0.9,0,2-0.2,2-1.4c0-1.2-1.1-1.4-2-1.4h-0.3V313.1z"/>
		<path id="XMLID_723_" class="st4" d="M482.3,314.9l2.7-6.8h3.1l-4.8,11.1h-2.2l-4.7-11.1h3.1L482.3,314.9z"/>
		<path id="XMLID_721_" class="st4" d="M491.8,319.2h-2.9v-11.1h2.9V319.2z"/>
		<path id="XMLID_719_" class="st4" d="M501.7,311.8c-0.6-0.8-1.6-1.2-2.5-1.2c-1.8,0-3,1.4-3,3.1c0,1.8,1.2,3,3,3
			c0.9,0,1.9-0.5,2.5-1.2v3.5c-1,0.3-1.7,0.5-2.6,0.5c-1.6,0-3-0.6-4.2-1.6c-1.2-1.1-1.8-2.6-1.8-4.2c0-1.5,0.6-3,1.6-4.1
			c1.1-1.1,2.7-1.8,4.2-1.8c0.9,0,1.8,0.2,2.6,0.6V311.8z"/>
		<path id="XMLID_717_" class="st4" d="M506.3,319.2h-2.9v-11.1h2.9V319.2z"/>
		<path id="XMLID_714_" class="st4" d="M520,313.5c0,3.6-2.6,6.1-6.2,6.1s-6.2-2.5-6.2-6.1c0-3.4,3-5.7,6.2-5.7S520,310.1,520,313.5
			z M510.7,313.5c0,1.9,1.4,3.3,3.1,3.3c1.7,0,3.1-1.4,3.1-3.3c0-1.5-1.4-2.9-3.1-2.9C512.1,310.5,510.7,311.9,510.7,313.5z"/>
		<path id="XMLID_711_" class="st4" d="M529.2,317.3l-0.8,1.9h-3.1l4.3-11.1h3.2l4.2,11.1H534l-0.7-1.9H529.2z M531.3,311.5
			L531.3,311.5l-1.2,3.5h2.4L531.3,311.5z"/>
		<path id="XMLID_709_" class="st4" d="M540.8,316.8h3.5v2.5h-6.4v-11.1h2.9V316.8z"/>
		<path id="XMLID_707_" class="st4" d="M459.7,329.6c-0.6-0.8-1.6-1.2-2.5-1.2c-1.8,0-3,1.4-3,3.1c0,1.8,1.2,3,3,3
			c0.9,0,1.9-0.5,2.5-1.2v3.5c-1,0.3-1.7,0.5-2.6,0.5c-1.6,0-3-0.6-4.2-1.6c-1.2-1.1-1.8-2.6-1.8-4.2c0-1.5,0.6-3,1.6-4.1
			c1.1-1.1,2.7-1.8,4.2-1.8c0.9,0,1.8,0.2,2.6,0.6V329.6z"/>
		<path id="XMLID_705_" class="st4" d="M464.4,337h-2.9v-11.1h2.9V337z"/>
		<path id="XMLID_703_" class="st4" d="M476,325.8v6.3c0,1.4-0.1,2.9-1.2,3.9c-0.9,0.9-2.4,1.2-3.7,1.2c-1.3,0-2.8-0.3-3.7-1.2
			c-1.1-1.1-1.2-2.5-1.2-3.9v-6.3h2.9v5.9c0,1.4,0.1,3,2,3c1.9,0,2-1.6,2-3v-5.9H476z"/>
		<path id="XMLID_700_" class="st4" d="M477.8,325.8h4.1c3.1,0,5.7,2.4,5.7,5.6s-2.6,5.6-5.7,5.6h-4.1V325.8z M480.7,334.5h0.6
			c1.7,0,3.2-0.9,3.2-3.1c0-2-1.3-3.1-3.2-3.1h-0.7V334.5z"/>
		<path id="XMLID_697_" class="st4" d="M491.8,335L491,337h-3.1l4.3-11.1h3.2l4.2,11.1h-3.1l-0.7-1.9H491.8z M493.8,329.3
			L493.8,329.3l-1.2,3.5h2.4L493.8,329.3z"/>
		<path id="XMLID_694_" class="st4" d="M500.5,325.8h4.1c3.1,0,5.7,2.4,5.7,5.6s-2.6,5.6-5.7,5.6h-4.1V325.8z M503.4,334.5h0.7
			c1.7,0,3.2-0.9,3.2-3.1c0-2-1.3-3.1-3.2-3.1h-0.7V334.5z"/>
		<path id="XMLID_691_" class="st4" d="M514.4,335l-0.8,1.9h-3.1l4.3-11.1h3.2l4.2,11.1h-3.1l-0.7-1.9H514.4z M516.4,329.3
			L516.4,329.3l-1.2,3.5h2.4L516.4,329.3z"/>
		<path id="XMLID_689_" class="st4" d="M523.1,325.8h2.9l5.3,6.8h0v-6.8h2.9V337h-2.9l-5.3-6.8h0v6.8h-2.9V325.8z"/>
		<path id="XMLID_686_" class="st4" d="M547.9,331.2c0,3.6-2.6,6.1-6.2,6.1s-6.2-2.5-6.2-6.1c0-3.4,3-5.7,6.2-5.7
			S547.9,327.8,547.9,331.2z M538.6,331.2c0,1.9,1.4,3.3,3.1,3.3c1.7,0,3.1-1.4,3.1-3.3c0-1.5-1.4-2.9-3.1-2.9
			C540,328.3,538.6,329.7,538.6,331.2z"/>
	</g>
</g>
<rect id="XMLID_4822_" x="387" y="393" class="st3" width="223.5" height="101.2"/>
<g id="XMLID_15341_">
	<g>
		<path id="XMLID_1204_" class="st4" d="M418.6,420.7h4.1c3.1,0,5.7,2.4,5.7,5.6c0,3.1-2.6,5.6-5.7,5.6h-4.1V420.7z M421.5,429.4
			h0.7c1.7,0,3.2-0.9,3.2-3.1c0-2-1.3-3.1-3.2-3.1h-0.7V429.4z"/>
		<path id="XMLID_1202_" class="st4" d="M432.6,431.9h-2.9v-11.1h2.9V431.9z"/>
		<path id="XMLID_1199_" class="st4" d="M443.8,431.9h-3.6l-2.7-4.3h0v4.3h-2.9v-11.1h4.3c2.2,0,3.9,1,3.9,3.4
			c0,1.5-0.9,2.9-2.4,3.1L443.8,431.9z M437.4,425.7h0.3c0.9,0,2-0.2,2-1.4c0-1.2-1.1-1.4-2-1.4h-0.3V425.7z"/>
		<path id="XMLID_1197_" class="st4" d="M447.9,430.4c0,0.9-0.8,1.7-1.7,1.7c-1,0-1.7-0.8-1.7-1.7c0-1,0.8-1.7,1.7-1.7
			C447.1,428.7,447.9,429.5,447.9,430.4z"/>
		<path id="XMLID_1194_" class="st4" d="M454.7,420.7h4.1c3.1,0,5.7,2.4,5.7,5.6c0,3.1-2.6,5.6-5.7,5.6h-4.1V420.7z M457.6,429.4
			h0.7c1.7,0,3.2-0.9,3.2-3.1c0-2-1.3-3.1-3.2-3.1h-0.7V429.4z"/>
		<path id="XMLID_1192_" class="st4" d="M468.7,423.2v1.9h3.3v2.5h-3.3v1.9h3.4v2.5h-6.3v-11.1h6.3v2.5H468.7z"/>
		<path id="XMLID_1190_" class="st4" d="M488.6,420.7v6.3c0,1.4-0.1,2.9-1.2,3.9c-0.9,0.9-2.4,1.2-3.7,1.2c-1.3,0-2.8-0.3-3.7-1.2
			c-1.1-1.1-1.2-2.5-1.2-3.9v-6.3h2.9v5.9c0,1.4,0.1,3,2,3c1.9,0,2-1.6,2-3v-5.9H488.6z"/>
		<path id="XMLID_1187_" class="st4" d="M499.7,431.9h-3.6l-2.7-4.3h0v4.3h-2.9v-11.1h4.3c2.2,0,3.9,1,3.9,3.4
			c0,1.5-0.9,2.9-2.4,3.1L499.7,431.9z M493.4,425.7h0.3c0.9,0,2-0.2,2-1.4c0-1.2-1.1-1.4-2-1.4h-0.3V425.7z"/>
		<path id="XMLID_1183_" class="st4" d="M500.5,431.9v-11.1h4.1c2,0,3.3,0.8,3.3,2.9c0,1-0.3,1.8-1.2,2.3v0c1.6,0.2,2.3,1.3,2.3,2.8
			c0,2.3-2,3.1-4,3.1H500.5z M503.4,425.1h0.3c0.8,0,1.6-0.1,1.6-1.1c0-1-0.9-1.1-1.7-1.1h-0.2V425.1z M503.4,429.7h0.4
			c0.9,0,2.3,0,2.3-1.2c0-1.3-1.4-1.2-2.4-1.2h-0.3V429.7z"/>
		<path id="XMLID_1178_" class="st4" d="M513.4,429.9l-0.8,1.9h-3.1l4.3-11.1h3.2l4.2,11.1h-3.1l-0.7-1.9H513.4z M515.4,424.2
			L515.4,424.2l-1.2,3.5h2.4L515.4,424.2z"/>
		<path id="XMLID_1176_" class="st4" d="M522.1,420.7h2.9l5.3,6.8h0v-6.8h2.9v11.1h-2.9L525,425h0v6.8h-2.9V420.7z"/>
		<path id="XMLID_1174_" class="st4" d="M538,431.9h-2.9v-11.1h2.9V431.9z"/>
		<path id="XMLID_1172_" class="st4" d="M546,423.6c-0.5-0.4-1.2-0.7-1.9-0.7c-0.5,0-1.2,0.3-1.2,0.9c0,0.6,0.8,0.9,1.3,1.1l0.7,0.2
			c1.6,0.5,2.7,1.2,2.7,3c0,1.1-0.3,2.2-1.2,3c-0.9,0.7-2,1-3.2,1c-1.4,0-2.8-0.5-3.9-1.3l1.2-2.3c0.7,0.6,1.6,1.2,2.6,1.2
			c0.7,0,1.4-0.3,1.4-1.1c0-0.8-1.1-1.1-1.8-1.3c-1.8-0.5-3-1-3-3.1c0-2.3,1.6-3.7,3.8-3.7c1.1,0,2.5,0.4,3.5,0.9L546,423.6z"/>
		<path id="XMLID_1170_" class="st4" d="M550.2,420.7h2.9l2.3,6l2.4-6h2.9l1.7,11.1h-2.9l-0.8-6.4h0l-2.7,6.4h-1.2l-2.6-6.4h0
			l-0.9,6.4h-2.9L550.2,420.7z"/>
		<path id="XMLID_1167_" class="st4" d="M575.3,426.1c0,3.6-2.6,6.1-6.2,6.1c-3.6,0-6.2-2.5-6.2-6.1c0-3.4,3-5.7,6.2-5.7
			C572.3,420.4,575.3,422.7,575.3,426.1z M565.9,426.1c0,1.9,1.4,3.3,3.1,3.3c1.7,0,3.1-1.4,3.1-3.3c0-1.5-1.4-2.9-3.1-2.9
			C567.4,423.2,565.9,424.6,565.9,426.1z"/>
		<path id="XMLID_1165_" class="st4" d="M429.7,443.8v2.2h-4.2v-2.2H429.7z"/>
		<path id="XMLID_1163_" class="st4" d="M442.5,443.4c0,1.6-0.1,3-1.1,4.4c-1.1,1.5-2.7,2.2-4.6,2.2c-3.5,0-5.9-2.4-5.9-5.9
			c0-3.6,2.5-6,6-6c2.3,0,4.1,1,5,3.1l-2.7,1.2c-0.4-1.1-1.2-1.8-2.4-1.8c-1.9,0-2.9,1.8-2.9,3.5c0,1.7,1,3.5,2.9,3.5
			c1.3,0,2.2-0.6,2.3-1.9h-2.4v-2.3H442.5z"/>
		<path id="XMLID_1161_" class="st4" d="M446.7,440.9v1.9h3.3v2.5h-3.3v1.9h3.4v2.5h-6.3v-11.1h6.3v2.5H446.7z"/>
		<path id="XMLID_1159_" class="st4" d="M458.1,441.3c-0.5-0.4-1.2-0.7-1.9-0.7c-0.5,0-1.2,0.3-1.2,0.9c0,0.6,0.8,0.9,1.3,1.1
			l0.7,0.2c1.6,0.5,2.7,1.2,2.7,3c0,1.1-0.3,2.2-1.2,3c-0.9,0.7-2,1-3.2,1c-1.4,0-2.8-0.5-3.9-1.3l1.2-2.3c0.7,0.6,1.6,1.2,2.6,1.2
			c0.7,0,1.4-0.3,1.4-1.1c0-0.8-1.1-1.1-1.8-1.3c-1.8-0.5-3-1-3-3.1c0-2.3,1.6-3.7,3.8-3.7c1.1,0,2.5,0.4,3.5,0.9L458.1,441.3z"/>
		<path id="XMLID_1157_" class="st4" d="M465.5,449.6h-2.9v-8.7h-2.4v-2.5h7.7v2.5h-2.4V449.6z"/>
		<path id="XMLID_1155_" class="st4" d="M471.8,449.6h-2.9v-11.1h2.9V449.6z"/>
		<path id="XMLID_1152_" class="st4" d="M485.5,443.8c0,3.6-2.6,6.1-6.2,6.1s-6.2-2.5-6.2-6.1c0-3.4,3-5.7,6.2-5.7
			S485.5,440.5,485.5,443.8z M476.2,443.8c0,1.9,1.4,3.3,3.1,3.3s3.1-1.4,3.1-3.3c0-1.5-1.4-2.9-3.1-2.9S476.2,442.3,476.2,443.8z"
			/>
		<path id="XMLID_1149_" class="st4" d="M496.1,449.6h-3.6l-2.7-4.3h0v4.3h-2.9v-11.1h4.3c2.2,0,3.9,1,3.9,3.4
			c0,1.5-0.9,2.9-2.4,3.1L496.1,449.6z M489.7,443.5h0.3c0.9,0,2-0.2,2-1.4c0-1.2-1.1-1.4-2-1.4h-0.3V443.5z"/>
		<path id="XMLID_1147_" class="st4" d="M511.6,438.5v6.3c0,1.4-0.1,2.9-1.2,3.9c-0.9,0.9-2.4,1.2-3.7,1.2s-2.8-0.3-3.7-1.2
			c-1.1-1.1-1.2-2.5-1.2-3.9v-6.3h2.9v5.9c0,1.4,0.1,3,2,3c1.9,0,2-1.6,2-3v-5.9H511.6z"/>
		<path id="XMLID_1144_" class="st4" d="M522.7,449.6h-3.6l-2.7-4.3h0v4.3h-2.9v-11.1h4.3c2.2,0,3.9,1,3.9,3.4
			c0,1.5-0.9,2.9-2.4,3.1L522.7,449.6z M516.3,443.5h0.3c0.9,0,2-0.2,2-1.4c0-1.2-1.1-1.4-2-1.4h-0.3V443.5z"/>
		<path id="XMLID_1140_" class="st4" d="M523.5,449.6v-11.1h4.1c2,0,3.3,0.8,3.3,2.9c0,1-0.3,1.8-1.2,2.3v0c1.6,0.2,2.3,1.3,2.3,2.8
			c0,2.3-2,3.1-4,3.1H523.5z M526.4,442.8h0.3c0.8,0,1.6-0.1,1.6-1.1c0-1-0.9-1.1-1.7-1.1h-0.2V442.8z M526.4,447.4h0.4
			c0.9,0,2.3,0,2.3-1.2c0-1.3-1.4-1.2-2.4-1.2h-0.3V447.4z"/>
		<path id="XMLID_1137_" class="st4" d="M536.3,447.7l-0.8,1.9h-3.1l4.3-11.1h3.2l4.2,11.1H541l-0.7-1.9H536.3z M538.4,441.9
			L538.4,441.9l-1.2,3.5h2.4L538.4,441.9z"/>
		<path id="XMLID_1135_" class="st4" d="M545,438.5h2.9l5.3,6.8h0v-6.8h2.9v11.1h-2.9l-5.3-6.8h0v6.8H545V438.5z"/>
		<path id="XMLID_1132_" class="st4" d="M560.9,447.7l-0.8,1.9H557l4.3-11.1h3.2l4.2,11.1h-3.1l-0.7-1.9H560.9z M562.9,441.9
			L562.9,441.9l-1.2,3.5h2.4L562.9,441.9z"/>
		<path id="XMLID_1130_" class="st4" d="M443.3,456.2h3.5l2.1,3l2.1-3h3.5l-4.1,5.8v5.3h-2.9V462L443.3,456.2z"/>
		<path id="XMLID_1128_" class="st4" d="M464.6,467.3h-2.9v-8.7h-2.4v-2.5h7.7v2.5h-2.4V467.3z"/>
		<path id="XMLID_1126_" class="st4" d="M470.9,458.6v1.9h3.3v2.5h-3.3v1.9h3.4v2.5H468v-11.1h6.3v2.5H470.9z"/>
		<path id="XMLID_1123_" class="st4" d="M485.4,467.3h-3.6l-2.7-4.3h0v4.3h-2.9v-11.1h4.3c2.2,0,3.9,1,3.9,3.4
			c0,1.5-0.9,2.9-2.4,3.1L485.4,467.3z M479.1,461.2h0.3c0.9,0,2-0.2,2-1.4c0-1.2-1.1-1.4-2-1.4h-0.3V461.2z"/>
		<path id="XMLID_1120_" class="st4" d="M495.5,467.3h-3.6l-2.7-4.3h0v4.3h-2.9v-11.1h4.3c2.2,0,3.9,1,3.9,3.4
			c0,1.5-0.9,2.9-2.4,3.1L495.5,467.3z M489.1,461.2h0.3c0.9,0,2-0.2,2-1.4c0-1.2-1.1-1.4-2-1.4h-0.3V461.2z"/>
		<path id="XMLID_1118_" class="st4" d="M499.2,467.3h-2.9v-11.1h2.9V467.3z"/>
		<path id="XMLID_1116_" class="st4" d="M505.5,467.3h-2.9v-8.7h-2.4v-2.5h7.7v2.5h-2.4V467.3z"/>
		<path id="XMLID_1113_" class="st4" d="M520.7,461.6c0,3.6-2.6,6.1-6.2,6.1s-6.2-2.5-6.2-6.1c0-3.4,3-5.7,6.2-5.7
			S520.7,458.2,520.7,461.6z M511.4,461.6c0,1.9,1.4,3.3,3.1,3.3c1.7,0,3.1-1.4,3.1-3.3c0-1.5-1.4-2.9-3.1-2.9
			C512.8,458.6,511.4,460,511.4,461.6z"/>
		<path id="XMLID_1110_" class="st4" d="M531.3,467.3h-3.6L525,463h0v4.3H522v-11.1h4.3c2.2,0,3.9,1,3.9,3.4c0,1.5-0.9,2.9-2.4,3.1
			L531.3,467.3z M524.9,461.2h0.3c0.9,0,2-0.2,2-1.4c0-1.2-1.1-1.4-2-1.4h-0.3V461.2z"/>
		<path id="XMLID_1108_" class="st4" d="M535,467.3h-2.9v-11.1h2.9V467.3z"/>
		<path id="XMLID_1105_" class="st4" d="M539.7,465.4l-0.8,1.9h-3.1l4.3-11.1h3.2l4.2,11.1h-3.1l-0.7-1.9H539.7z M541.7,459.6
			L541.7,459.6l-1.2,3.5h2.4L541.7,459.6z"/>
		<path id="XMLID_1103_" class="st4" d="M551.3,464.9h3.5v2.5h-6.4v-11.1h2.9V464.9z"/>
	</g>
</g>
<rect id="XMLID_4818_" x="387" y="524.2" class="st3" width="223.5" height="101.2"/>
<g id="XMLID_15254_">
	<g>
		<path id="XMLID_1021_" class="st4" d="M435.6,555.9c-0.6-0.8-1.6-1.2-2.5-1.2c-1.8,0-3,1.4-3,3.1c0,1.8,1.2,3,3,3
			c0.9,0,1.9-0.5,2.5-1.2v3.5c-1,0.3-1.7,0.5-2.6,0.5c-1.6,0-3-0.6-4.2-1.6c-1.2-1.1-1.8-2.6-1.8-4.2c0-1.5,0.6-3,1.6-4.1
			c1.1-1.1,2.7-1.8,4.2-1.8c0.9,0,1.8,0.2,2.6,0.6V555.9z"/>
		<path id="XMLID_1018_" class="st4" d="M440.2,561.3l-0.8,1.9h-3.1l4.3-11.1h3.2l4.2,11.1h-3.1l-0.7-1.9H440.2z M442.2,555.6
			L442.2,555.6l-1.2,3.5h2.4L442.2,555.6z"/>
		<path id="XMLID_1016_" class="st4" d="M454.3,552.1v7.5c0,2.3-1.2,3.9-3.7,3.9c-1.2,0-2.2-0.6-2.9-1.6l1.7-1.8
			c0.3,0.4,0.8,0.9,1.2,0.9c0.9,0,0.8-1,0.8-1.6v-7.3H454.3z"/>
		<path id="XMLID_1013_" class="st4" d="M458.9,561.3l-0.8,1.9h-3.1l4.3-11.1h3.2l4.2,11.1h-3.1l-0.7-1.9H458.9z M461,555.6
			L461,555.6l-1.2,3.5h2.4L461,555.6z"/>
		<path id="XMLID_1011_" class="st4" d="M477.4,558.9l2.7-6.8h3.1l-4.8,11.1h-2.2l-4.7-11.1h3.1L477.4,558.9z"/>
		<path id="XMLID_1009_" class="st4" d="M486.9,554.6v1.9h3.3v2.5h-3.3v1.9h3.4v2.5H484v-11.1h6.3v2.5H486.9z"/>
		<path id="XMLID_1007_" class="st4" d="M492.1,552.1h2.9l5.3,6.8h0v-6.8h2.9v11.1h-2.9l-5.3-6.8h0v6.8h-2.9V552.1z"/>
		<path id="XMLID_1005_" class="st4" d="M509.5,563.3h-2.9v-8.7h-2.4v-2.5h7.7v2.5h-2.4V563.3z"/>
		<path id="XMLID_1002_" class="st4" d="M514.9,561.3l-0.8,1.9h-3.1l4.3-11.1h3.2l4.2,11.1h-3.1l-0.7-1.9H514.9z M517,555.6
			L517,555.6l-1.2,3.5h2.4L517,555.6z"/>
		<path id="XMLID_1000_" class="st4" d="M523.6,552.1h2.9l5.3,6.8h0v-6.8h2.9v11.1h-2.9l-5.3-6.8h0v6.8h-2.9V552.1z"/>
		<path id="XMLID_998_" class="st4" d="M539.5,563.3h-2.9v-11.1h2.9V563.3z"/>
		<path id="XMLID_996_" class="st4" d="M544.3,560.8h3.5v2.5h-6.4v-11.1h2.9V560.8z"/>
		<path id="XMLID_994_" class="st4" d="M551.6,560.8h3.5v2.5h-6.4v-11.1h2.9V560.8z"/>
		<path id="XMLID_991_" class="st4" d="M558.9,561.3l-0.8,1.9h-3.1l4.3-11.1h3.2l4.2,11.1h-3.1l-0.7-1.9H558.9z M560.9,555.6
			L560.9,555.6l-1.2,3.5h2.4L560.9,555.6z"/>
		<path id="XMLID_989_" class="st4" d="M429.2,569.9v6.3c0,1.4-0.1,2.9-1.2,3.9c-0.9,0.9-2.4,1.2-3.7,1.2c-1.3,0-2.8-0.3-3.7-1.2
			c-1.1-1.1-1.2-2.5-1.2-3.9v-6.3h2.9v5.9c0,1.4,0.1,3,2,3c1.9,0,2-1.6,2-3v-5.9H429.2z"/>
		<path id="XMLID_987_" class="st4" d="M431,569.9h2.9l5.3,6.8h0v-6.8h2.9V581h-2.9l-5.3-6.8h0v6.8H431V569.9z"/>
		<path id="XMLID_985_" class="st4" d="M447,581h-2.9v-11.1h2.9V581z"/>
		<path id="XMLID_983_" class="st4" d="M456.8,573.6c-0.6-0.8-1.6-1.2-2.5-1.2c-1.8,0-3,1.4-3,3.1c0,1.8,1.2,3,3,3
			c0.9,0,1.9-0.5,2.5-1.2v3.5c-1,0.3-1.7,0.5-2.6,0.5c-1.6,0-3-0.6-4.2-1.6c-1.2-1.1-1.8-2.6-1.8-4.2c0-1.5,0.6-3,1.6-4.1
			c1.1-1.1,2.7-1.8,4.2-1.8c0.9,0,1.8,0.2,2.6,0.6V573.6z"/>
		<path id="XMLID_980_" class="st4" d="M461.4,579.1l-0.8,1.9h-3.1l4.3-11.1h3.2l4.2,11.1h-3.1l-0.7-1.9H461.4z M463.5,573.3
			L463.5,573.3l-1.2,3.5h2.4L463.5,573.3z"/>
		<path id="XMLID_978_" class="st4" d="M481.3,572.7c-0.5-0.4-1.2-0.7-1.9-0.7c-0.5,0-1.2,0.3-1.2,0.9c0,0.6,0.8,0.9,1.3,1.1
			l0.7,0.2c1.6,0.5,2.7,1.2,2.7,3c0,1.1-0.3,2.2-1.2,3c-0.9,0.7-2,1-3.2,1c-1.4,0-2.8-0.5-3.9-1.3l1.2-2.3c0.7,0.6,1.6,1.2,2.6,1.2
			c0.7,0,1.4-0.3,1.4-1.1c0-0.8-1.1-1.1-1.8-1.3c-1.8-0.5-3-1-3-3.1c0-2.3,1.6-3.7,3.8-3.7c1.1,0,2.5,0.4,3.5,0.9L481.3,572.7z"/>
		<path id="XMLID_976_" class="st4" d="M494,569.9v6.3c0,1.4-0.1,2.9-1.2,3.9c-0.9,0.9-2.4,1.2-3.7,1.2s-2.8-0.3-3.7-1.2
			c-1.1-1.1-1.2-2.5-1.2-3.9v-6.3h2.9v5.9c0,1.4,0.1,3,2,3c1.9,0,2-1.6,2-3v-5.9H494z"/>
		<path id="XMLID_972_" class="st4" d="M495.8,581v-11.1h4.1c2,0,3.3,0.8,3.3,2.9c0,1-0.3,1.8-1.2,2.3v0c1.6,0.2,2.3,1.3,2.3,2.8
			c0,2.3-2,3.1-4,3.1H495.8z M498.7,574.2h0.3c0.8,0,1.6-0.1,1.6-1.1c0-1-0.9-1.1-1.7-1.1h-0.2V574.2z M498.7,578.8h0.4
			c0.9,0,2.3,0,2.3-1.2c0-1.3-1.4-1.2-2.4-1.2h-0.3V578.8z"/>
		<path id="XMLID_969_" class="st4" d="M508.6,579.1l-0.8,1.9h-3.1l4.3-11.1h3.2l4.2,11.1h-3.1l-0.7-1.9H508.6z M510.7,573.3
			L510.7,573.3l-1.2,3.5h2.4L510.7,573.3z"/>
		<path id="XMLID_967_" class="st4" d="M520.2,578.6h3.5v2.5h-6.4v-11.1h2.9V578.6z"/>
		<path id="XMLID_933_" class="st4" d="M532.6,573.6c-0.6-0.8-1.6-1.2-2.5-1.2c-1.8,0-3,1.4-3,3.1c0,1.8,1.2,3,3,3
			c0.9,0,1.9-0.5,2.5-1.2v3.5c-1,0.3-1.7,0.5-2.6,0.5c-1.6,0-3-0.6-4.2-1.6c-1.2-1.1-1.8-2.6-1.8-4.2c0-1.5,0.6-3,1.6-4.1
			c1.1-1.1,2.7-1.8,4.2-1.8c0.9,0,1.8,0.2,2.6,0.6V573.6z"/>
		<path id="XMLID_930_" class="st4" d="M537.3,579.1l-0.8,1.9h-3.1l4.3-11.1h3.2l4.2,11.1H542l-0.7-1.9H537.3z M539.3,573.3
			L539.3,573.3l-1.2,3.5h2.4L539.3,573.3z"/>
		<path id="XMLID_928_" class="st4" d="M548.8,578.6h3.5v2.5H546v-11.1h2.9V578.6z"/>
		<path id="XMLID_925_" class="st4" d="M553.3,569.9h4.1c3.1,0,5.7,2.4,5.7,5.6c0,3.1-2.6,5.6-5.7,5.6h-4.1V569.9z M556.2,578.6h0.6
			c1.7,0,3.2-0.9,3.2-3.1c0-2-1.3-3.1-3.2-3.1h-0.7V578.6z"/>
		<path id="XMLID_923_" class="st4" d="M567.3,581h-2.9v-11.1h2.9V581z"/>
		<path id="XMLID_920_" class="st4" d="M572,579.1l-0.8,1.9h-3.1l4.3-11.1h3.2l4.2,11.1h-3.1l-0.7-1.9H572z M574,573.3L574,573.3
			l-1.2,3.5h2.4L574,573.3z"/>
		<path id="XMLID_918_" class="st4" d="M480.1,591.3c-0.6-0.8-1.6-1.2-2.5-1.2c-1.8,0-3,1.4-3,3.1c0,1.8,1.2,3,3,3
			c0.9,0,1.9-0.5,2.5-1.2v3.5c-1,0.3-1.7,0.5-2.6,0.5c-1.6,0-3-0.6-4.2-1.6c-1.2-1.1-1.8-2.6-1.8-4.2c0-1.5,0.6-3,1.6-4.1
			c1.1-1.1,2.7-1.8,4.2-1.8c0.9,0,1.8,0.2,2.6,0.6V591.3z"/>
		<path id="XMLID_915_" class="st4" d="M493.6,593c0,3.6-2.6,6.1-6.2,6.1c-3.6,0-6.2-2.5-6.2-6.1c0-3.4,3-5.7,6.2-5.7
			C490.7,587.2,493.6,589.6,493.6,593z M484.3,593c0,1.9,1.4,3.3,3.1,3.3c1.7,0,3.1-1.4,3.1-3.3c0-1.5-1.4-2.9-3.1-2.9
			C485.7,590,484.3,591.4,484.3,593z"/>
		<path id="XMLID_911_" class="st4" d="M495,598.7v-11.1h4.1c2,0,3.3,0.8,3.3,2.9c0,1-0.3,1.8-1.2,2.3v0c1.6,0.2,2.3,1.3,2.3,2.8
			c0,2.3-2,3.1-4,3.1H495z M497.9,592h0.3c0.8,0,1.6-0.1,1.6-1.1c0-1-0.9-1.1-1.7-1.1h-0.2V592z M497.9,596.5h0.4
			c0.9,0,2.3,0,2.3-1.2c0-1.3-1.4-1.2-2.4-1.2h-0.3V596.5z"/>
		<path id="XMLID_908_" class="st4" d="M514.2,598.7h-3.6l-2.7-4.3h0v4.3H505v-11.1h4.3c2.2,0,3.9,1,3.9,3.4c0,1.5-0.9,2.9-2.4,3.1
			L514.2,598.7z M507.9,592.6h0.3c0.9,0,2-0.2,2-1.4c0-1.2-1.1-1.4-2-1.4h-0.3V592.6z"/>
		<path id="XMLID_905_" class="st4" d="M526.8,593c0,3.6-2.6,6.1-6.2,6.1s-6.2-2.5-6.2-6.1c0-3.4,3-5.7,6.2-5.7
			S526.8,589.6,526.8,593z M517.5,593c0,1.9,1.4,3.3,3.1,3.3c1.7,0,3.1-1.4,3.1-3.3c0-1.5-1.4-2.9-3.1-2.9
			C518.9,590,517.5,591.4,517.5,593z"/>
	</g>
</g>
<rect id="XMLID_4814_" x="387" y="655.4" class="st3" width="223.5" height="101.2"/>
<rect id="XMLID_4813_" x="387" y="786.6" class="st3" width="223.5" height="101.2"/>
<g id="XMLID_15134_">
	<g>
		<path id="XMLID_1742_" class="st4" d="M420.4,690.5l-0.8,1.9h-3.1l4.3-11.1h3.2l4.2,11.1h-3.1l-0.7-1.9H420.4z M422.4,684.7
			L422.4,684.7l-1.2,3.5h2.4L422.4,684.7z"/>
		<path id="XMLID_1739_" class="st4" d="M438.4,692.4h-3.6l-2.7-4.3h0v4.3h-2.9v-11.1h4.3c2.2,0,3.9,1,3.9,3.4
			c0,1.5-0.9,2.9-2.4,3.1L438.4,692.4z M432,686.3h0.3c0.9,0,2-0.2,2-1.4c0-1.2-1.1-1.4-2-1.4H432V686.3z"/>
		<path id="XMLID_1737_" class="st4" d="M442.1,683.7v1.9h3.3v2.5h-3.3v1.9h3.4v2.5h-6.3v-11.1h6.3v2.5H442.1z"/>
		<path id="XMLID_1734_" class="st4" d="M450.1,690.5l-0.8,1.9h-3.1l4.3-11.1h3.2l4.2,11.1h-3.1l-0.7-1.9H450.1z M452.2,684.7
			L452.2,684.7l-1.2,3.5h2.4L452.2,684.7z"/>
		<path id="XMLID_1732_" class="st4" d="M468.3,692.4h-2.9v-8.7H463v-2.5h7.7v2.5h-2.4V692.4z"/>
		<path id="XMLID_1730_" class="st4" d="M474.7,683.7v1.9h3.3v2.5h-3.3v1.9h3.4v2.5h-6.3v-11.1h6.3v2.5H474.7z"/>
		<path id="XMLID_1728_" class="st4" d="M487.9,685c-0.6-0.8-1.6-1.2-2.5-1.2c-1.8,0-3,1.4-3,3.1c0,1.8,1.2,3,3,3
			c0.9,0,1.9-0.5,2.5-1.2v3.5c-1,0.3-1.7,0.5-2.6,0.5c-1.6,0-3-0.6-4.2-1.6c-1.2-1.1-1.8-2.6-1.8-4.2c0-1.5,0.6-3,1.6-4.1
			c1.1-1.1,2.7-1.8,4.2-1.8c0.9,0,1.8,0.2,2.6,0.6V685z"/>
		<path id="XMLID_1726_" class="st4" d="M489.7,681.3h2.9l5.3,6.8h0v-6.8h2.9v11.1h-2.9l-5.3-6.8h0v6.8h-2.9V681.3z"/>
		<path id="XMLID_1724_" class="st4" d="M505.6,692.4h-2.9v-11.1h2.9V692.4z"/>
		<path id="XMLID_1722_" class="st4" d="M515.4,685c-0.6-0.8-1.6-1.2-2.5-1.2c-1.8,0-3,1.4-3,3.1c0,1.8,1.2,3,3,3
			c0.9,0,1.9-0.5,2.5-1.2v3.5c-1,0.3-1.7,0.5-2.6,0.5c-1.6,0-3-0.6-4.2-1.6c-1.2-1.1-1.8-2.6-1.8-4.2c0-1.5,0.6-3,1.6-4.1
			c1.1-1.1,2.7-1.8,4.2-1.8c0.9,0,1.8,0.2,2.6,0.6V685z"/>
		<path id="XMLID_1719_" class="st4" d="M529,686.6c0,3.6-2.6,6.1-6.2,6.1c-3.6,0-6.2-2.5-6.2-6.1c0-3.4,3-5.7,6.2-5.7
			C526,680.9,529,683.3,529,686.6z M519.7,686.7c0,1.9,1.4,3.3,3.1,3.3s3.1-1.4,3.1-3.3c0-1.5-1.4-2.9-3.1-2.9
			S519.7,685.1,519.7,686.7z"/>
		<path id="XMLID_1717_" class="st4" d="M536.4,684.1c-0.5-0.4-1.2-0.7-1.9-0.7c-0.5,0-1.2,0.3-1.2,0.9c0,0.6,0.8,0.9,1.3,1.1
			l0.7,0.2c1.6,0.5,2.7,1.2,2.7,3c0,1.1-0.3,2.2-1.2,3c-0.9,0.7-2,1-3.2,1c-1.4,0-2.8-0.5-3.9-1.3l1.2-2.3c0.7,0.6,1.6,1.2,2.6,1.2
			c0.7,0,1.4-0.3,1.4-1.1c0-0.8-1.1-1.1-1.8-1.3c-1.8-0.5-3-1-3-3.1c0-2.3,1.6-3.7,3.8-3.7c1.1,0,2.5,0.4,3.5,0.9L536.4,684.1z"/>
		<path id="XMLID_1715_" class="st4" d="M546.6,680.2l-5.6,13.6h-2.1l5.6-13.6H546.6z"/>
		<path id="XMLID_1712_" class="st4" d="M550.8,690.5l-0.8,1.9H547l4.3-11.1h3.2l4.2,11.1h-3.1l-0.7-1.9H550.8z M552.8,684.7
			L552.8,684.7l-1.2,3.5h2.4L552.8,684.7z"/>
		<path id="XMLID_1709_" class="st4" d="M568.8,692.4h-3.6l-2.7-4.3h0v4.3h-2.9v-11.1h4.3c2.2,0,3.9,1,3.9,3.4
			c0,1.5-0.9,2.9-2.4,3.1L568.8,692.4z M562.4,686.3h0.3c0.9,0,2-0.2,2-1.4c0-1.2-1.1-1.4-2-1.4h-0.3V686.3z"/>
		<path id="XMLID_1706_" class="st4" d="M579.1,693.1l-0.9-1c-0.9,0.5-1.9,0.7-3.1,0.7c-3.6,0-6.2-2.5-6.2-6.1c0-3.4,3-5.7,6.2-5.7
			c3.5,0,6.2,2.3,6.2,6c0,1.5-0.5,2.8-1.4,3.9l1.9,1.9L579.1,693.1z M577.8,688.5c0.3-0.5,0.5-1.1,0.5-1.6c0-1.7-1.4-3.2-3.1-3.2
			c-1.7,0-3.2,1.4-3.2,2.9c0,1.9,1.4,3.3,3.2,3.3c0.3,0,0.6,0,0.9-0.1l-1.8-1.8l2.7-0.3L577.8,688.5z"/>
		<path id="XMLID_1704_" class="st4" d="M450.9,705.8l2.7-6.8h3.1l-4.8,11.1h-2.2L445,699h3.1L450.9,705.8z"/>
		<path id="XMLID_1701_" class="st4" d="M464.1,706.8h-5.7c0,1.1,0.6,1.7,1.7,1.7c0.6,0,1-0.2,1.3-0.7h2.6c-0.2,0.9-0.7,1.5-1.4,2
			c-0.7,0.4-1.6,0.6-2.4,0.6c-2.5,0-4.4-1.4-4.4-4c0-2.5,1.7-4,4.2-4c2.6,0,4.2,1.6,4.2,4.2V706.8z M461.6,705.3
			c-0.1-0.7-0.8-1.2-1.5-1.2c-0.8,0-1.4,0.4-1.6,1.2H461.6z"/>
		<path id="XMLID_1699_" class="st4" d="M468,703.8L468,703.8c0.5-0.9,1.4-1.3,2.5-1.3h0.5v2.6c-0.4-0.2-0.7-0.3-1.1-0.3
			c-1.5,0-1.9,1-1.9,2.3v3.1h-2.7v-7.6h2.7V703.8z"/>
		<path id="XMLID_1696_" class="st4" d="M474.8,699.7c0,0.8-0.7,1.5-1.5,1.5c-0.8,0-1.5-0.7-1.5-1.5c0-0.8,0.7-1.5,1.5-1.5
			C474.2,698.2,474.8,698.8,474.8,699.7z M474.7,710.1H472v-7.6h2.7V710.1z"/>
		<path id="XMLID_1692_" class="st4" d="M479.3,710.1h-2.7v-5.4h-0.9v-2.2h0.9v-1c0-1,0-1.8,0.8-2.7c0.7-0.8,1.6-1.2,2.6-1.2
			c0.4,0,0.8,0.1,1.2,0.3v2.3c-0.3-0.1-0.6-0.3-0.9-0.3c-0.7,0-0.9,0.4-0.9,1.3v1.2h1.9v2.2h-1.9V710.1z M484.9,699.7
			c0,0.8-0.7,1.5-1.5,1.5c-0.8,0-1.5-0.7-1.5-1.5c0-0.8,0.7-1.5,1.5-1.5C484.2,698.2,484.9,698.8,484.9,699.7z M484.7,710.1H482
			v-7.6h2.7V710.1z"/>
		<path id="XMLID_1690_" class="st4" d="M492,705c-0.4-0.3-0.9-0.5-1.4-0.5c-1,0-1.8,0.8-1.8,1.8c0,1.1,0.8,1.9,1.9,1.9
			c0.5,0,1-0.2,1.3-0.5v2.3c-0.6,0.3-1.2,0.4-1.9,0.4c-2.2,0-4.1-1.7-4.1-4c0-2.4,1.9-4.1,4.2-4.1c0.6,0,1.2,0.1,1.8,0.4V705z"/>
		<path id="XMLID_1687_" class="st4" d="M501.9,710.1h-2.7v-0.8h0c-0.5,0.8-1.4,1.1-2.3,1.1c-2.2,0-3.8-1.9-3.8-4c0-2.2,1.6-4,3.8-4
			c0.9,0,1.8,0.3,2.3,1v-0.7h2.7V710.1z M495.9,706.4c0,1,0.6,1.7,1.7,1.7c1.1,0,1.7-0.7,1.7-1.7c0-0.9-0.6-1.7-1.7-1.7
			C496.5,704.7,495.9,705.4,495.9,706.4z"/>
		<path id="XMLID_1685_" class="st4" d="M509.2,705c-0.4-0.3-0.9-0.5-1.4-0.5c-1,0-1.8,0.8-1.8,1.8c0,1.1,0.8,1.9,1.9,1.9
			c0.5,0,1-0.2,1.3-0.5v2.3c-0.6,0.3-1.2,0.4-1.9,0.4c-2.2,0-4.1-1.7-4.1-4c0-2.4,1.9-4.1,4.2-4.1c0.6,0,1.2,0.1,1.8,0.4V705z"/>
		<path id="XMLID_1682_" class="st4" d="M513.7,699.7c0,0.8-0.7,1.5-1.5,1.5c-0.8,0-1.5-0.7-1.5-1.5c0-0.8,0.7-1.5,1.5-1.5
			C513,698.2,513.7,698.8,513.7,699.7z M513.5,710.1h-2.7v-7.6h2.7V710.1z"/>
		<path id="XMLID_1678_" class="st4" d="M523.9,706.4c0,2.6-2.1,4-4.6,4c-2.4,0-4.6-1.4-4.6-4s2.1-4,4.6-4
			C521.7,702.3,523.9,703.8,523.9,706.4z M517.6,706.4c0,1,0.6,1.7,1.7,1.7c1.1,0,1.7-0.7,1.7-1.7c0-0.9-0.6-1.7-1.7-1.7
			C518.2,704.7,517.6,705.4,517.6,706.4z M519,701.4l-1.2-0.9l2.1-2.5l1.6,1.2L519,701.4z"/>
		<path id="XMLID_1676_" class="st4" d="M527.8,703.5L527.8,703.5c0.7-0.9,1.4-1.2,2.5-1.2c2,0,2.9,1.3,2.9,3.1v4.7h-2.7v-3.7
			c0-0.7,0.1-2-1.2-2c-1.1,0-1.4,0.8-1.4,1.8v3.9h-2.7v-7.6h2.7V703.5z"/>
		<path id="XMLID_1673_" class="st4" d="M547.7,706.8H542c0,1.1,0.6,1.7,1.7,1.7c0.6,0,1-0.2,1.3-0.7h2.6c-0.2,0.9-0.7,1.5-1.4,2
			c-0.7,0.4-1.6,0.6-2.4,0.6c-2.5,0-4.4-1.4-4.4-4c0-2.5,1.7-4,4.2-4c2.6,0,4.2,1.6,4.2,4.2V706.8z M545.2,705.3
			c-0.1-0.7-0.8-1.2-1.5-1.2c-0.8,0-1.4,0.4-1.6,1.2H545.2z"/>
		<path id="XMLID_1670_" class="st4" d="M415,717.4c0,0.8-0.7,1.5-1.5,1.5c-0.8,0-1.5-0.7-1.5-1.5c0-0.8,0.7-1.5,1.5-1.5
			C414.3,715.9,415,716.6,415,717.4z M414.8,727.9h-2.7v-7.6h2.7V727.9z"/>
		<path id="XMLID_1668_" class="st4" d="M419.3,721.2L419.3,721.2c0.7-0.8,1.4-1.2,2.4-1.2c1.1,0,2,0.4,2.6,1.4
			c0.5-0.9,1.5-1.4,2.6-1.4c1.9,0,2.6,1.3,2.6,3v4.8h-2.7v-3.6c0-0.8,0-2.1-1.1-2.1c-1.2,0-1.3,1.2-1.3,2.1v3.6h-2.7v-3.6
			c0-0.8,0-2.1-1.2-2.1c-1.2,0-1.2,1.3-1.2,2.1v3.6h-2.7v-7.6h2.7V721.2z"/>
		<path id="XMLID_1665_" class="st4" d="M433.8,721.2L433.8,721.2c0.5-0.8,1.4-1.1,2.3-1.1c2.3,0,3.8,1.9,3.8,4.1c0,2.2-1.6,4-3.8,4
			c-0.9,0-1.8-0.3-2.3-1v4.5h-2.7v-11.4h2.7V721.2z M433.7,724.1c0,1,0.6,1.7,1.7,1.7c1.1,0,1.7-0.7,1.7-1.7c0-0.9-0.6-1.7-1.7-1.7
			C434.4,722.4,433.7,723.2,433.7,724.1z"/>
		<path id="XMLID_1663_" class="st4" d="M444,721.5L444,721.5c0.5-0.9,1.4-1.3,2.5-1.3h0.5v2.6c-0.4-0.2-0.7-0.3-1.1-0.3
			c-1.5,0-1.9,1-1.9,2.3v3.1h-2.7v-7.6h2.7V721.5z"/>
		<path id="XMLID_1660_" class="st4" d="M455.8,724.5h-5.7c0,1.1,0.6,1.7,1.7,1.7c0.6,0,1-0.2,1.3-0.7h2.6c-0.2,0.9-0.7,1.5-1.4,2
			c-0.7,0.4-1.6,0.6-2.4,0.6c-2.5,0-4.4-1.4-4.4-4c0-2.5,1.7-4,4.2-4c2.6,0,4.2,1.6,4.2,4.2V724.5z M453.3,723
			c-0.1-0.7-0.8-1.2-1.5-1.2c-0.8,0-1.4,0.4-1.6,1.2H453.3z"/>
		<path id="XMLID_1658_" class="st4" d="M462,722.2c-0.4-0.2-1-0.4-1.4-0.4c-0.3,0-0.8,0.1-0.8,0.5c0,0.5,0.8,0.6,1.2,0.7
			c1.3,0.3,2.2,0.8,2.2,2.2c0,2-1.8,2.8-3.6,2.8c-1.1,0-2.1-0.3-3.1-0.9l1-1.9c0.5,0.4,1.5,0.8,2.1,0.8c0.3,0,0.8-0.2,0.8-0.6
			c0-0.6-0.8-0.6-1.7-0.8c-0.8-0.2-1.7-0.6-1.7-2c0-1.9,1.7-2.7,3.3-2.7c0.9,0,1.7,0.1,2.5,0.5L462,722.2z"/>
		<path id="XMLID_1655_" class="st4" d="M467.4,717.4c0,0.8-0.7,1.5-1.5,1.5c-0.8,0-1.5-0.7-1.5-1.5c0-0.8,0.7-1.5,1.5-1.5
			C466.7,715.9,467.4,716.6,467.4,717.4z M467.3,727.9h-2.7v-7.6h2.7V727.9z"/>
		<path id="XMLID_1651_" class="st4" d="M477.6,724.1c0,2.6-2.1,4-4.6,4c-2.4,0-4.6-1.4-4.6-4c0-2.6,2.1-4,4.6-4
			C475.5,720,477.6,721.5,477.6,724.1z M471.3,724.1c0,1,0.6,1.7,1.7,1.7c1.1,0,1.7-0.7,1.7-1.7c0-0.9-0.6-1.7-1.7-1.7
			C471.9,722.4,471.3,723.2,471.3,724.1z M472.7,719.2l-1.2-0.9l2.1-2.5l1.6,1.2L472.7,719.2z"/>
		<path id="XMLID_1649_" class="st4" d="M481.5,721.3L481.5,721.3c0.7-0.9,1.4-1.2,2.5-1.2c2,0,2.9,1.3,2.9,3.1v4.7h-2.7v-3.7
			c0-0.7,0.1-2-1.2-2c-1.1,0-1.4,0.8-1.4,1.8v3.9h-2.7v-7.6h2.7V721.3z"/>
		<path id="XMLID_1646_" class="st4" d="M499.4,727L499.4,727c-0.5,0.8-1.4,1.1-2.3,1.1c-2.2,0-3.8-1.9-3.8-4s1.6-4,3.8-4
			c0.9,0,1.8,0.3,2.3,1v-5.4h2.7v12.3h-2.7V727z M496,724.1c0,1,0.6,1.7,1.7,1.7c1.1,0,1.7-0.7,1.7-1.7c0-0.9-0.6-1.7-1.7-1.7
			C496.6,722.4,496,723.2,496,724.1z"/>
		<path id="XMLID_1643_" class="st4" d="M511.5,724.5h-5.7c0,1.1,0.6,1.7,1.7,1.7c0.6,0,1-0.2,1.3-0.7h2.6c-0.2,0.9-0.7,1.5-1.4,2
			c-0.7,0.4-1.6,0.6-2.4,0.6c-2.5,0-4.4-1.4-4.4-4c0-2.5,1.7-4,4.2-4c2.6,0,4.2,1.6,4.2,4.2V724.5z M509,723
			c-0.1-0.7-0.8-1.2-1.5-1.2c-0.8,0-1.4,0.4-1.6,1.2H509z"/>
		<path id="XMLID_1639_" class="st4" d="M520.7,717.4c0,0.8-0.7,1.5-1.5,1.5c-0.8,0-1.5-0.7-1.5-1.5c0-0.8,0.7-1.5,1.5-1.5
			C520,715.9,520.7,716.6,520.7,717.4z M520.5,727.9h-2.7v-7.6h2.7V727.9z"/>
		<path id="XMLID_1637_" class="st4" d="M525,721.3L525,721.3c0.7-0.9,1.4-1.2,2.5-1.2c2,0,2.9,1.3,2.9,3.1v4.7h-2.7v-3.7
			c0-0.7,0.1-2-1.2-2c-1.1,0-1.4,0.8-1.4,1.8v3.9h-2.7v-7.6h2.7V721.3z"/>
		<path id="XMLID_1635_" class="st4" d="M535,727.9h-2.7v-5.4h-0.9v-2.2h0.9v-1c0-1,0-1.8,0.8-2.7c0.7-0.8,1.6-1.2,2.6-1.2
			c0.4,0,0.8,0.1,1.2,0.3v2.3c-0.3-0.1-0.6-0.3-0.9-0.3c-0.7,0-0.9,0.4-0.9,1.3v1.2h1.9v2.2H535V727.9z"/>
		<path id="XMLID_1632_" class="st4" d="M546.3,724.1c0,2.6-2.1,4-4.6,4c-2.4,0-4.6-1.4-4.6-4c0-2.6,2.1-4,4.6-4
			C544.2,720,546.3,721.5,546.3,724.1z M540,724.1c0,1,0.6,1.7,1.7,1.7c1.1,0,1.7-0.7,1.7-1.7c0-0.9-0.6-1.7-1.7-1.7
			C540.7,722.4,540,723.2,540,724.1z"/>
		<path id="XMLID_1630_" class="st4" d="M550.2,721.5L550.2,721.5c0.5-0.9,1.4-1.3,2.5-1.3h0.5v2.6c-0.4-0.2-0.7-0.3-1.1-0.3
			c-1.5,0-1.9,1-1.9,2.3v3.1h-2.7v-7.6h2.7V721.5z"/>
		<path id="XMLID_1628_" class="st4" d="M556.9,721.2L556.9,721.2c0.7-0.8,1.4-1.2,2.4-1.2c1.1,0,2,0.4,2.6,1.4
			c0.5-0.9,1.5-1.4,2.6-1.4c1.9,0,2.6,1.3,2.6,3v4.8h-2.7v-3.6c0-0.8,0-2.1-1.1-2.1c-1.2,0-1.3,1.2-1.3,2.1v3.6h-2.7v-3.6
			c0-0.8,0-2.1-1.2-2.1c-1.2,0-1.2,1.3-1.2,2.1v3.6h-2.7v-7.6h2.7V721.2z"/>
		<path id="XMLID_1625_" class="st4" d="M576.6,724.5H571c0,1.1,0.6,1.7,1.7,1.7c0.6,0,1-0.2,1.3-0.7h2.6c-0.2,0.9-0.7,1.5-1.4,2
			c-0.7,0.4-1.6,0.6-2.4,0.6c-2.5,0-4.4-1.4-4.4-4c0-2.5,1.7-4,4.2-4c2.6,0,4.2,1.6,4.2,4.2V724.5z M574.1,723
			c-0.1-0.7-0.8-1.2-1.5-1.2c-0.8,0-1.4,0.4-1.6,1.2H574.1z"/>
	</g>
</g>
<g id="XMLID_15075_">
	<g>
		<path id="XMLID_525_" class="st4" d="M439.1,821.7v7.5c0,2.3-1.2,3.9-3.7,3.9c-1.2,0-2.2-0.6-2.9-1.6l1.7-1.8
			c0.3,0.4,0.8,0.9,1.2,0.9c0.9,0,0.8-1,0.8-1.6v-7.3H439.1z"/>
		<path id="XMLID_523_" class="st4" d="M443.9,824.2v1.9h3.3v2.5h-3.3v1.9h3.4v2.5H441v-11.1h6.3v2.5H443.9z"/>
		<path id="XMLID_521_" class="st4" d="M452,824.2v1.9h3.2v2.5H452v4.4h-2.9v-11.1h6.4v2.5H452z"/>
		<path id="XMLID_519_" class="st4" d="M460,824.2v1.9h3.3v2.5H460v1.9h3.4v2.5h-6.3v-11.1h6.3v2.5H460z"/>
		<path id="XMLID_516_" class="st4" d="M470.3,821.7h4.1c3.1,0,5.7,2.4,5.7,5.6c0,3.1-2.6,5.6-5.7,5.6h-4.1V821.7z M473.2,830.4h0.7
			c1.7,0,3.2-0.9,3.2-3.1c0-2-1.3-3.1-3.2-3.1h-0.7V830.4z"/>
		<path id="XMLID_514_" class="st4" d="M484.3,824.2v1.9h3.3v2.5h-3.3v1.9h3.4v2.5h-6.3v-11.1h6.3v2.5H484.3z"/>
		<path id="XMLID_511_" class="st4" d="M494.6,821.7h4.1c3.1,0,5.7,2.4,5.7,5.6c0,3.1-2.6,5.6-5.7,5.6h-4.1V821.7z M497.5,830.4h0.7
			c1.7,0,3.2-0.9,3.2-3.1c0-2-1.3-3.1-3.2-3.1h-0.7V830.4z"/>
		<path id="XMLID_509_" class="st4" d="M508.6,832.8h-2.9v-11.1h2.9V832.8z"/>
		<path id="XMLID_507_" class="st4" d="M515.2,828.5l2.7-6.8h3.1l-4.8,11.1H514l-4.7-11.1h3.1L515.2,828.5z"/>
		<path id="XMLID_505_" class="st4" d="M524.6,832.8h-2.9v-11.1h2.9V832.8z"/>
		<path id="XMLID_503_" class="st4" d="M532.6,824.6c-0.5-0.4-1.2-0.7-1.9-0.7c-0.5,0-1.2,0.3-1.2,0.9c0,0.6,0.8,0.9,1.3,1.1
			l0.7,0.2c1.6,0.5,2.7,1.2,2.7,3c0,1.1-0.3,2.2-1.2,3c-0.9,0.7-2,1-3.2,1c-1.4,0-2.8-0.5-3.9-1.3l1.2-2.3c0.7,0.6,1.6,1.2,2.6,1.2
			c0.7,0,1.4-0.3,1.4-1.1c0-0.8-1.1-1.1-1.8-1.3c-1.8-0.5-3-1-3-3.1c0-2.3,1.6-3.7,3.8-3.7c1.1,0,2.5,0.4,3.5,0.9L532.6,824.6z"/>
		<path id="XMLID_501_" class="st4" d="M538.5,832.8h-2.9v-11.1h2.9V832.8z"/>
		<path id="XMLID_471_" class="st4" d="M552.2,827.1c0,3.6-2.6,6.1-6.2,6.1s-6.2-2.5-6.2-6.1c0-3.4,3-5.7,6.2-5.7
			S552.2,823.7,552.2,827.1z M542.9,827.1c0,1.9,1.4,3.3,3.1,3.3s3.1-1.4,3.1-3.3c0-1.5-1.4-2.9-3.1-2.9S542.9,825.5,542.9,827.1z
			 M545.7,821l-1.2-0.9l2.1-2.5l1.6,1.2L545.7,821z"/>
		<path id="XMLID_469_" class="st4" d="M553.5,821.7h2.9l5.3,6.8h0v-6.8h2.9v11.1h-2.9l-5.3-6.8h0v6.8h-2.9V821.7z"/>
		<path id="XMLID_467_" class="st4" d="M448.5,841.9v1.9h3.2v2.5h-3.2v4.4h-2.9v-11.1h6.4v2.5H448.5z"/>
		<path id="XMLID_464_" class="st4" d="M456.4,840.1c0,0.8-0.7,1.5-1.5,1.5c-0.8,0-1.5-0.7-1.5-1.5c0-0.8,0.7-1.5,1.5-1.5
			C455.7,838.6,456.4,839.3,456.4,840.1z M456.2,850.6h-2.7V843h2.7V850.6z"/>
		<path id="XMLID_462_" class="st4" d="M460.7,844.2L460.7,844.2c0.5-0.9,1.4-1.3,2.5-1.3h0.5v2.6c-0.4-0.2-0.7-0.3-1.1-0.3
			c-1.5,0-1.9,1-1.9,2.3v3.1H458V843h2.7V844.2z"/>
		<path id="XMLID_460_" class="st4" d="M467.4,843.9L467.4,843.9c0.7-0.8,1.4-1.2,2.4-1.2c1.1,0,2,0.4,2.6,1.4
			c0.5-0.9,1.5-1.4,2.6-1.4c1.9,0,2.6,1.3,2.6,3v4.8h-2.7V847c0-0.8,0-2.1-1.1-2.1c-1.2,0-1.3,1.2-1.3,2.1v3.6h-2.7V847
			c0-0.8,0-2.1-1.2-2.1c-1.2,0-1.2,1.3-1.2,2.1v3.6h-2.7V843h2.7V843.9z"/>
		<path id="XMLID_457_" class="st4" d="M487.6,850.6h-2.7v-0.8h0c-0.5,0.8-1.4,1.1-2.3,1.1c-2.2,0-3.8-1.9-3.8-4c0-2.2,1.6-4,3.8-4
			c0.9,0,1.8,0.3,2.3,1V843h2.7V850.6z M481.5,846.8c0,1,0.6,1.7,1.7,1.7c1.1,0,1.7-0.7,1.7-1.7c0-0.9-0.6-1.7-1.7-1.7
			C482.2,845.1,481.5,845.9,481.5,846.8z"/>
		<path id="XMLID_455_" class="st4" d="M493.3,843h3.1l2,3.9l2-3.9h3.1l-6.1,11.4h-3l2.6-4.8L493.3,843z"/>
		<path id="XMLID_453_" class="st4" d="M514.2,844.9c-0.4-0.2-1-0.4-1.4-0.4c-0.3,0-0.8,0.1-0.8,0.5c0,0.5,0.8,0.6,1.2,0.7
			c1.3,0.3,2.2,0.8,2.2,2.2c0,2-1.8,2.8-3.6,2.8c-1.1,0-2.1-0.3-3.1-0.9l1-1.9c0.5,0.4,1.5,0.8,2.1,0.8c0.3,0,0.8-0.2,0.8-0.6
			c0-0.6-0.8-0.6-1.7-0.8c-0.8-0.2-1.7-0.6-1.7-2c0-1.9,1.7-2.7,3.3-2.7c0.9,0,1.7,0.1,2.5,0.5L514.2,844.9z"/>
		<path id="XMLID_450_" class="st4" d="M524.5,847.2h-5.7c0,1.1,0.6,1.7,1.7,1.7c0.6,0,1-0.2,1.3-0.7h2.6c-0.2,0.9-0.7,1.5-1.4,2
			c-0.7,0.4-1.6,0.6-2.4,0.6c-2.5,0-4.4-1.4-4.4-4c0-2.5,1.7-4,4.2-4c2.6,0,4.2,1.6,4.2,4.2V847.2z M522,845.7
			c-0.1-0.7-0.8-1.2-1.5-1.2c-0.8,0-1.4,0.4-1.6,1.2H522z"/>
		<path id="XMLID_448_" class="st4" d="M528.5,850.6h-2.7v-12.3h2.7V850.6z"/>
		<path id="XMLID_446_" class="st4" d="M532.9,850.6h-2.7v-12.3h2.7V850.6z"/>
		<path id="XMLID_443_" class="st4" d="M543.3,846.8c0,2.6-2.1,4-4.6,4c-2.4,0-4.6-1.4-4.6-4c0-2.6,2.1-4,4.6-4
			C541.1,842.7,543.3,844.2,543.3,846.8z M537,846.8c0,1,0.6,1.7,1.7,1.7c1.1,0,1.7-0.7,1.7-1.7c0-0.9-0.6-1.7-1.7-1.7
			C537.6,845.1,537,845.9,537,846.8z"/>
	</g>
</g>
<rect id="XMLID_2183_" x="387" y="916.5" class="st3" width="223.5" height="101.2"/>
<g id="XMLID_15003_">
	<g>
		<path id="XMLID_883_" class="st4" d="M457.6,954.5c-0.5-0.4-1.2-0.7-1.9-0.7c-0.5,0-1.2,0.3-1.2,0.9c0,0.6,0.8,0.9,1.3,1.1
			l0.7,0.2c1.6,0.5,2.7,1.2,2.7,3c0,1.1-0.3,2.2-1.2,3c-0.9,0.7-2,1-3.2,1c-1.4,0-2.8-0.5-3.9-1.3l1.2-2.3c0.7,0.6,1.6,1.2,2.6,1.2
			c0.7,0,1.4-0.3,1.4-1.1c0-0.8-1.1-1.1-1.8-1.3c-1.8-0.5-3-1-3-3.1c0-2.3,1.6-3.7,3.8-3.7c1.1,0,2.5,0.4,3.5,0.9L457.6,954.5z"/>
		<path id="XMLID_881_" class="st4" d="M470.2,951.7v6.3c0,1.4-0.1,2.9-1.2,3.9c-0.9,0.9-2.4,1.2-3.7,1.2c-1.3,0-2.8-0.3-3.7-1.2
			c-1.1-1.1-1.2-2.5-1.2-3.9v-6.3h2.9v5.9c0,1.4,0.1,3,2,3c1.9,0,2-1.6,2-3v-5.9H470.2z"/>
		<path id="XMLID_877_" class="st4" d="M472.1,962.8v-11.1h4.1c2,0,3.3,0.8,3.3,2.9c0,1-0.3,1.8-1.2,2.3v0c1.6,0.2,2.3,1.3,2.3,2.8
			c0,2.3-2,3.1-4,3.1H472.1z M475,956.1h0.3c0.8,0,1.6-0.1,1.6-1.1c0-1-0.9-1.1-1.7-1.1H475V956.1z M475,960.6h0.4
			c0.9,0,2.3,0,2.3-1.2c0-1.3-1.4-1.2-2.4-1.2H475V960.6z"/>
		<path id="XMLID_874_" class="st4" d="M484.9,960.9l-0.8,1.9h-3.1l4.3-11.1h3.2l4.2,11.1h-3.1l-0.7-1.9H484.9z M486.9,955.1
			L486.9,955.1l-1.2,3.5h2.4L486.9,955.1z"/>
		<path id="XMLID_872_" class="st4" d="M496.5,960.4h3.5v2.5h-6.4v-11.1h2.9V960.4z"/>
		<path id="XMLID_870_" class="st4" d="M508.9,955.4c-0.6-0.8-1.6-1.2-2.5-1.2c-1.8,0-3,1.4-3,3.1c0,1.8,1.2,3,3,3
			c0.9,0,1.9-0.5,2.5-1.2v3.5c-1,0.3-1.7,0.5-2.6,0.5c-1.6,0-3-0.6-4.2-1.6c-1.2-1.1-1.8-2.6-1.8-4.2c0-1.5,0.6-3,1.6-4.1
			c1.1-1.1,2.7-1.8,4.2-1.8c0.9,0,1.8,0.2,2.6,0.6V955.4z"/>
		<path id="XMLID_867_" class="st4" d="M513.5,960.9l-0.8,1.9h-3.1l4.3-11.1h3.2l4.2,11.1h-3.1l-0.7-1.9H513.5z M515.5,955.1
			L515.5,955.1l-1.2,3.5h2.4L515.5,955.1z"/>
		<path id="XMLID_865_" class="st4" d="M525.1,960.4h3.5v2.5h-6.4v-11.1h2.9V960.4z"/>
		<path id="XMLID_862_" class="st4" d="M529.5,951.7h4.1c3.1,0,5.7,2.4,5.7,5.6c0,3.1-2.6,5.6-5.7,5.6h-4.1V951.7z M532.4,960.4h0.6
			c1.7,0,3.2-0.9,3.2-3.1c0-2-1.3-3.1-3.2-3.1h-0.7V960.4z"/>
		<path id="XMLID_860_" class="st4" d="M543.5,954.1v1.9h3.3v2.5h-3.3v1.9h3.4v2.5h-6.3v-11.1h6.3v2.5H543.5z"/>
		<path id="XMLID_858_" class="st4" d="M415.1,971.9v1.9h3.2v2.5h-3.2v4.4h-2.9v-11.1h6.4v2.5H415.1z"/>
		<path id="XMLID_855_" class="st4" d="M423,970.1c0,0.8-0.7,1.5-1.5,1.5c-0.8,0-1.5-0.7-1.5-1.5c0-0.8,0.7-1.5,1.5-1.5
			C422.3,968.6,423,969.2,423,970.1z M422.8,980.6h-2.7V973h2.7V980.6z"/>
		<path id="XMLID_853_" class="st4" d="M427.3,974.2L427.3,974.2c0.5-0.9,1.4-1.3,2.5-1.3h0.5v2.6c-0.4-0.2-0.7-0.3-1.1-0.3
			c-1.5,0-1.9,1-1.9,2.3v3.1h-2.7V973h2.7V974.2z"/>
		<path id="XMLID_851_" class="st4" d="M434,973.9L434,973.9c0.7-0.8,1.4-1.2,2.4-1.2c1.1,0,2,0.4,2.6,1.4c0.5-0.9,1.5-1.4,2.6-1.4
			c1.9,0,2.6,1.3,2.6,3v4.8h-2.7v-3.6c0-0.8,0-2.1-1.1-2.1c-1.2,0-1.3,1.2-1.3,2.1v3.6h-2.7v-3.6c0-0.8,0-2.1-1.2-2.1
			c-1.2,0-1.2,1.3-1.2,2.1v3.6h-2.7V973h2.7V973.9z"/>
		<path id="XMLID_848_" class="st4" d="M454.2,980.6h-2.7v-0.8h0c-0.5,0.8-1.4,1.1-2.3,1.1c-2.2,0-3.8-1.9-3.8-4c0-2.2,1.6-4,3.8-4
			c0.9,0,1.8,0.3,2.3,1V973h2.7V980.6z M448.1,976.8c0,1,0.6,1.7,1.7,1.7c1.1,0,1.7-0.7,1.7-1.7c0-0.9-0.6-1.7-1.7-1.7
			C448.7,975.1,448.1,975.8,448.1,976.8z"/>
		<path id="XMLID_845_" class="st4" d="M466.7,979.7L466.7,979.7c-0.5,0.8-1.4,1.1-2.3,1.1c-2.2,0-3.8-1.9-3.8-4c0-2.2,1.6-4,3.8-4
			c0.9,0,1.8,0.3,2.3,1v-5.4h2.7v12.3h-2.7V979.7z M463.4,976.8c0,1,0.6,1.7,1.7,1.7c1.1,0,1.7-0.7,1.7-1.7c0-0.9-0.6-1.7-1.7-1.7
			C464,975.1,463.4,975.8,463.4,976.8z"/>
		<path id="XMLID_842_" class="st4" d="M478.9,977.2h-5.7c0,1.1,0.6,1.7,1.7,1.7c0.6,0,1-0.2,1.3-0.7h2.6c-0.2,0.9-0.7,1.5-1.4,2
			c-0.7,0.4-1.6,0.6-2.4,0.6c-2.5,0-4.4-1.4-4.4-4c0-2.5,1.7-4,4.2-4c2.6,0,4.2,1.6,4.2,4.2V977.2z M476.4,975.7
			c-0.1-0.7-0.8-1.2-1.5-1.2c-0.8,0-1.4,0.4-1.6,1.2H476.4z"/>
		<path id="XMLID_839_" class="st4" d="M493.5,980.6h-2.7v-0.8h0c-0.5,0.8-1.4,1.1-2.3,1.1c-2.2,0-3.8-1.9-3.8-4c0-2.2,1.6-4,3.8-4
			c0.9,0,1.8,0.3,2.3,1V973h2.7V980.6z M487.4,976.8c0,1,0.6,1.7,1.7,1.7c1.1,0,1.7-0.7,1.7-1.7c0-0.9-0.6-1.7-1.7-1.7
			C488,975.1,487.4,975.8,487.4,976.8z"/>
		<path id="XMLID_836_" class="st4" d="M497.9,973.8L497.9,973.8c0.5-0.8,1.4-1.1,2.3-1.1c2.3,0,3.8,1.9,3.8,4.1c0,2.2-1.6,4-3.8,4
			c-0.9,0-1.8-0.3-2.3-1v4.5h-2.7V973h2.7V973.8z M497.8,976.8c0,1,0.6,1.7,1.7,1.7c1.1,0,1.7-0.7,1.7-1.7c0-0.9-0.6-1.7-1.7-1.7
			C498.4,975.1,497.8,975.8,497.8,976.8z"/>
		<path id="XMLID_834_" class="st4" d="M508,974.2L508,974.2c0.5-0.9,1.4-1.3,2.5-1.3h0.5v2.6c-0.4-0.2-0.7-0.3-1.1-0.3
			c-1.5,0-1.9,1-1.9,2.3v3.1h-2.7V973h2.7V974.2z"/>
		<path id="XMLID_831_" class="st4" d="M520.3,976.8c0,2.6-2.1,4-4.6,4c-2.4,0-4.6-1.4-4.6-4c0-2.6,2.1-4,4.6-4
			C518.2,972.7,520.3,974.2,520.3,976.8z M514,976.8c0,1,0.6,1.7,1.7,1.7c1.1,0,1.7-0.7,1.7-1.7c0-0.9-0.6-1.7-1.7-1.7
			C514.7,975.1,514,975.8,514,976.8z"/>
		<path id="XMLID_828_" class="st4" d="M521.4,968.3h2.7v5.4c0.6-0.7,1.5-1,2.3-1c2.2,0,3.8,1.9,3.8,4c0,2.2-1.6,4-3.8,4
			c-0.9,0-1.8-0.3-2.3-1.1h0v0.8h-2.7V968.3z M524,976.8c0,1,0.6,1.7,1.7,1.7c1.1,0,1.7-0.7,1.7-1.7c0-0.9-0.6-1.7-1.7-1.7
			C524.7,975.1,524,975.8,524,976.8z"/>
		<path id="XMLID_824_" class="st4" d="M539.9,980.6h-2.7v-0.8h0c-0.5,0.8-1.4,1.1-2.3,1.1c-2.2,0-3.8-1.9-3.8-4c0-2.2,1.6-4,3.8-4
			c0.9,0,1.8,0.3,2.3,1V973h2.7V980.6z M533.8,976.8c0,1,0.6,1.7,1.7,1.7c1.1,0,1.7-0.7,1.7-1.7c0-0.9-0.6-1.7-1.7-1.7
			C534.5,975.1,533.8,975.8,533.8,976.8z"/>
		<path id="XMLID_822_" class="st4" d="M547.2,975.4c-0.4-0.3-0.9-0.5-1.4-0.5c-1,0-1.8,0.8-1.8,1.8c0,1.1,0.8,1.9,1.9,1.9
			c0.5,0,1-0.2,1.3-0.5v2.3c-0.6,0.3-1.2,0.4-1.9,0.4c-2.2,0-4.1-1.7-4.1-4c0-2.4,1.9-4.1,4.2-4.1c0.6,0,1.2,0.1,1.8,0.4V975.4z"/>
		<path id="XMLID_733_" class="st4" d="M551.7,970.1c0,0.8-0.7,1.5-1.5,1.5c-0.8,0-1.5-0.7-1.5-1.5c0-0.8,0.7-1.5,1.5-1.5
			C551,968.6,551.7,969.2,551.7,970.1z M551.5,980.6h-2.7V973h2.7V980.6z"/>
		<path id="XMLID_654_" class="st4" d="M561.9,976.8c0,2.6-2.1,4-4.6,4c-2.4,0-4.6-1.4-4.6-4c0-2.6,2.1-4,4.6-4
			S561.9,974.2,561.9,976.8z M555.6,976.8c0,1,0.6,1.7,1.7,1.7c1.1,0,1.7-0.7,1.7-1.7c0-0.9-0.6-1.7-1.7-1.7
			C556.2,975.1,555.6,975.8,555.6,976.8z M557,971.9l-1.2-0.9l2.1-2.5l1.6,1.2L557,971.9z"/>
		<path id="XMLID_652_" class="st4" d="M565.8,974L565.8,974c0.7-0.9,1.4-1.2,2.5-1.2c2,0,2.9,1.3,2.9,3.1v4.7h-2.7v-3.7
			c0-0.7,0.1-2-1.2-2c-1.1,0-1.4,0.8-1.4,1.8v3.9h-2.7V973h2.7V974z"/>
	</g>
</g>
<polygon id="XMLID_4806_" class="st5" points="390.3,50 380.9,55.4 371.5,60.9 371.5,50 371.5,39.1 380.9,44.5 "/>
<polygon id="XMLID_4805_" class="st5" points="497.1,135.1 491.7,125.7 486.3,116.3 497.1,116.3 508,116.3 502.6,125.7 "/>
<polygon id="XMLID_4804_" class="st5" points="610.5,183.2 619.9,177.8 629.4,172.3 629.4,183.2 629.4,194.1 619.9,188.7 "/>
<polygon id="XMLID_4803_" class="st5" points="610.5,50 619.9,44.5 629.4,39.1 629.4,50 629.4,60.9 619.9,55.4 "/>
<polygon id="XMLID_4802_" class="st5" points="663.5,183.2 654,188.7 644.6,194.1 644.6,183.2 644.6,172.3 654,177.8 "/>
<polygon id="XMLID_4801_" class="st5" points="775.3,125.7 769.9,116.3 764.4,106.9 775.3,106.9 786.2,106.9 780.7,116.3 "/>
<polygon id="XMLID_4800_" class="st5" points="497.1,265.7 491.7,256.2 486.3,246.8 497.1,246.8 508,246.8 502.6,256.2 "/>
<polygon id="XMLID_4799_" class="st5" points="497.1,396.2 491.7,386.8 486.3,377.3 497.1,377.3 508,377.3 502.6,386.8 "/>
<polygon id="XMLID_4798_" class="st5" points="497.1,526.7 491.7,517.3 486.3,507.9 497.1,507.9 508,507.9 502.6,517.3 "/>
<polygon id="XMLID_4797_" class="st5" points="497.1,657.2 491.7,647.8 486.3,638.4 497.1,638.4 508,638.4 502.6,647.8 "/>
<polygon id="XMLID_4796_" class="st5" points="497.1,787.7 491.7,778.3 486.3,768.9 497.1,768.9 508,768.9 502.6,778.3 "/>
<polygon id="XMLID_2181_" class="st5" points="497.1,916.5 491.7,907.1 486.3,897.7 497.1,897.7 508,897.7 502.6,907.1 "/>
<polygon id="XMLID_4795_" class="st5" points="210.1,609.4 204.7,600 199.2,590.6 210.1,590.6 221,590.6 215.5,600 "/>
<polygon id="XMLID_4794_" class="st5" points="210.1,712.9 215.5,722.4 221,731.8 210.1,731.8 199.2,731.8 204.7,722.4 "/>
<line id="XMLID_4793_" class="st0" x1="210.1" y1="505.4" x2="210.1" y2="606.8"/>
<polyline id="XMLID_4792_" class="st0" points="210.1,722.4 210.1,967.1 387,967.1 "/>
<polyline id="XMLID_4791_" class="st0" points="321.8,661.4 354.1,661.4 354.1,49.4 387,49.4 "/>
<line id="XMLID_4790_" class="st0" x1="615.9" y1="183.2" x2="656.1" y2="183.2"/>
<polyline id="XMLID_4789_" class="st0" points="619.9,50 775.3,50 775.3,119.6 "/>
</svg>
