<?xml version="1.0" encoding="utf-8"?>
<!-- Generator: Adobe Illustrator 21.0.2, SVG Export Plug-In . SVG Version: 6.00 Build 0)  -->
<svg version="1.1" id="Layer_1" xmlns="http://www.w3.org/2000/svg" xmlns:xlink="http://www.w3.org/1999/xlink" x="0px" y="0px"
	 viewBox="0 0 998.6 1083" style="enable-background:new 0 0 998.6 1083;" xml:space="preserve">
<style type="text/css">
	.st0{fill:none;stroke:#E42527;stroke-width:4;stroke-miterlimit:10;}
	.st1{fill:#929191;}
	.st2{fill:#9D9D9C;}
	.st3{fill:#FFFFFF;}
	.st4{fill:#E42527;}
</style>
<polyline id="XMLID_7115_" class="st0" points="723.2,367.1 723.2,1073.2 275.2,1073.2 275.2,782.4 "/>
<line id="XMLID_7172_" class="st0" x1="275.2" y1="139.7" x2="275.2" y2="757.7"/>
<rect id="XMLID_7171_" x="546.3" y="207" class="st1" width="353.7" height="160.1"/>
<rect id="XMLID_7170_" x="101" y="-0.6" class="st2" width="353.7" height="160.1"/>
<g id="XMLID_17409_">
	<g>
		<path id="XMLID_240_" class="st3" d="M627.4,284.9c-0.9-1.3-2.5-1.9-4-1.9c-2.8,0-4.7,2.2-4.7,4.9c0,2.8,1.9,4.8,4.8,4.8
			c1.5,0,3-0.7,4-1.9v5.5c-1.5,0.5-2.6,0.8-4,0.8c-2.5,0-4.8-0.9-6.6-2.6c-1.9-1.8-2.8-4-2.8-6.7c0-2.4,0.9-4.7,2.6-6.5
			c1.7-1.8,4.2-2.9,6.7-2.9c1.5,0,2.8,0.3,4.2,0.9V284.9z"/>
		<path id="XMLID_237_" class="st3" d="M648.9,287.4c0,5.7-4.1,9.7-9.8,9.7c-5.7,0-9.8-4-9.8-9.7c0-5.3,4.7-9.1,9.8-9.1
			C644.2,278.4,648.9,282.1,648.9,287.4z M634.1,287.5c0,3,2.2,5.3,5,5.3c2.7,0,5-2.2,5-5.3c0-2.4-2.2-4.7-5-4.7
			C636.4,282.8,634.1,285,634.1,287.5z"/>
		<path id="XMLID_235_" class="st3" d="M651,279h4.6l8.4,10.8h0V279h4.6v17.6H664l-8.4-10.8h0v10.8H651V279z"/>
		<path id="XMLID_233_" class="st3" d="M678.6,296.6H674v-13.8h-3.8V279h12.2v3.9h-3.8V296.6z"/>
		<path id="XMLID_230_" class="st3" d="M698.7,296.6H693l-4.3-6.8h0v6.8h-4.6V279h6.9c3.5,0,6.1,1.7,6.1,5.4c0,2.4-1.4,4.5-3.9,5
			L698.7,296.6z M688.6,286.9h0.4c1.5,0,3.2-0.3,3.2-2.2c0-1.9-1.7-2.2-3.2-2.2h-0.4V286.9z"/>
		<path id="XMLID_228_" class="st3" d="M704.5,296.6H700V279h4.6V296.6z"/>
		<path id="XMLID_224_" class="st3" d="M707.5,296.6V279h6.5c3.1,0,5.2,1.2,5.2,4.6c0,1.6-0.5,2.9-1.9,3.6v0c2.5,0.3,3.6,2,3.6,4.5
			c0,3.7-3.2,4.9-6.4,4.9H707.5z M712.1,285.9h0.5c1.2,0,2.5-0.2,2.5-1.7c0-1.6-1.4-1.7-2.7-1.7h-0.3V285.9z M712.1,293.1h0.6
			c1.4,0,3.6,0.1,3.6-1.9c0-2.1-2.3-1.9-3.8-1.9h-0.5V293.1z"/>
		<path id="XMLID_222_" class="st3" d="M738.7,279v9.9c0,2.3-0.1,4.5-1.8,6.2c-1.5,1.5-3.8,2-5.8,2c-2.1,0-4.4-0.5-5.8-2
			c-1.8-1.7-1.8-4-1.8-6.2V279h4.6v9.3c0,2.3,0.2,4.8,3.1,4.8c2.9,0,3.1-2.5,3.1-4.8V279H738.7z"/>
		<path id="XMLID_220_" class="st3" d="M739.6,279h5.5l3.3,4.8l3.3-4.8h5.5l-6.5,9.2v8.5h-4.6v-8.5L739.6,279z"/>
		<path id="XMLID_218_" class="st3" d="M762.8,282.8v2.9h5.2v3.9h-5.2v3h5.4v3.9h-10V279h10v3.9H762.8z"/>
		<path id="XMLID_216_" class="st3" d="M771.1,279h4.6l8.4,10.8h0V279h4.6v17.6h-4.6l-8.4-10.8h0v10.8h-4.6V279z"/>
		<path id="XMLID_214_" class="st3" d="M798.7,296.6h-4.6v-13.8h-3.8V279h12.2v3.9h-3.8V296.6z"/>
		<path id="XMLID_212_" class="st3" d="M808.8,282.8v2.9h5.2v3.9h-5.2v3h5.4v3.9h-10V279h10v3.9H808.8z"/>
	</g>
</g>
<g id="XMLID_17350_">
	<g>
		<path id="XMLID_529_" class="st3" d="M168.2,72.5l4.3-10.7h5l-7.5,17.6h-3.6L159,61.8h5L168.2,72.5z"/>
		<path id="XMLID_527_" class="st3" d="M183.2,65.7v2.9h5.2v3.9h-5.2v3h5.4v3.9h-10V61.8h10v3.9H183.2z"/>
		<path id="XMLID_525_" class="st3" d="M191.5,61.8h4.6l8.4,10.8h0V61.8h4.6v17.6h-4.6l-8.4-10.8h0v10.8h-4.6V61.8z"/>
		<path id="XMLID_523_" class="st3" d="M219.1,79.4h-4.6V65.7h-3.8v-3.9h12.2v3.9h-3.8V79.4z"/>
		<path id="XMLID_520_" class="st3" d="M227.6,76.4l-1.2,3.1h-4.9l6.8-17.6h5l6.6,17.6h-4.9l-1.1-3.1H227.6z M230.8,67.3L230.8,67.3
			l-1.9,5.6h3.8L230.8,67.3z"/>
		<path id="XMLID_518_" class="st3" d="M241.4,61.8h4.6l8.4,10.8h0V61.8h4.6v17.6h-4.6L246,68.6h0v10.8h-4.6V61.8z"/>
		<path id="XMLID_516_" class="st3" d="M266.6,79.4H262V61.8h4.6V79.4z"/>
		<path id="XMLID_514_" class="st3" d="M274.2,75.6h5.5v3.9h-10.1V61.8h4.6V75.6z"/>
		<path id="XMLID_512_" class="st3" d="M285.7,75.6h5.5v3.9h-10.1V61.8h4.6V75.6z"/>
		<path id="XMLID_509_" class="st3" d="M297.2,76.4l-1.2,3.1h-4.9l6.8-17.6h5l6.6,17.6h-4.9l-1.1-3.1H297.2z M300.4,67.3L300.4,67.3
			l-1.9,5.6h3.8L300.4,67.3z"/>
		<path id="XMLID_507_" class="st3" d="M334.3,61.8v9.9c0,2.3-0.1,4.5-1.8,6.2c-1.5,1.5-3.8,2-5.8,2c-2.1,0-4.4-0.5-5.8-2
			c-1.8-1.7-1.8-4-1.8-6.2v-9.9h4.6v9.3c0,2.3,0.2,4.8,3.1,4.8c2.9,0,3.1-2.5,3.1-4.8v-9.3H334.3z"/>
		<path id="XMLID_505_" class="st3" d="M337.2,61.8h4.6l8.4,10.8h0V61.8h4.6v17.6h-4.6l-8.4-10.8h0v10.8h-4.6V61.8z"/>
		<path id="XMLID_503_" class="st3" d="M362.4,79.4h-4.6V61.8h4.6V79.4z"/>
		<path id="XMLID_501_" class="st3" d="M378,67.7c-0.9-1.3-2.5-1.9-4-1.9c-2.8,0-4.7,2.2-4.7,4.9c0,2.8,1.9,4.8,4.8,4.8
			c1.5,0,3-0.7,4-1.9v5.5c-1.5,0.5-2.6,0.8-4,0.8c-2.5,0-4.8-0.9-6.6-2.6c-1.9-1.8-2.8-4-2.8-6.7c0-2.4,0.9-4.7,2.6-6.5
			c1.7-1.8,4.2-2.9,6.7-2.9c1.5,0,2.8,0.3,4.2,0.9V67.7z"/>
		<path id="XMLID_498_" class="st3" d="M385.3,76.4l-1.2,3.1h-4.9l6.8-17.6h5l6.6,17.6h-4.9l-1.1-3.1H385.3z M388.5,67.3L388.5,67.3
			l-1.9,5.6h3.8L388.5,67.3z"/>
		<path id="XMLID_495_" class="st3" d="M230.1,107.5h-5.7l-4.3-6.8h0v6.8h-4.6V89.9h6.9c3.5,0,6.1,1.7,6.1,5.4c0,2.4-1.4,4.5-3.9,5
			L230.1,107.5z M220,97.8h0.4c1.5,0,3.2-0.3,3.2-2.2c0-1.9-1.7-2.2-3.2-2.2H220V97.8z"/>
		<path id="XMLID_492_" class="st3" d="M243.6,102.2h-9c0,1.7,0.9,2.7,2.7,2.7c0.9,0,1.6-0.3,2-1.1h4.1c-0.3,1.4-1.2,2.4-2.3,3.1
			c-1.1,0.7-2.5,1-3.8,1c-4,0-6.9-2.2-6.9-6.4c0-4,2.7-6.4,6.6-6.4c4.2,0,6.6,2.6,6.6,6.7V102.2z M239.6,99.8
			c-0.2-1.1-1.3-1.9-2.4-1.9c-1.2,0-2.3,0.7-2.5,1.9H239.6z"/>
		<path id="XMLID_490_" class="st3" d="M254.2,99.4c-0.6-0.5-1.4-0.8-2.2-0.8c-1.6,0-2.9,1.3-2.9,2.9c0,1.7,1.2,2.9,3,2.9
			c0.7,0,1.6-0.3,2.1-0.8v3.6c-0.9,0.5-2,0.7-3,0.7c-3.6,0-6.5-2.6-6.5-6.3c0-3.9,2.9-6.5,6.7-6.5c1,0,2,0.2,2.8,0.7V99.4z"/>
		<path id="XMLID_487_" class="st3" d="M269.2,102.2h-9c0,1.7,0.9,2.7,2.7,2.7c0.9,0,1.6-0.3,2-1.1h4.1c-0.3,1.4-1.2,2.4-2.3,3.1
			c-1.1,0.7-2.5,1-3.8,1c-4,0-6.9-2.2-6.9-6.4c0-4,2.7-6.4,6.6-6.4c4.2,0,6.6,2.6,6.6,6.7V102.2z M265.2,99.8
			c-0.2-1.1-1.3-1.9-2.4-1.9c-1.2,0-2.3,0.7-2.5,1.9H265.2z"/>
		<path id="XMLID_484_" class="st3" d="M275.2,96.9L275.2,96.9c0.8-1.2,2.3-1.8,3.7-1.8c3.6,0,6.1,3,6.1,6.4c0,3.5-2.5,6.4-6,6.4
			c-1.4,0-2.8-0.5-3.7-1.5v7.1h-4.3v-18h4.3V96.9z M275.1,101.5c0,1.5,1,2.7,2.7,2.7c1.7,0,2.7-1.2,2.7-2.7c0-1.5-1-2.7-2.7-2.7
			C276.1,98.8,275.1,100,275.1,101.5z"/>
		<path id="XMLID_482_" class="st3" d="M295.7,99.4c-0.6-0.5-1.4-0.8-2.2-0.8c-1.6,0-2.9,1.3-2.9,2.9c0,1.7,1.2,2.9,3,2.9
			c0.7,0,1.6-0.3,2.1-0.8v3.6c-0.9,0.5-2,0.7-3,0.7c-3.6,0-6.5-2.6-6.5-6.3c0-3.9,2.9-6.5,6.7-6.5c1,0,2,0.2,2.8,0.7V99.4z"/>
		<path id="XMLID_479_" class="st3" d="M302.8,90.9c0,1.3-1.1,2.4-2.4,2.4c-1.3,0-2.4-1.1-2.4-2.4c0-1.3,1.1-2.4,2.4-2.4
			C301.8,88.5,302.8,89.6,302.8,90.9z M302.6,107.5h-4.3v-12h4.3V107.5z"/>
		<path id="XMLID_475_" class="st3" d="M319,101.5c0,4.1-3.4,6.4-7.2,6.4c-3.8,0-7.2-2.3-7.2-6.4s3.4-6.4,7.2-6.4
			C315.6,95.1,319,97.4,319,101.5z M309,101.5c0,1.5,1,2.7,2.7,2.7c1.7,0,2.7-1.2,2.7-2.7c0-1.5-1-2.7-2.7-2.7
			C310,98.8,309,100,309,101.5z M311.3,93.7l-1.9-1.4l3.3-4l2.6,1.9L311.3,93.7z"/>
		<path id="XMLID_473_" class="st3" d="M325.1,97.1L325.1,97.1c1-1.4,2.2-1.9,3.9-1.9c3.2,0,4.5,2,4.5,5v7.4h-4.3v-5.8
			c0-1.1,0.2-3.2-1.9-3.2c-1.7,0-2.2,1.3-2.2,2.8v6.2h-4.3v-12h4.3V97.1z"/>
	</g>
</g>
<rect id="XMLID_7163_" x="101" y="207" class="st2" width="353.7" height="160.1"/>
<rect id="XMLID_7162_" x="101" y="414.7" class="st2" width="353.7" height="160.1"/>
<g id="XMLID_17257_">
	<g>
		<path id="XMLID_940_" class="st3" d="M138.2,278.9L137,282h-4.9l6.8-17.6h5l6.6,17.6h-4.9l-1.1-3.1H138.2z M141.4,269.8
			L141.4,269.8l-1.9,5.6h3.8L141.4,269.8z"/>
		<path id="XMLID_936_" class="st3" d="M152,282v-17.6h6.5c3.1,0,5.2,1.2,5.2,4.6c0,1.6-0.5,2.9-1.9,3.6v0c2.5,0.3,3.6,2,3.6,4.5
			c0,3.7-3.2,4.9-6.4,4.9H152z M156.6,271.3h0.5c1.2,0,2.5-0.2,2.5-1.7c0-1.6-1.4-1.7-2.7-1.7h-0.3V271.3z M156.6,278.5h0.6
			c1.4,0,3.6,0.1,3.6-1.9c0-2.1-2.3-1.9-3.8-1.9h-0.5V278.5z"/>
		<path id="XMLID_933_" class="st3" d="M186.4,272.8c0,5.7-4.1,9.7-9.8,9.7c-5.7,0-9.8-4-9.8-9.7c0-5.3,4.7-9.1,9.8-9.1
			C181.8,263.8,186.4,267.5,186.4,272.8z M171.7,272.9c0,3,2.2,5.3,5,5.3s5-2.2,5-5.3c0-2.4-2.2-4.7-5-4.7S171.7,270.4,171.7,272.9z
			"/>
		<path id="XMLID_931_" class="st3" d="M206.2,272.1c0,2.6-0.2,4.8-1.8,7c-1.7,2.4-4.3,3.5-7.3,3.5c-5.5,0-9.4-3.8-9.4-9.3
			c0-5.7,3.9-9.5,9.6-9.5c3.6,0,6.4,1.6,8,4.9l-4.4,1.8c-0.6-1.7-2-2.8-3.8-2.8c-3,0-4.6,2.9-4.6,5.6c0,2.7,1.6,5.5,4.7,5.5
			c2,0,3.5-1,3.7-3.1h-3.7v-3.6H206.2z"/>
		<path id="XMLID_928_" class="st3" d="M212.8,278.9l-1.2,3.1h-4.9l6.8-17.6h5l6.6,17.6h-4.9l-1.1-3.1H212.8z M216,269.8L216,269.8
			l-1.9,5.6h3.8L216,269.8z"/>
		<path id="XMLID_925_" class="st3" d="M226.5,264.3h6.5c4.9,0,9,3.9,9,8.8c0,5-4.1,8.8-9,8.8h-6.5V264.3z M231.1,278.1h1
			c2.7,0,5.1-1.5,5.1-4.9c0-3.2-2.1-4.9-5-4.9h-1.1V278.1z"/>
		<path id="XMLID_922_" class="st3" d="M262.7,272.8c0,5.7-4.1,9.7-9.8,9.7c-5.7,0-9.8-4-9.8-9.7c0-5.3,4.7-9.1,9.8-9.1
			C258,263.8,262.7,267.5,262.7,272.8z M248,272.9c0,3,2.2,5.3,5,5.3c2.7,0,5-2.2,5-5.3c0-2.4-2.2-4.7-5-4.7
			C250.2,268.2,248,270.4,248,272.9z"/>
		<path id="XMLID_920_" class="st3" d="M288.2,264.3v9.9c0,2.3-0.1,4.5-1.8,6.2c-1.5,1.4-3.8,2-5.8,2s-4.4-0.5-5.8-2
			c-1.8-1.7-1.8-4-1.8-6.2v-9.9h4.6v9.3c0,2.3,0.2,4.8,3.1,4.8c2.9,0,3.1-2.5,3.1-4.8v-9.3H288.2z"/>
		<path id="XMLID_917_" class="st3" d="M305.7,282H300l-4.3-6.8h0v6.8h-4.6v-17.6h6.9c3.5,0,6.1,1.7,6.1,5.4c0,2.4-1.4,4.5-3.9,5
			L305.7,282z M295.6,272.2h0.4c1.5,0,3.2-0.3,3.2-2.2c0-1.9-1.7-2.2-3.2-2.2h-0.4V272.2z"/>
		<path id="XMLID_913_" class="st3" d="M307,282v-17.6h6.5c3.1,0,5.2,1.2,5.2,4.6c0,1.6-0.5,2.9-1.9,3.6v0c2.5,0.3,3.6,2,3.6,4.5
			c0,3.7-3.2,4.9-6.4,4.9H307z M311.5,271.3h0.5c1.2,0,2.5-0.2,2.5-1.7c0-1.6-1.4-1.7-2.7-1.7h-0.3V271.3z M311.5,278.5h0.6
			c1.4,0,3.6,0.1,3.6-1.9c0-2.1-2.3-1.9-3.8-1.9h-0.5V278.5z"/>
		<path id="XMLID_910_" class="st3" d="M327.3,278.9l-1.2,3.1h-4.9l6.8-17.6h5l6.6,17.6h-4.9l-1.1-3.1H327.3z M330.5,269.8
			L330.5,269.8l-1.9,5.6h3.8L330.5,269.8z"/>
		<path id="XMLID_908_" class="st3" d="M341.1,264.3h4.6l8.4,10.8h0v-10.8h4.6V282h-4.6l-8.4-10.8h0V282h-4.6V264.3z"/>
		<path id="XMLID_906_" class="st3" d="M366.2,282h-4.6v-17.6h4.6V282z"/>
		<path id="XMLID_904_" class="st3" d="M378.9,268.9c-0.8-0.7-1.9-1.2-3-1.2c-0.8,0-2,0.5-2,1.5c0,1,1.2,1.4,2,1.7l1.2,0.4
			c2.5,0.7,4.4,2,4.4,4.8c0,1.8-0.4,3.6-1.8,4.7c-1.4,1.2-3.2,1.7-5,1.7c-2.2,0-4.4-0.7-6.2-2l2-3.7c1.1,1,2.5,1.8,4.1,1.8
			c1.1,0,2.2-0.5,2.2-1.8c0-1.3-1.8-1.7-2.8-2c-2.9-0.8-4.8-1.6-4.8-5c0-3.6,2.5-5.9,6.1-5.9c1.8,0,4,0.6,5.5,1.4L378.9,268.9z"/>
		<path id="XMLID_902_" class="st3" d="M385.6,264.3h4.5l3.6,9.4l3.8-9.4h4.6l2.7,17.6h-4.6l-1.3-10.1h0l-4.2,10.1h-1.8l-4-10.1h0
			l-1.5,10.1h-4.6L385.6,264.3z"/>
		<path id="XMLID_899_" class="st3" d="M425.2,272.8c0,5.7-4.1,9.7-9.8,9.7c-5.7,0-9.8-4-9.8-9.7c0-5.3,4.7-9.1,9.8-9.1
			C420.6,263.8,425.2,267.5,425.2,272.8z M410.5,272.9c0,3,2.2,5.3,5,5.3c2.7,0,5-2.2,5-5.3c0-2.4-2.2-4.7-5-4.7
			C412.7,268.2,410.5,270.4,410.5,272.9z"/>
		<path id="XMLID_897_" class="st3" d="M143.5,296.3v2.9h5.2v3.9h-5.2v3h5.4v3.9h-10v-17.6h10v3.9H143.5z"/>
		<path id="XMLID_895_" class="st3" d="M159.6,301.1c-0.7-0.4-1.6-0.6-2.3-0.6c-0.5,0-1.3,0.2-1.3,0.8c0,0.8,1.3,0.9,1.9,1.1
			c2,0.4,3.5,1.3,3.5,3.6c0,3.2-2.9,4.5-5.7,4.5c-1.7,0-3.4-0.5-4.8-1.4l1.5-3c0.9,0.6,2.3,1.2,3.4,1.2c0.5,0,1.3-0.3,1.3-0.9
			c0-0.9-1.3-1-2.7-1.3c-1.3-0.4-2.7-1-2.7-3.2c0-2.9,2.7-4.3,5.3-4.3c1.4,0,2.7,0.2,4,0.8L159.6,301.1z"/>
		<path id="XMLID_893_" class="st3" d="M168.3,310h-4.3v-8.5h-1.4V298h1.4v-3.6h4.3v3.6h2.4v3.5h-2.4V310z"/>
		<path id="XMLID_891_" class="st3" d="M176.3,298v6.4c0,1.5,0.4,2.6,2.1,2.6c1.8,0,2.1-1.1,2.1-2.6V298h4.3v7.2
			c0,4-2.8,5.2-6.4,5.2c-3.6,0-6.4-1.2-6.4-5.2V298H176.3z"/>
		<path id="XMLID_888_" class="st3" d="M196.5,308.7L196.5,308.7c-0.8,1.2-2.3,1.7-3.7,1.7c-3.6,0-6.1-3-6.1-6.4
			c0-3.4,2.5-6.4,6-6.4c1.4,0,2.8,0.5,3.7,1.6v-8.6h4.3V310h-4.3V308.7z M191.2,304c0,1.5,1,2.7,2.7,2.7s2.7-1.2,2.7-2.7
			c0-1.5-1-2.7-2.7-2.7S191.2,302.6,191.2,304z"/>
		<path id="XMLID_885_" class="st3" d="M207.9,293.4c0,1.3-1.1,2.4-2.4,2.4c-1.3,0-2.4-1.1-2.4-2.4c0-1.3,1.1-2.4,2.4-2.4
			C206.9,291,207.9,292.1,207.9,293.4z M207.7,310h-4.3v-12h4.3V310z"/>
		<path id="XMLID_882_" class="st3" d="M224.1,304c0,4.1-3.4,6.4-7.2,6.4c-3.8,0-7.2-2.3-7.2-6.4s3.4-6.4,7.2-6.4
			C220.7,297.6,224.1,300,224.1,304z M214.1,304c0,1.5,1,2.7,2.7,2.7c1.7,0,2.7-1.2,2.7-2.7c0-1.5-1-2.7-2.7-2.7
			C215.1,301.3,214.1,302.6,214.1,304z"/>
		<path id="XMLID_879_" class="st3" d="M243,308.7L243,308.7c-0.8,1.2-2.3,1.7-3.7,1.7c-3.6,0-6.1-3-6.1-6.4c0-3.4,2.5-6.4,6-6.4
			c1.4,0,2.8,0.5,3.7,1.6v-8.6h4.3V310H243V308.7z M237.7,304c0,1.5,1,2.7,2.7,2.7c1.7,0,2.7-1.2,2.7-2.7c0-1.5-1-2.7-2.7-2.7
			C238.7,301.3,237.7,302.6,237.7,304z"/>
		<path id="XMLID_876_" class="st3" d="M262.3,304.7h-9c0,1.7,0.9,2.7,2.7,2.7c0.9,0,1.6-0.3,2-1.1h4.1c-0.3,1.4-1.2,2.4-2.3,3.1
			c-1.1,0.7-2.5,1-3.8,1c-4,0-6.9-2.2-6.9-6.4c0-4,2.7-6.4,6.6-6.4c4.2,0,6.6,2.6,6.6,6.7V304.7z M258.3,302.3
			c-0.2-1.1-1.3-1.9-2.4-1.9c-1.2,0-2.3,0.7-2.5,1.9H258.3z"/>
		<path id="XMLID_874_" class="st3" d="M276.5,310h-4.3v-19.4h4.3V310z"/>
		<path id="XMLID_871_" class="st3" d="M292.4,310h-4.3v-1.3h0c-0.7,1.2-2.2,1.7-3.6,1.7c-3.6,0-6.1-3-6.1-6.4c0-3.4,2.5-6.4,6-6.4
			c1.4,0,2.8,0.5,3.7,1.6V298h4.3V310z M282.8,304c0,1.5,1,2.7,2.7,2.7c1.7,0,2.7-1.2,2.7-2.7c0-1.5-1-2.7-2.7-2.7
			C283.8,301.3,282.8,302.6,282.8,304z"/>
		<path id="XMLID_868_" class="st3" d="M312.3,308.7L312.3,308.7c-0.8,1.2-2.3,1.7-3.7,1.7c-3.6,0-6.1-3-6.1-6.4
			c0-3.4,2.5-6.4,6-6.4c1.4,0,2.8,0.5,3.7,1.6v-8.6h4.3V310h-4.3V308.7z M307,304c0,1.5,1,2.7,2.7,2.7c1.7,0,2.7-1.2,2.7-2.7
			c0-1.5-1-2.7-2.7-2.7C308,301.3,307,302.6,307,304z"/>
		<path id="XMLID_853_" class="st3" d="M331.5,304.7h-9c0,1.7,0.9,2.7,2.7,2.7c0.9,0,1.6-0.3,2-1.1h4.1c-0.3,1.4-1.2,2.4-2.3,3.1
			c-1.1,0.7-2.5,1-3.8,1c-4,0-6.9-2.2-6.9-6.4c0-4,2.7-6.4,6.6-6.4c4.2,0,6.6,2.6,6.6,6.7V304.7z M327.6,302.3
			c-0.2-1.1-1.3-1.9-2.4-1.9c-1.2,0-2.3,0.7-2.5,1.9H327.6z"/>
		<path id="XMLID_851_" class="st3" d="M337.7,299.6L337.7,299.6c1-1.5,2.2-1.9,3.9-1.9c3.2,0,4.5,2,4.5,5v7.4h-4.3v-5.8
			c0-1.1,0.2-3.2-1.9-3.2c-1.7,0-2.2,1.3-2.2,2.8v6.2h-4.3v-12h4.3V299.6z"/>
		<path id="XMLID_849_" class="st3" d="M353.1,298v6.4c0,1.5,0.4,2.6,2.1,2.6c1.8,0,2.1-1.1,2.1-2.6V298h4.3v7.2
			c0,4-2.8,5.2-6.4,5.2c-3.6,0-6.4-1.2-6.4-5.2V298H353.1z"/>
		<path id="XMLID_847_" class="st3" d="M368.6,299.6L368.6,299.6c1-1.5,2.2-1.9,3.9-1.9c3.2,0,4.5,2,4.5,5v7.4h-4.3v-5.8
			c0-1.1,0.2-3.2-1.9-3.2c-1.7,0-2.2,1.3-2.2,2.8v6.2h-4.3v-12h4.3V299.6z"/>
		<path id="XMLID_845_" class="st3" d="M388.4,301.9c-0.6-0.5-1.4-0.8-2.2-0.8c-1.6,0-2.9,1.3-2.9,2.9c0,1.7,1.2,2.9,3,2.9
			c0.7,0,1.6-0.3,2.1-0.8v3.6c-0.9,0.5-2,0.7-3,0.7c-3.6,0-6.5-2.6-6.5-6.3c0-3.9,2.9-6.5,6.7-6.5c1,0,2,0.2,2.8,0.7V301.9z"/>
		<path id="XMLID_842_" class="st3" d="M395.6,293.4c0,1.3-1.1,2.4-2.4,2.4c-1.3,0-2.4-1.1-2.4-2.4c0-1.3,1.1-2.4,2.4-2.4
			C394.5,291,395.6,292.1,395.6,293.4z M395.3,310h-4.3v-12h4.3V310z"/>
		<path id="XMLID_839_" class="st3" d="M411.3,310H407v-1.3h0c-0.7,1.2-2.2,1.7-3.6,1.7c-3.6,0-6.1-3-6.1-6.4c0-3.4,2.5-6.4,6-6.4
			c1.4,0,2.8,0.5,3.7,1.6V298h4.3V310z M401.7,304c0,1.5,1,2.7,2.7,2.7c1.7,0,2.7-1.2,2.7-2.7c0-1.5-1-2.7-2.7-2.7
			C402.7,301.3,401.7,302.6,401.7,304z"/>
	</g>
</g>
<g id="XMLID_17175_">
	<g>
		<path id="XMLID_863_" class="st3" d="M154.4,485.1l-1.2,3.1h-4.9l6.8-17.6h5l6.6,17.6h-4.9l-1.1-3.1H154.4z M157.6,476L157.6,476
			l-1.9,5.6h3.8L157.6,476z"/>
		<path id="XMLID_860_" class="st3" d="M182.8,488.2h-5.7l-4.3-6.8h0v6.8h-4.6v-17.6h6.9c3.5,0,6.1,1.7,6.1,5.4c0,2.4-1.4,4.5-3.9,5
			L182.8,488.2z M172.8,478.5h0.4c1.5,0,3.2-0.3,3.2-2.2c0-1.9-1.7-2.2-3.2-2.2h-0.4V478.5z"/>
		<path id="XMLID_858_" class="st3" d="M188.7,474.5v2.9h5.2v3.9h-5.2v3h5.4v3.9h-10v-17.6h10v3.9H188.7z"/>
		<path id="XMLID_855_" class="st3" d="M201.4,485.1l-1.2,3.1h-4.9l6.8-17.6h5l6.6,17.6h-4.9l-1.1-3.1H201.4z M204.6,476L204.6,476
			l-1.9,5.6h3.8L204.6,476z"/>
		<path id="XMLID_765_" class="st3" d="M230.2,488.2h-4.6v-13.8h-3.8v-3.9H234v3.9h-3.8V488.2z"/>
		<path id="XMLID_759_" class="st3" d="M240.3,474.5v2.9h5.2v3.9h-5.2v3h5.4v3.9h-10v-17.6h10v3.9H240.3z"/>
		<path id="XMLID_757_" class="st3" d="M261.2,476.5c-0.9-1.3-2.5-1.9-4-1.9c-2.8,0-4.7,2.2-4.7,4.9c0,2.8,1.9,4.8,4.8,4.8
			c1.5,0,3-0.7,4-1.9v5.5c-1.5,0.5-2.6,0.8-4,0.8c-2.5,0-4.8-0.9-6.6-2.6c-1.9-1.8-2.8-4-2.8-6.7c0-2.4,0.9-4.7,2.6-6.5
			c1.7-1.8,4.2-2.9,6.7-2.9c1.5,0,2.8,0.3,4.2,0.9V476.5z"/>
		<path id="XMLID_755_" class="st3" d="M264,470.6h4.6l8.4,10.8h0v-10.8h4.6v17.6H277l-8.4-10.8h0v10.8H264V470.6z"/>
		<path id="XMLID_753_" class="st3" d="M289.2,488.2h-4.6v-17.6h4.6V488.2z"/>
		<path id="XMLID_751_" class="st3" d="M304.8,476.5c-0.9-1.3-2.5-1.9-4-1.9c-2.8,0-4.7,2.2-4.7,4.9c0,2.8,1.9,4.8,4.8,4.8
			c1.5,0,3-0.7,4-1.9v5.5c-1.5,0.5-2.6,0.8-4,0.8c-2.5,0-4.8-0.9-6.6-2.6c-1.9-1.8-2.8-4-2.8-6.7c0-2.4,0.9-4.7,2.6-6.5
			c1.7-1.8,4.2-2.9,6.7-2.9c1.5,0,2.8,0.3,4.2,0.9V476.5z"/>
		<path id="XMLID_748_" class="st3" d="M326.2,479.1c0,5.7-4.1,9.7-9.8,9.7c-5.7,0-9.8-4-9.8-9.7c0-5.3,4.7-9.1,9.8-9.1
			C321.5,470,326.2,473.7,326.2,479.1z M311.5,479.1c0,3,2.2,5.3,5,5.3c2.7,0,5-2.2,5-5.3c0-2.4-2.2-4.7-5-4.7
			C313.7,474.4,311.5,476.7,311.5,479.1z"/>
		<path id="XMLID_746_" class="st3" d="M338,475.1c-0.8-0.7-1.9-1.2-3-1.2c-0.8,0-2,0.5-2,1.5c0,1,1.2,1.4,2,1.7l1.2,0.4
			c2.5,0.7,4.3,2,4.3,4.8c0,1.8-0.4,3.6-1.8,4.7c-1.4,1.2-3.2,1.7-5,1.7c-2.2,0-4.4-0.7-6.2-2l2-3.7c1.1,1,2.5,1.8,4.1,1.8
			c1.1,0,2.2-0.5,2.2-1.8c0-1.3-1.8-1.7-2.8-2c-2.9-0.8-4.8-1.6-4.8-5c0-3.6,2.5-5.9,6.1-5.9c1.8,0,4,0.6,5.5,1.4L338,475.1z"/>
		<path id="XMLID_744_" class="st3" d="M354.2,468.8l-8.9,21.6h-3.3l8.9-21.6H354.2z"/>
		<path id="XMLID_741_" class="st3" d="M360.8,485.1l-1.2,3.1h-4.9l6.8-17.6h5l6.6,17.6h-4.9l-1.1-3.1H360.8z M364,476L364,476
			l-1.9,5.6h3.8L364,476z"/>
		<path id="XMLID_738_" class="st3" d="M389.2,488.2h-5.7l-4.3-6.8h0v6.8h-4.6v-17.6h6.9c3.5,0,6.1,1.7,6.1,5.4c0,2.4-1.4,4.5-3.9,5
			L389.2,488.2z M379.1,478.5h0.4c1.5,0,3.2-0.3,3.2-2.2c0-1.9-1.7-2.2-3.2-2.2h-0.4V478.5z"/>
		<path id="XMLID_735_" class="st3" d="M405.5,489.3l-1.4-1.7c-1.4,0.8-2.9,1.1-4.8,1.1c-5.7,0-9.8-4-9.8-9.7c0-5.3,4.7-9.1,9.8-9.1
			c5.5,0,9.8,3.7,9.8,9.4c0,2.3-0.8,4.4-2.3,6.2l3,3L405.5,489.3z M403.5,482.1c0.5-0.7,0.8-1.7,0.8-2.6c0-2.6-2.2-5-5-5
			c-2.7,0-5,2.2-5,4.7c0,3,2.3,5.3,5,5.3c0.5,0,0.9-0.1,1.4-0.2l-2.8-2.8l4.3-0.5L403.5,482.1z"/>
		<path id="XMLID_733_" class="st3" d="M170.7,516.3h-4.6v-17.6h4.6V516.3z"/>
		<path id="XMLID_731_" class="st3" d="M177.8,505.8L177.8,505.8c1-1.5,2.2-1.9,3.9-1.9c3.2,0,4.5,2,4.5,5v7.4H182v-5.8
			c0-1.1,0.2-3.2-1.9-3.2c-1.7,0-2.2,1.3-2.2,2.8v6.2h-4.3v-12h4.3V505.8z"/>
		<path id="XMLID_729_" class="st3" d="M197,507.4c-0.7-0.4-1.6-0.6-2.3-0.6c-0.5,0-1.3,0.2-1.3,0.8c0,0.8,1.3,0.9,1.9,1.1
			c2,0.4,3.5,1.3,3.5,3.6c0,3.2-2.9,4.5-5.7,4.5c-1.7,0-3.4-0.5-4.8-1.4l1.5-3c0.9,0.6,2.3,1.2,3.4,1.2c0.5,0,1.3-0.3,1.3-0.9
			c0-0.9-1.3-1-2.7-1.3c-1.3-0.4-2.7-1-2.7-3.2c0-2.9,2.7-4.3,5.3-4.3c1.4,0,2.7,0.2,4,0.8L197,507.4z"/>
		<path id="XMLID_726_" class="st3" d="M205.2,505.6L205.2,505.6c0.8-1.2,2.3-1.8,3.7-1.8c3.6,0,6.1,3,6.1,6.4c0,3.5-2.5,6.4-6,6.4
			c-1.4,0-2.8-0.5-3.7-1.5v7.1h-4.3v-18h4.3V505.6z M205,510.3c0,1.5,1,2.7,2.7,2.7c1.7,0,2.7-1.2,2.7-2.7c0-1.5-1-2.7-2.7-2.7
			C206,507.6,205,508.8,205,510.3z"/>
		<path id="XMLID_723_" class="st3" d="M229.3,511h-9c0,1.7,0.9,2.7,2.7,2.7c0.9,0,1.6-0.3,2-1.1h4.1c-0.3,1.4-1.2,2.4-2.3,3.1
			c-1.1,0.7-2.5,1-3.8,1c-4,0-6.9-2.2-6.9-6.4c0-4,2.7-6.4,6.6-6.4c4.2,0,6.6,2.6,6.6,6.7V511z M225.4,508.5
			c-0.2-1.1-1.3-1.9-2.4-1.9c-1.2,0-2.3,0.7-2.5,1.9H225.4z"/>
		<path id="XMLID_721_" class="st3" d="M239.9,508.2c-0.6-0.5-1.4-0.8-2.2-0.8c-1.6,0-2.9,1.3-2.9,2.9c0,1.7,1.2,2.9,3,2.9
			c0.7,0,1.6-0.3,2.1-0.8v3.6c-0.9,0.5-2,0.7-3,0.7c-3.6,0-6.5-2.6-6.5-6.3c0-3.9,2.9-6.5,6.7-6.5c1,0,2,0.2,2.8,0.7V508.2z"/>
		<path id="XMLID_719_" class="st3" d="M251.2,508.2c-0.6-0.5-1.4-0.8-2.2-0.8c-1.6,0-2.9,1.3-2.9,2.9c0,1.7,1.2,2.9,3,2.9
			c0.7,0,1.6-0.3,2.1-0.8v3.6c-0.9,0.5-2,0.7-3,0.7c-3.6,0-6.5-2.6-6.5-6.3c0-3.9,2.9-6.5,6.7-6.5c1,0,2,0.2,2.8,0.7V508.2z"/>
		<path id="XMLID_716_" class="st3" d="M258.4,499.7c0,1.3-1.1,2.4-2.4,2.4c-1.3,0-2.4-1.1-2.4-2.4c0-1.3,1.1-2.4,2.4-2.4
			C257.3,497.3,258.4,498.4,258.4,499.7z M258.1,516.3h-4.3v-12h4.3V516.3z"/>
		<path id="XMLID_712_" class="st3" d="M274.5,510.3c0,4.1-3.4,6.4-7.2,6.4c-3.8,0-7.2-2.3-7.2-6.4s3.4-6.4,7.2-6.4
			C271.1,503.9,274.5,506.2,274.5,510.3z M264.5,510.3c0,1.5,1,2.7,2.7,2.7c1.7,0,2.7-1.2,2.7-2.7c0-1.5-1-2.7-2.7-2.7
			C265.5,507.6,264.5,508.8,264.5,510.3z M266.8,502.5l-1.9-1.4l3.3-4l2.6,1.9L266.8,502.5z"/>
		<path id="XMLID_710_" class="st3" d="M280.6,505.8L280.6,505.8c1-1.5,2.2-1.9,3.9-1.9c3.2,0,4.5,2,4.5,5v7.4h-4.3v-5.8
			c0-1.1,0.2-3.2-1.9-3.2c-1.7,0-2.2,1.3-2.2,2.8v6.2h-4.3v-12h4.3V505.8z"/>
		<path id="XMLID_707_" class="st3" d="M304.4,499.7c0,1.3-1.1,2.4-2.4,2.4c-1.3,0-2.4-1.1-2.4-2.4c0-1.3,1.1-2.4,2.4-2.4
			C303.3,497.3,304.4,498.4,304.4,499.7z M304.1,516.3h-4.3v-12h4.3V516.3z"/>
		<path id="XMLID_705_" class="st3" d="M311.2,505.8L311.2,505.8c1-1.5,2.2-1.9,3.9-1.9c3.2,0,4.5,2,4.5,5v7.4h-4.3v-5.8
			c0-1.1,0.2-3.2-1.9-3.2c-1.7,0-2.2,1.3-2.2,2.8v6.2h-4.3v-12h4.3V505.8z"/>
		<path id="XMLID_703_" class="st3" d="M327,516.3h-4.3v-8.5h-1.5v-3.5h1.5v-1.5c0-1.7,0-2.9,1.2-4.2c1.1-1.2,2.6-1.9,4.2-1.9
			c0.7,0,1.2,0.1,1.8,0.4v3.7c-0.5-0.2-0.9-0.4-1.5-0.4c-1.1,0-1.5,0.7-1.5,2v1.9h3v3.5h-3V516.3z"/>
		<path id="XMLID_700_" class="st3" d="M345,510.3c0,4.1-3.4,6.4-7.2,6.4c-3.8,0-7.2-2.3-7.2-6.4s3.4-6.4,7.2-6.4
			C341.6,503.9,345,506.2,345,510.3z M335,510.3c0,1.5,1,2.7,2.7,2.7c1.7,0,2.7-1.2,2.7-2.7c0-1.5-1-2.7-2.7-2.7
			C336.1,507.6,335,508.8,335,510.3z"/>
		<path id="XMLID_698_" class="st3" d="M351.2,506.2L351.2,506.2c0.9-1.5,2.3-2.1,3.9-2.1h0.8v4.1c-0.6-0.3-1.1-0.4-1.8-0.4
			c-2.4,0-2.9,1.6-2.9,3.6v4.8h-4.3v-12h4.3V506.2z"/>
		<path id="XMLID_696_" class="st3" d="M361.8,505.8L361.8,505.8c1.1-1.3,2.3-1.9,3.8-1.9c1.7,0,3.2,0.7,4.1,2.3
			c0.8-1.5,2.4-2.3,4.1-2.3c3,0,4.1,2,4.1,4.7v7.6h-4.3v-5.7c0-1.2,0-3.3-1.8-3.3c-2,0-2,1.8-2,3.3v5.7h-4.3v-5.7
			c0-1.3,0-3.4-1.9-3.4c-1.9,0-1.9,2-1.9,3.4v5.7h-4.3v-12h4.3V505.8z"/>
		<path id="XMLID_693_" class="st3" d="M393,511h-9c0,1.7,0.9,2.7,2.7,2.7c0.9,0,1.6-0.3,2-1.1h4.1c-0.3,1.4-1.2,2.4-2.3,3.1
			c-1.1,0.7-2.5,1-3.8,1c-4,0-6.9-2.2-6.9-6.4c0-4,2.7-6.4,6.6-6.4c4.2,0,6.6,2.6,6.6,6.7V511z M389,508.5c-0.2-1.1-1.3-1.9-2.4-1.9
			c-1.2,0-2.3,0.7-2.5,1.9H389z"/>
	</g>
</g>
<rect id="XMLID_7151_" x="101" y="622.3" class="st2" width="353.7" height="160.1"/>
<g id="XMLID_17055_">
	<g>
		<path id="XMLID_1250_" class="st3" d="M137.6,681.7l-1.2,3.1h-4.9l6.8-17.6h5l6.6,17.6h-4.9l-1.1-3.1H137.6z M140.8,672.6
			L140.8,672.6l-1.9,5.6h3.8L140.8,672.6z"/>
		<path id="XMLID_1246_" class="st3" d="M151.4,684.8v-17.6h6.5c3.1,0,5.2,1.2,5.2,4.6c0,1.6-0.5,2.9-1.9,3.6v0
			c2.5,0.3,3.6,2,3.6,4.5c0,3.7-3.2,4.9-6.4,4.9H151.4z M156,674.1h0.5c1.2,0,2.5-0.2,2.5-1.7c0-1.6-1.4-1.7-2.7-1.7H156V674.1z
			 M156,681.3h0.6c1.4,0,3.6,0.1,3.6-1.9c0-2.1-2.3-1.9-3.8-1.9H156V681.3z"/>
		<path id="XMLID_1243_" class="st3" d="M185.8,675.7c0,5.7-4.1,9.7-9.8,9.7c-5.7,0-9.8-4-9.8-9.7c0-5.3,4.7-9.1,9.8-9.1
			C181.2,666.6,185.8,670.3,185.8,675.7z M171.1,675.7c0,3,2.2,5.3,5,5.3c2.7,0,5-2.2,5-5.3c0-2.4-2.2-4.7-5-4.7
			C173.4,671,171.1,673.2,171.1,675.7z"/>
		<path id="XMLID_1241_" class="st3" d="M205.6,675c0,2.6-0.2,4.8-1.8,7c-1.7,2.4-4.3,3.5-7.3,3.5c-5.5,0-9.4-3.8-9.4-9.3
			c0-5.7,3.9-9.5,9.6-9.5c3.6,0,6.4,1.6,8,4.9l-4.3,1.8c-0.6-1.7-2-2.8-3.8-2.8c-3,0-4.6,2.9-4.6,5.6c0,2.7,1.6,5.5,4.7,5.5
			c2,0,3.5-1,3.7-3.1h-3.7V675H205.6z"/>
		<path id="XMLID_1238_" class="st3" d="M212.2,681.7l-1.2,3.1h-4.9l6.8-17.6h5l6.6,17.6h-4.9l-1.1-3.1H212.2z M215.4,672.6
			L215.4,672.6l-1.9,5.6h3.8L215.4,672.6z"/>
		<path id="XMLID_1235_" class="st3" d="M225.9,667.2h6.5c4.9,0,9,3.9,9,8.8c0,5-4.1,8.8-9,8.8h-6.5V667.2z M230.5,680.9h1
			c2.7,0,5.1-1.5,5.1-4.9c0-3.2-2.1-4.9-5-4.9h-1.1V680.9z"/>
		<path id="XMLID_1232_" class="st3" d="M262.1,675.7c0,5.7-4.1,9.7-9.8,9.7c-5.7,0-9.8-4-9.8-9.7c0-5.3,4.7-9.1,9.8-9.1
			C257.4,666.6,262.1,670.3,262.1,675.7z M247.4,675.7c0,3,2.2,5.3,5,5.3c2.7,0,5-2.2,5-5.3c0-2.4-2.2-4.7-5-4.7
			C249.6,671,247.4,673.2,247.4,675.7z"/>
		<path id="XMLID_1230_" class="st3" d="M287.6,667.2v9.9c0,2.3-0.1,4.5-1.8,6.2c-1.5,1.5-3.8,2-5.8,2c-2.1,0-4.4-0.5-5.8-2
			c-1.8-1.7-1.8-4-1.8-6.2v-9.9h4.6v9.3c0,2.3,0.2,4.8,3.1,4.8s3.1-2.5,3.1-4.8v-9.3H287.6z"/>
		<path id="XMLID_1227_" class="st3" d="M305.1,684.8h-5.7l-4.3-6.8h0v6.8h-4.6v-17.6h6.9c3.5,0,6.1,1.7,6.1,5.4
			c0,2.4-1.4,4.5-3.9,5L305.1,684.8z M295,675.1h0.4c1.5,0,3.2-0.3,3.2-2.2c0-1.9-1.7-2.2-3.2-2.2H295V675.1z"/>
		<path id="XMLID_1223_" class="st3" d="M306.4,684.8v-17.6h6.5c3.1,0,5.2,1.2,5.2,4.6c0,1.6-0.5,2.9-1.9,3.6v0
			c2.5,0.3,3.6,2,3.6,4.5c0,3.7-3.2,4.9-6.4,4.9H306.4z M310.9,674.1h0.5c1.2,0,2.5-0.2,2.5-1.7c0-1.6-1.4-1.7-2.7-1.7h-0.3V674.1z
			 M310.9,681.3h0.6c1.4,0,3.6,0.1,3.6-1.9c0-2.1-2.3-1.9-3.8-1.9h-0.5V681.3z"/>
		<path id="XMLID_1220_" class="st3" d="M326.7,681.7l-1.2,3.1h-4.9l6.8-17.6h5l6.6,17.6h-4.9l-1.1-3.1H326.7z M329.9,672.6
			L329.9,672.6l-1.9,5.6h3.8L329.9,672.6z"/>
		<path id="XMLID_1218_" class="st3" d="M340.5,667.2h4.6l8.4,10.8h0v-10.8h4.6v17.6h-4.6l-8.4-10.8h0v10.8h-4.6V667.2z"/>
		<path id="XMLID_1216_" class="st3" d="M365.6,684.8h-4.6v-17.6h4.6V684.8z"/>
		<path id="XMLID_1214_" class="st3" d="M378.3,671.7c-0.8-0.7-1.9-1.2-3-1.2c-0.8,0-2,0.5-2,1.5c0,1,1.2,1.4,2,1.7l1.2,0.4
			c2.5,0.7,4.3,2,4.3,4.8c0,1.8-0.4,3.6-1.8,4.7c-1.4,1.2-3.2,1.7-5,1.7c-2.2,0-4.4-0.7-6.2-2l2-3.7c1.1,1,2.5,1.8,4.1,1.8
			c1.1,0,2.2-0.5,2.2-1.8c0-1.3-1.8-1.7-2.8-2c-2.9-0.8-4.8-1.6-4.8-5c0-3.6,2.5-5.9,6.1-5.9c1.8,0,4,0.6,5.5,1.4L378.3,671.7z"/>
		<path id="XMLID_1212_" class="st3" d="M385,667.2h4.5l3.6,9.4l3.8-9.4h4.6l2.7,17.6h-4.6l-1.3-10.1h0l-4.2,10.1h-1.8l-4-10.1h0
			l-1.5,10.1H382L385,667.2z"/>
		<path id="XMLID_1209_" class="st3" d="M424.6,675.7c0,5.7-4.1,9.7-9.8,9.7c-5.7,0-9.8-4-9.8-9.7c0-5.3,4.7-9.1,9.8-9.1
			C420,666.6,424.6,670.3,424.6,675.7z M409.9,675.7c0,3,2.2,5.3,5,5.3c2.7,0,5-2.2,5-5.3c0-2.4-2.2-4.7-5-4.7
			C412.1,671,409.9,673.2,409.9,675.7z"/>
		<path id="XMLID_1206_" class="st3" d="M155.5,709.8l-1.2,3.1h-4.9l6.8-17.6h5l6.6,17.6h-4.9l-1.1-3.1H155.5z M158.7,700.7
			L158.7,700.7l-1.9,5.6h3.8L158.7,700.7z"/>
		<path id="XMLID_1204_" class="st3" d="M177.8,704.8c-0.6-0.5-1.4-0.8-2.2-0.8c-1.6,0-2.9,1.3-2.9,2.9c0,1.7,1.2,2.9,3,2.9
			c0.7,0,1.6-0.3,2.1-0.8v3.6c-0.9,0.5-2,0.7-3,0.7c-3.6,0-6.5-2.6-6.5-6.3c0-3.9,2.9-6.5,6.7-6.5c1,0,2,0.2,2.8,0.7V704.8z"/>
		<path id="XMLID_1202_" class="st3" d="M184.7,712.9h-4.3v-19.4h4.3V712.9z"/>
		<path id="XMLID_1199_" class="st3" d="M200.6,712.9h-4.3v-1.3h0c-0.7,1.2-2.2,1.7-3.6,1.7c-3.6,0-6.1-3-6.1-6.4s2.5-6.4,6-6.4
			c1.4,0,2.8,0.5,3.7,1.6v-1.2h4.3V712.9z M191.1,706.9c0,1.5,1,2.7,2.7,2.7c1.7,0,2.7-1.2,2.7-2.7c0-1.5-1-2.7-2.7-2.7
			C192.1,704.2,191.1,705.4,191.1,706.9z"/>
		<path id="XMLID_1197_" class="st3" d="M207.7,702.8L207.7,702.8c0.9-1.5,2.3-2.1,3.9-2.1h0.8v4.1c-0.6-0.3-1.1-0.4-1.8-0.4
			c-2.4,0-2.9,1.6-2.9,3.6v4.8h-4.3v-12h4.3V702.8z"/>
		<path id="XMLID_1194_" class="st3" d="M227.2,712.9h-4.3v-1.3h0c-0.7,1.2-2.2,1.7-3.6,1.7c-3.6,0-6.1-3-6.1-6.4s2.5-6.4,6-6.4
			c1.4,0,2.8,0.5,3.7,1.6v-1.2h4.3V712.9z M217.6,706.9c0,1.5,1,2.7,2.7,2.7c1.7,0,2.7-1.2,2.7-2.7c0-1.5-1-2.7-2.7-2.7
			C218.6,704.2,217.6,705.4,217.6,706.9z"/>
		<path id="XMLID_1192_" class="st3" d="M238.7,704.8c-0.6-0.5-1.4-0.8-2.2-0.8c-1.6,0-2.9,1.3-2.9,2.9c0,1.7,1.2,2.9,3,2.9
			c0.7,0,1.6-0.3,2.1-0.8v3.6c-0.9,0.5-2,0.7-3,0.7c-3.6,0-6.5-2.6-6.5-6.3c0-3.9,2.9-6.5,6.7-6.5c1,0,2,0.2,2.8,0.7V704.8z"/>
		<path id="XMLID_1189_" class="st3" d="M245.8,696.3c0,1.3-1.1,2.4-2.4,2.4c-1.3,0-2.4-1.1-2.4-2.4c0-1.3,1.1-2.4,2.4-2.4
			C244.7,693.9,245.8,694.9,245.8,696.3z M245.6,712.9h-4.3v-12h4.3V712.9z"/>
		<path id="XMLID_1185_" class="st3" d="M261.9,706.9c0,4.1-3.4,6.4-7.2,6.4c-3.8,0-7.2-2.3-7.2-6.4s3.4-6.4,7.2-6.4
			C258.6,700.5,261.9,702.8,261.9,706.9z M252,706.9c0,1.5,1,2.7,2.7,2.7c1.7,0,2.7-1.2,2.7-2.7c0-1.5-1-2.7-2.7-2.7
			C253,704.2,252,705.4,252,706.9z M254.2,699.1l-1.9-1.4l3.3-4l2.6,1.9L254.2,699.1z"/>
		<path id="XMLID_1183_" class="st3" d="M268.1,702.4L268.1,702.4c1-1.4,2.2-1.9,3.9-1.9c3.2,0,4.5,2,4.5,5v7.4h-4.3V707
			c0-1.1,0.2-3.2-1.9-3.2c-1.7,0-2.2,1.3-2.2,2.8v6.2h-4.3v-12h4.3V702.4z"/>
		<path id="XMLID_1180_" class="st3" d="M296.3,711.5L296.3,711.5c-0.8,1.2-2.3,1.7-3.7,1.7c-3.6,0-6.1-3-6.1-6.4s2.5-6.4,6-6.4
			c1.4,0,2.8,0.5,3.7,1.6v-8.6h4.3v19.4h-4.3V711.5z M291,706.9c0,1.5,1,2.7,2.7,2.7c1.7,0,2.7-1.2,2.7-2.7c0-1.5-1-2.7-2.7-2.7
			C292,704.2,291,705.4,291,706.9z"/>
		<path id="XMLID_1177_" class="st3" d="M315.6,707.6h-9c0,1.7,0.9,2.7,2.7,2.7c0.9,0,1.6-0.3,2-1.1h4.1c-0.3,1.4-1.2,2.4-2.3,3.1
			c-1.1,0.7-2.5,1-3.8,1c-4,0-6.9-2.2-6.9-6.4c0-4,2.7-6.4,6.6-6.4c4.2,0,6.6,2.6,6.6,6.7V707.6z M311.6,705.1
			c-0.2-1.1-1.3-1.9-2.4-1.9c-1.2,0-2.3,0.7-2.5,1.9H311.6z"/>
		<path id="XMLID_1174_" class="st3" d="M334.6,711.5L334.6,711.5c-0.8,1.2-2.3,1.7-3.7,1.7c-3.6,0-6.1-3-6.1-6.4s2.5-6.4,6-6.4
			c1.4,0,2.8,0.5,3.7,1.6v-8.6h4.3v19.4h-4.3V711.5z M329.2,706.9c0,1.5,1,2.7,2.7,2.7c1.7,0,2.7-1.2,2.7-2.7c0-1.5-1-2.7-2.7-2.7
			C330.2,704.2,329.2,705.4,329.2,706.9z"/>
		<path id="XMLID_1172_" class="st3" d="M345.7,700.9v6.4c0,1.5,0.4,2.6,2.1,2.6c1.8,0,2.1-1.1,2.1-2.6v-6.4h4.3v7.2
			c0,4-2.8,5.2-6.4,5.2c-3.6,0-6.4-1.2-6.4-5.2v-7.2H345.7z"/>
		<path id="XMLID_1169_" class="st3" d="M365.9,711.5L365.9,711.5c-0.8,1.2-2.3,1.7-3.7,1.7c-3.6,0-6.1-3-6.1-6.4s2.5-6.4,6-6.4
			c1.4,0,2.8,0.5,3.7,1.6v-8.6h4.3v19.4h-4.3V711.5z M360.6,706.9c0,1.5,1,2.7,2.7,2.7s2.7-1.2,2.7-2.7c0-1.5-1-2.7-2.7-2.7
			S360.6,705.4,360.6,706.9z"/>
		<path id="XMLID_1166_" class="st3" d="M386,712.9h-4.3v-1.3h0c-0.7,1.2-2.2,1.7-3.6,1.7c-3.6,0-6.1-3-6.1-6.4s2.5-6.4,6-6.4
			c1.4,0,2.8,0.5,3.7,1.6v-1.2h4.3V712.9z M376.4,706.9c0,1.5,1,2.7,2.7,2.7c1.7,0,2.7-1.2,2.7-2.7c0-1.5-1-2.7-2.7-2.7
			C377.4,704.2,376.4,705.4,376.4,706.9z"/>
		<path id="XMLID_1164_" class="st3" d="M396.7,704c-0.7-0.4-1.6-0.6-2.3-0.6c-0.5,0-1.3,0.2-1.3,0.8c0,0.8,1.3,0.9,1.9,1.1
			c2,0.4,3.5,1.3,3.5,3.6c0,3.2-2.9,4.5-5.7,4.5c-1.7,0-3.4-0.5-4.8-1.4l1.5-3c0.9,0.6,2.3,1.2,3.4,1.2c0.5,0,1.3-0.3,1.3-0.9
			c0-0.9-1.3-1-2.7-1.3c-1.3-0.4-2.7-1-2.7-3.2c0-2.9,2.7-4.3,5.3-4.3c1.4,0,2.7,0.2,4,0.8L396.7,704z"/>
		<path id="XMLID_1161_" class="st3" d="M208.2,739.6L208.2,739.6c-0.8,1.2-2.3,1.7-3.7,1.7c-3.6,0-6.1-3-6.1-6.4s2.5-6.4,6-6.4
			c1.4,0,2.8,0.5,3.7,1.6v-8.6h4.3v19.4h-4.3V739.6z M202.9,734.9c0,1.5,1,2.7,2.7,2.7c1.7,0,2.7-1.2,2.7-2.7c0-1.5-1-2.7-2.7-2.7
			C203.9,732.2,202.9,733.5,202.9,734.9z"/>
		<path id="XMLID_1158_" class="st3" d="M227.5,735.6h-9c0,1.7,0.9,2.7,2.7,2.7c0.9,0,1.6-0.3,2-1.1h4.1c-0.3,1.4-1.2,2.4-2.3,3.1
			c-1.1,0.7-2.5,1-3.8,1c-4,0-6.9-2.2-6.9-6.4c0-4,2.7-6.4,6.6-6.4c4.2,0,6.6,2.6,6.6,6.7V735.6z M223.5,733.2
			c-0.2-1.1-1.3-1.9-2.4-1.9c-1.2,0-2.3,0.7-2.5,1.9H223.5z"/>
		<path id="XMLID_1156_" class="st3" d="M242.1,740.9h-4.3v-8.5h-1.4v-3.5h1.4v-3.6h4.3v3.6h2.4v3.5h-2.4V740.9z"/>
		<path id="XMLID_1153_" class="st3" d="M250.4,724.3c0,1.3-1.1,2.4-2.4,2.4c-1.3,0-2.4-1.1-2.4-2.4c0-1.3,1.1-2.4,2.4-2.4
			C249.3,721.9,250.4,723,250.4,724.3z M250.1,740.9h-4.3v-12h4.3V740.9z"/>
		<path id="XMLID_1150_" class="st3" d="M257,730.3L257,730.3c0.8-1.2,2.3-1.8,3.7-1.8c3.6,0,6.1,3,6.1,6.4c0,3.5-2.5,6.4-6,6.4
			c-1.4,0-2.8-0.5-3.7-1.5v7.1h-4.3v-18h4.3V730.3z M256.9,734.9c0,1.5,1,2.7,2.7,2.7c1.7,0,2.7-1.2,2.7-2.7c0-1.5-1-2.7-2.7-2.7
			C257.9,732.2,256.9,733.5,256.9,734.9z"/>
		<path id="XMLID_1147_" class="st3" d="M282.4,734.9c0,4.1-3.4,6.4-7.2,6.4c-3.8,0-7.2-2.3-7.2-6.4c0-4.1,3.4-6.4,7.2-6.4
			C279,728.5,282.4,730.8,282.4,734.9z M272.4,734.9c0,1.5,1,2.7,2.7,2.7c1.7,0,2.7-1.2,2.7-2.7c0-1.5-1-2.7-2.7-2.7
			C273.5,732.2,272.4,733.5,272.4,734.9z"/>
		<path id="XMLID_1145_" class="st3" d="M296.6,740.9h-4.3v-19.4h4.3V740.9z"/>
		<path id="XMLID_1142_" class="st3" d="M311.7,735.6h-9c0,1.7,0.9,2.7,2.7,2.7c0.9,0,1.6-0.3,2-1.1h4.1c-0.3,1.4-1.2,2.4-2.3,3.1
			c-1.1,0.7-2.5,1-3.8,1c-4,0-6.9-2.2-6.9-6.4c0-4,2.7-6.4,6.6-6.4c4.2,0,6.6,2.6,6.6,6.7V735.6z M307.8,733.2
			c-0.2-1.1-1.3-1.9-2.4-1.9c-1.2,0-2.3,0.7-2.5,1.9H307.8z"/>
		<path id="XMLID_1139_" class="st3" d="M326.8,739.8c0,5.1-2.5,7.2-6.9,7.2c-2.8,0-6.5-1.4-6.8-4.6h4.8c0.1,0.4,0.4,0.7,0.8,0.9
			c0.4,0.2,0.8,0.3,1.2,0.3c2.3,0,2.7-1.5,2.7-3.4v-0.6c-1.1,1.1-2.2,1.6-3.8,1.6c-3.5,0-5.9-2.7-5.9-6.1c0-3.5,2.5-6.5,6.2-6.5
			c1.4,0,2.7,0.5,3.5,1.7h0v-1.3h4.3V739.8z M317.2,734.8c0,1.5,1,2.7,2.7,2.7c1.7,0,2.7-1.2,2.7-2.7c0-1.5-1-2.7-2.7-2.7
			C318.3,732.1,317.2,733.4,317.2,734.8z"/>
		<path id="XMLID_1136_" class="st3" d="M342.6,740.9h-4.3v-1.3h0c-0.7,1.2-2.2,1.7-3.6,1.7c-3.6,0-6.1-3-6.1-6.4s2.5-6.4,6-6.4
			c1.4,0,2.8,0.5,3.7,1.6v-1.2h4.3V740.9z M333,734.9c0,1.5,1,2.7,2.7,2.7c1.7,0,2.7-1.2,2.7-2.7c0-1.5-1-2.7-2.7-2.7
			C334,732.2,333,733.5,333,734.9z"/>
		<path id="XMLID_1134_" class="st3" d="M349.7,740.9h-4.3v-19.4h4.3V740.9z"/>
	</g>
</g>
<rect id="XMLID_7177_" x="101" y="836.6" class="st2" width="353.7" height="160.1"/>
<g id="XMLID_17021_">
	<g>
		<path id="XMLID_294_" class="st3" d="M168.2,917.5l4.3-10.7h5l-7.5,17.6h-3.6l-7.4-17.6h5L168.2,917.5z"/>
		<path id="XMLID_292_" class="st3" d="M183.2,910.7v2.9h5.2v3.9h-5.2v3h5.4v3.9h-10v-17.6h10v3.9H183.2z"/>
		<path id="XMLID_290_" class="st3" d="M191.5,906.8h4.6l8.4,10.8h0v-10.8h4.6v17.6h-4.6l-8.4-10.8h0v10.8h-4.6V906.8z"/>
		<path id="XMLID_288_" class="st3" d="M219.1,924.5h-4.6v-13.8h-3.8v-3.9h12.2v3.9h-3.8V924.5z"/>
		<path id="XMLID_285_" class="st3" d="M227.6,921.4l-1.2,3.1h-4.9l6.8-17.6h5l6.6,17.6h-4.9l-1.1-3.1H227.6z M230.8,912.3
			L230.8,912.3l-1.9,5.6h3.8L230.8,912.3z"/>
		<path id="XMLID_283_" class="st3" d="M241.4,906.8h4.6l8.4,10.8h0v-10.8h4.6v17.6h-4.6l-8.4-10.8h0v10.8h-4.6V906.8z"/>
		<path id="XMLID_281_" class="st3" d="M266.6,924.5H262v-17.6h4.6V924.5z"/>
		<path id="XMLID_279_" class="st3" d="M274.2,920.6h5.5v3.9h-10.1v-17.6h4.6V920.6z"/>
		<path id="XMLID_277_" class="st3" d="M285.7,920.6h5.5v3.9h-10.1v-17.6h4.6V920.6z"/>
		<path id="XMLID_265_" class="st3" d="M297.2,921.4l-1.2,3.1h-4.9l6.8-17.6h5l6.6,17.6h-4.9l-1.1-3.1H297.2z M300.4,912.3
			L300.4,912.3l-1.9,5.6h3.8L300.4,912.3z"/>
		<path id="XMLID_263_" class="st3" d="M334.3,906.8v9.9c0,2.3-0.1,4.5-1.8,6.2c-1.5,1.4-3.8,2-5.8,2c-2.1,0-4.4-0.5-5.8-2
			c-1.8-1.7-1.8-4-1.8-6.2v-9.9h4.6v9.3c0,2.3,0.2,4.8,3.1,4.8c2.9,0,3.1-2.5,3.1-4.8v-9.3H334.3z"/>
		<path id="XMLID_261_" class="st3" d="M337.2,906.8h4.6l8.4,10.8h0v-10.8h4.6v17.6h-4.6l-8.4-10.8h0v10.8h-4.6V906.8z"/>
		<path id="XMLID_259_" class="st3" d="M362.4,924.5h-4.6v-17.6h4.6V924.5z"/>
		<path id="XMLID_257_" class="st3" d="M378,912.7c-0.9-1.3-2.5-1.9-4-1.9c-2.8,0-4.7,2.2-4.7,4.9c0,2.8,1.9,4.8,4.8,4.8
			c1.5,0,3-0.7,4-1.9v5.5c-1.5,0.5-2.6,0.8-4,0.8c-2.5,0-4.8-0.9-6.6-2.6c-1.9-1.8-2.8-4-2.8-6.7c0-2.4,0.9-4.7,2.6-6.5
			c1.7-1.8,4.2-2.9,6.7-2.9c1.5,0,2.8,0.3,4.2,0.9V912.7z"/>
		<path id="XMLID_254_" class="st3" d="M385.3,921.4l-1.2,3.1h-4.9l6.8-17.6h5l6.6,17.6h-4.9l-1.1-3.1H385.3z M388.5,912.3
			L388.5,912.3l-1.9,5.6h3.8L388.5,912.3z"/>
	</g>
</g>
<polygon id="XMLID_7131_" class="st4" points="454.7,79.4 469.6,70.8 484.5,62.2 484.5,79.4 484.5,96.7 469.6,88.1 "/>
<polygon id="XMLID_7130_" class="st4" points="275.2,214.2 266.6,199.3 258,184.4 275.2,184.4 292.4,184.4 283.8,199.3 "/>
<polygon id="XMLID_7129_" class="st4" points="275.2,420.8 266.6,405.9 258,391 275.2,391 292.4,391 283.8,405.9 "/>
<polygon id="XMLID_7117_" class="st4" points="275.2,627.3 266.6,612.4 258,597.5 275.2,597.5 292.4,597.5 283.8,612.4 "/>
<polygon id="XMLID_7116_" class="st4" points="723.2,367.1 731.8,382 740.4,396.9 723.2,396.9 706,396.9 714.6,382 "/>
<polyline id="XMLID_7114_" class="st0" points="723.2,207 723.2,78.6 454.7,78.6 454.7,78.6 "/>
</svg>
