<?xml version="1.0" encoding="utf-8"?>
<!-- Generator: Adobe Illustrator 21.0.2, SVG Export Plug-In . SVG Version: 6.00 Build 0)  -->
<svg version="1.1" id="Layer_1" xmlns="http://www.w3.org/2000/svg" xmlns:xlink="http://www.w3.org/1999/xlink" x="0px" y="0px"
	 viewBox="0 0 998.6 1148.4" style="enable-background:new 0 0 998.6 1148.4;" xml:space="preserve">
<style type="text/css">
	.st0{fill:none;stroke:#E42527;stroke-width:4;stroke-miterlimit:10;}
	.st1{fill:#95D4E7;}
	.st2{fill:#9D9D9C;}
	.st3{fill:#D81117;}
	.st4{fill:#575756;}
	.st5{fill:#FFFFFF;}
	.st6{fill:#E42527;}
</style>
<line class="st0" x1="359.8" y1="550.4" x2="359.8" y2="1092.1"/>
<line class="st0" x1="811.1" y1="521.8" x2="849.6" y2="521.8"/>
<polyline class="st0" points="231.9,291 177.1,291 177.1,521.8 239.8,521.8 "/>
<line class="st0" x1="355.4" y1="521.8" x2="689.9" y2="521.8"/>
<line id="XMLID_914_" class="st0" x1="360.4" y1="160" x2="360.4" y2="422.1"/>
<line id="XMLID_913_" class="st0" x1="689.9" y1="528.7" x2="689.9" y2="672.3"/>
<rect id="XMLID_558_" x="221.6" y="142.5" class="st1" width="274.9" height="65.8"/>
<rect id="XMLID_557_" x="221.5" y="254" class="st2" width="275" height="73.7"/>
<rect id="XMLID_556_" x="231.9" y="602.4" class="st3" width="259.8" height="69.8"/>
<g>
	<g>
		<path class="st4" d="M288.3,174.2c-0.9-0.8-2.1-1.3-3.3-1.3c-0.9,0-2.2,0.5-2.2,1.6s1.4,1.6,2.2,1.8l1.3,0.4
			c2.7,0.8,4.8,2.2,4.8,5.3c0,1.9-0.5,3.9-2,5.2s-3.5,1.8-5.5,1.8c-2.4,0-4.8-0.8-6.8-2.2l2.2-4.1c1.3,1.1,2.7,2,4.5,2
			c1.2,0,2.4-0.6,2.4-2s-2-1.9-3.1-2.2c-3.2-0.9-5.2-1.7-5.2-5.5c0-3.9,2.8-6.5,6.7-6.5c2,0,4.3,0.6,6.1,1.6L288.3,174.2z"/>
		<path class="st4" d="M313.9,178.6c0,6.3-4.5,10.7-10.7,10.7s-10.7-4.4-10.7-10.7c0-5.9,5.1-10,10.7-10S313.9,172.7,313.9,178.6z
			 M297.8,178.6c0,3.3,2.5,5.8,5.5,5.8s5.5-2.4,5.5-5.8c0-2.7-2.5-5.1-5.5-5.1C300.2,173.5,297.8,175.9,297.8,178.6z"/>
		<path class="st4" d="M321.3,184.3h6v4.3h-11.1v-19.4h5v15.1H321.3z"/>
		<path class="st4" d="M334,188.6h-5v-19.4h5V188.6z"/>
		<path class="st4" d="M351.1,175.7c-1-1.4-2.7-2.1-4.4-2.1c-3.1,0-5.2,2.4-5.2,5.4c0,3.1,2.1,5.3,5.2,5.3c1.6,0,3.3-0.8,4.3-2.1v6
			c-1.7,0.5-2.9,0.9-4.4,0.9c-2.7,0-5.3-1-7.3-2.9c-2.1-1.9-3.1-4.4-3.1-7.3c0-2.6,1-5.2,2.9-7.1c1.9-2,4.6-3.1,7.4-3.1
			c1.6,0,3.1,0.4,4.6,1V175.7z"/>
		<path class="st4" d="M359.3,188.6h-5v-19.4h5V188.6z"/>
		<path class="st4" d="M370.3,188.6h-5v-15.1h-4.2v-4.3h13.4v4.3h-4.2L370.3,188.6L370.3,188.6z"/>
		<path class="st4" d="M379.7,185.2l-1.3,3.4H373l7.4-19.4h5.5l7.3,19.4h-5.4l-1.3-3.4H379.7z M383.2,175.2L383.2,175.2l-2.1,6.2
			h4.2L383.2,175.2z"/>
		<path class="st4" d="M394.8,169.2h5L409,181h0.1v-11.8h5v19.4h-5l-9.2-11.9h-0.1v11.9h-5V169.2z"/>
		<path class="st4" d="M425.1,188.6h-5v-15.1h-4.2v-4.3h13.4v4.3h-4.2L425.1,188.6L425.1,188.6z"/>
		<path class="st4" d="M436.1,173.5v3.2h5.7v4.3h-5.7v3.3h6v4.3h-11v-19.4h11v4.3L436.1,173.5L436.1,173.5z"/>
	</g>
</g>
<rect id="XMLID_548_" x="229.8" y="1082" class="st1" width="259.9" height="65.8"/>
<g>
	<path class="st3" d="M254.7,20.4c-1.5-2-3.9-3.1-6.4-3.1c-4.5,0-7.5,3.4-7.5,7.8c0,4.5,3.1,7.7,7.6,7.7c2.4,0,4.8-1.2,6.3-3v8.8
		c-2.4,0.7-4.2,1.3-6.5,1.3c-3.9,0-7.7-1.5-10.6-4.2c-3.1-2.8-4.5-6.5-4.5-10.7c0-3.9,1.5-7.6,4.2-10.3c2.8-2.8,6.8-4.6,10.7-4.6
		c2.4,0,4.5,0.5,6.7,1.4V20.4z"/>
	<path class="st3" d="M266.6,17.2v4.7h8.3v6.2h-8.3V33h8.7v6.2h-16.1V10.9h16.1v6.2h-8.7V17.2z"/>
	<path class="st3" d="M303.4,39.2h-9.1l-6.9-10.9h-0.1v10.9H280V10.9h11c5.6,0,9.8,2.7,9.8,8.7c0,3.9-2.2,7.3-6.2,8L303.4,39.2z
		 M287.2,23.6h0.7c2.4,0,5.1-0.4,5.1-3.5s-2.7-3.5-5.1-3.5h-0.7V23.6z"/>
	<path class="st3" d="M316.6,39.2h-7.3v-22h-6.1v-6.3h19.5v6.2h-6.1V39.2z"/>
	<path class="st3" d="M332.7,39.2h-7.3V10.9h7.3V39.2z"/>
	<path class="st3" d="M344.8,17.2v4.7h8.1v6.2h-8.1v11.1h-7.3V10.9h16.2v6.2h-8.9V17.2z"/>
	<path class="st3" d="M365.1,39.2h-7.3V10.9h7.3V39.2z"/>
	<path class="st3" d="M390.1,20.4c-1.5-2-3.9-3.1-6.4-3.1c-4.5,0-7.5,3.4-7.5,7.8c0,4.5,3.1,7.7,7.6,7.7c2.4,0,4.8-1.2,6.3-3v8.8
		c-2.4,0.7-4.2,1.3-6.5,1.3c-3.9,0-7.7-1.5-10.6-4.2c-3.1-2.8-4.5-6.5-4.5-10.7c0-3.9,1.5-7.6,4.2-10.3c2.8-2.8,6.8-4.6,10.8-4.6
		c2.4,0,4.5,0.5,6.7,1.4v8.9H390.1z"/>
	<path class="st3" d="M401.8,34.3l-1.9,4.9h-7.8L403,11h8l10.6,28.2h-7.8l-1.8-4.9H401.8z M406.9,19.7L406.9,19.7l-3.1,9h6.1
		L406.9,19.7z"/>
	<path class="st3" d="M444,20.4c-1.5-2-3.9-3.1-6.4-3.1c-4.5,0-7.5,3.4-7.5,7.8c0,4.5,3.1,7.7,7.6,7.7c2.4,0,4.8-1.2,6.3-3v8.8
		c-2.4,0.7-4.2,1.3-6.5,1.3c-3.9,0-7.7-1.5-10.6-4.2c-3.1-2.8-4.5-6.5-4.5-10.7c0-3.9,1.5-7.6,4.2-10.3c2.8-2.8,6.8-4.6,10.8-4.6
		c2.4,0,4.5,0.5,6.7,1.4v8.9H444z"/>
	<path class="st3" d="M455.9,39.2h-7.3V10.9h7.3V39.2z"/>
	<path class="st3" d="M493.9,10.9h7.3l13.4,17.3h0.1V10.9h7.3v28.2h-7.3l-13.4-17.3h-0.1v17.3h-7.3L493.9,10.9L493.9,10.9z"/>
	<path class="st3" d="M560,20.4c-1.5-2-3.9-3.1-6.4-3.1c-4.5,0-7.5,3.4-7.5,7.8c0,4.5,3.1,7.7,7.6,7.7c2.4,0,4.8-1.2,6.3-3v8.8
		c-2.4,0.7-4.2,1.3-6.5,1.3c-3.9,0-7.7-1.5-10.6-4.2c-3.1-2.8-4.5-6.5-4.5-10.7c0-3.9,1.5-7.6,4.2-10.3c2.8-2.8,6.8-4.6,10.8-4.6
		c2.4,0,4.5,0.5,6.7,1.4L560,20.4L560,20.4z"/>
	<path class="st3" d="M571.7,34.3l-1.9,4.9H562L572.9,11h8l10.6,28.2h-7.8l-1.8-4.9H571.7z M576.8,19.7L576.8,19.7l-3.1,9h6.1
		L576.8,19.7z"/>
	<path class="st3" d="M602.7,39.2h-7.3v-22h-6.1v-6.3h19.5v6.2h-6.1L602.7,39.2L602.7,39.2z"/>
	<path class="st3" d="M616.4,34.3l-1.9,4.9h-7.8L617.6,11h8l10.6,28.2h-7.8l-1.8-4.9H616.4z M621.5,19.7L621.5,19.7l-3.1,9h6.1
		L621.5,19.7z"/>
	<path class="st3" d="M654,18.2c-1.3-1.1-3.1-1.9-4.9-1.9c-1.3,0-3.1,0.8-3.1,2.4c0,1.6,2,2.3,3.3,2.7l1.9,0.6c3.9,1.2,7,3.1,7,7.7
		c0,2.8-0.7,5.7-2.9,7.6c-2.2,1.9-5.2,2.7-8,2.7c-3.6,0-7-1.2-9.9-3.2l3.1-5.9c1.8,1.6,4,2.9,6.5,2.9c1.7,0,3.6-0.9,3.6-2.8
		c0-2.1-2.9-2.8-4.5-3.2c-4.6-1.3-7.6-2.5-7.6-8c0-5.7,4.1-9.5,9.7-9.5c2.8,0,6.3,0.9,8.8,2.3L654,18.2z"/>
	<path class="st3" d="M672.8,39.2h-7.3v-22h-6.1v-6.3h19.5v6.2h-6.1L672.8,39.2L672.8,39.2z"/>
	<path class="st3" d="M705,39.2h-9.1L689,28.3h-0.1v10.9h-7.3V10.9h11c5.6,0,9.8,2.7,9.8,8.7c0,3.9-2.2,7.3-6.2,8L705,39.2z
		 M688.9,23.6h0.7c2.4,0,5.1-0.4,5.1-3.5s-2.7-3.5-5.1-3.5h-0.7V23.6z"/>
	<path class="st3" d="M714.2,34.3l-1.9,4.9h-7.8L715.4,11h8L734,39.2h-7.8l-1.8-4.9C724.4,34.3,714.2,34.3,714.2,34.3z M719.3,19.7
		L719.3,19.7l-3.1,9h6.1L719.3,19.7z"/>
	<path class="st3" d="M743.6,33h8.8v6.2h-16.1V10.9h7.3V33z"/>
	<path class="st3" d="M386.5,61.2c-1-1.8-2.4-2.7-4.5-2.7c-2.2,0-4.7,1.5-4.7,4c0,2.2,2.2,3.4,3.9,4l2,0.8c4,1.6,7,3.8,7,8.5
		c0,5.1-4,8.8-9,8.8c-4.6,0-8.1-3.4-8.7-7.9l3.6-0.7c0,3.1,2.4,5.4,5.5,5.4c3,0,5.2-2.5,5.2-5.5s-2.4-4.3-4.9-5.4l-1.9-0.8
		c-3.2-1.4-6.1-3.2-6.1-7.2c0-4.6,4-7.3,8.3-7.3c3.1,0,5.7,1.5,7.3,4.3L386.5,61.2z"/>
	<path class="st3" d="M410.8,75.4c0,5.3-4.1,9.3-9.4,9.3c-5.2,0-9.4-4-9.4-9.3c0-5.3,4.1-9.3,9.4-9.3
		C406.7,66.1,410.8,70.1,410.8,75.4z M395.5,75.4c0,3.3,2.7,6.1,6,6.1s6-2.8,6-6.1s-2.7-6.1-6-6.1C398.1,69.3,395.5,72.1,395.5,75.4
		z"/>
	<path class="st3" d="M417.4,84.1H414V51.6h3.4V84.1z"/>
	<path class="st3" d="M427,58.6c0,1.3-1,2.3-2.3,2.3s-2.3-1-2.3-2.3s1-2.4,2.3-2.4C425.9,56.2,427,57.3,427,58.6z M426.3,84.1H423
		V66.6h3.4v17.5H426.3z"/>
	<path class="st3" d="M444.6,71.6c-1.3-1.5-3-2.4-5-2.4c-3.3,0-5.8,2.9-5.8,6.1c0,3.6,2.5,6.2,6.1,6.2c1.9,0,3.5-0.9,4.8-2.3v4.3
		c-1.5,0.8-3.1,1.2-4.8,1.2c-5.2,0-9.4-4-9.4-9.2c0-5.4,4.2-9.4,9.6-9.4c1.6,0,3.3,0.4,4.6,1.2v4.3H444.6z"/>
	<path class="st3" d="M453,58.6c0,1.3-1,2.3-2.3,2.3s-2.3-1-2.3-2.3s1-2.4,2.3-2.4C452,56.2,453,57.3,453,58.6z M452.4,84.1H449
		V66.6h3.4V84.1z"/>
	<path class="st3" d="M461.6,84.1h-3.4V69.7h-1.8v-3.1h1.8v-6.7h3.4v6.7h3.3v3.1h-3.3V84.1z"/>
	<path class="st3" d="M470,66.6v9.7c0,2.8,0.7,5.3,4,5.3s4-2.5,4-5.3v-9.7h3.4v10.1c0,4.8-2.2,8.1-7.4,8.1c-5.2,0-7.4-3.3-7.4-8.1
		V66.6H470z"/>
	<path class="st3" d="M499,81.4L499,81.4c-1.4,2-3.6,3.3-6,3.3c-5.4,0-8.4-4.5-8.4-9.5c0-4.8,3.2-9.2,8.2-9.2c2.6,0,4.7,1.3,6.1,3.4
		h0.1V51.6h3.4v32.5H499V81.4z M499.2,75.4c0-3.4-2.1-6.3-5.7-6.3c-3.5,0-5.5,3-5.5,6.3c0,3.3,2,6.4,5.5,6.4
		C497.2,81.7,499.2,78.8,499.2,75.4z"/>
	<path class="st3" d="M523.6,77.5l5.1-10.9h3.8l-8.8,18.1l-8.8-18.1h3.8L523.6,77.5z"/>
	<path class="st3" d="M536.3,75.9c0,3,2.1,5.8,5.3,5.8c2.6,0,4-1.3,5.2-3.4l2.8,1.6c-1.6,3-4.7,4.8-8.1,4.8c-5.4,0-8.6-4-8.6-9.2
		c0-5.4,2.9-9.4,8.5-9.4s8.2,4.1,8.2,9.3v0.5C549.6,75.9,536.3,75.9,536.3,75.9z M546.3,73.4c-0.4-2.6-2.1-4.4-4.8-4.4
		c-2.6,0-4.6,1.9-5,4.4H546.3z"/>
	<path class="st3" d="M556.1,69.4L556.1,69.4c0.9-2.1,2.6-3.4,4.9-3.4c1,0,1.9,0.3,2.8,0.9l-1.5,3.1c-0.6-0.5-1.3-0.7-2.1-0.7
		c-3.6,0-4.1,3.4-4.1,6.2v8.6h-3.4V66.6h3.4V69.4z"/>
	<path class="st3" d="M565.4,51.6h3.4v17.9h0.1c1.4-2.1,3.5-3.4,6.1-3.4c5.1,0,8.2,4.4,8.2,9.2c0,5-3,9.5-8.4,9.5
		c-2.5,0-4.6-1.3-6-3.3h-0.1v2.7h-3.4V51.6H565.4z M579.8,75.4c0-3.4-2.1-6.3-5.7-6.3c-3.5,0-5.5,3-5.5,6.3c0,3.3,2,6.4,5.5,6.4
		C577.8,81.7,579.8,78.8,579.8,75.4z"/>
	<path class="st3" d="M602.9,84.1h-3.4v-2.7h-0.1c-1.3,2-3.4,3.3-6,3.3c-5.4,0-8.4-4.5-8.4-9.5c0-4.8,3.2-9.2,8.3-9.2
		c2.6,0,4.7,1.3,6.1,3.4h0.1v-2.9h3.4L602.9,84.1L602.9,84.1z M599.7,75.4c0-3.4-2.1-6.3-5.7-6.3c-3.5,0-5.5,3-5.5,6.3
		c0,3.3,2,6.4,5.5,6.4C597.7,81.7,599.7,78.8,599.7,75.4z"/>
	<path class="st3" d="M610.8,84.1h-3.4V51.6h3.4V84.1z"/>
</g>
<g>
	<g>
		<path class="st5" d="M300.2,275.5H296l-3.2-5l0,0v5h-3.4v-12.9h5c2.6,0,4.5,1.2,4.5,4c0,1.8-1,3.3-2.8,3.7L300.2,275.5z
			 M292.8,268.3h0.3c1.1,0,2.3-0.2,2.3-1.6s-1.2-1.6-2.3-1.6h-0.3V268.3z"/>
		<path class="st5" d="M310.1,271.6h-6.6c0,1.3,0.7,2,2,2c0.7,0,1.2-0.2,1.5-0.8h3c-0.2,1-0.9,1.8-1.7,2.3c-0.8,0.5-1.8,0.7-2.8,0.7
			c-2.9,0-5.1-1.6-5.1-4.7c0-2.9,2-4.7,4.9-4.7c3.1,0,4.8,1.9,4.8,4.9L310.1,271.6L310.1,271.6z M307.2,269.8
			c-0.2-0.8-0.9-1.4-1.8-1.4s-1.7,0.5-1.9,1.4H307.2z"/>
		<path class="st5" d="M317.4,268.9c-0.5-0.3-1.2-0.4-1.7-0.4c-0.4,0-1,0.2-1,0.6c0,0.6,1,0.7,1.4,0.8c1.5,0.3,2.6,1,2.6,2.6
			c0,2.3-2.1,3.3-4.2,3.3c-1.3,0-2.5-0.4-3.6-1l1.1-2.2c0.6,0.4,1.7,0.9,2.5,0.9c0.4,0,1-0.2,1-0.7c0-0.7-1-0.7-2-1s-2-0.7-2-2.3
			c0-2.2,2-3.1,3.9-3.1c1,0,2,0.2,2.9,0.6L317.4,268.9z"/>
		<path class="st5" d="M323.4,267.6L323.4,267.6c0.6-0.9,1.7-1.3,2.7-1.3c2.6,0,4.4,2.2,4.4,4.7s-1.8,4.7-4.4,4.7
			c-1,0-2.1-0.4-2.7-1.1v5.2h-3.1v-13.2h3.1V267.6z M323.3,271.1c0,1.1,0.7,2,2,2s2-0.9,2-2s-0.7-2-2-2S323.3,270,323.3,271.1z"/>
		<path class="st5" d="M342,271.1c0,3-2.5,4.7-5.3,4.7s-5.3-1.7-5.3-4.7s2.5-4.7,5.3-4.7C339.6,266.4,342,268.1,342,271.1z
			 M334.7,271.1c0,1.1,0.7,2,2,2s2-0.9,2-2s-0.7-2-2-2C335.5,269.1,334.7,270,334.7,271.1z"/>
		<path class="st5" d="M346.6,267.8L346.6,267.8c0.8-1.1,1.6-1.4,2.9-1.4c2.4,0,3.3,1.5,3.3,3.7v5.4h-3.1v-4.3
			c0-0.8,0.1-2.3-1.4-2.3c-1.3,0-1.6,0.9-1.6,2v4.6h-3.1v-8.8h3.1L346.6,267.8L346.6,267.8z"/>
		<path class="st5" d="M360.6,268.9c-0.5-0.3-1.2-0.4-1.7-0.4c-0.4,0-1,0.2-1,0.6c0,0.6,1,0.7,1.4,0.8c1.5,0.3,2.6,1,2.6,2.6
			c0,2.3-2.1,3.3-4.2,3.3c-1.3,0-2.5-0.4-3.6-1l1.1-2.2c0.6,0.4,1.7,0.9,2.5,0.9c0.4,0,1-0.2,1-0.7c0-0.7-1-0.7-2-1s-2-0.7-2-2.3
			c0-2.2,2-3.1,3.9-3.1c1,0,2,0.2,2.9,0.6L360.6,268.9z"/>
		<path class="st5" d="M373.2,275.5h-3.1v-1l0,0c-0.5,0.9-1.6,1.3-2.7,1.3c-2.6,0-4.4-2.2-4.4-4.7s1.8-4.7,4.4-4.7
			c1,0,2.1,0.4,2.7,1.2v-0.9h3.1V275.5z M366.2,271.1c0,1.1,0.7,2,2,2s2-0.9,2-2s-0.7-2-2-2C366.9,269.1,366.2,270,366.2,271.1z"/>
		<path class="st5" d="M375.2,261.2h3.1v6.3c0.7-0.8,1.7-1.2,2.7-1.2c2.6,0,4.4,2.2,4.4,4.7s-1.8,4.7-4.4,4.7c-1,0-2.1-0.4-2.7-1.3
			l0,0v1h-3.1V261.2z M378.2,271.1c0,1.1,0.7,2,2,2s2-0.9,2-2s-0.7-2-2-2C379,269.1,378.2,270,378.2,271.1z"/>
		<path class="st5" d="M390.2,275.5H387v-14.3h3.1v14.3H390.2z"/>
		<path class="st5" d="M401.3,271.6h-6.6c0,1.3,0.7,2,2,2c0.7,0,1.2-0.2,1.5-0.8h3c-0.2,1-0.9,1.8-1.7,2.3c-0.8,0.5-1.8,0.7-2.8,0.7
			c-2.9,0-5.1-1.6-5.1-4.7c0-2.9,2-4.7,4.9-4.7c3.1,0,4.8,1.9,4.8,4.9L401.3,271.6L401.3,271.6z M398.4,269.8
			c-0.2-0.8-0.9-1.4-1.8-1.4s-1.7,0.5-1.9,1.4H398.4z"/>
		<path class="st5" d="M415.2,274.5L415.2,274.5c-0.6,0.9-1.7,1.3-2.7,1.3c-2.6,0-4.4-2.2-4.4-4.7s1.8-4.7,4.4-4.7
			c1,0,2.1,0.4,2.7,1.2v-6.3h3.1v14.3h-3.1V274.5z M411.3,271.1c0,1.1,0.7,2,2,2s2-0.9,2-2s-0.7-2-2-2S411.3,270,411.3,271.1z"/>
		<path class="st5" d="M429.4,271.6h-6.6c0,1.3,0.7,2,2,2c0.7,0,1.2-0.2,1.5-0.8h3c-0.2,1-0.9,1.8-1.7,2.3c-0.8,0.5-1.8,0.7-2.8,0.7
			c-2.9,0-5.1-1.6-5.1-4.7c0-2.9,2-4.7,4.9-4.7c3.1,0,4.8,1.9,4.8,4.9L429.4,271.6L429.4,271.6z M426.5,269.8
			c-0.2-0.8-0.9-1.4-1.8-1.4s-1.7,0.5-1.9,1.4H426.5z"/>
		<path class="st5" d="M326.5,296.1h-3.1v-1l0,0c-0.5,0.9-1.6,1.3-2.7,1.3c-2.6,0-4.4-2.2-4.4-4.7s1.8-4.7,4.4-4.7
			c1,0,2.1,0.4,2.7,1.2v-0.9h3.1V296.1z M319.5,291.7c0,1.1,0.7,2,2,2s2-0.9,2-2s-0.7-2-2-2S319.5,290.6,319.5,291.7z"/>
		<path class="st5" d="M335.2,295.1L335.2,295.1c-0.6,0.9-1.7,1.3-2.7,1.3c-2.6,0-4.4-2.2-4.4-4.7s1.8-4.7,4.4-4.7
			c1,0,2.1,0.4,2.7,1.2v-6.3h3.1v14.3h-3.1V295.1z M331.3,291.7c0,1.1,0.7,2,2,2s2-0.9,2-2s-0.7-2-2-2S331.3,290.6,331.3,291.7z"/>
		<path class="st5" d="M343.5,288.4L343.5,288.4c0.8-1,1.7-1.4,2.8-1.4c1.3,0,2.4,0.5,3,1.7c0.6-1.1,1.8-1.7,3-1.7
			c2.2,0,3,1.5,3,3.5v5.6h-3.1v-4.2c0-0.9,0-2.4-1.3-2.4c-1.4,0-1.5,1.4-1.5,2.4v4.2h-3.1v-4.2c0-1,0-2.5-1.4-2.5s-1.4,1.5-1.4,2.5
			v4.2h-3.1v-8.8h3.1V288.4z"/>
		<path class="st5" d="M360.6,283.9c0,1-0.8,1.8-1.8,1.8s-1.8-0.8-1.8-1.8s0.8-1.8,1.8-1.8C359.8,282.1,360.6,282.9,360.6,283.9z
			 M360.4,296.1h-3.1v-8.8h3.1V296.1z"/>
		<path class="st5" d="M368.3,289.5c-0.5-0.3-1.2-0.4-1.7-0.4c-0.4,0-1,0.2-1,0.6c0,0.6,1,0.7,1.4,0.8c1.5,0.3,2.6,1,2.6,2.6
			c0,2.3-2.1,3.3-4.2,3.3c-1.3,0-2.5-0.4-3.6-1l1.1-2.2c0.6,0.4,1.7,0.9,2.5,0.9c0.4,0,1-0.2,1-0.7c0-0.7-1-0.7-2-1s-2-0.7-2-2.3
			c0-2.2,2-3.1,3.9-3.1c1,0,2,0.2,2.9,0.6L368.3,289.5z"/>
		<path class="st5" d="M374.6,283.9c0,1-0.8,1.8-1.8,1.8s-1.8-0.8-1.8-1.8s0.8-1.8,1.8-1.8C373.8,282.1,374.6,282.9,374.6,283.9z
			 M374.4,296.1h-3.1v-8.8h3.1V296.1z"/>
		<path class="st5" d="M386.5,291.7c0,3-2.5,4.7-5.3,4.7s-5.3-1.7-5.3-4.7s2.5-4.7,5.3-4.7S386.5,288.7,386.5,291.7z M379.1,291.7
			c0,1.1,0.7,2,2,2s2-0.9,2-2s-0.7-2-2-2C379.9,289.7,379.1,290.6,379.1,291.7z M380.8,286l-1.4-1l2.4-3l1.9,1.4L380.8,286z"/>
		<path class="st5" d="M391,288.4L391,288.4c0.8-1.1,1.6-1.4,2.9-1.4c2.4,0,3.3,1.5,3.3,3.7v5.4H394v-4.3c0-0.8,0.1-2.3-1.4-2.3
			c-1.3,0-1.6,0.9-1.6,2v4.6h-3.1v-8.8h3.1V288.4z"/>
		<path class="st5" d="M407.7,281.8l-6.6,15.9h-2.5l6.6-15.9H407.7z"/>
		<path class="st5" d="M283.8,312.8h-6.6c0,1.3,0.7,2,2,2c0.7,0,1.2-0.2,1.5-0.8h3c-0.2,1-0.9,1.8-1.7,2.3c-0.8,0.5-1.8,0.7-2.8,0.7
			c-2.9,0-5.1-1.6-5.1-4.7c0-2.9,2-4.7,4.9-4.7c3.1,0,4.8,1.9,4.8,4.9L283.8,312.8L283.8,312.8z M280.9,311
			c-0.2-0.8-0.9-1.4-1.8-1.4s-1.7,0.5-1.9,1.4H280.9z"/>
		<path class="st5" d="M288.4,309L288.4,309c0.8-1,1.7-1.4,2.8-1.4c1.3,0,2.4,0.5,3,1.7c0.6-1.1,1.8-1.7,3-1.7c2.2,0,3,1.5,3,3.5
			v5.6H297v-4.2c0-0.9,0-2.4-1.3-2.4c-1.4,0-1.5,1.4-1.5,2.4v4.2h-3.1v-4.2c0-1,0-2.5-1.4-2.5s-1.4,1.5-1.4,2.5v4.2h-3.1v-8.8h3.1
			L288.4,309L288.4,309z"/>
		<path class="st5" d="M305.5,304.5c0,1-0.8,1.8-1.8,1.8s-1.8-0.8-1.8-1.8s0.8-1.8,1.8-1.8S305.5,303.5,305.5,304.5z M305.3,316.7
			h-3.1v-8.8h3.1V316.7z"/>
		<path class="st5" d="M313.2,310.1c-0.5-0.3-1.2-0.4-1.7-0.4c-0.4,0-1,0.2-1,0.6c0,0.6,1,0.7,1.4,0.8c1.5,0.3,2.6,1,2.6,2.6
			c0,2.3-2.1,3.3-4.2,3.3c-1.3,0-2.5-0.4-3.6-1l1.1-2.2c0.6,0.4,1.7,0.9,2.5,0.9c0.4,0,1-0.2,1-0.7c0-0.7-1-0.7-2-1s-2-0.7-2-2.3
			c0-2.2,2-3.1,3.9-3.1c1,0,2,0.2,2.9,0.6L313.2,310.1z"/>
		<path class="st5" d="M319.5,304.5c0,1-0.8,1.8-1.8,1.8s-1.8-0.8-1.8-1.8s0.8-1.8,1.8-1.8S319.5,303.5,319.5,304.5z M319.3,316.7
			h-3.1v-8.8h3.1V316.7z"/>
		<path class="st5" d="M331.4,312.3c0,3-2.5,4.7-5.3,4.7s-5.3-1.7-5.3-4.7s2.5-4.7,5.3-4.7C328.9,307.6,331.4,309.3,331.4,312.3z
			 M324.1,312.3c0,1.1,0.7,2,2,2s2-0.9,2-2s-0.7-2-2-2C324.8,310.3,324.1,311.2,324.1,312.3z M325.7,306.6l-1.4-1l2.4-3l1.9,1.4
			L325.7,306.6z"/>
		<path class="st5" d="M335.9,309L335.9,309c0.8-1.1,1.6-1.4,2.9-1.4c2.4,0,3.3,1.5,3.3,3.7v5.4H339v-4.3c0-0.8,0.1-2.3-1.4-2.3
			c-1.3,0-1.6,0.9-1.6,2v4.6h-3.1v-8.8h3.1L335.9,309L335.9,309z"/>
		<path class="st5" d="M358.5,302.4l-6.6,15.9h-2.5l6.6-15.9H358.5z"/>
		<path class="st5" d="M372.5,315.7L372.5,315.7c-0.6,0.9-1.7,1.3-2.7,1.3c-2.6,0-4.4-2.2-4.4-4.7s1.8-4.7,4.4-4.7
			c1,0,2.1,0.4,2.7,1.2v-6.3h3.1v14.3h-3.1V315.7z M368.6,312.3c0,1.1,0.7,2,2,2s2-0.9,2-2s-0.7-2-2-2S368.6,311.2,368.6,312.3z"/>
		<path class="st5" d="M386.6,312.8H380c0,1.3,0.7,2,2,2c0.7,0,1.2-0.2,1.5-0.8h3c-0.2,1-0.9,1.8-1.7,2.3c-0.8,0.5-1.8,0.7-2.8,0.7
			c-2.9,0-5.1-1.6-5.1-4.7c0-2.9,2-4.7,4.9-4.7c3.1,0,4.8,1.9,4.8,4.9L386.6,312.8L386.6,312.8z M383.7,311
			c-0.2-0.8-0.9-1.4-1.8-1.4s-1.7,0.5-1.9,1.4H383.7z"/>
		<path class="st5" d="M393.9,310.1c-0.5-0.3-1.2-0.4-1.7-0.4c-0.4,0-1,0.2-1,0.6c0,0.6,1,0.7,1.4,0.8c1.5,0.3,2.6,1,2.6,2.6
			c0,2.3-2.1,3.3-4.2,3.3c-1.3,0-2.5-0.4-3.6-1l1.1-2.2c0.6,0.4,1.7,0.9,2.5,0.9c0.4,0,1-0.2,1-0.7c0-0.7-1-0.7-2-1s-2-0.7-2-2.3
			c0-2.2,2-3.1,3.9-3.1c1,0,2,0.2,2.9,0.6L393.9,310.1z"/>
		<path class="st5" d="M399.9,308.9L399.9,308.9c0.6-0.9,1.7-1.3,2.7-1.3c2.6,0,4.4,2.2,4.4,4.7s-1.8,4.7-4.4,4.7
			c-1,0-2.1-0.4-2.7-1.1v5.2h-3.1v-13.2h3.1V308.9z M399.8,312.3c0,1.1,0.7,2,2,2s2-0.9,2-2s-0.7-2-2-2S399.8,311.2,399.8,312.3z"/>
		<path class="st5" d="M418.2,316.7h-3.1v-1l0,0c-0.5,0.9-1.6,1.3-2.7,1.3c-2.6,0-4.4-2.2-4.4-4.7s1.8-4.7,4.4-4.7
			c1,0,2.1,0.4,2.7,1.2v-0.9h3.1V316.7z M411.2,312.3c0,1.1,0.7,2,2,2s2-0.9,2-2s-0.7-2-2-2C411.9,310.3,411.2,311.2,411.2,312.3z"
			/>
		<path class="st5" d="M426.7,310.7c-0.5-0.3-1-0.6-1.6-0.6c-1.2,0-2.1,0.9-2.1,2.1c0,1.3,0.9,2.2,2.2,2.2c0.5,0,1.2-0.2,1.6-0.6
			v2.6c-0.7,0.3-1.4,0.5-2.2,0.5c-2.6,0-4.8-1.9-4.8-4.6c0-2.8,2.2-4.8,4.9-4.8c0.7,0,1.4,0.2,2.1,0.5v2.7H426.7z"/>
		<path class="st5" d="M431.7,302.4v6.6l0,0c0.7-1,1.6-1.4,2.8-1.4c2.2,0,3.3,1.5,3.3,3.7v5.4h-3.1v-4.5c0-1-0.2-2.1-1.4-2.1
			c-1.2,0-1.6,1.1-1.6,2.1v4.5h-3.1v-14.3L431.7,302.4L431.7,302.4z"/>
		<path class="st5" d="M449.9,312.3c0,3-2.5,4.7-5.3,4.7s-5.3-1.7-5.3-4.7s2.5-4.7,5.3-4.7C447.4,307.6,449.9,309.3,449.9,312.3z
			 M442.6,312.3c0,1.1,0.7,2,2,2s2-0.9,2-2s-0.7-2-2-2C443.3,310.3,442.6,311.2,442.6,312.3z"/>
	</g>
</g>
<rect id="XMLID_504_" x="221.5" y="942.6" class="st2" width="275" height="73.7"/>
<g>
	<g>
		<path class="st5" d="M300.2,964H296l-3.2-5l0,0v5h-3.4v-12.9h5c2.6,0,4.5,1.2,4.5,4c0,1.8-1,3.3-2.8,3.7L300.2,964z M292.8,956.9
			h0.3c1.1,0,2.3-0.2,2.3-1.6s-1.2-1.6-2.3-1.6h-0.3V956.9z"/>
		<path class="st5" d="M310.1,960.1h-6.6c0,1.3,0.7,2,2,2c0.7,0,1.2-0.2,1.5-0.8h3c-0.2,1-0.9,1.8-1.7,2.3c-0.8,0.5-1.8,0.7-2.8,0.7
			c-2.9,0-5.1-1.6-5.1-4.7c0-2.9,2-4.7,4.9-4.7c3.1,0,4.8,1.9,4.8,4.9L310.1,960.1L310.1,960.1z M307.2,958.3
			c-0.2-0.8-0.9-1.4-1.8-1.4s-1.7,0.5-1.9,1.4H307.2z"/>
		<path class="st5" d="M317.4,957.5c-0.5-0.3-1.2-0.4-1.7-0.4c-0.4,0-1,0.2-1,0.6c0,0.6,1,0.7,1.4,0.8c1.5,0.3,2.6,1,2.6,2.6
			c0,2.3-2.1,3.3-4.2,3.3c-1.3,0-2.5-0.4-3.6-1l1.1-2.2c0.6,0.4,1.7,0.9,2.5,0.9c0.4,0,1-0.2,1-0.7c0-0.7-1-0.7-2-1s-2-0.7-2-2.3
			c0-2.2,2-3.1,3.9-3.1c1,0,2,0.2,2.9,0.6L317.4,957.5z"/>
		<path class="st5" d="M323.4,956.2L323.4,956.2c0.6-0.9,1.7-1.3,2.7-1.3c2.6,0,4.4,2.2,4.4,4.7s-1.8,4.7-4.4,4.7
			c-1,0-2.1-0.4-2.7-1.1v5.2h-3.1v-13.2h3.1V956.2z M323.3,959.6c0,1.1,0.7,2,2,2s2-0.9,2-2s-0.7-2-2-2S323.3,958.6,323.3,959.6z"/>
		<path class="st5" d="M342,959.6c0,3-2.5,4.7-5.3,4.7s-5.3-1.7-5.3-4.7s2.5-4.7,5.3-4.7C339.6,954.9,342,956.6,342,959.6z
			 M334.7,959.6c0,1.1,0.7,2,2,2s2-0.9,2-2s-0.7-2-2-2C335.5,957.6,334.7,958.6,334.7,959.6z"/>
		<path class="st5" d="M346.6,956.4L346.6,956.4c0.8-1.1,1.6-1.4,2.9-1.4c2.4,0,3.3,1.5,3.3,3.7v5.4h-3.1v-4.3
			c0-0.8,0.1-2.3-1.4-2.3c-1.3,0-1.6,0.9-1.6,2v4.6h-3.1v-8.8h3.1L346.6,956.4L346.6,956.4z"/>
		<path class="st5" d="M360.6,957.5c-0.5-0.3-1.2-0.4-1.7-0.4c-0.4,0-1,0.2-1,0.6c0,0.6,1,0.7,1.4,0.8c1.5,0.3,2.6,1,2.6,2.6
			c0,2.3-2.1,3.3-4.2,3.3c-1.3,0-2.5-0.4-3.6-1l1.1-2.2c0.6,0.4,1.7,0.9,2.5,0.9c0.4,0,1-0.2,1-0.7c0-0.7-1-0.7-2-1s-2-0.7-2-2.3
			c0-2.2,2-3.1,3.9-3.1c1,0,2,0.2,2.9,0.6L360.6,957.5z"/>
		<path class="st5" d="M373.2,964h-3.1v-1l0,0c-0.5,0.9-1.6,1.3-2.7,1.3c-2.6,0-4.4-2.2-4.4-4.7s1.8-4.7,4.4-4.7
			c1,0,2.1,0.4,2.7,1.2v-0.9h3.1V964z M366.2,959.6c0,1.1,0.7,2,2,2s2-0.9,2-2s-0.7-2-2-2C366.9,957.6,366.2,958.6,366.2,959.6z"/>
		<path class="st5" d="M375.2,949.8h3.1v6.3c0.7-0.8,1.7-1.2,2.7-1.2c2.6,0,4.4,2.2,4.4,4.7s-1.8,4.7-4.4,4.7c-1,0-2.1-0.4-2.7-1.3
			l0,0v1h-3.1V949.8z M378.2,959.6c0,1.1,0.7,2,2,2s2-0.9,2-2s-0.7-2-2-2C379,957.6,378.2,958.6,378.2,959.6z"/>
		<path class="st5" d="M390.2,964H387v-14.3h3.1V964H390.2z"/>
		<path class="st5" d="M401.3,960.1h-6.6c0,1.3,0.7,2,2,2c0.7,0,1.2-0.2,1.5-0.8h3c-0.2,1-0.9,1.8-1.7,2.3c-0.8,0.5-1.8,0.7-2.8,0.7
			c-2.9,0-5.1-1.6-5.1-4.7c0-2.9,2-4.7,4.9-4.7c3.1,0,4.8,1.9,4.8,4.9L401.3,960.1L401.3,960.1z M398.4,958.3
			c-0.2-0.8-0.9-1.4-1.8-1.4s-1.7,0.5-1.9,1.4H398.4z"/>
		<path class="st5" d="M415.2,963L415.2,963c-0.6,0.9-1.7,1.3-2.7,1.3c-2.6,0-4.4-2.2-4.4-4.7s1.8-4.7,4.4-4.7c1,0,2.1,0.4,2.7,1.2
			v-6.3h3.1V964h-3.1V963z M411.3,959.6c0,1.1,0.7,2,2,2s2-0.9,2-2s-0.7-2-2-2S411.3,958.6,411.3,959.6z"/>
		<path class="st5" d="M429.4,960.1h-6.6c0,1.3,0.7,2,2,2c0.7,0,1.2-0.2,1.5-0.8h3c-0.2,1-0.9,1.8-1.7,2.3c-0.8,0.5-1.8,0.7-2.8,0.7
			c-2.9,0-5.1-1.6-5.1-4.7c0-2.9,2-4.7,4.9-4.7c3.1,0,4.8,1.9,4.8,4.9L429.4,960.1L429.4,960.1z M426.5,958.3
			c-0.2-0.8-0.9-1.4-1.8-1.4s-1.7,0.5-1.9,1.4H426.5z"/>
		<path class="st5" d="M326.5,984.6h-3.1v-1l0,0c-0.5,0.9-1.6,1.3-2.7,1.3c-2.6,0-4.4-2.2-4.4-4.7s1.8-4.7,4.4-4.7
			c1,0,2.1,0.4,2.7,1.2v-0.9h3.1V984.6z M319.5,980.2c0,1.1,0.7,2,2,2s2-0.9,2-2s-0.7-2-2-2C320.2,978.3,319.5,979.2,319.5,980.2z"
			/>
		<path class="st5" d="M335.2,983.7L335.2,983.7c-0.6,0.9-1.7,1.3-2.7,1.3c-2.6,0-4.4-2.2-4.4-4.7s1.8-4.7,4.4-4.7
			c1,0,2.1,0.4,2.7,1.2v-6.3h3.1v14.3h-3.1V983.7z M331.3,980.2c0,1.1,0.7,2,2,2s2-0.9,2-2s-0.7-2-2-2S331.3,979.2,331.3,980.2z"/>
		<path class="st5" d="M343.5,976.9L343.5,976.9c0.8-1,1.7-1.4,2.8-1.4c1.3,0,2.4,0.5,3,1.7c0.6-1.1,1.8-1.7,3-1.7
			c2.2,0,3,1.5,3,3.5v5.6h-3.1v-4.2c0-0.9,0-2.4-1.3-2.4c-1.4,0-1.5,1.4-1.5,2.4v4.2h-3.1v-4.2c0-1,0-2.5-1.4-2.5s-1.4,1.5-1.4,2.5
			v4.2h-3.1v-8.8h3.1V976.9z"/>
		<path class="st5" d="M360.6,972.4c0,1-0.8,1.8-1.8,1.8s-1.8-0.8-1.8-1.8s0.8-1.8,1.8-1.8C359.8,970.7,360.6,971.5,360.6,972.4z
			 M360.4,984.6h-3.1v-8.8h3.1V984.6z"/>
		<path class="st5" d="M368.3,978.1c-0.5-0.3-1.2-0.4-1.7-0.4c-0.4,0-1,0.2-1,0.6c0,0.6,1,0.7,1.4,0.8c1.5,0.3,2.6,1,2.6,2.6
			c0,2.3-2.1,3.3-4.2,3.3c-1.3,0-2.5-0.4-3.6-1l1.1-2.2c0.6,0.4,1.7,0.9,2.5,0.9c0.4,0,1-0.2,1-0.7c0-0.7-1-0.7-2-1s-2-0.7-2-2.3
			c0-2.2,2-3.1,3.9-3.1c1,0,2,0.2,2.9,0.6L368.3,978.1z"/>
		<path class="st5" d="M374.6,972.4c0,1-0.8,1.8-1.8,1.8s-1.8-0.8-1.8-1.8s0.8-1.8,1.8-1.8C373.8,970.7,374.6,971.5,374.6,972.4z
			 M374.4,984.6h-3.1v-8.8h3.1V984.6z"/>
		<path class="st5" d="M386.5,980.2c0,3-2.5,4.7-5.3,4.7s-5.3-1.7-5.3-4.7s2.5-4.7,5.3-4.7S386.5,977.2,386.5,980.2z M379.1,980.2
			c0,1.1,0.7,2,2,2s2-0.9,2-2s-0.7-2-2-2C379.9,978.3,379.1,979.2,379.1,980.2z M380.8,974.5l-1.4-1l2.4-3l1.9,1.4L380.8,974.5z"/>
		<path class="st5" d="M391,977L391,977c0.8-1.1,1.6-1.4,2.9-1.4c2.4,0,3.3,1.5,3.3,3.7v5.4H394v-4.3c0-0.8,0.1-2.3-1.4-2.3
			c-1.3,0-1.6,0.9-1.6,2v4.6h-3.1v-8.8h3.1V977z"/>
		<path class="st5" d="M407.7,970.4l-6.6,15.9h-2.5l6.6-15.9H407.7z"/>
		<path class="st5" d="M283.8,1001.4h-6.6c0,1.3,0.7,2,2,2c0.7,0,1.2-0.2,1.5-0.8h3c-0.2,1-0.9,1.8-1.7,2.3
			c-0.8,0.5-1.8,0.7-2.8,0.7c-2.9,0-5.1-1.6-5.1-4.7c0-2.9,2-4.7,4.9-4.7c3.1,0,4.8,1.9,4.8,4.9L283.8,1001.4L283.8,1001.4z
			 M280.9,999.6c-0.2-0.8-0.9-1.4-1.8-1.4s-1.7,0.5-1.9,1.4H280.9z"/>
		<path class="st5" d="M288.4,997.5L288.4,997.5c0.8-1,1.7-1.4,2.8-1.4c1.3,0,2.4,0.5,3,1.7c0.6-1.1,1.8-1.7,3-1.7
			c2.2,0,3,1.5,3,3.5v5.6H297v-4.2c0-0.9,0-2.4-1.3-2.4c-1.4,0-1.5,1.4-1.5,2.4v4.2h-3.1v-4.2c0-1,0-2.5-1.4-2.5s-1.4,1.5-1.4,2.5
			v4.2h-3.1v-8.8h3.1L288.4,997.5L288.4,997.5z"/>
		<path class="st5" d="M305.5,993.1c0,1-0.8,1.8-1.8,1.8s-1.8-0.8-1.8-1.8s0.8-1.8,1.8-1.8S305.5,992.1,305.5,993.1z M305.3,1005.3
			h-3.1v-8.8h3.1V1005.3z"/>
		<path class="st5" d="M313.2,998.7c-0.5-0.3-1.2-0.4-1.7-0.4c-0.4,0-1,0.2-1,0.6c0,0.6,1,0.7,1.4,0.8c1.5,0.3,2.6,1,2.6,2.6
			c0,2.3-2.1,3.3-4.2,3.3c-1.3,0-2.5-0.4-3.6-1l1.1-2.2c0.6,0.4,1.7,0.9,2.5,0.9c0.4,0,1-0.2,1-0.7c0-0.7-1-0.7-2-1s-2-0.7-2-2.3
			c0-2.2,2-3.1,3.9-3.1c1,0,2,0.2,2.9,0.6L313.2,998.7z"/>
		<path class="st5" d="M319.5,993.1c0,1-0.8,1.8-1.8,1.8s-1.8-0.8-1.8-1.8s0.8-1.8,1.8-1.8S319.5,992.1,319.5,993.1z M319.3,1005.3
			h-3.1v-8.8h3.1V1005.3z"/>
		<path class="st5" d="M331.4,1000.9c0,3-2.5,4.7-5.3,4.7s-5.3-1.7-5.3-4.7s2.5-4.7,5.3-4.7S331.4,997.9,331.4,1000.9z
			 M324.1,1000.9c0,1.1,0.7,2,2,2s2-0.9,2-2s-0.7-2-2-2C324.8,998.9,324.1,999.8,324.1,1000.9z M325.7,995.1l-1.4-1l2.4-3l1.9,1.4
			L325.7,995.1z"/>
		<path class="st5" d="M335.9,997.6L335.9,997.6c0.8-1.1,1.6-1.4,2.9-1.4c2.4,0,3.3,1.5,3.3,3.7v5.4H339v-4.3c0-0.8,0.1-2.3-1.4-2.3
			c-1.3,0-1.6,0.9-1.6,2v4.6h-3.1v-8.8h3.1L335.9,997.6L335.9,997.6z"/>
		<path class="st5" d="M358.5,991l-6.6,15.9h-2.5L356,991H358.5z"/>
		<path class="st5" d="M372.5,1004.3L372.5,1004.3c-0.6,0.9-1.7,1.3-2.7,1.3c-2.6,0-4.4-2.2-4.4-4.7s1.8-4.7,4.4-4.7
			c1,0,2.1,0.4,2.7,1.2V991h3.1v14.3h-3.1V1004.3z M368.6,1000.9c0,1.1,0.7,2,2,2s2-0.9,2-2s-0.7-2-2-2S368.6,999.8,368.6,1000.9z"
			/>
		<path class="st5" d="M386.6,1001.4H380c0,1.3,0.7,2,2,2c0.7,0,1.2-0.2,1.5-0.8h3c-0.2,1-0.9,1.8-1.7,2.3c-0.8,0.5-1.8,0.7-2.8,0.7
			c-2.9,0-5.1-1.6-5.1-4.7c0-2.9,2-4.7,4.9-4.7c3.1,0,4.8,1.9,4.8,4.9L386.6,1001.4L386.6,1001.4z M383.7,999.6
			c-0.2-0.8-0.9-1.4-1.8-1.4s-1.7,0.5-1.9,1.4H383.7z"/>
		<path class="st5" d="M393.9,998.7c-0.5-0.3-1.2-0.4-1.7-0.4c-0.4,0-1,0.2-1,0.6c0,0.6,1,0.7,1.4,0.8c1.5,0.3,2.6,1,2.6,2.6
			c0,2.3-2.1,3.3-4.2,3.3c-1.3,0-2.5-0.4-3.6-1l1.1-2.2c0.6,0.4,1.7,0.9,2.5,0.9c0.4,0,1-0.2,1-0.7c0-0.7-1-0.7-2-1s-2-0.7-2-2.3
			c0-2.2,2-3.1,3.9-3.1c1,0,2,0.2,2.9,0.6L393.9,998.7z"/>
		<path class="st5" d="M399.9,997.4L399.9,997.4c0.6-0.9,1.7-1.3,2.7-1.3c2.6,0,4.4,2.2,4.4,4.7s-1.8,4.7-4.4,4.7
			c-1,0-2.1-0.4-2.7-1.1v5.2h-3.1v-13.2h3.1V997.4z M399.8,1000.9c0,1.1,0.7,2,2,2s2-0.9,2-2s-0.7-2-2-2S399.8,999.8,399.8,1000.9z"
			/>
		<path class="st5" d="M418.2,1005.3h-3.1v-1l0,0c-0.5,0.9-1.6,1.3-2.7,1.3c-2.6,0-4.4-2.2-4.4-4.7s1.8-4.7,4.4-4.7
			c1,0,2.1,0.4,2.7,1.2v-0.9h3.1V1005.3z M411.2,1000.9c0,1.1,0.7,2,2,2s2-0.9,2-2s-0.7-2-2-2C411.9,998.9,411.2,999.8,411.2,1000.9
			z"/>
		<path class="st5" d="M426.7,999.3c-0.5-0.3-1-0.6-1.6-0.6c-1.2,0-2.1,0.9-2.1,2.1c0,1.3,0.9,2.2,2.2,2.2c0.5,0,1.2-0.2,1.6-0.6
			v2.6c-0.7,0.3-1.4,0.5-2.2,0.5c-2.6,0-4.8-1.9-4.8-4.6c0-2.8,2.2-4.8,4.9-4.8c0.7,0,1.4,0.2,2.1,0.5v2.7H426.7z"/>
		<path class="st5" d="M431.7,991v6.6l0,0c0.7-1,1.6-1.4,2.8-1.4c2.2,0,3.3,1.5,3.3,3.7v5.4h-3.1v-4.5c0-1-0.2-2.1-1.4-2.1
			c-1.2,0-1.6,1.1-1.6,2.1v4.5h-3.1V991H431.7z"/>
		<path class="st5" d="M449.9,1000.9c0,3-2.5,4.7-5.3,4.7s-5.3-1.7-5.3-4.7s2.5-4.7,5.3-4.7S449.9,997.9,449.9,1000.9z
			 M442.6,1000.9c0,1.1,0.7,2,2,2s2-0.9,2-2s-0.7-2-2-2C443.3,998.9,442.6,999.8,442.6,1000.9z"/>
	</g>
</g>
<rect id="XMLID_541_" x="552.4" y="591.5" class="st2" width="275" height="91.6"/>
<rect id="XMLID_531_" x="234.1" y="833.7" class="st2" width="258.6" height="66.8"/>
<rect id="XMLID_527_" x="222.9" y="376.7" class="st2" width="275" height="59.4"/>
<g>
	<g>
		<path class="st5" d="M314.7,849.8v8.7c0,2.7-1.4,4.6-4.3,4.6c-1.4,0-2.6-0.7-3.3-1.9l1.9-2c0.4,0.5,0.9,1.1,1.4,1.1
			c1,0,1-1.2,1-1.9v-8.5L314.7,849.8L314.7,849.8z"/>
		<path class="st5" d="M325.8,858.9h-6.6c0,1.3,0.7,2,2,2c0.7,0,1.2-0.2,1.5-0.8h3c-0.2,1-0.9,1.8-1.7,2.3c-0.8,0.5-1.8,0.7-2.8,0.7
			c-2.9,0-5.1-1.6-5.1-4.7c0-2.9,2-4.7,4.9-4.7c3.1,0,4.8,1.9,4.8,4.9L325.8,858.9L325.8,858.9z M322.9,857
			c-0.2-0.8-0.9-1.4-1.8-1.4s-1.7,0.5-1.9,1.4H322.9z"/>
		<path class="st5" d="M330.6,862.7h-3.1v-6.2h-1.1v-2.6h1.1v-1.1c0-1.2,0-2.1,0.9-3.1c0.8-0.9,1.9-1.4,3.1-1.4
			c0.5,0,0.9,0.1,1.3,0.3v2.7c-0.4-0.2-0.7-0.3-1.1-0.3c-0.8,0-1.1,0.5-1.1,1.5v1.4h2.2v2.6h-2.2L330.6,862.7L330.6,862.7z"/>
		<path class="st5" d="M343.5,862.7h-3.1v-1l0,0c-0.5,0.9-1.6,1.3-2.7,1.3c-2.6,0-4.4-2.2-4.4-4.7s1.8-4.7,4.4-4.7
			c1,0,2.1,0.4,2.7,1.2v-0.9h3.1V862.7z M336.5,858.3c0,1.1,0.7,2,2,2s2-0.9,2-2s-0.7-2-2-2S336.5,857.3,336.5,858.3z"/>
		<path class="st5" d="M349,862.7h-3.1v-6.2h-1v-2.6h1v-2.6h3.1v2.6h1.8v2.6H349V862.7z"/>
		<path class="st5" d="M354.8,853.9v4.7c0,1.1,0.3,1.9,1.6,1.9c1.3,0,1.6-0.8,1.6-1.9v-4.7h3.1v5.3c0,2.9-2,3.8-4.7,3.8
			c-2.6,0-4.7-0.9-4.7-3.8v-5.3H354.8z"/>
		<path class="st5" d="M366.2,855.4L366.2,855.4c0.6-1.1,1.7-1.6,2.9-1.6h0.6v3c-0.4-0.2-0.8-0.3-1.3-0.3c-1.7,0-2.2,1.2-2.2,2.7
			v3.6h-3.1V854h3.1V855.4z"/>
		<path class="st5" d="M380.5,862.7h-3.1v-1l0,0c-0.5,0.9-1.6,1.3-2.7,1.3c-2.6,0-4.4-2.2-4.4-4.7s1.8-4.7,4.4-4.7
			c1,0,2.1,0.4,2.7,1.2v-0.9h3.1V862.7z M373.5,858.3c0,1.1,0.7,2,2,2s2-0.9,2-2s-0.7-2-2-2S373.5,857.3,373.5,858.3z"/>
		<path class="st5" d="M395.1,861.8L395.1,861.8c-0.6,0.9-1.7,1.3-2.7,1.3c-2.6,0-4.4-2.2-4.4-4.7s1.8-4.7,4.4-4.7
			c1,0,2.1,0.4,2.7,1.2v-6.3h3.1v14.3h-3.1V861.8z M391.2,858.3c0,1.1,0.7,2,2,2s2-0.9,2-2s-0.7-2-2-2S391.2,857.3,391.2,858.3z"/>
		<path class="st5" d="M409.2,858.9h-6.6c0,1.3,0.7,2,2,2c0.7,0,1.2-0.2,1.5-0.8h3c-0.2,1-0.9,1.8-1.7,2.3c-0.8,0.5-1.8,0.7-2.8,0.7
			c-2.9,0-5.1-1.6-5.1-4.7c0-2.9,2-4.7,4.9-4.7c3.1,0,4.8,1.9,4.8,4.9L409.2,858.9L409.2,858.9z M406.3,857
			c-0.2-0.8-0.9-1.4-1.8-1.4s-1.7,0.5-1.9,1.4H406.3z"/>
		<path class="st5" d="M277.4,873.7c-0.6-0.5-1.4-0.9-2.2-0.9c-0.6,0-1.4,0.4-1.4,1.1c0,0.8,0.9,1,1.5,1.2l0.9,0.3
			c1.8,0.5,3.2,1.4,3.2,3.5c0,1.3-0.3,2.6-1.3,3.5s-2.4,1.2-3.7,1.2c-1.6,0-3.2-0.5-4.6-1.5l1.4-2.7c0.8,0.7,1.8,1.3,3,1.3
			c0.8,0,1.6-0.4,1.6-1.3c0-0.9-1.3-1.3-2-1.5c-2.1-0.6-3.5-1.2-3.5-3.7c0-2.6,1.9-4.3,4.5-4.3c1.3,0,2.9,0.4,4.1,1.1L277.4,873.7z"
			/>
		<path class="st5" d="M289.8,879.5h-6.6c0,1.3,0.7,2,2,2c0.7,0,1.2-0.2,1.5-0.8h3c-0.2,1-0.9,1.8-1.7,2.3c-0.8,0.5-1.8,0.7-2.8,0.7
			c-2.9,0-5.1-1.6-5.1-4.7c0-2.9,2-4.7,4.9-4.7c3.1,0,4.8,1.9,4.8,4.9L289.8,879.5L289.8,879.5z M286.9,877.7
			c-0.2-0.8-0.9-1.4-1.8-1.4s-1.7,0.5-1.9,1.4H286.9z"/>
		<path class="st5" d="M294.4,876L294.4,876c0.6-1.1,1.7-1.6,2.9-1.6h0.6v3c-0.4-0.2-0.8-0.3-1.3-0.3c-1.7,0-2.2,1.2-2.2,2.7v3.6
			h-3.1v-8.8h3.1V876z"/>
		<path class="st5" d="M303.7,879.1l2.1-4.5h3.5l-4.6,8.8h-2l-4.6-8.8h3.5L303.7,879.1z"/>
		<path class="st5" d="M313.4,871.2c0,1-0.8,1.8-1.8,1.8s-1.8-0.8-1.8-1.8s0.8-1.8,1.8-1.8S313.4,870.2,313.4,871.2z M313.2,883.3
			H310v-8.8h3.1v8.8H313.2z"/>
		<path class="st5" d="M321.6,877.4c-0.5-0.3-1-0.6-1.6-0.6c-1.2,0-2.1,0.9-2.1,2.1c0,1.3,0.9,2.2,2.2,2.2c0.5,0,1.2-0.2,1.6-0.6
			v2.6c-0.7,0.3-1.4,0.5-2.2,0.5c-2.6,0-4.8-1.9-4.8-4.6c0-2.8,2.2-4.8,4.9-4.8c0.7,0,1.4,0.2,2.1,0.5v2.7H321.6z"/>
		<path class="st5" d="M326.8,871.2c0,1-0.8,1.8-1.8,1.8s-1.8-0.8-1.8-1.8s0.8-1.8,1.8-1.8S326.8,870.2,326.8,871.2z M326.6,883.3
			h-3.1v-8.8h3.1V883.3z"/>
		<path class="st5" d="M338.7,878.9c0,3-2.5,4.7-5.3,4.7s-5.3-1.7-5.3-4.7s2.5-4.7,5.3-4.7S338.7,875.9,338.7,878.9z M331.4,878.9
			c0,1.1,0.7,2,2,2s2-0.9,2-2s-0.7-2-2-2C332.1,877,331.4,877.9,331.4,878.9z"/>
		<path class="st5" d="M345.9,876.8c-0.5-0.3-1.2-0.4-1.7-0.4c-0.4,0-1,0.2-1,0.6c0,0.6,1,0.7,1.4,0.8c1.5,0.3,2.6,1,2.6,2.6
			c0,2.3-2.1,3.3-4.2,3.3c-1.3,0-2.5-0.4-3.6-1l1.1-2.2c0.6,0.4,1.7,0.9,2.5,0.9c0.4,0,1-0.2,1-0.7c0-0.7-1-0.7-2-1s-2-0.7-2-2.3
			c0-2.2,2-3.1,3.9-3.1c1,0,2,0.2,2.9,0.6L345.9,876.8z"/>
		<path class="st5" d="M364.1,874.7c-0.7-0.9-1.8-1.4-3-1.4c-2.1,0-3.5,1.6-3.5,3.6s1.4,3.5,3.5,3.5c1.1,0,2.2-0.5,2.9-1.4v4
			c-1.1,0.3-1.9,0.6-3,0.6c-1.8,0-3.5-0.7-4.9-1.9c-1.4-1.3-2.1-3-2.1-4.9c0-1.8,0.7-3.5,1.9-4.7c1.3-1.3,3.1-2.1,4.9-2.1
			c1.1,0,2.1,0.2,3.1,0.7v4H364.1z"/>
		<path class="st5" d="M375.8,883.3h-3.1v-1l0,0c-0.5,0.9-1.6,1.3-2.7,1.3c-2.6,0-4.4-2.2-4.4-4.7s1.8-4.7,4.4-4.7
			c1,0,2.1,0.4,2.7,1.2v-0.9h3.1V883.3z M368.7,878.9c0,1.1,0.7,2,2,2s2-0.9,2-2s-0.7-2-2-2C369.5,877,368.7,877.9,368.7,878.9z"/>
		<path class="st5" d="M381.3,883.3h-3.1v-6.2h-1v-2.6h1v-2.6h3.1v2.6h1.8v2.6h-1.8V883.3z"/>
		<path class="st5" d="M393.7,883.3h-3.1v-1l0,0c-0.5,0.9-1.6,1.3-2.7,1.3c-2.6,0-4.4-2.2-4.4-4.7s1.8-4.7,4.4-4.7
			c1,0,2.1,0.4,2.7,1.2v-0.9h3.1V883.3z M386.6,878.9c0,1.1,0.7,2,2,2s2-0.9,2-2s-0.7-2-2-2C387.3,877,386.6,877.9,386.6,878.9z"/>
		<path class="st5" d="M401.6,876.8c-0.5-0.3-1.2-0.4-1.7-0.4c-0.4,0-1,0.2-1,0.6c0,0.6,1,0.7,1.4,0.8c1.5,0.3,2.6,1,2.6,2.6
			c0,2.3-2.1,3.3-4.2,3.3c-1.3,0-2.5-0.4-3.6-1l1.1-2.2c0.6,0.4,1.7,0.9,2.5,0.9c0.4,0,1-0.2,1-0.7c0-0.7-1-0.7-2-1s-2-0.7-2-2.3
			c0-2.2,2-3.1,3.9-3.1c1,0,2,0.2,2.9,0.6L401.6,876.8z"/>
		<path class="st5" d="M408,883.3h-3.1v-6.2h-1v-2.6h1v-2.6h3.1v2.6h1.8v2.6H408V883.3z"/>
		<path class="st5" d="M413.9,876L413.9,876c0.6-1.1,1.7-1.6,2.9-1.6h0.6v3c-0.4-0.2-0.8-0.3-1.3-0.3c-1.7,0-2.2,1.2-2.2,2.7v3.6
			h-3.1v-8.8h3.1V876z"/>
		<path class="st5" d="M428.1,883.3H425v-1l0,0c-0.5,0.9-1.6,1.3-2.7,1.3c-2.6,0-4.4-2.2-4.4-4.7s1.8-4.7,4.4-4.7
			c1,0,2.1,0.4,2.7,1.2v-0.9h3.1V883.3z M421.1,878.9c0,1.1,0.7,2,2,2s2-0.9,2-2s-0.7-2-2-2C421.8,877,421.1,877.9,421.1,878.9z"/>
		<path class="st5" d="M433.3,883.3h-3.1V869h3.1V883.3z"/>
		<path class="st5" d="M444.5,879.5h-6.6c0,1.3,0.7,2,2,2c0.7,0,1.2-0.2,1.5-0.8h3c-0.2,1-0.9,1.8-1.7,2.3c-0.8,0.5-1.8,0.7-2.8,0.7
			c-2.9,0-5.1-1.6-5.1-4.7c0-2.9,2-4.7,4.9-4.7c3.1,0,4.8,1.9,4.8,4.9L444.5,879.5L444.5,879.5z M441.6,877.7
			c-0.2-0.8-0.9-1.4-1.8-1.4s-1.7,0.5-1.9,1.4H441.6z"/>
		<path class="st5" d="M451.7,876.8c-0.5-0.3-1.2-0.4-1.7-0.4c-0.4,0-1,0.2-1,0.6c0,0.6,1,0.7,1.4,0.8c1.5,0.3,2.6,1,2.6,2.6
			c0,2.3-2.1,3.3-4.2,3.3c-1.3,0-2.5-0.4-3.6-1l1.1-2.2c0.6,0.4,1.7,0.9,2.5,0.9c0.4,0,1-0.2,1-0.7c0-0.7-1-0.7-2-1s-2-0.7-2-2.3
			c0-2.2,2-3.1,3.9-3.1c1,0,2,0.2,2.9,0.6L451.7,876.8z"/>
	</g>
</g>
<rect id="XMLID_518_" x="552.4" y="488.6" class="st2" width="275" height="66.6"/>
<g>
	<g>
		<path class="st5" d="M574.1,516.7h-3.4v-10.1h-2.8v-2.9h8.9v2.9H574L574.1,516.7L574.1,516.7z"/>
		<path class="st5" d="M585.8,512.8h-6.6c0,1.3,0.7,2,2,2c0.7,0,1.2-0.2,1.5-0.8h3c-0.2,1-0.9,1.8-1.7,2.3s-1.8,0.7-2.8,0.7
			c-2.9,0-5.1-1.6-5.1-4.7c0-2.9,2-4.7,4.9-4.7c3.1,0,4.8,1.9,4.8,4.9L585.8,512.8L585.8,512.8z M580.6,506.5l-1.4-1l2.4-3l1.9,1.4
			L580.6,506.5z M582.9,511c-0.2-0.8-0.9-1.4-1.8-1.4c-0.9,0-1.7,0.5-1.9,1.4H582.9z"/>
		<path class="st5" d="M593.6,510.7c-0.5-0.3-1-0.6-1.6-0.6c-1.2,0-2.1,0.9-2.1,2.1c0,1.3,0.9,2.2,2.2,2.2c0.5,0,1.2-0.2,1.6-0.6
			v2.6c-0.7,0.3-1.4,0.5-2.2,0.5c-2.6,0-4.8-1.9-4.8-4.6c0-2.8,2.2-4.8,4.9-4.8c0.7,0,1.4,0.2,2.1,0.5v2.7H593.6z"/>
		<path class="st5" d="M598.7,509L598.7,509c0.8-1.1,1.6-1.4,2.9-1.4c2.4,0,3.3,1.5,3.3,3.7v5.4h-3.1v-4.3c0-0.8,0.1-2.3-1.4-2.3
			c-1.3,0-1.6,0.9-1.6,2v4.6h-3.1v-8.8h3.1v1.1H598.7z"/>
		<path class="st5" d="M610.2,504.5c0,1-0.8,1.8-1.8,1.8s-1.8-0.8-1.8-1.8s0.8-1.8,1.8-1.8S610.2,503.5,610.2,504.5z M610,516.7
			h-3.1v-8.8h3.1V516.7z"/>
		<path class="st5" d="M618.4,510.7c-0.5-0.3-1-0.6-1.6-0.6c-1.2,0-2.1,0.9-2.1,2.1c0,1.3,0.9,2.2,2.2,2.2c0.5,0,1.2-0.2,1.6-0.6
			v2.6c-0.7,0.3-1.4,0.5-2.2,0.5c-2.6,0-4.8-1.9-4.8-4.6c0-2.8,2.2-4.8,4.9-4.8c0.7,0,1.4,0.2,2.1,0.5v2.7H618.4z"/>
		<path class="st5" d="M630.3,512.3c0,3-2.5,4.7-5.3,4.7s-5.3-1.7-5.3-4.7s2.5-4.7,5.3-4.7C627.9,507.6,630.3,509.3,630.3,512.3z
			 M623,512.3c0,1.1,0.7,2,2,2s2-0.9,2-2c0-1.1-0.7-2-2-2C623.8,510.3,623,511.2,623,512.3z"/>
		<path class="st5" d="M644.3,515.7L644.3,515.7c-0.6,0.9-1.7,1.3-2.7,1.3c-2.6,0-4.4-2.2-4.4-4.7s1.8-4.7,4.4-4.7
			c1,0,2.1,0.4,2.7,1.2v-6.3h3.1v14.3h-3.1V515.7z M640.3,512.3c0,1.1,0.7,2,2,2s2-0.9,2-2c0-1.1-0.7-2-2-2
			C641.1,510.3,640.3,511.2,640.3,512.3z"/>
		<path class="st5" d="M658.4,512.8h-6.6c0,1.3,0.7,2,2,2c0.7,0,1.2-0.2,1.5-0.8h3c-0.2,1-0.9,1.8-1.7,2.3s-1.8,0.7-2.8,0.7
			c-2.9,0-5.1-1.6-5.1-4.7c0-2.9,2-4.7,4.9-4.7c3.1,0,4.8,1.9,4.8,4.9L658.4,512.8L658.4,512.8z M655.5,511
			c-0.2-0.8-0.9-1.4-1.8-1.4c-0.9,0-1.7,0.5-1.9,1.4H655.5z"/>
		<path class="st5" d="M662.9,516.7h-3.1v-14.3h3.1V516.7z"/>
		<path class="st5" d="M677.5,515.7L677.5,515.7c-0.6,0.9-1.7,1.3-2.7,1.3c-2.6,0-4.4-2.2-4.4-4.7s1.8-4.7,4.4-4.7
			c1,0,2.1,0.4,2.7,1.2v-6.3h3.1v14.3h-3.1V515.7z M673.6,512.3c0,1.1,0.7,2,2,2s2-0.9,2-2c0-1.1-0.7-2-2-2
			C674.4,510.3,673.6,511.2,673.6,512.3z"/>
		<path class="st5" d="M691.7,512.8h-6.6c0,1.3,0.7,2,2,2c0.7,0,1.2-0.2,1.5-0.8h3c-0.2,1-0.9,1.8-1.7,2.3s-1.8,0.7-2.8,0.7
			c-2.9,0-5.1-1.6-5.1-4.7c0-2.9,2-4.7,4.9-4.7c3.1,0,4.8,1.9,4.8,4.9L691.7,512.8L691.7,512.8z M688.8,511
			c-0.2-0.8-0.9-1.4-1.8-1.4c-0.9,0-1.7,0.5-1.9,1.4H688.8z"/>
		<path class="st5" d="M696.1,508.8L696.1,508.8c0.6-0.9,1.7-1.3,2.7-1.3c2.6,0,4.4,2.2,4.4,4.7s-1.8,4.7-4.4,4.7
			c-1,0-2.1-0.4-2.7-1.1v5.2H693v-13.2h3.1V508.8z M696,512.3c0,1.1,0.7,2,2,2s2-0.9,2-2c0-1.1-0.7-2-2-2
			C696.8,510.3,696,511.2,696,512.3z"/>
		<path class="st5" d="M714.4,516.7h-3.1v-1l0,0c-0.5,0.9-1.6,1.3-2.7,1.3c-2.6,0-4.4-2.2-4.4-4.7s1.8-4.7,4.4-4.7
			c1,0,2.1,0.4,2.7,1.2v-0.9h3.1V516.7z M707.4,512.3c0,1.1,0.7,2,2,2s2-0.9,2-2c0-1.1-0.7-2-2-2
			C708.1,510.3,707.4,511.2,707.4,512.3z"/>
		<path class="st5" d="M719.7,509.3L719.7,509.3c0.6-1.1,1.7-1.6,2.9-1.6h0.6v3c-0.4-0.2-0.8-0.3-1.3-0.3c-1.7,0-2.2,1.2-2.2,2.7
			v3.6h-3.1v-8.8h3.1V509.3z"/>
		<path class="st5" d="M728,516.7h-3.1v-6.2h-1v-2.6h1v-2.6h3.1v2.6h1.8v2.6H728V516.7z"/>
		<path class="st5" d="M740.4,516.7h-3.1v-1l0,0c-0.5,0.9-1.6,1.3-2.7,1.3c-2.6,0-4.4-2.2-4.4-4.7s1.8-4.7,4.4-4.7
			c1,0,2.1,0.4,2.7,1.2v-0.9h3.1V516.7z M733.4,512.3c0,1.1,0.7,2,2,2s2-0.9,2-2c0-1.1-0.7-2-2-2
			C734.1,510.3,733.4,511.2,733.4,512.3z"/>
		<path class="st5" d="M745.6,508.9L745.6,508.9c0.8-1,1.7-1.4,2.8-1.4c1.3,0,2.4,0.5,3,1.7c0.6-1.1,1.8-1.7,3-1.7
			c2.2,0,3,1.5,3,3.5v5.6h-3.1v-4.2c0-0.9,0-2.4-1.3-2.4c-1.4,0-1.5,1.4-1.5,2.4v4.2h-3.1v-4.2c0-1,0-2.5-1.4-2.5s-1.4,1.5-1.4,2.5
			v4.2h-3.1v-8.8h3.1V508.9z"/>
		<path class="st5" d="M768.6,512.8H762c0,1.3,0.7,2,2,2c0.7,0,1.2-0.2,1.5-0.8h3c-0.2,1-0.9,1.8-1.7,2.3S765,517,764,517
			c-2.9,0-5.1-1.6-5.1-4.7c0-2.9,2-4.7,4.9-4.7c3.1,0,4.8,1.9,4.8,4.9L768.6,512.8L768.6,512.8z M765.7,511
			c-0.2-0.8-0.9-1.4-1.8-1.4c-0.9,0-1.7,0.5-1.9,1.4H765.7z"/>
		<path class="st5" d="M773.1,509L773.1,509c0.8-1.1,1.6-1.4,2.9-1.4c2.4,0,3.3,1.5,3.3,3.7v5.4h-3.1v-4.3c0-0.8,0.1-2.3-1.4-2.3
			c-1.3,0-1.6,0.9-1.6,2v4.6H770v-8.8h3.1V509z"/>
		<path class="st5" d="M784.8,516.7h-3.1v-6.2h-1v-2.6h1v-2.6h3.1v2.6h1.8v2.6h-1.8V516.7z"/>
		<path class="st5" d="M797.5,512.3c0,3-2.5,4.7-5.3,4.7s-5.3-1.7-5.3-4.7s2.5-4.7,5.3-4.7C795,507.6,797.5,509.3,797.5,512.3z
			 M790.2,512.3c0,1.1,0.7,2,2,2s2-0.9,2-2c0-1.1-0.7-2-2-2S790.2,511.2,790.2,512.3z"/>
		<path class="st5" d="M626.3,536.3L626.3,536.3c-0.6,0.9-1.7,1.3-2.7,1.3c-2.6,0-4.4-2.2-4.4-4.7s1.8-4.7,4.4-4.7
			c1,0,2.1,0.4,2.7,1.2V523h3.1v14.3h-3.1V536.3z M622.4,532.9c0,1.1,0.7,2,2,2s2-0.9,2-2s-0.7-2-2-2S622.4,531.8,622.4,532.9z"/>
		<path class="st5" d="M640.4,533.4h-6.6c0,1.3,0.7,2,2,2c0.7,0,1.2-0.2,1.5-0.8h3c-0.2,1-0.9,1.8-1.7,2.3s-1.8,0.7-2.8,0.7
			c-2.9,0-5.1-1.6-5.1-4.7c0-2.9,2-4.7,4.9-4.7c3.1,0,4.8,1.9,4.8,4.9L640.4,533.4L640.4,533.4z M637.5,531.6
			c-0.2-0.8-0.9-1.4-1.8-1.4c-0.9,0-1.7,0.5-1.9,1.4H637.5z"/>
		<path class="st5" d="M654.1,531.3c-0.5-0.3-1-0.6-1.6-0.6c-1.2,0-2.1,0.9-2.1,2.1c0,1.3,0.9,2.2,2.2,2.2c0.5,0,1.2-0.2,1.6-0.6
			v2.6c-0.7,0.3-1.4,0.5-2.2,0.5c-2.6,0-4.8-1.9-4.8-4.6c0-2.8,2.2-4.8,4.9-4.8c0.7,0,1.4,0.2,2.1,0.5v2.7H654.1z"/>
		<path class="st5" d="M665.7,537.3h-3.1v-1l0,0c-0.5,0.9-1.6,1.3-2.7,1.3c-2.6,0-4.4-2.2-4.4-4.7s1.8-4.7,4.4-4.7
			c1,0,2.1,0.4,2.7,1.2v-0.9h3.1V537.3z M658.6,532.9c0,1.1,0.7,2,2,2s2-0.9,2-2s-0.7-2-2-2C659.4,530.9,658.6,531.8,658.6,532.9z"
			/>
		<path class="st5" d="M670.9,529.9L670.9,529.9c0.6-1.1,1.7-1.6,2.9-1.6h0.6v3c-0.4-0.2-0.8-0.3-1.3-0.3c-1.7,0-2.2,1.2-2.2,2.7
			v3.6h-3.1v-8.8h3.1V529.9z"/>
		<path class="st5" d="M679.3,537.3h-3.1V531h-1v-2.6h1v-2.6h3.1v2.6h1.8v2.6h-1.8V537.3z"/>
		<path class="st5" d="M692,532.9c0,3-2.5,4.7-5.3,4.7s-5.3-1.7-5.3-4.7s2.5-4.7,5.3-4.7S692,529.9,692,532.9z M684.7,532.9
			c0,1.1,0.7,2,2,2s2-0.9,2-2s-0.7-2-2-2S684.7,531.8,684.7,532.9z"/>
		<path class="st5" d="M703.1,536.4c0,3.7-1.9,5.3-5.1,5.3c-2,0-4.7-1-5-3.4h3.5c0.1,0.3,0.3,0.5,0.6,0.7c0.3,0.1,0.6,0.2,0.9,0.2
			c1.7,0,2-1.1,2-2.5v-0.4c-0.8,0.8-1.6,1.2-2.8,1.2c-2.6,0-4.3-2-4.3-4.5c0-2.6,1.8-4.8,4.5-4.8c1,0,2,0.3,2.6,1.2l0,0v-0.9h3.1
			V536.4z M696,532.8c0,1.1,0.7,2,2,2s2-0.9,2-2s-0.7-2-2-2C696.8,530.8,696,531.7,696,532.8z"/>
		<path class="st5" d="M708.2,529.9L708.2,529.9c0.6-1.1,1.7-1.6,2.9-1.6h0.6v3c-0.4-0.2-0.8-0.3-1.3-0.3c-1.7,0-2.2,1.2-2.2,2.7
			v3.6H705v-8.8h3.1v1.4H708.2z"/>
		<path class="st5" d="M722.4,537.3h-3.1v-1l0,0c-0.5,0.9-1.6,1.3-2.7,1.3c-2.6,0-4.4-2.2-4.4-4.7s1.8-4.7,4.4-4.7
			c1,0,2.1,0.4,2.7,1.2v-0.9h3.1V537.3z M715.4,532.9c0,1.1,0.7,2,2,2s2-0.9,2-2s-0.7-2-2-2C716.1,530.9,715.4,531.8,715.4,532.9z"
			/>
		<path class="st5" d="M728,537.3h-3.1V531h-1.1v-2.6h1.1v-1.1c0-1.2,0-2.1,0.9-3.1c0.8-0.9,1.9-1.4,3.1-1.4c0.5,0,0.9,0.1,1.3,0.3
			v2.7c-0.4-0.2-0.7-0.3-1.1-0.3c-0.8,0-1.1,0.5-1.1,1.5v1.4h2.2v2.6H728V537.3z"/>
		<path class="st5" d="M732.2,527.2l-1.4-1l2.4-3l1.9,1.4L732.2,527.2z M734.3,537.3h-3.1v-8.8h3.1V537.3z"/>
		<path class="st5" d="M746,537.3h-3.1v-1l0,0c-0.5,0.9-1.6,1.3-2.7,1.3c-2.6,0-4.4-2.2-4.4-4.7s1.8-4.7,4.4-4.7
			c1,0,2.1,0.4,2.7,1.2v-0.9h3.1V537.3z M739,532.9c0,1.1,0.7,2,2,2s2-0.9,2-2s-0.7-2-2-2S739,531.8,739,532.9z"/>
	</g>
</g>
<g>
	<g>
		<path class="st5" d="M581.2,628.8h-3.4v-10.1H575v-2.9h8.9v2.9h-2.8L581.2,628.8L581.2,628.8z"/>
		<path class="st5" d="M593,624.9h-6.6c0,1.3,0.7,2,2,2c0.7,0,1.2-0.2,1.5-0.8h3c-0.2,1-0.9,1.8-1.7,2.3s-1.8,0.7-2.8,0.7
			c-2.9,0-5.1-1.6-5.1-4.7c0-2.9,2-4.7,4.9-4.7c3.1,0,4.8,1.9,4.8,4.9L593,624.9L593,624.9z M587.8,618.7l-1.4-1l2.4-3l1.9,1.4
			L587.8,618.7z M590.1,623.1c-0.2-0.8-0.9-1.4-1.8-1.4c-0.9,0-1.7,0.5-1.9,1.4H590.1z"/>
		<path class="st5" d="M600.7,622.9c-0.5-0.3-1-0.6-1.6-0.6c-1.2,0-2.1,0.9-2.1,2.1c0,1.3,0.9,2.2,2.2,2.2c0.5,0,1.2-0.2,1.6-0.6
			v2.6c-0.7,0.3-1.4,0.5-2.2,0.5c-2.6,0-4.8-1.9-4.8-4.6c0-2.8,2.2-4.8,4.9-4.8c0.7,0,1.4,0.2,2.1,0.5v2.7H600.7z"/>
		<path class="st5" d="M605.8,621.1L605.8,621.1c0.8-1.1,1.6-1.4,2.9-1.4c2.4,0,3.3,1.5,3.3,3.7v5.4h-3.1v-4.3
			c0-0.8,0.1-2.3-1.4-2.3c-1.3,0-1.6,0.9-1.6,2v4.6h-3.1V620h3.1v1.1H605.8z"/>
		<path class="st5" d="M617.4,616.6c0,1-0.8,1.8-1.8,1.8s-1.8-0.8-1.8-1.8s0.8-1.8,1.8-1.8C616.6,614.8,617.4,615.6,617.4,616.6z
			 M617.2,628.8H614V620h3.1v8.8H617.2z"/>
		<path class="st5" d="M625.6,622.9c-0.5-0.3-1-0.6-1.6-0.6c-1.2,0-2.1,0.9-2.1,2.1c0,1.3,0.9,2.2,2.2,2.2c0.5,0,1.2-0.2,1.6-0.6
			v2.6c-0.7,0.3-1.4,0.5-2.2,0.5c-2.6,0-4.8-1.9-4.8-4.6c0-2.8,2.2-4.8,4.9-4.8c0.7,0,1.4,0.2,2.1,0.5v2.7H625.6z"/>
		<path class="st5" d="M637.5,624.4c0,3-2.5,4.7-5.3,4.7s-5.3-1.7-5.3-4.7s2.5-4.7,5.3-4.7S637.5,621.4,637.5,624.4z M630.2,624.4
			c0,1.1,0.7,2,2,2s2-0.9,2-2s-0.7-2-2-2S630.2,623.3,630.2,624.4z"/>
		<path class="st5" d="M651.4,627.8L651.4,627.8c-0.6,0.9-1.7,1.3-2.7,1.3c-2.6,0-4.4-2.2-4.4-4.7s1.8-4.7,4.4-4.7
			c1,0,2.1,0.4,2.7,1.2v-6.3h3.1v14.3h-3.1V627.8z M647.5,624.4c0,1.1,0.7,2,2,2s2-0.9,2-2s-0.7-2-2-2S647.5,623.3,647.5,624.4z"/>
		<path class="st5" d="M665.6,624.9H659c0,1.3,0.7,2,2,2c0.7,0,1.2-0.2,1.5-0.8h3c-0.2,1-0.9,1.8-1.7,2.3s-1.8,0.7-2.8,0.7
			c-2.9,0-5.1-1.6-5.1-4.7c0-2.9,2-4.7,4.9-4.7c3.1,0,4.8,1.9,4.8,4.9L665.6,624.9L665.6,624.9z M662.6,623.1
			c-0.2-0.8-0.9-1.4-1.8-1.4c-0.9,0-1.7,0.5-1.9,1.4H662.6z"/>
		<path class="st5" d="M670.1,628.8H667v-14.3h3.1V628.8z"/>
		<path class="st5" d="M684.7,627.8L684.7,627.8c-0.6,0.9-1.7,1.3-2.7,1.3c-2.6,0-4.4-2.2-4.4-4.7s1.8-4.7,4.4-4.7
			c1,0,2.1,0.4,2.7,1.2v-6.3h3.1v14.3h-3.1V627.8z M680.8,624.4c0,1.1,0.7,2,2,2s2-0.9,2-2s-0.7-2-2-2S680.8,623.3,680.8,624.4z"/>
		<path class="st5" d="M698.8,624.9h-6.6c0,1.3,0.7,2,2,2c0.7,0,1.2-0.2,1.5-0.8h3c-0.2,1-0.9,1.8-1.7,2.3s-1.8,0.7-2.8,0.7
			c-2.9,0-5.1-1.6-5.1-4.7c0-2.9,2-4.7,4.9-4.7c3.1,0,4.8,1.9,4.8,4.9L698.8,624.9L698.8,624.9z M695.9,623.1
			c-0.2-0.8-0.9-1.4-1.8-1.4c-0.9,0-1.7,0.5-1.9,1.4H695.9z"/>
		<path class="st5" d="M703.3,621L703.3,621c0.6-0.9,1.7-1.3,2.7-1.3c2.6,0,4.4,2.2,4.4,4.7s-1.8,4.7-4.4,4.7c-1,0-2.1-0.4-2.7-1.1
			v5.2h-3.1V620h3.1V621z M703.2,624.4c0,1.1,0.7,2,2,2s2-0.9,2-2s-0.7-2-2-2S703.2,623.3,703.2,624.4z"/>
		<path class="st5" d="M721.6,628.8h-3.1v-1l0,0c-0.5,0.9-1.6,1.3-2.7,1.3c-2.6,0-4.4-2.2-4.4-4.7s1.8-4.7,4.4-4.7
			c1,0,2.1,0.4,2.7,1.2V620h3.1V628.8z M714.6,624.4c0,1.1,0.7,2,2,2s2-0.9,2-2s-0.7-2-2-2S714.6,623.3,714.6,624.4z"/>
		<path class="st5" d="M726.8,621.4L726.8,621.4c0.6-1.1,1.7-1.6,2.9-1.6h0.6v3c-0.4-0.2-0.8-0.3-1.3-0.3c-1.7,0-2.2,1.2-2.2,2.7
			v3.6h-3.1V620h3.1V621.4z"/>
		<path class="st5" d="M735.2,628.8h-3.1v-6.2h-1V620h1v-2.6h3.1v2.6h1.8v2.6h-1.8V628.8z"/>
		<path class="st5" d="M747.6,628.8h-3.1v-1l0,0c-0.5,0.9-1.6,1.3-2.7,1.3c-2.6,0-4.4-2.2-4.4-4.7s1.8-4.7,4.4-4.7
			c1,0,2.1,0.4,2.7,1.2V620h3.1V628.8z M740.5,624.4c0,1.1,0.7,2,2,2s2-0.9,2-2s-0.7-2-2-2C741.3,622.4,740.5,623.3,740.5,624.4z"/>
		<path class="st5" d="M752.8,621.1L752.8,621.1c0.8-1,1.7-1.4,2.8-1.4c1.3,0,2.4,0.5,3,1.7c0.6-1.1,1.8-1.7,3-1.7
			c2.2,0,3,1.5,3,3.5v5.6h-3.1v-4.2c0-0.9,0-2.4-1.3-2.4c-1.4,0-1.5,1.4-1.5,2.4v4.2h-3.1v-4.2c0-1,0-2.5-1.4-2.5s-1.4,1.5-1.4,2.5
			v4.2h-3.1V620h3.1V621.1z"/>
		<path class="st5" d="M775.7,624.9h-6.6c0,1.3,0.7,2,2,2c0.7,0,1.2-0.2,1.5-0.8h3c-0.2,1-0.9,1.8-1.7,2.3s-1.8,0.7-2.8,0.7
			c-2.9,0-5.1-1.6-5.1-4.7c0-2.9,2-4.7,4.9-4.7c3.1,0,4.8,1.9,4.8,4.9L775.7,624.9L775.7,624.9z M772.8,623.1
			c-0.2-0.8-0.9-1.4-1.8-1.4c-0.9,0-1.7,0.5-1.9,1.4H772.8z"/>
		<path class="st5" d="M780.3,621.1L780.3,621.1c0.8-1.1,1.6-1.4,2.9-1.4c2.4,0,3.3,1.5,3.3,3.7v5.4h-3.1v-4.3
			c0-0.8,0.1-2.3-1.4-2.3c-1.3,0-1.6,0.9-1.6,2v4.6h-3.1V620h3.1v1.1H780.3z"/>
		<path class="st5" d="M791.9,628.8h-3.1v-6.2h-1V620h1v-2.6h3.1v2.6h1.8v2.6h-1.8V628.8z"/>
		<path class="st5" d="M804.6,624.4c0,3-2.5,4.7-5.3,4.7s-5.3-1.7-5.3-4.7s2.5-4.7,5.3-4.7C802.2,619.7,804.6,621.4,804.6,624.4z
			 M797.3,624.4c0,1.1,0.7,2,2,2s2-0.9,2-2s-0.7-2-2-2C798.1,622.4,797.3,623.3,797.3,624.4z"/>
		<path class="st5" d="M601.4,637.2c0,1-0.8,1.8-1.8,1.8s-1.8-0.8-1.8-1.8s0.8-1.8,1.8-1.8C600.6,635.5,601.4,636.3,601.4,637.2z
			 M601.2,649.4h-3.1v-8.8h3.1V649.4z"/>
		<path class="st5" d="M606.4,641.7L606.4,641.7c0.8-1.1,1.6-1.4,2.9-1.4c2.4,0,3.3,1.5,3.3,3.7v5.4h-3.1v-4.3
			c0-0.8,0.1-2.3-1.4-2.3c-1.3,0-1.6,0.9-1.6,2v4.6h-3.1v-8.8h3.1v1.1H606.4z"/>
		<path class="st5" d="M618,649.4h-3.1v-6.2h-1.1v-2.6h1.1v-1.1c0-1.2,0-2.1,0.9-3.1c0.8-0.9,1.9-1.4,3.1-1.4c0.5,0,0.9,0.1,1.3,0.3
			v2.7c-0.4-0.2-0.7-0.3-1.1-0.3c-0.8,0-1.1,0.5-1.1,1.5v1.4h2.2v2.6H618V649.4z"/>
		<path class="st5" d="M631.2,645c0,3-2.5,4.7-5.3,4.7s-5.3-1.7-5.3-4.7s2.5-4.7,5.3-4.7C628.8,640.3,631.2,642,631.2,645z
			 M623.9,645c0,1.1,0.7,2,2,2s2-0.9,2-2s-0.7-2-2-2C624.7,643,623.9,643.9,623.9,645z"/>
		<path class="st5" d="M635.8,642L635.8,642c0.6-1.1,1.7-1.6,2.9-1.6h0.6v3c-0.4-0.2-0.8-0.3-1.3-0.3c-1.7,0-2.2,1.2-2.2,2.7v3.6
			h-3.1v-8.8h3.1V642z"/>
		<path class="st5" d="M643.6,641.7L643.6,641.7c0.8-1,1.7-1.4,2.8-1.4c1.3,0,2.4,0.5,3,1.7c0.6-1.1,1.8-1.7,3-1.7
			c2.2,0,3,1.5,3,3.5v5.6h-3.1v-4.2c0-0.9,0-2.4-1.3-2.4c-1.4,0-1.5,1.4-1.5,2.4v4.2h-3.1v-4.2c0-1,0-2.5-1.4-2.5s-1.4,1.5-1.4,2.5
			v4.2h-3.1v-8.8h3.1V641.7z"/>
		<path class="st5" d="M667.1,649.4H664v-1l0,0c-0.5,0.9-1.6,1.3-2.7,1.3c-2.6,0-4.4-2.2-4.4-4.7s1.8-4.7,4.4-4.7
			c1,0,2.1,0.4,2.7,1.2v-0.9h3.1V649.4z M660,645c0,1.1,0.7,2,2,2s2-0.9,2-2s-0.7-2-2-2C660.8,643,660,643.9,660,645z M661.8,639.3
			l-1.4-1l2.4-3l1.9,1.4L661.8,639.3z"/>
		<path class="st5" d="M672.6,649.4h-3.1v-6.2h-1v-2.6h1V638h3.1v2.6h1.8v2.6h-1.8V649.4z"/>
		<path class="st5" d="M678.6,637.2c0,1-0.8,1.8-1.8,1.8s-1.8-0.8-1.8-1.8s0.8-1.8,1.8-1.8C677.8,635.5,678.6,636.3,678.6,637.2z
			 M678.4,649.4h-3.1v-8.8h3.1V649.4z"/>
		<path class="st5" d="M686.9,643.5c-0.5-0.3-1-0.6-1.6-0.6c-1.2,0-2.1,0.9-2.1,2.1c0,1.3,0.9,2.2,2.2,2.2c0.5,0,1.2-0.2,1.6-0.6
			v2.6c-0.7,0.3-1.4,0.5-2.2,0.5c-2.6,0-4.8-1.9-4.8-4.6c0-2.8,2.2-4.8,4.9-4.8c0.7,0,1.4,0.2,2.1,0.5v2.7H686.9z"/>
		<path class="st5" d="M698.4,649.4h-3.1v-1l0,0c-0.5,0.9-1.6,1.3-2.7,1.3c-2.6,0-4.4-2.2-4.4-4.7s1.8-4.7,4.4-4.7
			c1,0,2.1,0.4,2.7,1.2v-0.9h3.1V649.4z M691.4,645c0,1.1,0.7,2,2,2s2-0.9,2-2s-0.7-2-2-2C692.1,643,691.4,643.9,691.4,645z"/>
		<path class="st5" d="M712.8,643.5c-0.5-0.3-1-0.6-1.6-0.6c-1.2,0-2.1,0.9-2.1,2.1c0,1.3,0.9,2.2,2.2,2.2c0.5,0,1.2-0.2,1.6-0.6
			v2.6c-0.7,0.3-1.4,0.5-2.2,0.5c-2.6,0-4.8-1.9-4.8-4.6c0-2.8,2.2-4.8,4.9-4.8c0.7,0,1.4,0.2,2.1,0.5v2.7H712.8z"/>
		<path class="st5" d="M724.3,649.4h-3.1v-1l0,0c-0.5,0.9-1.6,1.3-2.7,1.3c-2.6,0-4.4-2.2-4.4-4.7s1.8-4.7,4.4-4.7
			c1,0,2.1,0.4,2.7,1.2v-0.9h3.1V649.4z M717.3,645c0,1.1,0.7,2,2,2s2-0.9,2-2s-0.7-2-2-2S717.3,643.9,717.3,645z"/>
		<path class="st5" d="M729.8,649.4h-3.1v-6.2h-1v-2.6h1V638h3.1v2.6h1.8v2.6h-1.8V649.4z"/>
		<path class="st5" d="M742.2,649.4h-3.1v-1l0,0c-0.5,0.9-1.6,1.3-2.7,1.3c-2.6,0-4.4-2.2-4.4-4.7s1.8-4.7,4.4-4.7
			c1,0,2.1,0.4,2.7,1.2v-0.9h3.1V649.4z M735.2,645c0,1.1,0.7,2,2,2s2-0.9,2-2s-0.7-2-2-2S735.2,643.9,735.2,645z"/>
		<path class="st5" d="M750.1,642.9c-0.5-0.3-1.2-0.4-1.7-0.4c-0.4,0-1,0.2-1,0.6c0,0.6,1,0.7,1.4,0.8c1.5,0.3,2.6,1,2.6,2.6
			c0,2.3-2.1,3.3-4.2,3.3c-1.3,0-2.5-0.4-3.6-1l1.1-2.2c0.6,0.4,1.7,0.9,2.5,0.9c0.4,0,1-0.2,1-0.7c0-0.7-1-0.7-2-1s-2-0.7-2-2.3
			c0-2.2,2-3.1,3.9-3.1c1,0,2,0.2,2.9,0.6L750.1,642.9z"/>
		<path class="st5" d="M756.5,649.4h-3.1v-6.2h-1v-2.6h1V638h3.1v2.6h1.8v2.6h-1.8V649.4z"/>
		<path class="st5" d="M762.4,642L762.4,642c0.6-1.1,1.7-1.6,2.9-1.6h0.6v3c-0.4-0.2-0.8-0.3-1.3-0.3c-1.7,0-2.2,1.2-2.2,2.7v3.6
			h-3.1v-8.8h3.1V642z"/>
		<path class="st5" d="M776.7,649.4h-3.1v-1l0,0c-0.5,0.9-1.6,1.3-2.7,1.3c-2.6,0-4.4-2.2-4.4-4.7s1.8-4.7,4.4-4.7
			c1,0,2.1,0.4,2.7,1.2v-0.9h3.1V649.4z M769.7,645c0,1.1,0.7,2,2,2s2-0.9,2-2s-0.7-2-2-2S769.7,643.9,769.7,645z"/>
		<path class="st5" d="M781.9,649.4h-3.1v-14.3h3.1V649.4z"/>
	</g>
</g>
<rect id="XMLID_511_" x="225.9" y="488.6" class="st2" width="275" height="66.6"/>
<g>
	<g>
		<path class="st5" d="M307,503.7h5.2c2.8,0,4.7,1.3,4.7,4.3c0,3.1-1.6,4.4-4.6,4.4h-1.9v4.3H307V503.7z M310.4,509.7h0.6
			c1.2,0,2.4,0,2.4-1.6s-1.1-1.6-2.4-1.6h-0.6V509.7z"/>
		<path class="st5" d="M321.5,509.3L321.5,509.3c0.6-1.1,1.7-1.6,2.9-1.6h0.6v3c-0.4-0.2-0.8-0.3-1.3-0.3c-1.7,0-2.2,1.2-2.2,2.7
			v3.6h-3.1v-8.8h3.1V509.3z"/>
		<path class="st5" d="M335.8,512.3c0,3-2.5,4.7-5.3,4.7s-5.3-1.7-5.3-4.7s2.5-4.7,5.3-4.7C333.3,507.6,335.8,509.3,335.8,512.3z
			 M328.4,512.3c0,1.1,0.7,2,2,2s2-0.9,2-2c0-1.1-0.7-2-2-2C329.2,510.3,328.4,511.2,328.4,512.3z"/>
		<path class="st5" d="M340.6,516.7h-3.1v-6.2h-1.1v-2.6h1.1v-1.1c0-1.2,0-2.1,0.9-3.1c0.8-0.9,1.9-1.4,3.1-1.4
			c0.5,0,0.9,0.1,1.3,0.3v2.7c-0.4-0.2-0.7-0.3-1.1-0.3c-0.8,0-1.1,0.5-1.1,1.5v1.4h2.2v2.6h-2.2L340.6,516.7L340.6,516.7z"/>
		<path class="st5" d="M352.9,512.8h-6.6c0,1.3,0.7,2,2,2c0.7,0,1.2-0.2,1.5-0.8h3c-0.2,1-0.9,1.8-1.7,2.3c-0.8,0.5-1.8,0.7-2.8,0.7
			c-2.9,0-5.1-1.6-5.1-4.7c0-2.9,2-4.7,4.9-4.7c3.1,0,4.8,1.9,4.8,4.9L352.9,512.8L352.9,512.8z M350,511c-0.2-0.8-0.9-1.4-1.8-1.4
			s-1.7,0.5-1.9,1.4H350z"/>
		<path class="st5" d="M360.1,510.1c-0.5-0.3-1.2-0.4-1.7-0.4c-0.4,0-1,0.2-1,0.6c0,0.6,1,0.7,1.4,0.8c1.5,0.3,2.6,1,2.6,2.6
			c0,2.3-2.1,3.3-4.2,3.3c-1.3,0-2.5-0.4-3.6-1l1.1-2.2c0.6,0.4,1.7,0.9,2.5,0.9c0.4,0,1-0.2,1-0.7c0-0.7-1-0.7-2-1s-2-0.7-2-2.3
			c0-2.2,2-3.1,3.9-3.1c1,0,2,0.2,2.9,0.6L360.1,510.1z"/>
		<path class="st5" d="M366.4,504.5c0,1-0.8,1.8-1.8,1.8s-1.8-0.8-1.8-1.8s0.8-1.8,1.8-1.8C365.7,502.7,366.4,503.5,366.4,504.5z
			 M366.3,516.7h-3.1v-8.8h3.1V516.7z"/>
		<path class="st5" d="M378.3,512.3c0,3-2.5,4.7-5.3,4.7s-5.3-1.7-5.3-4.7s2.5-4.7,5.3-4.7C375.8,507.6,378.3,509.3,378.3,512.3z
			 M371,512.3c0,1.1,0.7,2,2,2s2-0.9,2-2c0-1.1-0.7-2-2-2S371,511.2,371,512.3z"/>
		<path class="st5" d="M382.8,509L382.8,509c0.8-1.1,1.6-1.4,2.9-1.4c2.4,0,3.3,1.5,3.3,3.7v5.4h-3.1v-4.3c0-0.8,0.1-2.3-1.4-2.3
			c-1.3,0-1.6,0.9-1.6,2v4.6h-3.1v-8.8h3.1L382.8,509L382.8,509z"/>
		<path class="st5" d="M400.7,516.7h-3.1v-1l0,0c-0.5,0.9-1.6,1.3-2.7,1.3c-2.6,0-4.4-2.2-4.4-4.7s1.8-4.7,4.4-4.7
			c1,0,2.1,0.4,2.7,1.2v-0.9h3.1V516.7z M393.6,512.3c0,1.1,0.7,2,2,2s2-0.9,2-2c0-1.1-0.7-2-2-2
			C394.4,510.3,393.6,511.2,393.6,512.3z"/>
		<path class="st5" d="M405.9,516.7h-3.1v-14.3h3.1V516.7z"/>
		<path class="st5" d="M330.3,537.3h-3.1V531h-1v-2.6h1v-2.6h3.1v2.6h1.8v2.6h-1.8V537.3z"/>
		<path class="st5" d="M342.1,533.4h-6.6c0,1.3,0.7,2,2,2c0.7,0,1.2-0.2,1.5-0.8h3c-0.2,1-0.9,1.8-1.7,2.3c-0.8,0.5-1.8,0.7-2.8,0.7
			c-2.9,0-5.1-1.6-5.1-4.7c0-2.9,2-4.7,4.9-4.7c3.1,0,4.8,1.9,4.8,4.9L342.1,533.4L342.1,533.4z M336.9,527.2l-1.4-1l2.4-3l1.9,1.4
			L336.9,527.2z M339.2,531.6c-0.2-0.8-0.9-1.4-1.8-1.4s-1.7,0.5-1.9,1.4H339.2z"/>
		<path class="st5" d="M349.9,531.3c-0.5-0.3-1-0.6-1.6-0.6c-1.2,0-2.1,0.9-2.1,2.1c0,1.3,0.9,2.2,2.2,2.2c0.5,0,1.2-0.2,1.6-0.6
			v2.6c-0.7,0.3-1.4,0.5-2.2,0.5c-2.6,0-4.8-1.9-4.8-4.6c0-2.8,2.2-4.8,4.9-4.8c0.7,0,1.4,0.2,2.1,0.5v2.7H349.9z"/>
		<path class="st5" d="M355,529.6L355,529.6c0.8-1.1,1.6-1.4,2.9-1.4c2.4,0,3.3,1.5,3.3,3.7v5.4H358V533c0-0.8,0.1-2.3-1.4-2.3
			c-1.3,0-1.6,0.9-1.6,2v4.6h-3.1v-8.8h3.1V529.6z"/>
		<path class="st5" d="M366.5,525.1c0,1-0.8,1.8-1.8,1.8s-1.8-0.8-1.8-1.8s0.8-1.8,1.8-1.8S366.5,524.1,366.5,525.1z M366.3,537.3
			h-3.1v-8.8h3.1V537.3z"/>
		<path class="st5" d="M374.7,531.3c-0.5-0.3-1-0.6-1.6-0.6c-1.2,0-2.1,0.9-2.1,2.1c0,1.3,0.9,2.2,2.2,2.2c0.5,0,1.2-0.2,1.6-0.6
			v2.6c-0.7,0.3-1.4,0.5-2.2,0.5c-2.6,0-4.8-1.9-4.8-4.6c0-2.8,2.2-4.8,4.9-4.8c0.7,0,1.4,0.2,2.1,0.5v2.7H374.7z"/>
		<path class="st5" d="M386.6,532.9c0,3-2.5,4.7-5.3,4.7s-5.3-1.7-5.3-4.7s2.5-4.7,5.3-4.7C384.2,528.2,386.6,529.9,386.6,532.9z
			 M379.3,532.9c0,1.1,0.7,2,2,2s2-0.9,2-2s-0.7-2-2-2C380.1,530.9,379.3,531.8,379.3,532.9z"/>
	</g>
</g>
<rect id="XMLID_923_" x="225.9" y="719.5" class="st2" width="275" height="66.6"/>
<g>
	<g>
		<path class="st5" d="M307,734.7h5.2c2.8,0,4.7,1.3,4.7,4.3c0,3.1-1.6,4.4-4.6,4.4h-1.9v4.3H307V734.7z M310.4,740.6h0.6
			c1.2,0,2.4,0,2.4-1.6s-1.1-1.6-2.4-1.6h-0.6V740.6z"/>
		<path class="st5" d="M321.5,740.3L321.5,740.3c0.6-1.1,1.7-1.6,2.9-1.6h0.6v3c-0.4-0.2-0.8-0.3-1.3-0.3c-1.7,0-2.2,1.2-2.2,2.7
			v3.6h-3.1v-8.8h3.1V740.3z"/>
		<path class="st5" d="M335.8,743.2c0,3-2.5,4.7-5.3,4.7s-5.3-1.7-5.3-4.7s2.5-4.7,5.3-4.7S335.8,740.2,335.8,743.2z M328.4,743.2
			c0,1.1,0.7,2,2,2s2-0.9,2-2s-0.7-2-2-2C329.2,741.3,328.4,742.2,328.4,743.2z"/>
		<path class="st5" d="M340.6,747.6h-3.1v-6.2h-1.1v-2.6h1.1v-1.1c0-1.2,0-2.1,0.9-3.1c0.8-0.9,1.9-1.4,3.1-1.4
			c0.5,0,0.9,0.1,1.3,0.3v2.7c-0.4-0.2-0.7-0.3-1.1-0.3c-0.8,0-1.1,0.5-1.1,1.5v1.4h2.2v2.6h-2.2L340.6,747.6L340.6,747.6z"/>
		<path class="st5" d="M352.9,743.8h-6.6c0,1.3,0.7,2,2,2c0.7,0,1.2-0.2,1.5-0.8h3c-0.2,1-0.9,1.8-1.7,2.3c-0.8,0.5-1.8,0.7-2.8,0.7
			c-2.9,0-5.1-1.6-5.1-4.7c0-2.9,2-4.7,4.9-4.7c3.1,0,4.8,1.9,4.8,4.9L352.9,743.8L352.9,743.8z M350,742c-0.2-0.8-0.9-1.4-1.8-1.4
			s-1.7,0.5-1.9,1.4H350z"/>
		<path class="st5" d="M360.1,741.1c-0.5-0.3-1.2-0.4-1.7-0.4c-0.4,0-1,0.2-1,0.6c0,0.6,1,0.7,1.4,0.8c1.5,0.3,2.6,1,2.6,2.6
			c0,2.3-2.1,3.3-4.2,3.3c-1.3,0-2.5-0.4-3.6-1l1.1-2.2c0.6,0.4,1.7,0.9,2.5,0.9c0.4,0,1-0.2,1-0.7c0-0.7-1-0.7-2-1s-2-0.7-2-2.3
			c0-2.2,2-3.1,3.9-3.1c1,0,2,0.2,2.9,0.6L360.1,741.1z"/>
		<path class="st5" d="M366.4,735.4c0,1-0.8,1.8-1.8,1.8s-1.8-0.8-1.8-1.8s0.8-1.8,1.8-1.8C365.7,733.7,366.4,734.5,366.4,735.4z
			 M366.3,747.6h-3.1v-8.8h3.1V747.6z"/>
		<path class="st5" d="M378.3,743.2c0,3-2.5,4.7-5.3,4.7s-5.3-1.7-5.3-4.7s2.5-4.7,5.3-4.7S378.3,740.2,378.3,743.2z M371,743.2
			c0,1.1,0.7,2,2,2s2-0.9,2-2s-0.7-2-2-2C371.7,741.3,371,742.2,371,743.2z"/>
		<path class="st5" d="M382.8,740L382.8,740c0.8-1.1,1.6-1.4,2.9-1.4c2.4,0,3.3,1.5,3.3,3.7v5.4h-3.1v-4.3c0-0.8,0.1-2.3-1.4-2.3
			c-1.3,0-1.6,0.9-1.6,2v4.6h-3.1v-8.8h3.1L382.8,740L382.8,740z"/>
		<path class="st5" d="M400.7,747.6h-3.1v-1l0,0c-0.5,0.9-1.6,1.3-2.7,1.3c-2.6,0-4.4-2.2-4.4-4.7s1.8-4.7,4.4-4.7
			c1,0,2.1,0.4,2.7,1.2v-0.9h3.1V747.6z M393.6,743.2c0,1.1,0.7,2,2,2s2-0.9,2-2s-0.7-2-2-2C394.4,741.3,393.6,742.2,393.6,743.2z"
			/>
		<path class="st5" d="M405.9,747.6h-3.1v-14.3h3.1V747.6z"/>
		<path class="st5" d="M330.3,768.3h-3.1V762h-1v-2.6h1v-2.6h3.1v2.6h1.8v2.6h-1.8V768.3z"/>
		<path class="st5" d="M342.1,764.4h-6.6c0,1.3,0.7,2,2,2c0.7,0,1.2-0.2,1.5-0.8h3c-0.2,1-0.9,1.8-1.7,2.3c-0.8,0.5-1.8,0.7-2.8,0.7
			c-2.9,0-5.1-1.6-5.1-4.7c0-2.9,2-4.7,4.9-4.7c3.1,0,4.8,1.9,4.8,4.9L342.1,764.4L342.1,764.4z M336.9,758.1l-1.4-1l2.4-3l1.9,1.4
			L336.9,758.1z M339.2,762.6c-0.2-0.8-0.9-1.4-1.8-1.4s-1.7,0.5-1.9,1.4H339.2z"/>
		<path class="st5" d="M349.9,762.3c-0.5-0.3-1-0.6-1.6-0.6c-1.2,0-2.1,0.9-2.1,2.1c0,1.3,0.9,2.2,2.2,2.2c0.5,0,1.2-0.2,1.6-0.6
			v2.6c-0.7,0.3-1.4,0.5-2.2,0.5c-2.6,0-4.8-1.9-4.8-4.6c0-2.8,2.2-4.8,4.9-4.8c0.7,0,1.4,0.2,2.1,0.5v2.7H349.9z"/>
		<path class="st5" d="M355,760.6L355,760.6c0.8-1.1,1.6-1.4,2.9-1.4c2.4,0,3.3,1.5,3.3,3.7v5.4H358V764c0-0.8,0.1-2.3-1.4-2.3
			c-1.3,0-1.6,0.9-1.6,2v4.6h-3.1v-8.8h3.1V760.6z"/>
		<path class="st5" d="M366.5,756.1c0,1-0.8,1.8-1.8,1.8s-1.8-0.8-1.8-1.8s0.8-1.8,1.8-1.8S366.5,755.1,366.5,756.1z M366.3,768.3
			h-3.1v-8.8h3.1V768.3z"/>
		<path class="st5" d="M374.7,762.3c-0.5-0.3-1-0.6-1.6-0.6c-1.2,0-2.1,0.9-2.1,2.1c0,1.3,0.9,2.2,2.2,2.2c0.5,0,1.2-0.2,1.6-0.6
			v2.6c-0.7,0.3-1.4,0.5-2.2,0.5c-2.6,0-4.8-1.9-4.8-4.6c0-2.8,2.2-4.8,4.9-4.8c0.7,0,1.4,0.2,2.1,0.5v2.7H374.7z"/>
		<path class="st5" d="M386.6,763.9c0,3-2.5,4.7-5.3,4.7s-5.3-1.7-5.3-4.7s2.5-4.7,5.3-4.7C384.2,759.2,386.6,760.9,386.6,763.9z
			 M379.3,763.9c0,1.1,0.7,2,2,2s2-0.9,2-2s-0.7-2-2-2C380.1,761.9,379.3,762.8,379.3,763.9z"/>
	</g>
</g>
<g>
	<g>
		<path class="st5" d="M345.3,404.8c-1-1.3-2.5-2-4.1-2c-2.9,0-4.8,2.2-4.8,5c0,2.9,2,4.9,4.9,4.9c1.5,0,3.1-0.7,4.1-1.9v5.7
			c-1.6,0.5-2.7,0.8-4.2,0.8c-2.5,0-4.9-1-6.8-2.7c-2-1.8-2.9-4.2-2.9-6.9c0-2.5,0.9-4.9,2.7-6.6c1.8-1.8,4.4-2.9,6.9-2.9
			c1.5,0,2.9,0.3,4.3,0.9v5.7H345.3z"/>
		<path class="st5" d="M352.9,413.7l-1.3,3.2h-5l7-18.2h5.2l6.8,18.2h-5l-1.2-3.2H352.9z M356.2,404.3L356.2,404.3l-2,5.8h3.9
			L356.2,404.3z"/>
		<path class="st5" d="M375.8,398.7V411c0,3.8-2,6.4-6,6.4c-2,0-3.6-1-4.7-2.7l2.7-2.9c0.5,0.7,1.3,1.5,1.9,1.5
			c1.4,0,1.3-1.7,1.3-2.7v-12h4.8V398.7z"/>
		<path class="st5" d="M383.4,413.7l-1.3,3.2h-5l7-18.2h5.2l6.8,18.2h-5l-1.2-3.2H383.4z M386.7,404.3L386.7,404.3l-2,5.8h3.9
			L386.7,404.3z"/>
	</g>
</g>
<polygon id="XMLID_490_" class="st6" points="360.4,252 354.1,241 347.8,230.1 360.4,230.1 373.1,230.1 366.7,241 "/>
<polygon id="XMLID_130_" class="st6" points="360.4,377.5 354.1,366.5 347.8,355.6 360.4,355.6 373.1,355.6 366.7,366.5 "/>
<polygon id="XMLID_543_" class="st6" points="360.4,489.9 354.1,479 347.8,468 360.4,468 373.1,468 366.7,479 "/>
<polygon id="XMLID_915_" class="st6" points="360.4,602.5 354.1,591.5 347.8,580.6 360.4,580.6 373.1,580.6 366.7,591.5 "/>
<polygon id="XMLID_922_" class="st6" points="360.4,721.7 354.1,710.8 347.8,699.8 360.4,699.8 373.1,699.8 366.7,710.8 "/>
<polygon id="XMLID_522_" class="st6" points="496.4,409.4 507.4,403.1 518.3,396.8 518.3,409.4 518.3,422.1 507.4,415.7 "/>
<polygon id="XMLID_124_" class="st6" points="552.8,521.8 541.9,528.2 530.9,534.5 530.9,521.8 530.9,509.2 541.9,515.5 "/>
<polygon id="XMLID_919_" class="st6" points="552.8,637.3 541.9,643.7 530.9,650 530.9,637.3 530.9,624.7 541.9,631 "/>
<polygon id="XMLID_126_" class="st6" points="230.3,521.8 219.4,528.2 208.4,534.5 208.4,521.8 208.4,509.2 219.4,515.5 "/>
<polygon id="XMLID_122_" class="st6" points="689.9,594.3 683.5,583.3 677.2,572.4 689.9,572.4 702.5,572.4 696.2,583.3 "/>
<polygon id="XMLID_120_" class="st6" points="360.4,945 354.1,934.1 347.8,923.1 360.4,923.1 373.1,923.1 366.7,934.1 "/>
<polygon id="XMLID_119_" class="st6" points="359.7,1081.7 353.4,1070.8 347.1,1059.8 359.7,1059.8 372.4,1059.8 366,1070.8 "/>
<polygon id="XMLID_117_" class="st6" points="359,833.4 352.7,822.4 346.4,811.5 359,811.5 371.6,811.5 365.3,822.4 "/>
<g>
	<g>
		<path class="st4" d="M288.5,1111.7c-0.9-0.8-2.1-1.3-3.3-1.3c-0.9,0-2.2,0.5-2.2,1.6s1.4,1.6,2.2,1.8l1.3,0.4
			c2.7,0.8,4.8,2.2,4.8,5.3c0,1.9-0.5,3.9-2,5.2c-1.5,1.3-3.5,1.8-5.5,1.8c-2.4,0-4.8-0.8-6.8-2.2l2.2-4.1c1.3,1.1,2.7,2,4.5,2
			c1.2,0,2.4-0.6,2.4-2s-2-1.9-3.1-2.2c-3.2-0.9-5.2-1.7-5.2-5.5c0-3.9,2.8-6.5,6.7-6.5c2,0,4.3,0.6,6.1,1.6L288.5,1111.7z"/>
		<path class="st4" d="M314.2,1116c0,6.3-4.5,10.7-10.7,10.7s-10.7-4.4-10.7-10.7c0-5.9,5.1-10,10.7-10
			C309,1106,314.2,1110.2,314.2,1116z M298,1116c0,3.3,2.5,5.8,5.5,5.8s5.5-2.4,5.5-5.8c0-2.7-2.5-5.1-5.5-5.1S298,1113.4,298,1116z
			"/>
		<path class="st4" d="M321.5,1121.8h6v4.3h-11.1v-19.4h5v15.1H321.5z"/>
		<path class="st4" d="M334.3,1126h-5v-19.4h5V1126z"/>
		<path class="st4" d="M351.4,1113.2c-1-1.4-2.7-2.1-4.4-2.1c-3.1,0-5.2,2.4-5.2,5.4c0,3.1,2.1,5.3,5.2,5.3c1.6,0,3.3-0.8,4.3-2.1v6
			c-1.7,0.5-2.9,0.9-4.4,0.9c-2.7,0-5.3-1-7.3-2.9c-2.1-1.9-3.1-4.4-3.1-7.3c0-2.6,1-5.2,2.9-7.1c1.9-2,4.6-3.1,7.4-3.1
			c1.6,0,3.1,0.4,4.6,1V1113.2z"/>
		<path class="st4" d="M359.5,1126h-5v-19.4h5V1126z"/>
		<path class="st4" d="M370.5,1126h-5v-15.1h-4.2v-4.3h13.4v4.3h-4.2L370.5,1126L370.5,1126z"/>
		<path class="st4" d="M379.9,1122.7l-1.3,3.4h-5.3l7.4-19.4h5.5l7.3,19.4h-5.4l-1.3-3.4H379.9z M383.4,1112.7L383.4,1112.7
			l-2.1,6.2h4.2L383.4,1112.7z"/>
		<path class="st4" d="M395,1106.7h5l9.2,11.8h0.1v-11.8h5v19.4h-5l-9.2-11.9H400v11.9h-5V1106.7z"/>
		<path class="st4" d="M425.3,1126h-5v-15.1h-4.2v-4.3h13.4v4.3h-4.2L425.3,1126L425.3,1126z"/>
		<path class="st4" d="M436.4,1110.9v3.2h5.7v4.3h-5.7v3.3h6v4.3h-11v-19.4h11v4.3L436.4,1110.9L436.4,1110.9z"/>
	</g>
</g>
<polyline class="st0" points="361.8,219.7 527.7,219.7 527.7,409.4 496.4,409.4 "/>
<polyline class="st0" points="819.5,637.3 849.6,637.3 849.6,463.4 359.8,463.4 359.8,488.6 "/>
<polyline class="st0" points="513.1,521.8 513.1,637.3 552.8,637.3 "/>
<g>
	<g>
		<path class="st5" d="M298.7,625.4c-0.7-0.9-1.8-1.4-3-1.4c-2.1,0-3.5,1.6-3.5,3.6s1.4,3.5,3.5,3.5c1.1,0,2.2-0.5,2.9-1.4v4
			c-1.1,0.3-1.9,0.6-3,0.6c-1.8,0-3.5-0.7-4.9-1.9c-1.4-1.3-2.1-3-2.1-4.9c0-1.8,0.7-3.5,1.9-4.7c1.3-1.3,3.1-2.1,4.9-2.1
			c1.1,0,2.1,0.2,3.1,0.7v4H298.7z"/>
		<path class="st5" d="M304.2,623.9v2.2h3.8v2.9h-3.8v2.2h4v2.9h-7.4V621h7.4v2.9H304.2z"/>
		<path class="st5" d="M321,634h-4.2l-3.2-5l0,0v5h-3.4v-13h5c2.6,0,4.5,1.2,4.5,4c0,1.8-1,3.3-2.8,3.7L321,634z M313.6,626.8h0.3
			c1.1,0,2.3-0.2,2.3-1.6c0-1.4-1.2-1.6-2.3-1.6h-0.3V626.8z"/>
		<path class="st5" d="M327.1,634h-3.4v-10.1h-2.8V621h8.9v2.9H327L327.1,634L327.1,634z"/>
		<path class="st5" d="M334.4,634H331v-13h3.4V634z"/>
		<path class="st5" d="M340,623.9v2.2h3.7v2.9H340v5.1h-3.4V621h7.4v2.9H340z"/>
		<path class="st5" d="M349.3,634h-3.4v-13h3.4V634z"/>
		<path class="st5" d="M360.8,625.4c-0.7-0.9-1.8-1.4-3-1.4c-2.1,0-3.5,1.6-3.5,3.6s1.4,3.5,3.5,3.5c1.1,0,2.2-0.5,2.9-1.4v4
			c-1.1,0.3-1.9,0.6-3,0.6c-1.8,0-3.5-0.7-4.9-1.9c-1.4-1.3-2.1-3-2.1-4.9c0-1.8,0.7-3.5,1.9-4.7c1.3-1.3,3.1-2.1,4.9-2.1
			c1.1,0,2.1,0.2,3.1,0.7v4H360.8z"/>
		<path class="st5" d="M366.1,631.7l-0.9,2.2h-3.6l5-12.9h3.7l4.9,12.9h-3.6l-0.8-2.2H366.1z M368.5,625L368.5,625l-1.4,4.1h2.8
			L368.5,625z"/>
		<path class="st5" d="M385.5,625.4c-0.7-0.9-1.8-1.4-3-1.4c-2.1,0-3.5,1.6-3.5,3.6s1.4,3.5,3.5,3.5c1.1,0,2.2-0.5,2.9-1.4v4
			c-1.1,0.3-1.9,0.6-3,0.6c-1.8,0-3.5-0.7-4.9-1.9c-1.4-1.3-2.1-3-2.1-4.9c0-1.8,0.7-3.5,1.9-4.7c1.3-1.3,3.1-2.1,4.9-2.1
			c1.1,0,2.1,0.2,3.1,0.7v4H385.5z"/>
		<path class="st5" d="M391,634h-3.4v-13h3.4V634z"/>
		<path class="st5" d="M406.8,627.2c0,4.2-3,7.1-7.2,7.1s-7.2-3-7.2-7.1c0-3.9,3.4-6.7,7.2-6.7C403.4,620.6,406.8,623.3,406.8,627.2
			z M396,627.3c0,2.2,1.6,3.9,3.7,3.9c2,0,3.7-1.6,3.7-3.9c0-1.8-1.6-3.4-3.7-3.4C397.7,623.8,396,625.5,396,627.3z M399.3,620.2
			l-1.4-1l2.4-3l1.9,1.4L399.3,620.2z"/>
		<path class="st5" d="M408.4,621h3.4l6.2,7.9l0,0V621h3.4v13H418l-6.2-7.9l0,0v7.9h-3.4V621z"/>
		<path class="st5" d="M313.5,646c-0.7-0.9-1.8-1.4-3-1.4c-2.1,0-3.5,1.6-3.5,3.6s1.4,3.5,3.5,3.5c1.1,0,2.2-0.5,2.9-1.4v4
			c-1.1,0.3-1.9,0.6-3,0.6c-1.8,0-3.5-0.7-4.9-1.9c-1.4-1.3-2.1-3-2.1-4.9c0-1.8,0.7-3.5,1.9-4.7c1.3-1.3,3.1-2.1,4.9-2.1
			c1.1,0,2.1,0.2,3.1,0.7v4H313.5z"/>
		<path class="st5" d="M318.9,652.3l-0.9,2.2h-3.6l5-12.9h3.7l4.9,12.9h-3.6l-0.8-2.2H318.9z M321.2,645.6L321.2,645.6l-1.4,4.1h2.8
			L321.2,645.6z"/>
		<path class="st5" d="M333.1,654.6h-3.4v-10.1H327v-2.9h8.9v2.9h-2.8V654.6z"/>
		<path class="st5" d="M339.4,652.3l-0.9,2.2h-3.6l5-12.9h3.7l4.9,12.9h-3.6l-0.8-2.2H339.4z M341.7,645.6L341.7,645.6l-1.4,4.1h2.8
			L341.7,645.6z"/>
		<path class="st5" d="M356.6,645c-0.6-0.5-1.4-0.9-2.2-0.9c-0.6,0-1.4,0.4-1.4,1.1c0,0.8,0.9,1,1.5,1.2l0.9,0.3
			c1.8,0.5,3.2,1.4,3.2,3.5c0,1.3-0.3,2.6-1.3,3.5s-2.4,1.2-3.7,1.2c-1.6,0-3.2-0.5-4.6-1.5l1.4-2.7c0.8,0.7,1.8,1.3,3,1.3
			c0.8,0,1.6-0.4,1.6-1.3c0-0.9-1.3-1.3-2-1.5c-2.1-0.6-3.5-1.2-3.5-3.7c0-2.6,1.9-4.3,4.5-4.3c1.3,0,2.9,0.4,4.1,1.1L356.6,645z"/>
		<path class="st5" d="M365.2,654.6h-3.4v-10.1H359v-2.9h8.9v2.9h-2.8L365.2,654.6L365.2,654.6z"/>
		<path class="st5" d="M380,654.6h-4.2l-3.2-5l0,0v5h-3.4v-12.9h5c2.6,0,4.5,1.2,4.5,4c0,1.8-1,3.3-2.8,3.7L380,654.6z M372.6,647.4
			h0.3c1.1,0,2.3-0.2,2.3-1.6s-1.2-1.6-2.3-1.6h-0.3V647.4z"/>
		<path class="st5" d="M384.2,652.3l-0.9,2.2h-3.6l5-12.9h3.7l4.9,12.9h-3.6l-0.8-2.2H384.2z M386.6,645.6L386.6,645.6l-1.4,4.1h2.8
			L386.6,645.6z"/>
		<path class="st5" d="M397.7,651.7h4v2.9h-7.4v-12.9h3.4V651.7z"/>
	</g>
</g>
<path class="st3" d="M490.5,24.5c0,9.1-6.5,15.5-15.6,15.5c-9,0-15.6-6.4-15.6-15.5c0-8.5,7.5-14.5,15.6-14.5
	C483,10,490.5,16,490.5,24.5z M466.9,24.5c0,4.9,3.6,8.4,8,8.4s8-3.5,8-8.4c0-3.9-3.6-7.4-8-7.4C470.4,17,466.9,20.7,466.9,24.5z
	 M474,9.2L471,7l5.3-6.4l4.2,3L474,9.2z"/>
</svg>
