<?xml version="1.0" encoding="utf-8"?>
<!-- Generator: Adobe Illustrator 21.0.2, SVG Export Plug-In . SVG Version: 6.00 Build 0)  -->
<svg version="1.1" id="Layer_1" xmlns="http://www.w3.org/2000/svg" xmlns:xlink="http://www.w3.org/1999/xlink" x="0px" y="0px"
	 viewBox="0 0 998.6 841" style="enable-background:new 0 0 998.6 841;" xml:space="preserve">
<style type="text/css">
	.st0{fill:none;stroke:#E42527;stroke-width:4;stroke-miterlimit:10;}
	.st1{fill:#D81117;}
	.st2{fill:#929191;}
	.st3{fill:#9D9D9C;}
	.st4{fill:#FFFFFF;}
	.st5{fill:#E42527;}
</style>
<line id="XMLID_3185_" class="st0" x1="497.4" y1="89.5" x2="497.4" y2="746.6"/>
<rect id="XMLID_2921_" x="99.1" y="410.4" class="st1" width="223.2" height="101"/>
<rect id="XMLID_2920_" x="99.1" y="612.1" class="st2" width="223.2" height="101"/>
<rect id="XMLID_2919_" x="387.4" y="0.9" class="st3" width="223.2" height="101"/>
<rect id="XMLID_2918_" x="663.5" y="132" class="st3" width="236.2" height="101"/>
<g id="XMLID_19756_">
	<g>
		<path id="XMLID_1161_" class="st4" d="M133.5,442.9l2.7-6.8h3.1l-4.8,11.1h-2.2l-4.7-11.1h3.1L133.5,442.9z"/>
		<path id="XMLID_1158_" class="st4" d="M145.2,438.3c0,1.5-1.4,2.4-3,2.4c-1.6,0-3-0.9-3-2.4c0-1.5,1.4-2.4,3-2.4
			C143.8,435.8,145.2,436.7,145.2,438.3z M141.1,438.3c0,0.6,0.5,1,1.1,1c0.6,0,1.1-0.4,1.1-1c0-0.6-0.5-1-1.1-1
			C141.6,437.2,141.1,437.7,141.1,438.3z"/>
		<path id="XMLID_1154_" class="st4" d="M151.2,447.3v-11.1h4.1c2,0,3.3,0.8,3.3,2.9c0,1-0.3,1.8-1.2,2.3v0c1.6,0.2,2.3,1.3,2.3,2.8
			c0,2.3-2,3.1-4,3.1H151.2z M154.1,440.5h0.3c0.8,0,1.6-0.1,1.6-1.1c0-1-0.9-1.1-1.7-1.1h-0.2V440.5z M154.1,445.1h0.4
			c0.9,0,2.3,0,2.3-1.2c0-1.3-1.4-1.2-2.4-1.2h-0.3V445.1z"/>
		<path id="XMLID_1151_" class="st4" d="M166.3,438.3c0,1.5-1.4,2.4-3,2.4c-1.6,0-3-0.9-3-2.4c0-1.5,1.4-2.4,3-2.4
			C164.9,435.8,166.3,436.7,166.3,438.3z M162.2,438.3c0,0.6,0.5,1,1.1,1c0.6,0,1.1-0.4,1.1-1c0-0.6-0.5-1-1.1-1
			C162.7,437.2,162.2,437.7,162.2,438.3z"/>
		<path id="XMLID_1148_" class="st4" d="M175.2,445.3l-0.8,1.9h-3.1l4.3-11.1h3.2l4.2,11.1h-3.1l-0.7-1.9H175.2z M177.2,439.6
			L177.2,439.6l-1.2,3.5h2.4L177.2,439.6z"/>
		<path id="XMLID_1145_" class="st4" d="M193.1,447.3h-3.6l-2.7-4.3h0v4.3h-2.9v-11.1h4.3c2.2,0,3.9,1,3.9,3.4
			c0,1.5-0.9,2.9-2.4,3.1L193.1,447.3z M186.7,441.1h0.3c0.9,0,2-0.2,2-1.4c0-1.2-1.1-1.4-2-1.4h-0.3V441.1z"/>
		<path id="XMLID_1143_" class="st4" d="M196.8,438.6v1.9h3.3v2.4h-3.3v1.9h3.4v2.4h-6.3v-11.1h6.3v2.4H196.8z"/>
		<path id="XMLID_1140_" class="st4" d="M204.8,445.3l-0.8,1.9H201l4.3-11.1h3.2l4.2,11.1h-3.1l-0.7-1.9H204.8z M206.9,439.6
			L206.9,439.6l-1.2,3.5h2.4L206.9,439.6z"/>
		<path id="XMLID_1138_" class="st4" d="M223,447.3h-2.9v-8.7h-2.4v-2.4h7.7v2.4H223V447.3z"/>
		<path id="XMLID_1136_" class="st4" d="M229.3,438.6v1.9h3.3v2.4h-3.3v1.9h3.4v2.4h-6.3v-11.1h6.3v2.4H229.3z"/>
		<path id="XMLID_1134_" class="st4" d="M242.5,439.9c-0.6-0.8-1.5-1.2-2.5-1.2c-1.8,0-3,1.4-3,3.1c0,1.8,1.2,3,3,3
			c0.9,0,1.9-0.5,2.5-1.2v3.5c-1,0.3-1.7,0.5-2.6,0.5c-1.5,0-3-0.6-4.2-1.6c-1.2-1.1-1.8-2.6-1.8-4.2c0-1.5,0.6-3,1.6-4.1
			c1.1-1.1,2.7-1.8,4.2-1.8c0.9,0,1.8,0.2,2.6,0.6V439.9z"/>
		<path id="XMLID_1132_" class="st4" d="M244.3,436.1h2.9l5.3,6.8h0v-6.8h2.9v11.1h-2.9l-5.3-6.8h0v6.8h-2.9V436.1z"/>
		<path id="XMLID_1130_" class="st4" d="M260.2,447.3h-2.9v-11.1h2.9V447.3z"/>
		<path id="XMLID_1128_" class="st4" d="M270,439.9c-0.6-0.8-1.5-1.2-2.5-1.2c-1.8,0-3,1.4-3,3.1c0,1.8,1.2,3,3,3
			c0.9,0,1.9-0.5,2.5-1.2v3.5c-1,0.3-1.7,0.5-2.6,0.5c-1.5,0-3-0.6-4.2-1.6c-1.2-1.1-1.8-2.6-1.8-4.2c0-1.5,0.6-3,1.6-4.1
			c1.1-1.1,2.7-1.8,4.2-1.8c0.9,0,1.8,0.2,2.6,0.6V439.9z"/>
		<path id="XMLID_966_" class="st4" d="M274.7,445.3l-0.8,1.9h-3.1l4.3-11.1h3.2l4.2,11.1h-3.1l-0.7-1.9H274.7z M276.7,439.6
			L276.7,439.6l-1.2,3.5h2.4L276.7,439.6z"/>
		<path id="XMLID_964_" class="st4" d="M176.3,453.8h3.5l2.1,3l2.1-3h3.5l-4.1,5.8v5.3h-2.9v-5.3L176.3,453.8z"/>
		<path id="XMLID_962_" class="st4" d="M196,462.5h3.5v2.4h-6.4v-11.1h2.9V462.5z"/>
		<path id="XMLID_960_" class="st4" d="M203.3,456.3v1.9h3.3v2.4h-3.3v1.9h3.4v2.4h-6.3v-11.1h6.3v2.4H203.3z"/>
		<path id="XMLID_958_" class="st4" d="M219.6,458.8c0,1.6-0.1,3-1.1,4.4c-1.1,1.5-2.7,2.2-4.6,2.2c-3.5,0-5.9-2.4-5.9-5.9
			c0-3.6,2.4-6,6-6c2.3,0,4.1,1,5,3.1l-2.7,1.2c-0.4-1.1-1.2-1.8-2.4-1.8c-1.9,0-2.9,1.8-2.9,3.5c0,1.7,1,3.5,2.9,3.5
			c1.3,0,2.2-0.6,2.3-1.9h-2.4v-2.3H219.6z"/>
		<path id="XMLID_955_" class="st4" d="M223.8,463L223,465h-3.1l4.3-11.1h3.2l4.2,11.1h-3.1l-0.7-1.9H223.8z M225.8,457.3
			L225.8,457.3l-1.2,3.5h2.4L225.8,457.3z"/>
		<path id="XMLID_953_" class="st4" d="M235.4,462.5h3.5v2.4h-6.4v-11.1h2.9V462.5z"/>
		<path id="XMLID_950_" class="st4" d="M150.9,482.7h-3.6l-2.7-4.3h0v4.3h-2.9v-11.1h4.3c2.2,0,3.9,1,3.9,3.4c0,1.5-0.9,2.9-2.4,3.1
			L150.9,482.7z M144.6,476.5h0.3c0.9,0,2-0.2,2-1.4c0-1.2-1.1-1.4-2-1.4h-0.3V476.5z"/>
		<path id="XMLID_947_" class="st4" d="M159.4,479.3h-5.7c0,1.1,0.6,1.7,1.7,1.7c0.6,0,1-0.2,1.3-0.7h2.6c-0.2,0.9-0.7,1.5-1.4,2
			c-0.7,0.4-1.5,0.6-2.4,0.6c-2.5,0-4.4-1.4-4.4-4c0-2.5,1.7-4,4.2-4c2.6,0,4.1,1.6,4.1,4.2V479.3z M156.9,477.8
			c-0.1-0.7-0.8-1.2-1.5-1.2c-0.8,0-1.4,0.4-1.6,1.2H156.9z"/>
		<path id="XMLID_945_" class="st4" d="M164.4,479l1.8-3.9h3l-4,7.6h-1.7l-4-7.6h3L164.4,479z"/>
		<path id="XMLID_942_" class="st4" d="M172.7,472.2c0,0.8-0.7,1.5-1.5,1.5c-0.8,0-1.5-0.7-1.5-1.5c0-0.8,0.7-1.5,1.5-1.5
			C172,470.7,172.7,471.4,172.7,472.2z M172.5,482.7h-2.7v-7.6h2.7V482.7z"/>
		<path id="XMLID_940_" class="st4" d="M179.3,477.1c-0.4-0.2-1-0.4-1.4-0.4c-0.3,0-0.8,0.1-0.8,0.5c0,0.5,0.8,0.6,1.2,0.7
			c1.3,0.3,2.2,0.8,2.2,2.2c0,2-1.8,2.8-3.6,2.8c-1.1,0-2.1-0.3-3.1-0.9l1-1.9c0.5,0.4,1.5,0.8,2.1,0.8c0.3,0,0.8-0.2,0.8-0.6
			c0-0.6-0.8-0.6-1.7-0.8c-0.8-0.2-1.7-0.6-1.7-2c0-1.9,1.7-2.7,3.3-2.7c0.9,0,1.7,0.1,2.5,0.5L179.3,477.1z"/>
		<path id="XMLID_937_" class="st4" d="M184.7,472.2c0,0.8-0.7,1.5-1.5,1.5c-0.8,0-1.5-0.7-1.5-1.5c0-0.8,0.7-1.5,1.5-1.5
			C184,470.7,184.7,471.4,184.7,472.2z M184.6,482.7h-2.7v-7.6h2.7V482.7z"/>
		<path id="XMLID_933_" class="st4" d="M194.9,478.9c0,2.6-2.1,4-4.6,4c-2.4,0-4.6-1.4-4.6-4s2.1-4,4.6-4
			C192.8,474.9,194.9,476.3,194.9,478.9z M188.6,478.9c0,1,0.6,1.7,1.7,1.7c1.1,0,1.7-0.7,1.7-1.7c0-0.9-0.6-1.7-1.7-1.7
			C189.2,477.2,188.6,478,188.6,478.9z M190,474l-1.2-0.9l2.1-2.5l1.6,1.2L190,474z"/>
		<path id="XMLID_931_" class="st4" d="M198.8,476.1L198.8,476.1c0.6-0.9,1.4-1.2,2.4-1.2c2,0,2.8,1.3,2.8,3.1v4.7h-2.7V479
			c0-0.7,0.1-2-1.2-2c-1.1,0-1.4,0.8-1.4,1.8v3.9h-2.7v-7.6h2.7V476.1z"/>
		<path id="XMLID_928_" class="st4" d="M213.5,476L213.5,476c0.5-0.8,1.4-1.1,2.3-1.1c2.3,0,3.8,1.9,3.8,4.1c0,2.2-1.5,4-3.8,4
			c-0.9,0-1.8-0.3-2.3-1v4.5h-2.7v-11.3h2.7V476z M213.4,478.9c0,1,0.6,1.7,1.7,1.7c1.1,0,1.7-0.7,1.7-1.7c0-0.9-0.6-1.7-1.7-1.7
			C214.1,477.2,213.4,478,213.4,478.9z"/>
		<path id="XMLID_926_" class="st4" d="M223.7,476.3L223.7,476.3c0.5-0.9,1.4-1.3,2.5-1.3h0.5v2.6c-0.4-0.2-0.7-0.3-1.1-0.3
			c-1.5,0-1.9,1-1.9,2.3v3.1H221v-7.6h2.7V476.3z"/>
		<path id="XMLID_923_" class="st4" d="M235.4,479.3h-5.7c0,1.1,0.6,1.7,1.7,1.7c0.6,0,1-0.2,1.3-0.7h2.6c-0.2,0.9-0.7,1.5-1.4,2
			c-0.7,0.4-1.5,0.6-2.4,0.6c-2.5,0-4.4-1.4-4.4-4c0-2.5,1.7-4,4.2-4c2.6,0,4.1,1.6,4.1,4.2V479.3z M232.9,477.8
			c-0.1-0.7-0.8-1.2-1.5-1.2c-0.8,0-1.4,0.4-1.6,1.2H232.9z"/>
		<path id="XMLID_921_" class="st4" d="M240.4,479l1.8-3.9h3l-4,7.6h-1.7l-4-7.6h3L240.4,479z"/>
		<path id="XMLID_900_" class="st4" d="M248.7,472.2c0,0.8-0.7,1.5-1.5,1.5c-0.8,0-1.5-0.7-1.5-1.5c0-0.8,0.7-1.5,1.5-1.5
			C248,470.7,248.7,471.4,248.7,472.2z M248.5,482.7h-2.7v-7.6h2.7V482.7z"/>
		<path id="XMLID_897_" class="st4" d="M258.6,482.7h-2.7v-0.8h0c-0.5,0.8-1.4,1.1-2.3,1.1c-2.2,0-3.8-1.9-3.8-4c0-2.2,1.5-4,3.8-4
			c0.9,0,1.8,0.3,2.3,1v-0.7h2.7V482.7z M252.5,478.9c0,1,0.6,1.7,1.7,1.7c1.1,0,1.7-0.7,1.7-1.7c0-0.9-0.6-1.7-1.7-1.7
			C253.2,477.2,252.5,478,252.5,478.9z"/>
		<path id="XMLID_895_" class="st4" d="M263.8,481.2c0,0.9-0.8,1.7-1.7,1.7c-1,0-1.7-0.8-1.7-1.7c0-1,0.8-1.7,1.7-1.7
			C263,479.5,263.8,480.3,263.8,481.2z"/>
	</g>
</g>
<g id="XMLID_19721_">
	<g>
		<path id="XMLID_296_" class="st4" d="M135.6,664.2l2.7-6.8h3.1l-4.8,11.1h-2.2l-4.7-11.1h3.1L135.6,664.2z"/>
		<path id="XMLID_294_" class="st4" d="M145.1,659.9v1.9h3.3v2.4h-3.3v1.9h3.4v2.4h-6.3v-11.1h6.3v2.4H145.1z"/>
		<path id="XMLID_292_" class="st4" d="M150.3,657.5h2.9l5.3,6.8h0v-6.8h2.9v11.1h-2.9l-5.3-6.8h0v6.8h-2.9V657.5z"/>
		<path id="XMLID_290_" class="st4" d="M167.7,668.6h-2.9v-8.7h-2.4v-2.4h7.7v2.4h-2.4V668.6z"/>
		<path id="XMLID_287_" class="st4" d="M173.1,666.7l-0.8,1.9h-3.1l4.3-11.1h3.2l4.2,11.1h-3.1l-0.7-1.9H173.1z M175.1,660.9
			L175.1,660.9l-1.2,3.5h2.4L175.1,660.9z"/>
		<path id="XMLID_285_" class="st4" d="M181.8,657.5h2.9l5.3,6.8h0v-6.8h2.9v11.1H190l-5.3-6.8h0v6.8h-2.9V657.5z"/>
		<path id="XMLID_283_" class="st4" d="M197.7,668.6h-2.9v-11.1h2.9V668.6z"/>
		<path id="XMLID_281_" class="st4" d="M202.5,666.2h3.5v2.4h-6.4v-11.1h2.9V666.2z"/>
		<path id="XMLID_279_" class="st4" d="M209.8,666.2h3.5v2.4h-6.4v-11.1h2.9V666.2z"/>
		<path id="XMLID_276_" class="st4" d="M217,666.7l-0.8,1.9h-3.1l4.3-11.1h3.2l4.2,11.1h-3.1l-0.7-1.9H217z M219,660.9L219,660.9
			l-1.2,3.5h2.4L219,660.9z"/>
		<path id="XMLID_273_" class="st4" d="M240.4,657.5v6.3c0,1.4-0.1,2.8-1.2,3.9c-0.9,0.9-2.4,1.2-3.7,1.2c-1.3,0-2.8-0.3-3.7-1.2
			c-1.1-1.1-1.2-2.5-1.2-3.9v-6.3h2.9v5.9c0,1.4,0.1,3,2,3c1.9,0,2-1.6,2-3v-5.9H240.4z M235.2,656.8l-1.2-0.9l2.1-2.5l1.6,1.2
			L235.2,656.8z"/>
		<path id="XMLID_271_" class="st4" d="M242.2,657.5h2.9l5.3,6.8h0v-6.8h2.9v11.1h-2.9l-5.3-6.8h0v6.8h-2.9V657.5z"/>
		<path id="XMLID_269_" class="st4" d="M258.1,668.6h-2.9v-11.1h2.9V668.6z"/>
		<path id="XMLID_267_" class="st4" d="M268,661.2c-0.6-0.8-1.5-1.2-2.5-1.2c-1.8,0-3,1.4-3,3.1c0,1.8,1.2,3,3,3
			c0.9,0,1.9-0.5,2.5-1.2v3.5c-1,0.3-1.7,0.5-2.6,0.5c-1.5,0-3-0.6-4.2-1.6c-1.2-1.1-1.8-2.6-1.8-4.2c0-1.5,0.6-3,1.6-4.1
			c1.1-1.1,2.7-1.8,4.2-1.8c0.9,0,1.8,0.2,2.6,0.6V661.2z"/>
		<path id="XMLID_264_" class="st4" d="M272.6,666.7l-0.8,1.9h-3.1l4.3-11.1h3.2l4.2,11.1h-3.1l-0.7-1.9H272.6z M274.6,660.9
			L274.6,660.9l-1.2,3.5h2.4L274.6,660.9z"/>
	</g>
</g>
<g id="XMLID_19660_">
	<g>
		<path id="XMLID_597_" class="st4" d="M459.3,34.6l-0.8,1.9h-3.1l4.3-11.1h3.2l4.2,11.1H464l-0.7-1.9H459.3z M461.3,28.9
			L461.3,28.9l-1.2,3.5h2.4L461.3,28.9z"/>
		<path id="XMLID_593_" class="st4" d="M468,36.5V25.4h4.1c2,0,3.3,0.8,3.3,2.9c0,1-0.3,1.8-1.2,2.3v0c1.6,0.2,2.3,1.3,2.3,2.8
			c0,2.3-2,3.1-4,3.1H468z M470.9,29.8h0.3c0.8,0,1.6-0.1,1.6-1.1c0-1-0.9-1.1-1.7-1.1h-0.2V29.8z M470.9,34.3h0.4
			c0.9,0,2.3,0,2.3-1.2c0-1.3-1.4-1.2-2.4-1.2h-0.3V34.3z"/>
		<path id="XMLID_590_" class="st4" d="M489.7,30.8c0,3.6-2.6,6.1-6.2,6.1s-6.2-2.5-6.2-6.1c0-3.4,3-5.7,6.2-5.7
			C486.7,25,489.7,27.4,489.7,30.8z M480.4,30.8c0,1.9,1.4,3.3,3.1,3.3c1.7,0,3.1-1.4,3.1-3.3c0-1.5-1.4-2.9-3.1-2.9
			C481.8,27.8,480.4,29.3,480.4,30.8z"/>
		<path id="XMLID_588_" class="st4" d="M502.1,30.3c0,1.6-0.1,3-1.1,4.4c-1.1,1.5-2.7,2.2-4.6,2.2c-3.5,0-5.9-2.4-5.9-5.9
			c0-3.6,2.4-6,6-6c2.3,0,4.1,1,5,3.1l-2.7,1.2c-0.4-1.1-1.2-1.8-2.4-1.8c-1.9,0-2.9,1.8-2.9,3.5c0,1.7,1,3.5,2.9,3.5
			c1.3,0,2.2-0.6,2.3-1.9h-2.4v-2.3H502.1z"/>
		<path id="XMLID_585_" class="st4" d="M506.3,34.6l-0.8,1.9h-3.1l4.3-11.1h3.2l4.2,11.1H511l-0.7-1.9H506.3z M508.3,28.9
			L508.3,28.9l-1.2,3.5h2.4L508.3,28.9z"/>
		<path id="XMLID_582_" class="st4" d="M515,25.4h4.1c3.1,0,5.7,2.4,5.7,5.6s-2.6,5.6-5.7,5.6H515V25.4z M517.9,34.1h0.6
			c1.7,0,3.2-0.9,3.2-3.1c0-2-1.3-3.1-3.2-3.1h-0.7V34.1z"/>
		<path id="XMLID_579_" class="st4" d="M537.8,30.8c0,3.6-2.6,6.1-6.2,6.1c-3.6,0-6.2-2.5-6.2-6.1c0-3.4,3-5.7,6.2-5.7
			C534.9,25,537.8,27.4,537.8,30.8z M528.5,30.8c0,1.9,1.4,3.3,3.1,3.3s3.1-1.4,3.1-3.3c0-1.5-1.4-2.9-3.1-2.9
			S528.5,29.3,528.5,30.8z"/>
		<path id="XMLID_577_" class="st4" d="M461.2,43.1v6.3c0,1.4-0.1,2.8-1.2,3.9c-0.9,0.9-2.4,1.2-3.7,1.2c-1.3,0-2.8-0.3-3.7-1.2
			c-1.1-1.1-1.2-2.5-1.2-3.9v-6.3h2.9V49c0,1.4,0.1,3,2,3c1.9,0,2-1.6,2-3v-5.9H461.2z"/>
		<path id="XMLID_546_" class="st4" d="M472.3,54.2h-3.6L466,50h0v4.3h-2.9V43.1h4.3c2.2,0,3.9,1,3.9,3.4c0,1.5-0.9,2.9-2.4,3.1
			L472.3,54.2z M466,48.1h0.3c0.9,0,2-0.2,2-1.4c0-1.2-1.1-1.4-2-1.4H466V48.1z"/>
		<path id="XMLID_542_" class="st4" d="M473.1,54.2V43.1h4.1c2,0,3.3,0.8,3.3,2.9c0,1-0.3,1.8-1.2,2.3v0c1.6,0.2,2.3,1.3,2.3,2.8
			c0,2.3-2,3.1-4,3.1H473.1z M476,47.5h0.3c0.8,0,1.6-0.1,1.6-1.1c0-1-0.9-1.1-1.7-1.1H476V47.5z M476,52h0.4c0.9,0,2.3,0,2.3-1.2
			c0-1.3-1.4-1.2-2.4-1.2H476V52z"/>
		<path id="XMLID_539_" class="st4" d="M485.9,52.3l-0.8,1.9h-3.1l4.3-11.1h3.2l4.2,11.1h-3.1l-0.7-1.9H485.9z M488,46.6L488,46.6
			l-1.2,3.5h2.4L488,46.6z"/>
		<path id="XMLID_537_" class="st4" d="M494.6,43.1h2.9l5.3,6.8h0v-6.8h2.9v11.1h-2.9l-5.3-6.8h0v6.8h-2.9V43.1z"/>
		<path id="XMLID_535_" class="st4" d="M510.5,54.2h-2.9V43.1h2.9V54.2z"/>
		<path id="XMLID_533_" class="st4" d="M518.5,46c-0.5-0.4-1.2-0.7-1.9-0.7c-0.5,0-1.2,0.3-1.2,0.9c0,0.6,0.8,0.9,1.3,1.1l0.7,0.2
			c1.5,0.5,2.7,1.2,2.7,3c0,1.1-0.3,2.2-1.2,3c-0.9,0.7-2,1-3.2,1c-1.4,0-2.8-0.5-3.9-1.3l1.2-2.3c0.7,0.6,1.6,1.2,2.6,1.2
			c0.7,0,1.4-0.3,1.4-1.1c0-0.8-1.1-1.1-1.8-1.3c-1.8-0.5-3-1-3-3.1c0-2.3,1.6-3.7,3.8-3.7c1.1,0,2.5,0.4,3.5,0.9L518.5,46z"/>
		<path id="XMLID_531_" class="st4" d="M522.7,43.1h2.8l2.3,5.9l2.4-5.9h2.9l1.7,11.1h-2.9l-0.8-6.4h0l-2.7,6.4h-1.2l-2.6-6.4h0
			l-0.9,6.4h-2.9L522.7,43.1z"/>
		<path id="XMLID_528_" class="st4" d="M547.7,48.5c0,3.6-2.6,6.1-6.2,6.1c-3.6,0-6.2-2.5-6.2-6.1c0-3.4,3-5.7,6.2-5.7
			C544.8,42.8,547.7,45.1,547.7,48.5z M538.4,48.5c0,1.9,1.4,3.3,3.1,3.3c1.7,0,3.1-1.4,3.1-3.3c0-1.5-1.4-2.9-3.1-2.9
			C539.9,45.6,538.4,47,538.4,48.5z"/>
		<path id="XMLID_526_" class="st4" d="M473.1,72h-2.9V60.8h2.9V72z"/>
		<path id="XMLID_524_" class="st4" d="M477.6,65.4L477.6,65.4c0.6-0.9,1.4-1.2,2.4-1.2c2,0,2.8,1.3,2.8,3.1V72h-2.7v-3.7
			c0-0.7,0.1-2-1.2-2c-1.1,0-1.4,0.8-1.4,1.8V72h-2.7v-7.6h2.7V65.4z"/>
		<path id="XMLID_522_" class="st4" d="M487.6,72h-2.7v-5.4H484v-2.2h0.9v-1c0-1,0-1.8,0.8-2.7c0.7-0.8,1.6-1.2,2.6-1.2
			c0.4,0,0.8,0.1,1.2,0.3v2.3c-0.3-0.1-0.6-0.3-0.9-0.3c-0.7,0-0.9,0.4-0.9,1.3v1.2h1.9v2.2h-1.9V72z"/>
		<path id="XMLID_519_" class="st4" d="M498.9,68.2c0,2.6-2.1,4-4.6,4c-2.4,0-4.6-1.4-4.6-4s2.1-4,4.6-4
			C496.8,64.1,498.9,65.6,498.9,68.2z M492.7,68.2c0,1,0.6,1.7,1.7,1.7s1.7-0.7,1.7-1.7c0-0.9-0.6-1.7-1.7-1.7
			S492.7,67.2,492.7,68.2z"/>
		<path id="XMLID_517_" class="st4" d="M502.8,65.6L502.8,65.6c0.5-0.9,1.4-1.3,2.5-1.3h0.5v2.6c-0.4-0.2-0.7-0.3-1.1-0.3
			c-1.5,0-1.9,1-1.9,2.3V72h-2.7v-7.6h2.7V65.6z"/>
		<path id="XMLID_515_" class="st4" d="M509.5,65.3L509.5,65.3c0.7-0.8,1.4-1.2,2.4-1.2c1.1,0,2,0.4,2.6,1.4
			c0.5-0.9,1.5-1.4,2.6-1.4c1.9,0,2.6,1.3,2.6,3V72H517v-3.6c0-0.8,0-2.1-1.1-2.1c-1.2,0-1.3,1.2-1.3,2.1V72h-2.7v-3.6
			c0-0.8,0-2.1-1.2-2.1c-1.2,0-1.2,1.3-1.2,2.1V72h-2.7v-7.6h2.7V65.3z"/>
		<path id="XMLID_512_" class="st4" d="M529.2,68.6h-5.7c0,1.1,0.6,1.7,1.7,1.7c0.6,0,1-0.2,1.3-0.7h2.6c-0.2,0.9-0.7,1.5-1.4,2
			c-0.7,0.4-1.5,0.6-2.4,0.6c-2.5,0-4.4-1.4-4.4-4c0-2.5,1.7-4,4.2-4c2.6,0,4.1,1.6,4.1,4.2V68.6z M526.7,67.1
			c-0.1-0.7-0.8-1.2-1.5-1.2c-0.8,0-1.4,0.4-1.6,1.2H526.7z"/>
	</g>
</g>
<g id="XMLID_19600_">
	<g>
		<path id="XMLID_574_" class="st4" d="M720.3,170c-0.6-0.8-1.5-1.2-2.5-1.2c-1.8,0-3,1.4-3,3.1c0,1.8,1.2,3,3,3
			c0.9,0,1.9-0.5,2.5-1.2v3.5c-1,0.3-1.7,0.5-2.6,0.5c-1.5,0-3-0.6-4.2-1.6c-1.2-1.1-1.8-2.6-1.8-4.2c0-1.5,0.6-3,1.6-4.1
			c1.1-1.1,2.7-1.8,4.2-1.8c0.9,0,1.8,0.2,2.6,0.6V170z"/>
		<path id="XMLID_571_" class="st4" d="M733.8,171.6c0,3.6-2.6,6.1-6.2,6.1c-3.6,0-6.2-2.5-6.2-6.1c0-3.4,3-5.7,6.2-5.7
			C730.8,165.9,733.8,168.3,733.8,171.6z M724.5,171.7c0,1.9,1.4,3.3,3.1,3.3s3.1-1.4,3.1-3.3c0-1.5-1.4-2.9-3.1-2.9
			S724.5,170.1,724.5,171.7z"/>
		<path id="XMLID_569_" class="st4" d="M735.1,166.3h2.9l5.3,6.8h0v-6.8h2.9v11.1h-2.9l-5.3-6.8h0v6.8h-2.9V166.3z"/>
		<path id="XMLID_567_" class="st4" d="M752.6,177.4h-2.9v-8.7h-2.4v-2.4h7.7v2.4h-2.4V177.4z"/>
		<path id="XMLID_564_" class="st4" d="M765.3,177.4h-3.6l-2.7-4.3h0v4.3H756v-11.1h4.3c2.2,0,3.9,1,3.9,3.4c0,1.5-0.9,2.9-2.4,3.1
			L765.3,177.4z M758.9,171.3h0.3c0.9,0,2-0.2,2-1.4c0-1.2-1.1-1.4-2-1.4h-0.3V171.3z"/>
		<path id="XMLID_562_" class="st4" d="M768.9,177.4H766v-11.1h2.9V177.4z"/>
		<path id="XMLID_558_" class="st4" d="M770.8,177.4v-11.1h4.1c2,0,3.3,0.8,3.3,2.9c0,1-0.3,1.8-1.2,2.3v0c1.6,0.2,2.3,1.3,2.3,2.8
			c0,2.3-2,3.1-4,3.1H770.8z M773.7,170.6h0.3c0.8,0,1.6-0.1,1.6-1.1c0-1-0.9-1.1-1.7-1.1h-0.2V170.6z M773.7,175.2h0.4
			c0.9,0,2.3,0,2.3-1.2c0-1.3-1.4-1.2-2.4-1.2h-0.3V175.2z"/>
		<path id="XMLID_556_" class="st4" d="M790.5,166.3v6.3c0,1.4-0.1,2.8-1.2,3.9c-0.9,0.9-2.4,1.2-3.7,1.2s-2.8-0.3-3.7-1.2
			c-1.1-1.1-1.2-2.5-1.2-3.9v-6.3h2.9v5.9c0,1.4,0.1,3,2,3s2-1.6,2-3v-5.9H790.5z"/>
		<path id="XMLID_554_" class="st4" d="M791.1,166.3h3.5l2.1,3l2.1-3h3.5l-4.1,5.8v5.3h-2.9v-5.3L791.1,166.3z"/>
		<path id="XMLID_552_" class="st4" d="M805.7,168.7v1.9h3.3v2.4h-3.3v1.9h3.4v2.4h-6.3v-11.1h6.3v2.4H805.7z"/>
		<path id="XMLID_550_" class="st4" d="M810.9,166.3h2.9l5.3,6.8h0v-6.8h2.9v11.1h-2.9l-5.3-6.8h0v6.8h-2.9V166.3z"/>
		<path id="XMLID_548_" class="st4" d="M828.4,177.4h-2.9v-8.7h-2.4v-2.4h7.7v2.4h-2.4V177.4z"/>
		<path id="XMLID_503_" class="st4" d="M834.7,168.7v1.9h3.3v2.4h-3.3v1.9h3.4v2.4h-6.3v-11.1h6.3v2.4H834.7z"/>
		<path id="XMLID_501_" class="st4" d="M735.7,187.7c-0.6-0.8-1.5-1.2-2.5-1.2c-1.8,0-3,1.4-3,3.1c0,1.8,1.2,3,3,3
			c0.9,0,1.9-0.5,2.5-1.2v3.5c-1,0.3-1.7,0.5-2.6,0.5c-1.5,0-3-0.6-4.2-1.6c-1.2-1.1-1.8-2.6-1.8-4.2c0-1.5,0.6-3,1.6-4.1
			c1.1-1.1,2.7-1.8,4.2-1.8c0.9,0,1.8,0.2,2.6,0.6V187.7z"/>
		<path id="XMLID_498_" class="st4" d="M746,191.3c0,2.6-2.1,4-4.6,4c-2.4,0-4.6-1.4-4.6-4c0-2.6,2.1-4,4.6-4
			C743.9,187.3,746,188.8,746,191.3z M739.7,191.3c0,1,0.6,1.7,1.7,1.7c1.1,0,1.7-0.7,1.7-1.7c0-0.9-0.6-1.7-1.7-1.7
			C740.4,189.6,739.7,190.4,739.7,191.3z"/>
		<path id="XMLID_496_" class="st4" d="M749.9,188.8L749.9,188.8c0.5-0.9,1.4-1.3,2.5-1.3h0.5v2.6c-0.4-0.2-0.7-0.3-1.1-0.3
			c-1.5,0-1.9,1-1.9,2.3v3.1h-2.7v-7.6h2.7V188.8z"/>
		<path id="XMLID_494_" class="st4" d="M756.6,188.8L756.6,188.8c0.5-0.9,1.4-1.3,2.5-1.3h0.5v2.6c-0.4-0.2-0.7-0.3-1.1-0.3
			c-1.5,0-1.9,1-1.9,2.3v3.1h-2.7v-7.6h2.7V188.8z"/>
		<path id="XMLID_491_" class="st4" d="M768.4,191.8h-5.7c0,1.1,0.6,1.7,1.7,1.7c0.6,0,1-0.2,1.3-0.7h2.6c-0.2,0.9-0.7,1.5-1.4,2
			c-0.7,0.4-1.5,0.6-2.4,0.6c-2.5,0-4.4-1.4-4.4-4c0-2.5,1.7-4,4.2-4c2.6,0,4.1,1.6,4.1,4.2V191.8z M765.9,190.2
			c-0.1-0.7-0.8-1.2-1.5-1.2c-0.8,0-1.4,0.4-1.6,1.2H765.9z"/>
		<path id="XMLID_489_" class="st4" d="M775.1,190c-0.4-0.3-0.9-0.5-1.4-0.5c-1,0-1.8,0.8-1.8,1.8c0,1.1,0.8,1.9,1.9,1.9
			c0.5,0,1-0.2,1.3-0.5v2.3c-0.6,0.3-1.2,0.4-1.9,0.4c-2.2,0-4.1-1.7-4.1-4c0-2.4,1.9-4.1,4.2-4.1c0.6,0,1.2,0.1,1.8,0.4V190z"/>
		<path id="XMLID_487_" class="st4" d="M782.2,190c-0.4-0.3-0.9-0.5-1.4-0.5c-1,0-1.8,0.8-1.8,1.8c0,1.1,0.8,1.9,1.9,1.9
			c0.5,0,1-0.2,1.3-0.5v2.3c-0.6,0.3-1.2,0.4-1.9,0.4c-2.2,0-4.1-1.7-4.1-4c0-2.4,1.9-4.1,4.2-4.1c0.6,0,1.2,0.1,1.8,0.4V190z"/>
		<path id="XMLID_484_" class="st4" d="M786.7,184.6c0,0.8-0.7,1.5-1.5,1.5c-0.8,0-1.5-0.7-1.5-1.5c0-0.8,0.7-1.5,1.5-1.5
			C786,183.1,786.7,183.8,786.7,184.6z M786.5,195.1h-2.7v-7.6h2.7V195.1z"/>
		<path id="XMLID_481_" class="st4" d="M796.9,191.3c0,2.6-2.1,4-4.6,4c-2.4,0-4.6-1.4-4.6-4c0-2.6,2.1-4,4.6-4
			C794.7,187.3,796.9,188.8,796.9,191.3z M790.6,191.3c0,1,0.6,1.7,1.7,1.7c1.1,0,1.7-0.7,1.7-1.7c0-0.9-0.6-1.7-1.7-1.7
			C791.2,189.6,790.6,190.4,790.6,191.3z"/>
		<path id="XMLID_479_" class="st4" d="M800.8,188.5L800.8,188.5c0.6-0.9,1.4-1.2,2.4-1.2c2,0,2.8,1.3,2.8,3.1v4.7h-2.7v-3.7
			c0-0.7,0.1-2-1.2-2c-1.1,0-1.4,0.8-1.4,1.8v3.9h-2.7v-7.6h2.7V188.5z"/>
		<path id="XMLID_476_" class="st4" d="M815.6,191.8H810c0,1.1,0.6,1.7,1.7,1.7c0.6,0,1-0.2,1.3-0.7h2.6c-0.2,0.9-0.7,1.5-1.4,2
			c-0.7,0.4-1.5,0.6-2.4,0.6c-2.5,0-4.4-1.4-4.4-4c0-2.5,1.7-4,4.2-4c2.6,0,4.1,1.6,4.1,4.2V191.8z M813.1,190.2
			c-0.1-0.7-0.8-1.2-1.5-1.2c-0.8,0-1.4,0.4-1.6,1.2H813.1z"/>
		<path id="XMLID_474_" class="st4" d="M821.8,189.5c-0.4-0.2-1-0.4-1.4-0.4c-0.3,0-0.8,0.1-0.8,0.5c0,0.5,0.8,0.6,1.2,0.7
			c1.3,0.3,2.2,0.8,2.2,2.2c0,2-1.8,2.8-3.6,2.8c-1.1,0-2.1-0.3-3.1-0.9l1-1.9c0.5,0.4,1.5,0.8,2.1,0.8c0.3,0,0.8-0.2,0.8-0.6
			c0-0.6-0.8-0.6-1.7-0.8c-0.8-0.2-1.7-0.6-1.7-2c0-1.9,1.7-2.7,3.3-2.7c0.9,0,1.7,0.1,2.5,0.5L821.8,189.5z"/>
	</g>
</g>
<rect id="XMLID_2913_" x="387.4" y="132" class="st3" width="223.2" height="101"/>
<g id="XMLID_19524_">
	<g>
		<path id="XMLID_779_" class="st4" d="M453.7,179.2h-2.9v-8.7h-2.4v-2.4h7.7v2.4h-2.4V179.2z"/>
		<path id="XMLID_776_" class="st4" d="M468.9,173.4c0,3.6-2.6,6.1-6.2,6.1s-6.2-2.5-6.2-6.1c0-3.4,3-5.7,6.2-5.7
			C466,167.7,468.9,170.1,468.9,173.4z M459.6,173.4c0,1.9,1.4,3.3,3.1,3.3c1.7,0,3.1-1.4,3.1-3.3c0-1.5-1.4-2.9-3.1-2.9
			C461,170.5,459.6,171.9,459.6,173.4z"/>
		<path id="XMLID_773_" class="st4" d="M470.2,168.1h4.4c2.4,0,4,1.1,4,3.7c0,2.6-1.4,3.8-3.9,3.8h-1.6v3.7h-2.9V168.1z
			 M473.1,173.2h0.5c1,0,2.1,0,2.1-1.4c0-1.4-1-1.4-2.1-1.4h-0.5V173.2z"/>
		<path id="XMLID_770_" class="st4" d="M491.8,173.4c0,3.6-2.6,6.1-6.2,6.1s-6.2-2.5-6.2-6.1c0-3.4,3-5.7,6.2-5.7
			S491.8,170.1,491.8,173.4z M482.5,173.4c0,1.9,1.4,3.3,3.1,3.3c1.7,0,3.1-1.4,3.1-3.3c0-1.5-1.4-2.9-3.1-2.9
			C483.9,170.5,482.5,171.9,482.5,173.4z"/>
		<path id="XMLID_768_" class="st4" d="M504.2,173c0,1.6-0.1,3-1.1,4.4c-1.1,1.5-2.7,2.2-4.6,2.2c-3.5,0-5.9-2.4-5.9-5.9
			c0-3.6,2.4-6,6-6c2.3,0,4.1,1,5,3.1l-2.7,1.2c-0.4-1.1-1.2-1.8-2.4-1.8c-1.9,0-2.9,1.8-2.9,3.5c0,1.7,1,3.5,2.9,3.5
			c1.3,0,2.2-0.6,2.3-1.9h-2.4V173H504.2z"/>
		<path id="XMLID_765_" class="st4" d="M514.8,179.2h-3.6l-2.7-4.3h0v4.3h-2.9v-11.1h4.3c2.2,0,3.9,1,3.9,3.4c0,1.5-0.9,2.9-2.4,3.1
			L514.8,179.2z M508.4,173h0.3c0.9,0,2-0.2,2-1.4c0-1.2-1.1-1.4-2-1.4h-0.3V173z"/>
		<path id="XMLID_762_" class="st4" d="M518.4,177.3l-0.8,1.9h-3.1l4.3-11.1h3.2l4.2,11.1h-3.1l-0.7-1.9H518.4z M520.4,171.5
			L520.4,171.5l-1.2,3.5h2.4L520.4,171.5z"/>
		<path id="XMLID_760_" class="st4" d="M530,170.5v1.9h3.2v2.4H530v4.4h-2.9v-11.1h6.4v2.4H530z"/>
		<path id="XMLID_758_" class="st4" d="M538,179.2h-2.9v-11.1h2.9V179.2z"/>
		<path id="XMLID_755_" class="st4" d="M542.7,177.3l-0.8,1.9h-3.1l4.3-11.1h3.2l4.2,11.1h-3.1l-0.7-1.9H542.7z M544.7,171.5
			L544.7,171.5l-1.2,3.5h2.4L544.7,171.5z"/>
		<path id="XMLID_753_" class="st4" d="M426,196.9h-2.9v-11.1h2.9V196.9z"/>
		<path id="XMLID_751_" class="st4" d="M430.5,190.3L430.5,190.3c0.6-0.9,1.4-1.2,2.4-1.2c2,0,2.8,1.3,2.8,3.1v4.7h-2.7v-3.7
			c0-0.7,0.1-2-1.2-2c-1.1,0-1.4,0.8-1.4,1.8v3.9h-2.7v-7.6h2.7V190.3z"/>
		<path id="XMLID_749_" class="st4" d="M442.6,191.3c-0.4-0.2-1-0.4-1.4-0.4c-0.3,0-0.8,0.1-0.8,0.5c0,0.5,0.8,0.6,1.2,0.7
			c1.3,0.3,2.2,0.8,2.2,2.2c0,2-1.8,2.8-3.6,2.8c-1.1,0-2.1-0.3-3.1-0.9l1-1.9c0.5,0.4,1.5,0.8,2.1,0.8c0.3,0,0.8-0.2,0.8-0.6
			c0-0.6-0.8-0.6-1.7-0.8c-0.8-0.2-1.7-0.6-1.7-2c0-1.9,1.7-2.7,3.3-2.7c0.9,0,1.7,0.1,2.5,0.5L442.6,191.3z"/>
		<path id="XMLID_746_" class="st4" d="M447.8,190.2L447.8,190.2c0.5-0.8,1.4-1.1,2.3-1.1c2.3,0,3.8,1.9,3.8,4.1c0,2.2-1.6,4-3.8,4
			c-0.9,0-1.8-0.3-2.3-1v4.5h-2.7v-11.3h2.7V190.2z M447.7,193.1c0,1,0.6,1.7,1.7,1.7c1.1,0,1.7-0.7,1.7-1.7c0-0.9-0.6-1.7-1.7-1.7
			C448.3,191.4,447.7,192.2,447.7,193.1z"/>
		<path id="XMLID_743_" class="st4" d="M463,193.6h-5.7c0,1.1,0.6,1.7,1.7,1.7c0.6,0,1-0.2,1.3-0.7h2.6c-0.2,0.9-0.7,1.5-1.4,2
			c-0.7,0.4-1.5,0.6-2.4,0.6c-2.5,0-4.4-1.4-4.4-4c0-2.5,1.7-4,4.2-4c2.6,0,4.1,1.6,4.1,4.2V193.6z M460.5,192
			c-0.1-0.7-0.8-1.2-1.5-1.2c-0.8,0-1.4,0.4-1.6,1.2H460.5z"/>
		<path id="XMLID_741_" class="st4" d="M469.7,191.8c-0.4-0.3-0.9-0.5-1.4-0.5c-1,0-1.8,0.8-1.8,1.8c0,1.1,0.8,1.9,1.9,1.9
			c0.5,0,1-0.2,1.3-0.5v2.3c-0.6,0.3-1.2,0.4-1.9,0.4c-2.2,0-4.1-1.7-4.1-4c0-2.4,1.9-4.1,4.2-4.1c0.6,0,1.2,0.1,1.8,0.4V191.8z"/>
		<path id="XMLID_739_" class="st4" d="M476.8,191.8c-0.4-0.3-0.9-0.5-1.4-0.5c-1,0-1.8,0.8-1.8,1.8c0,1.1,0.8,1.9,1.9,1.9
			c0.5,0,1-0.2,1.3-0.5v2.3c-0.6,0.3-1.2,0.4-1.9,0.4c-2.2,0-4.1-1.7-4.1-4c0-2.4,1.9-4.1,4.2-4.1c0.6,0,1.2,0.1,1.8,0.4V191.8z"/>
		<path id="XMLID_736_" class="st4" d="M481.3,186.4c0,0.8-0.7,1.5-1.5,1.5c-0.8,0-1.5-0.7-1.5-1.5c0-0.8,0.7-1.5,1.5-1.5
			C480.7,184.9,481.3,185.6,481.3,186.4z M481.2,196.9h-2.7v-7.6h2.7V196.9z"/>
		<path id="XMLID_732_" class="st4" d="M491.5,193.1c0,2.6-2.1,4-4.6,4c-2.4,0-4.6-1.4-4.6-4c0-2.6,2.1-4,4.6-4
			C489.4,189.1,491.5,190.5,491.5,193.1z M485.2,193.1c0,1,0.6,1.7,1.7,1.7s1.7-0.7,1.7-1.7c0-0.9-0.6-1.7-1.7-1.7
			S485.2,192.2,485.2,193.1z M486.7,188.2l-1.2-0.9l2.1-2.5l1.6,1.2L486.7,188.2z"/>
		<path id="XMLID_730_" class="st4" d="M495.4,190.3L495.4,190.3c0.6-0.9,1.4-1.2,2.4-1.2c2,0,2.8,1.3,2.8,3.1v4.7H498v-3.7
			c0-0.7,0.1-2-1.2-2c-1.1,0-1.4,0.8-1.4,1.8v3.9h-2.7v-7.6h2.7V190.3z"/>
		<path id="XMLID_728_" class="st4" d="M506.6,191.1v2.2h-4.2v-2.2H506.6z"/>
		<path id="XMLID_726_" class="st4" d="M510.9,190.3L510.9,190.3c0.7-0.8,1.4-1.2,2.4-1.2c1.1,0,2,0.4,2.6,1.4
			c0.5-0.9,1.5-1.4,2.6-1.4c1.9,0,2.6,1.3,2.6,3v4.8h-2.7v-3.6c0-0.8,0-2.1-1.1-2.1c-1.2,0-1.3,1.2-1.3,2.1v3.6h-2.7v-3.6
			c0-0.8,0-2.1-1.2-2.1c-1.2,0-1.2,1.3-1.2,2.1v3.6h-2.7v-7.6h2.7V190.3z"/>
		<path id="XMLID_723_" class="st4" d="M530.6,193.6H525c0,1.1,0.6,1.7,1.7,1.7c0.6,0,1-0.2,1.3-0.7h2.6c-0.2,0.9-0.7,1.5-1.4,2
			c-0.7,0.4-1.5,0.6-2.4,0.6c-2.5,0-4.4-1.4-4.4-4c0-2.5,1.7-4,4.2-4c2.6,0,4.1,1.6,4.1,4.2V193.6z M528.1,192
			c-0.1-0.7-0.8-1.2-1.5-1.2c-0.8,0-1.4,0.4-1.6,1.2H528.1z"/>
		<path id="XMLID_720_" class="st4" d="M537.6,196.1L537.6,196.1c-0.5,0.8-1.4,1.1-2.3,1.1c-2.2,0-3.8-1.9-3.8-4s1.5-4,3.8-4
			c0.9,0,1.8,0.3,2.3,1v-5.4h2.7v12.2h-2.7V196.1z M534.2,193.1c0,1,0.6,1.7,1.7,1.7c1.1,0,1.7-0.7,1.7-1.7c0-0.9-0.6-1.7-1.7-1.7
			C534.8,191.4,534.2,192.2,534.2,193.1z"/>
		<path id="XMLID_702_" class="st4" d="M544.8,186.4c0,0.8-0.7,1.5-1.5,1.5c-0.8,0-1.5-0.7-1.5-1.5c0-0.8,0.7-1.5,1.5-1.5
			C544.1,184.9,544.8,185.6,544.8,186.4z M544.6,196.9h-2.7v-7.6h2.7V196.9z"/>
		<path id="XMLID_700_" class="st4" d="M551.8,191.8c-0.4-0.3-0.9-0.5-1.4-0.5c-1,0-1.8,0.8-1.8,1.8c0,1.1,0.8,1.9,1.9,1.9
			c0.5,0,1-0.2,1.3-0.5v2.3c-0.6,0.3-1.2,0.4-1.9,0.4c-2.2,0-4.1-1.7-4.1-4c0-2.4,1.9-4.1,4.2-4.1c0.6,0,1.2,0.1,1.8,0.4V191.8z"/>
		<path id="XMLID_697_" class="st4" d="M556.4,186.4c0,0.8-0.7,1.5-1.5,1.5s-1.5-0.7-1.5-1.5c0-0.8,0.7-1.5,1.5-1.5
			S556.4,185.6,556.4,186.4z M556.2,196.9h-2.7v-7.6h2.7V196.9z"/>
		<path id="XMLID_693_" class="st4" d="M566.5,193.1c0,2.6-2.1,4-4.6,4c-2.4,0-4.6-1.4-4.6-4c0-2.6,2.1-4,4.6-4
			C564.4,189.1,566.5,190.5,566.5,193.1z M560.2,193.1c0,1,0.6,1.7,1.7,1.7c1.1,0,1.7-0.7,1.7-1.7c0-0.9-0.6-1.7-1.7-1.7
			C560.9,191.4,560.2,192.2,560.2,193.1z M561.7,188.2l-1.2-0.9l2.1-2.5l1.6,1.2L561.7,188.2z"/>
		<path id="XMLID_691_" class="st4" d="M570.4,190.3L570.4,190.3c0.6-0.9,1.4-1.2,2.4-1.2c2,0,2.8,1.3,2.8,3.1v4.7H573v-3.7
			c0-0.7,0.1-2-1.2-2c-1.1,0-1.4,0.8-1.4,1.8v3.9h-2.7v-7.6h2.7V190.3z"/>
	</g>
</g>
<rect id="XMLID_2911_" x="387.4" y="263" class="st3" width="223.2" height="101"/>
<rect id="XMLID_2910_" x="387.4" y="394" class="st3" width="223.2" height="101"/>
<g id="XMLID_19500_">
	<g>
		<path id="XMLID_184_" class="st4" d="M488.3,306.1c-0.6-0.8-1.5-1.2-2.5-1.2c-1.8,0-3,1.4-3,3.1c0,1.8,1.2,3,3,3
			c0.9,0,1.9-0.5,2.5-1.2v3.5c-1,0.3-1.7,0.5-2.6,0.5c-1.5,0-3-0.6-4.2-1.6c-1.2-1.1-1.8-2.6-1.8-4.2c0-1.5,0.6-3,1.6-4.1
			c1.1-1.1,2.7-1.8,4.2-1.8c0.9,0,1.8,0.2,2.6,0.6V306.1z"/>
		<path id="XMLID_181_" class="st4" d="M492.9,311.6l-0.8,1.9h-3.1l4.3-11.1h3.2l4.2,11.1h-3.1l-0.7-1.9H492.9z M494.9,305.8
			L494.9,305.8l-1.2,3.5h2.4L494.9,305.8z"/>
		<path id="XMLID_179_" class="st4" d="M507,302.4v7.5c0,2.3-1.2,3.9-3.7,3.9c-1.2,0-2.2-0.6-2.9-1.6l1.7-1.8
			c0.3,0.4,0.8,0.9,1.2,0.9c0.9,0,0.8-1,0.8-1.6v-7.3H507z"/>
		<path id="XMLID_176_" class="st4" d="M511.6,311.6l-0.8,1.9h-3.1l4.3-11.1h3.2l4.2,11.1h-3.1l-0.7-1.9H511.6z M513.7,305.8
			L513.7,305.8l-1.2,3.5h2.4L513.7,305.8z"/>
		<path id="XMLID_174_" class="st4" d="M485.4,323.8c-0.6-0.8-1.5-1.2-2.5-1.2c-1.8,0-3,1.4-3,3.1c0,1.8,1.2,3,3,3
			c0.9,0,1.9-0.5,2.5-1.2v3.5c-1,0.3-1.7,0.5-2.6,0.5c-1.5,0-3-0.6-4.2-1.6c-1.2-1.1-1.8-2.6-1.8-4.2c0-1.5,0.6-3,1.6-4.1
			c1.1-1.1,2.7-1.8,4.2-1.8c0.9,0,1.8,0.2,2.6,0.6V323.8z"/>
		<path id="XMLID_171_" class="st4" d="M495.7,327.4c0,2.6-2.1,4-4.6,4c-2.4,0-4.6-1.4-4.6-4c0-2.6,2.1-4,4.6-4
			C493.6,323.4,495.7,324.8,495.7,327.4z M489.4,327.4c0,1,0.6,1.7,1.7,1.7c1.1,0,1.7-0.7,1.7-1.7c0-0.9-0.6-1.7-1.7-1.7
			C490,325.7,489.4,326.5,489.4,327.4z"/>
		<path id="XMLID_168_" class="st4" d="M496.8,319h2.7v5.4c0.6-0.7,1.5-1,2.3-1c2.2,0,3.8,1.9,3.8,4c0,2.2-1.6,4-3.8,4
			c-0.9,0-1.8-0.3-2.3-1.1h0v0.8h-2.7V319z M499.4,327.4c0,1,0.6,1.7,1.7,1.7c1.1,0,1.7-0.7,1.7-1.7c0-0.9-0.6-1.7-1.7-1.7
			C500.1,325.7,499.4,326.5,499.4,327.4z"/>
		<path id="XMLID_166_" class="st4" d="M509.7,324.9L509.7,324.9c0.5-0.9,1.4-1.3,2.5-1.3h0.5v2.6c-0.4-0.2-0.7-0.3-1.1-0.3
			c-1.5,0-1.9,1-1.9,2.3v3.1H507v-7.6h2.7V324.9z"/>
		<path id="XMLID_163_" class="st4" d="M521.9,327.4c0,2.6-2.1,4-4.6,4c-2.4,0-4.6-1.4-4.6-4c0-2.6,2.1-4,4.6-4
			C519.8,323.4,521.9,324.8,521.9,327.4z M515.7,327.4c0,1,0.6,1.7,1.7,1.7c1.1,0,1.7-0.7,1.7-1.7c0-0.9-0.6-1.7-1.7-1.7
			C516.3,325.7,515.7,326.5,515.7,327.4z"/>
	</g>
</g>
<rect id="XMLID_2908_" x="387.4" y="525" class="st3" width="223.2" height="101"/>
<g id="XMLID_19400_">
	<g>
		<path id="XMLID_1125_" class="st4" d="M420.7,442.6l-0.8,1.9h-3.1l4.3-11.1h3.2l4.2,11.1h-3.1l-0.7-1.9H420.7z M422.8,436.8
			L422.8,436.8l-1.2,3.5h2.4L422.8,436.8z"/>
		<path id="XMLID_1122_" class="st4" d="M438.7,444.5h-3.6l-2.7-4.3h0v4.3h-2.9v-11.1h4.3c2.2,0,3.9,1,3.9,3.4
			c0,1.5-0.9,2.9-2.4,3.1L438.7,444.5z M432.3,438.4h0.3c0.9,0,2-0.2,2-1.4c0-1.2-1.1-1.4-2-1.4h-0.3V438.4z"/>
		<path id="XMLID_1120_" class="st4" d="M442.4,435.9v1.9h3.3v2.4h-3.3v1.9h3.4v2.4h-6.3v-11.1h6.3v2.4H442.4z"/>
		<path id="XMLID_1117_" class="st4" d="M450.4,442.6l-0.8,1.9h-3.1l4.3-11.1h3.2l4.2,11.1h-3.1l-0.7-1.9H450.4z M452.4,436.8
			L452.4,436.8l-1.2,3.5h2.4L452.4,436.8z"/>
		<path id="XMLID_1115_" class="st4" d="M468.6,444.5h-2.9v-8.7h-2.4v-2.4h7.7v2.4h-2.4V444.5z"/>
		<path id="XMLID_1113_" class="st4" d="M474.9,435.9v1.9h3.3v2.4h-3.3v1.9h3.4v2.4H472v-11.1h6.3v2.4H474.9z"/>
		<path id="XMLID_1111_" class="st4" d="M488.1,437.1c-0.6-0.8-1.5-1.2-2.5-1.2c-1.8,0-3,1.4-3,3.1c0,1.8,1.2,3,3,3
			c0.9,0,1.9-0.5,2.5-1.2v3.5c-1,0.3-1.7,0.5-2.6,0.5c-1.5,0-3-0.6-4.2-1.6c-1.2-1.1-1.8-2.6-1.8-4.2c0-1.5,0.6-3,1.6-4.1
			c1.1-1.1,2.7-1.8,4.2-1.8c0.9,0,1.8,0.2,2.6,0.6V437.1z"/>
		<path id="XMLID_1109_" class="st4" d="M489.9,433.4h2.9l5.3,6.8h0v-6.8h2.9v11.1h-2.9l-5.3-6.8h0v6.8h-2.9V433.4z"/>
		<path id="XMLID_1107_" class="st4" d="M505.8,444.5h-2.9v-11.1h2.9V444.5z"/>
		<path id="XMLID_1105_" class="st4" d="M515.6,437.1c-0.6-0.8-1.5-1.2-2.5-1.2c-1.8,0-3,1.4-3,3.1c0,1.8,1.2,3,3,3
			c0.9,0,1.9-0.5,2.5-1.2v3.5c-1,0.3-1.7,0.5-2.6,0.5c-1.5,0-3-0.6-4.2-1.6c-1.2-1.1-1.8-2.6-1.8-4.2c0-1.5,0.6-3,1.6-4.1
			c1.1-1.1,2.7-1.8,4.2-1.8c0.9,0,1.8,0.2,2.6,0.6V437.1z"/>
		<path id="XMLID_1102_" class="st4" d="M529.2,438.8c0,3.6-2.6,6.1-6.2,6.1s-6.2-2.5-6.2-6.1c0-3.4,3-5.7,6.2-5.7
			S529.2,435.4,529.2,438.8z M519.9,438.8c0,1.9,1.4,3.3,3.1,3.3c1.7,0,3.1-1.4,3.1-3.3c0-1.5-1.4-2.9-3.1-2.9
			C521.3,435.8,519.9,437.2,519.9,438.8z"/>
		<path id="XMLID_1040_" class="st4" d="M536.6,436.3c-0.5-0.4-1.2-0.7-1.9-0.7c-0.5,0-1.2,0.3-1.2,0.9c0,0.6,0.8,0.9,1.3,1.1
			l0.7,0.2c1.5,0.5,2.7,1.2,2.7,3c0,1.1-0.3,2.2-1.2,3c-0.9,0.7-2,1-3.2,1c-1.4,0-2.8-0.5-3.9-1.3l1.2-2.3c0.7,0.6,1.6,1.2,2.6,1.2
			c0.7,0,1.4-0.3,1.4-1.1c0-0.8-1.1-1.1-1.8-1.3c-1.8-0.5-3-1-3-3.1c0-2.3,1.6-3.7,3.8-3.7c1.1,0,2.5,0.4,3.5,0.9L536.6,436.3z"/>
		<path id="XMLID_1038_" class="st4" d="M546.8,432.3l-5.6,13.6H539l5.6-13.6H546.8z"/>
		<path id="XMLID_1035_" class="st4" d="M551,442.6l-0.8,1.9h-3.1l4.3-11.1h3.2l4.2,11.1h-3.1l-0.7-1.9H551z M553,436.8L553,436.8
			l-1.2,3.5h2.4L553,436.8z"/>
		<path id="XMLID_1032_" class="st4" d="M568.9,444.5h-3.6l-2.7-4.3h0v4.3h-2.9v-11.1h4.3c2.2,0,3.9,1,3.9,3.4
			c0,1.5-0.9,2.9-2.4,3.1L568.9,444.5z M562.5,438.4h0.3c0.9,0,2-0.2,2-1.4c0-1.2-1.1-1.4-2-1.4h-0.3V438.4z"/>
		<path id="XMLID_1029_" class="st4" d="M579.2,445.2l-0.9-1c-0.9,0.5-1.9,0.7-3.1,0.7c-3.6,0-6.2-2.5-6.2-6.1c0-3.4,3-5.7,6.2-5.7
			c3.5,0,6.2,2.3,6.2,6c0,1.5-0.5,2.8-1.4,3.9l1.9,1.9L579.2,445.2z M577.9,440.7c0.3-0.5,0.5-1.1,0.5-1.6c0-1.7-1.4-3.2-3.1-3.2
			c-1.7,0-3.2,1.4-3.2,2.9c0,1.9,1.4,3.3,3.2,3.3c0.3,0,0.6,0,0.9-0.1l-1.8-1.8l2.7-0.3L577.9,440.7z"/>
		<path id="XMLID_1027_" class="st4" d="M400.7,459.8h3.5v2.4h-6.4v-11.1h2.9V459.8z"/>
		<path id="XMLID_1025_" class="st4" d="M407.8,462.2h-2.7V450h2.7V462.2z"/>
		<path id="XMLID_1022_" class="st4" d="M417.3,458.9h-5.7c0,1.1,0.6,1.7,1.7,1.7c0.6,0,1-0.2,1.3-0.7h2.6c-0.2,0.9-0.7,1.5-1.4,2
			c-0.7,0.4-1.5,0.6-2.4,0.6c-2.5,0-4.4-1.4-4.4-4c0-2.5,1.7-4,4.2-4c2.6,0,4.1,1.6,4.1,4.2V458.9z M414.8,457.4
			c-0.1-0.7-0.8-1.2-1.5-1.2c-0.8,0-1.4,0.4-1.6,1.2H414.8z"/>
		<path id="XMLID_1020_" class="st4" d="M421.2,455.6L421.2,455.6c0.6-0.9,1.4-1.2,2.4-1.2c2,0,2.8,1.3,2.8,3.1v4.7h-2.7v-3.7
			c0-0.7,0.1-2-1.2-2c-1.1,0-1.4,0.8-1.4,1.8v3.9h-2.7v-7.6h2.7V455.6z"/>
		<path id="XMLID_1017_" class="st4" d="M436.6,462.2h-2.7v-0.8h0c-0.5,0.8-1.4,1.1-2.3,1.1c-2.2,0-3.8-1.9-3.8-4s1.5-4,3.8-4
			c0.9,0,1.8,0.3,2.3,1v-0.7h2.7V462.2z M430.5,458.5c0,1,0.6,1.7,1.7,1.7c1.1,0,1.7-0.7,1.7-1.7c0-0.9-0.6-1.7-1.7-1.7
			C431.2,456.7,430.5,457.5,430.5,458.5z"/>
		<path id="XMLID_1014_" class="st4" d="M444.1,461.4L444.1,461.4c-0.5,0.8-1.4,1.1-2.3,1.1c-2.2,0-3.8-1.9-3.8-4s1.5-4,3.8-4
			c0.9,0,1.8,0.3,2.3,1V450h2.7v12.2h-2.7V461.4z M440.7,458.5c0,1,0.6,1.7,1.7,1.7c1.1,0,1.7-0.7,1.7-1.7c0-0.9-0.6-1.7-1.7-1.7
			C441.3,456.7,440.7,457.5,440.7,458.5z"/>
		<path id="XMLID_1011_" class="st4" d="M457,458.5c0,2.6-2.1,4-4.6,4c-2.4,0-4.6-1.4-4.6-4c0-2.6,2.1-4,4.6-4
			C454.9,454.4,457,455.9,457,458.5z M450.7,458.5c0,1,0.6,1.7,1.7,1.7c1.1,0,1.7-0.7,1.7-1.7c0-0.9-0.6-1.7-1.7-1.7
			C451.3,456.7,450.7,457.5,450.7,458.5z"/>
		<path id="XMLID_1009_" class="st4" d="M466.2,462.2h-2.7v-5.4h-0.9v-2.2h0.9v-1c0-1,0-1.8,0.8-2.7c0.7-0.8,1.6-1.2,2.6-1.2
			c0.4,0,0.8,0.1,1.2,0.3v2.3c-0.3-0.1-0.6-0.3-0.9-0.3c-0.7,0-0.9,0.4-0.9,1.3v1.2h1.9v2.2h-1.9V462.2z"/>
		<path id="XMLID_1006_" class="st4" d="M477.5,458.5c0,2.6-2.1,4-4.6,4c-2.4,0-4.6-1.4-4.6-4c0-2.6,2.1-4,4.6-4
			C475.4,454.4,477.5,455.9,477.5,458.5z M471.2,458.5c0,1,0.6,1.7,1.7,1.7c1.1,0,1.7-0.7,1.7-1.7c0-0.9-0.6-1.7-1.7-1.7
			C471.9,456.7,471.2,457.5,471.2,458.5z"/>
		<path id="XMLID_1004_" class="st4" d="M481.4,455.9L481.4,455.9c0.5-0.9,1.4-1.3,2.5-1.3h0.5v2.6c-0.4-0.2-0.7-0.3-1.1-0.3
			c-1.5,0-1.9,1-1.9,2.3v3.1h-2.7v-7.6h2.7V455.9z"/>
		<path id="XMLID_1002_" class="st4" d="M488.1,455.6L488.1,455.6c0.7-0.8,1.4-1.2,2.4-1.2c1.1,0,2,0.4,2.6,1.4
			c0.5-0.9,1.5-1.4,2.6-1.4c1.9,0,2.6,1.3,2.6,3v4.8h-2.7v-3.6c0-0.8,0-2.1-1.1-2.1c-1.2,0-1.3,1.2-1.3,2.1v3.6h-2.7v-3.6
			c0-0.8,0-2.1-1.2-2.1c-1.2,0-1.2,1.3-1.2,2.1v3.6h-2.7v-7.6h2.7V455.6z"/>
		<path id="XMLID_1000_" class="st4" d="M502.7,454.7v4c0,1,0.2,1.6,1.3,1.6c1.1,0,1.3-0.7,1.3-1.6v-4h2.7v4.6c0,2.5-1.8,3.3-4,3.3
			c-2.3,0-4-0.8-4-3.3v-4.6H502.7z"/>
		<path id="XMLID_998_" class="st4" d="M512.4,462.2h-2.7V450h2.7V462.2z"/>
		<path id="XMLID_995_" class="st4" d="M522.5,462.2h-2.7v-0.8h0c-0.5,0.8-1.4,1.1-2.3,1.1c-2.2,0-3.8-1.9-3.8-4s1.5-4,3.8-4
			c0.9,0,1.8,0.3,2.3,1v-0.7h2.7V462.2z M516.4,458.5c0,1,0.6,1.7,1.7,1.7c1.1,0,1.7-0.7,1.7-1.7c0-0.9-0.6-1.7-1.7-1.7
			C517.1,456.7,516.4,457.5,516.4,458.5z"/>
		<path id="XMLID_993_" class="st4" d="M527,455.9L527,455.9c0.5-0.9,1.4-1.3,2.5-1.3h0.5v2.6c-0.4-0.2-0.7-0.3-1.1-0.3
			c-1.5,0-1.9,1-1.9,2.3v3.1h-2.7v-7.6h2.7V455.9z"/>
		<path id="XMLID_990_" class="st4" d="M533.8,451.8c0,0.8-0.7,1.5-1.5,1.5c-0.8,0-1.5-0.7-1.5-1.5c0-0.8,0.7-1.5,1.5-1.5
			C533.1,450.3,533.8,450.9,533.8,451.8z M533.6,462.2h-2.7v-7.6h2.7V462.2z"/>
		<path id="XMLID_987_" class="st4" d="M544,458.5c0,2.6-2.1,4-4.6,4c-2.4,0-4.6-1.4-4.6-4c0-2.6,2.1-4,4.6-4
			C541.8,454.4,544,455.9,544,458.5z M537.7,458.5c0,1,0.6,1.7,1.7,1.7c1.1,0,1.7-0.7,1.7-1.7c0-0.9-0.6-1.7-1.7-1.7
			C538.3,456.7,537.7,457.5,537.7,458.5z"/>
		<path id="XMLID_985_" class="st4" d="M553.2,462.2h-2.7v-5.4h-0.9v-2.2h0.9v-2.3h2.7v2.3h1.5v2.2h-1.5V462.2z"/>
		<path id="XMLID_981_" class="st4" d="M563.3,458.9h-5.7c0,1.1,0.6,1.7,1.7,1.7c0.6,0,1-0.2,1.3-0.7h2.6c-0.2,0.9-0.7,1.5-1.4,2
			c-0.7,0.4-1.5,0.6-2.4,0.6c-2.5,0-4.4-1.4-4.4-4c0-2.5,1.7-4,4.2-4c2.6,0,4.1,1.6,4.1,4.2V458.9z M558.9,453.5l-1.2-0.9l2.1-2.5
			l1.6,1.2L558.9,453.5z M560.8,457.4c-0.1-0.7-0.8-1.2-1.5-1.2c-0.8,0-1.4,0.4-1.6,1.2H560.8z"/>
		<path id="XMLID_979_" class="st4" d="M570,457.1c-0.4-0.3-0.9-0.5-1.4-0.5c-1,0-1.8,0.8-1.8,1.8c0,1.1,0.8,1.9,1.9,1.9
			c0.5,0,1-0.2,1.3-0.5v2.3c-0.6,0.3-1.2,0.4-1.9,0.4c-2.2,0-4.1-1.7-4.1-4c0-2.4,1.9-4.1,4.2-4.1c0.6,0,1.2,0.1,1.8,0.4V457.1z"/>
		<path id="XMLID_977_" class="st4" d="M574.4,455.6L574.4,455.6c0.6-0.9,1.4-1.2,2.4-1.2c2,0,2.8,1.3,2.8,3.1v4.7H577v-3.7
			c0-0.7,0.1-2-1.2-2c-1.1,0-1.4,0.8-1.4,1.8v3.9h-2.7v-7.6h2.7V455.6z"/>
		<path id="XMLID_974_" class="st4" d="M584.3,451.8c0,0.8-0.7,1.5-1.5,1.5c-0.8,0-1.5-0.7-1.5-1.5c0-0.8,0.7-1.5,1.5-1.5
			C583.6,450.3,584.3,450.9,584.3,451.8z M584.1,462.2h-2.7v-7.6h2.7V462.2z"/>
		<path id="XMLID_972_" class="st4" d="M591.3,457.1c-0.4-0.3-0.9-0.5-1.4-0.5c-1,0-1.8,0.8-1.8,1.8c0,1.1,0.8,1.9,1.9,1.9
			c0.5,0,1-0.2,1.3-0.5v2.3c-0.6,0.3-1.2,0.4-1.9,0.4c-2.2,0-4.1-1.7-4.1-4c0-2.4,1.9-4.1,4.2-4.1c0.6,0,1.2,0.1,1.8,0.4V457.1z"/>
		<path id="XMLID_969_" class="st4" d="M601.6,458.5c0,2.6-2.1,4-4.6,4c-2.4,0-4.6-1.4-4.6-4c0-2.6,2.1-4,4.6-4
			S601.6,455.9,601.6,458.5z M595.3,458.5c0,1,0.6,1.7,1.7,1.7s1.7-0.7,1.7-1.7c0-0.9-0.6-1.7-1.7-1.7S595.3,457.5,595.3,458.5z"/>
	</g>
</g>
<rect id="XMLID_2906_" x="387.4" y="656.1" class="st3" width="223.2" height="101"/>
<g id="XMLID_19279_">
	<g>
		<path id="XMLID_1487_" class="st4" d="M439.4,553v7.5c0,2.3-1.2,3.9-3.7,3.9c-1.2,0-2.2-0.6-2.9-1.6l1.7-1.8
			c0.3,0.4,0.8,0.9,1.2,0.9c0.9,0,0.8-1,0.8-1.6V553H439.4z"/>
		<path id="XMLID_1485_" class="st4" d="M444.1,555.4v1.9h3.3v2.4h-3.3v1.9h3.4v2.4h-6.3V553h6.3v2.4H444.1z"/>
		<path id="XMLID_1483_" class="st4" d="M452.2,555.4v1.9h3.2v2.4h-3.2v4.4h-2.9V553h6.4v2.4H452.2z"/>
		<path id="XMLID_1481_" class="st4" d="M460.2,555.4v1.9h3.3v2.4h-3.3v1.9h3.4v2.4h-6.3V553h6.3v2.4H460.2z"/>
		<path id="XMLID_1478_" class="st4" d="M470.5,553h4.1c3.1,0,5.7,2.4,5.7,5.6c0,3.1-2.6,5.6-5.7,5.6h-4.1V553z M473.4,561.6h0.6
			c1.7,0,3.2-0.9,3.2-3.1c0-2-1.3-3.1-3.2-3.1h-0.7V561.6z"/>
		<path id="XMLID_1476_" class="st4" d="M484.5,555.4v1.9h3.3v2.4h-3.3v1.9h3.4v2.4h-6.3V553h6.3v2.4H484.5z"/>
		<path id="XMLID_1473_" class="st4" d="M494.8,553h4.1c3.1,0,5.7,2.4,5.7,5.6c0,3.1-2.6,5.6-5.7,5.6h-4.1V553z M497.7,561.6h0.6
			c1.7,0,3.2-0.9,3.2-3.1c0-2-1.3-3.1-3.2-3.1h-0.7V561.6z"/>
		<path id="XMLID_1471_" class="st4" d="M508.8,564.1h-2.9V553h2.9V564.1z"/>
		<path id="XMLID_1469_" class="st4" d="M515.3,559.7l2.7-6.8h3.1l-4.8,11.1h-2.2l-4.7-11.1h3.1L515.3,559.7z"/>
		<path id="XMLID_1467_" class="st4" d="M524.8,564.1h-2.9V553h2.9V564.1z"/>
		<path id="XMLID_1465_" class="st4" d="M532.8,555.8c-0.5-0.4-1.2-0.7-1.9-0.7c-0.5,0-1.2,0.3-1.2,0.9c0,0.6,0.8,0.9,1.3,1.1
			l0.7,0.2c1.5,0.5,2.7,1.2,2.7,3c0,1.1-0.3,2.2-1.2,3c-0.9,0.7-2,1-3.2,1c-1.4,0-2.8-0.5-3.9-1.3l1.2-2.3c0.7,0.6,1.6,1.2,2.6,1.2
			c0.7,0,1.4-0.3,1.4-1.1c0-0.8-1.1-1.1-1.8-1.3c-1.8-0.5-3-1-3-3.1c0-2.3,1.6-3.7,3.8-3.7c1.1,0,2.5,0.4,3.5,0.9L532.8,555.8z"/>
		<path id="XMLID_1463_" class="st4" d="M538.7,564.1h-2.9V553h2.9V564.1z"/>
		<path id="XMLID_1459_" class="st4" d="M552.3,558.3c0,3.6-2.6,6.1-6.2,6.1c-3.6,0-6.2-2.5-6.2-6.1c0-3.4,3-5.7,6.2-5.7
			S552.3,555,552.3,558.3z M543,558.3c0,1.9,1.4,3.3,3.1,3.3s3.1-1.4,3.1-3.3c0-1.5-1.4-2.9-3.1-2.9S543,556.8,543,558.3z
			 M545.8,552.3l-1.2-0.9l2.1-2.5l1.6,1.2L545.8,552.3z"/>
		<path id="XMLID_1457_" class="st4" d="M553.7,553h2.9l5.3,6.8h0V553h2.9v11.1h-2.9l-5.3-6.8h0v6.8h-2.9V553z"/>
		<path id="XMLID_1454_" class="st4" d="M429.1,581.8h-3.6l-2.7-4.3h0v4.3h-2.9v-11.1h4.3c2.2,0,3.9,1,3.9,3.4
			c0,1.5-0.9,2.9-2.4,3.1L429.1,581.8z M422.8,575.7h0.3c0.9,0,2-0.2,2-1.4c0-1.2-1.1-1.4-2-1.4h-0.3V575.7z"/>
		<path id="XMLID_1451_" class="st4" d="M437.6,578.5H432c0,1.1,0.6,1.7,1.7,1.7c0.6,0,1-0.2,1.3-0.7h2.6c-0.2,0.9-0.7,1.5-1.4,2
			c-0.7,0.4-1.5,0.6-2.4,0.6c-2.5,0-4.4-1.4-4.4-4c0-2.5,1.7-4,4.2-4c2.6,0,4.1,1.6,4.1,4.2V578.5z M435.2,576.9
			c-0.1-0.7-0.8-1.2-1.5-1.2c-0.8,0-1.4,0.4-1.6,1.2H435.2z"/>
		<path id="XMLID_1449_" class="st4" d="M442.6,578.1l1.8-3.9h3l-4,7.6h-1.7l-4-7.6h3L442.6,578.1z"/>
		<path id="XMLID_1446_" class="st4" d="M450.9,571.3c0,0.8-0.7,1.5-1.5,1.5c-0.8,0-1.5-0.7-1.5-1.5c0-0.8,0.7-1.5,1.5-1.5
			C450.2,569.8,450.9,570.5,450.9,571.3z M450.8,581.8h-2.7v-7.6h2.7V581.8z"/>
		<path id="XMLID_1444_" class="st4" d="M457.5,576.2c-0.4-0.2-1-0.4-1.4-0.4c-0.3,0-0.8,0.1-0.8,0.5c0,0.5,0.8,0.6,1.2,0.7
			c1.3,0.3,2.2,0.8,2.2,2.2c0,2-1.8,2.8-3.6,2.8c-1.1,0-2.1-0.3-3.1-0.9l1-1.9c0.5,0.4,1.5,0.8,2.1,0.8c0.3,0,0.8-0.2,0.8-0.6
			c0-0.6-0.8-0.6-1.7-0.8c-0.8-0.2-1.7-0.6-1.7-2c0-1.9,1.7-2.7,3.3-2.7c0.9,0,1.7,0.1,2.5,0.5L457.5,576.2z"/>
		<path id="XMLID_1441_" class="st4" d="M468.4,581.8h-2.7V581h0c-0.5,0.8-1.4,1.1-2.3,1.1c-2.2,0-3.8-1.9-3.8-4c0-2.2,1.5-4,3.8-4
			c0.9,0,1.8,0.3,2.3,1v-0.7h2.7V581.8z M462.3,578c0,1,0.6,1.7,1.7,1.7c1.1,0,1.7-0.7,1.7-1.7c0-0.9-0.6-1.7-1.7-1.7
			C463,576.3,462.3,577.1,462.3,578z"/>
		<path id="XMLID_1438_" class="st4" d="M483,578.5h-5.7c0,1.1,0.6,1.7,1.7,1.7c0.6,0,1-0.2,1.3-0.7h2.6c-0.2,0.9-0.7,1.5-1.4,2
			c-0.7,0.4-1.5,0.6-2.4,0.6c-2.5,0-4.4-1.4-4.4-4c0-2.5,1.7-4,4.2-4c2.6,0,4.1,1.6,4.1,4.2V578.5z M480.5,576.9
			c-0.1-0.7-0.8-1.2-1.5-1.2c-0.8,0-1.4,0.4-1.6,1.2H480.5z"/>
		<path id="XMLID_1436_" class="st4" d="M486.9,581.8h-2.7v-12.2h2.7V581.8z"/>
		<path id="XMLID_1434_" class="st4" d="M496.7,581.8H494v-5.4h-0.9v-2.2h0.9v-1c0-1,0-1.8,0.8-2.7c0.7-0.8,1.6-1.2,2.6-1.2
			c0.4,0,0.8,0.1,1.2,0.3v2.3c-0.3-0.1-0.6-0.3-0.9-0.3c-0.7,0-0.9,0.4-0.9,1.3v1.2h1.9v2.2h-1.9V581.8z"/>
		<path id="XMLID_1431_" class="st4" d="M508,578c0,2.6-2.1,4-4.6,4c-2.4,0-4.6-1.4-4.6-4s2.1-4,4.6-4C505.9,574,508,575.4,508,578z
			 M501.7,578c0,1,0.6,1.7,1.7,1.7c1.1,0,1.7-0.7,1.7-1.7c0-0.9-0.6-1.7-1.7-1.7C502.4,576.3,501.7,577.1,501.7,578z"/>
		<path id="XMLID_1429_" class="st4" d="M511.9,575.5L511.9,575.5c0.5-0.9,1.4-1.3,2.5-1.3h0.5v2.6c-0.4-0.2-0.7-0.3-1.1-0.3
			c-1.5,0-1.9,1-1.9,2.3v3.1h-2.7v-7.6h2.7V575.5z"/>
		<path id="XMLID_1427_" class="st4" d="M518.6,575.2L518.6,575.2c0.7-0.8,1.4-1.2,2.4-1.2c1.1,0,2,0.4,2.6,1.4
			c0.5-0.9,1.5-1.4,2.6-1.4c1.9,0,2.6,1.3,2.6,3v4.8h-2.7v-3.6c0-0.8,0-2.1-1.1-2.1c-1.2,0-1.3,1.2-1.3,2.1v3.6H521v-3.6
			c0-0.8,0-2.1-1.2-2.1c-1.2,0-1.2,1.3-1.2,2.1v3.6h-2.7v-7.6h2.7V575.2z"/>
		<path id="XMLID_1425_" class="st4" d="M533.1,574.2v4c0,1,0.2,1.6,1.3,1.6c1.1,0,1.3-0.7,1.3-1.6v-4h2.7v4.6c0,2.5-1.8,3.3-4,3.3
			c-2.3,0-4-0.8-4-3.3v-4.6H533.1z"/>
		<path id="XMLID_1423_" class="st4" d="M542.9,581.8h-2.7v-12.2h2.7V581.8z"/>
		<path id="XMLID_1420_" class="st4" d="M553,581.8h-2.7V581h0c-0.5,0.8-1.4,1.1-2.3,1.1c-2.2,0-3.8-1.9-3.8-4c0-2.2,1.5-4,3.8-4
			c0.9,0,1.8,0.3,2.3,1v-0.7h2.7V581.8z M546.9,578c0,1,0.6,1.7,1.7,1.7c1.1,0,1.7-0.7,1.7-1.7c0-0.9-0.6-1.7-1.7-1.7
			C547.6,576.3,546.9,577.1,546.9,578z"/>
		<path id="XMLID_1418_" class="st4" d="M557.4,575.5L557.4,575.5c0.5-0.9,1.4-1.3,2.5-1.3h0.5v2.6c-0.4-0.2-0.7-0.3-1.1-0.3
			c-1.5,0-1.9,1-1.9,2.3v3.1h-2.7v-7.6h2.7V575.5z"/>
		<path id="XMLID_1415_" class="st4" d="M564.3,571.3c0,0.8-0.7,1.5-1.5,1.5c-0.8,0-1.5-0.7-1.5-1.5c0-0.8,0.7-1.5,1.5-1.5
			C563.6,569.8,564.3,570.5,564.3,571.3z M564.1,581.8h-2.7v-7.6h2.7V581.8z"/>
		<path id="XMLID_1412_" class="st4" d="M574.5,578c0,2.6-2.1,4-4.6,4c-2.4,0-4.6-1.4-4.6-4s2.1-4,4.6-4
			C572.3,574,574.5,575.4,574.5,578z M568.2,578c0,1,0.6,1.7,1.7,1.7c1.1,0,1.7-0.7,1.7-1.7c0-0.9-0.6-1.7-1.7-1.7
			C568.8,576.3,568.2,577.1,568.2,578z"/>
		<path id="XMLID_1410_" class="st4" d="M423.5,599.5h-2.7v-5.4H420v-2.2h0.9v-2.3h2.7v2.3h1.5v2.2h-1.5V599.5z"/>
		<path id="XMLID_1406_" class="st4" d="M433.7,596.2H428c0,1.1,0.6,1.7,1.7,1.7c0.6,0,1-0.2,1.3-0.7h2.6c-0.2,0.9-0.7,1.5-1.4,2
			c-0.7,0.4-1.5,0.6-2.4,0.6c-2.5,0-4.4-1.4-4.4-4c0-2.5,1.7-4,4.2-4c2.6,0,4.1,1.6,4.1,4.2V596.2z M429.2,590.8l-1.2-0.9l2.1-2.5
			l1.6,1.2L429.2,590.8z M431.2,594.6c-0.1-0.7-0.8-1.2-1.5-1.2c-0.8,0-1.4,0.4-1.6,1.2H431.2z"/>
		<path id="XMLID_1404_" class="st4" d="M440.4,594.4c-0.4-0.3-0.9-0.5-1.4-0.5c-1,0-1.8,0.8-1.8,1.8c0,1.1,0.8,1.9,1.9,1.9
			c0.5,0,1-0.2,1.3-0.5v2.3c-0.6,0.3-1.2,0.4-1.9,0.4c-2.2,0-4.1-1.7-4.1-4c0-2.4,1.9-4.1,4.2-4.1c0.6,0,1.2,0.1,1.8,0.4V594.4z"/>
		<path id="XMLID_1402_" class="st4" d="M444.7,592.9L444.7,592.9c0.6-0.9,1.4-1.2,2.4-1.2c2,0,2.8,1.3,2.8,3.1v4.7h-2.7v-3.7
			c0-0.7,0.1-2-1.2-2c-1.1,0-1.4,0.8-1.4,1.8v3.9H442v-7.6h2.7V592.9z"/>
		<path id="XMLID_1399_" class="st4" d="M454.6,589c0,0.8-0.7,1.5-1.5,1.5c-0.8,0-1.5-0.7-1.5-1.5c0-0.8,0.7-1.5,1.5-1.5
			C454,587.5,454.6,588.2,454.6,589z M454.5,599.5h-2.7v-7.6h2.7V599.5z"/>
		<path id="XMLID_1397_" class="st4" d="M461.7,594.4c-0.4-0.3-0.9-0.5-1.4-0.5c-1,0-1.8,0.8-1.8,1.8c0,1.1,0.8,1.9,1.9,1.9
			c0.5,0,1-0.2,1.3-0.5v2.3c-0.6,0.3-1.2,0.4-1.9,0.4c-2.2,0-4.1-1.7-4.1-4c0-2.4,1.9-4.1,4.2-4.1c0.6,0,1.2,0.1,1.8,0.4V594.4z"/>
		<path id="XMLID_1394_" class="st4" d="M471.9,595.7c0,2.6-2.1,4-4.6,4c-2.4,0-4.6-1.4-4.6-4s2.1-4,4.6-4
			C469.8,591.7,471.9,593.1,471.9,595.7z M465.7,595.7c0,1,0.6,1.7,1.7,1.7c1.1,0,1.7-0.7,1.7-1.7c0-0.9-0.6-1.7-1.7-1.7
			C466.3,594,465.7,594.8,465.7,595.7z"/>
		<path id="XMLID_1392_" class="st4" d="M483.2,593.9c-0.4-0.2-1-0.4-1.4-0.4c-0.3,0-0.8,0.1-0.8,0.5c0,0.5,0.8,0.6,1.2,0.7
			c1.3,0.3,2.2,0.8,2.2,2.2c0,2-1.8,2.8-3.6,2.8c-1.1,0-2.1-0.3-3.1-0.9l1-1.9c0.5,0.4,1.5,0.8,2.1,0.8c0.3,0,0.8-0.2,0.8-0.6
			c0-0.6-0.8-0.6-1.7-0.8c-0.8-0.2-1.7-0.6-1.7-2c0-1.9,1.7-2.7,3.3-2.7c0.9,0,1.7,0.1,2.5,0.5L483.2,593.9z"/>
		<path id="XMLID_1389_" class="st4" d="M493.6,596.2h-5.7c0,1.1,0.6,1.7,1.7,1.7c0.6,0,1-0.2,1.3-0.7h2.6c-0.2,0.9-0.7,1.5-1.4,2
			c-0.7,0.4-1.5,0.6-2.4,0.6c-2.5,0-4.4-1.4-4.4-4c0-2.5,1.7-4,4.2-4c2.6,0,4.1,1.6,4.1,4.2V596.2z M491.1,594.6
			c-0.1-0.7-0.8-1.2-1.5-1.2c-0.8,0-1.4,0.4-1.6,1.2H491.1z"/>
		<path id="XMLID_1387_" class="st4" d="M497.5,599.5h-2.7v-12.2h2.7V599.5z"/>
		<path id="XMLID_1385_" class="st4" d="M501.9,599.5h-2.7v-12.2h2.7V599.5z"/>
		<path id="XMLID_1382_" class="st4" d="M512,599.5h-2.7v-0.8h0c-0.5,0.8-1.4,1.1-2.3,1.1c-2.2,0-3.8-1.9-3.8-4s1.5-4,3.8-4
			c0.9,0,1.8,0.3,2.3,1v-0.7h2.7V599.5z M505.9,595.7c0,1,0.6,1.7,1.7,1.7s1.7-0.7,1.7-1.7c0-0.9-0.6-1.7-1.7-1.7
			S505.9,594.8,505.9,595.7z"/>
		<path id="XMLID_1380_" class="st4" d="M517.7,591.9h3.1l2,3.9l2-3.9h3.1l-6.1,11.3h-3l2.6-4.8L517.7,591.9z"/>
		<path id="XMLID_1375_" class="st4" d="M536.4,599.5h-2.7v-5.4h-0.9v-2.2h0.9v-1c0-1,0-1.8,0.8-2.7c0.7-0.8,1.6-1.2,2.6-1.2
			c0.4,0,0.8,0.1,1.2,0.3v2.3c-0.3-0.1-0.6-0.3-0.9-0.3c-0.7,0-0.9,0.4-0.9,1.3v1.2h1.9v2.2h-1.9V599.5z M541.9,589
			c0,0.8-0.7,1.5-1.5,1.5c-0.8,0-1.5-0.7-1.5-1.5c0-0.8,0.7-1.5,1.5-1.5C541.3,587.5,541.9,588.2,541.9,589z M541.8,599.5h-2.7v-7.6
			h2.7V599.5z"/>
		<path id="XMLID_1373_" class="st4" d="M546.2,593.2L546.2,593.2c0.5-0.9,1.4-1.3,2.5-1.3h0.5v2.6c-0.4-0.2-0.7-0.3-1.1-0.3
			c-1.5,0-1.9,1-1.9,2.3v3.1h-2.7v-7.6h2.7V593.2z"/>
		<path id="XMLID_1371_" class="st4" d="M552.9,592.9L552.9,592.9c0.7-0.8,1.4-1.2,2.4-1.2c1.1,0,2,0.4,2.6,1.4
			c0.5-0.9,1.5-1.4,2.6-1.4c1.9,0,2.6,1.3,2.6,3v4.8h-2.7v-3.6c0-0.8,0-2.1-1.1-2.1c-1.2,0-1.3,1.2-1.3,2.1v3.6h-2.7v-3.6
			c0-0.8,0-2.1-1.2-2.1c-1.2,0-1.2,1.3-1.2,2.1v3.6h-2.7v-7.6h2.7V592.9z"/>
		<path id="XMLID_1368_" class="st4" d="M573.1,599.5h-2.7v-0.8h0c-0.5,0.8-1.4,1.1-2.3,1.1c-2.2,0-3.8-1.9-3.8-4s1.5-4,3.8-4
			c0.9,0,1.8,0.3,2.3,1v-0.7h2.7V599.5z M567.1,595.7c0,1,0.6,1.7,1.7,1.7c1.1,0,1.7-0.7,1.7-1.7c0-0.9-0.6-1.7-1.7-1.7
			C567.7,594,567.1,594.8,567.1,595.7z"/>
	</g>
</g>
<g id="XMLID_19200_">
	<g>
		<path id="XMLID_1100_" class="st4" d="M457.9,695.3c-0.5-0.4-1.2-0.7-1.9-0.7c-0.5,0-1.2,0.3-1.2,0.9c0,0.6,0.8,0.9,1.3,1.1
			l0.7,0.2c1.5,0.5,2.7,1.2,2.7,3c0,1.1-0.3,2.2-1.2,3c-0.9,0.7-2,1-3.2,1c-1.4,0-2.8-0.5-3.9-1.3l1.2-2.3c0.7,0.6,1.6,1.2,2.6,1.2
			c0.7,0,1.4-0.3,1.4-1.1c0-0.8-1.1-1.1-1.8-1.3c-1.8-0.5-3-1-3-3.1c0-2.3,1.6-3.7,3.8-3.7c1.1,0,2.5,0.4,3.5,0.9L457.9,695.3z"/>
		<path id="XMLID_1098_" class="st4" d="M470.5,692.4v6.3c0,1.4-0.1,2.8-1.2,3.9c-0.9,0.9-2.4,1.2-3.7,1.2c-1.3,0-2.8-0.3-3.7-1.2
			c-1.1-1.1-1.2-2.5-1.2-3.9v-6.3h2.9v5.9c0,1.4,0.1,3,2,3c1.9,0,2-1.6,2-3v-5.9H470.5z"/>
		<path id="XMLID_1094_" class="st4" d="M472.3,703.5v-11.1h4.1c2,0,3.3,0.8,3.3,2.9c0,1-0.3,1.8-1.2,2.3v0c1.6,0.2,2.3,1.3,2.3,2.8
			c0,2.3-2,3.1-4,3.1H472.3z M475.2,696.8h0.3c0.8,0,1.6-0.1,1.6-1.1c0-1-0.9-1.1-1.7-1.1h-0.2V696.8z M475.2,701.3h0.4
			c0.9,0,2.3,0,2.3-1.2c0-1.3-1.4-1.2-2.4-1.2h-0.3V701.3z"/>
		<path id="XMLID_1090_" class="st4" d="M485.1,701.6l-0.8,1.9h-3.1l4.3-11.1h3.2l4.2,11.1h-3.1l-0.7-1.9H485.1z M487.2,695.8
			L487.2,695.8l-1.2,3.5h2.4L487.2,695.8z"/>
		<path id="XMLID_1088_" class="st4" d="M496.7,701.1h3.5v2.4h-6.4v-11.1h2.9V701.1z"/>
		<path id="XMLID_1086_" class="st4" d="M509.1,696.1c-0.6-0.8-1.5-1.2-2.5-1.2c-1.8,0-3,1.4-3,3.1c0,1.8,1.2,3,3,3
			c0.9,0,1.9-0.5,2.5-1.2v3.5c-1,0.3-1.7,0.5-2.6,0.5c-1.5,0-3-0.6-4.2-1.6c-1.2-1.1-1.8-2.6-1.8-4.2c0-1.5,0.6-3,1.6-4.1
			c1.1-1.1,2.7-1.8,4.2-1.8c0.9,0,1.8,0.2,2.6,0.6V696.1z"/>
		<path id="XMLID_1083_" class="st4" d="M513.7,701.6l-0.8,1.9h-3.1l4.3-11.1h3.2l4.2,11.1h-3.1l-0.7-1.9H513.7z M515.7,695.8
			L515.7,695.8l-1.2,3.5h2.4L515.7,695.8z"/>
		<path id="XMLID_1081_" class="st4" d="M525.3,701.1h3.5v2.4h-6.4v-11.1h2.9V701.1z"/>
		<path id="XMLID_1078_" class="st4" d="M529.7,692.4h4.1c3.1,0,5.7,2.4,5.7,5.6c0,3.1-2.6,5.6-5.7,5.6h-4.1V692.4z M532.6,701.1
			h0.6c1.7,0,3.2-0.9,3.2-3.1c0-2-1.3-3.1-3.2-3.1h-0.7V701.1z"/>
		<path id="XMLID_1076_" class="st4" d="M543.7,694.8v1.9h3.3v2.4h-3.3v1.9h3.4v2.4h-6.3v-11.1h6.3v2.4H543.7z"/>
		<path id="XMLID_1073_" class="st4" d="M402.7,719.3l-0.8,1.9h-3.1l4.3-11.1h3.2l4.2,11.1h-3.1l-0.7-1.9H402.7z M404.8,713.5
			L404.8,713.5l-1.2,3.5h2.4L404.8,713.5z"/>
		<path id="XMLID_1070_" class="st4" d="M414,714.5L414,714.5c0.5-0.8,1.4-1.1,2.3-1.1c2.3,0,3.8,1.9,3.8,4.1c0,2.2-1.5,4-3.8,4
			c-0.9,0-1.8-0.3-2.3-1v4.5h-2.7v-11.3h2.7V714.5z M413.9,717.4c0,1,0.6,1.7,1.7,1.7c1.1,0,1.7-0.7,1.7-1.7c0-0.9-0.6-1.7-1.7-1.7
			C414.5,715.7,413.9,716.5,413.9,717.4z"/>
		<path id="XMLID_1068_" class="st4" d="M424.1,714.9L424.1,714.9c0.5-0.9,1.4-1.3,2.5-1.3h0.5v2.6c-0.4-0.2-0.7-0.3-1.1-0.3
			c-1.5,0-1.9,1-1.9,2.3v3.1h-2.7v-7.6h2.7V714.9z"/>
		<path id="XMLID_1065_" class="st4" d="M436.4,717.4c0,2.6-2.1,4-4.6,4c-2.4,0-4.6-1.4-4.6-4s2.1-4,4.6-4
			C434.3,713.4,436.4,714.9,436.4,717.4z M430.1,717.4c0,1,0.6,1.7,1.7,1.7c1.1,0,1.7-0.7,1.7-1.7c0-0.9-0.6-1.7-1.7-1.7
			C430.8,715.7,430.1,716.5,430.1,717.4z"/>
		<path id="XMLID_1062_" class="st4" d="M437.5,709h2.7v5.4c0.6-0.7,1.5-1,2.3-1c2.2,0,3.8,1.9,3.8,4c0,2.2-1.6,4-3.8,4
			c-0.9,0-1.8-0.3-2.3-1.1h0v0.8h-2.7V709z M440.1,717.4c0,1,0.6,1.7,1.7,1.7c1.1,0,1.7-0.7,1.7-1.7c0-0.9-0.6-1.7-1.7-1.7
			C440.8,715.7,440.1,716.5,440.1,717.4z"/>
		<path id="XMLID_1059_" class="st4" d="M456,721.2h-2.7v-0.8h0c-0.5,0.8-1.4,1.1-2.3,1.1c-2.2,0-3.8-1.9-3.8-4s1.5-4,3.8-4
			c0.9,0,1.8,0.3,2.3,1v-0.7h2.7V721.2z M449.9,717.4c0,1,0.6,1.7,1.7,1.7c1.1,0,1.7-0.7,1.7-1.7c0-0.9-0.6-1.7-1.7-1.7
			C450.5,715.7,449.9,716.5,449.9,717.4z"/>
		<path id="XMLID_1057_" class="st4" d="M463.2,716.1c-0.4-0.3-0.9-0.5-1.4-0.5c-1,0-1.8,0.8-1.8,1.8c0,1.1,0.8,1.9,1.9,1.9
			c0.5,0,1-0.2,1.3-0.5v2.3c-0.6,0.3-1.2,0.4-1.9,0.4c-2.2,0-4.1-1.7-4.1-4c0-2.4,1.9-4.1,4.2-4.1c0.6,0,1.2,0.1,1.8,0.4V716.1z"/>
		<path id="XMLID_1054_" class="st4" d="M467.7,710.7c0,0.8-0.7,1.5-1.5,1.5c-0.8,0-1.5-0.7-1.5-1.5c0-0.8,0.7-1.5,1.5-1.5
			C467,709.2,467.7,709.9,467.7,710.7z M467.6,721.2h-2.7v-7.6h2.7V721.2z"/>
		<path id="XMLID_1050_" class="st4" d="M477.9,717.4c0,2.6-2.1,4-4.6,4c-2.4,0-4.6-1.4-4.6-4s2.1-4,4.6-4
			C475.8,713.4,477.9,714.9,477.9,717.4z M471.6,717.4c0,1,0.6,1.7,1.7,1.7c1.1,0,1.7-0.7,1.7-1.7c0-0.9-0.6-1.7-1.7-1.7
			C472.2,715.7,471.6,716.5,471.6,717.4z M473,712.5l-1.2-0.9l2.1-2.5l1.6,1.2L473,712.5z"/>
		<path id="XMLID_1048_" class="st4" d="M481.8,714.6L481.8,714.6c0.6-0.9,1.4-1.2,2.4-1.2c2,0,2.8,1.3,2.8,3.1v4.7h-2.7v-3.7
			c0-0.7,0.1-2-1.2-2c-1.1,0-1.4,0.8-1.4,1.8v3.9h-2.7v-7.6h2.7V714.6z"/>
		<path id="XMLID_1044_" class="st4" d="M496.8,721.2h-2.7v-5.4h-0.9v-2.2h0.9v-1c0-1,0-1.8,0.8-2.7c0.7-0.8,1.6-1.2,2.6-1.2
			c0.4,0,0.8,0.1,1.2,0.3v2.3c-0.3-0.1-0.6-0.3-0.9-0.3c-0.7,0-0.9,0.4-0.9,1.3v1.2h1.9v2.2h-1.9V721.2z M502.3,710.7
			c0,0.8-0.7,1.5-1.5,1.5c-0.8,0-1.5-0.7-1.5-1.5c0-0.8,0.7-1.5,1.5-1.5C501.6,709.2,502.3,709.9,502.3,710.7z M502.2,721.2h-2.7
			v-7.6h2.7V721.2z"/>
		<path id="XMLID_1042_" class="st4" d="M506.6,714.9L506.6,714.9c0.5-0.9,1.4-1.3,2.5-1.3h0.5v2.6c-0.4-0.2-0.7-0.3-1.1-0.3
			c-1.5,0-1.9,1-1.9,2.3v3.1h-2.7v-7.6h2.7V714.9z"/>
		<path id="XMLID_920_" class="st4" d="M513.3,714.6L513.3,714.6c0.7-0.8,1.4-1.2,2.4-1.2c1.1,0,2,0.4,2.6,1.4
			c0.5-0.9,1.5-1.4,2.6-1.4c1.9,0,2.6,1.3,2.6,3v4.8h-2.7v-3.6c0-0.8,0-2.1-1.1-2.1c-1.2,0-1.3,1.2-1.3,2.1v3.6h-2.7v-3.6
			c0-0.8,0-2.1-1.2-2.1c-1.2,0-1.2,1.3-1.2,2.1v3.6h-2.7v-7.6h2.7V714.6z"/>
		<path id="XMLID_917_" class="st4" d="M533.5,721.2h-2.7v-0.8h0c-0.5,0.8-1.4,1.1-2.3,1.1c-2.2,0-3.8-1.9-3.8-4s1.5-4,3.8-4
			c0.9,0,1.8,0.3,2.3,1v-0.7h2.7V721.2z M527.4,717.4c0,1,0.6,1.7,1.7,1.7c1.1,0,1.7-0.7,1.7-1.7c0-0.9-0.6-1.7-1.7-1.7
			C528.1,715.7,527.4,716.5,527.4,717.4z"/>
		<path id="XMLID_915_" class="st4" d="M539.2,713.7h3.1l2,3.9l2-3.9h3.1l-6.1,11.3h-3l2.6-4.8L539.2,713.7z"/>
		<path id="XMLID_913_" class="st4" d="M560.1,715.6c-0.4-0.2-1-0.4-1.4-0.4c-0.3,0-0.8,0.1-0.8,0.5c0,0.5,0.8,0.6,1.2,0.7
			c1.3,0.3,2.2,0.8,2.2,2.2c0,2-1.8,2.8-3.6,2.8c-1.1,0-2.1-0.3-3.1-0.9l1-1.9c0.5,0.4,1.5,0.8,2.1,0.8c0.3,0,0.8-0.2,0.8-0.6
			c0-0.6-0.8-0.6-1.7-0.8c-0.8-0.2-1.7-0.6-1.7-2c0-1.9,1.7-2.7,3.3-2.7c0.9,0,1.7,0.1,2.5,0.5L560.1,715.6z"/>
		<path id="XMLID_910_" class="st4" d="M570.4,717.9h-5.7c0,1.1,0.6,1.7,1.7,1.7c0.6,0,1-0.2,1.3-0.7h2.6c-0.2,0.9-0.7,1.5-1.4,2
			c-0.7,0.4-1.5,0.6-2.4,0.6c-2.5,0-4.4-1.4-4.4-4c0-2.5,1.7-4,4.2-4c2.6,0,4.1,1.6,4.1,4.2V717.9z M567.9,716.3
			c-0.1-0.7-0.8-1.2-1.5-1.2c-0.8,0-1.4,0.4-1.6,1.2H567.9z"/>
		<path id="XMLID_908_" class="st4" d="M574.3,721.2h-2.7V709h2.7V721.2z"/>
		<path id="XMLID_906_" class="st4" d="M578.8,721.2h-2.7V709h2.7V721.2z"/>
		<path id="XMLID_903_" class="st4" d="M588.8,721.2h-2.7v-0.8h0c-0.5,0.8-1.4,1.1-2.3,1.1c-2.2,0-3.8-1.9-3.8-4s1.5-4,3.8-4
			c0.9,0,1.8,0.3,2.3,1v-0.7h2.7V721.2z M582.8,717.4c0,1,0.6,1.7,1.7,1.7s1.7-0.7,1.7-1.7c0-0.9-0.6-1.7-1.7-1.7
			S582.8,716.5,582.8,717.4z"/>
	</g>
</g>
<polygon id="XMLID_2902_" class="st5" points="390.7,51.4 381.3,56.9 371.9,62.3 371.9,51.4 371.9,40.6 381.3,46 "/>
<polygon id="XMLID_2901_" class="st5" points="497.4,136.5 491.9,127.1 486.5,117.7 497.4,117.7 508.2,117.7 502.8,127.1 "/>
<polygon id="XMLID_2900_" class="st5" points="610.6,184.5 620,179.1 629.4,173.7 629.4,184.5 629.4,195.4 620,189.9 "/>
<polygon id="XMLID_2899_" class="st5" points="610.6,51.4 620,46 629.4,40.6 629.4,51.4 629.4,62.3 620,56.9 "/>
<polygon id="XMLID_2897_" class="st5" points="663.5,184.5 654.1,189.9 644.7,195.4 644.7,184.5 644.7,173.7 654.1,179.1 "/>
<polygon id="XMLID_2896_" class="st5" points="775.2,127.1 769.7,117.7 764.3,108.3 775.2,108.3 786,108.3 780.6,117.7 "/>
<polygon id="XMLID_2893_" class="st5" points="497.4,266.8 491.9,257.4 486.5,248 497.4,248 508.2,248 502.8,257.4 "/>
<polygon id="XMLID_2878_" class="st5" points="497.4,397.2 491.9,387.8 486.5,378.4 497.4,378.4 508.2,378.4 502.8,387.8 "/>
<polygon id="XMLID_2844_" class="st5" points="497.4,527.5 491.9,518.1 486.5,508.7 497.4,508.7 508.2,508.7 502.8,518.1 "/>
<polygon id="XMLID_2843_" class="st5" points="497.4,657.9 491.9,648.5 486.5,639.1 497.4,639.1 508.2,639.1 502.8,648.5 "/>
<polygon id="XMLID_2842_" class="st5" points="210.7,610.2 205.2,600.8 199.8,591.4 210.7,591.4 221.5,591.4 216.1,600.8 "/>
<polygon id="XMLID_2841_" class="st5" points="210.7,713.6 216.1,723 221.5,732.4 210.7,732.4 199.8,732.4 205.2,723 "/>
<line id="XMLID_2543_" class="st0" x1="210.7" y1="506.3" x2="210.7" y2="607.5"/>
<polyline id="XMLID_2536_" class="st0" points="210.7,723 210.7,837.6 387.4,837.6 499.4,837.6 499.4,759 "/>
<polyline id="XMLID_2534_" class="st0" points="322.3,662.1 354.5,662.1 354.5,50.9 387.4,50.9 "/>
<line id="XMLID_2533_" class="st0" x1="615.9" y1="184.5" x2="656.1" y2="184.5"/>
<polyline id="XMLID_2515_" class="st0" points="620,51.4 775.2,51.4 775.2,121 "/>
</svg>
