<?xml version="1.0" encoding="utf-8"?>
<!-- Generator: Adobe Illustrator 21.0.2, SVG Export Plug-In . SVG Version: 6.00 Build 0)  -->
<svg version="1.1" id="Layer_1" xmlns="http://www.w3.org/2000/svg" xmlns:xlink="http://www.w3.org/1999/xlink" x="0px" y="0px"
	 viewBox="0 0 998.6 1148.4" style="enable-background:new 0 0 998.6 1148.4;" xml:space="preserve">
<style type="text/css">
	.st0{fill:none;stroke:#E42527;stroke-width:4;stroke-miterlimit:10;}
	.st1{fill:#9D9D9C;}
	.st2{fill:#95D4E7;}
	.st3{fill:#575756;}
	.st4{fill:#D81117;}
	.st5{fill:#FFFFFF;}
	.st6{fill:#E42527;}
</style>
<line id="XMLID_1903_" class="st0" x1="520.3" y1="462.2" x2="520.3" y2="1067.7"/>
<rect id="XMLID_1637_" x="335.4" y="587.3" class="st1" width="366" height="98.1"/>
<rect id="XMLID_1636_" x="349.3" y="1051" class="st2" width="345.8" height="92.9"/>
<rect id="XMLID_1631_" x="335.5" y="418.4" class="st2" width="365.8" height="87.6"/>
<g>
	<g>
		<path class="st3" d="M403.6,454h10.3c5.5,0,9.4,2.6,9.4,8.5c0,6.1-3.3,8.7-9.1,8.7h-3.8v8.5h-6.7V454z M410.3,465.8h1.1
			c2.4,0,4.8,0,4.8-3.1c0-3.2-2.2-3.3-4.8-3.3h-1.1V465.8z"/>
		<path class="st3" d="M447.6,479.8h-8.3l-6.3-9.9h-0.1v9.9h-6.7V454h10c5.1,0,9,2.4,9,7.9c0,3.6-2,6.6-5.6,7.3L447.6,479.8z
			 M432.9,465.6h0.6c2.2,0,4.6-0.4,4.6-3.2c0-2.8-2.5-3.2-4.6-3.2h-0.6V465.6z"/>
		<path class="st3" d="M476.6,466.4c0,8.3-6,14.2-14.2,14.2c-8.3,0-14.2-5.9-14.2-14.2c0-7.8,6.8-13.3,14.2-13.3
			C469.8,453.2,476.6,458.6,476.6,466.4z M455.1,466.4c0,4.4,3.3,7.7,7.3,7.7c4,0,7.3-3.2,7.3-7.7c0-3.6-3.3-6.8-7.3-6.8
			C458.4,459.6,455.1,462.9,455.1,466.4z"/>
		<path class="st3" d="M479.8,454H490c5.5,0,9.4,2.6,9.4,8.5c0,6.1-3.3,8.7-9.1,8.7h-3.8v8.5h-6.7V454z M486.5,465.8h1.1
			c2.4,0,4.8,0,4.8-3.1c0-3.2-2.2-3.3-4.8-3.3h-1.1V465.8z"/>
		<path class="st3" d="M509,479.8h-6.7V454h6.7V479.8z"/>
		<path class="st3" d="M520.1,459.7v4.3h7.6v5.7h-7.6v4.4h8v5.7h-14.7V454h14.7v5.7H520.1z"/>
		<path class="st3" d="M542.5,479.8h-6.7v-20.1h-5.5V454H548v5.7h-5.5V479.8z"/>
		<path class="st3" d="M554.9,475.3l-1.8,4.5h-7.1L556,454h7.3l9.7,25.8h-7.1l-1.7-4.5H554.9z M559.6,462L559.6,462l-2.8,8.2h5.6
			L559.6,462z"/>
		<path class="st3" d="M596.5,479.8h-8.3l-6.3-9.9h-0.1v9.9h-6.7V454h10c5.1,0,9,2.4,9,7.9c0,3.6-2,6.6-5.6,7.3L596.5,479.8z
			 M581.8,465.6h0.6c2.2,0,4.6-0.4,4.6-3.2c0-2.8-2.5-3.2-4.6-3.2h-0.6V465.6z"/>
		<path class="st3" d="M605,479.8h-6.7V454h6.7V479.8z"/>
		<path class="st3" d="M636.6,466.4c0,8.3-6,14.2-14.2,14.2c-8.3,0-14.2-5.9-14.2-14.2c0-7.8,6.8-13.3,14.2-13.3
			C629.7,453.2,636.6,458.6,636.6,466.4z M615.1,466.4c0,4.4,3.3,7.7,7.3,7.7s7.3-3.2,7.3-7.7c0-3.6-3.3-6.8-7.3-6.8
			S615.1,462.9,615.1,466.4z"/>
	</g>
</g>
<g>
	<g>
		<path class="st3" d="M403.6,1084.5h10.3c5.5,0,9.4,2.6,9.4,8.5c0,6.1-3.3,8.7-9.1,8.7h-3.8v8.5h-6.7V1084.5z M410.3,1096.4h1.1
			c2.4,0,4.8,0,4.8-3.1c0-3.2-2.2-3.3-4.8-3.3h-1.1V1096.4z"/>
		<path class="st3" d="M447.6,1110.3h-8.3l-6.3-9.9h-0.1v9.9h-6.7v-25.8h10c5.1,0,9,2.4,9,7.9c0,3.6-2,6.6-5.6,7.3L447.6,1110.3z
			 M432.9,1096.1h0.6c2.2,0,4.6-0.4,4.6-3.2s-2.5-3.2-4.6-3.2h-0.6V1096.1z"/>
		<path class="st3" d="M476.6,1096.9c0,8.3-6,14.2-14.2,14.2c-8.3,0-14.2-5.9-14.2-14.2c0-7.8,6.8-13.3,14.2-13.3
			C469.8,1083.7,476.6,1089.2,476.6,1096.9z M455.1,1097c0,4.4,3.3,7.7,7.3,7.7c4,0,7.3-3.2,7.3-7.7c0-3.6-3.3-6.8-7.3-6.8
			C458.4,1090.2,455.1,1093.4,455.1,1097z"/>
		<path class="st3" d="M479.8,1084.5H490c5.5,0,9.4,2.6,9.4,8.5c0,6.1-3.3,8.7-9.1,8.7h-3.8v8.5h-6.7V1084.5z M486.5,1096.4h1.1
			c2.4,0,4.8,0,4.8-3.1c0-3.2-2.2-3.3-4.8-3.3h-1.1V1096.4z"/>
		<path class="st3" d="M509,1110.3h-6.7v-25.8h6.7V1110.3z"/>
		<path class="st3" d="M520.1,1090.2v4.3h7.6v5.7h-7.6v4.4h8v5.7h-14.7v-25.8h14.7v5.7H520.1z"/>
		<path class="st3" d="M542.5,1110.3h-6.7v-20.1h-5.5v-5.7H548v5.7h-5.5V1110.3z"/>
		<path class="st3" d="M554.9,1105.8l-1.8,4.5h-7.1l9.9-25.8h7.3l9.7,25.8h-7.1l-1.7-4.5H554.9z M559.6,1092.5L559.6,1092.5
			l-2.8,8.2h5.6L559.6,1092.5z"/>
		<path class="st3" d="M596.5,1110.3h-8.3l-6.3-9.9h-0.1v9.9h-6.7v-25.8h10c5.1,0,9,2.4,9,7.9c0,3.6-2,6.6-5.6,7.3L596.5,1110.3z
			 M581.8,1096.1h0.6c2.2,0,4.6-0.4,4.6-3.2s-2.5-3.2-4.6-3.2h-0.6V1096.1z"/>
		<path class="st3" d="M605,1110.3h-6.7v-25.8h6.7V1110.3z"/>
		<path class="st3" d="M636.6,1096.9c0,8.3-6,14.2-14.2,14.2c-8.3,0-14.2-5.9-14.2-14.2c0-7.8,6.8-13.3,14.2-13.3
			C629.7,1083.7,636.6,1089.2,636.6,1096.9z M615.1,1097c0,4.4,3.3,7.7,7.3,7.7s7.3-3.2,7.3-7.7c0-3.6-3.3-6.8-7.3-6.8
			S615.1,1093.4,615.1,1097z"/>
	</g>
</g>
<g>
	<path class="st4" d="M293,41.1h11.7v8.3h-21.5V11.8h9.8V41.1z"/>
	<path class="st4" d="M317.7,20.1v6.3h11v8.3h-11v6.5h11.6v8.3h-21.4V11.8h21.4v8.3H317.7z"/>
	<path class="st4" d="M372.8,28.4c-0.1,5.5-0.5,10.2-3.8,14.9c-3.7,5.1-9.2,7.4-15.5,7.4c-11.8,0-20-8-20-19.8
		c0-12.2,8.3-20.2,20.4-20.2c7.7,0,13.7,3.5,16.9,10.5l-9.3,3.9c-1.3-3.6-4.2-6-8.1-6c-6.4,0-9.8,6.1-9.8,11.9
		c0,5.8,3.5,11.8,9.9,11.8c4.2,0,7.5-2.2,7.9-6.5h-8v-7.7H372.8z"/>
	<path class="st4" d="M386.8,42.9l-2.6,6.5h-10.4l14.5-37.6H399l14.2,37.6h-10.4l-2.4-6.5H386.8z M393.7,23.4L393.7,23.4l-4.1,12
		h8.1L393.7,23.4z"/>
	<path class="st4" d="M426,41.1h11.7v8.3h-21.5V11.8h9.8V41.1z"/>
	<path class="st4" d="M450.6,49.4h-9.8V11.8h9.8V49.4z"/>
	<path class="st4" d="M486.6,41.1v8.3h-32.2l17.8-29.3h-14.8v-8.3h31.1l-17.7,29.3H486.6z"/>
	<path class="st4" d="M501.8,42.9l-2.6,6.5h-10.4l14.5-37.6H514l14.2,37.6h-10.4l-2.4-6.5H501.8z M508.7,23.4h-0.1l-4,12h8.1
		L508.7,23.4z"/>
	<path class="st4" d="M558.1,24.4c-2-2.7-5.2-4.1-8.6-4.1c-6,0-10,4.6-10,10.4c0,5.9,4.1,10.2,10.2,10.2c3.2,0,6.4-1.5,8.4-4v11.7
		c-3.2,1-5.6,1.7-8.6,1.7c-5.2,0-10.2-2-14.1-5.5c-4.1-3.7-6-8.6-6-14.2c0-5.1,1.9-10.1,5.5-13.8c3.7-3.8,9-6.1,14.3-6.1
		c3.1,0,6,0.7,8.9,1.9V24.4z"/>
	<path class="st4" d="M573.9,49.4h-9.8V11.8h9.8V49.4z"/>
	<path class="st4" d="M619.9,29.9c0,12.2-8.7,20.7-20.8,20.7s-20.8-8.6-20.8-20.7c0-11.4,10-19.3,20.8-19.3
		C609.9,10.5,619.9,18.5,619.9,29.9z M588.5,29.9c0,6.5,4.8,11.2,10.6,11.2c5.8,0,10.6-4.7,10.6-11.2c0-5.2-4.8-9.9-10.6-9.9
		C593.3,20,588.5,24.8,588.5,29.9z M597.9,9.5l-4-2.9l7-8.6l5.5,4L597.9,9.5z"/>
	<path class="st4" d="M624.4,11.8h9.8l17.9,23h0.1v-23h9.8v37.6h-9.8l-17.9-23h-0.1v23h-9.8V11.8z"/>
	<path class="st4" d="M685.5,11.8h13.9c10.5,0,19.1,8.2,19.1,18.8s-8.7,18.8-19.1,18.8h-13.9V11.8z M695.2,41.1h2.2
		c5.8,0,10.8-3.2,10.8-10.5c0-6.7-4.4-10.5-10.7-10.5h-2.3V41.1z"/>
	<path class="st4" d="M732.7,20.1v6.3h11v8.3h-11v6.5h11.6v8.3h-21.4V11.8h21.4v8.3H732.7z"/>
	<path class="st4" d="M185.3,71.6h15c8.1,0,13.7,3.7,13.7,12.4c0,8.9-4.8,12.8-13.3,12.8H195v12.5h-9.8V71.6z M195,88.9h1.6
		c3.5,0,7,0,7-4.6c0-4.7-3.2-4.8-7-4.8H195V88.9z"/>
	<path class="st4" d="M228,100.9h11.7v8.3h-21.5V71.6h9.8V100.9z"/>
	<path class="st4" d="M252.5,102.7l-2.6,6.5h-10.4l14.5-37.6h10.7l14.2,37.6h-10.4l-2.4-6.5H252.5z M259.3,83.2L259.3,83.2l-4.1,12
		h8.1L259.3,83.2z"/>
	<path class="st4" d="M281.8,71.6h9.8l17.9,23h0.1v-23h9.8v37.6h-9.8l-17.9-23h-0.1v23h-9.8V71.6z"/>
	<path class="st4" d="M365.4,89.7c0,12.2-8.7,20.7-20.8,20.7c-12.1,0-20.8-8.6-20.8-20.7c0-11.4,10-19.3,20.8-19.3
		S365.4,78.3,365.4,89.7z M334,89.8c0,6.5,4.8,11.2,10.6,11.2c5.8,0,10.6-4.7,10.6-11.2c0-5.2-4.8-9.9-10.6-9.9
		C338.8,79.8,334,84.6,334,89.8z"/>
	<path class="st4" d="M390.6,81.3c-1.8-1.5-4.1-2.5-6.5-2.5c-1.8,0-4.2,1-4.2,3.1c0,2.2,2.6,3,4.3,3.6l2.5,0.7
		c5.2,1.5,9.3,4.2,9.3,10.3c0,3.7-0.9,7.6-3.9,10.1c-2.9,2.5-6.9,3.5-10.7,3.5c-4.7,0-9.4-1.6-13.2-4.3l4.2-7.9
		c2.4,2.1,5.3,3.9,8.7,3.9c2.3,0,4.7-1.1,4.7-3.8c0-2.7-3.8-3.7-5.9-4.3c-6.1-1.7-10.2-3.3-10.2-10.6c0-7.6,5.4-12.6,13-12.6
		c3.8,0,8.4,1.2,11.8,3.1L390.6,81.3z"/>
	<path class="st4" d="M413.6,71.6h11.7l7,10.2l7-10.2h11.7l-13.9,19.5v18h-9.8v-18L413.6,71.6z"/>
	<path class="st4" d="M501.7,109.2h-12.2l-9.2-14.5h-0.1v14.5h-9.8V71.6H485c7.4,0,13.1,3.5,13.1,11.6c0,5.2-2.9,9.7-8.2,10.6
		L501.7,109.2z M480.2,88.5h0.9c3.2,0,6.8-0.6,6.8-4.7c0-4.1-3.6-4.7-6.8-4.7h-0.9V88.5z"/>
	<path class="st4" d="M514.1,79.9v6.3h11v8.3h-11v6.5h11.6v8.3h-21.4V71.6h21.4v8.3H514.1z"/>
	<path class="st4" d="M552.4,81.3c-1.8-1.5-4.1-2.5-6.5-2.5c-1.8,0-4.2,1-4.2,3.1c0,2.2,2.6,3,4.3,3.6l2.5,0.7
		c5.2,1.5,9.3,4.2,9.3,10.3c0,3.7-0.9,7.6-3.9,10.1c-2.9,2.5-6.9,3.5-10.7,3.5c-4.7,0-9.4-1.6-13.2-4.3l4.2-7.9
		c2.4,2.1,5.3,3.9,8.7,3.9c2.3,0,4.7-1.1,4.7-3.8c0-2.7-3.8-3.7-5.9-4.3c-6.1-1.7-10.2-3.3-10.2-10.6c0-7.6,5.4-12.6,13-12.6
		c3.8,0,8.4,1.2,11.8,3.1L552.4,81.3z"/>
	<path class="st4" d="M602.1,89.7c0,12.2-8.7,20.7-20.8,20.7c-12.1,0-20.8-8.6-20.8-20.7c0-11.4,10-19.3,20.8-19.3
		C592.1,70.4,602.1,78.3,602.1,89.7z M570.7,89.8c0,6.5,4.8,11.2,10.6,11.2c5.8,0,10.6-4.7,10.6-11.2c0-5.2-4.8-9.9-10.6-9.9
		C575.5,79.8,570.7,84.6,570.7,89.8z"/>
	<path class="st4" d="M616.4,100.9h11.7v8.3h-21.5V71.6h9.8V100.9z"/>
	<path class="st4" d="M663.9,71.6v21.1c0,4.8-0.2,9.6-3.9,13.3c-3.1,3.1-8.1,4.2-12.5,4.2c-4.4,0-9.3-1.1-12.5-4.2
		c-3.7-3.6-3.9-8.4-3.9-13.3V71.6h9.8v19.8c0,4.9,0.3,10.2,6.6,10.2c6.3,0,6.6-5.3,6.6-10.2V71.6H663.9z"/>
	<path class="st4" d="M697,84.2c-2-2.7-5.2-4.1-8.6-4.1c-6,0-10,4.6-10,10.4c0,5.9,4.1,10.2,10.2,10.2c3.2,0,6.4-1.5,8.4-4v11.7
		c-3.2,1-5.6,1.7-8.6,1.7c-5.2,0-10.2-2-14.1-5.5c-4.1-3.7-6-8.6-6-14.2c0-5.1,1.9-10.1,5.5-13.8c3.7-3.8,9-6.1,14.3-6.1
		c3.1,0,6,0.7,8.9,1.9V84.2z"/>
	<path class="st4" d="M712.8,109.2H703V71.6h9.8V109.2z"/>
	<path class="st4" d="M758.8,89.7c0,12.2-8.7,20.7-20.8,20.7c-12.1,0-20.8-8.6-20.8-20.7c0-11.4,10-19.3,20.8-19.3
		C748.9,70.4,758.8,78.3,758.8,89.7z M727.4,89.8c0,6.5,4.8,11.2,10.6,11.2c5.8,0,10.6-4.7,10.6-11.2c0-5.2-4.8-9.9-10.6-9.9
		C732.2,79.8,727.4,84.6,727.4,89.8z"/>
	<path class="st4" d="M763.4,71.6h9.8l17.9,23h0.1v-23h9.8v37.6h-9.8l-17.9-23h-0.1v23h-9.8V71.6z"/>
	<path class="st4" d="M817,79.9v6.3h11v8.3h-11v6.5h11.6v8.3h-21.4V71.6h21.4v8.3H817z"/>
	<path class="st4" d="M855.3,81.3c-1.8-1.5-4.1-2.5-6.5-2.5c-1.8,0-4.2,1-4.2,3.1c0,2.2,2.6,3,4.3,3.6l2.5,0.7
		c5.2,1.5,9.3,4.2,9.3,10.3c0,3.7-0.9,7.6-3.9,10.1c-2.9,2.5-6.9,3.5-10.7,3.5c-4.7,0-9.4-1.6-13.2-4.3l4.2-7.9
		c2.4,2.1,5.3,3.9,8.7,3.9c2.3,0,4.7-1.1,4.7-3.8c0-2.7-3.8-3.7-5.9-4.3c-6.1-1.7-10.2-3.3-10.2-10.6c0-7.6,5.4-12.6,13-12.6
		c3.8,0,8.4,1.2,11.8,3.1L855.3,81.3z"/>
</g>
<g>
	<g>
		<path class="st5" d="M444.1,628.3h-5.6l-4.2-6.6h0v6.6h-4.5V611h6.7c3.4,0,6,1.6,6,5.3c0,2.4-1.3,4.4-3.8,4.9L444.1,628.3z
			 M434.3,618.7h0.4c1.5,0,3.1-0.3,3.1-2.1c0-1.9-1.6-2.1-3.1-2.1h-0.4V618.7z"/>
		<path class="st5" d="M457.3,623.1h-8.8c0,1.7,0.9,2.6,2.6,2.6c0.9,0,1.5-0.3,2-1.1h4c-0.3,1.4-1.1,2.4-2.2,3c-1.1,0.7-2.4,1-3.7,1
			c-3.9,0-6.8-2.2-6.8-6.2c0-3.9,2.7-6.3,6.5-6.3c4.1,0,6.4,2.5,6.4,6.5V623.1z M453.4,620.7c-0.2-1.1-1.2-1.9-2.4-1.9
			c-1.2,0-2.2,0.6-2.5,1.9H453.4z"/>
		<path class="st5" d="M466.9,619.5c-0.6-0.3-1.5-0.6-2.2-0.6c-0.5,0-1.3,0.2-1.3,0.8c0,0.8,1.3,0.9,1.9,1c1.9,0.4,3.4,1.3,3.4,3.5
			c0,3.1-2.8,4.4-5.5,4.4c-1.7,0-3.3-0.5-4.7-1.3l1.5-2.9c0.8,0.6,2.3,1.2,3.3,1.2c0.5,0,1.3-0.3,1.3-0.9c0-0.9-1.3-1-2.6-1.3
			c-1.3-0.3-2.6-1-2.6-3.1c0-2.9,2.6-4.2,5.2-4.2c1.3,0,2.7,0.2,3.9,0.8L466.9,619.5z"/>
		<path class="st5" d="M474.9,617.9L474.9,617.9c0.8-1.2,2.2-1.7,3.6-1.7c3.5,0,5.9,2.9,5.9,6.3c0,3.4-2.4,6.2-5.9,6.2
			c-1.3,0-2.7-0.5-3.6-1.5v7h-4.2v-17.6h4.2V617.9z M474.8,622.4c0,1.5,1,2.6,2.7,2.6c1.7,0,2.7-1.1,2.7-2.6c0-1.4-1-2.7-2.7-2.7
			C475.8,619.8,474.8,621,474.8,622.4z"/>
		<path class="st5" d="M499.8,622.4c0,4-3.3,6.2-7.1,6.2c-3.7,0-7.1-2.2-7.1-6.2s3.3-6.3,7.1-6.3S499.8,618.4,499.8,622.4z
			 M490,622.4c0,1.5,1,2.6,2.7,2.6c1.7,0,2.7-1.1,2.7-2.6c0-1.4-1-2.7-2.7-2.7C491,619.8,490,621,490,622.4z"/>
		<path class="st5" d="M505.8,618L505.8,618c1-1.4,2.2-1.9,3.8-1.9c3.2,0,4.4,2,4.4,4.9v7.2h-4.2v-5.7c0-1.1,0.2-3.1-1.9-3.1
			c-1.7,0-2.2,1.3-2.2,2.7v6.1h-4.2v-11.7h4.2V618z"/>
		<path class="st5" d="M524.5,619.5c-0.6-0.3-1.5-0.6-2.2-0.6c-0.5,0-1.3,0.2-1.3,0.8c0,0.8,1.3,0.9,1.9,1c1.9,0.4,3.4,1.3,3.4,3.5
			c0,3.1-2.8,4.4-5.5,4.4c-1.7,0-3.3-0.5-4.7-1.3l1.5-2.9c0.8,0.6,2.3,1.2,3.3,1.2c0.5,0,1.3-0.3,1.3-0.9c0-0.9-1.3-1-2.6-1.3
			s-2.6-1-2.6-3.1c0-2.9,2.6-4.2,5.2-4.2c1.3,0,2.7,0.2,3.9,0.8L524.5,619.5z"/>
		<path class="st5" d="M541.3,628.3h-4.2V627h0c-0.7,1.2-2.2,1.7-3.5,1.7c-3.5,0-5.9-2.9-5.9-6.3s2.4-6.2,5.9-6.2
			c1.3,0,2.8,0.5,3.6,1.5v-1.1h4.2V628.3z M531.9,622.4c0,1.5,1,2.6,2.7,2.6c1.7,0,2.7-1.1,2.7-2.6c0-1.4-1-2.7-2.7-2.7
			C532.9,619.8,531.9,621,531.9,622.4z"/>
		<path class="st5" d="M543.9,609.3h4.2v8.4c0.9-1,2.3-1.5,3.6-1.5c3.5,0,5.9,2.9,5.9,6.2c0,3.4-2.4,6.3-5.9,6.3
			c-1.4,0-2.8-0.5-3.5-1.7h0v1.3h-4.2V609.3z M547.9,622.4c0,1.5,1,2.6,2.7,2.6c1.7,0,2.7-1.1,2.7-2.6c0-1.4-1-2.7-2.7-2.7
			C548.9,619.8,547.9,621,547.9,622.4z"/>
		<path class="st5" d="M563.8,628.3h-4.2v-19h4.2V628.3z"/>
		<path class="st5" d="M578.6,623.1h-8.8c0,1.7,0.9,2.6,2.6,2.6c0.9,0,1.5-0.3,2-1.1h4c-0.3,1.4-1.1,2.4-2.2,3c-1.1,0.7-2.4,1-3.7,1
			c-3.9,0-6.8-2.2-6.8-6.2c0-3.9,2.7-6.3,6.5-6.3c4.1,0,6.4,2.5,6.4,6.5V623.1z M574.7,620.7c-0.2-1.1-1.2-1.9-2.4-1.9
			c-1.2,0-2.2,0.6-2.5,1.9H574.7z"/>
		<path class="st5" d="M597.2,627L597.2,627c-0.8,1.2-2.2,1.7-3.6,1.7c-3.5,0-5.9-2.9-5.9-6.3s2.4-6.2,5.9-6.2
			c1.3,0,2.8,0.5,3.6,1.5v-8.4h4.2v19h-4.2V627z M591.9,622.4c0,1.5,1,2.6,2.7,2.6c1.7,0,2.7-1.1,2.7-2.6c0-1.4-1-2.7-2.7-2.7
			C592.9,619.8,591.9,621,591.9,622.4z"/>
		<path class="st5" d="M616,623.1h-8.8c0,1.7,0.9,2.6,2.6,2.6c0.9,0,1.5-0.3,2-1.1h4c-0.3,1.4-1.1,2.4-2.2,3c-1.1,0.7-2.4,1-3.7,1
			c-3.9,0-6.8-2.2-6.8-6.2c0-3.9,2.7-6.3,6.5-6.3c4.1,0,6.4,2.5,6.4,6.5V623.1z M612.1,620.7c-0.2-1.1-1.2-1.9-2.4-1.9
			c-1.2,0-2.2,0.6-2.5,1.9H612.1z"/>
		<path class="st5" d="M492.4,655.7h-4.2v-1.3h0c-0.7,1.2-2.2,1.7-3.5,1.7c-3.5,0-5.9-2.9-5.9-6.3s2.4-6.2,5.9-6.2
			c1.3,0,2.8,0.5,3.6,1.5V644h4.2V655.7z M483,649.8c0,1.5,1,2.6,2.7,2.6c1.7,0,2.7-1.1,2.7-2.6c0-1.4-1-2.7-2.7-2.7
			C484,647.2,483,648.4,483,649.8z"/>
		<path class="st5" d="M499.3,645.9L499.3,645.9c0.8-1.4,2.2-2.1,3.8-2.1h0.8v4c-0.6-0.3-1.1-0.4-1.8-0.4c-2.3,0-2.9,1.5-2.9,3.5
			v4.7h-4.2V644h4.2V645.9z"/>
		<path class="st5" d="M514,647.8c-0.6-0.5-1.3-0.8-2.1-0.8c-1.6,0-2.9,1.2-2.9,2.9c0,1.7,1.2,2.9,2.9,2.9c0.7,0,1.5-0.3,2.1-0.8
			v3.5c-0.9,0.5-1.9,0.7-2.9,0.7c-3.5,0-6.4-2.6-6.4-6.1c0-3.8,2.9-6.4,6.6-6.4c1,0,1.9,0.2,2.7,0.7V647.8z"/>
		<path class="st5" d="M520.7,636.7v8.7h0c1-1.3,2.1-1.9,3.7-1.9c3,0,4.4,2,4.4,4.9v7.2h-4.2v-6c0-1.4-0.2-2.8-1.9-2.8
			c-1.6,0-2.2,1.4-2.2,2.8v6h-4.2v-19H520.7z"/>
		<path class="st5" d="M536.1,639.5c0,1.3-1.1,2.3-2.3,2.3c-1.3,0-2.3-1.1-2.3-2.3c0-1.3,1.1-2.3,2.3-2.3
			C535,637.1,536.1,638.2,536.1,639.5z M535.8,655.7h-4.2V644h4.2V655.7z"/>
		<path class="st5" d="M544.4,650l2.8-6h4.7l-6.1,11.7H543l-6.2-11.7h4.7L544.4,650z"/>
		<path class="st5" d="M566.1,649.8c0,4-3.3,6.2-7.1,6.2c-3.7,0-7.1-2.2-7.1-6.2s3.3-6.3,7.1-6.3
			C562.8,643.6,566.1,645.8,566.1,649.8z M556.4,649.8c0,1.5,1,2.6,2.7,2.6c1.7,0,2.7-1.1,2.7-2.6c0-1.4-1-2.7-2.7-2.7
			C557.3,647.2,556.4,648.4,556.4,649.8z"/>
	</g>
</g>
<rect id="XMLID_1622_" x="337.3" y="750.5" class="st1" width="366" height="79.1"/>
<rect id="XMLID_1341_" x="341.3" y="899.5" class="st4" width="366" height="88.6"/>
<g>
	<g>
		<path class="st5" d="M404.5,919.6h6.9c3.7,0,6.3,1.7,6.3,5.7c0,4.1-2.2,5.9-6.1,5.9H409v5.7h-4.5V919.6z M409,927.5h0.8
			c1.6,0,3.2,0,3.2-2.1c0-2.2-1.5-2.2-3.2-2.2H409V927.5z"/>
		<path class="st5" d="M424.1,933.1h5.4v3.8h-9.9v-17.2h4.5V933.1z"/>
		<path class="st5" d="M435.4,933.9l-1.2,3h-4.8l6.6-17.2h4.9l6.5,17.2h-4.8l-1.1-3H435.4z M438.5,924.9L438.5,924.9l-1.9,5.5h3.7
			L438.5,924.9z"/>
		<path class="st5" d="M448.8,919.6h4.5l8.2,10.5h0v-10.5h4.5v17.2h-4.5l-8.2-10.6h0v10.6h-4.5V919.6z"/>
		<path class="st5" d="M487.2,927.9c0,5.6-4,9.5-9.5,9.5s-9.5-3.9-9.5-9.5c0-5.2,4.6-8.9,9.5-8.9S487.2,922.7,487.2,927.9z
			 M472.8,927.9c0,3,2.2,5.1,4.9,5.1c2.7,0,4.9-2.2,4.9-5.1c0-2.4-2.2-4.6-4.9-4.6C475,923.4,472.8,925.6,472.8,927.9z"/>
		<path class="st5" d="M501.6,933.1h5.4v3.8h-9.9v-17.2h4.5V933.1z"/>
		<path class="st5" d="M512.9,923.4v2.9h5.1v3.8h-5.1v3h5.3v3.8h-9.8v-17.2h9.8v3.8H512.9z"/>
		<path class="st5" d="M538.2,927.2c0,2.5-0.2,4.7-1.8,6.8c-1.7,2.4-4.2,3.4-7.1,3.4c-5.4,0-9.2-3.7-9.2-9.1c0-5.6,3.8-9.3,9.4-9.3
			c3.5,0,6.3,1.6,7.8,4.8l-4.3,1.8c-0.6-1.6-1.9-2.7-3.7-2.7c-2.9,0-4.5,2.8-4.5,5.4c0,2.7,1.6,5.4,4.6,5.4c1.9,0,3.4-1,3.6-3h-3.7
			v-3.5H538.2z"/>
		<path class="st5" d="M544.7,936.8h-4.5v-17.2h4.5V936.8z"/>
		<path class="st5" d="M557.1,924c-0.8-0.7-1.9-1.1-3-1.1c-0.8,0-1.9,0.5-1.9,1.4c0,1,1.2,1.4,2,1.6l1.1,0.3
			c2.4,0.7,4.3,1.9,4.3,4.7c0,1.7-0.4,3.5-1.8,4.6c-1.3,1.1-3.2,1.6-4.9,1.6c-2.2,0-4.3-0.7-6.1-2l1.9-3.6c1.1,1,2.4,1.8,4,1.8
			c1.1,0,2.2-0.5,2.2-1.7c0-1.3-1.8-1.7-2.7-2c-2.8-0.8-4.7-1.5-4.7-4.9c0-3.5,2.5-5.8,5.9-5.8c1.7,0,3.9,0.5,5.4,1.4L557.1,924z"/>
		<path class="st5" d="M566.2,933.1h5.4v3.8h-9.9v-17.2h4.5V933.1z"/>
		<path class="st5" d="M577.4,933.9l-1.2,3h-4.8l6.6-17.2h4.9l6.5,17.2h-4.8l-1.1-3H577.4z M580.5,924.9L580.5,924.9l-1.9,5.5h3.7
			L580.5,924.9z"/>
		<path class="st5" d="M590.9,919.6h6.4c4.8,0,8.8,3.8,8.8,8.6s-4,8.6-8.8,8.6h-6.4V919.6z M595.4,933.1h1c2.7,0,5-1.5,5-4.8
			c0-3.1-2-4.8-4.9-4.8h-1.1V933.1z"/>
		<path class="st5" d="M626.3,927.9c0,5.6-4,9.5-9.5,9.5c-5.5,0-9.5-3.9-9.5-9.5c0-5.2,4.6-8.9,9.5-8.9
			C621.7,919,626.3,922.7,626.3,927.9z M611.9,927.9c0,3,2.2,5.1,4.9,5.1c2.7,0,4.9-2.2,4.9-5.1c0-2.4-2.2-4.6-4.9-4.6
			C614.1,923.4,611.9,925.6,611.9,927.9z"/>
		<path class="st5" d="M443.3,955.3c0,5.6-4,9.5-9.5,9.5c-5.5,0-9.5-3.9-9.5-9.5c0-5.2,4.6-8.9,9.5-8.9
			C438.8,946.5,443.3,950.1,443.3,955.3z M428.9,955.4c0,3,2.2,5.1,4.9,5.1c2.7,0,4.9-2.2,4.9-5.1c0-2.4-2.2-4.6-4.9-4.6
			C431.1,950.8,428.9,953,428.9,955.4z"/>
		<path class="st5" d="M467.6,964.3H462l-4.2-6.6h0v6.6h-4.5V947h6.7c3.4,0,6,1.6,6,5.3c0,2.4-1.3,4.4-3.8,4.9L467.6,964.3z
			 M457.7,954.8h0.4c1.5,0,3.1-0.3,3.1-2.1c0-1.9-1.6-2.1-3.1-2.1h-0.4V954.8z"/>
		<path class="st5" d="M473.3,950.8v2.9h5.1v3.8h-5.1v3h5.3v3.8h-9.8V947h9.8v3.8H473.3z"/>
		<path class="st5" d="M490.8,951.5c-0.8-0.7-1.9-1.1-3-1.1c-0.8,0-1.9,0.5-1.9,1.4c0,1,1.2,1.4,2,1.6l1.1,0.3
			c2.4,0.7,4.3,1.9,4.3,4.7c0,1.7-0.4,3.5-1.8,4.6c-1.3,1.1-3.2,1.6-4.9,1.6c-2.2,0-4.3-0.7-6.1-2l1.9-3.6c1.1,1,2.4,1.8,4,1.8
			c1.1,0,2.2-0.5,2.2-1.7c0-1.3-1.8-1.7-2.7-2c-2.8-0.8-4.7-1.5-4.7-4.9c0-3.5,2.5-5.8,5.9-5.8c1.7,0,3.9,0.5,5.4,1.4L490.8,951.5z"
			/>
		<path class="st5" d="M513.7,955.3c0,5.6-4,9.5-9.5,9.5s-9.5-3.9-9.5-9.5c0-5.2,4.6-8.9,9.5-8.9
			C509.1,946.5,513.7,950.1,513.7,955.3z M499.3,955.4c0,3,2.2,5.1,4.9,5.1c2.7,0,4.9-2.2,4.9-5.1c0-2.4-2.2-4.6-4.9-4.6
			C501.5,950.8,499.3,953,499.3,955.4z"/>
		<path class="st5" d="M520.2,960.5h5.4v3.8h-9.9V947h4.5V960.5z"/>
		<path class="st5" d="M542,947v9.7c0,2.2-0.1,4.4-1.8,6.1c-1.4,1.4-3.7,1.9-5.7,1.9s-4.3-0.5-5.7-1.9c-1.7-1.7-1.8-3.9-1.8-6.1V947
			h4.5v9.1c0,2.2,0.2,4.7,3,4.7c2.9,0,3-2.4,3-4.7V947H542z"/>
		<path class="st5" d="M557.2,952.8c-0.9-1.2-2.4-1.9-3.9-1.9c-2.7,0-4.6,2.1-4.6,4.8c0,2.7,1.9,4.7,4.7,4.7c1.5,0,2.9-0.7,3.9-1.8
			v5.4c-1.5,0.5-2.6,0.8-4,0.8c-2.4,0-4.7-0.9-6.5-2.5c-1.9-1.7-2.8-4-2.8-6.5c0-2.4,0.9-4.6,2.5-6.3c1.7-1.7,4.1-2.8,6.6-2.8
			c1.4,0,2.8,0.3,4.1,0.9V952.8z"/>
		<path class="st5" d="M564.4,964.3h-4.5V947h4.5V964.3z"/>
		<path class="st5" d="M585.5,955.3c0,5.6-4,9.5-9.5,9.5s-9.5-3.9-9.5-9.5c0-5.2,4.6-8.9,9.5-8.9C581,946.5,585.5,950.1,585.5,955.3
			z M571.1,955.4c0,3,2.2,5.1,4.9,5.1c2.7,0,4.9-2.2,4.9-5.1c0-2.4-2.2-4.6-4.9-4.6C573.3,950.8,571.1,953,571.1,955.4z M575.4,946
			l-1.9-1.3l3.2-3.9l2.5,1.8L575.4,946z"/>
		<path class="st5" d="M587.6,947h4.5l8.2,10.5h0V947h4.5v17.2h-4.5l-8.2-10.6h0v10.6h-4.5V947z"/>
	</g>
</g>
<polygon id="XMLID_1331_" class="st6" points="520.3,584.6 511.9,570.1 503.5,555.5 520.3,555.5 537.1,555.5 528.7,570.1 "/>
<polygon id="XMLID_1330_" class="st6" points="518.6,751.6 510.2,737 501.8,722.5 518.6,722.5 535.4,722.5 527,737 "/>
<polygon id="XMLID_1329_" class="st6" points="518.6,901.2 510.2,886.7 501.8,872.1 518.6,872.1 535.4,872.1 527,886.7 "/>
<polygon id="XMLID_1328_" class="st6" points="518.6,1051.1 510.2,1036.5 501.8,1021.9 518.6,1021.9 535.4,1021.9 527,1036.5 "/>
<g>
	<g>
		<path class="st5" d="M444.1,781.6h-5.6l-4.2-6.6h0v6.6h-4.5v-17.2h6.7c3.4,0,6,1.6,6,5.3c0,2.4-1.3,4.4-3.8,4.9L444.1,781.6z
			 M434.3,772.1h0.4c1.5,0,3.1-0.3,3.1-2.1c0-1.9-1.6-2.1-3.1-2.1h-0.4V772.1z"/>
		<path class="st5" d="M457.3,776.4h-8.8c0,1.7,0.9,2.6,2.6,2.6c0.9,0,1.5-0.3,2-1.1h4c-0.3,1.4-1.1,2.4-2.2,3c-1.1,0.7-2.4,1-3.7,1
			c-3.9,0-6.8-2.2-6.8-6.2c0-3.9,2.7-6.3,6.5-6.3c4.1,0,6.4,2.5,6.4,6.5V776.4z M453.4,774c-0.2-1.1-1.2-1.9-2.4-1.9
			c-1.2,0-2.2,0.6-2.5,1.9H453.4z"/>
		<path class="st5" d="M466.9,772.9c-0.6-0.3-1.5-0.6-2.2-0.6c-0.5,0-1.3,0.2-1.3,0.8c0,0.8,1.3,0.9,1.9,1c1.9,0.4,3.4,1.3,3.4,3.5
			c0,3.1-2.8,4.4-5.5,4.4c-1.7,0-3.3-0.5-4.7-1.3l1.5-2.9c0.8,0.6,2.3,1.2,3.3,1.2c0.5,0,1.3-0.3,1.3-0.9c0-0.9-1.3-1-2.6-1.3
			c-1.3-0.3-2.6-1-2.6-3.1c0-2.9,2.6-4.2,5.2-4.2c1.3,0,2.7,0.2,3.9,0.8L466.9,772.9z"/>
		<path class="st5" d="M474.9,771.2L474.9,771.2c0.8-1.2,2.2-1.7,3.6-1.7c3.5,0,5.9,2.9,5.9,6.3c0,3.4-2.4,6.2-5.9,6.2
			c-1.3,0-2.7-0.5-3.6-1.5v7h-4.2v-17.6h4.2V771.2z M474.8,775.8c0,1.5,1,2.6,2.7,2.6c1.7,0,2.7-1.1,2.7-2.6c0-1.4-1-2.7-2.7-2.7
			C475.8,773.1,474.8,774.3,474.8,775.8z"/>
		<path class="st5" d="M499.8,775.8c0,4-3.3,6.2-7.1,6.2c-3.7,0-7.1-2.2-7.1-6.2c0-4,3.3-6.3,7.1-6.3S499.8,771.8,499.8,775.8z
			 M490,775.8c0,1.5,1,2.6,2.7,2.6c1.7,0,2.7-1.1,2.7-2.6c0-1.4-1-2.7-2.7-2.7C491,773.1,490,774.3,490,775.8z"/>
		<path class="st5" d="M505.8,771.4L505.8,771.4c1-1.4,2.2-1.9,3.8-1.9c3.2,0,4.4,2,4.4,4.9v7.2h-4.2v-5.7c0-1.1,0.2-3.1-1.9-3.1
			c-1.7,0-2.2,1.3-2.2,2.7v6.1h-4.2v-11.7h4.2V771.4z"/>
		<path class="st5" d="M524.5,772.9c-0.6-0.3-1.5-0.6-2.2-0.6c-0.5,0-1.3,0.2-1.3,0.8c0,0.8,1.3,0.9,1.9,1c1.9,0.4,3.4,1.3,3.4,3.5
			c0,3.1-2.8,4.4-5.5,4.4c-1.7,0-3.3-0.5-4.7-1.3l1.5-2.9c0.8,0.6,2.3,1.2,3.3,1.2c0.5,0,1.3-0.3,1.3-0.9c0-0.9-1.3-1-2.6-1.3
			c-1.3-0.3-2.6-1-2.6-3.1c0-2.9,2.6-4.2,5.2-4.2c1.3,0,2.7,0.2,3.9,0.8L524.5,772.9z"/>
		<path class="st5" d="M541.3,781.6h-4.2v-1.3h0c-0.7,1.2-2.2,1.7-3.5,1.7c-3.5,0-5.9-2.9-5.9-6.3s2.4-6.2,5.9-6.2
			c1.3,0,2.8,0.5,3.6,1.5v-1.1h4.2V781.6z M531.9,775.8c0,1.5,1,2.6,2.7,2.6c1.7,0,2.7-1.1,2.7-2.6c0-1.4-1-2.7-2.7-2.7
			C532.9,773.1,531.9,774.3,531.9,775.8z"/>
		<path class="st5" d="M543.9,762.6h4.2v8.4c0.9-1,2.3-1.5,3.6-1.5c3.5,0,5.9,2.9,5.9,6.2c0,3.4-2.4,6.3-5.9,6.3
			c-1.4,0-2.8-0.5-3.5-1.7h0v1.3h-4.2V762.6z M547.9,775.8c0,1.5,1,2.6,2.7,2.6c1.7,0,2.7-1.1,2.7-2.6c0-1.4-1-2.7-2.7-2.7
			C548.9,773.1,547.9,774.3,547.9,775.8z"/>
		<path class="st5" d="M563.8,781.6h-4.2v-19h4.2V781.6z"/>
		<path class="st5" d="M578.6,776.4h-8.8c0,1.7,0.9,2.6,2.6,2.6c0.9,0,1.5-0.3,2-1.1h4c-0.3,1.4-1.1,2.4-2.2,3c-1.1,0.7-2.4,1-3.7,1
			c-3.9,0-6.8-2.2-6.8-6.2c0-3.9,2.7-6.3,6.5-6.3c4.1,0,6.4,2.5,6.4,6.5V776.4z M574.7,774c-0.2-1.1-1.2-1.9-2.4-1.9
			c-1.2,0-2.2,0.6-2.5,1.9H574.7z"/>
		<path class="st5" d="M597.2,780.3L597.2,780.3c-0.8,1.2-2.2,1.7-3.6,1.7c-3.5,0-5.9-2.9-5.9-6.3s2.4-6.2,5.9-6.2
			c1.3,0,2.8,0.5,3.6,1.5v-8.4h4.2v19h-4.2V780.3z M591.9,775.8c0,1.5,1,2.6,2.7,2.6c1.7,0,2.7-1.1,2.7-2.6c0-1.4-1-2.7-2.7-2.7
			C592.9,773.1,591.9,774.3,591.9,775.8z"/>
		<path class="st5" d="M616,776.4h-8.8c0,1.7,0.9,2.6,2.6,2.6c0.9,0,1.5-0.3,2-1.1h4c-0.3,1.4-1.1,2.4-2.2,3c-1.1,0.7-2.4,1-3.7,1
			c-3.9,0-6.8-2.2-6.8-6.2c0-3.9,2.7-6.3,6.5-6.3c4.1,0,6.4,2.5,6.4,6.5V776.4z M612.1,774c-0.2-1.1-1.2-1.9-2.4-1.9
			c-1.2,0-2.2,0.6-2.5,1.9H612.1z"/>
		<path class="st5" d="M456.8,809h-4.2v-19h4.2V809z"/>
		<path class="st5" d="M471.6,803.9h-8.8c0,1.7,0.9,2.6,2.6,2.6c0.9,0,1.5-0.3,2-1.1h4c-0.3,1.4-1.1,2.4-2.2,3c-1.1,0.7-2.4,1-3.7,1
			c-3.9,0-6.8-2.2-6.8-6.2c0-3.9,2.7-6.3,6.5-6.3c4.1,0,6.4,2.5,6.4,6.5V803.9z M467.7,801.5c-0.2-1.1-1.2-1.9-2.4-1.9
			c-1.2,0-2.2,0.6-2.5,1.9H467.7z"/>
		<path class="st5" d="M486.4,807.9c0,5-2.5,7-6.8,7c-2.7,0-6.3-1.4-6.7-4.5h4.7c0.1,0.4,0.4,0.7,0.8,0.9c0.4,0.2,0.8,0.3,1.2,0.3
			c2.2,0,2.7-1.5,2.7-3.4v-0.5c-1.1,1.1-2.2,1.6-3.7,1.6c-3.4,0-5.8-2.6-5.8-6c0-3.4,2.4-6.4,6-6.4c1.4,0,2.6,0.5,3.5,1.6h0v-1.2
			h4.2V807.9z M477,803.1c0,1.5,1,2.6,2.7,2.6c1.7,0,2.7-1.1,2.7-2.6c0-1.4-1-2.7-2.7-2.7C478,800.4,477,801.7,477,803.1z"/>
		<path class="st5" d="M501.8,809h-4.2v-1.3h0c-0.7,1.2-2.2,1.7-3.5,1.7c-3.5,0-5.9-2.9-5.9-6.3s2.4-6.2,5.9-6.2
			c1.3,0,2.8,0.5,3.6,1.5v-1.1h4.2V809z M492.4,803.2c0,1.5,1,2.6,2.7,2.6c1.7,0,2.7-1.1,2.7-2.6c0-1.4-1-2.7-2.7-2.7
			C493.4,800.5,492.4,801.7,492.4,803.2z"/>
		<path class="st5" d="M508.7,809h-4.2v-19h4.2V809z"/>
		<path class="st5" d="M515.9,792.8c0,1.3-1.1,2.3-2.3,2.3c-1.3,0-2.3-1.1-2.3-2.3c0-1.3,1.1-2.3,2.3-2.3
			C514.8,790.5,515.9,791.5,515.9,792.8z M515.6,809h-4.2v-11.7h4.2V809z"/>
		<path class="st5" d="M529.1,805.6v3.5h-11.9l5.5-8.3h-4.8v-3.5h11.7l-5.5,8.3H529.1z"/>
		<path class="st5" d="M544,809h-4.2v-1.3h0c-0.7,1.2-2.2,1.7-3.5,1.7c-3.5,0-5.9-2.9-5.9-6.3s2.4-6.2,5.9-6.2
			c1.3,0,2.8,0.5,3.6,1.5v-1.1h4.2V809z M534.6,803.2c0,1.5,1,2.6,2.7,2.6c1.7,0,2.7-1.1,2.7-2.6c0-1.4-1-2.7-2.7-2.7
			C535.6,800.5,534.6,801.7,534.6,803.2z"/>
		<path class="st5" d="M555.2,801.1c-0.6-0.5-1.3-0.8-2.1-0.8c-1.6,0-2.9,1.2-2.9,2.9c0,1.7,1.2,2.9,2.9,2.9c0.7,0,1.5-0.3,2.1-0.8
			v3.5c-0.9,0.5-1.9,0.7-2.9,0.7c-3.5,0-6.4-2.6-6.4-6.1c0-3.8,2.9-6.4,6.6-6.4c1,0,1.9,0.2,2.7,0.7V801.1z"/>
		<path class="st5" d="M562.2,792.8c0,1.3-1.1,2.3-2.3,2.3s-2.3-1.1-2.3-2.3c0-1.3,1.1-2.3,2.3-2.3S562.2,791.5,562.2,792.8z
			 M561.9,809h-4.2v-11.7h4.2V809z"/>
		<path class="st5" d="M577.9,803.2c0,4-3.3,6.2-7.1,6.2c-3.7,0-7.1-2.2-7.1-6.2s3.3-6.3,7.1-6.3S577.9,799.2,577.9,803.2z
			 M568.2,803.2c0,1.5,1,2.6,2.7,2.6c1.7,0,2.7-1.1,2.7-2.6c0-1.4-1-2.7-2.7-2.7C569.2,800.5,568.2,801.7,568.2,803.2z M570.4,795.6
			l-1.9-1.3l3.2-3.9l2.5,1.8L570.4,795.6z"/>
		<path class="st5" d="M584,798.8L584,798.8c1-1.4,2.2-1.9,3.8-1.9c3.2,0,4.4,2,4.4,4.9v7.2H588v-5.7c0-1.1,0.2-3.1-1.9-3.1
			c-1.7,0-2.2,1.3-2.2,2.7v6.1h-4.2v-11.7h4.2V798.8z"/>
	</g>
</g>
</svg>
