<?xml version="1.0" encoding="utf-8"?>
<!-- Generator: Adobe Illustrator 21.0.2, SVG Export Plug-In . SVG Version: 6.00 Build 0)  -->
<svg version="1.1" id="Layer_1" xmlns="http://www.w3.org/2000/svg" xmlns:xlink="http://www.w3.org/1999/xlink" x="0px" y="0px"
	 viewBox="0 0 998.6 1018.7" style="enable-background:new 0 0 998.6 1018.7;" xml:space="preserve">
<style type="text/css">
	.st0{fill:none;stroke:#E42527;stroke-width:4;stroke-miterlimit:10;}
	.st1{fill:#D81117;}
	.st2{fill:#929191;}
	.st3{fill:#9D9D9C;}
	.st4{fill:#FFFFFF;}
	.st5{fill:#E42527;}
</style>
<line id="XMLID_1408_" class="st0" x1="497.1" y1="88.6" x2="497.1" y2="957.1"/>
<rect id="XMLID_1144_" x="98.6" y="409.7" class="st1" width="223.3" height="101.1"/>
<rect id="XMLID_1143_" x="98.6" y="611.4" class="st2" width="223.3" height="101.1"/>
<rect id="XMLID_1142_" x="387.1" class="st3" width="223.3" height="101.1"/>
<rect id="XMLID_1141_" x="663.2" y="131.1" class="st3" width="236.3" height="101.1"/>
<g id="XMLID_23017_">
	<g>
		<path id="XMLID_1181_" class="st4" d="M130.6,442.2l2.7-6.8h3.1l-4.8,11.1h-2.2l-4.7-11.1h3.1L130.6,442.2z"/>
		<path id="XMLID_1178_" class="st4" d="M142.2,437.5c0,1.6-1.4,2.4-3,2.4c-1.6,0-3-0.9-3-2.4c0-1.5,1.4-2.4,3-2.4
			C140.8,435.1,142.2,436,142.2,437.5z M138.1,437.5c0,0.6,0.5,1,1.1,1c0.6,0,1.1-0.4,1.1-1c0-0.6-0.5-1-1.1-1
			C138.6,436.5,138.1,437,138.1,437.5z"/>
		<path id="XMLID_1174_" class="st4" d="M148.2,446.5v-11.1h4.1c2,0,3.3,0.8,3.3,2.9c0,1-0.3,1.8-1.2,2.3v0c1.6,0.2,2.3,1.3,2.3,2.8
			c0,2.3-2,3.1-4,3.1H148.2z M151.1,439.8h0.3c0.8,0,1.6-0.1,1.6-1.1c0-1-0.9-1.1-1.7-1.1h-0.2V439.8z M151.1,444.3h0.4
			c0.9,0,2.3,0,2.3-1.2c0-1.3-1.4-1.2-2.4-1.2h-0.3V444.3z"/>
		<path id="XMLID_1171_" class="st4" d="M163.3,437.5c0,1.6-1.4,2.4-3,2.4c-1.6,0-3-0.9-3-2.4c0-1.5,1.4-2.4,3-2.4
			C161.9,435.1,163.3,436,163.3,437.5z M159.2,437.5c0,0.6,0.5,1,1.1,1c0.6,0,1.1-0.4,1.1-1c0-0.6-0.5-1-1.1-1
			C159.7,436.5,159.2,437,159.2,437.5z"/>
		<path id="XMLID_1168_" class="st4" d="M172.2,444.6l-0.8,1.9h-3.1l4.3-11.1h3.2l4.2,11.1h-3.1l-0.7-1.9H172.2z M174.2,438.8
			L174.2,438.8l-1.2,3.5h2.4L174.2,438.8z"/>
		<path id="XMLID_1165_" class="st4" d="M190.1,446.5h-3.6l-2.7-4.3h0v4.3h-2.9v-11.1h4.3c2.2,0,3.9,1,3.9,3.4
			c0,1.5-0.9,2.9-2.4,3.1L190.1,446.5z M183.8,440.4h0.3c0.9,0,2-0.2,2-1.4c0-1.2-1.1-1.4-2-1.4h-0.3V440.4z"/>
		<path id="XMLID_1163_" class="st4" d="M193.8,437.9v1.9h3.3v2.5h-3.3v1.9h3.4v2.5h-6.3v-11.1h6.3v2.5H193.8z"/>
		<path id="XMLID_1160_" class="st4" d="M201.9,444.6l-0.8,1.9H198l4.3-11.1h3.2l4.2,11.1h-3.1l-0.7-1.9H201.9z M203.9,438.8
			L203.9,438.8l-1.2,3.5h2.4L203.9,438.8z"/>
		<path id="XMLID_1158_" class="st4" d="M220.1,446.5h-2.9v-8.7h-2.4v-2.5h7.7v2.5h-2.4V446.5z"/>
		<path id="XMLID_1156_" class="st4" d="M226.4,437.9v1.9h3.3v2.5h-3.3v1.9h3.4v2.5h-6.3v-11.1h6.3v2.5H226.4z"/>
		<path id="XMLID_1154_" class="st4" d="M239.6,439.1c-0.6-0.8-1.6-1.2-2.5-1.2c-1.8,0-3,1.4-3,3.1c0,1.8,1.2,3,3,3
			c0.9,0,1.9-0.5,2.5-1.2v3.5c-1,0.3-1.7,0.5-2.6,0.5c-1.6,0-3-0.6-4.2-1.6c-1.2-1.1-1.8-2.6-1.8-4.2c0-1.5,0.6-3,1.6-4.1
			c1.1-1.1,2.7-1.8,4.2-1.8c0.9,0,1.8,0.2,2.6,0.6V439.1z"/>
		<path id="XMLID_1152_" class="st4" d="M241.4,435.4h2.9l5.3,6.8h0v-6.8h2.9v11.1h-2.9l-5.3-6.8h0v6.8h-2.9V435.4z"/>
		<path id="XMLID_1150_" class="st4" d="M257.3,446.5h-2.9v-11.1h2.9V446.5z"/>
		<path id="XMLID_1148_" class="st4" d="M267.1,439.1c-0.6-0.8-1.6-1.2-2.5-1.2c-1.8,0-3,1.4-3,3.1c0,1.8,1.2,3,3,3
			c0.9,0,1.9-0.5,2.5-1.2v3.5c-1,0.3-1.7,0.5-2.6,0.5c-1.6,0-3-0.6-4.2-1.6c-1.2-1.1-1.8-2.6-1.8-4.2c0-1.5,0.6-3,1.6-4.1
			c1.1-1.1,2.7-1.8,4.2-1.8c0.9,0,1.8,0.2,2.6,0.6V439.1z"/>
		<path id="XMLID_1145_" class="st4" d="M271.7,444.6l-0.8,1.9h-3.1l4.3-11.1h3.2l4.2,11.1h-3.1l-0.7-1.9H271.7z M273.8,438.8
			L273.8,438.8l-1.2,3.5h2.4L273.8,438.8z"/>
		<path id="XMLID_1139_" class="st4" d="M173.3,453.1h3.5l2.1,3l2.1-3h3.5l-4.1,5.8v5.3h-2.9v-5.3L173.3,453.1z"/>
		<path id="XMLID_1137_" class="st4" d="M193,461.8h3.5v2.5h-6.4v-11.1h2.9V461.8z"/>
		<path id="XMLID_1133_" class="st4" d="M200.3,455.6v1.9h3.3v2.5h-3.3v1.9h3.4v2.5h-6.3v-11.1h6.3v2.5H200.3z"/>
		<path id="XMLID_1129_" class="st4" d="M216.7,458c0,1.6-0.1,3-1.1,4.4c-1.1,1.5-2.7,2.2-4.6,2.2c-3.5,0-5.9-2.4-5.9-5.9
			c0-3.6,2.5-6,6-6c2.3,0,4.1,1,5,3.1l-2.7,1.2c-0.4-1.1-1.2-1.8-2.4-1.8c-1.9,0-2.9,1.8-2.9,3.5c0,1.7,1,3.5,2.9,3.5
			c1.3,0,2.2-0.6,2.3-1.9h-2.4V458H216.7z"/>
		<path id="XMLID_1120_" class="st4" d="M220.8,462.3l-0.8,1.9H217l4.3-11.1h3.2l4.2,11.1h-3.1l-0.7-1.9H220.8z M222.9,456.6
			L222.9,456.6l-1.2,3.5h2.4L222.9,456.6z"/>
		<path id="XMLID_1106_" class="st4" d="M232.4,461.8h3.5v2.5h-6.4v-11.1h2.9V461.8z"/>
		<path id="XMLID_1102_" class="st4" d="M150.5,482h-3.6l-2.7-4.3h0v4.3h-2.9v-11.1h4.3c2.2,0,3.9,1,3.9,3.4c0,1.5-0.9,2.9-2.4,3.1
			L150.5,482z M144.1,475.8h0.3c0.9,0,2-0.2,2-1.4c0-1.2-1.1-1.4-2-1.4h-0.3V475.8z"/>
		<path id="XMLID_1099_" class="st4" d="M159,478.6h-5.7c0,1.1,0.6,1.7,1.7,1.7c0.6,0,1-0.2,1.3-0.7h2.6c-0.2,0.9-0.7,1.5-1.4,2
			c-0.7,0.4-1.6,0.6-2.4,0.6c-2.5,0-4.4-1.4-4.4-4c0-2.5,1.7-4,4.2-4c2.6,0,4.1,1.6,4.1,4.2V478.6z M156.5,477.1
			c-0.1-0.7-0.8-1.2-1.5-1.2c-0.8,0-1.4,0.4-1.6,1.2H156.5z"/>
		<path id="XMLID_1097_" class="st4" d="M163.9,478.3l1.8-3.9h3l-4,7.6h-1.7l-4-7.6h3L163.9,478.3z"/>
		<path id="XMLID_1094_" class="st4" d="M172.3,471.5c0,0.8-0.7,1.5-1.5,1.5c-0.8,0-1.5-0.7-1.5-1.5c0-0.8,0.7-1.5,1.5-1.5
			C171.6,470,172.3,470.7,172.3,471.5z M172.1,482h-2.7v-7.6h2.7V482z"/>
		<path id="XMLID_1092_" class="st4" d="M178.9,476.3c-0.4-0.2-1-0.4-1.4-0.4c-0.3,0-0.8,0.1-0.8,0.5c0,0.5,0.8,0.6,1.2,0.7
			c1.3,0.3,2.2,0.8,2.2,2.2c0,2-1.8,2.8-3.6,2.8c-1.1,0-2.1-0.3-3.1-0.9l1-1.9c0.5,0.4,1.5,0.8,2.1,0.8c0.3,0,0.8-0.2,0.8-0.6
			c0-0.6-0.8-0.6-1.7-0.8c-0.8-0.2-1.7-0.6-1.7-2c0-1.9,1.7-2.7,3.3-2.7c0.9,0,1.7,0.1,2.5,0.5L178.9,476.3z"/>
		<path id="XMLID_1089_" class="st4" d="M184.3,471.5c0,0.8-0.7,1.5-1.5,1.5c-0.8,0-1.5-0.7-1.5-1.5c0-0.8,0.7-1.5,1.5-1.5
			C183.6,470,184.3,470.7,184.3,471.5z M184.1,482h-2.7v-7.6h2.7V482z"/>
		<path id="XMLID_1085_" class="st4" d="M194.5,478.2c0,2.6-2.1,4-4.6,4c-2.4,0-4.6-1.4-4.6-4c0-2.6,2.1-4,4.6-4
			C192.3,474.1,194.5,475.6,194.5,478.2z M188.2,478.2c0,1,0.6,1.7,1.7,1.7c1.1,0,1.7-0.7,1.7-1.7c0-0.9-0.6-1.7-1.7-1.7
			C188.8,476.5,188.2,477.3,188.2,478.2z M189.6,473.3l-1.2-0.9l2.1-2.5l1.6,1.2L189.6,473.3z"/>
		<path id="XMLID_1083_" class="st4" d="M198.4,475.4L198.4,475.4c0.6-0.9,1.4-1.2,2.5-1.2c2,0,2.8,1.3,2.8,3.1v4.7H201v-3.7
			c0-0.7,0.1-2-1.2-2c-1.1,0-1.4,0.8-1.4,1.8v3.9h-2.7v-7.6h2.7V475.4z"/>
		<path id="XMLID_1080_" class="st4" d="M213.1,475.2L213.1,475.2c0.5-0.8,1.4-1.1,2.3-1.1c2.3,0,3.8,1.9,3.8,4.1c0,2.2-1.6,4-3.8,4
			c-0.9,0-1.8-0.3-2.3-1v4.5h-2.7v-11.4h2.7V475.2z M213,478.2c0,1,0.6,1.7,1.7,1.7c1.1,0,1.7-0.7,1.7-1.7c0-0.9-0.6-1.7-1.7-1.7
			C213.6,476.5,213,477.3,213,478.2z"/>
		<path id="XMLID_1078_" class="st4" d="M223.2,475.6L223.2,475.6c0.5-0.9,1.4-1.3,2.5-1.3h0.5v2.6c-0.4-0.2-0.7-0.3-1.1-0.3
			c-1.5,0-1.9,1-1.9,2.3v3.1h-2.7v-7.6h2.7V475.6z"/>
		<path id="XMLID_1075_" class="st4" d="M235,478.6h-5.7c0,1.1,0.6,1.7,1.7,1.7c0.6,0,1-0.2,1.3-0.7h2.6c-0.2,0.9-0.7,1.5-1.4,2
			c-0.7,0.4-1.6,0.6-2.4,0.6c-2.5,0-4.4-1.4-4.4-4c0-2.5,1.7-4,4.2-4c2.6,0,4.1,1.6,4.1,4.2V478.6z M232.5,477.1
			c-0.1-0.7-0.8-1.2-1.5-1.2c-0.8,0-1.4,0.4-1.6,1.2H232.5z"/>
		<path id="XMLID_1073_" class="st4" d="M240,478.3l1.8-3.9h3l-4,7.6h-1.7l-4-7.6h3L240,478.3z"/>
		<path id="XMLID_1070_" class="st4" d="M248.3,471.5c0,0.8-0.7,1.5-1.5,1.5c-0.8,0-1.5-0.7-1.5-1.5c0-0.8,0.7-1.5,1.5-1.5
			C247.6,470,248.3,470.7,248.3,471.5z M248.1,482h-2.7v-7.6h2.7V482z"/>
		<path id="XMLID_1067_" class="st4" d="M258.2,482h-2.7v-0.8h0c-0.5,0.8-1.4,1.1-2.3,1.1c-2.2,0-3.8-1.9-3.8-4c0-2.2,1.6-4,3.8-4
			c0.9,0,1.8,0.3,2.3,1v-0.7h2.7V482z M252.1,478.2c0,1,0.6,1.7,1.7,1.7c1.1,0,1.7-0.7,1.7-1.7c0-0.9-0.6-1.7-1.7-1.7
			C252.8,476.5,252.1,477.3,252.1,478.2z"/>
		<path id="XMLID_1065_" class="st4" d="M263.4,480.5c0,0.9-0.8,1.7-1.7,1.7c-1,0-1.7-0.8-1.7-1.7c0-1,0.8-1.7,1.7-1.7
			C262.6,478.8,263.4,479.6,263.4,480.5z"/>
	</g>
</g>
<g id="XMLID_22982_">
	<g>
		<path id="XMLID_305_" class="st4" d="M135.1,663.6l2.7-6.8h3.1l-4.8,11.1H134l-4.7-11.1h3.1L135.1,663.6z"/>
		<path id="XMLID_303_" class="st4" d="M144.6,659.3v1.9h3.3v2.5h-3.3v1.9h3.4v2.5h-6.3v-11.1h6.3v2.5H144.6z"/>
		<path id="XMLID_301_" class="st4" d="M149.8,656.8h2.9l5.3,6.8h0v-6.8h2.9V668h-2.9l-5.3-6.8h0v6.8h-2.9V656.8z"/>
		<path id="XMLID_299_" class="st4" d="M167.3,668h-2.9v-8.7H162v-2.5h7.7v2.5h-2.4V668z"/>
		<path id="XMLID_296_" class="st4" d="M172.7,666l-0.8,1.9h-3.1l4.3-11.1h3.2l4.2,11.1h-3.1l-0.7-1.9H172.7z M174.7,660.3
			L174.7,660.3l-1.2,3.5h2.4L174.7,660.3z"/>
		<path id="XMLID_294_" class="st4" d="M181.4,656.8h2.9l5.3,6.8h0v-6.8h2.9V668h-2.9l-5.3-6.8h0v6.8h-2.9V656.8z"/>
		<path id="XMLID_292_" class="st4" d="M197.3,668h-2.9v-11.1h2.9V668z"/>
		<path id="XMLID_290_" class="st4" d="M202,665.5h3.5v2.5h-6.4v-11.1h2.9V665.5z"/>
		<path id="XMLID_288_" class="st4" d="M209.3,665.5h3.5v2.5h-6.4v-11.1h2.9V665.5z"/>
		<path id="XMLID_285_" class="st4" d="M216.6,666l-0.8,1.9h-3.1l4.3-11.1h3.2l4.2,11.1h-3.1l-0.7-1.9H216.6z M218.6,660.3
			L218.6,660.3l-1.2,3.5h2.4L218.6,660.3z"/>
		<path id="XMLID_282_" class="st4" d="M240,656.8v6.3c0,1.4-0.1,2.8-1.2,3.9c-0.9,0.9-2.4,1.2-3.7,1.2s-2.8-0.3-3.7-1.2
			c-1.1-1.1-1.2-2.5-1.2-3.9v-6.3h2.9v5.9c0,1.4,0.1,3,2,3c1.9,0,2-1.6,2-3v-5.9H240z M234.8,656.2l-1.2-0.9l2.1-2.5l1.6,1.2
			L234.8,656.2z"/>
		<path id="XMLID_280_" class="st4" d="M241.8,656.8h2.9l5.3,6.8h0v-6.8h2.9V668h-2.9l-5.3-6.8h0v6.8h-2.9V656.8z"/>
		<path id="XMLID_278_" class="st4" d="M257.7,668h-2.9v-11.1h2.9V668z"/>
		<path id="XMLID_276_" class="st4" d="M267.6,660.6c-0.6-0.8-1.6-1.2-2.5-1.2c-1.8,0-3,1.4-3,3.1c0,1.8,1.2,3,3,3
			c0.9,0,1.9-0.5,2.5-1.2v3.5c-1,0.3-1.7,0.5-2.6,0.5c-1.6,0-3-0.6-4.2-1.6c-1.2-1.1-1.8-2.6-1.8-4.2c0-1.5,0.6-3,1.6-4.1
			c1.1-1.1,2.7-1.8,4.2-1.8c0.9,0,1.8,0.2,2.6,0.6V660.6z"/>
		<path id="XMLID_273_" class="st4" d="M272.2,666l-0.8,1.9h-3.1l4.3-11.1h3.2L280,668h-3.1l-0.7-1.9H272.2z M274.2,660.3
			L274.2,660.3l-1.2,3.5h2.4L274.2,660.3z"/>
	</g>
</g>
<g id="XMLID_22921_">
	<g>
		<path id="XMLID_606_" class="st4" d="M459,33.7l-0.8,1.9h-3.1l4.3-11.1h3.2l4.2,11.1h-3.1l-0.7-1.9H459z M461,27.9L461,27.9
			l-1.2,3.5h2.4L461,27.9z"/>
		<path id="XMLID_602_" class="st4" d="M467.6,35.6V24.5h4.1c2,0,3.3,0.8,3.3,2.9c0,1-0.3,1.8-1.2,2.3v0c1.6,0.2,2.3,1.3,2.3,2.8
			c0,2.3-2,3.1-4,3.1H467.6z M470.5,28.9h0.3c0.8,0,1.6-0.1,1.6-1.1c0-1-0.9-1.1-1.7-1.1h-0.2V28.9z M470.5,33.4h0.4
			c0.9,0,2.3,0,2.3-1.2c0-1.3-1.4-1.2-2.4-1.2h-0.3V33.4z"/>
		<path id="XMLID_599_" class="st4" d="M489.4,29.9c0,3.6-2.6,6.1-6.2,6.1c-3.6,0-6.2-2.5-6.2-6.1c0-3.4,3-5.7,6.2-5.7
			S489.4,26.5,489.4,29.9z M480.1,29.9c0,1.9,1.4,3.3,3.1,3.3c1.7,0,3.1-1.4,3.1-3.3c0-1.5-1.4-2.9-3.1-2.9
			C481.5,26.9,480.1,28.3,480.1,29.9z"/>
		<path id="XMLID_597_" class="st4" d="M501.8,29.4c0,1.6-0.1,3-1.1,4.4c-1.1,1.5-2.7,2.2-4.6,2.2c-3.5,0-5.9-2.4-5.9-5.9
			c0-3.6,2.5-6,6-6c2.3,0,4.1,1,5,3.1l-2.7,1.2c-0.4-1.1-1.2-1.8-2.4-1.8c-1.9,0-2.9,1.8-2.9,3.5c0,1.7,1,3.5,2.9,3.5
			c1.3,0,2.2-0.6,2.3-1.9h-2.4v-2.3H501.8z"/>
		<path id="XMLID_594_" class="st4" d="M506,33.7l-0.8,1.9h-3.1l4.3-11.1h3.2l4.2,11.1h-3.1l-0.7-1.9H506z M508,27.9L508,27.9
			l-1.2,3.5h2.4L508,27.9z"/>
		<path id="XMLID_591_" class="st4" d="M514.7,24.5h4.1c3.1,0,5.7,2.4,5.7,5.6c0,3.1-2.6,5.6-5.7,5.6h-4.1V24.5z M517.6,33.2h0.6
			c1.7,0,3.2-0.9,3.2-3.1c0-2-1.3-3.1-3.2-3.1h-0.7V33.2z"/>
		<path id="XMLID_588_" class="st4" d="M537.5,29.9c0,3.6-2.6,6.1-6.2,6.1c-3.6,0-6.2-2.5-6.2-6.1c0-3.4,3-5.7,6.2-5.7
			C534.6,24.1,537.5,26.5,537.5,29.9z M528.2,29.9c0,1.9,1.4,3.3,3.1,3.3s3.1-1.4,3.1-3.3c0-1.5-1.4-2.9-3.1-2.9
			S528.2,28.3,528.2,29.9z"/>
		<path id="XMLID_586_" class="st4" d="M460.9,42.2v6.3c0,1.4-0.1,2.8-1.2,3.9c-0.9,0.9-2.4,1.2-3.7,1.2c-1.3,0-2.8-0.3-3.7-1.2
			c-1.1-1.1-1.2-2.5-1.2-3.9v-6.3h2.9v5.9c0,1.4,0.1,3,2,3c1.9,0,2-1.6,2-3v-5.9H460.9z"/>
		<path id="XMLID_583_" class="st4" d="M472,53.3h-3.6l-2.7-4.3h0v4.3h-2.9V42.2h4.3c2.2,0,3.9,1,3.9,3.4c0,1.5-0.9,2.9-2.4,3.1
			L472,53.3z M465.6,47.2h0.3c0.9,0,2-0.2,2-1.4c0-1.2-1.1-1.4-2-1.4h-0.3V47.2z"/>
		<path id="XMLID_579_" class="st4" d="M472.8,53.3V42.2h4.1c2,0,3.3,0.8,3.3,2.9c0,1-0.3,1.8-1.2,2.3v0c1.6,0.2,2.3,1.3,2.3,2.8
			c0,2.3-2,3.1-4,3.1H472.8z M475.7,46.6h0.3c0.8,0,1.6-0.1,1.6-1.1c0-1-0.9-1.1-1.7-1.1h-0.2V46.6z M475.7,51.1h0.4
			c0.9,0,2.3,0,2.3-1.2c0-1.3-1.4-1.2-2.4-1.2h-0.3V51.1z"/>
		<path id="XMLID_555_" class="st4" d="M485.6,51.4l-0.8,1.9h-3.1l4.3-11.1h3.2l4.2,11.1h-3.1l-0.7-1.9H485.6z M487.6,45.7
			L487.6,45.7l-1.2,3.5h2.4L487.6,45.7z"/>
		<path id="XMLID_553_" class="st4" d="M494.3,42.2h2.9l5.3,6.8h0v-6.8h2.9v11.1h-2.9l-5.3-6.8h0v6.8h-2.9V42.2z"/>
		<path id="XMLID_551_" class="st4" d="M510.2,53.3h-2.9V42.2h2.9V53.3z"/>
		<path id="XMLID_549_" class="st4" d="M518.2,45.1c-0.5-0.4-1.2-0.7-1.9-0.7c-0.5,0-1.2,0.3-1.2,0.9c0,0.6,0.8,0.9,1.3,1.1l0.7,0.2
			c1.6,0.5,2.7,1.2,2.7,3c0,1.1-0.3,2.2-1.2,3c-0.9,0.7-2,1-3.2,1c-1.4,0-2.8-0.5-3.9-1.3l1.2-2.3c0.7,0.6,1.6,1.2,2.6,1.2
			c0.7,0,1.4-0.3,1.4-1.1c0-0.8-1.1-1.1-1.8-1.3c-1.8-0.5-3-1-3-3.1c0-2.3,1.6-3.7,3.8-3.7c1.1,0,2.5,0.4,3.5,0.9L518.2,45.1z"/>
		<path id="XMLID_547_" class="st4" d="M522.4,42.2h2.8l2.3,5.9l2.4-5.9h2.9l1.7,11.1h-2.9l-0.8-6.4h0l-2.7,6.4h-1.2l-2.6-6.4h0
			l-0.9,6.4h-2.9L522.4,42.2z"/>
		<path id="XMLID_544_" class="st4" d="M547.5,47.6c0,3.6-2.6,6.1-6.2,6.1s-6.2-2.5-6.2-6.1c0-3.4,3-5.7,6.2-5.7
			C544.5,41.8,547.5,44.2,547.5,47.6z M538.2,47.6c0,1.9,1.4,3.3,3.1,3.3c1.7,0,3.1-1.4,3.1-3.3c0-1.5-1.4-2.9-3.1-2.9
			C539.6,44.7,538.2,46.1,538.2,47.6z"/>
		<path id="XMLID_542_" class="st4" d="M472.8,71.1h-2.9V59.9h2.9V71.1z"/>
		<path id="XMLID_540_" class="st4" d="M477.3,64.5L477.3,64.5c0.6-0.9,1.4-1.2,2.5-1.2c2,0,2.8,1.3,2.8,3.1v4.7h-2.7v-3.7
			c0-0.7,0.1-2-1.2-2c-1.1,0-1.4,0.8-1.4,1.8v3.9h-2.7v-7.6h2.7V64.5z"/>
		<path id="XMLID_538_" class="st4" d="M487.3,71.1h-2.7v-5.4h-0.9v-2.2h0.9v-1c0-1,0-1.8,0.8-2.7c0.7-0.8,1.6-1.2,2.6-1.2
			c0.4,0,0.8,0.1,1.2,0.3v2.3c-0.3-0.1-0.6-0.3-0.9-0.3c-0.7,0-0.9,0.4-0.9,1.3v1.2h1.9v2.2h-1.9V71.1z"/>
		<path id="XMLID_535_" class="st4" d="M498.6,67.3c0,2.6-2.1,4-4.6,4c-2.4,0-4.6-1.4-4.6-4c0-2.6,2.1-4,4.6-4
			C496.5,63.2,498.6,64.7,498.6,67.3z M492.4,67.3c0,1,0.6,1.7,1.7,1.7c1.1,0,1.7-0.7,1.7-1.7c0-0.9-0.6-1.7-1.7-1.7
			C493,65.6,492.4,66.4,492.4,67.3z"/>
		<path id="XMLID_533_" class="st4" d="M502.5,64.7L502.5,64.7c0.5-0.9,1.4-1.3,2.5-1.3h0.5V66c-0.4-0.2-0.7-0.3-1.1-0.3
			c-1.5,0-1.9,1-1.9,2.3v3.1h-2.7v-7.6h2.7V64.7z"/>
		<path id="XMLID_531_" class="st4" d="M509.2,64.4L509.2,64.4c0.7-0.8,1.4-1.2,2.4-1.2c1.1,0,2,0.4,2.6,1.4
			c0.5-0.9,1.5-1.4,2.6-1.4c1.9,0,2.6,1.3,2.6,3v4.8h-2.7v-3.6c0-0.8,0-2.1-1.1-2.1c-1.2,0-1.3,1.2-1.3,2.1v3.6h-2.7v-3.6
			c0-0.8,0-2.1-1.2-2.1c-1.2,0-1.2,1.3-1.2,2.1v3.6h-2.7v-7.6h2.7V64.4z"/>
		<path id="XMLID_528_" class="st4" d="M528.9,67.7h-5.7c0,1.1,0.6,1.7,1.7,1.7c0.6,0,1-0.2,1.3-0.7h2.6c-0.2,0.9-0.7,1.5-1.4,2
			c-0.7,0.4-1.6,0.6-2.4,0.6c-2.5,0-4.4-1.4-4.4-4c0-2.5,1.7-4,4.2-4c2.6,0,4.1,1.6,4.1,4.2V67.7z M526.4,66.2
			c-0.1-0.7-0.8-1.2-1.5-1.2c-0.8,0-1.4,0.4-1.6,1.2H526.4z"/>
	</g>
</g>
<g id="XMLID_22861_">
	<g>
		<path id="XMLID_576_" class="st4" d="M720.1,169.2c-0.6-0.8-1.6-1.2-2.5-1.2c-1.8,0-3,1.4-3,3.1c0,1.8,1.2,3,3,3
			c0.9,0,1.9-0.5,2.5-1.2v3.5c-1,0.3-1.7,0.5-2.6,0.5c-1.6,0-3-0.6-4.2-1.6c-1.2-1.1-1.8-2.6-1.8-4.2c0-1.5,0.6-3,1.6-4.1
			c1.1-1.1,2.7-1.8,4.2-1.8c0.9,0,1.8,0.2,2.6,0.6V169.2z"/>
		<path id="XMLID_573_" class="st4" d="M733.6,170.8c0,3.6-2.6,6.1-6.2,6.1c-3.6,0-6.2-2.5-6.2-6.1c0-3.4,3-5.7,6.2-5.7
			C730.6,165.1,733.6,167.4,733.6,170.8z M724.3,170.8c0,1.9,1.4,3.3,3.1,3.3c1.7,0,3.1-1.4,3.1-3.3c0-1.5-1.4-2.9-3.1-2.9
			C725.7,167.9,724.3,169.3,724.3,170.8z"/>
		<path id="XMLID_571_" class="st4" d="M734.9,165.4h2.9l5.3,6.8h0v-6.8h2.9v11.1h-2.9l-5.3-6.8h0v6.8h-2.9V165.4z"/>
		<path id="XMLID_569_" class="st4" d="M752.4,176.6h-2.9v-8.7h-2.4v-2.5h7.7v2.5h-2.4V176.6z"/>
		<path id="XMLID_566_" class="st4" d="M765.1,176.6h-3.6l-2.7-4.3h0v4.3h-2.9v-11.1h4.3c2.2,0,3.9,1,3.9,3.4c0,1.5-0.9,2.9-2.4,3.1
			L765.1,176.6z M758.7,170.4h0.3c0.9,0,2-0.2,2-1.4c0-1.2-1.1-1.4-2-1.4h-0.3V170.4z"/>
		<path id="XMLID_564_" class="st4" d="M768.7,176.6h-2.9v-11.1h2.9V176.6z"/>
		<path id="XMLID_560_" class="st4" d="M770.6,176.6v-11.1h4.1c2,0,3.3,0.8,3.3,2.9c0,1-0.3,1.8-1.2,2.3v0c1.6,0.2,2.3,1.3,2.3,2.8
			c0,2.3-2,3.1-4,3.1H770.6z M773.5,169.8h0.3c0.8,0,1.6-0.1,1.6-1.1c0-1-0.9-1.1-1.7-1.1h-0.2V169.8z M773.5,174.3h0.4
			c0.9,0,2.3,0,2.3-1.2c0-1.3-1.4-1.2-2.4-1.2h-0.3V174.3z"/>
		<path id="XMLID_558_" class="st4" d="M790.3,165.4v6.3c0,1.4-0.1,2.8-1.2,3.9c-0.9,0.9-2.4,1.2-3.7,1.2s-2.8-0.3-3.7-1.2
			c-1.1-1.1-1.2-2.5-1.2-3.9v-6.3h2.9v5.9c0,1.4,0.1,3,2,3c1.9,0,2-1.6,2-3v-5.9H790.3z"/>
		<path id="XMLID_520_" class="st4" d="M790.9,165.4h3.5l2.1,3l2.1-3h3.5l-4.1,5.8v5.3H795v-5.3L790.9,165.4z"/>
		<path id="XMLID_518_" class="st4" d="M805.5,167.9v1.9h3.3v2.5h-3.3v1.9h3.4v2.5h-6.3v-11.1h6.3v2.5H805.5z"/>
		<path id="XMLID_516_" class="st4" d="M810.8,165.4h2.9l5.3,6.8h0v-6.8h2.9v11.1H819l-5.3-6.8h0v6.8h-2.9V165.4z"/>
		<path id="XMLID_514_" class="st4" d="M828.2,176.6h-2.9v-8.7h-2.4v-2.5h7.7v2.5h-2.4V176.6z"/>
		<path id="XMLID_512_" class="st4" d="M834.5,167.9v1.9h3.3v2.5h-3.3v1.9h3.4v2.5h-6.3v-11.1h6.3v2.5H834.5z"/>
		<path id="XMLID_510_" class="st4" d="M735.5,186.9c-0.6-0.8-1.6-1.2-2.5-1.2c-1.8,0-3,1.4-3,3.1c0,1.8,1.2,3,3,3
			c0.9,0,1.9-0.5,2.5-1.2v3.5c-1,0.3-1.7,0.5-2.6,0.5c-1.6,0-3-0.6-4.2-1.6c-1.2-1.1-1.8-2.6-1.8-4.2c0-1.5,0.6-3,1.6-4.1
			c1.1-1.1,2.7-1.8,4.2-1.8c0.9,0,1.8,0.2,2.6,0.6V186.9z"/>
		<path id="XMLID_507_" class="st4" d="M745.8,190.5c0,2.6-2.1,4-4.6,4c-2.4,0-4.6-1.4-4.6-4s2.1-4,4.6-4
			C743.7,186.5,745.8,187.9,745.8,190.5z M739.5,190.5c0,1,0.6,1.7,1.7,1.7c1.1,0,1.7-0.7,1.7-1.7c0-0.9-0.6-1.7-1.7-1.7
			C740.2,188.8,739.5,189.6,739.5,190.5z"/>
		<path id="XMLID_505_" class="st4" d="M749.7,187.9L749.7,187.9c0.5-0.9,1.4-1.3,2.5-1.3h0.5v2.6c-0.4-0.2-0.7-0.3-1.1-0.3
			c-1.5,0-1.9,1-1.9,2.3v3.1H747v-7.6h2.7V187.9z"/>
		<path id="XMLID_503_" class="st4" d="M756.4,187.9L756.4,187.9c0.5-0.9,1.4-1.3,2.5-1.3h0.5v2.6c-0.4-0.2-0.7-0.3-1.1-0.3
			c-1.5,0-1.9,1-1.9,2.3v3.1h-2.7v-7.6h2.7V187.9z"/>
		<path id="XMLID_500_" class="st4" d="M768.2,190.9h-5.7c0,1.1,0.6,1.7,1.7,1.7c0.6,0,1-0.2,1.3-0.7h2.6c-0.2,0.9-0.7,1.5-1.4,2
			c-0.7,0.4-1.6,0.6-2.4,0.6c-2.5,0-4.4-1.4-4.4-4c0-2.5,1.7-4,4.2-4c2.6,0,4.1,1.6,4.1,4.2V190.9z M765.7,189.4
			c-0.1-0.7-0.8-1.2-1.5-1.2c-0.8,0-1.4,0.4-1.6,1.2H765.7z"/>
		<path id="XMLID_498_" class="st4" d="M774.9,189.2c-0.4-0.3-0.9-0.5-1.4-0.5c-1,0-1.8,0.8-1.8,1.8c0,1.1,0.8,1.9,1.9,1.9
			c0.5,0,1-0.2,1.3-0.5v2.3c-0.6,0.3-1.2,0.4-1.9,0.4c-2.2,0-4.1-1.7-4.1-4c0-2.4,1.9-4.1,4.2-4.1c0.6,0,1.2,0.1,1.8,0.4V189.2z"/>
		<path id="XMLID_496_" class="st4" d="M782,189.2c-0.4-0.3-0.9-0.5-1.4-0.5c-1,0-1.8,0.8-1.8,1.8c0,1.1,0.8,1.9,1.9,1.9
			c0.5,0,1-0.2,1.3-0.5v2.3c-0.6,0.3-1.2,0.4-1.9,0.4c-2.2,0-4.1-1.7-4.1-4c0-2.4,1.9-4.1,4.2-4.1c0.6,0,1.2,0.1,1.8,0.4V189.2z"/>
		<path id="XMLID_493_" class="st4" d="M786.5,183.8c0,0.8-0.7,1.5-1.5,1.5c-0.8,0-1.5-0.7-1.5-1.5c0-0.8,0.7-1.5,1.5-1.5
			C785.8,182.3,786.5,183,786.5,183.8z M786.4,194.3h-2.7v-7.6h2.7V194.3z"/>
		<path id="XMLID_490_" class="st4" d="M796.7,190.5c0,2.6-2.1,4-4.6,4c-2.4,0-4.6-1.4-4.6-4s2.1-4,4.6-4
			C794.6,186.5,796.7,187.9,796.7,190.5z M790.4,190.5c0,1,0.6,1.7,1.7,1.7c1.1,0,1.7-0.7,1.7-1.7c0-0.9-0.6-1.7-1.7-1.7
			C791,188.8,790.4,189.6,790.4,190.5z"/>
		<path id="XMLID_488_" class="st4" d="M800.6,187.7L800.6,187.7c0.6-0.9,1.4-1.2,2.5-1.2c2,0,2.8,1.3,2.8,3.1v4.7h-2.7v-3.7
			c0-0.7,0.1-2-1.2-2c-1.1,0-1.4,0.8-1.4,1.8v3.9h-2.7v-7.6h2.7V187.7z"/>
		<path id="XMLID_485_" class="st4" d="M815.4,190.9h-5.7c0,1.1,0.6,1.7,1.7,1.7c0.6,0,1-0.2,1.3-0.7h2.6c-0.2,0.9-0.7,1.5-1.4,2
			c-0.7,0.4-1.6,0.6-2.4,0.6c-2.5,0-4.4-1.4-4.4-4c0-2.5,1.7-4,4.2-4c2.6,0,4.1,1.6,4.1,4.2V190.9z M812.9,189.4
			c-0.1-0.7-0.8-1.2-1.5-1.2c-0.8,0-1.4,0.4-1.6,1.2H812.9z"/>
		<path id="XMLID_483_" class="st4" d="M821.7,188.7c-0.4-0.2-1-0.4-1.4-0.4c-0.3,0-0.8,0.1-0.8,0.5c0,0.5,0.8,0.6,1.2,0.7
			c1.3,0.3,2.2,0.8,2.2,2.2c0,2-1.8,2.8-3.6,2.8c-1.1,0-2.1-0.3-3.1-0.9l1-1.9c0.5,0.4,1.5,0.8,2.1,0.8c0.3,0,0.8-0.2,0.8-0.6
			c0-0.6-0.8-0.6-1.7-0.8c-0.8-0.2-1.7-0.6-1.7-2c0-1.9,1.7-2.7,3.3-2.7c0.9,0,1.7,0.1,2.5,0.5L821.7,188.7z"/>
	</g>
</g>
<rect id="XMLID_1136_" x="387.1" y="131.1" class="st3" width="223.3" height="101.1"/>
<g id="XMLID_22785_">
	<g>
		<path id="XMLID_789_" class="st4" d="M453.4,178.3h-2.9v-8.7h-2.4v-2.5h7.7v2.5h-2.4V178.3z"/>
		<path id="XMLID_786_" class="st4" d="M468.6,172.6c0,3.6-2.6,6.1-6.2,6.1s-6.2-2.5-6.2-6.1c0-3.4,3-5.7,6.2-5.7
			S468.6,169.2,468.6,172.6z M459.3,172.6c0,1.9,1.4,3.3,3.1,3.3c1.7,0,3.1-1.4,3.1-3.3c0-1.5-1.4-2.9-3.1-2.9
			C460.7,169.6,459.3,171,459.3,172.6z"/>
		<path id="XMLID_783_" class="st4" d="M469.9,167.2h4.4c2.4,0,4,1.1,4,3.7c0,2.6-1.4,3.8-3.9,3.8h-1.6v3.7h-2.9V167.2z
			 M472.8,172.3h0.5c1,0,2.1,0,2.1-1.4c0-1.4-1-1.4-2.1-1.4h-0.5V172.3z"/>
		<path id="XMLID_780_" class="st4" d="M491.4,172.6c0,3.6-2.6,6.1-6.2,6.1s-6.2-2.5-6.2-6.1c0-3.4,3-5.7,6.2-5.7
			S491.4,169.2,491.4,172.6z M482.1,172.6c0,1.9,1.4,3.3,3.1,3.3s3.1-1.4,3.1-3.3c0-1.5-1.4-2.9-3.1-2.9S482.1,171,482.1,172.6z"/>
		<path id="XMLID_778_" class="st4" d="M503.9,172.1c0,1.6-0.1,3-1.1,4.4c-1.1,1.5-2.7,2.2-4.6,2.2c-3.5,0-5.9-2.4-5.9-5.9
			c0-3.6,2.5-6,6-6c2.3,0,4.1,1,5,3.1l-2.7,1.2c-0.4-1.1-1.2-1.8-2.4-1.8c-1.9,0-2.9,1.8-2.9,3.5c0,1.7,1,3.5,2.9,3.5
			c1.3,0,2.2-0.6,2.3-1.9h-2.4v-2.3H503.9z"/>
		<path id="XMLID_775_" class="st4" d="M514.5,178.3h-3.6l-2.7-4.3h0v4.3h-2.9v-11.1h4.3c2.2,0,3.9,1,3.9,3.4c0,1.5-0.9,2.9-2.4,3.1
			L514.5,178.3z M508.1,172.2h0.3c0.9,0,2-0.2,2-1.4c0-1.2-1.1-1.4-2-1.4h-0.3V172.2z"/>
		<path id="XMLID_772_" class="st4" d="M518.1,176.4l-0.8,1.9h-3.1l4.3-11.1h3.2l4.2,11.1h-3.1l-0.7-1.9H518.1z M520.1,170.6
			L520.1,170.6l-1.2,3.5h2.4L520.1,170.6z"/>
		<path id="XMLID_770_" class="st4" d="M529.7,169.7v1.9h3.2v2.5h-3.2v4.4h-2.9v-11.1h6.4v2.5H529.7z"/>
		<path id="XMLID_768_" class="st4" d="M537.7,178.3h-2.9v-11.1h2.9V178.3z"/>
		<path id="XMLID_765_" class="st4" d="M542.4,176.4l-0.8,1.9h-3.1l4.3-11.1h3.2l4.2,11.1h-3.1l-0.7-1.9H542.4z M544.4,170.6
			L544.4,170.6l-1.2,3.5h2.4L544.4,170.6z"/>
		<path id="XMLID_763_" class="st4" d="M425.7,196.1h-2.9v-11.1h2.9V196.1z"/>
		<path id="XMLID_761_" class="st4" d="M430.2,189.5L430.2,189.5c0.6-0.9,1.4-1.2,2.5-1.2c2,0,2.8,1.3,2.8,3.1v4.7h-2.7v-3.7
			c0-0.7,0.1-2-1.2-2c-1.1,0-1.4,0.8-1.4,1.8v3.9h-2.7v-7.6h2.7V189.5z"/>
		<path id="XMLID_759_" class="st4" d="M442.3,190.4c-0.4-0.2-1-0.4-1.4-0.4c-0.3,0-0.8,0.1-0.8,0.5c0,0.5,0.8,0.6,1.2,0.7
			c1.3,0.3,2.2,0.8,2.2,2.2c0,2-1.8,2.8-3.6,2.8c-1.1,0-2.1-0.3-3.1-0.9l1-1.9c0.5,0.4,1.5,0.8,2.1,0.8c0.3,0,0.8-0.2,0.8-0.6
			c0-0.6-0.8-0.6-1.7-0.8c-0.8-0.2-1.7-0.6-1.7-2c0-1.9,1.7-2.7,3.3-2.7c0.9,0,1.7,0.1,2.5,0.5L442.3,190.4z"/>
		<path id="XMLID_756_" class="st4" d="M447.5,189.3L447.5,189.3c0.5-0.8,1.4-1.1,2.3-1.1c2.3,0,3.8,1.9,3.8,4.1c0,2.2-1.6,4-3.8,4
			c-0.9,0-1.8-0.3-2.3-1v4.5h-2.7v-11.4h2.7V189.3z M447.4,192.3c0,1,0.6,1.7,1.7,1.7c1.1,0,1.7-0.7,1.7-1.7c0-0.9-0.6-1.7-1.7-1.7
			C448,190.6,447.4,191.3,447.4,192.3z"/>
		<path id="XMLID_753_" class="st4" d="M462.7,192.7H457c0,1.1,0.6,1.7,1.7,1.7c0.6,0,1-0.2,1.3-0.7h2.6c-0.2,0.9-0.7,1.5-1.4,2
			c-0.7,0.4-1.6,0.6-2.4,0.6c-2.5,0-4.4-1.4-4.4-4c0-2.5,1.7-4,4.2-4c2.6,0,4.1,1.6,4.1,4.2V192.7z M460.2,191.2
			c-0.1-0.7-0.8-1.2-1.5-1.2c-0.8,0-1.4,0.4-1.6,1.2H460.2z"/>
		<path id="XMLID_751_" class="st4" d="M469.4,190.9c-0.4-0.3-0.9-0.5-1.4-0.5c-1,0-1.8,0.8-1.8,1.8c0,1.1,0.8,1.9,1.9,1.9
			c0.5,0,1-0.2,1.3-0.5v2.3c-0.6,0.3-1.2,0.4-1.9,0.4c-2.2,0-4.1-1.7-4.1-4c0-2.4,1.9-4.1,4.2-4.1c0.6,0,1.2,0.1,1.8,0.4V190.9z"/>
		<path id="XMLID_749_" class="st4" d="M476.5,190.9c-0.4-0.3-0.9-0.5-1.4-0.5c-1,0-1.8,0.8-1.8,1.8c0,1.1,0.8,1.9,1.9,1.9
			c0.5,0,1-0.2,1.3-0.5v2.3c-0.6,0.3-1.2,0.4-1.9,0.4c-2.2,0-4.1-1.7-4.1-4c0-2.4,1.9-4.1,4.2-4.1c0.6,0,1.2,0.1,1.8,0.4V190.9z"/>
		<path id="XMLID_746_" class="st4" d="M481,185.6c0,0.8-0.7,1.5-1.5,1.5c-0.8,0-1.5-0.7-1.5-1.5c0-0.8,0.7-1.5,1.5-1.5
			C480.4,184.1,481,184.7,481,185.6z M480.9,196.1h-2.7v-7.6h2.7V196.1z"/>
		<path id="XMLID_742_" class="st4" d="M491.2,192.3c0,2.6-2.1,4-4.6,4c-2.4,0-4.6-1.4-4.6-4c0-2.6,2.1-4,4.6-4
			C489.1,188.2,491.2,189.7,491.2,192.3z M484.9,192.3c0,1,0.6,1.7,1.7,1.7c1.1,0,1.7-0.7,1.7-1.7c0-0.9-0.6-1.7-1.7-1.7
			C485.6,190.6,484.9,191.3,484.9,192.3z M486.4,187.4l-1.2-0.9l2.1-2.5l1.6,1.2L486.4,187.4z"/>
		<path id="XMLID_740_" class="st4" d="M495.1,189.5L495.1,189.5c0.6-0.9,1.4-1.2,2.5-1.2c2,0,2.8,1.3,2.8,3.1v4.7h-2.7v-3.7
			c0-0.7,0.1-2-1.2-2c-1.1,0-1.4,0.8-1.4,1.8v3.9h-2.7v-7.6h2.7V189.5z"/>
		<path id="XMLID_738_" class="st4" d="M506.3,190.2v2.2h-4.2v-2.2H506.3z"/>
		<path id="XMLID_736_" class="st4" d="M510.6,189.4L510.6,189.4c0.7-0.8,1.4-1.2,2.4-1.2c1.1,0,2,0.4,2.6,1.4
			c0.5-0.9,1.5-1.4,2.6-1.4c1.9,0,2.6,1.3,2.6,3v4.8h-2.7v-3.6c0-0.8,0-2.1-1.1-2.1c-1.2,0-1.3,1.2-1.3,2.1v3.6H513v-3.6
			c0-0.8,0-2.1-1.2-2.1c-1.2,0-1.2,1.3-1.2,2.1v3.6H508v-7.6h2.7V189.4z"/>
		<path id="XMLID_733_" class="st4" d="M530.3,192.7h-5.7c0,1.1,0.6,1.7,1.7,1.7c0.6,0,1-0.2,1.3-0.7h2.6c-0.2,0.9-0.7,1.5-1.4,2
			c-0.7,0.4-1.6,0.6-2.4,0.6c-2.5,0-4.4-1.4-4.4-4c0-2.5,1.7-4,4.2-4c2.6,0,4.1,1.6,4.1,4.2V192.7z M527.8,191.2
			c-0.1-0.7-0.8-1.2-1.5-1.2c-0.8,0-1.4,0.4-1.6,1.2H527.8z"/>
		<path id="XMLID_730_" class="st4" d="M537.3,195.2L537.3,195.2c-0.5,0.8-1.4,1.1-2.3,1.1c-2.2,0-3.8-1.9-3.8-4c0-2.2,1.6-4,3.8-4
			c0.9,0,1.8,0.3,2.3,1v-5.4h2.7v12.3h-2.7V195.2z M533.9,192.3c0,1,0.6,1.7,1.7,1.7c1.1,0,1.7-0.7,1.7-1.7c0-0.9-0.6-1.7-1.7-1.7
			C534.5,190.6,533.9,191.3,533.9,192.3z"/>
		<path id="XMLID_727_" class="st4" d="M544.5,185.6c0,0.8-0.7,1.5-1.5,1.5c-0.8,0-1.5-0.7-1.5-1.5c0-0.8,0.7-1.5,1.5-1.5
			C543.8,184.1,544.5,184.7,544.5,185.6z M544.3,196.1h-2.7v-7.6h2.7V196.1z"/>
		<path id="XMLID_725_" class="st4" d="M551.6,190.9c-0.4-0.3-0.9-0.5-1.4-0.5c-1,0-1.8,0.8-1.8,1.8c0,1.1,0.8,1.9,1.9,1.9
			c0.5,0,1-0.2,1.3-0.5v2.3c-0.6,0.3-1.2,0.4-1.9,0.4c-2.2,0-4.1-1.7-4.1-4c0-2.4,1.9-4.1,4.2-4.1c0.6,0,1.2,0.1,1.8,0.4V190.9z"/>
		<path id="XMLID_722_" class="st4" d="M556.1,185.6c0,0.8-0.7,1.5-1.5,1.5c-0.8,0-1.5-0.7-1.5-1.5c0-0.8,0.7-1.5,1.5-1.5
			C555.4,184.1,556.1,184.7,556.1,185.6z M555.9,196.1h-2.7v-7.6h2.7V196.1z"/>
		<path id="XMLID_718_" class="st4" d="M566.2,192.3c0,2.6-2.1,4-4.6,4c-2.4,0-4.6-1.4-4.6-4c0-2.6,2.1-4,4.6-4
			C564.1,188.2,566.2,189.7,566.2,192.3z M560,192.3c0,1,0.6,1.7,1.7,1.7c1.1,0,1.7-0.7,1.7-1.7c0-0.9-0.6-1.7-1.7-1.7
			C560.6,190.6,560,191.3,560,192.3z M561.4,187.4l-1.2-0.9l2.1-2.5l1.6,1.2L561.4,187.4z"/>
		<path id="XMLID_716_" class="st4" d="M570.1,189.5L570.1,189.5c0.6-0.9,1.4-1.2,2.5-1.2c2,0,2.8,1.3,2.8,3.1v4.7h-2.7v-3.7
			c0-0.7,0.1-2-1.2-2c-1.1,0-1.4,0.8-1.4,1.8v3.9h-2.7v-7.6h2.7V189.5z"/>
	</g>
</g>
<rect id="XMLID_1134_" x="387.1" y="262.2" class="st3" width="223.3" height="101.1"/>
<g id="XMLID_22701_">
	<g>
		<path id="XMLID_1025_" class="st4" d="M420.8,310.8l-0.8,1.9h-3.1l4.3-11.1h3.2l4.2,11.1h-3.1l-0.7-1.9H420.8z M422.8,305
			L422.8,305l-1.2,3.5h2.4L422.8,305z"/>
		<path id="XMLID_1022_" class="st4" d="M438.7,312.7h-3.6l-2.7-4.3h0v4.3h-2.9v-11.1h4.3c2.2,0,3.9,1,3.9,3.4
			c0,1.5-0.9,2.9-2.4,3.1L438.7,312.7z M432.4,306.6h0.3c0.9,0,2-0.2,2-1.4c0-1.2-1.1-1.4-2-1.4h-0.3V306.6z"/>
		<path id="XMLID_1020_" class="st4" d="M442.4,304v1.9h3.3v2.5h-3.3v1.9h3.4v2.5h-6.3v-11.1h6.3v2.5H442.4z"/>
		<path id="XMLID_1017_" class="st4" d="M450.5,310.8l-0.8,1.9h-3.1l4.3-11.1h3.2l4.2,11.1h-3.1l-0.7-1.9H450.5z M452.5,305
			L452.5,305l-1.2,3.5h2.4L452.5,305z"/>
		<path id="XMLID_1015_" class="st4" d="M468.7,312.7h-2.9V304h-2.4v-2.5h7.7v2.5h-2.4V312.7z"/>
		<path id="XMLID_1013_" class="st4" d="M475,304v1.9h3.3v2.5H475v1.9h3.4v2.5h-6.3v-11.1h6.3v2.5H475z"/>
		<path id="XMLID_992_" class="st4" d="M488.2,305.3c-0.6-0.8-1.6-1.2-2.5-1.2c-1.8,0-3,1.4-3,3.1c0,1.8,1.2,3,3,3
			c0.9,0,1.9-0.5,2.5-1.2v3.5c-1,0.3-1.7,0.5-2.6,0.5c-1.6,0-3-0.6-4.2-1.6c-1.2-1.1-1.8-2.6-1.8-4.2c0-1.5,0.6-3,1.6-4.1
			c1.1-1.1,2.7-1.8,4.2-1.8c0.9,0,1.8,0.2,2.6,0.6V305.3z"/>
		<path id="XMLID_990_" class="st4" d="M490,301.6h2.9l5.3,6.8h0v-6.8h2.9v11.1h-2.9l-5.3-6.8h0v6.8H490V301.6z"/>
		<path id="XMLID_988_" class="st4" d="M505.9,312.7H503v-11.1h2.9V312.7z"/>
		<path id="XMLID_986_" class="st4" d="M515.7,305.3c-0.6-0.8-1.6-1.2-2.5-1.2c-1.8,0-3,1.4-3,3.1c0,1.8,1.2,3,3,3
			c0.9,0,1.9-0.5,2.5-1.2v3.5c-1,0.3-1.7,0.5-2.6,0.5c-1.6,0-3-0.6-4.2-1.6c-1.2-1.1-1.8-2.6-1.8-4.2c0-1.5,0.6-3,1.6-4.1
			c1.1-1.1,2.7-1.8,4.2-1.8c0.9,0,1.8,0.2,2.6,0.6V305.3z"/>
		<path id="XMLID_983_" class="st4" d="M529.2,306.9c0,3.6-2.6,6.1-6.2,6.1s-6.2-2.5-6.2-6.1c0-3.4,3-5.7,6.2-5.7
			C526.3,301.2,529.2,303.6,529.2,306.9z M519.9,307c0,1.9,1.4,3.3,3.1,3.3s3.1-1.4,3.1-3.3c0-1.5-1.4-2.9-3.1-2.9
			S519.9,305.4,519.9,307z"/>
		<path id="XMLID_981_" class="st4" d="M536.7,304.4c-0.5-0.4-1.2-0.7-1.9-0.7c-0.5,0-1.2,0.3-1.2,0.9c0,0.6,0.8,0.9,1.3,1.1
			l0.7,0.2c1.6,0.5,2.7,1.2,2.7,3c0,1.1-0.3,2.2-1.2,3c-0.9,0.7-2,1-3.2,1c-1.4,0-2.8-0.5-3.9-1.3l1.2-2.3c0.7,0.6,1.6,1.2,2.6,1.2
			c0.7,0,1.4-0.3,1.4-1.1c0-0.8-1.1-1.1-1.8-1.3c-1.8-0.5-3-1-3-3.1c0-2.3,1.6-3.7,3.8-3.7c1.1,0,2.5,0.4,3.5,0.9L536.7,304.4z"/>
		<path id="XMLID_947_" class="st4" d="M546.9,300.5l-5.6,13.6h-2.1l5.6-13.6H546.9z"/>
		<path id="XMLID_944_" class="st4" d="M551.1,310.8l-0.8,1.9h-3.1l4.3-11.1h3.2l4.2,11.1h-3.1l-0.7-1.9H551.1z M553.1,305
			L553.1,305l-1.2,3.5h2.4L553.1,305z"/>
		<path id="XMLID_894_" class="st4" d="M569,312.7h-3.6l-2.7-4.3h0v4.3h-2.9v-11.1h4.3c2.2,0,3.9,1,3.9,3.4c0,1.5-0.9,2.9-2.4,3.1
			L569,312.7z M562.6,306.6h0.3c0.9,0,2-0.2,2-1.4c0-1.2-1.1-1.4-2-1.4h-0.3V306.6z"/>
		<path id="XMLID_891_" class="st4" d="M579.3,313.4l-0.9-1c-0.9,0.5-1.9,0.7-3.1,0.7c-3.6,0-6.2-2.5-6.2-6.1c0-3.4,3-5.7,6.2-5.7
			c3.5,0,6.2,2.3,6.2,6c0,1.5-0.5,2.8-1.4,3.9l1.9,1.9L579.3,313.4z M578,308.8c0.3-0.5,0.5-1.1,0.5-1.6c0-1.7-1.4-3.2-3.1-3.2
			c-1.7,0-3.2,1.4-3.2,2.9c0,1.9,1.4,3.3,3.2,3.3c0.3,0,0.6,0,0.9-0.1l-1.8-1.8l2.7-0.3L578,308.8z"/>
		<path id="XMLID_889_" class="st4" d="M430.9,326.1l2.7-6.8h3.1l-4.8,11.1h-2.2l-4.7-11.1h3.1L430.9,326.1z"/>
		<path id="XMLID_886_" class="st4" d="M444.6,330.4h-2.7v-0.8h0c-0.5,0.8-1.4,1.1-2.3,1.1c-2.2,0-3.8-1.9-3.8-4c0-2.2,1.6-4,3.8-4
			c0.9,0,1.8,0.3,2.3,1v-0.7h2.7V330.4z M438.5,326.6c0,1,0.6,1.7,1.7,1.7c1.1,0,1.7-0.7,1.7-1.7c0-0.9-0.6-1.7-1.7-1.7
			C439.1,324.9,438.5,325.7,438.5,326.6z"/>
		<path id="XMLID_884_" class="st4" d="M449,330.4h-2.7v-12.3h2.7V330.4z"/>
		<path id="XMLID_881_" class="st4" d="M459.4,326.6c0,2.6-2.1,4-4.6,4c-2.4,0-4.6-1.4-4.6-4c0-2.6,2.1-4,4.6-4
			C457.2,322.6,459.4,324.1,459.4,326.6z M453.1,326.6c0,1,0.6,1.7,1.7,1.7c1.1,0,1.7-0.7,1.7-1.7c0-0.9-0.6-1.7-1.7-1.7
			C453.7,324.9,453.1,325.7,453.1,326.6z"/>
		<path id="XMLID_879_" class="st4" d="M463.3,324.1L463.3,324.1c0.5-0.9,1.4-1.3,2.5-1.3h0.5v2.6c-0.4-0.2-0.7-0.3-1.1-0.3
			c-1.5,0-1.9,1-1.9,2.3v3.1h-2.7v-7.6h2.7V324.1z"/>
		<path id="XMLID_876_" class="st4" d="M475.5,330.4h-2.7v-0.8h0c-0.5,0.8-1.4,1.1-2.3,1.1c-2.2,0-3.8-1.9-3.8-4c0-2.2,1.6-4,3.8-4
			c0.9,0,1.8,0.3,2.3,1v-0.7h2.7V330.4z M469.5,326.6c0,1,0.6,1.7,1.7,1.7c1.1,0,1.7-0.7,1.7-1.7c0-0.9-0.6-1.7-1.7-1.7
			C470.1,324.9,469.5,325.7,469.5,326.6z"/>
		<path id="XMLID_874_" class="st4" d="M482.8,325.3c-0.4-0.3-0.9-0.5-1.4-0.5c-1,0-1.8,0.8-1.8,1.8c0,1.1,0.8,1.9,1.9,1.9
			c0.5,0,1-0.2,1.3-0.5v2.3c-0.6,0.3-1.2,0.4-1.9,0.4c-2.2,0-4.1-1.7-4.1-4c0-2.4,1.9-4.1,4.2-4.1c0.6,0,1.2,0.1,1.8,0.4V325.3z"/>
		<path id="XMLID_871_" class="st4" d="M487.3,319.9c0,0.8-0.7,1.5-1.5,1.5c-0.8,0-1.5-0.7-1.5-1.5c0-0.8,0.7-1.5,1.5-1.5
			C486.6,318.4,487.3,319.1,487.3,319.9z M487.2,330.4h-2.7v-7.6h2.7V330.4z"/>
		<path id="XMLID_867_" class="st4" d="M497.5,326.6c0,2.6-2.1,4-4.6,4c-2.4,0-4.6-1.4-4.6-4c0-2.6,2.1-4,4.6-4
			C495.4,322.6,497.5,324.1,497.5,326.6z M491.2,326.6c0,1,0.6,1.7,1.7,1.7c1.1,0,1.7-0.7,1.7-1.7c0-0.9-0.6-1.7-1.7-1.7
			C491.8,324.9,491.2,325.7,491.2,326.6z M492.6,321.7l-1.2-0.9l2.1-2.5l1.6,1.2L492.6,321.7z"/>
		<path id="XMLID_865_" class="st4" d="M501.4,323.8L501.4,323.8c0.6-0.9,1.4-1.2,2.5-1.2c2,0,2.8,1.3,2.8,3.1v4.7H504v-3.7
			c0-0.7,0.1-2-1.2-2c-1.1,0-1.4,0.8-1.4,1.8v3.9h-2.7v-7.6h2.7V323.8z"/>
		<path id="XMLID_863_" class="st4" d="M512.6,324.6v2.2h-4.2v-2.2H512.6z"/>
		<path id="XMLID_861_" class="st4" d="M517.2,330.4h-2.9v-11.1h2.9V330.4z"/>
		<path id="XMLID_859_" class="st4" d="M521.7,323.8L521.7,323.8c0.6-0.9,1.4-1.2,2.5-1.2c2,0,2.8,1.3,2.8,3.1v4.7h-2.7v-3.7
			c0-0.7,0.1-2-1.2-2c-1.1,0-1.4,0.8-1.4,1.8v3.9H519v-7.6h2.7V323.8z"/>
		<path id="XMLID_857_" class="st4" d="M531.7,330.4H529v-5.4h-0.9v-2.2h0.9v-1c0-1,0-1.8,0.8-2.7c0.7-0.8,1.6-1.2,2.6-1.2
			c0.4,0,0.8,0.1,1.2,0.3v2.3c-0.3-0.1-0.6-0.3-0.9-0.3c-0.7,0-0.9,0.4-0.9,1.3v1.2h1.9v2.2h-1.9V330.4z"/>
		<path id="XMLID_854_" class="st4" d="M543.1,326.6c0,2.6-2.1,4-4.6,4c-2.4,0-4.6-1.4-4.6-4c0-2.6,2.1-4,4.6-4
			C540.9,322.6,543.1,324.1,543.1,326.6z M536.8,326.6c0,1,0.6,1.7,1.7,1.7c1.1,0,1.7-0.7,1.7-1.7c0-0.9-0.6-1.7-1.7-1.7
			C537.4,324.9,536.8,325.7,536.8,326.6z"/>
		<path id="XMLID_852_" class="st4" d="M547,324.1L547,324.1c0.5-0.9,1.4-1.3,2.5-1.3h0.5v2.6c-0.4-0.2-0.7-0.3-1.1-0.3
			c-1.5,0-1.9,1-1.9,2.3v3.1h-2.7v-7.6h2.7V324.1z"/>
		<path id="XMLID_850_" class="st4" d="M553.7,323.8L553.7,323.8c0.7-0.8,1.4-1.2,2.4-1.2c1.1,0,2,0.4,2.6,1.4
			c0.5-0.9,1.5-1.4,2.6-1.4c1.9,0,2.6,1.3,2.6,3v4.8h-2.7v-3.6c0-0.8,0-2.1-1.1-2.1c-1.2,0-1.3,1.2-1.3,2.1v3.6H556v-3.6
			c0-0.8,0-2.1-1.2-2.1c-1.2,0-1.2,1.3-1.2,2.1v3.6H551v-7.6h2.7V323.8z"/>
		<path id="XMLID_847_" class="st4" d="M573.3,327.1h-5.7c0,1.1,0.6,1.7,1.7,1.7c0.6,0,1-0.2,1.3-0.7h2.6c-0.2,0.9-0.7,1.5-1.4,2
			c-0.7,0.4-1.6,0.6-2.4,0.6c-2.5,0-4.4-1.4-4.4-4c0-2.5,1.7-4,4.2-4c2.6,0,4.1,1.6,4.1,4.2V327.1z M570.9,325.5
			c-0.1-0.7-0.8-1.2-1.5-1.2c-0.8,0-1.4,0.4-1.6,1.2H570.9z"/>
	</g>
</g>
<rect id="XMLID_1132_" x="387.1" y="393.3" class="st3" width="223.3" height="101.1"/>
<g id="XMLID_22677_">
	<g>
		<path id="XMLID_193_" class="st4" d="M488,436.4c-0.6-0.8-1.6-1.2-2.5-1.2c-1.8,0-3,1.4-3,3.1c0,1.8,1.2,3,3,3
			c0.9,0,1.9-0.5,2.5-1.2v3.5c-1,0.3-1.7,0.5-2.6,0.5c-1.6,0-3-0.6-4.2-1.6c-1.2-1.1-1.8-2.6-1.8-4.2c0-1.5,0.6-3,1.6-4.1
			c1.1-1.1,2.7-1.8,4.2-1.8c0.9,0,1.8,0.2,2.6,0.6V436.4z"/>
		<path id="XMLID_190_" class="st4" d="M492.6,441.9l-0.8,1.9h-3.1l4.3-11.1h3.2l4.2,11.1h-3.1l-0.7-1.9H492.6z M494.6,436.1
			L494.6,436.1l-1.2,3.5h2.4L494.6,436.1z"/>
		<path id="XMLID_188_" class="st4" d="M506.7,432.7v7.5c0,2.3-1.2,3.9-3.7,3.9c-1.2,0-2.2-0.6-2.9-1.6l1.7-1.8
			c0.3,0.4,0.8,0.9,1.2,0.9c0.9,0,0.8-1,0.8-1.6v-7.3H506.7z"/>
		<path id="XMLID_185_" class="st4" d="M511.4,441.9l-0.8,1.9h-3.1l4.3-11.1h3.2l4.2,11.1h-3.1l-0.7-1.9H511.4z M513.4,436.1
			L513.4,436.1l-1.2,3.5h2.4L513.4,436.1z"/>
		<path id="XMLID_183_" class="st4" d="M485.1,454.1c-0.6-0.8-1.6-1.2-2.5-1.2c-1.8,0-3,1.4-3,3.1c0,1.8,1.2,3,3,3
			c0.9,0,1.9-0.5,2.5-1.2v3.5c-1,0.3-1.7,0.5-2.6,0.5c-1.6,0-3-0.6-4.2-1.6c-1.2-1.1-1.8-2.6-1.8-4.2c0-1.5,0.6-3,1.6-4.1
			c1.1-1.1,2.7-1.8,4.2-1.8c0.9,0,1.8,0.2,2.6,0.6V454.1z"/>
		<path id="XMLID_180_" class="st4" d="M495.4,457.7c0,2.6-2.1,4-4.6,4c-2.4,0-4.6-1.4-4.6-4c0-2.6,2.1-4,4.6-4
			C493.3,453.7,495.4,455.1,495.4,457.7z M489.1,457.7c0,1,0.6,1.7,1.7,1.7c1.1,0,1.7-0.7,1.7-1.7c0-0.9-0.6-1.7-1.7-1.7
			C489.7,456,489.1,456.8,489.1,457.7z"/>
		<path id="XMLID_177_" class="st4" d="M496.5,449.3h2.7v5.4c0.6-0.7,1.5-1,2.3-1c2.2,0,3.8,1.9,3.8,4c0,2.2-1.6,4-3.8,4
			c-0.9,0-1.8-0.3-2.3-1.1h0v0.8h-2.7V449.3z M499.1,457.7c0,1,0.6,1.7,1.7,1.7c1.1,0,1.7-0.7,1.7-1.7c0-0.9-0.6-1.7-1.7-1.7
			C499.7,456,499.1,456.8,499.1,457.7z"/>
		<path id="XMLID_175_" class="st4" d="M509.4,455.2L509.4,455.2c0.5-0.9,1.4-1.3,2.5-1.3h0.5v2.6c-0.4-0.2-0.7-0.3-1.1-0.3
			c-1.5,0-1.9,1-1.9,2.3v3.1h-2.7v-7.6h2.7V455.2z"/>
		<path id="XMLID_172_" class="st4" d="M521.7,457.7c0,2.6-2.1,4-4.6,4c-2.4,0-4.6-1.4-4.6-4c0-2.6,2.1-4,4.6-4
			C519.5,453.7,521.7,455.1,521.7,457.7z M515.4,457.7c0,1,0.6,1.7,1.7,1.7c1.1,0,1.7-0.7,1.7-1.7c0-0.9-0.6-1.7-1.7-1.7
			C516,456,515.4,456.8,515.4,457.7z"/>
	</g>
</g>
<rect id="XMLID_1130_" x="387.1" y="524.3" class="st3" width="223.3" height="101.1"/>
<g id="XMLID_22559_">
	<g>
		<path id="XMLID_1681_" class="st4" d="M420.4,561.5l-0.8,1.9h-3.1l4.3-11.1h3.2l4.2,11.1h-3.1l-0.7-1.9H420.4z M422.4,555.7
			L422.4,555.7l-1.2,3.5h2.4L422.4,555.7z"/>
		<path id="XMLID_1678_" class="st4" d="M438.4,563.4h-3.6l-2.7-4.3h0v4.3h-2.9v-11.1h4.3c2.2,0,3.9,1,3.9,3.4
			c0,1.5-0.9,2.9-2.4,3.1L438.4,563.4z M432,557.3h0.3c0.9,0,2-0.2,2-1.4c0-1.2-1.1-1.4-2-1.4H432V557.3z"/>
		<path id="XMLID_1676_" class="st4" d="M442,554.7v1.9h3.3v2.5H442v1.9h3.4v2.5h-6.3v-11.1h6.3v2.5H442z"/>
		<path id="XMLID_1673_" class="st4" d="M450.1,561.5l-0.8,1.9h-3.1l4.3-11.1h3.2l4.2,11.1h-3.1l-0.7-1.9H450.1z M452.1,555.7
			L452.1,555.7l-1.2,3.5h2.4L452.1,555.7z"/>
		<path id="XMLID_1671_" class="st4" d="M468.3,563.4h-2.9v-8.7H463v-2.5h7.7v2.5h-2.4V563.4z"/>
		<path id="XMLID_1669_" class="st4" d="M474.6,554.7v1.9h3.3v2.5h-3.3v1.9h3.4v2.5h-6.3v-11.1h6.3v2.5H474.6z"/>
		<path id="XMLID_1667_" class="st4" d="M487.8,556c-0.6-0.8-1.6-1.2-2.5-1.2c-1.8,0-3,1.4-3,3.1c0,1.8,1.2,3,3,3
			c0.9,0,1.9-0.5,2.5-1.2v3.5c-1,0.3-1.7,0.5-2.6,0.5c-1.6,0-3-0.6-4.2-1.6c-1.2-1.1-1.8-2.6-1.8-4.2c0-1.5,0.6-3,1.6-4.1
			c1.1-1.1,2.7-1.8,4.2-1.8c0.9,0,1.8,0.2,2.6,0.6V556z"/>
		<path id="XMLID_1665_" class="st4" d="M489.6,552.3h2.9l5.3,6.8h0v-6.8h2.9v11.1h-2.9l-5.3-6.8h0v6.8h-2.9V552.3z"/>
		<path id="XMLID_1663_" class="st4" d="M505.5,563.4h-2.9v-11.1h2.9V563.4z"/>
		<path id="XMLID_1661_" class="st4" d="M515.3,556c-0.6-0.8-1.6-1.2-2.5-1.2c-1.8,0-3,1.4-3,3.1c0,1.8,1.2,3,3,3
			c0.9,0,1.9-0.5,2.5-1.2v3.5c-1,0.3-1.7,0.5-2.6,0.5c-1.6,0-3-0.6-4.2-1.6c-1.2-1.1-1.8-2.6-1.8-4.2c0-1.5,0.6-3,1.6-4.1
			c1.1-1.1,2.7-1.8,4.2-1.8c0.9,0,1.8,0.2,2.6,0.6V556z"/>
		<path id="XMLID_1658_" class="st4" d="M528.9,557.6c0,3.6-2.6,6.1-6.2,6.1s-6.2-2.5-6.2-6.1c0-3.4,3-5.7,6.2-5.7
			C525.9,551.9,528.9,554.3,528.9,557.6z M519.6,557.6c0,1.9,1.4,3.3,3.1,3.3s3.1-1.4,3.1-3.3c0-1.5-1.4-2.9-3.1-2.9
			S519.6,556.1,519.6,557.6z"/>
		<path id="XMLID_1656_" class="st4" d="M536.3,555.1c-0.5-0.4-1.2-0.7-1.9-0.7c-0.5,0-1.2,0.3-1.2,0.9c0,0.6,0.8,0.9,1.3,1.1
			l0.7,0.2c1.6,0.5,2.7,1.2,2.7,3c0,1.1-0.3,2.2-1.2,3c-0.9,0.7-2,1-3.2,1c-1.4,0-2.8-0.5-3.9-1.3l1.2-2.3c0.7,0.6,1.6,1.2,2.6,1.2
			c0.7,0,1.4-0.3,1.4-1.1c0-0.8-1.1-1.1-1.8-1.3c-1.8-0.5-3-1-3-3.1c0-2.3,1.6-3.7,3.8-3.7c1.1,0,2.5,0.4,3.5,0.9L536.3,555.1z"/>
		<path id="XMLID_1654_" class="st4" d="M546.5,551.1l-5.6,13.6h-2.1l5.6-13.6H546.5z"/>
		<path id="XMLID_1651_" class="st4" d="M550.7,561.5l-0.8,1.9h-3.1l4.3-11.1h3.2l4.2,11.1h-3.1l-0.7-1.9H550.7z M552.7,555.7
			L552.7,555.7l-1.2,3.5h2.4L552.7,555.7z"/>
		<path id="XMLID_1648_" class="st4" d="M568.6,563.4H565l-2.7-4.3h0v4.3h-2.9v-11.1h4.3c2.2,0,3.9,1,3.9,3.4c0,1.5-0.9,2.9-2.4,3.1
			L568.6,563.4z M562.3,557.3h0.3c0.9,0,2-0.2,2-1.4c0-1.2-1.1-1.4-2-1.4h-0.3V557.3z"/>
		<path id="XMLID_1645_" class="st4" d="M578.9,564.1l-0.9-1c-0.9,0.5-1.9,0.7-3.1,0.7c-3.6,0-6.2-2.5-6.2-6.1c0-3.4,3-5.7,6.2-5.7
			c3.5,0,6.2,2.3,6.2,6c0,1.5-0.5,2.8-1.4,3.9l1.9,1.9L578.9,564.1z M577.6,559.5c0.3-0.5,0.5-1.1,0.5-1.6c0-1.7-1.4-3.2-3.1-3.2
			c-1.7,0-3.2,1.4-3.2,2.9c0,1.9,1.4,3.3,3.2,3.3c0.3,0,0.6,0,0.9-0.1l-1.8-1.8l2.7-0.3L577.6,559.5z"/>
		<path id="XMLID_1643_" class="st4" d="M450.5,576.7l2.7-6.8h3.1l-4.8,11.1h-2.2l-4.7-11.1h3.1L450.5,576.7z"/>
		<path id="XMLID_1640_" class="st4" d="M463.7,577.8H458c0,1.1,0.6,1.7,1.7,1.7c0.6,0,1-0.2,1.3-0.7h2.6c-0.2,0.9-0.7,1.5-1.4,2
			c-0.7,0.4-1.6,0.6-2.4,0.6c-2.5,0-4.4-1.4-4.4-4c0-2.5,1.7-4,4.2-4c2.6,0,4.1,1.6,4.1,4.2V577.8z M461.2,576.2
			c-0.1-0.7-0.8-1.2-1.5-1.2c-0.8,0-1.4,0.4-1.6,1.2H461.2z"/>
		<path id="XMLID_1638_" class="st4" d="M467.6,574.8L467.6,574.8c0.5-0.9,1.4-1.3,2.5-1.3h0.5v2.6c-0.4-0.2-0.7-0.3-1.1-0.3
			c-1.5,0-1.9,1-1.9,2.3v3.1h-2.7v-7.6h2.7V574.8z"/>
		<path id="XMLID_1635_" class="st4" d="M474.5,570.6c0,0.8-0.7,1.5-1.5,1.5c-0.8,0-1.5-0.7-1.5-1.5c0-0.8,0.7-1.5,1.5-1.5
			C473.8,569.1,474.5,569.8,474.5,570.6z M474.3,581.1h-2.7v-7.6h2.7V581.1z"/>
		<path id="XMLID_1631_" class="st4" d="M478.9,581.1h-2.7v-5.4h-0.9v-2.2h0.9v-1c0-1,0-1.8,0.8-2.7c0.7-0.8,1.6-1.2,2.6-1.2
			c0.4,0,0.8,0.1,1.2,0.3v2.3c-0.3-0.1-0.6-0.3-0.9-0.3c-0.7,0-0.9,0.4-0.9,1.3v1.2h1.9v2.2h-1.9V581.1z M484.5,570.6
			c0,0.8-0.7,1.5-1.5,1.5c-0.8,0-1.5-0.7-1.5-1.5c0-0.8,0.7-1.5,1.5-1.5C483.8,569.1,484.5,569.8,484.5,570.6z M484.3,581.1h-2.7
			v-7.6h2.7V581.1z"/>
		<path id="XMLID_1629_" class="st4" d="M491.5,576c-0.4-0.3-0.9-0.5-1.4-0.5c-1,0-1.8,0.8-1.8,1.8c0,1.1,0.8,1.9,1.9,1.9
			c0.5,0,1-0.2,1.3-0.5v2.3c-0.6,0.3-1.2,0.4-1.9,0.4c-2.2,0-4.1-1.7-4.1-4c0-2.4,1.9-4.1,4.2-4.1c0.6,0,1.2,0.1,1.8,0.4V576z"/>
		<path id="XMLID_1626_" class="st4" d="M501.5,581.1h-2.7v-0.8h0c-0.5,0.8-1.4,1.1-2.3,1.1c-2.2,0-3.8-1.9-3.8-4s1.6-4,3.8-4
			c0.9,0,1.8,0.3,2.3,1v-0.7h2.7V581.1z M495.4,577.3c0,1,0.6,1.7,1.7,1.7c1.1,0,1.7-0.7,1.7-1.7c0-0.9-0.6-1.7-1.7-1.7
			C496.1,575.6,495.4,576.4,495.4,577.3z"/>
		<path id="XMLID_1624_" class="st4" d="M508.7,576c-0.4-0.3-0.9-0.5-1.4-0.5c-1,0-1.8,0.8-1.8,1.8c0,1.1,0.8,1.9,1.9,1.9
			c0.5,0,1-0.2,1.3-0.5v2.3c-0.6,0.3-1.2,0.4-1.9,0.4c-2.2,0-4.1-1.7-4.1-4c0-2.4,1.9-4.1,4.2-4.1c0.6,0,1.2,0.1,1.8,0.4V576z"/>
		<path id="XMLID_1621_" class="st4" d="M513.3,570.6c0,0.8-0.7,1.5-1.5,1.5c-0.8,0-1.5-0.7-1.5-1.5c0-0.8,0.7-1.5,1.5-1.5
			C512.6,569.1,513.3,569.8,513.3,570.6z M513.1,581.1h-2.7v-7.6h2.7V581.1z"/>
		<path id="XMLID_1617_" class="st4" d="M523.4,577.3c0,2.6-2.1,4-4.6,4c-2.4,0-4.6-1.4-4.6-4s2.1-4,4.6-4
			C521.3,573.3,523.4,574.8,523.4,577.3z M517.1,577.3c0,1,0.6,1.7,1.7,1.7c1.1,0,1.7-0.7,1.7-1.7c0-0.9-0.6-1.7-1.7-1.7
			C517.8,575.6,517.1,576.4,517.1,577.3z M518.6,572.4l-1.2-0.9l2.1-2.5l1.6,1.2L518.6,572.4z"/>
		<path id="XMLID_1615_" class="st4" d="M527.3,574.5L527.3,574.5c0.6-0.9,1.4-1.2,2.5-1.2c2,0,2.8,1.3,2.8,3.1v4.7h-2.7v-3.7
			c0-0.7,0.1-2-1.2-2c-1.1,0-1.4,0.8-1.4,1.8v3.9h-2.7v-7.6h2.7V574.5z"/>
		<path id="XMLID_1613_" class="st4" d="M538.4,573.5h3.1l2,3.9l2-3.9h3.1l-6.1,11.4h-3l2.6-4.8L538.4,573.5z"/>
		<path id="XMLID_1611_" class="st4" d="M421.8,593.7c-0.4-0.3-0.9-0.5-1.4-0.5c-1,0-1.8,0.8-1.8,1.8c0,1.1,0.8,1.9,1.9,1.9
			c0.5,0,1-0.2,1.3-0.5v2.3c-0.6,0.3-1.2,0.4-1.9,0.4c-2.2,0-4.1-1.7-4.1-4c0-2.4,1.9-4.1,4.2-4.1c0.6,0,1.2,0.1,1.8,0.4V593.7z"/>
		<path id="XMLID_1608_" class="st4" d="M432.1,595.1c0,2.6-2.1,4-4.6,4c-2.4,0-4.6-1.4-4.6-4c0-2.6,2.1-4,4.6-4
			C429.9,591,432.1,592.5,432.1,595.1z M425.8,595.1c0,1,0.6,1.7,1.7,1.7c1.1,0,1.7-0.7,1.7-1.7c0-0.9-0.6-1.7-1.7-1.7
			C426.4,593.3,425.8,594.1,425.8,595.1z"/>
		<path id="XMLID_1606_" class="st4" d="M436,592.2L436,592.2c0.6-0.9,1.4-1.2,2.5-1.2c2,0,2.8,1.3,2.8,3.1v4.7h-2.7v-3.7
			c0-0.7,0.1-2-1.2-2c-1.1,0-1.4,0.8-1.4,1.8v3.9h-2.7v-7.6h2.7V592.2z"/>
		<path id="XMLID_1604_" class="st4" d="M446,598.8h-2.7v-5.4h-0.9v-2.2h0.9v-1c0-1,0-1.8,0.8-2.7c0.7-0.8,1.6-1.2,2.6-1.2
			c0.4,0,0.8,0.1,1.2,0.3v2.3c-0.3-0.1-0.6-0.3-0.9-0.3c-0.7,0-0.9,0.4-0.9,1.3v1.2h1.9v2.2H446V598.8z"/>
		<path id="XMLID_1601_" class="st4" d="M457.3,595.1c0,2.6-2.1,4-4.6,4c-2.4,0-4.6-1.4-4.6-4c0-2.6,2.1-4,4.6-4
			C455.2,591,457.3,592.5,457.3,595.1z M451,595.1c0,1,0.6,1.7,1.7,1.7c1.1,0,1.7-0.7,1.7-1.7c0-0.9-0.6-1.7-1.7-1.7
			C451.7,593.3,451,594.1,451,595.1z"/>
		<path id="XMLID_1599_" class="st4" d="M461.2,592.5L461.2,592.5c0.5-0.9,1.4-1.3,2.5-1.3h0.5v2.6c-0.4-0.2-0.7-0.3-1.1-0.3
			c-1.5,0-1.9,1-1.9,2.3v3.1h-2.7v-7.6h2.7V592.5z"/>
		<path id="XMLID_1597_" class="st4" d="M467.9,592.2L467.9,592.2c0.7-0.8,1.4-1.2,2.4-1.2c1.1,0,2,0.4,2.6,1.4
			c0.5-0.9,1.5-1.4,2.6-1.4c1.9,0,2.6,1.3,2.6,3v4.8h-2.7v-3.6c0-0.8,0-2.1-1.1-2.1c-1.2,0-1.3,1.2-1.3,2.1v3.6h-2.7v-3.6
			c0-0.8,0-2.1-1.2-2.1c-1.2,0-1.2,1.3-1.2,2.1v3.6h-2.7v-7.6h2.7V592.2z"/>
		<path id="XMLID_1594_" class="st4" d="M482.7,588.4c0,0.8-0.7,1.5-1.5,1.5c-0.8,0-1.5-0.7-1.5-1.5c0-0.8,0.7-1.5,1.5-1.5
			C482,586.8,482.7,587.5,482.7,588.4z M482.5,598.8h-2.7v-7.6h2.7V598.8z"/>
		<path id="XMLID_1591_" class="st4" d="M490,598L490,598c-0.5,0.8-1.4,1.1-2.3,1.1c-2.2,0-3.8-1.9-3.8-4s1.6-4,3.8-4
			c0.9,0,1.8,0.3,2.3,1v-5.4h2.7v12.3H490V598z M486.6,595.1c0,1,0.6,1.7,1.7,1.7c1.1,0,1.7-0.7,1.7-1.7c0-0.9-0.6-1.7-1.7-1.7
			C487.2,593.3,486.6,594.1,486.6,595.1z"/>
		<path id="XMLID_1588_" class="st4" d="M502.6,598.8h-2.7V598h0c-0.5,0.8-1.4,1.1-2.3,1.1c-2.2,0-3.8-1.9-3.8-4s1.6-4,3.8-4
			c0.9,0,1.8,0.3,2.3,1v-0.7h2.7V598.8z M496.6,595.1c0,1,0.6,1.7,1.7,1.7c1.1,0,1.7-0.7,1.7-1.7c0-0.9-0.6-1.7-1.7-1.7
			C497.2,593.3,496.6,594.1,496.6,595.1z"/>
		<path id="XMLID_1585_" class="st4" d="M510.1,598L510.1,598c-0.5,0.8-1.4,1.1-2.3,1.1c-2.2,0-3.8-1.9-3.8-4s1.6-4,3.8-4
			c0.9,0,1.8,0.3,2.3,1v-5.4h2.7v12.3h-2.7V598z M506.7,595.1c0,1,0.6,1.7,1.7,1.7c1.1,0,1.7-0.7,1.7-1.7c0-0.9-0.6-1.7-1.7-1.7
			C507.4,593.3,506.7,594.1,506.7,595.1z"/>
		<path id="XMLID_1582_" class="st4" d="M525.2,598L525.2,598c-0.5,0.8-1.4,1.1-2.3,1.1c-2.2,0-3.8-1.9-3.8-4s1.6-4,3.8-4
			c0.9,0,1.8,0.3,2.3,1v-5.4h2.7v12.3h-2.7V598z M521.9,595.1c0,1,0.6,1.7,1.7,1.7c1.1,0,1.7-0.7,1.7-1.7c0-0.9-0.6-1.7-1.7-1.7
			C522.5,593.3,521.9,594.1,521.9,595.1z"/>
		<path id="XMLID_1579_" class="st4" d="M537.4,595.5h-5.7c0,1.1,0.6,1.7,1.7,1.7c0.6,0,1-0.2,1.3-0.7h2.6c-0.2,0.9-0.7,1.5-1.4,2
			c-0.7,0.4-1.6,0.6-2.4,0.6c-2.5,0-4.4-1.4-4.4-4c0-2.5,1.7-4,4.2-4c2.6,0,4.1,1.6,4.1,4.2V595.5z M534.9,593.9
			c-0.1-0.7-0.8-1.2-1.5-1.2c-0.8,0-1.4,0.4-1.6,1.2H534.9z"/>
		<path id="XMLID_1576_" class="st4" d="M546.3,592.1L546.3,592.1c0.5-0.8,1.4-1.1,2.3-1.1c2.3,0,3.8,1.9,3.8,4.1c0,2.2-1.6,4-3.8,4
			c-0.9,0-1.8-0.3-2.3-1v4.5h-2.7v-11.4h2.7V592.1z M546.2,595.1c0,1,0.6,1.7,1.7,1.7c1.1,0,1.7-0.7,1.7-1.7c0-0.9-0.6-1.7-1.7-1.7
			C546.8,593.3,546.2,594.1,546.2,595.1z"/>
		<path id="XMLID_1573_" class="st4" d="M562,598.8h-2.7V598h0c-0.5,0.8-1.4,1.1-2.3,1.1c-2.2,0-3.8-1.9-3.8-4s1.6-4,3.8-4
			c0.9,0,1.8,0.3,2.3,1v-0.7h2.7V598.8z M556,595.1c0,1,0.6,1.7,1.7,1.7c1.1,0,1.7-0.7,1.7-1.7c0-0.9-0.6-1.7-1.7-1.7
			C556.6,593.3,556,594.1,556,595.1z"/>
		<path id="XMLID_1570_" class="st4" d="M572.1,598.1c0,3.2-1.6,4.5-4.4,4.5c-1.7,0-4.1-0.9-4.3-2.9h3c0.1,0.3,0.3,0.5,0.5,0.6
			c0.2,0.1,0.5,0.2,0.8,0.2c1.4,0,1.7-0.9,1.7-2.2v-0.4c-0.7,0.7-1.4,1-2.4,1c-2.2,0-3.7-1.7-3.7-3.9c0-2.2,1.6-4.1,3.9-4.1
			c0.9,0,1.7,0.3,2.2,1h0v-0.8h2.7V598.1z M566.1,595c0,1,0.6,1.7,1.7,1.7c1.1,0,1.7-0.7,1.7-1.7c0-0.9-0.6-1.7-1.7-1.7
			C566.7,593.3,566.1,594.1,566.1,595z"/>
		<path id="XMLID_1567_" class="st4" d="M582.4,595.1c0,2.6-2.1,4-4.6,4c-2.4,0-4.6-1.4-4.6-4c0-2.6,2.1-4,4.6-4
			C580.2,591,582.4,592.5,582.4,595.1z M576.1,595.1c0,1,0.6,1.7,1.7,1.7c1.1,0,1.7-0.7,1.7-1.7c0-0.9-0.6-1.7-1.7-1.7
			C576.7,593.3,576.1,594.1,576.1,595.1z"/>
	</g>
</g>
<rect id="XMLID_1128_" x="387.1" y="655.4" class="st3" width="223.3" height="101.1"/>
<g id="XMLID_22464_">
	<g>
		<path id="XMLID_1294_" class="st4" d="M444,690.6l-0.8,1.9h-3.1l4.3-11.1h3.2l4.2,11.1h-3.1l-0.7-1.9H444z M446,684.9L446,684.9
			l-1.2,3.5h2.4L446,684.9z"/>
		<path id="XMLID_1292_" class="st4" d="M458.8,684.3c-0.5-0.4-1.2-0.7-1.9-0.7c-0.5,0-1.2,0.3-1.2,0.9c0,0.6,0.8,0.9,1.3,1.1
			l0.7,0.2c1.6,0.5,2.7,1.2,2.7,3c0,1.1-0.3,2.2-1.2,3c-0.9,0.7-2,1-3.2,1c-1.4,0-2.8-0.5-3.9-1.3l1.2-2.3c0.7,0.6,1.6,1.2,2.6,1.2
			c0.7,0,1.4-0.3,1.4-1.1c0-0.8-1.1-1.1-1.8-1.3c-1.8-0.5-3-1-3-3.1c0-2.3,1.6-3.7,3.8-3.7c1.1,0,2.5,0.4,3.5,0.9L458.8,684.3z"/>
		<path id="XMLID_1290_" class="st4" d="M464.7,683.9v1.9h3.3v2.5h-3.3v1.9h3.4v2.5h-6.3v-11.1h6.3v2.5H464.7z"/>
		<path id="XMLID_1288_" class="st4" d="M476,684.3c-0.5-0.4-1.2-0.7-1.9-0.7c-0.5,0-1.2,0.3-1.2,0.9c0,0.6,0.8,0.9,1.3,1.1l0.7,0.2
			c1.6,0.5,2.7,1.2,2.7,3c0,1.1-0.3,2.2-1.2,3c-0.9,0.7-2,1-3.2,1c-1.4,0-2.8-0.5-3.9-1.3l1.2-2.3c0.7,0.6,1.6,1.2,2.6,1.2
			c0.7,0,1.4-0.3,1.4-1.1c0-0.8-1.1-1.1-1.8-1.3c-1.8-0.5-3-1-3-3.1c0-2.3,1.6-3.7,3.8-3.7c1.1,0,2.5,0.4,3.5,0.9L476,684.3z"/>
		<path id="XMLID_1285_" class="st4" d="M490.7,686.8c0,3.6-2.6,6.1-6.2,6.1c-3.6,0-6.2-2.5-6.2-6.1c0-3.4,3-5.7,6.2-5.7
			S490.7,683.4,490.7,686.8z M481.4,686.8c0,1.9,1.4,3.3,3.1,3.3c1.7,0,3.1-1.4,3.1-3.3c0-1.5-1.4-2.9-3.1-2.9
			C482.8,683.9,481.4,685.3,481.4,686.8z"/>
		<path id="XMLID_1282_" class="st4" d="M501.3,692.6h-3.6l-2.7-4.3h0v4.3h-2.9v-11.1h4.3c2.2,0,3.9,1,3.9,3.4
			c0,1.5-0.9,2.9-2.4,3.1L501.3,692.6z M495,686.4h0.3c0.9,0,2-0.2,2-1.4c0-1.2-1.1-1.4-2-1.4H495V686.4z"/>
		<path id="XMLID_1280_" class="st4" d="M510.1,690.1h3.5v2.5h-6.4v-11.1h2.9V690.1z"/>
		<path id="XMLID_1278_" class="st4" d="M517.4,683.9v1.9h3.3v2.5h-3.3v1.9h3.4v2.5h-6.3v-11.1h6.3v2.5H517.4z"/>
		<path id="XMLID_1276_" class="st4" d="M533.7,686.3c0,1.6-0.1,3-1.1,4.4c-1.1,1.5-2.7,2.2-4.6,2.2c-3.5,0-5.9-2.4-5.9-5.9
			c0-3.6,2.5-6,6-6c2.3,0,4.1,1,5,3.1l-2.7,1.2c-0.4-1.1-1.2-1.8-2.4-1.8c-1.9,0-2.9,1.8-2.9,3.5c0,1.7,1,3.5,2.9,3.5
			c1.3,0,2.2-0.6,2.3-1.9H528v-2.3H533.7z"/>
		<path id="XMLID_1273_" class="st4" d="M537.9,690.6l-0.8,1.9H534l4.3-11.1h3.2l4.2,11.1h-3.1l-0.7-1.9H537.9z M539.9,684.9
			L539.9,684.9l-1.2,3.5h2.4L539.9,684.9z"/>
		<path id="XMLID_1271_" class="st4" d="M549.5,690.1h3.5v2.5h-6.4v-11.1h2.9V690.1z"/>
		<path id="XMLID_1269_" class="st4" d="M422.6,701.6v1.9h3.3v2.5h-3.3v1.9h3.4v2.5h-6.3v-11.1h6.3v2.5H422.6z"/>
		<path id="XMLID_1267_" class="st4" d="M430.4,710.3h-2.7V698h2.7V710.3z"/>
		<path id="XMLID_1264_" class="st4" d="M440.5,710.3h-2.7v-0.8h0c-0.5,0.8-1.4,1.1-2.3,1.1c-2.2,0-3.8-1.9-3.8-4c0-2.2,1.6-4,3.8-4
			c0.9,0,1.8,0.3,2.3,1v-0.7h2.7V710.3z M434.4,706.5c0,1,0.6,1.7,1.7,1.7c1.1,0,1.7-0.7,1.7-1.7c0-0.9-0.6-1.7-1.7-1.7
			C435.1,704.8,434.4,705.6,434.4,706.5z"/>
		<path id="XMLID_1261_" class="st4" d="M442.2,698h2.7v5.4c0.6-0.7,1.5-1,2.3-1c2.2,0,3.8,1.9,3.8,4c0,2.2-1.6,4-3.8,4
			c-0.9,0-1.8-0.3-2.3-1.1h0v0.8h-2.7V698z M444.8,706.5c0,1,0.6,1.7,1.7,1.7c1.1,0,1.7-0.7,1.7-1.7c0-0.9-0.6-1.7-1.7-1.7
			C445.4,704.8,444.8,705.6,444.8,706.5z"/>
		<path id="XMLID_1257_" class="st4" d="M460.9,706.5c0,2.6-2.1,4-4.6,4c-2.4,0-4.6-1.4-4.6-4s2.1-4,4.6-4
			C458.8,702.4,460.9,703.9,460.9,706.5z M454.6,706.5c0,1,0.6,1.7,1.7,1.7c1.1,0,1.7-0.7,1.7-1.7c0-0.9-0.6-1.7-1.7-1.7
			C455.2,704.8,454.6,705.6,454.6,706.5z"/>
		<path id="XMLID_1255_" class="st4" d="M464.8,703.9L464.8,703.9c0.5-0.9,1.4-1.3,2.5-1.3h0.5v2.6c-0.4-0.2-0.7-0.3-1.1-0.3
			c-1.5,0-1.9,1-1.9,2.3v3.1h-2.7v-7.6h2.7V703.9z"/>
		<path id="XMLID_1252_" class="st4" d="M477.1,710.3h-2.7v-0.8h0c-0.5,0.8-1.4,1.1-2.3,1.1c-2.2,0-3.8-1.9-3.8-4c0-2.2,1.6-4,3.8-4
			c0.9,0,1.8,0.3,2.3,1v-0.7h2.7V710.3z M471,706.5c0,1,0.6,1.7,1.7,1.7c1.1,0,1.7-0.7,1.7-1.7c0-0.9-0.6-1.7-1.7-1.7
			C471.7,704.8,471,705.6,471,706.5z"/>
		<path id="XMLID_1250_" class="st4" d="M484.3,705.2c-0.4-0.3-0.9-0.5-1.4-0.5c-1,0-1.8,0.8-1.8,1.8c0,1.1,0.8,1.9,1.9,1.9
			c0.5,0,1-0.2,1.3-0.5v2.3c-0.6,0.3-1.2,0.4-1.9,0.4c-2.2,0-4.1-1.7-4.1-4c0-2.4,1.9-4.1,4.2-4.1c0.6,0,1.2,0.1,1.8,0.4V705.2z"/>
		<path id="XMLID_1247_" class="st4" d="M488.8,699.8c0,0.8-0.7,1.5-1.5,1.5c-0.8,0-1.5-0.7-1.5-1.5c0-0.8,0.7-1.5,1.5-1.5
			C488.2,698.3,488.8,699,488.8,699.8z M488.7,710.3H486v-7.6h2.7V710.3z"/>
		<path id="XMLID_1243_" class="st4" d="M499,706.5c0,2.6-2.1,4-4.6,4c-2.4,0-4.6-1.4-4.6-4s2.1-4,4.6-4
			C496.9,702.4,499,703.9,499,706.5z M492.7,706.5c0,1,0.6,1.7,1.7,1.7c1.1,0,1.7-0.7,1.7-1.7c0-0.9-0.6-1.7-1.7-1.7
			C493.4,704.8,492.7,705.6,492.7,706.5z M494.2,701.6l-1.2-0.9l2.1-2.5l1.6,1.2L494.2,701.6z"/>
		<path id="XMLID_1241_" class="st4" d="M502.9,703.7L502.9,703.7c0.6-0.9,1.4-1.2,2.5-1.2c2,0,2.8,1.3,2.8,3.1v4.7h-2.7v-3.7
			c0-0.7,0.1-2-1.2-2c-1.1,0-1.4,0.8-1.4,1.8v3.9h-2.7v-7.6h2.7V703.7z"/>
		<path id="XMLID_1238_" class="st4" d="M520.7,709.4L520.7,709.4c-0.5,0.8-1.4,1.1-2.3,1.1c-2.2,0-3.8-1.9-3.8-4c0-2.2,1.6-4,3.8-4
			c0.9,0,1.8,0.3,2.3,1V698h2.7v12.3h-2.7V709.4z M517.4,706.5c0,1,0.6,1.7,1.7,1.7c1.1,0,1.7-0.7,1.7-1.7c0-0.9-0.6-1.7-1.7-1.7
			C518,704.8,517.4,705.6,517.4,706.5z"/>
		<path id="XMLID_1235_" class="st4" d="M532.9,706.9h-5.7c0,1.1,0.6,1.7,1.7,1.7c0.6,0,1-0.2,1.3-0.7h2.6c-0.2,0.9-0.7,1.5-1.4,2
			c-0.7,0.4-1.6,0.6-2.4,0.6c-2.5,0-4.4-1.4-4.4-4c0-2.5,1.7-4,4.2-4c2.6,0,4.1,1.6,4.1,4.2V706.9z M530.4,705.4
			c-0.1-0.7-0.8-1.2-1.5-1.2c-0.8,0-1.4,0.4-1.6,1.2H530.4z"/>
		<path id="XMLID_1232_" class="st4" d="M548.5,710.3h-3.6l-2.7-4.3h0v4.3h-2.9v-11.1h4.3c2.2,0,3.9,1,3.9,3.4
			c0,1.5-0.9,2.9-2.4,3.1L548.5,710.3z M542.1,704.1h0.3c0.9,0,2-0.2,2-1.4c0-1.2-1.1-1.4-2-1.4h-0.3V704.1z"/>
		<path id="XMLID_1229_" class="st4" d="M552.1,708.3l-0.8,1.9h-3.1l4.3-11.1h3.2l4.2,11.1h-3.1l-0.7-1.9H552.1z M554.1,702.6
			L554.1,702.6l-1.2,3.5h2.4L554.1,702.6z"/>
		<path id="XMLID_1227_" class="st4" d="M562,699.1h2.8l2.3,5.9l2.4-5.9h2.9l1.7,11.1h-2.9l-0.8-6.4h0l-2.7,6.4h-1.2l-2.6-6.4h0
			l-0.9,6.4h-2.9L562,699.1z"/>
		<path id="XMLID_1225_" class="st4" d="M456.6,722.4c-0.4-0.2-1-0.4-1.4-0.4c-0.3,0-0.8,0.1-0.8,0.5c0,0.5,0.8,0.6,1.2,0.7
			c1.3,0.3,2.2,0.8,2.2,2.2c0,2-1.8,2.8-3.6,2.8c-1.1,0-2.1-0.3-3.1-0.9l1-1.9c0.5,0.4,1.5,0.8,2.1,0.8c0.3,0,0.8-0.2,0.8-0.6
			c0-0.6-0.8-0.6-1.7-0.8c-0.8-0.2-1.7-0.6-1.7-2c0-1.9,1.7-2.7,3.3-2.7c0.9,0,1.7,0.1,2.5,0.5L456.6,722.4z"/>
		<path id="XMLID_1222_" class="st4" d="M467,724.6h-5.7c0,1.1,0.6,1.7,1.7,1.7c0.6,0,1-0.2,1.3-0.7h2.6c-0.2,0.9-0.7,1.5-1.4,2
			c-0.7,0.4-1.6,0.6-2.4,0.6c-2.5,0-4.4-1.4-4.4-4c0-2.5,1.7-4,4.2-4c2.6,0,4.1,1.6,4.1,4.2V724.6z M464.5,723.1
			c-0.1-0.7-0.8-1.2-1.5-1.2c-0.8,0-1.4,0.4-1.6,1.2H464.5z"/>
		<path id="XMLID_1220_" class="st4" d="M470.9,728h-2.7v-12.3h2.7V728z"/>
		<path id="XMLID_1218_" class="st4" d="M475.3,728h-2.7v-12.3h2.7V728z"/>
		<path id="XMLID_1215_" class="st4" d="M485.4,728h-2.7v-0.8h0c-0.5,0.8-1.4,1.1-2.3,1.1c-2.2,0-3.8-1.9-3.8-4c0-2.2,1.6-4,3.8-4
			c0.9,0,1.8,0.3,2.3,1v-0.7h2.7V728z M479.3,724.2c0,1,0.6,1.7,1.7,1.7c1.1,0,1.7-0.7,1.7-1.7c0-0.9-0.6-1.7-1.7-1.7
			C480,722.5,479.3,723.3,479.3,724.2z"/>
		<path id="XMLID_1213_" class="st4" d="M491.1,720.4h3.1l2,3.9l2-3.9h3.1l-6.1,11.4h-3l2.6-4.8L491.1,720.4z"/>
		<path id="XMLID_1209_" class="st4" d="M509.8,728h-2.7v-5.4h-0.9v-2.2h0.9v-1c0-1,0-1.8,0.8-2.7c0.7-0.8,1.6-1.2,2.6-1.2
			c0.4,0,0.8,0.1,1.2,0.3v2.3c-0.3-0.1-0.6-0.3-0.9-0.3c-0.7,0-0.9,0.4-0.9,1.3v1.2h1.9v2.2h-1.9V728z M515.4,717.5
			c0,0.8-0.7,1.5-1.5,1.5c-0.8,0-1.5-0.7-1.5-1.5c0-0.8,0.7-1.5,1.5-1.5C514.7,716,515.4,716.7,515.4,717.5z M515.2,728h-2.7v-7.6
			h2.7V728z"/>
		<path id="XMLID_1207_" class="st4" d="M519.7,721.7L519.7,721.7c0.5-0.9,1.4-1.3,2.5-1.3h0.5v2.6c-0.4-0.2-0.7-0.3-1.1-0.3
			c-1.5,0-1.9,1-1.9,2.3v3.1H517v-7.6h2.7V721.7z"/>
		<path id="XMLID_1205_" class="st4" d="M526.4,721.4L526.4,721.4c0.7-0.8,1.4-1.2,2.4-1.2c1.1,0,2,0.4,2.6,1.4
			c0.5-0.9,1.5-1.4,2.6-1.4c1.9,0,2.6,1.3,2.6,3v4.8h-2.7v-3.6c0-0.8,0-2.1-1.1-2.1c-1.2,0-1.3,1.2-1.3,2.1v3.6h-2.7v-3.6
			c0-0.8,0-2.1-1.2-2.1c-1.2,0-1.2,1.3-1.2,2.1v3.6h-2.7v-7.6h2.7V721.4z"/>
		<path id="XMLID_1121_" class="st4" d="M546.6,728h-2.7v-0.8h0c-0.5,0.8-1.4,1.1-2.3,1.1c-2.2,0-3.8-1.9-3.8-4c0-2.2,1.6-4,3.8-4
			c0.9,0,1.8,0.3,2.3,1v-0.7h2.7V728z M540.5,724.2c0,1,0.6,1.7,1.7,1.7c1.1,0,1.7-0.7,1.7-1.7c0-0.9-0.6-1.7-1.7-1.7
			C541.1,722.5,540.5,723.3,540.5,724.2z"/>
	</g>
</g>
<rect id="XMLID_1126_" x="387.1" y="786.5" class="st3" width="223.3" height="101.1"/>
<g id="XMLID_22357_">
	<g>
		<path id="XMLID_1529_" class="st4" d="M439.1,809.4v7.5c0,2.3-1.2,3.9-3.7,3.9c-1.2,0-2.2-0.6-2.9-1.6l1.7-1.8
			c0.3,0.4,0.8,0.9,1.2,0.9c0.9,0,0.8-1,0.8-1.6v-7.3H439.1z"/>
		<path id="XMLID_1527_" class="st4" d="M443.8,811.8v1.9h3.3v2.5h-3.3v1.9h3.4v2.5h-6.3v-11.1h6.3v2.5H443.8z"/>
		<path id="XMLID_1525_" class="st4" d="M451.9,811.8v1.9h3.2v2.5h-3.2v4.4H449v-11.1h6.4v2.5H451.9z"/>
		<path id="XMLID_1523_" class="st4" d="M459.9,811.8v1.9h3.3v2.5h-3.3v1.9h3.4v2.5H457v-11.1h6.3v2.5H459.9z"/>
		<path id="XMLID_1520_" class="st4" d="M470.2,809.4h4.1c3.1,0,5.7,2.4,5.7,5.6s-2.6,5.6-5.7,5.6h-4.1V809.4z M473.1,818.1h0.6
			c1.7,0,3.2-0.9,3.2-3.1c0-2-1.3-3.1-3.2-3.1h-0.7V818.1z"/>
		<path id="XMLID_1518_" class="st4" d="M484.2,811.8v1.9h3.3v2.5h-3.3v1.9h3.4v2.5h-6.3v-11.1h6.3v2.5H484.2z"/>
		<path id="XMLID_1515_" class="st4" d="M494.5,809.4h4.1c3.1,0,5.7,2.4,5.7,5.6s-2.6,5.6-5.7,5.6h-4.1V809.4z M497.4,818.1h0.6
			c1.7,0,3.2-0.9,3.2-3.1c0-2-1.3-3.1-3.2-3.1h-0.7V818.1z"/>
		<path id="XMLID_1513_" class="st4" d="M508.5,820.5h-2.9v-11.1h2.9V820.5z"/>
		<path id="XMLID_1511_" class="st4" d="M515,816.2l2.7-6.8h3.1l-4.8,11.1h-2.2l-4.7-11.1h3.1L515,816.2z"/>
		<path id="XMLID_1509_" class="st4" d="M524.5,820.5h-2.9v-11.1h2.9V820.5z"/>
		<path id="XMLID_1507_" class="st4" d="M532.5,812.3c-0.5-0.4-1.2-0.7-1.9-0.7c-0.5,0-1.2,0.3-1.2,0.9c0,0.6,0.8,0.9,1.3,1.1
			l0.7,0.2c1.6,0.5,2.7,1.2,2.7,3c0,1.1-0.3,2.2-1.2,3c-0.9,0.7-2,1-3.2,1c-1.4,0-2.8-0.5-3.9-1.3l1.2-2.3c0.7,0.6,1.6,1.2,2.6,1.2
			c0.7,0,1.4-0.3,1.4-1.1c0-0.8-1.1-1.1-1.8-1.3c-1.8-0.5-3-1-3-3.1c0-2.3,1.6-3.7,3.8-3.7c1.1,0,2.5,0.4,3.5,0.9L532.5,812.3z"/>
		<path id="XMLID_1505_" class="st4" d="M538.4,820.5h-2.9v-11.1h2.9V820.5z"/>
		<path id="XMLID_1501_" class="st4" d="M552,814.7c0,3.6-2.6,6.1-6.2,6.1c-3.6,0-6.2-2.5-6.2-6.1c0-3.4,3-5.7,6.2-5.7
			C549.1,809,552,811.4,552,814.7z M542.7,814.8c0,1.9,1.4,3.3,3.1,3.3s3.1-1.4,3.1-3.3c0-1.5-1.4-2.9-3.1-2.9
			S542.7,813.2,542.7,814.8z M545.5,808.7l-1.2-0.9l2.1-2.5l1.6,1.2L545.5,808.7z"/>
		<path id="XMLID_1499_" class="st4" d="M553.4,809.4h2.9l5.3,6.8h0v-6.8h2.9v11.1h-2.9l-5.3-6.8h0v6.8h-2.9V809.4z"/>
		<path id="XMLID_1496_" class="st4" d="M440.1,838.2h-3.6l-2.7-4.3h0v4.3h-2.9v-11.1h4.3c2.2,0,3.9,1,3.9,3.4
			c0,1.5-0.9,2.9-2.4,3.1L440.1,838.2z M433.7,832.1h0.3c0.9,0,2-0.2,2-1.4c0-1.2-1.1-1.4-2-1.4h-0.3V832.1z"/>
		<path id="XMLID_1493_" class="st4" d="M448.6,834.9h-5.7c0,1.1,0.6,1.7,1.7,1.7c0.6,0,1-0.2,1.3-0.7h2.6c-0.2,0.9-0.7,1.5-1.4,2
			c-0.7,0.4-1.6,0.6-2.4,0.6c-2.5,0-4.4-1.4-4.4-4c0-2.5,1.7-4,4.2-4c2.6,0,4.1,1.6,4.1,4.2V834.9z M446.1,833.3
			c-0.1-0.7-0.8-1.2-1.5-1.2c-0.8,0-1.4,0.4-1.6,1.2H446.1z"/>
		<path id="XMLID_1491_" class="st4" d="M453.5,834.5l1.8-3.9h3l-4,7.6h-1.7l-4-7.6h3L453.5,834.5z"/>
		<path id="XMLID_1488_" class="st4" d="M461.9,827.8c0,0.8-0.7,1.5-1.5,1.5c-0.8,0-1.5-0.7-1.5-1.5c0-0.8,0.7-1.5,1.5-1.5
			C461.2,826.2,461.9,826.9,461.9,827.8z M461.7,838.2H459v-7.6h2.7V838.2z"/>
		<path id="XMLID_1486_" class="st4" d="M468.5,832.6c-0.4-0.2-1-0.4-1.4-0.4c-0.3,0-0.8,0.1-0.8,0.5c0,0.5,0.8,0.6,1.2,0.7
			c1.3,0.3,2.2,0.8,2.2,2.2c0,2-1.8,2.8-3.6,2.8c-1.1,0-2.1-0.3-3.1-0.9l1-1.9c0.5,0.4,1.5,0.8,2.1,0.8c0.3,0,0.8-0.2,0.8-0.6
			c0-0.6-0.8-0.6-1.7-0.8c-0.8-0.2-1.7-0.6-1.7-2c0-1.9,1.7-2.7,3.3-2.7c0.9,0,1.7,0.1,2.5,0.5L468.5,832.6z"/>
		<path id="XMLID_1483_" class="st4" d="M479.3,838.2h-2.7v-0.8h0c-0.5,0.8-1.4,1.1-2.3,1.1c-2.2,0-3.8-1.9-3.8-4s1.6-4,3.8-4
			c0.9,0,1.8,0.3,2.3,1v-0.7h2.7V838.2z M473.3,834.5c0,1,0.6,1.7,1.7,1.7c1.1,0,1.7-0.7,1.7-1.7c0-0.9-0.6-1.7-1.7-1.7
			C473.9,832.7,473.3,833.5,473.3,834.5z"/>
		<path id="XMLID_1481_" class="st4" d="M488.9,838.2h-2.7V826h2.7V838.2z"/>
		<path id="XMLID_1478_" class="st4" d="M498.9,838.2h-2.7v-0.8h0c-0.5,0.8-1.4,1.1-2.3,1.1c-2.2,0-3.8-1.9-3.8-4s1.6-4,3.8-4
			c0.9,0,1.8,0.3,2.3,1v-0.7h2.7V838.2z M492.9,834.5c0,1,0.6,1.7,1.7,1.7c1.1,0,1.7-0.7,1.7-1.7c0-0.9-0.6-1.7-1.7-1.7
			C493.5,832.7,492.9,833.5,492.9,834.5z"/>
		<path id="XMLID_1476_" class="st4" d="M511.2,833.1c-0.4-0.3-0.9-0.5-1.4-0.5c-1,0-1.8,0.8-1.8,1.8c0,1.1,0.8,1.9,1.9,1.9
			c0.5,0,1-0.2,1.3-0.5v2.3c-0.6,0.3-1.2,0.4-1.9,0.4c-2.2,0-4.1-1.7-4.1-4c0-2.4,1.9-4.1,4.2-4.1c0.6,0,1.2,0.1,1.8,0.4V833.1z"/>
		<path id="XMLID_1473_" class="st4" d="M521.2,838.2h-2.7v-0.8h0c-0.5,0.8-1.4,1.1-2.3,1.1c-2.2,0-3.8-1.9-3.8-4s1.6-4,3.8-4
			c0.9,0,1.8,0.3,2.3,1v-0.7h2.7V838.2z M515.1,834.5c0,1,0.6,1.7,1.7,1.7c1.1,0,1.7-0.7,1.7-1.7c0-0.9-0.6-1.7-1.7-1.7
			C515.8,832.7,515.1,833.5,515.1,834.5z"/>
		<path id="XMLID_1471_" class="st4" d="M525.7,831.9L525.7,831.9c0.5-0.9,1.4-1.3,2.5-1.3h0.5v2.6c-0.4-0.2-0.7-0.3-1.1-0.3
			c-1.5,0-1.9,1-1.9,2.3v3.1H523v-7.6h2.7V831.9z"/>
		<path id="XMLID_1468_" class="st4" d="M532.3,831.5L532.3,831.5c0.5-0.8,1.4-1.1,2.3-1.1c2.3,0,3.8,1.9,3.8,4.1c0,2.2-1.6,4-3.8,4
			c-0.9,0-1.8-0.3-2.3-1v4.5h-2.7v-11.4h2.7V831.5z M532.2,834.5c0,1,0.6,1.7,1.7,1.7c1.1,0,1.7-0.7,1.7-1.7c0-0.9-0.6-1.7-1.7-1.7
			C532.8,832.7,532.2,833.5,532.2,834.5z"/>
		<path id="XMLID_1465_" class="st4" d="M547.5,834.9h-5.7c0,1.1,0.6,1.7,1.7,1.7c0.6,0,1-0.2,1.3-0.7h2.6c-0.2,0.9-0.7,1.5-1.4,2
			c-0.7,0.4-1.6,0.6-2.4,0.6c-2.5,0-4.4-1.4-4.4-4c0-2.5,1.7-4,4.2-4c2.6,0,4.1,1.6,4.1,4.2V834.9z M545,833.3
			c-0.1-0.7-0.8-1.2-1.5-1.2c-0.8,0-1.4,0.4-1.6,1.2H545z"/>
		<path id="XMLID_1463_" class="st4" d="M551.7,838.2H549v-5.4h-0.9v-2.2h0.9v-2.3h2.7v2.3h1.5v2.2h-1.5V838.2z"/>
		<path id="XMLID_1460_" class="st4" d="M562.3,838.2h-2.7v-0.8h0c-0.5,0.8-1.4,1.1-2.3,1.1c-2.2,0-3.8-1.9-3.8-4s1.6-4,3.8-4
			c0.9,0,1.8,0.3,2.3,1v-0.7h2.7V838.2z M556.3,834.5c0,1,0.6,1.7,1.7,1.7c1.1,0,1.7-0.7,1.7-1.7c0-0.9-0.6-1.7-1.7-1.7
			C556.9,832.7,556.3,833.5,556.3,834.5z"/>
		<path id="XMLID_1458_" class="st4" d="M568,835.4l-2.7,4.9h-1.7l1.9-4.9H568z"/>
		<path id="XMLID_1455_" class="st4" d="M440.4,856h-3.6l-2.7-4.3h0v4.3h-2.9v-11.1h4.3c2.2,0,3.9,1,3.9,3.4c0,1.5-0.9,2.9-2.4,3.1
			L440.4,856z M434,849.8h0.3c0.9,0,2-0.2,2-1.4c0-1.2-1.1-1.4-2-1.4H434V849.8z"/>
		<path id="XMLID_1452_" class="st4" d="M444,854l-0.8,1.9h-3.1l4.3-11.1h3.2l4.2,11.1h-3.1L448,854H444z M446,848.3L446,848.3
			l-1.2,3.5h2.4L446,848.3z"/>
		<path id="XMLID_1450_" class="st4" d="M453.9,844.8h2.8l2.3,5.9l2.4-5.9h2.9L466,856h-2.9l-0.8-6.4h0l-2.7,6.4h-1.2l-2.6-6.4h0
			l-0.9,6.4H452L453.9,844.8z"/>
		<path id="XMLID_1448_" class="st4" d="M477.2,850.3c-0.4-0.2-1-0.4-1.4-0.4c-0.3,0-0.8,0.1-0.8,0.5c0,0.5,0.8,0.6,1.2,0.7
			c1.3,0.3,2.2,0.8,2.2,2.2c0,2-1.8,2.8-3.6,2.8c-1.1,0-2.1-0.3-3.1-0.9l1-1.9c0.5,0.4,1.5,0.8,2.1,0.8c0.3,0,0.8-0.2,0.8-0.6
			c0-0.6-0.8-0.6-1.7-0.8c-0.8-0.2-1.7-0.6-1.7-2c0-1.9,1.7-2.7,3.3-2.7c0.9,0,1.7,0.1,2.5,0.5L477.2,850.3z"/>
		<path id="XMLID_1445_" class="st4" d="M487.5,852.6h-5.7c0,1.1,0.6,1.7,1.7,1.7c0.6,0,1-0.2,1.3-0.7h2.6c-0.2,0.9-0.7,1.5-1.4,2
			c-0.7,0.4-1.6,0.6-2.4,0.6c-2.5,0-4.4-1.4-4.4-4c0-2.5,1.7-4,4.2-4c2.6,0,4.1,1.6,4.1,4.2V852.6z M485,851.1
			c-0.1-0.7-0.8-1.2-1.5-1.2c-0.8,0-1.4,0.4-1.6,1.2H485z"/>
		<path id="XMLID_1443_" class="st4" d="M491.5,856h-2.7v-12.3h2.7V856z"/>
		<path id="XMLID_1441_" class="st4" d="M495.9,856h-2.7v-12.3h2.7V856z"/>
		<path id="XMLID_1438_" class="st4" d="M506,856h-2.7v-0.8h0c-0.5,0.8-1.4,1.1-2.3,1.1c-2.2,0-3.8-1.9-3.8-4s1.6-4,3.8-4
			c0.9,0,1.8,0.3,2.3,1v-0.7h2.7V856z M499.9,852.2c0,1,0.6,1.7,1.7,1.7c1.1,0,1.7-0.7,1.7-1.7c0-0.9-0.6-1.7-1.7-1.7
			C500.5,850.5,499.9,851.2,499.9,852.2z"/>
		<path id="XMLID_1436_" class="st4" d="M511.7,848.4h3.1l2,3.9l2-3.9h3.1l-6.1,11.4h-3l2.6-4.8L511.7,848.4z"/>
		<path id="XMLID_1432_" class="st4" d="M530.4,856h-2.7v-5.4h-0.9v-2.2h0.9v-1c0-1,0-1.8,0.8-2.7c0.7-0.8,1.6-1.2,2.6-1.2
			c0.4,0,0.8,0.1,1.2,0.3v2.3c-0.3-0.1-0.6-0.3-0.9-0.3c-0.7,0-0.9,0.4-0.9,1.3v1.2h1.9v2.2h-1.9V856z M535.9,845.5
			c0,0.8-0.7,1.5-1.5,1.5c-0.8,0-1.5-0.7-1.5-1.5c0-0.8,0.7-1.5,1.5-1.5C535.3,844,535.9,844.6,535.9,845.5z M535.8,856h-2.7v-7.6
			h2.7V856z"/>
		<path id="XMLID_1430_" class="st4" d="M540.2,849.6L540.2,849.6c0.5-0.9,1.4-1.3,2.5-1.3h0.5v2.6c-0.4-0.2-0.7-0.3-1.1-0.3
			c-1.5,0-1.9,1-1.9,2.3v3.1h-2.7v-7.6h2.7V849.6z"/>
		<path id="XMLID_1428_" class="st4" d="M546.9,849.3L546.9,849.3c0.7-0.8,1.4-1.2,2.4-1.2c1.1,0,2,0.4,2.6,1.4
			c0.5-0.9,1.5-1.4,2.6-1.4c1.9,0,2.6,1.3,2.6,3v4.8h-2.7v-3.6c0-0.8,0-2.1-1.1-2.1c-1.2,0-1.3,1.2-1.3,2.1v3.6h-2.7v-3.6
			c0-0.8,0-2.1-1.2-2.1c-1.2,0-1.2,1.3-1.2,2.1v3.6h-2.7v-7.6h2.7V849.3z"/>
		<path id="XMLID_1425_" class="st4" d="M567.1,856h-2.7v-0.8h0c-0.5,0.8-1.4,1.1-2.3,1.1c-2.2,0-3.8-1.9-3.8-4s1.6-4,3.8-4
			c0.9,0,1.8,0.3,2.3,1v-0.7h2.7V856z M561.1,852.2c0,1,0.6,1.7,1.7,1.7c1.1,0,1.7-0.7,1.7-1.7c0-0.9-0.6-1.7-1.7-1.7
			C561.7,850.5,561.1,851.2,561.1,852.2z"/>
	</g>
</g>
<rect id="XMLID_1124_" x="387.1" y="917.6" class="st3" width="223.3" height="101.1"/>
<g id="XMLID_22278_">
	<g>
		<path id="XMLID_978_" class="st4" d="M457.5,958.7c-0.5-0.4-1.2-0.7-1.9-0.7c-0.5,0-1.2,0.3-1.2,0.9c0,0.6,0.8,0.9,1.3,1.1
			l0.7,0.2c1.6,0.5,2.7,1.2,2.7,3c0,1.1-0.3,2.2-1.2,3c-0.9,0.7-2,1-3.2,1c-1.4,0-2.8-0.5-3.9-1.3l1.2-2.3c0.7,0.6,1.6,1.2,2.6,1.2
			c0.7,0,1.4-0.3,1.4-1.1c0-0.8-1.1-1.1-1.8-1.3c-1.8-0.5-3-1-3-3.1c0-2.3,1.6-3.7,3.8-3.7c1.1,0,2.5,0.4,3.5,0.9L457.5,958.7z"/>
		<path id="XMLID_976_" class="st4" d="M470.2,955.8v6.3c0,1.4-0.1,2.8-1.2,3.9c-0.9,0.9-2.4,1.2-3.7,1.2c-1.3,0-2.8-0.3-3.7-1.2
			c-1.1-1.1-1.2-2.5-1.2-3.9v-6.3h2.9v5.9c0,1.4,0.1,3,2,3c1.9,0,2-1.6,2-3v-5.9H470.2z"/>
		<path id="XMLID_972_" class="st4" d="M472,966.9v-11.1h4.1c2,0,3.3,0.8,3.3,2.9c0,1-0.3,1.8-1.2,2.3v0c1.6,0.2,2.3,1.3,2.3,2.8
			c0,2.3-2,3.1-4,3.1H472z M474.9,960.2h0.3c0.8,0,1.6-0.1,1.6-1.1c0-1-0.9-1.1-1.7-1.1h-0.2V960.2z M474.9,964.7h0.4
			c0.9,0,2.3,0,2.3-1.2c0-1.3-1.4-1.2-2.4-1.2h-0.3V964.7z"/>
		<path id="XMLID_969_" class="st4" d="M484.8,965l-0.8,1.9H481l4.3-11.1h3.2l4.2,11.1h-3.1l-0.7-1.9H484.8z M486.9,959.2
			L486.9,959.2l-1.2,3.5h2.4L486.9,959.2z"/>
		<path id="XMLID_967_" class="st4" d="M496.4,964.5h3.5v2.5h-6.4v-11.1h2.9V964.5z"/>
		<path id="XMLID_965_" class="st4" d="M508.8,959.5c-0.6-0.8-1.6-1.2-2.5-1.2c-1.8,0-3,1.4-3,3.1c0,1.8,1.2,3,3,3
			c0.9,0,1.9-0.5,2.5-1.2v3.5c-1,0.3-1.7,0.5-2.6,0.5c-1.6,0-3-0.6-4.2-1.6c-1.2-1.1-1.8-2.6-1.8-4.2c0-1.5,0.6-3,1.6-4.1
			c1.1-1.1,2.7-1.8,4.2-1.8c0.9,0,1.8,0.2,2.6,0.6V959.5z"/>
		<path id="XMLID_962_" class="st4" d="M513.4,965l-0.8,1.9h-3.1l4.3-11.1h3.2l4.2,11.1h-3.1l-0.7-1.9H513.4z M515.4,959.2
			L515.4,959.2l-1.2,3.5h2.4L515.4,959.2z"/>
		<path id="XMLID_960_" class="st4" d="M525,964.5h3.5v2.5h-6.4v-11.1h2.9V964.5z"/>
		<path id="XMLID_957_" class="st4" d="M529.4,955.8h4.1c3.1,0,5.7,2.4,5.7,5.6c0,3.1-2.6,5.6-5.7,5.6h-4.1V955.8z M532.3,964.5h0.6
			c1.7,0,3.2-0.9,3.2-3.1c0-2-1.3-3.1-3.2-3.1h-0.7V964.5z"/>
		<path id="XMLID_955_" class="st4" d="M543.4,958.2v1.9h3.3v2.5h-3.3v1.9h3.4v2.5h-6.3v-11.1h6.3v2.5H543.4z"/>
		<path id="XMLID_952_" class="st4" d="M402.4,982.7l-0.8,1.9h-3.1l4.3-11.1h3.2l4.2,11.1h-3.1l-0.7-1.9H402.4z M404.4,976.9
			L404.4,976.9l-1.2,3.5h2.4L404.4,976.9z"/>
		<path id="XMLID_949_" class="st4" d="M413.6,977.9L413.6,977.9c0.5-0.8,1.4-1.1,2.3-1.1c2.3,0,3.8,1.9,3.8,4.1c0,2.2-1.6,4-3.8,4
			c-0.9,0-1.8-0.3-2.3-1v4.5h-2.7v-11.4h2.7V977.9z M413.5,980.9c0,1,0.6,1.7,1.7,1.7c1.1,0,1.7-0.7,1.7-1.7c0-0.9-0.6-1.7-1.7-1.7
			C414.2,979.1,413.5,979.9,413.5,980.9z"/>
		<path id="XMLID_941_" class="st4" d="M423.8,978.3L423.8,978.3c0.5-0.9,1.4-1.3,2.5-1.3h0.5v2.6c-0.4-0.2-0.7-0.3-1.1-0.3
			c-1.5,0-1.9,1-1.9,2.3v3.1h-2.7v-7.6h2.7V978.3z"/>
		<path id="XMLID_938_" class="st4" d="M436.1,980.9c0,2.6-2.1,4-4.6,4c-2.4,0-4.6-1.4-4.6-4s2.1-4,4.6-4
			C434,976.8,436.1,978.3,436.1,980.9z M429.8,980.9c0,1,0.6,1.7,1.7,1.7c1.1,0,1.7-0.7,1.7-1.7c0-0.9-0.6-1.7-1.7-1.7
			C430.4,979.1,429.8,979.9,429.8,980.9z"/>
		<path id="XMLID_935_" class="st4" d="M437.2,972.4h2.7v5.4c0.6-0.7,1.5-1,2.3-1c2.2,0,3.8,1.9,3.8,4c0,2.2-1.6,4-3.8,4
			c-0.9,0-1.8-0.3-2.3-1.1h0v0.8h-2.7V972.4z M439.8,980.9c0,1,0.6,1.7,1.7,1.7c1.1,0,1.7-0.7,1.7-1.7c0-0.9-0.6-1.7-1.7-1.7
			C440.4,979.1,439.8,979.9,439.8,980.9z"/>
		<path id="XMLID_931_" class="st4" d="M455.6,984.6H453v-0.8h0c-0.5,0.8-1.4,1.1-2.3,1.1c-2.2,0-3.8-1.9-3.8-4s1.6-4,3.8-4
			c0.9,0,1.8,0.3,2.3,1v-0.7h2.7V984.6z M449.6,980.9c0,1,0.6,1.7,1.7,1.7c1.1,0,1.7-0.7,1.7-1.7c0-0.9-0.6-1.7-1.7-1.7
			C450.2,979.1,449.6,979.9,449.6,980.9z"/>
		<path id="XMLID_929_" class="st4" d="M462.9,979.5c-0.4-0.3-0.9-0.5-1.4-0.5c-1,0-1.8,0.8-1.8,1.8c0,1.1,0.8,1.9,1.9,1.9
			c0.5,0,1-0.2,1.3-0.5v2.3c-0.6,0.3-1.2,0.4-1.9,0.4c-2.2,0-4.1-1.7-4.1-4c0-2.4,1.9-4.1,4.2-4.1c0.6,0,1.2,0.1,1.8,0.4V979.5z"/>
		<path id="XMLID_926_" class="st4" d="M467.4,974.2c0,0.8-0.7,1.5-1.5,1.5c-0.8,0-1.5-0.7-1.5-1.5c0-0.8,0.7-1.5,1.5-1.5
			C466.7,972.6,467.4,973.3,467.4,974.2z M467.2,984.6h-2.7v-7.6h2.7V984.6z"/>
		<path id="XMLID_922_" class="st4" d="M477.6,980.9c0,2.6-2.1,4-4.6,4c-2.4,0-4.6-1.4-4.6-4s2.1-4,4.6-4
			C475.4,976.8,477.6,978.3,477.6,980.9z M471.3,980.9c0,1,0.6,1.7,1.7,1.7c1.1,0,1.7-0.7,1.7-1.7c0-0.9-0.6-1.7-1.7-1.7
			C471.9,979.1,471.3,979.9,471.3,980.9z M472.7,975.9l-1.2-0.9l2.1-2.5l1.6,1.2L472.7,975.9z"/>
		<path id="XMLID_920_" class="st4" d="M481.5,978L481.5,978c0.6-0.9,1.4-1.2,2.5-1.2c2,0,2.8,1.3,2.8,3.1v4.7h-2.7v-3.7
			c0-0.7,0.1-2-1.2-2c-1.1,0-1.4,0.8-1.4,1.8v3.9h-2.7v-7.6h2.7V978z"/>
		<path id="XMLID_916_" class="st4" d="M496.5,984.6h-2.7v-5.4h-0.9v-2.2h0.9v-1c0-1,0-1.8,0.8-2.7c0.7-0.8,1.6-1.2,2.6-1.2
			c0.4,0,0.8,0.1,1.2,0.3v2.3c-0.3-0.1-0.6-0.3-0.9-0.3c-0.7,0-0.9,0.4-0.9,1.3v1.2h1.9v2.2h-1.9V984.6z M502,974.2
			c0,0.8-0.7,1.5-1.5,1.5c-0.8,0-1.5-0.7-1.5-1.5c0-0.8,0.7-1.5,1.5-1.5C501.3,972.6,502,973.3,502,974.2z M501.9,984.6h-2.7v-7.6
			h2.7V984.6z"/>
		<path id="XMLID_914_" class="st4" d="M506.3,978.3L506.3,978.3c0.5-0.9,1.4-1.3,2.5-1.3h0.5v2.6c-0.4-0.2-0.7-0.3-1.1-0.3
			c-1.5,0-1.9,1-1.9,2.3v3.1h-2.7v-7.6h2.7V978.3z"/>
		<path id="XMLID_912_" class="st4" d="M513,978L513,978c0.7-0.8,1.4-1.2,2.4-1.2c1.1,0,2,0.4,2.6,1.4c0.5-0.9,1.5-1.4,2.6-1.4
			c1.9,0,2.6,1.3,2.6,3v4.8h-2.7V981c0-0.8,0-2.1-1.1-2.1c-1.2,0-1.3,1.2-1.3,2.1v3.6h-2.7V981c0-0.8,0-2.1-1.2-2.1
			c-1.2,0-1.2,1.3-1.2,2.1v3.6h-2.7v-7.6h2.7V978z"/>
		<path id="XMLID_909_" class="st4" d="M533.2,984.6h-2.7v-0.8h0c-0.5,0.8-1.4,1.1-2.3,1.1c-2.2,0-3.8-1.9-3.8-4s1.6-4,3.8-4
			c0.9,0,1.8,0.3,2.3,1v-0.7h2.7V984.6z M527.1,980.9c0,1,0.6,1.7,1.7,1.7c1.1,0,1.7-0.7,1.7-1.7c0-0.9-0.6-1.7-1.7-1.7
			C527.8,979.1,527.1,979.9,527.1,980.9z"/>
		<path id="XMLID_907_" class="st4" d="M538.9,977.1h3.1l2,3.9l2-3.9h3.1l-6.1,11.4h-3l2.6-4.8L538.9,977.1z"/>
		<path id="XMLID_905_" class="st4" d="M559.8,979c-0.4-0.2-1-0.4-1.4-0.4c-0.3,0-0.8,0.1-0.8,0.5c0,0.5,0.8,0.6,1.2,0.7
			c1.3,0.3,2.2,0.8,2.2,2.2c0,2-1.8,2.8-3.6,2.8c-1.1,0-2.1-0.3-3.1-0.9l1-1.9c0.5,0.4,1.5,0.8,2.1,0.8c0.3,0,0.8-0.2,0.8-0.6
			c0-0.6-0.8-0.6-1.7-0.8c-0.8-0.2-1.7-0.6-1.7-2c0-1.9,1.7-2.7,3.3-2.7c0.9,0,1.7,0.1,2.5,0.5L559.8,979z"/>
		<path id="XMLID_902_" class="st4" d="M570.1,981.3h-5.7c0,1.1,0.6,1.7,1.7,1.7c0.6,0,1-0.2,1.3-0.7h2.6c-0.2,0.9-0.7,1.5-1.4,2
			c-0.7,0.4-1.6,0.6-2.4,0.6c-2.5,0-4.4-1.4-4.4-4c0-2.5,1.7-4,4.2-4c2.6,0,4.1,1.6,4.1,4.2V981.3z M567.6,979.7
			c-0.1-0.7-0.8-1.2-1.5-1.2c-0.8,0-1.4,0.4-1.6,1.2H567.6z"/>
		<path id="XMLID_900_" class="st4" d="M574,984.6h-2.7v-12.3h2.7V984.6z"/>
		<path id="XMLID_898_" class="st4" d="M578.5,984.6h-2.7v-12.3h2.7V984.6z"/>
		<path id="XMLID_895_" class="st4" d="M588.5,984.6h-2.7v-0.8h0c-0.5,0.8-1.4,1.1-2.3,1.1c-2.2,0-3.8-1.9-3.8-4s1.6-4,3.8-4
			c0.9,0,1.8,0.3,2.3,1v-0.7h2.7V984.6z M582.5,980.9c0,1,0.6,1.7,1.7,1.7c1.1,0,1.7-0.7,1.7-1.7c0-0.9-0.6-1.7-1.7-1.7
			C583.1,979.1,582.5,979.9,582.5,980.9z"/>
	</g>
</g>
<polygon id="XMLID_1119_" class="st5" points="390.3,50.5 380.9,56 371.5,61.4 371.5,50.5 371.5,39.7 380.9,45.1 "/>
<polygon id="XMLID_1118_" class="st5" points="497.1,135.6 491.6,126.2 486.2,116.8 497.1,116.8 507.9,116.8 502.5,126.2 "/>
<polygon id="XMLID_1117_" class="st5" points="610.3,183.7 619.7,178.2 629.2,172.8 629.2,183.7 629.2,194.5 619.7,189.1 "/>
<polygon id="XMLID_1116_" class="st5" points="610.3,50.5 619.7,45.1 629.2,39.7 629.2,50.5 629.2,61.4 619.7,56 "/>
<polygon id="XMLID_1115_" class="st5" points="610.3,312.7 619.7,307.3 629.2,301.8 629.2,312.7 629.2,323.6 619.7,318.1 "/>
<polygon id="XMLID_1114_" class="st5" points="663.2,183.7 653.8,189.1 644.4,194.5 644.4,183.7 644.4,172.8 653.8,178.2 "/>
<polygon id="XMLID_1113_" class="st5" points="775,126.2 769.6,116.8 764.1,107.4 775,107.4 785.9,107.4 780.4,116.8 "/>
<polygon id="XMLID_1112_" class="st5" points="775,237.8 780.4,247.2 785.9,256.6 775,256.6 764.1,256.6 769.6,247.2 "/>
<polygon id="XMLID_1111_" class="st5" points="497.1,266 491.6,256.6 486.2,247.2 497.1,247.2 507.9,247.2 502.5,256.6 "/>
<polygon id="XMLID_1110_" class="st5" points="497.1,396.4 491.6,387 486.2,377.6 497.1,377.6 507.9,377.6 502.5,387 "/>
<polygon id="XMLID_1109_" class="st5" points="497.1,526.8 491.6,517.4 486.2,508 497.1,508 507.9,508 502.5,517.4 "/>
<polygon id="XMLID_1107_" class="st5" points="497.1,657.3 491.6,647.8 486.2,638.4 497.1,638.4 507.9,638.4 502.5,647.8 "/>
<polygon id="XMLID_1105_" class="st5" points="497.1,787.7 491.6,778.2 486.2,768.8 497.1,768.8 507.9,768.8 502.5,778.2 "/>
<polygon id="XMLID_69_" class="st5" points="497.1,918.1 491.6,908.6 486.2,899.2 497.1,899.2 507.9,899.2 502.5,908.6 "/>
<polygon id="XMLID_65_" class="st5" points="210.3,609.5 204.8,600.1 199.4,590.7 210.3,590.7 221.1,590.7 215.7,600.1 "/>
<polygon id="XMLID_63_" class="st5" points="210.3,712.9 215.7,722.4 221.1,731.8 210.3,731.8 199.4,731.8 204.8,722.4 "/>
<line id="XMLID_61_" class="st0" x1="210.3" y1="505.6" x2="210.3" y2="606.9"/>
<polyline id="XMLID_60_" class="st0" points="210.3,722.4 210.3,968.1 387.1,968.1 "/>
<polyline id="XMLID_59_" class="st0" points="321.9,661.4 354.1,661.4 354.1,50 387.1,50 "/>
<line id="XMLID_58_" class="st0" x1="615.7" y1="183.7" x2="655.9" y2="183.7"/>
<polyline id="XMLID_57_" class="st0" points="619.7,50.5 775,50.5 775,120.1 "/>
<polyline id="XMLID_56_" class="st0" points="775,242.3 775,312.7 623.9,312.7 "/>
</svg>
