<?xml version="1.0" encoding="utf-8"?>
<!-- Generator: Adobe Illustrator 21.0.2, SVG Export Plug-In . SVG Version: 6.00 Build 0)  -->
<svg version="1.1" id="Layer_1" xmlns="http://www.w3.org/2000/svg" xmlns:xlink="http://www.w3.org/1999/xlink" x="0px" y="0px"
	 viewBox="0 0 998.6 841" style="enable-background:new 0 0 998.6 841;" xml:space="preserve">
<style type="text/css">
	.st0{fill:none;stroke:#E42527;stroke-width:4;stroke-miterlimit:10;}
	.st1{fill:#929191;}
	.st2{fill:#9D9D9C;}
	.st3{fill:#FFFFFF;}
	.st4{fill:#E42527;}
</style>
<line id="XMLID_6526_" class="st0" x1="274.2" y1="138.3" x2="274.2" y2="757.3"/>
<rect id="XMLID_6525_" x="545.8" y="205.7" class="st1" width="354.2" height="160.4"/>
<rect id="XMLID_6524_" x="99.7" y="-2.2" class="st2" width="354.2" height="160.4"/>
<g id="XMLID_17685_">
	<g>
		<path id="XMLID_240_" class="st3" d="M627,283.7c-0.9-1.3-2.5-1.9-4-1.9c-2.8,0-4.7,2.2-4.7,4.9c0,2.8,1.9,4.8,4.8,4.8
			c1.5,0,3-0.7,4-1.9v5.5c-1.5,0.5-2.6,0.8-4.1,0.8c-2.5,0-4.8-0.9-6.6-2.6c-1.9-1.8-2.8-4.1-2.8-6.7c0-2.4,0.9-4.7,2.6-6.5
			c1.7-1.8,4.2-2.9,6.7-2.9c1.5,0,2.8,0.3,4.2,0.9V283.7z"/>
		<path id="XMLID_237_" class="st3" d="M648.5,286.3c0,5.7-4.1,9.7-9.8,9.7c-5.7,0-9.8-4-9.8-9.7c0-5.3,4.7-9.1,9.8-9.1
			S648.5,280.9,648.5,286.3z M633.7,286.3c0,3,2.2,5.3,5,5.3c2.7,0,5-2.2,5-5.3c0-2.4-2.2-4.7-5-4.7
			C636,281.6,633.7,283.9,633.7,286.3z"/>
		<path id="XMLID_235_" class="st3" d="M650.6,277.8h4.6l8.4,10.8h0v-10.8h4.6v17.7h-4.6l-8.4-10.8h0v10.8h-4.6V277.8z"/>
		<path id="XMLID_233_" class="st3" d="M678.3,295.4h-4.6v-13.8h-3.8v-3.9h12.2v3.9h-3.8V295.4z"/>
		<path id="XMLID_230_" class="st3" d="M698.4,295.4h-5.7l-4.3-6.8h0v6.8h-4.6v-17.7h6.9c3.5,0,6.1,1.7,6.1,5.4c0,2.4-1.4,4.5-3.9,5
			L698.4,295.4z M688.3,285.7h0.4c1.5,0,3.2-0.3,3.2-2.2c0-1.9-1.7-2.2-3.2-2.2h-0.4V285.7z"/>
		<path id="XMLID_228_" class="st3" d="M704.2,295.4h-4.6v-17.7h4.6V295.4z"/>
		<path id="XMLID_224_" class="st3" d="M707.2,295.4v-17.7h6.6c3.1,0,5.2,1.2,5.2,4.6c0,1.6-0.5,2.9-1.9,3.6v0
			c2.5,0.3,3.6,2,3.6,4.5c0,3.7-3.2,4.9-6.4,4.9H707.2z M711.8,284.7h0.5c1.2,0,2.5-0.2,2.5-1.7c0-1.6-1.4-1.7-2.7-1.7h-0.3V284.7z
			 M711.8,291.9h0.6c1.4,0,3.7,0.1,3.7-1.9c0-2.1-2.3-1.9-3.8-1.9h-0.5V291.9z"/>
		<path id="XMLID_222_" class="st3" d="M738.4,277.8v9.9c0,2.3-0.1,4.5-1.9,6.2c-1.5,1.5-3.8,2-5.9,2c-2.1,0-4.4-0.5-5.9-2
			c-1.8-1.7-1.9-4-1.9-6.2v-9.9h4.6v9.3c0,2.3,0.2,4.8,3.1,4.8c3,0,3.1-2.5,3.1-4.8v-9.3H738.4z"/>
		<path id="XMLID_220_" class="st3" d="M739.4,277.8h5.5l3.3,4.8l3.3-4.8h5.5l-6.5,9.2v8.5h-4.6V287L739.4,277.8z"/>
		<path id="XMLID_218_" class="st3" d="M762.6,281.7v3h5.2v3.9h-5.2v3h5.5v3.9h-10v-17.7h10v3.9H762.6z"/>
		<path id="XMLID_216_" class="st3" d="M770.9,277.8h4.6l8.4,10.8h0v-10.8h4.6v17.7H784l-8.4-10.8h0v10.8h-4.6V277.8z"/>
		<path id="XMLID_214_" class="st3" d="M798.6,295.4H794v-13.8h-3.8v-3.9h12.2v3.9h-3.8V295.4z"/>
		<path id="XMLID_212_" class="st3" d="M808.6,281.7v3h5.2v3.9h-5.2v3h5.5v3.9h-10v-17.7h10v3.9H808.6z"/>
	</g>
</g>
<g id="XMLID_17650_">
	<g>
		<path id="XMLID_302_" class="st3" d="M163,71l4.3-10.7h5l-7.5,17.7h-3.6l-7.4-17.7h5L163,71z"/>
		<path id="XMLID_300_" class="st3" d="M178,64.2v3h5.2V71H178v3h5.5v3.9h-10V60.3h10v3.9H178z"/>
		<path id="XMLID_298_" class="st3" d="M186.3,60.3h4.6l8.4,10.8h0V60.3h4.6v17.7h-4.6L191,67.1h0v10.8h-4.6V60.3z"/>
		<path id="XMLID_296_" class="st3" d="M214,77.9h-4.6V64.2h-3.8v-3.9h12.2v3.9H214V77.9z"/>
		<path id="XMLID_293_" class="st3" d="M222.5,74.9l-1.2,3.1h-4.9l6.8-17.7h5l6.7,17.7H230l-1.1-3.1H222.5z M225.7,65.7L225.7,65.7
			l-1.9,5.6h3.8L225.7,65.7z"/>
		<path id="XMLID_291_" class="st3" d="M236.3,60.3h4.6l8.4,10.8h0V60.3h4.6v17.7h-4.6L241,67.1h0v10.8h-4.6V60.3z"/>
		<path id="XMLID_289_" class="st3" d="M261.6,77.9H257V60.3h4.6V77.9z"/>
		<path id="XMLID_287_" class="st3" d="M269.1,74.1h5.5v3.9h-10.1V60.3h4.6V74.1z"/>
		<path id="XMLID_285_" class="st3" d="M280.7,74.1h5.5v3.9h-10.1V60.3h4.6V74.1z"/>
		<path id="XMLID_282_" class="st3" d="M292.2,74.9l-1.2,3.1h-4.9l6.8-17.7h5l6.7,17.7h-4.9l-1.1-3.1H292.2z M295.4,65.7L295.4,65.7
			l-1.9,5.6h3.8L295.4,65.7z"/>
		<path id="XMLID_279_" class="st3" d="M329.4,60.3v9.9c0,2.3-0.1,4.5-1.9,6.2c-1.5,1.5-3.8,2-5.9,2c-2.1,0-4.4-0.5-5.9-2
			c-1.8-1.7-1.9-4-1.9-6.2v-9.9h4.6v9.3c0,2.3,0.2,4.8,3.1,4.8c3,0,3.1-2.5,3.1-4.8v-9.3H329.4z M321.1,59.2l-1.9-1.4l3.3-4l2.6,1.9
			L321.1,59.2z"/>
		<path id="XMLID_277_" class="st3" d="M332.3,60.3h4.6l8.4,10.8h0V60.3h4.6v17.7h-4.6l-8.4-10.8h0v10.8h-4.6V60.3z"/>
		<path id="XMLID_273_" class="st3" d="M357.5,77.9h-4.6V60.3h4.6V77.9z"/>
		<path id="XMLID_271_" class="st3" d="M373.1,66.2c-0.9-1.3-2.5-1.9-4-1.9c-2.8,0-4.7,2.2-4.7,4.9c0,2.8,1.9,4.8,4.8,4.8
			c1.5,0,3-0.7,4-1.9v5.5c-1.5,0.5-2.6,0.8-4.1,0.8c-2.5,0-4.8-0.9-6.6-2.6c-1.9-1.8-2.8-4.1-2.8-6.7c0-2.4,0.9-4.7,2.6-6.5
			c1.7-1.8,4.2-2.9,6.7-2.9c1.5,0,2.8,0.3,4.2,0.9V66.2z"/>
		<path id="XMLID_268_" class="st3" d="M380.5,74.9l-1.2,3.1h-4.9l6.8-17.7h5l6.7,17.7h-4.9l-1.1-3.1H380.5z M383.7,65.7L383.7,65.7
			l-1.9,5.6h3.8L383.7,65.7z"/>
	</g>
</g>
<rect id="XMLID_6521_" x="99.7" y="205.7" class="st2" width="354.2" height="160.4"/>
<rect id="XMLID_6520_" x="99.7" y="413.7" class="st2" width="354.2" height="160.4"/>
<g id="XMLID_17605_">
	<g>
		<path id="XMLID_418_" class="st3" d="M260.4,262.2c-0.9-1.3-2.5-1.9-4-1.9c-2.8,0-4.7,2.2-4.7,4.9c0,2.8,1.9,4.8,4.8,4.8
			c1.5,0,3-0.7,4-1.9v5.5c-1.5,0.5-2.6,0.8-4.1,0.8c-2.5,0-4.8-0.9-6.6-2.6c-1.9-1.8-2.8-4.1-2.8-6.7c0-2.4,0.9-4.7,2.6-6.5
			c1.7-1.8,4.2-2.9,6.7-2.9c1.5,0,2.8,0.3,4.2,0.9V262.2z"/>
		<path id="XMLID_415_" class="st3" d="M267.8,270.9l-1.2,3.1h-4.9l6.8-17.7h5l6.7,17.7h-4.9l-1.1-3.1H267.8z M271,261.8L271,261.8
			l-1.9,5.6h3.8L271,261.8z"/>
		<path id="XMLID_413_" class="st3" d="M290.1,256.3v11.9c0,3.7-1.9,6.2-5.9,6.2c-2,0-3.5-1-4.5-2.6l2.6-2.8
			c0.5,0.7,1.2,1.5,1.9,1.5c1.4,0,1.3-1.6,1.3-2.6v-11.6H290.1z"/>
		<path id="XMLID_410_" class="st3" d="M297.5,270.9l-1.2,3.1h-4.9l6.8-17.7h5l6.7,17.7H305l-1.1-3.1H297.5z M300.7,261.8
			L300.7,261.8l-1.9,5.6h3.8L300.7,261.8z"/>
		<path id="XMLID_407_" class="st3" d="M184.4,284.4h7c3.8,0,6.4,1.8,6.4,5.8c0,4.2-2.2,6-6.3,6H189v5.9h-4.6V284.4z M189,292.5h0.8
			c1.7,0,3.3,0,3.3-2.2c0-2.2-1.5-2.2-3.3-2.2H189V292.5z"/>
		<path id="XMLID_404_" class="st3" d="M213,302.1h-4.3v-1.3h0c-0.7,1.2-2.2,1.7-3.6,1.7c-3.6,0-6.1-3-6.1-6.4c0-3.4,2.5-6.4,6-6.4
			c1.4,0,2.8,0.5,3.7,1.6v-1.2h4.3V302.1z M203.3,296.1c0,1.5,1,2.7,2.7,2.7c1.7,0,2.7-1.2,2.7-2.7c0-1.5-1-2.7-2.7-2.7
			C204.4,293.4,203.3,294.6,203.3,296.1z"/>
		<path id="XMLID_401_" class="st3" d="M229,300.9c0,5.1-2.5,7.2-7,7.2c-2.8,0-6.5-1.4-6.8-4.6h4.8c0.1,0.4,0.4,0.7,0.8,0.9
			c0.4,0.2,0.8,0.3,1.2,0.3c2.3,0,2.7-1.5,2.7-3.4v-0.6c-1.1,1.1-2.2,1.6-3.8,1.6c-3.5,0-5.9-2.7-5.9-6.1c0-3.5,2.5-6.5,6.2-6.5
			c1.4,0,2.7,0.5,3.5,1.7h0v-1.3h4.3V300.9z M219.4,296c0,1.5,1,2.7,2.7,2.7c1.7,0,2.7-1.2,2.7-2.7c0-1.5-1-2.7-2.7-2.7
			C220.4,293.3,219.4,294.5,219.4,296z"/>
		<path id="XMLID_398_" class="st3" d="M245.2,296.1c0,4.1-3.4,6.4-7.2,6.4c-3.8,0-7.2-2.3-7.2-6.4c0-4.1,3.4-6.4,7.2-6.4
			C241.9,289.7,245.2,292,245.2,296.1z M235.2,296.1c0,1.5,1,2.7,2.7,2.7c1.7,0,2.7-1.2,2.7-2.7c0-1.5-1-2.7-2.7-2.7
			C236.3,293.4,235.2,294.6,235.2,296.1z"/>
		<path id="XMLID_395_" class="st3" d="M264.2,300.7L264.2,300.7c-0.8,1.2-2.3,1.7-3.7,1.7c-3.6,0-6.1-3-6.1-6.4
			c0-3.4,2.5-6.4,6-6.4c1.4,0,2.8,0.5,3.7,1.6v-8.6h4.3v19.4h-4.3V300.7z M258.9,296.1c0,1.5,1,2.7,2.7,2.7c1.7,0,2.7-1.2,2.7-2.7
			c0-1.5-1-2.7-2.7-2.7C259.9,293.4,258.9,294.6,258.9,296.1z"/>
		<path id="XMLID_392_" class="st3" d="M283.5,296.8h-9c0,1.7,0.9,2.7,2.7,2.7c0.9,0,1.6-0.3,2-1.1h4.1c-0.3,1.4-1.2,2.4-2.3,3.1
			c-1.1,0.7-2.5,1-3.8,1c-4,0-7-2.2-7-6.4c0-4,2.7-6.4,6.7-6.4c4.2,0,6.6,2.6,6.6,6.7V296.8z M279.5,294.3c-0.2-1.1-1.3-1.9-2.4-1.9
			c-1.2,0-2.3,0.7-2.5,1.9H279.5z"/>
		<path id="XMLID_390_" class="st3" d="M299.4,296.2l2.9-6.2h4.8l-6.3,12H298l-6.3-12h4.8L299.4,296.2z"/>
		<path id="XMLID_387_" class="st3" d="M312.6,285.4c0,1.3-1.1,2.4-2.4,2.4c-1.3,0-2.4-1.1-2.4-2.4c0-1.3,1.1-2.4,2.4-2.4
			C311.5,283.1,312.6,284.1,312.6,285.4z M312.3,302.1h-4.3v-12h4.3V302.1z"/>
		<path id="XMLID_385_" class="st3" d="M323.1,293.1c-0.7-0.4-1.6-0.6-2.3-0.6c-0.5,0-1.3,0.2-1.3,0.8c0,0.8,1.3,0.9,1.9,1.1
			c2,0.4,3.5,1.3,3.5,3.6c0,3.2-2.9,4.5-5.7,4.5c-1.7,0-3.4-0.5-4.8-1.4l1.5-3c0.9,0.6,2.3,1.2,3.4,1.2c0.5,0,1.3-0.3,1.3-0.9
			c0-0.9-1.3-1-2.7-1.3c-1.3-0.4-2.7-1-2.7-3.2c0-3,2.7-4.3,5.3-4.3c1.4,0,2.7,0.2,4,0.8L323.1,293.1z"/>
		<path id="XMLID_382_" class="st3" d="M340.3,302.1H336v-1.3h0c-0.7,1.2-2.2,1.7-3.6,1.7c-3.6,0-6.1-3-6.1-6.4c0-3.4,2.5-6.4,6-6.4
			c1.4,0,2.8,0.5,3.7,1.6v-1.2h4.3V302.1z M330.7,296.1c0,1.5,1,2.7,2.7,2.7c1.7,0,2.7-1.2,2.7-2.7c0-1.5-1-2.7-2.7-2.7
			C331.7,293.4,330.7,294.6,330.7,296.1z"/>
		<path id="XMLID_379_" class="st3" d="M352.2,300.7L352.2,300.7c-0.8,1.2-2.3,1.7-3.7,1.7c-3.6,0-6.1-3-6.1-6.4
			c0-3.4,2.5-6.4,6-6.4c1.4,0,2.8,0.5,3.7,1.6v-8.6h4.3v19.4h-4.3V300.7z M346.8,296.1c0,1.5,1,2.7,2.7,2.7c1.7,0,2.7-1.2,2.7-2.7
			c0-1.5-1-2.7-2.7-2.7C347.8,293.4,346.8,294.6,346.8,296.1z"/>
		<path id="XMLID_376_" class="st3" d="M372.7,296.1c0,4.1-3.4,6.4-7.2,6.4c-3.8,0-7.2-2.3-7.2-6.4c0-4.1,3.4-6.4,7.2-6.4
			C369.3,289.7,372.7,292,372.7,296.1z M362.7,296.1c0,1.5,1,2.7,2.7,2.7c1.7,0,2.7-1.2,2.7-2.7c0-1.5-1-2.7-2.7-2.7
			C363.7,293.4,362.7,294.6,362.7,296.1z"/>
	</g>
</g>
<g id="XMLID_17525_">
	<g>
		<path id="XMLID_742_" class="st3" d="M153.2,454l-1.2,3.1h-4.9l6.8-17.7h5l6.7,17.7h-4.9l-1.1-3.1H153.2z M156.4,444.9
			L156.4,444.9l-1.9,5.6h3.8L156.4,444.9z"/>
		<path id="XMLID_739_" class="st3" d="M181.7,457.1H176l-4.3-6.8h0v6.8H167v-17.7h6.9c3.5,0,6.1,1.7,6.1,5.4c0,2.4-1.4,4.5-3.9,5
			L181.7,457.1z M171.6,447.4h0.4c1.5,0,3.2-0.3,3.2-2.2c0-1.9-1.7-2.2-3.2-2.2h-0.4V447.4z"/>
		<path id="XMLID_737_" class="st3" d="M187.5,443.3v3h5.2v3.9h-5.2v3h5.5v3.9h-10v-17.7h10v3.9H187.5z"/>
		<path id="XMLID_734_" class="st3" d="M200.3,454l-1.2,3.1h-4.9l6.8-17.7h5l6.7,17.7h-4.9l-1.1-3.1H200.3z M203.5,444.9
			L203.5,444.9l-1.9,5.6h3.8L203.5,444.9z"/>
		<path id="XMLID_732_" class="st3" d="M229.2,457.1h-4.6v-13.8h-3.8v-3.9H233v3.9h-3.8V457.1z"/>
		<path id="XMLID_730_" class="st3" d="M239.2,443.3v3h5.2v3.9h-5.2v3h5.5v3.9h-10v-17.7h10v3.9H239.2z"/>
		<path id="XMLID_728_" class="st3" d="M260.1,445.4c-0.9-1.3-2.5-1.9-4-1.9c-2.8,0-4.7,2.2-4.7,4.9c0,2.8,1.9,4.8,4.8,4.8
			c1.5,0,3-0.7,4-1.9v5.5c-1.5,0.5-2.6,0.8-4.1,0.8c-2.5,0-4.8-0.9-6.6-2.6c-1.9-1.8-2.8-4.1-2.8-6.7c0-2.4,0.9-4.7,2.6-6.5
			c1.7-1.8,4.2-2.9,6.7-2.9c1.5,0,2.8,0.3,4.2,0.9V445.4z"/>
		<path id="XMLID_726_" class="st3" d="M263,439.5h4.6l8.4,10.8h0v-10.8h4.6v17.7H276l-8.4-10.8h0v10.8H263V439.5z"/>
		<path id="XMLID_724_" class="st3" d="M288.2,457.1h-4.6v-17.7h4.6V457.1z"/>
		<path id="XMLID_722_" class="st3" d="M303.8,445.4c-0.9-1.3-2.5-1.9-4-1.9c-2.8,0-4.7,2.2-4.7,4.9c0,2.8,1.9,4.8,4.8,4.8
			c1.5,0,3-0.7,4-1.9v5.5c-1.5,0.5-2.6,0.8-4.1,0.8c-2.5,0-4.8-0.9-6.6-2.6c-1.9-1.8-2.8-4.1-2.8-6.7c0-2.4,0.9-4.7,2.6-6.5
			c1.7-1.8,4.2-2.9,6.7-2.9c1.5,0,2.8,0.3,4.2,0.9V445.4z"/>
		<path id="XMLID_719_" class="st3" d="M325.3,448c0,5.7-4.1,9.7-9.8,9.7s-9.8-4-9.8-9.7c0-5.3,4.7-9.1,9.8-9.1
			S325.3,442.6,325.3,448z M310.5,448c0,3,2.2,5.3,5,5.3c2.7,0,5-2.2,5-5.3c0-2.4-2.2-4.7-5-4.7C312.8,443.3,310.5,445.5,310.5,448z
			"/>
		<path id="XMLID_717_" class="st3" d="M337.1,444c-0.8-0.7-1.9-1.2-3-1.2c-0.8,0-2,0.5-2,1.5c0,1,1.2,1.4,2,1.7l1.2,0.4
			c2.5,0.7,4.4,2,4.4,4.8c0,1.8-0.4,3.6-1.8,4.8c-1.4,1.2-3.2,1.7-5,1.7c-2.2,0-4.4-0.8-6.2-2l2-3.7c1.1,1,2.5,1.8,4.1,1.8
			c1.1,0,2.2-0.5,2.2-1.8c0-1.3-1.8-1.7-2.8-2c-2.9-0.8-4.8-1.6-4.8-5c0-3.6,2.6-5.9,6.1-5.9c1.8,0,4,0.6,5.5,1.5L337.1,444z"/>
		<path id="XMLID_715_" class="st3" d="M353.3,437.7l-8.9,21.6H341l8.9-21.6H353.3z"/>
		<path id="XMLID_712_" class="st3" d="M359.9,454l-1.2,3.1h-4.9l6.8-17.7h5l6.7,17.7h-4.9l-1.1-3.1H359.9z M363.1,444.9
			L363.1,444.9l-1.9,5.6h3.8L363.1,444.9z"/>
		<path id="XMLID_709_" class="st3" d="M388.4,457.1h-5.7l-4.3-6.8h0v6.8h-4.6v-17.7h6.9c3.5,0,6.1,1.7,6.1,5.4c0,2.4-1.4,4.5-3.9,5
			L388.4,457.1z M378.3,447.4h0.4c1.5,0,3.2-0.3,3.2-2.2c0-1.9-1.7-2.2-3.2-2.2h-0.4V447.4z"/>
		<path id="XMLID_706_" class="st3" d="M404.8,458.2l-1.4-1.7c-1.4,0.8-3,1.1-4.8,1.1c-5.7,0-9.8-4-9.8-9.7c0-5.3,4.7-9.1,9.8-9.1
			c5.5,0,9.8,3.7,9.8,9.5c0,2.3-0.8,4.4-2.3,6.2l3,3L404.8,458.2z M402.7,451c0.5-0.8,0.8-1.7,0.8-2.6c0-2.6-2.2-5-5-5
			c-2.7,0-5,2.2-5,4.7c0,3,2.3,5.3,5,5.3c0.5,0,0.9-0.1,1.4-0.2l-2.8-2.8l4.3-0.5L402.7,451z"/>
		<path id="XMLID_703_" class="st3" d="M182.8,485.2h-5.7l-4.3-6.8h0v6.8h-4.6v-17.7h6.9c3.5,0,6.1,1.7,6.1,5.4c0,2.4-1.4,4.5-3.9,5
			L182.8,485.2z M172.7,475.5h0.4c1.5,0,3.2-0.3,3.2-2.2c0-1.9-1.7-2.2-3.2-2.2h-0.4V475.5z"/>
		<path id="XMLID_700_" class="st3" d="M196.3,479.9h-9c0,1.7,0.9,2.7,2.7,2.7c0.9,0,1.6-0.3,2-1.1h4.1c-0.3,1.4-1.2,2.4-2.3,3.1
			c-1.1,0.7-2.5,1-3.8,1c-4,0-7-2.2-7-6.4c0-4,2.7-6.4,6.7-6.4c4.2,0,6.6,2.6,6.6,6.7V479.9z M192.3,477.5c-0.2-1.1-1.3-1.9-2.4-1.9
			c-1.2,0-2.3,0.7-2.5,1.9H192.3z"/>
		<path id="XMLID_698_" class="st3" d="M204.1,479.4l2.9-6.2h4.8l-6.3,12h-2.7l-6.3-12h4.8L204.1,479.4z"/>
		<path id="XMLID_695_" class="st3" d="M217.3,468.6c0,1.3-1.1,2.4-2.4,2.4c-1.3,0-2.4-1.1-2.4-2.4c0-1.3,1.1-2.4,2.4-2.4
			C216.3,466.2,217.3,467.3,217.3,468.6z M217.1,485.2h-4.3v-12h4.3V485.2z"/>
		<path id="XMLID_693_" class="st3" d="M227.8,476.3c-0.7-0.4-1.6-0.6-2.3-0.6c-0.5,0-1.3,0.2-1.3,0.8c0,0.8,1.3,0.9,1.9,1.1
			c2,0.4,3.5,1.3,3.5,3.6c0,3.2-2.9,4.5-5.7,4.5c-1.7,0-3.4-0.5-4.8-1.4l1.5-3c0.9,0.6,2.3,1.2,3.4,1.2c0.5,0,1.3-0.3,1.3-0.9
			c0-0.9-1.3-1-2.7-1.3c-1.3-0.4-2.7-1-2.7-3.2c0-3,2.7-4.3,5.3-4.3c1.4,0,2.7,0.2,4,0.8L227.8,476.3z"/>
		<path id="XMLID_690_" class="st3" d="M236.4,468.6c0,1.3-1.1,2.4-2.4,2.4c-1.3,0-2.4-1.1-2.4-2.4c0-1.3,1.1-2.4,2.4-2.4
			C235.3,466.2,236.4,467.3,236.4,468.6z M236.2,485.2h-4.3v-12h4.3V485.2z"/>
		<path id="XMLID_686_" class="st3" d="M252.6,479.2c0,4.1-3.4,6.4-7.2,6.4c-3.8,0-7.2-2.3-7.2-6.4s3.4-6.4,7.2-6.4
			C249.2,472.8,252.6,475.1,252.6,479.2z M242.6,479.2c0,1.5,1,2.7,2.7,2.7c1.7,0,2.7-1.2,2.7-2.7c0-1.5-1-2.7-2.7-2.7
			C243.6,476.5,242.6,477.7,242.6,479.2z M244.8,471.4L243,470l3.3-4l2.6,1.9L244.8,471.4z"/>
		<path id="XMLID_684_" class="st3" d="M258.7,474.7L258.7,474.7c1-1.5,2.2-1.9,3.9-1.9c3.2,0,4.5,2,4.5,5v7.4h-4.3v-5.9
			c0-1.1,0.2-3.2-1.9-3.2c-1.7,0-2.2,1.3-2.2,2.8v6.2h-4.3v-12h4.3V474.7z"/>
		<path id="XMLID_682_" class="st3" d="M284.5,475.9v3.5h-6.7v-3.5H284.5z"/>
		<path id="XMLID_680_" class="st3" d="M299.9,485.2h-4.6v-17.7h4.6V485.2z"/>
		<path id="XMLID_678_" class="st3" d="M307.1,474.7L307.1,474.7c1-1.5,2.2-1.9,3.9-1.9c3.2,0,4.5,2,4.5,5v7.4h-4.3v-5.9
			c0-1.1,0.2-3.2-1.9-3.2c-1.7,0-2.2,1.3-2.2,2.8v6.2h-4.3v-12h4.3V474.7z"/>
		<path id="XMLID_676_" class="st3" d="M323,485.2h-4.3v-8.5h-1.5v-3.5h1.5v-1.5c0-1.7,0-2.9,1.2-4.2c1.1-1.2,2.6-1.9,4.2-1.9
			c0.7,0,1.2,0.1,1.8,0.4v3.7c-0.5-0.2-0.9-0.4-1.5-0.4c-1.1,0-1.5,0.7-1.5,2v1.9h3v3.5h-3V485.2z"/>
		<path id="XMLID_673_" class="st3" d="M340.9,479.2c0,4.1-3.4,6.4-7.2,6.4c-3.8,0-7.2-2.3-7.2-6.4s3.4-6.4,7.2-6.4
			C337.6,472.8,340.9,475.1,340.9,479.2z M331,479.2c0,1.5,1,2.7,2.7,2.7c1.7,0,2.7-1.2,2.7-2.7c0-1.5-1-2.7-2.7-2.7
			C332,476.5,331,477.7,331,479.2z"/>
		<path id="XMLID_671_" class="st3" d="M347.1,475.2L347.1,475.2c0.9-1.5,2.3-2.1,3.9-2.1h0.8v4.1c-0.6-0.3-1.1-0.4-1.8-0.4
			c-2.4,0-3,1.6-3,3.6v4.8h-4.3v-12h4.3V475.2z"/>
		<path id="XMLID_669_" class="st3" d="M357.7,474.7L357.7,474.7c1.1-1.3,2.3-1.9,3.8-1.9c1.7,0,3.2,0.7,4.1,2.3
			c0.8-1.5,2.4-2.3,4.1-2.3c3,0,4.1,2,4.1,4.8v7.7h-4.3v-5.7c0-1.2,0-3.3-1.8-3.3c-2,0-2,1.9-2,3.3v5.7h-4.3v-5.7
			c0-1.3,0-3.4-1.9-3.4c-1.9,0-1.9,2-1.9,3.4v5.7h-4.3v-12h4.3V474.7z"/>
		<path id="XMLID_666_" class="st3" d="M389,479.9h-9c0,1.7,0.9,2.7,2.7,2.7c0.9,0,1.6-0.3,2-1.1h4.1c-0.3,1.4-1.2,2.4-2.3,3.1
			c-1.1,0.7-2.5,1-3.8,1c-4,0-7-2.2-7-6.4c0-4,2.7-6.4,6.7-6.4c4.2,0,6.6,2.6,6.6,6.7V479.9z M385,477.5c-0.2-1.1-1.3-1.9-2.4-1.9
			c-1.2,0-2.3,0.7-2.5,1.9H385z"/>
	</g>
</g>
<rect id="XMLID_6517_" x="99.7" y="621.6" class="st2" width="354.2" height="160.4"/>
<g id="XMLID_17440_">
	<g>
		<path id="XMLID_862_" class="st3" d="M136.4,691l-1.2,3.1h-4.9l6.8-17.7h5l6.7,17.7h-4.9l-1.1-3.1H136.4z M139.6,681.8
			L139.6,681.8l-1.9,5.6h3.8L139.6,681.8z"/>
		<path id="XMLID_858_" class="st3" d="M150.2,694v-17.7h6.6c3.1,0,5.2,1.2,5.2,4.6c0,1.6-0.5,2.9-1.9,3.6v0c2.5,0.3,3.6,2,3.6,4.5
			c0,3.7-3.2,4.9-6.4,4.9H150.2z M154.8,683.3h0.5c1.2,0,2.5-0.2,2.5-1.7c0-1.6-1.4-1.7-2.7-1.7h-0.3V683.3z M154.8,690.5h0.6
			c1.4,0,3.7,0.1,3.7-1.9c0-2.1-2.3-1.9-3.8-1.9h-0.5V690.5z"/>
		<path id="XMLID_855_" class="st3" d="M184.7,684.9c0,5.7-4.1,9.7-9.8,9.7c-5.7,0-9.8-4-9.8-9.7c0-5.3,4.7-9.1,9.8-9.1
			C180,675.8,184.7,679.5,184.7,684.9z M169.9,684.9c0,3,2.2,5.3,5,5.3c2.7,0,5-2.2,5-5.3c0-2.4-2.2-4.7-5-4.7
			C172.2,680.2,169.9,682.5,169.9,684.9z"/>
		<path id="XMLID_853_" class="st3" d="M204.4,684.2c0,2.6-0.2,4.8-1.8,7c-1.7,2.4-4.3,3.5-7.3,3.5c-5.6,0-9.4-3.8-9.4-9.3
			c0-5.7,3.9-9.5,9.6-9.5c3.6,0,6.4,1.6,8,4.9l-4.4,1.8c-0.6-1.7-2-2.8-3.8-2.8c-3,0-4.6,2.9-4.6,5.6c0,2.7,1.6,5.5,4.7,5.5
			c2,0,3.5-1,3.7-3.1h-3.7v-3.6H204.4z"/>
		<path id="XMLID_850_" class="st3" d="M211,691l-1.2,3.1H205l6.8-17.7h5l6.7,17.7h-4.9l-1.1-3.1H211z M214.3,681.8L214.3,681.8
			l-1.9,5.6h3.8L214.3,681.8z"/>
		<path id="XMLID_847_" class="st3" d="M224.8,676.4h6.5c4.9,0,9,3.9,9,8.8c0,5-4.1,8.8-9,8.8h-6.5V676.4z M229.4,690.1h1
			c2.7,0,5.1-1.5,5.1-4.9c0-3.2-2.1-4.9-5-4.9h-1.1V690.1z"/>
		<path id="XMLID_844_" class="st3" d="M261.1,684.9c0,5.7-4.1,9.7-9.8,9.7c-5.7,0-9.8-4-9.8-9.7c0-5.3,4.7-9.1,9.8-9.1
			S261.1,679.5,261.1,684.9z M246.3,684.9c0,3,2.2,5.3,5,5.3c2.7,0,5-2.2,5-5.3c0-2.4-2.2-4.7-5-4.7
			C248.6,680.2,246.3,682.5,246.3,684.9z"/>
		<path id="XMLID_842_" class="st3" d="M286.6,676.4v9.9c0,2.3-0.1,4.5-1.9,6.2c-1.5,1.5-3.8,2-5.9,2c-2.1,0-4.4-0.5-5.9-2
			c-1.8-1.7-1.9-4-1.9-6.2v-9.9h4.6v9.3c0,2.3,0.2,4.8,3.1,4.8c3,0,3.1-2.5,3.1-4.8v-9.3H286.6z"/>
		<path id="XMLID_839_" class="st3" d="M304.2,694h-5.7l-4.3-6.8h0v6.8h-4.6v-17.7h6.9c3.5,0,6.1,1.7,6.1,5.4c0,2.4-1.4,4.5-3.9,5
			L304.2,694z M294.1,684.3h0.4c1.5,0,3.2-0.3,3.2-2.2c0-1.9-1.7-2.2-3.2-2.2h-0.4V684.3z"/>
		<path id="XMLID_835_" class="st3" d="M305.4,694v-17.7h6.6c3.1,0,5.2,1.2,5.2,4.6c0,1.6-0.5,2.9-1.9,3.6v0c2.5,0.3,3.6,2,3.6,4.5
			c0,3.7-3.2,4.9-6.4,4.9H305.4z M310,683.3h0.5c1.2,0,2.5-0.2,2.5-1.7c0-1.6-1.4-1.7-2.7-1.7H310V683.3z M310,690.5h0.6
			c1.4,0,3.7,0.1,3.7-1.9c0-2.1-2.3-1.9-3.8-1.9H310V690.5z"/>
		<path id="XMLID_832_" class="st3" d="M325.8,691l-1.2,3.1h-4.9l6.8-17.7h5l6.7,17.7h-4.9l-1.1-3.1H325.8z M329,681.8L329,681.8
			l-1.9,5.6h3.8L329,681.8z"/>
		<path id="XMLID_830_" class="st3" d="M339.6,676.4h4.6l8.4,10.8h0v-10.8h4.6V694h-4.6l-8.4-10.8h0V694h-4.6V676.4z"/>
		<path id="XMLID_828_" class="st3" d="M364.8,694h-4.6v-17.7h4.6V694z"/>
		<path id="XMLID_826_" class="st3" d="M377.5,680.9c-0.8-0.7-1.9-1.2-3-1.2c-0.8,0-2,0.5-2,1.5c0,1,1.2,1.4,2,1.7l1.2,0.4
			c2.5,0.7,4.4,2,4.4,4.8c0,1.8-0.4,3.6-1.8,4.8c-1.4,1.2-3.2,1.7-5,1.7c-2.2,0-4.4-0.8-6.2-2l2-3.7c1.1,1,2.5,1.8,4.1,1.8
			c1.1,0,2.2-0.5,2.2-1.8c0-1.3-1.8-1.7-2.8-2c-2.9-0.8-4.8-1.6-4.8-5c0-3.6,2.6-5.9,6.1-5.9c1.8,0,4,0.6,5.5,1.5L377.5,680.9z"/>
		<path id="XMLID_824_" class="st3" d="M384.1,676.4h4.5l3.6,9.4l3.8-9.4h4.6l2.7,17.7h-4.6l-1.3-10.2h0l-4.2,10.2h-1.8l-4.1-10.2h0
			l-1.5,10.2h-4.6L384.1,676.4z"/>
		<path id="XMLID_821_" class="st3" d="M423.9,684.9c0,5.7-4.1,9.7-9.8,9.7c-5.7,0-9.8-4-9.8-9.7c0-5.3,4.7-9.1,9.8-9.1
			S423.9,679.5,423.9,684.9z M409.1,684.9c0,3,2.2,5.3,5,5.3c2.7,0,5-2.2,5-5.3c0-2.4-2.2-4.7-5-4.7
			C411.4,680.2,409.1,682.5,409.1,684.9z"/>
		<path id="XMLID_818_" class="st3" d="M182.2,722.1h-5.7l-4.3-6.8h0v6.8h-4.6v-17.7h6.9c3.5,0,6.1,1.7,6.1,5.4c0,2.4-1.4,4.5-3.9,5
			L182.2,722.1z M172.1,712.4h0.4c1.5,0,3.2-0.3,3.2-2.2c0-1.9-1.7-2.2-3.2-2.2h-0.4V712.4z"/>
		<path id="XMLID_815_" class="st3" d="M195.7,716.8h-9c0,1.7,0.9,2.7,2.7,2.7c0.9,0,1.6-0.3,2-1.1h4.1c-0.3,1.4-1.2,2.4-2.3,3.1
			c-1.1,0.7-2.5,1-3.8,1c-4,0-7-2.2-7-6.4c0-4,2.7-6.4,6.7-6.4c4.2,0,6.6,2.6,6.6,6.7V716.8z M191.7,714.4c-0.2-1.1-1.3-1.9-2.4-1.9
			c-1.2,0-2.3,0.7-2.5,1.9H191.7z"/>
		<path id="XMLID_813_" class="st3" d="M203.5,716.3l2.9-6.2h4.8l-6.3,12h-2.7l-6.3-12h4.8L203.5,716.3z"/>
		<path id="XMLID_810_" class="st3" d="M216.7,705.5c0,1.3-1.1,2.4-2.4,2.4c-1.3,0-2.4-1.1-2.4-2.4c0-1.3,1.1-2.4,2.4-2.4
			C215.7,703.1,216.7,704.2,216.7,705.5z M216.5,722.1h-4.3v-12h4.3V722.1z"/>
		<path id="XMLID_808_" class="st3" d="M227.2,713.2c-0.7-0.4-1.6-0.6-2.3-0.6c-0.5,0-1.3,0.2-1.3,0.8c0,0.8,1.3,0.9,1.9,1.1
			c2,0.4,3.5,1.3,3.5,3.6c0,3.2-2.9,4.5-5.7,4.5c-1.7,0-3.4-0.5-4.8-1.4l1.5-3c0.9,0.6,2.3,1.2,3.4,1.2c0.5,0,1.3-0.3,1.3-0.9
			c0-0.9-1.3-1-2.7-1.3c-1.3-0.4-2.7-1-2.7-3.2c0-3,2.7-4.3,5.3-4.3c1.4,0,2.7,0.2,4,0.8L227.2,713.2z"/>
		<path id="XMLID_805_" class="st3" d="M235.8,705.5c0,1.3-1.1,2.4-2.4,2.4c-1.3,0-2.4-1.1-2.4-2.4c0-1.3,1.1-2.4,2.4-2.4
			C234.7,703.1,235.8,704.2,235.8,705.5z M235.6,722.1h-4.3v-12h4.3V722.1z"/>
		<path id="XMLID_801_" class="st3" d="M252,716.1c0,4.1-3.4,6.4-7.2,6.4c-3.8,0-7.2-2.3-7.2-6.4c0-4.1,3.4-6.4,7.2-6.4
			C248.6,709.7,252,712,252,716.1z M242,716.1c0,1.5,1,2.7,2.7,2.7c1.7,0,2.7-1.2,2.7-2.7c0-1.5-1-2.7-2.7-2.7
			C243,713.4,242,714.7,242,716.1z M244.2,708.3l-1.9-1.4l3.3-4l2.6,1.9L244.2,708.3z"/>
		<path id="XMLID_799_" class="st3" d="M258.1,711.7L258.1,711.7c1-1.5,2.2-1.9,3.9-1.9c3.2,0,4.5,2,4.5,5v7.4h-4.3v-5.9
			c0-1.1,0.2-3.2-1.9-3.2c-1.7,0-2.2,1.3-2.2,2.8v6.2h-4.3v-12h4.3V711.7z"/>
		<path id="XMLID_796_" class="st3" d="M283.9,712.9v3.5h-6.7v-3.5H283.9z"/>
		<path id="XMLID_794_" class="st3" d="M299.3,722.1h-4.6v-17.7h4.6V722.1z"/>
		<path id="XMLID_792_" class="st3" d="M306.5,711.7L306.5,711.7c1-1.5,2.2-1.9,3.9-1.9c3.2,0,4.5,2,4.5,5v7.4h-4.3v-5.9
			c0-1.1,0.2-3.2-1.9-3.2c-1.7,0-2.2,1.3-2.2,2.8v6.2h-4.3v-12h4.3V711.7z"/>
		<path id="XMLID_790_" class="st3" d="M322.4,722.1h-4.3v-8.5h-1.5v-3.5h1.5v-1.5c0-1.7,0-2.9,1.2-4.2c1.1-1.2,2.6-1.9,4.2-1.9
			c0.7,0,1.2,0.1,1.8,0.4v3.7c-0.5-0.2-0.9-0.4-1.5-0.4c-1.1,0-1.5,0.7-1.5,2v1.9h3v3.5h-3V722.1z"/>
		<path id="XMLID_787_" class="st3" d="M340.3,716.1c0,4.1-3.4,6.4-7.2,6.4c-3.8,0-7.2-2.3-7.2-6.4c0-4.1,3.4-6.4,7.2-6.4
			C337,709.7,340.3,712,340.3,716.1z M330.4,716.1c0,1.5,1,2.7,2.7,2.7c1.7,0,2.7-1.2,2.7-2.7c0-1.5-1-2.7-2.7-2.7
			C331.4,713.4,330.4,714.7,330.4,716.1z"/>
		<path id="XMLID_785_" class="st3" d="M346.5,712.1L346.5,712.1c0.9-1.5,2.3-2.1,3.9-2.1h0.8v4.1c-0.6-0.3-1.1-0.4-1.8-0.4
			c-2.4,0-3,1.6-3,3.6v4.8h-4.3v-12h4.3V712.1z"/>
		<path id="XMLID_783_" class="st3" d="M357.1,711.6L357.1,711.6c1.1-1.3,2.3-1.9,3.8-1.9c1.7,0,3.2,0.7,4.1,2.3
			c0.8-1.5,2.4-2.3,4.1-2.3c3,0,4.1,2,4.1,4.8v7.7H369v-5.7c0-1.2,0-3.3-1.8-3.3c-2,0-2,1.9-2,3.3v5.7h-4.3v-5.7
			c0-1.3,0-3.4-1.9-3.4c-1.9,0-1.9,2-1.9,3.4v5.7h-4.3v-12h4.3V711.6z"/>
		<path id="XMLID_780_" class="st3" d="M388.4,716.8h-9c0,1.7,0.9,2.7,2.7,2.7c0.9,0,1.6-0.3,2-1.1h4.1c-0.3,1.4-1.2,2.4-2.3,3.1
			c-1.1,0.7-2.5,1-3.8,1c-4,0-7-2.2-7-6.4c0-4,2.7-6.4,6.7-6.4c4.2,0,6.6,2.6,6.6,6.7V716.8z M384.4,714.4c-0.2-1.1-1.3-1.9-2.4-1.9
			c-1.2,0-2.3,0.7-2.5,1.9H384.4z"/>
	</g>
</g>
<polygon id="XMLID_6513_" class="st4" points="454,77.9 468.9,69.3 483.8,60.7 483.8,77.9 483.8,95.2 468.9,86.6 "/>
<polygon id="XMLID_6512_" class="st4" points="274.2,212.9 265.6,198 257,183.1 274.2,183.1 291.5,183.1 282.8,198 "/>
<polygon id="XMLID_6511_" class="st4" points="274.2,419.8 265.6,404.9 257,390 274.2,390 291.5,390 282.8,404.9 "/>
<polygon id="XMLID_6510_" class="st4" points="274.2,626.7 265.6,611.8 257,596.8 274.2,596.8 291.5,596.8 282.8,611.8 "/>
<polygon id="XMLID_6508_" class="st4" points="722.9,366.1 731.5,381 740.1,396 722.9,396 705.6,396 714.3,381 "/>
<polyline id="XMLID_6507_" class="st0" points="722.9,366.1 722.9,836.3 274.2,836.3 274.2,782 "/>
<polyline id="XMLID_6506_" class="st0" points="722.9,205.7 722.9,77.1 454,77.1 454,77.1 "/>
</svg>
