<?xml version="1.0" encoding="utf-8"?>
<!-- Generator: Adobe Illustrator 21.0.2, SVG Export Plug-In . SVG Version: 6.00 Build 0)  -->
<svg version="1.1" id="Layer_1" xmlns="http://www.w3.org/2000/svg" xmlns:xlink="http://www.w3.org/1999/xlink" x="0px" y="0px"
	 viewBox="0 0 998.6 1018.5" style="enable-background:new 0 0 998.6 1018.5;" xml:space="preserve">
<style type="text/css">
	.st0{fill:none;stroke:#E42527;stroke-width:4;stroke-miterlimit:10;}
	.st1{fill:#D81117;}
	.st2{fill:#929191;}
	.st3{fill:#9D9D9C;}
	.st4{fill:#FFFFFF;}
	.st5{fill:#E42527;}
</style>
<line id="XMLID_3609_" class="st0" x1="497.9" y1="89.5" x2="497.9" y2="957"/>
<rect id="XMLID_3608_" x="100" y="410.2" class="st1" width="223" height="101"/>
<rect id="XMLID_3607_" x="100" y="611.7" class="st2" width="223" height="101"/>
<rect id="XMLID_3606_" x="388.1" y="1" class="st3" width="223" height="101"/>
<rect id="XMLID_3605_" x="663.9" y="131.9" class="st3" width="236.1" height="101"/>
<g id="XMLID_21348_">
	<g>
		<path id="XMLID_1210_" class="st4" d="M134.4,442.6l2.7-6.8h3.1l-4.7,11.1h-2.2l-4.7-11.1h3.1L134.4,442.6z"/>
		<path id="XMLID_1207_" class="st4" d="M146,438c0,1.5-1.4,2.4-3,2.4c-1.6,0-2.9-0.9-2.9-2.4c0-1.5,1.4-2.4,2.9-2.4
			C144.6,435.6,146,436.5,146,438z M141.9,438c0,0.6,0.5,1,1.1,1s1.1-0.4,1.1-1c0-0.6-0.5-1-1.1-1S141.9,437.5,141.9,438z"/>
		<path id="XMLID_1203_" class="st4" d="M152.1,447v-11.1h4.1c2,0,3.3,0.8,3.3,2.9c0,1-0.3,1.8-1.2,2.3v0c1.6,0.2,2.3,1.3,2.3,2.8
			c0,2.3-2,3.1-4,3.1H152.1z M155,440.3h0.3c0.8,0,1.6-0.1,1.6-1.1c0-1-0.9-1.1-1.7-1.1H155V440.3z M155,444.8h0.4
			c0.9,0,2.3,0,2.3-1.2c0-1.3-1.4-1.2-2.4-1.2H155V444.8z"/>
		<path id="XMLID_1200_" class="st4" d="M167.1,438c0,1.5-1.4,2.4-3,2.4s-2.9-0.9-2.9-2.4c0-1.5,1.4-2.4,2.9-2.4
			S167.1,436.5,167.1,438z M163,438c0,0.6,0.5,1,1.1,1s1.1-0.4,1.1-1c0-0.6-0.5-1-1.1-1S163,437.5,163,438z"/>
		<path id="XMLID_1197_" class="st4" d="M176,445.1l-0.8,1.9h-3.1l4.3-11.1h3.2l4.2,11.1h-3.1l-0.7-1.9H176z M178,439.3L178,439.3
			l-1.2,3.5h2.4L178,439.3z"/>
		<path id="XMLID_1194_" class="st4" d="M193.9,447h-3.6l-2.7-4.3h0v4.3h-2.9v-11.1h4.3c2.2,0,3.9,1,3.9,3.4c0,1.5-0.9,2.9-2.4,3.1
			L193.9,447z M187.6,440.9h0.3c0.9,0,2-0.2,2-1.4c0-1.2-1.1-1.4-2-1.4h-0.3V440.9z"/>
		<path id="XMLID_1192_" class="st4" d="M197.6,438.3v1.9h3.3v2.4h-3.3v1.9h3.4v2.4h-6.3v-11.1h6.3v2.4H197.6z"/>
		<path id="XMLID_1189_" class="st4" d="M205.6,445.1l-0.8,1.9h-3.1l4.3-11.1h3.2l4.2,11.1h-3.1l-0.7-1.9H205.6z M207.7,439.3
			L207.7,439.3l-1.2,3.5h2.4L207.7,439.3z"/>
		<path id="XMLID_1187_" class="st4" d="M223.8,447h-2.9v-8.7h-2.4v-2.4h7.7v2.4h-2.4V447z"/>
		<path id="XMLID_1185_" class="st4" d="M230.1,438.3v1.9h3.3v2.4h-3.3v1.9h3.4v2.4h-6.3v-11.1h6.3v2.4H230.1z"/>
		<path id="XMLID_1183_" class="st4" d="M243.3,439.6c-0.6-0.8-1.5-1.2-2.5-1.2c-1.8,0-3,1.4-3,3.1c0,1.8,1.2,3,3,3
			c0.9,0,1.9-0.5,2.5-1.2v3.5c-1,0.3-1.7,0.5-2.6,0.5c-1.5,0-3-0.6-4.2-1.6c-1.2-1.1-1.8-2.6-1.8-4.2c0-1.5,0.6-3,1.6-4.1
			c1.1-1.1,2.7-1.8,4.2-1.8c0.9,0,1.8,0.2,2.6,0.6V439.6z"/>
		<path id="XMLID_1181_" class="st4" d="M245.1,435.9h2.9l5.3,6.8h0v-6.8h2.9V447h-2.9l-5.3-6.8h0v6.8h-2.9V435.9z"/>
		<path id="XMLID_1179_" class="st4" d="M261,447h-2.9v-11.1h2.9V447z"/>
		<path id="XMLID_1177_" class="st4" d="M270.8,439.6c-0.6-0.8-1.5-1.2-2.5-1.2c-1.8,0-3,1.4-3,3.1c0,1.8,1.2,3,3,3
			c0.9,0,1.9-0.5,2.5-1.2v3.5c-1,0.3-1.7,0.5-2.6,0.5c-1.5,0-3-0.6-4.2-1.6c-1.2-1.1-1.8-2.6-1.8-4.2c0-1.5,0.6-3,1.6-4.1
			c1.1-1.1,2.7-1.8,4.2-1.8c0.9,0,1.8,0.2,2.6,0.6V439.6z"/>
		<path id="XMLID_1174_" class="st4" d="M275.4,445.1l-0.8,1.9h-3.1l4.3-11.1h3.2l4.2,11.1h-3.1l-0.7-1.9H275.4z M277.4,439.3
			L277.4,439.3l-1.2,3.5h2.4L277.4,439.3z"/>
		<path id="XMLID_1172_" class="st4" d="M177.1,453.6h3.5l2.1,3l2.1-3h3.5l-4.1,5.8v5.3h-2.9v-5.3L177.1,453.6z"/>
		<path id="XMLID_1170_" class="st4" d="M196.8,462.3h3.5v2.4h-6.4v-11.1h2.9V462.3z"/>
		<path id="XMLID_1168_" class="st4" d="M204.1,456v1.9h3.3v2.4h-3.3v1.9h3.4v2.4h-6.3v-11.1h6.3v2.4H204.1z"/>
		<path id="XMLID_1166_" class="st4" d="M220.4,458.5c0,1.6-0.1,3-1.1,4.4c-1.1,1.5-2.7,2.2-4.6,2.2c-3.5,0-5.9-2.4-5.9-5.9
			c0-3.6,2.4-6,6-6c2.3,0,4.1,1,5,3.1l-2.7,1.2c-0.4-1.1-1.2-1.8-2.4-1.8c-1.9,0-2.9,1.8-2.9,3.5c0,1.7,1,3.5,2.9,3.5
			c1.3,0,2.2-0.6,2.3-1.9h-2.4v-2.3H220.4z"/>
		<path id="XMLID_1163_" class="st4" d="M224.6,462.8l-0.8,1.9h-3.1l4.3-11.1h3.2l4.2,11.1h-3.1l-0.7-1.9H224.6z M226.6,457
			L226.6,457l-1.2,3.5h2.4L226.6,457z"/>
		<path id="XMLID_1161_" class="st4" d="M236.2,462.3h3.5v2.4h-6.4v-11.1h2.9V462.3z"/>
		<path id="XMLID_1158_" class="st4" d="M151.8,482.4h-3.6l-2.7-4.3h0v4.3h-2.9v-11.1h4.3c2.2,0,3.9,1,3.9,3.4
			c0,1.5-0.9,2.9-2.4,3.1L151.8,482.4z M145.4,476.3h0.3c0.9,0,2-0.2,2-1.4c0-1.2-1.1-1.4-2-1.4h-0.3V476.3z"/>
		<path id="XMLID_1155_" class="st4" d="M160.3,479.1h-5.6c0,1.1,0.6,1.7,1.7,1.7c0.6,0,1-0.2,1.3-0.7h2.6c-0.2,0.9-0.7,1.5-1.4,2
			c-0.7,0.4-1.5,0.6-2.4,0.6c-2.5,0-4.4-1.4-4.4-4c0-2.5,1.7-4,4.2-4c2.6,0,4.1,1.6,4.1,4.2V479.1z M157.8,477.5
			c-0.1-0.7-0.8-1.2-1.5-1.2c-0.8,0-1.4,0.4-1.6,1.2H157.8z"/>
		<path id="XMLID_1153_" class="st4" d="M165.2,478.7l1.8-3.9h3l-4,7.6h-1.7l-4-7.6h3L165.2,478.7z"/>
		<path id="XMLID_1150_" class="st4" d="M173.5,471.9c0,0.8-0.7,1.5-1.5,1.5c-0.8,0-1.5-0.7-1.5-1.5c0-0.8,0.7-1.5,1.5-1.5
			C172.8,470.4,173.5,471.1,173.5,471.9z M173.4,482.4h-2.7v-7.6h2.7V482.4z"/>
		<path id="XMLID_1148_" class="st4" d="M180.1,476.8c-0.4-0.2-1-0.4-1.4-0.4c-0.3,0-0.8,0.1-0.8,0.5c0,0.5,0.8,0.6,1.2,0.7
			c1.3,0.3,2.2,0.8,2.2,2.2c0,2-1.8,2.8-3.6,2.8c-1.1,0-2.1-0.3-3.1-0.9l1-1.9c0.5,0.4,1.5,0.8,2.1,0.8c0.3,0,0.8-0.2,0.8-0.6
			c0-0.6-0.8-0.6-1.7-0.8c-0.8-0.2-1.7-0.6-1.7-2c0-1.9,1.7-2.7,3.3-2.7c0.9,0,1.7,0.1,2.5,0.5L180.1,476.8z"/>
		<path id="XMLID_1145_" class="st4" d="M185.5,471.9c0,0.8-0.7,1.5-1.5,1.5c-0.8,0-1.5-0.7-1.5-1.5c0-0.8,0.7-1.5,1.5-1.5
			C184.9,470.4,185.5,471.1,185.5,471.9z M185.4,482.4h-2.7v-7.6h2.7V482.4z"/>
		<path id="XMLID_1141_" class="st4" d="M195.7,478.6c0,2.6-2.1,4-4.6,4c-2.4,0-4.6-1.4-4.6-4c0-2.6,2.1-4,4.6-4
			C193.6,474.6,195.7,476,195.7,478.6z M189.4,478.6c0,1,0.6,1.7,1.7,1.7c1.1,0,1.7-0.7,1.7-1.7c0-0.9-0.6-1.7-1.7-1.7
			C190,476.9,189.4,477.7,189.4,478.6z M190.8,473.7l-1.2-0.9l2.1-2.5l1.6,1.2L190.8,473.7z"/>
		<path id="XMLID_1139_" class="st4" d="M199.6,475.8L199.6,475.8c0.6-0.9,1.4-1.2,2.4-1.2c2,0,2.8,1.3,2.8,3.1v4.7h-2.7v-3.7
			c0-0.7,0.1-2-1.2-2c-1.1,0-1.4,0.8-1.4,1.8v3.9h-2.7v-7.6h2.7V475.8z"/>
		<path id="XMLID_1136_" class="st4" d="M214.3,475.7L214.3,475.7c0.5-0.8,1.4-1.1,2.3-1.1c2.3,0,3.8,1.9,3.8,4.1c0,2.2-1.5,4-3.8,4
			c-0.9,0-1.8-0.3-2.3-1v4.5h-2.7v-11.3h2.7V475.7z M214.2,478.6c0,1,0.6,1.7,1.7,1.7c1.1,0,1.7-0.7,1.7-1.7c0-0.9-0.6-1.7-1.7-1.7
			C214.9,476.9,214.2,477.7,214.2,478.6z"/>
		<path id="XMLID_1040_" class="st4" d="M224.4,476.1L224.4,476.1c0.5-0.9,1.4-1.3,2.5-1.3h0.5v2.6c-0.4-0.2-0.7-0.3-1.1-0.3
			c-1.5,0-1.9,1-1.9,2.3v3.1h-2.7v-7.6h2.7V476.1z"/>
		<path id="XMLID_1037_" class="st4" d="M236.2,479.1h-5.6c0,1.1,0.6,1.7,1.7,1.7c0.6,0,1-0.2,1.3-0.7h2.6c-0.2,0.9-0.7,1.5-1.4,2
			c-0.7,0.4-1.5,0.6-2.4,0.6c-2.5,0-4.4-1.4-4.4-4c0-2.5,1.7-4,4.2-4c2.6,0,4.1,1.6,4.1,4.2V479.1z M233.7,477.5
			c-0.1-0.7-0.8-1.2-1.5-1.2c-0.8,0-1.4,0.4-1.6,1.2H233.7z"/>
		<path id="XMLID_1035_" class="st4" d="M241.2,478.7l1.8-3.9h3l-4,7.6h-1.7l-4-7.6h3L241.2,478.7z"/>
		<path id="XMLID_1032_" class="st4" d="M249.5,471.9c0,0.8-0.7,1.5-1.5,1.5c-0.8,0-1.5-0.7-1.5-1.5c0-0.8,0.7-1.5,1.5-1.5
			C248.8,470.4,249.5,471.1,249.5,471.9z M249.3,482.4h-2.7v-7.6h2.7V482.4z"/>
		<path id="XMLID_1029_" class="st4" d="M259.4,482.4h-2.7v-0.8h0c-0.5,0.8-1.4,1.1-2.3,1.1c-2.2,0-3.8-1.9-3.8-4s1.5-4,3.8-4
			c0.9,0,1.8,0.3,2.3,1v-0.7h2.7V482.4z M253.3,478.6c0,1,0.6,1.7,1.7,1.7c1.1,0,1.7-0.7,1.7-1.7c0-0.9-0.6-1.7-1.7-1.7
			C253.9,476.9,253.3,477.7,253.3,478.6z"/>
		<path id="XMLID_1027_" class="st4" d="M264.5,481c0,0.9-0.8,1.7-1.7,1.7c-1,0-1.7-0.8-1.7-1.7c0-1,0.8-1.7,1.7-1.7
			C263.7,479.2,264.5,480,264.5,481z"/>
	</g>
</g>
<g id="XMLID_21313_">
	<g>
		<path id="XMLID_272_" class="st4" d="M136.5,663.8l2.7-6.8h3.1l-4.7,11.1h-2.2l-4.7-11.1h3.1L136.5,663.8z"/>
		<path id="XMLID_270_" class="st4" d="M145.9,659.5v1.9h3.3v2.4h-3.3v1.9h3.4v2.4H143v-11.1h6.3v2.4H145.9z"/>
		<path id="XMLID_268_" class="st4" d="M151.1,657.1h2.9l5.3,6.8h0v-6.8h2.9v11.1h-2.9l-5.3-6.8h0v6.8h-2.9V657.1z"/>
		<path id="XMLID_266_" class="st4" d="M168.5,668.2h-2.9v-8.7h-2.4v-2.4h7.7v2.4h-2.4V668.2z"/>
		<path id="XMLID_263_" class="st4" d="M173.9,666.3l-0.8,1.9h-3.1l4.3-11.1h3.2l4.2,11.1h-3.1l-0.7-1.9H173.9z M175.9,660.5
			L175.9,660.5l-1.2,3.5h2.4L175.9,660.5z"/>
		<path id="XMLID_261_" class="st4" d="M182.6,657.1h2.9l5.3,6.8h0v-6.8h2.9v11.1h-2.9l-5.3-6.8h0v6.8h-2.9V657.1z"/>
		<path id="XMLID_259_" class="st4" d="M198.5,668.2h-2.9v-11.1h2.9V668.2z"/>
		<path id="XMLID_257_" class="st4" d="M203.3,665.7h3.5v2.4h-6.4v-11.1h2.9V665.7z"/>
		<path id="XMLID_255_" class="st4" d="M210.6,665.7h3.5v2.4h-6.4v-11.1h2.9V665.7z"/>
		<path id="XMLID_252_" class="st4" d="M217.8,666.3l-0.8,1.9H214l4.3-11.1h3.2l4.2,11.1h-3.1l-0.7-1.9H217.8z M219.8,660.5
			L219.8,660.5l-1.2,3.5h2.4L219.8,660.5z"/>
		<path id="XMLID_249_" class="st4" d="M241.2,657.1v6.3c0,1.4-0.1,2.8-1.2,3.9c-0.9,0.9-2.4,1.2-3.7,1.2c-1.3,0-2.8-0.3-3.7-1.2
			c-1.1-1.1-1.2-2.5-1.2-3.9v-6.3h2.9v5.9c0,1.4,0.1,3,2,3c1.9,0,2-1.6,2-3v-5.9H241.2z M236,656.4l-1.2-0.9l2.1-2.5l1.6,1.2
			L236,656.4z"/>
		<path id="XMLID_247_" class="st4" d="M243,657.1h2.9l5.3,6.8h0v-6.8h2.9v11.1h-2.9l-5.3-6.8h0v6.8H243V657.1z"/>
		<path id="XMLID_245_" class="st4" d="M258.9,668.2H256v-11.1h2.9V668.2z"/>
		<path id="XMLID_243_" class="st4" d="M268.7,660.8c-0.6-0.8-1.5-1.2-2.5-1.2c-1.8,0-3,1.4-3,3.1c0,1.8,1.2,3,3,3
			c0.9,0,1.9-0.5,2.5-1.2v3.5c-1,0.3-1.7,0.5-2.6,0.5c-1.5,0-3-0.6-4.2-1.6c-1.2-1.1-1.8-2.6-1.8-4.2c0-1.5,0.6-3,1.6-4.1
			c1.1-1.1,2.7-1.8,4.2-1.8c0.9,0,1.8,0.2,2.6,0.6V660.8z"/>
		<path id="XMLID_240_" class="st4" d="M273.4,666.3l-0.8,1.9h-3.1l4.3-11.1h3.2l4.2,11.1h-3.1l-0.7-1.9H273.4z M275.4,660.5
			L275.4,660.5l-1.2,3.5h2.4L275.4,660.5z"/>
	</g>
</g>
<g id="XMLID_21219_">
	<g>
		<path id="XMLID_1132_" class="st4" d="M411.2,49.5l-0.8,1.9h-3.1l4.3-11.1h3.2l4.2,11.1h-3.1l-0.7-1.9H411.2z M413.2,43.8
			L413.2,43.8l-1.2,3.5h2.4L413.2,43.8z"/>
		<path id="XMLID_1128_" class="st4" d="M419.9,51.5V40.4h4.1c2,0,3.3,0.8,3.3,2.9c0,1-0.3,1.8-1.2,2.3v0c1.6,0.2,2.3,1.3,2.3,2.8
			c0,2.3-2,3.1-4,3.1H419.9z M422.8,44.7h0.3c0.8,0,1.6-0.1,1.6-1.1c0-1-0.9-1.1-1.7-1.1h-0.2V44.7z M422.8,49.3h0.4
			c0.9,0,2.3,0,2.3-1.2c0-1.3-1.4-1.2-2.4-1.2h-0.3V49.3z"/>
		<path id="XMLID_1125_" class="st4" d="M441.6,45.7c0,3.6-2.6,6.1-6.1,6.1s-6.1-2.5-6.1-6.1c0-3.4,2.9-5.7,6.1-5.7
			S441.6,42.3,441.6,45.7z M432.3,45.7c0,1.9,1.4,3.3,3.1,3.3c1.7,0,3.1-1.4,3.1-3.3c0-1.5-1.4-2.9-3.1-2.9
			C433.7,42.8,432.3,44.2,432.3,45.7z"/>
		<path id="XMLID_1123_" class="st4" d="M454,45.3c0,1.6-0.1,3-1.1,4.4c-1.1,1.5-2.7,2.2-4.6,2.2c-3.5,0-5.9-2.4-5.9-5.9
			c0-3.6,2.4-6,6-6c2.3,0,4.1,1,5,3.1l-2.7,1.2c-0.4-1.1-1.2-1.8-2.4-1.8c-1.9,0-2.9,1.8-2.9,3.5c0,1.7,1,3.5,2.9,3.5
			c1.3,0,2.2-0.6,2.3-1.9h-2.4v-2.3H454z"/>
		<path id="XMLID_1120_" class="st4" d="M458.2,49.5l-0.8,1.9h-3.1l4.3-11.1h3.2l4.2,11.1h-3.1l-0.7-1.9H458.2z M460.2,43.8
			L460.2,43.8l-1.2,3.5h2.4L460.2,43.8z"/>
		<path id="XMLID_1117_" class="st4" d="M466.9,40.4h4.1c3.1,0,5.6,2.4,5.6,5.6s-2.6,5.6-5.6,5.6h-4.1V40.4z M469.7,49h0.6
			c1.7,0,3.2-0.9,3.2-3.1c0-2-1.3-3.1-3.2-3.1h-0.7V49z"/>
		<path id="XMLID_1114_" class="st4" d="M489.7,45.7c0,3.6-2.6,6.1-6.1,6.1s-6.1-2.5-6.1-6.1c0-3.4,2.9-5.7,6.1-5.7
			C486.7,40,489.7,42.3,489.7,45.7z M480.4,45.7c0,1.9,1.4,3.3,3.1,3.3c1.7,0,3.1-1.4,3.1-3.3c0-1.5-1.4-2.9-3.1-2.9
			C481.8,42.8,480.4,44.2,480.4,45.7z"/>
		<path id="XMLID_1112_" class="st4" d="M505.7,40.4v6.3c0,1.4-0.1,2.8-1.2,3.9c-0.9,0.9-2.4,1.2-3.7,1.2s-2.8-0.3-3.7-1.2
			c-1.1-1.1-1.2-2.5-1.2-3.9v-6.3h2.9v5.9c0,1.4,0.1,3,2,3c1.9,0,2-1.6,2-3v-5.9H505.7z"/>
		<path id="XMLID_1109_" class="st4" d="M516.8,51.5h-3.6l-2.7-4.3h0v4.3h-2.9V40.4h4.3c2.2,0,3.9,1,3.9,3.4c0,1.5-0.9,2.9-2.4,3.1
			L516.8,51.5z M510.4,45.3h0.3c0.9,0,2-0.2,2-1.4c0-1.2-1.1-1.4-2-1.4h-0.3V45.3z"/>
		<path id="XMLID_1105_" class="st4" d="M517.6,51.5V40.4h4.1c2,0,3.3,0.8,3.3,2.9c0,1-0.3,1.8-1.2,2.3v0c1.6,0.2,2.3,1.3,2.3,2.8
			c0,2.3-2,3.1-4,3.1H517.6z M520.5,44.7h0.3c0.8,0,1.6-0.1,1.6-1.1c0-1-0.9-1.1-1.7-1.1h-0.2V44.7z M520.5,49.3h0.4
			c0.9,0,2.3,0,2.3-1.2c0-1.3-1.4-1.2-2.4-1.2h-0.3V49.3z"/>
		<path id="XMLID_1102_" class="st4" d="M530.4,49.5l-0.8,1.9h-3.1l4.3-11.1h3.2l4.2,11.1h-3.1l-0.7-1.9H530.4z M532.4,43.8
			L532.4,43.8l-1.2,3.5h2.4L532.4,43.8z"/>
		<path id="XMLID_1100_" class="st4" d="M539.1,40.4h2.9l5.3,6.8h0v-6.8h2.9v11.1h-2.9l-5.3-6.8h0v6.8h-2.9V40.4z"/>
		<path id="XMLID_1098_" class="st4" d="M555,51.5h-2.9V40.4h2.9V51.5z"/>
		<path id="XMLID_1096_" class="st4" d="M563,43.2c-0.5-0.4-1.2-0.7-1.9-0.7c-0.5,0-1.2,0.3-1.2,0.9c0,0.6,0.8,0.9,1.3,1.1l0.7,0.2
			c1.5,0.5,2.7,1.2,2.7,3c0,1.1-0.3,2.2-1.2,3c-0.9,0.7-2,1-3.2,1c-1.4,0-2.8-0.5-3.9-1.3l1.2-2.3c0.7,0.6,1.6,1.2,2.6,1.2
			c0.7,0,1.4-0.3,1.4-1.1c0-0.8-1.1-1.1-1.8-1.3c-1.8-0.5-3-1-3-3.1c0-2.3,1.6-3.7,3.8-3.7c1.1,0,2.5,0.4,3.5,0.9L563,43.2z"/>
		<path id="XMLID_1094_" class="st4" d="M567.2,40.4h2.8l2.3,5.9l2.4-5.9h2.9l1.7,11.1h-2.9l-0.8-6.4h0l-2.7,6.4h-1.2l-2.6-6.4h0
			l-0.9,6.4h-2.9L567.2,40.4z"/>
		<path id="XMLID_1091_" class="st4" d="M592.2,45.7c0,3.6-2.6,6.1-6.1,6.1c-3.6,0-6.1-2.5-6.1-6.1c0-3.4,2.9-5.7,6.1-5.7
			C589.2,40,592.2,42.3,592.2,45.7z M582.9,45.7c0,1.9,1.4,3.3,3.1,3.3c1.7,0,3.1-1.4,3.1-3.3c0-1.5-1.4-2.9-3.1-2.9
			C584.3,42.8,582.9,44.2,582.9,45.7z"/>
		<path id="XMLID_1089_" class="st4" d="M421.6,64.8l2.7-6.8h3.1l-4.7,11.1h-2.2l-4.7-11.1h3.1L421.6,64.8z"/>
		<path id="XMLID_1086_" class="st4" d="M434.8,65.8h-5.6c0,1.1,0.6,1.7,1.7,1.7c0.6,0,1-0.2,1.3-0.7h2.6c-0.2,0.9-0.7,1.5-1.4,2
			c-0.7,0.4-1.5,0.6-2.4,0.6c-2.5,0-4.4-1.4-4.4-4c0-2.5,1.7-4,4.2-4c2.6,0,4.1,1.6,4.1,4.2V65.8z M432.3,64.3
			c-0.1-0.7-0.8-1.2-1.5-1.2c-0.8,0-1.4,0.4-1.6,1.2H432.3z"/>
		<path id="XMLID_1084_" class="st4" d="M438.7,62.8L438.7,62.8c0.5-0.9,1.4-1.3,2.5-1.3h0.5v2.6c-0.4-0.2-0.7-0.3-1.1-0.3
			c-1.5,0-1.9,1-1.9,2.3v3.1H436v-7.6h2.7V62.8z"/>
		<path id="XMLID_1081_" class="st4" d="M445.6,58.7c0,0.8-0.7,1.5-1.5,1.5c-0.8,0-1.5-0.7-1.5-1.5c0-0.8,0.7-1.5,1.5-1.5
			C444.9,57.2,445.6,57.9,445.6,58.7z M445.4,69.2h-2.7v-7.6h2.7V69.2z"/>
		<path id="XMLID_1076_" class="st4" d="M450,69.2h-2.7v-5.4h-0.9v-2.2h0.9v-1c0-1,0-1.8,0.8-2.7c0.7-0.8,1.6-1.2,2.6-1.2
			c0.4,0,0.8,0.1,1.2,0.3v2.3c-0.3-0.1-0.6-0.3-0.9-0.3c-0.7,0-0.9,0.4-0.9,1.3v1.2h1.9v2.2H450V69.2z M455.6,58.7
			c0,0.8-0.7,1.5-1.5,1.5c-0.8,0-1.5-0.7-1.5-1.5c0-0.8,0.7-1.5,1.5-1.5C454.9,57.2,455.6,57.9,455.6,58.7z M455.4,69.2h-2.7v-7.6
			h2.7V69.2z"/>
		<path id="XMLID_1074_" class="st4" d="M462.6,64.1c-0.4-0.3-0.9-0.5-1.4-0.5c-1,0-1.8,0.8-1.8,1.8c0,1.1,0.8,1.9,1.9,1.9
			c0.5,0,1-0.2,1.3-0.5V69c-0.6,0.3-1.2,0.4-1.9,0.4c-2.2,0-4.1-1.7-4.1-4c0-2.4,1.9-4.1,4.2-4.1c0.6,0,1.2,0.1,1.8,0.4V64.1z"/>
		<path id="XMLID_1071_" class="st4" d="M472.6,69.2h-2.7v-0.8h0c-0.5,0.8-1.4,1.1-2.3,1.1c-2.2,0-3.8-1.9-3.8-4c0-2.2,1.5-4,3.8-4
			c0.9,0,1.8,0.3,2.3,1v-0.7h2.7V69.2z M466.5,65.4c0,1,0.6,1.7,1.7,1.7c1.1,0,1.7-0.7,1.7-1.7c0-0.9-0.6-1.7-1.7-1.7
			C467.2,63.7,466.5,64.5,466.5,65.4z"/>
		<path id="XMLID_1069_" class="st4" d="M479.8,64.1c-0.4-0.3-0.9-0.5-1.4-0.5c-1,0-1.8,0.8-1.8,1.8c0,1.1,0.8,1.9,1.9,1.9
			c0.5,0,1-0.2,1.3-0.5V69c-0.6,0.3-1.2,0.4-1.9,0.4c-2.2,0-4.1-1.7-4.1-4c0-2.4,1.9-4.1,4.2-4.1c0.6,0,1.2,0.1,1.8,0.4V64.1z"/>
		<path id="XMLID_1066_" class="st4" d="M484.3,58.7c0,0.8-0.7,1.5-1.5,1.5c-0.8,0-1.5-0.7-1.5-1.5c0-0.8,0.7-1.5,1.5-1.5
			C483.7,57.2,484.3,57.9,484.3,58.7z M484.2,69.2h-2.7v-7.6h2.7V69.2z"/>
		<path id="XMLID_1062_" class="st4" d="M494.5,65.4c0,2.6-2.1,4-4.6,4c-2.4,0-4.6-1.4-4.6-4s2.1-4,4.6-4
			C492.4,61.4,494.5,62.8,494.5,65.4z M488.2,65.4c0,1,0.6,1.7,1.7,1.7c1.1,0,1.7-0.7,1.7-1.7c0-0.9-0.6-1.7-1.7-1.7
			C488.8,63.7,488.2,64.5,488.2,65.4z M489.6,60.5l-1.2-0.9l2.1-2.5l1.6,1.2L489.6,60.5z"/>
		<path id="XMLID_1060_" class="st4" d="M498.4,62.6L498.4,62.6c0.6-0.9,1.4-1.2,2.4-1.2c2,0,2.8,1.3,2.8,3.1v4.7H501v-3.7
			c0-0.7,0.1-2-1.2-2c-1.1,0-1.4,0.8-1.4,1.8v3.9h-2.7v-7.6h2.7V62.6z"/>
		<path id="XMLID_1057_" class="st4" d="M518.3,65.8h-5.6c0,1.1,0.6,1.7,1.7,1.7c0.6,0,1-0.2,1.3-0.7h2.6c-0.2,0.9-0.7,1.5-1.4,2
			c-0.7,0.4-1.5,0.6-2.4,0.6c-2.5,0-4.4-1.4-4.4-4c0-2.5,1.7-4,4.2-4c2.6,0,4.1,1.6,4.1,4.2V65.8z M515.8,64.3
			c-0.1-0.7-0.8-1.2-1.5-1.2c-0.8,0-1.4,0.4-1.6,1.2H515.8z"/>
		<path id="XMLID_1055_" class="st4" d="M527.5,69.2h-2.9V58.1h2.9V69.2z"/>
		<path id="XMLID_1053_" class="st4" d="M532,62.6L532,62.6c0.6-0.9,1.4-1.2,2.4-1.2c2,0,2.8,1.3,2.8,3.1v4.7h-2.7v-3.7
			c0-0.7,0.1-2-1.2-2c-1.1,0-1.4,0.8-1.4,1.8v3.9h-2.7v-7.6h2.7V62.6z"/>
		<path id="XMLID_1051_" class="st4" d="M542,69.2h-2.7v-5.4h-0.9v-2.2h0.9v-1c0-1,0-1.8,0.8-2.7c0.7-0.8,1.6-1.2,2.6-1.2
			c0.4,0,0.8,0.1,1.2,0.3v2.3c-0.3-0.1-0.6-0.3-0.9-0.3c-0.7,0-0.9,0.4-0.9,1.3v1.2h1.9v2.2H542V69.2z"/>
		<path id="XMLID_1048_" class="st4" d="M553.4,65.4c0,2.6-2.1,4-4.6,4c-2.4,0-4.6-1.4-4.6-4s2.1-4,4.6-4
			C551.2,61.4,553.4,62.8,553.4,65.4z M547.1,65.4c0,1,0.6,1.7,1.7,1.7c1.1,0,1.7-0.7,1.7-1.7c0-0.9-0.6-1.7-1.7-1.7
			C547.7,63.7,547.1,64.5,547.1,65.4z"/>
		<path id="XMLID_1046_" class="st4" d="M557.2,62.8L557.2,62.8c0.5-0.9,1.4-1.3,2.5-1.3h0.5v2.6c-0.4-0.2-0.7-0.3-1.1-0.3
			c-1.5,0-1.9,1-1.9,2.3v3.1h-2.7v-7.6h2.7V62.8z"/>
		<path id="XMLID_1044_" class="st4" d="M563.9,62.6L563.9,62.6c0.7-0.8,1.4-1.2,2.4-1.2c1.1,0,2,0.4,2.6,1.4
			c0.5-0.9,1.5-1.4,2.6-1.4c1.9,0,2.6,1.3,2.6,3v4.8h-2.7v-3.6c0-0.8,0-2.1-1.1-2.1c-1.2,0-1.3,1.2-1.3,2.1v3.6h-2.7v-3.6
			c0-0.8,0-2.1-1.2-2.1c-1.2,0-1.2,1.3-1.2,2.1v3.6h-2.7v-7.6h2.7V62.6z"/>
		<path id="XMLID_1041_" class="st4" d="M583.6,65.8h-5.6c0,1.1,0.6,1.7,1.7,1.7c0.6,0,1-0.2,1.3-0.7h2.6c-0.2,0.9-0.7,1.5-1.4,2
			c-0.7,0.4-1.5,0.6-2.4,0.6c-2.5,0-4.4-1.4-4.4-4c0-2.5,1.7-4,4.2-4c2.6,0,4.1,1.6,4.1,4.2V65.8z M581.1,64.3
			c-0.1-0.7-0.8-1.2-1.5-1.2c-0.8,0-1.4,0.4-1.6,1.2H581.1z"/>
	</g>
</g>
<g id="XMLID_21159_">
	<g>
		<path id="XMLID_565_" class="st4" d="M720.7,170c-0.6-0.8-1.5-1.2-2.5-1.2c-1.8,0-3,1.4-3,3.1c0,1.8,1.2,3,3,3
			c0.9,0,1.9-0.5,2.5-1.2v3.5c-1,0.3-1.7,0.5-2.6,0.5c-1.5,0-3-0.6-4.2-1.6c-1.2-1.1-1.8-2.6-1.8-4.2c0-1.5,0.6-3,1.6-4.1
			c1.1-1.1,2.7-1.8,4.2-1.8c0.9,0,1.8,0.2,2.6,0.6V170z"/>
		<path id="XMLID_562_" class="st4" d="M734.2,171.6c0,3.6-2.6,6.1-6.1,6.1s-6.1-2.5-6.1-6.1c0-3.4,2.9-5.7,6.1-5.7
			S734.2,168.2,734.2,171.6z M724.9,171.6c0,1.9,1.4,3.3,3.1,3.3c1.7,0,3.1-1.4,3.1-3.3c0-1.5-1.4-2.9-3.1-2.9
			C726.3,168.7,724.9,170.1,724.9,171.6z"/>
		<path id="XMLID_560_" class="st4" d="M735.6,166.2h2.9l5.3,6.8h0v-6.8h2.9v11.1h-2.9l-5.3-6.8h0v6.8h-2.9V166.2z"/>
		<path id="XMLID_558_" class="st4" d="M753,177.4h-2.9v-8.7h-2.4v-2.4h7.7v2.4H753V177.4z"/>
		<path id="XMLID_555_" class="st4" d="M765.7,177.4h-3.6l-2.7-4.3h0v4.3h-2.9v-11.1h4.3c2.2,0,3.9,1,3.9,3.4c0,1.5-0.9,2.9-2.4,3.1
			L765.7,177.4z M759.3,171.2h0.3c0.9,0,2-0.2,2-1.4c0-1.2-1.1-1.4-2-1.4h-0.3V171.2z"/>
		<path id="XMLID_553_" class="st4" d="M769.3,177.4h-2.9v-11.1h2.9V177.4z"/>
		<path id="XMLID_549_" class="st4" d="M771.2,177.4v-11.1h4.1c2,0,3.3,0.8,3.3,2.9c0,1-0.3,1.8-1.2,2.3v0c1.6,0.2,2.3,1.3,2.3,2.8
			c0,2.3-2,3.1-4,3.1H771.2z M774.1,170.6h0.3c0.8,0,1.6-0.1,1.6-1.1c0-1-0.9-1.1-1.7-1.1h-0.2V170.6z M774.1,175.1h0.4
			c0.9,0,2.3,0,2.3-1.2c0-1.3-1.4-1.2-2.4-1.2h-0.3V175.1z"/>
		<path id="XMLID_547_" class="st4" d="M790.8,166.2v6.3c0,1.4-0.1,2.8-1.2,3.9c-0.9,0.9-2.4,1.2-3.7,1.2c-1.3,0-2.8-0.3-3.7-1.2
			c-1.1-1.1-1.2-2.5-1.2-3.9v-6.3h2.9v5.9c0,1.4,0.1,3,2,3c1.9,0,2-1.6,2-3v-5.9H790.8z"/>
		<path id="XMLID_545_" class="st4" d="M791.4,166.2h3.5l2.1,3l2.1-3h3.5l-4.1,5.8v5.3h-2.9V172L791.4,166.2z"/>
		<path id="XMLID_543_" class="st4" d="M806.1,168.7v1.9h3.3v2.4h-3.3v1.9h3.4v2.4h-6.3v-11.1h6.3v2.4H806.1z"/>
		<path id="XMLID_541_" class="st4" d="M811.3,166.2h2.9l5.3,6.8h0v-6.8h2.9v11.1h-2.9l-5.3-6.8h0v6.8h-2.9V166.2z"/>
		<path id="XMLID_539_" class="st4" d="M828.7,177.4h-2.9v-8.7h-2.4v-2.4h7.7v2.4h-2.4V177.4z"/>
		<path id="XMLID_537_" class="st4" d="M835,168.7v1.9h3.3v2.4H835v1.9h3.4v2.4h-6.3v-11.1h6.3v2.4H835z"/>
		<path id="XMLID_535_" class="st4" d="M736.1,187.7c-0.6-0.8-1.5-1.2-2.5-1.2c-1.8,0-3,1.4-3,3.1c0,1.8,1.2,3,3,3
			c0.9,0,1.9-0.5,2.5-1.2v3.5c-1,0.3-1.7,0.5-2.6,0.5c-1.5,0-3-0.6-4.2-1.6c-1.2-1.1-1.8-2.6-1.8-4.2c0-1.5,0.6-3,1.6-4.1
			c1.1-1.1,2.7-1.8,4.2-1.8c0.9,0,1.8,0.2,2.6,0.6V187.7z"/>
		<path id="XMLID_532_" class="st4" d="M746.4,191.3c0,2.6-2.1,4-4.6,4c-2.4,0-4.6-1.4-4.6-4c0-2.6,2.1-4,4.6-4
			C744.3,187.2,746.4,188.7,746.4,191.3z M740.1,191.3c0,1,0.6,1.7,1.7,1.7c1.1,0,1.7-0.7,1.7-1.7c0-0.9-0.6-1.7-1.7-1.7
			C740.8,189.6,740.1,190.3,740.1,191.3z"/>
		<path id="XMLID_530_" class="st4" d="M750.3,188.7L750.3,188.7c0.5-0.9,1.4-1.3,2.5-1.3h0.5v2.6c-0.4-0.2-0.7-0.3-1.1-0.3
			c-1.5,0-1.9,1-1.9,2.3v3.1h-2.7v-7.6h2.7V188.7z"/>
		<path id="XMLID_528_" class="st4" d="M757,188.7L757,188.7c0.5-0.9,1.4-1.3,2.5-1.3h0.5v2.6c-0.4-0.2-0.7-0.3-1.1-0.3
			c-1.5,0-1.9,1-1.9,2.3v3.1h-2.7v-7.6h2.7V188.7z"/>
		<path id="XMLID_497_" class="st4" d="M768.8,191.7h-5.6c0,1.1,0.6,1.7,1.7,1.7c0.6,0,1-0.2,1.3-0.7h2.6c-0.2,0.9-0.7,1.5-1.4,2
			c-0.7,0.4-1.5,0.6-2.4,0.6c-2.5,0-4.4-1.4-4.4-4c0-2.5,1.7-4,4.2-4c2.6,0,4.1,1.6,4.1,4.2V191.7z M766.3,190.2
			c-0.1-0.7-0.8-1.2-1.5-1.2c-0.8,0-1.4,0.4-1.6,1.2H766.3z"/>
		<path id="XMLID_495_" class="st4" d="M775.4,189.9c-0.4-0.3-0.9-0.5-1.4-0.5c-1,0-1.8,0.8-1.8,1.8c0,1.1,0.8,1.9,1.9,1.9
			c0.5,0,1-0.2,1.3-0.5v2.3c-0.6,0.3-1.2,0.4-1.9,0.4c-2.2,0-4.1-1.7-4.1-4c0-2.4,1.9-4.1,4.2-4.1c0.6,0,1.2,0.1,1.8,0.4V189.9z"/>
		<path id="XMLID_493_" class="st4" d="M782.6,189.9c-0.4-0.3-0.9-0.5-1.4-0.5c-1,0-1.8,0.8-1.8,1.8c0,1.1,0.8,1.9,1.9,1.9
			c0.5,0,1-0.2,1.3-0.5v2.3c-0.6,0.3-1.2,0.4-1.9,0.4c-2.2,0-4.1-1.7-4.1-4c0-2.4,1.9-4.1,4.2-4.1c0.6,0,1.2,0.1,1.8,0.4V189.9z"/>
		<path id="XMLID_490_" class="st4" d="M787.1,184.6c0,0.8-0.7,1.5-1.5,1.5c-0.8,0-1.5-0.7-1.5-1.5c0-0.8,0.7-1.5,1.5-1.5
			C786.4,183.1,787.1,183.7,787.1,184.6z M786.9,195h-2.7v-7.6h2.7V195z"/>
		<path id="XMLID_487_" class="st4" d="M797.2,191.3c0,2.6-2.1,4-4.6,4c-2.4,0-4.6-1.4-4.6-4c0-2.6,2.1-4,4.6-4
			C795.1,187.2,797.2,188.7,797.2,191.3z M791,191.3c0,1,0.6,1.7,1.7,1.7c1.1,0,1.7-0.7,1.7-1.7c0-0.9-0.6-1.7-1.7-1.7
			C791.6,189.6,791,190.3,791,191.3z"/>
		<path id="XMLID_485_" class="st4" d="M801.1,188.5L801.1,188.5c0.6-0.9,1.4-1.2,2.4-1.2c2,0,2.8,1.3,2.8,3.1v4.7h-2.7v-3.7
			c0-0.7,0.1-2-1.2-2c-1.1,0-1.4,0.8-1.4,1.8v3.9h-2.7v-7.6h2.7V188.5z"/>
		<path id="XMLID_482_" class="st4" d="M816,191.7h-5.6c0,1.1,0.6,1.7,1.7,1.7c0.6,0,1-0.2,1.3-0.7h2.6c-0.2,0.9-0.7,1.5-1.4,2
			c-0.7,0.4-1.5,0.6-2.4,0.6c-2.5,0-4.4-1.4-4.4-4c0-2.5,1.7-4,4.2-4c2.6,0,4.1,1.6,4.1,4.2V191.7z M813.5,190.2
			c-0.1-0.7-0.8-1.2-1.5-1.2c-0.8,0-1.4,0.4-1.6,1.2H813.5z"/>
		<path id="XMLID_480_" class="st4" d="M822.2,189.4c-0.4-0.2-1-0.4-1.4-0.4c-0.3,0-0.8,0.1-0.8,0.5c0,0.5,0.8,0.6,1.2,0.7
			c1.3,0.3,2.2,0.8,2.2,2.2c0,2-1.8,2.8-3.6,2.8c-1.1,0-2.1-0.3-3.1-0.9l1-1.9c0.5,0.4,1.5,0.8,2.1,0.8c0.3,0,0.8-0.2,0.8-0.6
			c0-0.6-0.8-0.6-1.7-0.8c-0.8-0.2-1.7-0.6-1.7-2c0-1.9,1.7-2.7,3.3-2.7c0.9,0,1.7,0.1,2.5,0.5L822.2,189.4z"/>
	</g>
</g>
<rect id="XMLID_3592_" x="388.1" y="131.9" class="st3" width="223" height="101"/>
<rect id="XMLID_3588_" x="388.1" y="262.9" class="st3" width="223" height="101"/>
<g id="XMLID_21046_">
	<g>
		<path id="XMLID_1357_" class="st4" d="M421.8,173l-0.8,1.9h-3.1l4.3-11.1h3.2l4.2,11.1h-3.1l-0.7-1.9H421.8z M423.8,167.2
			L423.8,167.2l-1.2,3.5h2.4L423.8,167.2z"/>
		<path id="XMLID_1354_" class="st4" d="M439.7,174.9h-3.6l-2.7-4.3h0v4.3h-2.9v-11.1h4.3c2.2,0,3.9,1,3.9,3.4
			c0,1.5-0.9,2.9-2.4,3.1L439.7,174.9z M433.3,168.8h0.3c0.9,0,2-0.2,2-1.4c0-1.2-1.1-1.4-2-1.4h-0.3V168.8z"/>
		<path id="XMLID_1352_" class="st4" d="M443.4,166.2v1.9h3.3v2.4h-3.3v1.9h3.4v2.4h-6.3v-11.1h6.3v2.4H443.4z"/>
		<path id="XMLID_1349_" class="st4" d="M451.4,173l-0.8,1.9h-3.1l4.3-11.1h3.2l4.2,11.1h-3.1l-0.7-1.9H451.4z M453.4,167.2
			L453.4,167.2l-1.2,3.5h2.4L453.4,167.2z"/>
		<path id="XMLID_1347_" class="st4" d="M469.6,174.9h-2.9v-8.7h-2.4v-2.4h7.7v2.4h-2.4V174.9z"/>
		<path id="XMLID_1345_" class="st4" d="M475.9,166.2v1.9h3.3v2.4h-3.3v1.9h3.4v2.4H473v-11.1h6.3v2.4H475.9z"/>
		<path id="XMLID_1343_" class="st4" d="M489.1,167.5c-0.6-0.8-1.5-1.2-2.5-1.2c-1.8,0-3,1.4-3,3.1c0,1.8,1.2,3,3,3
			c0.9,0,1.9-0.5,2.5-1.2v3.5c-1,0.3-1.7,0.5-2.6,0.5c-1.5,0-3-0.6-4.2-1.6c-1.2-1.1-1.8-2.6-1.8-4.2c0-1.5,0.6-3,1.6-4.1
			c1.1-1.1,2.7-1.8,4.2-1.8c0.9,0,1.8,0.2,2.6,0.6V167.5z"/>
		<path id="XMLID_1341_" class="st4" d="M490.9,163.8h2.9l5.3,6.8h0v-6.8h2.9v11.1h-2.9l-5.3-6.8h0v6.8h-2.9V163.8z"/>
		<path id="XMLID_1339_" class="st4" d="M506.7,174.9h-2.9v-11.1h2.9V174.9z"/>
		<path id="XMLID_1337_" class="st4" d="M516.6,167.5c-0.6-0.8-1.5-1.2-2.5-1.2c-1.8,0-3,1.4-3,3.1c0,1.8,1.2,3,3,3
			c0.9,0,1.9-0.5,2.5-1.2v3.5c-1,0.3-1.7,0.5-2.6,0.5c-1.5,0-3-0.6-4.2-1.6c-1.2-1.1-1.8-2.6-1.8-4.2c0-1.5,0.6-3,1.6-4.1
			c1.1-1.1,2.7-1.8,4.2-1.8c0.9,0,1.8,0.2,2.6,0.6V167.5z"/>
		<path id="XMLID_1334_" class="st4" d="M530.1,169.1c0,3.6-2.6,6.1-6.1,6.1s-6.1-2.5-6.1-6.1c0-3.4,2.9-5.7,6.1-5.7
			S530.1,165.8,530.1,169.1z M520.8,169.1c0,1.9,1.4,3.3,3.1,3.3c1.7,0,3.1-1.4,3.1-3.3c0-1.5-1.4-2.9-3.1-2.9
			C522.2,166.2,520.8,167.6,520.8,169.1z"/>
		<path id="XMLID_1332_" class="st4" d="M537.5,166.6c-0.5-0.4-1.2-0.7-1.9-0.7c-0.5,0-1.2,0.3-1.2,0.9c0,0.6,0.8,0.9,1.3,1.1
			l0.7,0.2c1.5,0.5,2.7,1.2,2.7,3c0,1.1-0.3,2.2-1.2,3c-0.9,0.7-2,1-3.2,1c-1.4,0-2.8-0.5-3.9-1.3l1.2-2.3c0.7,0.6,1.6,1.2,2.6,1.2
			c0.7,0,1.4-0.3,1.4-1.1c0-0.8-1.1-1.1-1.8-1.3c-1.8-0.5-3-1-3-3.1c0-2.3,1.6-3.7,3.8-3.7c1.1,0,2.5,0.4,3.5,0.9L537.5,166.6z"/>
		<path id="XMLID_1330_" class="st4" d="M547.7,162.7l-5.6,13.6H540l5.6-13.6H547.7z"/>
		<path id="XMLID_1327_" class="st4" d="M551.9,173l-0.8,1.9h-3.1l4.3-11.1h3.2l4.2,11.1h-3.1l-0.7-1.9H551.9z M553.9,167.2
			L553.9,167.2l-1.2,3.5h2.4L553.9,167.2z"/>
		<path id="XMLID_1324_" class="st4" d="M569.8,174.9h-3.6l-2.7-4.3h0v4.3h-2.9v-11.1h4.3c2.2,0,3.9,1,3.9,3.4
			c0,1.5-0.9,2.9-2.4,3.1L569.8,174.9z M563.5,168.8h0.3c0.9,0,2-0.2,2-1.4c0-1.2-1.1-1.4-2-1.4h-0.3V168.8z"/>
		<path id="XMLID_1321_" class="st4" d="M580.1,175.6l-0.9-1c-0.9,0.5-1.9,0.7-3.1,0.7c-3.6,0-6.1-2.5-6.1-6.1
			c0-3.4,2.9-5.7,6.1-5.7c3.5,0,6.1,2.3,6.1,6c0,1.5-0.5,2.8-1.4,3.9l1.9,1.9L580.1,175.6z M578.8,171c0.3-0.5,0.5-1.1,0.5-1.6
			c0-1.7-1.4-3.2-3.1-3.2c-1.7,0-3.2,1.4-3.2,2.9c0,1.9,1.4,3.3,3.2,3.3c0.3,0,0.6,0,0.9-0.1l-1.8-1.8l2.7-0.3L578.8,171z"/>
		<path id="XMLID_1319_" class="st4" d="M430.7,192.6h-2.9v-11.1h2.9V192.6z"/>
		<path id="XMLID_1317_" class="st4" d="M435.2,186L435.2,186c0.6-0.9,1.4-1.2,2.4-1.2c2,0,2.8,1.3,2.8,3.1v4.7h-2.7v-3.7
			c0-0.7,0.1-2-1.2-2c-1.1,0-1.4,0.8-1.4,1.8v3.9h-2.7V185h2.7V186z"/>
		<path id="XMLID_1315_" class="st4" d="M447.3,187c-0.4-0.2-1-0.4-1.4-0.4c-0.3,0-0.8,0.1-0.8,0.5c0,0.5,0.8,0.6,1.2,0.7
			c1.3,0.3,2.2,0.8,2.2,2.2c0,2-1.8,2.8-3.6,2.8c-1.1,0-2.1-0.3-3.1-0.9l1-1.9c0.5,0.4,1.5,0.8,2.1,0.8c0.3,0,0.8-0.2,0.8-0.6
			c0-0.6-0.8-0.6-1.7-0.8c-0.8-0.2-1.7-0.6-1.7-2c0-1.9,1.7-2.7,3.3-2.7c0.9,0,1.7,0.1,2.5,0.5L447.3,187z"/>
		<path id="XMLID_1312_" class="st4" d="M452.4,185.9L452.4,185.9c0.5-0.8,1.4-1.1,2.3-1.1c2.3,0,3.8,1.9,3.8,4.1c0,2.2-1.5,4-3.8,4
			c-0.9,0-1.8-0.3-2.3-1v4.5h-2.7V185h2.7V185.9z M452.4,188.8c0,1,0.6,1.7,1.7,1.7c1.1,0,1.7-0.7,1.7-1.7c0-0.9-0.6-1.7-1.7-1.7
			C453,187.1,452.4,187.9,452.4,188.8z"/>
		<path id="XMLID_1309_" class="st4" d="M467.7,189.3H462c0,1.1,0.6,1.7,1.7,1.7c0.6,0,1-0.2,1.3-0.7h2.6c-0.2,0.9-0.7,1.5-1.4,2
			c-0.7,0.4-1.5,0.6-2.4,0.6c-2.5,0-4.4-1.4-4.4-4c0-2.5,1.7-4,4.2-4c2.6,0,4.1,1.6,4.1,4.2V189.3z M465.2,187.7
			c-0.1-0.7-0.8-1.2-1.5-1.2c-0.8,0-1.4,0.4-1.6,1.2H465.2z"/>
		<path id="XMLID_1307_" class="st4" d="M474.4,187.5c-0.4-0.3-0.9-0.5-1.4-0.5c-1,0-1.8,0.8-1.8,1.8c0,1.1,0.8,1.9,1.9,1.9
			c0.5,0,1-0.2,1.3-0.5v2.3c-0.6,0.3-1.2,0.4-1.9,0.4c-2.2,0-4.1-1.7-4.1-4c0-2.4,1.9-4.1,4.2-4.1c0.6,0,1.2,0.1,1.8,0.4V187.5z"/>
		<path id="XMLID_1305_" class="st4" d="M481.5,187.5c-0.4-0.3-0.9-0.5-1.4-0.5c-1,0-1.8,0.8-1.8,1.8c0,1.1,0.8,1.9,1.9,1.9
			c0.5,0,1-0.2,1.3-0.5v2.3c-0.6,0.3-1.2,0.4-1.9,0.4c-2.2,0-4.1-1.7-4.1-4c0-2.4,1.9-4.1,4.2-4.1c0.6,0,1.2,0.1,1.8,0.4V187.5z"/>
		<path id="XMLID_1302_" class="st4" d="M486,182.1c0,0.8-0.7,1.5-1.5,1.5c-0.8,0-1.5-0.7-1.5-1.5c0-0.8,0.7-1.5,1.5-1.5
			C485.3,180.6,486,181.3,486,182.1z M485.8,192.6h-2.7V185h2.7V192.6z"/>
		<path id="XMLID_1298_" class="st4" d="M496.1,188.8c0,2.6-2.1,4-4.6,4c-2.4,0-4.6-1.4-4.6-4c0-2.6,2.1-4,4.6-4
			C494,184.8,496.1,186.2,496.1,188.8z M489.9,188.8c0,1,0.6,1.7,1.7,1.7c1.1,0,1.7-0.7,1.7-1.7c0-0.9-0.6-1.7-1.7-1.7
			C490.5,187.1,489.9,187.9,489.9,188.8z M491.3,183.9l-1.2-0.9l2.1-2.5l1.6,1.2L491.3,183.9z"/>
		<path id="XMLID_1296_" class="st4" d="M500,186L500,186c0.6-0.9,1.4-1.2,2.4-1.2c2,0,2.8,1.3,2.8,3.1v4.7h-2.7v-3.7
			c0-0.7,0.1-2-1.2-2c-1.1,0-1.4,0.8-1.4,1.8v3.9h-2.7V185h2.7V186z"/>
		<path id="XMLID_1294_" class="st4" d="M514.8,192.6h-2.7v-12.2h2.7V192.6z"/>
		<path id="XMLID_1292_" class="st4" d="M519.3,192.6h-2.7v-12.2h2.7V192.6z"/>
		<path id="XMLID_1289_" class="st4" d="M528.8,189.3h-5.6c0,1.1,0.6,1.7,1.7,1.7c0.6,0,1-0.2,1.3-0.7h2.6c-0.2,0.9-0.7,1.5-1.4,2
			c-0.7,0.4-1.5,0.6-2.4,0.6c-2.5,0-4.4-1.4-4.4-4c0-2.5,1.7-4,4.2-4c2.6,0,4.1,1.6,4.1,4.2V189.3z M526.3,187.7
			c-0.1-0.7-0.8-1.2-1.5-1.2c-0.8,0-1.4,0.4-1.6,1.2H526.3z"/>
		<path id="XMLID_1287_" class="st4" d="M532.7,186L532.7,186c0.6-0.9,1.4-1.2,2.4-1.2c2,0,2.8,1.3,2.8,3.1v4.7h-2.7v-3.7
			c0-0.7,0.1-2-1.2-2c-1.1,0-1.4,0.8-1.4,1.8v3.9h-2.7V185h2.7V186z"/>
		<path id="XMLID_1284_" class="st4" d="M548.1,192.6h-2.7v-0.8h0c-0.5,0.8-1.4,1.1-2.3,1.1c-2.2,0-3.8-1.9-3.8-4c0-2.2,1.5-4,3.8-4
			c0.9,0,1.8,0.3,2.3,1V185h2.7V192.6z M542,188.8c0,1,0.6,1.7,1.7,1.7c1.1,0,1.7-0.7,1.7-1.7c0-0.9-0.6-1.7-1.7-1.7
			C542.7,187.1,542,187.9,542,188.8z"/>
		<path id="XMLID_1281_" class="st4" d="M555.6,191.7L555.6,191.7c-0.5,0.8-1.4,1.1-2.3,1.1c-2.2,0-3.8-1.9-3.8-4c0-2.2,1.5-4,3.8-4
			c0.9,0,1.8,0.3,2.3,1v-5.4h2.7v12.2h-2.7V191.7z M552.2,188.8c0,1,0.6,1.7,1.7,1.7c1.1,0,1.7-0.7,1.7-1.7c0-0.9-0.6-1.7-1.7-1.7
			C552.8,187.1,552.2,187.9,552.2,188.8z"/>
		<path id="XMLID_1278_" class="st4" d="M568.5,188.8c0,2.6-2.1,4-4.6,4c-2.4,0-4.6-1.4-4.6-4c0-2.6,2.1-4,4.6-4
			C566.3,184.8,568.5,186.2,568.5,188.8z M562.2,188.8c0,1,0.6,1.7,1.7,1.7c1.1,0,1.7-0.7,1.7-1.7c0-0.9-0.6-1.7-1.7-1.7
			C562.8,187.1,562.2,187.9,562.2,188.8z"/>
		<path id="XMLID_1275_" class="st4" d="M454,209.4L454,209.4c-0.5,0.8-1.4,1.1-2.3,1.1c-2.2,0-3.8-1.9-3.8-4c0-2.2,1.5-4,3.8-4
			c0.9,0,1.8,0.3,2.3,1V198h2.7v12.2H454V209.4z M450.6,206.5c0,1,0.6,1.7,1.7,1.7c1.1,0,1.7-0.7,1.7-1.7c0-0.9-0.6-1.7-1.7-1.7
			C451.2,204.8,450.6,205.6,450.6,206.5z"/>
		<path id="XMLID_1272_" class="st4" d="M466.1,206.9h-5.6c0,1.1,0.6,1.7,1.7,1.7c0.6,0,1-0.2,1.3-0.7h2.6c-0.2,0.9-0.7,1.5-1.4,2
			c-0.7,0.4-1.5,0.6-2.4,0.6c-2.5,0-4.4-1.4-4.4-4c0-2.5,1.7-4,4.2-4c2.6,0,4.1,1.6,4.1,4.2V206.9z M463.6,205.4
			c-0.1-0.7-0.8-1.2-1.5-1.2c-0.8,0-1.4,0.4-1.6,1.2H463.6z"/>
		<path id="XMLID_1270_" class="st4" d="M475.3,210.3h-2.7v-5.4h-0.9v-2.2h0.9v-1c0-1,0-1.8,0.8-2.7c0.7-0.8,1.6-1.2,2.6-1.2
			c0.4,0,0.8,0.1,1.2,0.3v2.3c-0.3-0.1-0.6-0.3-0.9-0.3c-0.7,0-0.9,0.4-0.9,1.3v1.2h1.9v2.2h-1.9V210.3z"/>
		<path id="XMLID_1267_" class="st4" d="M486.6,206.5c0,2.6-2.1,4-4.6,4c-2.4,0-4.6-1.4-4.6-4c0-2.6,2.1-4,4.6-4
			C484.5,202.5,486.6,203.9,486.6,206.5z M480.4,206.5c0,1,0.6,1.7,1.7,1.7c1.1,0,1.7-0.7,1.7-1.7c0-0.9-0.6-1.7-1.7-1.7
			C481,204.8,480.4,205.6,480.4,206.5z"/>
		<path id="XMLID_1265_" class="st4" d="M490.5,204L490.5,204c0.5-0.9,1.4-1.3,2.5-1.3h0.5v2.6c-0.4-0.2-0.7-0.3-1.1-0.3
			c-1.5,0-1.9,1-1.9,2.3v3.1h-2.7v-7.6h2.7V204z"/>
		<path id="XMLID_1263_" class="st4" d="M497.2,203.7L497.2,203.7c0.7-0.8,1.4-1.2,2.4-1.2c1.1,0,2,0.4,2.6,1.4
			c0.5-0.9,1.5-1.4,2.6-1.4c1.9,0,2.6,1.3,2.6,3v4.8h-2.7v-3.6c0-0.8,0-2.1-1.1-2.1c-1.2,0-1.3,1.2-1.3,2.1v3.6h-2.7v-3.6
			c0-0.8,0-2.1-1.2-2.1c-1.2,0-1.2,1.3-1.2,2.1v3.6h-2.7v-7.6h2.7V203.7z"/>
		<path id="XMLID_1261_" class="st4" d="M511.8,202.7v4c0,1,0.2,1.6,1.3,1.6c1.1,0,1.3-0.7,1.3-1.6v-4h2.7v4.6c0,2.5-1.8,3.3-4,3.3
			c-2.3,0-4-0.8-4-3.3v-4.6H511.8z"/>
		<path id="XMLID_1259_" class="st4" d="M521.5,210.3h-2.7V198h2.7V210.3z"/>
		<path id="XMLID_1256_" class="st4" d="M531.6,210.3h-2.7v-0.8h0c-0.5,0.8-1.4,1.1-2.3,1.1c-2.2,0-3.8-1.9-3.8-4c0-2.2,1.5-4,3.8-4
			c0.9,0,1.8,0.3,2.3,1v-0.7h2.7V210.3z M525.5,206.5c0,1,0.6,1.7,1.7,1.7c1.1,0,1.7-0.7,1.7-1.7c0-0.9-0.6-1.7-1.7-1.7
			C526.1,204.8,525.5,205.6,525.5,206.5z"/>
		<path id="XMLID_1254_" class="st4" d="M536,204L536,204c0.5-0.9,1.4-1.3,2.5-1.3h0.5v2.6c-0.4-0.2-0.7-0.3-1.1-0.3
			c-1.5,0-1.9,1-1.9,2.3v3.1h-2.7v-7.6h2.7V204z"/>
		<path id="XMLID_1251_" class="st4" d="M542.9,199.8c0,0.8-0.7,1.5-1.5,1.5c-0.8,0-1.5-0.7-1.5-1.5c0-0.8,0.7-1.5,1.5-1.5
			C542.2,198.3,542.9,199,542.9,199.8z M542.7,210.3H540v-7.6h2.7V210.3z"/>
		<path id="XMLID_1248_" class="st4" d="M553,206.5c0,2.6-2.1,4-4.6,4c-2.4,0-4.6-1.4-4.6-4c0-2.6,2.1-4,4.6-4
			C550.9,202.5,553,203.9,553,206.5z M546.7,206.5c0,1,0.6,1.7,1.7,1.7c1.1,0,1.7-0.7,1.7-1.7c0-0.9-0.6-1.7-1.7-1.7
			C547.4,204.8,546.7,205.6,546.7,206.5z"/>
	</g>
</g>
<g id="XMLID_20970_">
	<g>
		<path id="XMLID_761_" class="st4" d="M447.8,294.2c-0.5-0.4-1.2-0.7-1.9-0.7c-0.5,0-1.2,0.3-1.2,0.9c0,0.6,0.8,0.9,1.3,1.1
			l0.7,0.2c1.5,0.5,2.7,1.2,2.7,3c0,1.1-0.3,2.2-1.2,3c-0.9,0.7-2,1-3.2,1c-1.4,0-2.8-0.5-3.9-1.3l1.2-2.3c0.7,0.6,1.6,1.2,2.6,1.2
			c0.7,0,1.4-0.3,1.4-1.1c0-0.8-1.1-1.1-1.8-1.3c-1.8-0.5-3-1-3-3.1c0-2.3,1.6-3.7,3.8-3.7c1.1,0,2.5,0.4,3.5,0.9L447.8,294.2z"/>
		<path id="XMLID_759_" class="st4" d="M453.7,293.8v1.9h3.3v2.4h-3.3v1.9h3.4v2.4h-6.3v-11.1h6.3v2.4H453.7z"/>
		<path id="XMLID_757_" class="st4" d="M466.9,295.1c-0.6-0.8-1.5-1.2-2.5-1.2c-1.8,0-3,1.4-3,3.1c0,1.8,1.2,3,3,3
			c0.9,0,1.9-0.5,2.5-1.2v3.5c-1,0.3-1.7,0.5-2.6,0.5c-1.5,0-3-0.6-4.2-1.6c-1.2-1.1-1.8-2.6-1.8-4.2c0-1.5,0.6-3,1.6-4.1
			c1.1-1.1,2.7-1.8,4.2-1.8c0.9,0,1.8,0.2,2.6,0.6V295.1z"/>
		<path id="XMLID_754_" class="st4" d="M477.9,302.5h-3.6l-2.7-4.3h0v4.3h-2.9v-11.1h4.3c2.2,0,3.9,1,3.9,3.4c0,1.5-0.9,2.9-2.4,3.1
			L477.9,302.5z M471.5,296.4h0.3c0.9,0,2-0.2,2-1.4c0-1.2-1.1-1.4-2-1.4h-0.3V296.4z"/>
		<path id="XMLID_752_" class="st4" d="M481.6,293.8v1.9h3.3v2.4h-3.3v1.9h3.4v2.4h-6.3v-11.1h6.3v2.4H481.6z"/>
		<path id="XMLID_750_" class="st4" d="M491.2,302.5h-2.9v-8.7h-2.4v-2.4h7.7v2.4h-2.4V302.5z"/>
		<path id="XMLID_747_" class="st4" d="M496.6,300.6l-0.8,1.9h-3.1l4.3-11.1h3.2l4.2,11.1h-3.1l-0.7-1.9H496.6z M498.6,294.8
			L498.6,294.8l-1.2,3.5h2.4L498.6,294.8z"/>
		<path id="XMLID_744_" class="st4" d="M514.5,302.5h-3.6l-2.7-4.3h0v4.3h-2.9v-11.1h4.3c2.2,0,3.9,1,3.9,3.4c0,1.5-0.9,2.9-2.4,3.1
			L514.5,302.5z M508.2,296.4h0.3c0.9,0,2-0.2,2-1.4c0-1.2-1.1-1.4-2-1.4h-0.3V296.4z"/>
		<path id="XMLID_742_" class="st4" d="M518.2,302.5h-2.9v-11.1h2.9V302.5z"/>
		<path id="XMLID_739_" class="st4" d="M522.9,300.6l-0.8,1.9h-3.1l4.3-11.1h3.2l4.2,11.1h-3.1l-0.7-1.9H522.9z M524.9,294.8
			L524.9,294.8l-1.2,3.5h2.4L524.9,294.8z"/>
		<path id="XMLID_736_" class="st4" d="M536.6,291.4h4.1c3.1,0,5.6,2.4,5.6,5.6c0,3.1-2.6,5.6-5.6,5.6h-4.1V291.4z M539.5,300h0.6
			c1.7,0,3.2-0.9,3.2-3.1c0-2-1.3-3.1-3.2-3.1h-0.7V300z"/>
		<path id="XMLID_732_" class="st4" d="M550.6,293.8v1.9h3.3v2.4h-3.3v1.9h3.4v2.4h-6.3v-11.1h6.3v2.4H550.6z"/>
		<path id="XMLID_730_" class="st4" d="M457.7,311.9c-0.5-0.4-1.2-0.7-1.9-0.7c-0.5,0-1.2,0.3-1.2,0.9c0,0.6,0.8,0.9,1.3,1.1
			l0.7,0.2c1.5,0.5,2.7,1.2,2.7,3c0,1.1-0.3,2.2-1.2,3c-0.9,0.7-2,1-3.2,1c-1.4,0-2.8-0.5-3.9-1.3l1.2-2.3c0.7,0.6,1.6,1.2,2.6,1.2
			c0.7,0,1.4-0.3,1.4-1.1c0-0.8-1.1-1.1-1.8-1.3c-1.8-0.5-3-1-3-3.1c0-2.3,1.6-3.7,3.8-3.7c1.1,0,2.5,0.4,3.5,0.9L457.7,311.9z"/>
		<path id="XMLID_728_" class="st4" d="M463.6,311.5v1.9h3.3v2.4h-3.3v1.9h3.4v2.4h-6.3v-11.1h6.3v2.4H463.6z"/>
		<path id="XMLID_725_" class="st4" d="M478,320.2h-3.6l-2.7-4.3h0v4.3h-2.9v-11.1h4.3c2.2,0,3.9,1,3.9,3.4c0,1.5-0.9,2.9-2.4,3.1
			L478,320.2z M471.7,314.1h0.3c0.9,0,2-0.2,2-1.4c0-1.2-1.1-1.4-2-1.4h-0.3V314.1z"/>
		<path id="XMLID_723_" class="st4" d="M483.2,315.8l2.7-6.8h3.1l-4.7,11.1H482l-4.7-11.1h3.1L483.2,315.8z"/>
		<path id="XMLID_721_" class="st4" d="M492.6,320.2h-2.9v-11.1h2.9V320.2z"/>
		<path id="XMLID_719_" class="st4" d="M502.5,312.8c-0.6-0.8-1.5-1.2-2.5-1.2c-1.8,0-3,1.4-3,3.1c0,1.8,1.2,3,3,3
			c0.9,0,1.9-0.5,2.5-1.2v3.5c-1,0.3-1.7,0.5-2.6,0.5c-1.5,0-3-0.6-4.2-1.6c-1.2-1.1-1.8-2.6-1.8-4.2c0-1.5,0.6-3,1.6-4.1
			c1.1-1.1,2.7-1.8,4.2-1.8c0.9,0,1.8,0.2,2.6,0.6V312.8z"/>
		<path id="XMLID_717_" class="st4" d="M507.1,320.2h-2.9v-11.1h2.9V320.2z"/>
		<path id="XMLID_714_" class="st4" d="M520.8,314.4c0,3.6-2.6,6.1-6.1,6.1s-6.1-2.5-6.1-6.1c0-3.4,2.9-5.7,6.1-5.7
			C517.8,308.7,520.8,311.1,520.8,314.4z M511.5,314.4c0,1.9,1.4,3.3,3.1,3.3c1.7,0,3.1-1.4,3.1-3.3c0-1.5-1.4-2.9-3.1-2.9
			C512.9,311.5,511.5,312.9,511.5,314.4z"/>
		<path id="XMLID_711_" class="st4" d="M530,318.3l-0.8,1.9h-3.1l4.3-11.1h3.2l4.2,11.1h-3.1l-0.7-1.9H530z M532,312.5L532,312.5
			l-1.2,3.5h2.4L532,312.5z"/>
		<path id="XMLID_709_" class="st4" d="M541.6,317.7h3.5v2.4h-6.4v-11.1h2.9V317.7z"/>
		<path id="XMLID_707_" class="st4" d="M460.6,330.5c-0.6-0.8-1.5-1.2-2.5-1.2c-1.8,0-3,1.4-3,3.1c0,1.8,1.2,3,3,3
			c0.9,0,1.9-0.5,2.5-1.2v3.5c-1,0.3-1.7,0.5-2.6,0.5c-1.5,0-3-0.6-4.2-1.6c-1.2-1.1-1.8-2.6-1.8-4.2c0-1.5,0.6-3,1.6-4.1
			c1.1-1.1,2.7-1.8,4.2-1.8c0.9,0,1.8,0.2,2.6,0.6V330.5z"/>
		<path id="XMLID_705_" class="st4" d="M465.3,337.9h-2.9v-11.1h2.9V337.9z"/>
		<path id="XMLID_703_" class="st4" d="M476.8,326.8v6.3c0,1.4-0.1,2.8-1.2,3.9c-0.9,0.9-2.4,1.2-3.7,1.2c-1.3,0-2.8-0.3-3.7-1.2
			c-1.1-1.1-1.2-2.5-1.2-3.9v-6.3h2.9v5.9c0,1.4,0.1,3,2,3c1.9,0,2-1.6,2-3v-5.9H476.8z"/>
		<path id="XMLID_700_" class="st4" d="M478.7,326.8h4.1c3.1,0,5.6,2.4,5.6,5.6c0,3.1-2.6,5.6-5.6,5.6h-4.1V326.8z M481.5,335.4h0.6
			c1.7,0,3.2-0.9,3.2-3.1c0-2-1.3-3.1-3.2-3.1h-0.7V335.4z"/>
		<path id="XMLID_697_" class="st4" d="M492.6,335.9l-0.8,1.9h-3.1l4.3-11.1h3.2l4.2,11.1h-3.1l-0.7-1.9H492.6z M494.6,330.2
			L494.6,330.2l-1.2,3.5h2.4L494.6,330.2z"/>
		<path id="XMLID_694_" class="st4" d="M501.3,326.8h4.1c3.1,0,5.6,2.4,5.6,5.6c0,3.1-2.6,5.6-5.6,5.6h-4.1V326.8z M504.2,335.4h0.6
			c1.7,0,3.2-0.9,3.2-3.1c0-2-1.3-3.1-3.2-3.1h-0.7V335.4z"/>
		<path id="XMLID_691_" class="st4" d="M515.2,335.9l-0.8,1.9h-3.1l4.3-11.1h3.2l4.2,11.1h-3.1l-0.7-1.9H515.2z M517.2,330.2
			L517.2,330.2l-1.2,3.5h2.4L517.2,330.2z"/>
		<path id="XMLID_689_" class="st4" d="M523.9,326.8h2.9l5.3,6.8h0v-6.8h2.9v11.1h-2.9l-5.3-6.8h0v6.8h-2.9V326.8z"/>
		<path id="XMLID_686_" class="st4" d="M548.6,332.1c0,3.6-2.6,6.1-6.1,6.1s-6.1-2.5-6.1-6.1c0-3.4,2.9-5.7,6.1-5.7
			S548.6,328.8,548.6,332.1z M539.3,332.1c0,1.9,1.4,3.3,3.1,3.3c1.7,0,3.1-1.4,3.1-3.3c0-1.5-1.4-2.9-3.1-2.9
			C540.7,329.2,539.3,330.6,539.3,332.1z"/>
	</g>
</g>
<rect id="XMLID_3584_" x="388.1" y="393.8" class="st3" width="223" height="101"/>
<g id="XMLID_20840_">
	<g>
		<path id="XMLID_1838_" class="st4" d="M419.6,412.9h4.1c3.1,0,5.6,2.4,5.6,5.6c0,3.1-2.6,5.6-5.6,5.6h-4.1V412.9z M422.4,421.6
			h0.6c1.7,0,3.2-0.9,3.2-3.1c0-2-1.3-3.1-3.2-3.1h-0.7V421.6z"/>
		<path id="XMLID_1836_" class="st4" d="M433.5,424h-2.9v-11.1h2.9V424z"/>
		<path id="XMLID_1833_" class="st4" d="M444.7,424h-3.6l-2.7-4.3h0v4.3h-2.9v-11.1h4.3c2.2,0,3.9,1,3.9,3.4c0,1.5-0.9,2.9-2.4,3.1
			L444.7,424z M438.3,417.9h0.3c0.9,0,2-0.2,2-1.4c0-1.2-1.1-1.4-2-1.4h-0.3V417.9z"/>
		<path id="XMLID_1831_" class="st4" d="M448.8,422.6c0,0.9-0.8,1.7-1.7,1.7c-1,0-1.7-0.8-1.7-1.7c0-1,0.8-1.7,1.7-1.7
			C448,420.8,448.8,421.6,448.8,422.6z"/>
		<path id="XMLID_1828_" class="st4" d="M455.6,412.9h4.1c3.1,0,5.6,2.4,5.6,5.6c0,3.1-2.6,5.6-5.6,5.6h-4.1V412.9z M458.5,421.6
			h0.6c1.7,0,3.2-0.9,3.2-3.1c0-2-1.3-3.1-3.2-3.1h-0.7V421.6z"/>
		<path id="XMLID_1826_" class="st4" d="M469.5,415.3v1.9h3.3v2.4h-3.3v1.9h3.4v2.4h-6.3v-11.1h6.3v2.4H469.5z"/>
		<path id="XMLID_1824_" class="st4" d="M489.5,412.9v6.3c0,1.4-0.1,2.8-1.2,3.9c-0.9,0.9-2.4,1.2-3.7,1.2c-1.3,0-2.8-0.3-3.7-1.2
			c-1.1-1.1-1.2-2.5-1.2-3.9v-6.3h2.9v5.9c0,1.4,0.1,3,2,3c1.9,0,2-1.6,2-3v-5.9H489.5z"/>
		<path id="XMLID_1821_" class="st4" d="M500.5,424h-3.6l-2.7-4.3h0v4.3h-2.9v-11.1h4.3c2.2,0,3.9,1,3.9,3.4c0,1.5-0.9,2.9-2.4,3.1
			L500.5,424z M494.2,417.9h0.3c0.9,0,2-0.2,2-1.4c0-1.2-1.1-1.4-2-1.4h-0.3V417.9z"/>
		<path id="XMLID_1817_" class="st4" d="M501.3,424v-11.1h4.1c2,0,3.3,0.8,3.3,2.9c0,1-0.3,1.8-1.2,2.3v0c1.6,0.2,2.3,1.3,2.3,2.8
			c0,2.3-2,3.1-4,3.1H501.3z M504.2,417.3h0.3c0.8,0,1.6-0.1,1.6-1.1c0-1-0.9-1.1-1.7-1.1h-0.2V417.3z M504.2,421.8h0.4
			c0.9,0,2.3,0,2.3-1.2c0-1.3-1.4-1.2-2.4-1.2h-0.3V421.8z"/>
		<path id="XMLID_1814_" class="st4" d="M514.1,422.1l-0.8,1.9h-3.1l4.3-11.1h3.2l4.2,11.1h-3.1l-0.7-1.9H514.1z M516.2,416.3
			L516.2,416.3l-1.2,3.5h2.4L516.2,416.3z"/>
		<path id="XMLID_1812_" class="st4" d="M522.8,412.9h2.9l5.3,6.8h0v-6.8h2.9V424H531l-5.3-6.8h0v6.8h-2.9V412.9z"/>
		<path id="XMLID_1810_" class="st4" d="M538.7,424h-2.9v-11.1h2.9V424z"/>
		<path id="XMLID_1808_" class="st4" d="M546.7,415.7c-0.5-0.4-1.2-0.7-1.9-0.7c-0.5,0-1.2,0.3-1.2,0.9c0,0.6,0.8,0.9,1.3,1.1
			l0.7,0.2c1.5,0.5,2.7,1.2,2.7,3c0,1.1-0.3,2.2-1.2,3c-0.9,0.7-2,1-3.2,1c-1.4,0-2.8-0.5-3.9-1.3l1.2-2.3c0.7,0.6,1.6,1.2,2.6,1.2
			c0.7,0,1.4-0.3,1.4-1.1c0-0.8-1.1-1.1-1.8-1.3c-1.8-0.5-3-1-3-3.1c0-2.3,1.6-3.7,3.8-3.7c1.1,0,2.5,0.4,3.5,0.9L546.7,415.7z"/>
		<path id="XMLID_1806_" class="st4" d="M550.9,412.9h2.8l2.3,5.9l2.4-5.9h2.9l1.7,11.1H560l-0.8-6.4h0l-2.7,6.4h-1.2l-2.6-6.4h0
			l-0.9,6.4H549L550.9,412.9z"/>
		<path id="XMLID_1803_" class="st4" d="M575.9,418.2c0,3.6-2.6,6.1-6.1,6.1s-6.1-2.5-6.1-6.1c0-3.4,2.9-5.7,6.1-5.7
			S575.9,414.9,575.9,418.2z M566.6,418.3c0,1.9,1.4,3.3,3.1,3.3c1.7,0,3.1-1.4,3.1-3.3c0-1.5-1.4-2.9-3.1-2.9
			C568,415.3,566.6,416.7,566.6,418.3z"/>
		<path id="XMLID_1801_" class="st4" d="M433.1,435.9v2.2h-4.2v-2.2H433.1z"/>
		<path id="XMLID_1799_" class="st4" d="M445.9,435.5c0,1.6-0.1,3-1.1,4.4c-1.1,1.5-2.7,2.2-4.6,2.2c-3.5,0-5.9-2.4-5.9-5.9
			c0-3.6,2.4-6,6-6c2.3,0,4.1,1,5,3.1l-2.7,1.2c-0.4-1.1-1.2-1.8-2.4-1.8c-1.9,0-2.9,1.8-2.9,3.5c0,1.7,1,3.5,2.9,3.5
			c1.3,0,2.2-0.6,2.3-1.9h-2.4v-2.3H445.9z"/>
		<path id="XMLID_1797_" class="st4" d="M450.2,433v1.9h3.3v2.4h-3.3v1.9h3.4v2.4h-6.3v-11.1h6.3v2.4H450.2z"/>
		<path id="XMLID_1795_" class="st4" d="M461.5,433.4c-0.5-0.4-1.2-0.7-1.9-0.7c-0.5,0-1.2,0.3-1.2,0.9c0,0.6,0.8,0.9,1.3,1.1
			l0.7,0.2c1.5,0.5,2.7,1.2,2.7,3c0,1.1-0.3,2.2-1.2,3c-0.9,0.7-2,1-3.2,1c-1.4,0-2.8-0.5-3.9-1.3l1.2-2.3c0.7,0.6,1.6,1.2,2.6,1.2
			c0.7,0,1.4-0.3,1.4-1.1c0-0.8-1.1-1.1-1.8-1.3c-1.8-0.5-3-1-3-3.1c0-2.3,1.6-3.7,3.8-3.7c1.1,0,2.5,0.4,3.5,0.9L461.5,433.4z"/>
		<path id="XMLID_1793_" class="st4" d="M468.9,441.7H466V433h-2.4v-2.4h7.7v2.4h-2.4V441.7z"/>
		<path id="XMLID_1791_" class="st4" d="M475.2,441.7h-2.9v-11.1h2.9V441.7z"/>
		<path id="XMLID_1788_" class="st4" d="M488.8,435.9c0,3.6-2.6,6.1-6.1,6.1s-6.1-2.5-6.1-6.1c0-3.4,2.9-5.7,6.1-5.7
			S488.8,432.6,488.8,435.9z M479.6,435.9c0,1.9,1.4,3.3,3.1,3.3s3.1-1.4,3.1-3.3c0-1.5-1.4-2.9-3.1-2.9S479.6,434.4,479.6,435.9z"
			/>
		<path id="XMLID_1785_" class="st4" d="M499.4,441.7h-3.6l-2.7-4.3h0v4.3h-2.9v-11.1h4.3c2.2,0,3.9,1,3.9,3.4
			c0,1.5-0.9,2.9-2.4,3.1L499.4,441.7z M493.1,435.6h0.3c0.9,0,2-0.2,2-1.4c0-1.2-1.1-1.4-2-1.4h-0.3V435.6z"/>
		<path id="XMLID_1783_" class="st4" d="M514.9,430.6v6.3c0,1.4-0.1,2.8-1.2,3.9c-0.9,0.9-2.4,1.2-3.7,1.2c-1.3,0-2.8-0.3-3.7-1.2
			c-1.1-1.1-1.2-2.5-1.2-3.9v-6.3h2.9v5.9c0,1.4,0.1,3,2,3c1.9,0,2-1.6,2-3v-5.9H514.9z"/>
		<path id="XMLID_1780_" class="st4" d="M526,441.7h-3.6l-2.7-4.3h0v4.3h-2.9v-11.1h4.3c2.2,0,3.9,1,3.9,3.4c0,1.5-0.9,2.9-2.4,3.1
			L526,441.7z M519.6,435.6h0.3c0.9,0,2-0.2,2-1.4c0-1.2-1.1-1.4-2-1.4h-0.3V435.6z"/>
		<path id="XMLID_1776_" class="st4" d="M526.8,441.7v-11.1h4.1c2,0,3.3,0.8,3.3,2.9c0,1-0.3,1.8-1.2,2.3v0c1.6,0.2,2.3,1.3,2.3,2.8
			c0,2.3-2,3.1-4,3.1H526.8z M529.7,434.9h0.3c0.8,0,1.6-0.1,1.6-1.1c0-1-0.9-1.1-1.7-1.1h-0.2V434.9z M529.7,439.5h0.4
			c0.9,0,2.3,0,2.3-1.2c0-1.3-1.4-1.2-2.4-1.2h-0.3V439.5z"/>
		<path id="XMLID_1773_" class="st4" d="M539.6,439.8l-0.8,1.9h-3.1l4.3-11.1h3.2l4.2,11.1h-3.1l-0.7-1.9H539.6z M541.6,434
			L541.6,434l-1.2,3.5h2.4L541.6,434z"/>
		<path id="XMLID_1651_" class="st4" d="M548.3,430.6h2.9l5.3,6.8h0v-6.8h2.9v11.1h-2.9l-5.3-6.8h0v6.8h-2.9V430.6z"/>
		<path id="XMLID_1648_" class="st4" d="M564.1,439.8l-0.8,1.9h-3.1l4.3-11.1h3.2l4.2,11.1h-3.1l-0.7-1.9H564.1z M566.1,434
			L566.1,434l-1.2,3.5h2.4L566.1,434z"/>
		<path id="XMLID_1646_" class="st4" d="M446.8,448.3h3.5l2.1,3l2.1-3h3.5l-4.1,5.8v5.3h-2.9v-5.3L446.8,448.3z"/>
		<path id="XMLID_1644_" class="st4" d="M468,459.4h-2.9v-8.7h-2.4v-2.4h7.7v2.4H468V459.4z"/>
		<path id="XMLID_1642_" class="st4" d="M474.3,450.7v1.9h3.3v2.4h-3.3v1.9h3.4v2.4h-6.3v-11.1h6.3v2.4H474.3z"/>
		<path id="XMLID_1639_" class="st4" d="M488.8,459.4h-3.6l-2.7-4.3h0v4.3h-2.9v-11.1h4.3c2.2,0,3.9,1,3.9,3.4
			c0,1.5-0.9,2.9-2.4,3.1L488.8,459.4z M482.4,453.3h0.3c0.9,0,2-0.2,2-1.4c0-1.2-1.1-1.4-2-1.4h-0.3V453.3z"/>
		<path id="XMLID_1636_" class="st4" d="M498.8,459.4h-3.6l-2.7-4.3h0v4.3h-2.9v-11.1h4.3c2.2,0,3.9,1,3.9,3.4
			c0,1.5-0.9,2.9-2.4,3.1L498.8,459.4z M492.5,453.3h0.3c0.9,0,2-0.2,2-1.4c0-1.2-1.1-1.4-2-1.4h-0.3V453.3z"/>
		<path id="XMLID_1634_" class="st4" d="M502.5,459.4h-2.9v-11.1h2.9V459.4z"/>
		<path id="XMLID_1632_" class="st4" d="M508.8,459.4h-2.9v-8.7h-2.4v-2.4h7.7v2.4h-2.4V459.4z"/>
		<path id="XMLID_1629_" class="st4" d="M524,453.6c0,3.6-2.6,6.1-6.1,6.1s-6.1-2.5-6.1-6.1c0-3.4,2.9-5.7,6.1-5.7
			S524,450.3,524,453.6z M514.7,453.6c0,1.9,1.4,3.3,3.1,3.3c1.7,0,3.1-1.4,3.1-3.3c0-1.5-1.4-2.9-3.1-2.9
			C516.1,450.7,514.7,452.1,514.7,453.6z"/>
		<path id="XMLID_1626_" class="st4" d="M534.6,459.4H531l-2.7-4.3h0v4.3h-2.9v-11.1h4.3c2.2,0,3.9,1,3.9,3.4c0,1.5-0.9,2.9-2.4,3.1
			L534.6,459.4z M528.2,453.3h0.3c0.9,0,2-0.2,2-1.4c0-1.2-1.1-1.4-2-1.4h-0.3V453.3z"/>
		<path id="XMLID_1624_" class="st4" d="M538.2,459.4h-2.9v-11.1h2.9V459.4z"/>
		<path id="XMLID_1621_" class="st4" d="M542.9,457.5l-0.8,1.9h-3.1l4.3-11.1h3.2l4.2,11.1h-3.1l-0.7-1.9H542.9z M545,451.7
			L545,451.7l-1.2,3.5h2.4L545,451.7z"/>
		<path id="XMLID_1619_" class="st4" d="M554.5,456.9h3.5v2.4h-6.4v-11.1h2.9V456.9z"/>
		<path id="XMLID_1616_" class="st4" d="M459.3,475.2l-0.8,1.9h-3.1l4.3-11.1h3.2l4.2,11.1H464l-0.7-1.9H459.3z M461.3,469.4
			L461.3,469.4l-1.2,3.5h2.4L461.3,469.4z"/>
		<path id="XMLID_1613_" class="st4" d="M470.5,470.4L470.5,470.4c0.5-0.8,1.4-1.1,2.3-1.1c2.3,0,3.8,1.9,3.8,4.1c0,2.2-1.5,4-3.8,4
			c-0.9,0-1.8-0.3-2.3-1v4.5h-2.7v-11.3h2.7V470.4z M470.4,473.3c0,1,0.6,1.7,1.7,1.7c1.1,0,1.7-0.7,1.7-1.7c0-0.9-0.6-1.7-1.7-1.7
			C471.1,471.6,470.4,472.4,470.4,473.3z"/>
		<path id="XMLID_1611_" class="st4" d="M480.7,470.8L480.7,470.8c0.5-0.9,1.4-1.3,2.5-1.3h0.5v2.6c-0.4-0.2-0.7-0.3-1.1-0.3
			c-1.5,0-1.9,1-1.9,2.3v3.1H478v-7.6h2.7V470.8z"/>
		<path id="XMLID_1608_" class="st4" d="M492.9,473.3c0,2.6-2.1,4-4.6,4c-2.4,0-4.6-1.4-4.6-4s2.1-4,4.6-4
			C490.8,469.3,492.9,470.7,492.9,473.3z M486.7,473.3c0,1,0.6,1.7,1.7,1.7c1.1,0,1.7-0.7,1.7-1.7c0-0.9-0.6-1.7-1.7-1.7
			C487.3,471.6,486.7,472.4,486.7,473.3z"/>
		<path id="XMLID_1605_" class="st4" d="M494.1,464.8h2.7v5.4c0.6-0.7,1.5-1,2.3-1c2.2,0,3.8,1.9,3.8,4c0,2.2-1.6,4-3.8,4
			c-0.9,0-1.8-0.3-2.3-1.1h0v0.8h-2.7V464.8z M496.6,473.3c0,1,0.6,1.7,1.7,1.7c1.1,0,1.7-0.7,1.7-1.7c0-0.9-0.6-1.7-1.7-1.7
			C497.3,471.6,496.6,472.4,496.6,473.3z"/>
		<path id="XMLID_1602_" class="st4" d="M512.5,477.1h-2.7v-0.8h0c-0.5,0.8-1.4,1.1-2.3,1.1c-2.2,0-3.8-1.9-3.8-4s1.5-4,3.8-4
			c0.9,0,1.8,0.3,2.3,1v-0.7h2.7V477.1z M506.4,473.3c0,1,0.6,1.7,1.7,1.7c1.1,0,1.7-0.7,1.7-1.7c0-0.9-0.6-1.7-1.7-1.7
			C507.1,471.6,506.4,472.4,506.4,473.3z"/>
		<path id="XMLID_1600_" class="st4" d="M519.7,472c-0.4-0.3-0.9-0.5-1.4-0.5c-1,0-1.8,0.8-1.8,1.8c0,1.1,0.8,1.9,1.9,1.9
			c0.5,0,1-0.2,1.3-0.5v2.3c-0.6,0.3-1.2,0.4-1.9,0.4c-2.2,0-4.1-1.7-4.1-4c0-2.4,1.9-4.1,4.2-4.1c0.6,0,1.2,0.1,1.8,0.4V472z"/>
		<path id="XMLID_1597_" class="st4" d="M524.2,466.6c0,0.8-0.7,1.5-1.5,1.5c-0.8,0-1.5-0.7-1.5-1.5c0-0.8,0.7-1.5,1.5-1.5
			C523.5,465.1,524.2,465.8,524.2,466.6z M524.1,477.1h-2.7v-7.6h2.7V477.1z"/>
		<path id="XMLID_1594_" class="st4" d="M534.4,473.3c0,2.6-2.1,4-4.6,4c-2.4,0-4.6-1.4-4.6-4s2.1-4,4.6-4S534.4,470.7,534.4,473.3z
			 M528.1,473.3c0,1,0.6,1.7,1.7,1.7c1.1,0,1.7-0.7,1.7-1.7c0-0.9-0.6-1.7-1.7-1.7C528.7,471.6,528.1,472.4,528.1,473.3z"/>
		<path id="XMLID_1592_" class="st4" d="M538.3,470.5L538.3,470.5c0.6-0.9,1.4-1.2,2.4-1.2c2,0,2.8,1.3,2.8,3.1v4.7h-2.7v-3.7
			c0-0.7,0.1-2-1.2-2c-1.1,0-1.4,0.8-1.4,1.8v3.9h-2.7v-7.6h2.7V470.5z"/>
	</g>
</g>
<rect id="XMLID_3578_" x="388.1" y="524.7" class="st3" width="223" height="101"/>
<g id="XMLID_20753_">
	<g>
		<path id="XMLID_990_" class="st4" d="M436.5,556.4c-0.6-0.8-1.5-1.2-2.5-1.2c-1.8,0-3,1.4-3,3.1c0,1.8,1.2,3,3,3
			c0.9,0,1.9-0.5,2.5-1.2v3.5c-1,0.3-1.7,0.5-2.6,0.5c-1.5,0-3-0.6-4.2-1.6c-1.2-1.1-1.8-2.6-1.8-4.2c0-1.5,0.6-3,1.6-4.1
			c1.1-1.1,2.7-1.8,4.2-1.8c0.9,0,1.8,0.2,2.6,0.6V556.4z"/>
		<path id="XMLID_987_" class="st4" d="M441.1,561.8l-0.8,1.9h-3.1l4.3-11.1h3.2l4.2,11.1h-3.1l-0.7-1.9H441.1z M443.1,556.1
			L443.1,556.1l-1.2,3.5h2.4L443.1,556.1z"/>
		<path id="XMLID_985_" class="st4" d="M455.2,552.6v7.5c0,2.3-1.2,3.9-3.7,3.9c-1.2,0-2.2-0.6-2.9-1.6l1.7-1.8
			c0.3,0.4,0.8,0.9,1.2,0.9c0.9,0,0.8-1,0.8-1.6v-7.3H455.2z"/>
		<path id="XMLID_982_" class="st4" d="M459.8,561.8l-0.8,1.9H456l4.3-11.1h3.2l4.2,11.1h-3.1l-0.7-1.9H459.8z M461.8,556.1
			L461.8,556.1l-1.2,3.5h2.4L461.8,556.1z"/>
		<path id="XMLID_980_" class="st4" d="M478.2,559.4l2.7-6.8h3.1l-4.7,11.1h-2.2l-4.7-11.1h3.1L478.2,559.4z"/>
		<path id="XMLID_978_" class="st4" d="M487.7,555.1v1.9h3.3v2.4h-3.3v1.9h3.4v2.4h-6.3v-11.1h6.3v2.4H487.7z"/>
		<path id="XMLID_976_" class="st4" d="M492.9,552.6h2.9l5.3,6.8h0v-6.8h2.9v11.1h-2.9l-5.3-6.8h0v6.8h-2.9V552.6z"/>
		<path id="XMLID_974_" class="st4" d="M510.3,563.7h-2.9v-8.7H505v-2.4h7.7v2.4h-2.4V563.7z"/>
		<path id="XMLID_971_" class="st4" d="M515.7,561.8l-0.8,1.9h-3.1l4.3-11.1h3.2l4.2,11.1h-3.1l-0.7-1.9H515.7z M517.7,556.1
			L517.7,556.1l-1.2,3.5h2.4L517.7,556.1z"/>
		<path id="XMLID_969_" class="st4" d="M524.4,552.6h2.9l5.3,6.8h0v-6.8h2.9v11.1h-2.9l-5.3-6.8h0v6.8h-2.9V552.6z"/>
		<path id="XMLID_967_" class="st4" d="M540.3,563.7h-2.9v-11.1h2.9V563.7z"/>
		<path id="XMLID_965_" class="st4" d="M545,561.3h3.5v2.4h-6.4v-11.1h2.9V561.3z"/>
		<path id="XMLID_963_" class="st4" d="M552.3,561.3h3.5v2.4h-6.4v-11.1h2.9V561.3z"/>
		<path id="XMLID_960_" class="st4" d="M559.6,561.8l-0.8,1.9h-3.1l4.3-11.1h3.2l4.2,11.1h-3.1l-0.7-1.9H559.6z M561.6,556.1
			L561.6,556.1l-1.2,3.5h2.4L561.6,556.1z"/>
		<path id="XMLID_957_" class="st4" d="M430.2,570.3v6.3c0,1.4-0.1,2.8-1.2,3.9c-0.9,0.9-2.4,1.2-3.7,1.2c-1.3,0-2.8-0.3-3.7-1.2
			c-1.1-1.1-1.2-2.5-1.2-3.9v-6.3h2.9v5.9c0,1.4,0.1,3,2,3c1.9,0,2-1.6,2-3v-5.9H430.2z"/>
		<path id="XMLID_955_" class="st4" d="M432,570.3h2.9l5.3,6.8h0v-6.8h2.9v11.1h-2.9l-5.3-6.8h0v6.8H432V570.3z"/>
		<path id="XMLID_953_" class="st4" d="M447.9,581.4H445v-11.1h2.9V581.4z"/>
		<path id="XMLID_951_" class="st4" d="M457.7,574.1c-0.6-0.8-1.5-1.2-2.5-1.2c-1.8,0-3,1.4-3,3.1c0,1.8,1.2,3,3,3
			c0.9,0,1.9-0.5,2.5-1.2v3.5c-1,0.3-1.7,0.5-2.6,0.5c-1.5,0-3-0.6-4.2-1.6c-1.2-1.1-1.8-2.6-1.8-4.2c0-1.5,0.6-3,1.6-4.1
			c1.1-1.1,2.7-1.8,4.2-1.8c0.9,0,1.8,0.2,2.6,0.6V574.1z"/>
		<path id="XMLID_948_" class="st4" d="M462.3,579.5l-0.8,1.9h-3.1l4.3-11.1h3.2l4.2,11.1H467l-0.7-1.9H462.3z M464.3,573.8
			L464.3,573.8l-1.2,3.5h2.4L464.3,573.8z"/>
		<path id="XMLID_946_" class="st4" d="M482.2,573.2c-0.5-0.4-1.2-0.7-1.9-0.7c-0.5,0-1.2,0.3-1.2,0.9c0,0.6,0.8,0.9,1.3,1.1
			l0.7,0.2c1.5,0.5,2.7,1.2,2.7,3c0,1.1-0.3,2.2-1.2,3c-0.9,0.7-2,1-3.2,1c-1.4,0-2.8-0.5-3.9-1.3l1.2-2.3c0.7,0.6,1.6,1.2,2.6,1.2
			c0.7,0,1.4-0.3,1.4-1.1c0-0.8-1.1-1.1-1.8-1.3c-1.8-0.5-3-1-3-3.1c0-2.3,1.6-3.7,3.8-3.7c1.1,0,2.5,0.4,3.5,0.9L482.2,573.2z"/>
		<path id="XMLID_944_" class="st4" d="M494.8,570.3v6.3c0,1.4-0.1,2.8-1.2,3.9c-0.9,0.9-2.4,1.2-3.7,1.2s-2.8-0.3-3.7-1.2
			c-1.1-1.1-1.2-2.5-1.2-3.9v-6.3h2.9v5.9c0,1.4,0.1,3,2,3c1.9,0,2-1.6,2-3v-5.9H494.8z"/>
		<path id="XMLID_940_" class="st4" d="M496.6,581.4v-11.1h4.1c2,0,3.3,0.8,3.3,2.9c0,1-0.3,1.8-1.2,2.3v0c1.6,0.2,2.3,1.3,2.3,2.8
			c0,2.3-2,3.1-4,3.1H496.6z M499.5,574.7h0.3c0.8,0,1.6-0.1,1.6-1.1c0-1-0.9-1.1-1.7-1.1h-0.2V574.7z M499.5,579.2h0.4
			c0.9,0,2.3,0,2.3-1.2c0-1.3-1.4-1.2-2.4-1.2h-0.3V579.2z"/>
		<path id="XMLID_937_" class="st4" d="M509.4,579.5l-0.8,1.9h-3.1l4.3-11.1h3.2l4.2,11.1h-3.1l-0.7-1.9H509.4z M511.4,573.8
			L511.4,573.8l-1.2,3.5h2.4L511.4,573.8z"/>
		<path id="XMLID_935_" class="st4" d="M521,579h3.5v2.4h-6.4v-11.1h2.9V579z"/>
		<path id="XMLID_933_" class="st4" d="M533.4,574.1c-0.6-0.8-1.5-1.2-2.5-1.2c-1.8,0-3,1.4-3,3.1c0,1.8,1.2,3,3,3
			c0.9,0,1.9-0.5,2.5-1.2v3.5c-1,0.3-1.7,0.5-2.6,0.5c-1.5,0-3-0.6-4.2-1.6c-1.2-1.1-1.8-2.6-1.8-4.2c0-1.5,0.6-3,1.6-4.1
			c1.1-1.1,2.7-1.8,4.2-1.8c0.9,0,1.8,0.2,2.6,0.6V574.1z"/>
		<path id="XMLID_930_" class="st4" d="M538,579.5l-0.8,1.9h-3.1l4.3-11.1h3.2l4.2,11.1h-3.1l-0.7-1.9H538z M540,573.8L540,573.8
			l-1.2,3.5h2.4L540,573.8z"/>
		<path id="XMLID_928_" class="st4" d="M549.6,579h3.5v2.4h-6.4v-11.1h2.9V579z"/>
		<path id="XMLID_925_" class="st4" d="M554,570.3h4.1c3.1,0,5.6,2.4,5.6,5.6s-2.6,5.6-5.6,5.6H554V570.3z M556.8,579h0.6
			c1.7,0,3.2-0.9,3.2-3.1c0-2-1.3-3.1-3.2-3.1h-0.7V579z"/>
		<path id="XMLID_923_" class="st4" d="M567.9,581.4H565v-11.1h2.9V581.4z"/>
		<path id="XMLID_920_" class="st4" d="M572.7,579.5l-0.8,1.9h-3.1l4.3-11.1h3.2l4.2,11.1h-3.1l-0.7-1.9H572.7z M574.7,573.8
			L574.7,573.8l-1.2,3.5h2.4L574.7,573.8z"/>
		<path id="XMLID_918_" class="st4" d="M480.9,591.7c-0.6-0.8-1.5-1.2-2.5-1.2c-1.8,0-3,1.4-3,3.1c0,1.8,1.2,3,3,3
			c0.9,0,1.9-0.5,2.5-1.2v3.5c-1,0.3-1.7,0.5-2.6,0.5c-1.5,0-3-0.6-4.2-1.6c-1.2-1.1-1.8-2.6-1.8-4.2c0-1.5,0.6-3,1.6-4.1
			c1.1-1.1,2.7-1.8,4.2-1.8c0.9,0,1.8,0.2,2.6,0.6V591.7z"/>
		<path id="XMLID_915_" class="st4" d="M494.4,593.4c0,3.6-2.6,6.1-6.1,6.1s-6.1-2.5-6.1-6.1c0-3.4,2.9-5.7,6.1-5.7
			S494.4,590,494.4,593.4z M485.2,593.4c0,1.9,1.4,3.3,3.1,3.3s3.1-1.4,3.1-3.3c0-1.5-1.4-2.9-3.1-2.9S485.2,591.9,485.2,593.4z"/>
		<path id="XMLID_911_" class="st4" d="M495.8,599.1V588h4.1c2,0,3.3,0.8,3.3,2.9c0,1-0.3,1.8-1.2,2.3v0c1.6,0.2,2.3,1.3,2.3,2.8
			c0,2.3-2,3.1-4,3.1H495.8z M498.7,592.4h0.3c0.8,0,1.6-0.1,1.6-1.1c0-1-0.9-1.1-1.7-1.1h-0.2V592.4z M498.7,596.9h0.4
			c0.9,0,2.3,0,2.3-1.2c0-1.3-1.4-1.2-2.4-1.2h-0.3V596.9z"/>
		<path id="XMLID_908_" class="st4" d="M515,599.1h-3.6l-2.7-4.3h0v4.3h-2.9V588h4.3c2.2,0,3.9,1,3.9,3.4c0,1.5-0.9,2.9-2.4,3.1
			L515,599.1z M508.7,593h0.3c0.9,0,2-0.2,2-1.4c0-1.2-1.1-1.4-2-1.4h-0.3V593z"/>
		<path id="XMLID_905_" class="st4" d="M527.5,593.4c0,3.6-2.6,6.1-6.1,6.1s-6.1-2.5-6.1-6.1c0-3.4,2.9-5.7,6.1-5.7
			S527.5,590,527.5,593.4z M518.2,593.4c0,1.9,1.4,3.3,3.1,3.3c1.7,0,3.1-1.4,3.1-3.3c0-1.5-1.4-2.9-3.1-2.9
			C519.7,590.5,518.2,591.9,518.2,593.4z"/>
	</g>
</g>
<rect id="XMLID_3574_" x="388.1" y="655.7" class="st3" width="223" height="101"/>
<g id="XMLID_20633_">
	<g>
		<path id="XMLID_1769_" class="st4" d="M421.4,690.8l-0.8,1.9h-3.1l4.3-11.1h3.2l4.2,11.1h-3.1l-0.7-1.9H421.4z M423.4,685.1
			L423.4,685.1l-1.2,3.5h2.4L423.4,685.1z"/>
		<path id="XMLID_1766_" class="st4" d="M439.3,692.8h-3.6l-2.7-4.3h0v4.3h-2.9v-11.1h4.3c2.2,0,3.9,1,3.9,3.4
			c0,1.5-0.9,2.9-2.4,3.1L439.3,692.8z M433,686.6h0.3c0.9,0,2-0.2,2-1.4c0-1.2-1.1-1.4-2-1.4H433V686.6z"/>
		<path id="XMLID_1764_" class="st4" d="M443,684.1v1.9h3.3v2.4H443v1.9h3.4v2.4h-6.3v-11.1h6.3v2.4H443z"/>
		<path id="XMLID_1761_" class="st4" d="M451,690.8l-0.8,1.9h-3.1l4.3-11.1h3.2l4.2,11.1h-3.1l-0.7-1.9H451z M453.1,685.1
			L453.1,685.1l-1.2,3.5h2.4L453.1,685.1z"/>
		<path id="XMLID_1759_" class="st4" d="M469.2,692.8h-2.9v-8.7h-2.4v-2.4h7.7v2.4h-2.4V692.8z"/>
		<path id="XMLID_1757_" class="st4" d="M475.5,684.1v1.9h3.3v2.4h-3.3v1.9h3.4v2.4h-6.3v-11.1h6.3v2.4H475.5z"/>
		<path id="XMLID_1755_" class="st4" d="M488.7,685.4c-0.6-0.8-1.5-1.2-2.5-1.2c-1.8,0-3,1.4-3,3.1c0,1.8,1.2,3,3,3
			c0.9,0,1.9-0.5,2.5-1.2v3.5c-1,0.3-1.7,0.5-2.6,0.5c-1.5,0-3-0.6-4.2-1.6c-1.2-1.1-1.8-2.6-1.8-4.2c0-1.5,0.6-3,1.6-4.1
			c1.1-1.1,2.7-1.8,4.2-1.8c0.9,0,1.8,0.2,2.6,0.6V685.4z"/>
		<path id="XMLID_1753_" class="st4" d="M490.5,681.6h2.9l5.3,6.8h0v-6.8h2.9v11.1h-2.9l-5.3-6.8h0v6.8h-2.9V681.6z"/>
		<path id="XMLID_1751_" class="st4" d="M506.4,692.8h-2.9v-11.1h2.9V692.8z"/>
		<path id="XMLID_1749_" class="st4" d="M516.2,685.4c-0.6-0.8-1.5-1.2-2.5-1.2c-1.8,0-3,1.4-3,3.1c0,1.8,1.2,3,3,3
			c0.9,0,1.9-0.5,2.5-1.2v3.5c-1,0.3-1.7,0.5-2.6,0.5c-1.5,0-3-0.6-4.2-1.6c-1.2-1.1-1.8-2.6-1.8-4.2c0-1.5,0.6-3,1.6-4.1
			c1.1-1.1,2.7-1.8,4.2-1.8c0.9,0,1.8,0.2,2.6,0.6V685.4z"/>
		<path id="XMLID_1746_" class="st4" d="M529.7,687c0,3.6-2.6,6.1-6.1,6.1s-6.1-2.5-6.1-6.1c0-3.4,2.9-5.7,6.1-5.7
			S529.7,683.6,529.7,687z M520.4,687c0,1.9,1.4,3.3,3.1,3.3c1.7,0,3.1-1.4,3.1-3.3c0-1.5-1.4-2.9-3.1-2.9
			C521.8,684.1,520.4,685.5,520.4,687z"/>
		<path id="XMLID_1744_" class="st4" d="M537.2,684.5c-0.5-0.4-1.2-0.7-1.9-0.7c-0.5,0-1.2,0.3-1.2,0.9c0,0.6,0.8,0.9,1.3,1.1
			l0.7,0.2c1.5,0.5,2.7,1.2,2.7,3c0,1.1-0.3,2.2-1.2,3c-0.9,0.7-2,1-3.2,1c-1.4,0-2.8-0.5-3.9-1.3l1.2-2.3c0.7,0.6,1.6,1.2,2.6,1.2
			c0.7,0,1.4-0.3,1.4-1.1c0-0.8-1.1-1.1-1.8-1.3c-1.8-0.5-3-1-3-3.1c0-2.3,1.6-3.7,3.8-3.7c1.1,0,2.5,0.4,3.5,0.9L537.2,684.5z"/>
		<path id="XMLID_1742_" class="st4" d="M547.3,680.5l-5.6,13.6h-2.1l5.6-13.6H547.3z"/>
		<path id="XMLID_1739_" class="st4" d="M551.5,690.8l-0.8,1.9h-3.1l4.3-11.1h3.2l4.2,11.1h-3.1l-0.7-1.9H551.5z M553.5,685.1
			L553.5,685.1l-1.2,3.5h2.4L553.5,685.1z"/>
		<path id="XMLID_1736_" class="st4" d="M569.4,692.8h-3.6l-2.7-4.3h0v4.3h-2.9v-11.1h4.3c2.2,0,3.9,1,3.9,3.4
			c0,1.5-0.9,2.9-2.4,3.1L569.4,692.8z M563.1,686.6h0.3c0.9,0,2-0.2,2-1.4c0-1.2-1.1-1.4-2-1.4h-0.3V686.6z"/>
		<path id="XMLID_1733_" class="st4" d="M579.7,693.4l-0.9-1c-0.9,0.5-1.9,0.7-3.1,0.7c-3.6,0-6.1-2.5-6.1-6.1
			c0-3.4,2.9-5.7,6.1-5.7c3.5,0,6.1,2.3,6.1,6c0,1.5-0.5,2.8-1.4,3.9l1.9,1.9L579.7,693.4z M578.4,688.9c0.3-0.5,0.5-1.1,0.5-1.6
			c0-1.7-1.4-3.2-3.1-3.2c-1.7,0-3.2,1.4-3.2,2.9c0,1.9,1.4,3.3,3.2,3.3c0.3,0,0.6,0,0.9-0.1l-1.8-1.8l2.7-0.3L578.4,688.9z"/>
		<path id="XMLID_1731_" class="st4" d="M451.8,706.1l2.7-6.8h3.1l-4.7,11.1h-2.2l-4.7-11.1h3.1L451.8,706.1z"/>
		<path id="XMLID_1728_" class="st4" d="M464.9,707.1h-5.6c0,1.1,0.6,1.7,1.7,1.7c0.6,0,1-0.2,1.3-0.7h2.6c-0.2,0.9-0.7,1.5-1.4,2
			c-0.7,0.4-1.5,0.6-2.4,0.6c-2.5,0-4.4-1.4-4.4-4c0-2.5,1.7-4,4.2-4c2.6,0,4.1,1.6,4.1,4.2V707.1z M462.5,705.6
			c-0.1-0.7-0.8-1.2-1.5-1.2c-0.8,0-1.4,0.4-1.6,1.2H462.5z"/>
		<path id="XMLID_1726_" class="st4" d="M468.9,704.1L468.9,704.1c0.5-0.9,1.4-1.3,2.5-1.3h0.5v2.6c-0.4-0.2-0.7-0.3-1.1-0.3
			c-1.5,0-1.9,1-1.9,2.3v3.1h-2.7v-7.6h2.7V704.1z"/>
		<path id="XMLID_1723_" class="st4" d="M475.7,700c0,0.8-0.7,1.5-1.5,1.5c-0.8,0-1.5-0.7-1.5-1.5c0-0.8,0.7-1.5,1.5-1.5
			C475,698.5,475.7,699.2,475.7,700z M475.5,710.4h-2.7v-7.6h2.7V710.4z"/>
		<path id="XMLID_1719_" class="st4" d="M480.2,710.4h-2.7v-5.4h-0.9v-2.2h0.9v-1c0-1,0-1.8,0.8-2.7c0.7-0.8,1.6-1.2,2.6-1.2
			c0.4,0,0.8,0.1,1.2,0.3v2.3c-0.3-0.1-0.6-0.3-0.9-0.3c-0.7,0-0.9,0.4-0.9,1.3v1.2h1.9v2.2h-1.9V710.4z M485.7,700
			c0,0.8-0.7,1.5-1.5,1.5c-0.8,0-1.5-0.7-1.5-1.5c0-0.8,0.7-1.5,1.5-1.5C485,698.5,485.7,699.2,485.7,700z M485.5,710.4h-2.7v-7.6
			h2.7V710.4z"/>
		<path id="XMLID_1717_" class="st4" d="M492.8,705.3c-0.4-0.3-0.9-0.5-1.4-0.5c-1,0-1.8,0.8-1.8,1.8c0,1.1,0.8,1.9,1.9,1.9
			c0.5,0,1-0.2,1.3-0.5v2.3c-0.6,0.3-1.2,0.4-1.9,0.4c-2.2,0-4.1-1.7-4.1-4c0-2.4,1.9-4.1,4.2-4.1c0.6,0,1.2,0.1,1.8,0.4V705.3z"/>
		<path id="XMLID_1714_" class="st4" d="M502.7,710.4H500v-0.8h0c-0.5,0.8-1.4,1.1-2.3,1.1c-2.2,0-3.8-1.9-3.8-4c0-2.2,1.5-4,3.8-4
			c0.9,0,1.8,0.3,2.3,1v-0.7h2.7V710.4z M496.7,706.7c0,1,0.6,1.7,1.7,1.7c1.1,0,1.7-0.7,1.7-1.7c0-0.9-0.6-1.7-1.7-1.7
			C497.3,705,496.7,705.7,496.7,706.7z"/>
		<path id="XMLID_1712_" class="st4" d="M510,705.3c-0.4-0.3-0.9-0.5-1.4-0.5c-1,0-1.8,0.8-1.8,1.8c0,1.1,0.8,1.9,1.9,1.9
			c0.5,0,1-0.2,1.3-0.5v2.3c-0.6,0.3-1.2,0.4-1.9,0.4c-2.2,0-4.1-1.7-4.1-4c0-2.4,1.9-4.1,4.2-4.1c0.6,0,1.2,0.1,1.8,0.4V705.3z"/>
		<path id="XMLID_1709_" class="st4" d="M514.5,700c0,0.8-0.7,1.5-1.5,1.5c-0.8,0-1.5-0.7-1.5-1.5c0-0.8,0.7-1.5,1.5-1.5
			C513.8,698.5,514.5,699.2,514.5,700z M514.3,710.4h-2.7v-7.6h2.7V710.4z"/>
		<path id="XMLID_1705_" class="st4" d="M524.6,706.7c0,2.6-2.1,4-4.6,4c-2.4,0-4.6-1.4-4.6-4s2.1-4,4.6-4
			C522.5,702.6,524.6,704.1,524.6,706.7z M518.3,706.7c0,1,0.6,1.7,1.7,1.7c1.1,0,1.7-0.7,1.7-1.7c0-0.9-0.6-1.7-1.7-1.7
			C519,705,518.3,705.7,518.3,706.7z M519.8,701.8l-1.2-0.9l2.1-2.5l1.6,1.2L519.8,701.8z"/>
		<path id="XMLID_1703_" class="st4" d="M528.5,703.9L528.5,703.9c0.6-0.9,1.4-1.2,2.4-1.2c2,0,2.8,1.3,2.8,3.1v4.7h-2.7v-3.7
			c0-0.7,0.1-2-1.2-2c-1.1,0-1.4,0.8-1.4,1.8v3.9h-2.7v-7.6h2.7V703.9z"/>
		<path id="XMLID_1700_" class="st4" d="M548.4,707.1h-5.6c0,1.1,0.6,1.7,1.7,1.7c0.6,0,1-0.2,1.3-0.7h2.6c-0.2,0.9-0.7,1.5-1.4,2
			c-0.7,0.4-1.5,0.6-2.4,0.6c-2.5,0-4.4-1.4-4.4-4c0-2.5,1.7-4,4.2-4c2.6,0,4.1,1.6,4.1,4.2V707.1z M545.9,705.6
			c-0.1-0.7-0.8-1.2-1.5-1.2c-0.8,0-1.4,0.4-1.6,1.2H545.9z"/>
		<path id="XMLID_1697_" class="st4" d="M416,717.7c0,0.8-0.7,1.5-1.5,1.5c-0.8,0-1.5-0.7-1.5-1.5c0-0.8,0.7-1.5,1.5-1.5
			C415.3,716.2,416,716.8,416,717.7z M415.8,728.1h-2.7v-7.6h2.7V728.1z"/>
		<path id="XMLID_1695_" class="st4" d="M420.2,721.5L420.2,721.5c0.7-0.8,1.4-1.2,2.4-1.2c1.1,0,2,0.4,2.6,1.4
			c0.5-0.9,1.5-1.4,2.6-1.4c1.9,0,2.6,1.3,2.6,3v4.8h-2.7v-3.6c0-0.8,0-2.1-1.1-2.1c-1.2,0-1.3,1.2-1.3,2.1v3.6h-2.7v-3.6
			c0-0.8,0-2.1-1.2-2.1c-1.2,0-1.2,1.3-1.2,2.1v3.6h-2.7v-7.6h2.7V721.5z"/>
		<path id="XMLID_1692_" class="st4" d="M434.7,721.4L434.7,721.4c0.5-0.8,1.4-1.1,2.3-1.1c2.3,0,3.8,1.9,3.8,4.1c0,2.2-1.5,4-3.8,4
			c-0.9,0-1.8-0.3-2.3-1v4.5h-2.7v-11.3h2.7V721.4z M434.7,724.4c0,1,0.6,1.7,1.7,1.7c1.1,0,1.7-0.7,1.7-1.7c0-0.9-0.6-1.7-1.7-1.7
			C435.3,722.7,434.7,723.4,434.7,724.4z"/>
		<path id="XMLID_1690_" class="st4" d="M444.9,721.8L444.9,721.8c0.5-0.9,1.4-1.3,2.5-1.3h0.5v2.6c-0.4-0.2-0.7-0.3-1.1-0.3
			c-1.5,0-1.9,1-1.9,2.3v3.1h-2.7v-7.6h2.7V721.8z"/>
		<path id="XMLID_1687_" class="st4" d="M456.7,724.8H451c0,1.1,0.6,1.7,1.7,1.7c0.6,0,1-0.2,1.3-0.7h2.6c-0.2,0.9-0.7,1.5-1.4,2
			c-0.7,0.4-1.5,0.6-2.4,0.6c-2.5,0-4.4-1.4-4.4-4c0-2.5,1.7-4,4.2-4c2.6,0,4.1,1.6,4.1,4.2V724.8z M454.2,723.3
			c-0.1-0.7-0.8-1.2-1.5-1.2c-0.8,0-1.4,0.4-1.6,1.2H454.2z"/>
		<path id="XMLID_1685_" class="st4" d="M462.9,722.5c-0.4-0.2-1-0.4-1.4-0.4c-0.3,0-0.8,0.1-0.8,0.5c0,0.5,0.8,0.6,1.2,0.7
			c1.3,0.3,2.2,0.8,2.2,2.2c0,2-1.8,2.8-3.6,2.8c-1.1,0-2.1-0.3-3.1-0.9l1-1.9c0.5,0.4,1.5,0.8,2.1,0.8c0.3,0,0.8-0.2,0.8-0.6
			c0-0.6-0.8-0.6-1.7-0.8c-0.8-0.2-1.7-0.6-1.7-2c0-1.9,1.7-2.7,3.3-2.7c0.9,0,1.7,0.1,2.5,0.5L462.9,722.5z"/>
		<path id="XMLID_1682_" class="st4" d="M468.3,717.7c0,0.8-0.7,1.5-1.5,1.5c-0.8,0-1.5-0.7-1.5-1.5c0-0.8,0.7-1.5,1.5-1.5
			C467.6,716.2,468.3,716.8,468.3,717.7z M468.1,728.1h-2.7v-7.6h2.7V728.1z"/>
		<path id="XMLID_1678_" class="st4" d="M478.4,724.4c0,2.6-2.1,4-4.6,4c-2.4,0-4.6-1.4-4.6-4s2.1-4,4.6-4
			C476.3,720.3,478.4,721.8,478.4,724.4z M472.2,724.4c0,1,0.6,1.7,1.7,1.7c1.1,0,1.7-0.7,1.7-1.7c0-0.9-0.6-1.7-1.7-1.7
			C472.8,722.7,472.2,723.4,472.2,724.4z M473.6,719.5l-1.2-0.9l2.1-2.5l1.6,1.2L473.6,719.5z"/>
		<path id="XMLID_1676_" class="st4" d="M482.3,721.6L482.3,721.6c0.6-0.9,1.4-1.2,2.4-1.2c2,0,2.8,1.3,2.8,3.1v4.7h-2.7v-3.7
			c0-0.7,0.1-2-1.2-2c-1.1,0-1.4,0.8-1.4,1.8v3.9h-2.7v-7.6h2.7V721.6z"/>
		<path id="XMLID_1673_" class="st4" d="M500.2,727.3L500.2,727.3c-0.5,0.8-1.4,1.1-2.3,1.1c-2.2,0-3.8-1.9-3.8-4c0-2.2,1.5-4,3.8-4
			c0.9,0,1.8,0.3,2.3,1v-5.4h2.7v12.2h-2.7V727.3z M496.8,724.4c0,1,0.6,1.7,1.7,1.7c1.1,0,1.7-0.7,1.7-1.7c0-0.9-0.6-1.7-1.7-1.7
			C497.4,722.7,496.8,723.4,496.8,724.4z"/>
		<path id="XMLID_1670_" class="st4" d="M512.3,724.8h-5.6c0,1.1,0.6,1.7,1.7,1.7c0.6,0,1-0.2,1.3-0.7h2.6c-0.2,0.9-0.7,1.5-1.4,2
			c-0.7,0.4-1.5,0.6-2.4,0.6c-2.5,0-4.4-1.4-4.4-4c0-2.5,1.7-4,4.2-4c2.6,0,4.1,1.6,4.1,4.2V724.8z M509.8,723.3
			c-0.1-0.7-0.8-1.2-1.5-1.2c-0.8,0-1.4,0.4-1.6,1.2H509.8z"/>
		<path id="XMLID_1666_" class="st4" d="M521.4,717.7c0,0.8-0.7,1.5-1.5,1.5c-0.8,0-1.5-0.7-1.5-1.5c0-0.8,0.7-1.5,1.5-1.5
			C520.7,716.2,521.4,716.8,521.4,717.7z M521.3,728.1h-2.7v-7.6h2.7V728.1z"/>
		<path id="XMLID_1664_" class="st4" d="M525.7,721.6L525.7,721.6c0.6-0.9,1.4-1.2,2.4-1.2c2,0,2.8,1.3,2.8,3.1v4.7h-2.7v-3.7
			c0-0.7,0.1-2-1.2-2c-1.1,0-1.4,0.8-1.4,1.8v3.9H523v-7.6h2.7V721.6z"/>
		<path id="XMLID_1662_" class="st4" d="M535.7,728.1H533v-5.4h-0.9v-2.2h0.9v-1c0-1,0-1.8,0.8-2.7c0.7-0.8,1.6-1.2,2.6-1.2
			c0.4,0,0.8,0.1,1.2,0.3v2.3c-0.3-0.1-0.6-0.3-0.9-0.3c-0.7,0-0.9,0.4-0.9,1.3v1.2h1.9v2.2h-1.9V728.1z"/>
		<path id="XMLID_1659_" class="st4" d="M547,724.4c0,2.6-2.1,4-4.6,4c-2.4,0-4.6-1.4-4.6-4s2.1-4,4.6-4S547,721.8,547,724.4z
			 M540.8,724.4c0,1,0.6,1.7,1.7,1.7c1.1,0,1.7-0.7,1.7-1.7c0-0.9-0.6-1.7-1.7-1.7C541.4,722.7,540.8,723.4,540.8,724.4z"/>
		<path id="XMLID_1657_" class="st4" d="M550.9,721.8L550.9,721.8c0.5-0.9,1.4-1.3,2.5-1.3h0.5v2.6c-0.4-0.2-0.7-0.3-1.1-0.3
			c-1.5,0-1.9,1-1.9,2.3v3.1h-2.7v-7.6h2.7V721.8z"/>
		<path id="XMLID_1655_" class="st4" d="M557.6,721.5L557.6,721.5c0.7-0.8,1.4-1.2,2.4-1.2c1.1,0,2,0.4,2.6,1.4
			c0.5-0.9,1.5-1.4,2.6-1.4c1.9,0,2.6,1.3,2.6,3v4.8h-2.7v-3.6c0-0.8,0-2.1-1.1-2.1c-1.2,0-1.3,1.2-1.3,2.1v3.6H560v-3.6
			c0-0.8,0-2.1-1.2-2.1c-1.2,0-1.2,1.3-1.2,2.1v3.6h-2.7v-7.6h2.7V721.5z"/>
		<path id="XMLID_1652_" class="st4" d="M577.3,724.8h-5.6c0,1.1,0.6,1.7,1.7,1.7c0.6,0,1-0.2,1.3-0.7h2.6c-0.2,0.9-0.7,1.5-1.4,2
			c-0.7,0.4-1.5,0.6-2.4,0.6c-2.5,0-4.4-1.4-4.4-4c0-2.5,1.7-4,4.2-4c2.6,0,4.1,1.6,4.1,4.2V724.8z M574.8,723.3
			c-0.1-0.7-0.8-1.2-1.5-1.2c-0.8,0-1.4,0.4-1.6,1.2H574.8z"/>
	</g>
</g>
<rect id="XMLID_3570_" x="388.1" y="786.6" class="st3" width="223" height="101"/>
<g id="XMLID_20574_">
	<g>
		<path id="XMLID_525_" class="st4" d="M440,809.5v7.5c0,2.3-1.2,3.9-3.7,3.9c-1.2,0-2.2-0.6-2.9-1.6l1.7-1.8
			c0.3,0.4,0.8,0.9,1.2,0.9c0.9,0,0.8-1,0.8-1.6v-7.3H440z"/>
		<path id="XMLID_523_" class="st4" d="M444.8,811.9v1.9h3.3v2.4h-3.3v1.9h3.4v2.4h-6.3v-11.1h6.3v2.4H444.8z"/>
		<path id="XMLID_521_" class="st4" d="M452.9,811.9v1.9h3.2v2.4h-3.2v4.4H450v-11.1h6.4v2.4H452.9z"/>
		<path id="XMLID_519_" class="st4" d="M460.9,811.9v1.9h3.3v2.4h-3.3v1.9h3.4v2.4H458v-11.1h6.3v2.4H460.9z"/>
		<path id="XMLID_516_" class="st4" d="M471.1,809.5h4.1c3.1,0,5.6,2.4,5.6,5.6s-2.6,5.6-5.6,5.6h-4.1V809.5z M474,818.1h0.6
			c1.7,0,3.2-0.9,3.2-3.1c0-2-1.3-3.1-3.2-3.1H474V818.1z"/>
		<path id="XMLID_514_" class="st4" d="M485.1,811.9v1.9h3.3v2.4h-3.3v1.9h3.4v2.4h-6.3v-11.1h6.3v2.4H485.1z"/>
		<path id="XMLID_511_" class="st4" d="M495.4,809.5h4.1c3.1,0,5.6,2.4,5.6,5.6s-2.6,5.6-5.6,5.6h-4.1V809.5z M498.3,818.1h0.6
			c1.7,0,3.2-0.9,3.2-3.1c0-2-1.3-3.1-3.2-3.1h-0.7V818.1z"/>
		<path id="XMLID_509_" class="st4" d="M509.4,820.6h-2.9v-11.1h2.9V820.6z"/>
		<path id="XMLID_507_" class="st4" d="M515.9,816.2l2.7-6.8h3.1l-4.7,11.1h-2.2l-4.7-11.1h3.1L515.9,816.2z"/>
		<path id="XMLID_505_" class="st4" d="M525.4,820.6h-2.9v-11.1h2.9V820.6z"/>
		<path id="XMLID_503_" class="st4" d="M533.4,812.3c-0.5-0.4-1.2-0.7-1.9-0.7c-0.5,0-1.2,0.3-1.2,0.9c0,0.6,0.8,0.9,1.3,1.1
			l0.7,0.2c1.5,0.5,2.7,1.2,2.7,3c0,1.1-0.3,2.2-1.2,3c-0.9,0.7-2,1-3.2,1c-1.4,0-2.8-0.5-3.9-1.3l1.2-2.3c0.7,0.6,1.6,1.2,2.6,1.2
			c0.7,0,1.4-0.3,1.4-1.1c0-0.8-1.1-1.1-1.8-1.3c-1.8-0.5-3-1-3-3.1c0-2.3,1.6-3.7,3.8-3.7c1.1,0,2.5,0.4,3.5,0.9L533.4,812.3z"/>
		<path id="XMLID_501_" class="st4" d="M539.2,820.6h-2.9v-11.1h2.9V820.6z"/>
		<path id="XMLID_471_" class="st4" d="M552.9,814.8c0,3.6-2.6,6.1-6.1,6.1s-6.1-2.5-6.1-6.1c0-3.4,2.9-5.7,6.1-5.7
			C549.9,809.1,552.9,811.4,552.9,814.8z M543.6,814.8c0,1.9,1.4,3.3,3.1,3.3c1.7,0,3.1-1.4,3.1-3.3c0-1.5-1.4-2.9-3.1-2.9
			C545,811.9,543.6,813.3,543.6,814.8z M546.4,808.8l-1.2-0.9l2.1-2.5l1.6,1.2L546.4,808.8z"/>
		<path id="XMLID_469_" class="st4" d="M554.2,809.5h2.9l5.3,6.8h0v-6.8h2.9v11.1h-2.9l-5.3-6.8h0v6.8h-2.9V809.5z"/>
		<path id="XMLID_467_" class="st4" d="M449.4,829.6v1.9h3.2v2.4h-3.2v4.4h-2.9v-11.1h6.4v2.4H449.4z"/>
		<path id="XMLID_464_" class="st4" d="M457.3,827.8c0,0.8-0.7,1.5-1.5,1.5c-0.8,0-1.5-0.7-1.5-1.5c0-0.8,0.7-1.5,1.5-1.5
			C456.6,826.3,457.3,827,457.3,827.8z M457.1,838.3h-2.7v-7.6h2.7V838.3z"/>
		<path id="XMLID_462_" class="st4" d="M461.6,831.9L461.6,831.9c0.5-0.9,1.4-1.3,2.5-1.3h0.5v2.6c-0.4-0.2-0.7-0.3-1.1-0.3
			c-1.5,0-1.9,1-1.9,2.3v3.1h-2.7v-7.6h2.7V831.9z"/>
		<path id="XMLID_460_" class="st4" d="M468.2,831.6L468.2,831.6c0.7-0.8,1.4-1.2,2.4-1.2c1.1,0,2,0.4,2.6,1.4
			c0.5-0.9,1.5-1.4,2.6-1.4c1.9,0,2.6,1.3,2.6,3v4.8h-2.7v-3.6c0-0.8,0-2.1-1.1-2.1c-1.2,0-1.3,1.2-1.3,2.1v3.6h-2.7v-3.6
			c0-0.8,0-2.1-1.2-2.1c-1.2,0-1.2,1.3-1.2,2.1v3.6h-2.7v-7.6h2.7V831.6z"/>
		<path id="XMLID_457_" class="st4" d="M488.4,838.3h-2.7v-0.8h0c-0.5,0.8-1.4,1.1-2.3,1.1c-2.2,0-3.8-1.9-3.8-4c0-2.2,1.5-4,3.8-4
			c0.9,0,1.8,0.3,2.3,1v-0.7h2.7V838.3z M482.4,834.5c0,1,0.6,1.7,1.7,1.7c1.1,0,1.7-0.7,1.7-1.7c0-0.9-0.6-1.7-1.7-1.7
			C483,832.8,482.4,833.6,482.4,834.5z"/>
		<path id="XMLID_455_" class="st4" d="M494.2,830.7h3.1l2,3.9l2-3.9h3.1l-6.1,11.3h-3l2.6-4.8L494.2,830.7z"/>
		<path id="XMLID_453_" class="st4" d="M515,832.6c-0.4-0.2-1-0.4-1.4-0.4c-0.3,0-0.8,0.1-0.8,0.5c0,0.5,0.8,0.6,1.2,0.7
			c1.3,0.3,2.2,0.8,2.2,2.2c0,2-1.8,2.8-3.6,2.8c-1.1,0-2.1-0.3-3.1-0.9l1-1.9c0.5,0.4,1.5,0.8,2.1,0.8c0.3,0,0.8-0.2,0.8-0.6
			c0-0.6-0.8-0.6-1.7-0.8c-0.8-0.2-1.7-0.6-1.7-2c0-1.9,1.7-2.7,3.3-2.7c0.9,0,1.7,0.1,2.5,0.5L515,832.6z"/>
		<path id="XMLID_450_" class="st4" d="M525.3,834.9h-5.6c0,1.1,0.6,1.7,1.7,1.7c0.6,0,1-0.2,1.3-0.7h2.6c-0.2,0.9-0.7,1.5-1.4,2
			c-0.7,0.4-1.5,0.6-2.4,0.6c-2.5,0-4.4-1.4-4.4-4c0-2.5,1.7-4,4.2-4c2.6,0,4.1,1.6,4.1,4.2V834.9z M522.8,833.4
			c-0.1-0.7-0.8-1.2-1.5-1.2c-0.8,0-1.4,0.4-1.6,1.2H522.8z"/>
		<path id="XMLID_448_" class="st4" d="M529.2,838.3h-2.7V826h2.7V838.3z"/>
		<path id="XMLID_446_" class="st4" d="M533.7,838.3H531V826h2.7V838.3z"/>
		<path id="XMLID_443_" class="st4" d="M544,834.5c0,2.6-2.1,4-4.6,4c-2.4,0-4.6-1.4-4.6-4s2.1-4,4.6-4
			C541.9,830.4,544,831.9,544,834.5z M537.7,834.5c0,1,0.6,1.7,1.7,1.7c1.1,0,1.7-0.7,1.7-1.7c0-0.9-0.6-1.7-1.7-1.7
			C538.3,832.8,537.7,833.6,537.7,834.5z"/>
	</g>
</g>
<rect id="XMLID_3550_" x="388.1" y="917.5" class="st3" width="223" height="101"/>
<g id="XMLID_20502_">
	<g>
		<path id="XMLID_883_" class="st4" d="M458.5,958.5c-0.5-0.4-1.2-0.7-1.9-0.7c-0.5,0-1.2,0.3-1.2,0.9c0,0.6,0.8,0.9,1.3,1.1
			l0.7,0.2c1.5,0.5,2.7,1.2,2.7,3c0,1.1-0.3,2.2-1.2,3c-0.9,0.7-2,1-3.2,1c-1.4,0-2.8-0.5-3.9-1.3l1.2-2.3c0.7,0.6,1.6,1.2,2.6,1.2
			c0.7,0,1.4-0.3,1.4-1.1c0-0.8-1.1-1.1-1.8-1.3c-1.8-0.5-3-1-3-3.1c0-2.3,1.6-3.7,3.8-3.7c1.1,0,2.5,0.4,3.5,0.9L458.5,958.5z"/>
		<path id="XMLID_881_" class="st4" d="M471.1,955.7v6.3c0,1.4-0.1,2.8-1.2,3.9c-0.9,0.9-2.4,1.2-3.7,1.2c-1.3,0-2.8-0.3-3.7-1.2
			c-1.1-1.1-1.2-2.5-1.2-3.9v-6.3h2.9v5.9c0,1.4,0.1,3,2,3c1.9,0,2-1.6,2-3v-5.9H471.1z"/>
		<path id="XMLID_877_" class="st4" d="M472.9,966.8v-11.1h4.1c2,0,3.3,0.8,3.3,2.9c0,1-0.3,1.8-1.2,2.3v0c1.6,0.2,2.3,1.3,2.3,2.8
			c0,2.3-2,3.1-4,3.1H472.9z M475.8,960h0.3c0.8,0,1.6-0.1,1.6-1.1c0-1-0.9-1.1-1.7-1.1h-0.2V960z M475.8,964.6h0.4
			c0.9,0,2.3,0,2.3-1.2c0-1.3-1.4-1.2-2.4-1.2h-0.3V964.6z"/>
		<path id="XMLID_874_" class="st4" d="M485.7,964.9l-0.8,1.9h-3.1l4.3-11.1h3.2l4.2,11.1h-3.1l-0.7-1.9H485.7z M487.8,959.1
			L487.8,959.1l-1.2,3.5h2.4L487.8,959.1z"/>
		<path id="XMLID_872_" class="st4" d="M497.3,964.4h3.5v2.4h-6.4v-11.1h2.9V964.4z"/>
		<path id="XMLID_870_" class="st4" d="M509.7,959.4c-0.6-0.8-1.5-1.2-2.5-1.2c-1.8,0-3,1.4-3,3.1c0,1.8,1.2,3,3,3
			c0.9,0,1.9-0.5,2.5-1.2v3.5c-1,0.3-1.7,0.5-2.6,0.5c-1.5,0-3-0.6-4.2-1.6c-1.2-1.1-1.8-2.6-1.8-4.2c0-1.5,0.6-3,1.6-4.1
			c1.1-1.1,2.7-1.8,4.2-1.8c0.9,0,1.8,0.2,2.6,0.6V959.4z"/>
		<path id="XMLID_867_" class="st4" d="M514.3,964.9l-0.8,1.9h-3.1l4.3-11.1h3.2l4.2,11.1H519l-0.7-1.9H514.3z M516.3,959.1
			L516.3,959.1l-1.2,3.5h2.4L516.3,959.1z"/>
		<path id="XMLID_865_" class="st4" d="M525.9,964.4h3.5v2.4H523v-11.1h2.9V964.4z"/>
		<path id="XMLID_862_" class="st4" d="M530.3,955.7h4.1c3.1,0,5.6,2.4,5.6,5.6s-2.6,5.6-5.6,5.6h-4.1V955.7z M533.2,964.4h0.6
			c1.7,0,3.2-0.9,3.2-3.1c0-2-1.3-3.1-3.2-3.1h-0.7V964.4z"/>
		<path id="XMLID_860_" class="st4" d="M544.3,958.1v1.9h3.3v2.4h-3.3v1.9h3.4v2.4h-6.3v-11.1h6.3v2.4H544.3z"/>
		<path id="XMLID_858_" class="st4" d="M416,975.8v1.9h3.2v2.4H416v4.4h-2.9v-11.1h6.4v2.4H416z"/>
		<path id="XMLID_855_" class="st4" d="M423.9,974c0,0.8-0.7,1.5-1.5,1.5c-0.8,0-1.5-0.7-1.5-1.5c0-0.8,0.7-1.5,1.5-1.5
			C423.2,972.5,423.9,973.2,423.9,974z M423.7,984.5h-2.7v-7.6h2.7V984.5z"/>
		<path id="XMLID_853_" class="st4" d="M428.2,978.2L428.2,978.2c0.5-0.9,1.4-1.3,2.5-1.3h0.5v2.6c-0.4-0.2-0.7-0.3-1.1-0.3
			c-1.5,0-1.9,1-1.9,2.3v3.1h-2.7v-7.6h2.7V978.2z"/>
		<path id="XMLID_851_" class="st4" d="M434.9,977.9L434.9,977.9c0.7-0.8,1.4-1.2,2.4-1.2c1.1,0,2,0.4,2.6,1.4
			c0.5-0.9,1.5-1.4,2.6-1.4c1.9,0,2.6,1.3,2.6,3v4.8h-2.7v-3.6c0-0.8,0-2.1-1.1-2.1c-1.2,0-1.3,1.2-1.3,2.1v3.6h-2.7v-3.6
			c0-0.8,0-2.1-1.2-2.1c-1.2,0-1.2,1.3-1.2,2.1v3.6h-2.7v-7.6h2.7V977.9z"/>
		<path id="XMLID_848_" class="st4" d="M455.1,984.5h-2.7v-0.8h0c-0.5,0.8-1.4,1.1-2.3,1.1c-2.2,0-3.8-1.9-3.8-4c0-2.2,1.5-4,3.8-4
			c0.9,0,1.8,0.3,2.3,1v-0.7h2.7V984.5z M449,980.7c0,1,0.6,1.7,1.7,1.7c1.1,0,1.7-0.7,1.7-1.7c0-0.9-0.6-1.7-1.7-1.7
			C449.6,979,449,979.8,449,980.7z"/>
		<path id="XMLID_845_" class="st4" d="M467.6,983.7L467.6,983.7c-0.5,0.8-1.4,1.1-2.3,1.1c-2.2,0-3.8-1.9-3.8-4c0-2.2,1.5-4,3.8-4
			c0.9,0,1.8,0.3,2.3,1v-5.4h2.7v12.2h-2.7V983.7z M464.2,980.7c0,1,0.6,1.7,1.7,1.7c1.1,0,1.7-0.7,1.7-1.7c0-0.9-0.6-1.7-1.7-1.7
			C464.9,979,464.2,979.8,464.2,980.7z"/>
		<path id="XMLID_842_" class="st4" d="M479.7,981.2h-5.6c0,1.1,0.6,1.7,1.7,1.7c0.6,0,1-0.2,1.3-0.7h2.6c-0.2,0.9-0.7,1.5-1.4,2
			c-0.7,0.4-1.5,0.6-2.4,0.6c-2.5,0-4.4-1.4-4.4-4c0-2.5,1.7-4,4.2-4c2.6,0,4.1,1.6,4.1,4.2V981.2z M477.2,979.6
			c-0.1-0.7-0.8-1.2-1.5-1.2c-0.8,0-1.4,0.4-1.6,1.2H477.2z"/>
		<path id="XMLID_839_" class="st4" d="M494.3,984.5h-2.7v-0.8h0c-0.5,0.8-1.4,1.1-2.3,1.1c-2.2,0-3.8-1.9-3.8-4c0-2.2,1.5-4,3.8-4
			c0.9,0,1.8,0.3,2.3,1v-0.7h2.7V984.5z M488.2,980.7c0,1,0.6,1.7,1.7,1.7c1.1,0,1.7-0.7,1.7-1.7c0-0.9-0.6-1.7-1.7-1.7
			C488.9,979,488.2,979.8,488.2,980.7z"/>
		<path id="XMLID_836_" class="st4" d="M498.7,977.8L498.7,977.8c0.5-0.8,1.4-1.1,2.3-1.1c2.3,0,3.8,1.9,3.8,4.1c0,2.2-1.5,4-3.8,4
			c-0.9,0-1.8-0.3-2.3-1v4.5H496v-11.3h2.7V977.8z M498.6,980.7c0,1,0.6,1.7,1.7,1.7c1.1,0,1.7-0.7,1.7-1.7c0-0.9-0.6-1.7-1.7-1.7
			C499.2,979,498.6,979.8,498.6,980.7z"/>
		<path id="XMLID_834_" class="st4" d="M508.8,978.2L508.8,978.2c0.5-0.9,1.4-1.3,2.5-1.3h0.5v2.6c-0.4-0.2-0.7-0.3-1.1-0.3
			c-1.5,0-1.9,1-1.9,2.3v3.1h-2.7v-7.6h2.7V978.2z"/>
		<path id="XMLID_831_" class="st4" d="M521.1,980.7c0,2.6-2.1,4-4.6,4c-2.4,0-4.6-1.4-4.6-4s2.1-4,4.6-4
			C519,976.7,521.1,978.1,521.1,980.7z M514.8,980.7c0,1,0.6,1.7,1.7,1.7c1.1,0,1.7-0.7,1.7-1.7c0-0.9-0.6-1.7-1.7-1.7
			C515.4,979,514.8,979.8,514.8,980.7z"/>
		<path id="XMLID_828_" class="st4" d="M522.2,972.3h2.7v5.4c0.6-0.7,1.5-1,2.3-1c2.2,0,3.8,1.9,3.8,4c0,2.2-1.6,4-3.8,4
			c-0.9,0-1.8-0.3-2.3-1.1h0v0.8h-2.7V972.3z M524.8,980.7c0,1,0.6,1.7,1.7,1.7c1.1,0,1.7-0.7,1.7-1.7c0-0.9-0.6-1.7-1.7-1.7
			C525.4,979,524.8,979.8,524.8,980.7z"/>
		<path id="XMLID_824_" class="st4" d="M540.6,984.5h-2.7v-0.8h0c-0.5,0.8-1.4,1.1-2.3,1.1c-2.2,0-3.8-1.9-3.8-4c0-2.2,1.5-4,3.8-4
			c0.9,0,1.8,0.3,2.3,1v-0.7h2.7V984.5z M534.6,980.7c0,1,0.6,1.7,1.7,1.7c1.1,0,1.7-0.7,1.7-1.7c0-0.9-0.6-1.7-1.7-1.7
			C535.2,979,534.6,979.8,534.6,980.7z"/>
		<path id="XMLID_822_" class="st4" d="M547.9,979.4c-0.4-0.3-0.9-0.5-1.4-0.5c-1,0-1.8,0.8-1.8,1.8c0,1.1,0.8,1.9,1.9,1.9
			c0.5,0,1-0.2,1.3-0.5v2.3c-0.6,0.3-1.2,0.4-1.9,0.4c-2.2,0-4.1-1.7-4.1-4c0-2.4,1.9-4.1,4.2-4.1c0.6,0,1.2,0.1,1.8,0.4V979.4z"/>
		<path id="XMLID_733_" class="st4" d="M552.4,974c0,0.8-0.7,1.5-1.5,1.5c-0.8,0-1.5-0.7-1.5-1.5c0-0.8,0.7-1.5,1.5-1.5
			C551.7,972.5,552.4,973.2,552.4,974z M552.2,984.5h-2.7v-7.6h2.7V984.5z"/>
		<path id="XMLID_654_" class="st4" d="M562.5,980.7c0,2.6-2.1,4-4.6,4c-2.4,0-4.6-1.4-4.6-4s2.1-4,4.6-4
			C560.4,976.7,562.5,978.1,562.5,980.7z M556.3,980.7c0,1,0.6,1.7,1.7,1.7c1.1,0,1.7-0.7,1.7-1.7c0-0.9-0.6-1.7-1.7-1.7
			C556.9,979,556.3,979.8,556.3,980.7z M557.7,975.8l-1.2-0.9l2.1-2.5l1.6,1.2L557.7,975.8z"/>
		<path id="XMLID_652_" class="st4" d="M566.4,977.9L566.4,977.9c0.6-0.9,1.4-1.2,2.4-1.2c2,0,2.8,1.3,2.8,3.1v4.7H569v-3.7
			c0-0.7,0.1-2-1.2-2c-1.1,0-1.4,0.8-1.4,1.8v3.9h-2.7v-7.6h2.7V977.9z"/>
	</g>
</g>
<polygon id="XMLID_3261_" class="st5" points="391.3,51.5 381.9,56.9 372.5,62.3 372.5,51.5 372.5,40.6 381.9,46.1 "/>
<polygon id="XMLID_3260_" class="st5" points="497.9,136.5 492.5,127.1 487.1,117.7 497.9,117.7 508.8,117.7 503.4,127.1 "/>
<polygon id="XMLID_3259_" class="st5" points="611.1,184.5 620.5,179 629.9,173.6 629.9,184.5 629.9,195.3 620.5,189.9 "/>
<polygon id="XMLID_3258_" class="st5" points="611.1,51.5 620.5,46.1 629.9,40.6 629.9,51.5 629.9,62.3 620.5,56.9 "/>
<polygon id="XMLID_3256_" class="st5" points="663.9,184.5 654.5,189.9 645.1,195.3 645.1,184.5 645.1,173.6 654.5,179 "/>
<polygon id="XMLID_3255_" class="st5" points="775.6,127.1 770.1,117.7 764.7,108.3 775.6,108.3 786.4,108.3 781,117.7 "/>
<polygon id="XMLID_3253_" class="st5" points="497.9,266.7 492.5,257.3 487.1,247.9 497.9,247.9 508.8,247.9 503.4,257.3 "/>
<polygon id="XMLID_3252_" class="st5" points="497.9,397 492.5,387.6 487.1,378.2 497.9,378.2 508.8,378.2 503.4,387.6 "/>
<polygon id="XMLID_3251_" class="st5" points="497.9,527.2 492.5,517.8 487.1,508.4 497.9,508.4 508.8,508.4 503.4,517.8 "/>
<polygon id="XMLID_3250_" class="st5" points="497.9,657.5 492.5,648.1 487.1,638.7 497.9,638.7 508.8,638.7 503.4,648.1 "/>
<polygon id="XMLID_3249_" class="st5" points="497.9,787.7 492.5,778.3 487.1,768.9 497.9,768.9 508.8,768.9 503.4,778.3 "/>
<polygon id="XMLID_3248_" class="st5" points="497.9,918 492.5,908.6 487.1,899.2 497.9,899.2 508.8,899.2 503.4,908.6 "/>
<polygon id="XMLID_3247_" class="st5" points="211.5,609.8 206,600.4 200.6,591 211.5,591 222.3,591 216.9,600.4 "/>
<polygon id="XMLID_3246_" class="st5" points="211.5,713.1 216.9,722.5 222.3,731.9 211.5,731.9 200.6,731.9 206,722.5 "/>
<line id="XMLID_3245_" class="st0" x1="211.5" y1="506" x2="211.5" y2="607.2"/>
<polyline id="XMLID_3243_" class="st0" points="211.5,722.5 211.5,968 388.1,968 "/>
<polyline id="XMLID_3242_" class="st0" points="323,661.6 355.2,661.6 355.2,50.9 388.1,50.9 "/>
<line id="XMLID_3241_" class="st0" x1="616.4" y1="184.5" x2="656.6" y2="184.5"/>
<polyline id="XMLID_3240_" class="st0" points="620.5,51.5 775.6,51.5 775.6,121 "/>
</svg>
