<?xml version="1.0" encoding="utf-8"?>
<!-- Generator: Adobe Illustrator 21.0.2, SVG Export Plug-In . SVG Version: 6.00 Build 0)  -->
<svg version="1.1" id="Layer_1" xmlns="http://www.w3.org/2000/svg" xmlns:xlink="http://www.w3.org/1999/xlink" x="0px" y="0px"
	 viewBox="0 0 998.6 491" style="enable-background:new 0 0 998.6 491;" xml:space="preserve">
<style type="text/css">
	.st0{fill:none;stroke:#E42527;stroke-width:4;stroke-miterlimit:10;}
	.st1{fill:#929191;}
	.st2{fill:#9D9D9C;}
	.st3{fill:#FFFFFF;}
	.st4{fill:#E42527;}
</style>
<line id="XMLID_6841_" class="st0" x1="275.9" y1="140.2" x2="275.9" y2="313.4"/>
<rect id="XMLID_6840_" x="546.7" y="207.4" class="st1" width="353.3" height="160"/>
<rect id="XMLID_6839_" x="101.8" class="st2" width="353.3" height="160"/>
<g id="XMLID_16984_">
	<g>
		<path id="XMLID_240_" class="st3" d="M627.7,285.2c-0.9-1.3-2.5-1.9-4-1.9c-2.8,0-4.7,2.2-4.7,4.9c0,2.8,1.9,4.8,4.8,4.8
			c1.5,0,3-0.7,3.9-1.9v5.5c-1.5,0.5-2.6,0.8-4,0.8c-2.5,0-4.8-0.9-6.6-2.6c-1.9-1.8-2.8-4-2.8-6.7c0-2.4,0.9-4.7,2.6-6.4
			c1.7-1.8,4.2-2.8,6.7-2.8c1.5,0,2.8,0.3,4.2,0.9V285.2z"/>
		<path id="XMLID_237_" class="st3" d="M649.1,287.8c0,5.7-4.1,9.7-9.7,9.7c-5.7,0-9.7-4-9.7-9.7c0-5.3,4.7-9.1,9.7-9.1
			C644.5,278.7,649.1,282.4,649.1,287.8z M634.4,287.8c0,3,2.2,5.3,5,5.3c2.7,0,5-2.2,5-5.3c0-2.4-2.2-4.6-5-4.6
			C636.6,283.1,634.4,285.4,634.4,287.8z"/>
		<path id="XMLID_235_" class="st3" d="M651.2,279.3h4.6l8.4,10.8h0v-10.8h4.6v17.6h-4.6l-8.4-10.8h0v10.8h-4.6V279.3z"/>
		<path id="XMLID_233_" class="st3" d="M678.8,296.9h-4.6v-13.7h-3.8v-3.9h12.1v3.9h-3.8V296.9z"/>
		<path id="XMLID_230_" class="st3" d="M698.9,296.9h-5.7l-4.3-6.8h0v6.8h-4.6v-17.6h6.8c3.5,0,6.1,1.7,6.1,5.4c0,2.4-1.4,4.5-3.9,5
			L698.9,296.9z M688.9,287.2h0.4c1.5,0,3.2-0.3,3.2-2.2c0-1.9-1.7-2.2-3.2-2.2h-0.4V287.2z"/>
		<path id="XMLID_228_" class="st3" d="M704.7,296.9h-4.6v-17.6h4.6V296.9z"/>
		<path id="XMLID_224_" class="st3" d="M707.7,296.9v-17.6h6.5c3.1,0,5.2,1.2,5.2,4.6c0,1.6-0.5,2.9-1.9,3.6v0
			c2.5,0.3,3.6,2,3.6,4.5c0,3.7-3.2,4.9-6.4,4.9H707.7z M712.3,286.2h0.5c1.2,0,2.5-0.2,2.5-1.7c0-1.6-1.4-1.7-2.7-1.7h-0.3V286.2z
			 M712.3,293.4h0.6c1.4,0,3.6,0.1,3.6-1.9c0-2.1-2.3-1.9-3.8-1.9h-0.5V293.4z"/>
		<path id="XMLID_222_" class="st3" d="M738.8,279.3v9.9c0,2.3-0.1,4.5-1.8,6.2c-1.5,1.4-3.8,2-5.8,2s-4.4-0.5-5.8-2
			c-1.8-1.7-1.8-3.9-1.8-6.2v-9.9h4.6v9.3c0,2.3,0.2,4.8,3.1,4.8c2.9,0,3.1-2.5,3.1-4.8v-9.3H738.8z"/>
		<path id="XMLID_220_" class="st3" d="M739.8,279.3h5.5l3.3,4.8l3.3-4.8h5.5l-6.5,9.2v8.5h-4.6v-8.5L739.8,279.3z"/>
		<path id="XMLID_218_" class="st3" d="M763,283.2v2.9h5.2v3.9H763v3h5.4v3.9h-10v-17.6h10v3.9H763z"/>
		<path id="XMLID_216_" class="st3" d="M771.2,279.3h4.6l8.4,10.8h0v-10.8h4.6v17.6h-4.6l-8.4-10.8h0v10.8h-4.6V279.3z"/>
		<path id="XMLID_214_" class="st3" d="M798.8,296.9h-4.6v-13.7h-3.8v-3.9h12.1v3.9h-3.8V296.9z"/>
		<path id="XMLID_212_" class="st3" d="M808.9,283.2v2.9h5.2v3.9h-5.2v3h5.4v3.9h-10v-17.6h10v3.9H808.9z"/>
	</g>
</g>
<g id="XMLID_16940_">
	<g>
		<path id="XMLID_375_" class="st3" d="M141.6,62.4v9.9c0,2.3-0.1,4.5-1.8,6.2c-1.5,1.4-3.8,2-5.8,2s-4.4-0.5-5.8-2
			c-1.8-1.7-1.8-3.9-1.8-6.2v-9.9h4.6v9.3c0,2.3,0.2,4.8,3.1,4.8s3.1-2.5,3.1-4.8v-9.3H141.6z"/>
		<path id="XMLID_373_" class="st3" d="M144.5,62.4h4.6l8.4,10.8h0V62.4h4.6V80h-4.6l-8.4-10.8h0V80h-4.6V62.4z"/>
		<path id="XMLID_371_" class="st3" d="M169.7,80h-4.6V62.4h4.6V80z"/>
		<path id="XMLID_368_" class="st3" d="M172.7,62.4h6.5c4.9,0,8.9,3.9,8.9,8.8c0,5-4.1,8.8-8.9,8.8h-6.5V62.4z M177.2,76.1h1
			c2.7,0,5.1-1.5,5.1-4.9c0-3.2-2.1-4.9-5-4.9h-1.1V76.1z"/>
		<path id="XMLID_365_" class="st3" d="M194.7,76.9l-1.2,3.1h-4.9l6.8-17.6h5L207,80h-4.9l-1.1-3.1H194.7z M197.9,67.8L197.9,67.8
			l-1.9,5.6h3.8L197.9,67.8z"/>
		<path id="XMLID_362_" class="st3" d="M208.5,62.4h6.5c4.9,0,8.9,3.9,8.9,8.8c0,5-4.1,8.8-8.9,8.8h-6.5V62.4z M213,76.1h1
			c2.7,0,5.1-1.5,5.1-4.9c0-3.2-2.1-4.9-5-4.9H213V76.1z"/>
		<path id="XMLID_359_" class="st3" d="M234,62.4h6.5c4.9,0,8.9,3.9,8.9,8.8c0,5-4.1,8.8-8.9,8.8H234V62.4z M238.6,76.1h1
			c2.7,0,5.1-1.5,5.1-4.9c0-3.2-2.1-4.9-5-4.9h-1.1V76.1z"/>
		<path id="XMLID_357_" class="st3" d="M256.2,66.2v2.9h5.2v3.9h-5.2v3h5.4V80h-10V62.4h10v3.9H256.2z"/>
		<path id="XMLID_355_" class="st3" d="M287.7,62.4v9.9c0,2.3-0.1,4.5-1.8,6.2c-1.5,1.4-3.8,2-5.8,2c-2.1,0-4.4-0.5-5.8-2
			c-1.8-1.7-1.8-3.9-1.8-6.2v-9.9h4.6v9.3c0,2.3,0.2,4.8,3.1,4.8c2.9,0,3.1-2.5,3.1-4.8v-9.3H287.7z"/>
		<path id="XMLID_352_" class="st3" d="M305.3,80h-5.7l-4.3-6.8h0V80h-4.6V62.4h6.8c3.5,0,6.1,1.7,6.1,5.4c0,2.4-1.4,4.5-3.9,5
			L305.3,80z M295.2,70.3h0.4c1.5,0,3.2-0.3,3.2-2.2c0-1.9-1.7-2.2-3.2-2.2h-0.4V70.3z"/>
		<path id="XMLID_348_" class="st3" d="M306.5,80V62.4h6.5c3.1,0,5.2,1.2,5.2,4.6c0,1.6-0.5,2.9-1.9,3.6v0c2.5,0.3,3.6,2,3.6,4.5
			c0,3.7-3.2,4.9-6.4,4.9H306.5z M311.1,69.3h0.5c1.2,0,2.5-0.2,2.5-1.7c0-1.6-1.4-1.7-2.7-1.7h-0.3V69.3z M311.1,76.5h0.6
			c1.4,0,3.6,0.1,3.6-1.9c0-2.1-2.3-1.9-3.8-1.9h-0.5V76.5z"/>
		<path id="XMLID_345_" class="st3" d="M326.8,76.9l-1.2,3.1h-4.9l6.8-17.6h5l6.6,17.6h-4.9l-1.1-3.1H326.8z M330,67.8L330,67.8
			l-1.9,5.6h3.8L330,67.8z"/>
		<path id="XMLID_343_" class="st3" d="M340.6,62.4h4.6l8.4,10.8h0V62.4h4.6V80h-4.6l-8.4-10.8h0V80h-4.6V62.4z"/>
		<path id="XMLID_341_" class="st3" d="M365.7,80h-4.6V62.4h4.6V80z"/>
		<path id="XMLID_339_" class="st3" d="M378.4,66.9c-0.8-0.7-1.9-1.2-3-1.2c-0.8,0-2,0.5-2,1.5c0,1,1.2,1.4,2,1.7l1.2,0.4
			c2.5,0.7,4.3,2,4.3,4.8c0,1.8-0.4,3.6-1.8,4.7c-1.4,1.2-3.2,1.7-5,1.7c-2.2,0-4.4-0.7-6.2-2l2-3.7c1.1,1,2.5,1.8,4.1,1.8
			c1.1,0,2.2-0.5,2.2-1.8c0-1.3-1.8-1.7-2.8-2c-2.9-0.8-4.8-1.6-4.8-5c0-3.6,2.5-5.9,6.1-5.9c1.8,0,3.9,0.6,5.5,1.4L378.4,66.9z"/>
		<path id="XMLID_337_" class="st3" d="M385.1,62.4h4.5l3.6,9.4l3.8-9.4h4.6l2.7,17.6h-4.6l-1.3-10.1h0L394,80h-1.8l-4-10.1h0
			L386.6,80h-4.6L385.1,62.4z"/>
		<path id="XMLID_334_" class="st3" d="M424.7,70.8c0,5.7-4.1,9.7-9.7,9.7s-9.7-4-9.7-9.7c0-5.3,4.7-9.1,9.7-9.1
			C420,61.8,424.7,65.5,424.7,70.8z M410,70.9c0,3,2.2,5.3,5,5.3s5-2.2,5-5.3c0-2.4-2.2-4.6-5-4.6S410,68.4,410,70.9z"/>
	</g>
</g>
<rect id="XMLID_6836_" x="101.8" y="207.4" class="st2" width="353.3" height="160"/>
<g id="XMLID_16832_">
	<g>
		<path id="XMLID_930_" class="st3" d="M139,272.4l-1.2,3.1h-4.9l6.8-17.6h5l6.6,17.6h-4.9l-1.1-3.1H139z M142.2,263.3L142.2,263.3
			l-1.9,5.6h3.8L142.2,263.3z"/>
		<path id="XMLID_926_" class="st3" d="M152.8,275.5v-17.6h6.5c3.1,0,5.2,1.2,5.2,4.6c0,1.6-0.5,2.9-1.9,3.6v0
			c2.5,0.3,3.6,2,3.6,4.5c0,3.7-3.2,4.9-6.4,4.9H152.8z M157.3,264.8h0.5c1.2,0,2.5-0.2,2.5-1.7c0-1.6-1.4-1.7-2.7-1.7h-0.3V264.8z
			 M157.3,272h0.6c1.4,0,3.6,0.1,3.6-1.9c0-2.1-2.3-1.9-3.8-1.9h-0.5V272z"/>
		<path id="XMLID_923_" class="st3" d="M187.2,266.4c0,5.7-4.1,9.7-9.7,9.7s-9.7-4-9.7-9.7c0-5.3,4.7-9.1,9.7-9.1
			C182.5,257.3,187.2,261,187.2,266.4z M172.4,266.4c0,3,2.2,5.3,5,5.3c2.7,0,5-2.2,5-5.3c0-2.4-2.2-4.6-5-4.6
			C174.7,261.7,172.4,263.9,172.4,266.4z"/>
		<path id="XMLID_921_" class="st3" d="M206.9,265.7c0,2.6-0.2,4.8-1.8,7c-1.7,2.4-4.3,3.5-7.3,3.5c-5.5,0-9.4-3.8-9.4-9.3
			c0-5.7,3.9-9.5,9.6-9.5c3.6,0,6.4,1.6,7.9,4.9l-4.3,1.8c-0.6-1.7-2-2.8-3.8-2.8c-3,0-4.6,2.9-4.6,5.6c0,2.7,1.6,5.5,4.6,5.5
			c2,0,3.5-1,3.7-3.1h-3.7v-3.6H206.9z"/>
		<path id="XMLID_918_" class="st3" d="M213.4,272.4l-1.2,3.1h-4.9l6.8-17.6h5l6.6,17.6h-4.9l-1.1-3.1H213.4z M216.6,263.3
			L216.6,263.3l-1.9,5.6h3.8L216.6,263.3z"/>
		<path id="XMLID_915_" class="st3" d="M227.2,257.9h6.5c4.9,0,8.9,3.9,8.9,8.8s-4.1,8.8-8.9,8.8h-6.5V257.9z M231.8,271.6h1
			c2.7,0,5.1-1.5,5.1-4.9c0-3.2-2.1-4.9-5-4.9h-1.1V271.6z"/>
		<path id="XMLID_912_" class="st3" d="M263.4,266.4c0,5.7-4.1,9.7-9.7,9.7c-5.7,0-9.7-4-9.7-9.7c0-5.3,4.7-9.1,9.7-9.1
			C258.7,257.3,263.4,261,263.4,266.4z M248.6,266.4c0,3,2.2,5.3,5,5.3c2.7,0,5-2.2,5-5.3c0-2.4-2.2-4.6-5-4.6
			C250.9,261.7,248.6,263.9,248.6,266.4z"/>
		<path id="XMLID_910_" class="st3" d="M288.8,257.9v9.9c0,2.3-0.1,4.5-1.8,6.2c-1.5,1.4-3.8,2-5.8,2c-2.1,0-4.4-0.5-5.8-2
			c-1.8-1.7-1.8-3.9-1.8-6.2v-9.9h4.6v9.3c0,2.3,0.2,4.8,3.1,4.8s3.1-2.5,3.1-4.8v-9.3H288.8z"/>
		<path id="XMLID_907_" class="st3" d="M306.3,275.5h-5.7l-4.3-6.8h0v6.8h-4.6v-17.6h6.8c3.5,0,6.1,1.7,6.1,5.4c0,2.4-1.4,4.5-3.9,5
			L306.3,275.5z M296.3,265.8h0.4c1.5,0,3.2-0.3,3.2-2.2c0-1.9-1.7-2.2-3.2-2.2h-0.4V265.8z"/>
		<path id="XMLID_903_" class="st3" d="M307.6,275.5v-17.6h6.5c3.1,0,5.2,1.2,5.2,4.6c0,1.6-0.5,2.9-1.9,3.6v0
			c2.5,0.3,3.6,2,3.6,4.5c0,3.7-3.2,4.9-6.4,4.9H307.6z M312.1,264.8h0.5c1.2,0,2.5-0.2,2.5-1.7c0-1.6-1.4-1.7-2.7-1.7h-0.3V264.8z
			 M312.1,272h0.6c1.4,0,3.6,0.1,3.6-1.9c0-2.1-2.3-1.9-3.8-1.9h-0.5V272z"/>
		<path id="XMLID_900_" class="st3" d="M327.9,272.4l-1.2,3.1h-4.9l6.8-17.6h5l6.6,17.6h-4.9l-1.1-3.1H327.9z M331.1,263.3
			L331.1,263.3l-1.9,5.6h3.8L331.1,263.3z"/>
		<path id="XMLID_898_" class="st3" d="M341.6,257.9h4.6l8.4,10.8h0v-10.8h4.6v17.6h-4.6l-8.4-10.8h0v10.8h-4.6V257.9z"/>
		<path id="XMLID_896_" class="st3" d="M366.8,275.5h-4.6v-17.6h4.6V275.5z"/>
		<path id="XMLID_894_" class="st3" d="M379.4,262.4c-0.8-0.7-1.9-1.2-3-1.2c-0.8,0-2,0.5-2,1.5c0,1,1.2,1.4,2,1.7l1.2,0.4
			c2.5,0.7,4.3,2,4.3,4.8c0,1.8-0.4,3.6-1.8,4.7c-1.4,1.2-3.2,1.7-5,1.7c-2.2,0-4.4-0.7-6.2-2l2-3.7c1.1,1,2.5,1.8,4.1,1.8
			c1.1,0,2.2-0.5,2.2-1.8c0-1.3-1.8-1.7-2.8-2c-2.9-0.8-4.8-1.6-4.8-5c0-3.6,2.5-5.9,6.1-5.9c1.8,0,3.9,0.6,5.5,1.4L379.4,262.4z"/>
		<path id="XMLID_892_" class="st3" d="M386.1,257.9h4.5l3.6,9.4l3.8-9.4h4.6l2.7,17.6h-4.6l-1.3-10.1h0l-4.2,10.1h-1.8l-4-10.1h0
			l-1.5,10.1h-4.6L386.1,257.9z"/>
		<path id="XMLID_889_" class="st3" d="M425.7,266.4c0,5.7-4.1,9.7-9.7,9.7s-9.7-4-9.7-9.7c0-5.3,4.7-9.1,9.7-9.1
			C421,257.3,425.7,261,425.7,266.4z M411,266.4c0,3,2.2,5.3,5,5.3c2.7,0,5-2.2,5-5.3c0-2.4-2.2-4.6-5-4.6
			C413.2,261.7,411,263.9,411,266.4z"/>
		<path id="XMLID_886_" class="st3" d="M199.2,303.5h-5.7l-4.3-6.8h0v6.8h-4.6v-17.6h6.8c3.5,0,6.1,1.7,6.1,5.4c0,2.4-1.4,4.5-3.9,5
			L199.2,303.5z M189.2,293.8h0.4c1.5,0,3.2-0.3,3.2-2.2c0-1.9-1.7-2.2-3.2-2.2h-0.4V293.8z"/>
		<path id="XMLID_883_" class="st3" d="M212.7,298.2h-8.9c0,1.7,0.9,2.7,2.7,2.7c0.9,0,1.6-0.3,2-1.1h4.1c-0.3,1.4-1.2,2.4-2.3,3.1
			c-1.1,0.7-2.5,1-3.8,1c-4,0-6.9-2.2-6.9-6.4c0-4,2.7-6.4,6.6-6.4c4.2,0,6.6,2.6,6.6,6.7V298.2z M208.7,295.8
			c-0.2-1.1-1.3-1.9-2.4-1.9c-1.2,0-2.3,0.7-2.5,1.9H208.7z"/>
		<path id="XMLID_881_" class="st3" d="M220.5,297.7l2.8-6.1h4.8l-6.3,12h-2.7l-6.3-12h4.8L220.5,297.7z"/>
		<path id="XMLID_878_" class="st3" d="M233.7,286.9c0,1.3-1.1,2.4-2.4,2.4c-1.3,0-2.4-1.1-2.4-2.4c0-1.3,1.1-2.4,2.4-2.4
			C232.6,284.5,233.7,285.6,233.7,286.9z M233.4,303.5h-4.3v-12h4.3V303.5z"/>
		<path id="XMLID_876_" class="st3" d="M244.1,294.6c-0.7-0.4-1.6-0.6-2.3-0.6c-0.5,0-1.3,0.2-1.3,0.8c0,0.8,1.3,0.9,1.9,1.1
			c2,0.4,3.5,1.3,3.5,3.6c0,3.2-2.9,4.5-5.7,4.5c-1.7,0-3.4-0.5-4.8-1.4l1.5-3c0.9,0.6,2.3,1.2,3.4,1.2c0.5,0,1.3-0.3,1.3-0.9
			c0-0.9-1.3-1-2.7-1.3c-1.3-0.4-2.7-1-2.7-3.2c0-2.9,2.7-4.3,5.3-4.3c1.4,0,2.7,0.2,3.9,0.8L244.1,294.6z"/>
		<path id="XMLID_873_" class="st3" d="M252.7,286.9c0,1.3-1.1,2.4-2.4,2.4c-1.3,0-2.4-1.1-2.4-2.4c0-1.3,1.1-2.4,2.4-2.4
			C251.6,284.5,252.7,285.6,252.7,286.9z M252.5,303.5h-4.3v-12h4.3V303.5z"/>
		<path id="XMLID_869_" class="st3" d="M268.8,297.5c0,4.1-3.4,6.4-7.2,6.4c-3.8,0-7.2-2.3-7.2-6.4c0-4.1,3.4-6.4,7.2-6.4
			C265.4,291.1,268.8,293.4,268.8,297.5z M258.9,297.5c0,1.5,1,2.7,2.7,2.7c1.7,0,2.7-1.2,2.7-2.7c0-1.5-1-2.7-2.7-2.7
			C259.9,294.8,258.9,296.1,258.9,297.5z M261.1,289.8l-1.9-1.4l3.3-4l2.6,1.9L261.1,289.8z"/>
		<path id="XMLID_867_" class="st3" d="M275,293.1L275,293.1c1-1.4,2.2-1.9,3.9-1.9c3.2,0,4.5,2,4.5,5v7.4h-4.3v-5.8
			c0-1.1,0.2-3.2-1.9-3.2c-1.7,0-2.2,1.3-2.2,2.8v6.2h-4.3v-12h4.3V293.1z"/>
		<path id="XMLID_865_" class="st3" d="M304.5,294.3v3.5h-11.7v-3.5H304.5z"/>
		<path id="XMLID_863_" class="st3" d="M321.8,294.6c-0.7-0.4-1.6-0.6-2.3-0.6c-0.5,0-1.3,0.2-1.3,0.8c0,0.8,1.3,0.9,1.9,1.1
			c2,0.4,3.5,1.3,3.5,3.6c0,3.2-2.9,4.5-5.7,4.5c-1.7,0-3.4-0.5-4.8-1.4l1.5-3c0.9,0.6,2.3,1.2,3.4,1.2c0.5,0,1.3-0.3,1.3-0.9
			c0-0.9-1.3-1-2.7-1.3c-1.3-0.4-2.7-1-2.7-3.2c0-2.9,2.7-4.3,5.3-4.3c1.4,0,2.7,0.2,3.9,0.8L321.8,294.6z"/>
		<path id="XMLID_860_" class="st3" d="M338.2,298.2h-8.9c0,1.7,0.9,2.7,2.7,2.7c0.9,0,1.6-0.3,2-1.1h4.1c-0.3,1.4-1.2,2.4-2.3,3.1
			c-1.1,0.7-2.5,1-3.8,1c-4,0-6.9-2.2-6.9-6.4c0-4,2.7-6.4,6.6-6.4c4.2,0,6.6,2.6,6.6,6.7V298.2z M334.2,295.8
			c-0.2-1.1-1.3-1.9-2.4-1.9c-1.2,0-2.3,0.7-2.5,1.9H334.2z"/>
		<path id="XMLID_858_" class="st3" d="M344.4,303.5h-4.3v-19.4h4.3V303.5z"/>
		<path id="XMLID_856_" class="st3" d="M351.4,303.5h-4.3v-19.4h4.3V303.5z"/>
		<path id="XMLID_853_" class="st3" d="M367.8,297.5c0,4.1-3.4,6.4-7.2,6.4c-3.8,0-7.2-2.3-7.2-6.4c0-4.1,3.4-6.4,7.2-6.4
			C364.4,291.1,367.8,293.4,367.8,297.5z M357.8,297.5c0,1.5,1,2.7,2.7,2.7c1.7,0,2.7-1.2,2.7-2.7c0-1.5-1-2.7-2.7-2.7
			C358.8,294.8,357.8,296.1,357.8,297.5z"/>
		<path id="XMLID_851_" class="st3" d="M197.5,319.6h4.9l3.2,6.1l3.1-6.1h4.8l-9.6,18h-4.8l4.1-7.6L197.5,319.6z"/>
		<path id="XMLID_849_" class="st3" d="M227.2,331.5H223v-8.5h-1.4v-3.5h1.4V316h4.3v3.6h2.4v3.5h-2.4V331.5z"/>
		<path id="XMLID_846_" class="st3" d="M235.5,315c0,1.3-1.1,2.4-2.4,2.4c-1.3,0-2.4-1.1-2.4-2.4c0-1.3,1.1-2.4,2.4-2.4
			C234.4,312.6,235.5,313.7,235.5,315z M235.2,331.5H231v-12h4.3V331.5z"/>
		<path id="XMLID_844_" class="st3" d="M242.3,321.1L242.3,321.1c1.1-1.3,2.3-1.9,3.8-1.9c1.7,0,3.2,0.7,4.1,2.3
			c0.8-1.5,2.4-2.3,4.1-2.3c3,0,4.1,2,4.1,4.7v7.6h-4.3v-5.7c0-1.2,0-3.3-1.8-3.3c-2,0-2,1.8-2,3.3v5.7h-4.3v-5.7
			c0-1.3,0-3.4-1.9-3.4c-1.9,0-1.9,2-1.9,3.4v5.7H238v-12h4.3V321.1z"/>
		<path id="XMLID_841_" class="st3" d="M261,312.2h4.3v8.6c0.9-1.1,2.3-1.6,3.7-1.6c3.6,0,6,2.9,6,6.4c0,3.5-2.5,6.4-6.1,6.4
			c-1.4,0-2.8-0.5-3.6-1.7h0v1.3H261V312.2z M265.1,325.6c0,1.5,1,2.7,2.7,2.7s2.7-1.2,2.7-2.7c0-1.5-1-2.7-2.7-2.7
			S265.1,324.1,265.1,325.6z"/>
		<path id="XMLID_839_" class="st3" d="M281.3,321.5L281.3,321.5c0.9-1.5,2.3-2.1,3.9-2.1h0.8v4.1c-0.6-0.3-1.1-0.4-1.8-0.4
			c-2.4,0-2.9,1.6-2.9,3.6v4.8h-4.3v-12h4.3V321.5z"/>
		<path id="XMLID_836_" class="st3" d="M300,326.3H291c0,1.7,0.9,2.7,2.7,2.7c0.9,0,1.6-0.3,2-1.1h4.1c-0.3,1.4-1.2,2.4-2.3,3.1
			c-1.1,0.7-2.5,1-3.8,1c-4,0-6.9-2.2-6.9-6.4c0-4,2.7-6.4,6.6-6.4c4.2,0,6.6,2.6,6.6,6.7V326.3z M296,323.8
			c-0.2-1.1-1.3-1.9-2.4-1.9c-1.2,0-2.3,0.7-2.5,1.9H296z"/>
		<path id="XMLID_834_" class="st3" d="M317.8,322.6c-0.7-0.4-1.6-0.6-2.3-0.6c-0.5,0-1.3,0.2-1.3,0.8c0,0.8,1.3,0.9,1.9,1.1
			c2,0.4,3.5,1.3,3.5,3.6c0,3.2-2.9,4.5-5.7,4.5c-1.7,0-3.4-0.5-4.8-1.4l1.5-3c0.9,0.6,2.3,1.2,3.4,1.2c0.5,0,1.3-0.3,1.3-0.9
			c0-0.9-1.3-1-2.7-1.3c-1.3-0.4-2.7-1-2.7-3.2c0-2.9,2.7-4.3,5.3-4.3c1.4,0,2.7,0.2,3.9,0.8L317.8,322.6z"/>
		<path id="XMLID_831_" class="st3" d="M334.2,326.3h-8.9c0,1.7,0.9,2.7,2.7,2.7c0.9,0,1.6-0.3,2-1.1h4.1c-0.3,1.4-1.2,2.4-2.3,3.1
			c-1.1,0.7-2.5,1-3.8,1c-4,0-6.9-2.2-6.9-6.4c0-4,2.7-6.4,6.6-6.4c4.2,0,6.6,2.6,6.6,6.7V326.3z M330.3,323.8
			c-0.2-1.1-1.3-1.9-2.4-1.9c-1.2,0-2.3,0.7-2.5,1.9H330.3z"/>
		<path id="XMLID_829_" class="st3" d="M344.8,323.5c-0.6-0.5-1.4-0.8-2.2-0.8c-1.6,0-2.9,1.3-2.9,2.9c0,1.7,1.2,2.9,3,2.9
			c0.7,0,1.6-0.3,2.1-0.8v3.6c-0.9,0.5-2,0.7-3,0.7c-3.6,0-6.5-2.6-6.5-6.3c0-3.9,2.9-6.5,6.7-6.5c1,0,2,0.2,2.8,0.7V323.5z"/>
		<path id="XMLID_826_" class="st3" d="M361,325.6c0,4.1-3.4,6.4-7.2,6.4c-3.8,0-7.2-2.3-7.2-6.4s3.4-6.4,7.2-6.4
			C357.6,319.2,361,321.5,361,325.6z M351,325.6c0,1.5,1,2.7,2.7,2.7c1.7,0,2.7-1.2,2.7-2.7c0-1.5-1-2.7-2.7-2.7
			C352,322.9,351,324.1,351,325.6z"/>
	</g>
</g>
<polygon id="XMLID_6830_" class="st4" points="455.1,80 470,71.4 484.9,62.8 484.9,80 484.9,97.2 470,88.6 "/>
<polygon id="XMLID_6829_" class="st4" points="275.9,214.6 267.3,199.7 258.7,184.8 275.9,184.8 293.1,184.8 284.5,199.7 "/>
<polygon id="XMLID_6826_" class="st4" points="723.3,367.4 731.9,382.3 740.5,397.2 723.3,397.2 706.1,397.2 714.7,382.3 "/>
<polyline id="XMLID_6825_" class="st0" points="723.3,367.4 723.3,480.8 275.9,480.8 275.9,367.4 "/>
<polyline id="XMLID_6824_" class="st0" points="723.3,207.4 723.3,79.1 455.1,79.1 455.1,79.1 "/>
</svg>
