<?xml version="1.0" encoding="utf-8"?>
<!-- Generator: Adobe Illustrator 21.0.2, SVG Export Plug-In . SVG Version: 6.00 Build 0)  -->
<svg version="1.1" id="Layer_1" xmlns="http://www.w3.org/2000/svg" xmlns:xlink="http://www.w3.org/1999/xlink" x="0px" y="0px"
	 viewBox="0 0 998.6 1148.4" style="enable-background:new 0 0 998.6 1148.4;" xml:space="preserve">
<style type="text/css">
	.st0{fill:none;stroke:#E42527;stroke-width:4;stroke-miterlimit:10;}
	.st1{fill:#D81117;}
	.st2{fill:#929191;}
	.st3{fill:#9D9D9C;}
	.st4{fill:#FFFFFF;}
	.st5{fill:#E42527;}
</style>
<line id="XMLID_13_" class="st0" x1="498.2" y1="89.2" x2="498.2" y2="1071"/>
<rect id="XMLID_80_" x="100.6" y="409.7" class="st1" width="222.9" height="100.9"/>
<rect id="XMLID_85_" x="100.6" y="611.1" class="st2" width="222.9" height="100.9"/>
<rect id="XMLID_83_" x="388.4" y="0.8" class="st3" width="222.9" height="100.9"/>
<rect id="XMLID_87_" x="664.1" y="131.6" class="st3" width="235.9" height="100.9"/>
<g id="XMLID_25871_">
	<g>
		<path id="XMLID_1240_" class="st4" d="M167.3,442.2l2.7-6.7h3.1l-4.8,11.1H166l-4.7-11.1h3.1L167.3,442.2z"/>
		<path id="XMLID_1237_" class="st4" d="M178.9,437.6c0,1.6-1.4,2.4-3,2.4s-3-0.9-3-2.4c0-1.6,1.4-2.4,3-2.4
			C177.5,435.1,178.9,436,178.9,437.6z M174.9,437.6c0,0.5,0.5,1,1.1,1s1.1-0.5,1.1-1s-0.5-1-1.1-1
			C175.3,436.5,174.9,436.9,174.9,437.6z"/>
		<path id="XMLID_1233_" class="st4" d="M185,446.5v-11.1h4.1c2,0,3.3,0.8,3.3,2.9c0,1-0.3,1.8-1.3,2.3l0,0c1.6,0.2,2.3,1.3,2.3,2.8
			c0,2.3-2,3.1-4,3.1L185,446.5L185,446.5z M187.9,439.7h0.3c0.8,0,1.6-0.2,1.6-1.1c0-1-0.9-1.1-1.6-1.1H188v2.2H187.9z
			 M187.9,444.3h0.4c0.9,0,2.3,0.1,2.3-1.2c0-1.3-1.4-1.2-2.3-1.2H188L187.9,444.3L187.9,444.3z"/>
		<path id="XMLID_1230_" class="st4" d="M200,437.6c0,1.6-1.4,2.4-3,2.4s-3-0.9-3-2.4c0-1.6,1.4-2.4,3-2.4
			C198.6,435.1,200,436,200,437.6z M195.9,437.6c0,0.5,0.5,1,1.1,1s1.1-0.5,1.1-1s-0.5-1-1.1-1C196.4,436.5,195.9,436.9,195.9,437.6
			z"/>
		<path id="XMLID_1227_" class="st4" d="M208.8,444.6l-0.8,2h-3l4.3-11.1h3.1l4.1,11.1h-3.1l-0.7-2H208.8z M210.9,438.8L210.9,438.8
			l-1.3,3.5h2.4L210.9,438.8z"/>
		<path id="XMLID_1224_" class="st4" d="M226.8,446.5h-3.6l-2.7-4.3l0,0v4.3h-2.9v-11.1h4.3c2.2,0,3.8,1,3.8,3.4
			c0,1.6-0.9,2.9-2.4,3.1L226.8,446.5z M220.4,440.4h0.3c0.9,0,2-0.2,2-1.4c0-1.2-1.1-1.4-2-1.4h-0.3V440.4z"/>
		<path id="XMLID_1222_" class="st4" d="M230.4,437.9v1.9h3.3v2.4h-3.3v1.9h3.4v2.4h-6.3v-11.1h6.3v2.4L230.4,437.9L230.4,437.9z"/>
		<path id="XMLID_1219_" class="st4" d="M238.5,444.6l-0.8,2h-3.1l4.3-11.1h3.1l4.2,11.1h-3.1l-0.7-2H238.5z M240.5,438.8
			L240.5,438.8l-1.3,3.5h2.4L240.5,438.8z"/>
		<path id="XMLID_1217_" class="st4" d="M145.9,464.2H143v-8.7h-2.4v-2.4h7.7v2.4H146v8.7H145.9z"/>
		<path id="XMLID_1215_" class="st4" d="M152.2,455.5v1.9h3.3v2.4h-3.3v1.9h3.4v2.4h-6.3V453h6.3v2.4L152.2,455.5L152.2,455.5z"/>
		<path id="XMLID_1213_" class="st4" d="M165.4,456.8c-0.6-0.8-1.6-1.3-2.5-1.3c-1.8,0-3,1.3-3,3.1c0,1.7,1.2,3.1,3,3.1
			c0.9,0,1.9-0.5,2.5-1.2v3.4c-0.9,0.3-1.6,0.5-2.6,0.5c-1.6,0-3.1-0.6-4.1-1.6c-1.3-1.1-1.8-2.6-1.8-4.2c0-1.5,0.5-3,1.6-4.1
			s2.7-1.8,4.2-1.8c0.9,0,1.8,0.2,2.7,0.5C165.4,453.3,165.4,456.8,165.4,456.8z"/>
		<path id="XMLID_1211_" class="st4" d="M167.1,453h2.9l5.3,6.8l0,0V453h2.9v11.1h-2.9l-5.3-6.8l0,0v6.8h-2.9V453z"/>
		<path id="XMLID_1209_" class="st4" d="M183,464.2h-2.9v-11.1h2.9V464.2z"/>
		<path id="XMLID_1207_" class="st4" d="M192.9,456.8c-0.6-0.8-1.6-1.3-2.5-1.3c-1.8,0-3,1.3-3,3.1c0,1.7,1.2,3.1,3,3.1
			c0.9,0,1.9-0.5,2.5-1.2v3.4c-0.9,0.3-1.6,0.5-2.6,0.5c-1.6,0-3.1-0.6-4.1-1.6c-1.3-1.1-1.8-2.6-1.8-4.2c0-1.5,0.5-3,1.6-4.1
			s2.7-1.8,4.2-1.8c0.9,0,1.8,0.2,2.7,0.5C192.9,453.3,192.9,456.8,192.9,456.8z"/>
		<path id="XMLID_1204_" class="st4" d="M197.5,462.3l-0.8,2h-3.1l4.3-11.1h3.1l4.2,11.1h-3.1l-0.7-2H197.5z M199.5,456.5
			L199.5,456.5l-1.3,3.5h2.4L199.5,456.5z"/>
		<path id="XMLID_1202_" class="st4" d="M210,453h3.4l2.1,3.1l2.1-3.1h3.4l-4.1,5.8v5.3H214v-5.3L210,453z"/>
		<path id="XMLID_1200_" class="st4" d="M229.7,461.7h3.4v2.4h-6.3V453h2.9L229.7,461.7L229.7,461.7z"/>
		<path id="XMLID_1198_" class="st4" d="M237,455.5v1.9h3.3v2.4H237v1.9h3.4v2.4h-6.3V453h6.3v2.4L237,455.5L237,455.5z"/>
		<path id="XMLID_1196_" class="st4" d="M253.3,458c0,1.6-0.2,3-1.2,4.4c-1.1,1.5-2.7,2.2-4.6,2.2c-3.5,0-5.9-2.3-5.9-5.9
			s2.4-5.9,6-5.9c2.3,0,4.1,1,5,3.1l-2.7,1.2c-0.4-1.1-1.3-1.8-2.4-1.8c-1.9,0-2.9,1.8-2.9,3.5s1,3.4,2.9,3.4c1.3,0,2.2-0.6,2.3-2
			h-2.3V458H253.3z"/>
		<path id="XMLID_1193_" class="st4" d="M257.4,462.3l-0.8,2h-3.1l4.3-11.1h3.1l4.2,11.1H262l-0.7-2H257.4z M259.4,456.5
			L259.4,456.5l-1.3,3.5h2.4L259.4,456.5z"/>
		<path id="XMLID_1191_" class="st4" d="M269,461.7h3.4v2.4h-6.3V453h2.9V461.7L269,461.7z"/>
		<path id="XMLID_1188_" class="st4" d="M154.9,481.9h-3.6l-2.7-4.3l0,0v4.3h-2.9v-11.1h4.3c2.2,0,3.8,1,3.8,3.4
			c0,1.6-0.9,2.9-2.4,3.1L154.9,481.9z M148.5,475.7h0.3c0.9,0,2-0.2,2-1.4c0-1.2-1.1-1.4-2-1.4h-0.3
			C148.5,472.9,148.5,475.7,148.5,475.7z"/>
		<path id="XMLID_1185_" class="st4" d="M163.4,478.5h-5.7c0,1.1,0.5,1.6,1.6,1.6c0.5,0,1-0.2,1.3-0.7h2.6c-0.2,0.9-0.7,1.6-1.4,2
			s-1.6,0.6-2.4,0.6c-2.5,0-4.4-1.4-4.4-4c0-2.5,1.7-4.1,4.2-4.1c2.7,0,4.1,1.6,4.1,4.2L163.4,478.5L163.4,478.5z M160.9,477
			c-0.2-0.7-0.8-1.2-1.5-1.2c-0.8,0-1.4,0.4-1.6,1.2H160.9z"/>
		<path id="XMLID_1183_" class="st4" d="M168.3,478.2l1.8-3.9h3l-3.9,7.6h-1.7l-4-7.6h3L168.3,478.2z"/>
		<path id="XMLID_1180_" class="st4" d="M176.6,471.4c0,0.9-0.7,1.5-1.5,1.5c-0.9,0-1.5-0.7-1.5-1.5c0-0.9,0.7-1.5,1.5-1.5
			C175.9,469.9,176.6,470.6,176.6,471.4z M176.4,481.9h-2.7v-7.6h2.7V481.9z"/>
		<path id="XMLID_1178_" class="st4" d="M183.2,476.3c-0.4-0.2-1-0.4-1.4-0.4c-0.3,0-0.9,0.2-0.9,0.5c0,0.5,0.9,0.6,1.2,0.6
			c1.3,0.2,2.2,0.9,2.2,2.3c0,2-1.8,2.8-3.6,2.8c-1.1,0-2.1-0.3-3.1-0.9l0.9-1.9c0.5,0.4,1.5,0.8,2.1,0.8c0.3,0,0.9-0.2,0.9-0.5
			c0-0.6-0.9-0.6-1.6-0.9c-0.9-0.2-1.6-0.6-1.6-2c0-1.9,1.6-2.7,3.4-2.7c0.9,0,1.7,0.2,2.5,0.5L183.2,476.3z"/>
		<path id="XMLID_1175_" class="st4" d="M188.6,471.4c0,0.9-0.7,1.5-1.5,1.5c-0.9,0-1.5-0.7-1.5-1.5c0-0.9,0.7-1.5,1.5-1.5
			C187.9,469.9,188.6,470.6,188.6,471.4z M188.4,481.9h-2.7v-7.6h2.7V481.9z"/>
		<path id="XMLID_1171_" class="st4" d="M198.7,478.1c0,2.6-2.1,4-4.5,4s-4.5-1.4-4.5-4s2.1-4.1,4.5-4.1
			C196.6,474.1,198.7,475.5,198.7,478.1z M192.5,478.1c0,0.9,0.6,1.7,1.7,1.7c1.1,0,1.7-0.7,1.7-1.7c0-0.9-0.6-1.7-1.7-1.7
			S192.5,477.1,192.5,478.1z M193.9,473.2l-1.2-0.9l2.1-2.5l1.6,1.2L193.9,473.2z"/>
		<path id="XMLID_1169_" class="st4" d="M202.6,475.3L202.6,475.3c0.6-0.9,1.4-1.3,2.4-1.3c2,0,2.8,1.3,2.8,3.1v4.7h-2.7v-3.7
			c0-0.7,0.2-2-1.2-2c-1.1,0-1.4,0.8-1.4,1.7v3.9H200v-7.6h2.7L202.6,475.3L202.6,475.3z"/>
		<path id="XMLID_1166_" class="st4" d="M217.4,475.2L217.4,475.2c0.5-0.8,1.4-1.1,2.3-1.1c2.3,0,3.8,1.9,3.8,4.1s-1.6,4-3.8,4
			c-0.9,0-1.8-0.3-2.3-0.9v4.5h-2.7v-11.3h2.7V475.2L217.4,475.2z M217.3,478.1c0,0.9,0.6,1.7,1.7,1.7s1.7-0.7,1.7-1.7
			c0-0.9-0.6-1.7-1.7-1.7C217.9,476.4,217.3,477.1,217.3,478.1z"/>
		<path id="XMLID_1164_" class="st4" d="M227.5,475.6L227.5,475.6c0.5-0.9,1.4-1.3,2.5-1.3h0.5v2.6c-0.4-0.2-0.7-0.2-1.2-0.2
			c-1.5,0-1.9,1-1.9,2.3v3.1h-2.7v-7.6h2.7L227.5,475.6L227.5,475.6z"/>
		<path id="XMLID_1161_" class="st4" d="M239.3,478.5h-5.6c0,1.1,0.5,1.6,1.6,1.6c0.5,0,1-0.2,1.3-0.7h2.6c-0.2,0.9-0.7,1.6-1.4,2
			s-1.6,0.6-2.4,0.6c-2.5,0-4.4-1.4-4.4-4c0-2.5,1.7-4.1,4.2-4.1c2.7,0,4.1,1.6,4.1,4.2L239.3,478.5L239.3,478.5z M236.8,477
			c-0.2-0.7-0.8-1.2-1.5-1.2c-0.8,0-1.4,0.4-1.6,1.2H236.8z"/>
		<path id="XMLID_1159_" class="st4" d="M244.2,478.2l1.8-3.9h3l-3.9,7.6h-1.7l-4-7.6h3L244.2,478.2z"/>
		<path id="XMLID_1156_" class="st4" d="M252.5,471.4c0,0.9-0.7,1.5-1.5,1.5c-0.9,0-1.5-0.7-1.5-1.5c0-0.9,0.7-1.5,1.5-1.5
			S252.5,470.6,252.5,471.4z M252.3,481.9h-2.7v-7.6h2.7V481.9z"/>
		<path id="XMLID_1153_" class="st4" d="M262.3,481.9h-2.7V481l0,0c-0.5,0.8-1.4,1.1-2.3,1.1c-2.3,0-3.8-1.9-3.8-4.1s1.6-4,3.8-4
			c0.9,0,1.8,0.3,2.3,1v-0.7h2.7V481.9L262.3,481.9z M256.3,478.1c0,0.9,0.6,1.7,1.7,1.7s1.7-0.7,1.7-1.7c0-0.9-0.6-1.7-1.7-1.7
			S256.3,477.1,256.3,478.1z"/>
	</g>
</g>
<g id="XMLID_25768_">
	<g>
		<path id="XMLID_1435_" class="st4" d="M137,642.3l2.7-6.7h3.1l-4.7,11.1h-2.3l-4.7-11.1h3.1L137,642.3z"/>
		<path id="XMLID_1432_" class="st4" d="M146.5,638v1.9h3.3v2.4h-3.3v1.9h3.4v2.4h-6.3v-11.1h6.3v2.4L146.5,638L146.5,638z"/>
		<path id="XMLID_1430_" class="st4" d="M151.7,635.5h2.9l5.3,6.8l0,0v-6.8h2.9v11.1h-2.9l-5.3-6.8l0,0v6.8h-2.9V635.5z"/>
		<path id="XMLID_1428_" class="st4" d="M169.1,646.6h-2.9V638h-2.4v-2.4h7.7v2.4H169L169.1,646.6L169.1,646.6z"/>
		<path id="XMLID_1425_" class="st4" d="M174.5,644.7l-0.8,2h-3.1l4.3-11.1h3.1l4.2,11.1h-3.1l-0.7-2H174.5z M176.5,639L176.5,639
			l-1.3,3.5h2.4L176.5,639z"/>
		<path id="XMLID_1423_" class="st4" d="M183.2,635.5h2.9l5.3,6.8l0,0v-6.8h2.9v11.1h-2.9l-5.3-6.8l0,0v6.8h-2.9V635.5z"/>
		<path id="XMLID_1421_" class="st4" d="M199,646.6h-2.9v-11.1h2.9V646.6z"/>
		<path id="XMLID_1419_" class="st4" d="M203.8,644.2h3.4v2.4h-6.3v-11.1h2.9L203.8,644.2L203.8,644.2z"/>
		<path id="XMLID_1417_" class="st4" d="M211.1,644.2h3.4v2.4h-6.3v-11.1h2.9L211.1,644.2L211.1,644.2z"/>
		<path id="XMLID_1414_" class="st4" d="M218.3,644.7l-0.8,2h-3.1l4.3-11.1h3.1l4.1,11.1H223l-0.7-2H218.3z M220.3,639L220.3,639
			l-1.3,3.5h2.4L220.3,639z"/>
		<path id="XMLID_1411_" class="st4" d="M241.7,635.5v6.3c0,1.4-0.1,2.8-1.2,3.9c-0.9,0.9-2.4,1.3-3.7,1.3s-2.7-0.3-3.7-1.3
			c-1.1-1.1-1.2-2.5-1.2-3.9v-6.3h2.9v5.9c0,1.4,0.1,3.1,2,3.1s2-1.6,2-3.1v-5.9H241.7z M236.4,634.8l-1.2-0.9l2.1-2.5l1.6,1.2
			L236.4,634.8z"/>
		<path id="XMLID_1408_" class="st4" d="M243.5,635.5h2.9l5.3,6.8l0,0v-6.8h2.9v11.1h-2.9l-5.3-6.8l0,0v6.8h-2.9V635.5z"/>
		<path id="XMLID_1406_" class="st4" d="M259.4,646.6h-2.9v-11.1h2.9V646.6z"/>
		<path id="XMLID_1404_" class="st4" d="M269.2,639.3c-0.6-0.8-1.6-1.3-2.5-1.3c-1.8,0-3,1.3-3,3.1c0,1.7,1.2,3.1,3,3.1
			c0.9,0,1.9-0.5,2.5-1.2v3.4c-0.9,0.3-1.6,0.5-2.6,0.5c-1.6,0-3.1-0.6-4.1-1.6c-1.3-1.1-1.8-2.6-1.8-4.2c0-1.5,0.5-3,1.6-4.1
			s2.7-1.8,4.2-1.8c0.9,0,1.8,0.2,2.7,0.5L269.2,639.3L269.2,639.3z"/>
		<path id="XMLID_1401_" class="st4" d="M273.8,644.7l-0.8,2h-3l4.3-11.1h3.1l4.2,11.1h-3.1l-0.7-2H273.8z M275.9,639L275.9,639
			l-1.3,3.5h2.4L275.9,639z"/>
		<path id="XMLID_1399_" class="st4" d="M180.9,659.9l2.7-6.7h3.1l-4.8,11.1h-2.3l-4.7-11.1h3.1L180.9,659.9z"/>
		<path id="XMLID_1396_" class="st4" d="M194,661h-5.6c0,1.1,0.5,1.6,1.6,1.6c0.5,0,1-0.2,1.3-0.7h2.6c-0.2,0.9-0.7,1.6-1.4,2
			s-1.6,0.6-2.4,0.6c-2.5,0-4.4-1.4-4.4-4c0-2.5,1.7-4.1,4.2-4.1c2.7,0,4.1,1.6,4.1,4.2C194,660.7,194,661,194,661z M191.5,659.5
			c-0.2-0.7-0.8-1.2-1.5-1.2c-0.8,0-1.4,0.4-1.6,1.2H191.5z"/>
		<path id="XMLID_1394_" class="st4" d="M198,658L198,658c0.5-0.9,1.4-1.3,2.5-1.3h0.5v2.6c-0.4-0.2-0.7-0.2-1.2-0.2
			c-1.5,0-1.9,1-1.9,2.3v3.1h-2.7v-7.6h2.7C198,656.7,198,658,198,658z"/>
		<path id="XMLID_1391_" class="st4" d="M204.8,653.8c0,0.9-0.7,1.5-1.5,1.5c-0.9,0-1.5-0.7-1.5-1.5c0-0.9,0.7-1.5,1.5-1.5
			C204.1,652.4,204.8,653.1,204.8,653.8z M204.6,664.3h-2.7v-7.6h2.7V664.3z"/>
		<path id="XMLID_1387_" class="st4" d="M209.2,664.3h-2.7V659h-0.9v-2.2h0.9v-0.9c0-1,0-1.8,0.8-2.7c0.6-0.8,1.6-1.2,2.7-1.2
			c0.4,0,0.8,0.1,1.2,0.2v2.3c-0.3-0.2-0.6-0.2-0.9-0.2c-0.7,0-0.9,0.4-0.9,1.3v1.3h1.9v2.2h-1.9L209.2,664.3L209.2,664.3z
			 M214.8,653.8c0,0.9-0.7,1.5-1.5,1.5c-0.9,0-1.5-0.7-1.5-1.5c0-0.9,0.7-1.5,1.5-1.5C214.1,652.4,214.8,653.1,214.8,653.8z
			 M214.6,664.3H212v-7.6h2.7L214.6,664.3L214.6,664.3z"/>
		<path id="XMLID_1385_" class="st4" d="M221.8,659.2c-0.4-0.3-0.9-0.5-1.4-0.5c-1,0-1.9,0.8-1.9,1.9s0.8,1.9,1.9,1.9
			c0.5,0,1-0.2,1.3-0.5v2.3c-0.6,0.3-1.3,0.4-1.9,0.4c-2.3,0-4.1-1.6-4.1-3.9c0-2.4,1.9-4.1,4.2-4.1c0.6,0,1.3,0.2,1.8,0.5
			L221.8,659.2L221.8,659.2z"/>
		<path id="XMLID_1382_" class="st4" d="M231.7,664.3H229v-0.9l0,0c-0.5,0.8-1.4,1.1-2.3,1.1c-2.3,0-3.8-1.9-3.8-4.1
			c0-2.2,1.6-4,3.8-4c0.9,0,1.8,0.3,2.3,1v-0.7h2.7V664.3L231.7,664.3z M225.7,660.6c0,0.9,0.6,1.7,1.7,1.7s1.7-0.7,1.7-1.7
			c0-0.9-0.6-1.7-1.7-1.7S225.7,659.6,225.7,660.6z"/>
		<path id="XMLID_1379_" class="st4" d="M125.7,681.1L125.7,681.1c-0.5,0.8-1.4,1.1-2.3,1.1c-2.3,0-3.8-1.9-3.8-4.1
			c0-2.2,1.6-4,3.8-4c0.9,0,1.8,0.3,2.3,1v-5.4h2.7V682h-2.7V681.1L125.7,681.1z M122.3,678.2c0,0.9,0.6,1.7,1.7,1.7
			s1.7-0.7,1.7-1.7c0-0.9-0.6-1.7-1.7-1.7S122.3,677.3,122.3,678.2z"/>
		<path id="XMLID_1376_" class="st4" d="M138.6,678.2c0,2.6-2.1,4-4.5,4s-4.5-1.4-4.5-4s2.1-4.1,4.5-4.1S138.6,675.7,138.6,678.2z
			 M132.3,678.2c0,0.9,0.6,1.7,1.7,1.7c1.1,0,1.7-0.7,1.7-1.7c0-0.9-0.6-1.7-1.7-1.7C133,676.5,132.3,677.3,132.3,678.2z"/>
		<path id="XMLID_1374_" class="st4" d="M145.2,676.9c-0.4-0.3-0.9-0.5-1.4-0.5c-1,0-1.9,0.8-1.9,1.9c0,1.1,0.8,1.9,1.9,1.9
			c0.5,0,1-0.2,1.3-0.5v2.3c-0.6,0.3-1.3,0.4-1.9,0.4c-2.3,0-4.1-1.6-4.1-3.9c0-2.4,1.9-4.1,4.2-4.1c0.6,0,1.3,0.2,1.8,0.5
			L145.2,676.9L145.2,676.9z"/>
		<path id="XMLID_1372_" class="st4" d="M150.3,680.6c0,0.9-0.8,1.7-1.7,1.7s-1.7-0.8-1.7-1.7s0.8-1.7,1.7-1.7
			S150.3,679.7,150.3,680.6z"/>
		<path id="XMLID_1369_" class="st4" d="M159.9,680.1l-0.8,2H156l4.3-11.1h3.1l4.1,11.1h-3.1l-0.7-2H159.9z M161.9,674.3
			L161.9,674.3l-1.3,3.5h2.4L161.9,674.3z"/>
		<path id="XMLID_1367_" class="st4" d="M173.5,676.4c-0.4-0.2-1-0.4-1.4-0.4c-0.3,0-0.9,0.2-0.9,0.5c0,0.5,0.9,0.6,1.2,0.6
			c1.3,0.2,2.2,0.9,2.2,2.3c0,2-1.8,2.8-3.6,2.8c-1.1,0-2.1-0.3-3.1-0.9l0.9-1.9c0.5,0.4,1.5,0.8,2.1,0.8c0.3,0,0.9-0.2,0.9-0.5
			c0-0.6-0.9-0.6-1.6-0.9c-0.9-0.2-1.6-0.6-1.6-2c0-1.9,1.6-2.7,3.4-2.7c0.9,0,1.7,0.2,2.5,0.5L173.5,676.4z"/>
		<path id="XMLID_1364_" class="st4" d="M178.9,671.5c0,0.9-0.7,1.5-1.5,1.5c-0.9,0-1.5-0.7-1.5-1.5c0-0.9,0.7-1.5,1.5-1.5
			S178.9,670.7,178.9,671.5z M178.8,682h-2.7v-7.6h2.7V682z"/>
		<path id="XMLID_1361_" class="st4" d="M188.8,681.3c0,3.2-1.6,4.5-4.4,4.5c-1.7,0-4.1-0.9-4.3-2.9h3c0.1,0.2,0.2,0.5,0.5,0.5
			c0.2,0.2,0.5,0.2,0.8,0.2c1.4,0,1.7-0.9,1.7-2.2V681c-0.7,0.7-1.4,1-2.4,1c-2.2,0-3.8-1.6-3.8-3.8s1.6-4.1,3.9-4.1
			c0.9,0,1.7,0.3,2.2,1l0,0v-0.8h2.7v6.9L188.8,681.3L188.8,681.3z M182.8,678.2c0,0.9,0.6,1.7,1.7,1.7s1.7-0.7,1.7-1.7
			c0-0.9-0.6-1.7-1.7-1.7S182.8,677.2,182.8,678.2z"/>
		<path id="XMLID_1359_" class="st4" d="M193.2,675.4L193.2,675.4c0.6-0.9,1.4-1.3,2.4-1.3c2,0,2.8,1.3,2.8,3.1v4.7h-2.7v-3.7
			c0-0.7,0.2-2-1.2-2c-1.1,0-1.4,0.8-1.4,1.7v3.9h-2.7v-7.6h2.7L193.2,675.4L193.2,675.4z"/>
		<path id="XMLID_1356_" class="st4" d="M208.5,682h-2.7v-0.9l0,0c-0.5,0.8-1.4,1.1-2.3,1.1c-2.3,0-3.8-1.9-3.8-4.1
			c0-2.2,1.6-4,3.8-4c0.9,0,1.8,0.3,2.3,1v-0.7h2.7V682L208.5,682z M202.5,678.2c0,0.9,0.6,1.7,1.7,1.7s1.7-0.7,1.7-1.7
			c0-0.9-0.6-1.7-1.7-1.7S202.5,677.3,202.5,678.2z"/>
		<path id="XMLID_1354_" class="st4" d="M215.4,670.9h2.9l5.3,6.8l0,0v-6.8h2.9V682h-2.9l-5.3-6.8l0,0v6.8h-2.9V670.9z"/>
		<path id="XMLID_1351_" class="st4" d="M233.5,673c0,1.6-1.4,2.4-3,2.4s-3-0.9-3-2.4c0-1.6,1.4-2.4,3-2.4S233.5,671.5,233.5,673z
			 M229.4,673c0,0.5,0.5,1,1.1,1s1.1-0.5,1.1-1s-0.5-1-1.1-1S229.4,672.5,229.4,673z"/>
		<path id="XMLID_1349_" class="st4" d="M242.4,682h-2.7v-5.3h-0.9v-2.2h0.9v-2.3h2.7v2.3h1.5v2.2h-1.5V682z"/>
		<path id="XMLID_1347_" class="st4" d="M247.4,675.7L247.4,675.7c0.5-0.9,1.4-1.3,2.5-1.3h0.5v2.6c-0.4-0.2-0.7-0.2-1.2-0.2
			c-1.5,0-1.9,1-1.9,2.3v3.1h-2.7v-7.6h2.7L247.4,675.7L247.4,675.7z"/>
		<path id="XMLID_1343_" class="st4" d="M259.7,682H257v-0.9l0,0c-0.5,0.8-1.4,1.1-2.3,1.1c-2.3,0-3.8-1.9-3.8-4.1
			c0-2.2,1.6-4,3.8-4c0.9,0,1.8,0.3,2.3,1v-0.7h2.7V682L259.7,682z M253.6,678.2c0,0.9,0.6,1.7,1.7,1.7s1.7-0.7,1.7-1.7
			c0-0.9-0.6-1.7-1.7-1.7S253.6,677.3,253.6,678.2z M255.2,673.3l-1.2-0.9l2.1-2.5l1.6,1.2L255.2,673.3z"/>
		<path id="XMLID_1341_" class="st4" d="M264.1,675.4L264.1,675.4c0.6-0.9,1.4-1.2,2.4-1.2c1.1,0,2,0.5,2.6,1.4
			c0.5-0.9,1.6-1.4,2.6-1.4c1.9,0,2.6,1.3,2.6,3v4.8h-2.7v-3.6c0-0.8,0-2-1.1-2c-1.3,0-1.3,1.2-1.3,2v3.6h-2.7v-3.6
			c0-0.9,0-2.1-1.2-2.1s-1.2,1.3-1.2,2.1v3.6h-2.7v-7.6h2.7L264.1,675.4L264.1,675.4L264.1,675.4z"/>
		<path id="XMLID_1338_" class="st4" d="M278.8,671.5c0,0.9-0.7,1.5-1.5,1.5c-0.9,0-1.5-0.7-1.5-1.5c0-0.9,0.7-1.5,1.5-1.5
			C278.2,670,278.8,670.7,278.8,671.5z M278.7,682H276v-7.6h2.7V682z"/>
		<path id="XMLID_1336_" class="st4" d="M283.4,682h-2.7v-5.3h-0.9v-2.2h0.9v-2.3h2.7v2.3h1.5v2.2h-1.5V682z"/>
		<path id="XMLID_1333_" class="st4" d="M293.5,678.7h-5.6c0,1.1,0.5,1.6,1.6,1.6c0.5,0,1-0.2,1.3-0.7h2.6c-0.2,0.9-0.7,1.6-1.4,2
			s-1.6,0.6-2.4,0.6c-2.5,0-4.4-1.4-4.4-4c0-2.5,1.7-4.1,4.2-4.1c2.7,0,4.1,1.6,4.1,4.2L293.5,678.7L293.5,678.7z M291,677.1
			c-0.2-0.7-0.8-1.2-1.5-1.2c-0.8,0-1.4,0.4-1.6,1.2H291z"/>
	</g>
</g>
<g id="XMLID_25707_">
	<g>
		<path id="XMLID_632_" class="st4" d="M460.2,34.5l-0.8,2h-3.1l4.3-11.1h3.1l4.1,11.1h-3.1l-0.7-2H460.2z M462.3,28.7L462.3,28.7
			l-1.3,3.5h2.4L462.3,28.7z"/>
		<path id="XMLID_628_" class="st4" d="M468.9,36.4V25.3h4.1c2,0,3.3,0.8,3.3,2.9c0,1-0.3,1.8-1.3,2.3l0,0c1.6,0.2,2.3,1.3,2.3,2.8
			c0,2.3-2,3.1-4,3.1C473.3,36.4,468.9,36.4,468.9,36.4z M471.8,29.6h0.3c0.8,0,1.6-0.2,1.6-1.1c0-1-0.9-1.1-1.6-1.1h-0.2
			L471.8,29.6L471.8,29.6z M471.8,34.2h0.4c0.9,0,2.3,0.1,2.3-1.2s-1.4-1.2-2.3-1.2h-0.3v2.4H471.8z"/>
		<path id="XMLID_625_" class="st4" d="M490.6,30.6c0,3.6-2.6,6.1-6.2,6.1s-6.2-2.5-6.2-6.1c0-3.4,3-5.7,6.2-5.7
			S490.6,27.3,490.6,30.6z M481.4,30.6c0,1.9,1.4,3.3,3.1,3.3s3.1-1.4,3.1-3.3c0-1.6-1.4-2.9-3.1-2.9
			C482.8,27.7,481.4,29.1,481.4,30.6z"/>
		<path id="XMLID_623_" class="st4" d="M503,30.2c0,1.6-0.2,3-1.2,4.4c-1.1,1.5-2.7,2.2-4.6,2.2c-3.5,0-5.9-2.3-5.9-5.9
			s2.4-5.9,6-5.9c2.3,0,4.1,1,5,3.1l-2.7,1.2c-0.4-1.1-1.3-1.8-2.4-1.8c-1.9,0-2.9,1.8-2.9,3.5c0,1.7,1,3.4,2.9,3.4
			c1.3,0,2.2-0.6,2.3-2h-2.3v-2.3L503,30.2L503,30.2z"/>
		<path id="XMLID_620_" class="st4" d="M507.2,34.5l-0.8,2h-3.1l4.3-11.1h3.1l4.1,11.1h-3.1l-0.7-2H507.2z M509.2,28.7L509.2,28.7
			l-1.3,3.5h2.4L509.2,28.7z"/>
		<path id="XMLID_617_" class="st4" d="M515.8,25.3h4.1c3.1,0,5.6,2.4,5.6,5.6s-2.6,5.6-5.6,5.6h-4.1V25.3z M518.7,33.9h0.6
			c1.7,0,3.2-0.9,3.2-3.1c0-2-1.3-3.1-3.2-3.1h-0.7L518.7,33.9L518.7,33.9z"/>
		<path id="XMLID_614_" class="st4" d="M538.7,30.6c0,3.6-2.6,6.1-6.2,6.1c-3.6,0-6.2-2.5-6.2-6.1c0-3.4,3-5.7,6.2-5.7
			S538.7,27.3,538.7,30.6z M529.4,30.6c0,1.9,1.4,3.3,3.1,3.3c1.7,0,3.1-1.4,3.1-3.3c0-1.6-1.4-2.9-3.1-2.9
			C530.8,27.7,529.4,29.1,529.4,30.6z"/>
		<path id="XMLID_612_" class="st4" d="M462.2,43v6.3c0,1.4-0.1,2.8-1.2,3.9c-0.9,0.9-2.4,1.3-3.7,1.3c-1.3,0-2.7-0.3-3.7-1.3
			c-1.1-1.1-1.2-2.5-1.2-3.9V43h2.9v5.9c0,1.4,0.1,3.1,2,3.1s2-1.6,2-3.1V43H462.2z"/>
		<path id="XMLID_609_" class="st4" d="M473.2,54.1h-3.6l-2.7-4.3l0,0v4.3H464V43h4.3c2.2,0,3.8,1,3.8,3.4c0,1.6-0.9,2.9-2.4,3.1
			L473.2,54.1z M466.9,47.9h0.3c0.9,0,2-0.2,2-1.4s-1.1-1.4-2-1.4h-0.3V47.9z"/>
		<path id="XMLID_605_" class="st4" d="M474,54.1V43h4.1c2,0,3.3,0.8,3.3,2.9c0,1-0.3,1.8-1.3,2.3l0,0c1.6,0.2,2.3,1.3,2.3,2.8
			c0,2.3-2,3.1-4,3.1C478.5,54.1,474,54.1,474,54.1z M476.9,47.3h0.3c0.8,0,1.6-0.2,1.6-1.1c0-1-0.9-1.1-1.6-1.1H477L476.9,47.3
			L476.9,47.3z M476.9,51.8h0.4c0.9,0,2.3,0.1,2.3-1.2s-1.4-1.2-2.3-1.2H477v2.4H476.9z"/>
		<path id="XMLID_602_" class="st4" d="M486.8,52.2l-0.8,2h-3l4.3-11.1h3.1l4.1,11.1h-3.1l-0.7-2C490.7,52.2,486.8,52.2,486.8,52.2z
			 M488.9,46.4L488.9,46.4l-1.3,3.5h2.4L488.9,46.4z"/>
		<path id="XMLID_600_" class="st4" d="M495.5,43h2.9l5.3,6.8l0,0V43h2.9v11.1h-2.9l-5.3-6.8l0,0v6.8h-2.9V43L495.5,43z"/>
		<path id="XMLID_598_" class="st4" d="M511.4,54.1h-2.9V43h2.9V54.1z"/>
		<path id="XMLID_596_" class="st4" d="M519.4,45.8c-0.5-0.5-1.2-0.7-1.9-0.7c-0.5,0-1.3,0.3-1.3,0.9c0,0.6,0.8,0.9,1.3,1.1l0.7,0.2
			c1.6,0.5,2.7,1.3,2.7,3.1c0,1.1-0.2,2.3-1.2,3c-0.9,0.7-2,1-3.1,1c-1.4,0-2.7-0.5-3.9-1.3l1.3-2.3c0.7,0.6,1.6,1.2,2.6,1.2
			c0.7,0,1.4-0.3,1.4-1.1s-1.2-1.1-1.7-1.3c-1.8-0.5-3-1-3-3.1c0-2.3,1.6-3.8,3.8-3.8c1.1,0,2.5,0.4,3.4,0.9L519.4,45.8z"/>
		<path id="XMLID_594_" class="st4" d="M523.6,43h2.8l2.3,5.9l2.4-5.9h2.9l1.6,11.1h-2.9l-0.8-6.4l0,0l-2.7,6.4H528l-2.6-6.4l0,0
			l-0.9,6.4h-2.9L523.6,43z"/>
		<path id="XMLID_591_" class="st4" d="M548.5,48.3c0,3.6-2.6,6.1-6.2,6.1c-3.6,0-6.2-2.5-6.2-6.1c0-3.4,3-5.7,6.2-5.7
			C545.7,42.6,548.5,45,548.5,48.3z M539.3,48.3c0,1.9,1.4,3.3,3.1,3.3c1.7,0,3.1-1.4,3.1-3.3c0-1.6-1.4-2.9-3.1-2.9
			C540.7,45.4,539.3,46.8,539.3,48.3z"/>
		<path id="XMLID_589_" class="st4" d="M474,71.8h-2.9V60.7h2.9V71.8z"/>
		<path id="XMLID_587_" class="st4" d="M478.5,65.1L478.5,65.1c0.6-0.9,1.4-1.3,2.4-1.3c2,0,2.8,1.3,2.8,3.1v4.7H481V68
			c0-0.7,0.2-2-1.2-2c-1.1,0-1.4,0.8-1.4,1.7v3.9h-2.7V64h2.7v1.1H478.5z"/>
		<path id="XMLID_585_" class="st4" d="M488.5,71.8h-2.7v-5.3H485v-2.3h0.9v-0.9c0-1,0-1.8,0.8-2.7c0.6-0.8,1.6-1.2,2.7-1.2
			c0.4,0,0.8,0.1,1.2,0.2V62c-0.3-0.2-0.6-0.2-0.9-0.2c-0.7,0-0.9,0.4-0.9,1.3v1.2h1.9v2.2h-2v5.3H488.5z"/>
		<path id="XMLID_582_" class="st4" d="M499.8,68c0,2.6-2.1,4-4.5,4s-4.5-1.4-4.5-4s2.1-4.1,4.5-4.1C497.7,64,499.8,65.4,499.8,68z
			 M493.6,68c0,0.9,0.6,1.7,1.7,1.7S497,69,497,68c0-0.9-0.6-1.7-1.7-1.7C494.2,66.3,493.6,67.1,493.6,68z"/>
		<path id="XMLID_580_" class="st4" d="M503.7,65.4L503.7,65.4c0.5-0.9,1.4-1.3,2.5-1.3h0.5v2.6c-0.4-0.2-0.7-0.2-1.2-0.2
			c-1.5,0-1.9,1-1.9,2.3v3.1h-2.7v-7.6h2.7v1.1H503.7z"/>
		<path id="XMLID_578_" class="st4" d="M510.4,65.1L510.4,65.1c0.6-0.9,1.4-1.2,2.4-1.2c1.1,0,2,0.5,2.6,1.4
			c0.5-0.9,1.6-1.4,2.6-1.4c1.9,0,2.6,1.3,2.6,3v4.8h-2.7V68c0-0.8,0-2-1.1-2c-1.3,0-1.3,1.2-1.3,2v3.6h-2.7V68c0-0.9,0-2.1-1.2-2.1
			s-1.2,1.3-1.2,2.1v3.6h-2.7v-7.5h2.7L510.4,65.1L510.4,65.1z"/>
		<path id="XMLID_575_" class="st4" d="M530.1,68.4h-5.6c0,1.1,0.5,1.6,1.6,1.6c0.5,0,1-0.2,1.3-0.7h2.6c-0.2,0.9-0.7,1.6-1.4,2
			s-1.6,0.6-2.4,0.6c-2.5,0-4.4-1.4-4.4-4c0-2.5,1.7-4.1,4.2-4.1c2.7,0,4.1,1.6,4.1,4.2L530.1,68.4L530.1,68.4z M527.6,66.9
			c-0.2-0.7-0.8-1.2-1.5-1.2c-0.8,0-1.4,0.4-1.6,1.2H527.6z"/>
	</g>
</g>
<g id="XMLID_25647_">
	<g>
		<path id="XMLID_566_" class="st4" d="M720.8,169.6c-0.6-0.8-1.6-1.3-2.5-1.3c-1.8,0-3,1.3-3,3.1c0,1.7,1.2,3.1,3,3.1
			c0.9,0,1.9-0.5,2.5-1.2v3.4c-0.9,0.3-1.6,0.5-2.6,0.5c-1.6,0-3.1-0.6-4.1-1.6c-1.3-1.1-1.8-2.6-1.8-4.2c0-1.5,0.5-3,1.6-4.1
			s2.7-1.8,4.2-1.8c0.9,0,1.8,0.2,2.7,0.5L720.8,169.6L720.8,169.6z"/>
		<path id="XMLID_563_" class="st4" d="M734.3,171.3c0,3.6-2.6,6.1-6.2,6.1c-3.6,0-6.2-2.5-6.2-6.1c0-3.4,3-5.7,6.2-5.7
			S734.3,167.9,734.3,171.3z M725,171.3c0,1.9,1.4,3.3,3.1,3.3c1.7,0,3.1-1.4,3.1-3.3c0-1.6-1.4-2.9-3.1-2.9
			C726.5,168.4,725,169.8,725,171.3z"/>
		<path id="XMLID_561_" class="st4" d="M735.7,166h2.9l5.3,6.8l0,0V166h2.9v11.1h-2.9l-5.3-6.8l0,0v6.8h-2.9V166z"/>
		<path id="XMLID_559_" class="st4" d="M753.1,177.1h-2.9v-8.7h-2.4V166h7.7v2.4H753L753.1,177.1L753.1,177.1z"/>
		<path id="XMLID_556_" class="st4" d="M765.8,177.1h-3.6l-2.7-4.3l0,0v4.3h-2.9V166h4.3c2.2,0,3.8,1,3.8,3.4c0,1.6-0.9,2.9-2.4,3.1
			L765.8,177.1z M759.4,170.9h0.3c0.9,0,2-0.2,2-1.4s-1.1-1.4-2-1.4h-0.3V170.9z"/>
		<path id="XMLID_554_" class="st4" d="M769.4,177.1h-2.9V166h2.9V177.1z"/>
		<path id="XMLID_550_" class="st4" d="M771.3,177.1V166h4.1c2,0,3.3,0.8,3.3,2.9c0,1-0.3,1.8-1.3,2.3l0,0c1.6,0.2,2.3,1.3,2.3,2.8
			c0,2.3-2,3.1-4,3.1H771.3z M774.2,170.3h0.3c0.8,0,1.6-0.2,1.6-1.1c0-1-0.9-1.1-1.6-1.1h-0.2L774.2,170.3L774.2,170.3z
			 M774.2,174.8h0.4c0.9,0,2.3,0.1,2.3-1.2s-1.4-1.2-2.3-1.2h-0.3v2.4H774.2z"/>
		<path id="XMLID_548_" class="st4" d="M790.9,166v6.3c0,1.4-0.1,2.8-1.2,3.9c-0.9,0.9-2.4,1.3-3.7,1.3s-2.7-0.3-3.7-1.3
			c-1.1-1.1-1.2-2.5-1.2-3.9V166h2.9v5.9c0,1.4,0.1,3.1,2,3.1s2-1.6,2-3.1V166H790.9z"/>
		<path id="XMLID_546_" class="st4" d="M791.5,166h3.4l2.1,3.1l2.1-3.1h3.4l-4.1,5.8v5.3h-2.9v-5.3L791.5,166z"/>
		<path id="XMLID_544_" class="st4" d="M806.1,168.4v1.9h3.3v2.4h-3.3v1.9h3.4v2.4h-6.3v-11.1h6.3v2.4L806.1,168.4L806.1,168.4z"/>
		<path id="XMLID_542_" class="st4" d="M811.4,166h2.9l5.3,6.8l0,0V166h2.9v11.1h-2.9l-5.3-6.8l0,0v6.8h-2.9V166z"/>
		<path id="XMLID_540_" class="st4" d="M828.7,177.1h-2.9v-8.7h-2.4V166h7.7v2.4h-2.4L828.7,177.1L828.7,177.1z"/>
		<path id="XMLID_538_" class="st4" d="M835.1,168.4v1.9h3.3v2.4h-3.3v1.9h3.4v2.4h-6.3v-11.1h6.3v2.4L835.1,168.4L835.1,168.4z"/>
		<path id="XMLID_536_" class="st4" d="M736.3,187.3c-0.6-0.8-1.6-1.3-2.5-1.3c-1.8,0-3,1.3-3,3.1c0,1.7,1.2,3.1,3,3.1
			c0.9,0,1.9-0.5,2.5-1.2v3.4c-0.9,0.3-1.6,0.5-2.6,0.5c-1.6,0-3.1-0.6-4.1-1.6c-1.3-1.1-1.8-2.6-1.8-4.2c0-1.5,0.5-3,1.6-4.1
			s2.7-1.8,4.2-1.8c0.9,0,1.8,0.2,2.7,0.5L736.3,187.3L736.3,187.3z"/>
		<path id="XMLID_533_" class="st4" d="M746.5,191c0,2.6-2.1,4-4.5,4s-4.5-1.4-4.5-4s2.1-4.1,4.5-4.1S746.5,188.4,746.5,191z
			 M740.3,191c0,0.9,0.6,1.7,1.7,1.7c1.1,0,1.7-0.7,1.7-1.7c0-0.9-0.6-1.7-1.7-1.7C740.9,189.3,740.3,190.1,740.3,191z"/>
		<path id="XMLID_531_" class="st4" d="M750.4,188.4L750.4,188.4c0.5-0.9,1.4-1.3,2.5-1.3h0.5v2.6c-0.4-0.2-0.7-0.2-1.2-0.2
			c-1.5,0-1.9,1-1.9,2.3v3.1h-2.7v-7.6h2.7v1.1H750.4z"/>
		<path id="XMLID_529_" class="st4" d="M757.1,188.4L757.1,188.4c0.5-0.9,1.4-1.3,2.5-1.3h0.5v2.6c-0.4-0.2-0.7-0.2-1.2-0.2
			c-1.5,0-1.9,1-1.9,2.3v3.1h-2.7v-7.6h2.7v1.1H757.1z"/>
		<path id="XMLID_526_" class="st4" d="M768.8,191.4h-5.6c0,1.1,0.5,1.6,1.6,1.6c0.5,0,1-0.2,1.3-0.7h2.6c-0.2,0.9-0.7,1.6-1.4,2
			s-1.6,0.6-2.4,0.6c-2.5,0-4.4-1.4-4.4-4c0-2.5,1.7-4.1,4.2-4.1c2.7,0,4.1,1.6,4.1,4.2L768.8,191.4L768.8,191.4z M766.4,189.8
			c-0.2-0.7-0.8-1.2-1.5-1.2c-0.8,0-1.4,0.4-1.6,1.2H766.4z"/>
		<path id="XMLID_524_" class="st4" d="M775.5,189.7c-0.4-0.3-0.9-0.5-1.4-0.5c-1,0-1.9,0.8-1.9,1.9s0.8,1.9,1.9,1.9
			c0.5,0,1-0.2,1.3-0.5v2.3c-0.6,0.3-1.3,0.4-1.9,0.4c-2.3,0-4.1-1.6-4.1-3.9c0-2.4,1.9-4.1,4.2-4.1c0.6,0,1.3,0.2,1.8,0.5
			L775.5,189.7L775.5,189.7z"/>
		<path id="XMLID_522_" class="st4" d="M782.7,189.7c-0.4-0.3-0.9-0.5-1.4-0.5c-1,0-1.9,0.8-1.9,1.9s0.8,1.9,1.9,1.9
			c0.5,0,1-0.2,1.3-0.5v2.3c-0.6,0.3-1.3,0.4-1.9,0.4c-2.3,0-4.1-1.6-4.1-3.9c0-2.4,1.9-4.1,4.2-4.1c0.6,0,1.3,0.2,1.8,0.5
			L782.7,189.7L782.7,189.7z"/>
		<path id="XMLID_519_" class="st4" d="M787.1,184.3c0,0.9-0.7,1.5-1.5,1.5c-0.9,0-1.5-0.7-1.5-1.5c0-0.9,0.7-1.5,1.5-1.5
			C786.5,182.8,787.1,183.4,787.1,184.3z M787,194.8h-2.7v-7.6h2.7V194.8z"/>
		<path id="XMLID_516_" class="st4" d="M797.3,191c0,2.6-2.1,4-4.5,4s-4.5-1.4-4.5-4s2.1-4.1,4.5-4.1S797.3,188.4,797.3,191z
			 M791,191c0,0.9,0.6,1.7,1.7,1.7c1.1,0,1.7-0.7,1.7-1.7c0-0.9-0.6-1.7-1.7-1.7C791.7,189.3,791,190.1,791,191z"/>
		<path id="XMLID_514_" class="st4" d="M801.2,188.2L801.2,188.2c0.6-0.9,1.4-1.3,2.4-1.3c2,0,2.8,1.3,2.8,3.1v4.7h-2.7V191
			c0-0.7,0.2-2-1.2-2c-1.1,0-1.4,0.8-1.4,1.7v3.9h-2.7V187h2.7v1.2H801.2z"/>
		<path id="XMLID_511_" class="st4" d="M816,191.4h-5.6c0,1.1,0.5,1.6,1.6,1.6c0.5,0,1-0.2,1.3-0.7h2.6c-0.2,0.9-0.7,1.6-1.4,2
			s-1.6,0.6-2.4,0.6c-2.5,0-4.4-1.4-4.4-4c0-2.5,1.7-4.1,4.2-4.1c2.7,0,4.1,1.6,4.1,4.2L816,191.4L816,191.4z M813.6,189.8
			c-0.2-0.7-0.8-1.2-1.5-1.2c-0.8,0-1.4,0.4-1.6,1.2H813.6z"/>
		<path id="XMLID_509_" class="st4" d="M822.2,189.1c-0.4-0.2-1-0.4-1.4-0.4c-0.3,0-0.9,0.2-0.9,0.5c0,0.5,0.9,0.6,1.2,0.6
			c1.3,0.2,2.2,0.9,2.2,2.3c0,2-1.8,2.8-3.6,2.8c-1.1,0-2.1-0.3-3.1-0.9l0.9-1.9c0.5,0.4,1.5,0.8,2.1,0.8c0.3,0,0.9-0.2,0.9-0.5
			c0-0.6-0.9-0.6-1.6-0.9c-0.9-0.2-1.6-0.6-1.6-2c0-1.9,1.6-2.7,3.4-2.7c0.9,0,1.7,0.2,2.5,0.5L822.2,189.1z"/>
	</g>
</g>
<rect id="XMLID_142_" x="388.4" y="131.6" class="st3" width="222.9" height="100.9"/>
<g id="XMLID_25571_">
	<g>
		<path id="XMLID_863_" class="st4" d="M454.7,178.8h-2.9v-8.7h-2.3v-2.4h7.7v2.4h-2.4L454.7,178.8L454.7,178.8z"/>
		<path id="XMLID_860_" class="st4" d="M469.9,173.1c0,3.6-2.6,6.1-6.2,6.1s-6.2-2.5-6.2-6.1c0-3.4,3-5.7,6.2-5.7
			S469.9,169.7,469.9,173.1z M460.5,173.1c0,1.9,1.4,3.3,3.1,3.3s3.1-1.4,3.1-3.3c0-1.6-1.4-2.9-3.1-2.9
			C462,170.1,460.5,171.5,460.5,173.1z"/>
		<path id="XMLID_857_" class="st4" d="M471.2,167.7h4.5c2.4,0,4.1,1.1,4.1,3.7c0,2.7-1.4,3.8-3.9,3.8h-1.6v3.7h-2.9L471.2,167.7
			L471.2,167.7z M474.1,172.8h0.5c1,0,2.1,0,2.1-1.3c0-1.4-0.9-1.4-2.1-1.4h-0.5V172.8z"/>
		<path id="XMLID_854_" class="st4" d="M492.6,173.1c0,3.6-2.6,6.1-6.2,6.1s-6.2-2.5-6.2-6.1c0-3.4,3-5.7,6.2-5.7
			C489.6,167.4,492.6,169.7,492.6,173.1z M483.4,173.1c0,1.9,1.4,3.3,3.1,3.3s3.1-1.4,3.1-3.3c0-1.6-1.4-2.9-3.1-2.9
			S483.4,171.5,483.4,173.1z"/>
		<path id="XMLID_852_" class="st4" d="M505.1,172.6c0,1.6-0.2,3-1.2,4.4c-1.1,1.5-2.7,2.2-4.6,2.2c-3.5,0-5.9-2.3-5.9-5.9
			c0-3.6,2.4-5.9,6-5.9c2.3,0,4.1,1,5,3.1l-2.7,1.2c-0.4-1.1-1.3-1.8-2.4-1.8c-1.9,0-2.9,1.8-2.9,3.5s1,3.4,2.9,3.4
			c1.3,0,2.2-0.6,2.3-2h-2.3v-2.3h5.8V172.6z"/>
		<path id="XMLID_849_" class="st4" d="M515.6,178.8H512l-2.7-4.3l0,0v4.3h-2.9v-11.1h4.3c2.2,0,3.8,1,3.8,3.4
			c0,1.6-0.9,2.9-2.4,3.1L515.6,178.8z M509.3,172.7h0.3c0.9,0,2-0.2,2-1.4s-1.1-1.4-2-1.4h-0.3V172.7z"/>
		<path id="XMLID_846_" class="st4" d="M519.2,176.9l-0.8,2h-3.1l4.3-11.1h3.1l4.2,11.1H524l-0.7-2H519.2z M521.2,171.1L521.2,171.1
			l-1.3,3.5h2.4L521.2,171.1z"/>
		<path id="XMLID_844_" class="st4" d="M530.8,170.2v1.9h3.1v2.4h-3.1v4.4h-2.9v-11.1h6.4v2.4L530.8,170.2L530.8,170.2z"/>
		<path id="XMLID_842_" class="st4" d="M538.8,178.8h-2.9v-11.1h2.9V178.8z"/>
		<path id="XMLID_839_" class="st4" d="M543.5,176.9l-0.8,2h-3.1l4.3-11.1h3.1l4.2,11.1h-3.1l-0.7-2H543.5z M545.5,171.1
			L545.5,171.1l-1.3,3.5h2.4L545.5,171.1z"/>
		<path id="XMLID_837_" class="st4" d="M427,196.5h-2.9v-11.1h2.9V196.5z"/>
		<path id="XMLID_835_" class="st4" d="M431.5,189.9L431.5,189.9c0.6-0.9,1.4-1.3,2.4-1.3c2,0,2.8,1.3,2.8,3.1v4.7H434v-3.7
			c0-0.7,0.2-2-1.2-2c-1.1,0-1.4,0.8-1.4,1.7v3.9h-2.7v-7.6h2.7L431.5,189.9L431.5,189.9z"/>
		<path id="XMLID_833_" class="st4" d="M443.6,190.9c-0.4-0.2-1-0.4-1.4-0.4c-0.3,0-0.9,0.2-0.9,0.5c0,0.5,0.9,0.6,1.2,0.6
			c1.3,0.2,2.2,0.9,2.2,2.3c0,2-1.8,2.8-3.6,2.8c-1.1,0-2.1-0.3-3.1-0.9l0.9-1.9c0.5,0.4,1.5,0.8,2.1,0.8c0.3,0,0.9-0.2,0.9-0.5
			c0-0.6-0.9-0.6-1.6-0.9c-0.9-0.2-1.6-0.6-1.6-2c0-1.9,1.6-2.7,3.4-2.7c0.9,0,1.7,0.2,2.5,0.5L443.6,190.9z"/>
		<path id="XMLID_795_" class="st4" d="M448.7,189.8L448.7,189.8c0.5-0.8,1.4-1.1,2.3-1.1c2.3,0,3.8,1.9,3.8,4.1s-1.6,4-3.8,4
			c-0.9,0-1.8-0.3-2.3-0.9v4.5H446V189h2.7V189.8L448.7,189.8z M448.7,192.7c0,0.9,0.6,1.7,1.7,1.7s1.7-0.7,1.7-1.7
			c0-0.9-0.6-1.7-1.7-1.7C449.3,191,448.7,191.8,448.7,192.7z"/>
		<path id="XMLID_792_" class="st4" d="M464,193.2h-5.6c0,1.1,0.5,1.6,1.6,1.6c0.5,0,1-0.2,1.3-0.7h2.6c-0.2,0.9-0.7,1.6-1.4,2
			c-0.7,0.4-1.6,0.6-2.4,0.6c-2.5,0-4.4-1.4-4.4-4c0-2.5,1.7-4.1,4.2-4.1c2.7,0,4.1,1.6,4.1,4.2L464,193.2L464,193.2z M461.5,191.6
			c-0.2-0.7-0.8-1.2-1.5-1.2c-0.8,0-1.4,0.4-1.6,1.2H461.5z"/>
		<path id="XMLID_790_" class="st4" d="M470.6,191.4c-0.4-0.3-0.9-0.5-1.4-0.5c-1,0-1.9,0.8-1.9,1.9c0,1.1,0.8,1.9,1.9,1.9
			c0.5,0,1-0.2,1.3-0.5v2.3c-0.6,0.3-1.3,0.4-1.9,0.4c-2.3,0-4.1-1.6-4.1-3.9c0-2.4,1.9-4.1,4.2-4.1c0.6,0,1.3,0.2,1.8,0.5
			L470.6,191.4L470.6,191.4z"/>
		<path id="XMLID_788_" class="st4" d="M477.8,191.4c-0.4-0.3-0.9-0.5-1.4-0.5c-1,0-1.9,0.8-1.9,1.9c0,1.1,0.8,1.9,1.9,1.9
			c0.5,0,1-0.2,1.3-0.5v2.3c-0.6,0.3-1.3,0.4-1.9,0.4c-2.3,0-4.1-1.6-4.1-3.9c0-2.4,1.9-4.1,4.2-4.1c0.6,0,1.3,0.2,1.8,0.5
			L477.8,191.4L477.8,191.4z"/>
		<path id="XMLID_785_" class="st4" d="M482.3,186.1c0,0.9-0.7,1.5-1.5,1.5c-0.9,0-1.5-0.7-1.5-1.5c0-0.9,0.7-1.5,1.5-1.5
			C481.6,184.6,482.3,185.2,482.3,186.1z M482.1,196.5h-2.7v-7.6h2.7V196.5z"/>
		<path id="XMLID_781_" class="st4" d="M492.4,192.7c0,2.6-2.1,4-4.5,4s-4.5-1.4-4.5-4s2.1-4.1,4.5-4.1
			C490.3,188.7,492.4,190.1,492.4,192.7z M486.1,192.7c0,0.9,0.6,1.7,1.7,1.7s1.7-0.7,1.7-1.7c0-0.9-0.6-1.7-1.7-1.7
			S486.1,191.8,486.1,192.7z M487.5,187.9l-1.2-0.9l2.1-2.5l1.6,1.2L487.5,187.9z"/>
		<path id="XMLID_779_" class="st4" d="M496.3,189.9L496.3,189.9c0.6-0.9,1.4-1.3,2.4-1.3c2,0,2.8,1.3,2.8,3.1v4.7h-2.7v-3.7
			c0-0.7,0.2-2-1.2-2c-1.1,0-1.4,0.8-1.4,1.7v3.9h-2.7v-7.6h2.7v1.2H496.3z"/>
		<path id="XMLID_777_" class="st4" d="M507.5,190.7v2.2h-4.2v-2.2H507.5z"/>
		<path id="XMLID_775_" class="st4" d="M511.8,189.9L511.8,189.9c0.6-0.9,1.4-1.2,2.4-1.2c1.1,0,2,0.5,2.6,1.4
			c0.5-0.9,1.6-1.4,2.6-1.4c1.9,0,2.6,1.3,2.6,3v4.8h-2.7V193c0-0.8,0-2-1.1-2c-1.3,0-1.3,1.2-1.3,2v3.6h-2.7V193
			c0-0.9,0-2.1-1.2-2.1s-1.2,1.3-1.2,2.1v3.6h-2.7V189h2.7L511.8,189.9L511.8,189.9z"/>
		<path id="XMLID_772_" class="st4" d="M531.5,193.2h-5.6c0,1.1,0.5,1.6,1.6,1.6c0.5,0,1-0.2,1.3-0.7h2.6c-0.2,0.9-0.7,1.6-1.4,2
			s-1.6,0.6-2.4,0.6c-2.5,0-4.4-1.4-4.4-4c0-2.5,1.7-4.1,4.2-4.1c2.7,0,4.1,1.6,4.1,4.2L531.5,193.2L531.5,193.2z M529,191.6
			c-0.2-0.7-0.8-1.2-1.5-1.2c-0.8,0-1.4,0.4-1.6,1.2H529z"/>
		<path id="XMLID_769_" class="st4" d="M538.4,195.7L538.4,195.7c-0.5,0.8-1.4,1.1-2.3,1.1c-2.3,0-3.8-1.9-3.8-4.1s1.6-4,3.8-4
			c0.9,0,1.8,0.3,2.3,1v-5.4h2.7v12.2h-2.7V195.7L538.4,195.7z M535,192.7c0,0.9,0.6,1.7,1.7,1.7s1.7-0.7,1.7-1.7
			c0-0.9-0.6-1.7-1.7-1.7S535,191.8,535,192.7z"/>
		<path id="XMLID_766_" class="st4" d="M545.6,186.1c0,0.9-0.7,1.5-1.5,1.5c-0.9,0-1.5-0.7-1.5-1.5c0-0.9,0.7-1.5,1.5-1.5
			C544.9,184.6,545.6,185.2,545.6,186.1z M545.4,196.5h-2.7v-7.6h2.7V196.5z"/>
		<path id="XMLID_764_" class="st4" d="M552.6,191.4c-0.4-0.3-0.9-0.5-1.4-0.5c-1,0-1.9,0.8-1.9,1.9c0,1.1,0.8,1.9,1.9,1.9
			c0.5,0,1-0.2,1.3-0.5v2.3c-0.6,0.3-1.3,0.4-1.9,0.4c-2.3,0-4.1-1.6-4.1-3.9c0-2.4,1.9-4.1,4.2-4.1c0.6,0,1.3,0.2,1.8,0.5
			L552.6,191.4L552.6,191.4z"/>
		<path id="XMLID_761_" class="st4" d="M557.2,186.1c0,0.9-0.7,1.5-1.5,1.5c-0.9,0-1.5-0.7-1.5-1.5c0-0.9,0.7-1.5,1.5-1.5
			C556.4,184.6,557.2,185.2,557.2,186.1z M557,196.5h-2.7v-7.6h2.7V196.5z"/>
		<path id="XMLID_757_" class="st4" d="M567.3,192.7c0,2.6-2.1,4-4.5,4s-4.5-1.4-4.5-4s2.1-4.1,4.5-4.1
			C565.2,188.7,567.3,190.1,567.3,192.7z M561.1,192.7c0,0.9,0.6,1.7,1.7,1.7s1.7-0.7,1.7-1.7c0-0.9-0.6-1.7-1.7-1.7
			S561.1,191.8,561.1,192.7z M562.5,187.9l-1.2-0.9l2.1-2.5l1.6,1.2L562.5,187.9z"/>
		<path id="XMLID_755_" class="st4" d="M571.2,189.9L571.2,189.9c0.6-0.9,1.4-1.3,2.4-1.3c2,0,2.8,1.3,2.8,3.1v4.7h-2.7v-3.7
			c0-0.7,0.2-2-1.2-2c-1.1,0-1.4,0.8-1.4,1.7v3.9h-2.7v-7.6h2.7v1.2H571.2z"/>
	</g>
</g>
<rect id="XMLID_144_" x="388.4" y="262.5" class="st3" width="222.9" height="100.9"/>
<g id="XMLID_25423_">
	<g>
		<path id="XMLID_2146_" class="st4" d="M422.1,284.9l-0.8,2h-3.1l4.3-11.1h3.1l4.1,11.1h-3.1l-0.7-2H422.1z M424.2,279.2
			L424.2,279.2l-1.3,3.5h2.4L424.2,279.2z"/>
		<path id="XMLID_2143_" class="st4" d="M440.1,286.9h-3.6l-2.7-4.3l0,0v4.3h-2.9v-11.1h4.3c2.2,0,3.8,1,3.8,3.4
			c0,1.6-0.9,2.9-2.4,3.1L440.1,286.9z M433.7,280.7h0.3c0.9,0,2-0.2,2-1.4c0-1.2-1.1-1.4-2-1.4h-0.3V280.7z"/>
		<path id="XMLID_2141_" class="st4" d="M443.7,278.2v1.9h3.3v2.4h-3.3v1.9h3.4v2.4h-6.3v-11.1h6.3v2.4L443.7,278.2L443.7,278.2z"/>
		<path id="XMLID_2138_" class="st4" d="M451.8,284.9l-0.8,2h-3l4.3-11.1h3.1l4.2,11.1h-3.1l-0.7-2H451.8z M453.7,279.2L453.7,279.2
			l-1.3,3.5h2.4L453.7,279.2z"/>
		<path id="XMLID_2136_" class="st4" d="M469.9,286.9H467v-8.7h-2.4v-2.4h7.7v2.4h-2.4L469.9,286.9L469.9,286.9z"/>
		<path id="XMLID_2134_" class="st4" d="M476.2,278.2v1.9h3.3v2.4h-3.3v1.9h3.4v2.4h-6.3v-11.1h6.3v2.4L476.2,278.2L476.2,278.2z"/>
		<path id="XMLID_2132_" class="st4" d="M489.4,279.5c-0.6-0.8-1.6-1.3-2.5-1.3c-1.8,0-3,1.3-3,3.1s1.2,3.1,3,3.1
			c0.9,0,1.9-0.5,2.5-1.2v3.4c-0.9,0.3-1.6,0.5-2.6,0.5c-1.6,0-3.1-0.6-4.1-1.6c-1.3-1.1-1.8-2.6-1.8-4.2c0-1.5,0.5-3,1.6-4.1
			s2.7-1.8,4.2-1.8c0.9,0,1.8,0.2,2.7,0.5L489.4,279.5L489.4,279.5z"/>
		<path id="XMLID_2130_" class="st4" d="M491.1,275.8h2.9l5.3,6.8l0,0v-6.8h2.9v11.1h-2.9l-5.3-6.8l0,0v6.8h-2.9V275.8z"/>
		<path id="XMLID_2128_" class="st4" d="M507,286.9h-2.9v-11.1h2.9V286.9z"/>
		<path id="XMLID_2126_" class="st4" d="M516.9,279.5c-0.6-0.8-1.6-1.3-2.5-1.3c-1.8,0-3,1.3-3,3.1s1.2,3.1,3,3.1
			c0.9,0,1.9-0.5,2.5-1.2v3.4c-0.9,0.3-1.6,0.5-2.6,0.5c-1.6,0-3.1-0.6-4.1-1.6c-1.3-1.1-1.8-2.6-1.8-4.2c0-1.5,0.5-3,1.6-4.1
			s2.7-1.8,4.2-1.8c0.9,0,1.8,0.2,2.7,0.5L516.9,279.5L516.9,279.5z"/>
		<path id="XMLID_2123_" class="st4" d="M530.4,281.1c0,3.6-2.6,6.1-6.2,6.1c-3.6,0-6.2-2.5-6.2-6.1c0-3.4,3-5.7,6.2-5.7
			S530.4,277.7,530.4,281.1z M521.1,281.1c0,1.9,1.4,3.3,3.1,3.3c1.7,0,3.1-1.4,3.1-3.3c0-1.6-1.4-2.9-3.1-2.9
			S521.1,279.6,521.1,281.1z"/>
		<path id="XMLID_2121_" class="st4" d="M537.8,278.6c-0.5-0.5-1.2-0.7-1.9-0.7c-0.5,0-1.3,0.3-1.3,0.9s0.8,0.9,1.3,1.1l0.7,0.2
			c1.6,0.5,2.7,1.3,2.7,3.1c0,1.1-0.2,2.3-1.2,3c-0.9,0.7-2,1-3.1,1c-1.4,0-2.7-0.5-3.9-1.3l1.3-2.3c0.7,0.6,1.6,1.2,2.6,1.2
			c0.7,0,1.4-0.3,1.4-1.1s-1.2-1.1-1.7-1.3c-1.8-0.5-3-1-3-3.1c0-2.3,1.6-3.8,3.8-3.8c1.1,0,2.5,0.4,3.4,0.9L537.8,278.6z"/>
		<path id="XMLID_2119_" class="st4" d="M548,274.6l-5.6,13.6h-2.1l5.6-13.6H548z"/>
		<path id="XMLID_2116_" class="st4" d="M552.1,284.9l-0.8,2h-3.1l4.3-11.1h3.1l4.2,11.1h-3.1l-0.7-2H552.1z M554.2,279.2
			L554.2,279.2l-1.3,3.5h2.4L554.2,279.2z"/>
		<path id="XMLID_2113_" class="st4" d="M570.1,286.9h-3.6l-2.7-4.3l0,0v4.3h-2.9v-11.1h4.3c2.2,0,3.8,1,3.8,3.4
			c0,1.6-0.9,2.9-2.4,3.1L570.1,286.9z M563.7,280.7h0.3c0.9,0,2-0.2,2-1.4c0-1.2-1.1-1.4-2-1.4h-0.3V280.7z"/>
		<path id="XMLID_2110_" class="st4" d="M580.4,287.6l-0.9-1c-0.9,0.5-1.9,0.7-3.1,0.7c-3.6,0-6.2-2.5-6.2-6.1c0-3.4,3-5.7,6.2-5.7
			c3.4,0,6.2,2.3,6.2,5.9c0,1.5-0.5,2.7-1.4,3.9l1.9,1.9L580.4,287.6z M579.1,283c0.3-0.5,0.5-1.1,0.5-1.6c0-1.6-1.4-3.2-3.1-3.2
			c-1.7,0-3.1,1.4-3.1,2.9c0,1.9,1.4,3.3,3.1,3.3c0.3,0,0.6-0.1,0.9-0.2l-1.8-1.8l2.7-0.3L579.1,283z"/>
		<path id="XMLID_2108_" class="st4" d="M429.6,300.2l2.7-6.7h3.1l-4.8,11.1h-2.3l-4.7-11.1h3.1L429.6,300.2z"/>
		<path id="XMLID_2105_" class="st4" d="M443.3,304.6h-2.7v-0.9l0,0c-0.5,0.8-1.4,1.1-2.3,1.1c-2.3,0-3.8-1.9-3.8-4.1s1.6-4,3.8-4
			c0.9,0,1.8,0.3,2.3,1V297h2.7V304.6z M437.3,300.8c0,0.9,0.6,1.7,1.7,1.7s1.7-0.7,1.7-1.7c0-0.9-0.6-1.7-1.7-1.7
			C437.9,299.1,437.3,299.9,437.3,300.8z"/>
		<path id="XMLID_2103_" class="st4" d="M447.8,304.6h-2.7v-12.2h2.7V304.6z"/>
		<path id="XMLID_2100_" class="st4" d="M458.1,300.8c0,2.6-2.1,4-4.5,4s-4.5-1.4-4.5-4s2.1-4.1,4.5-4.1
			C456,296.8,458.1,298.2,458.1,300.8z M451.9,300.8c0,0.9,0.6,1.7,1.7,1.7s1.7-0.7,1.7-1.7c0-0.9-0.6-1.7-1.7-1.7
			C452.5,299.1,451.9,299.9,451.9,300.8z"/>
		<path id="XMLID_2098_" class="st4" d="M462,298.2L462,298.2c0.5-0.9,1.4-1.3,2.5-1.3h0.5v2.6c-0.4-0.2-0.7-0.2-1.2-0.2
			c-1.5,0-1.9,1-1.9,2.3v3.1h-2.7V297h2.7L462,298.2L462,298.2z"/>
		<path id="XMLID_2095_" class="st4" d="M474.2,304.6h-2.7v-0.9l0,0c-0.5,0.8-1.4,1.1-2.3,1.1c-2.3,0-3.8-1.9-3.8-4.1s1.6-4,3.8-4
			c0.9,0,1.8,0.3,2.3,1V297h2.7V304.6z M468.2,300.8c0,0.9,0.6,1.7,1.7,1.7s1.7-0.7,1.7-1.7c0-0.9-0.6-1.7-1.7-1.7
			C468.8,299.1,468.2,299.9,468.2,300.8z"/>
		<path id="XMLID_2093_" class="st4" d="M481.5,299.5c-0.4-0.3-0.9-0.5-1.4-0.5c-1,0-1.9,0.8-1.9,1.9s0.8,1.9,1.9,1.9
			c0.5,0,1-0.2,1.3-0.5v2.3c-0.6,0.3-1.3,0.4-1.9,0.4c-2.3,0-4.1-1.6-4.1-3.9c0-2.4,1.9-4.1,4.2-4.1c0.6,0,1.3,0.2,1.8,0.5
			L481.5,299.5L481.5,299.5z"/>
		<path id="XMLID_2090_" class="st4" d="M486,294.1c0,0.9-0.7,1.5-1.5,1.5c-0.9,0-1.5-0.7-1.5-1.5c0-0.9,0.7-1.5,1.5-1.5
			S486,293.3,486,294.1z M485.8,304.6h-2.7V297h2.7V304.6z"/>
		<path id="XMLID_2086_" class="st4" d="M496.1,300.8c0,2.6-2.1,4-4.5,4s-4.5-1.4-4.5-4s2.1-4.1,4.5-4.1
			C494,296.8,496.1,298.2,496.1,300.8z M489.9,300.8c0,0.9,0.6,1.7,1.7,1.7s1.7-0.7,1.7-1.7c0-0.9-0.6-1.7-1.7-1.7
			C490.5,299.1,489.9,299.9,489.9,300.8z M491.3,295.9l-1.2-0.9l2.1-2.5l1.6,1.2L491.3,295.9z"/>
		<path id="XMLID_2084_" class="st4" d="M500,298L500,298c0.6-0.9,1.4-1.3,2.4-1.3c2,0,2.8,1.3,2.8,3.1v4.7h-2.7v-3.7
			c0-0.7,0.2-2-1.2-2c-1.1,0-1.4,0.8-1.4,1.7v3.9h-2.7V297h2.7v1H500z"/>
		<path id="XMLID_2082_" class="st4" d="M511.2,298.7v2.2H507v-2.2H511.2z"/>
		<path id="XMLID_2080_" class="st4" d="M515.8,304.6H513v-11.1h2.9v11.1H515.8z"/>
		<path id="XMLID_2078_" class="st4" d="M520.3,298L520.3,298c0.6-0.9,1.4-1.3,2.4-1.3c2,0,2.8,1.3,2.8,3.1v4.7H523v-3.7
			c0-0.7,0.2-2-1.2-2c-1.1,0-1.4,0.8-1.4,1.7v3.9h-2.7V297h2.7L520.3,298L520.3,298z"/>
		<path id="XMLID_2076_" class="st4" d="M530.3,304.6h-2.7v-5.3h-0.9v-2.2h0.9v-0.9c0-1,0-1.8,0.8-2.7c0.6-0.8,1.6-1.2,2.7-1.2
			c0.4,0,0.8,0.1,1.2,0.2v2.3c-0.3-0.2-0.6-0.2-0.9-0.2c-0.7,0-0.9,0.4-0.9,1.3v1.3h1.9v2.2h-1.9L530.3,304.6L530.3,304.6z"/>
		<path id="XMLID_2073_" class="st4" d="M541.7,300.8c0,2.6-2.1,4-4.5,4s-4.5-1.4-4.5-4s2.1-4.1,4.5-4.1S541.7,298.2,541.7,300.8z
			 M535.4,300.8c0,0.9,0.6,1.7,1.7,1.7s1.7-0.7,1.7-1.7c0-0.9-0.6-1.7-1.7-1.7S535.4,299.9,535.4,300.8z"/>
		<path id="XMLID_2071_" class="st4" d="M545.6,298.2L545.6,298.2c0.5-0.9,1.4-1.3,2.5-1.3h0.5v2.6c-0.4-0.2-0.7-0.2-1.2-0.2
			c-1.5,0-1.9,1-1.9,2.3v3.1h-2.7V297h2.7v1.2H545.6z"/>
		<path id="XMLID_2069_" class="st4" d="M552.2,297.9L552.2,297.9c0.6-0.9,1.4-1.2,2.4-1.2c1.1,0,2,0.5,2.6,1.4
			c0.5-0.9,1.6-1.4,2.6-1.4c1.9,0,2.6,1.3,2.6,3v4.8h-2.7V301c0-0.8,0-2-1.1-2c-1.3,0-1.3,1.2-1.3,2v3.6h-2.7V301
			c0-0.9,0-2.1-1.2-2.1s-1.2,1.3-1.2,2.1v3.6h-2.8V297h2.7v0.9H552.2z"/>
		<path id="XMLID_2066_" class="st4" d="M571.9,301.2h-5.6c0,1.1,0.5,1.6,1.6,1.6c0.5,0,1-0.2,1.3-0.7h2.6c-0.2,0.9-0.7,1.6-1.4,2
			s-1.6,0.6-2.4,0.6c-2.5,0-4.4-1.4-4.4-4c0-2.5,1.7-4.1,4.2-4.1c2.7,0,4.1,1.6,4.1,4.2L571.9,301.2L571.9,301.2z M569.4,299.7
			c-0.2-0.7-0.8-1.2-1.5-1.2c-0.8,0-1.4,0.4-1.6,1.2H569.4z"/>
		<path id="XMLID_2063_" class="st4" d="M446.8,318.9h-5.6c0,1.1,0.5,1.6,1.6,1.6c0.5,0,1-0.2,1.3-0.7h2.6c-0.2,0.9-0.7,1.6-1.4,2
			c-0.7,0.4-1.6,0.6-2.4,0.6c-2.5,0-4.4-1.4-4.4-4c0-2.5,1.7-4.1,4.2-4.1c2.7,0,4.1,1.6,4.1,4.2L446.8,318.9L446.8,318.9z
			 M444.3,317.4c-0.2-0.7-0.8-1.2-1.5-1.2c-0.8,0-1.4,0.4-1.6,1.2H444.3z"/>
		<path id="XMLID_2061_" class="st4" d="M450.7,315.6L450.7,315.6c0.6-0.9,1.4-1.2,2.4-1.2c1.1,0,2,0.5,2.6,1.4
			c0.5-0.9,1.6-1.4,2.6-1.4c1.9,0,2.6,1.3,2.6,3v4.8h-2.7v-3.6c0-0.8,0-2-1.1-2c-1.3,0-1.3,1.2-1.3,2v3.6h-2.7v-3.6
			c0-0.9,0-2.1-1.2-2.1s-1.2,1.3-1.2,2.1v3.6H448v-7.6h2.7v0.9h0V315.6z"/>
		<path id="XMLID_2058_" class="st4" d="M465.4,311.8c0,0.9-0.7,1.5-1.5,1.5c-0.9,0-1.5-0.7-1.5-1.5c0-0.9,0.7-1.5,1.5-1.5
			S465.4,311,465.4,311.8z M465.2,322.3h-2.7v-7.6h2.7V322.3z"/>
		<path id="XMLID_2056_" class="st4" d="M469.9,322.3h-2.7V317h-0.9v-2.2h0.9v-2.3h2.7v2.3h1.5v2.2h-1.5V322.3z"/>
		<path id="XMLID_2053_" class="st4" d="M480.1,318.9h-5.6c0,1.1,0.5,1.6,1.6,1.6c0.5,0,1-0.2,1.3-0.7h2.6c-0.2,0.9-0.7,1.6-1.4,2
			c-0.7,0.4-1.6,0.6-2.4,0.6c-2.5,0-4.4-1.4-4.4-4c0-2.5,1.7-4.1,4.2-4.1c2.7,0,4.1,1.6,4.1,4.2L480.1,318.9L480.1,318.9z
			 M477.6,317.4c-0.2-0.7-0.8-1.2-1.5-1.2c-0.8,0-1.4,0.4-1.6,1.2H477.6z"/>
		<path id="XMLID_2050_" class="st4" d="M486.3,310.1h2.7v5.4c0.5-0.6,1.5-1,2.3-1c2.3,0,3.8,1.9,3.8,4c0,2.2-1.6,4.1-3.8,4.1
			c-0.9,0-1.8-0.3-2.3-1.1l0,0v0.9h-2.7V310.1z M488.9,318.5c0,0.9,0.6,1.7,1.7,1.7s1.7-0.7,1.7-1.7c0-0.9-0.6-1.7-1.7-1.7
			S488.9,317.6,488.9,318.5z"/>
		<path id="XMLID_2047_" class="st4" d="M505,318.5c0,2.6-2.1,4-4.5,4s-4.5-1.4-4.5-4s2.1-4.1,4.5-4.1S505,315.9,505,318.5z
			 M498.6,318.5c0,0.9,0.6,1.7,1.7,1.7s1.7-0.7,1.7-1.7c0-0.9-0.6-1.7-1.7-1.7C499.3,316.8,498.6,317.6,498.6,318.5z"/>
		<path id="XMLID_2045_" class="st4" d="M508.8,322.3h-2.7v-12.2h2.7V322.3z"/>
		<path id="XMLID_2042_" class="st4" d="M518.4,318.9h-5.6c0,1.1,0.5,1.6,1.6,1.6c0.5,0,1-0.2,1.3-0.7h2.6c-0.2,0.9-0.7,1.6-1.4,2
			s-1.6,0.6-2.4,0.6c-2.5,0-4.4-1.4-4.4-4c0-2.5,1.7-4.1,4.2-4.1c2.7,0,4.1,1.6,4.1,4.2L518.4,318.9L518.4,318.9z M515.8,317.4
			c-0.2-0.7-0.8-1.2-1.5-1.2c-0.8,0-1.4,0.4-1.6,1.2H515.8z"/>
		<path id="XMLID_2040_" class="st4" d="M522.5,322.3h-2.7V317H519v-2.2h0.9v-2.3h2.7v2.3h1.5v2.2h-1.5v5.3H522.5z"/>
		<path id="XMLID_2037_" class="st4" d="M533.1,322.3h-2.7v-0.9l0,0c-0.5,0.8-1.4,1.1-2.3,1.1c-2.3,0-3.8-1.9-3.8-4.1s1.6-4,3.8-4
			c0.9,0,1.8,0.3,2.3,1v-0.7h2.7V322.3L533.1,322.3z M527.1,318.5c0,0.9,0.6,1.7,1.7,1.7c1.1,0,1.7-0.7,1.7-1.7
			c0-0.9-0.6-1.7-1.7-1.7C527.7,316.8,527.1,317.6,527.1,318.5z"/>
		<path id="XMLID_2034_" class="st4" d="M545.7,321.4L545.7,321.4c-0.5,0.8-1.4,1.1-2.3,1.1c-2.3,0-3.8-1.9-3.8-4.1s1.6-4,3.8-4
			c0.9,0,1.8,0.3,2.3,1V310h2.7v12.2h-2.6v-0.8H545.7z M542.4,318.5c0,0.9,0.6,1.7,1.7,1.7c1.1,0,1.7-0.7,1.7-1.7
			c0-0.9-0.6-1.7-1.7-1.7S542.4,317.6,542.4,318.5z"/>
		<path id="XMLID_2031_" class="st4" d="M557.9,318.9h-5.6c0,1.1,0.5,1.6,1.6,1.6c0.5,0,1-0.2,1.3-0.7h2.6c-0.2,0.9-0.7,1.6-1.4,2
			s-1.6,0.6-2.4,0.6c-2.5,0-4.4-1.4-4.4-4c0-2.5,1.7-4.1,4.2-4.1c2.7,0,4.1,1.6,4.1,4.2L557.9,318.9L557.9,318.9z M555.4,317.4
			c-0.2-0.7-0.8-1.2-1.5-1.2c-0.8,0-1.4,0.4-1.6,1.2H555.4z"/>
		<path id="XMLID_2029_" class="st4" d="M462.1,339.9h-2.7v-12.2h2.7V339.9z"/>
		<path id="XMLID_2026_" class="st4" d="M466.7,329.5c0,0.9-0.7,1.5-1.5,1.5c-0.9,0-1.5-0.7-1.5-1.5c0-0.9,0.7-1.5,1.5-1.5
			S466.7,328.7,466.7,329.5z M466.6,339.9h-2.7v-7.6h2.7V339.9z"/>
		<path id="XMLID_2023_" class="st4" d="M476.7,343.7H474v-4.5c-0.5,0.6-1.5,0.9-2.3,0.9c-2.3,0-3.8-1.8-3.8-4s1.6-4.1,3.8-4.1
			c0.9,0,1.8,0.4,2.3,1.1l0,0v-0.9h2.7V343.7z M470.6,336.2c0,0.9,0.6,1.7,1.7,1.7s1.7-0.7,1.7-1.7c0-0.9-0.6-1.7-1.7-1.7
			C471.3,334.5,470.6,335.2,470.6,336.2z"/>
		<path id="XMLID_2021_" class="st4" d="M481,332.3v4.1c0,0.9,0.2,1.6,1.3,1.6c1.1,0,1.3-0.7,1.3-1.6v-4.1h2.7v4.5
			c0,2.5-1.7,3.3-4,3.3s-4-0.8-4-3.3v-4.5H481z"/>
		<path id="XMLID_2018_" class="st4" d="M490.9,329.5c0,0.9-0.7,1.5-1.5,1.5c-0.9,0-1.5-0.7-1.5-1.5c0-0.9,0.7-1.5,1.5-1.5
			C490.3,328,490.9,328.7,490.9,329.5z M490.7,339.9H488v-7.6h2.7V339.9z"/>
		<path id="XMLID_2015_" class="st4" d="M498.2,339.1L498.2,339.1c-0.5,0.8-1.4,1.1-2.3,1.1c-2.3,0-3.8-1.9-3.8-4.1s1.6-4,3.8-4
			c0.9,0,1.8,0.3,2.3,1v-5.4h2.7v12.2h-2.7V339.1L498.2,339.1z M494.9,336.2c0,0.9,0.6,1.7,1.7,1.7s1.7-0.7,1.7-1.7
			c0-0.9-0.6-1.7-1.7-1.7S494.9,335.2,494.9,336.2z"/>
		<path id="XMLID_2012_" class="st4" d="M510.8,339.9h-2.7V339l0,0c-0.5,0.8-1.4,1.1-2.3,1.1c-2.3,0-3.8-1.9-3.8-4.1s1.6-4,3.8-4
			c0.9,0,1.8,0.3,2.3,1v-0.7h2.7V339.9L510.8,339.9z M504.8,336.2c0,0.9,0.6,1.7,1.7,1.7s1.7-0.7,1.7-1.7c0-0.9-0.6-1.7-1.7-1.7
			S504.8,335.2,504.8,336.2z"/>
		<path id="XMLID_2010_" class="st4" d="M518,334.8c-0.4-0.3-0.9-0.5-1.4-0.5c-1,0-1.9,0.8-1.9,1.9s0.8,1.9,1.9,1.9
			c0.5,0,1-0.2,1.3-0.5v2.3c-0.6,0.3-1.3,0.4-1.9,0.4c-2.3,0-4.1-1.6-4.1-3.9c0-2.4,1.9-4.1,4.2-4.1c0.6,0,1.3,0.2,1.8,0.5
			L518,334.8L518,334.8z"/>
		<path id="XMLID_2007_" class="st4" d="M522.6,329.5c0,0.9-0.7,1.5-1.5,1.5c-0.9,0-1.5-0.7-1.5-1.5c0-0.9,0.7-1.5,1.5-1.5
			S522.6,328.7,522.6,329.5z M522.4,339.9h-2.7v-7.6h2.7V339.9z"/>
		<path id="XMLID_2004_" class="st4" d="M532.7,336.2c0,2.6-2.1,4-4.5,4s-4.5-1.4-4.5-4s2.1-4.1,4.5-4.1
			C530.6,332.1,532.7,333.6,532.7,336.2z M526.5,336.2c0,0.9,0.6,1.7,1.7,1.7c1.1,0,1.7-0.7,1.7-1.7c0-0.9-0.6-1.7-1.7-1.7
			S526.5,335.2,526.5,336.2z"/>
		<path id="XMLID_2002_" class="st4" d="M536.7,333.4L536.7,333.4c0.6-0.9,1.4-1.3,2.4-1.3c2,0,2.8,1.3,2.8,3.1v4.7h-2.7v-3.7
			c0-0.7,0.2-2-1.2-2c-1.1,0-1.4,0.8-1.4,1.7v3.9h-2.7v-7.6h2.7L536.7,333.4L536.7,333.4z"/>
	</g>
</g>
<rect id="XMLID_147_" x="388.4" y="393.4" class="st3" width="222.9" height="100.9"/>
<g id="XMLID_25345_">
	<g>
		<path id="XMLID_978_" class="st4" d="M459.9,416.1c-0.5-0.5-1.2-0.7-1.9-0.7c-0.5,0-1.3,0.3-1.3,0.9s0.8,0.9,1.3,1.1l0.7,0.2
			c1.6,0.5,2.7,1.3,2.7,3.1c0,1.1-0.2,2.3-1.2,3c-0.9,0.7-2,1-3.1,1c-1.4,0-2.7-0.5-3.9-1.3l1.3-2.3c0.7,0.6,1.6,1.2,2.6,1.2
			c0.7,0,1.4-0.3,1.4-1.1s-1.2-1.1-1.7-1.3c-1.8-0.5-3-1-3-3.1c0-2.3,1.6-3.8,3.8-3.8c1.1,0,2.5,0.4,3.4,0.9L459.9,416.1z"/>
		<path id="XMLID_976_" class="st4" d="M465.8,415.7v1.9h3.3v2.4h-3.3v1.9h3.4v2.4h-6.3v-11.1h6.3v2.4L465.8,415.7L465.8,415.7z"/>
		<path id="XMLID_974_" class="st4" d="M478.9,417.1c-0.6-0.8-1.6-1.3-2.5-1.3c-1.8,0-3,1.3-3,3.1s1.2,3.1,3,3.1
			c0.9,0,1.9-0.5,2.5-1.2v3.4c-0.9,0.3-1.6,0.5-2.6,0.5c-1.6,0-3.1-0.6-4.1-1.6c-1.3-1.1-1.8-2.6-1.8-4.2c0-1.5,0.5-3,1.6-4.1
			s2.7-1.8,4.2-1.8c0.9,0,1.8,0.2,2.7,0.5L478.9,417.1L478.9,417.1z"/>
		<path id="XMLID_971_" class="st4" d="M490,424.4h-3.6l-2.7-4.3l0,0v4.3h-2.9v-11.1h4.3c2.2,0,3.8,1,3.8,3.4c0,1.6-0.9,2.9-2.4,3.1
			L490,424.4z M483.6,418.3h0.3c0.9,0,2-0.2,2-1.4c0-1.2-1.1-1.4-2-1.4h-0.3V418.3z"/>
		<path id="XMLID_969_" class="st4" d="M493.6,415.7v1.9h3.3v2.4h-3.3v1.9h3.4v2.4h-6.3v-11.1h6.3v2.4L493.6,415.7L493.6,415.7z"/>
		<path id="XMLID_967_" class="st4" d="M503.3,424.4h-2.9v-8.7H498v-2.4h7.7v2.4h-2.4L503.3,424.4L503.3,424.4z"/>
		<path id="XMLID_964_" class="st4" d="M508.7,422.5l-0.8,2h-3.1l4.3-11.1h3.1l4.2,11.1h-3.1l-0.7-2H508.7z M510.6,416.7
			L510.6,416.7l-1.3,3.5h2.4L510.6,416.7z"/>
		<path id="XMLID_961_" class="st4" d="M526.6,424.4H523l-2.7-4.3l0,0v4.3h-2.9v-11.1h4.3c2.2,0,3.8,1,3.8,3.4
			c0,1.6-0.9,2.9-2.4,3.1L526.6,424.4z M520.2,418.3h0.3c0.9,0,2-0.2,2-1.4c0-1.2-1.1-1.4-2-1.4h-0.3V418.3z"/>
		<path id="XMLID_959_" class="st4" d="M530.2,424.4h-2.9v-11.1h2.9V424.4z"/>
		<path id="XMLID_956_" class="st4" d="M534.9,422.5l-0.8,2H531l4.3-11.1h3.1l4.1,11.1h-3.1l-0.7-2H534.9z M537,416.7L537,416.7
			l-1.3,3.5h2.4L537,416.7z"/>
		<path id="XMLID_953_" class="st4" d="M433.7,431h4.1c3.1,0,5.6,2.4,5.6,5.6c0,3.1-2.6,5.6-5.6,5.6h-4.1V431z M436.6,439.7h0.6
			c1.7,0,3.2-0.9,3.2-3.1c0-2-1.3-3.1-3.1-3.1h-0.7V439.7z"/>
		<path id="XMLID_951_" class="st4" d="M447.6,433.4v1.9h3.3v2.4h-3.3v1.9h3.4v2.4h-6.3v-11.1h6.3v2.4L447.6,433.4L447.6,433.4z"/>
		<path id="XMLID_949_" class="st4" d="M464.1,433.8c-0.5-0.5-1.2-0.7-1.9-0.7c-0.5,0-1.3,0.3-1.3,0.9s0.8,0.9,1.3,1.1l0.7,0.2
			c1.6,0.5,2.7,1.3,2.7,3.1c0,1.1-0.2,2.3-1.2,3c-0.9,0.7-2,1-3.1,1c-1.4,0-2.7-0.5-3.9-1.3l1.3-2.3c0.7,0.6,1.6,1.2,2.6,1.2
			c0.7,0,1.4-0.3,1.4-1.1s-1.2-1.1-1.7-1.3c-1.8-0.5-3-1-3-3.1c0-2.3,1.6-3.8,3.8-3.8c1.1,0,2.5,0.4,3.4,0.9L464.1,433.8z"/>
		<path id="XMLID_947_" class="st4" d="M469.9,433.4v1.9h3.3v2.4h-3.3v1.9h3.4v2.4H467v-11.1h6.3v2.4L469.9,433.4L469.9,433.4z"/>
		<path id="XMLID_944_" class="st4" d="M484.3,442.1h-3.6l-2.7-4.3l0,0v4.3h-2.9V431h4.3c2.2,0,3.8,1,3.8,3.4c0,1.6-0.9,2.9-2.4,3.1
			L484.3,442.1z M478,436h0.3c0.9,0,2-0.2,2-1.4c0-1.2-1.1-1.4-2-1.4H478V436z"/>
		<path id="XMLID_942_" class="st4" d="M489.5,437.7l2.7-6.7h3.1l-4.8,11.1h-2.3l-4.7-11.1h3.1L489.5,437.7z"/>
		<path id="XMLID_940_" class="st4" d="M499,442.1h-2.9V431h2.9V442.1z"/>
		<path id="XMLID_938_" class="st4" d="M508.7,434.7c-0.6-0.8-1.6-1.3-2.5-1.3c-1.8,0-3,1.3-3,3.1s1.2,3.1,3,3.1
			c0.9,0,1.9-0.5,2.5-1.2v3.4c-0.9,0.3-1.6,0.5-2.6,0.5c-1.6,0-3.1-0.6-4.1-1.6c-1.3-1.1-1.8-2.6-1.8-4.2c0-1.5,0.5-3,1.6-4.1
			s2.7-1.8,4.2-1.8c0.9,0,1.8,0.2,2.7,0.5L508.7,434.7L508.7,434.7z"/>
		<path id="XMLID_830_" class="st4" d="M513.4,442.1h-2.9V431h2.9V442.1z"/>
		<path id="XMLID_828_" class="st4" d="M524.9,431v6.3c0,1.4-0.1,2.8-1.2,3.9c-0.9,0.9-2.4,1.3-3.7,1.3s-2.7-0.3-3.7-1.3
			c-1.1-1.1-1.2-2.5-1.2-3.9V431h2.9v5.9c0,1.4,0.1,3.1,2,3.1s2-1.6,2-3.1V431H524.9z"/>
		<path id="XMLID_825_" class="st4" d="M538.5,436.3c0,3.6-2.6,6.1-6.2,6.1c-3.6,0-6.2-2.5-6.2-6.1c0-3.4,3-5.7,6.2-5.7
			C535.6,430.6,538.5,432.9,538.5,436.3z M529.2,436.3c0,1.9,1.4,3.3,3.1,3.3s3.1-1.4,3.1-3.3c0-1.6-1.4-2.9-3.1-2.9
			S529.2,434.8,529.2,436.3z"/>
		<path id="XMLID_822_" class="st4" d="M547.8,440.1l-0.8,2h-3.1l4.3-11.1h3.1l4.1,11.1h-3.1l-0.7-2H547.8z M549.7,434.4
			L549.7,434.4l-1.3,3.5h2.4L549.7,434.4z"/>
		<path id="XMLID_820_" class="st4" d="M559.3,439.7h3.4v2.4h-6.3V431h2.9L559.3,439.7L559.3,439.7z"/>
		<path id="XMLID_818_" class="st4" d="M460.5,452.4c-0.6-0.8-1.6-1.3-2.5-1.3c-1.8,0-3,1.3-3,3.1c0,1.7,1.2,3.1,3,3.1
			c0.9,0,1.9-0.5,2.5-1.2v3.4c-0.9,0.3-1.6,0.5-2.6,0.5c-1.6,0-3.1-0.6-4.1-1.6c-1.3-1.1-1.8-2.6-1.8-4.2c0-1.5,0.5-3,1.6-4.1
			s2.7-1.8,4.2-1.8c0.9,0,1.8,0.2,2.7,0.5L460.5,452.4L460.5,452.4z"/>
		<path id="XMLID_816_" class="st4" d="M465.2,459.8h-2.9v-11.1h2.9V459.8z"/>
		<path id="XMLID_814_" class="st4" d="M476.7,448.7v6.3c0,1.4-0.1,2.8-1.2,3.9c-0.9,0.9-2.4,1.3-3.7,1.3c-1.3,0-2.7-0.3-3.7-1.3
			c-1.1-1.1-1.2-2.5-1.2-3.9v-6.3h2.9v5.9c0,1.4,0.1,3.1,2,3.1s2-1.6,2-3.1v-5.9H476.7z"/>
		<path id="XMLID_811_" class="st4" d="M478.6,448.7h4.1c3.1,0,5.6,2.4,5.6,5.6s-2.6,5.6-5.6,5.6h-4.1V448.7z M481.5,457.3h0.6
			c1.7,0,3.2-0.9,3.2-3.1c0-2-1.3-3.1-3.2-3.1h-0.6V457.3z"/>
		<path id="XMLID_808_" class="st4" d="M492.5,457.8l-0.8,2h-3.1l4.3-11.1h3.1l4.2,11.1h-3.1l-0.7-2H492.5z M494.5,452.1
			L494.5,452.1l-1.3,3.5h2.4L494.5,452.1z"/>
		<path id="XMLID_805_" class="st4" d="M501.1,448.7h4.1c3.1,0,5.6,2.4,5.6,5.6s-2.6,5.6-5.6,5.6h-4.1V448.7z M504,457.3h0.6
			c1.7,0,3.2-0.9,3.2-3.1c0-2-1.3-3.1-3.2-3.1H504V457.3L504,457.3z"/>
		<path id="XMLID_802_" class="st4" d="M515.1,457.8l-0.8,2h-3.1l4.3-11.1h3.1l4.1,11.1h-3.1l-0.7-2H515.1z M517.1,452.1
			L517.1,452.1l-1.3,3.5h2.4L517.1,452.1z"/>
		<path id="XMLID_800_" class="st4" d="M523.7,448.7h2.9l5.3,6.8l0,0v-6.8h2.9v11.1H532l-5.3-6.8l0,0v6.8h-2.9L523.7,448.7
			L523.7,448.7z"/>
		<path id="XMLID_797_" class="st4" d="M548.5,454c0,3.6-2.6,6.1-6.2,6.1s-6.2-2.5-6.2-6.1c0-3.4,3-5.7,6.2-5.7
			S548.5,450.6,548.5,454z M539.2,454.1c0,1.9,1.4,3.3,3.1,3.3c1.7,0,3.1-1.4,3.1-3.3c0-1.6-1.4-2.9-3.1-2.9
			C540.6,451.1,539.2,452.5,539.2,454.1z"/>
	</g>
</g>
<rect id="XMLID_151_" x="388.4" y="524.1" class="st3" width="222.9" height="100.9"/>
<g id="XMLID_25215_">
	<g>
		<path id="XMLID_1894_" class="st4" d="M419.9,538.5h4.1c3.1,0,5.6,2.4,5.6,5.6s-2.6,5.6-5.6,5.6h-4.1V538.5z M422.8,547.2h0.6
			c1.7,0,3.2-0.9,3.2-3.1c0-2-1.3-3.1-3.2-3.1h-0.7L422.8,547.2L422.8,547.2z"/>
		<path id="XMLID_1892_" class="st4" d="M433.9,549.6H431v-11.1h2.9V549.6z"/>
		<path id="XMLID_1889_" class="st4" d="M445,549.6h-3.6l-2.7-4.3l0,0v4.3h-2.9v-11.1h4.3c2.2,0,3.8,1,3.8,3.4
			c0,1.6-0.9,2.9-2.4,3.1L445,549.6z M438.6,543.5h0.3c0.9,0,2-0.2,2-1.4s-1.1-1.4-2-1.4h-0.3V543.5z"/>
		<path id="XMLID_1887_" class="st4" d="M449.1,548.2c0,0.9-0.8,1.7-1.7,1.7c-0.9,0-1.7-0.8-1.7-1.7s0.8-1.7,1.7-1.7
			C448.3,546.5,449.1,547.3,449.1,548.2z"/>
		<path id="XMLID_1884_" class="st4" d="M455.9,538.5h4.1c3.1,0,5.6,2.4,5.6,5.6s-2.6,5.6-5.6,5.6h-4.1V538.5z M458.7,547.2h0.6
			c1.7,0,3.2-0.9,3.2-3.1c0-2-1.3-3.1-3.1-3.1h-0.7V547.2z"/>
		<path id="XMLID_1882_" class="st4" d="M469.9,541v1.9h3.3v2.4h-3.3v1.9h3.4v2.4H467v-11.1h6.3v2.4L469.9,541L469.9,541z"/>
		<path id="XMLID_1880_" class="st4" d="M489.8,538.5v6.3c0,1.4-0.1,2.8-1.2,3.9c-0.9,0.9-2.4,1.3-3.7,1.3s-2.7-0.3-3.7-1.3
			c-1.1-1.1-1.2-2.5-1.2-3.9v-6.3h2.9v5.9c0,1.4,0.1,3.1,2,3.1s2-1.6,2-3.1v-5.9H489.8z"/>
		<path id="XMLID_1877_" class="st4" d="M500.8,549.6h-3.6l-2.7-4.3l0,0v4.3h-2.9v-11.1h4.3c2.2,0,3.8,1,3.8,3.4
			c0,1.6-0.9,2.9-2.4,3.1L500.8,549.6z M494.5,543.5h0.3c0.9,0,2-0.2,2-1.4s-1.1-1.4-2-1.4h-0.3V543.5z"/>
		<path id="XMLID_1872_" class="st4" d="M501.6,549.6v-11.1h4.1c2,0,3.3,0.8,3.3,2.9c0,1-0.3,1.8-1.3,2.3l0,0
			c1.6,0.2,2.3,1.3,2.3,2.8c0,2.3-2,3.1-4,3.1H501.6z M504.5,542.9h0.3c0.8,0,1.6-0.2,1.6-1.1c0-1-0.9-1.1-1.6-1.1h-0.2L504.5,542.9
			L504.5,542.9z M504.5,547.5h0.4c0.9,0,2.3,0.1,2.3-1.2s-1.4-1.2-2.3-1.2h-0.3v2.4H504.5z"/>
		<path id="XMLID_1869_" class="st4" d="M514.4,547.7l-0.8,2h-3.1l4.3-11.1h3.1l4.1,11.1h-3.1l-0.7-2H514.4z M516.5,542L516.5,542
			l-1.3,3.5h2.4L516.5,542z"/>
		<path id="XMLID_1867_" class="st4" d="M523.1,538.5h2.9l5.3,6.8l0,0v-6.8h2.9v11.1h-2.9l-5.3-6.8l0,0v6.8h-2.9V538.5z"/>
		<path id="XMLID_1865_" class="st4" d="M539,549.6h-2.9v-11.1h2.9V549.6z"/>
		<path id="XMLID_1863_" class="st4" d="M547,541.4c-0.5-0.5-1.2-0.7-1.9-0.7c-0.5,0-1.3,0.3-1.3,0.9s0.8,0.9,1.3,1.1l0.7,0.2
			c1.6,0.5,2.7,1.3,2.7,3.1c0,1.1-0.2,2.3-1.2,3c-0.9,0.7-2,1-3.1,1c-1.4,0-2.7-0.5-3.9-1.3l1.3-2.3c0.7,0.6,1.6,1.2,2.6,1.2
			c0.7,0,1.4-0.3,1.4-1.1s-1.2-1.1-1.7-1.3c-1.8-0.5-3-1-3-3.1c0-2.3,1.6-3.8,3.8-3.8c1.1,0,2.5,0.4,3.4,0.9L547,541.4z"/>
		<path id="XMLID_1861_" class="st4" d="M551.1,538.5h2.8l2.3,5.9l2.4-5.9h2.9l1.6,11.1h-2.9l-0.8-6.4l0,0l-2.7,6.4h-1.2l-2.6-6.4
			l0,0l-0.9,6.4h-2.9L551.1,538.5z"/>
		<path id="XMLID_1858_" class="st4" d="M576.2,543.9c0,3.6-2.6,6.1-6.2,6.1c-3.6,0-6.2-2.5-6.2-6.1c0-3.4,3-5.7,6.2-5.7
			S576.2,540.5,576.2,543.9z M566.9,543.9c0,1.9,1.4,3.3,3.1,3.3c1.7,0,3.1-1.4,3.1-3.3c0-1.6-1.4-2.9-3.1-2.9
			C568.3,541,566.9,542.4,566.9,543.9z"/>
		<path id="XMLID_1856_" class="st4" d="M431,561.5v2.2h-4.2v-2.2H431z"/>
		<path id="XMLID_1854_" class="st4" d="M443.7,561.1c0,1.6-0.2,3-1.2,4.4c-1.1,1.5-2.7,2.2-4.6,2.2c-3.5,0-5.9-2.3-5.9-5.9
			c0-3.6,2.4-5.9,6-5.9c2.3,0,4.1,1,5,3.1l-2.7,1.2c-0.4-1.1-1.3-1.8-2.4-1.8c-1.9,0-2.9,1.8-2.9,3.5s1,3.4,2.9,3.4
			c1.3,0,2.2-0.6,2.3-2h-2.3V561L443.7,561.1L443.7,561.1z"/>
		<path id="XMLID_1852_" class="st4" d="M448,558.6v1.9h3.3v2.4H448v1.9h3.4v2.4h-6.3v-11h6.3v2.4L448,558.6L448,558.6z"/>
		<path id="XMLID_1850_" class="st4" d="M459.3,559.1c-0.5-0.5-1.2-0.7-1.9-0.7c-0.5,0-1.3,0.3-1.3,0.9c0,0.6,0.8,0.9,1.3,1.1
			l0.7,0.2c1.6,0.5,2.7,1.3,2.7,3.1c0,1.1-0.2,2.3-1.2,3c-0.9,0.7-2,1-3.1,1c-1.4,0-2.7-0.5-3.9-1.3l1.3-2.3
			c0.7,0.6,1.6,1.2,2.6,1.2c0.7,0,1.4-0.3,1.4-1.1s-1.2-1.1-1.7-1.3c-1.8-0.5-3-1-3-3.1c0-2.3,1.6-3.8,3.8-3.8
			c1.1,0,2.5,0.4,3.4,0.9L459.3,559.1z"/>
		<path id="XMLID_1848_" class="st4" d="M466.7,567.3h-2.9v-8.7h-2.4v-2.4h7.7v2.4h-2.4L466.7,567.3L466.7,567.3z"/>
		<path id="XMLID_1846_" class="st4" d="M473,567.3h-2.9v-11.1h2.9V567.3z"/>
		<path id="XMLID_1843_" class="st4" d="M486.6,561.5c0,3.6-2.6,6.1-6.2,6.1s-6.2-2.5-6.2-6.1c0-3.4,3-5.7,6.2-5.7
			S486.6,558.2,486.6,561.5z M477.4,561.6c0,1.9,1.4,3.3,3.1,3.3s3.1-1.4,3.1-3.3c0-1.6-1.4-2.9-3.1-2.9
			C478.8,558.6,477.4,560.1,477.4,561.6z"/>
		<path id="XMLID_1840_" class="st4" d="M497.2,567.3h-3.6l-2.7-4.3l0,0v4.3H488v-11.1h4.3c2.2,0,3.8,1,3.8,3.4
			c0,1.6-0.9,2.9-2.4,3.1L497.2,567.3z M490.8,561.2h0.3c0.9,0,2-0.2,2-1.4s-1.1-1.4-2-1.4h-0.3V561.2z"/>
		<path id="XMLID_1838_" class="st4" d="M512.6,556.2v6.3c0,1.4-0.1,2.8-1.2,3.9c-0.9,0.9-2.4,1.3-3.7,1.3c-1.3,0-2.7-0.3-3.7-1.3
			c-1.1-1.1-1.2-2.5-1.2-3.9v-6.3h2.9v5.9c0,1.4,0.1,3.1,2,3.1s2-1.6,2-3.1v-5.9H512.6z"/>
		<path id="XMLID_1835_" class="st4" d="M523.7,567.3h-3.6l-2.7-4.3l0,0v4.3h-2.9v-11.1h4.3c2.2,0,3.8,1,3.8,3.4
			c0,1.6-0.9,2.9-2.4,3.1L523.7,567.3z M517.4,561.2h0.3c0.9,0,2-0.2,2-1.4s-1.1-1.4-2-1.4h-0.3V561.2z"/>
		<path id="XMLID_1831_" class="st4" d="M524.5,567.3v-11.1h4.1c2,0,3.3,0.8,3.3,2.9c0,1-0.3,1.8-1.3,2.3l0,0
			c1.6,0.2,2.3,1.3,2.3,2.8c0,2.3-2,3.1-4,3.1H524.5z M527.4,560.6h0.3c0.8,0,1.6-0.2,1.6-1.1c0-1-0.9-1.1-1.6-1.1h-0.2L527.4,560.6
			L527.4,560.6z M527.4,565.1h0.4c0.9,0,2.3,0.1,2.3-1.2s-1.4-1.2-2.3-1.2h-0.3v2.4H527.4z"/>
		<path id="XMLID_1828_" class="st4" d="M537.4,565.4l-0.8,2h-3.1l4.3-11.1h3.1l4.2,11.1H542l-0.7-2H537.4z M539.3,559.7
			L539.3,559.7l-1.3,3.5h2.4L539.3,559.7z"/>
		<path id="XMLID_1826_" class="st4" d="M546,556.2h2.9l5.3,6.8l0,0v-6.8h2.9v11.1h-2.9l-5.3-6.8l0,0v6.8H546V556.2z"/>
		<path id="XMLID_1823_" class="st4" d="M561.8,565.4l-0.8,2h-3l4.3-11.1h3.1l4.2,11.1h-3.1l-0.7-2H561.8z M563.8,559.7L563.8,559.7
			l-1.3,3.5h2.4L563.8,559.7z"/>
		<path id="XMLID_1821_" class="st4" d="M444.6,573.9h3.4l2.1,3.1l2.1-3.1h3.4l-4.1,5.8v5.3h-3v-5.3L444.6,573.9z"/>
		<path id="XMLID_1819_" class="st4" d="M465.8,585h-2.9v-8.7h-2.4v-2.4h7.7v2.4h-2.4L465.8,585L465.8,585z"/>
		<path id="XMLID_1817_" class="st4" d="M472.1,576.3v1.9h3.3v2.4h-3.3v1.9h3.4v2.4h-6.3v-11.1h6.3v2.4L472.1,576.3L472.1,576.3z"/>
		<path id="XMLID_1814_" class="st4" d="M486.6,585H483l-2.7-4.3l0,0v4.3h-2.9v-11.1h4.3c2.2,0,3.8,1,3.8,3.4c0,1.6-0.9,2.9-2.4,3.1
			L486.6,585z M480.2,578.9h0.3c0.9,0,2-0.2,2-1.4s-1.1-1.4-2-1.4h-0.3V578.9z"/>
		<path id="XMLID_1811_" class="st4" d="M496.6,585H493l-2.7-4.3l0,0v4.3h-2.9v-11.1h4.3c2.2,0,3.8,1,3.8,3.4c0,1.6-0.9,2.9-2.4,3.1
			L496.6,585z M490.3,578.9h0.3c0.9,0,2-0.2,2-1.4s-1.1-1.4-2-1.4h-0.3V578.9z"/>
		<path id="XMLID_1809_" class="st4" d="M500.3,585h-2.9v-11.1h2.9V585z"/>
		<path id="XMLID_1807_" class="st4" d="M506.5,585h-2.9v-8.7h-2.4v-2.4h7.7v2.4h-2.3v8.7H506.5z"/>
		<path id="XMLID_1804_" class="st4" d="M521.7,579.2c0,3.6-2.6,6.1-6.2,6.1c-3.6,0-6.2-2.5-6.2-6.1c0-3.4,3-5.7,6.2-5.7
			S521.7,575.9,521.7,579.2z M512.4,579.3c0,1.9,1.4,3.3,3.1,3.3c1.7,0,3.1-1.4,3.1-3.3c0-1.6-1.4-2.9-3.1-2.9
			C513.8,576.3,512.4,577.7,512.4,579.3z"/>
		<path id="XMLID_1801_" class="st4" d="M532.3,585h-3.6l-2.7-4.3l0,0v4.3h-3v-11.1h4.3c2.2,0,3.8,1,3.8,3.4c0,1.6-0.9,2.9-2.4,3.1
			L532.3,585z M525.9,578.9h0.3c0.9,0,2-0.2,2-1.4s-1.1-1.4-2-1.4h-0.3V578.9z"/>
		<path id="XMLID_1799_" class="st4" d="M536,585h-2.9v-11.1h2.9V585z"/>
		<path id="XMLID_1796_" class="st4" d="M540.7,583l-0.8,2h-3.1l4.3-11.1h3.1l4.1,11.1h-3.1l-0.7-2H540.7z M542.7,577.3L542.7,577.3
			l-1.3,3.5h2.4L542.7,577.3z"/>
		<path id="XMLID_1794_" class="st4" d="M552.2,582.6h3.4v2.4h-6.3v-11.1h2.9L552.2,582.6L552.2,582.6z"/>
		<path id="XMLID_1791_" class="st4" d="M459.6,600.7l-0.8,2h-3.1l4.3-11.1h3.1l4.1,11.1h-3.1l-0.7-2H459.6z M461.6,595L461.6,595
			l-1.3,3.5h2.4L461.6,595z"/>
		<path id="XMLID_1788_" class="st4" d="M470.8,596L470.8,596c0.5-0.8,1.4-1.1,2.3-1.1c2.3,0,3.8,1.9,3.8,4.1c0,2.2-1.6,4-3.8,4
			c-0.9,0-1.8-0.3-2.3-0.9v4.5h-2.7v-11.3h2.7V596L470.8,596z M470.7,598.9c0,0.9,0.6,1.7,1.7,1.7s1.7-0.7,1.7-1.7
			c0-0.9-0.6-1.7-1.7-1.7C471.3,597.2,470.7,598,470.7,598.9z"/>
		<path id="XMLID_1786_" class="st4" d="M481,596.3L481,596.3c0.5-0.9,1.4-1.3,2.5-1.3h0.5v2.6c-0.4-0.2-0.7-0.2-1.2-0.2
			c-1.5,0-1.9,1-1.9,2.3v3.1h-2.7v-7.6h2.7L481,596.3L481,596.3z"/>
		<path id="XMLID_1783_" class="st4" d="M493.2,598.9c0,2.6-2.1,4-4.5,4s-4.5-1.4-4.5-4s2.1-4.1,4.5-4.1
			C491.1,594.9,493.2,596.3,493.2,598.9z M487,598.9c0,0.9,0.6,1.7,1.7,1.7s1.7-0.7,1.7-1.7c0-0.9-0.6-1.7-1.7-1.7
			S487,598,487,598.9z"/>
		<path id="XMLID_1780_" class="st4" d="M494.3,590.5h2.7v5.4c0.5-0.6,1.5-1,2.3-1c2.3,0,3.8,1.9,3.8,4c0,2.2-1.6,4.1-3.8,4.1
			c-0.9,0-1.8-0.3-2.3-1.1l0,0v0.9h-2.7V590.5z M496.9,598.9c0,0.9,0.6,1.7,1.7,1.7s1.7-0.7,1.7-1.7c0-0.9-0.6-1.7-1.7-1.7
			C497.6,597.2,496.9,598,496.9,598.9z"/>
		<path id="XMLID_1777_" class="st4" d="M512.8,602.7h-2.7v-0.9l0,0c-0.5,0.8-1.4,1.1-2.3,1.1c-2.3,0-3.8-1.9-3.8-4.1
			c0-2.2,1.6-4,3.8-4c0.9,0,1.8,0.3,2.3,1v-0.7h2.7V602.7L512.8,602.7z M506.7,598.9c0,0.9,0.6,1.7,1.7,1.7s1.7-0.7,1.7-1.7
			c0-0.9-0.6-1.7-1.7-1.7C507.3,597.2,506.7,598,506.7,598.9z"/>
		<path id="XMLID_1775_" class="st4" d="M520,597.6c-0.4-0.3-0.9-0.5-1.4-0.5c-1,0-1.9,0.8-1.9,1.9c0,1.1,0.8,1.9,1.9,1.9
			c0.5,0,1-0.2,1.3-0.5v2.3c-0.6,0.3-1.3,0.4-1.9,0.4c-2.3,0-4.1-1.6-4.1-3.9c0-2.4,1.9-4.1,4.2-4.1c0.6,0,1.3,0.2,1.8,0.5
			L520,597.6L520,597.6z"/>
		<path id="XMLID_1772_" class="st4" d="M524.5,592.2c0,0.9-0.7,1.5-1.5,1.5c-0.9,0-1.5-0.7-1.5-1.5c0-0.9,0.7-1.5,1.5-1.5
			S524.5,591.4,524.5,592.2z M524.4,602.7h-2.7v-7.6h2.7V602.7z"/>
		<path id="XMLID_1748_" class="st4" d="M534.6,598.9c0,2.6-2.1,4-4.5,4s-4.5-1.4-4.5-4s2.1-4.1,4.5-4.1
			C532.5,594.9,534.6,596.3,534.6,598.9z M528.4,598.9c0,0.9,0.6,1.7,1.7,1.7c1.1,0,1.7-0.7,1.7-1.7c0-0.9-0.6-1.7-1.7-1.7
			S528.4,598,528.4,598.9z"/>
		<path id="XMLID_1746_" class="st4" d="M538.5,596.1L538.5,596.1c0.6-0.9,1.4-1.3,2.4-1.3c2,0,2.8,1.3,2.8,3.1v4.7H541V599
			c0-0.7,0.2-2-1.2-2c-1.1,0-1.4,0.8-1.4,1.7v3.9h-2.7V595h2.7L538.5,596.1L538.5,596.1z"/>
	</g>
</g>
<rect id="XMLID_155_" x="388.4" y="655" class="st3" width="222.9" height="100.9"/>
<g id="XMLID_25128_">
	<g>
		<path id="XMLID_1130_" class="st4" d="M436.8,681.6c-0.6-0.8-1.6-1.3-2.5-1.3c-1.8,0-3,1.3-3,3.1c0,1.7,1.2,3.1,3,3.1
			c0.9,0,1.9-0.5,2.5-1.2v3.4c-0.9,0.3-1.6,0.5-2.6,0.5c-1.6,0-3.1-0.6-4.1-1.6c-1.3-1.1-1.8-2.6-1.8-4.2c0-1.5,0.5-3,1.6-4.1
			s2.7-1.8,4.2-1.8c0.9,0,1.8,0.2,2.7,0.5L436.8,681.6L436.8,681.6z"/>
		<path id="XMLID_1127_" class="st4" d="M441.5,687.1l-0.8,2h-3.1l4.3-11.1h3.1l4.1,11.1H446l-0.7-2H441.5z M443.5,681.3
			L443.5,681.3l-1.3,3.5h2.4L443.5,681.3z"/>
		<path id="XMLID_1125_" class="st4" d="M455.5,677.9v7.5c0,2.3-1.3,3.9-3.7,3.9c-1.3,0-2.2-0.6-2.9-1.6l1.6-1.7
			c0.3,0.5,0.8,0.9,1.2,0.9c0.9,0,0.9-1,0.9-1.6v-7.4L455.5,677.9L455.5,677.9z"/>
		<path id="XMLID_1122_" class="st4" d="M460.2,687.1l-0.8,2h-3.1l4.3-11.1h3.1l4.1,11.1h-3.1l-0.7-2H460.2z M462.2,681.3
			L462.2,681.3l-1.3,3.5h2.4L462.2,681.3z"/>
		<path id="XMLID_1120_" class="st4" d="M478.5,684.7l2.7-6.7h3.1l-4.8,11.1h-2.3l-4.7-11.1h3.1L478.5,684.7z"/>
		<path id="XMLID_1117_" class="st4" d="M488,680.4v1.9h3.3v2.4H488v1.9h3.4v2.4h-6.3v-11.1h6.3v2.4L488,680.4L488,680.4z"/>
		<path id="XMLID_1115_" class="st4" d="M493.2,677.9h2.9l5.3,6.8l0,0v-6.8h2.9V689h-2.9l-5.3-6.8l0,0v6.8h-2.9V677.9L493.2,677.9z"
			/>
		<path id="XMLID_1113_" class="st4" d="M510.6,689h-2.9v-8.7h-2.4v-2.4h7.7v2.4h-2.4V689L510.6,689z"/>
		<path id="XMLID_1110_" class="st4" d="M516,687.1l-0.8,2h-3.1l4.3-11.1h3.1l4.2,11.1h-3.1l-0.7-2H516z M518,681.3L518,681.3
			l-1.3,3.5h2.4L518,681.3z"/>
		<path id="XMLID_1108_" class="st4" d="M524.7,677.9h2.9l5.3,6.8l0,0v-6.8h2.9V689h-2.9l-5.3-6.8l0,0v6.8h-2.9V677.9z"/>
		<path id="XMLID_1106_" class="st4" d="M540.6,689h-2.9v-11.1h2.9V689z"/>
		<path id="XMLID_1104_" class="st4" d="M545.3,686.5h3.4v2.4h-6.3v-11.1h2.9L545.3,686.5L545.3,686.5z"/>
		<path id="XMLID_1102_" class="st4" d="M552.6,686.5h3.4v2.4h-6.3v-11.1h2.9L552.6,686.5L552.6,686.5z"/>
		<path id="XMLID_1099_" class="st4" d="M559.8,687.1l-0.8,2h-3l4.3-11.1h3.1l4.1,11.1h-3.1l-0.7-2H559.8z M561.8,681.3L561.8,681.3
			l-1.3,3.5h2.4L561.8,681.3z"/>
		<path id="XMLID_1097_" class="st4" d="M430.5,695.5v6.3c0,1.4-0.1,2.8-1.2,3.9c-0.9,0.9-2.4,1.3-3.7,1.3c-1.3,0-2.7-0.3-3.7-1.3
			c-1.1-1.1-1.2-2.5-1.2-3.9v-6.3h2.9v5.9c0,1.4,0.1,3.1,2,3.1s2-1.6,2-3.1v-5.9H430.5z"/>
		<path id="XMLID_1095_" class="st4" d="M432.3,695.5h2.9l5.3,6.8l0,0v-6.8h2.9v11.1h-2.9l-5.3-6.8l0,0v6.8h-2.9V695.5z"/>
		<path id="XMLID_1093_" class="st4" d="M448.2,706.6h-2.9v-11.1h2.9V706.6z"/>
		<path id="XMLID_1091_" class="st4" d="M458,699.3c-0.6-0.8-1.6-1.3-2.5-1.3c-1.8,0-3,1.3-3,3.1s1.2,3.1,3,3.1
			c0.9,0,1.9-0.5,2.5-1.2v3.4c-0.9,0.3-1.6,0.5-2.6,0.5c-1.6,0-3.1-0.6-4.1-1.6c-1.3-1.1-1.8-2.6-1.8-4.2c0-1.5,0.5-3,1.6-4.1
			s2.7-1.8,4.2-1.8c0.9,0,1.8,0.2,2.7,0.5L458,699.3L458,699.3z"/>
		<path id="XMLID_1088_" class="st4" d="M462.7,704.8l-0.8,2h-3.1l4.3-11.1h3.1l4.2,11.1h-3.1l-0.7-2H462.7z M464.7,699L464.7,699
			l-1.3,3.5h2.4L464.7,699z"/>
		<path id="XMLID_1086_" class="st4" d="M482.4,698.4c-0.5-0.5-1.2-0.7-1.9-0.7c-0.5,0-1.3,0.3-1.3,0.9c0,0.6,0.8,0.9,1.3,1.1
			l0.7,0.2c1.6,0.5,2.7,1.3,2.7,3.1c0,1.1-0.2,2.3-1.2,3c-0.9,0.7-2,1-3.1,1c-1.4,0-2.7-0.5-3.9-1.3l1.3-2.3
			c0.7,0.6,1.6,1.2,2.6,1.2c0.7,0,1.4-0.3,1.4-1.1s-1.2-1.1-1.7-1.3c-1.8-0.5-3-1-3-3.1c0-2.3,1.6-3.8,3.8-3.8
			c1.1,0,2.5,0.4,3.4,0.9L482.4,698.4z"/>
		<path id="XMLID_1084_" class="st4" d="M495.1,695.5v6.3c0,1.4-0.1,2.8-1.2,3.9c-0.9,0.9-2.4,1.3-3.7,1.3c-1.3,0-2.7-0.3-3.7-1.3
			c-1.1-1.1-1.2-2.5-1.2-3.9v-6.3h2.9v5.9c0,1.4,0.1,3.1,2,3.1s2-1.6,2-3.1v-5.9H495.1z"/>
		<path id="XMLID_1080_" class="st4" d="M496.9,706.6v-11.1h4.1c2,0,3.3,0.8,3.3,2.9c0,1-0.3,1.8-1.3,2.3l0,0
			c1.6,0.2,2.3,1.3,2.3,2.8c0,2.3-2,3.1-4,3.1H496.9z M499.8,699.9h0.3c0.8,0,1.6-0.2,1.6-1.1c0-1-0.9-1.1-1.6-1.1h-0.2L499.8,699.9
			L499.8,699.9z M499.8,704.4h0.4c0.9,0,2.3,0.1,2.3-1.2s-1.4-1.2-2.3-1.2h-0.3v2.4H499.8z"/>
		<path id="XMLID_1077_" class="st4" d="M509.7,704.8l-0.8,2h-3.1l4.3-11.1h3.1l4.2,11.1h-3.1l-0.7-2H509.7z M511.7,699L511.7,699
			l-1.3,3.5h2.4L511.7,699z"/>
		<path id="XMLID_1075_" class="st4" d="M521.3,704.2h3.4v2.4h-6.3v-11.1h2.9L521.3,704.2L521.3,704.2z"/>
		<path id="XMLID_1073_" class="st4" d="M533.6,699.3c-0.6-0.8-1.6-1.3-2.5-1.3c-1.8,0-3,1.3-3,3.1s1.2,3.1,3,3.1
			c0.9,0,1.9-0.5,2.5-1.2v3.4c-0.9,0.3-1.6,0.5-2.6,0.5c-1.6,0-3.1-0.6-4.1-1.6c-1.3-1.1-1.8-2.6-1.8-4.2c0-1.5,0.5-3,1.6-4.1
			s2.7-1.8,4.2-1.8c0.9,0,1.8,0.2,2.7,0.5L533.6,699.3L533.6,699.3z"/>
		<path id="XMLID_1070_" class="st4" d="M538.2,704.8l-0.8,2h-3.1l4.3-11.1h3.1l4.2,11.1H543l-0.7-2H538.2z M540.3,699L540.3,699
			l-1.3,3.5h2.4L540.3,699z"/>
		<path id="XMLID_1068_" class="st4" d="M549.8,704.2h3.4v2.4h-6.3v-11.1h2.9L549.8,704.2L549.8,704.2z"/>
		<path id="XMLID_1065_" class="st4" d="M554.3,695.5h4.1c3.1,0,5.6,2.4,5.6,5.6c0,3.1-2.6,5.6-5.6,5.6h-4.1V695.5z M557.1,704.2
			h0.6c1.7,0,3.2-0.9,3.2-3.1c0-2-1.3-3.1-3.2-3.1H557L557.1,704.2L557.1,704.2z"/>
		<path id="XMLID_1063_" class="st4" d="M568.2,706.6h-2.9v-11.1h2.9V706.6z"/>
		<path id="XMLID_1060_" class="st4" d="M572.9,704.8l-0.8,2H569l4.3-11.1h3.1l4.1,11.1h-3.1l-0.7-2H572.9z M574.9,699L574.9,699
			l-1.3,3.5h2.4L574.9,699z"/>
		<path id="XMLID_1058_" class="st4" d="M481.3,717c-0.6-0.8-1.6-1.3-2.5-1.3c-1.8,0-3,1.3-3,3.1c0,1.7,1.2,3.1,3,3.1
			c0.9,0,1.9-0.5,2.5-1.2v3.4c-0.9,0.3-1.6,0.5-2.6,0.5c-1.6,0-3.1-0.6-4.1-1.6c-1.3-1.1-1.8-2.6-1.8-4.2c0-1.5,0.5-3,1.6-4.1
			s2.7-1.8,4.2-1.8c0.9,0,1.8,0.2,2.7,0.5L481.3,717L481.3,717z"/>
		<path id="XMLID_1055_" class="st4" d="M494.7,718.6c0,3.6-2.6,6.1-6.2,6.1s-6.2-2.5-6.2-6.1c0-3.4,3-5.7,6.2-5.7
			S494.7,715.2,494.7,718.6z M485.5,718.6c0,1.9,1.4,3.3,3.1,3.3s3.1-1.4,3.1-3.3c0-1.6-1.4-2.9-3.1-2.9
			C486.9,715.7,485.5,717,485.5,718.6z"/>
		<path id="XMLID_1051_" class="st4" d="M496.1,724.4v-11.1h4.1c2,0,3.3,0.8,3.3,2.9c0,1-0.3,1.8-1.3,2.3l0,0
			c1.6,0.2,2.3,1.3,2.3,2.8c0,2.3-2,3.1-4,3.1H496.1z M499,717.6h0.3c0.8,0,1.6-0.2,1.6-1.1c0-1-0.9-1.1-1.6-1.1H499V717.6
			L499,717.6z M499,722.1h0.4c0.9,0,2.3,0.1,2.3-1.2s-1.4-1.2-2.3-1.2H499V722.1L499,722.1z"/>
		<path id="XMLID_1048_" class="st4" d="M515.3,724.4h-3.6l-2.7-4.3l0,0v4.3h-2.9v-11.1h4.3c2.2,0,3.8,1,3.8,3.4
			c0,1.6-0.9,2.9-2.4,3.1L515.3,724.4z M509,718.2h0.3c0.9,0,2-0.2,2-1.4s-1.1-1.4-2-1.4H509V718.2z"/>
		<path id="XMLID_1045_" class="st4" d="M527.8,718.6c0,3.6-2.6,6.1-6.2,6.1c-3.6,0-6.2-2.5-6.2-6.1c0-3.4,3-5.7,6.2-5.7
			S527.8,715.2,527.8,718.6z M518.5,718.6c0,1.9,1.4,3.3,3.1,3.3s3.1-1.4,3.1-3.3c0-1.6-1.4-2.9-3.1-2.9
			C519.9,715.7,518.5,717,518.5,718.6z"/>
	</g>
</g>
<rect id="XMLID_159_" x="388.4" y="785.8" class="st3" width="222.9" height="100.9"/>
<g id="XMLID_25008_">
	<g>
		<path id="XMLID_1673_" class="st4" d="M421.7,817.9l-0.8,2h-3.1l4.3-11.1h3.1l4.1,11.1h-3.1l-0.7-2H421.7z M423.8,812.1
			L423.8,812.1l-1.3,3.5h2.4L423.8,812.1z"/>
		<path id="XMLID_1670_" class="st4" d="M439.7,819.7h-3.6l-2.7-4.3l0,0v4.3h-2.9v-11.1h4.3c2.2,0,3.8,1,3.8,3.4
			c0,1.6-0.9,2.9-2.4,3.1L439.7,819.7z M433.3,813.6h0.3c0.9,0,2-0.2,2-1.4s-1.1-1.4-2-1.4h-0.3V813.6z"/>
		<path id="XMLID_1668_" class="st4" d="M443.3,811.1v1.9h3.3v2.4h-3.3v1.9h3.4v2.4h-6.3v-11.1h6.3v2.4L443.3,811.1L443.3,811.1z"/>
		<path id="XMLID_1665_" class="st4" d="M451.4,817.9l-0.8,2h-3.1l4.3-11.1h3.1l4.2,11.1H456l-0.7-2H451.4z M453.4,812.1
			L453.4,812.1l-1.3,3.5h2.4L453.4,812.1z"/>
		<path id="XMLID_1663_" class="st4" d="M469.5,819.7h-2.9V811h-2.4v-2.4h7.7v2.4h-2.4L469.5,819.7L469.5,819.7z"/>
		<path id="XMLID_1661_" class="st4" d="M475.9,811.1v1.9h3.3v2.4h-3.3v1.9h3.4v2.4H473v-11.1h6.3v2.4L475.9,811.1L475.9,811.1z"/>
		<path id="XMLID_1659_" class="st4" d="M489,812.4c-0.6-0.8-1.6-1.3-2.5-1.3c-1.8,0-3,1.3-3,3.1c0,1.7,1.2,3.1,3,3.1
			c0.9,0,1.9-0.5,2.5-1.2v3.4c-0.9,0.3-1.6,0.5-2.6,0.5c-1.6,0-3.1-0.6-4.1-1.6c-1.3-1.1-1.8-2.6-1.8-4.2c0-1.5,0.5-3,1.6-4.1
			s2.7-1.8,4.2-1.8c0.9,0,1.8,0.2,2.7,0.5L489,812.4L489,812.4z"/>
		<path id="XMLID_1657_" class="st4" d="M490.8,808.6h2.9l5.3,6.8l0,0v-6.8h2.9v11.1H499l-5.3-6.8l0,0v6.8h-2.9L490.8,808.6
			L490.8,808.6z"/>
		<path id="XMLID_1655_" class="st4" d="M506.6,819.7h-2.9v-11.1h2.9V819.7z"/>
		<path id="XMLID_1653_" class="st4" d="M516.5,812.4c-0.6-0.8-1.6-1.3-2.5-1.3c-1.8,0-3,1.3-3,3.1c0,1.7,1.2,3.1,3,3.1
			c0.9,0,1.9-0.5,2.5-1.2v3.4c-0.9,0.3-1.6,0.5-2.6,0.5c-1.6,0-3.1-0.6-4.1-1.6c-1.3-1.1-1.8-2.6-1.8-4.2c0-1.5,0.5-3,1.6-4.1
			s2.7-1.8,4.2-1.8c0.9,0,1.8,0.2,2.7,0.5L516.5,812.4L516.5,812.4z"/>
		<path id="XMLID_1650_" class="st4" d="M530,814c0,3.6-2.6,6.1-6.2,6.1c-3.6,0-6.2-2.5-6.2-6.1c0-3.4,3-5.7,6.2-5.7
			S530,810.7,530,814z M520.7,814c0,1.9,1.4,3.3,3.1,3.3c1.7,0,3.1-1.4,3.1-3.3c0-1.6-1.4-2.9-3.1-2.9S520.7,812.5,520.7,814z"/>
		<path id="XMLID_1648_" class="st4" d="M537.4,811.5c-0.5-0.5-1.2-0.7-1.9-0.7c-0.5,0-1.3,0.3-1.3,0.9c0,0.6,0.8,0.9,1.3,1.1
			l0.7,0.2c1.6,0.5,2.7,1.3,2.7,3.1c0,1.1-0.2,2.3-1.2,3c-0.9,0.7-2,1-3.1,1c-1.4,0-2.7-0.5-3.9-1.3l1.3-2.3
			c0.7,0.6,1.6,1.2,2.6,1.2c0.7,0,1.4-0.3,1.4-1.1s-1.2-1.1-1.7-1.3c-1.8-0.5-3-1-3-3.1c0-2.3,1.6-3.8,3.8-3.8
			c1.1,0,2.5,0.4,3.4,0.9L537.4,811.5z"/>
		<path id="XMLID_1646_" class="st4" d="M547.6,807.5l-5.6,13.6h-2.1l5.6-13.6H547.6z"/>
		<path id="XMLID_1643_" class="st4" d="M551.8,817.9l-0.8,2h-3.1l4.3-11.1h3.1l4.2,11.1h-3.1l-0.7-2H551.8z M553.8,812.1
			L553.8,812.1l-1.3,3.5h2.4L553.8,812.1z"/>
		<path id="XMLID_1640_" class="st4" d="M569.7,819.7h-3.6l-2.7-4.3l0,0v4.3h-2.9v-11.1h4.3c2.2,0,3.8,1,3.8,3.4
			c0,1.6-0.9,2.9-2.4,3.1L569.7,819.7z M563.3,813.6h0.3c0.9,0,2-0.2,2-1.4s-1.1-1.4-2-1.4h-0.3V813.6z"/>
		<path id="XMLID_1637_" class="st4" d="M580,820.5l-0.9-1c-0.9,0.5-1.9,0.7-3.1,0.7c-3.6,0-6.2-2.5-6.2-6.1c0-3.4,3-5.7,6.2-5.7
			c3.4,0,6.2,2.3,6.2,5.9c0,1.5-0.5,2.7-1.4,3.9l1.9,1.9L580,820.5z M578.7,815.9c0.3-0.5,0.5-1.1,0.5-1.6c0-1.6-1.4-3.2-3.1-3.2
			c-1.7,0-3.1,1.4-3.1,2.9c0,1.9,1.4,3.3,3.1,3.3c0.3,0,0.6-0.1,0.9-0.2l-1.8-1.8l2.7-0.3L578.7,815.9z"/>
		<path id="XMLID_1635_" class="st4" d="M452.1,833.1l2.7-6.7h3.1l-4.8,11.1h-2.3l-4.7-11.1h3.1L452.1,833.1z"/>
		<path id="XMLID_1632_" class="st4" d="M465.2,834.1h-5.6c0,1.1,0.5,1.6,1.6,1.6c0.5,0,1-0.2,1.3-0.7h2.6c-0.2,0.9-0.7,1.6-1.4,2
			c-0.7,0.4-1.6,0.6-2.4,0.6c-2.5,0-4.4-1.4-4.4-4c0-2.5,1.7-4.1,4.2-4.1c2.7,0,4.1,1.6,4.1,4.2L465.2,834.1L465.2,834.1z
			 M462.8,832.6c-0.2-0.7-0.8-1.2-1.5-1.2c-0.8,0-1.4,0.4-1.6,1.2H462.8z"/>
		<path id="XMLID_1630_" class="st4" d="M469.2,831.2L469.2,831.2c0.5-0.9,1.4-1.3,2.5-1.3h0.5v2.6c-0.4-0.2-0.7-0.2-1.2-0.2
			c-1.5,0-1.9,1-1.9,2.3v3.1h-2.7v-7.6h2.7L469.2,831.2L469.2,831.2z"/>
		<path id="XMLID_1627_" class="st4" d="M476,827c0,0.9-0.7,1.5-1.5,1.5c-0.9,0-1.5-0.7-1.5-1.5c0-0.9,0.7-1.5,1.5-1.5
			S476,826.2,476,827z M475.9,837.5h-2.7v-7.6h2.7V837.5z"/>
		<path id="XMLID_1623_" class="st4" d="M480.5,837.5h-2.7v-5.3h-1V830h0.9v-0.9c0-1,0-1.8,0.8-2.7c0.6-0.8,1.6-1.2,2.7-1.2
			c0.4,0,0.8,0.1,1.2,0.2v2.3c-0.3-0.2-0.6-0.2-0.9-0.2c-0.7,0-0.9,0.4-0.9,1.3v1.3h1.9v2.2h-1.9L480.5,837.5L480.5,837.5z M486,827
			c0,0.9-0.7,1.5-1.5,1.5c-0.9,0-1.5-0.7-1.5-1.5c0-0.9,0.7-1.5,1.5-1.5S486,826.2,486,827z M485.9,837.5h-2.7v-7.6h2.7V837.5z"/>
		<path id="XMLID_1621_" class="st4" d="M493.1,832.3c-0.4-0.3-0.9-0.5-1.4-0.5c-1,0-1.9,0.8-1.9,1.9c0,1.1,0.8,1.9,1.9,1.9
			c0.5,0,1-0.2,1.3-0.5v2.3c-0.6,0.3-1.3,0.4-1.9,0.4c-2.3,0-4.1-1.6-4.1-3.9c0-2.4,1.9-4.1,4.2-4.1c0.6,0,1.3,0.2,1.8,0.5
			L493.1,832.3L493.1,832.3z"/>
		<path id="XMLID_1618_" class="st4" d="M503,837.5h-2.7v-0.9l0,0c-0.5,0.8-1.4,1.1-2.3,1.1c-2.3,0-3.8-1.9-3.8-4.1
			c0-2.2,1.6-4,3.8-4c0.9,0,1.8,0.3,2.3,1V830h2.7V837.5z M497,833.7c0,0.9,0.6,1.7,1.7,1.7s1.7-0.7,1.7-1.7c0-0.9-0.6-1.7-1.7-1.7
			S497,832.7,497,833.7z"/>
		<path id="XMLID_1616_" class="st4" d="M510.2,832.3c-0.4-0.3-0.9-0.5-1.4-0.5c-1,0-1.9,0.8-1.9,1.9c0,1.1,0.8,1.9,1.9,1.9
			c0.5,0,1-0.2,1.3-0.5v2.3c-0.6,0.3-1.3,0.4-1.9,0.4c-2.3,0-4.1-1.6-4.1-3.9c0-2.4,1.9-4.1,4.2-4.1c0.6,0,1.3,0.2,1.8,0.5
			L510.2,832.3L510.2,832.3z"/>
		<path id="XMLID_1613_" class="st4" d="M514.8,827c0,0.9-0.7,1.5-1.5,1.5c-0.9,0-1.5-0.7-1.5-1.5c0-0.9,0.7-1.5,1.5-1.5
			S514.8,826.2,514.8,827z M514.6,837.5h-2.7v-7.6h2.7V837.5z"/>
		<path id="XMLID_1609_" class="st4" d="M524.9,833.7c0,2.6-2.1,4-4.5,4s-4.5-1.4-4.5-4s2.1-4.1,4.5-4.1
			C522.8,829.7,524.9,831.1,524.9,833.7z M518.7,833.7c0,0.9,0.6,1.7,1.7,1.7s1.7-0.7,1.7-1.7c0-0.9-0.6-1.7-1.7-1.7
			S518.7,832.7,518.7,833.7z M520.1,828.8l-1.2-0.9l2.1-2.5l1.6,1.2L520.1,828.8z"/>
		<path id="XMLID_1607_" class="st4" d="M528.8,830.9L528.8,830.9c0.6-0.9,1.4-1.3,2.4-1.3c2,0,2.8,1.3,2.8,3.1v4.7h-2.7v-3.7
			c0-0.7,0.2-2-1.2-2c-1.1,0-1.4,0.8-1.4,1.7v3.9H526v-7.6h2.7v1.2H528.8z"/>
		<path id="XMLID_1604_" class="st4" d="M548.7,834.1h-5.6c0,1.1,0.5,1.6,1.6,1.6c0.5,0,1-0.2,1.3-0.7h2.6c-0.2,0.9-0.7,1.6-1.4,2
			s-1.6,0.6-2.4,0.6c-2.5,0-4.4-1.4-4.4-4c0-2.5,1.7-4.1,4.2-4.1c2.7,0,4.1,1.6,4.1,4.2L548.7,834.1L548.7,834.1z M546.2,832.6
			c-0.2-0.7-0.8-1.2-1.5-1.2c-0.8,0-1.4,0.4-1.6,1.2H546.2z"/>
		<path id="XMLID_1601_" class="st4" d="M416.4,844.7c0,0.9-0.7,1.5-1.5,1.5c-0.9,0-1.5-0.7-1.5-1.5c0-0.9,0.7-1.5,1.5-1.5
			C415.6,843.2,416.4,843.8,416.4,844.7z M416.2,855.2h-2.7v-7.6h2.7V855.2L416.2,855.2z"/>
		<path id="XMLID_1599_" class="st4" d="M420.6,848.5L420.6,848.5c0.6-0.9,1.4-1.2,2.4-1.2c1.1,0,2,0.5,2.6,1.4
			c0.5-0.9,1.6-1.4,2.6-1.4c1.9,0,2.6,1.3,2.6,3v4.8h-2.7v-3.6c0-0.8,0-2-1.1-2c-1.3,0-1.3,1.2-1.3,2v3.6H423v-3.6
			c0-0.9,0-2.1-1.2-2.1s-1.2,1.3-1.2,2.1v3.6h-2.7v-7.6h2.7L420.6,848.5L420.6,848.5L420.6,848.5z"/>
		<path id="XMLID_1596_" class="st4" d="M435.1,848.5L435.1,848.5c0.5-0.8,1.4-1.1,2.3-1.1c2.3,0,3.8,1.9,3.8,4.1c0,2.2-1.6,4-3.8,4
			c-0.9,0-1.8-0.3-2.3-0.9v4.5h-2.7v-11.3h2.7V848.5L435.1,848.5z M435,851.4c0,0.9,0.6,1.7,1.7,1.7s1.7-0.7,1.7-1.7
			c0-0.9-0.6-1.7-1.7-1.7C435.7,849.6,435,850.4,435,851.4z"/>
		<path id="XMLID_1594_" class="st4" d="M445.2,848.8L445.2,848.8c0.5-0.9,1.4-1.3,2.5-1.3h0.5v2.6c-0.4-0.2-0.7-0.2-1.2-0.2
			c-1.5,0-1.9,1-1.9,2.3v3.1h-2.7v-7.6h2.7v1.1H445.2z"/>
		<path id="XMLID_1591_" class="st4" d="M457,851.8h-5.6c0,1.1,0.5,1.6,1.6,1.6c0.5,0,1-0.2,1.3-0.7h2.6c-0.2,0.9-0.7,1.6-1.4,2
			c-0.7,0.4-1.6,0.6-2.4,0.6c-2.5,0-4.4-1.4-4.4-4c0-2.5,1.7-4.1,4.2-4.1c2.7,0,4.1,1.6,4.1,4.2L457,851.8L457,851.8z M454.5,850.3
			c-0.2-0.7-0.8-1.2-1.5-1.2c-0.8,0-1.4,0.4-1.6,1.2H454.5z"/>
		<path id="XMLID_1589_" class="st4" d="M463.2,849.6c-0.4-0.2-1-0.4-1.4-0.4c-0.3,0-0.9,0.2-0.9,0.5c0,0.5,0.9,0.6,1.2,0.6
			c1.3,0.2,2.2,0.9,2.2,2.3c0,2-1.8,2.8-3.6,2.8c-1.1,0-2.1-0.3-3.1-0.9l0.9-1.9c0.5,0.4,1.5,0.8,2.1,0.8c0.3,0,0.9-0.2,0.9-0.5
			c0-0.6-0.9-0.6-1.6-0.9c-0.9-0.2-1.6-0.6-1.6-2c0-1.9,1.6-2.7,3.4-2.7c0.9,0,1.7,0.2,2.5,0.5L463.2,849.6z"/>
		<path id="XMLID_1586_" class="st4" d="M468.6,844.7c0,0.9-0.7,1.5-1.5,1.5c-0.9,0-1.5-0.7-1.5-1.5c0-0.9,0.7-1.5,1.5-1.5
			S468.6,843.8,468.6,844.7z M468.4,855.2h-2.7v-7.6h2.7V855.2z"/>
		<path id="XMLID_1582_" class="st4" d="M478.8,851.4c0,2.6-2.1,4-4.5,4s-4.5-1.4-4.5-4s2.1-4.1,4.5-4.1
			C476.7,847.4,478.8,848.8,478.8,851.4z M472.5,851.4c0,0.9,0.6,1.7,1.7,1.7s1.7-0.7,1.7-1.7c0-0.9-0.6-1.7-1.7-1.7
			C473.1,849.6,472.5,850.4,472.5,851.4z M473.9,846.5l-1.2-0.9l2.1-2.5l1.6,1.2L473.9,846.5z"/>
		<path id="XMLID_1580_" class="st4" d="M482.7,848.5L482.7,848.5c0.6-0.9,1.4-1.3,2.4-1.3c2,0,2.8,1.3,2.8,3.1v4.7h-2.7v-3.7
			c0-0.7,0.2-2-1.2-2c-1.1,0-1.4,0.8-1.4,1.7v3.9h-2.7v-7.6h2.7L482.7,848.5L482.7,848.5z"/>
		<path id="XMLID_1577_" class="st4" d="M500.4,854.3L500.4,854.3c-0.5,0.8-1.4,1.1-2.3,1.1c-2.3,0-3.8-1.9-3.8-4.1
			c0-2.2,1.6-4,3.8-4c0.9,0,1.8,0.3,2.3,1V843h2.7v12.2h-2.7V854.3L500.4,854.3z M497.1,851.4c0,0.9,0.6,1.7,1.7,1.7
			s1.7-0.7,1.7-1.7c0-0.9-0.6-1.7-1.7-1.7C497.7,849.6,497.1,850.4,497.1,851.4z"/>
		<path id="XMLID_1574_" class="st4" d="M512.6,851.8H507c0,1.1,0.5,1.6,1.6,1.6c0.5,0,1-0.2,1.3-0.7h2.6c-0.2,0.9-0.7,1.6-1.4,2
			c-0.7,0.4-1.6,0.6-2.4,0.6c-2.5,0-4.4-1.4-4.4-4c0-2.5,1.7-4.1,4.2-4.1c2.7,0,4.1,1.6,4.1,4.2V851.8z M510.1,850.3
			c-0.2-0.7-0.8-1.2-1.5-1.2c-0.8,0-1.4,0.4-1.6,1.2H510.1z"/>
		<path id="XMLID_1571_" class="st4" d="M521.7,844.7c0,0.9-0.7,1.5-1.5,1.5c-0.9,0-1.5-0.7-1.5-1.5c0-0.9,0.7-1.5,1.5-1.5
			S521.7,843.8,521.7,844.7z M521.6,855.2h-2.7v-7.6h2.7V855.2z"/>
		<path id="XMLID_1569_" class="st4" d="M526,848.5L526,848.5c0.6-0.9,1.4-1.3,2.4-1.3c2,0,2.8,1.3,2.8,3.1v4.7h-2.7v-3.7
			c0-0.7,0.2-2-1.2-2c-1.1,0-1.4,0.8-1.4,1.7v3.9h-2.7v-7.6h2.7L526,848.5L526,848.5z"/>
		<path id="XMLID_1567_" class="st4" d="M536,855.2h-2.7v-5.3h-0.9v-2.2h0.9v-0.9c0-1,0-1.8,0.8-2.7c0.6-0.8,1.6-1.2,2.7-1.2
			c0.4,0,0.8,0.1,1.2,0.2v2.3c-0.3-0.2-0.6-0.2-0.9-0.2c-0.7,0-0.9,0.4-0.9,1.3v1.3h1.9v2.2H536V855.2L536,855.2z"/>
		<path id="XMLID_1564_" class="st4" d="M547.3,851.4c0,2.6-2.1,4-4.5,4s-4.5-1.4-4.5-4s2.1-4.1,4.5-4.1
			C545.2,847.4,547.3,848.8,547.3,851.4z M541,851.4c0,0.9,0.6,1.7,1.7,1.7c1.1,0,1.7-0.7,1.7-1.7c0-0.9-0.6-1.7-1.7-1.7
			C541.7,849.6,541,850.4,541,851.4z"/>
		<path id="XMLID_1562_" class="st4" d="M551.2,848.8L551.2,848.8c0.5-0.9,1.4-1.3,2.5-1.3h0.5v2.6c-0.4-0.2-0.7-0.2-1.2-0.2
			c-1.5,0-1.9,1-1.9,2.3v3.1h-2.7v-7.6h2.7v1.1H551.2z"/>
		<path id="XMLID_1560_" class="st4" d="M557.9,848.5L557.9,848.5c0.6-0.9,1.4-1.2,2.4-1.2c1.1,0,2,0.5,2.6,1.4
			c0.5-0.9,1.6-1.4,2.6-1.4c1.9,0,2.6,1.3,2.6,3v4.8h-2.7v-3.6c0-0.8,0-2-1.1-2c-1.3,0-1.3,1.2-1.3,2v3.6h-2.7v-3.6
			c0-0.9,0-2.1-1.2-2.1s-1.2,1.3-1.2,2.1v3.6h-2.7v-7.6h2.7L557.9,848.5L557.9,848.5L557.9,848.5z"/>
		<path id="XMLID_1557_" class="st4" d="M577.6,851.8H572c0,1.1,0.5,1.6,1.6,1.6c0.5,0,1-0.2,1.3-0.7h2.6c-0.2,0.9-0.7,1.6-1.4,2
			s-1.6,0.6-2.4,0.6c-2.5,0-4.4-1.4-4.4-4c0-2.5,1.7-4.1,4.2-4.1c2.7,0,4.1,1.6,4.1,4.2L577.6,851.8L577.6,851.8z M575.1,850.3
			c-0.2-0.7-0.8-1.2-1.5-1.2c-0.8,0-1.4,0.4-1.6,1.2H575.1z"/>
	</g>
</g>
<rect id="XMLID_163_" x="388.4" y="916.7" class="st3" width="222.9" height="100.9"/>
<g id="XMLID_24949_">
	<g>
		<path id="XMLID_500_" class="st4" d="M440.4,954.8v7.5c0,2.3-1.3,3.9-3.7,3.9c-1.3,0-2.2-0.6-2.9-1.6l1.6-1.7
			c0.3,0.5,0.8,0.9,1.2,0.9c0.9,0,0.9-1,0.9-1.6v-7.4L440.4,954.8L440.4,954.8z"/>
		<path id="XMLID_498_" class="st4" d="M445.1,957.3v1.9h3.3v2.4h-3.3v1.9h3.4v2.4h-6.3v-11.1h6.3v2.4L445.1,957.3L445.1,957.3z"/>
		<path id="XMLID_496_" class="st4" d="M453.2,957.3v1.9h3.2v2.4h-3.2v4.4h-2.9v-11.1h6.4v2.4L453.2,957.3L453.2,957.3z"/>
		<path id="XMLID_494_" class="st4" d="M461.2,957.3v1.9h3.3v2.4h-3.3v1.9h3.4v2.4h-6.3v-11.1h6.3v2.4L461.2,957.3L461.2,957.3z"/>
		<path id="XMLID_491_" class="st4" d="M471.5,954.8h4.1c3.1,0,5.6,2.4,5.6,5.6c0,3.1-2.6,5.6-5.6,5.6h-4.1V954.8z M474.3,963.4h0.6
			c1.7,0,3.2-0.9,3.2-3.1c0-2-1.3-3.1-3.2-3.1h-0.7L474.3,963.4L474.3,963.4z"/>
		<path id="XMLID_489_" class="st4" d="M485.4,957.3v1.9h3.3v2.4h-3.3v1.9h3.4v2.4h-6.3v-11.1h6.3v2.4L485.4,957.3L485.4,957.3z"/>
		<path id="XMLID_486_" class="st4" d="M495.7,954.8h4.1c3.1,0,5.6,2.4,5.6,5.6c0,3.1-2.6,5.6-5.6,5.6h-4.1V954.8L495.7,954.8z
			 M498.6,963.4h0.6c1.7,0,3.2-0.9,3.2-3.1c0-2-1.3-3.1-3.1-3.1h-0.7V963.4L498.6,963.4z"/>
		<path id="XMLID_484_" class="st4" d="M509.7,965.9h-2.9v-11.1h2.9V965.9z"/>
		<path id="XMLID_482_" class="st4" d="M516.2,961.6l2.7-6.7h3.1l-4.8,11.1H515l-4.7-11.1h3.1L516.2,961.6z"/>
		<path id="XMLID_480_" class="st4" d="M525.6,965.9h-2.9v-11.1h2.9V965.9z"/>
		<path id="XMLID_478_" class="st4" d="M533.6,957.7c-0.5-0.5-1.2-0.7-1.9-0.7c-0.5,0-1.3,0.3-1.3,0.9c0,0.6,0.8,0.9,1.3,1.1
			l0.7,0.2c1.6,0.5,2.7,1.3,2.7,3.1c0,1.1-0.2,2.3-1.2,3c-0.9,0.7-2,1-3.1,1c-1.4,0-2.7-0.5-3.9-1.3l1.3-2.3
			c0.7,0.6,1.6,1.2,2.6,1.2c0.7,0,1.4-0.3,1.4-1.1s-1.2-1.1-1.7-1.3c-1.8-0.5-3-1-3-3.1c0-2.3,1.6-3.8,3.8-3.8
			c1.1,0,2.5,0.4,3.4,0.9L533.6,957.7z"/>
		<path id="XMLID_476_" class="st4" d="M539.5,965.9h-2.9v-11.1h2.9V965.9z"/>
		<path id="XMLID_472_" class="st4" d="M553.1,960.2c0,3.6-2.6,6.1-6.2,6.1s-6.2-2.5-6.2-6.1c0-3.4,3-5.7,6.2-5.7
			C550.2,954.4,553.1,956.8,553.1,960.2z M543.9,960.2c0,1.9,1.4,3.3,3.1,3.3s3.1-1.4,3.1-3.3c0-1.6-1.4-2.9-3.1-2.9
			S543.9,958.6,543.9,960.2z M546.6,954.1l-1.2-0.9l2.1-2.5l1.6,1.2L546.6,954.1z"/>
		<path id="XMLID_470_" class="st4" d="M554.5,954.8h2.9l5.3,6.8l0,0v-6.8h2.9v11.1h-2.9l-5.3-6.8l0,0v6.8h-2.9V954.8z"/>
		<path id="XMLID_468_" class="st4" d="M449.8,974.9v1.9h3.2v2.4h-3.2v4.4h-2.9v-11.1h6.4v2.4L449.8,974.9L449.8,974.9z"/>
		<path id="XMLID_465_" class="st4" d="M457.6,973.1c0,0.9-0.7,1.5-1.5,1.5c-0.9,0-1.5-0.7-1.5-1.5c0-0.9,0.7-1.5,1.5-1.5
			C456.9,971.7,457.6,972.3,457.6,973.1z M457.4,983.5h-2.7V976h2.7V983.5z"/>
		<path id="XMLID_463_" class="st4" d="M461.9,977.3L461.9,977.3c0.5-0.9,1.4-1.3,2.5-1.3h0.5v2.6c-0.4-0.2-0.7-0.2-1.2-0.2
			c-1.5,0-1.9,1-1.9,2.3v3.1h-2.7V976h2.7v1.3H461.9z"/>
		<path id="XMLID_461_" class="st4" d="M468.6,977L468.6,977c0.6-0.9,1.4-1.2,2.4-1.2c1.1,0,2,0.5,2.6,1.4c0.5-0.9,1.6-1.4,2.6-1.4
			c1.9,0,2.6,1.3,2.6,3v4.8H476V980c0-0.8,0-2-1.1-2c-1.3,0-1.3,1.2-1.3,2v3.6H471V980c0-0.9,0-2.1-1.2-2.1s-1.2,1.3-1.2,2.1v3.6
			h-2.8V976h2.7L468.6,977L468.6,977z"/>
		<path id="XMLID_458_" class="st4" d="M488.7,983.5H486v-0.9l0,0c-0.5,0.8-1.4,1.1-2.3,1.1c-2.3,0-3.8-1.9-3.8-4.1s1.6-4,3.8-4
			c0.9,0,1.8,0.3,2.3,1V976h2.7V983.5z M482.7,979.8c0,0.9,0.6,1.7,1.7,1.7s1.7-0.7,1.7-1.7c0-0.9-0.6-1.7-1.7-1.7
			C483.3,978.1,482.7,978.9,482.7,979.8z"/>
		<path id="XMLID_456_" class="st4" d="M494.4,976h3.1l2,3.9l2-3.9h3.1l-6,11.3h-3l2.6-4.8L494.4,976z"/>
		<path id="XMLID_454_" class="st4" d="M515.2,978c-0.4-0.2-1-0.4-1.4-0.4c-0.3,0-0.9,0.2-0.9,0.5c0,0.5,0.9,0.6,1.2,0.6
			c1.3,0.2,2.2,0.9,2.2,2.3c0,2-1.8,2.8-3.6,2.8c-1.1,0-2.1-0.3-3.1-0.9l0.9-1.9c0.5,0.4,1.5,0.8,2.1,0.8c0.3,0,0.9-0.2,0.9-0.5
			c0-0.6-0.9-0.6-1.6-0.9c-0.9-0.2-1.6-0.6-1.6-2c0-1.9,1.6-2.7,3.4-2.7c0.9,0,1.7,0.2,2.5,0.5L515.2,978z"/>
		<path id="XMLID_451_" class="st4" d="M525.5,980.3h-5.6c0,1.1,0.5,1.6,1.6,1.6c0.5,0,1-0.2,1.3-0.7h2.6c-0.2,0.9-0.7,1.6-1.4,2
			s-1.6,0.6-2.4,0.6c-2.5,0-4.4-1.4-4.4-4c0-2.5,1.7-4.1,4.2-4.1c2.7,0,4.1,1.6,4.1,4.2L525.5,980.3L525.5,980.3z M523,978.7
			c-0.2-0.7-0.8-1.2-1.5-1.2c-0.8,0-1.4,0.4-1.6,1.2H523z"/>
		<path id="XMLID_449_" class="st4" d="M529.5,983.5h-2.7v-12.2h2.7V983.5z"/>
		<path id="XMLID_447_" class="st4" d="M533.9,983.5h-2.7v-12.2h2.7V983.5z"/>
		<path id="XMLID_444_" class="st4" d="M544.2,979.8c0,2.6-2.1,4-4.5,4s-4.5-1.4-4.5-4s2.1-4.1,4.5-4.1
			C542.1,975.8,544.2,977.2,544.2,979.8z M538,979.8c0,0.9,0.6,1.7,1.7,1.7c1.1,0,1.7-0.7,1.7-1.7c0-0.9-0.6-1.7-1.7-1.7
			S538,978.9,538,979.8z"/>
	</g>
</g>
<rect id="XMLID_167_" x="388.4" y="1047.5" class="st3" width="222.9" height="100.9"/>
<g id="XMLID_24877_">
	<g>
		<path id="XMLID_936_" class="st4" d="M458.8,1083.4c-0.5-0.5-1.2-0.7-1.9-0.7c-0.5,0-1.3,0.3-1.3,0.9s0.8,0.9,1.3,1.1l0.7,0.2
			c1.6,0.5,2.7,1.3,2.7,3.1c0,1.1-0.2,2.3-1.2,3c-0.9,0.7-2,1-3.1,1c-1.4,0-2.7-0.5-3.9-1.3l1.3-2.3c0.7,0.6,1.6,1.2,2.6,1.2
			c0.7,0,1.4-0.3,1.4-1.1s-1.2-1.1-1.7-1.3c-1.8-0.5-3-1-3-3.1c0-2.3,1.6-3.8,3.8-3.8c1.1,0,2.5,0.4,3.4,0.9L458.8,1083.4z"/>
		<path id="XMLID_934_" class="st4" d="M471.4,1080.5v6.3c0,1.4-0.1,2.8-1.2,3.9c-0.9,0.9-2.4,1.3-3.7,1.3c-1.3,0-2.7-0.3-3.7-1.3
			c-1.1-1.1-1.2-2.5-1.2-3.9v-6.3h2.9v5.9c0,1.4,0.1,3.1,2,3.1s2-1.6,2-3.1v-5.9H471.4z"/>
		<path id="XMLID_930_" class="st4" d="M473.2,1091.7v-11.1h4.1c2,0,3.3,0.8,3.3,2.9c0,1-0.3,1.8-1.3,2.3l0,0
			c1.6,0.2,2.3,1.3,2.3,2.8c0,2.3-2,3.1-4,3.1L473.2,1091.7L473.2,1091.7z M476.1,1084.9h0.3c0.8,0,1.6-0.2,1.6-1.1
			c0-1-0.9-1.1-1.6-1.1h-0.2L476.1,1084.9L476.1,1084.9z M476.1,1089.5h0.4c0.9,0,2.3,0.1,2.3-1.2c0-1.3-1.4-1.2-2.3-1.2h-0.3v2.4
			H476.1z"/>
		<path id="XMLID_927_" class="st4" d="M486,1089.8l-0.8,2h-3.1l4.3-11.1h3.1l4.2,11.1h-3.1l-0.7-2H486z M488.1,1084L488.1,1084
			l-1.3,3.5h2.4L488.1,1084z"/>
		<path id="XMLID_925_" class="st4" d="M497.6,1089.2h3.4v2.4h-6.3v-11.1h2.9V1089.2z"/>
		<path id="XMLID_923_" class="st4" d="M510,1084.3c-0.6-0.8-1.6-1.3-2.5-1.3c-1.8,0-3,1.3-3,3.1c0,1.7,1.2,3.1,3,3.1
			c0.9,0,1.9-0.5,2.5-1.2v3.4c-0.9,0.3-1.6,0.5-2.6,0.5c-1.6,0-3.1-0.6-4.1-1.6c-1.3-1.1-1.8-2.6-1.8-4.2c0-1.5,0.5-3,1.6-4.1
			s2.7-1.8,4.2-1.8c0.9,0,1.8,0.2,2.7,0.5L510,1084.3L510,1084.3z"/>
		<path id="XMLID_920_" class="st4" d="M514.6,1089.8l-0.8,2h-3.1l4.3-11.1h3.1l4.1,11.1h-3.1l-0.7-2H514.6z M516.6,1084L516.6,1084
			l-1.3,3.5h2.4L516.6,1084z"/>
		<path id="XMLID_918_" class="st4" d="M526.2,1089.2h3.4v2.4h-6.3v-11.1h2.9L526.2,1089.2L526.2,1089.2z"/>
		<path id="XMLID_915_" class="st4" d="M530.6,1080.5h4.1c3.1,0,5.6,2.4,5.6,5.6s-2.6,5.6-5.6,5.6h-4.1V1080.5z M533.4,1089.2h0.6
			c1.7,0,3.2-0.9,3.2-3.1c0-2-1.3-3.1-3.1-3.1h-0.7V1089.2L533.4,1089.2z"/>
		<path id="XMLID_913_" class="st4" d="M544.6,1083v1.9h3.3v2.4h-3.3v1.9h3.4v2.4h-6.3v-11.1h6.3v2.4L544.6,1083L544.6,1083z"/>
		<path id="XMLID_911_" class="st4" d="M423.9,1100.7v1.9h3.1v2.4h-3.1v4.4H421v-11.1h6.4v2.4L423.9,1100.7L423.9,1100.7z"/>
		<path id="XMLID_908_" class="st4" d="M431.8,1098.9c0,0.9-0.7,1.5-1.5,1.5c-0.9,0-1.5-0.7-1.5-1.5c0-0.9,0.7-1.5,1.5-1.5
			C431.1,1097.4,431.8,1098.1,431.8,1098.9z M431.7,1109.3H429v-7.6h2.7V1109.3z"/>
		<path id="XMLID_906_" class="st4" d="M436.1,1103L436.1,1103c0.5-0.9,1.4-1.3,2.5-1.3h0.5v2.6c-0.4-0.2-0.7-0.2-1.2-0.2
			c-1.5,0-1.9,1-1.9,2.3v3.1h-2.7v-7.6h2.7L436.1,1103L436.1,1103z"/>
		<path id="XMLID_904_" class="st4" d="M442.8,1102.8L442.8,1102.8c0.6-0.9,1.4-1.2,2.4-1.2c1.1,0,2,0.5,2.6,1.4
			c0.5-0.9,1.6-1.4,2.6-1.4c1.9,0,2.6,1.3,2.6,3v4.8h-2.7v-3.6c0-0.8,0-2-1.1-2c-1.3,0-1.3,1.2-1.3,2v3.6h-2.7v-3.6
			c0-0.9,0-2.1-1.2-2.1s-1.2,1.3-1.2,2.1v3.6h-2.7v-7.6h2.7L442.8,1102.8L442.8,1102.8L442.8,1102.8z"/>
		<path id="XMLID_901_" class="st4" d="M463,1109.3h-2.7v-0.9l0,0c-0.5,0.8-1.4,1.1-2.3,1.1c-2.3,0-3.8-1.9-3.8-4.1s1.6-4,3.8-4
			c0.9,0,1.8,0.3,2.3,1v-0.7h2.7V1109.3z M456.9,1105.6c0,0.9,0.6,1.7,1.7,1.7s1.7-0.7,1.7-1.7c0-0.9-0.6-1.7-1.7-1.7
			C457.6,1103.9,456.9,1104.6,456.9,1105.6z"/>
		<path id="XMLID_898_" class="st4" d="M475.5,1108.5L475.5,1108.5c-0.5,0.8-1.4,1.1-2.3,1.1c-2.3,0-3.8-1.9-3.8-4.1s1.6-4,3.8-4
			c0.9,0,1.8,0.3,2.3,1v-5.4h2.7v12.2h-2.7V1108.5L475.5,1108.5z M472.1,1105.6c0,0.9,0.6,1.7,1.7,1.7s1.7-0.7,1.7-1.7
			c0-0.9-0.6-1.7-1.7-1.7S472.1,1104.6,472.1,1105.6z"/>
		<path id="XMLID_895_" class="st4" d="M487.6,1106H482c0,1.1,0.5,1.6,1.6,1.6c0.5,0,1-0.2,1.3-0.7h2.6c-0.2,0.9-0.7,1.6-1.4,2
			c-0.7,0.4-1.6,0.6-2.4,0.6c-2.5,0-4.4-1.4-4.4-4c0-2.5,1.7-4.1,4.2-4.1c2.7,0,4.1,1.6,4.1,4.2L487.6,1106L487.6,1106z
			 M485.1,1104.5c-0.2-0.7-0.8-1.2-1.5-1.2c-0.8,0-1.4,0.4-1.6,1.2H485.1z"/>
		<path id="XMLID_892_" class="st4" d="M502.2,1109.3h-2.7v-0.9l0,0c-0.5,0.8-1.4,1.1-2.3,1.1c-2.3,0-3.8-1.9-3.8-4.1s1.6-4,3.8-4
			c0.9,0,1.8,0.3,2.3,1v-0.7h2.7V1109.3z M496.1,1105.6c0,0.9,0.6,1.7,1.7,1.7s1.7-0.7,1.7-1.7c0-0.9-0.6-1.7-1.7-1.7
			C496.8,1103.9,496.1,1104.6,496.1,1105.6z"/>
		<path id="XMLID_889_" class="st4" d="M506.5,1102.7L506.5,1102.7c0.5-0.8,1.4-1.1,2.3-1.1c2.3,0,3.8,1.9,3.8,4.1s-1.6,4-3.8,4
			c-0.9,0-1.8-0.3-2.3-0.9v4.5H504V1102h2.7L506.5,1102.7L506.5,1102.7z M506.5,1105.6c0,0.9,0.6,1.7,1.7,1.7s1.7-0.7,1.7-1.7
			c0-0.9-0.6-1.7-1.7-1.7S506.5,1104.6,506.5,1105.6z"/>
		<path id="XMLID_887_" class="st4" d="M516.7,1103L516.7,1103c0.5-0.9,1.4-1.3,2.5-1.3h0.5v2.6c-0.4-0.2-0.7-0.2-1.2-0.2
			c-1.5,0-1.9,1-1.9,2.3v3.1h-2.7v-7.6h2.7v1.1H516.7z"/>
		<path id="XMLID_884_" class="st4" d="M528.9,1105.6c0,2.6-2.1,4-4.5,4s-4.5-1.4-4.5-4s2.1-4.1,4.5-4.1
			C526.8,1101.5,528.9,1103,528.9,1105.6z M522.7,1105.6c0,0.9,0.6,1.7,1.7,1.7s1.7-0.7,1.7-1.7c0-0.9-0.6-1.7-1.7-1.7
			S522.7,1104.6,522.7,1105.6z"/>
		<path id="XMLID_881_" class="st4" d="M530.1,1097.1h2.7v5.4c0.5-0.6,1.5-1,2.3-1c2.3,0,3.8,1.9,3.8,4c0,2.2-1.6,4.1-3.8,4.1
			c-0.9,0-1.8-0.3-2.3-1.1l0,0v0.9h-2.7V1097.1L530.1,1097.1z M532.7,1105.6c0,0.9,0.6,1.7,1.7,1.7c1.1,0,1.7-0.7,1.7-1.7
			c0-0.9-0.6-1.7-1.7-1.7S532.7,1104.6,532.7,1105.6z"/>
		<path id="XMLID_726_" class="st4" d="M548.5,1109.3h-2.7v-0.9l0,0c-0.5,0.8-1.4,1.1-2.3,1.1c-2.3,0-3.8-1.9-3.8-4.1s1.6-4,3.8-4
			c0.9,0,1.8,0.3,2.3,1v-0.7h2.7V1109.3L548.5,1109.3z M542.4,1105.6c0,0.9,0.6,1.7,1.7,1.7s1.7-0.7,1.7-1.7c0-0.9-0.6-1.7-1.7-1.7
			C543.1,1103.9,542.4,1104.6,542.4,1105.6z"/>
		<path id="XMLID_724_" class="st4" d="M555.7,1104.2c-0.4-0.3-0.9-0.5-1.4-0.5c-1,0-1.9,0.8-1.9,1.9s0.8,1.9,1.9,1.9
			c0.5,0,1-0.2,1.3-0.5v2.3c-0.6,0.3-1.3,0.4-1.9,0.4c-2.3,0-4.1-1.6-4.1-3.9c0-2.4,1.9-4.1,4.2-4.1c0.6,0,1.3,0.2,1.8,0.5
			L555.7,1104.2L555.7,1104.2z"/>
		<path id="XMLID_721_" class="st4" d="M560.2,1098.9c0,0.9-0.7,1.5-1.5,1.5c-0.9,0-1.5-0.7-1.5-1.5c0-0.9,0.7-1.5,1.5-1.5
			C559.6,1097.4,560.2,1098.1,560.2,1098.9z M560,1109.3h-2.7v-7.6h2.7V1109.3z"/>
		<path id="XMLID_717_" class="st4" d="M570.4,1105.6c0,2.6-2.1,4-4.5,4s-4.5-1.4-4.5-4s2.1-4.1,4.5-4.1
			C568.3,1101.5,570.4,1103,570.4,1105.6z M564.1,1105.6c0,0.9,0.6,1.7,1.7,1.7c1.1,0,1.7-0.7,1.7-1.7c0-0.9-0.6-1.7-1.7-1.7
			C564.7,1103.9,564.1,1104.6,564.1,1105.6z M565.5,1100.6l-1.2-0.9l2.1-2.5l1.6,1.2L565.5,1100.6z"/>
		<path id="XMLID_715_" class="st4" d="M574.3,1102.8L574.3,1102.8c0.6-0.9,1.4-1.3,2.4-1.3c2,0,2.8,1.3,2.8,3.1v4.7h-2.7v-3.7
			c0-0.7,0.2-2-1.2-2c-1.1,0-1.4,0.8-1.4,1.7v3.9h-2.7v-7.6h2.7L574.3,1102.8L574.3,1102.8z"/>
	</g>
</g>
<polygon id="XMLID_5_" class="st5" points="391.7,51.3 382.3,56.7 372.9,62.1 372.9,51.3 372.9,40.4 382.3,45.8 "/>
<polygon id="XMLID_14_" class="st5" points="498.2,136.2 492.9,126.8 487.4,117.4 498.2,117.4 509.1,117.4 503.6,126.8 "/>
<polygon id="XMLID_32_" class="st5" points="611.3,184.1 620.7,178.7 630.1,173.3 630.1,184.1 630.1,195 620.7,189.6 "/>
<polygon id="XMLID_52_" class="st5" points="611.3,51.3 620.7,45.8 630.1,40.4 630.1,51.3 630.1,62.1 620.7,56.7 "/>
<polygon id="XMLID_53_" class="st5" points="611.3,312.9 620.7,307.5 630.1,302.1 630.1,312.9 630.1,323.8 620.7,318.3 "/>
<polygon id="XMLID_46_" class="st5" points="664.1,184.1 654.7,189.6 645.3,195 645.3,184.1 645.3,173.3 654.7,178.7 "/>
<polygon id="XMLID_54_" class="st5" points="775.6,126.8 770.2,117.4 764.8,108 775.6,108 786.5,108 781.1,117.4 "/>
<polygon id="XMLID_55_" class="st5" points="775.6,238.2 781.1,247.6 786.5,256.9 775.6,256.9 764.8,256.9 770.2,247.6 "/>
<polygon id="XMLID_25_" class="st5" points="498.2,266.3 492.9,256.9 487.4,247.6 498.2,247.6 509.1,247.6 503.6,256.9 "/>
<polygon id="XMLID_26_" class="st5" points="498.2,396.5 492.9,387.1 487.4,377.7 498.2,377.7 509.1,377.7 503.6,387.1 "/>
<polygon id="XMLID_27_" class="st5" points="498.2,526.6 492.9,517.3 487.4,507.9 498.2,507.9 509.1,507.9 503.6,517.3 "/>
<polygon id="XMLID_28_" class="st5" points="498.2,656.8 492.9,647.4 487.4,638 498.2,638 509.1,638 503.6,647.4 "/>
<polygon id="XMLID_38_" class="st5" points="498.2,787 492.9,777.6 487.4,768.2 498.2,768.2 509.1,768.2 503.6,777.6 "/>
<polygon id="XMLID_42_" class="st5" points="498.2,917.1 492.9,907.7 487.4,898.4 498.2,898.4 509.1,898.4 503.6,907.7 "/>
<polygon id="XMLID_45_" class="st5" points="498.2,1047.3 492.9,1037.9 487.4,1028.5 498.2,1028.5 509.1,1028.5 503.6,1037.9 "/>
<polygon id="XMLID_4_" class="st5" points="212,609.2 206.6,599.8 201.2,590.4 212,590.4 222.8,590.4 217.4,599.8 "/>
<polygon id="XMLID_11_" class="st5" points="212,712.4 217.4,721.8 222.8,731.2 212,731.2 201.2,731.2 206.6,721.8 "/>
<line id="XMLID_9_" class="st0" x1="212" y1="505.5" x2="212" y2="606.5"/>
<polyline id="XMLID_8_" class="st0" points="212,721.8 212,1098 388.4,1098 "/>
<polyline id="XMLID_12_" class="st0" points="323.4,661 355.6,661 355.6,50.7 388.4,50.7 "/>
<line id="XMLID_23_" class="st0" x1="616.7" y1="184.1" x2="656.7" y2="184.1"/>
<polyline id="XMLID_10_" class="st0" points="620.7,51.3 775.6,51.3 775.6,120.7 "/>
<polyline id="XMLID_47_" class="st0" points="775.6,242.7 775.6,312.9 624.8,312.9 "/>
</svg>
