<?xml version="1.0" encoding="utf-8"?>
<!-- Generator: Adobe Illustrator 21.0.2, SVG Export Plug-In . SVG Version: 6.00 Build 0)  -->
<svg version="1.1" id="Layer_1" xmlns="http://www.w3.org/2000/svg" xmlns:xlink="http://www.w3.org/1999/xlink" x="0px" y="0px"
	 viewBox="0 0 998.6 723.9" style="enable-background:new 0 0 998.6 723.9;" xml:space="preserve">
<style type="text/css">
	.st0{fill:none;stroke:#E42527;stroke-width:4;stroke-miterlimit:10;}
	.st1{fill:#9D9D9C;}
	.st2{fill:#FFFFFF;}
	.st3{fill:#45C5E6;}
	.st4{fill:#E42527;}
</style>
<polyline id="XMLID_2414_" class="st0" points="101.3,550.1 101.3,57.1 268,57.1 306.1,57.1 "/>
<line id="XMLID_2413_" class="st0" x1="433.6" y1="101.9" x2="433.6" y2="696.5"/>
<rect id="XMLID_1708_" x="306.1" y="-0.8" class="st1" width="258.7" height="117.1"/>
<rect id="XMLID_1707_" x="626.2" y="-3.4" class="st1" width="273.8" height="117.1"/>
<g id="XMLID_9684_">
	<g>
		<path id="XMLID_671_" class="st2" d="M355.7,52.7l3.1-7.8h3.6L357,57.8h-2.6L349,44.9h3.6L355.7,52.7z"/>
		<path id="XMLID_669_" class="st2" d="M366.7,47.7v2.2h3.8v2.8h-3.8V55h4v2.8h-7.3V44.9h7.3v2.8H366.7z"/>
		<path id="XMLID_667_" class="st2" d="M372.8,44.9h3.4l6.1,7.9l0,0v-7.9h3.4v12.9h-3.4l-6.1-7.9l0,0v7.9h-3.4V44.9z"/>
		<path id="XMLID_665_" class="st2" d="M393,57.8h-3.4V47.7h-2.8v-2.8h8.9v2.8H393V57.8z"/>
		<path id="XMLID_662_" class="st2" d="M399.2,55.5l-0.9,2.2h-3.6l5-12.9h3.7l4.9,12.9h-3.6l-0.8-2.2
			C403.9,55.5,399.2,55.5,399.2,55.5z M401.6,48.9L401.6,48.9l-1.4,4.1h2.8L401.6,48.9z"/>
		<path id="XMLID_660_" class="st2" d="M409.3,44.9h3.4l6.1,7.9l0,0v-7.9h3.4v12.9h-3.4l-6.1-7.9l0,0v7.9h-3.4V44.9z"/>
		<path id="XMLID_658_" class="st2" d="M427.7,57.8h-3.4V44.9h3.4V57.8z"/>
		<path id="XMLID_656_" class="st2" d="M433.3,55h4v2.8h-7.4V44.9h3.4V55z"/>
		<path id="XMLID_654_" class="st2" d="M441.7,55h4v2.8h-7.4V44.9h3.4V55z"/>
		<path id="XMLID_651_" class="st2" d="M450.1,55.5l-0.9,2.2h-3.6l5-12.9h3.7l4.9,12.9h-3.6l-0.8-2.2
			C454.8,55.5,450.1,55.5,450.1,55.5z M452.5,48.9L452.5,48.9L451,53h2.8L452.5,48.9z"/>
		<path id="XMLID_648_" class="st2" d="M477.3,44.9v7.3c0,1.7-0.1,3.3-1.4,4.6c-1.1,1.1-2.8,1.4-4.3,1.4s-3.2-0.4-4.3-1.4
			c-1.3-1.2-1.4-2.9-1.4-4.6v-7.3h3.4v6.8c0,1.7,0.1,3.5,2.3,3.5c2.2,0,2.3-1.8,2.3-3.5v-6.8H477.3z M471.2,44.1l-1.4-1l2.4-2.9
			l1.9,1.4L471.2,44.1z"/>
		<path id="XMLID_646_" class="st2" d="M479.4,44.9h3.4l6.1,7.9l0,0v-7.9h3.4v12.9h-3.4l-6.1-7.9l0,0v7.9h-3.4V44.9z"/>
		<path id="XMLID_644_" class="st2" d="M497.8,57.8h-3.4V44.9h3.4V57.8z"/>
		<path id="XMLID_642_" class="st2" d="M509.2,49.2c-0.7-0.9-1.8-1.4-2.9-1.4c-2.1,0-3.4,1.6-3.4,3.6s1.4,3.5,3.5,3.5
			c1.1,0,2.2-0.5,2.9-1.4v4c-1.1,0.3-1.9,0.6-3,0.6c-1.8,0-3.5-0.7-4.8-1.9c-1.4-1.3-2.1-3-2.1-4.9c0-1.8,0.7-3.5,1.9-4.7
			c1.3-1.3,3.1-2.1,4.9-2.1c1.1,0,2.1,0.2,3.1,0.6v4.1H509.2z"/>
		<path id="XMLID_639_" class="st2" d="M514.6,55.5l-0.9,2.2h-3.6l5-12.9h3.7l4.9,12.9H520l-0.8-2.2
			C519.2,55.5,514.6,55.5,514.6,55.5z M516.9,48.9L516.9,48.9l-1.4,4.1h2.8L516.9,48.9z"/>
		<path id="XMLID_636_" class="st2" d="M404,78.3h-4.2l-3.2-5l0,0v5h-3.4V65.4h5c2.5,0,4.5,1.2,4.5,4c0,1.8-1,3.3-2.8,3.6L404,78.3z
			 M396.6,71.2h0.3c1.1,0,2.3-0.2,2.3-1.6S398,68,396.9,68h-0.3V71.2z"/>
		<path id="XMLID_633_" class="st2" d="M413.8,74.5h-6.6c0,1.3,0.7,2,2,2c0.7,0,1.1-0.2,1.5-0.8h3c-0.2,1-0.9,1.8-1.7,2.3
			c-0.8,0.5-1.8,0.7-2.8,0.7c-2.9,0-5.1-1.6-5.1-4.7c0-2.9,2-4.7,4.9-4.7c3,0,4.8,1.9,4.8,4.9L413.8,74.5L413.8,74.5z M410.9,72.7
			c-0.2-0.8-0.9-1.4-1.8-1.4s-1.7,0.5-1.8,1.4H410.9z"/>
		<path id="XMLID_631_" class="st2" d="M421.6,72.4c-0.5-0.3-1-0.6-1.6-0.6c-1.2,0-2.1,0.9-2.1,2.1c0,1.3,0.9,2.2,2.2,2.2
			c0.5,0,1.1-0.2,1.6-0.6v2.6c-0.7,0.3-1.4,0.5-2.2,0.5c-2.6,0-4.8-1.9-4.8-4.6c0-2.8,2.2-4.8,4.9-4.8c0.7,0,1.4,0.2,2.1,0.5v2.7
			H421.6z"/>
		<path id="XMLID_627_" class="st2" d="M432.5,74.5H426c0,1.3,0.7,2,2,2c0.7,0,1.1-0.2,1.5-0.8h3c-0.2,1-0.9,1.8-1.7,2.3
			c-0.8,0.5-1.8,0.7-2.8,0.7c-2.9,0-5.1-1.6-5.1-4.7c0-2.9,2-4.7,4.9-4.7c3,0,4.8,1.9,4.8,4.9L432.5,74.5L432.5,74.5z M429.6,72.7
			c-0.2-0.8-0.9-1.4-1.8-1.4s-1.7,0.5-1.8,1.4H429.6z"/>
		<path id="XMLID_624_" class="st2" d="M436.9,70.5L436.9,70.5c0.6-0.9,1.7-1.3,2.7-1.3c2.6,0,4.4,2.2,4.4,4.7s-1.8,4.7-4.4,4.7
			c-1,0-2.1-0.4-2.7-1.1v5.2h-3.1V69.5h3.1V70.5z M436.8,73.9c0,1.1,0.7,2,2,2s2-0.9,2-2s-0.7-2-2-2C437.6,72,436.8,72.9,436.8,73.9
			z"/>
		<path id="XMLID_622_" class="st2" d="M451.9,72.4c-0.5-0.3-1-0.6-1.6-0.6c-1.2,0-2.1,0.9-2.1,2.1c0,1.3,0.9,2.2,2.2,2.2
			c0.5,0,1.1-0.2,1.6-0.6v2.6c-0.7,0.3-1.4,0.5-2.2,0.5c-2.6,0-4.8-1.9-4.8-4.6c0-2.8,2.2-4.8,4.9-4.8c0.7,0,1.4,0.2,2.1,0.5v2.7
			H451.9z"/>
		<path id="XMLID_619_" class="st2" d="M457.2,66.2c0,1-0.8,1.7-1.7,1.7c-1,0-1.7-0.8-1.7-1.7c0-1,0.8-1.7,1.7-1.7
			C456.4,64.4,457.2,65.2,457.2,66.2z M457,78.3h-3.1v-8.8h3.1V78.3z"/>
		<path id="XMLID_615_" class="st2" d="M469,73.9c0,3-2.5,4.7-5.3,4.7s-5.3-1.7-5.3-4.7s2.5-4.7,5.3-4.7
			C466.5,69.3,469,70.9,469,73.9z M461.7,73.9c0,1.1,0.7,2,2,2s2-0.9,2-2s-0.7-2-2-2C462.4,72,461.7,72.9,461.7,73.9z M463.3,68.2
			l-1.4-1l2.4-2.9l1.9,1.4L463.3,68.2z"/>
		<path id="XMLID_613_" class="st2" d="M473.5,70.7L473.5,70.7c0.8-1.1,1.6-1.4,2.8-1.4c2.4,0,3.3,1.5,3.3,3.6v5.4h-3.1V74
			c0-0.8,0.1-2.3-1.4-2.3c-1.3,0-1.6,0.9-1.6,2v4.6h-3.1v-8.8h3.1L473.5,70.7L473.5,70.7z"/>
	</g>
</g>
<g id="XMLID_9624_">
	<g>
		<path id="XMLID_611_" class="st2" d="M692,40.8c-0.7-0.9-1.8-1.4-2.9-1.4c-2.1,0-3.4,1.6-3.4,3.6s1.4,3.5,3.5,3.5
			c1.1,0,2.2-0.5,2.9-1.4v4c-1.1,0.3-1.9,0.6-3,0.6c-1.8,0-3.5-0.7-4.8-1.9c-1.4-1.3-2.1-3-2.1-4.9c0-1.8,0.7-3.5,1.9-4.7
			c1.3-1.3,3.1-2.1,4.9-2.1c1.1,0,2.1,0.2,3.1,0.6v4.1H692z"/>
		<path id="XMLID_608_" class="st2" d="M707.7,42.6c0,4.2-3,7.1-7.1,7.1s-7.1-2.9-7.1-7.1c0-3.9,3.4-6.6,7.1-6.6
			S707.7,38.7,707.7,42.6z M696.9,42.7c0,2.2,1.6,3.8,3.6,3.8s3.6-1.6,3.6-3.8c0-1.8-1.6-3.4-3.6-3.4S696.9,40.9,696.9,42.7z"/>
		<path id="XMLID_606_" class="st2" d="M709.2,36.4h3.4l6.1,7.9l0,0v-7.9h3.4v12.9h-3.4l-6.1-7.9l0,0v7.9h-3.4V36.4z"/>
		<path id="XMLID_604_" class="st2" d="M729.4,49.3H726v-10h-2.8v-2.8h8.9v2.8h-2.8L729.4,49.3L729.4,49.3z"/>
		<path id="XMLID_601_" class="st2" d="M744.1,49.3H740l-3.2-5l0,0v5h-3.4V36.4h5c2.5,0,4.5,1.2,4.5,4c0,1.8-1,3.3-2.8,3.6
			L744.1,49.3z M736.8,42.2h0.3c1.1,0,2.3-0.2,2.3-1.6c0-1.4-1.2-1.6-2.3-1.6h-0.3V42.2z"/>
		<path id="XMLID_599_" class="st2" d="M748.4,49.3H745V36.4h3.4V49.3z"/>
		<path id="XMLID_595_" class="st2" d="M750.6,49.3V36.4h4.8c2.3,0,3.8,0.9,3.8,3.4c0,1.2-0.4,2.1-1.4,2.6l0,0
			c1.8,0.2,2.6,1.5,2.6,3.3c0,2.7-2.3,3.6-4.7,3.6H750.6z M753.9,41.5h0.4c0.9,0,1.8-0.2,1.8-1.2c0-1.2-1-1.2-2-1.2h-0.2V41.5z
			 M753.9,46.8h0.4c1,0,2.7,0.1,2.7-1.4c0-1.6-1.7-1.4-2.8-1.4h-0.3L753.9,46.8L753.9,46.8z"/>
		<path id="XMLID_593_" class="st2" d="M773.4,36.4v7.3c0,1.7-0.1,3.3-1.4,4.6c-1.1,1.1-2.8,1.4-4.3,1.4s-3.2-0.4-4.3-1.4
			c-1.3-1.2-1.4-2.9-1.4-4.6v-7.3h3.4v6.8c0,1.7,0.1,3.5,2.3,3.5s2.3-1.8,2.3-3.5v-6.8H773.4z"/>
		<path id="XMLID_591_" class="st2" d="M774.1,36.4h4l2.4,3.5l2.4-3.5h4l-4.8,6.7v6.2h-3.4v-6.2L774.1,36.4z"/>
		<path id="XMLID_589_" class="st2" d="M791,39.3v2.2h3.8v2.8H791v2.2h4v2.8h-7.3V36.4h7.3v2.8L791,39.3L791,39.3z"/>
		<path id="XMLID_587_" class="st2" d="M797.1,36.4h3.4l6.1,7.9l0,0v-7.9h3.4v12.9h-3.4l-6.1-7.9l0,0v7.9h-3.4V36.4z"/>
		<path id="XMLID_585_" class="st2" d="M817.3,49.3H814v-10h-2.8v-2.8h8.9v2.8h-2.8L817.3,49.3L817.3,49.3z"/>
		<path id="XMLID_583_" class="st2" d="M824.6,39.3v2.2h3.8v2.8h-3.8v2.2h4v2.8h-7.3V36.4h7.3v2.8L824.6,39.3L824.6,39.3z"/>
		<path id="XMLID_545_" class="st2" d="M709.9,61.3c-0.7-0.9-1.8-1.4-2.9-1.4c-2.1,0-3.4,1.6-3.4,3.6c0,2,1.4,3.5,3.5,3.5
			c1.1,0,2.2-0.5,2.9-1.4v4c-1.1,0.3-1.9,0.6-3,0.6c-1.8,0-3.5-0.7-4.8-1.9c-1.4-1.3-2.1-3-2.1-4.9c0-1.8,0.7-3.5,1.9-4.7
			c1.3-1.3,3.1-2.1,4.9-2.1c1.1,0,2.1,0.2,3.1,0.7v4H709.9z"/>
		<path id="XMLID_542_" class="st2" d="M721.8,65.5c0,3-2.5,4.7-5.3,4.7s-5.3-1.7-5.3-4.7s2.5-4.7,5.3-4.7
			C719.4,60.8,721.8,62.5,721.8,65.5z M714.6,65.5c0,1.1,0.7,2,2,2s2-0.9,2-2s-0.7-2-2-2S714.6,64.4,714.6,65.5z"/>
		<path id="XMLID_540_" class="st2" d="M726.4,62.5L726.4,62.5c0.6-1.1,1.7-1.6,2.9-1.6h0.6v3c-0.4-0.2-0.8-0.3-1.3-0.3
			c-1.7,0-2.2,1.1-2.2,2.7v3.5h-3.1V61h3.1V62.5z"/>
		<path id="XMLID_538_" class="st2" d="M734.1,62.5L734.1,62.5c0.6-1.1,1.7-1.6,2.9-1.6h0.6v3c-0.4-0.2-0.8-0.3-1.3-0.3
			c-1.7,0-2.2,1.1-2.2,2.7v3.5H731V61h3.1V62.5z"/>
		<path id="XMLID_535_" class="st2" d="M747.8,66h-6.6c0,1.3,0.7,2,2,2c0.7,0,1.1-0.2,1.5-0.8h3c-0.2,1-0.9,1.8-1.7,2.3
			s-1.8,0.7-2.8,0.7c-2.9,0-5.1-1.6-5.1-4.7c0-2.9,2-4.7,4.9-4.7c3,0,4.8,1.9,4.8,4.9L747.8,66L747.8,66z M744.9,64.2
			c-0.2-0.8-0.9-1.4-1.8-1.4c-0.9,0-1.7,0.5-1.8,1.4H744.9z"/>
		<path id="XMLID_533_" class="st2" d="M755.5,63.9c-0.5-0.3-1-0.6-1.6-0.6c-1.2,0-2.1,0.9-2.1,2.1c0,1.3,0.9,2.2,2.2,2.2
			c0.5,0,1.1-0.2,1.6-0.6v2.6c-0.7,0.3-1.4,0.5-2.2,0.5c-2.6,0-4.8-1.9-4.8-4.6c0-2.8,2.2-4.8,4.9-4.8c0.7,0,1.4,0.2,2.1,0.5v2.7
			H755.5z"/>
		<path id="XMLID_531_" class="st2" d="M763.8,63.9c-0.5-0.3-1-0.6-1.6-0.6c-1.2,0-2.1,0.9-2.1,2.1c0,1.3,0.9,2.2,2.2,2.2
			c0.5,0,1.1-0.2,1.6-0.6v2.6c-0.7,0.3-1.4,0.5-2.2,0.5c-2.6,0-4.8-1.9-4.8-4.6c0-2.8,2.2-4.8,4.9-4.8c0.7,0,1.4,0.2,2.1,0.5v2.7
			H763.8z"/>
		<path id="XMLID_527_" class="st2" d="M769,57.7c0,1-0.8,1.7-1.7,1.7c-1,0-1.7-0.8-1.7-1.7c0-1,0.8-1.7,1.7-1.7S769,56.8,769,57.7z
			 M768.8,69.9h-3.1v-8.8h3.1V69.9z"/>
		<path id="XMLID_524_" class="st2" d="M780.8,65.5c0,3-2.5,4.7-5.3,4.7s-5.3-1.7-5.3-4.7s2.5-4.7,5.3-4.7S780.8,62.5,780.8,65.5z
			 M773.5,65.5c0,1.1,0.7,2,2,2s2-0.9,2-2s-0.7-2-2-2S773.5,64.4,773.5,65.5z"/>
		<path id="XMLID_522_" class="st2" d="M785.3,62.2L785.3,62.2c0.8-1.1,1.6-1.4,2.8-1.4c2.4,0,3.3,1.5,3.3,3.6v5.4h-3.1v-4.3
			c0-0.8,0.1-2.3-1.4-2.3c-1.3,0-1.6,0.9-1.6,2v4.6h-3.1V61h3.1V62.2z"/>
		<path id="XMLID_519_" class="st2" d="M802.5,66H796c0,1.3,0.7,2,2,2c0.7,0,1.1-0.2,1.5-0.8h3c-0.2,1-0.9,1.8-1.7,2.3
			s-1.8,0.7-2.8,0.7c-2.9,0-5.1-1.6-5.1-4.7c0-2.9,2-4.7,4.9-4.7c3,0,4.8,1.9,4.8,4.9V66H802.5z M799.6,64.2
			c-0.2-0.8-0.9-1.4-1.8-1.4c-0.9,0-1.7,0.5-1.8,1.4H799.6z"/>
		<path id="XMLID_517_" class="st2" d="M809.7,63.3c-0.5-0.3-1.1-0.4-1.7-0.4c-0.4,0-1,0.2-1,0.6c0,0.6,1,0.7,1.4,0.8
			c1.5,0.3,2.5,1,2.5,2.6c0,2.3-2.1,3.3-4.1,3.3c-1.2,0-2.5-0.4-3.5-1l1.1-2.2c0.6,0.4,1.7,0.9,2.5,0.9c0.4,0,1-0.2,1-0.7
			c0-0.7-1-0.7-2-1s-2-0.7-2-2.3c0-2.2,2-3.1,3.9-3.1c1,0,2,0.2,2.9,0.6L809.7,63.3z"/>
	</g>
</g>
<rect id="XMLID_528_" x="626.2" y="301.2" class="st3" width="273.8" height="117.1"/>
<g id="XMLID_9538_">
	<g>
		<path id="XMLID_967_" class="st2" d="M664.5,351.7l-0.9,2.2H660l5-12.9h3.7l4.9,12.9H670l-0.8-2.2H664.5z M666.8,345L666.8,345
			l-1.4,4.1h2.8L666.8,345z"/>
		<path id="XMLID_964_" class="st2" d="M685.3,353.9h-4.2l-3.2-5l0,0v5h-3.4V341h5c2.5,0,4.5,1.2,4.5,4c0,1.8-1,3.3-2.8,3.6
			L685.3,353.9z M677.9,346.8h0.3c1.1,0,2.3-0.2,2.3-1.6s-1.2-1.6-2.3-1.6h-0.3V346.8z"/>
		<path id="XMLID_962_" class="st2" d="M689.5,343.9v2.2h3.8v2.8h-3.8v2.2h4v2.8h-7.3V341h7.3v2.8h-4V343.9z"/>
		<path id="XMLID_959_" class="st2" d="M698.9,351.7l-0.9,2.2h-3.6l5-12.9h3.7l4.9,12.9h-3.6l-0.8-2.2H698.9z M701.2,345L701.2,345
			l-1.4,4.1h2.8L701.2,345z"/>
		<path id="XMLID_957_" class="st2" d="M719.9,353.9h-3.4v-10.1h-2.8V341h8.9v2.8h-2.8L719.9,353.9L719.9,353.9z"/>
		<path id="XMLID_955_" class="st2" d="M727.3,343.9v2.2h3.8v2.8h-3.8v2.2h4v2.8H724V341h7.3v2.8h-4V343.9z"/>
		<path id="XMLID_953_" class="st2" d="M742.5,345.4c-0.7-0.9-1.8-1.4-2.9-1.4c-2.1,0-3.4,1.6-3.4,3.6s1.4,3.5,3.5,3.5
			c1.1,0,2.2-0.5,2.9-1.4v4c-1.1,0.3-1.9,0.6-3,0.6c-1.8,0-3.5-0.7-4.8-1.9c-1.4-1.3-2.1-3-2.1-4.9c0-1.8,0.7-3.5,1.9-4.7
			c1.3-1.3,3.1-2.1,4.9-2.1c1.1,0,2.1,0.2,3.1,0.6v4.1H742.5z"/>
		<path id="XMLID_951_" class="st2" d="M744.6,341h3.4l6.1,7.9l0,0V341h3.4v12.9h-3.4L748,346l0,0v7.9h-3.4V341z"/>
		<path id="XMLID_949_" class="st2" d="M763,353.9h-3.4V341h3.4V353.9z"/>
		<path id="XMLID_947_" class="st2" d="M774.4,345.4c-0.7-0.9-1.8-1.4-2.9-1.4c-2.1,0-3.4,1.6-3.4,3.6s1.4,3.5,3.5,3.5
			c1.1,0,2.2-0.5,2.9-1.4v4c-1.1,0.3-1.9,0.6-3,0.6c-1.8,0-3.5-0.7-4.8-1.9c-1.4-1.3-2.1-3-2.1-4.9c0-1.8,0.7-3.5,1.9-4.7
			c1.3-1.3,3.1-2.1,4.9-2.1c1.1,0,2.1,0.2,3.1,0.6v4.1H774.4z"/>
		<path id="XMLID_944_" class="st2" d="M790.1,347.2c0,4.2-3,7.1-7.1,7.1s-7.1-2.9-7.1-7.1c0-3.9,3.4-6.6,7.1-6.6
			C786.7,340.6,790.1,343.3,790.1,347.2z M779.4,347.3c0,2.2,1.6,3.8,3.6,3.8s3.6-1.6,3.6-3.8c0-1.8-1.6-3.4-3.6-3.4
			S779.4,345.5,779.4,347.3z"/>
		<path id="XMLID_942_" class="st2" d="M798.8,344.4c-0.6-0.5-1.4-0.9-2.2-0.9c-0.6,0-1.4,0.4-1.4,1.1c0,0.8,0.9,1,1.5,1.2l0.9,0.3
			c1.8,0.5,3.2,1.4,3.2,3.5c0,1.3-0.3,2.6-1.3,3.5s-2.4,1.2-3.7,1.2c-1.6,0-3.2-0.5-4.5-1.5l1.4-2.7c0.8,0.7,1.8,1.3,3,1.3
			c0.8,0,1.6-0.4,1.6-1.3s-1.3-1.3-2-1.5c-2.1-0.6-3.5-1.1-3.5-3.6c0-2.6,1.9-4.3,4.4-4.3c1.3,0,2.9,0.4,4,1.1L798.8,344.4z"/>
		<path id="XMLID_940_" class="st2" d="M810.6,339.7l-6.5,15.8h-2.4l6.5-15.8H810.6z"/>
		<path id="XMLID_937_" class="st2" d="M815.4,351.7l-0.9,2.2H811l5-12.9h3.7l4.9,12.9H821l-0.8-2.2H815.4z M817.8,345L817.8,345
			l-1.4,4.1h2.8L817.8,345z"/>
		<path id="XMLID_934_" class="st2" d="M836.2,353.9H832l-3.2-5l0,0v5h-3.4V341h5c2.5,0,4.5,1.2,4.5,4c0,1.8-1,3.3-2.8,3.6
			L836.2,353.9z M828.8,346.8h0.3c1.1,0,2.3-0.2,2.3-1.6s-1.2-1.6-2.3-1.6h-0.3V346.8z"/>
		<path id="XMLID_931_" class="st2" d="M848.2,354.7l-1-1.2c-1,0.6-2.2,0.8-3.5,0.8c-4.1,0-7.1-2.9-7.1-7.1c0-3.9,3.4-6.6,7.1-6.6
			c4,0,7.1,2.7,7.1,6.9c0,1.7-0.6,3.2-1.7,4.5l2.2,2.2L848.2,354.7z M846.7,349.4c0.4-0.5,0.6-1.2,0.6-1.9c0-1.9-1.6-3.7-3.6-3.7
			s-3.7,1.6-3.7,3.4c0,2.2,1.7,3.8,3.7,3.8c0.3,0,0.7-0.1,1-0.2l-2.1-2.1l3.2-0.4L846.7,349.4z"/>
		<path id="XMLID_929_" class="st2" d="M671.2,369.4l3.1-7.8h3.6l-5.5,12.9h-2.6l-5.4-12.9h3.6L671.2,369.4z"/>
		<path id="XMLID_926_" class="st2" d="M686.5,370.6h-6.6c0,1.3,0.7,2,2,2c0.7,0,1.1-0.2,1.5-0.8h3c-0.2,1-0.9,1.8-1.7,2.3
			s-1.8,0.7-2.8,0.7c-2.9,0-5.1-1.6-5.1-4.7c0-2.9,2-4.7,4.9-4.7c3,0,4.8,1.9,4.8,4.9L686.5,370.6L686.5,370.6z M683.6,368.8
			c-0.2-0.8-0.9-1.4-1.8-1.4c-0.9,0-1.7,0.5-1.8,1.4H683.6z"/>
		<path id="XMLID_924_" class="st2" d="M691,367.1L691,367.1c0.6-1.1,1.7-1.6,2.9-1.6h0.6v3c-0.4-0.2-0.8-0.3-1.3-0.3
			c-1.7,0-2.2,1.1-2.2,2.7v3.5h-3.1v-8.8h3.1V367.1z"/>
		<path id="XMLID_921_" class="st2" d="M698.9,362.3c0,1-0.8,1.7-1.7,1.7c-1,0-1.7-0.8-1.7-1.7c0-1,0.8-1.7,1.7-1.7
			C698.1,360.6,698.9,361.4,698.9,362.3z M698.7,374.5h-3.1v-8.8h3.1V374.5z"/>
		<path id="XMLID_917_" class="st2" d="M704.1,374.5H701v-6.2h-1.1v-2.6h1.1v-1.1c0-1.2,0-2.1,0.9-3.1c0.8-0.9,1.9-1.4,3.1-1.4
			c0.5,0,0.9,0.1,1.3,0.3v2.7c-0.4-0.2-0.7-0.3-1.1-0.3c-0.8,0-1.1,0.5-1.1,1.5v1.4h2.2v2.6h-2.2L704.1,374.5L704.1,374.5z
			 M710.5,362.3c0,1-0.8,1.7-1.7,1.7s-1.7-0.8-1.7-1.7c0-1,0.8-1.7,1.7-1.7S710.5,361.4,710.5,362.3z M710.4,374.5h-3.1v-8.8h3.1
			V374.5z"/>
		<path id="XMLID_915_" class="st2" d="M718.7,368.5c-0.5-0.3-1-0.6-1.6-0.6c-1.2,0-2.1,0.9-2.1,2.1c0,1.3,0.9,2.2,2.2,2.2
			c0.5,0,1.1-0.2,1.6-0.6v2.6c-0.7,0.3-1.4,0.5-2.2,0.5c-2.6,0-4.8-1.9-4.8-4.6c0-2.8,2.2-4.8,4.9-4.8c0.7,0,1.4,0.2,2.1,0.5v2.7
			H718.7z"/>
		<path id="XMLID_912_" class="st2" d="M730.3,374.5h-3.1v-1l0,0c-0.5,0.9-1.6,1.3-2.7,1.3c-2.6,0-4.4-2.2-4.4-4.7s1.8-4.7,4.4-4.7
			c1,0,2.1,0.4,2.7,1.1v-0.9h3.1V374.5z M723.2,370.1c0,1.1,0.7,2,2,2s2-0.9,2-2s-0.7-2-2-2C724,368.1,723.2,369,723.2,370.1z"/>
		<path id="XMLID_910_" class="st2" d="M735.4,367.1L735.4,367.1c0.6-1.1,1.7-1.6,2.9-1.6h0.6v3c-0.4-0.2-0.8-0.3-1.3-0.3
			c-1.7,0-2.2,1.1-2.2,2.7v3.5h-3.1v-8.8h3.1V367.1z"/>
		<path id="XMLID_907_" class="st2" d="M749.7,370.1c0,3-2.5,4.7-5.3,4.7s-5.3-1.7-5.3-4.7s2.5-4.7,5.3-4.7S749.7,367.1,749.7,370.1
			z M742.4,370.1c0,1.1,0.7,2,2,2s2-0.9,2-2s-0.7-2-2-2C743.1,368.1,742.4,369,742.4,370.1z"/>
		<path id="XMLID_905_" class="st2" d="M754.2,366.8L754.2,366.8c0.8-1.1,1.6-1.4,2.8-1.4c2.4,0,3.3,1.5,3.3,3.6v5.4h-3.1v-4.3
			c0-0.8,0.1-2.3-1.4-2.3c-1.3,0-1.6,0.9-1.6,2v4.6h-3.1v-8.8h3.1V366.8z"/>
		<path id="XMLID_902_" class="st2" d="M774.9,373.5L774.9,373.5c-0.6,0.9-1.7,1.3-2.7,1.3c-2.6,0-4.4-2.2-4.4-4.7s1.8-4.7,4.4-4.7
			c1,0,2.1,0.4,2.7,1.1v-6.3h3.1v14.2h-3.1V373.5z M771,370.1c0,1.1,0.7,2,2,2s2-0.9,2-2s-0.7-2-2-2S771,369,771,370.1z"/>
		<path id="XMLID_899_" class="st2" d="M789,370.6h-6.6c0,1.3,0.7,2,2,2c0.7,0,1.1-0.2,1.5-0.8h3c-0.2,1-0.9,1.8-1.7,2.3
			s-1.8,0.7-2.8,0.7c-2.9,0-5.1-1.6-5.1-4.7c0-2.9,2-4.7,4.9-4.7c3,0,4.8,1.9,4.8,4.9L789,370.6L789,370.6z M786.1,368.8
			c-0.2-0.8-0.9-1.4-1.8-1.4c-0.9,0-1.7,0.5-1.8,1.4H786.1z"/>
		<path id="XMLID_897_" class="st2" d="M793.5,374.5h-3.1v-14.2h3.1V374.5z"/>
		<path id="XMLID_894_" class="st2" d="M804.4,366.7L804.4,366.7c0.6-0.9,1.7-1.3,2.7-1.3c2.6,0,4.4,2.2,4.4,4.7s-1.8,4.7-4.4,4.7
			c-1,0-2.1-0.4-2.7-1.1v5.2h-3.1v-13.2h3.1V366.7z M804.3,370.1c0,1.1,0.7,2,2,2s2-0.9,2-2s-0.7-2-2-2S804.3,369,804.3,370.1z"/>
		<path id="XMLID_891_" class="st2" d="M822.7,374.5h-3.1v-1l0,0c-0.5,0.9-1.6,1.3-2.7,1.3c-2.6,0-4.4-2.2-4.4-4.7s1.8-4.7,4.4-4.7
			c1,0,2.1,0.4,2.7,1.1v-0.9h3.1V374.5z M815.7,370.1c0,1.1,0.7,2,2,2s2-0.9,2-2s-0.7-2-2-2S815.7,369,815.7,370.1z"/>
		<path id="XMLID_888_" class="st2" d="M834.4,373.6c0,3.7-1.8,5.2-5.1,5.2c-2,0-4.7-1-5-3.4h3.5c0.1,0.3,0.3,0.5,0.6,0.7
			c0.3,0.1,0.6,0.2,0.9,0.2c1.7,0,2-1.1,2-2.5v-0.4c-0.8,0.8-1.6,1.2-2.8,1.2c-2.6,0-4.3-2-4.3-4.5c0-2.6,1.8-4.8,4.5-4.8
			c1,0,2,0.3,2.6,1.2l0,0v-0.9h3.1V373.6z M827.4,370c0,1.1,0.7,2,2,2s2-0.9,2-2s-0.7-2-2-2C828.1,368,827.4,368.9,827.4,370z"/>
		<path id="XMLID_885_" class="st2" d="M846.2,370.1c0,3-2.5,4.7-5.3,4.7s-5.3-1.7-5.3-4.7s2.5-4.7,5.3-4.7
			C843.8,365.4,846.2,367.1,846.2,370.1z M839,370.1c0,1.1,0.7,2,2,2s2-0.9,2-2s-0.7-2-2-2S839,369,839,370.1z"/>
	</g>
</g>
<rect id="XMLID_1703_" x="306.1" y="151.1" class="st1" width="258.7" height="117.1"/>
<g id="XMLID_9427_">
	<g>
		<path id="XMLID_1253_" class="st2" d="M344.8,203.6l-0.9,2.2h-3.6l5-12.9h3.7l4.9,12.9h-3.6l-0.8-2.2H344.8z M347.1,197L347.1,197
			l-1.4,4.1h2.8L347.1,197z"/>
		<path id="XMLID_1250_" class="st2" d="M365.6,205.9h-4.2l-3.2-5l0,0v5h-3.4V193h5c2.5,0,4.5,1.2,4.5,4c0,1.8-1,3.3-2.8,3.6
			L365.6,205.9z M358.2,198.8h0.3c1.1,0,2.3-0.2,2.3-1.6c0-1.4-1.2-1.6-2.3-1.6h-0.3V198.8z"/>
		<path id="XMLID_1248_" class="st2" d="M369.8,195.8v2.2h3.8v2.8h-3.8v2.2h4v2.8h-7.3V193h7.3v2.8H369.8z"/>
		<path id="XMLID_1245_" class="st2" d="M379.2,203.6l-0.9,2.2h-3.6l5-12.9h3.7l4.9,12.9h-3.6l-0.8-2.2H379.2z M381.5,197L381.5,197
			l-1.4,4.1h2.8L381.5,197z"/>
		<path id="XMLID_1243_" class="st2" d="M400.2,205.9h-3.4v-10.1H394V193h8.9v2.8h-2.8L400.2,205.9L400.2,205.9z"/>
		<path id="XMLID_1241_" class="st2" d="M407.6,195.8v2.2h3.8v2.8h-3.8v2.2h4v2.8h-7.3V193h7.3v2.8H407.6z"/>
		<path id="XMLID_1239_" class="st2" d="M422.9,197.3c-0.7-0.9-1.8-1.4-2.9-1.4c-2.1,0-3.4,1.6-3.4,3.6s1.4,3.5,3.5,3.5
			c1.1,0,2.2-0.5,2.9-1.4v4c-1.1,0.3-1.9,0.6-3,0.6c-1.8,0-3.5-0.7-4.8-1.9c-1.4-1.3-2.1-3-2.1-4.9c0-1.8,0.7-3.5,1.9-4.7
			c1.3-1.3,3.1-2.1,4.9-2.1c1.1,0,2.1,0.2,3.1,0.6v4.1H422.9z"/>
		<path id="XMLID_1237_" class="st2" d="M424.9,193h3.4l6.1,7.9l0,0V193h3.4v12.9h-3.4l-6.1-7.9l0,0v7.9h-3.4V193z"/>
		<path id="XMLID_1235_" class="st2" d="M443.4,205.9H440V193h3.4V205.9z"/>
		<path id="XMLID_1233_" class="st2" d="M454.8,197.3c-0.7-0.9-1.8-1.4-2.9-1.4c-2.1,0-3.4,1.6-3.4,3.6s1.4,3.5,3.5,3.5
			c1.1,0,2.2-0.5,2.9-1.4v4c-1.1,0.3-1.9,0.6-3,0.6c-1.8,0-3.5-0.7-4.8-1.9c-1.4-1.3-2.1-3-2.1-4.9c0-1.8,0.7-3.5,1.9-4.7
			c1.3-1.3,3.1-2.1,4.9-2.1c1.1,0,2.1,0.2,3.1,0.6v4.1H454.8z"/>
		<path id="XMLID_1230_" class="st2" d="M470.4,199.2c0,4.2-3,7.1-7.1,7.1s-7.1-2.9-7.1-7.1c0-3.9,3.4-6.6,7.1-6.6
			C467,192.5,470.4,195.3,470.4,199.2z M459.7,199.2c0,2.2,1.6,3.8,3.6,3.8s3.6-1.6,3.6-3.8c0-1.8-1.6-3.4-3.6-3.4
			S459.7,197.4,459.7,199.2z"/>
		<path id="XMLID_1228_" class="st2" d="M479.1,196.3c-0.6-0.5-1.4-0.9-2.2-0.9c-0.6,0-1.4,0.4-1.4,1.1c0,0.8,0.9,1,1.5,1.2l0.9,0.3
			c1.8,0.5,3.2,1.4,3.2,3.5c0,1.3-0.3,2.6-1.3,3.5s-2.4,1.2-3.7,1.2c-1.6,0-3.2-0.5-4.5-1.5l1.4-2.7c0.8,0.7,1.8,1.3,3,1.3
			c0.8,0,1.6-0.4,1.6-1.3c0-0.9-1.3-1.3-2-1.5c-2.1-0.6-3.5-1.1-3.5-3.6c0-2.6,1.9-4.3,4.4-4.3c1.3,0,2.9,0.4,4,1.1L479.1,196.3z"/>
		<path id="XMLID_1226_" class="st2" d="M490.9,191.7l-6.5,15.8H482l6.5-15.8H490.9z"/>
		<path id="XMLID_1223_" class="st2" d="M495.7,203.6l-0.9,2.2h-3.6l5-12.9h3.7l4.9,12.9h-3.6l-0.8-2.2H495.7z M498.1,197L498.1,197
			l-1.4,4.1h2.8L498.1,197z"/>
		<path id="XMLID_1220_" class="st2" d="M516.5,205.9h-4.2l-3.2-5l0,0v5h-3.4V193h5c2.5,0,4.5,1.2,4.5,4c0,1.8-1,3.3-2.8,3.6
			L516.5,205.9z M509.2,198.8h0.3c1.1,0,2.3-0.2,2.3-1.6c0-1.4-1.2-1.6-2.3-1.6h-0.3V198.8z"/>
		<path id="XMLID_1217_" class="st2" d="M528.5,206.7l-1-1.2c-1,0.6-2.2,0.8-3.5,0.8c-4.1,0-7.1-2.9-7.1-7.1c0-3.9,3.4-6.6,7.1-6.6
			c4,0,7.1,2.7,7.1,6.9c0,1.7-0.6,3.2-1.7,4.5l2.2,2.2L528.5,206.7z M527,201.4c0.4-0.5,0.6-1.2,0.6-1.9c0-1.9-1.6-3.7-3.6-3.7
			s-3.7,1.6-3.7,3.4c0,2.2,1.7,3.8,3.7,3.8c0.3,0,0.7-0.1,1-0.2l-2.1-2.1l3.2-0.4L527,201.4z"/>
		<path id="XMLID_1215_" class="st2" d="M391.4,221.3l3.1-7.8h3.6l-5.5,12.9H390l-5.4-12.9h3.6L391.4,221.3z"/>
		<path id="XMLID_1212_" class="st2" d="M407.3,226.4h-3.1v-1l0,0c-0.5,0.9-1.6,1.3-2.7,1.3c-2.6,0-4.4-2.2-4.4-4.7s1.8-4.7,4.4-4.7
			c1,0,2.1,0.4,2.7,1.1v-0.9h3.1V226.4z M400.3,222c0,1.1,0.7,2,2,2s2-0.9,2-2s-0.7-2-2-2S400.3,220.9,400.3,222z"/>
		<path id="XMLID_1210_" class="st2" d="M412.5,226.4h-3.1v-14.2h3.1V226.4z"/>
		<path id="XMLID_1207_" class="st2" d="M424.4,222c0,3-2.5,4.7-5.3,4.7s-5.3-1.7-5.3-4.7s2.5-4.7,5.3-4.7
			C422,217.3,424.4,219,424.4,222z M417.2,222c0,1.1,0.7,2,2,2s2-0.9,2-2s-0.7-2-2-2C417.9,220,417.2,220.9,417.2,222z"/>
		<path id="XMLID_1205_" class="st2" d="M429,219.1L429,219.1c0.6-1.1,1.7-1.6,2.9-1.6h0.6v3c-0.4-0.2-0.8-0.3-1.3-0.3
			c-1.7,0-2.2,1.1-2.2,2.7v3.5h-3.1v-8.8h3.1V219.1z"/>
		<path id="XMLID_1202_" class="st2" d="M443.2,226.4h-3.1v-1l0,0c-0.5,0.9-1.6,1.3-2.7,1.3c-2.6,0-4.4-2.2-4.4-4.7s1.8-4.7,4.4-4.7
			c1,0,2.1,0.4,2.7,1.1v-0.9h3.1V226.4z M436.2,222c0,1.1,0.7,2,2,2s2-0.9,2-2s-0.7-2-2-2C436.9,220,436.2,220.9,436.2,222z"/>
		<path id="XMLID_1200_" class="st2" d="M451.6,220.5c-0.5-0.3-1-0.6-1.6-0.6c-1.2,0-2.1,0.9-2.1,2.1c0,1.3,0.9,2.2,2.2,2.2
			c0.5,0,1.1-0.2,1.6-0.6v2.6c-0.7,0.3-1.4,0.5-2.2,0.5c-2.6,0-4.8-1.9-4.8-4.6c0-2.8,2.2-4.8,4.9-4.8c0.7,0,1.4,0.2,2.1,0.5v2.7
			H451.6z"/>
		<path id="XMLID_1197_" class="st2" d="M456.8,214.3c0,1-0.8,1.7-1.7,1.7c-1,0-1.7-0.8-1.7-1.7c0-1,0.8-1.7,1.7-1.7
			C456,212.5,456.8,213.3,456.8,214.3z M456.6,226.4h-3.1v-8.8h3.1V226.4z"/>
		<path id="XMLID_1193_" class="st2" d="M468.6,222c0,3-2.5,4.7-5.3,4.7S458,225,458,222s2.5-4.7,5.3-4.7S468.6,219,468.6,222z
			 M461.3,222c0,1.1,0.7,2,2,2s2-0.9,2-2s-0.7-2-2-2C462.1,220,461.3,220.9,461.3,222z M463,216.3l-1.4-1l2.4-2.9l1.9,1.4L463,216.3
			z"/>
		<path id="XMLID_1191_" class="st2" d="M473.1,218.8L473.1,218.8c0.8-1.1,1.6-1.4,2.8-1.4c2.4,0,3.3,1.5,3.3,3.6v5.4h-3.1v-4.3
			c0-0.8,0.1-2.3-1.4-2.3c-1.3,0-1.6,0.9-1.6,2v4.6H470v-8.8h3.1V218.8z"/>
		<path id="XMLID_1189_" class="st2" d="M486.1,219.6v2.6h-4.9v-2.6H486.1z"/>
		<path id="XMLID_1187_" class="st2" d="M356.1,246.9h-3.4V234h3.4V246.9z"/>
		<path id="XMLID_1185_" class="st2" d="M361.3,239.3L361.3,239.3c0.8-1.1,1.6-1.4,2.8-1.4c2.4,0,3.3,1.5,3.3,3.6v5.4h-3.1v-4.3
			c0-0.8,0.1-2.3-1.4-2.3c-1.3,0-1.6,0.9-1.6,2v4.6h-3.1v-8.8h3.1L361.3,239.3L361.3,239.3z"/>
		<path id="XMLID_1183_" class="st2" d="M375.3,240.4c-0.5-0.3-1.1-0.4-1.7-0.4c-0.4,0-1,0.2-1,0.6c0,0.6,1,0.7,1.4,0.8
			c1.5,0.3,2.5,1,2.5,2.6c0,2.3-2.1,3.3-4.1,3.3c-1.2,0-2.5-0.4-3.5-1l1.1-2.2c0.6,0.4,1.7,0.9,2.5,0.9c0.4,0,1-0.2,1-0.7
			c0-0.7-1-0.7-2-1s-2-0.7-2-2.3c0-2.2,2-3.1,3.9-3.1c1,0,2,0.2,2.9,0.6L375.3,240.4z"/>
		<path id="XMLID_1180_" class="st2" d="M381.3,239.1L381.3,239.1c0.6-0.9,1.7-1.3,2.7-1.3c2.6,0,4.4,2.2,4.4,4.7s-1.8,4.7-4.4,4.7
			c-1,0-2.1-0.4-2.7-1.1v5.2h-3.1v-13.2h3.1V239.1z M381.2,242.5c0,1.1,0.7,2,2,2s2-0.9,2-2s-0.7-2-2-2
			C381.9,240.6,381.2,241.5,381.2,242.5z"/>
		<path id="XMLID_1177_" class="st2" d="M399,243.1h-6.6c0,1.3,0.7,2,2,2c0.7,0,1.1-0.2,1.5-0.8h3c-0.2,1-0.9,1.8-1.7,2.3
			c-0.8,0.5-1.8,0.7-2.8,0.7c-2.9,0-5.1-1.6-5.1-4.7c0-2.9,2-4.7,4.9-4.7c3,0,4.8,1.9,4.8,4.9L399,243.1L399,243.1z M396.1,241.3
			c-0.2-0.8-0.9-1.4-1.8-1.4s-1.7,0.5-1.8,1.4H396.1z"/>
		<path id="XMLID_1175_" class="st2" d="M406.7,241c-0.5-0.3-1-0.6-1.6-0.6c-1.2,0-2.1,0.9-2.1,2.1c0,1.3,0.9,2.2,2.2,2.2
			c0.5,0,1.1-0.2,1.6-0.6v2.6c-0.7,0.3-1.4,0.5-2.2,0.5c-2.6,0-4.8-1.9-4.8-4.6c0-2.8,2.2-4.8,4.9-4.8c0.7,0,1.4,0.2,2.1,0.5v2.7
			H406.7z"/>
		<path id="XMLID_1173_" class="st2" d="M415,241c-0.5-0.3-1-0.6-1.6-0.6c-1.2,0-2.1,0.9-2.1,2.1c0,1.3,0.9,2.2,2.2,2.2
			c0.5,0,1.1-0.2,1.6-0.6v2.6c-0.7,0.3-1.4,0.5-2.2,0.5c-2.6,0-4.8-1.9-4.8-4.6c0-2.8,2.2-4.8,4.9-4.8c0.7,0,1.4,0.2,2.1,0.5v2.7
			H415z"/>
		<path id="XMLID_1170_" class="st2" d="M420.2,234.8c0,1-0.8,1.7-1.7,1.7c-1,0-1.7-0.8-1.7-1.7c0-1,0.8-1.7,1.7-1.7
			C419.4,233,420.2,233.8,420.2,234.8z M420,246.9h-3.1v-8.8h3.1V246.9z"/>
		<path id="XMLID_1166_" class="st2" d="M432,242.5c0,3-2.5,4.7-5.3,4.7s-5.3-1.7-5.3-4.7s2.5-4.7,5.3-4.7
			C429.5,237.9,432,239.6,432,242.5z M424.7,242.5c0,1.1,0.7,2,2,2s2-0.9,2-2s-0.7-2-2-2C425.4,240.6,424.7,241.5,424.7,242.5z
			 M426.4,236.9l-1.4-1l2.4-2.9l1.9,1.4L426.4,236.9z"/>
		<path id="XMLID_1164_" class="st2" d="M436.5,239.3L436.5,239.3c0.8-1.1,1.6-1.4,2.8-1.4c2.4,0,3.3,1.5,3.3,3.6v5.4h-3.1v-4.3
			c0-0.8,0.1-2.3-1.4-2.3c-1.3,0-1.6,0.9-1.6,2v4.6h-3.1v-8.8h3.1L436.5,239.3L436.5,239.3z"/>
		<path id="XMLID_1162_" class="st2" d="M449.5,240.2v2.6h-4.9v-2.6H449.5z"/>
		<path id="XMLID_1160_" class="st2" d="M454.8,246.9h-3.4V234h3.4V246.9z"/>
		<path id="XMLID_1158_" class="st2" d="M460.1,239.3L460.1,239.3c0.8-1.1,1.6-1.4,2.8-1.4c2.4,0,3.3,1.5,3.3,3.6v5.4h-3.1v-4.3
			c0-0.8,0.1-2.3-1.4-2.3c-1.3,0-1.6,0.9-1.6,2v4.6H457v-8.8h3.1L460.1,239.3L460.1,239.3z"/>
		<path id="XMLID_1156_" class="st2" d="M471.7,246.9h-3.1v-6.2h-1.1v-2.6h1.1V237c0-1.2,0-2.1,0.9-3.1c0.8-0.9,1.9-1.4,3.1-1.4
			c0.5,0,0.9,0.1,1.3,0.3v2.7c-0.4-0.2-0.7-0.3-1.1-0.3c-0.8,0-1.1,0.5-1.1,1.5v1.4h2.2v2.6h-2.2L471.7,246.9L471.7,246.9z"/>
		<path id="XMLID_1153_" class="st2" d="M484.8,242.5c0,3-2.5,4.7-5.3,4.7s-5.3-1.7-5.3-4.7s2.5-4.7,5.3-4.7
			C482.3,237.9,484.8,239.6,484.8,242.5z M477.5,242.5c0,1.1,0.7,2,2,2s2-0.9,2-2s-0.7-2-2-2C478.3,240.6,477.5,241.5,477.5,242.5z"
			/>
		<path id="XMLID_1151_" class="st2" d="M489.3,239.6L489.3,239.6c0.6-1.1,1.7-1.6,2.9-1.6h0.6v3c-0.4-0.2-0.8-0.3-1.3-0.3
			c-1.7,0-2.2,1.1-2.2,2.7v3.5h-3.1v-8.8h3.1V239.6z"/>
		<path id="XMLID_1149_" class="st2" d="M497.1,239.2L497.1,239.2c0.8-1,1.7-1.4,2.8-1.4c1.3,0,2.4,0.5,3,1.7c0.6-1.1,1.8-1.7,3-1.7
			c2.2,0,3,1.5,3,3.5v5.6h-3.1v-4.2c0-0.9,0-2.4-1.3-2.4c-1.4,0-1.5,1.4-1.5,2.4v4.2h-3.1v-4.2c0-1,0-2.5-1.4-2.5s-1.4,1.5-1.4,2.5
			v4.2H494v-8.8h3.1V239.2z"/>
		<path id="XMLID_1146_" class="st2" d="M519.9,243.1h-6.6c0,1.3,0.7,2,2,2c0.7,0,1.1-0.2,1.5-0.8h3c-0.2,1-0.9,1.8-1.7,2.3
			s-1.8,0.7-2.8,0.7c-2.9,0-5.1-1.6-5.1-4.7c0-2.9,2-4.7,4.9-4.7c3,0,4.8,1.9,4.8,4.9V243.1z M517,241.3c-0.2-0.8-0.9-1.4-1.8-1.4
			c-0.9,0-1.7,0.5-1.8,1.4H517z"/>
	</g>
</g>
<rect id="XMLID_1701_" x="306.1" y="303" class="st1" width="258.7" height="117.1"/>
<g id="XMLID_9384_">
	<g>
		<path id="XMLID_336_" class="st2" d="M423.5,353c-0.7-0.9-1.8-1.4-2.9-1.4c-2.1,0-3.4,1.6-3.4,3.6s1.4,3.5,3.5,3.5
			c1.1,0,2.2-0.5,2.9-1.4v4c-1.1,0.3-1.9,0.6-3,0.6c-1.8,0-3.5-0.7-4.8-1.9c-1.4-1.3-2.1-3-2.1-4.9c0-1.8,0.7-3.5,1.9-4.7
			c1.3-1.3,3.1-2.1,4.9-2.1c1.1,0,2.1,0.2,3.1,0.6v4.1H423.5z"/>
		<path id="XMLID_333_" class="st2" d="M428.9,359.3l-0.9,2.2h-3.6l5-12.9h3.7l4.9,12.9h-3.6l-0.8-2.2H428.9z M431.2,352.7
			L431.2,352.7l-1.4,4.1h2.8L431.2,352.7z"/>
		<path id="XMLID_331_" class="st2" d="M445.2,348.7v8.7c0,2.7-1.4,4.5-4.3,4.5c-1.4,0-2.5-0.7-3.3-1.9l1.9-2
			c0.4,0.5,0.9,1.1,1.4,1.1c1,0,1-1.2,1-1.9v-8.5L445.2,348.7L445.2,348.7z"/>
		<path id="XMLID_328_" class="st2" d="M450.6,359.3l-0.9,2.2h-3.6l5-12.9h3.7l4.9,12.9h-3.6l-0.8-2.2H450.6z M452.9,352.7
			L452.9,352.7l-1.4,4.1h2.8L452.9,352.7z"/>
		<path id="XMLID_325_" class="st2" d="M369.3,369.2h5.1c2.8,0,4.7,1.3,4.7,4.2c0,3-1.6,4.4-4.6,4.4h-1.9v4.3h-3.4L369.3,369.2
			L369.3,369.2z M372.6,375.1h0.6c1.2,0,2.4,0,2.4-1.6s-1.1-1.6-2.4-1.6h-0.6V375.1z"/>
		<path id="XMLID_322_" class="st2" d="M390.1,382.1H387v-1l0,0c-0.5,0.9-1.6,1.3-2.7,1.3c-2.6,0-4.4-2.2-4.4-4.7s1.8-4.7,4.4-4.7
			c1,0,2.1,0.4,2.7,1.1v-0.9h3.1V382.1z M383.1,377.7c0,1.1,0.7,2,2,2s2-0.9,2-2s-0.7-2-2-2C383.8,375.7,383.1,376.6,383.1,377.7z"
			/>
		<path id="XMLID_319_" class="st2" d="M401.8,381.2c0,3.7-1.8,5.2-5.1,5.2c-2,0-4.7-1-5-3.4h3.5c0.1,0.3,0.3,0.5,0.6,0.7
			c0.3,0.1,0.6,0.2,0.9,0.2c1.7,0,2-1.1,2-2.5V381c-0.8,0.8-1.6,1.2-2.8,1.2c-2.6,0-4.3-2-4.3-4.5c0-2.6,1.8-4.8,4.5-4.8
			c1,0,2,0.3,2.6,1.2l0,0v-0.9h3.1L401.8,381.2L401.8,381.2z M394.8,377.7c0,1.1,0.7,2,2,2s2-0.9,2-2s-0.7-2-2-2
			S394.8,376.6,394.8,377.7z"/>
		<path id="XMLID_316_" class="st2" d="M413.7,377.7c0,3-2.5,4.7-5.3,4.7s-5.3-1.7-5.3-4.7s2.5-4.7,5.3-4.7S413.7,374.7,413.7,377.7
			z M406.4,377.7c0,1.1,0.7,2,2,2s2-0.9,2-2s-0.7-2-2-2S406.4,376.6,406.4,377.7z"/>
		<path id="XMLID_313_" class="st2" d="M423.9,374.3L423.9,374.3c0.6-0.9,1.7-1.3,2.7-1.3c2.6,0,4.4,2.2,4.4,4.7s-1.8,4.7-4.4,4.7
			c-1,0-2.1-0.4-2.7-1.1v5.2h-3.1v-13.2h3.1V374.3z M423.8,377.7c0,1.1,0.7,2,2,2s2-0.9,2-2s-0.7-2-2-2
			C424.6,375.7,423.8,376.6,423.8,377.7z"/>
		<path id="XMLID_311_" class="st2" d="M435.7,374.8L435.7,374.8c0.6-1.1,1.7-1.6,2.9-1.6h0.6v3c-0.4-0.2-0.8-0.3-1.3-0.3
			c-1.7,0-2.2,1.1-2.2,2.7v3.5h-3.1v-8.8h3.1V374.8z"/>
		<path id="XMLID_308_" class="st2" d="M450,377.7c0,3-2.5,4.7-5.3,4.7s-5.3-1.7-5.3-4.7s2.5-4.7,5.3-4.7S450,374.7,450,377.7z
			 M442.7,377.7c0,1.1,0.7,2,2,2s2-0.9,2-2s-0.7-2-2-2C443.4,375.7,442.7,376.6,442.7,377.7z"/>
		<path id="XMLID_306_" class="st2" d="M454.8,382.1h-3.1v-6.2h-1.1v-2.6h1.1v-1.1c0-1.2,0-2.1,0.9-3.1c0.8-0.9,1.9-1.4,3.1-1.4
			c0.5,0,0.9,0.1,1.3,0.3v2.7c-0.4-0.2-0.7-0.3-1.1-0.3c-0.8,0-1.1,0.5-1.1,1.5v1.4h2.2v2.6h-2.2L454.8,382.1L454.8,382.1z"/>
		<path id="XMLID_303_" class="st2" d="M467.9,377.7c0,3-2.5,4.7-5.3,4.7s-5.3-1.7-5.3-4.7s2.5-4.7,5.3-4.7
			C465.5,373,467.9,374.7,467.9,377.7z M460.6,377.7c0,1.1,0.7,2,2,2s2-0.9,2-2s-0.7-2-2-2C461.4,375.7,460.6,376.6,460.6,377.7z"/>
		<path id="XMLID_301_" class="st2" d="M472.4,374.8L472.4,374.8c0.6-1.1,1.7-1.6,2.9-1.6h0.6v3c-0.4-0.2-0.8-0.3-1.3-0.3
			c-1.7,0-2.2,1.1-2.2,2.7v3.5h-3.1v-8.8h3.1V374.8z"/>
		<path id="XMLID_299_" class="st2" d="M480.2,374.4L480.2,374.4c0.8-1,1.7-1.4,2.8-1.4c1.3,0,2.4,0.5,3,1.7c0.6-1.1,1.8-1.7,3-1.7
			c2.2,0,3,1.5,3,3.5v5.6h-3.1v-4.2c0-0.9,0-2.4-1.3-2.4c-1.4,0-1.5,1.4-1.5,2.4v4.2H483v-4.2c0-1,0-2.5-1.4-2.5s-1.4,1.5-1.4,2.5
			v4.2h-3.1v-8.8h3.1V374.4z"/>
		<path id="XMLID_296_" class="st2" d="M503.6,382.1h-3.1v-1l0,0c-0.5,0.9-1.6,1.3-2.7,1.3c-2.6,0-4.4-2.2-4.4-4.7s1.8-4.7,4.4-4.7
			c1,0,2.1,0.4,2.7,1.1v-0.9h3.1V382.1z M496.6,377.7c0,1.1,0.7,2,2,2s2-0.9,2-2s-0.7-2-2-2C497.3,375.7,496.6,376.6,496.6,377.7z"
			/>
	</g>
</g>
<rect id="XMLID_1650_" x="306.1" y="454.9" class="st1" width="258.7" height="117.1"/>
<g id="XMLID_9320_">
	<g>
		<path id="XMLID_727_" class="st2" d="M351.6,500.6v8.7c0,2.7-1.4,4.5-4.3,4.5c-1.4,0-2.5-0.7-3.3-1.9l1.9-2
			c0.4,0.5,0.9,1.1,1.4,1.1c1,0,1-1.2,1-1.9v-8.5L351.6,500.6L351.6,500.6z"/>
		<path id="XMLID_725_" class="st2" d="M357,503.4v2.2h3.8v2.8H357v2.2h4v2.8h-7.3v-12.9h7.3v2.8L357,503.4L357,503.4z"/>
		<path id="XMLID_723_" class="st2" d="M366.4,503.4v2.2h3.7v2.8h-3.7v5.1H363v-12.9h7.4v2.8H366.4z"/>
		<path id="XMLID_721_" class="st2" d="M375.7,503.4v2.2h3.8v2.8h-3.8v2.2h4v2.8h-7.3v-12.9h7.3v2.8L375.7,503.4L375.7,503.4z"/>
		<path id="XMLID_718_" class="st2" d="M387.6,500.6h4.8c3.6,0,6.6,2.8,6.6,6.4s-3,6.4-6.6,6.4h-4.8V500.6z M391,510.6h0.8
			c2,0,3.7-1.1,3.7-3.6c0-2.3-1.5-3.6-3.7-3.6H391V510.6z"/>
		<path id="XMLID_716_" class="st2" d="M403.8,503.4v2.2h3.8v2.8h-3.8v2.2h4v2.8h-7.3v-12.9h7.3v2.8L403.8,503.4L403.8,503.4z"/>
		<path id="XMLID_714_" class="st2" d="M427,500.6v7.3c0,1.7-0.1,3.3-1.4,4.6c-1.1,1.1-2.8,1.4-4.3,1.4s-3.2-0.4-4.3-1.4
			c-1.3-1.2-1.4-2.9-1.4-4.6v-7.3h3.4v6.8c0,1.7,0.1,3.5,2.3,3.5c2.2,0,2.3-1.8,2.3-3.5v-6.8H427z"/>
		<path id="XMLID_711_" class="st2" d="M439.8,513.5h-4.2l-3.2-5l0,0v5H429v-12.9h5c2.5,0,4.5,1.2,4.5,4c0,1.8-1,3.3-2.8,3.6
			L439.8,513.5z M432.4,506.3h0.3c1.1,0,2.3-0.2,2.3-1.6s-1.2-1.6-2.3-1.6h-0.3V506.3z"/>
		<path id="XMLID_707_" class="st2" d="M440.7,513.5v-12.9h4.8c2.3,0,3.8,0.9,3.8,3.4c0,1.2-0.4,2.1-1.4,2.6l0,0
			c1.8,0.2,2.6,1.5,2.6,3.3c0,2.7-2.3,3.6-4.7,3.6H440.7z M444.1,505.6h0.4c0.9,0,1.8-0.2,1.8-1.2c0-1.2-1-1.2-2-1.2h-0.2
			L444.1,505.6L444.1,505.6z M444.1,510.9h0.4c1,0,2.7,0.1,2.7-1.4c0-1.6-1.7-1.4-2.8-1.4h-0.3L444.1,510.9L444.1,510.9z"/>
		<path id="XMLID_703_" class="st2" d="M455.6,511.2l-0.9,2.2h-3.6l5-12.9h3.7l4.9,12.9H461l-0.8-2.2H455.6z M457.9,504.6
			L457.9,504.6l-1.4,4.1h2.8L457.9,504.6z"/>
		<path id="XMLID_630_" class="st2" d="M465.6,500.6h3.4l6.1,7.9l0,0v-7.9h3.4v12.9h-3.4l-6.1-7.9l0,0v7.9h-3.4V500.6z"/>
		<path id="XMLID_580_" class="st2" d="M484.1,513.5h-3.4v-12.9h3.4V513.5z"/>
		<path id="XMLID_578_" class="st2" d="M493.3,503.9c-0.6-0.5-1.4-0.9-2.2-0.9c-0.6,0-1.4,0.4-1.4,1.1c0,0.8,0.9,1,1.5,1.2l0.9,0.3
			c1.8,0.5,3.2,1.4,3.2,3.5c0,1.3-0.3,2.6-1.3,3.5c-1,0.9-2.4,1.2-3.7,1.2c-1.6,0-3.2-0.5-4.5-1.5l1.4-2.7c0.8,0.7,1.8,1.3,3,1.3
			c0.8,0,1.6-0.4,1.6-1.3s-1.3-1.3-2-1.5c-2.1-0.6-3.5-1.1-3.5-3.6c0-2.6,1.9-4.3,4.4-4.3c1.3,0,2.9,0.4,4,1.1L493.3,503.9z"/>
		<path id="XMLID_576_" class="st2" d="M498.2,500.6h3.3l2.6,6.9l2.8-6.9h3.3l2,12.9h-3.4l-0.9-7.4l0,0l-3.1,7.4h-1.3l-3-7.4l0,0
			l-1.1,7.4H496L498.2,500.6z"/>
		<path id="XMLID_573_" class="st2" d="M527.2,506.8c0,4.2-3,7.1-7.1,7.1s-7.1-2.9-7.1-7.1c0-3.9,3.4-6.6,7.1-6.6
			C523.8,500.1,527.2,502.9,527.2,506.8z M516.5,506.8c0,2.2,1.6,3.8,3.6,3.8s3.6-1.6,3.6-3.8c0-1.8-1.6-3.4-3.6-3.4
			S516.5,505,516.5,506.8z"/>
		<path id="XMLID_571_" class="st2" d="M382.3,523.9v2.2h3.7v2.8h-3.7v5.1H379v-12.9h7.4v2.8L382.3,523.9L382.3,523.9z"/>
		<path id="XMLID_568_" class="st2" d="M391.5,521.8c0,1-0.8,1.7-1.7,1.7c-1,0-1.7-0.8-1.7-1.7c0-1,0.8-1.7,1.7-1.7
			S391.5,520.9,391.5,521.8z M391.3,534h-3.1v-8.8h3.1V534z"/>
		<path id="XMLID_566_" class="st2" d="M396.4,526.7L396.4,526.7c0.6-1.1,1.7-1.6,2.9-1.6h0.6v3c-0.4-0.2-0.8-0.3-1.3-0.3
			c-1.7,0-2.2,1.1-2.2,2.7v3.5h-3.1v-8.8h3.1V526.7z"/>
		<path id="XMLID_564_" class="st2" d="M404.2,526.3L404.2,526.3c0.8-1,1.7-1.4,2.8-1.4c1.3,0,2.4,0.5,3,1.7c0.6-1.1,1.8-1.7,3-1.7
			c2.2,0,3,1.5,3,3.5v5.6h-3.1v-4.2c0-0.9,0-2.4-1.3-2.4c-1.4,0-1.5,1.4-1.5,2.4v4.2H407v-4.2c0-1,0-2.5-1.4-2.5s-1.4,1.5-1.4,2.5
			v4.2h-3.1v-8.8h3.1V526.3z"/>
		<path id="XMLID_561_" class="st2" d="M427.6,534h-3.1v-1l0,0c-0.5,0.9-1.6,1.3-2.7,1.3c-2.6,0-4.4-2.2-4.4-4.7s1.8-4.7,4.4-4.7
			c1,0,2.1,0.4,2.7,1.1v-0.9h3.1V534z M420.6,529.6c0,1.1,0.7,2,2,2s2-0.9,2-2s-0.7-2-2-2C421.3,527.6,420.6,528.5,420.6,529.6z"/>
		<path id="XMLID_558_" class="st2" d="M435.6,521.1h5.1c2.8,0,4.7,1.3,4.7,4.2c0,3-1.6,4.4-4.6,4.4h-1.9v4.3h-3.4L435.6,521.1
			L435.6,521.1z M438.9,527h0.6c1.2,0,2.4,0,2.4-1.6s-1.1-1.6-2.4-1.6h-0.6V527z"/>
		<path id="XMLID_556_" class="st2" d="M449.9,534h-3.1v-14.2h3.1V534z"/>
		<path id="XMLID_553_" class="st2" d="M461.6,534h-3.1v-1l0,0c-0.5,0.9-1.6,1.3-2.7,1.3c-2.6,0-4.4-2.2-4.4-4.7s1.8-4.7,4.4-4.7
			c1,0,2.1,0.4,2.7,1.1v-0.9h3.1V534z M454.6,529.6c0,1.1,0.7,2,2,2s2-0.9,2-2s-0.7-2-2-2C455.3,527.6,454.6,528.5,454.6,529.6z"/>
		<path id="XMLID_551_" class="st2" d="M466.8,526.3L466.8,526.3c0.8-1.1,1.6-1.4,2.8-1.4c2.4,0,3.3,1.5,3.3,3.6v5.4h-3.1v-4.3
			c0-0.8,0.1-2.3-1.4-2.3c-1.3,0-1.6,0.9-1.6,2v4.6h-3.1v-8.8h3.1L466.8,526.3L466.8,526.3z"/>
		<path id="XMLID_548_" class="st2" d="M484.9,529.6c0,3-2.5,4.7-5.3,4.7s-5.3-1.7-5.3-4.7s2.5-4.7,5.3-4.7
			C482.4,524.9,484.9,526.6,484.9,529.6z M477.6,529.6c0,1.1,0.7,2,2,2s2-0.9,2-2s-0.7-2-2-2C478.3,527.6,477.6,528.5,477.6,529.6z"
			/>
		<path id="XMLID_546_" class="st2" d="M492.1,527.5c-0.5-0.3-1.1-0.4-1.7-0.4c-0.4,0-1,0.2-1,0.6c0,0.6,1,0.7,1.4,0.8
			c1.5,0.3,2.5,1,2.5,2.6c0,2.3-2.1,3.3-4.1,3.3c-1.2,0-2.5-0.4-3.5-1l1.1-2.2c0.6,0.4,1.7,0.9,2.5,0.9c0.4,0,1-0.2,1-0.7
			c0-0.7-1-0.7-2-1s-2-0.7-2-2.3c0-2.2,2-3.1,3.9-3.1c1,0,2,0.2,2.9,0.6L492.1,527.5z"/>
	</g>
</g>
<rect id="XMLID_1648_" x="306.1" y="606.8" class="st1" width="258.7" height="117.1"/>
<g id="XMLID_9267_">
	<g>
		<path id="XMLID_459_" class="st2" d="M387.8,653.9c-0.6-0.5-1.4-0.9-2.2-0.9c-0.6,0-1.4,0.4-1.4,1.1c0,0.8,0.9,1,1.5,1.2l0.9,0.3
			c1.8,0.5,3.2,1.4,3.2,3.5c0,1.3-0.3,2.6-1.3,3.5s-2.4,1.2-3.7,1.2c-1.6,0-3.2-0.5-4.5-1.5l1.4-2.7c0.8,0.7,1.8,1.3,3,1.3
			c0.8,0,1.6-0.4,1.6-1.3c0-0.9-1.3-1.3-2-1.5c-2.1-0.6-3.5-1.1-3.5-3.6c0-2.6,1.9-4.3,4.4-4.3c1.3,0,2.9,0.4,4,1.1L387.8,653.9z"/>
		<path id="XMLID_457_" class="st2" d="M402.5,650.6v7.3c0,1.7-0.1,3.3-1.4,4.6c-1.1,1.1-2.8,1.4-4.3,1.4s-3.2-0.4-4.3-1.4
			c-1.3-1.2-1.4-2.9-1.4-4.6v-7.3h3.4v6.8c0,1.7,0.1,3.5,2.3,3.5c2.2,0,2.3-1.8,2.3-3.5v-6.8H402.5z"/>
		<path id="XMLID_453_" class="st2" d="M404.6,663.5v-12.9h4.8c2.3,0,3.8,0.9,3.8,3.4c0,1.2-0.4,2.1-1.4,2.6l0,0
			c1.8,0.2,2.6,1.5,2.6,3.3c0,2.7-2.3,3.6-4.7,3.6L404.6,663.5L404.6,663.5z M407.9,655.6h0.4c0.9,0,1.8-0.2,1.8-1.2
			c0-1.2-1-1.2-2-1.2h-0.2L407.9,655.6L407.9,655.6z M407.9,660.9h0.4c1,0,2.7,0.1,2.7-1.4c0-1.6-1.7-1.4-2.8-1.4h-0.3L407.9,660.9
			L407.9,660.9z"/>
		<path id="XMLID_450_" class="st2" d="M419.4,661.2l-0.9,2.2H415l5-12.9h3.7l4.9,12.9H425l-0.8-2.2H419.4z M421.8,654.5
			L421.8,654.5l-1.4,4.1h2.8L421.8,654.5z"/>
		<path id="XMLID_448_" class="st2" d="M432.9,660.6h4v2.8h-7.4v-12.9h3.4V660.6z"/>
		<path id="XMLID_446_" class="st2" d="M447.2,654.9c-0.7-0.9-1.8-1.4-2.9-1.4c-2.1,0-3.4,1.6-3.4,3.6s1.4,3.5,3.5,3.5
			c1.1,0,2.2-0.5,2.9-1.4v4c-1.1,0.3-1.9,0.6-3,0.6c-1.8,0-3.5-0.7-4.8-1.9c-1.4-1.3-2.1-3-2.1-4.9c0-1.8,0.7-3.5,1.9-4.7
			c1.3-1.3,3.1-2.1,4.9-2.1c1.1,0,2.1,0.2,3.1,0.6v4.1H447.2z"/>
		<path id="XMLID_443_" class="st2" d="M452.6,661.2l-0.9,2.2h-3.6l5-12.9h3.7l4.9,12.9H458l-0.8-2.2H452.6z M454.9,654.5
			L454.9,654.5l-1.4,4.1h2.8L454.9,654.5z"/>
		<path id="XMLID_441_" class="st2" d="M466,660.6h4v2.8h-7.4v-12.9h3.4V660.6z"/>
		<path id="XMLID_438_" class="st2" d="M471.1,650.6h4.8c3.6,0,6.6,2.8,6.6,6.4c0,3.6-3,6.4-6.6,6.4h-4.8V650.6z M474.4,660.6h0.8
			c2,0,3.7-1.1,3.7-3.6c0-2.3-1.5-3.6-3.7-3.6h-0.8V660.6z"/>
		<path id="XMLID_436_" class="st2" d="M487.3,653.4v2.2h3.8v2.8h-3.8v2.2h4v2.8H484v-12.9h7.3v2.8h-4V653.4z"/>
		<path id="XMLID_434_" class="st2" d="M382.3,673.9v2.2h3.7v2.8h-3.7v5.1H379v-12.9h7.4v2.8L382.3,673.9L382.3,673.9z"/>
		<path id="XMLID_430_" class="st2" d="M391.5,671.8c0,1-0.8,1.7-1.7,1.7c-1,0-1.7-0.8-1.7-1.7c0-1,0.8-1.7,1.7-1.7
			S391.5,670.9,391.5,671.8z M391.3,684h-3.1v-8.8h3.1V684z"/>
		<path id="XMLID_428_" class="st2" d="M396.4,676.6L396.4,676.6c0.6-1.1,1.7-1.6,2.9-1.6h0.6v3c-0.4-0.2-0.8-0.3-1.3-0.3
			c-1.7,0-2.2,1.1-2.2,2.7v3.5h-3.1v-8.8h3.1V676.6z"/>
		<path id="XMLID_426_" class="st2" d="M404.2,676.3L404.2,676.3c0.8-1,1.7-1.4,2.8-1.4c1.3,0,2.4,0.5,3,1.7c0.6-1.1,1.8-1.7,3-1.7
			c2.2,0,3,1.5,3,3.5v5.6h-3.1v-4.2c0-0.9,0-2.4-1.3-2.4c-1.4,0-1.5,1.4-1.5,2.4v4.2H407v-4.2c0-1,0-2.5-1.4-2.5s-1.4,1.5-1.4,2.5
			v4.2h-3.1v-8.8h3.1V676.3z"/>
		<path id="XMLID_423_" class="st2" d="M427.6,684h-3.1v-1l0,0c-0.5,0.9-1.6,1.3-2.7,1.3c-2.6,0-4.4-2.2-4.4-4.7s1.8-4.7,4.4-4.7
			c1,0,2.1,0.4,2.7,1.1v-0.9h3.1V684z M420.6,679.6c0,1.1,0.7,2,2,2s2-0.9,2-2s-0.7-2-2-2C421.3,677.6,420.6,678.5,420.6,679.6z"/>
		<path id="XMLID_420_" class="st2" d="M435.6,671.1h5.1c2.8,0,4.7,1.3,4.7,4.2c0,3-1.6,4.4-4.6,4.4h-1.9v4.3h-3.4L435.6,671.1
			L435.6,671.1z M438.9,677h0.6c1.2,0,2.4,0,2.4-1.6s-1.1-1.6-2.4-1.6h-0.6V677z"/>
		<path id="XMLID_418_" class="st2" d="M449.9,684h-3.1v-14.2h3.1V684z"/>
		<path id="XMLID_415_" class="st2" d="M461.6,684h-3.1v-1l0,0c-0.5,0.9-1.6,1.3-2.7,1.3c-2.6,0-4.4-2.2-4.4-4.7s1.8-4.7,4.4-4.7
			c1,0,2.1,0.4,2.7,1.1v-0.9h3.1V684z M454.6,679.6c0,1.1,0.7,2,2,2s2-0.9,2-2s-0.7-2-2-2C455.3,677.6,454.6,678.5,454.6,679.6z"/>
		<path id="XMLID_413_" class="st2" d="M466.8,676.3L466.8,676.3c0.8-1.1,1.6-1.4,2.8-1.4c2.4,0,3.3,1.5,3.3,3.6v5.4h-3.1v-4.3
			c0-0.8,0.1-2.3-1.4-2.3c-1.3,0-1.6,0.9-1.6,2v4.6h-3.1v-8.8h3.1L466.8,676.3L466.8,676.3z"/>
		<path id="XMLID_410_" class="st2" d="M484.9,679.6c0,3-2.5,4.7-5.3,4.7s-5.3-1.7-5.3-4.7s2.5-4.7,5.3-4.7
			C482.4,674.9,484.9,676.6,484.9,679.6z M477.6,679.6c0,1.1,0.7,2,2,2s2-0.9,2-2s-0.7-2-2-2C478.3,677.6,477.6,678.5,477.6,679.6z"
			/>
		<path id="XMLID_408_" class="st2" d="M492.1,677.5c-0.5-0.3-1.1-0.4-1.7-0.4c-0.4,0-1,0.2-1,0.6c0,0.6,1,0.7,1.4,0.8
			c1.5,0.3,2.5,1,2.5,2.6c0,2.3-2.1,3.3-4.1,3.3c-1.2,0-2.5-0.4-3.5-1l1.1-2.2c0.6,0.4,1.7,0.9,2.5,0.9c0.4,0,1-0.2,1-0.7
			c0-0.7-1-0.7-2-1s-2-0.7-2-2.3c0-2.2,2-3.1,3.9-3.1c1,0,2,0.2,2.9,0.6L492.1,677.5z"/>
	</g>
</g>
<polygon id="XMLID_1643_" class="st4" points="309.9,57.8 299,64.1 288.1,70.4 288.1,57.8 288.1,45.2 299,51.5 "/>
<polygon id="XMLID_1642_" class="st4" points="433.6,156.4 427.3,145.5 421,134.6 433.6,134.6 446.2,134.6 439.9,145.5 "/>
<polygon id="XMLID_1641_" class="st4" points="564.9,212.1 575.8,205.8 586.7,199.5 586.7,212.1 586.7,224.6 575.8,218.3 "/>
<polygon id="XMLID_1639_" class="st4" points="564.9,361.6 575.8,355.3 586.7,349 586.7,361.6 586.7,374.2 575.8,367.9 "/>
<polygon id="XMLID_1637_" class="st4" points="626.2,57.6 615.2,63.9 604.3,70.2 604.3,57.6 604.3,45 615.2,51.3 "/>
<polygon id="XMLID_491_" class="st4" points="755.6,120.3 761.9,131.2 768.2,142.1 755.6,142.1 743,142.1 749.3,131.2 "/>
<polygon id="XMLID_490_" class="st4" points="433.6,307.5 427.3,296.6 421,285.7 433.6,285.7 446.2,285.7 439.9,296.6 "/>
<polygon id="XMLID_489_" class="st4" points="433.6,458.6 427.3,447.7 421,436.8 433.6,436.8 446.2,436.8 439.9,447.7 "/>
<polygon id="XMLID_487_" class="st4" points="433.6,609.7 427.3,598.8 421,587.9 433.6,587.9 446.2,587.9 439.9,598.8 "/>
<polyline id="XMLID_473_" class="st0" points="101.3,433.6 101.3,666.7 306.1,666.7 "/>
<line id="XMLID_467_" class="st0" x1="571" y1="57.6" x2="617.6" y2="57.6"/>
<polyline id="XMLID_465_" class="st0" points="755.6,125.5 755.6,212.1 580.5,212.1 "/>
<line id="XMLID_1_" class="st0" x1="574.7" y1="361.6" x2="621.3" y2="361.6"/>
</svg>
