<?xml version="1.0" encoding="utf-8"?>
<!-- Generator: Adobe Illustrator 21.0.2, SVG Export Plug-In . SVG Version: 6.00 Build 0)  -->
<svg version="1.1" id="Layer_1" xmlns="http://www.w3.org/2000/svg" xmlns:xlink="http://www.w3.org/1999/xlink" x="0px" y="0px"
	 viewBox="0 0 998.6 1800.9" style="enable-background:new 0 0 998.6 1800.9;" xml:space="preserve">
<style type="text/css">
	.st0{fill:none;stroke:#E42527;stroke-width:4;stroke-miterlimit:10;}
	.st1{fill:#9D9D9C;}
	.st2{fill:#929191;}
	.st3{fill:#FFFFFF;}
	.st4{fill:#E42527;}
</style>
<line id="XMLID_7514_" class="st0" x1="722.7" y1="139.9" x2="722.7" y2="1679.6"/>
<rect id="XMLID_7250_" x="99" y="642.5" class="st1" width="349.5" height="158.2"/>
<rect id="XMLID_7249_" x="99" y="958.3" class="st2" width="349.5" height="158.2"/>
<rect id="XMLID_7248_" x="550.5" y="1.2" class="st1" width="349.5" height="158.2"/>
<g id="XMLID_24843_">
	<g>
		<path id="XMLID_240_" class="st3" d="M175.2,719.9c-0.9-1.2-2.4-1.9-4-1.9c-2.8,0-4.6,2.1-4.6,4.8c0,2.8,1.9,4.7,4.7,4.7
			c1.5,0,3-0.7,3.9-1.8v5.4c-1.5,0.5-2.6,0.8-4,0.8c-2.4,0-4.7-0.9-6.5-2.6c-1.9-1.7-2.8-4-2.8-6.6c0-2.4,0.9-4.7,2.6-6.4
			c1.7-1.8,4.2-2.8,6.6-2.8c1.5,0,2.8,0.3,4.1,0.9V719.9z"/>
		<path id="XMLID_237_" class="st3" d="M196.4,722.4c0,5.6-4,9.6-9.6,9.6c-5.6,0-9.6-4-9.6-9.6c0-5.3,4.6-9,9.6-9
			S196.4,717.2,196.4,722.4z M181.8,722.4c0,3,2.2,5.2,4.9,5.2c2.7,0,4.9-2.2,4.9-5.2c0-2.4-2.2-4.6-4.9-4.6
			C184,717.8,181.8,720,181.8,722.4z"/>
		<path id="XMLID_235_" class="st3" d="M198.5,714h4.5l8.3,10.7h0V714h4.5v17.4h-4.5l-8.3-10.7h0v10.7h-4.5V714z"/>
		<path id="XMLID_233_" class="st3" d="M225.8,731.5h-4.5v-13.6h-3.7V714h12v3.8h-3.7V731.5z"/>
		<path id="XMLID_230_" class="st3" d="M245.6,731.5H240l-4.3-6.7h0v6.7h-4.5V714h6.8c3.4,0,6.1,1.6,6.1,5.4c0,2.4-1.3,4.5-3.8,4.9
			L245.6,731.5z M235.7,721.8h0.4c1.5,0,3.1-0.3,3.1-2.2c0-1.9-1.7-2.2-3.1-2.2h-0.4V721.8z"/>
		<path id="XMLID_228_" class="st3" d="M251.4,731.5h-4.5V714h4.5V731.5z"/>
		<path id="XMLID_224_" class="st3" d="M254.3,731.5V714h6.5c3.1,0,5.2,1.2,5.2,4.5c0,1.6-0.5,2.8-1.9,3.6v0c2.5,0.3,3.6,2,3.6,4.4
			c0,3.7-3.1,4.9-6.3,4.9H254.3z M258.9,720.9h0.5c1.2,0,2.4-0.2,2.4-1.7c0-1.6-1.4-1.7-2.6-1.7h-0.3V720.9z M258.9,728h0.6
			c1.3,0,3.6,0.1,3.6-1.8c0-2.1-2.2-1.9-3.7-1.9h-0.5V728z"/>
		<path id="XMLID_222_" class="st3" d="M285.1,714v9.8c0,2.2-0.1,4.5-1.8,6.1c-1.5,1.4-3.7,1.9-5.8,1.9c-2,0-4.3-0.5-5.8-1.9
			c-1.7-1.7-1.8-3.9-1.8-6.1V714h4.5v9.2c0,2.3,0.2,4.7,3.1,4.7c2.9,0,3.1-2.5,3.1-4.7V714H285.1z"/>
		<path id="XMLID_220_" class="st3" d="M286.1,714h5.4l3.3,4.7l3.3-4.7h5.4l-6.4,9.1v8.4h-4.5v-8.4L286.1,714z"/>
		<path id="XMLID_218_" class="st3" d="M309,717.9v2.9h5.1v3.8H309v3h5.4v3.8h-9.9V714h9.9v3.8H309z"/>
		<path id="XMLID_216_" class="st3" d="M317.2,714h4.5l8.3,10.7h0V714h4.5v17.4h-4.5l-8.3-10.7h0v10.7h-4.5V714z"/>
		<path id="XMLID_214_" class="st3" d="M344.5,731.5h-4.5v-13.6h-3.7V714h12v3.8h-3.7V731.5z"/>
		<path id="XMLID_212_" class="st3" d="M354.4,717.9v2.9h5.1v3.8h-5.1v3h5.4v3.8h-9.9V714h9.9v3.8H354.4z"/>
	</g>
</g>
<g id="XMLID_24742_">
	<g>
		<path id="XMLID_1375_" class="st3" d="M156.2,1007.2l4.2-10.6h4.9l-7.4,17.4h-3.5l-7.3-17.4h4.9L156.2,1007.2z"/>
		<path id="XMLID_1373_" class="st3" d="M171,1000.5v2.9h5.1v3.8H171v3h5.4v3.8h-9.9v-17.4h9.9v3.8H171z"/>
		<path id="XMLID_1371_" class="st3" d="M179.2,996.6h4.5l8.3,10.7h0v-10.7h4.5v17.4h-4.5l-8.3-10.7h0v10.7h-4.5V996.6z"/>
		<path id="XMLID_1369_" class="st3" d="M206.5,1014h-4.5v-13.6h-3.7v-3.8h12v3.8h-3.7V1014z"/>
		<path id="XMLID_1366_" class="st3" d="M214.9,1011l-1.2,3h-4.8l6.7-17.4h4.9l6.6,17.4h-4.8l-1.1-3H214.9z M218.1,1002L218.1,1002
			l-1.9,5.5h3.8L218.1,1002z"/>
		<path id="XMLID_1364_" class="st3" d="M228.5,996.6h4.5l8.3,10.7h0v-10.7h4.5v17.4h-4.5l-8.3-10.7h0v10.7h-4.5V996.6z"/>
		<path id="XMLID_1362_" class="st3" d="M253.4,1014h-4.5v-17.4h4.5V1014z"/>
		<path id="XMLID_1359_" class="st3" d="M260.9,1010.2h5.4v3.8h-10v-17.4h4.5V1010.2z"/>
		<path id="XMLID_1357_" class="st3" d="M272.3,1010.2h5.4v3.8h-10v-17.4h4.5V1010.2z"/>
		<path id="XMLID_1354_" class="st3" d="M283.7,1011l-1.2,3h-4.8l6.7-17.4h4.9l6.6,17.4H291l-1.1-3H283.7z M286.8,1002L286.8,1002
			l-1.9,5.5h3.8L286.8,1002z"/>
		<path id="XMLID_1351_" class="st3" d="M320.3,996.6v9.8c0,2.2-0.1,4.5-1.8,6.1c-1.5,1.4-3.7,1.9-5.8,1.9s-4.3-0.5-5.8-1.9
			c-1.7-1.7-1.8-3.9-1.8-6.1v-9.8h4.5v9.2c0,2.3,0.2,4.7,3.1,4.7c2.9,0,3.1-2.5,3.1-4.7v-9.2H320.3z M312.1,995.6l-1.9-1.4l3.3-4
			l2.6,1.8L312.1,995.6z"/>
		<path id="XMLID_1349_" class="st3" d="M323.2,996.6h4.5l8.3,10.7h0v-10.7h4.5v17.4h-4.5l-8.3-10.7h0v10.7h-4.5V996.6z"/>
		<path id="XMLID_1347_" class="st3" d="M348.1,1014h-4.5v-17.4h4.5V1014z"/>
		<path id="XMLID_1345_" class="st3" d="M363.5,1002.5c-0.9-1.2-2.4-1.9-4-1.9c-2.8,0-4.6,2.1-4.6,4.8c0,2.8,1.9,4.7,4.7,4.7
			c1.5,0,3-0.7,3.9-1.8v5.4c-1.5,0.5-2.6,0.8-4,0.8c-2.4,0-4.7-0.9-6.5-2.6c-1.9-1.7-2.8-4-2.8-6.6c0-2.4,0.9-4.7,2.6-6.4
			c1.7-1.8,4.2-2.8,6.6-2.8c1.5,0,2.8,0.3,4.1,0.9V1002.5z"/>
		<path id="XMLID_1342_" class="st3" d="M370.7,1011l-1.2,3h-4.8l6.7-17.4h4.9l6.6,17.4h-4.8l-1.1-3H370.7z M373.9,1002L373.9,1002
			l-1.9,5.5h3.8L373.9,1002z"/>
		<path id="XMLID_1340_" class="st3" d="M174.2,1028.2v2.9h5.1v3.8h-5.1v3h5.4v3.8h-9.9v-17.4h9.9v3.8H174.2z"/>
		<path id="XMLID_1338_" class="st3" d="M186.5,1031.4L186.5,1031.4c1-1.4,2.2-1.9,3.8-1.9c3.2,0,4.5,2,4.5,4.9v7.3h-4.2v-5.8
			c0-1.1,0.2-3.1-1.9-3.1c-1.7,0-2.2,1.3-2.2,2.8v6.1h-4.2v-11.9h4.2V1031.4z"/>
		<path id="XMLID_1336_" class="st3" d="M202.1,1041.8h-4.2v-8.4h-1.4v-3.5h1.4v-3.6h4.2v3.6h2.4v3.5h-2.4V1041.8z"/>
		<path id="XMLID_1292_" class="st3" d="M210.1,1031.9L210.1,1031.9c0.9-1.5,2.2-2.1,3.9-2.1h0.8v4c-0.6-0.3-1.1-0.4-1.8-0.4
			c-2.3,0-2.9,1.5-2.9,3.6v4.8h-4.2v-11.9h4.2V1031.9z"/>
		<path id="XMLID_1289_" class="st3" d="M228.5,1036.5h-8.9c0,1.7,0.9,2.6,2.6,2.6c0.9,0,1.5-0.3,2-1.1h4c-0.3,1.4-1.2,2.4-2.2,3.1
			c-1.1,0.7-2.4,1-3.8,1c-3.9,0-6.9-2.2-6.9-6.3c0-4,2.7-6.3,6.6-6.3c4.1,0,6.5,2.5,6.5,6.6V1036.5z M224.6,1034.1
			c-0.2-1.1-1.2-1.9-2.4-1.9c-1.2,0-2.2,0.6-2.5,1.9H224.6z"/>
		<path id="XMLID_1286_" class="st3" d="M243.4,1040.6c0,5-2.5,7.1-6.9,7.1c-2.7,0-6.4-1.4-6.7-4.5h4.7c0.1,0.4,0.4,0.7,0.8,0.9
			c0.4,0.2,0.8,0.3,1.2,0.3c2.3,0,2.7-1.5,2.7-3.4v-0.6c-1.1,1.1-2.2,1.6-3.8,1.6c-3.5,0-5.8-2.6-5.8-6.1c0-3.5,2.4-6.4,6.1-6.4
			c1.4,0,2.7,0.5,3.5,1.6h0v-1.2h4.2V1040.6z M234,1035.8c0,1.5,1,2.7,2.7,2.7c1.7,0,2.7-1.2,2.7-2.7c0-1.5-1-2.7-2.7-2.7
			C235,1033.1,234,1034.3,234,1035.8z"/>
		<path id="XMLID_1283_" class="st3" d="M259,1041.8h-4.2v-1.3h0c-0.7,1.2-2.2,1.7-3.6,1.7c-3.5,0-6-2.9-6-6.3
			c0-3.4,2.4-6.3,5.9-6.3c1.4,0,2.8,0.5,3.7,1.5v-1.2h4.2V1041.8z M249.6,1035.9c0,1.5,1,2.7,2.7,2.7c1.7,0,2.7-1.2,2.7-2.7
			c0-1.5-1-2.7-2.7-2.7C250.5,1033.2,249.6,1034.4,249.6,1035.9z"/>
		<path id="XMLID_1281_" class="st3" d="M274.3,1041.8h-4.2v-8.4h-1.4v-3.5h1.4v-3.6h4.2v3.6h2.4v3.5h-2.4V1041.8z"/>
		<path id="XMLID_1278_" class="st3" d="M291.5,1035.9c0,4-3.3,6.3-7.1,6.3c-3.8,0-7.1-2.3-7.1-6.3s3.3-6.3,7.1-6.3
			C288.1,1029.5,291.5,1031.8,291.5,1035.9z M281.6,1035.9c0,1.5,1,2.7,2.7,2.7c1.7,0,2.7-1.2,2.7-2.7c0-1.5-1-2.7-2.7-2.7
			C282.6,1033.2,281.6,1034.4,281.6,1035.9z"/>
		<path id="XMLID_1275_" class="st3" d="M302.3,1040.5L302.3,1040.5c-0.8,1.2-2.2,1.7-3.6,1.7c-3.5,0-6-2.9-6-6.3
			c0-3.4,2.4-6.3,5.9-6.3c1.4,0,2.8,0.5,3.7,1.5v-8.5h4.2v19.2h-4.2V1040.5z M297,1035.9c0,1.5,1,2.7,2.7,2.7c1.7,0,2.7-1.2,2.7-2.7
			c0-1.5-1-2.7-2.7-2.7C298,1033.2,297,1034.4,297,1035.9z"/>
		<path id="XMLID_1272_" class="st3" d="M322.1,1041.8h-4.2v-1.3h0c-0.7,1.2-2.2,1.7-3.6,1.7c-3.5,0-6-2.9-6-6.3
			c0-3.4,2.4-6.3,5.9-6.3c1.4,0,2.8,0.5,3.7,1.5v-1.2h4.2V1041.8z M312.6,1035.9c0,1.5,1,2.7,2.7,2.7c1.7,0,2.7-1.2,2.7-2.7
			c0-1.5-1-2.7-2.7-2.7C313.6,1033.2,312.6,1034.4,312.6,1035.9z"/>
		<path id="XMLID_1270_" class="st3" d="M337,1041.8h-4.2v-19.2h4.2V1041.8z"/>
		<path id="XMLID_1267_" class="st3" d="M352.8,1041.8h-4.2v-1.3h0c-0.7,1.2-2.2,1.7-3.6,1.7c-3.5,0-6-2.9-6-6.3
			c0-3.4,2.4-6.3,5.9-6.3c1.4,0,2.8,0.5,3.7,1.5v-1.2h4.2V1041.8z M343.3,1035.9c0,1.5,1,2.7,2.7,2.7c1.7,0,2.7-1.2,2.7-2.7
			c0-1.5-1-2.7-2.7-2.7C344.3,1033.2,343.3,1034.4,343.3,1035.9z"/>
		<path id="XMLID_1264_" class="st3" d="M184.2,1068.2L184.2,1068.2c-0.8,1.2-2.2,1.7-3.6,1.7c-3.5,0-6-2.9-6-6.3
			c0-3.4,2.4-6.3,5.9-6.3c1.4,0,2.8,0.5,3.7,1.5v-8.5h4.2v19.2h-4.2V1068.2z M178.9,1063.6c0,1.5,1,2.7,2.7,2.7
			c1.7,0,2.7-1.2,2.7-2.7c0-1.5-1-2.7-2.7-2.7C179.9,1060.9,178.9,1062.1,178.9,1063.6z"/>
		<path id="XMLID_1261_" class="st3" d="M204.4,1063.6c0,4-3.3,6.3-7.1,6.3c-3.8,0-7.1-2.3-7.1-6.3s3.3-6.3,7.1-6.3
			C201.1,1057.3,204.4,1059.5,204.4,1063.6z M194.6,1063.6c0,1.5,1,2.7,2.7,2.7c1.7,0,2.7-1.2,2.7-2.7c0-1.5-1-2.7-2.7-2.7
			C195.6,1060.9,194.6,1062.1,194.6,1063.6z"/>
		<path id="XMLID_1259_" class="st3" d="M214.9,1061.5c-0.6-0.5-1.4-0.8-2.2-0.8c-1.6,0-2.9,1.2-2.9,2.9c0,1.7,1.2,2.9,3,2.9
			c0.7,0,1.5-0.3,2.1-0.8v3.6c-0.9,0.5-1.9,0.7-3,0.7c-3.5,0-6.4-2.6-6.4-6.2c0-3.8,2.9-6.4,6.6-6.4c1,0,1.9,0.2,2.8,0.7V1061.5z"/>
		<path id="XMLID_1257_" class="st3" d="M221.6,1057.6v6.3c0,1.5,0.4,2.6,2.1,2.6c1.7,0,2.1-1.1,2.1-2.6v-6.3h4.2v7.1
			c0,3.9-2.7,5.1-6.3,5.1c-3.6,0-6.3-1.2-6.3-5.1v-7.1H221.6z"/>
		<path id="XMLID_1255_" class="st3" d="M236.9,1059.1L236.9,1059.1c1-1.3,2.3-1.9,3.8-1.9c1.7,0,3.2,0.7,4,2.3
			c0.8-1.5,2.4-2.3,4-2.3c3,0,4,2,4,4.7v7.6h-4.2v-5.7c0-1.2,0-3.2-1.7-3.2c-1.9,0-2,1.8-2,3.2v5.7h-4.2v-5.7c0-1.3,0-3.3-1.9-3.3
			c-1.9,0-1.9,2-1.9,3.3v5.7h-4.2v-11.9h4.2V1059.1z"/>
		<path id="XMLID_1252_" class="st3" d="M267.8,1064.3h-8.9c0,1.7,0.9,2.6,2.6,2.6c0.9,0,1.5-0.3,2-1.1h4c-0.3,1.4-1.2,2.4-2.2,3.1
			c-1.1,0.7-2.4,1-3.8,1c-3.9,0-6.9-2.2-6.9-6.3c0-4,2.7-6.3,6.6-6.3c4.1,0,6.5,2.5,6.5,6.6V1064.3z M263.9,1061.8
			c-0.2-1.1-1.2-1.9-2.4-1.9c-1.2,0-2.2,0.6-2.5,1.9H263.9z"/>
		<path id="XMLID_1250_" class="st3" d="M273.9,1059.2L273.9,1059.2c1-1.4,2.2-1.9,3.8-1.9c3.2,0,4.5,2,4.5,4.9v7.3H278v-5.8
			c0-1.1,0.2-3.1-1.9-3.1c-1.7,0-2.2,1.3-2.2,2.8v6.1h-4.2v-11.9h4.2V1059.2z"/>
		<path id="XMLID_1248_" class="st3" d="M289.6,1069.5h-4.2v-8.4H284v-3.5h1.4v-3.6h4.2v3.6h2.4v3.5h-2.4V1069.5z"/>
		<path id="XMLID_1245_" class="st3" d="M306.2,1069.5H302v-1.3h0c-0.7,1.2-2.2,1.7-3.6,1.7c-3.5,0-6-2.9-6-6.3
			c0-3.4,2.4-6.3,5.9-6.3c1.4,0,2.8,0.5,3.7,1.5v-1.2h4.2V1069.5z M296.8,1063.6c0,1.5,1,2.7,2.7,2.7c1.7,0,2.7-1.2,2.7-2.7
			c0-1.5-1-2.7-2.7-2.7C297.8,1060.9,296.8,1062.1,296.8,1063.6z"/>
		<path id="XMLID_1243_" class="st3" d="M317.6,1061.5c-0.6-0.5-1.4-0.8-2.2-0.8c-1.6,0-2.9,1.2-2.9,2.9c0,1.7,1.2,2.9,3,2.9
			c0.7,0,1.5-0.3,2.1-0.8v3.6c-0.9,0.5-1.9,0.7-3,0.7c-3.5,0-6.4-2.6-6.4-6.2c0-3.8,2.9-6.4,6.6-6.4c1,0,1.9,0.2,2.8,0.7V1061.5z"/>
		<path id="XMLID_1240_" class="st3" d="M324.7,1053.1c0,1.3-1.1,2.4-2.4,2.4c-1.3,0-2.4-1.1-2.4-2.4c0-1.3,1.1-2.4,2.4-2.4
			C323.6,1050.7,324.7,1051.8,324.7,1053.1z M324.4,1069.5h-4.2v-11.9h4.2V1069.5z"/>
		<path id="XMLID_1236_" class="st3" d="M340.6,1063.6c0,4-3.3,6.3-7.1,6.3c-3.8,0-7.1-2.3-7.1-6.3s3.3-6.3,7.1-6.3
			C337.2,1057.3,340.6,1059.5,340.6,1063.6z M330.7,1063.6c0,1.5,1,2.7,2.7,2.7c1.7,0,2.7-1.2,2.7-2.7c0-1.5-1-2.7-2.7-2.7
			C331.7,1060.9,330.7,1062.1,330.7,1063.6z M333,1055.9l-1.9-1.4l3.3-4l2.6,1.8L333,1055.9z"/>
		<path id="XMLID_1234_" class="st3" d="M346.7,1059.2L346.7,1059.2c1-1.4,2.2-1.9,3.8-1.9c3.2,0,4.5,2,4.5,4.9v7.3h-4.2v-5.8
			c0-1.1,0.2-3.1-1.9-3.1c-1.7,0-2.2,1.3-2.2,2.8v6.1h-4.2v-11.9h4.2V1059.2z"/>
	</g>
</g>
<g id="XMLID_24658_">
	<g>
		<path id="XMLID_1068_" class="st3" d="M643.5,44c-0.8-0.7-1.9-1.2-3-1.2c-0.8,0-1.9,0.5-1.9,1.5c0,1,1.2,1.4,2,1.7l1.2,0.3
			c2.4,0.7,4.3,1.9,4.3,4.8c0,1.7-0.4,3.5-1.8,4.7c-1.4,1.2-3.2,1.6-4.9,1.6c-2.2,0-4.3-0.7-6.1-2l1.9-3.7c1.1,1,2.5,1.8,4,1.8
			c1.1,0,2.2-0.5,2.2-1.8c0-1.3-1.8-1.7-2.8-2c-2.8-0.8-4.7-1.5-4.7-4.9c0-3.5,2.5-5.8,6-5.8c1.8,0,3.9,0.6,5.5,1.4L643.5,44z"/>
		<path id="XMLID_1066_" class="st3" d="M652.7,43.4v2.9h5.1v3.8h-5.1v3h5.4V57h-9.9V39.6h9.9v3.8H652.7z"/>
		<path id="XMLID_1064_" class="st3" d="M673.4,45.4c-0.9-1.2-2.4-1.9-4-1.9c-2.8,0-4.6,2.1-4.6,4.8c0,2.8,1.9,4.7,4.7,4.7
			c1.5,0,3-0.7,3.9-1.8v5.4c-1.5,0.5-2.6,0.8-4,0.8c-2.4,0-4.7-0.9-6.5-2.6c-1.9-1.7-2.8-4-2.8-6.6c0-2.4,0.9-4.7,2.6-6.4
			c1.7-1.8,4.2-2.8,6.6-2.8c1.5,0,2.8,0.3,4.1,0.9V45.4z"/>
		<path id="XMLID_1061_" class="st3" d="M690.6,57H685l-4.3-6.7h0V57h-4.5V39.6h6.8c3.4,0,6.1,1.6,6.1,5.4c0,2.4-1.3,4.5-3.8,4.9
			L690.6,57z M680.7,47.4h0.4c1.5,0,3.1-0.3,3.1-2.2c0-1.9-1.7-2.2-3.1-2.2h-0.4V47.4z"/>
		<path id="XMLID_1059_" class="st3" d="M696.4,43.4v2.9h5.1v3.8h-5.1v3h5.4V57h-9.9V39.6h9.9v3.8H696.4z"/>
		<path id="XMLID_1057_" class="st3" d="M711.5,57H707V43.4h-3.7v-3.8h12v3.8h-3.7V57z"/>
		<path id="XMLID_1054_" class="st3" d="M719.9,54l-1.2,3h-4.8l6.7-17.4h4.9l6.6,17.4h-4.8l-1.1-3H719.9z M723.1,44.9L723.1,44.9
			l-1.9,5.5h3.8L723.1,44.9z"/>
		<path id="XMLID_1051_" class="st3" d="M748,57h-5.6l-4.3-6.7h0V57h-4.5V39.6h6.8c3.4,0,6.1,1.6,6.1,5.4c0,2.4-1.3,4.5-3.8,4.9
			L748,57z M738.1,47.4h0.4c1.5,0,3.1-0.3,3.1-2.2c0-1.9-1.7-2.2-3.1-2.2h-0.4V47.4z"/>
		<path id="XMLID_1049_" class="st3" d="M753.8,57h-4.5V39.6h4.5V57z"/>
		<path id="XMLID_1046_" class="st3" d="M761.2,54l-1.2,3h-4.8l6.7-17.4h4.9l6.6,17.4h-4.8l-1.1-3H761.2z M764.4,44.9L764.4,44.9
			l-1.9,5.5h3.8L764.4,44.9z"/>
		<path id="XMLID_1043_" class="st3" d="M782.7,39.6h6.4c4.9,0,8.9,3.8,8.9,8.7c0,4.9-4,8.7-8.9,8.7h-6.4V39.6z M787.3,53.1h1
			c2.7,0,5-1.5,5-4.9c0-3.1-2.1-4.9-5-4.9h-1.1V53.1z"/>
		<path id="XMLID_1041_" class="st3" d="M804.6,43.4v2.9h5.1v3.8h-5.1v3h5.4V57h-9.9V39.6h9.9v3.8H804.6z"/>
		<path id="XMLID_1038_" class="st3" d="M605.3,81.7l-1.2,3h-4.8l6.7-17.4h4.9l6.6,17.4h-4.8l-1.1-3H605.3z M608.5,72.7L608.5,72.7
			l-1.9,5.5h3.8L608.5,72.7z"/>
		<path id="XMLID_1025_" class="st3" d="M628.5,71.8c-0.8-0.7-1.9-1.2-3-1.2c-0.8,0-1.9,0.5-1.9,1.5c0,1,1.2,1.4,2,1.7l1.2,0.3
			c2.4,0.7,4.3,1.9,4.3,4.8c0,1.7-0.4,3.5-1.8,4.7c-1.4,1.2-3.2,1.6-4.9,1.6c-2.2,0-4.3-0.7-6.1-2l1.9-3.7c1.1,1,2.5,1.8,4,1.8
			c1.1,0,2.2-0.5,2.2-1.8c0-1.3-1.8-1.7-2.8-2c-2.8-0.8-4.7-1.5-4.7-4.9c0-3.5,2.5-5.8,6-5.8c1.8,0,3.9,0.6,5.5,1.4L628.5,71.8z"/>
		<path id="XMLID_1023_" class="st3" d="M648.3,67.3v9.8c0,2.2-0.1,4.5-1.8,6.1c-1.5,1.4-3.7,1.9-5.8,1.9c-2,0-4.3-0.5-5.8-1.9
			c-1.7-1.7-1.8-3.9-1.8-6.1v-9.8h4.5v9.2c0,2.3,0.2,4.7,3.1,4.7c2.9,0,3.1-2.5,3.1-4.7v-9.2H648.3z"/>
		<path id="XMLID_1021_" class="st3" d="M651.1,67.3h4.5l8.3,10.7h0V67.3h4.5v17.4H664L655.7,74h0v10.7h-4.5V67.3z"/>
		<path id="XMLID_1019_" class="st3" d="M678.4,84.7h-4.5V71.1h-3.7v-3.8h12v3.8h-3.7V84.7z"/>
		<path id="XMLID_1016_" class="st3" d="M702.2,75.7c0,5.6-4,9.6-9.6,9.6c-5.6,0-9.6-4-9.6-9.6c0-5.3,4.6-9,9.6-9
			C697.6,66.7,702.2,70.4,702.2,75.7z M687.7,75.7c0,3,2.2,5.2,4.9,5.2c2.7,0,4.9-2.2,4.9-5.2c0-2.4-2.2-4.6-4.9-4.6
			C689.9,71.1,687.7,73.3,687.7,75.7z"/>
		<path id="XMLID_1014_" class="st3" d="M713.9,71.8c-0.8-0.7-1.9-1.2-3-1.2c-0.8,0-1.9,0.5-1.9,1.5c0,1,1.2,1.4,2,1.7l1.2,0.3
			c2.4,0.7,4.3,1.9,4.3,4.8c0,1.7-0.4,3.5-1.8,4.7c-1.4,1.2-3.2,1.6-4.9,1.6c-2.2,0-4.3-0.7-6.1-2l1.9-3.7c1.1,1,2.5,1.8,4,1.8
			c1.1,0,2.2-0.5,2.2-1.8c0-1.3-1.8-1.7-2.8-2c-2.8-0.8-4.7-1.5-4.7-4.9c0-3.5,2.5-5.8,6-5.8c1.8,0,3.9,0.6,5.5,1.4L713.9,71.8z"/>
		<path id="XMLID_1012_" class="st3" d="M734.9,67.3v11.8c0,3.7-1.9,6.1-5.8,6.1c-1.9,0-3.4-1-4.5-2.6l2.6-2.7
			c0.5,0.7,1.2,1.5,1.8,1.5c1.3,0,1.3-1.6,1.3-2.6V67.3H734.9z"/>
		<path id="XMLID_1010_" class="st3" d="M752.9,67.3v9.8c0,2.2-0.1,4.5-1.8,6.1c-1.5,1.4-3.7,1.9-5.8,1.9c-2,0-4.3-0.5-5.8-1.9
			c-1.7-1.7-1.8-3.9-1.8-6.1v-9.8h4.5v9.2c0,2.3,0.2,4.7,3.1,4.7c2.9,0,3.1-2.5,3.1-4.7v-9.2H752.9z"/>
		<path id="XMLID_1007_" class="st3" d="M770.2,84.7h-5.6l-4.3-6.7h0v6.7h-4.5V67.3h6.8c3.4,0,6.1,1.6,6.1,5.4
			c0,2.4-1.3,4.5-3.8,4.9L770.2,84.7z M760.3,75.1h0.4c1.5,0,3.1-0.3,3.1-2.2c0-1.9-1.7-2.2-3.1-2.2h-0.4V75.1z"/>
		<path id="XMLID_1005_" class="st3" d="M776,84.7h-4.5V67.3h4.5V84.7z"/>
		<path id="XMLID_1002_" class="st3" d="M779,67.3h6.4c4.9,0,8.9,3.8,8.9,8.7c0,4.9-4,8.7-8.9,8.7H779V67.3z M783.5,80.9h1
			c2.7,0,5-1.5,5-4.9c0-3.1-2.1-4.9-5-4.9h-1.1V80.9z"/>
		<path id="XMLID_1000_" class="st3" d="M800.9,84.7h-4.5V67.3h4.5V84.7z"/>
		<path id="XMLID_998_" class="st3" d="M816.3,73.1c-0.9-1.2-2.4-1.9-4-1.9c-2.8,0-4.6,2.1-4.6,4.8c0,2.8,1.9,4.7,4.7,4.7
			c1.5,0,3-0.7,3.9-1.8v5.4c-1.5,0.5-2.6,0.8-4,0.8c-2.4,0-4.7-0.9-6.5-2.6c-1.9-1.7-2.8-4-2.8-6.6c0-2.4,0.9-4.7,2.6-6.4
			c1.7-1.8,4.2-2.8,6.6-2.8c1.5,0,2.8,0.3,4.1,0.9V73.1z"/>
		<path id="XMLID_995_" class="st3" d="M837.5,75.7c0,5.6-4,9.6-9.6,9.6s-9.6-4-9.6-9.6c0-5.3,4.6-9,9.6-9
			C832.8,66.7,837.5,70.4,837.5,75.7z M822.9,75.7c0,3,2.2,5.2,4.9,5.2c2.7,0,4.9-2.2,4.9-5.2c0-2.4-2.2-4.6-4.9-4.6
			C825.1,71.1,822.9,73.3,822.9,75.7z"/>
		<path id="XMLID_993_" class="st3" d="M849.1,71.8c-0.8-0.7-1.9-1.2-3-1.2c-0.8,0-1.9,0.5-1.9,1.5c0,1,1.2,1.4,2,1.7l1.2,0.3
			c2.4,0.7,4.3,1.9,4.3,4.8c0,1.7-0.4,3.5-1.8,4.7c-1.4,1.2-3.2,1.6-4.9,1.6c-2.2,0-4.3-0.7-6.1-2l1.9-3.7c1.1,1,2.5,1.8,4,1.8
			c1.1,0,2.2-0.5,2.2-1.8c0-1.3-1.8-1.7-2.8-2c-2.8-0.8-4.7-1.5-4.7-4.9c0-3.5,2.5-5.8,6-5.8c1.8,0,3.9,0.6,5.5,1.4L849.1,71.8z"/>
		<path id="XMLID_991_" class="st3" d="M679,112.4h-4.5V95h4.5V112.4z"/>
		<path id="XMLID_944_" class="st3" d="M686.1,102.1L686.1,102.1c1-1.4,2.2-1.9,3.8-1.9c3.2,0,4.5,2,4.5,4.9v7.3h-4.2v-5.8
			c0-1.1,0.2-3.1-1.9-3.1c-1.7,0-2.2,1.3-2.2,2.8v6.1h-4.2v-11.9h4.2V102.1z"/>
		<path id="XMLID_880_" class="st3" d="M705,103.6c-0.6-0.3-1.5-0.6-2.3-0.6c-0.5,0-1.3,0.2-1.3,0.8c0,0.8,1.3,0.9,1.9,1
			c2,0.4,3.4,1.3,3.4,3.5c0,3.1-2.8,4.4-5.6,4.4c-1.7,0-3.4-0.5-4.8-1.4l1.5-2.9c0.9,0.6,2.3,1.2,3.3,1.2c0.5,0,1.3-0.3,1.3-0.9
			c0-0.9-1.3-1-2.6-1.3c-1.3-0.3-2.6-1-2.6-3.1c0-2.9,2.6-4.2,5.2-4.2c1.3,0,2.7,0.2,3.9,0.8L705,103.6z"/>
		<path id="XMLID_878_" class="st3" d="M713.6,112.4h-4.2v-8.4H708v-3.5h1.4V97h4.2v3.6h2.4v3.5h-2.4V112.4z"/>
		<path id="XMLID_876_" class="st3" d="M721.5,102.5L721.5,102.5c0.9-1.5,2.2-2.1,3.9-2.1h0.8v4c-0.6-0.3-1.1-0.4-1.8-0.4
			c-2.3,0-2.9,1.5-2.9,3.6v4.8h-4.2v-11.9h4.2V102.5z"/>
		<path id="XMLID_874_" class="st3" d="M731.9,100.6v6.3c0,1.5,0.4,2.6,2.1,2.6c1.7,0,2.1-1.1,2.1-2.6v-6.3h4.2v7.1
			c0,3.9-2.7,5.1-6.3,5.1c-3.6,0-6.3-1.2-6.3-5.1v-7.1H731.9z"/>
		<path id="XMLID_872_" class="st3" d="M741.3,100.6h4.9l3.2,6.1l3.1-6.1h4.8l-9.5,17.8H743l4-7.5L741.3,100.6z"/>
		<path id="XMLID_869_" class="st3" d="M770.3,107.2h-8.9c0,1.7,0.9,2.6,2.6,2.6c0.9,0,1.5-0.3,2-1.1h4c-0.3,1.4-1.2,2.4-2.2,3.1
			c-1.1,0.7-2.4,1-3.8,1c-3.9,0-6.9-2.2-6.9-6.3c0-4,2.7-6.3,6.6-6.3c4.1,0,6.5,2.5,6.5,6.6V107.2z M766.4,104.8
			c-0.2-1.1-1.2-1.9-2.4-1.9c-1.2,0-2.2,0.6-2.5,1.9H766.4z"/>
	</g>
</g>
<rect id="XMLID_7242_" x="550.5" y="206.4" class="st1" width="349.5" height="158.2"/>
<g id="XMLID_24596_">
	<g>
		<path id="XMLID_582_" class="st3" d="M616.9,273.5l4.2-10.6h4.9l-7.4,17.4h-3.5l-7.3-17.4h4.9L616.9,273.5z"/>
		<path id="XMLID_580_" class="st3" d="M631.7,266.8v2.9h5.1v3.8h-5.1v3h5.4v3.8h-9.9v-17.4h9.9v3.8H631.7z"/>
		<path id="XMLID_578_" class="st3" d="M639.9,262.9h4.5l8.3,10.7h0v-10.7h4.5v17.4h-4.5l-8.3-10.7h0v10.7h-4.5V262.9z"/>
		<path id="XMLID_576_" class="st3" d="M667.2,280.4h-4.5v-13.6h-3.7v-3.8h12v3.8h-3.7V280.4z"/>
		<path id="XMLID_573_" class="st3" d="M675.6,277.3l-1.2,3h-4.8l6.7-17.4h4.9l6.6,17.4H683l-1.1-3H675.6z M678.8,268.3L678.8,268.3
			l-1.9,5.5h3.8L678.8,268.3z"/>
		<path id="XMLID_571_" class="st3" d="M689.3,262.9h4.5l8.3,10.7h0v-10.7h4.5v17.4h-4.5l-8.3-10.7h0v10.7h-4.5V262.9z"/>
		<path id="XMLID_569_" class="st3" d="M714.1,280.4h-4.5v-17.4h4.5V280.4z"/>
		<path id="XMLID_567_" class="st3" d="M721.6,276.5h5.4v3.8h-10v-17.4h4.5V276.5z"/>
		<path id="XMLID_565_" class="st3" d="M733.1,276.5h5.4v3.8h-10v-17.4h4.5V276.5z"/>
		<path id="XMLID_562_" class="st3" d="M744.4,277.3l-1.2,3h-4.8l6.7-17.4h4.9l6.6,17.4h-4.8l-1.1-3H744.4z M747.6,268.3
			L747.6,268.3l-1.9,5.5h3.8L747.6,268.3z"/>
		<path id="XMLID_560_" class="st3" d="M781.1,262.9v9.8c0,2.2-0.1,4.5-1.8,6.1c-1.5,1.4-3.7,1.9-5.8,1.9c-2,0-4.3-0.5-5.8-1.9
			c-1.7-1.7-1.8-3.9-1.8-6.1v-9.8h4.5v9.2c0,2.3,0.2,4.7,3.1,4.7c2.9,0,3.1-2.5,3.1-4.7v-9.2H781.1z"/>
		<path id="XMLID_558_" class="st3" d="M783.9,262.9h4.5l8.3,10.7h0v-10.7h4.5v17.4h-4.5l-8.3-10.7h0v10.7h-4.5V262.9z"/>
		<path id="XMLID_556_" class="st3" d="M808.8,280.4h-4.5v-17.4h4.5V280.4z"/>
		<path id="XMLID_554_" class="st3" d="M824.2,268.8c-0.9-1.2-2.4-1.9-4-1.9c-2.8,0-4.6,2.1-4.6,4.8c0,2.8,1.9,4.7,4.7,4.7
			c1.5,0,3-0.7,3.9-1.8v5.4c-1.5,0.5-2.6,0.8-4,0.8c-2.4,0-4.7-0.9-6.5-2.6c-1.9-1.7-2.8-4-2.8-6.6c0-2.4,0.9-4.7,2.6-6.4
			c1.7-1.8,4.2-2.8,6.6-2.8c1.5,0,2.8,0.3,4.1,0.9V268.8z"/>
		<path id="XMLID_551_" class="st3" d="M831.5,277.3l-1.2,3h-4.8l6.7-17.4h4.9l6.6,17.4h-4.8l-1.1-3H831.5z M834.6,268.3
			L834.6,268.3l-1.9,5.5h3.8L834.6,268.3z"/>
		<path id="XMLID_486_" class="st3" d="M654.4,295.1c-0.8-0.7-1.9-1.2-3-1.2c-0.8,0-1.9,0.5-1.9,1.5c0,1,1.2,1.4,2,1.7l1.2,0.3
			c2.4,0.7,4.3,1.9,4.3,4.8c0,1.7-0.4,3.5-1.8,4.7c-1.4,1.2-3.2,1.6-4.9,1.6c-2.2,0-4.3-0.7-6.1-2l1.9-3.7c1.1,1,2.5,1.8,4,1.8
			c1.1,0,2.2-0.5,2.2-1.8c0-1.3-1.8-1.7-2.8-2c-2.8-0.8-4.7-1.5-4.7-4.9c0-3.5,2.5-5.8,6-5.8c1.8,0,3.9,0.6,5.5,1.4L654.4,295.1z"/>
		<path id="XMLID_484_" class="st3" d="M674.2,290.7v9.8c0,2.2-0.1,4.5-1.8,6.1c-1.5,1.4-3.7,1.9-5.8,1.9c-2,0-4.3-0.5-5.8-1.9
			c-1.7-1.7-1.8-3.9-1.8-6.1v-9.8h4.5v9.2c0,2.3,0.2,4.7,3.1,4.7c2.9,0,3.1-2.5,3.1-4.7v-9.2H674.2z"/>
		<path id="XMLID_480_" class="st3" d="M677.1,308.1v-17.4h6.5c3.1,0,5.2,1.2,5.2,4.5c0,1.6-0.5,2.8-1.9,3.6v0
			c2.5,0.3,3.6,2,3.6,4.4c0,3.7-3.1,4.9-6.3,4.9H677.1z M681.6,297.5h0.5c1.2,0,2.5-0.2,2.5-1.7c0-1.6-1.4-1.7-2.6-1.7h-0.3V297.5z
			 M681.6,304.6h0.6c1.3,0,3.6,0.1,3.6-1.8c0-2.1-2.2-1.9-3.7-1.9h-0.5V304.6z"/>
		<path id="XMLID_477_" class="st3" d="M697.1,305.1l-1.2,3h-4.8l6.7-17.4h4.9l6.6,17.4h-4.8l-1.1-3H697.1z M700.3,296.1
			L700.3,296.1l-1.9,5.5h3.8L700.3,296.1z"/>
		<path id="XMLID_475_" class="st3" d="M715.3,304.3h5.4v3.8h-10v-17.4h4.5V304.3z"/>
		<path id="XMLID_473_" class="st3" d="M734.6,296.5c-0.9-1.2-2.4-1.9-4-1.9c-2.8,0-4.6,2.1-4.6,4.8c0,2.8,1.9,4.7,4.7,4.7
			c1.5,0,3-0.7,3.9-1.8v5.4c-1.5,0.5-2.6,0.8-4,0.8c-2.4,0-4.7-0.9-6.5-2.6c-1.9-1.7-2.8-4-2.8-6.6c0-2.4,0.9-4.7,2.6-6.4
			c1.7-1.8,4.2-2.8,6.6-2.8c1.5,0,2.8,0.3,4.1,0.9V296.5z"/>
		<path id="XMLID_470_" class="st3" d="M741.9,305.1l-1.2,3h-4.8l6.7-17.4h4.9l6.6,17.4h-4.8l-1.1-3H741.9z M745,296.1L745,296.1
			l-1.9,5.5h3.8L745,296.1z"/>
		<path id="XMLID_468_" class="st3" d="M760,304.3h5.4v3.8h-10v-17.4h4.5V304.3z"/>
		<path id="XMLID_465_" class="st3" d="M766.9,290.7h6.4c4.9,0,8.9,3.8,8.9,8.7c0,4.9-4,8.7-8.9,8.7h-6.4V290.7z M771.5,304.3h1
			c2.7,0,5-1.5,5-4.9c0-3.1-2.1-4.9-5-4.9h-1.1V304.3z"/>
		<path id="XMLID_463_" class="st3" d="M788.8,308.1h-4.5v-17.4h4.5V308.1z"/>
		<path id="XMLID_460_" class="st3" d="M796.2,305.1l-1.2,3h-4.8l6.7-17.4h4.9l6.6,17.4h-4.8l-1.1-3H796.2z M799.4,296.1
			L799.4,296.1l-1.9,5.5h3.8L799.4,296.1z"/>
	</g>
</g>
<rect id="XMLID_7240_" x="550.5" y="411.6" class="st1" width="349.5" height="158.2"/>
<g id="XMLID_24448_">
	<g>
		<path id="XMLID_1982_" class="st3" d="M603.3,446.8l-1.2,3h-4.8l6.7-17.4h4.9l6.6,17.4h-4.8l-1.1-3H603.3z M606.5,437.8
			L606.5,437.8l-1.9,5.5h3.8L606.5,437.8z"/>
		<path id="XMLID_1978_" class="st3" d="M631.4,449.8h-5.6l-4.3-6.7h0v6.7h-4.5v-17.4h6.8c3.4,0,6.1,1.6,6.1,5.4
			c0,2.4-1.3,4.5-3.8,4.9L631.4,449.8z M621.4,440.2h0.4c1.5,0,3.1-0.3,3.1-2.2c0-1.9-1.7-2.2-3.1-2.2h-0.4V440.2z"/>
		<path id="XMLID_1976_" class="st3" d="M637.1,436.2v2.9h5.1v3.8h-5.1v3h5.4v3.8h-9.9v-17.4h9.9v3.8H637.1z"/>
		<path id="XMLID_1973_" class="st3" d="M649.8,446.8l-1.2,3h-4.8l6.7-17.4h4.9l6.6,17.4h-4.8l-1.1-3H649.8z M652.9,437.8
			L652.9,437.8l-1.9,5.5h3.8L652.9,437.8z"/>
		<path id="XMLID_1971_" class="st3" d="M678.2,449.8h-4.5v-13.6h-3.7v-3.8h12v3.8h-3.7V449.8z"/>
		<path id="XMLID_1969_" class="st3" d="M688.1,436.2v2.9h5.1v3.8h-5.1v3h5.4v3.8h-9.9v-17.4h9.9v3.8H688.1z"/>
		<path id="XMLID_1967_" class="st3" d="M708.8,438.2c-0.9-1.2-2.4-1.9-4-1.9c-2.8,0-4.6,2.1-4.6,4.8c0,2.8,1.9,4.7,4.7,4.7
			c1.5,0,3-0.7,3.9-1.8v5.4c-1.5,0.5-2.6,0.8-4,0.8c-2.4,0-4.7-0.9-6.5-2.6c-1.9-1.7-2.8-4-2.8-6.6c0-2.4,0.9-4.7,2.6-6.4
			c1.7-1.8,4.2-2.8,6.6-2.8c1.5,0,2.8,0.3,4.1,0.9V438.2z"/>
		<path id="XMLID_1965_" class="st3" d="M711.6,432.4h4.5l8.3,10.7h0v-10.7h4.5v17.4h-4.5l-8.3-10.7h0v10.7h-4.5V432.4z"/>
		<path id="XMLID_1963_" class="st3" d="M736.5,449.8h-4.5v-17.4h4.5V449.8z"/>
		<path id="XMLID_1961_" class="st3" d="M751.9,438.2c-0.9-1.2-2.4-1.9-4-1.9c-2.8,0-4.6,2.1-4.6,4.8c0,2.8,1.9,4.7,4.7,4.7
			c1.5,0,3-0.7,3.9-1.8v5.4c-1.5,0.5-2.6,0.8-4,0.8c-2.4,0-4.7-0.9-6.5-2.6c-1.9-1.7-2.8-4-2.8-6.6c0-2.4,0.9-4.7,2.6-6.4
			c1.7-1.8,4.2-2.8,6.6-2.8c1.5,0,2.8,0.3,4.1,0.9V438.2z"/>
		<path id="XMLID_1958_" class="st3" d="M773.1,440.8c0,5.6-4,9.6-9.6,9.6s-9.6-4-9.6-9.6c0-5.3,4.6-9,9.6-9
			C768.4,431.8,773.1,435.5,773.1,440.8z M758.5,440.8c0,3,2.2,5.2,4.9,5.2c2.7,0,4.9-2.2,4.9-5.2c0-2.4-2.2-4.6-4.9-4.6
			C760.7,436.2,758.5,438.4,758.5,440.8z"/>
		<path id="XMLID_1956_" class="st3" d="M784.7,436.9c-0.8-0.7-1.9-1.2-3-1.2c-0.8,0-1.9,0.5-1.9,1.5c0,1,1.2,1.4,2,1.7l1.2,0.3
			c2.4,0.7,4.3,1.9,4.3,4.8c0,1.7-0.4,3.5-1.8,4.7c-1.4,1.2-3.2,1.6-4.9,1.6c-2.2,0-4.3-0.7-6.1-2l1.9-3.7c1.1,1,2.5,1.8,4,1.8
			c1.1,0,2.2-0.5,2.2-1.8c0-1.3-1.8-1.7-2.8-2c-2.8-0.8-4.7-1.5-4.7-4.9c0-3.5,2.5-5.8,6-5.8c1.8,0,3.9,0.6,5.5,1.4L784.7,436.9z"/>
		<path id="XMLID_1954_" class="st3" d="M800.7,430.6l-8.8,21.3h-3.3l8.8-21.3H800.7z"/>
		<path id="XMLID_1951_" class="st3" d="M807.2,446.8l-1.2,3h-4.8l6.7-17.4h4.9l6.6,17.4h-4.8l-1.1-3H807.2z M810.4,437.8
			L810.4,437.8l-1.9,5.5h3.8L810.4,437.8z"/>
		<path id="XMLID_1948_" class="st3" d="M835.3,449.8h-5.6l-4.3-6.7h0v6.7h-4.5v-17.4h6.8c3.4,0,6.1,1.6,6.1,5.4
			c0,2.4-1.3,4.5-3.8,4.9L835.3,449.8z M825.3,440.2h0.4c1.5,0,3.1-0.3,3.1-2.2c0-1.9-1.7-2.2-3.1-2.2h-0.4V440.2z"/>
		<path id="XMLID_1945_" class="st3" d="M851.5,450.9l-1.4-1.6c-1.3,0.8-2.9,1.1-4.8,1.1c-5.6,0-9.6-4-9.6-9.6c0-5.3,4.6-9,9.6-9
			c5.4,0,9.6,3.7,9.6,9.3c0,2.3-0.8,4.3-2.2,6.1l2.9,3L851.5,450.9z M849.4,443.7c0.5-0.7,0.8-1.7,0.8-2.6c0-2.6-2.2-5-4.9-5
			c-2.7,0-4.9,2.2-4.9,4.6c0,3,2.2,5.2,4.9,5.2c0.5,0,0.9-0.1,1.4-0.2l-2.8-2.8l4.3-0.5L849.4,443.7z"/>
		<path id="XMLID_1943_" class="st3" d="M656.6,477.6h-4.5v-17.4h4.5V477.6z"/>
		<path id="XMLID_1941_" class="st3" d="M663.7,467.2L663.7,467.2c1-1.4,2.2-1.9,3.8-1.9c3.2,0,4.5,2,4.5,4.9v7.3h-4.2v-5.8
			c0-1.1,0.2-3.1-1.9-3.1c-1.7,0-2.2,1.3-2.2,2.8v6.1h-4.2v-11.9h4.2V467.2z"/>
		<path id="XMLID_1939_" class="st3" d="M682.6,468.7c-0.6-0.3-1.5-0.6-2.3-0.6c-0.5,0-1.3,0.2-1.3,0.8c0,0.8,1.3,0.9,1.9,1
			c2,0.4,3.4,1.3,3.4,3.5c0,3.1-2.8,4.4-5.6,4.4c-1.7,0-3.4-0.5-4.8-1.4l1.5-2.9c0.9,0.6,2.3,1.2,3.3,1.2c0.5,0,1.3-0.3,1.3-0.9
			c0-0.9-1.3-1-2.6-1.3c-1.3-0.3-2.6-1-2.6-3.1c0-2.9,2.6-4.2,5.2-4.2c1.3,0,2.7,0.2,3.9,0.8L682.6,468.7z"/>
		<path id="XMLID_1936_" class="st3" d="M690.7,467L690.7,467c0.8-1.2,2.2-1.7,3.6-1.7c3.5,0,6,3,6,6.4c0,3.4-2.4,6.3-5.9,6.3
			c-1.4,0-2.8-0.5-3.7-1.5v7h-4.2v-17.8h4.2V467z M690.5,471.6c0,1.5,1,2.7,2.7,2.7c1.7,0,2.7-1.2,2.7-2.7c0-1.5-1-2.7-2.7-2.7
			C691.5,469,690.5,470.2,690.5,471.6z"/>
		<path id="XMLID_1933_" class="st3" d="M714.5,472.3h-8.9c0,1.7,0.9,2.6,2.6,2.6c0.9,0,1.5-0.3,2-1.1h4c-0.3,1.4-1.2,2.4-2.2,3.1
			c-1.1,0.7-2.4,1-3.8,1c-3.9,0-6.9-2.2-6.9-6.3c0-4,2.7-6.3,6.6-6.3c4.1,0,6.5,2.5,6.5,6.6V472.3z M710.6,469.9
			c-0.2-1.1-1.2-1.9-2.4-1.9c-1.2,0-2.2,0.6-2.5,1.9H710.6z"/>
		<path id="XMLID_1931_" class="st3" d="M725,469.6c-0.6-0.5-1.4-0.8-2.2-0.8c-1.6,0-2.9,1.2-2.9,2.9c0,1.7,1.2,2.9,3,2.9
			c0.7,0,1.5-0.3,2.1-0.8v3.6c-0.9,0.5-1.9,0.7-3,0.7c-3.5,0-6.4-2.6-6.4-6.2c0-3.8,2.9-6.4,6.6-6.4c1,0,1.9,0.2,2.8,0.7V469.6z"/>
		<path id="XMLID_1929_" class="st3" d="M736.2,469.6c-0.6-0.5-1.4-0.8-2.2-0.8c-1.6,0-2.9,1.2-2.9,2.9c0,1.7,1.2,2.9,3,2.9
			c0.7,0,1.5-0.3,2.1-0.8v3.6c-0.9,0.5-1.9,0.7-3,0.7c-3.5,0-6.4-2.6-6.4-6.2c0-3.8,2.9-6.4,6.6-6.4c1,0,1.9,0.2,2.8,0.7V469.6z"/>
		<path id="XMLID_1926_" class="st3" d="M743.2,461.1c0,1.3-1.1,2.4-2.4,2.4c-1.3,0-2.4-1.1-2.4-2.4c0-1.3,1.1-2.4,2.4-2.4
			C742.2,458.8,743.2,459.8,743.2,461.1z M743,477.6h-4.2v-11.9h4.2V477.6z"/>
		<path id="XMLID_1922_" class="st3" d="M759.1,471.6c0,4-3.3,6.3-7.1,6.3c-3.8,0-7.1-2.3-7.1-6.3c0-4,3.3-6.3,7.1-6.3
			C755.8,465.3,759.1,467.6,759.1,471.6z M749.3,471.6c0,1.5,1,2.7,2.7,2.7c1.7,0,2.7-1.2,2.7-2.7c0-1.5-1-2.7-2.7-2.7
			C750.3,469,749.3,470.2,749.3,471.6z M751.5,463.9l-1.9-1.4l3.3-4l2.6,1.8L751.5,463.9z"/>
		<path id="XMLID_1920_" class="st3" d="M765.2,467.2L765.2,467.2c1-1.4,2.2-1.9,3.8-1.9c3.2,0,4.5,2,4.5,4.9v7.3h-4.2v-5.8
			c0-1.1,0.2-3.1-1.9-3.1c-1.7,0-2.2,1.3-2.2,2.8v6.1H761v-11.9h4.2V467.2z"/>
		<path id="XMLID_1918_" class="st3" d="M794.4,468.4v3.5h-11.6v-3.5H794.4z"/>
		<path id="XMLID_1916_" class="st3" d="M602.1,505.3h-4.5v-17.4h4.5V505.3z"/>
		<path id="XMLID_1914_" class="st3" d="M609.2,494.9L609.2,494.9c1-1.4,2.2-1.9,3.8-1.9c3.2,0,4.5,2,4.5,4.9v7.3h-4.2v-5.8
			c0-1.1,0.2-3.1-1.9-3.1c-1.7,0-2.2,1.3-2.2,2.8v6.1h-4.2v-11.9h4.2V494.9z"/>
		<path id="XMLID_1912_" class="st3" d="M624.8,505.3h-4.2v-8.4h-1.5v-3.5h1.5v-1.5c0-1.6,0-2.8,1.2-4.2c1-1.2,2.5-1.9,4.1-1.9
			c0.6,0,1.2,0.1,1.8,0.4v3.6c-0.5-0.2-0.9-0.4-1.5-0.4c-1.1,0-1.5,0.6-1.5,2v1.9h2.9v3.5h-2.9V505.3z"/>
		<path id="XMLID_1909_" class="st3" d="M642.6,499.4c0,4-3.3,6.3-7.1,6.3c-3.8,0-7.1-2.3-7.1-6.3c0-4,3.3-6.3,7.1-6.3
			C639.3,493,642.6,495.3,642.6,499.4z M632.7,499.4c0,1.5,1,2.7,2.7,2.7c1.7,0,2.7-1.2,2.7-2.7c0-1.5-1-2.7-2.7-2.7
			C633.7,496.7,632.7,497.9,632.7,499.4z"/>
		<path id="XMLID_1907_" class="st3" d="M648.7,495.4L648.7,495.4c0.9-1.5,2.2-2.1,3.9-2.1h0.8v4c-0.6-0.3-1.1-0.4-1.8-0.4
			c-2.3,0-2.9,1.5-2.9,3.6v4.8h-4.2v-11.9h4.2V495.4z"/>
		<path id="XMLID_1905_" class="st3" d="M659.2,494.9L659.2,494.9c1-1.3,2.3-1.9,3.8-1.9c1.7,0,3.2,0.7,4,2.3c0.8-1.5,2.4-2.3,4-2.3
			c3,0,4,2,4,4.7v7.6h-4.2v-5.7c0-1.2,0-3.2-1.7-3.2c-1.9,0-2,1.8-2,3.2v5.7h-4.2v-5.7c0-1.3,0-3.3-1.9-3.3c-1.9,0-1.9,2-1.9,3.3
			v5.7H655v-11.9h4.2V494.9z"/>
		<path id="XMLID_1902_" class="st3" d="M690,500.1h-8.9c0,1.7,0.9,2.6,2.6,2.6c0.9,0,1.5-0.3,2-1.1h4c-0.3,1.4-1.2,2.4-2.2,3.1
			c-1.1,0.7-2.4,1-3.8,1c-3.9,0-6.9-2.2-6.9-6.3c0-4,2.7-6.3,6.6-6.3c4.1,0,6.5,2.5,6.5,6.6V500.1z M686.1,497.6
			c-0.2-1.1-1.2-1.9-2.4-1.9c-1.2,0-2.2,0.6-2.5,1.9H686.1z"/>
		<path id="XMLID_1899_" class="st3" d="M712,500.1h-8.9c0,1.7,0.9,2.6,2.6,2.6c0.9,0,1.5-0.3,2-1.1h4c-0.3,1.4-1.2,2.4-2.2,3.1
			c-1.1,0.7-2.4,1-3.8,1c-3.9,0-6.9-2.2-6.9-6.3c0-4,2.7-6.3,6.6-6.3c4.1,0,6.5,2.5,6.5,6.6V500.1z M708.1,497.6
			c-0.2-1.1-1.2-1.9-2.4-1.9c-1.2,0-2.2,0.6-2.5,1.9H708.1z"/>
		<path id="XMLID_1897_" class="st3" d="M718.1,494.9L718.1,494.9c1-1.3,2.3-1.9,3.8-1.9c1.7,0,3.2,0.7,4,2.3c0.8-1.5,2.4-2.3,4-2.3
			c3,0,4,2,4,4.7v7.6h-4.2v-5.7c0-1.2,0-3.2-1.7-3.2c-1.9,0-2,1.8-2,3.2v5.7h-4.2v-5.7c0-1.3,0-3.3-1.9-3.3c-1.9,0-1.9,2-1.9,3.3
			v5.7h-4.2v-11.9h4.2V494.9z"/>
		<path id="XMLID_1894_" class="st3" d="M741.2,488.9c0,1.3-1.1,2.4-2.4,2.4c-1.3,0-2.4-1.1-2.4-2.4c0-1.3,1.1-2.4,2.4-2.4
			C740.2,486.5,741.2,487.6,741.2,488.9z M741,505.3h-4.2v-11.9h4.2V505.3z"/>
		<path id="XMLID_1892_" class="st3" d="M748.4,505.3h-4.2v-8.4h-1.4v-3.5h1.4v-3.6h4.2v3.6h2.4v3.5h-2.4V505.3z"/>
		<path id="XMLID_1889_" class="st3" d="M764.3,500.1h-8.9c0,1.7,0.9,2.6,2.6,2.6c0.9,0,1.5-0.3,2-1.1h4c-0.3,1.4-1.2,2.4-2.2,3.1
			c-1.1,0.7-2.4,1-3.8,1c-3.9,0-6.9-2.2-6.9-6.3c0-4,2.7-6.3,6.6-6.3c4.1,0,6.5,2.5,6.5,6.6V500.1z M760.3,497.6
			c-0.2-1.1-1.2-1.9-2.4-1.9c-1.2,0-2.2,0.6-2.5,1.9H760.3z"/>
		<path id="XMLID_1886_" class="st3" d="M774,486.1h4.2v8.5c0.9-1,2.3-1.5,3.7-1.5c3.5,0,5.9,2.9,5.9,6.3c0,3.4-2.5,6.3-6,6.3
			c-1.4,0-2.8-0.5-3.6-1.7h0v1.3H774V486.1z M778,499.4c0,1.5,1,2.7,2.7,2.7c1.7,0,2.7-1.2,2.7-2.7c0-1.5-1-2.7-2.7-2.7
			C779,496.7,778,497.9,778,499.4z"/>
		<path id="XMLID_1883_" class="st3" d="M803.3,499.4c0,4-3.3,6.3-7.1,6.3c-3.8,0-7.1-2.3-7.1-6.3c0-4,3.3-6.3,7.1-6.3
			C799.9,493,803.3,495.3,803.3,499.4z M793.4,499.4c0,1.5,1,2.7,2.7,2.7c1.7,0,2.7-1.2,2.7-2.7c0-1.5-1-2.7-2.7-2.7
			C794.4,496.7,793.4,497.9,793.4,499.4z"/>
		<path id="XMLID_1881_" class="st3" d="M809.4,505.3h-4.2v-19.2h4.2V505.3z"/>
		<path id="XMLID_1878_" class="st3" d="M824.3,500.1h-8.9c0,1.7,0.9,2.6,2.6,2.6c0.9,0,1.5-0.3,2-1.1h4c-0.3,1.4-1.2,2.4-2.2,3.1
			c-1.1,0.7-2.4,1-3.8,1c-3.9,0-6.9-2.2-6.9-6.3c0-4,2.7-6.3,6.6-6.3c4.1,0,6.5,2.5,6.5,6.6V500.1z M820.4,497.6
			c-0.2-1.1-1.2-1.9-2.4-1.9c-1.2,0-2.2,0.6-2.5,1.9H820.4z"/>
		<path id="XMLID_1876_" class="st3" d="M830.8,505.3h-4.2v-8.4h-1.4v-3.5h1.4v-3.6h4.2v3.6h2.4v3.5h-2.4V505.3z"/>
		<path id="XMLID_1873_" class="st3" d="M847.5,505.3h-4.2V504h0c-0.7,1.2-2.2,1.7-3.6,1.7c-3.5,0-6-2.9-6-6.3s2.4-6.3,5.9-6.3
			c1.4,0,2.8,0.5,3.7,1.5v-1.2h4.2V505.3z M838,499.4c0,1.5,1,2.7,2.7,2.7c1.7,0,2.7-1.2,2.7-2.7c0-1.5-1-2.7-2.7-2.7
			C839,496.7,838,497.9,838,499.4z"/>
		<path id="XMLID_1870_" class="st3" d="M651.8,531.7L651.8,531.7c-0.8,1.2-2.2,1.7-3.6,1.7c-3.5,0-6-2.9-6-6.3
			c0-3.4,2.4-6.3,5.9-6.3c1.4,0,2.8,0.5,3.7,1.5v-8.5h4.2V533h-4.2V531.7z M646.5,527.1c0,1.5,1,2.7,2.7,2.7c1.7,0,2.7-1.2,2.7-2.7
			c0-1.5-1-2.7-2.7-2.7C647.5,524.4,646.5,525.6,646.5,527.1z"/>
		<path id="XMLID_1867_" class="st3" d="M670.8,527.8H662c0,1.7,0.9,2.6,2.6,2.6c0.9,0,1.5-0.3,2-1.1h4c-0.3,1.4-1.2,2.4-2.2,3.1
			c-1.1,0.7-2.4,1-3.8,1c-3.9,0-6.9-2.2-6.9-6.3c0-4,2.7-6.3,6.6-6.3c4.1,0,6.5,2.5,6.5,6.6V527.8z M666.9,525.4
			c-0.2-1.1-1.2-1.9-2.4-1.9c-1.2,0-2.2,0.6-2.5,1.9H666.9z"/>
		<path id="XMLID_1865_" class="st3" d="M684.9,533h-4.2v-19.2h4.2V533z"/>
		<path id="XMLID_1862_" class="st3" d="M692.1,516.6c0,1.3-1.1,2.4-2.4,2.4c-1.3,0-2.4-1.1-2.4-2.4c0-1.3,1.1-2.4,2.4-2.4
			C691,514.2,692.1,515.3,692.1,516.6z M691.8,533h-4.2v-11.9h4.2V533z"/>
		<path id="XMLID_1859_" class="st3" d="M707.7,538.9h-4.2v-7c-0.9,1-2.3,1.5-3.7,1.5c-3.5,0-5.9-2.9-5.9-6.3c0-3.4,2.5-6.4,6-6.4
			c1.4,0,2.8,0.6,3.6,1.7h0v-1.3h4.2V538.9z M698.3,527.1c0,1.5,1,2.7,2.7,2.7c1.7,0,2.7-1.2,2.7-2.7c0-1.5-1-2.7-2.7-2.7
			C699.3,524.4,698.3,525.6,698.3,527.1z"/>
		<path id="XMLID_1857_" class="st3" d="M714.5,521.2v6.3c0,1.5,0.4,2.6,2.1,2.6c1.7,0,2.1-1.1,2.1-2.6v-6.3h4.2v7.1
			c0,3.9-2.8,5.1-6.3,5.1c-3.6,0-6.3-1.2-6.3-5.1v-7.1H714.5z"/>
		<path id="XMLID_1854_" class="st3" d="M730.1,516.6c0,1.3-1.1,2.4-2.4,2.4c-1.3,0-2.4-1.1-2.4-2.4c0-1.3,1.1-2.4,2.4-2.4
			C729,514.2,730.1,515.3,730.1,516.6z M729.8,533h-4.2v-11.9h4.2V533z"/>
		<path id="XMLID_1851_" class="st3" d="M741.5,531.7L741.5,531.7c-0.8,1.2-2.2,1.7-3.6,1.7c-3.5,0-6-2.9-6-6.3
			c0-3.4,2.4-6.3,5.9-6.3c1.4,0,2.8,0.5,3.7,1.5v-8.5h4.2V533h-4.2V531.7z M736.2,527.1c0,1.5,1,2.7,2.7,2.7c1.7,0,2.7-1.2,2.7-2.7
			c0-1.5-1-2.7-2.7-2.7C737.2,524.4,736.2,525.6,736.2,527.1z"/>
		<path id="XMLID_1719_" class="st3" d="M761.3,533h-4.2v-1.3h0c-0.7,1.2-2.2,1.7-3.6,1.7c-3.5,0-6-2.9-6-6.3c0-3.4,2.4-6.3,5.9-6.3
			c1.4,0,2.8,0.5,3.7,1.5v-1.2h4.2V533z M751.8,527.1c0,1.5,1,2.7,2.7,2.7c1.7,0,2.7-1.2,2.7-2.7c0-1.5-1-2.7-2.7-2.7
			C752.8,524.4,751.8,525.6,751.8,527.1z"/>
		<path id="XMLID_1717_" class="st3" d="M772.7,525c-0.6-0.5-1.4-0.8-2.2-0.8c-1.6,0-2.9,1.2-2.9,2.9c0,1.7,1.2,2.9,3,2.9
			c0.7,0,1.5-0.3,2.1-0.8v3.6c-0.9,0.5-1.9,0.7-3,0.7c-3.5,0-6.4-2.6-6.4-6.2c0-3.8,2.9-6.4,6.6-6.4c1,0,1.9,0.2,2.8,0.7V525z"/>
		<path id="XMLID_1714_" class="st3" d="M779.7,516.6c0,1.3-1.1,2.4-2.4,2.4c-1.3,0-2.4-1.1-2.4-2.4c0-1.3,1.1-2.4,2.4-2.4
			C778.7,514.2,779.7,515.3,779.7,516.6z M779.5,533h-4.2v-11.9h4.2V533z"/>
		<path id="XMLID_1710_" class="st3" d="M795.6,527.1c0,4-3.3,6.3-7.1,6.3c-3.8,0-7.1-2.3-7.1-6.3c0-4,3.3-6.3,7.1-6.3
			C792.3,520.8,795.6,523,795.6,527.1z M785.8,527.1c0,1.5,1,2.7,2.7,2.7c1.7,0,2.7-1.2,2.7-2.7c0-1.5-1-2.7-2.7-2.7
			C786.8,524.4,785.8,525.6,785.8,527.1z M788,519.4l-1.9-1.4l3.3-4l2.6,1.8L788,519.4z"/>
		<path id="XMLID_1708_" class="st3" d="M801.7,522.7L801.7,522.7c1-1.4,2.2-1.9,3.8-1.9c3.2,0,4.5,2,4.5,4.9v7.3h-4.2v-5.8
			c0-1.1,0.2-3.1-1.9-3.1c-1.7,0-2.2,1.3-2.2,2.8v6.1h-4.2v-11.9h4.2V522.7z"/>
	</g>
</g>
<rect id="XMLID_7238_" x="550.5" y="616.8" class="st1" width="349.5" height="158.2"/>
<g id="XMLID_24384_">
	<g>
		<path id="XMLID_549_" class="st3" d="M639.9,653.9c-0.9-1.2-2.4-1.9-4-1.9c-2.8,0-4.6,2.1-4.6,4.8c0,2.8,1.9,4.7,4.7,4.7
			c1.5,0,3-0.7,3.9-1.8v5.4c-1.5,0.5-2.6,0.8-4,0.8c-2.4,0-4.7-0.9-6.5-2.6c-1.9-1.7-2.8-4-2.8-6.6c0-2.4,0.9-4.7,2.6-6.4
			c1.7-1.8,4.2-2.8,6.6-2.8c1.5,0,2.8,0.3,4.1,0.9V653.9z"/>
		<path id="XMLID_546_" class="st3" d="M661.1,656.5c0,5.6-4,9.6-9.6,9.6s-9.6-4-9.6-9.6c0-5.3,4.6-9,9.6-9
			C656.5,647.5,661.1,651.2,661.1,656.5z M646.5,656.5c0,3,2.2,5.2,4.9,5.2c2.7,0,4.9-2.2,4.9-5.2c0-2.4-2.2-4.6-4.9-4.6
			C648.7,651.9,646.5,654.1,646.5,656.5z"/>
		<path id="XMLID_544_" class="st3" d="M663.2,648.1h4.5l8.3,10.7h0v-10.7h4.5v17.4H676l-8.3-10.7h0v10.7h-4.5V648.1z"/>
		<path id="XMLID_542_" class="st3" d="M690.5,665.5h-4.5v-13.6h-3.7v-3.8h12v3.8h-3.7V665.5z"/>
		<path id="XMLID_539_" class="st3" d="M710.3,665.5h-5.6l-4.3-6.7h0v6.7h-4.5v-17.4h6.8c3.4,0,6.1,1.6,6.1,5.4
			c0,2.4-1.3,4.5-3.8,4.9L710.3,665.5z M700.4,655.9h0.4c1.5,0,3.1-0.3,3.1-2.2c0-1.9-1.7-2.2-3.1-2.2h-0.4V655.9z"/>
		<path id="XMLID_537_" class="st3" d="M716.1,665.5h-4.5v-17.4h4.5V665.5z"/>
		<path id="XMLID_533_" class="st3" d="M719,665.5v-17.4h6.5c3.1,0,5.2,1.2,5.2,4.5c0,1.6-0.5,2.8-1.9,3.6v0c2.5,0.3,3.6,2,3.6,4.4
			c0,3.7-3.1,4.9-6.3,4.9H719z M723.6,654.9h0.5c1.2,0,2.5-0.2,2.5-1.7c0-1.6-1.4-1.7-2.6-1.7h-0.3V654.9z M723.6,662h0.6
			c1.3,0,3.6,0.1,3.6-1.8c0-2.1-2.2-1.9-3.7-1.9h-0.5V662z"/>
		<path id="XMLID_531_" class="st3" d="M749.8,648.1v9.8c0,2.2-0.1,4.5-1.8,6.1c-1.5,1.4-3.7,1.9-5.8,1.9c-2,0-4.3-0.5-5.8-1.9
			c-1.7-1.7-1.8-3.9-1.8-6.1v-9.8h4.5v9.2c0,2.3,0.2,4.7,3.1,4.7c2.9,0,3.1-2.5,3.1-4.7v-9.2H749.8z"/>
		<path id="XMLID_529_" class="st3" d="M750.8,648.1h5.4l3.3,4.7l3.3-4.7h5.4l-6.4,9.1v8.4h-4.5v-8.4L750.8,648.1z"/>
		<path id="XMLID_527_" class="st3" d="M773.7,651.9v2.9h5.1v3.8h-5.1v3h5.4v3.8h-9.9v-17.4h9.9v3.8H773.7z"/>
		<path id="XMLID_525_" class="st3" d="M781.9,648.1h4.5l8.3,10.7h0v-10.7h4.5v17.4h-4.5l-8.3-10.7h0v10.7h-4.5V648.1z"/>
		<path id="XMLID_523_" class="st3" d="M809.2,665.5h-4.5v-13.6h-3.7v-3.8h12v3.8h-3.7V665.5z"/>
		<path id="XMLID_521_" class="st3" d="M819.1,651.9v2.9h5.1v3.8h-5.1v3h5.4v3.8h-9.9v-17.4h9.9v3.8H819.1z"/>
		<path id="XMLID_519_" class="st3" d="M645.2,681.6c-0.9-1.2-2.4-1.9-4-1.9c-2.8,0-4.6,2.1-4.6,4.8c0,2.8,1.9,4.7,4.7,4.7
			c1.5,0,3-0.7,3.9-1.8v5.4c-1.5,0.5-2.6,0.8-4,0.8c-2.4,0-4.7-0.9-6.5-2.6c-1.9-1.7-2.8-4-2.8-6.6c0-2.4,0.9-4.7,2.6-6.4
			c1.7-1.8,4.2-2.8,6.6-2.8c1.5,0,2.8,0.3,4.1,0.9V681.6z"/>
		<path id="XMLID_516_" class="st3" d="M660.9,693.2h-4.2v-1.3h0c-0.7,1.2-2.2,1.7-3.6,1.7c-3.5,0-6-2.9-6-6.3s2.4-6.3,5.9-6.3
			c1.4,0,2.8,0.5,3.7,1.5v-1.2h4.2V693.2z M651.4,687.3c0,1.5,1,2.7,2.7,2.7c1.7,0,2.7-1.2,2.7-2.7c0-1.5-1-2.7-2.7-2.7
			C652.4,684.6,651.4,685.9,651.4,687.3z"/>
		<path id="XMLID_514_" class="st3" d="M667.9,682.9L667.9,682.9c1-1.4,2.2-1.9,3.8-1.9c3.2,0,4.5,2,4.5,4.9v7.3H672v-5.8
			c0-1.1,0.2-3.1-1.9-3.1c-1.7,0-2.2,1.3-2.2,2.8v6.1h-4.2v-11.9h4.2V682.9z"/>
		<path id="XMLID_512_" class="st3" d="M687.5,685.2c-0.6-0.5-1.4-0.8-2.2-0.8c-1.6,0-2.9,1.2-2.9,2.9c0,1.7,1.2,2.9,3,2.9
			c0.7,0,1.5-0.3,2.1-0.8v3.6c-0.9,0.5-1.9,0.7-3,0.7c-3.5,0-6.4-2.6-6.4-6.2c0-3.8,2.9-6.4,6.6-6.4c1,0,1.9,0.2,2.8,0.7V685.2z"/>
		<path id="XMLID_509_" class="st3" d="M702.3,688h-8.9c0,1.7,0.9,2.6,2.6,2.6c0.9,0,1.5-0.3,2-1.1h4c-0.3,1.4-1.2,2.4-2.2,3.1
			c-1.1,0.7-2.4,1-3.8,1c-3.9,0-6.9-2.2-6.9-6.3c0-4,2.7-6.3,6.6-6.3c4.1,0,6.5,2.5,6.5,6.6V688z M698.4,685.6
			c-0.2-1.1-1.2-1.9-2.4-1.9c-1.2,0-2.2,0.6-2.5,1.9H698.4z"/>
		<path id="XMLID_507_" class="st3" d="M708.4,693.2h-4.2V674h4.2V693.2z"/>
		<path id="XMLID_504_" class="st3" d="M724.2,693.2H720v-1.3h0c-0.7,1.2-2.2,1.7-3.6,1.7c-3.5,0-6-2.9-6-6.3s2.4-6.3,5.9-6.3
			c1.4,0,2.8,0.5,3.7,1.5v-1.2h4.2V693.2z M714.7,687.3c0,1.5,1,2.7,2.7,2.7c1.7,0,2.7-1.2,2.7-2.7c0-1.5-1-2.7-2.7-2.7
			C715.7,684.6,714.7,685.9,714.7,687.3z"/>
		<path id="XMLID_501_" class="st3" d="M747.1,688h-8.9c0,1.7,0.9,2.6,2.6,2.6c0.9,0,1.5-0.3,2-1.1h4c-0.3,1.4-1.2,2.4-2.2,3.1
			c-1.1,0.7-2.4,1-3.8,1c-3.9,0-6.9-2.2-6.9-6.3c0-4,2.7-6.3,6.6-6.3c4.1,0,6.5,2.5,6.5,6.6V688z M743.2,685.6
			c-0.2-1.1-1.2-1.9-2.4-1.9c-1.2,0-2.2,0.6-2.5,1.9H743.2z"/>
		<path id="XMLID_499_" class="st3" d="M753.2,682.9L753.2,682.9c1-1.4,2.2-1.9,3.8-1.9c3.2,0,4.5,2,4.5,4.9v7.3h-4.2v-5.8
			c0-1.1,0.2-3.1-1.9-3.1c-1.7,0-2.2,1.3-2.2,2.8v6.1H749v-11.9h4.2V682.9z"/>
		<path id="XMLID_497_" class="st3" d="M780.7,685.2c-0.6-0.5-1.4-0.8-2.2-0.8c-1.6,0-2.9,1.2-2.9,2.9c0,1.7,1.2,2.9,3,2.9
			c0.7,0,1.5-0.3,2.1-0.8v3.6c-0.9,0.5-1.9,0.7-3,0.7c-3.5,0-6.4-2.6-6.4-6.2c0-3.8,2.9-6.4,6.6-6.4c1,0,1.9,0.2,2.8,0.7V685.2z"/>
		<path id="XMLID_494_" class="st3" d="M796.3,693.2h-4.2v-1.3h0c-0.7,1.2-2.2,1.7-3.6,1.7c-3.5,0-6-2.9-6-6.3s2.4-6.3,5.9-6.3
			c1.4,0,2.8,0.5,3.7,1.5v-1.2h4.2V693.2z M786.8,687.3c0,1.5,1,2.7,2.7,2.7c1.7,0,2.7-1.2,2.7-2.7c0-1.5-1-2.7-2.7-2.7
			C787.8,684.6,786.8,685.9,786.8,687.3z"/>
		<path id="XMLID_491_" class="st3" d="M803.6,676.8c0,1.3-1.1,2.4-2.4,2.4c-1.3,0-2.4-1.1-2.4-2.4c0-1.3,1.1-2.4,2.4-2.4
			C802.5,674.5,803.6,675.5,803.6,676.8z M803.3,699.1h-4.2v-17.8h4.2V699.1z"/>
		<path id="XMLID_488_" class="st3" d="M819,693.2h-4.2v-1.3h0c-0.7,1.2-2.2,1.7-3.6,1.7c-3.5,0-6-2.9-6-6.3s2.4-6.3,5.9-6.3
			c1.4,0,2.8,0.5,3.7,1.5v-1.2h4.2V693.2z M809.6,687.3c0,1.5,1,2.7,2.7,2.7c1.7,0,2.7-1.2,2.7-2.7c0-1.5-1-2.7-2.7-2.7
			C810.6,684.6,809.6,685.9,809.6,687.3z"/>
	</g>
</g>
<rect id="XMLID_7236_" x="550.5" y="821.9" class="st1" width="349.5" height="158.2"/>
<g id="XMLID_24315_">
	<g>
		<path id="XMLID_654_" class="st3" d="M708.5,850.3c-0.9-1.2-2.4-1.9-4-1.9c-2.8,0-4.6,2.1-4.6,4.8c0,2.8,1.9,4.7,4.7,4.7
			c1.5,0,3-0.7,3.9-1.8v5.4c-1.5,0.5-2.6,0.8-4,0.8c-2.4,0-4.7-0.9-6.5-2.6c-1.9-1.7-2.8-4-2.8-6.6c0-2.4,0.9-4.7,2.6-6.4
			c1.7-1.8,4.2-2.8,6.6-2.8c1.5,0,2.8,0.3,4.1,0.9V850.3z"/>
		<path id="XMLID_651_" class="st3" d="M715.7,858.9l-1.2,3h-4.8l6.7-17.4h4.9l6.6,17.4h-4.8l-1.1-3H715.7z M718.9,849.9
			L718.9,849.9l-1.9,5.5h3.8L718.9,849.9z"/>
		<path id="XMLID_649_" class="st3" d="M737.8,844.5v11.8c0,3.7-1.9,6.1-5.8,6.1c-1.9,0-3.4-1-4.5-2.6l2.6-2.7
			c0.5,0.7,1.2,1.5,1.8,1.5c1.3,0,1.3-1.6,1.3-2.6v-11.5H737.8z"/>
		<path id="XMLID_646_" class="st3" d="M745.1,858.9l-1.2,3H739l6.7-17.4h4.9l6.6,17.4h-4.8l-1.1-3H745.1z M748.2,849.9L748.2,849.9
			l-1.9,5.5h3.8L748.2,849.9z"/>
		<path id="XMLID_644_" class="st3" d="M615.6,876.1v2.9h5.1v3.8h-5.1v3h5.4v3.8h-9.9v-17.4h9.9v3.8H615.6z"/>
		<path id="XMLID_642_" class="st3" d="M627.9,879.3L627.9,879.3c1-1.3,2.3-1.9,3.8-1.9c1.7,0,3.2,0.7,4,2.3c0.8-1.5,2.4-2.3,4-2.3
			c3,0,4,2,4,4.7v7.6h-4.2V884c0-1.2,0-3.2-1.7-3.2c-1.9,0-2,1.8-2,3.2v5.7h-4.2V884c0-1.3,0-3.3-1.9-3.3c-1.9,0-1.9,2-1.9,3.3v5.7
			h-4.2v-11.9h4.2V879.3z"/>
		<path id="XMLID_639_" class="st3" d="M651,873.2c0,1.3-1.1,2.4-2.4,2.4c-1.3,0-2.4-1.1-2.4-2.4c0-1.3,1.1-2.4,2.4-2.4
			C650,870.9,651,871.9,651,873.2z M650.8,889.6h-4.2v-11.9h4.2V889.6z"/>
		<path id="XMLID_637_" class="st3" d="M658.1,889.6h-4.2v-8.4h-1.4v-3.5h1.4v-3.6h4.2v3.6h2.4v3.5h-2.4V889.6z"/>
		<path id="XMLID_634_" class="st3" d="M674,884.4h-8.9c0,1.7,0.9,2.6,2.6,2.6c0.9,0,1.5-0.3,2-1.1h4c-0.3,1.4-1.2,2.4-2.2,3.1
			c-1.1,0.7-2.4,1-3.8,1c-3.9,0-6.9-2.2-6.9-6.3c0-4,2.7-6.3,6.6-6.3c4.1,0,6.5,2.5,6.5,6.6V884.4z M670.1,882
			c-0.2-1.1-1.2-1.9-2.4-1.9c-1.2,0-2.2,0.6-2.5,1.9H670.1z"/>
		<path id="XMLID_632_" class="st3" d="M692.4,881.6c-0.6-0.5-1.4-0.8-2.2-0.8c-1.6,0-2.9,1.2-2.9,2.9c0,1.7,1.2,2.9,3,2.9
			c0.7,0,1.5-0.3,2.1-0.8v3.6c-0.9,0.5-1.9,0.7-3,0.7c-3.5,0-6.4-2.6-6.4-6.2c0-3.8,2.9-6.4,6.6-6.4c1,0,1.9,0.2,2.8,0.7V881.6z"/>
		<path id="XMLID_629_" class="st3" d="M708.4,883.7c0,4-3.3,6.3-7.1,6.3c-3.8,0-7.1-2.3-7.1-6.3s3.3-6.3,7.1-6.3
			C705.1,877.4,708.4,879.7,708.4,883.7z M698.6,883.7c0,1.5,1,2.7,2.7,2.7c1.7,0,2.7-1.2,2.7-2.7c0-1.5-1-2.7-2.7-2.7
			C699.6,881,698.6,882.3,698.6,883.7z"/>
		<path id="XMLID_627_" class="st3" d="M714.5,879.3L714.5,879.3c1-1.3,2.3-1.9,3.8-1.9c1.7,0,3.2,0.7,4,2.3c0.8-1.5,2.4-2.3,4-2.3
			c3,0,4,2,4,4.7v7.6h-4.2V884c0-1.2,0-3.2-1.7-3.2c-1.9,0-2,1.8-2,3.2v5.7h-4.2V884c0-1.3,0-3.3-1.9-3.3c-1.9,0-1.9,2-1.9,3.3v5.7
			h-4.2v-11.9h4.2V879.3z"/>
		<path id="XMLID_624_" class="st3" d="M737.3,879.1L737.3,879.1c0.8-1.2,2.2-1.7,3.6-1.7c3.5,0,6,3,6,6.4c0,3.4-2.4,6.3-5.9,6.3
			c-1.4,0-2.8-0.5-3.7-1.5v7h-4.2v-17.8h4.2V879.1z M737.1,883.7c0,1.5,1,2.7,2.7,2.7c1.7,0,2.7-1.2,2.7-2.7c0-1.5-1-2.7-2.7-2.7
			C738.1,881,737.1,882.3,737.1,883.7z"/>
		<path id="XMLID_622_" class="st3" d="M753.2,879.7L753.2,879.7c0.9-1.5,2.2-2.1,3.9-2.1h0.8v4c-0.6-0.3-1.1-0.4-1.8-0.4
			c-2.3,0-2.9,1.5-2.9,3.6v4.8h-4.2v-11.9h4.2V879.7z"/>
		<path id="XMLID_619_" class="st3" d="M772.4,883.7c0,4-3.3,6.3-7.1,6.3c-3.8,0-7.1-2.3-7.1-6.3s3.3-6.3,7.1-6.3
			C769.1,877.4,772.4,879.7,772.4,883.7z M762.6,883.7c0,1.5,1,2.7,2.7,2.7c1.7,0,2.7-1.2,2.7-2.7c0-1.5-1-2.7-2.7-2.7
			C763.6,881,762.6,882.3,762.6,883.7z"/>
		<path id="XMLID_616_" class="st3" d="M774.2,870.5h4.2v8.5c0.9-1,2.3-1.5,3.7-1.5c3.5,0,5.9,2.9,5.9,6.3c0,3.4-2.5,6.3-6,6.3
			c-1.4,0-2.8-0.5-3.6-1.7h0v1.3h-4.2V870.5z M778.2,883.7c0,1.5,1,2.7,2.7,2.7c1.7,0,2.7-1.2,2.7-2.7c0-1.5-1-2.7-2.7-2.7
			C779.2,881,778.2,882.3,778.2,883.7z"/>
		<path id="XMLID_613_" class="st3" d="M803,889.6h-4.2v-1.3h0c-0.7,1.2-2.2,1.7-3.6,1.7c-3.5,0-6-2.9-6-6.3s2.4-6.3,5.9-6.3
			c1.4,0,2.8,0.5,3.7,1.5v-1.2h4.2V889.6z M793.5,883.7c0,1.5,1,2.7,2.7,2.7c1.7,0,2.7-1.2,2.7-2.7c0-1.5-1-2.7-2.7-2.7
			C794.5,881,793.5,882.3,793.5,883.7z"/>
		<path id="XMLID_611_" class="st3" d="M810,879.3L810,879.3c1-1.4,2.2-1.9,3.8-1.9c3.2,0,4.5,2,4.5,4.9v7.3h-4.2v-5.8
			c0-1.1,0.2-3.1-1.9-3.1c-1.7,0-2.2,1.3-2.2,2.8v6.1h-4.2v-11.9h4.2V879.3z"/>
		<path id="XMLID_609_" class="st3" d="M825.7,889.6h-4.2v-8.4h-1.4v-3.5h1.4v-3.6h4.2v3.6h2.4v3.5h-2.4V889.6z"/>
		<path id="XMLID_606_" class="st3" d="M841.6,884.4h-8.9c0,1.7,0.9,2.6,2.6,2.6c0.9,0,1.5-0.3,2-1.1h4c-0.3,1.4-1.2,2.4-2.2,3.1
			c-1.1,0.7-2.4,1-3.8,1c-3.9,0-6.9-2.2-6.9-6.3c0-4,2.7-6.3,6.6-6.3c4.1,0,6.5,2.5,6.5,6.6V884.4z M837.7,882
			c-0.2-1.1-1.2-1.9-2.4-1.9c-1.2,0-2.2,0.6-2.5,1.9H837.7z"/>
		<path id="XMLID_603_" class="st3" d="M686.1,916.1L686.1,916.1c-0.8,1.2-2.2,1.7-3.6,1.7c-3.5,0-6-2.9-6-6.3s2.4-6.3,5.9-6.3
			c1.4,0,2.8,0.5,3.7,1.5v-8.5h4.2v19.2h-4.2V916.1z M680.8,911.5c0,1.5,1,2.7,2.7,2.7c1.7,0,2.7-1.2,2.7-2.7c0-1.5-1-2.7-2.7-2.7
			C681.8,908.8,680.8,910,680.8,911.5z"/>
		<path id="XMLID_600_" class="st3" d="M705.1,912.1h-8.9c0,1.7,0.9,2.6,2.6,2.6c0.9,0,1.5-0.3,2-1.1h4c-0.3,1.4-1.2,2.4-2.2,3.1
			c-1.1,0.7-2.4,1-3.8,1c-3.9,0-6.9-2.2-6.9-6.3c0-4,2.7-6.3,6.6-6.3c4.1,0,6.5,2.5,6.5,6.6V912.1z M701.2,909.7
			c-0.2-1.1-1.2-1.9-2.4-1.9c-1.2,0-2.2,0.6-2.5,1.9H701.2z"/>
		<path id="XMLID_597_" class="st3" d="M719,906.9L719,906.9c0.8-1.2,2.2-1.7,3.6-1.7c3.5,0,6,3,6,6.4c0,3.4-2.4,6.3-5.9,6.3
			c-1.4,0-2.8-0.5-3.7-1.5v7h-4.2v-17.8h4.2V906.9z M718.8,911.5c0,1.5,1,2.7,2.7,2.7c1.7,0,2.7-1.2,2.7-2.7c0-1.5-1-2.7-2.7-2.7
			C719.8,908.8,718.8,910,718.8,911.5z"/>
		<path id="XMLID_594_" class="st3" d="M743.6,917.4h-4.2v-1.3h0c-0.7,1.2-2.2,1.7-3.6,1.7c-3.5,0-6-2.9-6-6.3s2.4-6.3,5.9-6.3
			c1.4,0,2.8,0.5,3.7,1.5v-1.2h4.2V917.4z M734.2,911.5c0,1.5,1,2.7,2.7,2.7c1.7,0,2.7-1.2,2.7-2.7c0-1.5-1-2.7-2.7-2.7
			C735.2,908.8,734.2,910,734.2,911.5z"/>
		<path id="XMLID_591_" class="st3" d="M759.4,916.2c0,5-2.5,7.1-6.9,7.1c-2.7,0-6.4-1.4-6.7-4.5h4.7c0.1,0.4,0.4,0.7,0.8,0.9
			c0.4,0.2,0.8,0.3,1.2,0.3c2.3,0,2.7-1.5,2.7-3.4V916c-1.1,1.1-2.2,1.6-3.8,1.6c-3.5,0-5.8-2.6-5.8-6.1c0-3.5,2.4-6.4,6.1-6.4
			c1.4,0,2.7,0.5,3.5,1.6h0v-1.2h4.2V916.2z M750,911.4c0,1.5,1,2.7,2.7,2.7s2.7-1.2,2.7-2.7c0-1.5-1-2.7-2.7-2.7
			S750,909.9,750,911.4z"/>
		<path id="XMLID_588_" class="st3" d="M775.5,911.5c0,4-3.3,6.3-7.1,6.3c-3.8,0-7.1-2.3-7.1-6.3s3.3-6.3,7.1-6.3
			C772.1,905.1,775.5,907.4,775.5,911.5z M765.6,911.5c0,1.5,1,2.7,2.7,2.7c1.7,0,2.7-1.2,2.7-2.7c0-1.5-1-2.7-2.7-2.7
			C766.6,908.8,765.6,910,765.6,911.5z"/>
	</g>
</g>
<rect id="XMLID_7234_" x="550.5" y="1027.1" class="st1" width="349.5" height="158.2"/>
<g id="XMLID_24186_">
	<g>
		<path id="XMLID_1849_" class="st3" d="M639.9,1068.9c-0.9-1.2-2.4-1.9-4-1.9c-2.8,0-4.6,2.1-4.6,4.8c0,2.8,1.9,4.7,4.7,4.7
			c1.5,0,3-0.7,3.9-1.8v5.4c-1.5,0.5-2.6,0.8-4,0.8c-2.4,0-4.7-0.9-6.5-2.6c-1.9-1.7-2.8-4-2.8-6.6c0-2.4,0.9-4.7,2.6-6.4
			c1.7-1.8,4.2-2.8,6.6-2.8c1.5,0,2.8,0.3,4.1,0.9V1068.9z"/>
		<path id="XMLID_1846_" class="st3" d="M661.1,1071.4c0,5.6-4,9.6-9.6,9.6s-9.6-4-9.6-9.6c0-5.3,4.6-9,9.6-9
			C656.5,1062.4,661.1,1066.1,661.1,1071.4z M646.5,1071.4c0,3,2.2,5.2,4.9,5.2c2.7,0,4.9-2.2,4.9-5.2c0-2.4-2.2-4.6-4.9-4.6
			C648.7,1066.8,646.5,1069,646.5,1071.4z"/>
		<path id="XMLID_1844_" class="st3" d="M663.2,1063h4.5l8.3,10.7h0V1063h4.5v17.4H676l-8.3-10.7h0v10.7h-4.5V1063z"/>
		<path id="XMLID_1842_" class="st3" d="M690.5,1080.4h-4.5v-13.6h-3.7v-3.8h12v3.8h-3.7V1080.4z"/>
		<path id="XMLID_1839_" class="st3" d="M710.3,1080.4h-5.6l-4.3-6.7h0v6.7h-4.5V1063h6.8c3.4,0,6.1,1.6,6.1,5.4
			c0,2.4-1.3,4.5-3.8,4.9L710.3,1080.4z M700.4,1070.8h0.4c1.5,0,3.1-0.3,3.1-2.2c0-1.9-1.7-2.2-3.1-2.2h-0.4V1070.8z"/>
		<path id="XMLID_1837_" class="st3" d="M716.1,1080.4h-4.5V1063h4.5V1080.4z"/>
		<path id="XMLID_1833_" class="st3" d="M719,1080.4V1063h6.5c3.1,0,5.2,1.2,5.2,4.5c0,1.6-0.5,2.8-1.9,3.6v0c2.5,0.3,3.6,2,3.6,4.4
			c0,3.7-3.1,4.9-6.3,4.9H719z M723.6,1069.9h0.5c1.2,0,2.5-0.2,2.5-1.7c0-1.6-1.4-1.7-2.6-1.7h-0.3V1069.9z M723.6,1077h0.6
			c1.3,0,3.6,0.1,3.6-1.8c0-2.1-2.2-1.9-3.7-1.9h-0.5V1077z"/>
		<path id="XMLID_1831_" class="st3" d="M749.8,1063v9.8c0,2.2-0.1,4.5-1.8,6.1c-1.5,1.4-3.7,1.9-5.8,1.9c-2,0-4.3-0.5-5.8-1.9
			c-1.7-1.7-1.8-3.9-1.8-6.1v-9.8h4.5v9.2c0,2.3,0.2,4.7,3.1,4.7c2.9,0,3.1-2.5,3.1-4.7v-9.2H749.8z"/>
		<path id="XMLID_1829_" class="st3" d="M750.8,1063h5.4l3.3,4.7l3.3-4.7h5.4l-6.4,9.1v8.4h-4.5v-8.4L750.8,1063z"/>
		<path id="XMLID_1827_" class="st3" d="M773.7,1066.9v2.9h5.1v3.8h-5.1v3h5.4v3.8h-9.9V1063h9.9v3.8H773.7z"/>
		<path id="XMLID_1825_" class="st3" d="M781.9,1063h4.5l8.3,10.7h0V1063h4.5v17.4h-4.5l-8.3-10.7h0v10.7h-4.5V1063z"/>
		<path id="XMLID_1823_" class="st3" d="M809.2,1080.4h-4.5v-13.6h-3.7v-3.8h12v3.8h-3.7V1080.4z"/>
		<path id="XMLID_1821_" class="st3" d="M819.1,1066.9v2.9h5.1v3.8h-5.1v3h5.4v3.8h-9.9V1063h9.9v3.8H819.1z"/>
		<path id="XMLID_1819_" class="st3" d="M598.3,1104.3h5.4v3.8h-10v-17.4h4.5V1104.3z"/>
		<path id="XMLID_1817_" class="st3" d="M609.3,1108.2h-4.2V1089h4.2V1108.2z"/>
		<path id="XMLID_1814_" class="st3" d="M624.3,1102.9h-8.9c0,1.7,0.9,2.6,2.6,2.6c0.9,0,1.5-0.3,2-1.1h4c-0.3,1.4-1.2,2.4-2.2,3.1
			c-1.1,0.7-2.4,1-3.8,1c-3.9,0-6.9-2.2-6.9-6.3c0-4,2.7-6.3,6.6-6.3c4.1,0,6.5,2.5,6.5,6.6V1102.9z M620.4,1100.5
			c-0.2-1.1-1.2-1.9-2.4-1.9c-1.2,0-2.2,0.6-2.5,1.9H620.4z"/>
		<path id="XMLID_1812_" class="st3" d="M632,1102.4l2.8-6.1h4.7l-6.2,11.9h-2.7l-6.2-11.9h4.7L632,1102.4z"/>
		<path id="XMLID_1809_" class="st3" d="M653.6,1108.2h-4.2v-1.3h0c-0.7,1.2-2.2,1.7-3.6,1.7c-3.5,0-6-2.9-6-6.3s2.4-6.3,5.9-6.3
			c1.4,0,2.8,0.5,3.7,1.5v-1.2h4.2V1108.2z M644.1,1102.3c0,1.5,1,2.7,2.7,2.7c1.7,0,2.7-1.2,2.7-2.7c0-1.5-1-2.7-2.7-2.7
			C645.1,1099.6,644.1,1100.8,644.1,1102.3z"/>
		<path id="XMLID_1806_" class="st3" d="M676.5,1102.9h-8.9c0,1.7,0.9,2.6,2.6,2.6c0.9,0,1.5-0.3,2-1.1h4c-0.3,1.4-1.2,2.4-2.2,3.1
			c-1.1,0.7-2.4,1-3.8,1c-3.9,0-6.9-2.2-6.9-6.3c0-4,2.7-6.3,6.6-6.3c4.1,0,6.5,2.5,6.5,6.6V1102.9z M672.5,1100.5
			c-0.2-1.1-1.2-1.9-2.4-1.9c-1.2,0-2.2,0.6-2.5,1.9H672.5z"/>
		<path id="XMLID_1804_" class="st3" d="M682.6,1108.2h-4.2V1089h4.2V1108.2z"/>
		<path id="XMLID_1802_" class="st3" d="M701.8,1100.2c-0.6-0.5-1.4-0.8-2.2-0.8c-1.6,0-2.9,1.2-2.9,2.9c0,1.7,1.2,2.9,3,2.9
			c0.7,0,1.5-0.3,2.1-0.8v3.6c-0.9,0.5-1.9,0.7-3,0.7c-3.5,0-6.4-2.6-6.4-6.2c0-3.8,2.9-6.4,6.6-6.4c1,0,1.9,0.2,2.8,0.7V1100.2z"/>
		<path id="XMLID_1799_" class="st3" d="M717.8,1102.3c0,4-3.3,6.3-7.1,6.3c-3.8,0-7.1-2.3-7.1-6.3c0-4,3.3-6.3,7.1-6.3
			C714.5,1095.9,717.8,1098.2,717.8,1102.3z M708,1102.3c0,1.5,1,2.7,2.7,2.7c1.7,0,2.7-1.2,2.7-2.7c0-1.5-1-2.7-2.7-2.7
			C709,1099.6,708,1100.8,708,1102.3z"/>
		<path id="XMLID_1797_" class="st3" d="M723.9,1097.8L723.9,1097.8c1-1.3,2.3-1.9,3.8-1.9c1.7,0,3.2,0.7,4,2.3
			c0.8-1.5,2.4-2.3,4-2.3c3,0,4,2,4,4.7v7.6h-4.2v-5.7c0-1.2,0-3.2-1.7-3.2c-1.9,0-2,1.8-2,3.2v5.7h-4.2v-5.7c0-1.3,0-3.3-1.9-3.3
			c-1.9,0-1.9,2-1.9,3.3v5.7h-4.2v-11.9h4.2V1097.8z"/>
		<path id="XMLID_1794_" class="st3" d="M746.7,1097.7L746.7,1097.7c0.8-1.2,2.2-1.7,3.6-1.7c3.5,0,6,3,6,6.4c0,3.4-2.4,6.3-5.9,6.3
			c-1.4,0-2.8-0.5-3.7-1.5v7h-4.2v-17.8h4.2V1097.7z M746.5,1102.3c0,1.5,1,2.7,2.7,2.7c1.7,0,2.7-1.2,2.7-2.7c0-1.5-1-2.7-2.7-2.7
			C747.5,1099.6,746.5,1100.8,746.5,1102.3z"/>
		<path id="XMLID_1792_" class="st3" d="M762.5,1098.3L762.5,1098.3c0.9-1.5,2.2-2.1,3.9-2.1h0.8v4c-0.6-0.3-1.1-0.4-1.8-0.4
			c-2.3,0-2.9,1.5-2.9,3.6v4.8h-4.2v-11.9h4.2V1098.3z"/>
		<path id="XMLID_1789_" class="st3" d="M781.8,1102.3c0,4-3.3,6.3-7.1,6.3c-3.8,0-7.1-2.3-7.1-6.3c0-4,3.3-6.3,7.1-6.3
			C778.5,1095.9,781.8,1098.2,781.8,1102.3z M772,1102.3c0,1.5,1,2.7,2.7,2.7c1.7,0,2.7-1.2,2.7-2.7c0-1.5-1-2.7-2.7-2.7
			C772.9,1099.6,772,1100.8,772,1102.3z"/>
		<path id="XMLID_1786_" class="st3" d="M783.6,1089h4.2v8.5c0.9-1,2.3-1.5,3.7-1.5c3.5,0,5.9,2.9,5.9,6.3c0,3.4-2.5,6.3-6,6.3
			c-1.4,0-2.8-0.5-3.6-1.7h0v1.3h-4.2V1089z M787.6,1102.3c0,1.5,1,2.7,2.7,2.7c1.7,0,2.7-1.2,2.7-2.7c0-1.5-1-2.7-2.7-2.7
			C788.6,1099.6,787.6,1100.8,787.6,1102.3z"/>
		<path id="XMLID_1783_" class="st3" d="M812.4,1108.2h-4.2v-1.3h0c-0.7,1.2-2.2,1.7-3.6,1.7c-3.5,0-6-2.9-6-6.3s2.4-6.3,5.9-6.3
			c1.4,0,2.8,0.5,3.7,1.5v-1.2h4.2V1108.2z M802.9,1102.3c0,1.5,1,2.7,2.7,2.7c1.7,0,2.7-1.2,2.7-2.7c0-1.5-1-2.7-2.7-2.7
			C803.9,1099.6,802.9,1100.8,802.9,1102.3z"/>
		<path id="XMLID_1781_" class="st3" d="M819.4,1097.8L819.4,1097.8c1-1.4,2.2-1.9,3.8-1.9c3.2,0,4.5,2,4.5,4.9v7.3h-4.2v-5.8
			c0-1.1,0.2-3.1-1.9-3.1c-1.7,0-2.2,1.3-2.2,2.8v6.1h-4.2v-11.9h4.2V1097.8z"/>
		<path id="XMLID_1779_" class="st3" d="M835.1,1108.2h-4.2v-8.4h-1.4v-3.5h1.4v-3.6h4.2v3.6h2.4v3.5h-2.4V1108.2z"/>
		<path id="XMLID_1776_" class="st3" d="M851,1102.9h-8.9c0,1.7,0.9,2.6,2.6,2.6c0.9,0,1.5-0.3,2-1.1h4c-0.3,1.4-1.2,2.4-2.2,3.1
			c-1.1,0.7-2.4,1-3.8,1c-3.9,0-6.9-2.2-6.9-6.3c0-4,2.7-6.3,6.6-6.3c4.1,0,6.5,2.5,6.5,6.6V1102.9z M847.1,1100.5
			c-0.2-1.1-1.2-1.9-2.4-1.9c-1.2,0-2.2,0.6-2.5,1.9H847.1z"/>
		<path id="XMLID_1773_" class="st3" d="M593.4,1134.6L593.4,1134.6c-0.8,1.2-2.2,1.7-3.6,1.7c-3.5,0-6-2.9-6-6.3s2.4-6.3,5.9-6.3
			c1.4,0,2.8,0.5,3.7,1.5v-8.5h4.2v19.2h-4.2V1134.6z M588.1,1130c0,1.5,1,2.7,2.7,2.7c1.7,0,2.7-1.2,2.7-2.7c0-1.5-1-2.7-2.7-2.7
			C589.1,1127.3,588.1,1128.5,588.1,1130z"/>
		<path id="XMLID_1770_" class="st3" d="M612.4,1130.7h-8.9c0,1.7,0.9,2.6,2.6,2.6c0.9,0,1.5-0.3,2-1.1h4c-0.3,1.4-1.2,2.4-2.2,3.1
			c-1.1,0.7-2.4,1-3.8,1c-3.9,0-6.9-2.2-6.9-6.3c0-4,2.7-6.3,6.6-6.3c4.1,0,6.5,2.5,6.5,6.6V1130.7z M608.5,1128.3
			c-0.2-1.1-1.2-1.9-2.4-1.9c-1.2,0-2.2,0.6-2.5,1.9H608.5z"/>
		<path id="XMLID_1767_" class="st3" d="M626.3,1125.4L626.3,1125.4c0.8-1.2,2.2-1.7,3.6-1.7c3.5,0,6,3,6,6.4c0,3.4-2.4,6.3-5.9,6.3
			c-1.4,0-2.8-0.5-3.7-1.5v7h-4.2V1124h4.2V1125.4z M626.2,1130c0,1.5,1,2.7,2.7,2.7c1.7,0,2.7-1.2,2.7-2.7c0-1.5-1-2.7-2.7-2.7
			C627.2,1127.3,626.2,1128.5,626.2,1130z"/>
		<path id="XMLID_1764_" class="st3" d="M651,1135.9h-4.2v-1.3h0c-0.7,1.2-2.2,1.7-3.6,1.7c-3.5,0-6-2.9-6-6.3s2.4-6.3,5.9-6.3
			c1.4,0,2.8,0.5,3.7,1.5v-1.2h4.2V1135.9z M641.5,1130c0,1.5,1,2.7,2.7,2.7c1.7,0,2.7-1.2,2.7-2.7c0-1.5-1-2.7-2.7-2.7
			C642.5,1127.3,641.5,1128.5,641.5,1130z"/>
		<path id="XMLID_1761_" class="st3" d="M666.8,1134.7c0,5-2.5,7.1-6.9,7.1c-2.7,0-6.4-1.4-6.7-4.5h4.7c0.1,0.4,0.4,0.7,0.8,0.9
			c0.4,0.2,0.8,0.3,1.2,0.3c2.3,0,2.7-1.5,2.7-3.4v-0.6c-1.1,1.1-2.2,1.6-3.8,1.6c-3.5,0-5.8-2.6-5.8-6.1c0-3.5,2.4-6.4,6.1-6.4
			c1.4,0,2.7,0.5,3.5,1.6h0v-1.2h4.2V1134.7z M657.3,1129.9c0,1.5,1,2.7,2.7,2.7c1.7,0,2.7-1.2,2.7-2.7c0-1.5-1-2.7-2.7-2.7
			C658.3,1127.2,657.3,1128.4,657.3,1129.9z"/>
		<path id="XMLID_1758_" class="st3" d="M682.8,1130c0,4-3.3,6.3-7.1,6.3c-3.8,0-7.1-2.3-7.1-6.3c0-4,3.3-6.3,7.1-6.3
			C679.5,1123.7,682.8,1125.9,682.8,1130z M673,1130c0,1.5,1,2.7,2.7,2.7c1.7,0,2.7-1.2,2.7-2.7c0-1.5-1-2.7-2.7-2.7
			C674,1127.3,673,1128.5,673,1130z"/>
		<path id="XMLID_1755_" class="st3" d="M705.6,1135.9h-4.2v-1.3h0c-0.7,1.2-2.2,1.7-3.6,1.7c-3.5,0-6-2.9-6-6.3s2.4-6.3,5.9-6.3
			c1.4,0,2.8,0.5,3.7,1.5v-1.2h4.2V1135.9z M696.1,1130c0,1.5,1,2.7,2.7,2.7c1.7,0,2.7-1.2,2.7-2.7c0-1.5-1-2.7-2.7-2.7
			C697.1,1127.3,696.1,1128.5,696.1,1130z"/>
		<path id="XMLID_1753_" class="st3" d="M712.6,1135.9h-4.2v-19.2h4.2V1135.9z"/>
		<path id="XMLID_1749_" class="st3" d="M736.3,1135.9H732v-1.3h0c-0.7,1.2-2.2,1.7-3.6,1.7c-3.5,0-6-2.9-6-6.3s2.4-6.3,5.9-6.3
			c1.4,0,2.8,0.5,3.7,1.5v-1.2h4.2V1135.9z M726.8,1130c0,1.5,1,2.7,2.7,2.7c1.7,0,2.7-1.2,2.7-2.7c0-1.5-1-2.7-2.7-2.7
			C727.8,1127.3,726.8,1128.5,726.8,1130z M729.2,1122.3l-1.9-1.4l3.3-4l2.6,1.8L729.2,1122.3z"/>
		<path id="XMLID_1747_" class="st3" d="M743.3,1126L743.3,1126c0.9-1.5,2.2-2.1,3.9-2.1h0.8v4c-0.6-0.3-1.1-0.4-1.8-0.4
			c-2.3,0-2.9,1.5-2.9,3.6v4.8H739V1124h4.2V1126z"/>
		<path id="XMLID_1744_" class="st3" d="M761.7,1130.7h-8.9c0,1.7,0.9,2.6,2.6,2.6c0.9,0,1.5-0.3,2-1.1h4c-0.3,1.4-1.2,2.4-2.2,3.1
			c-1.1,0.7-2.4,1-3.8,1c-3.9,0-6.9-2.2-6.9-6.3c0-4,2.7-6.3,6.6-6.3c4.1,0,6.5,2.5,6.5,6.6V1130.7z M757.8,1128.3
			c-0.2-1.1-1.2-1.9-2.4-1.9c-1.2,0-2.2,0.6-2.5,1.9H757.8z"/>
		<path id="XMLID_1741_" class="st3" d="M776.6,1135.9h-4.2v-1.3h0c-0.7,1.2-2.2,1.7-3.6,1.7c-3.5,0-6-2.9-6-6.3s2.4-6.3,5.9-6.3
			c1.4,0,2.8,0.5,3.7,1.5v-1.2h4.2V1135.9z M767.1,1130c0,1.5,1,2.7,2.7,2.7s2.7-1.2,2.7-2.7c0-1.5-1-2.7-2.7-2.7
			S767.1,1128.5,767.1,1130z"/>
		<path id="XMLID_1739_" class="st3" d="M791.9,1135.9h-4.2v-8.4h-1.4v-3.5h1.4v-3.6h4.2v3.6h2.4v3.5h-2.4V1135.9z"/>
		<path id="XMLID_1735_" class="st3" d="M807.8,1130.7h-8.9c0,1.7,0.9,2.6,2.6,2.6c0.9,0,1.5-0.3,2-1.1h4c-0.3,1.4-1.2,2.4-2.2,3.1
			c-1.1,0.7-2.4,1-3.8,1c-3.9,0-6.9-2.2-6.9-6.3c0-4,2.7-6.3,6.6-6.3c4.1,0,6.5,2.5,6.5,6.6V1130.7z M800.8,1122.3l-1.9-1.4l3.3-4
			l2.6,1.8L800.8,1122.3z M803.9,1128.3c-0.2-1.1-1.2-1.9-2.4-1.9c-1.2,0-2.2,0.6-2.5,1.9H803.9z"/>
		<path id="XMLID_1733_" class="st3" d="M818.3,1127.9c-0.6-0.5-1.4-0.8-2.2-0.8c-1.6,0-2.9,1.2-2.9,2.9c0,1.7,1.2,2.9,3,2.9
			c0.7,0,1.5-0.3,2.1-0.8v3.6c-0.9,0.5-1.9,0.7-3,0.7c-3.5,0-6.4-2.6-6.4-6.2c0-3.8,2.9-6.4,6.6-6.4c1,0,1.9,0.2,2.8,0.7V1127.9z"/>
		<path id="XMLID_1731_" class="st3" d="M825.1,1125.6L825.1,1125.6c1-1.4,2.2-1.9,3.8-1.9c3.2,0,4.5,2,4.5,4.9v7.3h-4.2v-5.8
			c0-1.1,0.2-3.1-1.9-3.1c-1.7,0-2.2,1.3-2.2,2.8v6.1h-4.2V1124h4.2V1125.6z"/>
		<path id="XMLID_1728_" class="st3" d="M840.6,1119.5c0,1.3-1.1,2.4-2.4,2.4c-1.3,0-2.4-1.1-2.4-2.4c0-1.3,1.1-2.4,2.4-2.4
			C839.5,1117.1,840.6,1118.2,840.6,1119.5z M840.4,1135.9h-4.2V1124h4.2V1135.9z"/>
		<path id="XMLID_1726_" class="st3" d="M851.7,1127.9c-0.6-0.5-1.4-0.8-2.2-0.8c-1.6,0-2.9,1.2-2.9,2.9c0,1.7,1.2,2.9,3,2.9
			c0.7,0,1.5-0.3,2.1-0.8v3.6c-0.9,0.5-1.9,0.7-3,0.7c-3.5,0-6.4-2.6-6.4-6.2c0-3.8,2.9-6.4,6.6-6.4c1,0,1.9,0.2,2.8,0.7V1127.9z"/>
		<path id="XMLID_1722_" class="st3" d="M867.2,1135.9H863v-1.3h0c-0.7,1.2-2.2,1.7-3.6,1.7c-3.5,0-6-2.9-6-6.3s2.4-6.3,5.9-6.3
			c1.4,0,2.8,0.5,3.7,1.5v-1.2h4.2V1135.9z M857.8,1130c0,1.5,1,2.7,2.7,2.7c1.7,0,2.7-1.2,2.7-2.7c0-1.5-1-2.7-2.7-2.7
			C858.8,1127.3,857.8,1128.5,857.8,1130z"/>
	</g>
</g>
<rect id="XMLID_7232_" x="550.5" y="1232.3" class="st1" width="349.5" height="158.2"/>
<g id="XMLID_24100_">
	<g>
		<path id="XMLID_987_" class="st3" d="M602.7,1282.5l-1.2,3h-4.8l6.7-17.4h4.9l6.6,17.4h-4.8l-1.1-3H602.7z M605.9,1273.5
			L605.9,1273.5l-1.9,5.5h3.8L605.9,1273.5z"/>
		<path id="XMLID_984_" class="st3" d="M630.8,1285.6h-5.6l-4.3-6.7h0v6.7h-4.5v-17.4h6.8c3.4,0,6.1,1.6,6.1,5.4
			c0,2.4-1.3,4.5-3.8,4.9L630.8,1285.6z M620.8,1275.9h0.4c1.5,0,3.1-0.3,3.1-2.2c0-1.9-1.7-2.2-3.1-2.2h-0.4V1275.9z"/>
		<path id="XMLID_982_" class="st3" d="M636.5,1272v2.9h5.1v3.8h-5.1v3h5.4v3.8H632v-17.4h9.9v3.8H636.5z"/>
		<path id="XMLID_979_" class="st3" d="M649.2,1282.5l-1.2,3h-4.8l6.7-17.4h4.9l6.6,17.4h-4.8l-1.1-3H649.2z M652.3,1273.5
			L652.3,1273.5l-1.9,5.5h3.8L652.3,1273.5z"/>
		<path id="XMLID_977_" class="st3" d="M677.6,1285.6h-4.5V1272h-3.7v-3.8h12v3.8h-3.7V1285.6z"/>
		<path id="XMLID_975_" class="st3" d="M687.5,1272v2.9h5.1v3.8h-5.1v3h5.4v3.8H683v-17.4h9.9v3.8H687.5z"/>
		<path id="XMLID_973_" class="st3" d="M708.2,1274c-0.9-1.2-2.4-1.9-4-1.9c-2.8,0-4.6,2.1-4.6,4.8c0,2.8,1.9,4.7,4.7,4.7
			c1.5,0,3-0.7,3.9-1.8v5.4c-1.5,0.5-2.6,0.8-4,0.8c-2.4,0-4.7-0.9-6.5-2.6c-1.9-1.7-2.8-4-2.8-6.6c0-2.4,0.9-4.7,2.6-6.4
			c1.7-1.8,4.2-2.8,6.6-2.8c1.5,0,2.8,0.3,4.1,0.9V1274z"/>
		<path id="XMLID_971_" class="st3" d="M711,1268.1h4.5l8.3,10.7h0v-10.7h4.5v17.4h-4.5l-8.3-10.7h0v10.7H711V1268.1z"/>
		<path id="XMLID_941_" class="st3" d="M735.9,1285.6h-4.5v-17.4h4.5V1285.6z"/>
		<path id="XMLID_883_" class="st3" d="M751.3,1274c-0.9-1.2-2.4-1.9-4-1.9c-2.8,0-4.6,2.1-4.6,4.8c0,2.8,1.9,4.7,4.7,4.7
			c1.5,0,3-0.7,3.9-1.8v5.4c-1.5,0.5-2.6,0.8-4,0.8c-2.4,0-4.7-0.9-6.5-2.6c-1.9-1.7-2.8-4-2.8-6.6c0-2.4,0.9-4.7,2.6-6.4
			c1.7-1.8,4.2-2.8,6.6-2.8c1.5,0,2.8,0.3,4.1,0.9V1274z"/>
		<path id="XMLID_855_" class="st3" d="M772.5,1276.5c0,5.6-4,9.6-9.6,9.6c-5.6,0-9.6-4-9.6-9.6c0-5.3,4.6-9,9.6-9
			C767.8,1267.6,772.5,1271.3,772.5,1276.5z M757.9,1276.5c0,3,2.2,5.2,4.9,5.2c2.7,0,4.9-2.2,4.9-5.2c0-2.4-2.2-4.6-4.9-4.6
			C760.1,1271.9,757.9,1274.1,757.9,1276.5z"/>
		<path id="XMLID_853_" class="st3" d="M784.1,1272.6c-0.8-0.7-1.9-1.2-3-1.2c-0.8,0-1.9,0.5-1.9,1.5c0,1,1.2,1.4,2,1.7l1.2,0.3
			c2.4,0.7,4.3,1.9,4.3,4.8c0,1.7-0.4,3.5-1.8,4.7c-1.4,1.2-3.2,1.6-4.9,1.6c-2.2,0-4.3-0.7-6.1-2l1.9-3.7c1.1,1,2.5,1.8,4,1.8
			c1.1,0,2.2-0.5,2.2-1.8c0-1.3-1.8-1.7-2.8-2c-2.8-0.8-4.7-1.5-4.7-4.9c0-3.5,2.5-5.8,6-5.8c1.8,0,3.9,0.6,5.5,1.4L784.1,1272.6z"
			/>
		<path id="XMLID_851_" class="st3" d="M800.1,1266.4l-8.8,21.3h-3.3l8.8-21.3H800.1z"/>
		<path id="XMLID_848_" class="st3" d="M806.6,1282.5l-1.2,3h-4.8l6.7-17.4h4.9l6.6,17.4H814l-1.1-3H806.6z M809.8,1273.5
			L809.8,1273.5l-1.9,5.5h3.8L809.8,1273.5z"/>
		<path id="XMLID_845_" class="st3" d="M834.7,1285.6h-5.6l-4.3-6.7h0v6.7h-4.5v-17.4h6.8c3.4,0,6.1,1.6,6.1,5.4
			c0,2.4-1.3,4.5-3.8,4.9L834.7,1285.6z M824.8,1275.9h0.4c1.5,0,3.1-0.3,3.1-2.2c0-1.9-1.7-2.2-3.1-2.2h-0.4V1275.9z"/>
		<path id="XMLID_842_" class="st3" d="M850.9,1286.6l-1.4-1.6c-1.3,0.8-2.9,1.1-4.8,1.1c-5.6,0-9.6-4-9.6-9.6c0-5.3,4.6-9,9.6-9
			c5.4,0,9.6,3.7,9.6,9.3c0,2.3-0.8,4.3-2.2,6.1l2.9,3L850.9,1286.6z M848.8,1279.5c0.5-0.7,0.8-1.7,0.8-2.6c0-2.6-2.2-5-4.9-5
			c-2.7,0-4.9,2.2-4.9,4.6c0,3,2.2,5.2,4.9,5.2c0.5,0,0.9-0.1,1.4-0.2l-2.8-2.8l4.3-0.5L848.8,1279.5z"/>
		<path id="XMLID_840_" class="st3" d="M606.9,1301.7c-0.9-1.2-2.4-1.9-4-1.9c-2.8,0-4.6,2.1-4.6,4.8c0,2.8,1.9,4.7,4.7,4.7
			c1.5,0,3-0.7,3.9-1.8v5.4c-1.5,0.5-2.6,0.8-4,0.8c-2.4,0-4.7-0.9-6.5-2.6c-1.9-1.7-2.8-4-2.8-6.6c0-2.4,0.9-4.7,2.6-6.4
			c1.7-1.8,4.2-2.8,6.6-2.8c1.5,0,2.8,0.3,4.1,0.9V1301.7z"/>
		<path id="XMLID_837_" class="st3" d="M623,1307.4c0,4-3.3,6.3-7.1,6.3c-3.8,0-7.1-2.3-7.1-6.3s3.3-6.3,7.1-6.3
			S623,1303.3,623,1307.4z M613.1,1307.4c0,1.5,1,2.7,2.7,2.7s2.7-1.2,2.7-2.7c0-1.5-1-2.7-2.7-2.7S613.1,1305.9,613.1,1307.4z"/>
		<path id="XMLID_835_" class="st3" d="M629.1,1303L629.1,1303c1-1.4,2.2-1.9,3.8-1.9c3.2,0,4.5,2,4.5,4.9v7.3h-4.2v-5.8
			c0-1.1,0.2-3.1-1.9-3.1c-1.7,0-2.2,1.3-2.2,2.8v6.1h-4.2v-11.9h4.2V1303z"/>
		<path id="XMLID_833_" class="st3" d="M644.8,1313.3h-4.2v-8.4h-1.5v-3.5h1.5v-1.5c0-1.6,0-2.8,1.2-4.2c1-1.2,2.5-1.9,4.1-1.9
			c0.6,0,1.2,0.1,1.8,0.4v3.6c-0.5-0.2-0.9-0.4-1.5-0.4c-1.1,0-1.5,0.6-1.5,2v1.9h2.9v3.5h-2.9V1313.3z"/>
		<path id="XMLID_830_" class="st3" d="M662.5,1307.4c0,4-3.3,6.3-7.1,6.3c-3.8,0-7.1-2.3-7.1-6.3s3.3-6.3,7.1-6.3
			C659.2,1301,662.5,1303.3,662.5,1307.4z M652.7,1307.4c0,1.5,1,2.7,2.7,2.7c1.7,0,2.7-1.2,2.7-2.7c0-1.5-1-2.7-2.7-2.7
			C653.7,1304.7,652.7,1305.9,652.7,1307.4z"/>
		<path id="XMLID_828_" class="st3" d="M668.6,1303.4L668.6,1303.4c0.9-1.5,2.2-2.1,3.9-2.1h0.8v4c-0.6-0.3-1.1-0.4-1.8-0.4
			c-2.3,0-2.9,1.5-2.9,3.6v4.8h-4.2v-11.9h4.2V1303.4z"/>
		<path id="XMLID_826_" class="st3" d="M679.1,1302.9L679.1,1302.9c1-1.3,2.3-1.9,3.8-1.9c1.7,0,3.2,0.7,4,2.3
			c0.8-1.5,2.4-2.3,4-2.3c3,0,4,2,4,4.7v7.6h-4.2v-5.7c0-1.2,0-3.2-1.7-3.2c-1.9,0-2,1.8-2,3.2v5.7h-4.2v-5.7c0-1.3,0-3.3-1.9-3.3
			c-1.9,0-1.9,2-1.9,3.3v5.7h-4.2v-11.9h4.2V1302.9z"/>
		<path id="XMLID_823_" class="st3" d="M702.2,1296.9c0,1.3-1.1,2.4-2.4,2.4c-1.3,0-2.4-1.1-2.4-2.4c0-1.3,1.1-2.4,2.4-2.4
			C701.1,1294.5,702.2,1295.6,702.2,1296.9z M701.9,1313.3h-4.2v-11.9h4.2V1313.3z"/>
		<path id="XMLID_820_" class="st3" d="M713.6,1312L713.6,1312c-0.8,1.2-2.2,1.7-3.6,1.7c-3.5,0-6-2.9-6-6.3c0-3.4,2.4-6.3,5.9-6.3
			c1.4,0,2.8,0.5,3.7,1.5v-8.5h4.2v19.2h-4.2V1312z M708.4,1307.4c0,1.5,1,2.7,2.7,2.7c1.7,0,2.7-1.2,2.7-2.7c0-1.5-1-2.7-2.7-2.7
			C709.4,1304.7,708.4,1305.9,708.4,1307.4z"/>
		<path id="XMLID_817_" class="st3" d="M733.4,1313.3h-4.2v-1.3h0c-0.7,1.2-2.2,1.7-3.6,1.7c-3.5,0-6-2.9-6-6.3
			c0-3.4,2.4-6.3,5.9-6.3c1.4,0,2.8,0.5,3.7,1.5v-1.2h4.2V1313.3z M724,1307.4c0,1.5,1,2.7,2.7,2.7c1.7,0,2.7-1.2,2.7-2.7
			c0-1.5-1-2.7-2.7-2.7C725,1304.7,724,1305.9,724,1307.4z"/>
		<path id="XMLID_814_" class="st3" d="M745.2,1312L745.2,1312c-0.8,1.2-2.2,1.7-3.6,1.7c-3.5,0-6-2.9-6-6.3c0-3.4,2.4-6.3,5.9-6.3
			c1.4,0,2.8,0.5,3.7,1.5v-8.5h4.2v19.2h-4.2V1312z M739.9,1307.4c0,1.5,1,2.7,2.7,2.7c1.7,0,2.7-1.2,2.7-2.7c0-1.5-1-2.7-2.7-2.7
			C740.9,1304.7,739.9,1305.9,739.9,1307.4z"/>
		<path id="XMLID_811_" class="st3" d="M768.8,1312L768.8,1312c-0.8,1.2-2.2,1.7-3.6,1.7c-3.5,0-6-2.9-6-6.3c0-3.4,2.4-6.3,5.9-6.3
			c1.4,0,2.8,0.5,3.7,1.5v-8.5h4.2v19.2h-4.2V1312z M763.6,1307.4c0,1.5,1,2.7,2.7,2.7c1.7,0,2.7-1.2,2.7-2.7c0-1.5-1-2.7-2.7-2.7
			C764.6,1304.7,763.6,1305.9,763.6,1307.4z"/>
		<path id="XMLID_808_" class="st3" d="M787.9,1308.1H779c0,1.7,0.9,2.6,2.6,2.6c0.9,0,1.5-0.3,2-1.1h4c-0.3,1.4-1.2,2.4-2.2,3.1
			c-1.1,0.7-2.4,1-3.8,1c-3.9,0-6.9-2.2-6.9-6.3c0-4,2.7-6.3,6.6-6.3c4.1,0,6.5,2.5,6.5,6.6V1308.1z M784,1305.6
			c-0.2-1.1-1.2-1.9-2.4-1.9c-1.2,0-2.2,0.6-2.5,1.9H784z"/>
		<path id="XMLID_805_" class="st3" d="M801.8,1302.8L801.8,1302.8c0.8-1.2,2.2-1.7,3.6-1.7c3.5,0,6,3,6,6.4c0,3.4-2.4,6.3-5.9,6.3
			c-1.4,0-2.8-0.5-3.7-1.5v7h-4.2v-17.8h4.2V1302.8z M801.6,1307.4c0,1.5,1,2.7,2.7,2.7c1.7,0,2.7-1.2,2.7-2.7c0-1.5-1-2.7-2.7-2.7
			C802.6,1304.7,801.6,1305.9,801.6,1307.4z"/>
		<path id="XMLID_802_" class="st3" d="M826.4,1313.3h-4.2v-1.3h0c-0.7,1.2-2.2,1.7-3.6,1.7c-3.5,0-6-2.9-6-6.3
			c0-3.4,2.4-6.3,5.9-6.3c1.4,0,2.8,0.5,3.7,1.5v-1.2h4.2V1313.3z M817,1307.4c0,1.5,1,2.7,2.7,2.7c1.7,0,2.7-1.2,2.7-2.7
			c0-1.5-1-2.7-2.7-2.7C817.9,1304.7,817,1305.9,817,1307.4z"/>
		<path id="XMLID_799_" class="st3" d="M842.2,1312.1c0,5-2.5,7.1-6.9,7.1c-2.7,0-6.4-1.4-6.7-4.5h4.7c0.1,0.4,0.4,0.7,0.8,0.9
			c0.4,0.2,0.8,0.3,1.2,0.3c2.3,0,2.7-1.5,2.7-3.4v-0.6c-1.1,1.1-2.2,1.6-3.8,1.6c-3.5,0-5.8-2.6-5.8-6.1c0-3.5,2.4-6.4,6.1-6.4
			c1.4,0,2.7,0.5,3.5,1.6h0v-1.2h4.2V1312.1z M832.8,1307.3c0,1.5,1,2.7,2.7,2.7c1.7,0,2.7-1.2,2.7-2.7c0-1.5-1-2.7-2.7-2.7
			C833.8,1304.6,832.8,1305.8,832.8,1307.3z"/>
		<path id="XMLID_796_" class="st3" d="M858.3,1307.4c0,4-3.3,6.3-7.1,6.3c-3.8,0-7.1-2.3-7.1-6.3s3.3-6.3,7.1-6.3
			S858.3,1303.3,858.3,1307.4z M848.4,1307.4c0,1.5,1,2.7,2.7,2.7c1.7,0,2.7-1.2,2.7-2.7c0-1.5-1-2.7-2.7-2.7
			C849.4,1304.7,848.4,1305.9,848.4,1307.4z"/>
	</g>
</g>
<rect id="XMLID_7230_" x="550.5" y="1437.5" class="st1" width="349.5" height="158.2"/>
<g id="XMLID_24017_">
	<g>
		<path id="XMLID_968_" class="st3" d="M640.6,1497.3v11.8c0,3.7-1.9,6.1-5.8,6.1c-1.9,0-3.4-1-4.5-2.6l2.6-2.7
			c0.5,0.7,1.2,1.5,1.8,1.5c1.3,0,1.3-1.6,1.3-2.6v-11.5H640.6z"/>
		<path id="XMLID_966_" class="st3" d="M648,1501.1v2.9h5.1v3.8H648v3h5.4v3.8h-9.9v-17.4h9.9v3.8H648z"/>
		<path id="XMLID_964_" class="st3" d="M660.7,1501.1v2.9h5v3.8h-5v6.8h-4.5v-17.4h10v3.8H660.7z"/>
		<path id="XMLID_962_" class="st3" d="M673.2,1501.1v2.9h5.1v3.8h-5.1v3h5.4v3.8h-9.9v-17.4h9.9v3.8H673.2z"/>
		<path id="XMLID_959_" class="st3" d="M689.4,1497.3h6.4c4.9,0,8.9,3.8,8.9,8.7c0,4.9-4,8.7-8.9,8.7h-6.4V1497.3z M693.9,1510.9h1
			c2.7,0,5-1.5,5-4.9c0-3.1-2.1-4.9-5-4.9h-1.1V1510.9z"/>
		<path id="XMLID_957_" class="st3" d="M711.3,1501.1v2.9h5.1v3.8h-5.1v3h5.4v3.8h-9.9v-17.4h9.9v3.8H711.3z"/>
		<path id="XMLID_955_" class="st3" d="M731.9,1514.7h-4.5v-17.4h4.5V1514.7z"/>
		<path id="XMLID_953_" class="st3" d="M742.2,1507.9l4.2-10.6h4.9l-7.4,17.4h-3.5l-7.3-17.4h4.9L742.2,1507.9z"/>
		<path id="XMLID_951_" class="st3" d="M757,1514.7h-4.5v-17.4h4.5V1514.7z"/>
		<path id="XMLID_949_" class="st3" d="M769.5,1501.8c-0.8-0.7-1.9-1.2-3-1.2c-0.8,0-1.9,0.5-1.9,1.5c0,1,1.2,1.4,2,1.7l1.2,0.3
			c2.4,0.7,4.3,1.9,4.3,4.8c0,1.7-0.4,3.5-1.8,4.7c-1.4,1.2-3.2,1.6-4.9,1.6c-2.2,0-4.3-0.7-6.1-2l1.9-3.7c1.1,1,2.5,1.8,4,1.8
			c1.1,0,2.2-0.5,2.2-1.8c0-1.3-1.8-1.7-2.8-2c-2.8-0.8-4.7-1.5-4.7-4.9c0-3.5,2.5-5.8,6-5.8c1.8,0,3.9,0.6,5.5,1.4L769.5,1501.8z"
			/>
		<path id="XMLID_947_" class="st3" d="M778.7,1514.7h-4.5v-17.4h4.5V1514.7z"/>
		<path id="XMLID_942_" class="st3" d="M800,1505.7c0,5.6-4,9.6-9.6,9.6s-9.6-4-9.6-9.6c0-5.3,4.6-9,9.6-9
			C795.4,1496.7,800,1500.4,800,1505.7z M785.5,1505.7c0,3,2.2,5.2,4.9,5.2c2.7,0,4.9-2.2,4.9-5.2c0-2.4-2.2-4.6-4.9-4.6
			C787.7,1501.1,785.5,1503.3,785.5,1505.7z M789.9,1496.2l-1.9-1.4l3.3-4l2.6,1.8L789.9,1496.2z"/>
		<path id="XMLID_939_" class="st3" d="M802.1,1497.3h4.5l8.3,10.7h0v-10.7h4.5v17.4H815l-8.3-10.7h0v10.7h-4.5V1497.3z"/>
		<path id="XMLID_936_" class="st3" d="M582.4,1539.4l-1.2,3h-4.8l6.7-17.4h4.9l6.6,17.4h-4.8l-1.1-3H582.4z M585.6,1530.4
			L585.6,1530.4l-1.9,5.5h3.8L585.6,1530.4z"/>
		<path id="XMLID_933_" class="st3" d="M600,1531.9L600,1531.9c0.8-1.2,2.2-1.7,3.6-1.7c3.5,0,6,3,6,6.4c0,3.4-2.4,6.3-5.9,6.3
			c-1.4,0-2.8-0.5-3.7-1.5v7h-4.2v-17.8h4.2V1531.9z M599.9,1536.5c0,1.5,1,2.7,2.7,2.7c1.7,0,2.7-1.2,2.7-2.7c0-1.5-1-2.7-2.7-2.7
			C600.9,1533.8,599.9,1535.1,599.9,1536.5z"/>
		<path id="XMLID_931_" class="st3" d="M615.9,1532.5L615.9,1532.5c0.9-1.5,2.2-2.1,3.9-2.1h0.8v4c-0.6-0.3-1.1-0.4-1.8-0.4
			c-2.3,0-2.9,1.5-2.9,3.6v4.8h-4.2v-11.9h4.2V1532.5z"/>
		<path id="XMLID_928_" class="st3" d="M635.2,1536.5c0,4-3.3,6.3-7.1,6.3c-3.8,0-7.1-2.3-7.1-6.3s3.3-6.3,7.1-6.3
			C631.8,1530.2,635.2,1532.5,635.2,1536.5z M625.3,1536.5c0,1.5,1,2.7,2.7,2.7c1.7,0,2.7-1.2,2.7-2.7c0-1.5-1-2.7-2.7-2.7
			C626.3,1533.8,625.3,1535.1,625.3,1536.5z"/>
		<path id="XMLID_925_" class="st3" d="M636.9,1523.3h4.2v8.5c0.9-1,2.3-1.5,3.7-1.5c3.5,0,5.9,2.9,5.9,6.3c0,3.4-2.5,6.3-6,6.3
			c-1.4,0-2.8-0.5-3.6-1.7h0v1.3h-4.2V1523.3z M641,1536.5c0,1.5,1,2.7,2.7,2.7c1.7,0,2.7-1.2,2.7-2.7c0-1.5-1-2.7-2.7-2.7
			C642,1533.8,641,1535.1,641,1536.5z"/>
		<path id="XMLID_922_" class="st3" d="M665.8,1542.4h-4.2v-1.3h0c-0.7,1.2-2.2,1.7-3.6,1.7c-3.5,0-6-2.9-6-6.3
			c0-3.4,2.4-6.3,5.9-6.3c1.4,0,2.8,0.5,3.7,1.5v-1.2h4.2V1542.4z M656.3,1536.5c0,1.5,1,2.7,2.7,2.7s2.7-1.2,2.7-2.7
			c0-1.5-1-2.7-2.7-2.7S656.3,1535.1,656.3,1536.5z"/>
		<path id="XMLID_920_" class="st3" d="M677.1,1534.4c-0.6-0.5-1.4-0.8-2.2-0.8c-1.6,0-2.9,1.2-2.9,2.9c0,1.7,1.2,2.9,3,2.9
			c0.7,0,1.5-0.3,2.1-0.8v3.6c-0.9,0.5-1.9,0.7-3,0.7c-3.5,0-6.4-2.6-6.4-6.2c0-3.8,2.9-6.4,6.6-6.4c1,0,1.9,0.2,2.8,0.7V1534.4z"/>
		<path id="XMLID_917_" class="st3" d="M684.2,1526c0,1.3-1.1,2.4-2.4,2.4c-1.3,0-2.4-1.1-2.4-2.4c0-1.3,1.1-2.4,2.4-2.4
			C683.1,1523.7,684.2,1524.7,684.2,1526z M683.9,1542.4h-4.2v-11.9h4.2V1542.4z"/>
		<path id="XMLID_913_" class="st3" d="M700.1,1536.5c0,4-3.3,6.3-7.1,6.3c-3.8,0-7.1-2.3-7.1-6.3s3.3-6.3,7.1-6.3
			C696.8,1530.2,700.1,1532.5,700.1,1536.5z M690.3,1536.5c0,1.5,1,2.7,2.7,2.7c1.7,0,2.7-1.2,2.7-2.7c0-1.5-1-2.7-2.7-2.7
			C691.3,1533.8,690.3,1535.1,690.3,1536.5z M692.5,1528.8l-1.9-1.4l3.3-4l2.6,1.8L692.5,1528.8z"/>
		<path id="XMLID_911_" class="st3" d="M706.2,1532.1L706.2,1532.1c1-1.4,2.2-1.9,3.8-1.9c3.2,0,4.5,2,4.5,4.9v7.3h-4.2v-5.8
			c0-1.1,0.2-3.1-1.9-3.1c-1.7,0-2.2,1.3-2.2,2.8v6.1H702v-11.9h4.2V1532.1z"/>
		<path id="XMLID_909_" class="st3" d="M733,1533.6c-0.6-0.3-1.5-0.6-2.3-0.6c-0.5,0-1.3,0.2-1.3,0.8c0,0.8,1.3,0.9,1.9,1
			c2,0.4,3.4,1.3,3.4,3.5c0,3.1-2.8,4.4-5.6,4.4c-1.7,0-3.4-0.5-4.8-1.4l1.5-2.9c0.9,0.6,2.3,1.2,3.3,1.2c0.5,0,1.3-0.3,1.3-0.9
			c0-0.9-1.3-1-2.6-1.3c-1.3-0.3-2.6-1-2.6-3.1c0-2.9,2.6-4.2,5.2-4.2c1.3,0,2.7,0.2,3.9,0.8L733,1533.6z"/>
		<path id="XMLID_906_" class="st3" d="M749.2,1537.2h-8.9c0,1.7,0.9,2.6,2.6,2.6c0.9,0,1.5-0.3,2-1.1h4c-0.3,1.4-1.2,2.4-2.2,3.1
			c-1.1,0.7-2.4,1-3.8,1c-3.9,0-6.9-2.2-6.9-6.3c0-4,2.7-6.3,6.6-6.3c4.1,0,6.5,2.5,6.5,6.6V1537.2z M745.3,1534.8
			c-0.2-1.1-1.2-1.9-2.4-1.9c-1.2,0-2.2,0.6-2.5,1.9H745.3z"/>
		<path id="XMLID_904_" class="st3" d="M755.4,1542.4h-4.2v-19.2h4.2V1542.4z"/>
		<path id="XMLID_902_" class="st3" d="M762.3,1542.4h-4.2v-19.2h4.2V1542.4z"/>
		<path id="XMLID_899_" class="st3" d="M778.1,1542.4h-4.2v-1.3h0c-0.7,1.2-2.2,1.7-3.6,1.7c-3.5,0-6-2.9-6-6.3
			c0-3.4,2.4-6.3,5.9-6.3c1.4,0,2.8,0.5,3.7,1.5v-1.2h4.2V1542.4z M768.6,1536.5c0,1.5,1,2.7,2.7,2.7c1.7,0,2.7-1.2,2.7-2.7
			c0-1.5-1-2.7-2.7-2.7C769.6,1533.8,768.6,1535.1,768.6,1536.5z"/>
		<path id="XMLID_896_" class="st3" d="M787.1,1530.6h4.9l3.2,6.1l3.1-6.1h4.8l-9.5,17.8h-4.7l4-7.5L787.1,1530.6z"/>
		<path id="XMLID_892_" class="st3" d="M816.3,1542.4h-4.2v-8.4h-1.5v-3.5h1.5v-1.5c0-1.6,0-2.8,1.2-4.2c1-1.2,2.5-1.9,4.1-1.9
			c0.6,0,1.2,0.1,1.8,0.4v3.6c-0.5-0.2-0.9-0.4-1.5-0.4c-1.1,0-1.5,0.6-1.5,2v1.9h2.9v3.5h-2.9V1542.4z M825,1526
			c0,1.3-1.1,2.4-2.4,2.4c-1.3,0-2.4-1.1-2.4-2.4c0-1.3,1.1-2.4,2.4-2.4C823.9,1523.7,825,1524.7,825,1526z M824.8,1542.4h-4.2
			v-11.9h4.2V1542.4z"/>
		<path id="XMLID_890_" class="st3" d="M831.7,1532.5L831.7,1532.5c0.9-1.5,2.2-2.1,3.9-2.1h0.8v4c-0.6-0.3-1.1-0.4-1.8-0.4
			c-2.3,0-2.9,1.5-2.9,3.6v4.8h-4.2v-11.9h4.2V1532.5z"/>
		<path id="XMLID_888_" class="st3" d="M842.2,1532.1L842.2,1532.1c1-1.3,2.3-1.9,3.8-1.9c1.7,0,3.2,0.7,4,2.3
			c0.8-1.5,2.4-2.3,4-2.3c3,0,4,2,4,4.7v7.6h-4.2v-5.7c0-1.2,0-3.2-1.7-3.2c-1.9,0-2,1.8-2,3.2v5.7h-4.2v-5.7c0-1.3,0-3.3-1.9-3.3
			c-1.9,0-1.9,2-1.9,3.3v5.7H838v-11.9h4.2V1532.1z"/>
		<path id="XMLID_885_" class="st3" d="M873.8,1542.4h-4.2v-1.3h0c-0.7,1.2-2.2,1.7-3.6,1.7c-3.5,0-6-2.9-6-6.3
			c0-3.4,2.4-6.3,5.9-6.3c1.4,0,2.8,0.5,3.7,1.5v-1.2h4.2V1542.4z M864.3,1536.5c0,1.5,1,2.7,2.7,2.7c1.7,0,2.7-1.2,2.7-2.7
			c0-1.5-1-2.7-2.7-2.7C865.3,1533.8,864.3,1535.1,864.3,1536.5z"/>
	</g>
</g>
<rect id="XMLID_7228_" x="550.5" y="1642.7" class="st1" width="349.5" height="158.2"/>
<g id="XMLID_23926_">
	<g>
		<path id="XMLID_1333_" class="st3" d="M660.8,1699c-0.8-0.7-1.9-1.2-3-1.2c-0.8,0-1.9,0.5-1.9,1.5c0,1,1.2,1.4,2,1.7l1.2,0.3
			c2.4,0.7,4.3,1.9,4.3,4.8c0,1.7-0.4,3.5-1.8,4.7c-1.4,1.2-3.2,1.6-4.9,1.6c-2.2,0-4.3-0.7-6.1-2l1.9-3.7c1.1,1,2.5,1.8,4,1.8
			c1.1,0,2.2-0.5,2.2-1.8c0-1.3-1.8-1.7-2.8-2c-2.8-0.8-4.7-1.5-4.7-4.9c0-3.5,2.5-5.8,6-5.8c1.8,0,3.9,0.6,5.5,1.4L660.8,1699z"/>
		<path id="XMLID_1331_" class="st3" d="M680.6,1694.5v9.8c0,2.2-0.1,4.5-1.8,6.1c-1.5,1.4-3.7,1.9-5.8,1.9c-2,0-4.3-0.5-5.8-1.9
			c-1.7-1.7-1.8-3.9-1.8-6.1v-9.8h4.5v9.2c0,2.3,0.2,4.7,3.1,4.7s3.1-2.5,3.1-4.7v-9.2H680.6z"/>
		<path id="XMLID_1327_" class="st3" d="M683.5,1711.9v-17.4h6.5c3.1,0,5.2,1.2,5.2,4.5c0,1.6-0.5,2.8-1.9,3.6v0
			c2.5,0.3,3.6,2,3.6,4.4c0,3.7-3.1,4.9-6.3,4.9H683.5z M688,1701.4h0.5c1.2,0,2.5-0.2,2.5-1.7c0-1.6-1.4-1.7-2.6-1.7H688V1701.4z
			 M688,1708.5h0.6c1.3,0,3.6,0.1,3.6-1.8c0-2.1-2.2-1.9-3.7-1.9H688V1708.5z"/>
		<path id="XMLID_1324_" class="st3" d="M703.6,1708.9l-1.2,3h-4.8l6.7-17.4h4.9l6.6,17.4h-4.8l-1.1-3H703.6z M706.7,1699.9
			L706.7,1699.9l-1.9,5.5h3.8L706.7,1699.9z"/>
		<path id="XMLID_1322_" class="st3" d="M721.7,1708.1h5.4v3.8h-10v-17.4h4.5V1708.1z"/>
		<path id="XMLID_1320_" class="st3" d="M741.1,1700.4c-0.9-1.2-2.4-1.9-4-1.9c-2.8,0-4.6,2.1-4.6,4.8c0,2.8,1.9,4.7,4.7,4.7
			c1.5,0,3-0.7,3.9-1.8v5.4c-1.5,0.5-2.6,0.8-4,0.8c-2.4,0-4.7-0.9-6.5-2.6c-1.9-1.7-2.8-4-2.8-6.6c0-2.4,0.9-4.7,2.6-6.4
			c1.7-1.8,4.2-2.8,6.6-2.8c1.5,0,2.8,0.3,4.1,0.9V1700.4z"/>
		<path id="XMLID_1317_" class="st3" d="M748.3,1708.9l-1.2,3h-4.8l6.7-17.4h4.9l6.6,17.4h-4.8l-1.1-3H748.3z M751.5,1699.9
			L751.5,1699.9l-1.9,5.5h3.8L751.5,1699.9z"/>
		<path id="XMLID_1315_" class="st3" d="M766.4,1708.1h5.4v3.8h-10v-17.4h4.5V1708.1z"/>
		<path id="XMLID_1312_" class="st3" d="M773.3,1694.5h6.4c4.9,0,8.9,3.8,8.9,8.7s-4,8.7-8.9,8.7h-6.4V1694.5z M777.9,1708.1h1
			c2.7,0,5-1.5,5-4.9c0-3.1-2.1-4.9-5-4.9h-1.1V1708.1z"/>
		<path id="XMLID_1310_" class="st3" d="M795.2,1698.4v2.9h5.1v3.8h-5.1v3h5.4v3.8h-9.9v-17.4h9.9v3.8H795.2z"/>
		<path id="XMLID_1307_" class="st3" d="M619.1,1736.6l-1.2,3H613l6.7-17.4h4.9l6.6,17.4h-4.8l-1.1-3H619.1z M622.2,1727.6
			L622.2,1727.6l-1.9,5.5h3.8L622.2,1727.6z"/>
		<path id="XMLID_1304_" class="st3" d="M636.6,1729.2L636.6,1729.2c0.8-1.2,2.2-1.7,3.6-1.7c3.5,0,6,3,6,6.4c0,3.4-2.4,6.3-5.9,6.3
			c-1.4,0-2.8-0.5-3.7-1.5v7h-4.2v-17.8h4.2V1729.2z M636.5,1733.8c0,1.5,1,2.7,2.7,2.7c1.7,0,2.7-1.2,2.7-2.7c0-1.5-1-2.7-2.7-2.7
			C637.5,1731.1,636.5,1732.3,636.5,1733.8z"/>
		<path id="XMLID_1302_" class="st3" d="M652.5,1729.8L652.5,1729.8c0.9-1.5,2.2-2.1,3.9-2.1h0.8v4c-0.6-0.3-1.1-0.4-1.8-0.4
			c-2.3,0-2.9,1.5-2.9,3.6v4.8h-4.2v-11.9h4.2V1729.8z"/>
		<path id="XMLID_1300_" class="st3" d="M662.9,1727.8v6.3c0,1.5,0.4,2.6,2.1,2.6c1.7,0,2.1-1.1,2.1-2.6v-6.3h4.2v7.1
			c0,3.9-2.7,5.1-6.3,5.1c-3.6,0-6.3-1.2-6.3-5.1v-7.1H662.9z"/>
		<path id="XMLID_1297_" class="st3" d="M686.2,1734.5h-8.9c0,1.7,0.9,2.6,2.6,2.6c0.9,0,1.5-0.3,2-1.1h4c-0.3,1.4-1.2,2.4-2.2,3.1
			c-1.1,0.7-2.4,1-3.8,1c-3.9,0-6.9-2.2-6.9-6.3c0-4,2.7-6.3,6.6-6.3c4.1,0,6.5,2.5,6.5,6.6V1734.5z M682.3,1732
			c-0.2-1.1-1.2-1.9-2.4-1.9c-1.2,0-2.2,0.6-2.5,1.9H682.3z"/>
		<path id="XMLID_1294_" class="st3" d="M688,1720.5h4.2v8.5c0.9-1,2.3-1.5,3.7-1.5c3.5,0,5.9,2.9,5.9,6.3c0,3.4-2.4,6.3-6,6.3
			c-1.4,0-2.8-0.5-3.6-1.7h0v1.3H688V1720.5z M692,1733.8c0,1.5,1,2.7,2.7,2.7s2.7-1.2,2.7-2.7c0-1.5-1-2.7-2.7-2.7
			S692,1732.3,692,1733.8z"/>
		<path id="XMLID_1163_" class="st3" d="M716.8,1739.7h-4.2v-1.3h0c-0.7,1.2-2.2,1.7-3.6,1.7c-3.5,0-6-2.9-6-6.3s2.4-6.3,5.9-6.3
			c1.4,0,2.8,0.5,3.7,1.5v-1.2h4.2V1739.7z M707.4,1733.8c0,1.5,1,2.7,2.7,2.7c1.7,0,2.7-1.2,2.7-2.7c0-1.5-1-2.7-2.7-2.7
			C708.4,1731.1,707.4,1732.3,707.4,1733.8z"/>
		<path id="XMLID_1160_" class="st3" d="M739.7,1734.5h-8.9c0,1.7,0.9,2.6,2.6,2.6c0.9,0,1.5-0.3,2-1.1h4c-0.3,1.4-1.2,2.4-2.2,3.1
			c-1.1,0.7-2.4,1-3.8,1c-3.9,0-6.9-2.2-6.9-6.3c0-4,2.7-6.3,6.6-6.3c4.1,0,6.5,2.5,6.5,6.6V1734.5z M735.8,1732
			c-0.2-1.1-1.2-1.9-2.4-1.9c-1.2,0-2.2,0.6-2.5,1.9H735.8z"/>
		<path id="XMLID_1158_" class="st3" d="M745.9,1739.7h-4.2v-19.2h4.2V1739.7z"/>
		<path id="XMLID_1155_" class="st3" d="M769.5,1739.7h-4.2v-1.3h0c-0.7,1.2-2.2,1.7-3.6,1.7c-3.5,0-6-2.9-6-6.3s2.4-6.3,5.9-6.3
			c1.4,0,2.8,0.5,3.7,1.5v-1.2h4.2V1739.7z M760.1,1733.8c0,1.5,1,2.7,2.7,2.7c1.7,0,2.7-1.2,2.7-2.7c0-1.5-1-2.7-2.7-2.7
			C761,1731.1,760.1,1732.3,760.1,1733.8z"/>
		<path id="XMLID_1153_" class="st3" d="M778.1,1733.9l2.8-6.1h4.7l-6.2,11.9h-2.7l-6.2-11.9h4.7L778.1,1733.9z"/>
		<path id="XMLID_1150_" class="st3" d="M799.7,1739.7h-4.2v-1.3h0c-0.7,1.2-2.2,1.7-3.6,1.7c-3.5,0-6-2.9-6-6.3s2.4-6.3,5.9-6.3
			c1.4,0,2.8,0.5,3.7,1.5v-1.2h4.2V1739.7z M790.2,1733.8c0,1.5,1,2.7,2.7,2.7s2.7-1.2,2.7-2.7c0-1.5-1-2.7-2.7-2.7
			S790.2,1732.3,790.2,1733.8z"/>
		<path id="XMLID_1148_" class="st3" d="M806.7,1739.7h-4.2v-19.2h4.2V1739.7z"/>
		<path id="XMLID_1146_" class="st3" d="M813.6,1727.8v6.3c0,1.5,0.4,2.6,2.1,2.6s2.1-1.1,2.1-2.6v-6.3h4.2v7.1
			c0,3.9-2.8,5.1-6.3,5.1s-6.3-1.2-6.3-5.1v-7.1H813.6z"/>
		<path id="XMLID_1142_" class="st3" d="M838.1,1733.8c0,4-3.3,6.3-7.1,6.3c-3.8,0-7.1-2.3-7.1-6.3s3.3-6.3,7.1-6.3
			C834.8,1727.4,838.1,1729.7,838.1,1733.8z M828.2,1733.8c0,1.5,1,2.7,2.7,2.7c1.7,0,2.7-1.2,2.7-2.7c0-1.5-1-2.7-2.7-2.7
			C829.2,1731.1,828.2,1732.3,828.2,1733.8z M830.5,1726.1l-1.9-1.4l3.3-4l2.6,1.8L830.5,1726.1z"/>
		<path id="XMLID_1140_" class="st3" d="M663.3,1758.6c-0.6-0.3-1.5-0.6-2.3-0.6c-0.5,0-1.3,0.2-1.3,0.8c0,0.8,1.3,0.9,1.9,1
			c2,0.4,3.4,1.3,3.4,3.5c0,3.1-2.8,4.4-5.6,4.4c-1.7,0-3.4-0.5-4.8-1.4l1.5-2.9c0.9,0.6,2.3,1.2,3.3,1.2c0.5,0,1.3-0.3,1.3-0.9
			c0-0.9-1.3-1-2.6-1.3c-1.3-0.3-2.6-1-2.6-3.1c0-2.9,2.6-4.2,5.2-4.2c1.3,0,2.7,0.2,3.9,0.8L663.3,1758.6z"/>
		<path id="XMLID_1137_" class="st3" d="M679.5,1762.2h-8.9c0,1.7,0.9,2.6,2.6,2.6c0.9,0,1.5-0.3,2-1.1h4c-0.3,1.4-1.2,2.4-2.2,3.1
			c-1.1,0.7-2.4,1-3.8,1c-3.9,0-6.9-2.2-6.9-6.3c0-4,2.7-6.3,6.6-6.3c4.1,0,6.5,2.5,6.5,6.6V1762.2z M675.6,1759.8
			c-0.2-1.1-1.2-1.9-2.4-1.9c-1.2,0-2.2,0.6-2.5,1.9H675.6z"/>
		<path id="XMLID_1135_" class="st3" d="M685.7,1767.4h-4.2v-19.2h4.2V1767.4z"/>
		<path id="XMLID_1133_" class="st3" d="M692.6,1767.4h-4.2v-19.2h4.2V1767.4z"/>
		<path id="XMLID_1130_" class="st3" d="M708.4,1767.4h-4.2v-1.3h0c-0.7,1.2-2.2,1.7-3.6,1.7c-3.5,0-6-2.9-6-6.3s2.4-6.3,5.9-6.3
			c1.4,0,2.8,0.5,3.7,1.5v-1.2h4.2V1767.4z M698.9,1761.5c0,1.5,1,2.7,2.7,2.7c1.7,0,2.7-1.2,2.7-2.7c0-1.5-1-2.7-2.7-2.7
			C699.9,1758.8,698.9,1760,698.9,1761.5z"/>
		<path id="XMLID_1128_" class="st3" d="M717.4,1755.6h4.9l3.2,6.1l3.1-6.1h4.8l-9.5,17.8h-4.7l4-7.5L717.4,1755.6z"/>
		<path id="XMLID_1034_" class="st3" d="M746.6,1767.4h-4.2v-8.4h-1.5v-3.5h1.5v-1.5c0-1.6,0-2.8,1.2-4.2c1-1.2,2.5-1.9,4.1-1.9
			c0.6,0,1.2,0.1,1.8,0.4v3.6c-0.5-0.2-0.9-0.4-1.5-0.4c-1.1,0-1.5,0.6-1.5,2v1.9h2.9v3.5h-2.9V1767.4z M755.3,1751
			c0,1.3-1.1,2.4-2.4,2.4c-1.3,0-2.4-1.1-2.4-2.4c0-1.3,1.1-2.4,2.4-2.4C754.3,1748.6,755.3,1749.7,755.3,1751z M755.1,1767.4h-4.2
			v-11.9h4.2V1767.4z"/>
		<path id="XMLID_1032_" class="st3" d="M762,1757.5L762,1757.5c0.9-1.5,2.2-2.1,3.9-2.1h0.8v4c-0.6-0.3-1.1-0.4-1.8-0.4
			c-2.3,0-2.9,1.5-2.9,3.6v4.8h-4.2v-11.9h4.2V1757.5z"/>
		<path id="XMLID_1030_" class="st3" d="M772.5,1757L772.5,1757c1-1.3,2.3-1.9,3.8-1.9c1.7,0,3.2,0.7,4,2.3c0.8-1.5,2.4-2.3,4-2.3
			c3,0,4,2,4,4.7v7.6h-4.2v-5.7c0-1.2,0-3.2-1.7-3.2c-1.9,0-2,1.8-2,3.2v5.7h-4.2v-5.7c0-1.3,0-3.3-1.9-3.3c-1.9,0-1.9,2-1.9,3.3
			v5.7h-4.2v-11.9h4.2V1757z"/>
		<path id="XMLID_1027_" class="st3" d="M804.1,1767.4h-4.2v-1.3h0c-0.7,1.2-2.2,1.7-3.6,1.7c-3.5,0-6-2.9-6-6.3s2.4-6.3,5.9-6.3
			c1.4,0,2.8,0.5,3.7,1.5v-1.2h4.2V1767.4z M794.6,1761.5c0,1.5,1,2.7,2.7,2.7c1.7,0,2.7-1.2,2.7-2.7c0-1.5-1-2.7-2.7-2.7
			C795.6,1758.8,794.6,1760,794.6,1761.5z"/>
	</g>
</g>
<polygon id="XMLID_7225_" class="st4" points="555.6,80.3 540.9,88.8 526.2,97.3 526.2,80.3 526.2,63.3 540.9,71.8 "/>
<polygon id="XMLID_7224_" class="st4" points="722.7,213.5 714.2,198.8 705.7,184.1 722.7,184.1 739.7,184.1 731.2,198.8 "/>
<polygon id="XMLID_7217_" class="st4" points="722.7,417.6 714.2,402.9 705.7,388.2 722.7,388.2 739.7,388.2 731.2,402.9 "/>
<polygon id="XMLID_7216_" class="st4" points="722.7,621.8 714.2,607 705.7,592.3 722.7,592.3 739.7,592.3 731.2,607 "/>
<polygon id="XMLID_7215_" class="st4" points="722.7,825.9 714.2,811.1 705.7,796.4 722.7,796.4 739.7,796.4 731.2,811.1 "/>
<polygon id="XMLID_7213_" class="st4" points="722.7,1030 714.2,1015.3 705.7,1000.5 722.7,1000.5 739.7,1000.5 731.2,1015.3 "/>
<polygon id="XMLID_7211_" class="st4" points="722.7,1234.1 714.2,1219.4 705.7,1204.7 722.7,1204.7 739.7,1204.7 731.2,1219.4 "/>
<polygon id="XMLID_1108_" class="st4" points="722.7,1438.2 714.2,1423.5 705.7,1408.8 722.7,1408.8 739.7,1408.8 731.2,1423.5 "/>
<polygon id="XMLID_1106_" class="st4" points="722.7,1642.4 714.2,1627.6 705.7,1612.9 722.7,1612.9 739.7,1612.9 731.2,1627.6 "/>
<polygon id="XMLID_1104_" class="st4" points="273.8,955.3 265.2,940.5 256.7,925.8 273.8,925.8 290.8,925.8 282.3,940.5 "/>
<polygon id="XMLID_1102_" class="st4" points="273.8,1117.2 282.3,1131.9 290.8,1146.6 273.8,1146.6 256.7,1146.6 265.2,1131.9 "/>
<line id="XMLID_1100_" class="st0" x1="273.8" y1="792.6" x2="273.8" y2="951.1"/>
<polyline id="XMLID_1099_" class="st0" points="273.8,1131.9 273.8,1721.8 550.5,1721.8 "/>
<polyline id="XMLID_1098_" class="st0" points="448.5,1036.5 498.9,1036.5 498.9,79.5 550.5,79.5 "/>
</svg>
