<?xml version="1.0" encoding="utf-8"?>
<!-- Generator: Adobe Illustrator 21.0.2, SVG Export Plug-In . SVG Version: 6.00 Build 0)  -->
<svg version="1.1" id="Layer_1" xmlns="http://www.w3.org/2000/svg" xmlns:xlink="http://www.w3.org/1999/xlink" x="0px" y="0px"
	 viewBox="0 0 998.6 1148.4" style="enable-background:new 0 0 998.6 1148.4;" xml:space="preserve">
<style type="text/css">
	.st0{fill:none;stroke:#E42527;stroke-width:4;stroke-miterlimit:10;}
	.st1{fill:#95D4E7;}
	.st2{fill:#9D9D9C;}
	.st3{fill:#D81117;}
	.st4{fill:#FFFFFF;}
	.st5{fill:#575756;}
	.st6{fill:#E42527;}
</style>
<polyline class="st0" points="793.7,560.3 825.8,560.3 825.8,504 359.7,504 359.7,528.2 "/>
<polyline class="st0" points="359.2,274.4 516.7,274.4 516.7,449 473.1,449 "/>
<polyline class="st0" points="246,336.5 196.3,336.5 196.3,560.3 268.7,560.3 "/>
<line class="st0" x1="355.6" y1="560.3" x2="677.7" y2="560.3"/>
<line id="XMLID_1613_" class="st0" x1="360.5" y1="211.7" x2="360.5" y2="461.2"/>
<line id="XMLID_1305_" class="st0" x1="359.1" y1="584.6" x2="359.1" y2="1096.1"/>
<rect id="XMLID_1348_" x="226.7" y="1082.8" class="st1" width="264.7" height="63.4"/>
<rect id="XMLID_1347_" x="226.7" y="302.3" class="st2" width="264.8" height="71"/>
<rect id="XMLID_1346_" x="236.7" y="637.9" class="st3" width="250.2" height="67.2"/>
<g>
	<g>
		<path class="st4" d="M310.2,660c-0.7-0.9-1.7-1.4-2.8-1.4c-2,0-3.3,1.5-3.3,3.5s1.4,3.4,3.4,3.4c1.1,0,2.1-0.5,2.8-1.3v3.9
			c-1.1,0.3-1.9,0.6-2.9,0.6c-1.7,0-3.4-0.7-4.7-1.8c-1.4-1.2-2-2.9-2-4.7c0-1.7,0.6-3.3,1.8-4.6c1.2-1.3,3-2,4.8-2c1,0,2,0.2,3,0.6
			L310.2,660L310.2,660z"/>
		<path class="st4" d="M315.5,658.5v2.1h3.7v2.7h-3.7v2.2h3.9v2.7h-7.1v-12.5h7.1v2.7L315.5,658.5L315.5,658.5z"/>
		<path class="st4" d="M331.7,668.2h-4l-3.1-4.8l0,0v4.8h-3.2v-12.5h4.8c2.5,0,4.3,1.2,4.3,3.8c0,1.7-1,3.2-2.7,3.5L331.7,668.2z
			 M324.6,661.4h0.3c1.1,0,2.3-0.2,2.3-1.6s-1.2-1.6-2.3-1.6h-0.3V661.4z"/>
		<path class="st4" d="M337.5,668.2h-3.2v-9.7h-2.7v-2.7h8.6v2.7h-2.7L337.5,668.2L337.5,668.2z"/>
		<path class="st4" d="M344.6,668.2h-3.2v-12.5h3.2V668.2z"/>
		<path class="st4" d="M350,658.5v2.1h3.6v2.7H350v4.9h-3.2v-12.5h7.2v2.7L350,658.5L350,658.5z"/>
		<path class="st4" d="M359,668.2h-3.2v-12.5h3.2V668.2z"/>
		<path class="st4" d="M370,660c-0.7-0.9-1.7-1.4-2.8-1.4c-2,0-3.3,1.5-3.3,3.5s1.4,3.4,3.4,3.4c1.1,0,2.1-0.5,2.8-1.3v3.9
			c-1.1,0.3-1.9,0.6-2.9,0.6c-1.7,0-3.4-0.7-4.7-1.8c-1.4-1.2-2-2.9-2-4.7c0-1.7,0.6-3.3,1.8-4.6c1.2-1.3,3-2,4.8-2c1,0,2,0.2,3,0.6
			L370,660L370,660z"/>
		<path class="st4" d="M375.2,666.1l-0.9,2.2h-3.4l4.8-12.5h3.5l4.7,12.5h-3.5l-0.8-2.2H375.2z M377.5,659.6L377.5,659.6l-1.4,4h2.7
			L377.5,659.6z"/>
		<path class="st4" d="M384.9,655.8h4.6c3.5,0,6.3,2.7,6.3,6.2s-2.9,6.2-6.3,6.2h-4.6V655.8z M388.2,665.5h0.7
			c1.9,0,3.6-1.1,3.6-3.5c0-2.2-1.5-3.5-3.6-3.5h-0.8L388.2,665.5L388.2,665.5z"/>
		<path class="st4" d="M410.5,661.8c0,4-2.9,6.9-6.9,6.9s-6.9-2.8-6.9-6.9c0-3.8,3.3-6.4,6.9-6.4C407.2,655.4,410.5,658,410.5,661.8
			z M400.1,661.8c0,2.2,1.6,3.7,3.5,3.7s3.5-1.6,3.5-3.7c0-1.7-1.6-3.3-3.5-3.3S400.1,660.1,400.1,661.8z"/>
		<path class="st4" d="M279.7,675.6h4.6c3.5,0,6.3,2.7,6.3,6.2s-2.9,6.2-6.3,6.2h-4.6V675.6z M282.9,685.4h0.7
			c1.9,0,3.6-1.1,3.6-3.5c0-2.2-1.5-3.5-3.6-3.5h-0.8L282.9,685.4L282.9,685.4z"/>
		<path class="st4" d="M295.3,685.9l-0.9,2.2H291l4.8-12.5h3.5l4.7,12.5h-3.5l-0.8-2.2H295.3z M297.6,679.5L297.6,679.5l-1.4,4h2.7
			L297.6,679.5z"/>
		<path class="st4" d="M309,688.1h-3.2v-9.7h-2.7v-2.7h8.6v2.7H309V688.1z"/>
		<path class="st4" d="M326.1,681.6c0,4-2.9,6.9-6.9,6.9s-6.9-2.8-6.9-6.9c0-3.8,3.3-6.4,6.9-6.4
			C322.8,675.2,326.1,677.9,326.1,681.6z M315.6,681.6c0,2.2,1.6,3.7,3.5,3.7s3.5-1.6,3.5-3.7c0-1.7-1.6-3.3-3.5-3.3
			C317.2,678.4,315.6,679.9,315.6,681.6z"/>
		<path class="st4" d="M334.4,678.8c-0.6-0.5-1.4-0.8-2.2-0.8c-0.6,0-1.4,0.3-1.4,1s0.9,1,1.4,1.2l0.8,0.2c1.7,0.5,3.1,1.4,3.1,3.4
			c0,1.2-0.3,2.5-1.3,3.4c-1,0.8-2.3,1.2-3.5,1.2c-1.6,0-3.1-0.5-4.4-1.4l1.4-2.6c0.8,0.7,1.8,1.3,2.9,1.3c0.8,0,1.6-0.4,1.6-1.3
			c0-0.9-1.3-1.2-2-1.4c-2-0.6-3.4-1.1-3.4-3.5c0-2.5,1.8-4.2,4.3-4.2c1.3,0,2.8,0.4,3.9,1L334.4,678.8z"/>
		<path class="st4" d="M348.4,688.1h-3.2v-9.7h-2.7v-2.7h8.6v2.7h-2.7L348.4,688.1L348.4,688.1z"/>
		<path class="st4" d="M355.5,678.4v2.1h3.7v2.7h-3.7v2.2h3.9v2.7h-7.1v-12.5h7.1v2.7L355.5,678.4L355.5,678.4z M355,674.9l-1.3-1
			l2.3-2.8l1.8,1.3L355,674.9z"/>
		<path class="st4" d="M370.3,679.8c-0.7-0.9-1.7-1.4-2.8-1.4c-2,0-3.3,1.5-3.3,3.5s1.4,3.4,3.4,3.4c1.1,0,2.1-0.5,2.8-1.3v3.9
			c-1.1,0.3-1.9,0.6-2.9,0.6c-1.7,0-3.4-0.7-4.7-1.8c-1.4-1.2-2-2.9-2-4.7c0-1.7,0.6-3.3,1.8-4.6c1.2-1.3,3-2,4.8-2c1,0,2,0.2,3,0.6
			L370.3,679.8L370.3,679.8z"/>
		<path class="st4" d="M372.3,675.6h3.2l5.9,7.6l0,0v-7.6h3.2v12.5h-3.2l-5.9-7.6l0,0v7.6h-3.2V675.6z"/>
		<path class="st4" d="M390.1,688.1h-3.2v-12.5h3.2V688.1z"/>
		<path class="st4" d="M401.1,679.8c-0.7-0.9-1.7-1.4-2.8-1.4c-2,0-3.3,1.5-3.3,3.5s1.4,3.4,3.4,3.4c1.1,0,2.1-0.5,2.8-1.3v3.9
			c-1.1,0.3-1.9,0.6-2.9,0.6c-1.7,0-3.4-0.7-4.7-1.8c-1.4-1.2-2-2.9-2-4.7c0-1.7,0.6-3.3,1.8-4.6c1.2-1.3,3-2,4.8-2c1,0,2,0.2,3,0.6
			L401.1,679.8L401.1,679.8z"/>
		<path class="st4" d="M416.3,681.6c0,4-2.9,6.9-6.9,6.9s-6.9-2.8-6.9-6.9c0-3.8,3.3-6.4,6.9-6.4C413,675.2,416.3,677.9,416.3,681.6
			z M405.9,681.6c0,2.2,1.6,3.7,3.5,3.7s3.5-1.6,3.5-3.7c0-1.7-1.6-3.3-3.5-3.3C407.5,678.4,405.9,679.9,405.9,681.6z"/>
		<path class="st4" d="M424.6,678.8c-0.6-0.5-1.4-0.8-2.2-0.8c-0.6,0-1.4,0.3-1.4,1s0.9,1,1.4,1.2l0.8,0.2c1.7,0.5,3.1,1.4,3.1,3.4
			c0,1.2-0.3,2.5-1.3,3.4c-1,0.8-2.3,1.2-3.5,1.2c-1.6,0-3.1-0.5-4.4-1.4l1.4-2.6c0.8,0.7,1.8,1.3,2.9,1.3c0.8,0,1.6-0.4,1.6-1.3
			c0-0.9-1.3-1.2-2-1.4c-2-0.6-3.4-1.1-3.4-3.5c0-2.5,1.8-4.2,4.3-4.2c1.3,0,2.8,0.4,3.9,1L424.6,678.8z"/>
	</g>
</g>
<g>
	<g>
		<path class="st5" d="M291,1113.4c-0.9-0.7-2-1.2-3.2-1.2c-0.9,0-2.1,0.5-2.1,1.6s1.3,1.5,2.2,1.8l1.2,0.4c2.6,0.8,4.6,2.1,4.6,5.1
			c0,1.9-0.4,3.8-1.9,5s-3.4,1.8-5.3,1.8c-2.3,0-4.6-0.8-6.6-2.1l2.1-3.9c1.2,1.1,2.6,1.9,4.3,1.9c1.1,0,2.3-0.6,2.3-1.9
			c0-1.4-1.9-1.8-2.9-2.1c-3-0.9-5-1.7-5-5.3c0-3.8,2.7-6.3,6.4-6.3c1.9,0,4.2,0.6,5.8,1.5L291,1113.4z"/>
		<path class="st5" d="M315.7,1117.6c0,6-4.3,10.3-10.3,10.3s-10.3-4.3-10.3-10.3c0-5.6,4.9-9.6,10.3-9.6
			C310.7,1108,315.7,1111.9,315.7,1117.6z M300.1,1117.6c0,3.2,2.4,5.6,5.3,5.6s5.3-2.3,5.3-5.6c0-2.6-2.4-4.9-5.3-4.9
			S300.1,1115,300.1,1117.6z"/>
		<path class="st5" d="M322.8,1123.1h5.8v4.1h-10.7v-18.6h4.8v14.5H322.8z"/>
		<path class="st5" d="M335,1127.2h-4.8v-18.6h4.8V1127.2z"/>
		<path class="st5" d="M351.5,1114.9c-1-1.3-2.6-2.1-4.3-2.1c-3,0-5,2.3-5,5.2c0,2.9,2,5.1,5,5.1c1.6,0,3.2-0.8,4.2-2v5.8
			c-1.6,0.5-2.8,0.9-4.3,0.9c-2.6,0-5.1-1-7-2.7c-2.1-1.9-3-4.3-3-7c0-2.5,1-5,2.7-6.8c1.8-1.9,4.5-3,7.1-3c1.6,0,3,0.3,4.4,0.9v5.7
			H351.5z"/>
		<path class="st5" d="M359.4,1127.2h-4.8v-18.6h4.8V1127.2z"/>
		<path class="st5" d="M370,1127.2h-4.8v-14.5h-4v-4.1H374v4.1h-4V1127.2z"/>
		<path class="st5" d="M379,1124l-1.3,3.2h-5.1l7.2-18.6h5.3l7,18.6h-5.2l-1.2-3.2H379z M382.4,1114.4L382.4,1114.4l-2.1,5.9h4
			L382.4,1114.4z"/>
		<path class="st5" d="M393.5,1108.6h4.8l8.9,11.4l0,0v-11.4h4.8v18.6h-4.8l-8.9-11.4l0,0v11.4h-4.8V1108.6z"/>
		<path class="st5" d="M422.8,1127.2H418v-14.5h-4v-4.1h12.9v4.1h-4v14.5H422.8z"/>
		<path class="st5" d="M433.4,1112.7v3.1h5.5v4.1h-5.5v3.2h5.8v4.1h-10.6v-18.6h10.6v4.1L433.4,1112.7L433.4,1112.7z"/>
	</g>
</g>
<rect id="XMLID_1299_" x="226.7" y="180" class="st1" width="264.7" height="63.4"/>
<g>
	<g>
		<path class="st5" d="M291,210.6c-0.9-0.7-2-1.2-3.2-1.2c-0.9,0-2.1,0.5-2.1,1.6s1.3,1.5,2.2,1.8l1.2,0.4c2.6,0.8,4.6,2.1,4.6,5.1
			c0,1.9-0.4,3.8-1.9,5s-3.4,1.8-5.3,1.8c-2.3,0-4.6-0.8-6.6-2.1l2.1-3.9c1.2,1.1,2.6,1.9,4.3,1.9c1.1,0,2.3-0.6,2.3-1.9
			c0-1.4-1.9-1.8-2.9-2.1c-3-0.9-5-1.7-5-5.3c0-3.8,2.7-6.3,6.4-6.3c1.9,0,4.2,0.6,5.8,1.5L291,210.6z"/>
		<path class="st5" d="M315.7,214.8c0,6-4.3,10.3-10.3,10.3s-10.3-4.3-10.3-10.3c0-5.6,4.9-9.6,10.3-9.6
			C310.7,205.2,315.7,209.2,315.7,214.8z M300.1,214.8c0,3.2,2.4,5.6,5.3,5.6s5.3-2.3,5.3-5.6c0-2.6-2.4-4.9-5.3-4.9
			C302.5,209.9,300.1,212.3,300.1,214.8z"/>
		<path class="st5" d="M322.8,220.4h5.8v4.1h-10.7v-18.6h4.8v14.5H322.8z"/>
		<path class="st5" d="M335,224.5h-4.8v-18.6h4.8V224.5z"/>
		<path class="st5" d="M351.5,212.1c-1-1.3-2.6-2.1-4.3-2.1c-3,0-5,2.3-5,5.2s2,5.1,5,5.1c1.6,0,3.2-0.8,4.2-2v5.8
			c-1.6,0.5-2.8,0.9-4.3,0.9c-2.6,0-5.1-1-7-2.7c-2.1-1.9-3-4.3-3-7c0-2.5,1-5,2.7-6.8c1.8-1.9,4.5-3,7.1-3c1.6,0,3,0.3,4.4,0.9v5.7
			H351.5z"/>
		<path class="st5" d="M359.4,224.5h-4.8v-18.6h4.8V224.5z"/>
		<path class="st5" d="M370,224.5h-4.8V210h-4v-4.1H374v4.1h-4V224.5z"/>
		<path class="st5" d="M379,221.2l-1.3,3.2h-5.1l7.2-18.6h5.3l7,18.6h-5.2l-1.2-3.2H379z M382.4,211.6L382.4,211.6l-2.1,5.9h4
			L382.4,211.6z"/>
		<path class="st5" d="M393.5,205.8h4.8l8.9,11.4l0,0v-11.4h4.8v18.6h-4.8l-8.9-11.4l0,0v11.4h-4.8V205.8z"/>
		<path class="st5" d="M422.8,224.5H418V210h-4v-4.1h12.9v4.1h-4v14.5H422.8z"/>
		<path class="st5" d="M433.4,209.9v3.1h5.5v4.1h-5.5v3.2h5.8v4.1h-10.6v-18.6h10.6v4.1L433.4,209.9L433.4,209.9z"/>
	</g>
</g>
<g>
	<path class="st3" d="M285.6,19c-1.4-1.9-3.8-3-6.2-3c-4.3,0-7.3,3.3-7.3,7.5c0,4.3,3,7.4,7.4,7.4c2.3,0,4.6-1.1,6.1-2.9v8.5
		c-2.3,0.7-4,1.3-6.2,1.3c-3.8,0-7.4-1.4-10.2-4c-3-2.7-4.4-6.2-4.4-10.3c0-3.7,1.4-7.3,4-10c2.7-2.7,6.5-4.4,10.4-4.4
		c2.3,0,4.4,0.5,6.5,1.4L285.6,19L285.6,19z"/>
	<path class="st3" d="M297,15.9v4.5h8v6h-8v4.7h8.4v6h-15.5V9.9h15.5v6H297z"/>
	<path class="st3" d="M332.4,37.1h-8.8l-6.7-10.5h-0.1v10.5h-7V9.9h10.6c5.4,0,9.5,2.6,9.5,8.4c0,3.8-2.1,7-6,7.7L332.4,37.1z
		 M316.9,22.1h0.7c2.3,0,4.9-0.4,4.9-3.4s-2.6-3.4-4.9-3.4h-0.7V22.1z"/>
	<path class="st3" d="M345.2,37.1h-7.1V15.9h-5.8v-6h18.8v6h-5.8v21.2H345.2z"/>
	<path class="st3" d="M360.6,37.1h-7.1V9.9h7.1V37.1z"/>
	<path class="st3" d="M372.3,15.9v4.5h7.8v6h-7.8v10.7h-7.1V9.9h15.6v6H372.3z"/>
	<path class="st3" d="M391.9,37.1h-7.1V9.9h7.1V37.1z"/>
	<path class="st3" d="M415.9,19c-1.4-1.9-3.8-3-6.2-3c-4.3,0-7.3,3.3-7.3,7.5c0,4.3,3,7.4,7.4,7.4c2.3,0,4.6-1.1,6.1-2.9v8.5
		c-2.3,0.7-4,1.3-6.2,1.3c-3.8,0-7.4-1.4-10.2-4c-3-2.7-4.4-6.2-4.4-10.3c0-3.7,1.4-7.3,4-10c2.7-2.7,6.5-4.4,10.4-4.4
		c2.3,0,4.4,0.5,6.5,1.4L415.9,19L415.9,19z"/>
	<path class="st3" d="M427.2,32.4l-1.9,4.7h-7.5l10.5-27.2h7.7l10.2,27.2h-7.5l-1.8-4.7C436.9,32.4,427.2,32.4,427.2,32.4z
		 M432.2,18.3L432.2,18.3l-3,8.7h5.9L432.2,18.3z"/>
	<path class="st3" d="M467.9,19c-1.4-1.9-3.8-3-6.2-3c-4.3,0-7.3,3.3-7.3,7.5c0,4.3,3,7.4,7.4,7.4c2.3,0,4.6-1.1,6.1-2.9v8.5
		c-2.3,0.7-4,1.3-6.2,1.3c-3.8,0-7.4-1.4-10.2-4c-3-2.7-4.4-6.2-4.4-10.3c0-3.7,1.4-7.3,4-10c2.7-2.7,6.5-4.4,10.4-4.4
		c2.3,0,4.4,0.5,6.5,1.4L467.9,19L467.9,19z"/>
	<path class="st3" d="M479.4,37.1h-7.1V9.9h7.1V37.1z"/>
	<path class="st3" d="M512.7,23c0,8.8-6.3,15-15,15s-15-6.2-15-15c0-8.2,7.2-14,15-14C505.5,9,512.7,14.8,512.7,23z M490,23
		c0,4.7,3.5,8.1,7.7,8.1s7.7-3.4,7.7-8.1c0-3.8-3.5-7.2-7.7-7.2C493.4,15.8,490,19.3,490,23z M496.8,8.2l-2.9-2.1l5.1-6.2l4,2.9
		L496.8,8.2z"/>
	<path class="st3" d="M516,9.9h7.1l13,16.6h0.1V9.9h7.1v27.2h-7.1l-13-16.7h-0.1v16.7H516V9.9z"/>
	<path class="st3" d="M560.1,9.9h10c7.6,0,13.8,6,13.8,13.6s-6.3,13.6-13.8,13.6h-10V9.9z M567.2,31.1h1.6c4.2,0,7.8-2.3,7.8-7.6
		c0-4.9-3.2-7.6-7.8-7.6h-1.7v15.2H567.2z"/>
	<path class="st3" d="M594.2,32.4l-1.9,4.7h-7.5l10.5-27.2h7.7l10.2,27.2h-7.5l-1.8-4.7C603.9,32.4,594.2,32.4,594.2,32.4z
		 M599.1,18.3L599.1,18.3l-3,8.7h5.9L599.1,18.3z"/>
	<path class="st3" d="M624.1,37.1H617V15.9h-5.8v-6H630v6h-5.8v21.2H624.1z"/>
	<path class="st3" d="M661.2,23c0,8.8-6.3,15-15,15s-15-6.2-15-15c0-8.2,7.2-14,15-14C654,9,661.2,14.8,661.2,23z M638.5,23
		c0,4.7,3.5,8.1,7.7,8.1s7.7-3.4,7.7-8.1c0-3.8-3.5-7.2-7.7-7.2C641.9,15.8,638.5,19.3,638.5,23z"/>
	<path class="st3" d="M679.4,16.9c-1.3-1.1-3-1.8-4.7-1.8c-1.3,0-3,0.8-3,2.3c0,1.6,1.9,2.2,3.1,2.6l1.8,0.5c3.8,1.1,6.7,3,6.7,7.4
		c0,2.7-0.6,5.5-2.8,7.3c-2.1,1.8-5,2.6-7.7,2.6c-3.4,0-6.8-1.2-9.6-3.1l3-5.7c1.8,1.6,3.9,2.8,6.3,2.8c1.7,0,3.4-0.8,3.4-2.7
		c0-2-2.8-2.7-4.3-3.1c-4.4-1.3-7.4-2.4-7.4-7.7c0-5.5,3.9-9.1,9.4-9.1c2.7,0,6.1,0.9,8.5,2.2L679.4,16.9z"/>
	<path class="st3" d="M395.1,80.4H388V59.2h-5.8v-6H401v6h-5.8v21.2H395.1z"/>
	<path class="st3" d="M410.6,59.2v4.5h8v6h-8v4.7h8.4v6h-15.5V53.2H419v6H410.6z M409.5,51.5l-2.9-2.1l5.1-6.2l4,2.9L409.5,51.5z"/>
	<path class="st3" d="M442.8,62.3c-1.4-1.9-3.8-3-6.2-3c-4.3,0-7.3,3.3-7.3,7.5c0,4.3,3,7.4,7.4,7.4c2.3,0,4.6-1.1,6.1-2.9v8.5
		c-2.3,0.7-4,1.3-6.2,1.3c-3.8,0-7.4-1.4-10.2-4c-3-2.7-4.4-6.2-4.4-10.3c0-3.7,1.4-7.3,4-10c2.7-2.7,6.5-4.4,10.4-4.4
		c2.3,0,4.4,0.5,6.5,1.4L442.8,62.3L442.8,62.3z"/>
	<path class="st3" d="M447.1,53.2h7.1l13,16.6h0.1V53.2h7.1v27.2h-7.1l-13-16.7h-0.1v16.7h-7.1V53.2z"/>
	<path class="st3" d="M486,80.4h-7.1V53.2h7.1V80.4z"/>
	<path class="st3" d="M510,62.3c-1.4-1.9-3.8-3-6.2-3c-4.3,0-7.3,3.3-7.3,7.5c0,4.3,3,7.4,7.4,7.4c2.3,0,4.6-1.1,6.1-2.9v8.5
		c-2.3,0.7-4,1.3-6.2,1.3c-3.8,0-7.4-1.4-10.2-4c-3-2.7-4.4-6.2-4.4-10.3c0-3.7,1.4-7.3,4-10c2.7-2.7,6.5-4.4,10.4-4.4
		c2.3,0,4.4,0.5,6.5,1.4L510,62.3L510,62.3z"/>
	<path class="st3" d="M543.1,66.3c0,8.8-6.3,15-15,15s-15-6.2-15-15c0-8.2,7.2-14,15-14S543.1,58,543.1,66.3z M520.4,66.3
		c0,4.7,3.5,8.1,7.7,8.1s7.7-3.4,7.7-8.1c0-3.8-3.5-7.2-7.7-7.2S520.4,62.6,520.4,66.3z"/>
	<path class="st3" d="M561.3,60.2c-1.3-1.1-3-1.8-4.7-1.8c-1.3,0-3,0.8-3,2.3c0,1.6,1.9,2.2,3.1,2.6l1.8,0.5c3.8,1.1,6.7,3,6.7,7.4
		c0,2.7-0.6,5.5-2.8,7.3c-2.1,1.8-5,2.6-7.7,2.6c-3.4,0-6.8-1.2-9.6-3.1l3-5.7c1.8,1.6,3.9,2.8,6.3,2.8c1.7,0,3.4-0.8,3.4-2.7
		c0-2-2.8-2.7-4.3-3.1c-4.4-1.3-7.4-2.4-7.4-7.7c0-5.5,3.9-9.1,9.4-9.1c2.7,0,6.1,0.9,8.5,2.2L561.3,60.2z"/>
</g>
<g>
	<g>
		<path class="st4" d="M302.5,323h-4l-3.1-4.8l0,0v4.8h-3.2v-12.5h4.8c2.5,0,4.3,1.2,4.3,3.8c0,1.7-1,3.2-2.7,3.5L302.5,323z
			 M295.4,316.1h0.3c1.1,0,2.3-0.2,2.3-1.6s-1.2-1.6-2.3-1.6h-0.3V316.1z"/>
		<path class="st4" d="M312,319.2h-6.3c0,1.2,0.6,1.9,1.9,1.9c0.6,0,1.1-0.2,1.4-0.8h2.9c-0.2,1-0.8,1.7-1.6,2.2
			c-0.8,0.5-1.7,0.7-2.7,0.7c-2.8,0-4.9-1.6-4.9-4.5c0-2.8,1.9-4.5,4.7-4.5c2.9,0,4.7,1.8,4.7,4.7v0.3H312z M309.2,317.5
			c-0.1-0.8-0.9-1.3-1.7-1.3c-0.9,0-1.6,0.5-1.8,1.3H309.2z"/>
		<path class="st4" d="M319,316.7c-0.5-0.2-1.1-0.4-1.6-0.4c-0.3,0-0.9,0.1-0.9,0.6c0,0.6,0.9,0.7,1.4,0.7c1.4,0.3,2.5,0.9,2.5,2.5
			c0,2.2-2,3.2-4,3.2c-1.2,0-2.4-0.3-3.4-1l1.1-2.1c0.6,0.4,1.6,0.9,2.4,0.9c0.4,0,0.9-0.2,0.9-0.6c0-0.7-0.9-0.7-1.9-0.9
			c-0.9-0.2-1.9-0.7-1.9-2.2c0-2.1,1.9-3,3.7-3c1,0,1.9,0.1,2.8,0.5L319,316.7z"/>
		<path class="st4" d="M324.8,315.4L324.8,315.4c0.6-0.8,1.6-1.2,2.6-1.2c2.5,0,4.3,2.1,4.3,4.6c0,2.4-1.7,4.5-4.3,4.5
			c-1,0-2-0.3-2.6-1.1v5h-3v-12.7h3V315.4z M324.7,318.7c0,1.1,0.7,1.9,1.9,1.9c1.2,0,1.9-0.8,1.9-1.9c0-1-0.7-1.9-1.9-1.9
			C325.4,316.8,324.7,317.7,324.7,318.7z"/>
		<path class="st4" d="M342.8,318.7c0,2.9-2.4,4.5-5.1,4.5s-5.1-1.6-5.1-4.5s2.4-4.5,5.1-4.5S342.8,315.8,342.8,318.7z M335.7,318.7
			c0,1.1,0.7,1.9,1.9,1.9s1.9-0.8,1.9-1.9c0-1-0.7-1.9-1.9-1.9S335.7,317.7,335.7,318.7z"/>
		<path class="st4" d="M347.1,315.6L347.1,315.6c0.7-1,1.6-1.4,2.7-1.4c2.3,0,3.2,1.4,3.2,3.5v5.2h-3v-4.1c0-0.8,0.1-2.2-1.4-2.2
			c-1.2,0-1.6,0.9-1.6,2v4.4h-3v-8.5h3L347.1,315.6L347.1,315.6z"/>
		<path class="st4" d="M360.7,316.7c-0.5-0.2-1.1-0.4-1.6-0.4c-0.3,0-0.9,0.1-0.9,0.6c0,0.6,0.9,0.7,1.4,0.7
			c1.4,0.3,2.5,0.9,2.5,2.5c0,2.2-2,3.2-4,3.2c-1.2,0-2.4-0.3-3.4-1l1.1-2.1c0.6,0.4,1.6,0.9,2.4,0.9c0.4,0,0.9-0.2,0.9-0.6
			c0-0.7-0.9-0.7-1.9-0.9c-0.9-0.2-1.9-0.7-1.9-2.2c0-2.1,1.9-3,3.7-3c1,0,1.9,0.1,2.8,0.5L360.7,316.7z"/>
		<path class="st4" d="M372.8,323h-3v-1l0,0c-0.5,0.8-1.6,1.2-2.6,1.2c-2.5,0-4.3-2.1-4.3-4.5s1.7-4.5,4.3-4.5c1,0,2,0.4,2.6,1.1
			v-0.8h3V323z M366,318.7c0,1.1,0.7,1.9,1.9,1.9c1.2,0,1.9-0.8,1.9-1.9c0-1-0.7-1.9-1.9-1.9C366.7,316.8,366,317.7,366,318.7z"/>
		<path class="st4" d="M374.7,309.2h3v6.1c0.6-0.7,1.7-1.1,2.6-1.1c2.5,0,4.3,2.1,4.3,4.5s-1.8,4.5-4.3,4.5c-1,0-2-0.4-2.6-1.2l0,0
			v0.9h-3V309.2z M377.6,318.7c0,1.1,0.7,1.9,1.9,1.9c1.2,0,1.9-0.8,1.9-1.9c0-1-0.7-1.9-1.9-1.9
			C378.3,316.8,377.6,317.7,377.6,318.7z"/>
		<path class="st4" d="M389.1,323h-3v-13.7h3V323z"/>
		<path class="st4" d="M399.8,319.2h-6.3c0,1.2,0.6,1.9,1.9,1.9c0.6,0,1.1-0.2,1.4-0.8h2.9c-0.2,1-0.8,1.7-1.6,2.2
			c-0.8,0.5-1.7,0.7-2.7,0.7c-2.8,0-4.9-1.6-4.9-4.5c0-2.8,1.9-4.5,4.7-4.5c2.9,0,4.7,1.8,4.7,4.7v0.3H399.8z M397,317.5
			c-0.1-0.8-0.9-1.3-1.7-1.3c-0.9,0-1.6,0.5-1.8,1.3H397z"/>
		<path class="st4" d="M413.3,322L413.3,322c-0.6,0.8-1.6,1.2-2.6,1.2c-2.5,0-4.3-2.1-4.3-4.5s1.7-4.5,4.3-4.5c1,0,2,0.4,2.6,1.1
			v-6.1h3V323h-3V322z M409.5,318.7c0,1.1,0.7,1.9,1.9,1.9c1.2,0,1.9-0.8,1.9-1.9c0-1-0.7-1.9-1.9-1.9
			C410.2,316.8,409.5,317.7,409.5,318.7z"/>
		<path class="st4" d="M426.9,319.2h-6.3c0,1.2,0.6,1.9,1.9,1.9c0.6,0,1.1-0.2,1.4-0.8h2.9c-0.2,1-0.8,1.7-1.6,2.2
			c-0.8,0.5-1.7,0.7-2.7,0.7c-2.8,0-4.9-1.6-4.9-4.5c0-2.8,1.9-4.5,4.7-4.5c2.9,0,4.7,1.8,4.7,4.7v0.3H426.9z M424.1,317.5
			c-0.1-0.8-0.9-1.3-1.7-1.3c-0.9,0-1.6,0.5-1.8,1.3H424.1z"/>
		<path class="st4" d="M327.8,342.8h-3v-0.9l0,0c-0.5,0.8-1.6,1.2-2.6,1.2c-2.5,0-4.3-2.1-4.3-4.5s1.7-4.5,4.3-4.5
			c1,0,2,0.4,2.6,1.1v-0.8h3V342.8z M321,338.6c0,1.1,0.7,1.9,1.9,1.9c1.2,0,1.9-0.8,1.9-1.9c0-1-0.7-1.9-1.9-1.9
			C321.8,336.7,321,337.5,321,338.6z"/>
		<path class="st4" d="M336.2,341.9L336.2,341.9c-0.6,0.8-1.6,1.2-2.6,1.2c-2.5,0-4.3-2.1-4.3-4.5s1.7-4.5,4.3-4.5
			c1,0,2,0.4,2.6,1.1v-6.1h3v13.7h-3V341.9z M332.4,338.6c0,1.1,0.7,1.9,1.9,1.9c1.2,0,1.9-0.8,1.9-1.9c0-1-0.7-1.9-1.9-1.9
			C333.2,336.7,332.4,337.5,332.4,338.6z"/>
		<path class="st4" d="M344.1,335.4L344.1,335.4c0.7-0.9,1.6-1.3,2.7-1.3c1.2,0,2.3,0.5,2.9,1.6c0.6-1.1,1.7-1.6,2.9-1.6
			c2.2,0,2.9,1.4,2.9,3.4v5.4h-3v-4.1c0-0.9,0-2.3-1.2-2.3c-1.4,0-1.4,1.3-1.4,2.3v4.1h-3v-4.1c0-0.9,0-2.4-1.3-2.4
			s-1.3,1.4-1.3,2.4v4.1h-3v-8.5h3v1H344.1z"/>
		<path class="st4" d="M360.7,331.1c0,0.9-0.8,1.7-1.7,1.7s-1.7-0.8-1.7-1.7s0.8-1.7,1.7-1.7S360.7,330.1,360.7,331.1z M360.5,342.8
			h-3v-8.5h3V342.8z"/>
		<path class="st4" d="M368.1,336.5c-0.5-0.2-1.1-0.4-1.6-0.4c-0.3,0-0.9,0.1-0.9,0.6c0,0.6,0.9,0.7,1.4,0.7
			c1.4,0.3,2.5,0.9,2.5,2.5c0,2.2-2,3.2-4,3.2c-1.2,0-2.4-0.3-3.4-1l1.1-2.1c0.6,0.4,1.6,0.9,2.4,0.9c0.4,0,0.9-0.2,0.9-0.6
			c0-0.7-0.9-0.7-1.9-0.9c-0.9-0.2-1.9-0.7-1.9-2.2c0-2.1,1.9-3,3.7-3c1,0,1.9,0.1,2.8,0.5L368.1,336.5z"/>
		<path class="st4" d="M374.2,331.1c0,0.9-0.8,1.7-1.7,1.7s-1.7-0.8-1.7-1.7s0.8-1.7,1.7-1.7S374.2,330.1,374.2,331.1z M374,342.8
			h-3v-8.5h3V342.8z"/>
		<path class="st4" d="M385.6,338.6c0,2.9-2.4,4.5-5.1,4.5s-5.1-1.6-5.1-4.5s2.4-4.5,5.1-4.5S385.6,335.7,385.6,338.6z M378.5,338.6
			c0,1.1,0.7,1.9,1.9,1.9c1.2,0,1.9-0.8,1.9-1.9c0-1-0.7-1.9-1.9-1.9S378.5,337.5,378.5,338.6z M380.1,333.1l-1.3-1l2.3-2.8l1.8,1.3
			L380.1,333.1z"/>
		<path class="st4" d="M389.9,335.4L389.9,335.4c0.7-1,1.6-1.4,2.7-1.4c2.3,0,3.2,1.4,3.2,3.5v5.2h-3v-4.1c0-0.8,0.1-2.2-1.4-2.2
			c-1.2,0-1.6,0.9-1.6,2v4.4h-3v-8.5h3L389.9,335.4L389.9,335.4z"/>
		<path class="st4" d="M406,329.1l-6.3,15.3h-2.4l6.3-15.3H406z"/>
		<path class="st4" d="M286.7,358.9h-6.3c0,1.2,0.6,1.9,1.9,1.9c0.6,0,1.1-0.2,1.4-0.8h2.9c-0.2,1-0.8,1.7-1.6,2.2
			c-0.8,0.5-1.7,0.7-2.7,0.7c-2.8,0-4.9-1.6-4.9-4.5c0-2.8,1.9-4.5,4.7-4.5c2.9,0,4.7,1.8,4.7,4.7v0.3H286.7z M283.9,357.2
			c-0.1-0.8-0.9-1.3-1.7-1.3c-0.9,0-1.6,0.5-1.8,1.3H283.9z"/>
		<path class="st4" d="M291.1,355.2L291.1,355.2c0.7-0.9,1.6-1.3,2.7-1.3c1.2,0,2.3,0.5,2.9,1.6c0.6-1.1,1.7-1.6,2.9-1.6
			c2.2,0,2.9,1.4,2.9,3.4v5.4h-3v-4.1c0-0.9,0-2.3-1.2-2.3c-1.4,0-1.4,1.3-1.4,2.3v4.1h-3v-4.1c0-0.9,0-2.4-1.3-2.4
			s-1.3,1.4-1.3,2.4v4.1h-3v-8.5h3v1H291.1z"/>
		<path class="st4" d="M307.6,350.9c0,0.9-0.8,1.7-1.7,1.7s-1.7-0.8-1.7-1.7s0.8-1.7,1.7-1.7S307.6,350,307.6,350.9z M307.4,362.7
			h-3v-8.5h3V362.7z"/>
		<path class="st4" d="M315,356.4c-0.5-0.2-1.1-0.4-1.6-0.4c-0.3,0-0.9,0.1-0.9,0.6c0,0.6,0.9,0.7,1.4,0.7c1.4,0.3,2.5,0.9,2.5,2.5
			c0,2.2-2,3.2-4,3.2c-1.2,0-2.4-0.3-3.4-1l1.1-2.1c0.6,0.4,1.6,0.9,2.4,0.9c0.4,0,0.9-0.2,0.9-0.6c0-0.7-0.9-0.7-1.9-0.9
			c-0.9-0.2-1.9-0.7-1.9-2.2c0-2.1,1.9-3,3.7-3c1,0,1.9,0.1,2.8,0.5L315,356.4z"/>
		<path class="st4" d="M321.1,350.9c0,0.9-0.8,1.7-1.7,1.7c-0.9,0-1.7-0.8-1.7-1.7s0.8-1.7,1.7-1.7
			C320.3,349.2,321.1,350,321.1,350.9z M320.9,362.7h-3v-8.5h3V362.7z"/>
		<path class="st4" d="M332.5,358.4c0,2.9-2.4,4.5-5.1,4.5s-5.1-1.6-5.1-4.5s2.4-4.5,5.1-4.5S332.5,355.5,332.5,358.4z M325.4,358.4
			c0,1.1,0.7,1.9,1.9,1.9c1.2,0,1.9-0.8,1.9-1.9c0-1-0.7-1.9-1.9-1.9C326.2,356.5,325.4,357.4,325.4,358.4z M327,352.9l-1.3-1
			l2.3-2.8l1.8,1.3L327,352.9z"/>
		<path class="st4" d="M336.9,355.3L336.9,355.3c0.7-1,1.6-1.4,2.7-1.4c2.3,0,3.2,1.4,3.2,3.5v5.2h-3v-4.1c0-0.8,0.1-2.2-1.4-2.2
			c-1.2,0-1.6,0.9-1.6,2v4.4h-3v-8.5h3L336.9,355.3L336.9,355.3z"/>
		<path class="st4" d="M358.6,348.9l-6.3,15.3h-2.4l6.3-15.3H358.6z"/>
		<path class="st4" d="M372.1,361.7L372.1,361.7c-0.6,0.8-1.6,1.2-2.6,1.2c-2.5,0-4.3-2.1-4.3-4.5s1.7-4.5,4.3-4.5
			c1,0,2,0.4,2.6,1.1v-6.1h3v13.7h-3V361.7z M368.3,358.4c0,1.1,0.7,1.9,1.9,1.9c1.2,0,1.9-0.8,1.9-1.9c0-1-0.7-1.9-1.9-1.9
			S368.3,357.4,368.3,358.4z"/>
		<path class="st4" d="M385.7,358.9h-6.3c0,1.2,0.6,1.9,1.9,1.9c0.6,0,1.1-0.2,1.4-0.8h2.9c-0.2,1-0.8,1.7-1.6,2.2
			c-0.8,0.5-1.7,0.7-2.7,0.7c-2.8,0-4.9-1.6-4.9-4.5c0-2.8,1.9-4.5,4.7-4.5c2.9,0,4.7,1.8,4.7,4.7v0.3H385.7z M382.9,357.2
			c-0.1-0.8-0.9-1.3-1.7-1.3c-0.9,0-1.6,0.5-1.8,1.3H382.9z"/>
		<path class="st4" d="M392.7,356.4c-0.5-0.2-1.1-0.4-1.6-0.4c-0.3,0-0.9,0.1-0.9,0.6c0,0.6,0.9,0.7,1.4,0.7
			c1.4,0.3,2.5,0.9,2.5,2.5c0,2.2-2,3.2-4,3.2c-1.2,0-2.4-0.3-3.4-1l1.1-2.1c0.6,0.4,1.6,0.9,2.4,0.9c0.4,0,0.9-0.2,0.9-0.6
			c0-0.7-0.9-0.7-1.9-0.9c-0.9-0.2-1.9-0.7-1.9-2.2c0-2.1,1.9-3,3.7-3c1,0,1.9,0.1,2.8,0.5L392.7,356.4z"/>
		<path class="st4" d="M398.5,355.1L398.5,355.1c0.6-0.8,1.6-1.2,2.6-1.2c2.5,0,4.3,2.1,4.3,4.6c0,2.4-1.7,4.5-4.3,4.5
			c-1,0-2-0.3-2.6-1.1v5h-3v-12.7h3V355.1z M398.4,358.4c0,1.1,0.7,1.9,1.9,1.9c1.2,0,1.9-0.8,1.9-1.9c0-1-0.7-1.9-1.9-1.9
			S398.4,357.4,398.4,358.4z"/>
		<path class="st4" d="M416.1,362.7h-3v-0.9l0,0c-0.5,0.8-1.6,1.2-2.6,1.2c-2.5,0-4.3-2.1-4.3-4.5s1.7-4.5,4.3-4.5
			c1,0,2,0.4,2.6,1.1v-0.8h3V362.7z M409.3,358.4c0,1.1,0.7,1.9,1.9,1.9c1.2,0,1.9-0.8,1.9-1.9c0-1-0.7-1.9-1.9-1.9
			C410.1,356.5,409.3,357.4,409.3,358.4z"/>
		<path class="st4" d="M424.3,356.9c-0.4-0.3-1-0.6-1.6-0.6c-1.2,0-2.1,0.9-2.1,2.1s0.9,2.1,2.1,2.1c0.5,0,1.1-0.2,1.5-0.6v2.5
			c-0.7,0.3-1.4,0.5-2.1,0.5c-2.5,0-4.6-1.9-4.6-4.4c0-2.7,2.1-4.6,4.8-4.6c0.7,0,1.4,0.2,2,0.5L424.3,356.9L424.3,356.9z"/>
		<path class="st4" d="M429.1,348.9v6.3l0,0c0.7-0.9,1.5-1.4,2.7-1.4c2.2,0,3.2,1.4,3.2,3.6v5.2h-3v-4.4c0-1-0.1-2-1.4-2
			c-1.2,0-1.6,1-1.6,2v4.4h-3v-13.7H429.1z"/>
		<path class="st4" d="M446.7,358.4c0,2.9-2.4,4.5-5.1,4.5s-5.1-1.6-5.1-4.5s2.4-4.5,5.1-4.5S446.7,355.5,446.7,358.4z M439.6,358.4
			c0,1.1,0.7,1.9,1.9,1.9c1.2,0,1.9-0.8,1.9-1.9c0-1-0.7-1.9-1.9-1.9C440.3,356.5,439.6,357.4,439.6,358.4z"/>
	</g>
</g>
<rect id="XMLID_1621_" x="226.7" y="966.9" class="st2" width="264.8" height="71"/>
<g>
	<g>
		<path class="st4" d="M302.5,987.6h-4l-3.1-4.8l0,0v4.8h-3.2v-12.5h4.8c2.5,0,4.3,1.2,4.3,3.8c0,1.7-1,3.2-2.7,3.5L302.5,987.6z
			 M295.4,980.7h0.3c1.1,0,2.3-0.2,2.3-1.6s-1.2-1.6-2.3-1.6h-0.3V980.7z"/>
		<path class="st4" d="M312,983.9h-6.3c0,1.2,0.6,1.9,1.9,1.9c0.6,0,1.1-0.2,1.4-0.8h2.9c-0.2,1-0.8,1.7-1.6,2.2
			c-0.8,0.5-1.7,0.7-2.7,0.7c-2.8,0-4.9-1.6-4.9-4.5c0-2.8,1.9-4.5,4.7-4.5c2.9,0,4.7,1.8,4.7,4.7v0.3H312z M309.2,982.1
			c-0.1-0.8-0.9-1.3-1.7-1.3c-0.9,0-1.6,0.5-1.8,1.3H309.2z"/>
		<path class="st4" d="M319,981.3c-0.5-0.2-1.1-0.4-1.6-0.4c-0.3,0-0.9,0.1-0.9,0.6c0,0.6,0.9,0.7,1.4,0.7c1.4,0.3,2.5,0.9,2.5,2.5
			c0,2.2-2,3.2-4,3.2c-1.2,0-2.4-0.3-3.4-1l1.1-2.1c0.6,0.4,1.6,0.9,2.4,0.9c0.4,0,0.9-0.2,0.9-0.6c0-0.7-0.9-0.7-1.9-0.9
			c-0.9-0.2-1.9-0.7-1.9-2.2c0-2.1,1.9-3,3.7-3c1,0,1.9,0.1,2.8,0.5L319,981.3z"/>
		<path class="st4" d="M324.8,980.1L324.8,980.1c0.6-0.8,1.6-1.2,2.6-1.2c2.5,0,4.3,2.1,4.3,4.6c0,2.4-1.7,4.5-4.3,4.5
			c-1,0-2-0.3-2.6-1.1v5h-3v-12.7h3V980.1z M324.7,983.4c0,1.1,0.7,1.9,1.9,1.9c1.2,0,1.9-0.8,1.9-1.9c0-1-0.7-1.9-1.9-1.9
			C325.4,981.4,324.7,982.3,324.7,983.4z"/>
		<path class="st4" d="M342.8,983.4c0,2.9-2.4,4.5-5.1,4.5s-5.1-1.6-5.1-4.5s2.4-4.5,5.1-4.5S342.8,980.5,342.8,983.4z M335.7,983.4
			c0,1.1,0.7,1.9,1.9,1.9s1.9-0.8,1.9-1.9c0-1-0.7-1.9-1.9-1.9S335.7,982.3,335.7,983.4z"/>
		<path class="st4" d="M347.1,980.2L347.1,980.2c0.7-1,1.6-1.4,2.7-1.4c2.3,0,3.2,1.4,3.2,3.5v5.2h-3v-4.1c0-0.8,0.1-2.2-1.4-2.2
			c-1.2,0-1.6,0.9-1.6,2v4.4h-3v-8.5h3L347.1,980.2L347.1,980.2z"/>
		<path class="st4" d="M360.7,981.3c-0.5-0.2-1.1-0.4-1.6-0.4c-0.3,0-0.9,0.1-0.9,0.6c0,0.6,0.9,0.7,1.4,0.7
			c1.4,0.3,2.5,0.9,2.5,2.5c0,2.2-2,3.2-4,3.2c-1.2,0-2.4-0.3-3.4-1l1.1-2.1c0.6,0.4,1.6,0.9,2.4,0.9c0.4,0,0.9-0.2,0.9-0.6
			c0-0.7-0.9-0.7-1.9-0.9c-0.9-0.2-1.9-0.7-1.9-2.2c0-2.1,1.9-3,3.7-3c1,0,1.9,0.1,2.8,0.5L360.7,981.3z"/>
		<path class="st4" d="M372.8,987.6h-3v-0.9l0,0c-0.5,0.8-1.6,1.2-2.6,1.2c-2.5,0-4.3-2.1-4.3-4.5s1.7-4.5,4.3-4.5
			c1,0,2,0.4,2.6,1.1v-0.8h3V987.6z M366,983.4c0,1.1,0.7,1.9,1.9,1.9c1.2,0,1.9-0.8,1.9-1.9c0-1-0.7-1.9-1.9-1.9
			C366.7,981.4,366,982.3,366,983.4z"/>
		<path class="st4" d="M374.7,973.9h3v6.1c0.6-0.7,1.7-1.1,2.6-1.1c2.5,0,4.3,2.1,4.3,4.5s-1.8,4.5-4.3,4.5c-1,0-2-0.4-2.6-1.2l0,0
			v0.9h-3V973.9z M377.6,983.4c0,1.1,0.7,1.9,1.9,1.9c1.2,0,1.9-0.8,1.9-1.9c0-1-0.7-1.9-1.9-1.9
			C378.3,981.4,377.6,982.3,377.6,983.4z"/>
		<path class="st4" d="M389.1,987.6h-3v-13.7h3V987.6z"/>
		<path class="st4" d="M399.8,983.9h-6.3c0,1.2,0.6,1.9,1.9,1.9c0.6,0,1.1-0.2,1.4-0.8h2.9c-0.2,1-0.8,1.7-1.6,2.2
			c-0.8,0.5-1.7,0.7-2.7,0.7c-2.8,0-4.9-1.6-4.9-4.5c0-2.8,1.9-4.5,4.7-4.5c2.9,0,4.7,1.8,4.7,4.7v0.3H399.8z M397,982.1
			c-0.1-0.8-0.9-1.3-1.7-1.3c-0.9,0-1.6,0.5-1.8,1.3H397z"/>
		<path class="st4" d="M413.3,986.7L413.3,986.7c-0.6,0.8-1.6,1.2-2.6,1.2c-2.5,0-4.3-2.1-4.3-4.5s1.7-4.5,4.3-4.5
			c1,0,2,0.4,2.6,1.1v-6.1h3v13.7h-3V986.7z M409.5,983.4c0,1.1,0.7,1.9,1.9,1.9c1.2,0,1.9-0.8,1.9-1.9c0-1-0.7-1.9-1.9-1.9
			C410.2,981.4,409.5,982.3,409.5,983.4z"/>
		<path class="st4" d="M426.9,983.9h-6.3c0,1.2,0.6,1.9,1.9,1.9c0.6,0,1.1-0.2,1.4-0.8h2.9c-0.2,1-0.8,1.7-1.6,2.2
			c-0.8,0.5-1.7,0.7-2.7,0.7c-2.8,0-4.9-1.6-4.9-4.5c0-2.8,1.9-4.5,4.7-4.5c2.9,0,4.7,1.8,4.7,4.7v0.3H426.9z M424.1,982.1
			c-0.1-0.8-0.9-1.3-1.7-1.3c-0.9,0-1.6,0.5-1.8,1.3H424.1z"/>
		<path class="st4" d="M327.8,1007.5h-3v-0.9l0,0c-0.5,0.8-1.6,1.2-2.6,1.2c-2.5,0-4.3-2.1-4.3-4.5s1.7-4.5,4.3-4.5
			c1,0,2,0.4,2.6,1.1V999h3V1007.5z M321,1003.2c0,1.1,0.7,1.9,1.9,1.9c1.2,0,1.9-0.8,1.9-1.9c0-1-0.7-1.9-1.9-1.9
			C321.8,1001.3,321,1002.2,321,1003.2z"/>
		<path class="st4" d="M336.2,1006.5L336.2,1006.5c-0.6,0.8-1.6,1.2-2.6,1.2c-2.5,0-4.3-2.1-4.3-4.5s1.7-4.5,4.3-4.5
			c1,0,2,0.4,2.6,1.1v-6.1h3v13.7h-3V1006.5z M332.4,1003.2c0,1.1,0.7,1.9,1.9,1.9c1.2,0,1.9-0.8,1.9-1.9c0-1-0.7-1.9-1.9-1.9
			C333.2,1001.3,332.4,1002.2,332.4,1003.2z"/>
		<path class="st4" d="M344.1,1000L344.1,1000c0.7-0.9,1.6-1.3,2.7-1.3c1.2,0,2.3,0.5,2.9,1.6c0.6-1.1,1.7-1.6,2.9-1.6
			c2.2,0,2.9,1.4,2.9,3.4v5.4h-3v-4.1c0-0.9,0-2.3-1.2-2.3c-1.4,0-1.4,1.3-1.4,2.3v4.1h-3v-4.1c0-0.9,0-2.4-1.3-2.4
			s-1.3,1.4-1.3,2.4v4.1h-3V999h3v1H344.1z"/>
		<path class="st4" d="M360.7,995.7c0,0.9-0.8,1.7-1.7,1.7s-1.7-0.8-1.7-1.7s0.8-1.7,1.7-1.7S360.7,994.8,360.7,995.7z
			 M360.5,1007.5h-3V999h3V1007.5z"/>
		<path class="st4" d="M368.1,1001.1c-0.5-0.2-1.1-0.4-1.6-0.4c-0.3,0-0.9,0.1-0.9,0.6c0,0.6,0.9,0.7,1.4,0.7
			c1.4,0.3,2.5,0.9,2.5,2.5c0,2.2-2,3.2-4,3.2c-1.2,0-2.4-0.3-3.4-1l1.1-2.1c0.6,0.4,1.6,0.9,2.4,0.9c0.4,0,0.9-0.2,0.9-0.6
			c0-0.7-0.9-0.7-1.9-0.9c-0.9-0.2-1.9-0.7-1.9-2.2c0-2.1,1.9-3,3.7-3c1,0,1.9,0.1,2.8,0.5L368.1,1001.1z"/>
		<path class="st4" d="M374.2,995.7c0,0.9-0.8,1.7-1.7,1.7s-1.7-0.8-1.7-1.7s0.8-1.7,1.7-1.7S374.2,994.8,374.2,995.7z M374,1007.5
			h-3V999h3V1007.5z"/>
		<path class="st4" d="M385.6,1003.2c0,2.9-2.4,4.5-5.1,4.5s-5.1-1.6-5.1-4.5s2.4-4.5,5.1-4.5S385.6,1000.3,385.6,1003.2z
			 M378.5,1003.2c0,1.1,0.7,1.9,1.9,1.9c1.2,0,1.9-0.8,1.9-1.9c0-1-0.7-1.9-1.9-1.9S378.5,1002.2,378.5,1003.2z M380.1,997.7l-1.3-1
			l2.3-2.8l1.8,1.3L380.1,997.7z"/>
		<path class="st4" d="M389.9,1000.1L389.9,1000.1c0.7-1,1.6-1.4,2.7-1.4c2.3,0,3.2,1.4,3.2,3.5v5.2h-3v-4.1c0-0.8,0.1-2.2-1.4-2.2
			c-1.2,0-1.6,0.9-1.6,2v4.4h-3V999h3L389.9,1000.1L389.9,1000.1z"/>
		<path class="st4" d="M406,993.7l-6.3,15.3h-2.4l6.3-15.3H406z"/>
		<path class="st4" d="M286.7,1023.6h-6.3c0,1.2,0.6,1.9,1.9,1.9c0.6,0,1.1-0.2,1.4-0.8h2.9c-0.2,1-0.8,1.7-1.6,2.2
			c-0.8,0.5-1.7,0.7-2.7,0.7c-2.8,0-4.9-1.6-4.9-4.5c0-2.8,1.9-4.5,4.7-4.5c2.9,0,4.7,1.8,4.7,4.7v0.3H286.7z M283.9,1021.8
			c-0.1-0.8-0.9-1.3-1.7-1.3c-0.9,0-1.6,0.5-1.8,1.3H283.9z"/>
		<path class="st4" d="M291.1,1019.9L291.1,1019.9c0.7-0.9,1.6-1.3,2.7-1.3c1.2,0,2.3,0.5,2.9,1.6c0.6-1.1,1.7-1.6,2.9-1.6
			c2.2,0,2.9,1.4,2.9,3.4v5.4h-3v-4.1c0-0.9,0-2.3-1.2-2.3c-1.4,0-1.4,1.3-1.4,2.3v4.1h-3v-4.1c0-0.9,0-2.4-1.3-2.4
			s-1.3,1.4-1.3,2.4v4.1h-3v-8.5h3v1H291.1z"/>
		<path class="st4" d="M307.6,1015.6c0,0.9-0.8,1.7-1.7,1.7s-1.7-0.8-1.7-1.7s0.8-1.7,1.7-1.7S307.6,1014.6,307.6,1015.6z
			 M307.4,1027.3h-3v-8.5h3V1027.3z"/>
		<path class="st4" d="M315,1021c-0.5-0.2-1.1-0.4-1.6-0.4c-0.3,0-0.9,0.1-0.9,0.6c0,0.6,0.9,0.7,1.4,0.7c1.4,0.3,2.5,0.9,2.5,2.5
			c0,2.2-2,3.2-4,3.2c-1.2,0-2.4-0.3-3.4-1l1.1-2.1c0.6,0.4,1.6,0.9,2.4,0.9c0.4,0,0.9-0.2,0.9-0.6c0-0.7-0.9-0.7-1.9-0.9
			c-0.9-0.2-1.9-0.7-1.9-2.2c0-2.1,1.9-3,3.7-3c1,0,1.9,0.1,2.8,0.5L315,1021z"/>
		<path class="st4" d="M321.1,1015.6c0,0.9-0.8,1.7-1.7,1.7c-0.9,0-1.7-0.8-1.7-1.7s0.8-1.7,1.7-1.7
			C320.3,1013.9,321.1,1014.6,321.1,1015.6z M320.9,1027.3h-3v-8.5h3V1027.3z"/>
		<path class="st4" d="M332.5,1023.1c0,2.9-2.4,4.5-5.1,4.5s-5.1-1.6-5.1-4.5s2.4-4.5,5.1-4.5S332.5,1020.2,332.5,1023.1z
			 M325.4,1023.1c0,1.1,0.7,1.9,1.9,1.9c1.2,0,1.9-0.8,1.9-1.9c0-1-0.7-1.9-1.9-1.9C326.2,1021.2,325.4,1022,325.4,1023.1z
			 M327,1017.6l-1.3-1l2.3-2.8l1.8,1.3L327,1017.6z"/>
		<path class="st4" d="M336.9,1019.9L336.9,1019.9c0.7-1,1.6-1.4,2.7-1.4c2.3,0,3.2,1.4,3.2,3.5v5.2h-3v-4.1c0-0.8,0.1-2.2-1.4-2.2
			c-1.2,0-1.6,0.9-1.6,2v4.4h-3v-8.5h3L336.9,1019.9L336.9,1019.9z"/>
		<path class="st4" d="M358.6,1013.6l-6.3,15.3h-2.4l6.3-15.3L358.6,1013.6L358.6,1013.6z"/>
		<path class="st4" d="M372.1,1026.4L372.1,1026.4c-0.6,0.8-1.6,1.2-2.6,1.2c-2.5,0-4.3-2.1-4.3-4.5s1.7-4.5,4.3-4.5
			c1,0,2,0.4,2.6,1.1v-6.1h3v13.7h-3V1026.4z M368.3,1023.1c0,1.1,0.7,1.9,1.9,1.9c1.2,0,1.9-0.8,1.9-1.9c0-1-0.7-1.9-1.9-1.9
			C369,1021.2,368.3,1022,368.3,1023.1z"/>
		<path class="st4" d="M385.7,1023.6h-6.3c0,1.2,0.6,1.9,1.9,1.9c0.6,0,1.1-0.2,1.4-0.8h2.9c-0.2,1-0.8,1.7-1.6,2.2
			c-0.8,0.5-1.7,0.7-2.7,0.7c-2.8,0-4.9-1.6-4.9-4.5c0-2.8,1.9-4.5,4.7-4.5c2.9,0,4.7,1.8,4.7,4.7v0.3H385.7z M382.9,1021.8
			c-0.1-0.8-0.9-1.3-1.7-1.3c-0.9,0-1.6,0.5-1.8,1.3H382.9z"/>
		<path class="st4" d="M392.7,1021c-0.5-0.2-1.1-0.4-1.6-0.4c-0.3,0-0.9,0.1-0.9,0.6c0,0.6,0.9,0.7,1.4,0.7c1.4,0.3,2.5,0.9,2.5,2.5
			c0,2.2-2,3.2-4,3.2c-1.2,0-2.4-0.3-3.4-1l1.1-2.1c0.6,0.4,1.6,0.9,2.4,0.9c0.4,0,0.9-0.2,0.9-0.6c0-0.7-0.9-0.7-1.9-0.9
			c-0.9-0.2-1.9-0.7-1.9-2.2c0-2.1,1.9-3,3.7-3c1,0,1.9,0.1,2.8,0.5L392.7,1021z"/>
		<path class="st4" d="M398.5,1019.8L398.5,1019.8c0.6-0.8,1.6-1.2,2.6-1.2c2.5,0,4.3,2.1,4.3,4.6c0,2.4-1.7,4.5-4.3,4.5
			c-1,0-2-0.3-2.6-1.1v5h-3v-12.7h3V1019.8z M398.4,1023.1c0,1.1,0.7,1.9,1.9,1.9c1.2,0,1.9-0.8,1.9-1.9c0-1-0.7-1.9-1.9-1.9
			C399.1,1021.2,398.4,1022,398.4,1023.1z"/>
		<path class="st4" d="M416.1,1027.3h-3v-0.9l0,0c-0.5,0.8-1.6,1.2-2.6,1.2c-2.5,0-4.3-2.1-4.3-4.5s1.7-4.5,4.3-4.5
			c1,0,2,0.4,2.6,1.1v-0.8h3V1027.3z M409.3,1023.1c0,1.1,0.7,1.9,1.9,1.9c1.2,0,1.9-0.8,1.9-1.9c0-1-0.7-1.9-1.9-1.9
			C410.1,1021.2,409.3,1022,409.3,1023.1z"/>
		<path class="st4" d="M424.3,1021.6c-0.4-0.3-1-0.6-1.6-0.6c-1.2,0-2.1,0.9-2.1,2.1s0.9,2.1,2.1,2.1c0.5,0,1.1-0.2,1.5-0.6v2.5
			c-0.7,0.3-1.4,0.5-2.1,0.5c-2.5,0-4.6-1.9-4.6-4.4c0-2.7,2.1-4.6,4.8-4.6c0.7,0,1.4,0.2,2,0.5L424.3,1021.6L424.3,1021.6z"/>
		<path class="st4" d="M429.1,1013.6v6.3l0,0c0.7-0.9,1.5-1.4,2.7-1.4c2.2,0,3.2,1.4,3.2,3.6v5.2h-3v-4.4c0-1-0.1-2-1.4-2
			c-1.2,0-1.6,1-1.6,2v4.4h-3v-13.7L429.1,1013.6L429.1,1013.6z"/>
		<path class="st4" d="M446.7,1023.1c0,2.9-2.4,4.5-5.1,4.5s-5.1-1.6-5.1-4.5s2.4-4.5,5.1-4.5S446.7,1020.2,446.7,1023.1z
			 M439.6,1023.1c0,1.1,0.7,1.9,1.9,1.9c1.2,0,1.9-0.8,1.9-1.9c0-1-0.7-1.9-1.9-1.9C440.3,1021.2,439.6,1022,439.6,1023.1z"/>
	</g>
</g>
<rect id="XMLID_1325_" x="228" y="420.4" class="st2" width="264.8" height="57.2"/>
<rect id="XMLID_1619_" x="233.8" y="861.8" class="st2" width="249.1" height="64.3"/>
<g>
	<g>
		<path class="st4" d="M314.2,877.3v8.4c0,2.6-1.4,4.4-4.1,4.4c-1.4,0-2.5-0.7-3.2-1.8l1.9-2c0.4,0.5,0.9,1.1,1.3,1.1
			c1,0,0.9-1.1,0.9-1.8v-8.2h3.2V877.3z"/>
		<path class="st4" d="M324.9,886h-6.3c0,1.2,0.6,1.9,1.9,1.9c0.6,0,1.1-0.2,1.4-0.8h2.9c-0.2,1-0.8,1.7-1.6,2.2
			c-0.8,0.5-1.7,0.7-2.7,0.7c-2.8,0-4.9-1.6-4.9-4.5c0-2.8,1.9-4.5,4.7-4.5c2.9,0,4.7,1.8,4.7,4.7v0.3H324.9z M322.1,884.3
			c-0.1-0.8-0.9-1.3-1.7-1.3c-0.9,0-1.6,0.5-1.8,1.3H322.1z"/>
		<path class="st4" d="M329.6,889.8h-3v-6h-1.1v-2.5h1.1v-1.1c0-1.2,0-2,0.9-3c0.7-0.9,1.8-1.4,3-1.4c0.5,0,0.9,0.1,1.3,0.3v2.6
			c-0.3-0.1-0.7-0.3-1.1-0.3c-0.8,0-1,0.5-1,1.4v1.4h2.1v2.5h-2.1L329.6,889.8L329.6,889.8z"/>
		<path class="st4" d="M342,889.8h-3v-0.9l0,0c-0.5,0.8-1.6,1.2-2.6,1.2c-2.5,0-4.3-2.1-4.3-4.5s1.7-4.5,4.3-4.5c1,0,2,0.4,2.6,1.1
			v-0.8h3V889.8z M335.2,885.5c0,1.1,0.7,1.9,1.9,1.9c1.2,0,1.9-0.8,1.9-1.9c0-1-0.7-1.9-1.9-1.9
			C335.9,883.6,335.2,884.5,335.2,885.5z"/>
		<path class="st4" d="M347.3,889.8h-3v-6h-1v-2.5h1v-2.5h3v2.5h1.7v2.5h-1.7V889.8z"/>
		<path class="st4" d="M352.9,881.3v4.5c0,1.1,0.3,1.8,1.5,1.8s1.5-0.8,1.5-1.8v-4.5h3v5.1c0,2.8-2,3.7-4.5,3.7s-4.5-0.9-4.5-3.7
			v-5.1H352.9z"/>
		<path class="st4" d="M363.9,882.7L363.9,882.7c0.6-1,1.6-1.5,2.8-1.5h0.6v2.9c-0.4-0.2-0.8-0.3-1.3-0.3c-1.7,0-2.1,1.1-2.1,2.6
			v3.4h-3v-8.5h3V882.7z"/>
		<path class="st4" d="M377.6,889.8h-3v-0.9l0,0c-0.5,0.8-1.6,1.2-2.6,1.2c-2.5,0-4.3-2.1-4.3-4.5s1.7-4.5,4.3-4.5
			c1,0,2,0.4,2.6,1.1v-0.8h3V889.8z M370.9,885.5c0,1.1,0.7,1.9,1.9,1.9c1.2,0,1.9-0.8,1.9-1.9c0-1-0.7-1.9-1.9-1.9
			S370.9,884.5,370.9,885.5z"/>
		<path class="st4" d="M391.7,888.8L391.7,888.8c-0.6,0.8-1.6,1.2-2.6,1.2c-2.5,0-4.3-2.1-4.3-4.5s1.7-4.5,4.3-4.5
			c1,0,2,0.4,2.6,1.1V876h3v13.7h-3V888.8z M387.9,885.5c0,1.1,0.7,1.9,1.9,1.9c1.2,0,1.9-0.8,1.9-1.9c0-1-0.7-1.9-1.9-1.9
			S387.9,884.5,387.9,885.5z"/>
		<path class="st4" d="M405.3,886H399c0,1.2,0.6,1.9,1.9,1.9c0.6,0,1.1-0.2,1.4-0.8h2.9c-0.2,1-0.8,1.7-1.6,2.2
			c-0.8,0.5-1.7,0.7-2.7,0.7c-2.8,0-4.9-1.6-4.9-4.5c0-2.8,1.9-4.5,4.7-4.5c2.9,0,4.7,1.8,4.7,4.7v0.3H405.3z M402.5,884.3
			c-0.1-0.8-0.9-1.3-1.7-1.3c-0.9,0-1.6,0.5-1.8,1.3H402.5z"/>
		<path class="st4" d="M272.6,900.3c-0.6-0.5-1.4-0.8-2.2-0.8c-0.6,0-1.4,0.3-1.4,1s0.9,1,1.4,1.2l0.8,0.2c1.7,0.5,3.1,1.4,3.1,3.4
			c0,1.2-0.3,2.5-1.3,3.4c-1,0.8-2.3,1.2-3.5,1.2c-1.6,0-3.1-0.5-4.4-1.4l1.4-2.6c0.8,0.7,1.8,1.3,2.9,1.3c0.8,0,1.6-0.4,1.6-1.3
			c0-0.9-1.3-1.2-2-1.4c-2-0.6-3.4-1.1-3.4-3.5c0-2.5,1.8-4.2,4.3-4.2c1.3,0,2.8,0.4,3.9,1L272.6,900.3z"/>
		<path class="st4" d="M284.6,905.9h-6.3c0,1.2,0.6,1.9,1.9,1.9c0.6,0,1.1-0.2,1.4-0.8h2.9c-0.2,1-0.8,1.7-1.6,2.2
			c-0.8,0.5-1.7,0.7-2.7,0.7c-2.8,0-4.9-1.6-4.9-4.5c0-2.8,1.9-4.5,4.7-4.5c2.9,0,4.7,1.8,4.7,4.7v0.3H284.6z M281.8,904.1
			c-0.1-0.8-0.9-1.3-1.7-1.3c-0.9,0-1.6,0.5-1.8,1.3H281.8z"/>
		<path class="st4" d="M289,902.5L289,902.5c0.6-1,1.6-1.5,2.8-1.5h0.6v2.9c-0.4-0.2-0.8-0.3-1.3-0.3c-1.7,0-2.1,1.1-2.1,2.6v3.4h-3
			v-8.5h3V902.5z"/>
		<path class="st4" d="M298,905.5l2-4.4h3.4l-4.4,8.5h-2l-4.5-8.5h3.4L298,905.5z"/>
		<path class="st4" d="M307.3,897.9c0,0.9-0.8,1.7-1.7,1.7s-1.7-0.8-1.7-1.7s0.8-1.7,1.7-1.7S307.3,896.9,307.3,897.9z M307.1,909.6
			h-3v-8.5h3V909.6z"/>
		<path class="st4" d="M315.2,903.9c-0.4-0.3-1-0.6-1.6-0.6c-1.2,0-2.1,0.9-2.1,2.1c0,1.2,0.9,2.1,2.1,2.1c0.5,0,1.1-0.2,1.5-0.6
			v2.5c-0.7,0.3-1.4,0.5-2.1,0.5c-2.5,0-4.6-1.9-4.6-4.4c0-2.7,2.1-4.6,4.8-4.6c0.7,0,1.4,0.2,2,0.5L315.2,903.9L315.2,903.9z"/>
		<path class="st4" d="M320.3,897.9c0,0.9-0.8,1.7-1.7,1.7c-0.9,0-1.7-0.8-1.7-1.7s0.8-1.7,1.7-1.7S320.3,896.9,320.3,897.9z
			 M320.1,909.6h-3v-8.5h3V909.6z"/>
		<path class="st4" d="M331.7,905.4c0,2.9-2.4,4.5-5.1,4.5s-5.1-1.6-5.1-4.5s2.4-4.5,5.1-4.5S331.7,902.5,331.7,905.4z M324.6,905.4
			c0,1.1,0.7,1.9,1.9,1.9c1.2,0,1.9-0.8,1.9-1.9c0-1-0.7-1.9-1.9-1.9C325.3,903.5,324.6,904.3,324.6,905.4z"/>
		<path class="st4" d="M338.6,903.3c-0.5-0.2-1.1-0.4-1.6-0.4c-0.3,0-0.9,0.1-0.9,0.6c0,0.6,0.9,0.7,1.4,0.7
			c1.4,0.3,2.5,0.9,2.5,2.5c0,2.2-2,3.2-4,3.2c-1.2,0-2.4-0.3-3.4-1l1.1-2.1c0.6,0.4,1.6,0.9,2.4,0.9c0.4,0,0.9-0.2,0.9-0.6
			c0-0.7-0.9-0.7-1.9-0.9c-0.9-0.2-1.9-0.7-1.9-2.2c0-2.1,1.9-3,3.7-3c1,0,1.9,0.1,2.8,0.5L338.6,903.3z"/>
		<path class="st4" d="M356.2,901.3c-0.7-0.9-1.7-1.4-2.8-1.4c-2,0-3.3,1.5-3.3,3.5s1.4,3.4,3.4,3.4c1.1,0,2.1-0.5,2.8-1.3v3.9
			c-1.1,0.3-1.9,0.6-2.9,0.6c-1.7,0-3.4-0.7-4.7-1.8c-1.4-1.2-2-2.9-2-4.7c0-1.7,0.6-3.3,1.8-4.6c1.2-1.3,3-2,4.8-2c1,0,2,0.2,3,0.6
			L356.2,901.3L356.2,901.3z"/>
		<path class="st4" d="M367.4,909.6h-3v-0.9l0,0c-0.5,0.8-1.6,1.2-2.6,1.2c-2.5,0-4.3-2.1-4.3-4.5s1.7-4.5,4.3-4.5
			c1,0,2,0.4,2.6,1.1v-0.8h3V909.6z M360.6,905.4c0,1.1,0.7,1.9,1.9,1.9c1.2,0,1.9-0.8,1.9-1.9c0-1-0.7-1.9-1.9-1.9
			C361.3,903.5,360.6,904.3,360.6,905.4z"/>
		<path class="st4" d="M372.7,909.6h-3v-6h-1v-2.5h1v-2.5h3v2.5h1.7v2.5h-1.7V909.6z"/>
		<path class="st4" d="M384.6,909.6h-3v-0.9l0,0c-0.5,0.8-1.6,1.2-2.6,1.2c-2.5,0-4.3-2.1-4.3-4.5s1.7-4.5,4.3-4.5
			c1,0,2,0.4,2.6,1.1v-0.8h3V909.6z M377.8,905.4c0,1.1,0.7,1.9,1.9,1.9c1.2,0,1.9-0.8,1.9-1.9c0-1-0.7-1.9-1.9-1.9
			C378.6,903.5,377.8,904.3,377.8,905.4z"/>
		<path class="st4" d="M392.2,903.3c-0.5-0.2-1.1-0.4-1.6-0.4c-0.3,0-0.9,0.1-0.9,0.6c0,0.6,0.9,0.7,1.4,0.7
			c1.4,0.3,2.5,0.9,2.5,2.5c0,2.2-2,3.2-4,3.2c-1.2,0-2.4-0.3-3.4-1l1.1-2.1c0.6,0.4,1.6,0.9,2.4,0.9c0.4,0,0.9-0.2,0.9-0.6
			c0-0.7-0.9-0.7-1.9-0.9c-0.9-0.2-1.9-0.7-1.9-2.2c0-2.1,1.9-3,3.7-3c1,0,1.9,0.1,2.8,0.5L392.2,903.3z"/>
		<path class="st4" d="M398.4,909.6h-3v-6h-1v-2.5h1v-2.5h3v2.5h1.7v2.5h-1.7V909.6z"/>
		<path class="st4" d="M404.1,902.5L404.1,902.5c0.6-1,1.6-1.5,2.8-1.5h0.6v2.9c-0.4-0.2-0.8-0.3-1.3-0.3c-1.7,0-2.1,1.1-2.1,2.6
			v3.4h-3v-8.5h3V902.5z"/>
		<path class="st4" d="M417.9,909.6h-3v-0.9l0,0c-0.5,0.8-1.6,1.2-2.6,1.2c-2.5,0-4.3-2.1-4.3-4.5s1.7-4.5,4.3-4.5
			c1,0,2,0.4,2.6,1.1v-0.8h3V909.6z M411.1,905.4c0,1.1,0.7,1.9,1.9,1.9c1.2,0,1.9-0.8,1.9-1.9c0-1-0.7-1.9-1.9-1.9
			C411.8,903.5,411.1,904.3,411.1,905.4z"/>
		<path class="st4" d="M422.9,909.6h-3v-13.7h3V909.6z"/>
		<path class="st4" d="M433.6,905.9h-6.3c0,1.2,0.6,1.9,1.9,1.9c0.6,0,1.1-0.2,1.4-0.8h2.9c-0.2,1-0.8,1.7-1.6,2.2
			c-0.8,0.5-1.7,0.7-2.7,0.7c-2.8,0-4.9-1.6-4.9-4.5c0-2.8,1.9-4.5,4.7-4.5c2.9,0,4.7,1.8,4.7,4.7v0.3H433.6z M430.8,904.1
			c-0.1-0.8-0.9-1.3-1.7-1.3c-0.9,0-1.6,0.5-1.8,1.3H430.8z"/>
		<path class="st4" d="M440.6,903.3c-0.5-0.2-1.1-0.4-1.6-0.4c-0.3,0-0.9,0.1-0.9,0.6c0,0.6,0.9,0.7,1.4,0.7
			c1.4,0.3,2.5,0.9,2.5,2.5c0,2.2-2,3.2-4,3.2c-1.2,0-2.4-0.3-3.4-1l1.1-2.1c0.6,0.4,1.6,0.9,2.4,0.9c0.4,0,0.9-0.2,0.9-0.6
			c0-0.7-0.9-0.7-1.9-0.9c-0.9-0.2-1.9-0.7-1.9-2.2c0-2.1,1.9-3,3.7-3c1,0,1.9,0.1,2.8,0.5L440.6,903.3z"/>
		<path class="st4" d="M447.2,908c0,1.1-0.9,1.9-1.9,1.9c-1.1,0-1.9-0.9-1.9-1.9c0-1.1,0.9-1.9,1.9-1.9
			C446.4,906.1,447.2,906.9,447.2,908z"/>
	</g>
</g>
<rect id="XMLID_1320_" x="545.3" y="528.2" class="st2" width="264.8" height="64.1"/>
<g>
	<g>
		<path class="st4" d="M566.3,555.3H563v-9.7h-2.7v-2.7h8.6v2.7h-2.7v9.7H566.3z"/>
		<path class="st4" d="M577.5,551.5h-6.3c0,1.2,0.6,1.9,1.9,1.9c0.6,0,1.1-0.2,1.4-0.8h2.9c-0.2,1-0.8,1.7-1.6,2.2s-1.7,0.7-2.7,0.7
			c-2.8,0-4.9-1.6-4.9-4.5c0-2.8,1.9-4.5,4.7-4.5c2.9,0,4.7,1.8,4.7,4.7v0.3H577.5z M572.5,545.5l-1.3-1l2.3-2.8l1.8,1.3
			L572.5,545.5z M574.7,549.8c-0.1-0.8-0.9-1.3-1.7-1.3c-0.9,0-1.6,0.5-1.8,1.3H574.7z"/>
		<path class="st4" d="M585,549.5c-0.4-0.3-1-0.6-1.6-0.6c-1.2,0-2.1,0.9-2.1,2.1c0,1.2,0.9,2.1,2.1,2.1c0.5,0,1.1-0.2,1.5-0.6v2.5
			c-0.7,0.3-1.4,0.5-2.1,0.5c-2.5,0-4.6-1.9-4.6-4.4c0-2.7,2.1-4.6,4.8-4.6c0.7,0,1.4,0.2,2,0.5L585,549.5L585,549.5z"/>
		<path class="st4" d="M589.9,547.9L589.9,547.9c0.7-1,1.6-1.4,2.7-1.4c2.3,0,3.2,1.4,3.2,3.5v5.2h-3v-4.1c0-0.8,0.1-2.2-1.4-2.2
			c-1.2,0-1.6,0.9-1.6,2v4.4h-3v-8.5h3L589.9,547.9L589.9,547.9z"/>
		<path class="st4" d="M601,543.5c0,0.9-0.8,1.7-1.7,1.7s-1.7-0.8-1.7-1.7s0.8-1.7,1.7-1.7C600.3,541.8,601,542.6,601,543.5z
			 M600.8,555.3h-3v-8.5h3V555.3z"/>
		<path class="st4" d="M609,549.5c-0.4-0.3-1-0.6-1.6-0.6c-1.2,0-2.1,0.9-2.1,2.1c0,1.2,0.9,2.1,2.1,2.1c0.5,0,1.1-0.2,1.5-0.6v2.5
			c-0.7,0.3-1.4,0.5-2.1,0.5c-2.5,0-4.6-1.9-4.6-4.4c0-2.7,2.1-4.6,4.8-4.6c0.7,0,1.4,0.2,2,0.5L609,549.5L609,549.5z"/>
		<path class="st4" d="M620.4,551c0,2.9-2.4,4.5-5.1,4.5c-2.7,0-5.1-1.6-5.1-4.5s2.4-4.5,5.1-4.5S620.4,548.1,620.4,551z M613.4,551
			c0,1.1,0.7,1.9,1.9,1.9s1.9-0.8,1.9-1.9c0-1-0.7-1.9-1.9-1.9C614.1,549.1,613.4,550,613.4,551z"/>
		<path class="st4" d="M633.8,554.3L633.8,554.3c-0.6,0.8-1.6,1.2-2.6,1.2c-2.5,0-4.3-2.1-4.3-4.5s1.7-4.5,4.3-4.5
			c1,0,2,0.4,2.6,1.1v-6.1h3v13.7h-3V554.3z M630.1,551c0,1.1,0.7,1.9,1.9,1.9s1.9-0.8,1.9-1.9c0-1-0.7-1.9-1.9-1.9
			S630.1,550,630.1,551z"/>
		<path class="st4" d="M647.4,551.5h-6.3c0,1.2,0.6,1.9,1.9,1.9c0.6,0,1.1-0.2,1.4-0.8h2.9c-0.2,1-0.8,1.7-1.6,2.2s-1.7,0.7-2.7,0.7
			c-2.8,0-4.9-1.6-4.9-4.5c0-2.8,1.9-4.5,4.7-4.5c2.9,0,4.7,1.8,4.7,4.7v0.3H647.4z M644.7,549.8c-0.1-0.8-0.9-1.3-1.7-1.3
			c-0.9,0-1.6,0.5-1.8,1.3H644.7z"/>
		<path class="st4" d="M651.8,555.3h-3v-13.7h3V555.3z"/>
		<path class="st4" d="M665.9,554.3L665.9,554.3c-0.6,0.8-1.6,1.2-2.6,1.2c-2.5,0-4.3-2.1-4.3-4.5s1.7-4.5,4.3-4.5
			c1,0,2,0.4,2.6,1.1v-6.1h3v13.7h-3V554.3z M662.1,551c0,1.1,0.7,1.9,1.9,1.9s1.9-0.8,1.9-1.9c0-1-0.7-1.9-1.9-1.9
			S662.1,550,662.1,551z"/>
		<path class="st4" d="M679.5,551.5h-6.3c0,1.2,0.6,1.9,1.9,1.9c0.6,0,1.1-0.2,1.4-0.8h2.9c-0.2,1-0.8,1.7-1.6,2.2s-1.7,0.7-2.7,0.7
			c-2.8,0-4.9-1.6-4.9-4.5c0-2.8,1.9-4.5,4.7-4.5c2.9,0,4.7,1.8,4.7,4.7v0.3H679.5z M676.7,549.8c-0.1-0.8-0.9-1.3-1.7-1.3
			c-0.9,0-1.6,0.5-1.8,1.3H676.7z"/>
		<path class="st4" d="M683.8,547.7L683.8,547.7c0.6-0.8,1.6-1.2,2.6-1.2c2.5,0,4.3,2.1,4.3,4.6c0,2.4-1.7,4.5-4.3,4.5
			c-1,0-2-0.3-2.6-1.1v5h-3v-12.7h3V547.7z M683.7,551c0,1.1,0.7,1.9,1.9,1.9s1.9-0.8,1.9-1.9c0-1-0.7-1.9-1.9-1.9
			S683.7,550,683.7,551z"/>
		<path class="st4" d="M701.4,555.3h-3v-0.9l0,0c-0.5,0.8-1.6,1.2-2.6,1.2c-2.5,0-4.3-2.1-4.3-4.5s1.7-4.5,4.3-4.5
			c1,0,2,0.4,2.6,1.1v-0.8h3V555.3z M694.6,551c0,1.1,0.7,1.9,1.9,1.9s1.9-0.8,1.9-1.9c0-1-0.7-1.9-1.9-1.9
			C695.4,549.1,694.6,550,694.6,551z"/>
		<path class="st4" d="M706.4,548.2L706.4,548.2c0.6-1,1.6-1.5,2.8-1.5h0.6v2.9c-0.4-0.2-0.8-0.3-1.3-0.3c-1.7,0-2.1,1.1-2.1,2.6
			v3.4h-3v-8.5h3V548.2z"/>
		<path class="st4" d="M714.5,555.3h-3v-6h-1v-2.5h1v-2.5h3v2.5h1.7v2.5h-1.7V555.3z"/>
		<path class="st4" d="M726.5,555.3h-3v-0.9l0,0c-0.5,0.8-1.6,1.2-2.6,1.2c-2.5,0-4.3-2.1-4.3-4.5s1.7-4.5,4.3-4.5
			c1,0,2,0.4,2.6,1.1v-0.8h3V555.3z M719.7,551c0,1.1,0.7,1.9,1.9,1.9s1.9-0.8,1.9-1.9c0-1-0.7-1.9-1.9-1.9S719.7,550,719.7,551z"/>
		<path class="st4" d="M731.5,547.8L731.5,547.8c0.7-0.9,1.6-1.3,2.7-1.3c1.2,0,2.3,0.5,2.9,1.6c0.6-1.1,1.7-1.6,2.9-1.6
			c2.2,0,2.9,1.4,2.9,3.4v5.4h-3v-4.1c0-0.9,0-2.3-1.2-2.3c-1.4,0-1.4,1.3-1.4,2.3v4.1h-3v-4.1c0-0.9,0-2.4-1.3-2.4
			s-1.3,1.4-1.3,2.4v4.1h-3v-8.5h3v1H731.5z"/>
		<path class="st4" d="M753.5,551.5h-6.3c0,1.2,0.6,1.9,1.9,1.9c0.6,0,1.1-0.2,1.4-0.8h2.9c-0.2,1-0.8,1.7-1.6,2.2s-1.7,0.7-2.7,0.7
			c-2.8,0-4.9-1.6-4.9-4.5c0-2.8,1.9-4.5,4.7-4.5c2.9,0,4.7,1.8,4.7,4.7v0.3H753.5z M750.7,549.8c-0.1-0.8-0.9-1.3-1.7-1.3
			c-0.9,0-1.6,0.5-1.8,1.3H750.7z"/>
		<path class="st4" d="M757.9,547.9L757.9,547.9c0.7-1,1.6-1.4,2.7-1.4c2.3,0,3.2,1.4,3.2,3.5v5.2h-3v-4.1c0-0.8,0.1-2.2-1.4-2.2
			c-1.2,0-1.6,0.9-1.6,2v4.4h-3v-8.5h3L757.9,547.9L757.9,547.9z"/>
		<path class="st4" d="M769.1,555.3h-3v-6h-1v-2.5h1v-2.5h3v2.5h1.7v2.5h-1.7V555.3z"/>
		<path class="st4" d="M781.4,551c0,2.9-2.4,4.5-5.1,4.5c-2.7,0-5.1-1.6-5.1-4.5s2.4-4.5,5.1-4.5S781.4,548.1,781.4,551z M774.4,551
			c0,1.1,0.7,1.9,1.9,1.9s1.9-0.8,1.9-1.9c0-1-0.7-1.9-1.9-1.9C775.1,549.1,774.4,550,774.4,551z"/>
		<path class="st4" d="M616.5,574.2L616.5,574.2c-0.6,0.8-1.6,1.2-2.6,1.2c-2.5,0-4.3-2.1-4.3-4.5s1.7-4.5,4.3-4.5
			c1,0,2,0.4,2.6,1.1v-6.1h3v13.7h-3V574.2z M612.8,570.9c0,1.1,0.7,1.9,1.9,1.9s1.9-0.8,1.9-1.9c0-1-0.7-1.9-1.9-1.9
			S612.8,569.8,612.8,570.9z"/>
		<path class="st4" d="M630.1,571.4h-6.3c0,1.2,0.6,1.9,1.9,1.9c0.6,0,1.1-0.2,1.4-0.8h2.9c-0.2,1-0.8,1.7-1.6,2.2s-1.7,0.7-2.7,0.7
			c-2.8,0-4.9-1.6-4.9-4.5c0-2.8,1.9-4.5,4.7-4.5c2.9,0,4.7,1.8,4.7,4.7v0.3H630.1z M627.3,569.7c-0.1-0.8-0.9-1.3-1.7-1.3
			c-0.9,0-1.6,0.5-1.8,1.3H627.3z"/>
		<path class="st4" d="M643.3,569.4c-0.4-0.3-1-0.6-1.6-0.6c-1.2,0-2.1,0.9-2.1,2.1c0,1.2,0.9,2.1,2.1,2.1c0.5,0,1.1-0.2,1.5-0.6
			v2.5c-0.7,0.3-1.4,0.5-2.1,0.5c-2.5,0-4.6-1.9-4.6-4.4c0-2.7,2.1-4.6,4.8-4.6c0.7,0,1.4,0.2,2,0.5L643.3,569.4L643.3,569.4z"/>
		<path class="st4" d="M654.5,575.1h-3v-0.9l0,0c-0.5,0.8-1.6,1.2-2.6,1.2c-2.5,0-4.3-2.1-4.3-4.5s1.7-4.5,4.3-4.5
			c1,0,2,0.4,2.6,1.1v-0.8h3V575.1z M647.7,570.9c0,1.1,0.7,1.9,1.9,1.9s1.9-0.8,1.9-1.9c0-1-0.7-1.9-1.9-1.9
			S647.7,569.8,647.7,570.9z"/>
		<path class="st4" d="M659.5,568L659.5,568c0.6-1,1.6-1.5,2.8-1.5h0.6v2.9c-0.4-0.2-0.8-0.3-1.3-0.3c-1.7,0-2.1,1.1-2.1,2.6v3.4h-3
			v-8.5h3V568z"/>
		<path class="st4" d="M667.5,575.1h-3v-6h-1v-2.5h1v-2.5h3v2.5h1.7v2.5h-1.7V575.1z"/>
		<path class="st4" d="M679.8,570.9c0,2.9-2.4,4.5-5.1,4.5c-2.7,0-5.1-1.6-5.1-4.5s2.4-4.5,5.1-4.5
			C677.4,566.4,679.8,568,679.8,570.9z M672.8,570.9c0,1.1,0.7,1.9,1.9,1.9s1.9-0.8,1.9-1.9c0-1-0.7-1.9-1.9-1.9
			S672.8,569.8,672.8,570.9z"/>
		<path class="st4" d="M690.5,574.3c0,3.6-1.8,5.1-4.9,5.1c-2,0-4.6-1-4.8-3.2h3.4c0.1,0.3,0.3,0.5,0.6,0.6s0.6,0.2,0.9,0.2
			c1.6,0,1.9-1.1,1.9-2.4v-0.4c-0.8,0.8-1.6,1.2-2.7,1.2c-2.5,0-4.2-1.9-4.2-4.3c0-2.5,1.8-4.6,4.4-4.6c1,0,1.9,0.3,2.5,1.2l0,0
			v-0.9h3v7.5H690.5z M683.7,570.8c0,1.1,0.7,1.9,1.9,1.9s1.9-0.8,1.9-1.9c0-1-0.7-1.9-1.9-1.9C684.4,568.9,683.7,569.8,683.7,570.8
			z"/>
		<path class="st4" d="M695.4,568L695.4,568c0.6-1,1.6-1.5,2.8-1.5h0.6v2.9c-0.4-0.2-0.8-0.3-1.3-0.3c-1.7,0-2.1,1.1-2.1,2.6v3.4h-3
			v-8.5h3V568z"/>
		<path class="st4" d="M709.1,575.1h-3v-0.9l0,0c-0.5,0.8-1.6,1.2-2.6,1.2c-2.5,0-4.3-2.1-4.3-4.5s1.7-4.5,4.3-4.5
			c1,0,2,0.4,2.6,1.1v-0.8h3V575.1z M702.4,570.9c0,1.1,0.7,1.9,1.9,1.9s1.9-0.8,1.9-1.9c0-1-0.7-1.9-1.9-1.9
			C703.1,569,702.4,569.8,702.4,570.9z"/>
		<path class="st4" d="M714.4,575.1h-3v-6h-1.1v-2.5h1.1v-1.1c0-1.2,0-2,0.9-3c0.7-0.9,1.8-1.4,3-1.4c0.5,0,0.9,0.1,1.3,0.3v2.6
			c-0.3-0.1-0.7-0.3-1.1-0.3c-0.8,0-1,0.5-1,1.4v1.4h2.1v2.5h-2.1v6.1H714.4z"/>
		<path class="st4" d="M718.6,565.4l-1.3-1l2.3-2.8l1.8,1.3L718.6,565.4z M720.6,575.1h-3v-8.5h3V575.1z"/>
		<path class="st4" d="M731.8,575.1h-3v-0.9l0,0c-0.5,0.8-1.6,1.2-2.6,1.2c-2.5,0-4.3-2.1-4.3-4.5s1.7-4.5,4.3-4.5
			c1,0,2,0.4,2.6,1.1v-0.8h3V575.1z M725.1,570.9c0,1.1,0.7,1.9,1.9,1.9s1.9-0.8,1.9-1.9c0-1-0.7-1.9-1.9-1.9
			S725.1,569.8,725.1,570.9z"/>
	</g>
</g>
<rect id="XMLID_1317_" x="230.9" y="528.2" class="st2" width="264.8" height="64.1"/>
<g>
	<g>
		<path class="st4" d="M309.1,542.8h5c2.7,0,4.5,1.2,4.5,4.1c0,2.9-1.6,4.2-4.4,4.2h-1.8v4.1h-3.2v-12.4H309.1z M312.3,548.5h0.5
			c1.2,0,2.3,0,2.3-1.5c0-1.6-1.1-1.6-2.3-1.6h-0.5V548.5z"/>
		<path class="st4" d="M322.9,548.2L322.9,548.2c0.6-1,1.6-1.5,2.8-1.5h0.6v2.9c-0.4-0.2-0.8-0.3-1.3-0.3c-1.7,0-2.1,1.1-2.1,2.6
			v3.4h-3v-8.5h3V548.2z"/>
		<path class="st4" d="M336.7,551c0,2.9-2.4,4.5-5.1,4.5s-5.1-1.6-5.1-4.5s2.4-4.5,5.1-4.5S336.7,548.1,336.7,551z M329.7,551
			c0,1.1,0.7,1.9,1.9,1.9c1.2,0,1.9-0.8,1.9-1.9c0-1-0.7-1.9-1.9-1.9C330.4,549.1,329.7,550,329.7,551z"/>
		<path class="st4" d="M341.4,555.3h-3v-6h-1.1v-2.5h1.1v-1.1c0-1.2,0-2,0.9-3c0.7-0.9,1.8-1.4,3-1.4c0.5,0,0.9,0.1,1.3,0.3v2.6
			c-0.3-0.1-0.7-0.3-1.1-0.3c-0.8,0-1,0.5-1,1.4v1.4h2.1v2.5h-2.1L341.4,555.3L341.4,555.3z"/>
		<path class="st4" d="M353.2,551.5h-6.3c0,1.2,0.6,1.9,1.9,1.9c0.6,0,1.1-0.2,1.4-0.8h2.9c-0.2,1-0.8,1.7-1.6,2.2
			c-0.8,0.5-1.7,0.7-2.7,0.7c-2.8,0-4.9-1.6-4.9-4.5c0-2.8,1.9-4.5,4.7-4.5c2.9,0,4.7,1.8,4.7,4.7v0.3H353.2z M350.4,549.8
			c-0.1-0.8-0.9-1.3-1.7-1.3c-0.9,0-1.6,0.5-1.8,1.3H350.4z"/>
		<path class="st4" d="M360.2,549c-0.5-0.2-1.1-0.4-1.6-0.4c-0.3,0-0.9,0.1-0.9,0.6c0,0.6,0.9,0.7,1.4,0.7c1.4,0.3,2.5,0.9,2.5,2.5
			c0,2.2-2,3.2-4,3.2c-1.2,0-2.4-0.3-3.4-1l1.1-2.1c0.6,0.4,1.6,0.9,2.4,0.9c0.4,0,0.9-0.2,0.9-0.6c0-0.7-0.9-0.7-1.9-0.9
			c-0.9-0.2-1.9-0.7-1.9-2.2c0-2.1,1.9-3,3.7-3c1,0,1.9,0.1,2.8,0.5L360.2,549z"/>
		<path class="st4" d="M366.3,543.5c0,0.9-0.8,1.7-1.7,1.7c-0.9,0-1.7-0.8-1.7-1.7s0.8-1.7,1.7-1.7S366.3,542.6,366.3,543.5z
			 M366.1,555.3h-3v-8.5h3V555.3z"/>
		<path class="st4" d="M377.7,551c0,2.9-2.4,4.5-5.1,4.5s-5.1-1.6-5.1-4.5s2.4-4.5,5.1-4.5S377.7,548.1,377.7,551z M370.6,551
			c0,1.1,0.7,1.9,1.9,1.9c1.2,0,1.9-0.8,1.9-1.9c0-1-0.7-1.9-1.9-1.9C371.3,549.1,370.6,550,370.6,551z"/>
		<path class="st4" d="M382,547.9L382,547.9c0.7-1,1.6-1.4,2.7-1.4c2.3,0,3.2,1.4,3.2,3.5v5.2h-3v-4.1c0-0.8,0.1-2.2-1.4-2.2
			c-1.2,0-1.6,0.9-1.6,2v4.4h-3v-8.5h3L382,547.9L382,547.9z"/>
		<path class="st4" d="M399.2,555.3h-3v-0.9l0,0c-0.5,0.8-1.6,1.2-2.6,1.2c-2.5,0-4.3-2.1-4.3-4.5s1.7-4.5,4.3-4.5
			c1,0,2,0.4,2.6,1.1v-0.8h3V555.3z M392.5,551c0,1.1,0.7,1.9,1.9,1.9c1.2,0,1.9-0.8,1.9-1.9c0-1-0.7-1.9-1.9-1.9
			S392.5,550,392.5,551z"/>
		<path class="st4" d="M404.2,555.3h-3v-13.7h3V555.3z"/>
		<path class="st4" d="M331.5,575.1h-3v-6h-1v-2.5h1v-2.5h3v2.5h1.7v2.5h-1.7V575.1z"/>
		<path class="st4" d="M342.8,571.4h-6.3c0,1.2,0.6,1.9,1.9,1.9c0.6,0,1.1-0.2,1.4-0.8h2.9c-0.2,1-0.8,1.7-1.6,2.2
			c-0.8,0.5-1.7,0.7-2.7,0.7c-2.8,0-4.9-1.6-4.9-4.5c0-2.8,1.9-4.5,4.7-4.5c2.9,0,4.7,1.8,4.7,4.7v0.3H342.8z M337.8,565.4l-1.3-1
			l2.3-2.8l1.8,1.3L337.8,565.4z M340,569.7c-0.1-0.8-0.9-1.3-1.7-1.3c-0.9,0-1.6,0.5-1.8,1.3H340z"/>
		<path class="st4" d="M350.3,569.4c-0.4-0.3-1-0.6-1.6-0.6c-1.2,0-2.1,0.9-2.1,2.1c0,1.2,0.9,2.1,2.1,2.1c0.5,0,1.1-0.2,1.5-0.6
			v2.5c-0.7,0.3-1.4,0.5-2.1,0.5c-2.5,0-4.6-1.9-4.6-4.4c0-2.7,2.1-4.6,4.8-4.6c0.7,0,1.4,0.2,2,0.5L350.3,569.4L350.3,569.4z"/>
		<path class="st4" d="M355.2,567.7L355.2,567.7c0.7-1,1.6-1.4,2.7-1.4c2.3,0,3.2,1.4,3.2,3.5v5.2h-3v-4c0-0.8,0.1-2.2-1.4-2.2
			c-1.2,0-1.6,0.9-1.6,2v4.4h-3v-8.5h3L355.2,567.7L355.2,567.7z"/>
		<path class="st4" d="M366.3,563.4c0,0.9-0.8,1.7-1.7,1.7s-1.7-0.8-1.7-1.7s0.8-1.7,1.7-1.7S366.3,562.5,366.3,563.4z M366.1,575.1
			h-3v-8.5h3V575.1z"/>
		<path class="st4" d="M374.2,569.4c-0.4-0.3-1-0.6-1.6-0.6c-1.2,0-2.1,0.9-2.1,2.1c0,1.2,0.9,2.1,2.1,2.1c0.5,0,1.1-0.2,1.5-0.6
			v2.5c-0.7,0.3-1.4,0.5-2.1,0.5c-2.5,0-4.6-1.9-4.6-4.4c0-2.7,2.1-4.6,4.8-4.6c0.7,0,1.4,0.2,2,0.5L374.2,569.4L374.2,569.4z"/>
		<path class="st4" d="M385.7,570.9c0,2.9-2.4,4.5-5.1,4.5s-5.1-1.6-5.1-4.5s2.4-4.5,5.1-4.5S385.7,568,385.7,570.9z M378.7,570.9
			c0,1.1,0.7,1.9,1.9,1.9c1.2,0,1.9-0.8,1.9-1.9c0-1-0.7-1.9-1.9-1.9C379.4,569,378.7,569.8,378.7,570.9z"/>
	</g>
</g>
<rect id="XMLID_1616_" x="230.9" y="750.7" class="st2" width="264.8" height="64.1"/>
<g>
	<g>
		<path class="st4" d="M309.1,765.3h5c2.7,0,4.5,1.2,4.5,4.1c0,2.9-1.6,4.2-4.4,4.2h-1.8v4.1h-3.2v-12.4H309.1z M312.3,771h0.5
			c1.2,0,2.3,0,2.3-1.5c0-1.6-1.1-1.6-2.3-1.6h-0.5V771z"/>
		<path class="st4" d="M322.9,770.6L322.9,770.6c0.6-1,1.6-1.5,2.8-1.5h0.6v2.9c-0.4-0.2-0.8-0.3-1.3-0.3c-1.7,0-2.1,1.1-2.1,2.6
			v3.4h-3v-8.5h3V770.6z"/>
		<path class="st4" d="M336.7,773.5c0,2.9-2.4,4.5-5.1,4.5s-5.1-1.6-5.1-4.5s2.4-4.5,5.1-4.5S336.7,770.6,336.7,773.5z M329.7,773.5
			c0,1.1,0.7,1.9,1.9,1.9c1.2,0,1.9-0.8,1.9-1.9c0-1-0.7-1.9-1.9-1.9C330.4,771.6,329.7,772.5,329.7,773.5z"/>
		<path class="st4" d="M341.4,777.7h-3v-6h-1.1v-2.5h1.1v-1.1c0-1.2,0-2,0.9-3c0.7-0.9,1.8-1.4,3-1.4c0.5,0,0.9,0.1,1.3,0.3v2.6
			c-0.3-0.1-0.7-0.3-1.1-0.3c-0.8,0-1,0.5-1,1.4v1.4h2.1v2.5h-2.1L341.4,777.7L341.4,777.7z"/>
		<path class="st4" d="M353.2,774h-6.3c0,1.2,0.6,1.9,1.9,1.9c0.6,0,1.1-0.2,1.4-0.8h2.9c-0.2,1-0.8,1.7-1.6,2.2
			c-0.8,0.5-1.7,0.7-2.7,0.7c-2.8,0-4.9-1.6-4.9-4.5c0-2.8,1.9-4.5,4.7-4.5c2.9,0,4.7,1.8,4.7,4.7v0.3H353.2z M350.4,772.3
			c-0.1-0.8-0.9-1.3-1.7-1.3c-0.9,0-1.6,0.5-1.8,1.3H350.4z"/>
		<path class="st4" d="M360.2,771.4c-0.5-0.2-1.1-0.4-1.6-0.4c-0.3,0-0.9,0.1-0.9,0.6c0,0.6,0.9,0.7,1.4,0.7
			c1.4,0.3,2.5,0.9,2.5,2.5c0,2.2-2,3.2-4,3.2c-1.2,0-2.4-0.3-3.4-1l1.1-2.1c0.6,0.4,1.6,0.9,2.4,0.9c0.4,0,0.9-0.2,0.9-0.6
			c0-0.7-0.9-0.7-1.9-0.9c-0.9-0.2-1.9-0.7-1.9-2.2c0-2.1,1.9-3,3.7-3c1,0,1.9,0.1,2.8,0.5L360.2,771.4z"/>
		<path class="st4" d="M366.3,766c0,0.9-0.8,1.7-1.7,1.7c-0.9,0-1.7-0.8-1.7-1.7s0.8-1.7,1.7-1.7S366.3,765.1,366.3,766z
			 M366.1,777.7h-3v-8.5h3V777.7z"/>
		<path class="st4" d="M377.7,773.5c0,2.9-2.4,4.5-5.1,4.5s-5.1-1.6-5.1-4.5s2.4-4.5,5.1-4.5S377.7,770.6,377.7,773.5z M370.6,773.5
			c0,1.1,0.7,1.9,1.9,1.9c1.2,0,1.9-0.8,1.9-1.9c0-1-0.7-1.9-1.9-1.9C371.3,771.6,370.6,772.5,370.6,773.5z"/>
		<path class="st4" d="M382,770.3L382,770.3c0.7-1,1.6-1.4,2.7-1.4c2.3,0,3.2,1.4,3.2,3.5v5.2h-3v-4.1c0-0.8,0.1-2.2-1.4-2.2
			c-1.2,0-1.6,0.9-1.6,2v4.4h-3v-8.5h3L382,770.3L382,770.3z"/>
		<path class="st4" d="M399.2,777.7h-3v-0.9l0,0c-0.5,0.8-1.6,1.2-2.6,1.2c-2.5,0-4.3-2.1-4.3-4.5s1.7-4.5,4.3-4.5
			c1,0,2,0.4,2.6,1.1v-0.8h3V777.7z M392.5,773.5c0,1.1,0.7,1.9,1.9,1.9c1.2,0,1.9-0.8,1.9-1.9c0-1-0.7-1.9-1.9-1.9
			S392.5,772.5,392.5,773.5z"/>
		<path class="st4" d="M404.2,777.7h-3V764h3V777.7z"/>
		<path class="st4" d="M331.5,797.6h-3v-6h-1v-2.5h1v-2.5h3v2.5h1.7v2.5h-1.7V797.6z"/>
		<path class="st4" d="M342.8,793.8h-6.3c0,1.2,0.6,1.9,1.9,1.9c0.6,0,1.1-0.2,1.4-0.8h2.9c-0.2,1-0.8,1.7-1.6,2.2
			c-0.8,0.5-1.7,0.7-2.7,0.7c-2.8,0-4.9-1.6-4.9-4.5c0-2.8,1.9-4.5,4.7-4.5c2.9,0,4.7,1.8,4.7,4.7v0.3H342.8z M337.8,787.8l-1.3-1
			l2.3-2.8l1.8,1.3L337.8,787.8z M340,792.1c-0.1-0.8-0.9-1.3-1.7-1.3c-0.9,0-1.6,0.5-1.8,1.3H340z"/>
		<path class="st4" d="M350.3,791.9c-0.4-0.3-1-0.6-1.6-0.6c-1.2,0-2.1,0.9-2.1,2.1c0,1.2,0.9,2.1,2.1,2.1c0.5,0,1.1-0.2,1.5-0.6
			v2.5c-0.7,0.3-1.4,0.5-2.1,0.5c-2.5,0-4.6-1.9-4.6-4.4c0-2.7,2.1-4.6,4.8-4.6c0.7,0,1.4,0.2,2,0.5L350.3,791.9L350.3,791.9z"/>
		<path class="st4" d="M355.2,790.2L355.2,790.2c0.7-1,1.6-1.4,2.7-1.4c2.3,0,3.2,1.4,3.2,3.5v5.2h-3v-4.1c0-0.8,0.1-2.2-1.4-2.2
			c-1.2,0-1.6,0.9-1.6,2v4.4h-3v-8.5h3L355.2,790.2L355.2,790.2z"/>
		<path class="st4" d="M366.3,785.8c0,0.9-0.8,1.7-1.7,1.7s-1.7-0.8-1.7-1.7s0.8-1.7,1.7-1.7S366.3,784.9,366.3,785.8z M366.1,797.6
			h-3v-8.5h3V797.6z"/>
		<path class="st4" d="M374.2,791.9c-0.4-0.3-1-0.6-1.6-0.6c-1.2,0-2.1,0.9-2.1,2.1c0,1.2,0.9,2.1,2.1,2.1c0.5,0,1.1-0.2,1.5-0.6
			v2.5c-0.7,0.3-1.4,0.5-2.1,0.5c-2.5,0-4.6-1.9-4.6-4.4c0-2.7,2.1-4.6,4.8-4.6c0.7,0,1.4,0.2,2,0.5L374.2,791.9L374.2,791.9z"/>
		<path class="st4" d="M385.7,793.4c0,2.9-2.4,4.5-5.1,4.5s-5.1-1.6-5.1-4.5s2.4-4.5,5.1-4.5S385.7,790.5,385.7,793.4z M378.7,793.4
			c0,1.1,0.7,1.9,1.9,1.9c1.2,0,1.9-0.8,1.9-1.9c0-1-0.7-1.9-1.9-1.9C379.4,791.4,378.7,792.3,378.7,793.4z"/>
	</g>
</g>
<g>
	<g>
		<path class="st4" d="M341.6,446.2c-0.9-1.3-2.4-1.9-4-1.9c-2.8,0-4.7,2.1-4.7,4.8c0,2.8,1.9,4.8,4.7,4.8c1.5,0,3-0.7,3.9-1.9v5.5
			c-1.5,0.5-2.6,0.8-4,0.8c-2.4,0-4.8-0.9-6.6-2.6c-1.9-1.7-2.8-4-2.8-6.6c0-2.4,0.9-4.7,2.6-6.4c1.7-1.8,4.2-2.8,6.7-2.8
			c1.5,0,2.8,0.3,4.2,0.9L341.6,446.2L341.6,446.2z"/>
		<path class="st4" d="M348.9,454.7l-1.2,3h-4.8l6.7-17.5h5l6.6,17.5h-4.8l-1.1-3H348.9z M352.1,445.7L352.1,445.7l-1.9,5.6h3.8
			L352.1,445.7z"/>
		<path class="st4" d="M371,440.3v11.8c0,3.7-1.9,6.1-5.8,6.1c-1.9,0-3.5-1-4.5-2.6l2.6-2.8c0.5,0.7,1.2,1.5,1.8,1.5
			c1.3,0,1.3-1.6,1.3-2.6v-11.5h4.6V440.3z"/>
		<path class="st4" d="M378.3,454.7l-1.2,3h-4.8l6.7-17.5h5l6.6,17.5h-4.8l-1.1-3H378.3z M381.5,445.7L381.5,445.7l-1.9,5.6h3.8
			L381.5,445.7z"/>
	</g>
</g>
<polygon id="XMLID_1307_" class="st6" points="360.5,300.4 354.4,289.8 348.3,279.3 360.5,279.3 372.6,279.3 366.6,289.8 "/>
<polygon id="XMLID_1306_" class="st6" points="359.2,421.2 353.1,410.7 347.1,400.1 359.2,400.1 371.4,400.1 365.3,410.7 "/>
<polygon id="XMLID_1302_" class="st6" points="359.2,529.5 353.1,519 347.1,508.4 359.2,508.4 371.4,508.4 365.3,519 "/>
<polygon id="XMLID_1323_" class="st6" points="359.2,637.9 353.1,627.4 347.1,616.8 359.2,616.8 371.4,616.8 365.3,627.4 "/>
<polygon id="XMLID_1292_" class="st6" points="359.2,753.7 353.1,743.2 347.1,732.6 359.2,732.6 371.4,732.6 365.3,743.2 "/>
<polygon id="XMLID_1294_" class="st6" points="359.2,865.4 353.1,854.9 347.1,844.3 359.2,844.3 371.4,844.3 365.3,854.9 "/>
<polygon id="XMLID_1295_" class="st6" points="359.2,971.6 353.1,961 347.1,950.5 359.2,950.5 371.4,950.5 365.3,961 "/>
<polygon id="XMLID_1296_" class="st6" points="359.2,1082.8 353.1,1072.3 347.1,1061.7 359.2,1061.7 371.4,1061.7 365.3,1072.3 "/>
<polygon id="XMLID_1293_" class="st6" points="233.3,560.3 222.7,566.4 212.2,572.5 212.2,560.3 212.2,548.1 222.7,554.2 "/>
<polygon id="XMLID_1304_" class="st6" points="545.8,560.3 535.2,566.4 524.7,572.5 524.7,560.3 524.7,548.1 535.2,554.2 "/>
</svg>
