<?xml version="1.0" encoding="utf-8"?>
<!-- Generator: Adobe Illustrator 21.0.2, SVG Export Plug-In . SVG Version: 6.00 Build 0)  -->
<svg version="1.1" id="Layer_1" xmlns="http://www.w3.org/2000/svg" xmlns:xlink="http://www.w3.org/1999/xlink" x="0px" y="0px"
	 viewBox="0 0 998.6 1151.7" style="enable-background:new 0 0 998.6 1151.7;" xml:space="preserve">
<style type="text/css">
	.st0{fill:none;stroke:#E42527;stroke-width:4;stroke-miterlimit:10;}
	.st1{fill:#D81117;}
	.st2{fill:#929191;}
	.st3{fill:#9D9D9C;}
	.st4{fill:#FFFFFF;}
	.st5{fill:#E42527;}
</style>
<line id="XMLID_5831_" class="st0" x1="497" y1="75.2" x2="497" y2="1097.5"/>
<rect id="XMLID_5830_" x="98.1" y="409.6" class="st1" width="223.5" height="101.2"/>
<rect id="XMLID_5829_" x="98.1" y="611.6" class="st2" width="223.5" height="101.2"/>
<rect id="XMLID_5828_" x="386.9" y="-0.5" class="st3" width="223.5" height="79.7"/>
<rect id="XMLID_5827_" x="663.4" y="121.9" class="st3" width="236.6" height="87"/>
<g id="XMLID_13171_">
	<g>
		<path id="XMLID_1365_" class="st4" d="M132.7,442.2l2.7-6.8h3.1l-4.8,11.1h-2.2l-4.7-11.1h3.1L132.7,442.2z"/>
		<path id="XMLID_1362_" class="st4" d="M144.3,437.5c0,1.6-1.4,2.4-3,2.4c-1.6,0-3-0.9-3-2.4c0-1.6,1.4-2.4,3-2.4
			C142.9,435.1,144.3,436,144.3,437.5z M140.2,437.5c0,0.6,0.5,1,1.1,1s1.1-0.4,1.1-1c0-0.6-0.5-1-1.1-1S140.2,437,140.2,437.5z"/>
		<path id="XMLID_1358_" class="st4" d="M150.4,446.5v-11.1h4.1c2,0,3.3,0.8,3.3,2.9c0,1-0.3,1.8-1.2,2.3v0c1.6,0.2,2.3,1.3,2.3,2.8
			c0,2.3-2,3.1-4,3.1H150.4z M153.3,439.8h0.3c0.8,0,1.6-0.1,1.6-1.1c0-1-0.9-1.1-1.7-1.1h-0.2V439.8z M153.3,444.3h0.4
			c0.9,0,2.3,0,2.3-1.2c0-1.3-1.4-1.2-2.4-1.2h-0.3V444.3z"/>
		<path id="XMLID_1355_" class="st4" d="M165.4,437.5c0,1.6-1.4,2.4-3,2.4c-1.6,0-3-0.9-3-2.4c0-1.6,1.4-2.4,3-2.4
			C164,435.1,165.4,436,165.4,437.5z M161.4,437.5c0,0.6,0.5,1,1.1,1c0.6,0,1.1-0.4,1.1-1c0-0.6-0.5-1-1.1-1
			C161.8,436.5,161.4,437,161.4,437.5z"/>
		<path id="XMLID_1352_" class="st4" d="M174.3,444.6l-0.8,1.9h-3.1l4.3-11.1h3.2l4.2,11.1h-3.1l-0.7-1.9H174.3z M176.4,438.8
			L176.4,438.8l-1.2,3.5h2.4L176.4,438.8z"/>
		<path id="XMLID_1349_" class="st4" d="M192.3,446.5h-3.6l-2.7-4.3h0v4.3H183v-11.1h4.3c2.2,0,3.9,1,3.9,3.4c0,1.5-0.9,2.9-2.4,3.1
			L192.3,446.5z M185.9,440.4h0.3c0.9,0,2-0.2,2-1.4c0-1.2-1.1-1.4-2-1.4h-0.3V440.4z"/>
		<path id="XMLID_1347_" class="st4" d="M196,437.9v1.9h3.3v2.5H196v1.9h3.4v2.5h-6.3v-11.1h6.3v2.5H196z"/>
		<path id="XMLID_1344_" class="st4" d="M204.1,444.6l-0.8,1.9h-3.1l4.3-11.1h3.2l4.2,11.1h-3.1l-0.7-1.9H204.1z M206.1,438.8
			L206.1,438.8l-1.2,3.5h2.4L206.1,438.8z"/>
		<path id="XMLID_1342_" class="st4" d="M222.3,446.5h-2.9v-8.7H217v-2.5h7.7v2.5h-2.4V446.5z"/>
		<path id="XMLID_1340_" class="st4" d="M228.6,437.9v1.9h3.3v2.5h-3.3v1.9h3.4v2.5h-6.3v-11.1h6.3v2.5H228.6z"/>
		<path id="XMLID_1338_" class="st4" d="M241.8,439.1c-0.6-0.8-1.6-1.2-2.5-1.2c-1.8,0-3,1.4-3,3.1c0,1.8,1.2,3,3,3
			c0.9,0,1.9-0.5,2.5-1.2v3.5c-1,0.3-1.7,0.5-2.6,0.5c-1.6,0-3-0.6-4.2-1.6c-1.2-1.1-1.8-2.6-1.8-4.2c0-1.5,0.6-3,1.6-4.1
			c1.1-1.1,2.7-1.8,4.2-1.8c0.9,0,1.8,0.2,2.6,0.6V439.1z"/>
		<path id="XMLID_1336_" class="st4" d="M243.6,435.4h2.9l5.3,6.8h0v-6.8h2.9v11.1h-2.9l-5.3-6.8h0v6.8h-2.9V435.4z"/>
		<path id="XMLID_1334_" class="st4" d="M259.5,446.5h-2.9v-11.1h2.9V446.5z"/>
		<path id="XMLID_1332_" class="st4" d="M269.4,439.1c-0.6-0.8-1.6-1.2-2.5-1.2c-1.8,0-3,1.4-3,3.1c0,1.8,1.2,3,3,3
			c0.9,0,1.9-0.5,2.5-1.2v3.5c-1,0.3-1.7,0.5-2.6,0.5c-1.6,0-3-0.6-4.2-1.6c-1.2-1.1-1.8-2.6-1.8-4.2c0-1.5,0.6-3,1.6-4.1
			c1.1-1.1,2.7-1.8,4.2-1.8c0.9,0,1.8,0.2,2.6,0.6V439.1z"/>
		<path id="XMLID_1329_" class="st4" d="M274,444.6l-0.8,1.9h-3.1l4.3-11.1h3.2l4.2,11.1h-3.1l-0.7-1.9H274z M276,438.8L276,438.8
			l-1.2,3.5h2.4L276,438.8z"/>
		<path id="XMLID_1327_" class="st4" d="M175.5,453.1h3.5l2.1,3l2.1-3h3.5l-4.1,5.8v5.4h-2.9v-5.4L175.5,453.1z"/>
		<path id="XMLID_1325_" class="st4" d="M195.2,461.8h3.5v2.5h-6.4v-11.1h2.9V461.8z"/>
		<path id="XMLID_1323_" class="st4" d="M202.5,455.6v1.9h3.3v2.5h-3.3v1.9h3.4v2.5h-6.3v-11.1h6.3v2.5H202.5z"/>
		<path id="XMLID_1321_" class="st4" d="M218.9,458.1c0,1.6-0.1,3-1.1,4.4c-1.1,1.5-2.7,2.2-4.6,2.2c-3.5,0-5.9-2.4-5.9-5.9
			c0-3.6,2.5-6,6-6c2.3,0,4.1,1,5,3.1l-2.7,1.2c-0.4-1.1-1.2-1.8-2.4-1.8c-1.9,0-2.9,1.8-2.9,3.5c0,1.7,1,3.5,2.9,3.5
			c1.3,0,2.2-0.7,2.3-1.9h-2.4v-2.3H218.9z"/>
		<path id="XMLID_1318_" class="st4" d="M223,462.3l-0.8,1.9h-3.1l4.3-11.1h3.2l4.2,11.1h-3.1l-0.7-1.9H223z M225.1,456.6
			L225.1,456.6l-1.2,3.5h2.4L225.1,456.6z"/>
		<path id="XMLID_1316_" class="st4" d="M234.6,461.8h3.5v2.5h-6.4v-11.1h2.9V461.8z"/>
		<path id="XMLID_1313_" class="st4" d="M150.1,482h-3.6l-2.7-4.3h0v4.3h-2.9v-11.1h4.3c2.2,0,3.9,1,3.9,3.4c0,1.5-0.9,2.9-2.4,3.1
			L150.1,482z M143.7,475.9h0.3c0.9,0,2-0.2,2-1.4c0-1.2-1.1-1.4-2-1.4h-0.3V475.9z"/>
		<path id="XMLID_1310_" class="st4" d="M158.6,478.7h-5.7c0,1.1,0.6,1.7,1.7,1.7c0.6,0,1-0.2,1.3-0.7h2.6c-0.2,0.9-0.7,1.5-1.4,2
			c-0.7,0.4-1.6,0.6-2.4,0.6c-2.5,0-4.4-1.4-4.4-4c0-2.5,1.7-4,4.2-4c2.6,0,4.2,1.6,4.2,4.2V478.7z M156.1,477.1
			c-0.1-0.7-0.8-1.2-1.5-1.2c-0.8,0-1.4,0.4-1.6,1.2H156.1z"/>
		<path id="XMLID_1308_" class="st4" d="M163.5,478.3l1.8-3.9h3l-4,7.6h-1.7l-4-7.6h3L163.5,478.3z"/>
		<path id="XMLID_1305_" class="st4" d="M171.9,471.5c0,0.8-0.7,1.5-1.5,1.5c-0.8,0-1.5-0.7-1.5-1.5c0-0.8,0.7-1.5,1.5-1.5
			C171.2,470,171.9,470.7,171.9,471.5z M171.7,482H169v-7.6h2.7V482z"/>
		<path id="XMLID_1303_" class="st4" d="M178.5,476.4c-0.4-0.2-1-0.4-1.4-0.4c-0.3,0-0.8,0.1-0.8,0.5c0,0.5,0.8,0.6,1.2,0.7
			c1.3,0.3,2.2,0.8,2.2,2.2c0,2-1.8,2.8-3.6,2.8c-1.1,0-2.1-0.3-3.1-0.9l1-1.9c0.5,0.4,1.5,0.8,2.1,0.8c0.3,0,0.8-0.2,0.8-0.6
			c0-0.6-0.8-0.6-1.7-0.8c-0.8-0.2-1.7-0.6-1.7-2c0-1.9,1.7-2.7,3.3-2.7c0.9,0,1.7,0.1,2.5,0.5L178.5,476.4z"/>
		<path id="XMLID_1300_" class="st4" d="M183.9,471.5c0,0.8-0.7,1.5-1.5,1.5c-0.8,0-1.5-0.7-1.5-1.5c0-0.8,0.7-1.5,1.5-1.5
			C183.2,470,183.9,470.7,183.9,471.5z M183.8,482h-2.7v-7.6h2.7V482z"/>
		<path id="XMLID_1296_" class="st4" d="M194.1,478.2c0,2.6-2.1,4-4.6,4c-2.4,0-4.6-1.4-4.6-4c0-2.6,2.1-4,4.6-4
			C192,474.2,194.1,475.6,194.1,478.2z M187.8,478.2c0,1,0.6,1.7,1.7,1.7c1.1,0,1.7-0.7,1.7-1.7c0-0.9-0.6-1.7-1.7-1.7
			C188.4,476.5,187.8,477.3,187.8,478.2z M189.2,473.3l-1.2-0.9l2.1-2.5l1.6,1.2L189.2,473.3z"/>
		<path id="XMLID_1294_" class="st4" d="M198,475.4L198,475.4c0.7-0.9,1.4-1.2,2.5-1.2c2,0,2.9,1.3,2.9,3.1v4.7h-2.7v-3.7
			c0-0.7,0.1-2-1.2-2c-1.1,0-1.4,0.8-1.4,1.8v3.9h-2.7v-7.6h2.7V475.4z"/>
		<path id="XMLID_1291_" class="st4" d="M212.8,475.3L212.8,475.3c0.5-0.8,1.4-1.1,2.3-1.1c2.3,0,3.8,1.9,3.8,4.1c0,2.2-1.6,4-3.8,4
			c-0.9,0-1.8-0.3-2.4-1v4.5h-2.7v-11.4h2.7V475.3z M212.7,478.2c0,1,0.6,1.7,1.7,1.7c1.1,0,1.7-0.7,1.7-1.7c0-0.9-0.6-1.7-1.7-1.7
			C213.3,476.5,212.7,477.3,212.7,478.2z"/>
		<path id="XMLID_1194_" class="st4" d="M222.9,475.7L222.9,475.7c0.5-0.9,1.4-1.3,2.5-1.3h0.5v2.6c-0.4-0.2-0.7-0.3-1.1-0.3
			c-1.5,0-1.9,1-1.9,2.3v3.1h-2.7v-7.6h2.7V475.7z"/>
		<path id="XMLID_1191_" class="st4" d="M234.7,478.7h-5.7c0,1.1,0.6,1.7,1.7,1.7c0.6,0,1-0.2,1.3-0.7h2.6c-0.2,0.9-0.7,1.5-1.4,2
			c-0.7,0.4-1.6,0.6-2.4,0.6c-2.5,0-4.4-1.4-4.4-4c0-2.5,1.7-4,4.2-4c2.6,0,4.2,1.6,4.2,4.2V478.7z M232.2,477.1
			c-0.1-0.7-0.8-1.2-1.5-1.2c-0.8,0-1.4,0.4-1.6,1.2H232.2z"/>
		<path id="XMLID_1189_" class="st4" d="M239.7,478.3l1.8-3.9h3l-4,7.6h-1.7l-4-7.6h3L239.7,478.3z"/>
		<path id="XMLID_1186_" class="st4" d="M248,471.5c0,0.8-0.7,1.5-1.5,1.5c-0.8,0-1.5-0.7-1.5-1.5c0-0.8,0.7-1.5,1.5-1.5
			C247.3,470,248,470.7,248,471.5z M247.8,482h-2.7v-7.6h2.7V482z"/>
		<path id="XMLID_1183_" class="st4" d="M257.9,482h-2.7v-0.8h0c-0.5,0.8-1.4,1.1-2.3,1.1c-2.2,0-3.8-1.9-3.8-4.1c0-2.2,1.6-4,3.8-4
			c0.9,0,1.8,0.3,2.4,1v-0.7h2.7V482z M251.8,478.2c0,1,0.6,1.7,1.7,1.7c1.1,0,1.7-0.7,1.7-1.7c0-0.9-0.6-1.7-1.7-1.7
			C252.5,476.5,251.8,477.3,251.8,478.2z"/>
		<path id="XMLID_1181_" class="st4" d="M263.1,480.6c0,0.9-0.8,1.7-1.7,1.7c-1,0-1.7-0.8-1.7-1.7c0-1,0.8-1.7,1.7-1.7
			C262.3,478.9,263.1,479.6,263.1,480.6z"/>
	</g>
</g>
<g id="XMLID_13136_">
	<g>
		<path id="XMLID_272_" class="st4" d="M134.7,663.9l2.7-6.8h3.1l-4.8,11.1h-2.2l-4.7-11.1h3.1L134.7,663.9z"/>
		<path id="XMLID_270_" class="st4" d="M144.2,659.5v1.9h3.3v2.5h-3.3v1.9h3.4v2.5h-6.3v-11.1h6.3v2.5H144.2z"/>
		<path id="XMLID_268_" class="st4" d="M149.4,657.1h2.9l5.3,6.8h0v-6.8h2.9v11.1h-2.9l-5.3-6.8h0v6.8h-2.9V657.1z"/>
		<path id="XMLID_266_" class="st4" d="M166.9,668.2H164v-8.7h-2.4v-2.5h7.7v2.5h-2.4V668.2z"/>
		<path id="XMLID_263_" class="st4" d="M172.3,666.3l-0.8,1.9h-3.1l4.3-11.1h3.2l4.2,11.1H177l-0.7-1.9H172.3z M174.3,660.5
			L174.3,660.5l-1.2,3.5h2.4L174.3,660.5z"/>
		<path id="XMLID_261_" class="st4" d="M181,657.1h2.9l5.3,6.8h0v-6.8h2.9v11.1h-2.9l-5.3-6.8h0v6.8H181V657.1z"/>
		<path id="XMLID_259_" class="st4" d="M196.9,668.2H194v-11.1h2.9V668.2z"/>
		<path id="XMLID_257_" class="st4" d="M201.7,665.8h3.5v2.5h-6.4v-11.1h2.9V665.8z"/>
		<path id="XMLID_255_" class="st4" d="M209,665.8h3.5v2.5h-6.4v-11.1h2.9V665.8z"/>
		<path id="XMLID_252_" class="st4" d="M216.3,666.3l-0.8,1.9h-3.1l4.3-11.1h3.2l4.2,11.1H221l-0.7-1.9H216.3z M218.3,660.5
			L218.3,660.5l-1.2,3.5h2.4L218.3,660.5z"/>
		<path id="XMLID_249_" class="st4" d="M239.7,657.1v6.3c0,1.4-0.1,2.9-1.2,3.9c-0.9,0.9-2.4,1.2-3.7,1.2c-1.3,0-2.8-0.3-3.7-1.2
			c-1.1-1.1-1.2-2.5-1.2-3.9v-6.3h2.9v5.9c0,1.4,0.1,3,2,3c1.9,0,2-1.6,2-3v-5.9H239.7z M234.5,656.4l-1.2-0.9l2.1-2.5l1.6,1.2
			L234.5,656.4z"/>
		<path id="XMLID_247_" class="st4" d="M241.5,657.1h2.9l5.3,6.8h0v-6.8h2.9v11.1h-2.9l-5.3-6.8h0v6.8h-2.9V657.1z"/>
		<path id="XMLID_245_" class="st4" d="M257.5,668.2h-2.9v-11.1h2.9V668.2z"/>
		<path id="XMLID_243_" class="st4" d="M267.3,660.8c-0.6-0.8-1.6-1.2-2.5-1.2c-1.8,0-3,1.4-3,3.1c0,1.8,1.2,3,3,3
			c0.9,0,1.9-0.5,2.5-1.2v3.5c-1,0.3-1.7,0.5-2.6,0.5c-1.6,0-3-0.6-4.2-1.6c-1.2-1.1-1.8-2.6-1.8-4.2c0-1.5,0.6-3,1.6-4.1
			c1.1-1.1,2.7-1.8,4.2-1.8c0.9,0,1.8,0.2,2.6,0.6V660.8z"/>
		<path id="XMLID_240_" class="st4" d="M271.9,666.3l-0.8,1.9h-3.1l4.3-11.1h3.2l4.2,11.1h-3.1l-0.7-1.9H271.9z M274,660.5
			L274,660.5l-1.2,3.5h2.4L274,660.5z"/>
	</g>
</g>
<g id="XMLID_13042_">
	<g>
		<path id="XMLID_1287_" class="st4" d="M410.1,37.3l-0.8,1.9h-3.1l4.3-11.1h3.2l4.2,11.1h-3.1l-0.7-1.9H410.1z M412.1,31.5
			L412.1,31.5l-1.2,3.5h2.4L412.1,31.5z"/>
		<path id="XMLID_1283_" class="st4" d="M418.8,39.2V28.1h4.1c2,0,3.3,0.8,3.3,2.9c0,1-0.3,1.8-1.2,2.3v0c1.6,0.2,2.3,1.3,2.3,2.8
			c0,2.3-2,3.1-4,3.1H418.8z M421.7,32.5h0.3c0.8,0,1.6-0.1,1.6-1.1c0-1-0.9-1.1-1.7-1.1h-0.2V32.5z M421.7,37h0.4
			c0.9,0,2.3,0,2.3-1.2c0-1.3-1.4-1.2-2.4-1.2h-0.3V37z"/>
		<path id="XMLID_1280_" class="st4" d="M440.5,33.5c0,3.6-2.6,6.1-6.2,6.1c-3.6,0-6.2-2.5-6.2-6.1c0-3.4,3-5.7,6.2-5.7
			C437.6,27.7,440.5,30.1,440.5,33.5z M431.2,33.5c0,1.9,1.4,3.3,3.1,3.3c1.7,0,3.1-1.4,3.1-3.3c0-1.5-1.4-2.9-3.1-2.9
			C432.7,30.5,431.2,31.9,431.2,33.5z"/>
		<path id="XMLID_1278_" class="st4" d="M453,33c0,1.6-0.1,3-1.1,4.4c-1.1,1.5-2.7,2.2-4.6,2.2c-3.5,0-5.9-2.4-5.9-5.9
			c0-3.6,2.5-6,6-6c2.3,0,4.1,1,5,3.1l-2.7,1.2c-0.4-1.1-1.2-1.8-2.4-1.8c-1.9,0-2.9,1.8-2.9,3.5c0,1.7,1,3.5,2.9,3.5
			c1.3,0,2.2-0.7,2.3-1.9h-2.4V33H453z"/>
		<path id="XMLID_1275_" class="st4" d="M457.2,37.3l-0.8,1.9h-3.1l4.3-11.1h3.2l4.2,11.1h-3.1l-0.7-1.9H457.2z M459.2,31.5
			L459.2,31.5l-1.2,3.5h2.4L459.2,31.5z"/>
		<path id="XMLID_1272_" class="st4" d="M465.9,28.1h4.1c3.1,0,5.7,2.4,5.7,5.6c0,3.1-2.6,5.6-5.7,5.6h-4.1V28.1z M468.8,36.8h0.6
			c1.7,0,3.2-0.9,3.2-3.1c0-2-1.3-3.1-3.2-3.1h-0.7V36.8z"/>
		<path id="XMLID_1269_" class="st4" d="M488.8,33.5c0,3.6-2.6,6.1-6.2,6.1s-6.2-2.5-6.2-6.1c0-3.4,3-5.7,6.2-5.7
			S488.8,30.1,488.8,33.5z M479.4,33.5c0,1.9,1.4,3.3,3.1,3.3c1.7,0,3.1-1.4,3.1-3.3c0-1.5-1.4-2.9-3.1-2.9
			C480.9,30.5,479.4,31.9,479.4,33.5z"/>
		<path id="XMLID_1267_" class="st4" d="M504.8,28.1v6.3c0,1.4-0.1,2.9-1.2,3.9c-0.9,0.9-2.4,1.2-3.7,1.2c-1.3,0-2.8-0.3-3.7-1.2
			c-1.1-1.1-1.2-2.5-1.2-3.9v-6.3h2.9V34c0,1.4,0.1,3,2,3c1.9,0,2-1.6,2-3v-5.9H504.8z"/>
		<path id="XMLID_1263_" class="st4" d="M515.9,39.2h-3.6l-2.7-4.3h0v4.3h-2.9V28.1h4.3c2.2,0,3.9,1,3.9,3.4c0,1.5-0.9,2.9-2.4,3.1
			L515.9,39.2z M509.6,33.1h0.3c0.9,0,2-0.2,2-1.4c0-1.2-1.1-1.4-2-1.4h-0.3V33.1z"/>
		<path id="XMLID_1259_" class="st4" d="M516.7,39.2V28.1h4.1c2,0,3.3,0.8,3.3,2.9c0,1-0.3,1.8-1.2,2.3v0c1.6,0.2,2.3,1.3,2.3,2.8
			c0,2.3-2,3.1-4,3.1H516.7z M519.6,32.5h0.3c0.8,0,1.6-0.1,1.6-1.1c0-1-0.9-1.1-1.7-1.1h-0.2V32.5z M519.6,37h0.4
			c0.9,0,2.3,0,2.3-1.2c0-1.3-1.4-1.2-2.4-1.2h-0.3V37z"/>
		<path id="XMLID_1256_" class="st4" d="M529.6,37.3l-0.8,1.9h-3.1l4.3-11.1h3.2l4.2,11.1h-3.1l-0.7-1.9H529.6z M531.6,31.5
			L531.6,31.5l-1.2,3.5h2.4L531.6,31.5z"/>
		<path id="XMLID_1254_" class="st4" d="M538.3,28.1h2.9l5.3,6.8h0v-6.8h2.9v11.1h-2.9l-5.3-6.8h0v6.8h-2.9V28.1z"/>
		<path id="XMLID_1252_" class="st4" d="M554.2,39.2h-2.9V28.1h2.9V39.2z"/>
		<path id="XMLID_1250_" class="st4" d="M562.2,31c-0.5-0.4-1.2-0.7-1.9-0.7c-0.5,0-1.2,0.3-1.2,0.9c0,0.7,0.8,0.9,1.3,1.1l0.7,0.2
			c1.6,0.5,2.7,1.2,2.7,3c0,1.1-0.3,2.2-1.2,3c-0.9,0.7-2,1-3.2,1c-1.4,0-2.8-0.5-3.9-1.3l1.2-2.3c0.7,0.6,1.6,1.2,2.6,1.2
			c0.7,0,1.4-0.3,1.4-1.1c0-0.8-1.1-1.1-1.8-1.3c-1.8-0.5-3-1-3-3.1c0-2.3,1.6-3.7,3.8-3.7c1.1,0,2.5,0.4,3.5,0.9L562.2,31z"/>
		<path id="XMLID_1248_" class="st4" d="M566.4,28.1h2.9l2.3,6l2.4-6h2.9l1.7,11.1h-2.9l-0.8-6.4h0l-2.7,6.4h-1.2l-2.6-6.4h0
			l-0.9,6.4h-2.9L566.4,28.1z"/>
		<path id="XMLID_1245_" class="st4" d="M591.5,33.5c0,3.6-2.6,6.1-6.2,6.1s-6.2-2.5-6.2-6.1c0-3.4,3-5.7,6.2-5.7
			C588.5,27.7,591.5,30.1,591.5,33.5z M582.2,33.5c0,1.9,1.4,3.3,3.1,3.3c1.7,0,3.1-1.4,3.1-3.3c0-1.5-1.4-2.9-3.1-2.9
			C583.6,30.5,582.2,31.9,582.2,33.5z"/>
		<path id="XMLID_1243_" class="st4" d="M420.5,52.6l2.7-6.8h3.1L421.6,57h-2.2l-4.7-11.1h3.1L420.5,52.6z"/>
		<path id="XMLID_1240_" class="st4" d="M433.8,53.6h-5.7c0,1.1,0.6,1.7,1.7,1.7c0.6,0,1-0.2,1.3-0.7h2.6c-0.2,0.9-0.7,1.5-1.4,2
			c-0.7,0.4-1.6,0.6-2.4,0.6c-2.5,0-4.4-1.4-4.4-4c0-2.5,1.7-4,4.2-4c2.6,0,4.2,1.6,4.2,4.2V53.6z M431.3,52.1
			c-0.1-0.7-0.8-1.2-1.5-1.2c-0.8,0-1.4,0.4-1.6,1.2H431.3z"/>
		<path id="XMLID_1238_" class="st4" d="M437.7,50.6L437.7,50.6c0.5-0.9,1.4-1.3,2.5-1.3h0.5v2.6c-0.4-0.2-0.7-0.3-1.1-0.3
			c-1.5,0-1.9,1-1.9,2.3V57H435v-7.6h2.7V50.6z"/>
		<path id="XMLID_1235_" class="st4" d="M444.5,46.5c0,0.8-0.7,1.5-1.5,1.5c-0.8,0-1.5-0.7-1.5-1.5c0-0.8,0.7-1.5,1.5-1.5
			C443.9,45,444.5,45.7,444.5,46.5z M444.4,57h-2.7v-7.6h2.7V57z"/>
		<path id="XMLID_1231_" class="st4" d="M449,57h-2.7v-5.4h-0.9v-2.2h0.9v-1c0-1,0-1.8,0.8-2.7c0.7-0.8,1.6-1.2,2.6-1.2
			c0.4,0,0.8,0.1,1.2,0.3v2.3c-0.3-0.1-0.6-0.3-0.9-0.3c-0.7,0-0.9,0.4-0.9,1.3v1.2h1.9v2.2H449V57z M454.6,46.5
			c0,0.8-0.7,1.5-1.5,1.5c-0.8,0-1.5-0.7-1.5-1.5c0-0.8,0.7-1.5,1.5-1.5C453.9,45,454.6,45.7,454.6,46.5z M454.4,57h-2.7v-7.6h2.7
			V57z"/>
		<path id="XMLID_1229_" class="st4" d="M461.6,51.9c-0.4-0.3-0.9-0.5-1.4-0.5c-1,0-1.8,0.8-1.8,1.8c0,1.1,0.8,1.9,1.9,1.9
			c0.5,0,1-0.2,1.3-0.5v2.3c-0.6,0.3-1.2,0.4-1.9,0.4c-2.2,0-4.1-1.7-4.1-4c0-2.4,1.9-4.1,4.2-4.1c0.6,0,1.2,0.1,1.8,0.4V51.9z"/>
		<path id="XMLID_1226_" class="st4" d="M471.6,57h-2.7v-0.8h0c-0.5,0.8-1.4,1.1-2.3,1.1c-2.2,0-3.8-1.9-3.8-4.1c0-2.2,1.6-4,3.8-4
			c0.9,0,1.8,0.3,2.4,1v-0.7h2.7V57z M465.6,53.2c0,1,0.6,1.7,1.7,1.7c1.1,0,1.7-0.7,1.7-1.7c0-0.9-0.6-1.7-1.7-1.7
			C466.2,51.5,465.6,52.3,465.6,53.2z"/>
		<path id="XMLID_1224_" class="st4" d="M478.9,51.9c-0.4-0.3-0.9-0.5-1.4-0.5c-1,0-1.8,0.8-1.8,1.8c0,1.1,0.8,1.9,1.9,1.9
			c0.5,0,1-0.2,1.3-0.5v2.3c-0.6,0.3-1.2,0.4-1.9,0.4c-2.2,0-4.1-1.7-4.1-4c0-2.4,1.9-4.1,4.2-4.1c0.6,0,1.2,0.1,1.8,0.4V51.9z"/>
		<path id="XMLID_1221_" class="st4" d="M483.4,46.5c0,0.8-0.7,1.5-1.5,1.5c-0.8,0-1.5-0.7-1.5-1.5c0-0.8,0.7-1.5,1.5-1.5
			C482.7,45,483.4,45.7,483.4,46.5z M483.2,57h-2.7v-7.6h2.7V57z"/>
		<path id="XMLID_1217_" class="st4" d="M493.6,53.2c0,2.6-2.1,4-4.6,4c-2.4,0-4.6-1.4-4.6-4s2.1-4,4.6-4
			C491.4,49.1,493.6,50.6,493.6,53.2z M487.3,53.2c0,1,0.6,1.7,1.7,1.7c1.1,0,1.7-0.7,1.7-1.7c0-0.9-0.6-1.7-1.7-1.7
			C487.9,51.5,487.3,52.3,487.3,53.2z M488.7,48.3l-1.2-0.9l2.1-2.5l1.6,1.2L488.7,48.3z"/>
		<path id="XMLID_1215_" class="st4" d="M497.5,50.4L497.5,50.4c0.7-0.9,1.4-1.2,2.5-1.2c2,0,2.9,1.3,2.9,3.1V57h-2.7v-3.7
			c0-0.7,0.1-2-1.2-2c-1.1,0-1.4,0.8-1.4,1.8V57h-2.7v-7.6h2.7V50.4z"/>
		<path id="XMLID_1212_" class="st4" d="M517.4,53.6h-5.7c0,1.1,0.6,1.7,1.7,1.7c0.6,0,1-0.2,1.3-0.7h2.6c-0.2,0.9-0.7,1.5-1.4,2
			c-0.7,0.4-1.6,0.6-2.4,0.6c-2.5,0-4.4-1.4-4.4-4c0-2.5,1.7-4,4.2-4c2.6,0,4.2,1.6,4.2,4.2V53.6z M514.9,52.1
			c-0.1-0.7-0.8-1.2-1.5-1.2c-0.8,0-1.4,0.4-1.6,1.2H514.9z"/>
		<path id="XMLID_1210_" class="st4" d="M526.7,57h-2.9V45.8h2.9V57z"/>
		<path id="XMLID_1208_" class="st4" d="M531.2,50.4L531.2,50.4c0.7-0.9,1.4-1.2,2.5-1.2c2,0,2.9,1.3,2.9,3.1V57h-2.7v-3.7
			c0-0.7,0.1-2-1.2-2c-1.1,0-1.4,0.8-1.4,1.8V57h-2.7v-7.6h2.7V50.4z"/>
		<path id="XMLID_1205_" class="st4" d="M541.2,57h-2.7v-5.4h-0.9v-2.2h0.9v-1c0-1,0-1.8,0.8-2.7c0.7-0.8,1.6-1.2,2.6-1.2
			c0.4,0,0.8,0.1,1.2,0.3v2.3c-0.3-0.1-0.6-0.3-0.9-0.3c-0.7,0-0.9,0.4-0.9,1.3v1.2h1.9v2.2h-1.9V57z"/>
		<path id="XMLID_1202_" class="st4" d="M552.6,53.2c0,2.6-2.1,4-4.6,4c-2.4,0-4.6-1.4-4.6-4s2.1-4,4.6-4
			C550.4,49.1,552.6,50.6,552.6,53.2z M546.3,53.2c0,1,0.6,1.7,1.7,1.7c1.1,0,1.7-0.7,1.7-1.7c0-0.9-0.6-1.7-1.7-1.7
			C546.9,51.5,546.3,52.3,546.3,53.2z"/>
		<path id="XMLID_1200_" class="st4" d="M556.5,50.6L556.5,50.6c0.5-0.9,1.4-1.3,2.5-1.3h0.5v2.6c-0.4-0.2-0.7-0.3-1.1-0.3
			c-1.5,0-1.9,1-1.9,2.3V57h-2.7v-7.6h2.7V50.6z"/>
		<path id="XMLID_1198_" class="st4" d="M563.2,50.3L563.2,50.3c0.7-0.8,1.4-1.2,2.4-1.2c1.1,0,2,0.4,2.6,1.4
			c0.5-0.9,1.5-1.4,2.6-1.4c1.9,0,2.6,1.3,2.6,3V57h-2.7v-3.6c0-0.8,0-2.1-1.1-2.1c-1.2,0-1.3,1.2-1.3,2.1V57h-2.7v-3.6
			c0-0.8,0-2.1-1.2-2.1s-1.2,1.3-1.2,2.1V57h-2.7v-7.6h2.7V50.3z"/>
		<path id="XMLID_1195_" class="st4" d="M582.9,53.6h-5.7c0,1.1,0.6,1.7,1.7,1.7c0.6,0,1-0.2,1.3-0.7h2.6c-0.2,0.9-0.7,1.5-1.4,2
			c-0.7,0.4-1.6,0.6-2.4,0.6c-2.5,0-4.4-1.4-4.4-4c0-2.5,1.7-4,4.2-4c2.6,0,4.2,1.6,4.2,4.2V53.6z M580.4,52.1
			c-0.1-0.7-0.8-1.2-1.5-1.2c-0.8,0-1.4,0.4-1.6,1.2H580.4z"/>
	</g>
</g>
<g id="XMLID_12982_">
	<g>
		<path id="XMLID_560_" class="st4" d="M720.3,158c-0.6-0.8-1.6-1.2-2.5-1.2c-1.8,0-3,1.4-3,3.1c0,1.8,1.2,3,3,3
			c0.9,0,1.9-0.5,2.5-1.2v3.5c-1,0.3-1.7,0.5-2.6,0.5c-1.6,0-3-0.6-4.2-1.6c-1.2-1.1-1.8-2.6-1.8-4.2c0-1.5,0.6-3,1.6-4.1
			c1.1-1.1,2.7-1.8,4.2-1.8c0.9,0,1.8,0.2,2.6,0.6V158z"/>
		<path id="XMLID_557_" class="st4" d="M733.8,159.6c0,3.6-2.6,6.1-6.2,6.1c-3.6,0-6.2-2.5-6.2-6.1c0-3.4,3-5.7,6.2-5.7
			C730.9,153.9,733.8,156.2,733.8,159.6z M724.5,159.6c0,1.9,1.4,3.3,3.1,3.3c1.7,0,3.1-1.4,3.1-3.3c0-1.5-1.4-2.9-3.1-2.9
			C725.9,156.7,724.5,158.1,724.5,159.6z"/>
		<path id="XMLID_554_" class="st4" d="M735.2,154.2h2.9l5.3,6.8h0v-6.8h2.9v11.1h-2.9l-5.3-6.8h0v6.8h-2.9V154.2z"/>
		<path id="XMLID_552_" class="st4" d="M752.6,165.4h-2.9v-8.7h-2.4v-2.5h7.7v2.5h-2.4V165.4z"/>
		<path id="XMLID_549_" class="st4" d="M765.3,165.4h-3.6l-2.7-4.3h0v4.3h-2.9v-11.1h4.3c2.2,0,3.9,1,3.9,3.4c0,1.5-0.9,2.9-2.4,3.1
			L765.3,165.4z M759,159.2h0.3c0.9,0,2-0.2,2-1.4c0-1.2-1.1-1.4-2-1.4H759V159.2z"/>
		<path id="XMLID_547_" class="st4" d="M769,165.4h-2.9v-11.1h2.9V165.4z"/>
		<path id="XMLID_543_" class="st4" d="M770.9,165.4v-11.1h4.1c2,0,3.3,0.8,3.3,2.9c0,1-0.3,1.8-1.2,2.3v0c1.6,0.2,2.3,1.3,2.3,2.8
			c0,2.3-2,3.1-4,3.1H770.9z M773.8,158.6h0.3c0.8,0,1.6-0.1,1.6-1.1c0-1-0.9-1.1-1.7-1.1h-0.2V158.6z M773.8,163.2h0.4
			c0.9,0,2.3,0,2.3-1.2c0-1.3-1.4-1.2-2.4-1.2h-0.3V163.2z"/>
		<path id="XMLID_541_" class="st4" d="M790.6,154.2v6.3c0,1.4-0.1,2.9-1.2,3.9c-0.9,0.9-2.4,1.2-3.7,1.2c-1.3,0-2.8-0.3-3.7-1.2
			c-1.1-1.1-1.2-2.5-1.2-3.9v-6.3h2.9v5.9c0,1.4,0.1,3,2,3s2-1.6,2-3v-5.9H790.6z"/>
		<path id="XMLID_539_" class="st4" d="M791.2,154.2h3.5l2.1,3l2.1-3h3.5l-4.1,5.8v5.4h-2.9V160L791.2,154.2z"/>
		<path id="XMLID_537_" class="st4" d="M805.9,156.7v1.9h3.3v2.5h-3.3v1.9h3.4v2.5H803v-11.1h6.3v2.5H805.9z"/>
		<path id="XMLID_535_" class="st4" d="M811.1,154.2h2.9l5.3,6.8h0v-6.8h2.9v11.1h-2.9l-5.3-6.8h0v6.8h-2.9V154.2z"/>
		<path id="XMLID_533_" class="st4" d="M828.6,165.4h-2.9v-8.7h-2.4v-2.5h7.7v2.5h-2.4V165.4z"/>
		<path id="XMLID_531_" class="st4" d="M834.9,156.7v1.9h3.3v2.5h-3.3v1.9h3.4v2.5H832v-11.1h6.3v2.5H834.9z"/>
		<path id="XMLID_529_" class="st4" d="M735.8,175.7c-0.6-0.8-1.6-1.2-2.5-1.2c-1.8,0-3,1.4-3,3.1c0,1.8,1.2,3,3,3
			c0.9,0,1.9-0.5,2.5-1.2v3.5c-1,0.3-1.7,0.5-2.6,0.5c-1.6,0-3-0.6-4.2-1.6c-1.2-1.1-1.8-2.6-1.8-4.2c0-1.5,0.6-3,1.6-4.1
			c1.1-1.1,2.7-1.8,4.2-1.8c0.9,0,1.8,0.2,2.6,0.6V175.7z"/>
		<path id="XMLID_526_" class="st4" d="M746.1,179.3c0,2.6-2.1,4-4.6,4c-2.4,0-4.6-1.4-4.6-4c0-2.6,2.1-4,4.6-4
			C743.9,175.3,746.1,176.8,746.1,179.3z M739.8,179.3c0,1,0.6,1.7,1.7,1.7c1.1,0,1.7-0.7,1.7-1.7c0-0.9-0.6-1.7-1.7-1.7
			C740.4,177.6,739.8,178.4,739.8,179.3z"/>
		<path id="XMLID_524_" class="st4" d="M750,176.8L750,176.8c0.5-0.9,1.4-1.3,2.5-1.3h0.5v2.6c-0.4-0.2-0.7-0.3-1.1-0.3
			c-1.5,0-1.9,1-1.9,2.3v3.1h-2.7v-7.6h2.7V176.8z"/>
		<path id="XMLID_521_" class="st4" d="M756.7,176.8L756.7,176.8c0.5-0.9,1.4-1.3,2.5-1.3h0.5v2.6c-0.4-0.2-0.7-0.3-1.1-0.3
			c-1.5,0-1.9,1-1.9,2.3v3.1H754v-7.6h2.7V176.8z"/>
		<path id="XMLID_518_" class="st4" d="M768.5,179.8h-5.7c0,1.1,0.6,1.7,1.7,1.7c0.6,0,1-0.2,1.3-0.7h2.6c-0.2,0.9-0.7,1.5-1.4,2
			c-0.7,0.4-1.6,0.6-2.4,0.6c-2.5,0-4.4-1.4-4.4-4c0-2.5,1.7-4,4.2-4c2.6,0,4.2,1.6,4.2,4.2V179.8z M766,178.2
			c-0.1-0.7-0.8-1.2-1.5-1.2c-0.8,0-1.4,0.4-1.6,1.2H766z"/>
		<path id="XMLID_516_" class="st4" d="M775.2,178c-0.4-0.3-0.9-0.5-1.4-0.5c-1,0-1.8,0.8-1.8,1.8c0,1.1,0.8,1.9,1.9,1.9
			c0.5,0,1-0.2,1.3-0.5v2.3c-0.6,0.3-1.2,0.4-1.9,0.4c-2.2,0-4.1-1.7-4.1-4c0-2.4,1.9-4.1,4.2-4.1c0.6,0,1.2,0.1,1.8,0.4V178z"/>
		<path id="XMLID_514_" class="st4" d="M782.3,178c-0.4-0.3-0.9-0.5-1.4-0.5c-1,0-1.8,0.8-1.8,1.8c0,1.1,0.8,1.9,1.9,1.9
			c0.5,0,1-0.2,1.3-0.5v2.3c-0.6,0.3-1.2,0.4-1.9,0.4c-2.2,0-4.1-1.7-4.1-4c0-2.4,1.9-4.1,4.2-4.1c0.6,0,1.2,0.1,1.8,0.4V178z"/>
		<path id="XMLID_511_" class="st4" d="M786.8,172.6c0,0.8-0.7,1.5-1.5,1.5c-0.8,0-1.5-0.7-1.5-1.5c0-0.8,0.7-1.5,1.5-1.5
			C786.1,171.1,786.8,171.8,786.8,172.6z M786.7,183.1H784v-7.6h2.7V183.1z"/>
		<path id="XMLID_508_" class="st4" d="M797,179.3c0,2.6-2.1,4-4.6,4c-2.4,0-4.6-1.4-4.6-4c0-2.6,2.1-4,4.6-4
			C794.9,175.3,797,176.8,797,179.3z M790.7,179.3c0,1,0.6,1.7,1.7,1.7c1.1,0,1.7-0.7,1.7-1.7c0-0.9-0.6-1.7-1.7-1.7
			C791.3,177.6,790.7,178.4,790.7,179.3z"/>
		<path id="XMLID_506_" class="st4" d="M800.9,176.5L800.9,176.5c0.7-0.9,1.4-1.2,2.5-1.2c2,0,2.9,1.3,2.9,3.1v4.7h-2.7v-3.7
			c0-0.7,0.1-2-1.2-2c-1.1,0-1.4,0.8-1.4,1.8v3.9h-2.7v-7.6h2.7V176.5z"/>
		<path id="XMLID_503_" class="st4" d="M815.8,179.8h-5.7c0,1.1,0.6,1.7,1.7,1.7c0.6,0,1-0.2,1.3-0.7h2.6c-0.2,0.9-0.7,1.5-1.4,2
			c-0.7,0.4-1.6,0.6-2.4,0.6c-2.5,0-4.4-1.4-4.4-4c0-2.5,1.7-4,4.2-4c2.6,0,4.2,1.6,4.2,4.2V179.8z M813.3,178.2
			c-0.1-0.7-0.8-1.2-1.5-1.2c-0.8,0-1.4,0.4-1.6,1.2H813.3z"/>
		<path id="XMLID_501_" class="st4" d="M822,177.5c-0.4-0.2-1-0.4-1.4-0.4c-0.3,0-0.8,0.1-0.8,0.5c0,0.5,0.8,0.6,1.2,0.7
			c1.3,0.3,2.2,0.8,2.2,2.2c0,2-1.8,2.8-3.6,2.8c-1.1,0-2.1-0.3-3.1-0.9l1-1.9c0.5,0.4,1.5,0.8,2.1,0.8c0.3,0,0.8-0.2,0.8-0.6
			c0-0.6-0.8-0.6-1.7-0.8c-0.8-0.2-1.7-0.6-1.7-2c0-1.9,1.7-2.7,3.3-2.7c0.9,0,1.7,0.1,2.5,0.5L822,177.5z"/>
	</g>
</g>
<rect id="XMLID_5822_" x="386.9" y="122.3" class="st3" width="223.5" height="73"/>
<rect id="XMLID_5821_" x="386.9" y="237" class="st3" width="223.5" height="69.3"/>
<g id="XMLID_12906_">
	<g>
		<path id="XMLID_934_" class="st4" d="M453.7,147.4h-2.9v-8.7h-2.4v-2.5h7.7v2.5h-2.4V147.4z"/>
		<path id="XMLID_931_" class="st4" d="M468.9,141.6c0,3.6-2.6,6.1-6.2,6.1c-3.6,0-6.2-2.5-6.2-6.1c0-3.4,3-5.7,6.2-5.7
			C466,135.8,468.9,138.2,468.9,141.6z M459.6,141.6c0,1.9,1.4,3.3,3.1,3.3c1.7,0,3.1-1.4,3.1-3.3c0-1.5-1.4-2.9-3.1-2.9
			C461,138.7,459.6,140.1,459.6,141.6z"/>
		<path id="XMLID_928_" class="st4" d="M470.3,136.2h4.4c2.4,0,4,1.1,4,3.7c0,2.6-1.4,3.8-3.9,3.8h-1.6v3.7h-2.9V136.2z
			 M473.2,141.3h0.5c1,0,2.1,0,2.1-1.4c0-1.4-1-1.4-2.1-1.4h-0.5V141.3z"/>
		<path id="XMLID_925_" class="st4" d="M491.8,141.6c0,3.6-2.6,6.1-6.2,6.1c-3.6,0-6.2-2.5-6.2-6.1c0-3.4,3-5.7,6.2-5.7
			C488.8,135.8,491.8,138.2,491.8,141.6z M482.5,141.6c0,1.9,1.4,3.3,3.1,3.3c1.7,0,3.1-1.4,3.1-3.3c0-1.5-1.4-2.9-3.1-2.9
			C483.9,138.7,482.5,140.1,482.5,141.6z"/>
		<path id="XMLID_923_" class="st4" d="M504.3,141.1c0,1.6-0.1,3-1.1,4.4c-1.1,1.5-2.7,2.2-4.6,2.2c-3.5,0-5.9-2.4-5.9-5.9
			c0-3.6,2.5-6,6-6c2.3,0,4.1,1,5,3.1l-2.7,1.2c-0.4-1.1-1.2-1.8-2.4-1.8c-1.9,0-2.9,1.8-2.9,3.5c0,1.7,1,3.5,2.9,3.5
			c1.3,0,2.2-0.7,2.3-1.9h-2.4v-2.3H504.3z"/>
		<path id="XMLID_920_" class="st4" d="M514.9,147.4h-3.6l-2.7-4.3h0v4.3h-2.9v-11.1h4.3c2.2,0,3.9,1,3.9,3.4c0,1.5-0.9,2.9-2.4,3.1
			L514.9,147.4z M508.5,141.2h0.3c0.9,0,2-0.2,2-1.4c0-1.2-1.1-1.4-2-1.4h-0.3V141.2z"/>
		<path id="XMLID_916_" class="st4" d="M518.5,145.4l-0.8,1.9h-3.1l4.3-11.1h3.2l4.2,11.1h-3.1l-0.7-1.9H518.5z M520.5,139.7
			L520.5,139.7l-1.2,3.5h2.4L520.5,139.7z"/>
		<path id="XMLID_898_" class="st4" d="M530.1,138.7v1.9h3.2v2.5h-3.2v4.4h-2.9v-11.1h6.4v2.5H530.1z"/>
		<path id="XMLID_896_" class="st4" d="M538.1,147.4h-2.9v-11.1h2.9V147.4z"/>
		<path id="XMLID_893_" class="st4" d="M542.8,145.4l-0.8,1.9H539l4.3-11.1h3.2l4.2,11.1h-3.1l-0.7-1.9H542.8z M544.8,139.7
			L544.8,139.7l-1.2,3.5h2.4L544.8,139.7z"/>
		<path id="XMLID_891_" class="st4" d="M426,165.1h-2.9V154h2.9V165.1z"/>
		<path id="XMLID_889_" class="st4" d="M430.5,158.5L430.5,158.5c0.7-0.9,1.4-1.2,2.5-1.2c2,0,2.9,1.3,2.9,3.1v4.7h-2.7v-3.7
			c0-0.7,0.1-2-1.2-2c-1.1,0-1.4,0.8-1.4,1.8v3.9h-2.7v-7.6h2.7V158.5z"/>
		<path id="XMLID_887_" class="st4" d="M442.6,159.5c-0.4-0.2-1-0.4-1.4-0.4c-0.3,0-0.8,0.1-0.8,0.5c0,0.5,0.8,0.6,1.2,0.7
			c1.3,0.3,2.2,0.8,2.2,2.2c0,2-1.8,2.8-3.6,2.8c-1.1,0-2.1-0.3-3.1-0.9l1-1.9c0.5,0.4,1.5,0.8,2.1,0.8c0.3,0,0.8-0.2,0.8-0.6
			c0-0.6-0.8-0.6-1.7-0.8c-0.8-0.2-1.7-0.6-1.7-2c0-1.9,1.7-2.7,3.3-2.7c0.9,0,1.7,0.1,2.5,0.5L442.6,159.5z"/>
		<path id="XMLID_884_" class="st4" d="M447.8,158.4L447.8,158.4c0.5-0.8,1.4-1.1,2.3-1.1c2.3,0,3.8,1.9,3.8,4.1c0,2.2-1.6,4-3.8,4
			c-0.9,0-1.8-0.3-2.4-1v4.5h-2.7v-11.4h2.7V158.4z M447.7,161.3c0,1,0.6,1.7,1.7,1.7c1.1,0,1.7-0.7,1.7-1.7c0-0.9-0.6-1.7-1.7-1.7
			C448.3,159.6,447.7,160.4,447.7,161.3z"/>
		<path id="XMLID_881_" class="st4" d="M463,161.8h-5.7c0,1.1,0.6,1.7,1.7,1.7c0.6,0,1-0.2,1.3-0.7h2.6c-0.2,0.9-0.7,1.5-1.4,2
			c-0.7,0.4-1.6,0.6-2.4,0.6c-2.5,0-4.4-1.4-4.4-4c0-2.5,1.7-4,4.2-4c2.6,0,4.2,1.6,4.2,4.2V161.8z M460.5,160.2
			c-0.1-0.7-0.8-1.2-1.5-1.2c-0.8,0-1.4,0.4-1.6,1.2H460.5z"/>
		<path id="XMLID_879_" class="st4" d="M469.7,160c-0.4-0.3-0.9-0.5-1.4-0.5c-1,0-1.8,0.8-1.8,1.8c0,1.1,0.8,1.9,1.9,1.9
			c0.5,0,1-0.2,1.3-0.5v2.3c-0.6,0.3-1.2,0.4-1.9,0.4c-2.2,0-4.1-1.7-4.1-4c0-2.4,1.9-4.1,4.2-4.1c0.6,0,1.2,0.1,1.8,0.4V160z"/>
		<path id="XMLID_877_" class="st4" d="M476.9,160c-0.4-0.3-0.9-0.5-1.4-0.5c-1,0-1.8,0.8-1.8,1.8c0,1.1,0.8,1.9,1.9,1.9
			c0.5,0,1-0.2,1.3-0.5v2.3c-0.6,0.3-1.2,0.4-1.9,0.4c-2.2,0-4.1-1.7-4.1-4c0-2.4,1.9-4.1,4.2-4.1c0.6,0,1.2,0.1,1.8,0.4V160z"/>
		<path id="XMLID_874_" class="st4" d="M481.4,154.6c0,0.8-0.7,1.5-1.5,1.5c-0.8,0-1.5-0.7-1.5-1.5c0-0.8,0.7-1.5,1.5-1.5
			C480.7,153.1,481.4,153.8,481.4,154.6z M481.2,165.1h-2.7v-7.6h2.7V165.1z"/>
		<path id="XMLID_870_" class="st4" d="M491.6,161.3c0,2.6-2.1,4-4.6,4c-2.4,0-4.6-1.4-4.6-4c0-2.6,2.1-4,4.6-4
			C489.4,157.3,491.6,158.7,491.6,161.3z M485.3,161.3c0,1,0.6,1.7,1.7,1.7c1.1,0,1.7-0.7,1.7-1.7c0-0.9-0.6-1.7-1.7-1.7
			C485.9,159.6,485.3,160.4,485.3,161.3z M486.7,156.4l-1.2-0.9l2.1-2.5l1.6,1.2L486.7,156.4z"/>
		<path id="XMLID_868_" class="st4" d="M495.5,158.5L495.5,158.5c0.7-0.9,1.4-1.2,2.5-1.2c2,0,2.9,1.3,2.9,3.1v4.7h-2.7v-3.7
			c0-0.7,0.1-2-1.2-2c-1.1,0-1.4,0.8-1.4,1.8v3.9h-2.7v-7.6h2.7V158.5z"/>
		<path id="XMLID_866_" class="st4" d="M506.7,159.2v2.2h-4.2v-2.2H506.7z"/>
		<path id="XMLID_864_" class="st4" d="M511,158.5L511,158.5c0.7-0.8,1.4-1.2,2.4-1.2c1.1,0,2,0.4,2.6,1.4c0.5-0.9,1.5-1.4,2.6-1.4
			c1.9,0,2.6,1.3,2.6,3v4.8h-2.7v-3.6c0-0.8,0-2.1-1.1-2.1c-1.2,0-1.3,1.2-1.3,2.1v3.6h-2.7v-3.6c0-0.8,0-2.1-1.2-2.1
			c-1.2,0-1.2,1.3-1.2,2.1v3.6h-2.7v-7.6h2.7V158.5z"/>
		<path id="XMLID_861_" class="st4" d="M530.7,161.8h-5.7c0,1.1,0.6,1.7,1.7,1.7c0.6,0,1-0.2,1.3-0.7h2.6c-0.2,0.9-0.7,1.5-1.4,2
			c-0.7,0.4-1.6,0.6-2.4,0.6c-2.5,0-4.4-1.4-4.4-4c0-2.5,1.7-4,4.2-4c2.6,0,4.2,1.6,4.2,4.2V161.8z M528.2,160.2
			c-0.1-0.7-0.8-1.2-1.5-1.2c-0.8,0-1.4,0.4-1.6,1.2H528.2z"/>
		<path id="XMLID_858_" class="st4" d="M537.7,164.3L537.7,164.3c-0.5,0.8-1.4,1.1-2.3,1.1c-2.2,0-3.8-1.9-3.8-4.1
			c0-2.2,1.6-4,3.8-4c0.9,0,1.8,0.3,2.4,1v-5.4h2.7v12.3h-2.7V164.3z M534.3,161.3c0,1,0.6,1.7,1.7,1.7c1.1,0,1.7-0.7,1.7-1.7
			c0-0.9-0.6-1.7-1.7-1.7C534.9,159.6,534.3,160.4,534.3,161.3z"/>
		<path id="XMLID_855_" class="st4" d="M544.9,154.6c0,0.8-0.7,1.5-1.5,1.5c-0.8,0-1.5-0.7-1.5-1.5c0-0.8,0.7-1.5,1.5-1.5
			C544.2,153.1,544.9,153.8,544.9,154.6z M544.7,165.1H542v-7.6h2.7V165.1z"/>
		<path id="XMLID_853_" class="st4" d="M552,160c-0.4-0.3-0.9-0.5-1.4-0.5c-1,0-1.8,0.8-1.8,1.8c0,1.1,0.8,1.9,1.9,1.9
			c0.5,0,1-0.2,1.3-0.5v2.3c-0.6,0.3-1.2,0.4-1.9,0.4c-2.2,0-4.1-1.7-4.1-4c0-2.4,1.9-4.1,4.2-4.1c0.6,0,1.2,0.1,1.8,0.4V160z"/>
		<path id="XMLID_850_" class="st4" d="M556.5,154.6c0,0.8-0.7,1.5-1.5,1.5c-0.8,0-1.5-0.7-1.5-1.5c0-0.8,0.7-1.5,1.5-1.5
			C555.8,153.1,556.5,153.8,556.5,154.6z M556.3,165.1h-2.7v-7.6h2.7V165.1z"/>
		<path id="XMLID_846_" class="st4" d="M566.7,161.3c0,2.6-2.1,4-4.6,4c-2.4,0-4.6-1.4-4.6-4c0-2.6,2.1-4,4.6-4
			C564.6,157.3,566.7,158.7,566.7,161.3z M560.4,161.3c0,1,0.6,1.7,1.7,1.7c1.1,0,1.7-0.7,1.7-1.7c0-0.9-0.6-1.7-1.7-1.7
			C561,159.6,560.4,160.4,560.4,161.3z M561.8,156.4l-1.2-0.9l2.1-2.5l1.6,1.2L561.8,156.4z"/>
		<path id="XMLID_844_" class="st4" d="M570.6,158.5L570.6,158.5c0.7-0.9,1.4-1.2,2.5-1.2c2,0,2.9,1.3,2.9,3.1v4.7h-2.7v-3.7
			c0-0.7,0.1-2-1.2-2c-1.1,0-1.4,0.8-1.4,1.8v3.9h-2.7v-7.6h2.7V158.5z"/>
	</g>
</g>
<g id="XMLID_12822_">
	<g>
		<path id="XMLID_1045_" class="st4" d="M420.7,259l-0.8,1.9h-3.1l4.3-11.1h3.2l4.2,11.1h-3.1l-0.7-1.9H420.7z M422.7,253.2
			L422.7,253.2l-1.2,3.5h2.4L422.7,253.2z"/>
		<path id="XMLID_1042_" class="st4" d="M438.6,260.9H435l-2.7-4.3h0v4.3h-2.9v-11.1h4.3c2.2,0,3.9,1,3.9,3.4c0,1.5-0.9,2.9-2.4,3.1
			L438.6,260.9z M432.3,254.7h0.3c0.9,0,2-0.2,2-1.4c0-1.2-1.1-1.4-2-1.4h-0.3V254.7z"/>
		<path id="XMLID_1040_" class="st4" d="M442.3,252.2v1.9h3.3v2.5h-3.3v1.9h3.4v2.5h-6.3v-11.1h6.3v2.5H442.3z"/>
		<path id="XMLID_1037_" class="st4" d="M450.4,259l-0.8,1.9h-3.1l4.3-11.1h3.2l4.2,11.1h-3.1l-0.7-1.9H450.4z M452.4,253.2
			L452.4,253.2l-1.2,3.5h2.4L452.4,253.2z"/>
		<path id="XMLID_1035_" class="st4" d="M468.6,260.9h-2.9v-8.7h-2.4v-2.5h7.7v2.5h-2.4V260.9z"/>
		<path id="XMLID_1033_" class="st4" d="M474.9,252.2v1.9h3.3v2.5h-3.3v1.9h3.4v2.5H472v-11.1h6.3v2.5H474.9z"/>
		<path id="XMLID_1031_" class="st4" d="M488.1,253.5c-0.6-0.8-1.6-1.2-2.5-1.2c-1.8,0-3,1.4-3,3.1c0,1.8,1.2,3,3,3
			c0.9,0,1.9-0.5,2.5-1.2v3.5c-1,0.3-1.7,0.5-2.6,0.5c-1.6,0-3-0.6-4.2-1.6c-1.2-1.1-1.8-2.6-1.8-4.2c0-1.5,0.6-3,1.6-4.1
			c1.1-1.1,2.7-1.8,4.2-1.8c0.9,0,1.8,0.2,2.6,0.6V253.5z"/>
		<path id="XMLID_1029_" class="st4" d="M489.9,249.7h2.9l5.3,6.8h0v-6.8h2.9v11.1h-2.9l-5.3-6.8h0v6.8h-2.9V249.7z"/>
		<path id="XMLID_1027_" class="st4" d="M505.8,260.9H503v-11.1h2.9V260.9z"/>
		<path id="XMLID_1025_" class="st4" d="M515.7,253.5c-0.6-0.8-1.6-1.2-2.5-1.2c-1.8,0-3,1.4-3,3.1c0,1.8,1.2,3,3,3
			c0.9,0,1.9-0.5,2.5-1.2v3.5c-1,0.3-1.7,0.5-2.6,0.5c-1.6,0-3-0.6-4.2-1.6c-1.2-1.1-1.8-2.6-1.8-4.2c0-1.5,0.6-3,1.6-4.1
			c1.1-1.1,2.7-1.8,4.2-1.8c0.9,0,1.8,0.2,2.6,0.6V253.5z"/>
		<path id="XMLID_1022_" class="st4" d="M529.3,255.1c0,3.6-2.6,6.1-6.2,6.1c-3.6,0-6.2-2.5-6.2-6.1c0-3.4,3-5.7,6.2-5.7
			C526.3,249.4,529.3,251.7,529.3,255.1z M519.9,255.1c0,1.9,1.4,3.3,3.1,3.3c1.7,0,3.1-1.4,3.1-3.3c0-1.5-1.4-2.9-3.1-2.9
			C521.4,252.2,519.9,253.6,519.9,255.1z"/>
		<path id="XMLID_1020_" class="st4" d="M536.7,252.6c-0.5-0.4-1.2-0.7-1.9-0.7c-0.5,0-1.2,0.3-1.2,0.9c0,0.7,0.8,0.9,1.3,1.1
			l0.7,0.2c1.6,0.5,2.7,1.2,2.7,3c0,1.1-0.3,2.2-1.2,3c-0.9,0.7-2,1-3.2,1c-1.4,0-2.8-0.5-3.9-1.3l1.2-2.3c0.7,0.6,1.6,1.2,2.6,1.2
			c0.7,0,1.4-0.3,1.4-1.1c0-0.8-1.1-1.1-1.8-1.3c-1.8-0.5-3-1-3-3.1c0-2.3,1.6-3.7,3.8-3.7c1.1,0,2.5,0.4,3.5,0.9L536.7,252.6z"/>
		<path id="XMLID_1018_" class="st4" d="M546.9,248.6l-5.6,13.6h-2.1l5.6-13.6H546.9z"/>
		<path id="XMLID_1015_" class="st4" d="M551.1,259l-0.8,1.9h-3.1l4.3-11.1h3.2l4.2,11.1h-3.1l-0.7-1.9H551.1z M553.1,253.2
			L553.1,253.2l-1.2,3.5h2.4L553.1,253.2z"/>
		<path id="XMLID_1012_" class="st4" d="M569.1,260.9h-3.6l-2.7-4.3h0v4.3h-2.9v-11.1h4.3c2.2,0,3.9,1,3.9,3.4
			c0,1.5-0.9,2.9-2.4,3.1L569.1,260.9z M562.7,254.7h0.3c0.9,0,2-0.2,2-1.4c0-1.2-1.1-1.4-2-1.4h-0.3V254.7z"/>
		<path id="XMLID_1009_" class="st4" d="M579.4,261.6l-0.9-1c-0.9,0.5-1.9,0.7-3.1,0.7c-3.6,0-6.2-2.5-6.2-6.1c0-3.4,3-5.7,6.2-5.7
			c3.5,0,6.2,2.4,6.2,6c0,1.5-0.5,2.8-1.4,3.9l1.9,1.9L579.4,261.6z M578.1,257c0.3-0.5,0.5-1.1,0.5-1.6c0-1.7-1.4-3.2-3.1-3.2
			c-1.7,0-3.2,1.4-3.2,2.9c0,1.9,1.4,3.3,3.2,3.3c0.3,0,0.6,0,0.9-0.1l-1.8-1.8l2.7-0.3L578.1,257z"/>
		<path id="XMLID_1007_" class="st4" d="M430.8,274.3l2.7-6.8h3.1l-4.8,11.1h-2.2l-4.7-11.1h3.1L430.8,274.3z"/>
		<path id="XMLID_1004_" class="st4" d="M444.5,278.6h-2.7v-0.8h0c-0.5,0.8-1.4,1.1-2.3,1.1c-2.2,0-3.8-1.9-3.8-4.1s1.6-4,3.8-4
			c0.9,0,1.8,0.3,2.4,1V271h2.7V278.6z M438.4,274.8c0,1,0.6,1.7,1.7,1.7c1.1,0,1.7-0.7,1.7-1.7c0-0.9-0.6-1.7-1.7-1.7
			C439.1,273.1,438.4,273.9,438.4,274.8z"/>
		<path id="XMLID_1002_" class="st4" d="M449,278.6h-2.7v-12.3h2.7V278.6z"/>
		<path id="XMLID_999_" class="st4" d="M459.3,274.8c0,2.6-2.1,4-4.6,4c-2.4,0-4.6-1.4-4.6-4c0-2.6,2.1-4,4.6-4
			C457.2,270.8,459.3,272.3,459.3,274.8z M453,274.8c0,1,0.6,1.7,1.7,1.7c1.1,0,1.7-0.7,1.7-1.7c0-0.9-0.6-1.7-1.7-1.7
			C453.6,273.1,453,273.9,453,274.8z"/>
		<path id="XMLID_997_" class="st4" d="M463.2,272.3L463.2,272.3c0.5-0.9,1.4-1.3,2.5-1.3h0.5v2.6c-0.4-0.2-0.7-0.3-1.1-0.3
			c-1.5,0-1.9,1-1.9,2.3v3.1h-2.7V271h2.7V272.3z"/>
		<path id="XMLID_994_" class="st4" d="M475.5,278.6h-2.7v-0.8h0c-0.5,0.8-1.4,1.1-2.3,1.1c-2.2,0-3.8-1.9-3.8-4.1s1.6-4,3.8-4
			c0.9,0,1.8,0.3,2.4,1V271h2.7V278.6z M469.4,274.8c0,1,0.6,1.7,1.7,1.7c1.1,0,1.7-0.7,1.7-1.7c0-0.9-0.6-1.7-1.7-1.7
			C470.1,273.1,469.4,273.9,469.4,274.8z"/>
		<path id="XMLID_992_" class="st4" d="M482.8,273.5c-0.4-0.3-0.9-0.5-1.4-0.5c-1,0-1.8,0.8-1.8,1.8c0,1.1,0.8,1.9,1.9,1.9
			c0.5,0,1-0.2,1.3-0.5v2.3c-0.6,0.3-1.2,0.4-1.9,0.4c-2.2,0-4.1-1.7-4.1-4c0-2.4,1.9-4.1,4.2-4.1c0.6,0,1.2,0.1,1.8,0.4V273.5z"/>
		<path id="XMLID_989_" class="st4" d="M487.3,268.1c0,0.8-0.7,1.5-1.5,1.5c-0.8,0-1.5-0.7-1.5-1.5c0-0.8,0.7-1.5,1.5-1.5
			C486.6,266.6,487.3,267.3,487.3,268.1z M487.1,278.6h-2.7V271h2.7V278.6z"/>
		<path id="XMLID_985_" class="st4" d="M497.5,274.8c0,2.6-2.1,4-4.6,4c-2.4,0-4.6-1.4-4.6-4c0-2.6,2.1-4,4.6-4
			C495.3,270.8,497.5,272.3,497.5,274.8z M491.2,274.8c0,1,0.6,1.7,1.7,1.7c1.1,0,1.7-0.7,1.7-1.7c0-0.9-0.6-1.7-1.7-1.7
			C491.8,273.1,491.2,273.9,491.2,274.8z M492.6,269.9l-1.2-0.9l2.1-2.5l1.6,1.2L492.6,269.9z"/>
		<path id="XMLID_983_" class="st4" d="M501.4,272L501.4,272c0.7-0.9,1.4-1.2,2.5-1.2c2,0,2.9,1.3,2.9,3.1v4.7H504v-3.7
			c0-0.7,0.1-2-1.2-2c-1.1,0-1.4,0.8-1.4,1.8v3.9h-2.7V271h2.7V272z"/>
		<path id="XMLID_981_" class="st4" d="M512.6,272.8v2.2h-4.2v-2.2H512.6z"/>
		<path id="XMLID_979_" class="st4" d="M517.2,278.6h-2.9v-11.1h2.9V278.6z"/>
		<path id="XMLID_977_" class="st4" d="M521.7,272L521.7,272c0.7-0.9,1.4-1.2,2.5-1.2c2,0,2.9,1.3,2.9,3.1v4.7h-2.7v-3.7
			c0-0.7,0.1-2-1.2-2c-1.1,0-1.4,0.8-1.4,1.8v3.9H519V271h2.7V272z"/>
		<path id="XMLID_975_" class="st4" d="M531.8,278.6h-2.7v-5.4h-0.9V271h0.9v-1c0-1,0-1.8,0.8-2.7c0.7-0.8,1.6-1.2,2.6-1.2
			c0.4,0,0.8,0.1,1.2,0.3v2.3c-0.3-0.1-0.6-0.3-0.9-0.3c-0.7,0-0.9,0.4-0.9,1.3v1.2h1.9v2.2h-1.9V278.6z"/>
		<path id="XMLID_917_" class="st4" d="M543.1,274.8c0,2.6-2.1,4-4.6,4c-2.4,0-4.6-1.4-4.6-4c0-2.6,2.1-4,4.6-4
			C541,270.8,543.1,272.3,543.1,274.8z M536.8,274.8c0,1,0.6,1.7,1.7,1.7c1.1,0,1.7-0.7,1.7-1.7c0-0.9-0.6-1.7-1.7-1.7
			C537.4,273.1,536.8,273.9,536.8,274.8z"/>
		<path id="XMLID_905_" class="st4" d="M547,272.3L547,272.3c0.5-0.9,1.4-1.3,2.5-1.3h0.5v2.6c-0.4-0.2-0.7-0.3-1.1-0.3
			c-1.5,0-1.9,1-1.9,2.3v3.1h-2.7V271h2.7V272.3z"/>
		<path id="XMLID_903_" class="st4" d="M553.7,272L553.7,272c0.7-0.8,1.4-1.2,2.4-1.2c1.1,0,2,0.4,2.6,1.4c0.5-0.9,1.5-1.4,2.6-1.4
			c1.9,0,2.6,1.3,2.6,3v4.8h-2.7V275c0-0.8,0-2.1-1.1-2.1c-1.2,0-1.3,1.2-1.3,2.1v3.6h-2.7V275c0-0.8,0-2.1-1.2-2.1
			c-1.2,0-1.2,1.3-1.2,2.1v3.6H551V271h2.7V272z"/>
		<path id="XMLID_900_" class="st4" d="M573.4,275.3h-5.7c0,1.1,0.6,1.7,1.7,1.7c0.6,0,1-0.2,1.3-0.7h2.6c-0.2,0.9-0.7,1.5-1.4,2
			c-0.7,0.4-1.6,0.6-2.4,0.6c-2.5,0-4.4-1.4-4.4-4c0-2.5,1.7-4,4.2-4c2.6,0,4.2,1.6,4.2,4.2V275.3z M570.9,273.7
			c-0.1-0.7-0.8-1.2-1.5-1.2c-0.8,0-1.4,0.4-1.6,1.2H570.9z"/>
	</g>
</g>
<rect id="XMLID_5818_" x="386.9" y="339.6" class="st3" width="223.5" height="101.2"/>
<g id="XMLID_12747_">
	<g>
		<path id="XMLID_835_" class="st4" d="M439,367.4v7.5c0,2.4-1.2,3.9-3.7,3.9c-1.2,0-2.2-0.6-2.9-1.6l1.7-1.8
			c0.3,0.4,0.8,0.9,1.2,0.9c0.9,0,0.8-1,0.8-1.6v-7.3H439z"/>
		<path id="XMLID_833_" class="st4" d="M443.7,369.8v1.9h3.3v2.5h-3.3v1.9h3.4v2.5h-6.3v-11.1h6.3v2.5H443.7z"/>
		<path id="XMLID_831_" class="st4" d="M451.9,369.8v1.9h3.2v2.5h-3.2v4.4H449v-11.1h6.4v2.5H451.9z"/>
		<path id="XMLID_829_" class="st4" d="M459.9,369.8v1.9h3.3v2.5h-3.3v1.9h3.4v2.5H457v-11.1h6.3v2.5H459.9z"/>
		<path id="XMLID_805_" class="st4" d="M470.2,367.4h4.1c3.1,0,5.7,2.4,5.7,5.6c0,3.1-2.6,5.6-5.7,5.6h-4.1V367.4z M473.1,376h0.7
			c1.7,0,3.2-0.9,3.2-3.1c0-2-1.3-3.1-3.2-3.1h-0.7V376z"/>
		<path id="XMLID_803_" class="st4" d="M484.2,369.8v1.9h3.3v2.5h-3.3v1.9h3.4v2.5h-6.3v-11.1h6.3v2.5H484.2z"/>
		<path id="XMLID_800_" class="st4" d="M494.5,367.4h4.1c3.1,0,5.7,2.4,5.7,5.6c0,3.1-2.6,5.6-5.7,5.6h-4.1V367.4z M497.4,376h0.7
			c1.7,0,3.2-0.9,3.2-3.1c0-2-1.3-3.1-3.2-3.1h-0.7V376z"/>
		<path id="XMLID_798_" class="st4" d="M508.5,378.5h-2.9v-11.1h2.9V378.5z"/>
		<path id="XMLID_796_" class="st4" d="M515.1,374.1l2.7-6.8h3.1l-4.8,11.1h-2.2l-4.7-11.1h3.1L515.1,374.1z"/>
		<path id="XMLID_794_" class="st4" d="M524.5,378.5h-2.9v-11.1h2.9V378.5z"/>
		<path id="XMLID_792_" class="st4" d="M532.5,370.2c-0.5-0.4-1.2-0.7-1.9-0.7c-0.5,0-1.2,0.3-1.2,0.9c0,0.7,0.8,0.9,1.3,1.1
			l0.7,0.2c1.6,0.5,2.7,1.2,2.7,3c0,1.1-0.3,2.2-1.2,3c-0.9,0.7-2,1-3.2,1c-1.4,0-2.8-0.5-3.9-1.3l1.2-2.3c0.7,0.6,1.6,1.2,2.6,1.2
			c0.7,0,1.4-0.3,1.4-1.1c0-0.8-1.1-1.1-1.8-1.3c-1.8-0.5-3-1-3-3.1c0-2.3,1.6-3.7,3.8-3.7c1.1,0,2.5,0.4,3.5,0.9L532.5,370.2z"/>
		<path id="XMLID_790_" class="st4" d="M538.4,378.5h-2.9v-11.1h2.9V378.5z"/>
		<path id="XMLID_786_" class="st4" d="M552.1,372.7c0,3.6-2.6,6.1-6.2,6.1c-3.6,0-6.2-2.5-6.2-6.1c0-3.4,3-5.7,6.2-5.7
			S552.1,369.4,552.1,372.7z M542.8,372.7c0,1.9,1.4,3.3,3.1,3.3c1.7,0,3.1-1.4,3.1-3.3c0-1.5-1.4-2.9-3.1-2.9
			C544.2,369.8,542.8,371.2,542.8,372.7z M545.6,366.7l-1.2-0.9l2.1-2.5l1.6,1.2L545.6,366.7z"/>
		<path id="XMLID_784_" class="st4" d="M553.4,367.4h2.9l5.3,6.8h0v-6.8h2.9v11.1h-2.9l-5.3-6.8h0v6.8h-2.9V367.4z"/>
		<path id="XMLID_782_" class="st4" d="M428.6,391.9l2.7-6.8h3.1l-4.8,11.1h-2.2l-4.7-11.1h3.1L428.6,391.9z"/>
		<path id="XMLID_779_" class="st4" d="M442.5,392.5c0,2.6-2.1,4-4.6,4c-2.4,0-4.6-1.4-4.6-4s2.1-4,4.6-4
			C440.4,388.4,442.5,389.9,442.5,392.5z M436.3,392.5c0,1,0.6,1.7,1.7,1.7c1.1,0,1.7-0.7,1.7-1.7c0-0.9-0.6-1.7-1.7-1.7
			C436.9,390.7,436.3,391.5,436.3,392.5z"/>
		<path id="XMLID_775_" class="st4" d="M443.8,396.2v-11.1h4.1c2,0,3.3,0.8,3.3,2.9c0,1-0.3,1.8-1.2,2.3v0c1.6,0.2,2.3,1.3,2.3,2.8
			c0,2.3-2,3.1-4,3.1H443.8z M446.7,389.5h0.3c0.8,0,1.6-0.1,1.6-1.1c0-1-0.9-1.1-1.7-1.1h-0.2V389.5z M446.7,394h0.4
			c0.9,0,2.3,0,2.3-1.2c0-1.3-1.4-1.2-2.4-1.2h-0.3V394z"/>
		<path id="XMLID_772_" class="st4" d="M462.3,392.5c0,2.6-2.1,4-4.6,4c-2.4,0-4.6-1.4-4.6-4s2.1-4,4.6-4
			C460.2,388.4,462.3,389.9,462.3,392.5z M456,392.5c0,1,0.6,1.7,1.7,1.7c1.1,0,1.7-0.7,1.7-1.7c0-0.9-0.6-1.7-1.7-1.7
			C456.7,390.7,456,391.5,456,392.5z"/>
		<path id="XMLID_770_" class="st4" d="M467.5,388.7h3.1l2,3.9l2-3.9h3.1l-6.1,11.4h-3l2.6-4.8L467.5,388.7z"/>
		<path id="XMLID_767_" class="st4" d="M491.6,396.2H489v-0.8h0c-0.5,0.8-1.4,1.1-2.3,1.1c-2.2,0-3.8-1.9-3.8-4.1c0-2.2,1.6-4,3.8-4
			c0.9,0,1.8,0.3,2.4,1v-0.7h2.7V396.2z M485.6,392.5c0,1,0.6,1.7,1.7,1.7c1.1,0,1.7-0.7,1.7-1.7c0-0.9-0.6-1.7-1.7-1.7
			C486.2,390.7,485.6,391.5,485.6,392.5z"/>
		<path id="XMLID_764_" class="st4" d="M496,389.5L496,389.5c0.5-0.8,1.4-1.1,2.3-1.1c2.3,0,3.8,1.9,3.8,4.1c0,2.2-1.6,4-3.8,4
			c-0.9,0-1.8-0.3-2.4-1v4.5h-2.7v-11.4h2.7V389.5z M495.9,392.5c0,1,0.6,1.7,1.7,1.7c1.1,0,1.7-0.7,1.7-1.7c0-0.9-0.6-1.7-1.7-1.7
			C496.6,390.7,495.9,391.5,495.9,392.5z"/>
		<path id="XMLID_762_" class="st4" d="M506.2,389.9L506.2,389.9c0.5-0.9,1.4-1.3,2.5-1.3h0.5v2.6c-0.4-0.2-0.7-0.3-1.1-0.3
			c-1.5,0-1.9,1-1.9,2.3v3.1h-2.7v-7.6h2.7V389.9z"/>
		<path id="XMLID_759_" class="st4" d="M518.5,392.5c0,2.6-2.1,4-4.6,4c-2.4,0-4.6-1.4-4.6-4s2.1-4,4.6-4
			C516.4,388.4,518.5,389.9,518.5,392.5z M512.2,392.5c0,1,0.6,1.7,1.7,1.7c1.1,0,1.7-0.7,1.7-1.7c0-0.9-0.6-1.7-1.7-1.7
			C512.9,390.7,512.2,391.5,512.2,392.5z"/>
		<path id="XMLID_756_" class="st4" d="M519.6,384h2.7v5.4c0.6-0.7,1.5-1,2.4-1c2.2,0,3.8,1.9,3.8,4c0,2.2-1.6,4.1-3.8,4.1
			c-0.9,0-1.8-0.3-2.3-1.1h0v0.8h-2.7V384z M522.2,392.5c0,1,0.6,1.7,1.7,1.7c1.1,0,1.7-0.7,1.7-1.7c0-0.9-0.6-1.7-1.7-1.7
			C522.9,390.7,522.2,391.5,522.2,392.5z"/>
		<path id="XMLID_678_" class="st4" d="M538.1,396.2h-2.7v-0.8h0c-0.5,0.8-1.4,1.1-2.3,1.1c-2.2,0-3.8-1.9-3.8-4.1
			c0-2.2,1.6-4,3.8-4c0.9,0,1.8,0.3,2.4,1v-0.7h2.7V396.2z M532,392.5c0,1,0.6,1.7,1.7,1.7c1.1,0,1.7-0.7,1.7-1.7
			c0-0.9-0.6-1.7-1.7-1.7C532.7,390.7,532,391.5,532,392.5z"/>
		<path id="XMLID_676_" class="st4" d="M545.3,391.1c-0.4-0.3-0.9-0.5-1.4-0.5c-1,0-1.8,0.8-1.8,1.8c0,1.1,0.8,1.9,1.9,1.9
			c0.5,0,1-0.2,1.3-0.5v2.3c-0.6,0.3-1.2,0.4-1.9,0.4c-2.2,0-4.1-1.7-4.1-4c0-2.4,1.9-4.1,4.2-4.1c0.6,0,1.2,0.1,1.8,0.4V391.1z"/>
		<path id="XMLID_673_" class="st4" d="M549.9,385.7c0,0.8-0.7,1.5-1.5,1.5c-0.8,0-1.5-0.7-1.5-1.5c0-0.8,0.7-1.5,1.5-1.5
			C549.2,384.2,549.9,384.9,549.9,385.7z M549.7,396.2H547v-7.6h2.7V396.2z"/>
		<path id="XMLID_669_" class="st4" d="M560.1,392.5c0,2.6-2.1,4-4.6,4c-2.4,0-4.6-1.4-4.6-4s2.1-4,4.6-4
			C557.9,388.4,560.1,389.9,560.1,392.5z M553.8,392.5c0,1,0.6,1.7,1.7,1.7c1.1,0,1.7-0.7,1.7-1.7c0-0.9-0.6-1.7-1.7-1.7
			C554.4,390.7,553.8,391.5,553.8,392.5z M555.2,387.5l-1.2-0.9l2.1-2.5l1.6,1.2L555.2,387.5z"/>
		<path id="XMLID_667_" class="st4" d="M564,389.6L564,389.6c0.7-0.9,1.4-1.2,2.5-1.2c2,0,2.9,1.3,2.9,3.1v4.7h-2.7v-3.7
			c0-0.7,0.1-2-1.2-2c-1.1,0-1.4,0.8-1.4,1.8v3.9h-2.7v-7.6h2.7V389.6z"/>
	</g>
</g>
<rect id="XMLID_5816_" x="386.9" y="470.8" class="st3" width="223.5" height="101.2"/>
<g id="XMLID_12671_">
	<g>
		<path id="XMLID_754_" class="st4" d="M446.4,501.7c-0.5-0.4-1.2-0.7-1.9-0.7c-0.5,0-1.2,0.3-1.2,0.9c0,0.7,0.8,0.9,1.3,1.1
			l0.7,0.2c1.6,0.5,2.7,1.2,2.7,3c0,1.1-0.3,2.2-1.2,3c-0.9,0.7-2,1-3.2,1c-1.4,0-2.8-0.5-3.9-1.3l1.2-2.3c0.7,0.6,1.6,1.2,2.6,1.2
			c0.7,0,1.4-0.3,1.4-1.1c0-0.8-1.1-1.1-1.8-1.3c-1.8-0.5-3-1-3-3.1c0-2.3,1.6-3.7,3.8-3.7c1.1,0,2.5,0.4,3.5,0.9L446.4,501.7z"/>
		<path id="XMLID_752_" class="st4" d="M452.3,501.2v1.9h3.3v2.5h-3.3v1.9h3.4v2.5h-6.3v-11.1h6.3v2.5H452.3z"/>
		<path id="XMLID_750_" class="st4" d="M465.5,502.5c-0.6-0.8-1.6-1.2-2.5-1.2c-1.8,0-3,1.4-3,3.1c0,1.8,1.2,3,3,3
			c0.9,0,1.9-0.5,2.5-1.2v3.5c-1,0.3-1.7,0.5-2.6,0.5c-1.6,0-3-0.6-4.2-1.6c-1.2-1.1-1.8-2.6-1.8-4.2c0-1.5,0.6-3,1.6-4.1
			c1.1-1.1,2.7-1.8,4.2-1.8c0.9,0,1.8,0.2,2.6,0.6V502.5z"/>
		<path id="XMLID_747_" class="st4" d="M476.5,509.9h-3.6l-2.7-4.3h0v4.3h-2.9v-11.1h4.3c2.2,0,3.9,1,3.9,3.4c0,1.5-0.9,2.9-2.4,3.1
			L476.5,509.9z M470.2,503.8h0.3c0.9,0,2-0.2,2-1.4c0-1.2-1.1-1.4-2-1.4h-0.3V503.8z"/>
		<path id="XMLID_745_" class="st4" d="M480.2,501.2v1.9h3.3v2.5h-3.3v1.9h3.4v2.5h-6.3v-11.1h6.3v2.5H480.2z"/>
		<path id="XMLID_743_" class="st4" d="M489.9,509.9H487v-8.7h-2.4v-2.5h7.7v2.5h-2.4V509.9z"/>
		<path id="XMLID_740_" class="st4" d="M495.3,508l-0.8,1.9h-3.1l4.3-11.1h3.2l4.2,11.1H500l-0.7-1.9H495.3z M497.3,502.2
			L497.3,502.2l-1.2,3.5h2.4L497.3,502.2z"/>
		<path id="XMLID_737_" class="st4" d="M513.3,509.9h-3.6l-2.7-4.3h0v4.3H504v-11.1h4.3c2.2,0,3.9,1,3.9,3.4c0,1.5-0.9,2.9-2.4,3.1
			L513.3,509.9z M506.9,503.8h0.3c0.9,0,2-0.2,2-1.4c0-1.2-1.1-1.4-2-1.4h-0.3V503.8z"/>
		<path id="XMLID_735_" class="st4" d="M516.9,509.9H514v-11.1h2.9V509.9z"/>
		<path id="XMLID_732_" class="st4" d="M521.7,508l-0.8,1.9h-3.1l4.3-11.1h3.2l4.2,11.1h-3.1l-0.7-1.9H521.7z M523.7,502.2
			L523.7,502.2l-1.2,3.5h2.4L523.7,502.2z"/>
		<path id="XMLID_729_" class="st4" d="M535.4,498.8h4.1c3.1,0,5.7,2.4,5.7,5.6c0,3.1-2.6,5.6-5.7,5.6h-4.1V498.8z M538.3,507.5h0.7
			c1.7,0,3.2-0.9,3.2-3.1c0-2-1.3-3.1-3.2-3.1h-0.7V507.5z"/>
		<path id="XMLID_727_" class="st4" d="M549.5,501.2v1.9h3.3v2.5h-3.3v1.9h3.4v2.5h-6.3v-11.1h6.3v2.5H549.5z"/>
		<path id="XMLID_725_" class="st4" d="M456.3,519.4c-0.5-0.4-1.2-0.7-1.9-0.7c-0.5,0-1.2,0.3-1.2,0.9c0,0.7,0.8,0.9,1.3,1.1
			l0.7,0.2c1.6,0.5,2.7,1.2,2.7,3c0,1.1-0.3,2.2-1.2,3c-0.9,0.7-2,1-3.2,1c-1.4,0-2.8-0.5-3.9-1.3l1.2-2.3c0.7,0.6,1.6,1.2,2.6,1.2
			c0.7,0,1.4-0.3,1.4-1.1c0-0.8-1.1-1.1-1.8-1.3c-1.8-0.5-3-1-3-3.1c0-2.3,1.6-3.7,3.8-3.7c1.1,0,2.5,0.4,3.5,0.9L456.3,519.4z"/>
		<path id="XMLID_723_" class="st4" d="M462.2,519v1.9h3.3v2.5h-3.3v1.9h3.4v2.5h-6.3v-11.1h6.3v2.5H462.2z"/>
		<path id="XMLID_720_" class="st4" d="M476.7,527.7h-3.6l-2.7-4.3h0v4.3h-2.9v-11.1h4.3c2.2,0,3.9,1,3.9,3.4c0,1.5-0.9,2.9-2.4,3.1
			L476.7,527.7z M470.3,521.5h0.3c0.9,0,2-0.2,2-1.4c0-1.2-1.1-1.4-2-1.4h-0.3V521.5z"/>
		<path id="XMLID_718_" class="st4" d="M481.8,523.3l2.7-6.8h3.1l-4.8,11.1h-2.2l-4.7-11.1h3.1L481.8,523.3z"/>
		<path id="XMLID_716_" class="st4" d="M491.3,527.7h-2.9v-11.1h2.9V527.7z"/>
		<path id="XMLID_714_" class="st4" d="M501.2,520.3c-0.6-0.8-1.6-1.2-2.5-1.2c-1.8,0-3,1.4-3,3.1c0,1.8,1.2,3,3,3
			c0.9,0,1.9-0.5,2.5-1.2v3.5c-1,0.3-1.7,0.5-2.6,0.5c-1.6,0-3-0.6-4.2-1.6c-1.2-1.1-1.8-2.6-1.8-4.2c0-1.5,0.6-3,1.6-4.1
			c1.1-1.1,2.7-1.8,4.2-1.8c0.9,0,1.8,0.2,2.6,0.6V520.3z"/>
		<path id="XMLID_712_" class="st4" d="M505.9,527.7H503v-11.1h2.9V527.7z"/>
		<path id="XMLID_709_" class="st4" d="M519.5,521.9c0,3.6-2.6,6.1-6.2,6.1c-3.6,0-6.2-2.5-6.2-6.1c0-3.4,3-5.7,6.2-5.7
			C516.6,516.2,519.5,518.5,519.5,521.9z M510.2,521.9c0,1.9,1.4,3.3,3.1,3.3c1.7,0,3.1-1.4,3.1-3.3c0-1.5-1.4-2.9-3.1-2.9
			C511.6,519,510.2,520.4,510.2,521.9z"/>
		<path id="XMLID_706_" class="st4" d="M528.8,525.7l-0.8,1.9h-3.1l4.3-11.1h3.2l4.2,11.1h-3.1l-0.7-1.9H528.8z M530.8,520
			L530.8,520l-1.2,3.5h2.4L530.8,520z"/>
		<path id="XMLID_704_" class="st4" d="M540.4,525.2h3.5v2.5h-6.4v-11.1h2.9V525.2z"/>
		<path id="XMLID_702_" class="st4" d="M459.2,538c-0.6-0.8-1.6-1.2-2.5-1.2c-1.8,0-3,1.4-3,3.1c0,1.8,1.2,3,3,3
			c0.9,0,1.9-0.5,2.5-1.2v3.5c-1,0.3-1.7,0.5-2.6,0.5c-1.6,0-3-0.6-4.2-1.6c-1.2-1.1-1.8-2.6-1.8-4.2c0-1.5,0.6-3,1.6-4.1
			c1.1-1.1,2.7-1.8,4.2-1.8c0.9,0,1.8,0.2,2.6,0.6V538z"/>
		<path id="XMLID_700_" class="st4" d="M463.9,545.4H461v-11.1h2.9V545.4z"/>
		<path id="XMLID_698_" class="st4" d="M475.5,534.3v6.3c0,1.4-0.1,2.9-1.2,3.9c-0.9,0.9-2.4,1.2-3.7,1.2s-2.8-0.3-3.7-1.2
			c-1.1-1.1-1.2-2.5-1.2-3.9v-6.3h2.9v5.9c0,1.4,0.1,3,2,3c1.9,0,2-1.6,2-3v-5.9H475.5z"/>
		<path id="XMLID_695_" class="st4" d="M477.3,534.3h4.1c3.1,0,5.7,2.4,5.7,5.6c0,3.1-2.6,5.6-5.7,5.6h-4.1V534.3z M480.2,543h0.6
			c1.7,0,3.2-0.9,3.2-3.1c0-2-1.3-3.1-3.2-3.1h-0.7V543z"/>
		<path id="XMLID_692_" class="st4" d="M491.3,543.5l-0.8,1.9h-3.1l4.3-11.1h3.2l4.2,11.1H496l-0.7-1.9H491.3z M493.3,537.7
			L493.3,537.7l-1.2,3.5h2.4L493.3,537.7z"/>
		<path id="XMLID_689_" class="st4" d="M500,534.3h4.1c3.1,0,5.7,2.4,5.7,5.6c0,3.1-2.6,5.6-5.7,5.6H500V534.3z M502.9,543h0.7
			c1.7,0,3.2-0.9,3.2-3.1c0-2-1.3-3.1-3.2-3.1h-0.7V543z"/>
		<path id="XMLID_686_" class="st4" d="M513.9,543.5l-0.8,1.9h-3.1l4.3-11.1h3.2l4.2,11.1h-3.1l-0.7-1.9H513.9z M516,537.7
			L516,537.7l-1.2,3.5h2.4L516,537.7z"/>
		<path id="XMLID_684_" class="st4" d="M522.6,534.3h2.9l5.3,6.8h0v-6.8h2.9v11.1h-2.9l-5.3-6.8h0v6.8h-2.9V534.3z"/>
		<path id="XMLID_681_" class="st4" d="M547.4,539.6c0,3.6-2.6,6.1-6.2,6.1s-6.2-2.5-6.2-6.1c0-3.4,3-5.7,6.2-5.7
			C544.5,533.9,547.4,536.3,547.4,539.6z M538.1,539.6c0,1.9,1.4,3.3,3.1,3.3s3.1-1.4,3.1-3.3c0-1.5-1.4-2.9-3.1-2.9
			S538.1,538.1,538.1,539.6z"/>
	</g>
</g>
<rect id="XMLID_5814_" x="386.9" y="602.1" class="st3" width="223.5" height="101.2"/>
<rect id="XMLID_5813_" x="386.9" y="733.3" class="st3" width="223.5" height="101.2"/>
<g id="XMLID_12541_">
	<g>
		<path id="XMLID_1863_" class="st4" d="M421,621.8h4.1c3.1,0,5.7,2.4,5.7,5.6c0,3.1-2.6,5.6-5.7,5.6H421V621.8z M423.9,630.5h0.7
			c1.7,0,3.2-0.9,3.2-3.1c0-2-1.3-3.1-3.2-3.1h-0.7V630.5z"/>
		<path id="XMLID_1861_" class="st4" d="M435,633h-2.9v-11.1h2.9V633z"/>
		<path id="XMLID_1858_" class="st4" d="M446.2,633h-3.6l-2.7-4.3h0v4.3h-2.9v-11.1h4.3c2.2,0,3.9,1,3.9,3.4c0,1.5-0.9,2.9-2.4,3.1
			L446.2,633z M439.8,626.8h0.3c0.9,0,2-0.2,2-1.4c0-1.2-1.1-1.4-2-1.4h-0.3V626.8z"/>
		<path id="XMLID_1856_" class="st4" d="M450.3,631.5c0,0.9-0.8,1.7-1.7,1.7c-1,0-1.7-0.8-1.7-1.7c0-1,0.8-1.7,1.7-1.7
			C449.5,629.8,450.3,630.6,450.3,631.5z"/>
		<path id="XMLID_1853_" class="st4" d="M457.1,621.8h4.1c3.1,0,5.7,2.4,5.7,5.6c0,3.1-2.6,5.6-5.7,5.6h-4.1V621.8z M460,630.5h0.7
			c1.7,0,3.2-0.9,3.2-3.1c0-2-1.3-3.1-3.2-3.1H460V630.5z"/>
		<path id="XMLID_1851_" class="st4" d="M471.1,624.3v1.9h3.3v2.5h-3.3v1.9h3.4v2.5h-6.3v-11.1h6.3v2.5H471.1z"/>
		<path id="XMLID_1849_" class="st4" d="M491.1,621.8v6.3c0,1.4-0.1,2.9-1.2,3.9c-0.9,0.9-2.4,1.2-3.7,1.2c-1.3,0-2.8-0.3-3.7-1.2
			c-1.1-1.1-1.2-2.5-1.2-3.9v-6.3h2.9v5.9c0,1.4,0.1,3,2,3c1.9,0,2-1.6,2-3v-5.9H491.1z"/>
		<path id="XMLID_1846_" class="st4" d="M502.2,633h-3.6l-2.7-4.3h0v4.3h-2.9v-11.1h4.3c2.2,0,3.9,1,3.9,3.4c0,1.5-0.9,2.9-2.4,3.1
			L502.2,633z M495.8,626.8h0.3c0.9,0,2-0.2,2-1.4c0-1.2-1.1-1.4-2-1.4h-0.3V626.8z"/>
		<path id="XMLID_1842_" class="st4" d="M502.9,633v-11.1h4.1c2,0,3.3,0.8,3.3,2.9c0,1-0.3,1.8-1.2,2.3v0c1.6,0.2,2.3,1.3,2.3,2.8
			c0,2.3-2,3.1-4,3.1H502.9z M505.8,626.2h0.3c0.8,0,1.6-0.1,1.6-1.1c0-1-0.9-1.1-1.7-1.1h-0.2V626.2z M505.8,630.7h0.4
			c0.9,0,2.3,0,2.3-1.2c0-1.3-1.4-1.2-2.4-1.2h-0.3V630.7z"/>
		<path id="XMLID_1838_" class="st4" d="M515.8,631L515,633h-3.1l4.3-11.1h3.2l4.2,11.1h-3.1l-0.7-1.9H515.8z M517.8,625.3
			L517.8,625.3l-1.2,3.5h2.4L517.8,625.3z"/>
		<path id="XMLID_1836_" class="st4" d="M524.5,621.8h2.9l5.3,6.8h0v-6.8h2.9V633h-2.9l-5.3-6.8h0v6.8h-2.9V621.8z"/>
		<path id="XMLID_1834_" class="st4" d="M540.4,633h-2.9v-11.1h2.9V633z"/>
		<path id="XMLID_1832_" class="st4" d="M548.4,624.7c-0.5-0.4-1.2-0.7-1.9-0.7c-0.5,0-1.2,0.3-1.2,0.9c0,0.7,0.8,0.9,1.3,1.1
			l0.7,0.2c1.6,0.5,2.7,1.2,2.7,3c0,1.1-0.3,2.2-1.2,3c-0.9,0.7-2,1-3.2,1c-1.4,0-2.8-0.5-3.9-1.3l1.2-2.3c0.7,0.6,1.6,1.2,2.6,1.2
			c0.7,0,1.4-0.3,1.4-1.1c0-0.8-1.1-1.1-1.8-1.3c-1.8-0.5-3-1-3-3.1c0-2.3,1.6-3.7,3.8-3.7c1.1,0,2.5,0.4,3.5,0.9L548.4,624.7z"/>
		<path id="XMLID_1830_" class="st4" d="M552.6,621.8h2.9l2.3,6l2.4-6h2.9l1.7,11.1h-2.9l-0.8-6.4h0l-2.7,6.4h-1.2l-2.6-6.4h0
			l-0.9,6.4h-2.9L552.6,621.8z"/>
		<path id="XMLID_1827_" class="st4" d="M577.7,627.2c0,3.6-2.6,6.1-6.2,6.1c-3.6,0-6.2-2.5-6.2-6.1c0-3.4,3-5.7,6.2-5.7
			C574.7,621.4,577.7,623.8,577.7,627.2z M568.4,627.2c0,1.9,1.4,3.3,3.1,3.3c1.7,0,3.1-1.4,3.1-3.3c0-1.5-1.4-2.9-3.1-2.9
			C569.8,624.2,568.4,625.7,568.4,627.2z"/>
		<path id="XMLID_1825_" class="st4" d="M432.1,644.8v2.2h-4.2v-2.2H432.1z"/>
		<path id="XMLID_1823_" class="st4" d="M444.9,644.5c0,1.6-0.1,3-1.1,4.4c-1.1,1.5-2.7,2.2-4.6,2.2c-3.5,0-5.9-2.4-5.9-5.9
			c0-3.6,2.5-6,6-6c2.3,0,4.1,1,5,3.1l-2.7,1.2c-0.4-1.1-1.2-1.8-2.4-1.8c-1.9,0-2.9,1.8-2.9,3.5c0,1.7,1,3.5,2.9,3.5
			c1.3,0,2.2-0.7,2.3-1.9h-2.4v-2.3H444.9z"/>
		<path id="XMLID_1821_" class="st4" d="M449.1,642v1.9h3.3v2.5h-3.3v1.9h3.4v2.5h-6.3v-11.1h6.3v2.5H449.1z"/>
		<path id="XMLID_1819_" class="st4" d="M460.5,642.4c-0.5-0.4-1.2-0.7-1.9-0.7c-0.5,0-1.2,0.3-1.2,0.9c0,0.7,0.8,0.9,1.3,1.1
			l0.7,0.2c1.6,0.5,2.7,1.2,2.7,3c0,1.1-0.3,2.2-1.2,3c-0.9,0.7-2,1-3.2,1c-1.4,0-2.8-0.5-3.9-1.3l1.2-2.3c0.7,0.6,1.6,1.2,2.6,1.2
			c0.7,0,1.4-0.3,1.4-1.1c0-0.8-1.1-1.1-1.8-1.3c-1.8-0.5-3-1-3-3.1c0-2.3,1.6-3.7,3.8-3.7c1.1,0,2.5,0.4,3.5,0.9L460.5,642.4z"/>
		<path id="XMLID_1530_" class="st4" d="M467.9,650.7H465V642h-2.4v-2.5h7.7v2.5h-2.4V650.7z"/>
		<path id="XMLID_1528_" class="st4" d="M474.3,650.7h-2.9v-11.1h2.9V650.7z"/>
		<path id="XMLID_1525_" class="st4" d="M487.9,644.9c0,3.6-2.6,6.1-6.2,6.1c-3.6,0-6.2-2.5-6.2-6.1c0-3.4,3-5.7,6.2-5.7
			C485,639.2,487.9,641.5,487.9,644.9z M478.6,644.9c0,1.9,1.4,3.3,3.1,3.3c1.7,0,3.1-1.4,3.1-3.3c0-1.5-1.4-2.9-3.1-2.9
			C480,642,478.6,643.4,478.6,644.9z"/>
		<path id="XMLID_1522_" class="st4" d="M498.5,650.7h-3.6l-2.7-4.3h0v4.3h-2.9v-11.1h4.3c2.2,0,3.9,1,3.9,3.4
			c0,1.5-0.9,2.9-2.4,3.1L498.5,650.7z M492.2,644.5h0.3c0.9,0,2-0.2,2-1.4c0-1.2-1.1-1.4-2-1.4h-0.3V644.5z"/>
		<path id="XMLID_1520_" class="st4" d="M514,639.5v6.3c0,1.4-0.1,2.9-1.2,3.9c-0.9,0.9-2.4,1.2-3.7,1.2c-1.3,0-2.8-0.3-3.7-1.2
			c-1.1-1.1-1.2-2.5-1.2-3.9v-6.3h2.9v5.9c0,1.4,0.1,3,2,3c1.9,0,2-1.6,2-3v-5.9H514z"/>
		<path id="XMLID_1517_" class="st4" d="M525.1,650.7h-3.6l-2.7-4.3h0v4.3h-2.9v-11.1h4.3c2.2,0,3.9,1,3.9,3.4
			c0,1.5-0.9,2.9-2.4,3.1L525.1,650.7z M518.8,644.5h0.3c0.9,0,2-0.2,2-1.4c0-1.2-1.1-1.4-2-1.4h-0.3V644.5z"/>
		<path id="XMLID_1513_" class="st4" d="M525.9,650.7v-11.1h4.1c2,0,3.3,0.8,3.3,2.9c0,1-0.3,1.8-1.2,2.3v0c1.6,0.2,2.3,1.3,2.3,2.8
			c0,2.3-2,3.1-4,3.1H525.9z M528.8,643.9h0.3c0.8,0,1.6-0.1,1.6-1.1c0-1-0.9-1.1-1.7-1.1h-0.2V643.9z M528.8,648.5h0.4
			c0.9,0,2.3,0,2.3-1.2c0-1.3-1.4-1.2-2.4-1.2h-0.3V648.5z"/>
		<path id="XMLID_1510_" class="st4" d="M538.8,648.8l-0.8,1.9h-3.1l4.3-11.1h3.2l4.2,11.1h-3.1l-0.7-1.9H538.8z M540.8,643
			L540.8,643l-1.2,3.5h2.4L540.8,643z"/>
		<path id="XMLID_1508_" class="st4" d="M547.5,639.5h2.9l5.3,6.8h0v-6.8h2.9v11.1h-2.9l-5.3-6.8h0v6.8h-2.9V639.5z"/>
		<path id="XMLID_1505_" class="st4" d="M563.3,648.8l-0.8,1.9h-3.1l4.3-11.1h3.2l4.2,11.1H568l-0.7-1.9H563.3z M565.4,643
			L565.4,643l-1.2,3.5h2.4L565.4,643z"/>
		<path id="XMLID_1503_" class="st4" d="M443.2,657.3h3.5l2.1,3l2.1-3h3.5l-4.1,5.8v5.4h-2.9v-5.4L443.2,657.3z"/>
		<path id="XMLID_1501_" class="st4" d="M464.5,668.4h-2.9v-8.7h-2.4v-2.5h7.7v2.5h-2.4V668.4z"/>
		<path id="XMLID_1499_" class="st4" d="M470.8,659.7v1.9h3.3v2.5h-3.3v1.9h3.4v2.5h-6.3v-11.1h6.3v2.5H470.8z"/>
		<path id="XMLID_1496_" class="st4" d="M485.3,668.4h-3.6l-2.7-4.3h0v4.3h-2.9v-11.1h4.3c2.2,0,3.9,1,3.9,3.4
			c0,1.5-0.9,2.9-2.4,3.1L485.3,668.4z M478.9,662.3h0.3c0.9,0,2-0.2,2-1.4c0-1.2-1.1-1.4-2-1.4h-0.3V662.3z"/>
		<path id="XMLID_1493_" class="st4" d="M495.4,668.4h-3.6l-2.7-4.3h0v4.3h-2.9v-11.1h4.3c2.2,0,3.9,1,3.9,3.4
			c0,1.5-0.9,2.9-2.4,3.1L495.4,668.4z M489,662.3h0.3c0.9,0,2-0.2,2-1.4c0-1.2-1.1-1.4-2-1.4H489V662.3z"/>
		<path id="XMLID_1491_" class="st4" d="M499,668.4h-2.9v-11.1h2.9V668.4z"/>
		<path id="XMLID_1489_" class="st4" d="M505.4,668.4h-2.9v-8.7h-2.4v-2.5h7.7v2.5h-2.4V668.4z"/>
		<path id="XMLID_1486_" class="st4" d="M520.6,662.6c0,3.6-2.6,6.1-6.2,6.1c-3.6,0-6.2-2.5-6.2-6.1c0-3.4,3-5.7,6.2-5.7
			C517.6,656.9,520.6,659.3,520.6,662.6z M511.3,662.7c0,1.9,1.4,3.3,3.1,3.3c1.7,0,3.1-1.4,3.1-3.3c0-1.5-1.4-2.9-3.1-2.9
			C512.7,659.7,511.3,661.1,511.3,662.7z"/>
		<path id="XMLID_1483_" class="st4" d="M531.2,668.4h-3.6l-2.7-4.3h0v4.3h-2.9v-11.1h4.3c2.2,0,3.9,1,3.9,3.4
			c0,1.5-0.9,2.9-2.4,3.1L531.2,668.4z M524.8,662.3h0.3c0.9,0,2-0.2,2-1.4c0-1.2-1.1-1.4-2-1.4h-0.3V662.3z"/>
		<path id="XMLID_1481_" class="st4" d="M534.9,668.4H532v-11.1h2.9V668.4z"/>
		<path id="XMLID_1478_" class="st4" d="M539.6,666.5l-0.8,1.9h-3.1l4.3-11.1h3.2l4.2,11.1h-3.1l-0.7-1.9H539.6z M541.6,660.7
			L541.6,660.7l-1.2,3.5h2.4L541.6,660.7z"/>
		<path id="XMLID_1476_" class="st4" d="M551.2,666h3.5v2.5h-6.4v-11.1h2.9V666z"/>
		<path id="XMLID_1473_" class="st4" d="M458.3,684.2l-0.8,1.9h-3.1l4.3-11.1h3.2l4.2,11.1H463l-0.7-1.9H458.3z M460.3,678.5
			L460.3,678.5l-1.2,3.5h2.4L460.3,678.5z"/>
		<path id="XMLID_1470_" class="st4" d="M469.5,679.4L469.5,679.4c0.5-0.8,1.4-1.1,2.3-1.1c2.3,0,3.8,1.9,3.8,4.1c0,2.2-1.6,4-3.8,4
			c-0.9,0-1.8-0.3-2.4-1v4.5h-2.7v-11.4h2.7V679.4z M469.4,682.4c0,1,0.6,1.7,1.7,1.7c1.1,0,1.7-0.7,1.7-1.7c0-0.9-0.6-1.7-1.7-1.7
			C470.1,680.7,469.4,681.4,469.4,682.4z"/>
		<path id="XMLID_1468_" class="st4" d="M479.7,679.8L479.7,679.8c0.5-0.9,1.4-1.3,2.5-1.3h0.5v2.6c-0.4-0.2-0.7-0.3-1.1-0.3
			c-1.5,0-1.9,1-1.9,2.3v3.1H477v-7.6h2.7V679.8z"/>
		<path id="XMLID_1465_" class="st4" d="M492,682.4c0,2.6-2.1,4-4.6,4c-2.4,0-4.6-1.4-4.6-4c0-2.6,2.1-4,4.6-4
			C489.9,678.3,492,679.8,492,682.4z M485.7,682.4c0,1,0.6,1.7,1.7,1.7c1.1,0,1.7-0.7,1.7-1.7c0-0.9-0.6-1.7-1.7-1.7
			C486.4,680.7,485.7,681.4,485.7,682.4z"/>
		<path id="XMLID_1462_" class="st4" d="M493.1,673.9h2.7v5.4c0.6-0.7,1.5-1,2.4-1c2.2,0,3.8,1.9,3.8,4c0,2.2-1.6,4.1-3.8,4.1
			c-0.9,0-1.8-0.3-2.3-1.1h0v0.8h-2.7V673.9z M495.7,682.4c0,1,0.6,1.7,1.7,1.7c1.1,0,1.7-0.7,1.7-1.7c0-0.9-0.6-1.7-1.7-1.7
			C496.4,680.7,495.7,681.4,495.7,682.4z"/>
		<path id="XMLID_1459_" class="st4" d="M511.6,686.2h-2.7v-0.8h0c-0.5,0.8-1.4,1.1-2.3,1.1c-2.2,0-3.8-1.9-3.8-4.1
			c0-2.2,1.6-4,3.8-4c0.9,0,1.8,0.3,2.4,1v-0.7h2.7V686.2z M505.5,682.4c0,1,0.6,1.7,1.7,1.7s1.7-0.7,1.7-1.7c0-0.9-0.6-1.7-1.7-1.7
			S505.5,681.4,505.5,682.4z"/>
		<path id="XMLID_1457_" class="st4" d="M518.9,681c-0.4-0.3-0.9-0.5-1.4-0.5c-1,0-1.8,0.8-1.8,1.8c0,1.1,0.8,1.9,1.9,1.9
			c0.5,0,1-0.2,1.3-0.5v2.3c-0.6,0.3-1.2,0.4-1.9,0.4c-2.2,0-4.1-1.7-4.1-4c0-2.4,1.9-4.1,4.2-4.1c0.6,0,1.2,0.1,1.8,0.4V681z"/>
		<path id="XMLID_1454_" class="st4" d="M523.4,675.7c0,0.8-0.7,1.5-1.5,1.5c-0.8,0-1.5-0.7-1.5-1.5c0-0.8,0.7-1.5,1.5-1.5
			C522.7,674.2,523.4,674.8,523.4,675.7z M523.2,686.2h-2.7v-7.6h2.7V686.2z"/>
		<path id="XMLID_1451_" class="st4" d="M533.6,682.4c0,2.6-2.1,4-4.6,4c-2.4,0-4.6-1.4-4.6-4c0-2.6,2.1-4,4.6-4
			C531.4,678.3,533.6,679.8,533.6,682.4z M527.3,682.4c0,1,0.6,1.7,1.7,1.7c1.1,0,1.7-0.7,1.7-1.7c0-0.9-0.6-1.7-1.7-1.7
			C527.9,680.7,527.3,681.4,527.3,682.4z"/>
		<path id="XMLID_1449_" class="st4" d="M537.5,679.6L537.5,679.6c0.7-0.9,1.4-1.2,2.5-1.2c2,0,2.9,1.3,2.9,3.1v4.7h-2.7v-3.7
			c0-0.7,0.1-2-1.2-2c-1.1,0-1.4,0.8-1.4,1.8v3.9h-2.7v-7.6h2.7V679.6z"/>
	</g>
</g>
<g id="XMLID_12456_">
	<g>
		<path id="XMLID_1129_" class="st4" d="M438,766c-0.6-0.8-1.6-1.2-2.5-1.2c-1.8,0-3,1.4-3,3.1c0,1.8,1.2,3,3,3
			c0.9,0,1.9-0.5,2.5-1.2v3.5c-1,0.3-1.7,0.5-2.6,0.5c-1.6,0-3-0.6-4.2-1.6c-1.2-1.1-1.8-2.6-1.8-4.2c0-1.5,0.6-3,1.6-4.1
			c1.1-1.1,2.7-1.8,4.2-1.8c0.9,0,1.8,0.2,2.6,0.6V766z"/>
		<path id="XMLID_1126_" class="st4" d="M442.6,771.5l-0.8,1.9h-3.1l4.3-11.1h3.2l4.2,11.1h-3.1l-0.7-1.9H442.6z M444.6,765.7
			L444.6,765.7l-1.2,3.5h2.4L444.6,765.7z"/>
		<path id="XMLID_1124_" class="st4" d="M456.7,762.3v7.5c0,2.4-1.2,3.9-3.7,3.9c-1.2,0-2.2-0.6-2.9-1.6l1.7-1.8
			c0.3,0.4,0.8,0.9,1.2,0.9c0.9,0,0.8-1,0.8-1.6v-7.3H456.7z"/>
		<path id="XMLID_1121_" class="st4" d="M461.4,771.5l-0.8,1.9h-3.1l4.3-11.1h3.2l4.2,11.1h-3.1l-0.7-1.9H461.4z M463.4,765.7
			L463.4,765.7l-1.2,3.5h2.4L463.4,765.7z"/>
		<path id="XMLID_1119_" class="st4" d="M479.8,769l2.7-6.8h3.1l-4.8,11.1h-2.2l-4.7-11.1h3.1L479.8,769z"/>
		<path id="XMLID_1117_" class="st4" d="M489.3,764.7v1.9h3.3v2.5h-3.3v1.9h3.4v2.5h-6.3v-11.1h6.3v2.5H489.3z"/>
		<path id="XMLID_1115_" class="st4" d="M494.5,762.3h2.9l5.3,6.8h0v-6.8h2.9v11.1h-2.9l-5.3-6.8h0v6.8h-2.9V762.3z"/>
		<path id="XMLID_1113_" class="st4" d="M512,773.4h-2.9v-8.7h-2.4v-2.5h7.7v2.5H512V773.4z"/>
		<path id="XMLID_1110_" class="st4" d="M517.4,771.5l-0.8,1.9h-3.1l4.3-11.1h3.2l4.2,11.1h-3.1l-0.7-1.9H517.4z M519.4,765.7
			L519.4,765.7l-1.2,3.5h2.4L519.4,765.7z"/>
		<path id="XMLID_1108_" class="st4" d="M526.1,762.3h2.9l5.3,6.8h0v-6.8h2.9v11.1h-2.9l-5.3-6.8h0v6.8h-2.9V762.3z"/>
		<path id="XMLID_1106_" class="st4" d="M542,773.4h-2.9v-11.1h2.9V773.4z"/>
		<path id="XMLID_1104_" class="st4" d="M546.8,771h3.5v2.5h-6.4v-11.1h2.9V771z"/>
		<path id="XMLID_1102_" class="st4" d="M554.1,771h3.5v2.5h-6.4v-11.1h2.9V771z"/>
		<path id="XMLID_1099_" class="st4" d="M561.3,771.5l-0.8,1.9h-3.1l4.3-11.1h3.2l4.2,11.1h-3.1l-0.7-1.9H561.3z M563.4,765.7
			L563.4,765.7l-1.2,3.5h2.4L563.4,765.7z"/>
		<path id="XMLID_1097_" class="st4" d="M431.6,780v6.3c0,1.4-0.1,2.9-1.2,3.9c-0.9,0.9-2.4,1.2-3.7,1.2c-1.3,0-2.8-0.3-3.7-1.2
			c-1.1-1.1-1.2-2.5-1.2-3.9V780h2.9v5.9c0,1.4,0.1,3,2,3c1.9,0,2-1.6,2-3V780H431.6z"/>
		<path id="XMLID_1095_" class="st4" d="M433.5,780h2.9l5.3,6.8h0V780h2.9v11.1h-2.9l-5.3-6.8h0v6.8h-2.9V780z"/>
		<path id="XMLID_1093_" class="st4" d="M449.4,791.2h-2.9V780h2.9V791.2z"/>
		<path id="XMLID_1091_" class="st4" d="M459.2,783.8c-0.6-0.8-1.6-1.2-2.5-1.2c-1.8,0-3,1.4-3,3.1c0,1.8,1.2,3,3,3
			c0.9,0,1.9-0.5,2.5-1.2v3.5c-1,0.3-1.7,0.5-2.6,0.5c-1.6,0-3-0.6-4.2-1.6c-1.2-1.1-1.8-2.6-1.8-4.2c0-1.5,0.6-3,1.6-4.1
			c1.1-1.1,2.7-1.8,4.2-1.8c0.9,0,1.8,0.2,2.6,0.6V783.8z"/>
		<path id="XMLID_1088_" class="st4" d="M463.9,789.2l-0.8,1.9H460l4.3-11.1h3.2l4.2,11.1h-3.1l-0.7-1.9H463.9z M465.9,783.5
			L465.9,783.5l-1.2,3.5h2.4L465.9,783.5z"/>
		<path id="XMLID_1086_" class="st4" d="M483.8,782.9c-0.5-0.4-1.2-0.7-1.9-0.7c-0.5,0-1.2,0.3-1.2,0.9c0,0.7,0.8,0.9,1.3,1.1
			l0.7,0.2c1.6,0.5,2.7,1.2,2.7,3c0,1.1-0.3,2.2-1.2,3c-0.9,0.7-2,1-3.2,1c-1.4,0-2.8-0.5-3.9-1.3l1.2-2.3c0.7,0.6,1.6,1.2,2.6,1.2
			c0.7,0,1.4-0.3,1.4-1.1c0-0.8-1.1-1.1-1.8-1.3c-1.8-0.5-3-1-3-3.1c0-2.3,1.6-3.7,3.8-3.7c1.1,0,2.5,0.4,3.5,0.9L483.8,782.9z"/>
		<path id="XMLID_1084_" class="st4" d="M496.4,780v6.3c0,1.4-0.1,2.9-1.2,3.9c-0.9,0.9-2.4,1.2-3.7,1.2c-1.3,0-2.8-0.3-3.7-1.2
			c-1.1-1.1-1.2-2.5-1.2-3.9V780h2.9v5.9c0,1.4,0.1,3,2,3c1.9,0,2-1.6,2-3V780H496.4z"/>
		<path id="XMLID_1079_" class="st4" d="M498.2,791.2V780h4.1c2,0,3.3,0.8,3.3,2.9c0,1-0.3,1.8-1.2,2.3v0c1.6,0.2,2.3,1.3,2.3,2.8
			c0,2.3-2,3.1-4,3.1H498.2z M501.1,784.4h0.3c0.8,0,1.6-0.1,1.6-1.1c0-1-0.9-1.1-1.7-1.1h-0.2V784.4z M501.1,788.9h0.4
			c0.9,0,2.3,0,2.3-1.2c0-1.3-1.4-1.2-2.4-1.2h-0.3V788.9z"/>
		<path id="XMLID_1076_" class="st4" d="M511.1,789.2l-0.8,1.9h-3.1l4.3-11.1h3.2l4.2,11.1h-3.1l-0.7-1.9H511.1z M513.1,783.5
			L513.1,783.5l-1.2,3.5h2.4L513.1,783.5z"/>
		<path id="XMLID_914_" class="st4" d="M522.7,788.7h3.5v2.5h-6.4V780h2.9V788.7z"/>
		<path id="XMLID_912_" class="st4" d="M535.1,783.8c-0.6-0.8-1.6-1.2-2.5-1.2c-1.8,0-3,1.4-3,3.1c0,1.8,1.2,3,3,3
			c0.9,0,1.9-0.5,2.5-1.2v3.5c-1,0.3-1.7,0.5-2.6,0.5c-1.6,0-3-0.6-4.2-1.6c-1.2-1.1-1.8-2.6-1.8-4.2c0-1.5,0.6-3,1.6-4.1
			c1.1-1.1,2.7-1.8,4.2-1.8c0.9,0,1.8,0.2,2.6,0.6V783.8z"/>
		<path id="XMLID_909_" class="st4" d="M539.7,789.2l-0.8,1.9h-3.1l4.3-11.1h3.2l4.2,11.1h-3.1l-0.7-1.9H539.7z M541.7,783.5
			L541.7,783.5l-1.2,3.5h2.4L541.7,783.5z"/>
		<path id="XMLID_907_" class="st4" d="M551.3,788.7h3.5v2.5h-6.4V780h2.9V788.7z"/>
		<path id="XMLID_825_" class="st4" d="M555.7,780h4.1c3.1,0,5.7,2.4,5.7,5.6s-2.6,5.6-5.7,5.6h-4.1V780z M558.6,788.7h0.6
			c1.7,0,3.2-0.9,3.2-3.1c0-2-1.3-3.1-3.2-3.1h-0.7V788.7z"/>
		<path id="XMLID_823_" class="st4" d="M569.7,791.2h-2.9V780h2.9V791.2z"/>
		<path id="XMLID_820_" class="st4" d="M574.4,789.2l-0.8,1.9h-3.1l4.3-11.1h3.2l4.2,11.1h-3.1l-0.7-1.9H574.4z M576.5,783.5
			L576.5,783.5l-1.2,3.5h2.4L576.5,783.5z"/>
		<path id="XMLID_818_" class="st4" d="M485.1,801.5c-0.6-0.8-1.6-1.2-2.5-1.2c-1.8,0-3,1.4-3,3.1c0,1.8,1.2,3,3,3
			c0.9,0,1.9-0.5,2.5-1.2v3.5c-1,0.3-1.7,0.5-2.6,0.5c-1.6,0-3-0.6-4.2-1.6c-1.2-1.1-1.8-2.6-1.8-4.2c0-1.5,0.6-3,1.6-4.1
			c1.1-1.1,2.7-1.8,4.2-1.8c0.9,0,1.8,0.2,2.6,0.6V801.5z"/>
		<path id="XMLID_815_" class="st4" d="M495.4,805.1c0,2.6-2.1,4-4.6,4c-2.4,0-4.6-1.4-4.6-4s2.1-4,4.6-4
			C493.2,801.1,495.4,802.5,495.4,805.1z M489.1,805.1c0,1,0.6,1.7,1.7,1.7c1.1,0,1.7-0.7,1.7-1.7c0-0.9-0.6-1.7-1.7-1.7
			C489.7,803.4,489.1,804.2,489.1,805.1z"/>
		<path id="XMLID_812_" class="st4" d="M496.5,796.6h2.7v5.4c0.6-0.7,1.5-1,2.4-1c2.2,0,3.8,1.9,3.8,4c0,2.2-1.6,4.1-3.8,4.1
			c-0.9,0-1.8-0.3-2.3-1.1h0v0.8h-2.7V796.6z M499.1,805.1c0,1,0.6,1.7,1.7,1.7c1.1,0,1.7-0.7,1.7-1.7c0-0.9-0.6-1.7-1.7-1.7
			C499.7,803.4,499.1,804.2,499.1,805.1z"/>
		<path id="XMLID_810_" class="st4" d="M509.4,802.6L509.4,802.6c0.5-0.9,1.4-1.3,2.5-1.3h0.5v2.6c-0.4-0.2-0.7-0.3-1.1-0.3
			c-1.5,0-1.9,1-1.9,2.3v3.1h-2.7v-7.6h2.7V802.6z"/>
		<path id="XMLID_807_" class="st4" d="M521.7,805.1c0,2.6-2.1,4-4.6,4c-2.4,0-4.6-1.4-4.6-4s2.1-4,4.6-4
			C519.5,801.1,521.7,802.5,521.7,805.1z M515.4,805.1c0,1,0.6,1.7,1.7,1.7c1.1,0,1.7-0.7,1.7-1.7c0-0.9-0.6-1.7-1.7-1.7
			C516,803.4,515.4,804.2,515.4,805.1z"/>
	</g>
</g>
<rect id="XMLID_5810_" x="386.9" y="863.3" class="st3" width="223.5" height="82.7"/>
<g id="XMLID_12307_">
	<g>
		<path id="XMLID_2146_" class="st4" d="M419.7,891.4l-0.8,1.9h-3.1l4.3-11.1h3.2l4.2,11.1h-3.1l-0.7-1.9H419.7z M421.7,885.6
			L421.7,885.6l-1.2,3.5h2.4L421.7,885.6z"/>
		<path id="XMLID_2143_" class="st4" d="M437.7,893.3h-3.6l-2.7-4.3h0v4.3h-2.9v-11.1h4.3c2.2,0,3.9,1,3.9,3.4
			c0,1.5-0.9,2.9-2.4,3.1L437.7,893.3z M431.3,887.2h0.3c0.9,0,2-0.2,2-1.4c0-1.2-1.1-1.4-2-1.4h-0.3V887.2z"/>
		<path id="XMLID_2141_" class="st4" d="M441.3,884.7v1.9h3.3v2.5h-3.3v1.9h3.4v2.5h-6.3v-11.1h6.3v2.5H441.3z"/>
		<path id="XMLID_2138_" class="st4" d="M449.4,891.4l-0.8,1.9h-3.1l4.3-11.1h3.2l4.2,11.1h-3.1l-0.7-1.9H449.4z M451.4,885.6
			L451.4,885.6l-1.2,3.5h2.4L451.4,885.6z"/>
		<path id="XMLID_2136_" class="st4" d="M467.6,893.3h-2.9v-8.7h-2.4v-2.5h7.7v2.5h-2.4V893.3z"/>
		<path id="XMLID_2134_" class="st4" d="M474,884.7v1.9h3.3v2.5H474v1.9h3.4v2.5h-6.3v-11.1h6.3v2.5H474z"/>
		<path id="XMLID_2132_" class="st4" d="M487.2,885.9c-0.6-0.8-1.6-1.2-2.5-1.2c-1.8,0-3,1.4-3,3.1c0,1.8,1.2,3,3,3
			c0.9,0,1.9-0.5,2.5-1.2v3.5c-1,0.3-1.7,0.5-2.6,0.5c-1.6,0-3-0.6-4.2-1.6c-1.2-1.1-1.8-2.6-1.8-4.2c0-1.5,0.6-3,1.6-4.1
			c1.1-1.1,2.7-1.8,4.2-1.8c0.9,0,1.8,0.2,2.6,0.6V885.9z"/>
		<path id="XMLID_2130_" class="st4" d="M488.9,882.2h2.9l5.3,6.8h0v-6.8h2.9v11.1h-2.9l-5.3-6.8h0v6.8h-2.9V882.2z"/>
		<path id="XMLID_2128_" class="st4" d="M504.9,893.3H502v-11.1h2.9V893.3z"/>
		<path id="XMLID_2126_" class="st4" d="M514.7,885.9c-0.6-0.8-1.6-1.2-2.5-1.2c-1.8,0-3,1.4-3,3.1c0,1.8,1.2,3,3,3
			c0.9,0,1.9-0.5,2.5-1.2v3.5c-1,0.3-1.7,0.5-2.6,0.5c-1.6,0-3-0.6-4.2-1.6c-1.2-1.1-1.8-2.6-1.8-4.2c0-1.5,0.6-3,1.6-4.1
			c1.1-1.1,2.7-1.8,4.2-1.8c0.9,0,1.8,0.2,2.6,0.6V885.9z"/>
		<path id="XMLID_2123_" class="st4" d="M528.3,887.6c0,3.6-2.6,6.1-6.2,6.1c-3.6,0-6.2-2.5-6.2-6.1c0-3.4,3-5.7,6.2-5.7
			C525.3,881.8,528.3,884.2,528.3,887.6z M519,887.6c0,1.9,1.4,3.3,3.1,3.3c1.7,0,3.1-1.4,3.1-3.3c0-1.5-1.4-2.9-3.1-2.9
			C520.4,884.6,519,886,519,887.6z"/>
		<path id="XMLID_2121_" class="st4" d="M535.7,885.1c-0.5-0.4-1.2-0.7-1.9-0.7c-0.5,0-1.2,0.3-1.2,0.9c0,0.7,0.8,0.9,1.3,1.1
			l0.7,0.2c1.6,0.5,2.7,1.2,2.7,3c0,1.1-0.3,2.2-1.2,3c-0.9,0.7-2,1-3.2,1c-1.4,0-2.8-0.5-3.9-1.3l1.2-2.3c0.7,0.6,1.6,1.2,2.6,1.2
			c0.7,0,1.4-0.3,1.4-1.1c0-0.8-1.1-1.1-1.8-1.3c-1.8-0.5-3-1-3-3.1c0-2.3,1.6-3.7,3.8-3.7c1.1,0,2.5,0.4,3.5,0.9L535.7,885.1z"/>
		<path id="XMLID_2119_" class="st4" d="M545.9,881.1l-5.6,13.6h-2.1l5.6-13.6H545.9z"/>
		<path id="XMLID_2116_" class="st4" d="M550.1,891.4l-0.8,1.9h-3.1l4.3-11.1h3.2l4.2,11.1h-3.1l-0.7-1.9H550.1z M552.1,885.6
			L552.1,885.6l-1.2,3.5h2.4L552.1,885.6z"/>
		<path id="XMLID_2113_" class="st4" d="M568.1,893.3h-3.6l-2.7-4.3h0v4.3h-2.9v-11.1h4.3c2.2,0,3.9,1,3.9,3.4
			c0,1.5-0.9,2.9-2.4,3.1L568.1,893.3z M561.7,887.2h0.3c0.9,0,2-0.2,2-1.4c0-1.2-1.1-1.4-2-1.4h-0.3V887.2z"/>
		<path id="XMLID_2110_" class="st4" d="M578.4,894l-0.9-1c-0.9,0.5-1.9,0.7-3.1,0.7c-3.6,0-6.2-2.5-6.2-6.1c0-3.4,3-5.7,6.2-5.7
			c3.5,0,6.2,2.4,6.2,6c0,1.5-0.5,2.8-1.4,3.9l1.9,1.9L578.4,894z M577.1,889.5c0.3-0.5,0.5-1.1,0.5-1.6c0-1.7-1.4-3.2-3.1-3.2
			c-1.7,0-3.2,1.4-3.2,2.9c0,1.9,1.4,3.3,3.2,3.3c0.3,0,0.6,0,0.9-0.1l-1.8-1.8l2.7-0.3L577.1,889.5z"/>
		<path id="XMLID_2108_" class="st4" d="M409.8,906.7l2.7-6.8h3.1l-4.8,11.1h-2.2l-4.7-11.1h3.1L409.8,906.7z"/>
		<path id="XMLID_2105_" class="st4" d="M423,907.7h-5.7c0,1.1,0.6,1.7,1.7,1.7c0.6,0,1-0.2,1.3-0.7h2.6c-0.2,0.9-0.7,1.5-1.4,2
			c-0.7,0.4-1.6,0.6-2.4,0.6c-2.5,0-4.4-1.4-4.4-4c0-2.5,1.7-4,4.2-4c2.6,0,4.2,1.6,4.2,4.2V907.7z M420.5,906.2
			c-0.1-0.7-0.8-1.2-1.5-1.2c-0.8,0-1.4,0.4-1.6,1.2H420.5z"/>
		<path id="XMLID_2103_" class="st4" d="M426.9,904.7L426.9,904.7c0.5-0.9,1.4-1.3,2.5-1.3h0.5v2.6c-0.4-0.2-0.7-0.3-1.1-0.3
			c-1.5,0-1.9,1-1.9,2.3v3.1h-2.7v-7.6h2.7V904.7z"/>
		<path id="XMLID_2100_" class="st4" d="M433.8,900.6c0,0.8-0.7,1.5-1.5,1.5c-0.8,0-1.5-0.7-1.5-1.5c0-0.8,0.7-1.5,1.5-1.5
			C433.1,899.1,433.8,899.8,433.8,900.6z M433.6,911.1H431v-7.6h2.7V911.1z"/>
		<path id="XMLID_2096_" class="st4" d="M438.3,911.1h-2.7v-5.4h-0.9v-2.2h0.9v-1c0-1,0-1.8,0.8-2.7c0.7-0.8,1.6-1.2,2.6-1.2
			c0.4,0,0.8,0.1,1.2,0.3v2.3c-0.3-0.1-0.6-0.3-0.9-0.3c-0.7,0-0.9,0.4-0.9,1.3v1.2h1.9v2.2h-1.9V911.1z M443.8,900.6
			c0,0.8-0.7,1.5-1.5,1.5c-0.8,0-1.5-0.7-1.5-1.5c0-0.8,0.7-1.5,1.5-1.5C443.2,899.1,443.8,899.8,443.8,900.6z M443.7,911.1H441
			v-7.6h2.7V911.1z"/>
		<path id="XMLID_2094_" class="st4" d="M450.9,906c-0.4-0.3-0.9-0.5-1.4-0.5c-1,0-1.8,0.8-1.8,1.8c0,1.1,0.8,1.9,1.9,1.9
			c0.5,0,1-0.2,1.3-0.5v2.3c-0.6,0.3-1.2,0.4-1.9,0.4c-2.2,0-4.1-1.7-4.1-4c0-2.4,1.9-4.1,4.2-4.1c0.6,0,1.2,0.1,1.8,0.4V906z"/>
		<path id="XMLID_2091_" class="st4" d="M460.9,911.1h-2.7v-0.8h0c-0.5,0.8-1.4,1.1-2.3,1.1c-2.2,0-3.8-1.9-3.8-4.1s1.6-4,3.8-4
			c0.9,0,1.8,0.3,2.4,1v-0.7h2.7V911.1z M454.8,907.3c0,1,0.6,1.7,1.7,1.7c1.1,0,1.7-0.7,1.7-1.7c0-0.9-0.6-1.7-1.7-1.7
			C455.5,905.6,454.8,906.4,454.8,907.3z"/>
		<path id="XMLID_2089_" class="st4" d="M468.1,906c-0.4-0.3-0.9-0.5-1.4-0.5c-1,0-1.8,0.8-1.8,1.8c0,1.1,0.8,1.9,1.9,1.9
			c0.5,0,1-0.2,1.3-0.5v2.3c-0.6,0.3-1.2,0.4-1.9,0.4c-2.2,0-4.1-1.7-4.1-4c0-2.4,1.9-4.1,4.2-4.1c0.6,0,1.2,0.1,1.8,0.4V906z"/>
		<path id="XMLID_2086_" class="st4" d="M472.7,900.6c0,0.8-0.7,1.5-1.5,1.5c-0.8,0-1.5-0.7-1.5-1.5c0-0.8,0.7-1.5,1.5-1.5
			C472,899.1,472.7,899.8,472.7,900.6z M472.5,911.1h-2.7v-7.6h2.7V911.1z"/>
		<path id="XMLID_2082_" class="st4" d="M482.8,907.3c0,2.6-2.1,4-4.6,4c-2.4,0-4.6-1.4-4.6-4s2.1-4,4.6-4
			C480.7,903.2,482.8,904.7,482.8,907.3z M476.5,907.3c0,1,0.6,1.7,1.7,1.7c1.1,0,1.7-0.7,1.7-1.7c0-0.9-0.6-1.7-1.7-1.7
			C477.2,905.6,476.5,906.4,476.5,907.3z M478,902.4l-1.2-0.9l2.1-2.5l1.6,1.2L478,902.4z"/>
		<path id="XMLID_2080_" class="st4" d="M486.7,904.5L486.7,904.5c0.7-0.9,1.4-1.2,2.5-1.2c2,0,2.9,1.3,2.9,3.1v4.7h-2.7v-3.7
			c0-0.7,0.1-2-1.2-2c-1.1,0-1.4,0.8-1.4,1.8v3.9h-2.7v-7.6h2.7V904.5z"/>
		<path id="XMLID_2078_" class="st4" d="M497.9,905.2v2.2h-4.2v-2.2H497.9z"/>
		<path id="XMLID_2075_" class="st4" d="M512.5,907.7h-5.7c0,1.1,0.6,1.7,1.7,1.7c0.6,0,1-0.2,1.3-0.7h2.6c-0.2,0.9-0.7,1.5-1.4,2
			c-0.7,0.4-1.6,0.6-2.4,0.6c-2.5,0-4.4-1.4-4.4-4c0-2.5,1.7-4,4.2-4c2.6,0,4.2,1.6,4.2,4.2V907.7z M510,906.2
			c-0.1-0.7-0.8-1.2-1.5-1.2c-0.8,0-1.4,0.4-1.6,1.2H510z"/>
		<path id="XMLID_2073_" class="st4" d="M516.4,904.4L516.4,904.4c0.7-0.8,1.4-1.2,2.4-1.2c1.1,0,2,0.4,2.6,1.4
			c0.5-0.9,1.5-1.4,2.6-1.4c1.9,0,2.6,1.3,2.6,3v4.8h-2.7v-3.6c0-0.8,0-2.1-1.1-2.1c-1.2,0-1.3,1.2-1.3,2.1v3.6h-2.7v-3.6
			c0-0.8,0-2.1-1.2-2.1c-1.2,0-1.2,1.3-1.2,2.1v3.6h-2.7v-7.6h2.7V904.4z"/>
		<path id="XMLID_2070_" class="st4" d="M531.2,900.6c0,0.8-0.7,1.5-1.5,1.5c-0.8,0-1.5-0.7-1.5-1.5c0-0.8,0.7-1.5,1.5-1.5
			C530.5,899.1,531.2,899.8,531.2,900.6z M531,911.1h-2.7v-7.6h2.7V911.1z"/>
		<path id="XMLID_2068_" class="st4" d="M537.8,905.4c-0.4-0.2-1-0.4-1.4-0.4c-0.3,0-0.8,0.1-0.8,0.5c0,0.5,0.8,0.6,1.2,0.7
			c1.3,0.3,2.2,0.8,2.2,2.2c0,2-1.8,2.8-3.6,2.8c-1.1,0-2.1-0.3-3.1-0.9l1-1.9c0.5,0.4,1.5,0.8,2.1,0.8c0.3,0,0.8-0.2,0.8-0.6
			c0-0.6-0.8-0.6-1.7-0.8c-0.8-0.2-1.7-0.6-1.7-2c0-1.9,1.7-2.7,3.3-2.7c0.9,0,1.7,0.1,2.5,0.5L537.8,905.4z"/>
		<path id="XMLID_2065_" class="st4" d="M543.2,900.6c0,0.8-0.7,1.5-1.5,1.5c-0.8,0-1.5-0.7-1.5-1.5c0-0.8,0.7-1.5,1.5-1.5
			C542.5,899.1,543.2,899.8,543.2,900.6z M543.1,911.1h-2.7v-7.6h2.7V911.1z"/>
		<path id="XMLID_2061_" class="st4" d="M553.4,907.3c0,2.6-2.1,4-4.6,4c-2.4,0-4.6-1.4-4.6-4s2.1-4,4.6-4S553.4,904.7,553.4,907.3z
			 M547.1,907.3c0,1,0.6,1.7,1.7,1.7c1.1,0,1.7-0.7,1.7-1.7c0-0.9-0.6-1.7-1.7-1.7C547.7,905.6,547.1,906.4,547.1,907.3z
			 M548.5,902.4l-1.2-0.9l2.1-2.5l1.6,1.2L548.5,902.4z"/>
		<path id="XMLID_2059_" class="st4" d="M557.3,904.5L557.3,904.5c0.7-0.9,1.4-1.2,2.5-1.2c2,0,2.9,1.3,2.9,3.1v4.7h-2.7v-3.7
			c0-0.7,0.1-2-1.2-2c-1.1,0-1.4,0.8-1.4,1.8v3.9h-2.7v-7.6h2.7V904.5z"/>
		<path id="XMLID_2056_" class="st4" d="M575.2,910.2L575.2,910.2c-0.5,0.8-1.4,1.1-2.3,1.1c-2.2,0-3.8-1.9-3.8-4.1s1.6-4,3.8-4
			c0.9,0,1.8,0.3,2.4,1v-5.4h2.7v12.3h-2.7V910.2z M571.8,907.3c0,1,0.6,1.7,1.7,1.7c1.1,0,1.7-0.7,1.7-1.7c0-0.9-0.6-1.7-1.7-1.7
			C572.4,905.6,571.8,906.4,571.8,907.3z"/>
		<path id="XMLID_2053_" class="st4" d="M587.3,907.7h-5.7c0,1.1,0.6,1.7,1.7,1.7c0.6,0,1-0.2,1.3-0.7h2.6c-0.2,0.9-0.7,1.5-1.4,2
			c-0.7,0.4-1.6,0.6-2.4,0.6c-2.5,0-4.4-1.4-4.4-4c0-2.5,1.7-4,4.2-4c2.6,0,4.2,1.6,4.2,4.2V907.7z M584.8,906.2
			c-0.1-0.7-0.8-1.2-1.5-1.2c-0.8,0-1.4,0.4-1.6,1.2H584.8z"/>
		<path id="XMLID_2050_" class="st4" d="M418,916.5h2.7v5.4c0.6-0.7,1.5-1,2.4-1c2.2,0,3.8,1.9,3.8,4c0,2.2-1.6,4.1-3.8,4.1
			c-0.9,0-1.8-0.3-2.3-1.1h0v0.8H418V916.5z M420.6,925c0,1,0.6,1.7,1.7,1.7c1.1,0,1.7-0.7,1.7-1.7c0-0.9-0.6-1.7-1.7-1.7
			C421.3,923.3,420.6,924.1,420.6,925z"/>
		<path id="XMLID_2047_" class="st4" d="M436.8,925c0,2.6-2.1,4-4.6,4c-2.4,0-4.6-1.4-4.6-4c0-2.6,2.1-4,4.6-4
			C434.6,921,436.8,922.4,436.8,925z M430.5,925c0,1,0.6,1.7,1.7,1.7c1.1,0,1.7-0.7,1.7-1.7c0-0.9-0.6-1.7-1.7-1.7
			C431.1,923.3,430.5,924.1,430.5,925z"/>
		<path id="XMLID_2045_" class="st4" d="M440.7,928.8H438v-12.3h2.7V928.8z"/>
		<path id="XMLID_2042_" class="st4" d="M450.2,925.5h-5.7c0,1.1,0.6,1.7,1.7,1.7c0.6,0,1-0.2,1.3-0.7h2.6c-0.2,0.9-0.7,1.5-1.4,2
			c-0.7,0.4-1.6,0.6-2.4,0.6c-2.5,0-4.4-1.4-4.4-4c0-2.5,1.7-4,4.2-4c2.6,0,4.2,1.6,4.2,4.2V925.5z M447.7,923.9
			c-0.1-0.7-0.8-1.2-1.5-1.2c-0.8,0-1.4,0.4-1.6,1.2H447.7z"/>
		<path id="XMLID_2040_" class="st4" d="M454.4,928.8h-2.7v-5.4h-0.9v-2.2h0.9V919h2.7v2.3h1.5v2.2h-1.5V928.8z"/>
		<path id="XMLID_2037_" class="st4" d="M465.1,928.8h-2.7V928h0c-0.5,0.8-1.4,1.1-2.3,1.1c-2.2,0-3.8-1.9-3.8-4.1s1.6-4,3.8-4
			c0.9,0,1.8,0.3,2.4,1v-0.7h2.7V928.8z M459,925c0,1,0.6,1.7,1.7,1.7c1.1,0,1.7-0.7,1.7-1.7c0-0.9-0.6-1.7-1.7-1.7
			C459.6,923.3,459,924.1,459,925z"/>
		<path id="XMLID_2034_" class="st4" d="M477.6,928L477.6,928c-0.5,0.8-1.4,1.1-2.3,1.1c-2.2,0-3.8-1.9-3.8-4.1s1.6-4,3.8-4
			c0.9,0,1.8,0.3,2.4,1v-5.4h2.7v12.3h-2.7V928z M474.2,925c0,1,0.6,1.7,1.7,1.7c1.1,0,1.7-0.7,1.7-1.7c0-0.9-0.6-1.7-1.7-1.7
			C474.9,923.3,474.2,924.1,474.2,925z"/>
		<path id="XMLID_2031_" class="st4" d="M489.8,925.5h-5.7c0,1.1,0.6,1.7,1.7,1.7c0.6,0,1-0.2,1.3-0.7h2.6c-0.2,0.9-0.7,1.5-1.4,2
			c-0.7,0.4-1.6,0.6-2.4,0.6c-2.5,0-4.4-1.4-4.4-4c0-2.5,1.7-4,4.2-4c2.6,0,4.2,1.6,4.2,4.2V925.5z M487.3,923.9
			c-0.1-0.7-0.8-1.2-1.5-1.2c-0.8,0-1.4,0.4-1.6,1.2H487.3z"/>
		<path id="XMLID_2029_" class="st4" d="M498.8,928.8h-2.7v-12.3h2.7V928.8z"/>
		<path id="XMLID_2026_" class="st4" d="M503.4,918.3c0,0.8-0.7,1.5-1.5,1.5c-0.8,0-1.5-0.7-1.5-1.5c0-0.8,0.7-1.5,1.5-1.5
			C502.7,916.8,503.4,917.5,503.4,918.3z M503.2,928.8h-2.7v-7.6h2.7V928.8z"/>
		<path id="XMLID_2023_" class="st4" d="M513.4,932.6h-2.7v-4.5c-0.6,0.7-1.5,1-2.4,1c-2.3,0-3.8-1.8-3.8-4c0-2.2,1.6-4.1,3.8-4.1
			c0.9,0,1.8,0.4,2.3,1.1h0v-0.9h2.7V932.6z M507.3,925c0,1,0.6,1.7,1.7,1.7s1.7-0.7,1.7-1.7c0-0.9-0.6-1.7-1.7-1.7
			S507.3,924.1,507.3,925z"/>
		<path id="XMLID_2021_" class="st4" d="M517.7,921.2v4.1c0,1,0.2,1.6,1.3,1.6c1.1,0,1.3-0.7,1.3-1.6v-4.1h2.7v4.6
			c0,2.5-1.8,3.3-4,3.3c-2.3,0-4-0.8-4-3.3v-4.6H517.7z"/>
		<path id="XMLID_2018_" class="st4" d="M527.7,918.3c0,0.8-0.7,1.5-1.5,1.5c-0.8,0-1.5-0.7-1.5-1.5c0-0.8,0.7-1.5,1.5-1.5
			C527,916.8,527.7,917.5,527.7,918.3z M527.5,928.8h-2.7v-7.6h2.7V928.8z"/>
		<path id="XMLID_2015_" class="st4" d="M535,928L535,928c-0.5,0.8-1.4,1.1-2.3,1.1c-2.2,0-3.8-1.9-3.8-4.1s1.6-4,3.8-4
			c0.9,0,1.8,0.3,2.4,1v-5.4h2.7v12.3H535V928z M531.6,925c0,1,0.6,1.7,1.7,1.7c1.1,0,1.7-0.7,1.7-1.7c0-0.9-0.6-1.7-1.7-1.7
			C532.3,923.3,531.6,924.1,531.6,925z"/>
		<path id="XMLID_2012_" class="st4" d="M547.7,928.8H545V928h0c-0.5,0.8-1.4,1.1-2.3,1.1c-2.2,0-3.8-1.9-3.8-4.1s1.6-4,3.8-4
			c0.9,0,1.8,0.3,2.4,1v-0.7h2.7V928.8z M541.6,925c0,1,0.6,1.7,1.7,1.7c1.1,0,1.7-0.7,1.7-1.7c0-0.9-0.6-1.7-1.7-1.7
			C542.2,923.3,541.6,924.1,541.6,925z"/>
		<path id="XMLID_2010_" class="st4" d="M554.9,923.7c-0.4-0.3-0.9-0.5-1.4-0.5c-1,0-1.8,0.8-1.8,1.8c0,1.1,0.8,1.9,1.9,1.9
			c0.5,0,1-0.2,1.3-0.5v2.3c-0.6,0.3-1.2,0.4-1.9,0.4c-2.2,0-4.1-1.7-4.1-4c0-2.4,1.9-4.1,4.2-4.1c0.6,0,1.2,0.1,1.8,0.4V923.7z"/>
		<path id="XMLID_2007_" class="st4" d="M559.4,918.3c0,0.8-0.7,1.5-1.5,1.5c-0.8,0-1.5-0.7-1.5-1.5c0-0.8,0.7-1.5,1.5-1.5
			C558.8,916.8,559.4,917.5,559.4,918.3z M559.3,928.8h-2.7v-7.6h2.7V928.8z"/>
		<path id="XMLID_2003_" class="st4" d="M569.6,925c0,2.6-2.1,4-4.6,4c-2.4,0-4.6-1.4-4.6-4c0-2.6,2.1-4,4.6-4
			C567.5,921,569.6,922.4,569.6,925z M563.3,925c0,1,0.6,1.7,1.7,1.7c1.1,0,1.7-0.7,1.7-1.7c0-0.9-0.6-1.7-1.7-1.7
			C564,923.3,563.3,924.1,563.3,925z M564.8,920.1l-1.2-0.9l2.1-2.5l1.6,1.2L564.8,920.1z"/>
		<path id="XMLID_2001_" class="st4" d="M573.5,922.2L573.5,922.2c0.7-0.9,1.4-1.2,2.5-1.2c2,0,2.9,1.3,2.9,3.1v4.7h-2.7v-3.7
			c0-0.7,0.1-2-1.2-2c-1.1,0-1.4,0.8-1.4,1.8v3.9h-2.7v-7.6h2.7V922.2z"/>
	</g>
</g>
<rect id="XMLID_5858_" x="386.9" y="967.5" class="st3" width="223.5" height="82"/>
<g id="XMLID_12255_">
	<g>
		<path id="XMLID_443_" class="st4" d="M427.6,1001.1c-0.6-0.8-1.6-1.2-2.5-1.2c-1.8,0-3,1.4-3,3.1c0,1.8,1.2,3,3,3
			c0.9,0,1.9-0.5,2.5-1.2v3.5c-1,0.3-1.7,0.5-2.6,0.5c-1.6,0-3-0.6-4.2-1.6c-1.2-1.1-1.8-2.6-1.8-4.2c0-1.5,0.6-3,1.6-4.1
			c1.1-1.1,2.7-1.8,4.2-1.8c0.9,0,1.8,0.2,2.6,0.6V1001.1z"/>
		<path id="XMLID_440_" class="st4" d="M432.2,1006.6l-0.8,1.9h-3.1l4.3-11.1h3.2l4.2,11.1h-3.1l-0.7-1.9H432.2z M434.2,1000.8
			L434.2,1000.8l-1.2,3.5h2.4L434.2,1000.8z"/>
		<path id="XMLID_438_" class="st4" d="M446.3,997.4v7.5c0,2.4-1.2,3.9-3.7,3.9c-1.2,0-2.2-0.6-2.9-1.6l1.7-1.8
			c0.3,0.4,0.8,0.9,1.2,0.9c0.9,0,0.8-1,0.8-1.6v-7.3H446.3z"/>
		<path id="XMLID_435_" class="st4" d="M451,1006.6l-0.8,1.9h-3.1l4.3-11.1h3.2l4.2,11.1h-3.1l-0.7-1.9H451z M453,1000.8L453,1000.8
			l-1.2,3.5h2.4L453,1000.8z"/>
		<path id="XMLID_433_" class="st4" d="M470.9,1000.2c-0.5-0.4-1.2-0.7-1.9-0.7c-0.5,0-1.2,0.3-1.2,0.9c0,0.7,0.8,0.9,1.3,1.1
			l0.7,0.2c1.6,0.5,2.7,1.2,2.7,3c0,1.1-0.3,2.2-1.2,3c-0.9,0.7-2,1-3.2,1c-1.4,0-2.8-0.5-3.9-1.3l1.2-2.3c0.7,0.6,1.6,1.2,2.6,1.2
			c0.7,0,1.4-0.3,1.4-1.1c0-0.8-1.1-1.1-1.8-1.3c-1.8-0.5-3-1-3-3.1c0-2.3,1.6-3.7,3.8-3.7c1.1,0,2.5,0.4,3.5,0.9L470.9,1000.2z"/>
		<path id="XMLID_431_" class="st4" d="M483.5,997.4v6.3c0,1.4-0.1,2.9-1.2,3.9c-0.9,0.9-2.4,1.2-3.7,1.2c-1.3,0-2.8-0.3-3.7-1.2
			c-1.1-1.1-1.2-2.5-1.2-3.9v-6.3h2.9v5.9c0,1.4,0.1,3,2,3c1.9,0,2-1.6,2-3v-5.9H483.5z"/>
		<path id="XMLID_427_" class="st4" d="M485.4,1008.5v-11.1h4.1c2,0,3.3,0.8,3.3,2.9c0,1-0.3,1.8-1.2,2.3v0c1.6,0.2,2.3,1.3,2.3,2.8
			c0,2.3-2,3.1-4,3.1H485.4z M488.3,1001.7h0.3c0.8,0,1.6-0.1,1.6-1.1c0-1-0.9-1.1-1.7-1.1h-0.2V1001.7z M488.3,1006.3h0.4
			c0.9,0,2.3,0,2.3-1.2c0-1.3-1.4-1.2-2.4-1.2h-0.3V1006.3z"/>
		<path id="XMLID_424_" class="st4" d="M498.2,1006.6l-0.8,1.9h-3.1l4.3-11.1h3.2l4.2,11.1h-3.1l-0.7-1.9H498.2z M500.2,1000.8
			L500.2,1000.8l-1.2,3.5h2.4L500.2,1000.8z"/>
		<path id="XMLID_422_" class="st4" d="M509.8,1006.1h3.5v2.5h-6.4v-11.1h2.9V1006.1z"/>
		<path id="XMLID_420_" class="st4" d="M522.2,1001.1c-0.6-0.8-1.6-1.2-2.5-1.2c-1.8,0-3,1.4-3,3.1c0,1.8,1.2,3,3,3
			c0.9,0,1.9-0.5,2.5-1.2v3.5c-1,0.3-1.7,0.5-2.6,0.5c-1.6,0-3-0.6-4.2-1.6c-1.2-1.1-1.8-2.6-1.8-4.2c0-1.5,0.6-3,1.6-4.1
			c1.1-1.1,2.7-1.8,4.2-1.8c0.9,0,1.8,0.2,2.6,0.6V1001.1z"/>
		<path id="XMLID_417_" class="st4" d="M526.8,1006.6l-0.8,1.9H523l4.3-11.1h3.2l4.2,11.1h-3.1l-0.7-1.9H526.8z M528.8,1000.8
			L528.8,1000.8l-1.2,3.5h2.4L528.8,1000.8z"/>
		<path id="XMLID_415_" class="st4" d="M538.4,1006.1h3.5v2.5h-6.4v-11.1h2.9V1006.1z"/>
		<path id="XMLID_412_" class="st4" d="M542.8,997.4h4.1c3.1,0,5.7,2.4,5.7,5.6c0,3.1-2.6,5.6-5.7,5.6h-4.1V997.4z M545.7,1006.1
			h0.6c1.7,0,3.2-0.9,3.2-3.1c0-2-1.3-3.1-3.2-3.1h-0.7V1006.1z"/>
		<path id="XMLID_410_" class="st4" d="M556.8,1008.5H554v-11.1h2.9V1008.5z"/>
		<path id="XMLID_407_" class="st4" d="M561.6,1006.6l-0.8,1.9h-3.1l4.3-11.1h3.2l4.2,11.1h-3.1l-0.7-1.9H561.6z M563.6,1000.8
			L563.6,1000.8l-1.2,3.5h2.4L563.6,1000.8z"/>
		<path id="XMLID_405_" class="st4" d="M485.1,1018.8c-0.6-0.8-1.6-1.2-2.5-1.2c-1.8,0-3,1.4-3,3.1c0,1.8,1.2,3,3,3
			c0.9,0,1.9-0.5,2.5-1.2v3.5c-1,0.3-1.7,0.5-2.6,0.5c-1.6,0-3-0.6-4.2-1.6c-1.2-1.1-1.8-2.6-1.8-4.2c0-1.5,0.6-3,1.6-4.1
			c1.1-1.1,2.7-1.8,4.2-1.8c0.9,0,1.8,0.2,2.6,0.6V1018.8z"/>
		<path id="XMLID_402_" class="st4" d="M495.4,1022.5c0,2.6-2.1,4-4.6,4c-2.4,0-4.6-1.4-4.6-4c0-2.6,2.1-4,4.6-4
			C493.2,1018.4,495.4,1019.9,495.4,1022.5z M489.1,1022.5c0,1,0.6,1.7,1.7,1.7c1.1,0,1.7-0.7,1.7-1.7c0-0.9-0.6-1.7-1.7-1.7
			C489.7,1020.7,489.1,1021.5,489.1,1022.5z"/>
		<path id="XMLID_399_" class="st4" d="M496.5,1014h2.7v5.4c0.6-0.7,1.5-1,2.4-1c2.2,0,3.8,1.9,3.8,4c0,2.2-1.6,4.1-3.8,4.1
			c-0.9,0-1.8-0.3-2.3-1.1h0v0.8h-2.7V1014z M499.1,1022.5c0,1,0.6,1.7,1.7,1.7c1.1,0,1.7-0.7,1.7-1.7c0-0.9-0.6-1.7-1.7-1.7
			C499.7,1020.7,499.1,1021.5,499.1,1022.5z"/>
		<path id="XMLID_397_" class="st4" d="M509.4,1019.9L509.4,1019.9c0.5-0.9,1.4-1.3,2.5-1.3h0.5v2.6c-0.4-0.2-0.7-0.3-1.1-0.3
			c-1.5,0-1.9,1-1.9,2.3v3.1h-2.7v-7.6h2.7V1019.9z"/>
		<path id="XMLID_394_" class="st4" d="M521.7,1022.5c0,2.6-2.1,4-4.6,4c-2.4,0-4.6-1.4-4.6-4c0-2.6,2.1-4,4.6-4
			C519.5,1018.4,521.7,1019.9,521.7,1022.5z M515.4,1022.5c0,1,0.6,1.7,1.7,1.7c1.1,0,1.7-0.7,1.7-1.7c0-0.9-0.6-1.7-1.7-1.7
			C516,1020.7,515.4,1021.5,515.4,1022.5z"/>
	</g>
</g>
<rect id="XMLID_2851_" x="386.9" y="1068.5" class="st3" width="223.5" height="83.2"/>
<g id="XMLID_12153_">
	<g>
		<path id="XMLID_1817_" class="st4" d="M439,1086.4v7.5c0,2.4-1.2,3.9-3.7,3.9c-1.2,0-2.2-0.6-2.9-1.6l1.7-1.8
			c0.3,0.4,0.8,0.9,1.2,0.9c0.9,0,0.8-1,0.8-1.6v-7.3H439z"/>
		<path id="XMLID_1815_" class="st4" d="M443.7,1088.8v1.9h3.3v2.5h-3.3v1.9h3.4v2.5h-6.3v-11.1h6.3v2.5H443.7z"/>
		<path id="XMLID_1813_" class="st4" d="M451.9,1088.8v1.9h3.2v2.5h-3.2v4.4H449v-11.1h6.4v2.5H451.9z"/>
		<path id="XMLID_1811_" class="st4" d="M459.9,1088.8v1.9h3.3v2.5h-3.3v1.9h3.4v2.5H457v-11.1h6.3v2.5H459.9z"/>
		<path id="XMLID_1808_" class="st4" d="M470.2,1086.4h4.1c3.1,0,5.7,2.4,5.7,5.6s-2.6,5.6-5.7,5.6h-4.1V1086.4z M473.1,1095.1h0.7
			c1.7,0,3.2-0.9,3.2-3.1c0-2-1.3-3.1-3.2-3.1h-0.7V1095.1z"/>
		<path id="XMLID_1806_" class="st4" d="M484.2,1088.8v1.9h3.3v2.5h-3.3v1.9h3.4v2.5h-6.3v-11.1h6.3v2.5H484.2z"/>
		<path id="XMLID_1803_" class="st4" d="M494.5,1086.4h4.1c3.1,0,5.7,2.4,5.7,5.6s-2.6,5.6-5.7,5.6h-4.1V1086.4z M497.4,1095.1h0.7
			c1.7,0,3.2-0.9,3.2-3.1c0-2-1.3-3.1-3.2-3.1h-0.7V1095.1z"/>
		<path id="XMLID_1801_" class="st4" d="M508.5,1097.5h-2.9v-11.1h2.9V1097.5z"/>
		<path id="XMLID_1799_" class="st4" d="M515.1,1093.2l2.7-6.8h3.1l-4.8,11.1h-2.2l-4.7-11.1h3.1L515.1,1093.2z"/>
		<path id="XMLID_1797_" class="st4" d="M524.5,1097.5h-2.9v-11.1h2.9V1097.5z"/>
		<path id="XMLID_1795_" class="st4" d="M532.5,1089.3c-0.5-0.4-1.2-0.7-1.9-0.7c-0.5,0-1.2,0.3-1.2,0.9c0,0.7,0.8,0.9,1.3,1.1
			l0.7,0.2c1.6,0.5,2.7,1.2,2.7,3c0,1.1-0.3,2.2-1.2,3c-0.9,0.7-2,1-3.2,1c-1.4,0-2.8-0.5-3.9-1.3l1.2-2.3c0.7,0.6,1.6,1.2,2.6,1.2
			c0.7,0,1.4-0.3,1.4-1.1c0-0.8-1.1-1.1-1.8-1.3c-1.8-0.5-3-1-3-3.1c0-2.3,1.6-3.7,3.8-3.7c1.1,0,2.5,0.4,3.5,0.9L532.5,1089.3z"/>
		<path id="XMLID_1793_" class="st4" d="M538.4,1097.5h-2.9v-11.1h2.9V1097.5z"/>
		<path id="XMLID_1789_" class="st4" d="M552.1,1091.8c0,3.6-2.6,6.1-6.2,6.1c-3.6,0-6.2-2.5-6.2-6.1c0-3.4,3-5.7,6.2-5.7
			S552.1,1088.4,552.1,1091.8z M542.8,1091.8c0,1.9,1.4,3.3,3.1,3.3c1.7,0,3.1-1.4,3.1-3.3c0-1.5-1.4-2.9-3.1-2.9
			C544.2,1088.8,542.8,1090.2,542.8,1091.8z M545.6,1085.7l-1.2-0.9l2.1-2.5l1.6,1.2L545.6,1085.7z"/>
		<path id="XMLID_1787_" class="st4" d="M553.4,1086.4h2.9l5.3,6.8h0v-6.8h2.9v11.1h-2.9l-5.3-6.8h0v6.8h-2.9V1086.4z"/>
		<path id="XMLID_1785_" class="st4" d="M435.9,1110.9l2.7-6.8h3.1l-4.8,11.1h-2.2l-4.7-11.1h3.1L435.9,1110.9z"/>
		<path id="XMLID_1782_" class="st4" d="M449.9,1111.5c0,2.6-2.1,4-4.6,4c-2.4,0-4.6-1.4-4.6-4c0-2.6,2.1-4,4.6-4
			C447.8,1107.4,449.9,1108.9,449.9,1111.5z M443.6,1111.5c0,1,0.6,1.7,1.7,1.7c1.1,0,1.7-0.7,1.7-1.7c0-0.9-0.6-1.7-1.7-1.7
			C444.3,1109.8,443.6,1110.6,443.6,1111.5z"/>
		<path id="XMLID_1778_" class="st4" d="M451.2,1115.3v-11.1h4.1c2,0,3.3,0.8,3.3,2.9c0,1-0.3,1.8-1.2,2.3v0
			c1.6,0.2,2.3,1.3,2.3,2.8c0,2.3-2,3.1-4,3.1H451.2z M454.1,1108.5h0.3c0.8,0,1.6-0.1,1.6-1.1c0-1-0.9-1.1-1.7-1.1h-0.2V1108.5z
			 M454.1,1113h0.4c0.9,0,2.3,0,2.3-1.2c0-1.3-1.4-1.2-2.4-1.2h-0.3V1113z"/>
		<path id="XMLID_1775_" class="st4" d="M469.7,1111.5c0,2.6-2.1,4-4.6,4c-2.4,0-4.6-1.4-4.6-4c0-2.6,2.1-4,4.6-4
			C467.6,1107.4,469.7,1108.9,469.7,1111.5z M463.4,1111.5c0,1,0.6,1.7,1.7,1.7c1.1,0,1.7-0.7,1.7-1.7c0-0.9-0.6-1.7-1.7-1.7
			C464,1109.8,463.4,1110.6,463.4,1111.5z"/>
		<path id="XMLID_1772_" class="st4" d="M484.3,1115.3h-2.7v-0.8h0c-0.5,0.8-1.4,1.1-2.3,1.1c-2.2,0-3.8-1.9-3.8-4.1s1.6-4,3.8-4
			c0.9,0,1.8,0.3,2.4,1v-0.7h2.7V1115.3z M478.2,1111.5c0,1,0.6,1.7,1.7,1.7c1.1,0,1.7-0.7,1.7-1.7c0-0.9-0.6-1.7-1.7-1.7
			C478.9,1109.8,478.2,1110.6,478.2,1111.5z"/>
		<path id="XMLID_1769_" class="st4" d="M488.7,1108.5L488.7,1108.5c0.5-0.8,1.4-1.1,2.3-1.1c2.3,0,3.8,1.9,3.8,4.1
			c0,2.2-1.6,4-3.8,4c-0.9,0-1.8-0.3-2.4-1v4.5H486v-11.4h2.7V1108.5z M488.6,1111.5c0,1,0.6,1.7,1.7,1.7c1.1,0,1.7-0.7,1.7-1.7
			c0-0.9-0.6-1.7-1.7-1.7C489.2,1109.8,488.6,1110.6,488.6,1111.5z"/>
		<path id="XMLID_1767_" class="st4" d="M498.8,1108.9L498.8,1108.9c0.5-0.9,1.4-1.3,2.5-1.3h0.5v2.6c-0.4-0.2-0.7-0.3-1.1-0.3
			c-1.5,0-1.9,1-1.9,2.3v3.1h-2.7v-7.6h2.7V1108.9z"/>
		<path id="XMLID_1764_" class="st4" d="M511.1,1111.5c0,2.6-2.1,4-4.6,4c-2.4,0-4.6-1.4-4.6-4c0-2.6,2.1-4,4.6-4
			S511.1,1108.9,511.1,1111.5z M504.8,1111.5c0,1,0.6,1.7,1.7,1.7c1.1,0,1.7-0.7,1.7-1.7c0-0.9-0.6-1.7-1.7-1.7
			C505.5,1109.8,504.8,1110.6,504.8,1111.5z"/>
		<path id="XMLID_1761_" class="st4" d="M512.3,1103h2.7v5.4c0.6-0.7,1.5-1,2.4-1c2.2,0,3.8,1.9,3.8,4c0,2.2-1.6,4.1-3.8,4.1
			c-0.9,0-1.8-0.3-2.3-1.1h0v0.8h-2.7V1103z M514.9,1111.5c0,1,0.6,1.7,1.7,1.7c1.1,0,1.7-0.7,1.7-1.7c0-0.9-0.6-1.7-1.7-1.7
			C515.5,1109.8,514.9,1110.6,514.9,1111.5z"/>
		<path id="XMLID_1758_" class="st4" d="M530.7,1115.3H528v-0.8h0c-0.5,0.8-1.4,1.1-2.3,1.1c-2.2,0-3.8-1.9-3.8-4.1s1.6-4,3.8-4
			c0.9,0,1.8,0.3,2.4,1v-0.7h2.7V1115.3z M524.7,1111.5c0,1,0.6,1.7,1.7,1.7c1.1,0,1.7-0.7,1.7-1.7c0-0.9-0.6-1.7-1.7-1.7
			C525.3,1109.8,524.7,1110.6,524.7,1111.5z"/>
		<path id="XMLID_1756_" class="st4" d="M538,1110.2c-0.4-0.3-0.9-0.5-1.4-0.5c-1,0-1.8,0.8-1.8,1.8c0,1.1,0.8,1.9,1.9,1.9
			c0.5,0,1-0.2,1.3-0.5v2.3c-0.6,0.3-1.2,0.4-1.9,0.4c-2.2,0-4.1-1.7-4.1-4c0-2.4,1.9-4.1,4.2-4.1c0.6,0,1.2,0.1,1.8,0.4V1110.2z"/>
		<path id="XMLID_1753_" class="st4" d="M542.5,1104.8c0,0.8-0.7,1.5-1.5,1.5c-0.8,0-1.5-0.7-1.5-1.5c0-0.8,0.7-1.5,1.5-1.5
			C541.8,1103.3,542.5,1103.9,542.5,1104.8z M542.3,1115.3h-2.7v-7.6h2.7V1115.3z"/>
		<path id="XMLID_1750_" class="st4" d="M552.7,1111.5c0,2.6-2.1,4-4.6,4c-2.4,0-4.6-1.4-4.6-4c0-2.6,2.1-4,4.6-4
			C550.6,1107.4,552.7,1108.9,552.7,1111.5z M546.4,1111.5c0,1,0.6,1.7,1.7,1.7c1.1,0,1.7-0.7,1.7-1.7c0-0.9-0.6-1.7-1.7-1.7
			C547,1109.8,546.4,1110.6,546.4,1111.5z"/>
		<path id="XMLID_1656_" class="st4" d="M556.6,1108.7L556.6,1108.7c0.7-0.9,1.4-1.2,2.5-1.2c2,0,2.9,1.3,2.9,3.1v4.7h-2.7v-3.7
			c0-0.7,0.1-2-1.2-2c-1.1,0-1.4,0.8-1.4,1.8v3.9h-2.7v-7.6h2.7V1108.7z"/>
		<path id="XMLID_1653_" class="st4" d="M457.6,1133h-2.7v-0.8h0c-0.5,0.8-1.4,1.1-2.3,1.1c-2.2,0-3.8-1.9-3.8-4.1
			c0-2.2,1.6-4,3.8-4c0.9,0,1.8,0.3,2.4,1v-0.7h2.7V1133z M451.5,1129.2c0,1,0.6,1.7,1.7,1.7c1.1,0,1.7-0.7,1.7-1.7
			c0-0.9-0.6-1.7-1.7-1.7C452.1,1127.5,451.5,1128.3,451.5,1129.2z"/>
		<path id="XMLID_1651_" class="st4" d="M462,1126.4L462,1126.4c0.7-0.9,1.4-1.2,2.5-1.2c2,0,2.9,1.3,2.9,3.1v4.7h-2.7v-3.7
			c0-0.7,0.1-2-1.2-2c-1.1,0-1.4,0.8-1.4,1.8v3.9h-2.7v-7.6h2.7V1126.4z"/>
		<path id="XMLID_1649_" class="st4" d="M472.1,1133h-2.7v-5.4h-0.9v-2.2h0.9v-2.3h2.7v2.3h1.5v2.2h-1.5V1133z"/>
		<path id="XMLID_1646_" class="st4" d="M482.2,1129.7h-5.7c0,1.1,0.6,1.7,1.7,1.7c0.6,0,1-0.2,1.3-0.7h2.6c-0.2,0.9-0.7,1.5-1.4,2
			c-0.7,0.4-1.6,0.6-2.4,0.6c-2.5,0-4.4-1.4-4.4-4c0-2.5,1.7-4,4.2-4c2.6,0,4.2,1.6,4.2,4.2V1129.7z M479.7,1128.1
			c-0.1-0.7-0.8-1.2-1.5-1.2c-0.8,0-1.4,0.4-1.6,1.2H479.7z"/>
		<path id="XMLID_1643_" class="st4" d="M486,1126.3L486,1126.3c0.5-0.8,1.4-1.1,2.3-1.1c2.3,0,3.8,1.9,3.8,4.1c0,2.2-1.6,4-3.8,4
			c-0.9,0-1.8-0.3-2.4-1v4.5h-2.7v-11.4h2.7V1126.3z M486,1129.2c0,1,0.6,1.7,1.7,1.7c1.1,0,1.7-0.7,1.7-1.7c0-0.9-0.6-1.7-1.7-1.7
			C486.6,1127.5,486,1128.3,486,1129.2z"/>
		<path id="XMLID_1641_" class="st4" d="M496.2,1126.7L496.2,1126.7c0.5-0.9,1.4-1.3,2.5-1.3h0.5v2.6c-0.4-0.2-0.7-0.3-1.1-0.3
			c-1.5,0-1.9,1-1.9,2.3v3.1h-2.7v-7.6h2.7V1126.7z"/>
		<path id="XMLID_1638_" class="st4" d="M508.5,1129.2c0,2.6-2.1,4-4.6,4c-2.4,0-4.6-1.4-4.6-4c0-2.6,2.1-4,4.6-4
			C506.4,1125.2,508.5,1126.6,508.5,1129.2z M502.2,1129.2c0,1,0.6,1.7,1.7,1.7c1.1,0,1.7-0.7,1.7-1.7c0-0.9-0.6-1.7-1.7-1.7
			C502.9,1127.5,502.2,1128.3,502.2,1129.2z"/>
		<path id="XMLID_1541_" class="st4" d="M508.6,1125.4h3.1l2,3.9l2-3.9h3.1l-6.1,11.4h-3l2.6-4.8L508.6,1125.4z"/>
		<path id="XMLID_1538_" class="st4" d="M527.2,1129.7h-5.7c0,1.1,0.6,1.7,1.7,1.7c0.6,0,1-0.2,1.3-0.7h2.6c-0.2,0.9-0.7,1.5-1.4,2
			c-0.7,0.4-1.6,0.6-2.4,0.6c-2.5,0-4.4-1.4-4.4-4c0-2.5,1.7-4,4.2-4c2.6,0,4.2,1.6,4.2,4.2V1129.7z M524.7,1128.1
			c-0.1-0.7-0.8-1.2-1.5-1.2c-0.8,0-1.4,0.4-1.6,1.2H524.7z"/>
		<path id="XMLID_1536_" class="st4" d="M533.9,1127.9c-0.4-0.3-0.9-0.5-1.4-0.5c-1,0-1.8,0.8-1.8,1.8c0,1.1,0.8,1.9,1.9,1.9
			c0.5,0,1-0.2,1.3-0.5v2.3c-0.6,0.3-1.2,0.4-1.9,0.4c-2.2,0-4.1-1.7-4.1-4c0-2.4,1.9-4.1,4.2-4.1c0.6,0,1.2,0.1,1.8,0.4V1127.9z"/>
		<path id="XMLID_1534_" class="st4" d="M538.5,1133h-2.7v-5.4h-0.9v-2.2h0.9v-2.3h2.7v2.3h1.5v2.2h-1.5V1133z"/>
		<path id="XMLID_1531_" class="st4" d="M549.5,1129.2c0,2.6-2.1,4-4.6,4c-2.4,0-4.6-1.4-4.6-4c0-2.6,2.1-4,4.6-4
			S549.5,1126.6,549.5,1129.2z M543.2,1129.2c0,1,0.6,1.7,1.7,1.7c1.1,0,1.7-0.7,1.7-1.7c0-0.9-0.6-1.7-1.7-1.7
			C543.8,1127.5,543.2,1128.3,543.2,1129.2z"/>
	</g>
</g>
<polygon id="XMLID_5808_" class="st5" points="390.2,50.1 380.8,55.6 371.4,61 371.4,50.1 371.4,39.2 380.8,44.7 "/>
<polygon id="XMLID_5807_" class="st5" points="497,122.3 491.6,112.9 486.2,103.5 497,103.5 507.9,103.5 502.5,112.9 "/>
<polygon id="XMLID_5806_" class="st5" points="610.4,183.4 619.9,178 629.3,172.5 629.3,183.4 629.3,194.3 619.9,188.8 "/>
<polygon id="XMLID_5805_" class="st5" points="610.4,50.1 619.9,44.7 629.3,39.2 629.3,50.1 629.3,61 619.9,55.6 "/>
<polygon id="XMLID_5804_" class="st5" points="663.4,183.4 654,188.8 644.6,194.3 644.6,183.4 644.6,172.5 654,178 "/>
<polygon id="XMLID_5803_" class="st5" points="775.3,125.9 769.8,116.5 764.4,107 775.3,107 786.2,107 780.7,116.5 "/>
<polygon id="XMLID_5802_" class="st5" points="497,237 491.6,227.5 486.2,218.1 497,218.1 507.9,218.1 502.5,227.5 "/>
<polygon id="XMLID_2845_" class="st5" points="497,341 491.6,331.6 486.2,322.2 497,322.2 507.9,322.2 502.5,331.6 "/>
<polygon id="XMLID_2849_" class="st5" points="497,470.8 491.6,461.4 486.2,452 497,452 507.9,452 502.5,461.4 "/>
<polygon id="XMLID_2853_" class="st5" points="497,603.9 491.6,594.5 486.2,585.1 497,585.1 507.9,585.1 502.5,594.5 "/>
<polygon id="XMLID_2866_" class="st5" points="497,735.4 491.6,726 486.2,716.5 497,716.5 507.9,716.5 502.5,726 "/>
<polygon id="XMLID_2867_" class="st5" points="497,864.6 491.6,855.1 486.2,845.7 497,845.7 507.9,845.7 502.5,855.1 "/>
<polygon id="XMLID_2868_" class="st5" points="497,970.8 491.6,961.4 486.2,951.9 497,951.9 507.9,951.9 502.5,961.4 "/>
<polygon id="XMLID_2869_" class="st5" points="497,1074.2 491.6,1064.8 486.2,1055.4 497,1055.4 507.9,1055.4 502.5,1064.8 "/>
<polygon id="XMLID_5796_" class="st5" points="209.9,609.7 204.5,600.3 199,590.9 209.9,590.9 220.8,590.9 215.4,600.3 "/>
<polygon id="XMLID_5795_" class="st5" points="209.9,713.3 215.4,722.7 220.8,732.1 209.9,732.1 199,732.1 204.5,722.7 "/>
<line id="XMLID_5794_" class="st0" x1="209.9" y1="505.7" x2="209.9" y2="607.1"/>
<polyline id="XMLID_5793_" class="st0" points="209.9,722.7 209.9,1110.1 386.9,1110.1 "/>
<polyline id="XMLID_5792_" class="st0" points="321.7,661.7 353.9,661.7 353.9,49.6 386.9,49.6 "/>
<line id="XMLID_5791_" class="st0" x1="615.8" y1="183.4" x2="656" y2="183.4"/>
<polyline id="XMLID_5790_" class="st0" points="619.9,50.1 775.3,50.1 775.3,119.8 "/>
<polygon id="XMLID_2870_" class="st5" points="610.4,285.4 619.9,290.9 629.3,296.3 629.3,285.4 629.3,274.5 619.9,280 "/>
<polygon id="XMLID_1606_" class="st5" points="775.3,209.7 769.8,219.1 764.4,228.5 775.3,228.5 786.2,228.5 780.7,219.1 "/>
<polyline id="XMLID_522_" class="st0" points="619.9,285.4 775.3,285.4 775.3,215.8 "/>
</svg>
