<?xml version="1.0" encoding="utf-8"?>
<!-- Generator: Adobe Illustrator 21.0.2, SVG Export Plug-In . SVG Version: 6.00 Build 0)  -->
<svg version="1.1" id="Layer_1" xmlns="http://www.w3.org/2000/svg" xmlns:xlink="http://www.w3.org/1999/xlink" x="0px" y="0px"
	 viewBox="0 0 998.6 1018.7" style="enable-background:new 0 0 998.6 1018.7;" xml:space="preserve">
<style type="text/css">
	.st0{fill:none;stroke:#E42527;stroke-width:4;stroke-miterlimit:10;}
	.st1{fill:#D81117;}
	.st2{fill:#929191;}
	.st3{fill:#9D9D9C;}
	.st4{fill:#FFFFFF;}
	.st5{fill:#E42527;}
</style>
<line id="XMLID_1762_" class="st0" x1="497.5" y1="88.7" x2="497.5" y2="956.2"/>
<rect id="XMLID_1498_" x="99.6" y="409.4" class="st1" width="223" height="101"/>
<rect id="XMLID_1497_" x="99.6" y="610.9" class="st2" width="223" height="101"/>
<rect id="XMLID_1496_" x="387.7" y="0.2" class="st3" width="223" height="101"/>
<rect id="XMLID_1495_" x="663.5" y="131.1" class="st3" width="236" height="101"/>
<g id="XMLID_22182_">
	<g>
		<path id="XMLID_1180_" class="st4" d="M134,441.8l2.7-6.8h3.1l-4.7,11.1h-2.2l-4.7-11.1h3.1L134,441.8z"/>
		<path id="XMLID_1177_" class="st4" d="M145.6,437.2c0,1.5-1.4,2.4-3,2.4c-1.6,0-2.9-0.9-2.9-2.4c0-1.5,1.4-2.4,2.9-2.4
			C144.2,434.8,145.6,435.6,145.6,437.2z M141.6,437.2c0,0.6,0.5,1,1.1,1s1.1-0.4,1.1-1c0-0.6-0.5-1-1.1-1S141.6,436.6,141.6,437.2z
			"/>
		<path id="XMLID_1173_" class="st4" d="M151.7,446.2v-11.1h4.1c2,0,3.3,0.8,3.3,2.9c0,1-0.3,1.8-1.2,2.3v0c1.6,0.2,2.3,1.3,2.3,2.8
			c0,2.3-2,3.1-4,3.1H151.7z M154.6,439.4h0.3c0.8,0,1.6-0.1,1.6-1.1c0-1-0.9-1.1-1.7-1.1h-0.2V439.4z M154.6,444h0.4
			c0.9,0,2.3,0,2.3-1.2c0-1.3-1.4-1.2-2.4-1.2h-0.3V444z"/>
		<path id="XMLID_1170_" class="st4" d="M166.7,437.2c0,1.5-1.4,2.4-3,2.4c-1.6,0-2.9-0.9-2.9-2.4c0-1.5,1.4-2.4,2.9-2.4
			C165.3,434.8,166.7,435.6,166.7,437.2z M162.6,437.2c0,0.6,0.5,1,1.1,1s1.1-0.4,1.1-1c0-0.6-0.5-1-1.1-1S162.6,436.6,162.6,437.2z
			"/>
		<path id="XMLID_1167_" class="st4" d="M175.6,444.3l-0.8,1.9h-3.1l4.3-11.1h3.2l4.2,11.1h-3.1l-0.7-1.9H175.6z M177.6,438.5
			L177.6,438.5l-1.2,3.5h2.4L177.6,438.5z"/>
		<path id="XMLID_1164_" class="st4" d="M193.5,446.2h-3.6l-2.7-4.3h0v4.3h-2.9v-11.1h4.3c2.2,0,3.9,1,3.9,3.4
			c0,1.5-0.9,2.9-2.4,3.1L193.5,446.2z M187.2,440.1h0.3c0.9,0,2-0.2,2-1.4c0-1.2-1.1-1.4-2-1.4h-0.3V440.1z"/>
		<path id="XMLID_1162_" class="st4" d="M197.2,437.5v1.9h3.3v2.4h-3.3v1.9h3.4v2.4h-6.3v-11.1h6.3v2.4H197.2z"/>
		<path id="XMLID_1159_" class="st4" d="M205.3,444.3l-0.8,1.9h-3.1l4.3-11.1h3.2l4.2,11.1H210l-0.7-1.9H205.3z M207.3,438.5
			L207.3,438.5l-1.2,3.5h2.4L207.3,438.5z"/>
		<path id="XMLID_1157_" class="st4" d="M223.4,446.2h-2.9v-8.7h-2.4v-2.4h7.7v2.4h-2.4V446.2z"/>
		<path id="XMLID_1155_" class="st4" d="M229.7,437.5v1.9h3.3v2.4h-3.3v1.9h3.4v2.4h-6.3v-11.1h6.3v2.4H229.7z"/>
		<path id="XMLID_1153_" class="st4" d="M242.9,438.8c-0.6-0.8-1.5-1.2-2.5-1.2c-1.8,0-3,1.4-3,3.1c0,1.8,1.2,3,3,3
			c0.9,0,1.9-0.5,2.5-1.2v3.5c-1,0.3-1.7,0.5-2.6,0.5c-1.5,0-3-0.6-4.2-1.6c-1.2-1.1-1.8-2.6-1.8-4.2c0-1.5,0.6-3,1.6-4.1
			c1.1-1.1,2.7-1.8,4.2-1.8c0.9,0,1.8,0.2,2.6,0.6V438.8z"/>
		<path id="XMLID_1151_" class="st4" d="M244.7,435.1h2.9l5.3,6.8h0v-6.8h2.9v11.1h-2.9l-5.3-6.8h0v6.8h-2.9V435.1z"/>
		<path id="XMLID_1149_" class="st4" d="M260.6,446.2h-2.9v-11.1h2.9V446.2z"/>
		<path id="XMLID_1147_" class="st4" d="M270.4,438.8c-0.6-0.8-1.5-1.2-2.5-1.2c-1.8,0-3,1.4-3,3.1c0,1.8,1.2,3,3,3
			c0.9,0,1.9-0.5,2.5-1.2v3.5c-1,0.3-1.7,0.5-2.6,0.5c-1.5,0-3-0.6-4.2-1.6c-1.2-1.1-1.8-2.6-1.8-4.2c0-1.5,0.6-3,1.6-4.1
			c1.1-1.1,2.7-1.8,4.2-1.8c0.9,0,1.8,0.2,2.6,0.6V438.8z"/>
		<path id="XMLID_1144_" class="st4" d="M275,444.3l-0.8,1.9h-3.1l4.3-11.1h3.2l4.2,11.1h-3.1l-0.7-1.9H275z M277,438.5L277,438.5
			l-1.2,3.5h2.4L277,438.5z"/>
		<path id="XMLID_1142_" class="st4" d="M176.7,452.8h3.5l2.1,3l2.1-3h3.5l-4.1,5.8v5.3h-2.9v-5.3L176.7,452.8z"/>
		<path id="XMLID_1140_" class="st4" d="M196.4,461.4h3.5v2.4h-6.4v-11.1h2.9V461.4z"/>
		<path id="XMLID_1138_" class="st4" d="M203.7,455.2v1.9h3.3v2.4h-3.3v1.9h3.4v2.4h-6.3v-11.1h6.3v2.4H203.7z"/>
		<path id="XMLID_1136_" class="st4" d="M220,457.7c0,1.6-0.1,3-1.1,4.4c-1.1,1.5-2.7,2.2-4.6,2.2c-3.5,0-5.9-2.4-5.9-5.9
			c0-3.6,2.4-6,6-6c2.3,0,4.1,1,5,3.1l-2.7,1.2c-0.4-1.1-1.2-1.8-2.4-1.8c-1.9,0-2.9,1.8-2.9,3.5c0,1.7,1,3.5,2.9,3.5
			c1.3,0,2.2-0.6,2.3-1.9h-2.4v-2.3H220z"/>
		<path id="XMLID_1133_" class="st4" d="M224.2,461.9l-0.8,1.9h-3.1l4.3-11.1h3.2l4.2,11.1h-3.1l-0.7-1.9H224.2z M226.2,456.2
			L226.2,456.2l-1.2,3.5h2.4L226.2,456.2z"/>
		<path id="XMLID_1131_" class="st4" d="M235.8,461.4h3.5v2.4h-6.4v-11.1h2.9V461.4z"/>
		<path id="XMLID_1128_" class="st4" d="M151.4,481.6h-3.6l-2.7-4.3h0v4.3h-2.9v-11.1h4.3c2.2,0,3.9,1,3.9,3.4
			c0,1.5-0.9,2.9-2.4,3.1L151.4,481.6z M145,475.4h0.3c0.9,0,2-0.2,2-1.4c0-1.2-1.1-1.4-2-1.4H145V475.4z"/>
		<path id="XMLID_1125_" class="st4" d="M159.9,478.2h-5.6c0,1.1,0.6,1.7,1.7,1.7c0.6,0,1-0.2,1.3-0.7h2.6c-0.2,0.9-0.7,1.5-1.4,2
			c-0.7,0.4-1.5,0.6-2.4,0.6c-2.5,0-4.4-1.4-4.4-4c0-2.5,1.7-4,4.2-4c2.6,0,4.1,1.6,4.1,4.2V478.2z M157.4,476.7
			c-0.1-0.7-0.8-1.2-1.5-1.2c-0.8,0-1.4,0.4-1.6,1.2H157.4z"/>
		<path id="XMLID_1123_" class="st4" d="M164.8,477.9l1.8-3.9h3l-4,7.6H164l-4-7.6h3L164.8,477.9z"/>
		<path id="XMLID_1120_" class="st4" d="M173.1,471.1c0,0.8-0.7,1.5-1.5,1.5c-0.8,0-1.5-0.7-1.5-1.5c0-0.8,0.7-1.5,1.5-1.5
			C172.5,469.6,173.1,470.3,173.1,471.1z M173,481.6h-2.7V474h2.7V481.6z"/>
		<path id="XMLID_1118_" class="st4" d="M179.7,476c-0.4-0.2-1-0.4-1.4-0.4c-0.3,0-0.8,0.1-0.8,0.5c0,0.5,0.8,0.6,1.2,0.7
			c1.3,0.3,2.2,0.8,2.2,2.2c0,2-1.8,2.8-3.6,2.8c-1.1,0-2.1-0.3-3.1-0.9l1-1.9c0.5,0.4,1.5,0.8,2.1,0.8c0.3,0,0.8-0.2,0.8-0.6
			c0-0.6-0.8-0.6-1.7-0.8c-0.8-0.2-1.7-0.6-1.7-2c0-1.9,1.7-2.7,3.3-2.7c0.9,0,1.7,0.1,2.5,0.5L179.7,476z"/>
		<path id="XMLID_1114_" class="st4" d="M185.2,471.1c0,0.8-0.7,1.5-1.5,1.5c-0.8,0-1.5-0.7-1.5-1.5c0-0.8,0.7-1.5,1.5-1.5
			C184.5,469.6,185.2,470.3,185.2,471.1z M185,481.6h-2.7V474h2.7V481.6z"/>
		<path id="XMLID_1076_" class="st4" d="M195.3,477.8c0,2.6-2.1,4-4.6,4c-2.4,0-4.6-1.4-4.6-4c0-2.6,2.1-4,4.6-4
			C193.2,473.8,195.3,475.2,195.3,477.8z M189,477.8c0,1,0.6,1.7,1.7,1.7c1.1,0,1.7-0.7,1.7-1.7c0-0.9-0.6-1.7-1.7-1.7
			C189.7,476.1,189,476.9,189,477.8z M190.5,472.9l-1.2-0.9l2.1-2.5l1.6,1.2L190.5,472.9z"/>
		<path id="XMLID_1012_" class="st4" d="M199.2,475L199.2,475c0.6-0.9,1.4-1.2,2.4-1.2c2,0,2.8,1.3,2.8,3.1v4.7h-2.7v-3.7
			c0-0.7,0.1-2-1.2-2c-1.1,0-1.4,0.8-1.4,1.8v3.9h-2.7V474h2.7V475z"/>
		<path id="XMLID_1009_" class="st4" d="M213.9,474.9L213.9,474.9c0.5-0.8,1.4-1.1,2.3-1.1c2.3,0,3.8,1.9,3.8,4.1c0,2.2-1.5,4-3.8,4
			c-0.9,0-1.8-0.3-2.3-1v4.5h-2.7V474h2.7V474.9z M213.8,477.8c0,1,0.6,1.7,1.7,1.7c1.1,0,1.7-0.7,1.7-1.7c0-0.9-0.6-1.7-1.7-1.7
			C214.5,476.1,213.8,476.9,213.8,477.8z"/>
		<path id="XMLID_1007_" class="st4" d="M224.1,475.2L224.1,475.2c0.5-0.9,1.4-1.3,2.5-1.3h0.5v2.6c-0.4-0.2-0.7-0.3-1.1-0.3
			c-1.5,0-1.9,1-1.9,2.3v3.1h-2.7V474h2.7V475.2z"/>
		<path id="XMLID_1004_" class="st4" d="M235.8,478.2h-5.6c0,1.1,0.6,1.7,1.7,1.7c0.6,0,1-0.2,1.3-0.7h2.6c-0.2,0.9-0.7,1.5-1.4,2
			c-0.7,0.4-1.5,0.6-2.4,0.6c-2.5,0-4.4-1.4-4.4-4c0-2.5,1.7-4,4.2-4c2.6,0,4.1,1.6,4.1,4.2V478.2z M233.3,476.7
			c-0.1-0.7-0.8-1.2-1.5-1.2c-0.8,0-1.4,0.4-1.6,1.2H233.3z"/>
		<path id="XMLID_1002_" class="st4" d="M240.8,477.9l1.8-3.9h3l-4,7.6h-1.7l-4-7.6h3L240.8,477.9z"/>
		<path id="XMLID_999_" class="st4" d="M249.1,471.1c0,0.8-0.7,1.5-1.5,1.5c-0.8,0-1.5-0.7-1.5-1.5c0-0.8,0.7-1.5,1.5-1.5
			C248.4,469.6,249.1,470.3,249.1,471.1z M248.9,481.6h-2.7V474h2.7V481.6z"/>
		<path id="XMLID_996_" class="st4" d="M259,481.6h-2.7v-0.8h0c-0.5,0.8-1.4,1.1-2.3,1.1c-2.2,0-3.8-1.9-3.8-4c0-2.2,1.5-4,3.8-4
			c0.9,0,1.8,0.3,2.3,1V474h2.7V481.6z M252.9,477.8c0,1,0.6,1.7,1.7,1.7c1.1,0,1.7-0.7,1.7-1.7c0-0.9-0.6-1.7-1.7-1.7
			C253.6,476.1,252.9,476.9,252.9,477.8z"/>
		<path id="XMLID_994_" class="st4" d="M264.1,480.1c0,0.9-0.8,1.7-1.7,1.7c-1,0-1.7-0.8-1.7-1.7c0-1,0.8-1.7,1.7-1.7
			C263.4,478.4,264.1,479.2,264.1,480.1z"/>
	</g>
</g>
<g id="XMLID_22147_">
	<g>
		<path id="XMLID_296_" class="st4" d="M136.1,663l2.7-6.8h3.1l-4.7,11.1h-2.2l-4.7-11.1h3.1L136.1,663z"/>
		<path id="XMLID_294_" class="st4" d="M145.5,658.7v1.9h3.3v2.4h-3.3v1.9h3.4v2.4h-6.3v-11.1h6.3v2.4H145.5z"/>
		<path id="XMLID_292_" class="st4" d="M150.8,656.2h2.9l5.3,6.8h0v-6.8h2.9v11.1H159l-5.3-6.8h0v6.8h-2.9V656.2z"/>
		<path id="XMLID_290_" class="st4" d="M168.2,667.4h-2.9v-8.7h-2.4v-2.4h7.7v2.4h-2.4V667.4z"/>
		<path id="XMLID_287_" class="st4" d="M173.5,665.4l-0.8,1.9h-3.1l4.3-11.1h3.2l4.2,11.1h-3.1l-0.7-1.9H173.5z M175.6,659.7
			L175.6,659.7l-1.2,3.5h2.4L175.6,659.7z"/>
		<path id="XMLID_285_" class="st4" d="M182.2,656.2h2.9l5.3,6.8h0v-6.8h2.9v11.1h-2.9l-5.3-6.8h0v6.8h-2.9V656.2z"/>
		<path id="XMLID_283_" class="st4" d="M198.1,667.4h-2.9v-11.1h2.9V667.4z"/>
		<path id="XMLID_281_" class="st4" d="M202.9,664.9h3.5v2.4H200v-11.1h2.9V664.9z"/>
		<path id="XMLID_279_" class="st4" d="M210.2,664.9h3.5v2.4h-6.4v-11.1h2.9V664.9z"/>
		<path id="XMLID_276_" class="st4" d="M217.4,665.4l-0.8,1.9h-3.1l4.3-11.1h3.2l4.2,11.1h-3.1l-0.7-1.9H217.4z M219.4,659.7
			L219.4,659.7l-1.2,3.5h2.4L219.4,659.7z"/>
		<path id="XMLID_273_" class="st4" d="M240.8,656.2v6.3c0,1.4-0.1,2.8-1.2,3.9c-0.9,0.9-2.4,1.2-3.7,1.2c-1.3,0-2.8-0.3-3.7-1.2
			c-1.1-1.1-1.2-2.5-1.2-3.9v-6.3h2.9v5.9c0,1.4,0.1,3,2,3c1.9,0,2-1.6,2-3v-5.9H240.8z M235.6,655.6l-1.2-0.9l2.1-2.5l1.6,1.2
			L235.6,655.6z"/>
		<path id="XMLID_271_" class="st4" d="M242.6,656.2h2.9l5.3,6.8h0v-6.8h2.9v11.1h-2.9l-5.3-6.8h0v6.8h-2.9V656.2z"/>
		<path id="XMLID_269_" class="st4" d="M258.5,667.4h-2.9v-11.1h2.9V667.4z"/>
		<path id="XMLID_267_" class="st4" d="M268.4,660c-0.6-0.8-1.5-1.2-2.5-1.2c-1.8,0-3,1.4-3,3.1c0,1.8,1.2,3,3,3
			c0.9,0,1.9-0.5,2.5-1.2v3.5c-1,0.3-1.7,0.5-2.6,0.5c-1.5,0-3-0.6-4.2-1.6c-1.2-1.1-1.8-2.6-1.8-4.2c0-1.5,0.6-3,1.6-4.1
			c1.1-1.1,2.7-1.8,4.2-1.8c0.9,0,1.8,0.2,2.6,0.6V660z"/>
		<path id="XMLID_264_" class="st4" d="M273,665.4l-0.8,1.9h-3.1l4.3-11.1h3.2l4.2,11.1h-3.1l-0.7-1.9H273z M275,659.7L275,659.7
			l-1.2,3.5h2.4L275,659.7z"/>
	</g>
</g>
<g id="XMLID_22086_">
	<g>
		<path id="XMLID_607_" class="st4" d="M459.5,33.9l-0.8,1.9h-3.1l4.3-11.1h3.2l4.2,11.1h-3.1l-0.7-1.9H459.5z M461.5,28.1
			L461.5,28.1l-1.2,3.5h2.4L461.5,28.1z"/>
		<path id="XMLID_603_" class="st4" d="M468.2,35.8V24.7h4.1c2,0,3.3,0.8,3.3,2.9c0,1-0.3,1.8-1.2,2.3v0c1.6,0.2,2.3,1.3,2.3,2.8
			c0,2.3-2,3.1-4,3.1H468.2z M471.1,29h0.3c0.8,0,1.6-0.1,1.6-1.1c0-1-0.9-1.1-1.7-1.1h-0.2V29z M471.1,33.6h0.4
			c0.9,0,2.3,0,2.3-1.2c0-1.3-1.4-1.2-2.4-1.2h-0.3V33.6z"/>
		<path id="XMLID_600_" class="st4" d="M489.9,30c0,3.6-2.6,6.1-6.1,6.1s-6.1-2.5-6.1-6.1c0-3.4,2.9-5.7,6.1-5.7
			S489.9,26.7,489.9,30z M480.6,30c0,1.9,1.4,3.3,3.1,3.3c1.7,0,3.1-1.4,3.1-3.3c0-1.5-1.4-2.9-3.1-2.9
			C482,27.1,480.6,28.5,480.6,30z"/>
		<path id="XMLID_598_" class="st4" d="M502.3,29.6c0,1.6-0.1,3-1.1,4.4c-1.1,1.5-2.7,2.2-4.6,2.2c-3.5,0-5.9-2.4-5.9-5.9
			c0-3.6,2.4-6,6-6c2.3,0,4.1,1,5,3.1l-2.7,1.2c-0.4-1.1-1.2-1.8-2.4-1.8c-1.9,0-2.9,1.8-2.9,3.5c0,1.7,1,3.5,2.9,3.5
			c1.3,0,2.2-0.6,2.3-1.9h-2.4v-2.3H502.3z"/>
		<path id="XMLID_595_" class="st4" d="M506.5,33.9l-0.8,1.9h-3.1l4.3-11.1h3.2l4.2,11.1h-3.1l-0.7-1.9H506.5z M508.5,28.1
			L508.5,28.1l-1.2,3.5h2.4L508.5,28.1z"/>
		<path id="XMLID_592_" class="st4" d="M515.2,24.7h4.1c3.1,0,5.6,2.4,5.6,5.6c0,3.1-2.6,5.6-5.6,5.6h-4.1V24.7z M518.1,33.3h0.6
			c1.7,0,3.2-0.9,3.2-3.1c0-2-1.3-3.1-3.2-3.1h-0.7V33.3z"/>
		<path id="XMLID_589_" class="st4" d="M538,30c0,3.6-2.6,6.1-6.1,6.1c-3.6,0-6.1-2.5-6.1-6.1c0-3.4,2.9-5.7,6.1-5.7
			S538,26.7,538,30z M528.7,30c0,1.9,1.4,3.3,3.1,3.3S535,32,535,30c0-1.5-1.4-2.9-3.1-2.9S528.7,28.5,528.7,30z"/>
		<path id="XMLID_587_" class="st4" d="M461.5,42.4v6.3c0,1.4-0.1,2.8-1.2,3.9c-0.9,0.9-2.4,1.2-3.7,1.2c-1.3,0-2.8-0.3-3.7-1.2
			c-1.1-1.1-1.2-2.5-1.2-3.9v-6.3h2.9v5.9c0,1.4,0.1,3,2,3c1.9,0,2-1.6,2-3v-5.9H461.5z"/>
		<path id="XMLID_556_" class="st4" d="M472.5,53.5h-3.6l-2.7-4.3h0v4.3h-2.9V42.4h4.3c2.2,0,3.9,1,3.9,3.4c0,1.5-0.9,2.9-2.4,3.1
			L472.5,53.5z M466.2,47.4h0.3c0.9,0,2-0.2,2-1.4c0-1.2-1.1-1.4-2-1.4h-0.3V47.4z"/>
		<path id="XMLID_552_" class="st4" d="M473.3,53.5V42.4h4.1c2,0,3.3,0.8,3.3,2.9c0,1-0.3,1.8-1.2,2.3v0c1.6,0.2,2.3,1.3,2.3,2.8
			c0,2.3-2,3.1-4,3.1H473.3z M476.2,46.7h0.3c0.8,0,1.6-0.1,1.6-1.1c0-1-0.9-1.1-1.7-1.1h-0.2V46.7z M476.2,51.3h0.4
			c0.9,0,2.3,0,2.3-1.2c0-1.3-1.4-1.2-2.4-1.2h-0.3V51.3z"/>
		<path id="XMLID_549_" class="st4" d="M486.1,51.6l-0.8,1.9h-3.1l4.3-11.1h3.2l4.2,11.1h-3.1l-0.7-1.9H486.1z M488.1,45.8
			L488.1,45.8l-1.2,3.5h2.4L488.1,45.8z"/>
		<path id="XMLID_547_" class="st4" d="M494.8,42.4h2.9l5.3,6.8h0v-6.8h2.9v11.1H503l-5.3-6.8h0v6.8h-2.9V42.4z"/>
		<path id="XMLID_545_" class="st4" d="M510.7,53.5h-2.9V42.4h2.9V53.5z"/>
		<path id="XMLID_543_" class="st4" d="M518.7,45.2c-0.5-0.4-1.2-0.7-1.9-0.7c-0.5,0-1.2,0.3-1.2,0.9c0,0.6,0.8,0.9,1.3,1.1l0.7,0.2
			c1.5,0.5,2.7,1.2,2.7,3c0,1.1-0.3,2.2-1.2,3c-0.9,0.7-2,1-3.2,1c-1.4,0-2.8-0.5-3.9-1.3l1.2-2.3c0.7,0.6,1.6,1.2,2.6,1.2
			c0.7,0,1.4-0.3,1.4-1.1c0-0.8-1.1-1.1-1.8-1.3c-1.8-0.5-3-1-3-3.1c0-2.3,1.6-3.7,3.8-3.7c1.1,0,2.5,0.4,3.5,0.9L518.7,45.2z"/>
		<path id="XMLID_541_" class="st4" d="M522.9,42.4h2.8l2.3,5.9l2.4-5.9h2.9l1.7,11.1H532l-0.8-6.4h0l-2.7,6.4h-1.2l-2.6-6.4h0
			l-0.9,6.4H521L522.9,42.4z"/>
		<path id="XMLID_538_" class="st4" d="M547.9,47.7c0,3.6-2.6,6.1-6.1,6.1c-3.6,0-6.1-2.5-6.1-6.1c0-3.4,2.9-5.7,6.1-5.7
			C544.9,42,547.9,44.4,547.9,47.7z M538.6,47.7c0,1.9,1.4,3.3,3.1,3.3c1.7,0,3.1-1.4,3.1-3.3c0-1.5-1.4-2.9-3.1-2.9
			C540,44.8,538.6,46.2,538.6,47.7z"/>
		<path id="XMLID_536_" class="st4" d="M473.3,71.2h-2.9V60.1h2.9V71.2z"/>
		<path id="XMLID_534_" class="st4" d="M477.8,64.6L477.8,64.6c0.6-0.9,1.4-1.2,2.4-1.2c2,0,2.8,1.3,2.8,3.1v4.7h-2.7v-3.7
			c0-0.7,0.1-2-1.2-2c-1.1,0-1.4,0.8-1.4,1.8v3.9h-2.7v-7.6h2.7V64.6z"/>
		<path id="XMLID_532_" class="st4" d="M487.8,71.2h-2.7v-5.4h-0.9v-2.2h0.9v-1c0-1,0-1.8,0.8-2.7c0.7-0.8,1.6-1.2,2.6-1.2
			c0.4,0,0.8,0.1,1.2,0.3v2.3c-0.3-0.1-0.6-0.3-0.9-0.3c-0.7,0-0.9,0.4-0.9,1.3v1.2h1.9v2.2h-1.9V71.2z"/>
		<path id="XMLID_529_" class="st4" d="M499.1,67.4c0,2.6-2.1,4-4.6,4c-2.4,0-4.6-1.4-4.6-4c0-2.6,2.1-4,4.6-4
			C497,63.4,499.1,64.8,499.1,67.4z M492.9,67.4c0,1,0.6,1.7,1.7,1.7c1.1,0,1.7-0.7,1.7-1.7c0-0.9-0.6-1.7-1.7-1.7
			C493.5,65.7,492.9,66.5,492.9,67.4z"/>
		<path id="XMLID_527_" class="st4" d="M503,64.9L503,64.9c0.5-0.9,1.4-1.3,2.5-1.3h0.5v2.6c-0.4-0.2-0.7-0.3-1.1-0.3
			c-1.5,0-1.9,1-1.9,2.3v3.1h-2.7v-7.6h2.7V64.9z"/>
		<path id="XMLID_525_" class="st4" d="M509.7,64.6L509.7,64.6c0.7-0.8,1.4-1.2,2.4-1.2c1.1,0,2,0.4,2.6,1.4
			c0.5-0.9,1.5-1.4,2.6-1.4c1.9,0,2.6,1.3,2.6,3v4.8h-2.7v-3.6c0-0.8,0-2.1-1.1-2.1c-1.2,0-1.3,1.2-1.3,2.1v3.6h-2.7v-3.6
			c0-0.8,0-2.1-1.2-2.1c-1.2,0-1.2,1.3-1.2,2.1v3.6H507v-7.6h2.7V64.6z"/>
		<path id="XMLID_522_" class="st4" d="M529.4,67.8h-5.6c0,1.1,0.6,1.7,1.7,1.7c0.6,0,1-0.2,1.3-0.7h2.6c-0.2,0.9-0.7,1.5-1.4,2
			c-0.7,0.4-1.5,0.6-2.4,0.6c-2.5,0-4.4-1.4-4.4-4c0-2.5,1.7-4,4.2-4c2.6,0,4.1,1.6,4.1,4.2V67.8z M526.9,66.3
			c-0.1-0.7-0.8-1.2-1.5-1.2c-0.8,0-1.4,0.4-1.6,1.2H526.9z"/>
	</g>
</g>
<g id="XMLID_22026_">
	<g>
		<path id="XMLID_584_" class="st4" d="M720.3,169.2c-0.6-0.8-1.5-1.2-2.5-1.2c-1.8,0-3,1.4-3,3.1c0,1.8,1.2,3,3,3
			c0.9,0,1.9-0.5,2.5-1.2v3.5c-1,0.3-1.7,0.5-2.6,0.5c-1.5,0-3-0.6-4.2-1.6c-1.2-1.1-1.8-2.6-1.8-4.2c0-1.5,0.6-3,1.6-4.1
			c1.1-1.1,2.7-1.8,4.2-1.8c0.9,0,1.8,0.2,2.6,0.6V169.2z"/>
		<path id="XMLID_581_" class="st4" d="M733.8,170.8c0,3.6-2.6,6.1-6.1,6.1s-6.1-2.5-6.1-6.1c0-3.4,2.9-5.7,6.1-5.7
			C730.8,165.1,733.8,167.4,733.8,170.8z M724.5,170.8c0,1.9,1.4,3.3,3.1,3.3c1.7,0,3.1-1.4,3.1-3.3c0-1.5-1.4-2.9-3.1-2.9
			C725.9,167.9,724.5,169.3,724.5,170.8z"/>
		<path id="XMLID_579_" class="st4" d="M735.1,165.4h2.9l5.3,6.8h0v-6.8h2.9v11.1h-2.9l-5.3-6.8h0v6.8h-2.9V165.4z"/>
		<path id="XMLID_577_" class="st4" d="M752.6,176.5h-2.9v-8.7h-2.4v-2.4h7.7v2.4h-2.4V176.5z"/>
		<path id="XMLID_574_" class="st4" d="M765.2,176.5h-3.6l-2.7-4.3h0v4.3H756v-11.1h4.3c2.2,0,3.9,1,3.9,3.4c0,1.5-0.9,2.9-2.4,3.1
			L765.2,176.5z M758.9,170.4h0.3c0.9,0,2-0.2,2-1.4c0-1.2-1.1-1.4-2-1.4h-0.3V170.4z"/>
		<path id="XMLID_572_" class="st4" d="M768.9,176.5H766v-11.1h2.9V176.5z"/>
		<path id="XMLID_568_" class="st4" d="M770.8,176.5v-11.1h4.1c2,0,3.3,0.8,3.3,2.9c0,1-0.3,1.8-1.2,2.3v0c1.6,0.2,2.3,1.3,2.3,2.8
			c0,2.3-2,3.1-4,3.1H770.8z M773.7,169.8h0.3c0.8,0,1.6-0.1,1.6-1.1c0-1-0.9-1.1-1.7-1.1h-0.2V169.8z M773.7,174.3h0.4
			c0.9,0,2.3,0,2.3-1.2c0-1.3-1.4-1.2-2.4-1.2h-0.3V174.3z"/>
		<path id="XMLID_566_" class="st4" d="M790.4,165.4v6.3c0,1.4-0.1,2.8-1.2,3.9c-0.9,0.9-2.4,1.2-3.7,1.2c-1.3,0-2.8-0.3-3.7-1.2
			c-1.1-1.1-1.2-2.5-1.2-3.9v-6.3h2.9v5.9c0,1.4,0.1,3,2,3c1.9,0,2-1.6,2-3v-5.9H790.4z"/>
		<path id="XMLID_564_" class="st4" d="M791,165.4h3.5l2.1,3l2.1-3h3.5l-4.1,5.8v5.3h-2.9v-5.3L791,165.4z"/>
		<path id="XMLID_562_" class="st4" d="M805.7,167.9v1.9h3.3v2.4h-3.3v1.9h3.4v2.4h-6.3v-11.1h6.3v2.4H805.7z"/>
		<path id="XMLID_560_" class="st4" d="M810.9,165.4h2.9l5.3,6.8h0v-6.8h2.9v11.1h-2.9l-5.3-6.8h0v6.8h-2.9V165.4z"/>
		<path id="XMLID_558_" class="st4" d="M828.3,176.5h-2.9v-8.7H823v-2.4h7.7v2.4h-2.4V176.5z"/>
		<path id="XMLID_513_" class="st4" d="M834.6,167.9v1.9h3.3v2.4h-3.3v1.9h3.4v2.4h-6.3v-11.1h6.3v2.4H834.6z"/>
		<path id="XMLID_511_" class="st4" d="M735.7,186.9c-0.6-0.8-1.5-1.2-2.5-1.2c-1.8,0-3,1.4-3,3.1c0,1.8,1.2,3,3,3
			c0.9,0,1.9-0.5,2.5-1.2v3.5c-1,0.3-1.7,0.5-2.6,0.5c-1.5,0-3-0.6-4.2-1.6c-1.2-1.1-1.8-2.6-1.8-4.2c0-1.5,0.6-3,1.6-4.1
			c1.1-1.1,2.7-1.8,4.2-1.8c0.9,0,1.8,0.2,2.6,0.6V186.9z"/>
		<path id="XMLID_508_" class="st4" d="M746,190.5c0,2.6-2.1,4-4.6,4c-2.4,0-4.6-1.4-4.6-4c0-2.6,2.1-4,4.6-4
			C743.9,186.4,746,187.9,746,190.5z M739.7,190.5c0,1,0.6,1.7,1.7,1.7s1.7-0.7,1.7-1.7c0-0.9-0.6-1.7-1.7-1.7
			S739.7,189.5,739.7,190.5z"/>
		<path id="XMLID_506_" class="st4" d="M749.9,187.9L749.9,187.9c0.5-0.9,1.4-1.3,2.5-1.3h0.5v2.6c-0.4-0.2-0.7-0.3-1.1-0.3
			c-1.5,0-1.9,1-1.9,2.3v3.1h-2.7v-7.6h2.7V187.9z"/>
		<path id="XMLID_499_" class="st4" d="M756.6,187.9L756.6,187.9c0.5-0.9,1.4-1.3,2.5-1.3h0.5v2.6c-0.4-0.2-0.7-0.3-1.1-0.3
			c-1.5,0-1.9,1-1.9,2.3v3.1h-2.7v-7.6h2.7V187.9z"/>
		<path id="XMLID_491_" class="st4" d="M768.3,190.9h-5.6c0,1.1,0.6,1.7,1.7,1.7c0.6,0,1-0.2,1.3-0.7h2.6c-0.2,0.9-0.7,1.5-1.4,2
			c-0.7,0.4-1.5,0.6-2.4,0.6c-2.5,0-4.4-1.4-4.4-4c0-2.5,1.7-4,4.2-4c2.6,0,4.1,1.6,4.1,4.2V190.9z M765.8,189.4
			c-0.1-0.7-0.8-1.2-1.5-1.2c-0.8,0-1.4,0.4-1.6,1.2H765.8z"/>
		<path id="XMLID_489_" class="st4" d="M775,189.1c-0.4-0.3-0.9-0.5-1.4-0.5c-1,0-1.8,0.8-1.8,1.8c0,1.1,0.8,1.9,1.9,1.9
			c0.5,0,1-0.2,1.3-0.5v2.3c-0.6,0.3-1.2,0.4-1.9,0.4c-2.2,0-4.1-1.7-4.1-4c0-2.4,1.9-4.1,4.2-4.1c0.6,0,1.2,0.1,1.8,0.4V189.1z"/>
		<path id="XMLID_487_" class="st4" d="M782.1,189.1c-0.4-0.3-0.9-0.5-1.4-0.5c-1,0-1.8,0.8-1.8,1.8c0,1.1,0.8,1.9,1.9,1.9
			c0.5,0,1-0.2,1.3-0.5v2.3c-0.6,0.3-1.2,0.4-1.9,0.4c-2.2,0-4.1-1.7-4.1-4c0-2.4,1.9-4.1,4.2-4.1c0.6,0,1.2,0.1,1.8,0.4V189.1z"/>
		<path id="XMLID_484_" class="st4" d="M786.7,183.8c0,0.8-0.7,1.5-1.5,1.5c-0.8,0-1.5-0.7-1.5-1.5c0-0.8,0.7-1.5,1.5-1.5
			C786,182.3,786.7,182.9,786.7,183.8z M786.5,194.2h-2.7v-7.6h2.7V194.2z"/>
		<path id="XMLID_481_" class="st4" d="M796.8,190.5c0,2.6-2.1,4-4.6,4c-2.4,0-4.6-1.4-4.6-4c0-2.6,2.1-4,4.6-4
			C794.7,186.4,796.8,187.9,796.8,190.5z M790.5,190.5c0,1,0.6,1.7,1.7,1.7c1.1,0,1.7-0.7,1.7-1.7c0-0.9-0.6-1.7-1.7-1.7
			C791.2,188.8,790.5,189.5,790.5,190.5z"/>
		<path id="XMLID_479_" class="st4" d="M800.7,187.7L800.7,187.7c0.6-0.9,1.4-1.2,2.4-1.2c2,0,2.8,1.3,2.8,3.1v4.7h-2.7v-3.7
			c0-0.7,0.1-2-1.2-2c-1.1,0-1.4,0.8-1.4,1.8v3.9H798v-7.6h2.7V187.7z"/>
		<path id="XMLID_476_" class="st4" d="M815.5,190.9h-5.6c0,1.1,0.6,1.7,1.7,1.7c0.6,0,1-0.2,1.3-0.7h2.6c-0.2,0.9-0.7,1.5-1.4,2
			s-1.5,0.6-2.4,0.6c-2.5,0-4.4-1.4-4.4-4c0-2.5,1.7-4,4.2-4c2.6,0,4.1,1.6,4.1,4.2V190.9z M813,189.4c-0.1-0.7-0.8-1.2-1.5-1.2
			c-0.8,0-1.4,0.4-1.6,1.2H813z"/>
		<path id="XMLID_474_" class="st4" d="M821.8,188.6c-0.4-0.2-1-0.4-1.4-0.4c-0.3,0-0.8,0.1-0.8,0.5c0,0.5,0.8,0.6,1.2,0.7
			c1.3,0.3,2.2,0.8,2.2,2.2c0,2-1.8,2.8-3.6,2.8c-1.1,0-2.1-0.3-3.1-0.9l1-1.9c0.5,0.4,1.5,0.8,2.1,0.8c0.3,0,0.8-0.2,0.8-0.6
			c0-0.6-0.8-0.6-1.7-0.8c-0.8-0.2-1.7-0.6-1.7-2c0-1.9,1.7-2.7,3.3-2.7c0.9,0,1.7,0.1,2.5,0.5L821.8,188.6z"/>
	</g>
</g>
<rect id="XMLID_1490_" x="387.7" y="131.1" class="st3" width="223" height="101"/>
<g id="XMLID_21950_">
	<g>
		<path id="XMLID_774_" class="st4" d="M453.9,178.3h-2.9v-8.7h-2.4v-2.4h7.7v2.4h-2.4V178.3z"/>
		<path id="XMLID_771_" class="st4" d="M469.1,172.6c0,3.6-2.6,6.1-6.1,6.1s-6.1-2.5-6.1-6.1c0-3.4,2.9-5.7,6.1-5.7
			C466.2,166.8,469.1,169.2,469.1,172.6z M459.8,172.6c0,1.9,1.4,3.3,3.1,3.3c1.7,0,3.1-1.4,3.1-3.3c0-1.5-1.4-2.9-3.1-2.9
			C461.2,169.6,459.8,171,459.8,172.6z"/>
		<path id="XMLID_768_" class="st4" d="M470.5,167.2h4.4c2.4,0,4,1.1,4,3.7c0,2.6-1.4,3.8-3.9,3.8h-1.6v3.7h-2.9V167.2z
			 M473.4,172.3h0.5c1,0,2.1,0,2.1-1.4c0-1.4-1-1.4-2.1-1.4h-0.5V172.3z"/>
		<path id="XMLID_765_" class="st4" d="M491.9,172.6c0,3.6-2.6,6.1-6.1,6.1s-6.1-2.5-6.1-6.1c0-3.4,2.9-5.7,6.1-5.7
			S491.9,169.2,491.9,172.6z M482.7,172.6c0,1.9,1.4,3.3,3.1,3.3s3.1-1.4,3.1-3.3c0-1.5-1.4-2.9-3.1-2.9S482.7,171,482.7,172.6z"/>
		<path id="XMLID_763_" class="st4" d="M504.4,172.1c0,1.6-0.1,3-1.1,4.4c-1.1,1.5-2.7,2.2-4.6,2.2c-3.5,0-5.9-2.4-5.9-5.9
			c0-3.6,2.4-6,6-6c2.3,0,4.1,1,5,3.1l-2.7,1.2c-0.4-1.1-1.2-1.8-2.4-1.8c-1.9,0-2.9,1.8-2.9,3.5c0,1.7,1,3.5,2.9,3.5
			c1.3,0,2.2-0.6,2.3-1.9h-2.4v-2.3H504.4z"/>
		<path id="XMLID_760_" class="st4" d="M514.9,178.3h-3.6l-2.7-4.3h0v4.3h-2.9v-11.1h4.3c2.2,0,3.9,1,3.9,3.4c0,1.5-0.9,2.9-2.4,3.1
			L514.9,178.3z M508.6,172.2h0.3c0.9,0,2-0.2,2-1.4c0-1.2-1.1-1.4-2-1.4h-0.3V172.2z"/>
		<path id="XMLID_757_" class="st4" d="M518.6,176.4l-0.8,1.9h-3.1l4.3-11.1h3.2l4.2,11.1h-3.1l-0.7-1.9H518.6z M520.6,170.6
			L520.6,170.6l-1.2,3.5h2.4L520.6,170.6z"/>
		<path id="XMLID_755_" class="st4" d="M530.1,169.7v1.9h3.2v2.4h-3.2v4.4h-2.9v-11.1h6.4v2.4H530.1z"/>
		<path id="XMLID_753_" class="st4" d="M538.1,178.3h-2.9v-11.1h2.9V178.3z"/>
		<path id="XMLID_750_" class="st4" d="M542.8,176.4l-0.8,1.9H539l4.3-11.1h3.2l4.2,11.1h-3.1l-0.7-1.9H542.8z M544.9,170.6
			L544.9,170.6l-1.2,3.5h2.4L544.9,170.6z"/>
		<path id="XMLID_748_" class="st4" d="M426.3,196h-2.9v-11.1h2.9V196z"/>
		<path id="XMLID_746_" class="st4" d="M430.8,189.4L430.8,189.4c0.6-0.9,1.4-1.2,2.4-1.2c2,0,2.8,1.3,2.8,3.1v4.7h-2.7v-3.7
			c0-0.7,0.1-2-1.2-2c-1.1,0-1.4,0.8-1.4,1.8v3.9h-2.7v-7.6h2.7V189.4z"/>
		<path id="XMLID_744_" class="st4" d="M442.8,190.4c-0.4-0.2-1-0.4-1.4-0.4c-0.3,0-0.8,0.1-0.8,0.5c0,0.5,0.8,0.6,1.2,0.7
			c1.3,0.3,2.2,0.8,2.2,2.2c0,2-1.8,2.8-3.6,2.8c-1.1,0-2.1-0.3-3.1-0.9l1-1.9c0.5,0.4,1.5,0.8,2.1,0.8c0.3,0,0.8-0.2,0.8-0.6
			c0-0.6-0.8-0.6-1.7-0.8c-0.8-0.2-1.7-0.6-1.7-2c0-1.9,1.7-2.7,3.3-2.7c0.9,0,1.7,0.1,2.5,0.5L442.8,190.4z"/>
		<path id="XMLID_741_" class="st4" d="M448,189.3L448,189.3c0.5-0.8,1.4-1.1,2.3-1.1c2.3,0,3.8,1.9,3.8,4.1c0,2.2-1.5,4-3.8,4
			c-0.9,0-1.8-0.3-2.3-1v4.5h-2.7v-11.3h2.7V189.3z M447.9,192.2c0,1,0.6,1.7,1.7,1.7c1.1,0,1.7-0.7,1.7-1.7c0-0.9-0.6-1.7-1.7-1.7
			C448.6,190.5,447.9,191.3,447.9,192.2z"/>
		<path id="XMLID_738_" class="st4" d="M463.2,192.7h-5.6c0,1.1,0.6,1.7,1.7,1.7c0.6,0,1-0.2,1.3-0.7h2.6c-0.2,0.9-0.7,1.5-1.4,2
			c-0.7,0.4-1.5,0.6-2.4,0.6c-2.5,0-4.4-1.4-4.4-4c0-2.5,1.7-4,4.2-4c2.6,0,4.1,1.6,4.1,4.2V192.7z M460.7,191.1
			c-0.1-0.7-0.8-1.2-1.5-1.2c-0.8,0-1.4,0.4-1.6,1.2H460.7z"/>
		<path id="XMLID_736_" class="st4" d="M469.9,190.9c-0.4-0.3-0.9-0.5-1.4-0.5c-1,0-1.8,0.8-1.8,1.8c0,1.1,0.8,1.9,1.9,1.9
			c0.5,0,1-0.2,1.3-0.5v2.3c-0.6,0.3-1.2,0.4-1.9,0.4c-2.2,0-4.1-1.7-4.1-4c0-2.4,1.9-4.1,4.2-4.1c0.6,0,1.2,0.1,1.8,0.4V190.9z"/>
		<path id="XMLID_734_" class="st4" d="M477,190.9c-0.4-0.3-0.9-0.5-1.4-0.5c-1,0-1.8,0.8-1.8,1.8c0,1.1,0.8,1.9,1.9,1.9
			c0.5,0,1-0.2,1.3-0.5v2.3c-0.6,0.3-1.2,0.4-1.9,0.4c-2.2,0-4.1-1.7-4.1-4c0-2.4,1.9-4.1,4.2-4.1c0.6,0,1.2,0.1,1.8,0.4V190.9z"/>
		<path id="XMLID_731_" class="st4" d="M481.6,185.6c0,0.8-0.7,1.5-1.5,1.5c-0.8,0-1.5-0.7-1.5-1.5c0-0.8,0.7-1.5,1.5-1.5
			C480.9,184,481.6,184.7,481.6,185.6z M481.4,196h-2.7v-7.6h2.7V196z"/>
		<path id="XMLID_727_" class="st4" d="M491.7,192.2c0,2.6-2.1,4-4.6,4c-2.4,0-4.6-1.4-4.6-4c0-2.6,2.1-4,4.6-4
			C489.6,188.2,491.7,189.7,491.7,192.2z M485.4,192.2c0,1,0.6,1.7,1.7,1.7c1.1,0,1.7-0.7,1.7-1.7c0-0.9-0.6-1.7-1.7-1.7
			C486.1,190.5,485.4,191.3,485.4,192.2z M486.9,187.3l-1.2-0.9l2.1-2.5l1.6,1.2L486.9,187.3z"/>
		<path id="XMLID_725_" class="st4" d="M495.6,189.4L495.6,189.4c0.6-0.9,1.4-1.2,2.4-1.2c2,0,2.8,1.3,2.8,3.1v4.7h-2.7v-3.7
			c0-0.7,0.1-2-1.2-2c-1.1,0-1.4,0.8-1.4,1.8v3.9h-2.7v-7.6h2.7V189.4z"/>
		<path id="XMLID_723_" class="st4" d="M506.8,190.2v2.2h-4.2v-2.2H506.8z"/>
		<path id="XMLID_721_" class="st4" d="M511.1,189.4L511.1,189.4c0.7-0.8,1.4-1.2,2.4-1.2c1.1,0,2,0.4,2.6,1.4
			c0.5-0.9,1.5-1.4,2.6-1.4c1.9,0,2.6,1.3,2.6,3v4.8h-2.7v-3.6c0-0.8,0-2.1-1.1-2.1c-1.2,0-1.3,1.2-1.3,2.1v3.6h-2.7v-3.6
			c0-0.8,0-2.1-1.2-2.1c-1.2,0-1.2,1.3-1.2,2.1v3.6h-2.7v-7.6h2.7V189.4z"/>
		<path id="XMLID_718_" class="st4" d="M530.8,192.7h-5.6c0,1.1,0.6,1.7,1.7,1.7c0.6,0,1-0.2,1.3-0.7h2.6c-0.2,0.9-0.7,1.5-1.4,2
			c-0.7,0.4-1.5,0.6-2.4,0.6c-2.5,0-4.4-1.4-4.4-4c0-2.5,1.7-4,4.2-4c2.6,0,4.1,1.6,4.1,4.2V192.7z M528.3,191.1
			c-0.1-0.7-0.8-1.2-1.5-1.2c-0.8,0-1.4,0.4-1.6,1.2H528.3z"/>
		<path id="XMLID_715_" class="st4" d="M537.7,195.2L537.7,195.2c-0.5,0.8-1.4,1.1-2.3,1.1c-2.2,0-3.8-1.9-3.8-4s1.5-4,3.8-4
			c0.9,0,1.8,0.3,2.3,1v-5.4h2.7V196h-2.7V195.2z M534.3,192.2c0,1,0.6,1.7,1.7,1.7c1.1,0,1.7-0.7,1.7-1.7c0-0.9-0.6-1.7-1.7-1.7
			C535,190.5,534.3,191.3,534.3,192.2z"/>
		<path id="XMLID_712_" class="st4" d="M544.9,185.6c0,0.8-0.7,1.5-1.5,1.5c-0.8,0-1.5-0.7-1.5-1.5c0-0.8,0.7-1.5,1.5-1.5
			C544.2,184,544.9,184.7,544.9,185.6z M544.8,196h-2.7v-7.6h2.7V196z"/>
		<path id="XMLID_710_" class="st4" d="M552,190.9c-0.4-0.3-0.9-0.5-1.4-0.5c-1,0-1.8,0.8-1.8,1.8c0,1.1,0.8,1.9,1.9,1.9
			c0.5,0,1-0.2,1.3-0.5v2.3c-0.6,0.3-1.2,0.4-1.9,0.4c-2.2,0-4.1-1.7-4.1-4c0-2.4,1.9-4.1,4.2-4.1c0.6,0,1.2,0.1,1.8,0.4V190.9z"/>
		<path id="XMLID_707_" class="st4" d="M556.5,185.6c0,0.8-0.7,1.5-1.5,1.5c-0.8,0-1.5-0.7-1.5-1.5c0-0.8,0.7-1.5,1.5-1.5
			C555.8,184,556.5,184.7,556.5,185.6z M556.3,196h-2.7v-7.6h2.7V196z"/>
		<path id="XMLID_703_" class="st4" d="M566.7,192.2c0,2.6-2.1,4-4.6,4c-2.4,0-4.6-1.4-4.6-4c0-2.6,2.1-4,4.6-4
			C564.5,188.2,566.7,189.7,566.7,192.2z M560.4,192.2c0,1,0.6,1.7,1.7,1.7c1.1,0,1.7-0.7,1.7-1.7c0-0.9-0.6-1.7-1.7-1.7
			C561,190.5,560.4,191.3,560.4,192.2z M561.8,187.3l-1.2-0.9l2.1-2.5l1.6,1.2L561.8,187.3z"/>
		<path id="XMLID_701_" class="st4" d="M570.5,189.4L570.5,189.4c0.6-0.9,1.4-1.2,2.4-1.2c2,0,2.8,1.3,2.8,3.1v4.7h-2.7v-3.7
			c0-0.7,0.1-2-1.2-2c-1.1,0-1.4,0.8-1.4,1.8v3.9h-2.7v-7.6h2.7V189.4z"/>
	</g>
</g>
<rect id="XMLID_1488_" x="387.7" y="262.1" class="st3" width="223" height="101"/>
<g id="XMLID_21866_">
	<g>
		<path id="XMLID_893_" class="st4" d="M421.4,310.6l-0.8,1.9h-3.1l4.3-11.1h3.2l4.2,11.1h-3.1l-0.7-1.9H421.4z M423.4,304.9
			L423.4,304.9l-1.2,3.5h2.4L423.4,304.9z"/>
		<path id="XMLID_890_" class="st4" d="M439.3,312.5h-3.6l-2.7-4.3h0v4.3h-2.9v-11.1h4.3c2.2,0,3.9,1,3.9,3.4c0,1.5-0.9,2.9-2.4,3.1
			L439.3,312.5z M432.9,306.4h0.3c0.9,0,2-0.2,2-1.4c0-1.2-1.1-1.4-2-1.4h-0.3V306.4z"/>
		<path id="XMLID_888_" class="st4" d="M443,303.9v1.9h3.3v2.4H443v1.9h3.4v2.4h-6.3v-11.1h6.3v2.4H443z"/>
		<path id="XMLID_885_" class="st4" d="M451,310.6l-0.8,1.9h-3.1l4.3-11.1h3.2l4.2,11.1h-3.1l-0.7-1.9H451z M453,304.9L453,304.9
			l-1.2,3.5h2.4L453,304.9z"/>
		<path id="XMLID_883_" class="st4" d="M469.2,312.5h-2.9v-8.7h-2.4v-2.4h7.7v2.4h-2.4V312.5z"/>
		<path id="XMLID_881_" class="st4" d="M475.5,303.9v1.9h3.3v2.4h-3.3v1.9h3.4v2.4h-6.3v-11.1h6.3v2.4H475.5z"/>
		<path id="XMLID_879_" class="st4" d="M488.7,305.1c-0.6-0.8-1.5-1.2-2.5-1.2c-1.8,0-3,1.4-3,3.1c0,1.8,1.2,3,3,3
			c0.9,0,1.9-0.5,2.5-1.2v3.5c-1,0.3-1.7,0.5-2.6,0.5c-1.5,0-3-0.6-4.2-1.6c-1.2-1.1-1.8-2.6-1.8-4.2c0-1.5,0.6-3,1.6-4.1
			c1.1-1.1,2.7-1.8,4.2-1.8c0.9,0,1.8,0.2,2.6,0.6V305.1z"/>
		<path id="XMLID_877_" class="st4" d="M490.5,301.4h2.9l5.3,6.8h0v-6.8h2.9v11.1h-2.9l-5.3-6.8h0v6.8h-2.9V301.4z"/>
		<path id="XMLID_875_" class="st4" d="M506.3,312.5h-2.9v-11.1h2.9V312.5z"/>
		<path id="XMLID_873_" class="st4" d="M516.2,305.1c-0.6-0.8-1.5-1.2-2.5-1.2c-1.8,0-3,1.4-3,3.1c0,1.8,1.2,3,3,3
			c0.9,0,1.9-0.5,2.5-1.2v3.5c-1,0.3-1.7,0.5-2.6,0.5c-1.5,0-3-0.6-4.2-1.6c-1.2-1.1-1.8-2.6-1.8-4.2c0-1.5,0.6-3,1.6-4.1
			c1.1-1.1,2.7-1.8,4.2-1.8c0.9,0,1.8,0.2,2.6,0.6V305.1z"/>
		<path id="XMLID_870_" class="st4" d="M529.7,306.8c0,3.6-2.6,6.1-6.1,6.1c-3.6,0-6.1-2.5-6.1-6.1c0-3.4,2.9-5.7,6.1-5.7
			S529.7,303.4,529.7,306.8z M520.4,306.8c0,1.9,1.4,3.3,3.1,3.3c1.7,0,3.1-1.4,3.1-3.3c0-1.5-1.4-2.9-3.1-2.9
			C521.8,303.8,520.4,305.2,520.4,306.8z"/>
		<path id="XMLID_868_" class="st4" d="M537.1,304.3c-0.5-0.4-1.2-0.7-1.9-0.7c-0.5,0-1.2,0.3-1.2,0.9c0,0.6,0.8,0.9,1.3,1.1
			l0.7,0.2c1.5,0.5,2.7,1.2,2.7,3c0,1.1-0.3,2.2-1.2,3c-0.9,0.7-2,1-3.2,1c-1.4,0-2.8-0.5-3.9-1.3l1.2-2.3c0.7,0.6,1.6,1.2,2.6,1.2
			c0.7,0,1.4-0.3,1.4-1.1c0-0.8-1.1-1.1-1.8-1.3c-1.8-0.5-3-1-3-3.1c0-2.3,1.6-3.7,3.8-3.7c1.1,0,2.5,0.4,3.5,0.9L537.1,304.3z"/>
		<path id="XMLID_866_" class="st4" d="M547.3,300.3l-5.6,13.6h-2.1l5.6-13.6H547.3z"/>
		<path id="XMLID_863_" class="st4" d="M551.5,310.6l-0.8,1.9h-3.1l4.3-11.1h3.2l4.2,11.1h-3.1l-0.7-1.9H551.5z M553.5,304.9
			L553.5,304.9l-1.2,3.5h2.4L553.5,304.9z"/>
		<path id="XMLID_860_" class="st4" d="M569.4,312.5h-3.6l-2.7-4.3h0v4.3h-2.9v-11.1h4.3c2.2,0,3.9,1,3.9,3.4c0,1.5-0.9,2.9-2.4,3.1
			L569.4,312.5z M563.1,306.4h0.3c0.9,0,2-0.2,2-1.4c0-1.2-1.1-1.4-2-1.4h-0.3V306.4z"/>
		<path id="XMLID_857_" class="st4" d="M579.7,313.2l-0.9-1c-0.9,0.5-1.9,0.7-3.1,0.7c-3.6,0-6.1-2.5-6.1-6.1c0-3.4,2.9-5.7,6.1-5.7
			c3.5,0,6.1,2.3,6.1,6c0,1.5-0.5,2.8-1.4,3.9l1.9,1.9L579.7,313.2z M578.4,308.7c0.3-0.5,0.5-1.1,0.5-1.6c0-1.7-1.4-3.2-3.1-3.2
			c-1.7,0-3.2,1.4-3.2,2.9c0,1.9,1.4,3.3,3.2,3.3c0.3,0,0.6,0,0.9-0.1l-1.8-1.8l2.7-0.3L578.4,308.7z"/>
		<path id="XMLID_855_" class="st4" d="M431.4,325.9l2.7-6.8h3.1l-4.7,11.1h-2.2l-4.7-11.1h3.1L431.4,325.9z"/>
		<path id="XMLID_852_" class="st4" d="M445.1,330.2h-2.7v-0.8h0c-0.5,0.8-1.4,1.1-2.3,1.1c-2.2,0-3.8-1.9-3.8-4c0-2.2,1.5-4,3.8-4
			c0.9,0,1.8,0.3,2.3,1v-0.7h2.7V330.2z M439.1,326.5c0,1,0.6,1.7,1.7,1.7c1.1,0,1.7-0.7,1.7-1.7c0-0.9-0.6-1.7-1.7-1.7
			C439.7,324.7,439.1,325.5,439.1,326.5z"/>
		<path id="XMLID_850_" class="st4" d="M449.6,330.2h-2.7V318h2.7V330.2z"/>
		<path id="XMLID_847_" class="st4" d="M459.9,326.5c0,2.6-2.1,4-4.6,4c-2.4,0-4.6-1.4-4.6-4c0-2.6,2.1-4,4.6-4
			C457.8,322.4,459.9,323.9,459.9,326.5z M453.6,326.5c0,1,0.6,1.7,1.7,1.7c1.1,0,1.7-0.7,1.7-1.7c0-0.9-0.6-1.7-1.7-1.7
			C454.3,324.7,453.6,325.5,453.6,326.5z"/>
		<path id="XMLID_845_" class="st4" d="M463.8,323.9L463.8,323.9c0.5-0.9,1.4-1.3,2.5-1.3h0.5v2.6c-0.4-0.2-0.7-0.3-1.1-0.3
			c-1.5,0-1.9,1-1.9,2.3v3.1h-2.7v-7.6h2.7V323.9z"/>
		<path id="XMLID_842_" class="st4" d="M476.1,330.2h-2.7v-0.8h0c-0.5,0.8-1.4,1.1-2.3,1.1c-2.2,0-3.8-1.9-3.8-4c0-2.2,1.5-4,3.8-4
			c0.9,0,1.8,0.3,2.3,1v-0.7h2.7V330.2z M470,326.5c0,1,0.6,1.7,1.7,1.7c1.1,0,1.7-0.7,1.7-1.7c0-0.9-0.6-1.7-1.7-1.7
			C470.7,324.7,470,325.5,470,326.5z"/>
		<path id="XMLID_840_" class="st4" d="M483.3,325.1c-0.4-0.3-0.9-0.5-1.4-0.5c-1,0-1.8,0.8-1.8,1.8c0,1.1,0.8,1.9,1.9,1.9
			c0.5,0,1-0.2,1.3-0.5v2.3c-0.6,0.3-1.2,0.4-1.9,0.4c-2.2,0-4.1-1.7-4.1-4c0-2.4,1.9-4.1,4.2-4.1c0.6,0,1.2,0.1,1.8,0.4V325.1z"/>
		<path id="XMLID_837_" class="st4" d="M487.8,319.8c0,0.8-0.7,1.5-1.5,1.5c-0.8,0-1.5-0.7-1.5-1.5c0-0.8,0.7-1.5,1.5-1.5
			C487.1,318.3,487.8,318.9,487.8,319.8z M487.7,330.2H485v-7.6h2.7V330.2z"/>
		<path id="XMLID_833_" class="st4" d="M498,326.5c0,2.6-2.1,4-4.6,4c-2.4,0-4.6-1.4-4.6-4c0-2.6,2.1-4,4.6-4
			C495.9,322.4,498,323.9,498,326.5z M491.7,326.5c0,1,0.6,1.7,1.7,1.7c1.1,0,1.7-0.7,1.7-1.7c0-0.9-0.6-1.7-1.7-1.7
			C492.3,324.7,491.7,325.5,491.7,326.5z M493.1,321.5l-1.2-0.9l2.1-2.5l1.6,1.2L493.1,321.5z"/>
		<path id="XMLID_831_" class="st4" d="M501.9,323.6L501.9,323.6c0.6-0.9,1.4-1.2,2.4-1.2c2,0,2.8,1.3,2.8,3.1v4.7h-2.7v-3.7
			c0-0.7,0.1-2-1.2-2c-1.1,0-1.4,0.8-1.4,1.8v3.9h-2.7v-7.6h2.7V323.6z"/>
		<path id="XMLID_829_" class="st4" d="M513,324.4v2.2h-4.2v-2.2H513z"/>
		<path id="XMLID_827_" class="st4" d="M517.7,330.2h-2.9v-11.1h2.9V330.2z"/>
		<path id="XMLID_825_" class="st4" d="M522.2,323.6L522.2,323.6c0.6-0.9,1.4-1.2,2.4-1.2c2,0,2.8,1.3,2.8,3.1v4.7h-2.7v-3.7
			c0-0.7,0.1-2-1.2-2c-1.1,0-1.4,0.8-1.4,1.8v3.9h-2.7v-7.6h2.7V323.6z"/>
		<path id="XMLID_823_" class="st4" d="M532.2,330.2h-2.7v-5.4h-0.9v-2.2h0.9v-1c0-1,0-1.8,0.8-2.7c0.7-0.8,1.6-1.2,2.6-1.2
			c0.4,0,0.8,0.1,1.2,0.3v2.3c-0.3-0.1-0.6-0.3-0.9-0.3c-0.7,0-0.9,0.4-0.9,1.3v1.2h1.9v2.2h-1.9V330.2z"/>
		<path id="XMLID_820_" class="st4" d="M543.5,326.5c0,2.6-2.1,4-4.6,4c-2.4,0-4.6-1.4-4.6-4c0-2.6,2.1-4,4.6-4
			C541.4,322.4,543.5,323.9,543.5,326.5z M537.2,326.5c0,1,0.6,1.7,1.7,1.7c1.1,0,1.7-0.7,1.7-1.7c0-0.9-0.6-1.7-1.7-1.7
			C537.9,324.7,537.2,325.5,537.2,326.5z"/>
		<path id="XMLID_818_" class="st4" d="M547.4,323.9L547.4,323.9c0.5-0.9,1.4-1.3,2.5-1.3h0.5v2.6c-0.4-0.2-0.7-0.3-1.1-0.3
			c-1.5,0-1.9,1-1.9,2.3v3.1h-2.7v-7.6h2.7V323.9z"/>
		<path id="XMLID_816_" class="st4" d="M554.1,323.6L554.1,323.6c0.7-0.8,1.4-1.2,2.4-1.2c1.1,0,2,0.4,2.6,1.4
			c0.5-0.9,1.5-1.4,2.6-1.4c1.9,0,2.6,1.3,2.6,3v4.8h-2.7v-3.6c0-0.8,0-2.1-1.1-2.1c-1.2,0-1.3,1.2-1.3,2.1v3.6h-2.7v-3.6
			c0-0.8,0-2.1-1.2-2.1c-1.2,0-1.2,1.3-1.2,2.1v3.6h-2.7v-7.6h2.7V323.6z"/>
		<path id="XMLID_813_" class="st4" d="M573.7,326.9h-5.6c0,1.1,0.6,1.7,1.7,1.7c0.6,0,1-0.2,1.3-0.7h2.6c-0.2,0.9-0.7,1.5-1.4,2
			c-0.7,0.4-1.5,0.6-2.4,0.6c-2.5,0-4.4-1.4-4.4-4c0-2.5,1.7-4,4.2-4c2.6,0,4.1,1.6,4.1,4.2V326.9z M571.3,325.3
			c-0.1-0.7-0.8-1.2-1.5-1.2c-0.8,0-1.4,0.4-1.6,1.2H571.3z"/>
	</g>
</g>
<rect id="XMLID_1486_" x="387.7" y="393" class="st3" width="223" height="101"/>
<g id="XMLID_21842_">
	<g>
		<path id="XMLID_184_" class="st4" d="M488.5,436.1c-0.6-0.8-1.5-1.2-2.5-1.2c-1.8,0-3,1.4-3,3.1c0,1.8,1.2,3,3,3
			c0.9,0,1.9-0.5,2.5-1.2v3.5c-1,0.3-1.7,0.5-2.6,0.5c-1.5,0-3-0.6-4.2-1.6c-1.2-1.1-1.8-2.6-1.8-4.2c0-1.5,0.6-3,1.6-4.1
			c1.1-1.1,2.7-1.8,4.2-1.8c0.9,0,1.8,0.2,2.6,0.6V436.1z"/>
		<path id="XMLID_181_" class="st4" d="M493.1,441.5l-0.8,1.9h-3.1l4.3-11.1h3.2l4.2,11.1h-3.1l-0.7-1.9H493.1z M495.1,435.8
			L495.1,435.8l-1.2,3.5h2.4L495.1,435.8z"/>
		<path id="XMLID_179_" class="st4" d="M507.2,432.3v7.5c0,2.3-1.2,3.9-3.7,3.9c-1.2,0-2.2-0.6-2.9-1.6l1.7-1.8
			c0.3,0.4,0.8,0.9,1.2,0.9c0.9,0,0.8-1,0.8-1.6v-7.3H507.2z"/>
		<path id="XMLID_176_" class="st4" d="M511.8,441.5l-0.8,1.9H508l4.3-11.1h3.2l4.2,11.1h-3.1l-0.7-1.9H511.8z M513.8,435.8
			L513.8,435.8l-1.2,3.5h2.4L513.8,435.8z"/>
		<path id="XMLID_174_" class="st4" d="M485.6,453.8c-0.6-0.8-1.5-1.2-2.5-1.2c-1.8,0-3,1.4-3,3.1c0,1.8,1.2,3,3,3
			c0.9,0,1.9-0.5,2.5-1.2v3.5c-1,0.3-1.7,0.5-2.6,0.5c-1.5,0-3-0.6-4.2-1.6c-1.2-1.1-1.8-2.6-1.8-4.2c0-1.5,0.6-3,1.6-4.1
			c1.1-1.1,2.7-1.8,4.2-1.8c0.9,0,1.8,0.2,2.6,0.6V453.8z"/>
		<path id="XMLID_171_" class="st4" d="M495.9,457.4c0,2.6-2.1,4-4.6,4c-2.4,0-4.6-1.4-4.6-4c0-2.6,2.1-4,4.6-4
			C493.8,453.3,495.9,454.8,495.9,457.4z M489.6,457.4c0,1,0.6,1.7,1.7,1.7c1.1,0,1.7-0.7,1.7-1.7c0-0.9-0.6-1.7-1.7-1.7
			C490.2,455.7,489.6,456.4,489.6,457.4z"/>
		<path id="XMLID_168_" class="st4" d="M497,448.9h2.7v5.4c0.6-0.7,1.5-1,2.3-1c2.2,0,3.8,1.9,3.8,4c0,2.2-1.6,4-3.8,4
			c-0.9,0-1.8-0.3-2.3-1.1h0v0.8H497V448.9z M499.6,457.4c0,1,0.6,1.7,1.7,1.7c1.1,0,1.7-0.7,1.7-1.7c0-0.9-0.6-1.7-1.7-1.7
			C500.2,455.7,499.6,456.4,499.6,457.4z"/>
		<path id="XMLID_166_" class="st4" d="M509.8,454.8L509.8,454.8c0.5-0.9,1.4-1.3,2.5-1.3h0.5v2.6c-0.4-0.2-0.7-0.3-1.1-0.3
			c-1.5,0-1.9,1-1.9,2.3v3.1h-2.7v-7.6h2.7V454.8z"/>
		<path id="XMLID_163_" class="st4" d="M522.1,457.4c0,2.6-2.1,4-4.6,4c-2.4,0-4.6-1.4-4.6-4c0-2.6,2.1-4,4.6-4
			C520,453.3,522.1,454.8,522.1,457.4z M515.8,457.4c0,1,0.6,1.7,1.7,1.7c1.1,0,1.7-0.7,1.7-1.7c0-0.9-0.6-1.7-1.7-1.7
			C516.5,455.7,515.8,456.4,515.8,457.4z"/>
	</g>
</g>
<rect id="XMLID_1484_" x="387.7" y="523.9" class="st3" width="223" height="101"/>
<g id="XMLID_21724_">
	<g>
		<path id="XMLID_1680_" class="st4" d="M421,561l-0.8,1.9h-3.1l4.3-11.1h3.2l4.2,11.1h-3.1L425,561H421z M423,555.2L423,555.2
			l-1.2,3.5h2.4L423,555.2z"/>
		<path id="XMLID_1677_" class="st4" d="M438.9,562.9h-3.6l-2.7-4.3h0v4.3h-2.9v-11.1h4.3c2.2,0,3.9,1,3.9,3.4
			c0,1.5-0.9,2.9-2.4,3.1L438.9,562.9z M432.6,556.8h0.3c0.9,0,2-0.2,2-1.4c0-1.2-1.1-1.4-2-1.4h-0.3V556.8z"/>
		<path id="XMLID_1675_" class="st4" d="M442.6,554.2v1.9h3.3v2.4h-3.3v1.9h3.4v2.4h-6.3v-11.1h6.3v2.4H442.6z"/>
		<path id="XMLID_1672_" class="st4" d="M450.6,561l-0.8,1.9h-3.1l4.3-11.1h3.2l4.2,11.1h-3.1l-0.7-1.9H450.6z M452.7,555.2
			L452.7,555.2l-1.2,3.5h2.4L452.7,555.2z"/>
		<path id="XMLID_1670_" class="st4" d="M468.8,562.9h-2.9v-8.7h-2.4v-2.4h7.7v2.4h-2.4V562.9z"/>
		<path id="XMLID_1668_" class="st4" d="M475.1,554.2v1.9h3.3v2.4h-3.3v1.9h3.4v2.4h-6.3v-11.1h6.3v2.4H475.1z"/>
		<path id="XMLID_1666_" class="st4" d="M488.3,555.5c-0.6-0.8-1.5-1.2-2.5-1.2c-1.8,0-3,1.4-3,3.1c0,1.8,1.2,3,3,3
			c0.9,0,1.9-0.5,2.5-1.2v3.5c-1,0.3-1.7,0.5-2.6,0.5c-1.5,0-3-0.6-4.2-1.6c-1.2-1.1-1.8-2.6-1.8-4.2c0-1.5,0.6-3,1.6-4.1
			c1.1-1.1,2.7-1.8,4.2-1.8c0.9,0,1.8,0.2,2.6,0.6V555.5z"/>
		<path id="XMLID_1664_" class="st4" d="M490.1,551.8h2.9l5.3,6.8h0v-6.8h2.9v11.1h-2.9l-5.3-6.8h0v6.8h-2.9V551.8z"/>
		<path id="XMLID_1662_" class="st4" d="M506,562.9h-2.9v-11.1h2.9V562.9z"/>
		<path id="XMLID_1660_" class="st4" d="M515.8,555.5c-0.6-0.8-1.5-1.2-2.5-1.2c-1.8,0-3,1.4-3,3.1c0,1.8,1.2,3,3,3
			c0.9,0,1.9-0.5,2.5-1.2v3.5c-1,0.3-1.7,0.5-2.6,0.5c-1.5,0-3-0.6-4.2-1.6c-1.2-1.1-1.8-2.6-1.8-4.2c0-1.5,0.6-3,1.6-4.1
			c1.1-1.1,2.7-1.8,4.2-1.8c0.9,0,1.8,0.2,2.6,0.6V555.5z"/>
		<path id="XMLID_1657_" class="st4" d="M529.3,557.2c0,3.6-2.6,6.1-6.1,6.1c-3.6,0-6.1-2.5-6.1-6.1c0-3.4,2.9-5.7,6.1-5.7
			S529.3,553.8,529.3,557.2z M520,557.2c0,1.9,1.4,3.3,3.1,3.3c1.7,0,3.1-1.4,3.1-3.3c0-1.5-1.4-2.9-3.1-2.9
			C521.4,554.2,520,555.6,520,557.2z"/>
		<path id="XMLID_1655_" class="st4" d="M536.8,554.7c-0.5-0.4-1.2-0.7-1.9-0.7c-0.5,0-1.2,0.3-1.2,0.9c0,0.6,0.8,0.9,1.3,1.1
			l0.7,0.2c1.5,0.5,2.7,1.2,2.7,3c0,1.1-0.3,2.2-1.2,3c-0.9,0.7-2,1-3.2,1c-1.4,0-2.8-0.5-3.9-1.3l1.2-2.3c0.7,0.6,1.6,1.2,2.6,1.2
			c0.7,0,1.4-0.3,1.4-1.1c0-0.8-1.1-1.1-1.8-1.3c-1.8-0.5-3-1-3-3.1c0-2.3,1.6-3.7,3.8-3.7c1.1,0,2.5,0.4,3.5,0.9L536.8,554.7z"/>
		<path id="XMLID_1653_" class="st4" d="M546.9,550.7l-5.6,13.6h-2.1l5.6-13.6H546.9z"/>
		<path id="XMLID_1650_" class="st4" d="M551.1,561l-0.8,1.9h-3.1l4.3-11.1h3.2l4.2,11.1h-3.1l-0.7-1.9H551.1z M553.1,555.2
			L553.1,555.2l-1.2,3.5h2.4L553.1,555.2z"/>
		<path id="XMLID_1647_" class="st4" d="M569,562.9h-3.6l-2.7-4.3h0v4.3h-2.9v-11.1h4.3c2.2,0,3.9,1,3.9,3.4c0,1.5-0.9,2.9-2.4,3.1
			L569,562.9z M562.7,556.8h0.3c0.9,0,2-0.2,2-1.4c0-1.2-1.1-1.4-2-1.4h-0.3V556.8z"/>
		<path id="XMLID_1644_" class="st4" d="M579.3,563.6l-0.9-1c-0.9,0.5-1.9,0.7-3.1,0.7c-3.6,0-6.1-2.5-6.1-6.1
			c0-3.4,2.9-5.7,6.1-5.7c3.5,0,6.1,2.3,6.1,6c0,1.5-0.5,2.8-1.4,3.9l1.9,1.9L579.3,563.6z M578,559c0.3-0.5,0.5-1.1,0.5-1.6
			c0-1.7-1.4-3.2-3.1-3.2c-1.7,0-3.2,1.4-3.2,2.9c0,1.9,1.4,3.3,3.2,3.3c0.3,0,0.6,0,0.9-0.1l-1.8-1.8l2.7-0.3L578,559z"/>
		<path id="XMLID_1642_" class="st4" d="M451,576.2l2.7-6.8h3.1l-4.7,11.1h-2.2l-4.7-11.1h3.1L451,576.2z"/>
		<path id="XMLID_1639_" class="st4" d="M464.2,577.3h-5.6c0,1.1,0.6,1.7,1.7,1.7c0.6,0,1-0.2,1.3-0.7h2.6c-0.2,0.9-0.7,1.5-1.4,2
			c-0.7,0.4-1.5,0.6-2.4,0.6c-2.5,0-4.4-1.4-4.4-4c0-2.5,1.7-4,4.2-4c2.6,0,4.1,1.6,4.1,4.2V577.3z M461.7,575.7
			c-0.1-0.7-0.8-1.2-1.5-1.2c-0.8,0-1.4,0.4-1.6,1.2H461.7z"/>
		<path id="XMLID_1637_" class="st4" d="M468.1,574.3L468.1,574.3c0.5-0.9,1.4-1.3,2.5-1.3h0.5v2.6c-0.4-0.2-0.7-0.3-1.1-0.3
			c-1.5,0-1.9,1-1.9,2.3v3.1h-2.7V573h2.7V574.3z"/>
		<path id="XMLID_1634_" class="st4" d="M475,570.1c0,0.8-0.7,1.5-1.5,1.5c-0.8,0-1.5-0.7-1.5-1.5c0-0.8,0.7-1.5,1.5-1.5
			C474.3,568.6,475,569.3,475,570.1z M474.8,580.6h-2.7V573h2.7V580.6z"/>
		<path id="XMLID_1630_" class="st4" d="M479.4,580.6h-2.7v-5.4h-0.9V573h0.9v-1c0-1,0-1.8,0.8-2.7c0.7-0.8,1.6-1.2,2.6-1.2
			c0.4,0,0.8,0.1,1.2,0.3v2.3c-0.3-0.1-0.6-0.3-0.9-0.3c-0.7,0-0.9,0.4-0.9,1.3v1.2h1.9v2.2h-1.9V580.6z M485,570.1
			c0,0.8-0.7,1.5-1.5,1.5c-0.8,0-1.5-0.7-1.5-1.5c0-0.8,0.7-1.5,1.5-1.5C484.3,568.6,485,569.3,485,570.1z M484.8,580.6h-2.7V573
			h2.7V580.6z"/>
		<path id="XMLID_1628_" class="st4" d="M492,575.5c-0.4-0.3-0.9-0.5-1.4-0.5c-1,0-1.8,0.8-1.8,1.8c0,1.1,0.8,1.9,1.9,1.9
			c0.5,0,1-0.2,1.3-0.5v2.3c-0.6,0.3-1.2,0.4-1.9,0.4c-2.2,0-4.1-1.7-4.1-4c0-2.4,1.9-4.1,4.2-4.1c0.6,0,1.2,0.1,1.8,0.4V575.5z"/>
		<path id="XMLID_1625_" class="st4" d="M502,580.6h-2.7v-0.8h0c-0.5,0.8-1.4,1.1-2.3,1.1c-2.2,0-3.8-1.9-3.8-4s1.5-4,3.8-4
			c0.9,0,1.8,0.3,2.3,1V573h2.7V580.6z M495.9,576.8c0,1,0.6,1.7,1.7,1.7c1.1,0,1.7-0.7,1.7-1.7c0-0.9-0.6-1.7-1.7-1.7
			C496.6,575.1,495.9,575.9,495.9,576.8z"/>
		<path id="XMLID_1623_" class="st4" d="M509.2,575.5c-0.4-0.3-0.9-0.5-1.4-0.5c-1,0-1.8,0.8-1.8,1.8c0,1.1,0.8,1.9,1.9,1.9
			c0.5,0,1-0.2,1.3-0.5v2.3c-0.6,0.3-1.2,0.4-1.9,0.4c-2.2,0-4.1-1.7-4.1-4c0-2.4,1.9-4.1,4.2-4.1c0.6,0,1.2,0.1,1.8,0.4V575.5z"/>
		<path id="XMLID_1620_" class="st4" d="M513.7,570.1c0,0.8-0.7,1.5-1.5,1.5c-0.8,0-1.5-0.7-1.5-1.5c0-0.8,0.7-1.5,1.5-1.5
			C513.1,568.6,513.7,569.3,513.7,570.1z M513.6,580.6h-2.7V573h2.7V580.6z"/>
		<path id="XMLID_1615_" class="st4" d="M523.9,576.8c0,2.6-2.1,4-4.6,4c-2.4,0-4.6-1.4-4.6-4s2.1-4,4.6-4
			C521.8,572.8,523.9,574.3,523.9,576.8z M517.6,576.8c0,1,0.6,1.7,1.7,1.7c1.1,0,1.7-0.7,1.7-1.7c0-0.9-0.6-1.7-1.7-1.7
			C518.2,575.1,517.6,575.9,517.6,576.8z M519,571.9l-1.2-0.9l2.1-2.5l1.6,1.2L519,571.9z"/>
		<path id="XMLID_1613_" class="st4" d="M527.8,574L527.8,574c0.6-0.9,1.4-1.2,2.4-1.2c2,0,2.8,1.3,2.8,3.1v4.7h-2.7v-3.7
			c0-0.7,0.1-2-1.2-2c-1.1,0-1.4,0.8-1.4,1.8v3.9h-2.7V573h2.7V574z"/>
		<path id="XMLID_1611_" class="st4" d="M538.8,573h3.1l2,3.9l2-3.9h3.1l-6.1,11.3h-3l2.6-4.8L538.8,573z"/>
		<path id="XMLID_1609_" class="st4" d="M422.4,593.2c-0.4-0.3-0.9-0.5-1.4-0.5c-1,0-1.8,0.8-1.8,1.8c0,1.1,0.8,1.9,1.9,1.9
			c0.5,0,1-0.2,1.3-0.5v2.3c-0.6,0.3-1.2,0.4-1.9,0.4c-2.2,0-4.1-1.7-4.1-4c0-2.4,1.9-4.1,4.2-4.1c0.6,0,1.2,0.1,1.8,0.4V593.2z"/>
		<path id="XMLID_1385_" class="st4" d="M432.6,594.5c0,2.6-2.1,4-4.6,4c-2.4,0-4.6-1.4-4.6-4c0-2.6,2.1-4,4.6-4
			C430.5,590.5,432.6,591.9,432.6,594.5z M426.4,594.5c0,1,0.6,1.7,1.7,1.7c1.1,0,1.7-0.7,1.7-1.7c0-0.9-0.6-1.7-1.7-1.7
			C427,592.8,426.4,593.6,426.4,594.5z"/>
		<path id="XMLID_1383_" class="st4" d="M436.5,591.7L436.5,591.7c0.6-0.9,1.4-1.2,2.4-1.2c2,0,2.8,1.3,2.8,3.1v4.7h-2.7v-3.7
			c0-0.7,0.1-2-1.2-2c-1.1,0-1.4,0.8-1.4,1.8v3.9h-2.7v-7.6h2.7V591.7z"/>
		<path id="XMLID_1381_" class="st4" d="M446.5,598.3h-2.7V593h-0.9v-2.2h0.9v-1c0-1,0-1.8,0.8-2.7c0.7-0.8,1.6-1.2,2.6-1.2
			c0.4,0,0.8,0.1,1.2,0.3v2.3c-0.3-0.1-0.6-0.3-0.9-0.3c-0.7,0-0.9,0.4-0.9,1.3v1.2h1.9v2.2h-1.9V598.3z"/>
		<path id="XMLID_1378_" class="st4" d="M457.9,594.5c0,2.6-2.1,4-4.6,4c-2.4,0-4.6-1.4-4.6-4c0-2.6,2.1-4,4.6-4
			C455.7,590.5,457.9,591.9,457.9,594.5z M451.6,594.5c0,1,0.6,1.7,1.7,1.7c1.1,0,1.7-0.7,1.7-1.7c0-0.9-0.6-1.7-1.7-1.7
			C452.2,592.8,451.6,593.6,451.6,594.5z"/>
		<path id="XMLID_1376_" class="st4" d="M461.8,592L461.8,592c0.5-0.9,1.4-1.3,2.5-1.3h0.5v2.6c-0.4-0.2-0.7-0.3-1.1-0.3
			c-1.5,0-1.9,1-1.9,2.3v3.1h-2.7v-7.6h2.7V592z"/>
		<path id="XMLID_1373_" class="st4" d="M468.4,591.7L468.4,591.7c0.7-0.8,1.4-1.2,2.4-1.2c1.1,0,2,0.4,2.6,1.4
			c0.5-0.9,1.5-1.4,2.6-1.4c1.9,0,2.6,1.3,2.6,3v4.8h-2.7v-3.6c0-0.8,0-2.1-1.1-2.1c-1.2,0-1.3,1.2-1.3,2.1v3.6h-2.7v-3.6
			c0-0.8,0-2.1-1.2-2.1c-1.2,0-1.2,1.3-1.2,2.1v3.6h-2.7v-7.6h2.7V591.7z"/>
		<path id="XMLID_1370_" class="st4" d="M483.2,587.8c0,0.8-0.7,1.5-1.5,1.5c-0.8,0-1.5-0.7-1.5-1.5c0-0.8,0.7-1.5,1.5-1.5
			C482.5,586.3,483.2,587,483.2,587.8z M483,598.3h-2.7v-7.6h2.7V598.3z"/>
		<path id="XMLID_1367_" class="st4" d="M490.5,597.5L490.5,597.5c-0.5,0.8-1.4,1.1-2.3,1.1c-2.2,0-3.8-1.9-3.8-4c0-2.2,1.5-4,3.8-4
			c0.9,0,1.8,0.3,2.3,1v-5.4h2.7v12.2h-2.7V597.5z M487.1,594.5c0,1,0.6,1.7,1.7,1.7c1.1,0,1.7-0.7,1.7-1.7c0-0.9-0.6-1.7-1.7-1.7
			C487.8,592.8,487.1,593.6,487.1,594.5z"/>
		<path id="XMLID_1364_" class="st4" d="M503.1,598.3h-2.7v-0.8h0c-0.5,0.8-1.4,1.1-2.3,1.1c-2.2,0-3.8-1.9-3.8-4c0-2.2,1.5-4,3.8-4
			c0.9,0,1.8,0.3,2.3,1v-0.7h2.7V598.3z M497.1,594.5c0,1,0.6,1.7,1.7,1.7c1.1,0,1.7-0.7,1.7-1.7c0-0.9-0.6-1.7-1.7-1.7
			C497.7,592.8,497.1,593.6,497.1,594.5z"/>
		<path id="XMLID_1361_" class="st4" d="M510.6,597.5L510.6,597.5c-0.5,0.8-1.4,1.1-2.3,1.1c-2.2,0-3.8-1.9-3.8-4c0-2.2,1.5-4,3.8-4
			c0.9,0,1.8,0.3,2.3,1v-5.4h2.7v12.2h-2.7V597.5z M507.2,594.5c0,1,0.6,1.7,1.7,1.7c1.1,0,1.7-0.7,1.7-1.7c0-0.9-0.6-1.7-1.7-1.7
			C507.9,592.8,507.2,593.6,507.2,594.5z"/>
		<path id="XMLID_1358_" class="st4" d="M525.7,597.5L525.7,597.5c-0.5,0.8-1.4,1.1-2.3,1.1c-2.2,0-3.8-1.9-3.8-4c0-2.2,1.5-4,3.8-4
			c0.9,0,1.8,0.3,2.3,1v-5.4h2.7v12.2h-2.7V597.5z M522.3,594.5c0,1,0.6,1.7,1.7,1.7c1.1,0,1.7-0.7,1.7-1.7c0-0.9-0.6-1.7-1.7-1.7
			C523,592.8,522.3,593.6,522.3,594.5z"/>
		<path id="XMLID_1355_" class="st4" d="M537.8,595h-5.6c0,1.1,0.6,1.7,1.7,1.7c0.6,0,1-0.2,1.3-0.7h2.6c-0.2,0.9-0.7,1.5-1.4,2
			c-0.7,0.4-1.5,0.6-2.4,0.6c-2.5,0-4.4-1.4-4.4-4c0-2.5,1.7-4,4.2-4c2.6,0,4.1,1.6,4.1,4.2V595z M535.3,593.4
			c-0.1-0.7-0.8-1.2-1.5-1.2c-0.8,0-1.4,0.4-1.6,1.2H535.3z"/>
		<path id="XMLID_1352_" class="st4" d="M546.7,591.6L546.7,591.6c0.5-0.8,1.4-1.1,2.3-1.1c2.3,0,3.8,1.9,3.8,4.1c0,2.2-1.5,4-3.8,4
			c-0.9,0-1.8-0.3-2.3-1v4.5H544v-11.3h2.7V591.6z M546.6,594.5c0,1,0.6,1.7,1.7,1.7c1.1,0,1.7-0.7,1.7-1.7c0-0.9-0.6-1.7-1.7-1.7
			C547.3,592.8,546.6,593.6,546.6,594.5z"/>
		<path id="XMLID_1349_" class="st4" d="M562.4,598.3h-2.7v-0.8h0c-0.5,0.8-1.4,1.1-2.3,1.1c-2.2,0-3.8-1.9-3.8-4c0-2.2,1.5-4,3.8-4
			c0.9,0,1.8,0.3,2.3,1v-0.7h2.7V598.3z M556.4,594.5c0,1,0.6,1.7,1.7,1.7c1.1,0,1.7-0.7,1.7-1.7c0-0.9-0.6-1.7-1.7-1.7
			C557,592.8,556.4,593.6,556.4,594.5z"/>
		<path id="XMLID_1346_" class="st4" d="M572.5,597.6c0,3.2-1.6,4.5-4.4,4.5c-1.7,0-4.1-0.9-4.3-2.9h3c0.1,0.3,0.3,0.5,0.5,0.6
			c0.2,0.1,0.5,0.2,0.8,0.2c1.4,0,1.7-0.9,1.7-2.2v-0.4c-0.7,0.7-1.4,1-2.4,1c-2.2,0-3.7-1.7-3.7-3.9c0-2.2,1.6-4.1,3.9-4.1
			c0.9,0,1.7,0.3,2.2,1h0v-0.8h2.7V597.6z M566.5,594.5c0,1,0.6,1.7,1.7,1.7c1.1,0,1.7-0.7,1.7-1.7c0-0.9-0.6-1.7-1.7-1.7
			C567.1,592.8,566.5,593.5,566.5,594.5z"/>
		<path id="XMLID_1343_" class="st4" d="M582.8,594.5c0,2.6-2.1,4-4.6,4c-2.4,0-4.6-1.4-4.6-4c0-2.6,2.1-4,4.6-4
			C580.6,590.5,582.8,591.9,582.8,594.5z M576.5,594.5c0,1,0.6,1.7,1.7,1.7c1.1,0,1.7-0.7,1.7-1.7c0-0.9-0.6-1.7-1.7-1.7
			C577.1,592.8,576.5,593.6,576.5,594.5z"/>
	</g>
</g>
<rect id="XMLID_1482_" x="387.7" y="654.8" class="st3" width="223" height="101"/>
<g id="XMLID_21629_">
	<g>
		<path id="XMLID_1296_" class="st4" d="M444.5,690l-0.8,1.9h-3.1l4.3-11.1h3.2l4.2,11.1h-3.1l-0.7-1.9H444.5z M446.6,684.2
			L446.6,684.2l-1.2,3.5h2.4L446.6,684.2z"/>
		<path id="XMLID_1099_" class="st4" d="M459.3,683.7c-0.5-0.4-1.2-0.7-1.9-0.7c-0.5,0-1.2,0.3-1.2,0.9c0,0.6,0.8,0.9,1.3,1.1
			l0.7,0.2c1.5,0.5,2.7,1.2,2.7,3c0,1.1-0.3,2.2-1.2,3c-0.9,0.7-2,1-3.2,1c-1.4,0-2.8-0.5-3.9-1.3l1.2-2.3c0.7,0.6,1.6,1.2,2.6,1.2
			c0.7,0,1.4-0.3,1.4-1.1c0-0.8-1.1-1.1-1.8-1.3c-1.8-0.5-3-1-3-3.1c0-2.3,1.6-3.7,3.8-3.7c1.1,0,2.5,0.4,3.5,0.9L459.3,683.7z"/>
		<path id="XMLID_1097_" class="st4" d="M465.2,683.2v1.9h3.3v2.4h-3.3v1.9h3.4v2.4h-6.3v-11.1h6.3v2.4H465.2z"/>
		<path id="XMLID_1095_" class="st4" d="M476.5,683.7c-0.5-0.4-1.2-0.7-1.9-0.7c-0.5,0-1.2,0.3-1.2,0.9c0,0.6,0.8,0.9,1.3,1.1
			l0.7,0.2c1.5,0.5,2.7,1.2,2.7,3c0,1.1-0.3,2.2-1.2,3c-0.9,0.7-2,1-3.2,1c-1.4,0-2.8-0.5-3.9-1.3l1.2-2.3c0.7,0.6,1.6,1.2,2.6,1.2
			c0.7,0,1.4-0.3,1.4-1.1c0-0.8-1.1-1.1-1.8-1.3c-1.8-0.5-3-1-3-3.1c0-2.3,1.6-3.7,3.8-3.7c1.1,0,2.5,0.4,3.5,0.9L476.5,683.7z"/>
		<path id="XMLID_1092_" class="st4" d="M491.2,686.1c0,3.6-2.6,6.1-6.1,6.1s-6.1-2.5-6.1-6.1c0-3.4,2.9-5.7,6.1-5.7
			S491.2,682.8,491.2,686.1z M481.9,686.2c0,1.9,1.4,3.3,3.1,3.3c1.7,0,3.1-1.4,3.1-3.3c0-1.5-1.4-2.9-3.1-2.9
			C483.4,683.2,481.9,684.6,481.9,686.2z"/>
		<path id="XMLID_1089_" class="st4" d="M501.8,691.9h-3.6l-2.7-4.3h0v4.3h-2.9v-11.1h4.3c2.2,0,3.9,1,3.9,3.4
			c0,1.5-0.9,2.9-2.4,3.1L501.8,691.9z M495.5,685.8h0.3c0.9,0,2-0.2,2-1.4c0-1.2-1.1-1.4-2-1.4h-0.3V685.8z"/>
		<path id="XMLID_1087_" class="st4" d="M510.5,689.5h3.5v2.4h-6.4v-11.1h2.9V689.5z"/>
		<path id="XMLID_1085_" class="st4" d="M517.8,683.2v1.9h3.3v2.4h-3.3v1.9h3.4v2.4H515v-11.1h6.3v2.4H517.8z"/>
		<path id="XMLID_1083_" class="st4" d="M534.2,685.7c0,1.6-0.1,3-1.1,4.4c-1.1,1.5-2.7,2.2-4.6,2.2c-3.5,0-5.9-2.4-5.9-5.9
			c0-3.6,2.4-6,6-6c2.3,0,4.1,1,5,3.1l-2.7,1.2c-0.4-1.1-1.2-1.8-2.4-1.8c-1.9,0-2.9,1.8-2.9,3.5c0,1.7,1,3.5,2.9,3.5
			c1.3,0,2.2-0.6,2.3-1.9h-2.4v-2.3H534.2z"/>
		<path id="XMLID_1080_" class="st4" d="M538.3,690l-0.8,1.9h-3.1l4.3-11.1h3.2l4.2,11.1H543l-0.7-1.9H538.3z M540.3,684.2
			L540.3,684.2l-1.2,3.5h2.4L540.3,684.2z"/>
		<path id="XMLID_1078_" class="st4" d="M549.9,689.5h3.5v2.4H547v-11.1h2.9V689.5z"/>
		<path id="XMLID_1074_" class="st4" d="M423.2,700.9v1.9h3.3v2.4h-3.3v1.9h3.4v2.4h-6.3v-11.1h6.3v2.4H423.2z"/>
		<path id="XMLID_1072_" class="st4" d="M431,709.6h-2.7v-12.2h2.7V709.6z"/>
		<path id="XMLID_1069_" class="st4" d="M441,709.6h-2.7v-0.8h0c-0.5,0.8-1.4,1.1-2.3,1.1c-2.2,0-3.8-1.9-3.8-4s1.5-4,3.8-4
			c0.9,0,1.8,0.3,2.3,1V702h2.7V709.6z M435,705.8c0,1,0.6,1.7,1.7,1.7c1.1,0,1.7-0.7,1.7-1.7c0-0.9-0.6-1.7-1.7-1.7
			C435.6,704.1,435,704.9,435,705.8z"/>
		<path id="XMLID_1066_" class="st4" d="M442.7,697.4h2.7v5.4c0.6-0.7,1.5-1,2.3-1c2.2,0,3.8,1.9,3.8,4c0,2.2-1.6,4-3.8,4
			c-0.9,0-1.8-0.3-2.3-1.1h0v0.8h-2.7V697.4z M445.3,705.8c0,1,0.6,1.7,1.7,1.7c1.1,0,1.7-0.7,1.7-1.7c0-0.9-0.6-1.7-1.7-1.7
			C446,704.1,445.3,704.9,445.3,705.8z"/>
		<path id="XMLID_1062_" class="st4" d="M461.4,705.8c0,2.6-2.1,4-4.6,4c-2.4,0-4.6-1.4-4.6-4s2.1-4,4.6-4
			C459.3,701.8,461.4,703.2,461.4,705.8z M455.2,705.8c0,1,0.6,1.7,1.7,1.7c1.1,0,1.7-0.7,1.7-1.7c0-0.9-0.6-1.7-1.7-1.7
			C455.8,704.1,455.2,704.9,455.2,705.8z"/>
		<path id="XMLID_1060_" class="st4" d="M465.3,703.3L465.3,703.3c0.5-0.9,1.4-1.3,2.5-1.3h0.5v2.6c-0.4-0.2-0.7-0.3-1.1-0.3
			c-1.5,0-1.9,1-1.9,2.3v3.1h-2.7V702h2.7V703.3z"/>
		<path id="XMLID_1057_" class="st4" d="M477.6,709.6h-2.7v-0.8h0c-0.5,0.8-1.4,1.1-2.3,1.1c-2.2,0-3.8-1.9-3.8-4s1.5-4,3.8-4
			c0.9,0,1.8,0.3,2.3,1V702h2.7V709.6z M471.6,705.8c0,1,0.6,1.7,1.7,1.7c1.1,0,1.7-0.7,1.7-1.7c0-0.9-0.6-1.7-1.7-1.7
			C472.2,704.1,471.6,704.9,471.6,705.8z"/>
		<path id="XMLID_1055_" class="st4" d="M484.8,704.5c-0.4-0.3-0.9-0.5-1.4-0.5c-1,0-1.8,0.8-1.8,1.8c0,1.1,0.8,1.9,1.9,1.9
			c0.5,0,1-0.2,1.3-0.5v2.3c-0.6,0.3-1.2,0.4-1.9,0.4c-2.2,0-4.1-1.7-4.1-4c0-2.4,1.9-4.1,4.2-4.1c0.6,0,1.2,0.1,1.8,0.4V704.5z"/>
		<path id="XMLID_1052_" class="st4" d="M489.3,699.1c0,0.8-0.7,1.5-1.5,1.5c-0.8,0-1.5-0.7-1.5-1.5c0-0.8,0.7-1.5,1.5-1.5
			C488.7,697.6,489.3,698.3,489.3,699.1z M489.2,709.6h-2.7V702h2.7V709.6z"/>
		<path id="XMLID_1048_" class="st4" d="M499.5,705.8c0,2.6-2.1,4-4.6,4c-2.4,0-4.6-1.4-4.6-4s2.1-4,4.6-4
			C497.4,701.8,499.5,703.2,499.5,705.8z M493.2,705.8c0,1,0.6,1.7,1.7,1.7c1.1,0,1.7-0.7,1.7-1.7c0-0.9-0.6-1.7-1.7-1.7
			C493.9,704.1,493.2,704.9,493.2,705.8z M494.7,700.9l-1.2-0.9l2.1-2.5l1.6,1.2L494.7,700.9z"/>
		<path id="XMLID_1046_" class="st4" d="M503.4,703L503.4,703c0.6-0.9,1.4-1.2,2.4-1.2c2,0,2.8,1.3,2.8,3.1v4.7H506v-3.7
			c0-0.7,0.1-2-1.2-2c-1.1,0-1.4,0.8-1.4,1.8v3.9h-2.7V702h2.7V703z"/>
		<path id="XMLID_1043_" class="st4" d="M521.2,708.8L521.2,708.8c-0.5,0.8-1.4,1.1-2.3,1.1c-2.2,0-3.8-1.9-3.8-4s1.5-4,3.8-4
			c0.9,0,1.8,0.3,2.3,1v-5.4h2.7v12.2h-2.7V708.8z M517.9,705.8c0,1,0.6,1.7,1.7,1.7c1.1,0,1.7-0.7,1.7-1.7c0-0.9-0.6-1.7-1.7-1.7
			C518.5,704.1,517.9,704.9,517.9,705.8z"/>
		<path id="XMLID_1040_" class="st4" d="M533.3,706.3h-5.6c0,1.1,0.6,1.7,1.7,1.7c0.6,0,1-0.2,1.3-0.7h2.6c-0.2,0.9-0.7,1.5-1.4,2
			c-0.7,0.4-1.5,0.6-2.4,0.6c-2.5,0-4.4-1.4-4.4-4c0-2.5,1.7-4,4.2-4c2.6,0,4.1,1.6,4.1,4.2V706.3z M530.9,704.7
			c-0.1-0.7-0.8-1.2-1.5-1.2c-0.8,0-1.4,0.4-1.6,1.2H530.9z"/>
		<path id="XMLID_1037_" class="st4" d="M548.9,709.6h-3.6l-2.7-4.3h0v4.3h-2.9v-11.1h4.3c2.2,0,3.9,1,3.9,3.4
			c0,1.5-0.9,2.9-2.4,3.1L548.9,709.6z M542.6,703.5h0.3c0.9,0,2-0.2,2-1.4c0-1.2-1.1-1.4-2-1.4h-0.3V703.5z"/>
		<path id="XMLID_1034_" class="st4" d="M552.5,707.7l-0.8,1.9h-3.1l4.3-11.1h3.2l4.2,11.1h-3.1l-0.7-1.9H552.5z M554.6,701.9
			L554.6,701.9l-1.2,3.5h2.4L554.6,701.9z"/>
		<path id="XMLID_1032_" class="st4" d="M562.5,698.5h2.8l2.3,5.9l2.4-5.9h2.9l1.7,11.1h-2.9l-0.8-6.4h0l-2.7,6.4h-1.2l-2.6-6.4h0
			l-0.9,6.4h-2.9L562.5,698.5z"/>
		<path id="XMLID_1030_" class="st4" d="M457.2,721.7c-0.4-0.2-1-0.4-1.4-0.4c-0.3,0-0.8,0.1-0.8,0.5c0,0.5,0.8,0.6,1.2,0.7
			c1.3,0.3,2.2,0.8,2.2,2.2c0,2-1.8,2.8-3.6,2.8c-1.1,0-2.1-0.3-3.1-0.9l1-1.9c0.5,0.4,1.5,0.8,2.1,0.8c0.3,0,0.8-0.2,0.8-0.6
			c0-0.6-0.8-0.6-1.7-0.8c-0.8-0.2-1.7-0.6-1.7-2c0-1.9,1.7-2.7,3.3-2.7c0.9,0,1.7,0.1,2.5,0.5L457.2,721.7z"/>
		<path id="XMLID_1027_" class="st4" d="M467.5,724h-5.6c0,1.1,0.6,1.7,1.7,1.7c0.6,0,1-0.2,1.3-0.7h2.6c-0.2,0.9-0.7,1.5-1.4,2
			c-0.7,0.4-1.5,0.6-2.4,0.6c-2.5,0-4.4-1.4-4.4-4c0-2.5,1.7-4,4.2-4c2.6,0,4.1,1.6,4.1,4.2V724z M465,722.4
			c-0.1-0.7-0.8-1.2-1.5-1.2c-0.8,0-1.4,0.4-1.6,1.2H465z"/>
		<path id="XMLID_1025_" class="st4" d="M471.4,727.3h-2.7v-12.2h2.7V727.3z"/>
		<path id="XMLID_1023_" class="st4" d="M475.9,727.3h-2.7v-12.2h2.7V727.3z"/>
		<path id="XMLID_1020_" class="st4" d="M485.9,727.3h-2.7v-0.8h0c-0.5,0.8-1.4,1.1-2.3,1.1c-2.2,0-3.8-1.9-3.8-4c0-2.2,1.5-4,3.8-4
			c0.9,0,1.8,0.3,2.3,1v-0.7h2.7V727.3z M479.9,723.5c0,1,0.6,1.7,1.7,1.7c1.1,0,1.7-0.7,1.7-1.7c0-0.9-0.6-1.7-1.7-1.7
			C480.5,721.8,479.9,722.6,479.9,723.5z"/>
		<path id="XMLID_1018_" class="st4" d="M491.6,719.7h3.1l2,3.9l2-3.9h3.1l-6.1,11.3h-3l2.6-4.8L491.6,719.7z"/>
		<path id="XMLID_1014_" class="st4" d="M510.3,727.3h-2.7v-5.4h-0.9v-2.2h0.9v-1c0-1,0-1.8,0.8-2.7c0.7-0.8,1.6-1.2,2.6-1.2
			c0.4,0,0.8,0.1,1.2,0.3v2.3c-0.3-0.1-0.6-0.3-0.9-0.3c-0.7,0-0.9,0.4-0.9,1.3v1.2h1.9v2.2h-1.9V727.3z M515.8,716.8
			c0,0.8-0.7,1.5-1.5,1.5c-0.8,0-1.5-0.7-1.5-1.5c0-0.8,0.7-1.5,1.5-1.5C515.2,715.3,515.8,716,515.8,716.8z M515.7,727.3H513v-7.6
			h2.7V727.3z"/>
		<path id="XMLID_948_" class="st4" d="M520.1,721L520.1,721c0.5-0.9,1.4-1.3,2.5-1.3h0.5v2.6c-0.4-0.2-0.7-0.3-1.1-0.3
			c-1.5,0-1.9,1-1.9,2.3v3.1h-2.7v-7.6h2.7V721z"/>
		<path id="XMLID_946_" class="st4" d="M526.8,720.7L526.8,720.7c0.7-0.8,1.4-1.2,2.4-1.2c1.1,0,2,0.4,2.6,1.4
			c0.5-0.9,1.5-1.4,2.6-1.4c1.9,0,2.6,1.3,2.6,3v4.8h-2.7v-3.6c0-0.8,0-2.1-1.1-2.1c-1.2,0-1.3,1.2-1.3,2.1v3.6h-2.7v-3.6
			c0-0.8,0-2.1-1.2-2.1c-1.2,0-1.2,1.3-1.2,2.1v3.6h-2.7v-7.6h2.7V720.7z"/>
		<path id="XMLID_943_" class="st4" d="M547,727.3h-2.7v-0.8h0c-0.5,0.8-1.4,1.1-2.3,1.1c-2.2,0-3.8-1.9-3.8-4c0-2.2,1.5-4,3.8-4
			c0.9,0,1.8,0.3,2.3,1v-0.7h2.7V727.3z M540.9,723.5c0,1,0.6,1.7,1.7,1.7c1.1,0,1.7-0.7,1.7-1.7c0-0.9-0.6-1.7-1.7-1.7
			C541.6,721.8,540.9,722.6,540.9,723.5z"/>
	</g>
</g>
<rect id="XMLID_1480_" x="387.7" y="785.7" class="st3" width="223" height="101"/>
<g id="XMLID_21522_">
	<g>
		<path id="XMLID_1605_" class="st4" d="M439.6,808.6v7.5c0,2.3-1.2,3.9-3.7,3.9c-1.2,0-2.2-0.6-2.9-1.6l1.7-1.8
			c0.3,0.4,0.8,0.9,1.2,0.9c0.9,0,0.8-1,0.8-1.6v-7.3H439.6z"/>
		<path id="XMLID_1603_" class="st4" d="M444.4,811v1.9h3.3v2.4h-3.3v1.9h3.4v2.4h-6.3v-11.1h6.3v2.4H444.4z"/>
		<path id="XMLID_1601_" class="st4" d="M452.5,811v1.9h3.2v2.4h-3.2v4.4h-2.9v-11.1h6.4v2.4H452.5z"/>
		<path id="XMLID_1599_" class="st4" d="M460.5,811v1.9h3.3v2.4h-3.3v1.9h3.4v2.4h-6.3v-11.1h6.3v2.4H460.5z"/>
		<path id="XMLID_1596_" class="st4" d="M470.7,808.6h4.1c3.1,0,5.6,2.4,5.6,5.6c0,3.1-2.6,5.6-5.6,5.6h-4.1V808.6z M473.6,817.3
			h0.6c1.7,0,3.2-0.9,3.2-3.1c0-2-1.3-3.1-3.2-3.1h-0.7V817.3z"/>
		<path id="XMLID_1594_" class="st4" d="M484.7,811v1.9h3.3v2.4h-3.3v1.9h3.4v2.4h-6.3v-11.1h6.3v2.4H484.7z"/>
		<path id="XMLID_1590_" class="st4" d="M495,808.6h4.1c3.1,0,5.6,2.4,5.6,5.6c0,3.1-2.6,5.6-5.6,5.6H495V808.6z M497.9,817.3h0.6
			c1.7,0,3.2-0.9,3.2-3.1c0-2-1.3-3.1-3.2-3.1h-0.7V817.3z"/>
		<path id="XMLID_1588_" class="st4" d="M509,819.7h-2.9v-11.1h2.9V819.7z"/>
		<path id="XMLID_1586_" class="st4" d="M515.5,815.4l2.7-6.8h3.1l-4.7,11.1h-2.2l-4.7-11.1h3.1L515.5,815.4z"/>
		<path id="XMLID_1584_" class="st4" d="M525,819.7h-2.9v-11.1h2.9V819.7z"/>
		<path id="XMLID_1582_" class="st4" d="M533,811.5c-0.5-0.4-1.2-0.7-1.9-0.7c-0.5,0-1.2,0.3-1.2,0.9c0,0.6,0.8,0.9,1.3,1.1l0.7,0.2
			c1.5,0.5,2.7,1.2,2.7,3c0,1.1-0.3,2.2-1.2,3c-0.9,0.7-2,1-3.2,1c-1.4,0-2.8-0.5-3.9-1.3l1.2-2.3c0.7,0.6,1.6,1.2,2.6,1.2
			c0.7,0,1.4-0.3,1.4-1.1c0-0.8-1.1-1.1-1.8-1.3c-1.8-0.5-3-1-3-3.1c0-2.3,1.6-3.7,3.8-3.7c1.1,0,2.5,0.4,3.5,0.9L533,811.5z"/>
		<path id="XMLID_1580_" class="st4" d="M538.8,819.7h-2.9v-11.1h2.9V819.7z"/>
		<path id="XMLID_1576_" class="st4" d="M552.5,814c0,3.6-2.6,6.1-6.1,6.1c-3.6,0-6.1-2.5-6.1-6.1c0-3.4,2.9-5.7,6.1-5.7
			C549.5,808.2,552.5,810.6,552.5,814z M543.2,814c0,1.9,1.4,3.3,3.1,3.3c1.7,0,3.1-1.4,3.1-3.3c0-1.5-1.4-2.9-3.1-2.9
			C544.6,811,543.2,812.4,543.2,814z M546,807.9l-1.2-0.9l2.1-2.5l1.6,1.2L546,807.9z"/>
		<path id="XMLID_1574_" class="st4" d="M553.8,808.6h2.9l5.3,6.8h0v-6.8h2.9v11.1H562l-5.3-6.8h0v6.8h-2.9V808.6z"/>
		<path id="XMLID_1571_" class="st4" d="M438.1,837.4h-3.6l-2.7-4.3h0v4.3h-2.9v-11.1h4.3c2.2,0,3.9,1,3.9,3.4
			c0,1.5-0.9,2.9-2.4,3.1L438.1,837.4z M431.8,831.3h0.3c0.9,0,2-0.2,2-1.4c0-1.2-1.1-1.4-2-1.4h-0.3V831.3z"/>
		<path id="XMLID_1568_" class="st4" d="M446.6,834.1H441c0,1.1,0.6,1.7,1.7,1.7c0.6,0,1-0.2,1.3-0.7h2.6c-0.2,0.9-0.7,1.5-1.4,2
			c-0.7,0.4-1.5,0.6-2.4,0.6c-2.5,0-4.4-1.4-4.4-4c0-2.5,1.7-4,4.2-4c2.6,0,4.1,1.6,4.1,4.2V834.1z M444.1,832.5
			c-0.1-0.7-0.8-1.2-1.5-1.2c-0.8,0-1.4,0.4-1.6,1.2H444.1z"/>
		<path id="XMLID_1566_" class="st4" d="M451.6,833.7l1.8-3.9h3l-4,7.6h-1.7l-4-7.6h3L451.6,833.7z"/>
		<path id="XMLID_1563_" class="st4" d="M459.9,826.9c0,0.8-0.7,1.5-1.5,1.5c-0.8,0-1.5-0.7-1.5-1.5c0-0.8,0.7-1.5,1.5-1.5
			C459.2,825.4,459.9,826.1,459.9,826.9z M459.7,837.4H457v-7.6h2.7V837.4z"/>
		<path id="XMLID_1561_" class="st4" d="M466.5,831.8c-0.4-0.2-1-0.4-1.4-0.4c-0.3,0-0.8,0.1-0.8,0.5c0,0.5,0.8,0.6,1.2,0.7
			c1.3,0.3,2.2,0.8,2.2,2.2c0,2-1.8,2.8-3.6,2.8c-1.1,0-2.1-0.3-3.1-0.9l1-1.9c0.5,0.4,1.5,0.8,2.1,0.8c0.3,0,0.8-0.2,0.8-0.6
			c0-0.6-0.8-0.6-1.7-0.8c-0.8-0.2-1.7-0.6-1.7-2c0-1.9,1.7-2.7,3.3-2.7c0.9,0,1.7,0.1,2.5,0.5L466.5,831.8z"/>
		<path id="XMLID_1558_" class="st4" d="M477.3,837.4h-2.7v-0.8h0c-0.5,0.8-1.4,1.1-2.3,1.1c-2.2,0-3.8-1.9-3.8-4c0-2.2,1.5-4,3.8-4
			c0.9,0,1.8,0.3,2.3,1v-0.7h2.7V837.4z M471.3,833.6c0,1,0.6,1.7,1.7,1.7c1.1,0,1.7-0.7,1.7-1.7c0-0.9-0.6-1.7-1.7-1.7
			C471.9,831.9,471.3,832.7,471.3,833.6z"/>
		<path id="XMLID_1556_" class="st4" d="M486.8,837.4h-2.7v-12.2h2.7V837.4z"/>
		<path id="XMLID_1553_" class="st4" d="M496.9,837.4h-2.7v-0.8h0c-0.5,0.8-1.4,1.1-2.3,1.1c-2.2,0-3.8-1.9-3.8-4c0-2.2,1.5-4,3.8-4
			c0.9,0,1.8,0.3,2.3,1v-0.7h2.7V837.4z M490.8,833.6c0,1,0.6,1.7,1.7,1.7c1.1,0,1.7-0.7,1.7-1.7c0-0.9-0.6-1.7-1.7-1.7
			C491.5,831.9,490.8,832.7,490.8,833.6z"/>
		<path id="XMLID_1551_" class="st4" d="M509.2,832.3c-0.4-0.3-0.9-0.5-1.4-0.5c-1,0-1.8,0.8-1.8,1.8c0,1.1,0.8,1.9,1.9,1.9
			c0.5,0,1-0.2,1.3-0.5v2.3c-0.6,0.3-1.2,0.4-1.9,0.4c-2.2,0-4.1-1.7-4.1-4c0-2.4,1.9-4.1,4.2-4.1c0.6,0,1.2,0.1,1.8,0.4V832.3z"/>
		<path id="XMLID_1548_" class="st4" d="M519.1,837.4h-2.7v-0.8h0c-0.5,0.8-1.4,1.1-2.3,1.1c-2.2,0-3.8-1.9-3.8-4c0-2.2,1.5-4,3.8-4
			c0.9,0,1.8,0.3,2.3,1v-0.7h2.7V837.4z M513.1,833.6c0,1,0.6,1.7,1.7,1.7c1.1,0,1.7-0.7,1.7-1.7c0-0.9-0.6-1.7-1.7-1.7
			C513.7,831.9,513.1,832.7,513.1,833.6z"/>
		<path id="XMLID_1546_" class="st4" d="M523.6,831.1L523.6,831.1c0.5-0.9,1.4-1.3,2.5-1.3h0.5v2.6c-0.4-0.2-0.7-0.3-1.1-0.3
			c-1.5,0-1.9,1-1.9,2.3v3.1h-2.7v-7.6h2.7V831.1z"/>
		<path id="XMLID_1543_" class="st4" d="M530.2,830.7L530.2,830.7c0.5-0.8,1.4-1.1,2.3-1.1c2.3,0,3.8,1.9,3.8,4.1c0,2.2-1.5,4-3.8,4
			c-0.9,0-1.8-0.3-2.3-1v4.5h-2.7v-11.3h2.7V830.7z M530.1,833.6c0,1,0.6,1.7,1.7,1.7c1.1,0,1.7-0.7,1.7-1.7c0-0.9-0.6-1.7-1.7-1.7
			C530.7,831.9,530.1,832.7,530.1,833.6z"/>
		<path id="XMLID_1540_" class="st4" d="M545.4,834.1h-5.6c0,1.1,0.6,1.7,1.7,1.7c0.6,0,1-0.2,1.3-0.7h2.6c-0.2,0.9-0.7,1.5-1.4,2
			c-0.7,0.4-1.5,0.6-2.4,0.6c-2.5,0-4.4-1.4-4.4-4c0-2.5,1.7-4,4.2-4c2.6,0,4.1,1.6,4.1,4.2V834.1z M542.9,832.5
			c-0.1-0.7-0.8-1.2-1.5-1.2c-0.8,0-1.4,0.4-1.6,1.2H542.9z"/>
		<path id="XMLID_1538_" class="st4" d="M549.6,837.4h-2.7v-5.4H546v-2.2h0.9v-2.3h2.7v2.3h1.5v2.2h-1.5V837.4z"/>
		<path id="XMLID_1535_" class="st4" d="M560.2,837.4h-2.7v-0.8h0c-0.5,0.8-1.4,1.1-2.3,1.1c-2.2,0-3.8-1.9-3.8-4c0-2.2,1.5-4,3.8-4
			c0.9,0,1.8,0.3,2.3,1v-0.7h2.7V837.4z M554.2,833.6c0,1,0.6,1.7,1.7,1.7c1.1,0,1.7-0.7,1.7-1.7c0-0.9-0.6-1.7-1.7-1.7
			C554.8,831.9,554.2,832.7,554.2,833.6z"/>
		<path id="XMLID_1533_" class="st4" d="M565.9,834.6l-2.7,4.9h-1.7l1.9-4.9H565.9z"/>
		<path id="XMLID_1530_" class="st4" d="M438.4,855.1h-3.6l-2.7-4.3h0v4.3h-2.9V844h4.3c2.2,0,3.9,1,3.9,3.4c0,1.5-0.9,2.9-2.4,3.1
			L438.4,855.1z M432,849h0.3c0.9,0,2-0.2,2-1.4c0-1.2-1.1-1.4-2-1.4H432V849z"/>
		<path id="XMLID_1527_" class="st4" d="M442,853.2l-0.8,1.9h-3.1l4.3-11.1h3.2l4.2,11.1h-3.1l-0.7-1.9H442z M444,847.4L444,847.4
			l-1.2,3.5h2.4L444,847.4z"/>
		<path id="XMLID_1525_" class="st4" d="M451.9,844h2.8l2.3,5.9l2.4-5.9h2.9l1.7,11.1h-2.9l-0.8-6.4h0l-2.7,6.4h-1.2l-2.6-6.4h0
			l-0.9,6.4H450L451.9,844z"/>
		<path id="XMLID_1523_" class="st4" d="M475.2,849.5c-0.4-0.2-1-0.4-1.4-0.4c-0.3,0-0.8,0.1-0.8,0.5c0,0.5,0.8,0.6,1.2,0.7
			c1.3,0.3,2.2,0.8,2.2,2.2c0,2-1.8,2.8-3.6,2.8c-1.1,0-2.1-0.3-3.1-0.9l1-1.9c0.5,0.4,1.5,0.8,2.1,0.8c0.3,0,0.8-0.2,0.8-0.6
			c0-0.6-0.8-0.6-1.7-0.8c-0.8-0.2-1.7-0.6-1.7-2c0-1.9,1.7-2.7,3.3-2.7c0.9,0,1.7,0.1,2.5,0.5L475.2,849.5z"/>
		<path id="XMLID_1520_" class="st4" d="M485.5,851.8h-5.6c0,1.1,0.6,1.7,1.7,1.7c0.6,0,1-0.2,1.3-0.7h2.6c-0.2,0.9-0.7,1.5-1.4,2
			c-0.7,0.4-1.5,0.6-2.4,0.6c-2.5,0-4.4-1.4-4.4-4c0-2.5,1.7-4,4.2-4c2.6,0,4.1,1.6,4.1,4.2V851.8z M483,850.2
			c-0.1-0.7-0.8-1.2-1.5-1.2c-0.8,0-1.4,0.4-1.6,1.2H483z"/>
		<path id="XMLID_1518_" class="st4" d="M489.4,855.1h-2.7v-12.2h2.7V855.1z"/>
		<path id="XMLID_1516_" class="st4" d="M493.9,855.1h-2.7v-12.2h2.7V855.1z"/>
		<path id="XMLID_1513_" class="st4" d="M503.9,855.1h-2.7v-0.8h0c-0.5,0.8-1.4,1.1-2.3,1.1c-2.2,0-3.8-1.9-3.8-4c0-2.2,1.5-4,3.8-4
			c0.9,0,1.8,0.3,2.3,1v-0.7h2.7V855.1z M497.9,851.3c0,1,0.6,1.7,1.7,1.7c1.1,0,1.7-0.7,1.7-1.7c0-0.9-0.6-1.7-1.7-1.7
			C498.5,849.6,497.9,850.4,497.9,851.3z"/>
		<path id="XMLID_1511_" class="st4" d="M509.7,847.5h3.1l2,3.9l2-3.9h3.1l-6.1,11.3h-3l2.6-4.8L509.7,847.5z"/>
		<path id="XMLID_1507_" class="st4" d="M528.3,855.1h-2.7v-5.4h-0.9v-2.2h0.9v-1c0-1,0-1.8,0.8-2.7c0.7-0.8,1.6-1.2,2.6-1.2
			c0.4,0,0.8,0.1,1.2,0.3v2.3c-0.3-0.1-0.6-0.3-0.9-0.3c-0.7,0-0.9,0.4-0.9,1.3v1.2h1.9v2.2h-1.9V855.1z M533.9,844.6
			c0,0.8-0.7,1.5-1.5,1.5c-0.8,0-1.5-0.7-1.5-1.5c0-0.8,0.7-1.5,1.5-1.5C533.2,843.1,533.9,843.8,533.9,844.6z M533.7,855.1H531
			v-7.6h2.7V855.1z"/>
		<path id="XMLID_1505_" class="st4" d="M538.2,848.8L538.2,848.8c0.5-0.9,1.4-1.3,2.5-1.3h0.5v2.6c-0.4-0.2-0.7-0.3-1.1-0.3
			c-1.5,0-1.9,1-1.9,2.3v3.1h-2.7v-7.6h2.7V848.8z"/>
		<path id="XMLID_1503_" class="st4" d="M544.8,848.5L544.8,848.5c0.7-0.8,1.4-1.2,2.4-1.2c1.1,0,2,0.4,2.6,1.4
			c0.5-0.9,1.5-1.4,2.6-1.4c1.9,0,2.6,1.3,2.6,3v4.8h-2.7v-3.6c0-0.8,0-2.1-1.1-2.1c-1.2,0-1.3,1.2-1.3,2.1v3.6h-2.7v-3.6
			c0-0.8,0-2.1-1.2-2.1c-1.2,0-1.2,1.3-1.2,2.1v3.6h-2.7v-7.6h2.7V848.5z"/>
		<path id="XMLID_1386_" class="st4" d="M565,855.1h-2.7v-0.8h0c-0.5,0.8-1.4,1.1-2.3,1.1c-2.2,0-3.8-1.9-3.8-4c0-2.2,1.5-4,3.8-4
			c0.9,0,1.8,0.3,2.3,1v-0.7h2.7V855.1z M559,851.3c0,1,0.6,1.7,1.7,1.7c1.1,0,1.7-0.7,1.7-1.7c0-0.9-0.6-1.7-1.7-1.7
			C559.6,849.6,559,850.4,559,851.3z"/>
	</g>
</g>
<rect id="XMLID_1478_" x="387.7" y="916.7" class="st3" width="223" height="101"/>
<g id="XMLID_21443_">
	<g>
		<path id="XMLID_1293_" class="st4" d="M458.1,957.7c-0.5-0.4-1.2-0.7-1.9-0.7c-0.5,0-1.2,0.3-1.2,0.9c0,0.6,0.8,0.9,1.3,1.1
			l0.7,0.2c1.5,0.5,2.7,1.2,2.7,3c0,1.1-0.3,2.2-1.2,3c-0.9,0.7-2,1-3.2,1c-1.4,0-2.8-0.5-3.9-1.3l1.2-2.3c0.7,0.6,1.6,1.2,2.6,1.2
			c0.7,0,1.4-0.3,1.4-1.1c0-0.8-1.1-1.1-1.8-1.3c-1.8-0.5-3-1-3-3.1c0-2.3,1.6-3.7,3.8-3.7c1.1,0,2.5,0.4,3.5,0.9L458.1,957.7z"/>
		<path id="XMLID_1291_" class="st4" d="M470.7,954.8v6.3c0,1.4-0.1,2.8-1.2,3.9c-0.9,0.9-2.4,1.2-3.7,1.2c-1.3,0-2.8-0.3-3.7-1.2
			c-1.1-1.1-1.2-2.5-1.2-3.9v-6.3h2.9v5.9c0,1.4,0.1,3,2,3c1.9,0,2-1.6,2-3v-5.9H470.7z"/>
		<path id="XMLID_1287_" class="st4" d="M472.5,965.9v-11.1h4.1c2,0,3.3,0.8,3.3,2.9c0,1-0.3,1.8-1.2,2.3v0c1.6,0.2,2.3,1.3,2.3,2.8
			c0,2.3-2,3.1-4,3.1H472.5z M475.4,959.2h0.3c0.8,0,1.6-0.1,1.6-1.1c0-1-0.9-1.1-1.7-1.1h-0.2V959.2z M475.4,963.7h0.4
			c0.9,0,2.3,0,2.3-1.2c0-1.3-1.4-1.2-2.4-1.2h-0.3V963.7z"/>
		<path id="XMLID_1284_" class="st4" d="M485.3,964l-0.8,1.9h-3.1l4.3-11.1h3.2l4.2,11.1h-3.1l-0.7-1.9H485.3z M487.4,958.3
			L487.4,958.3l-1.2,3.5h2.4L487.4,958.3z"/>
		<path id="XMLID_1282_" class="st4" d="M496.9,963.5h3.5v2.4H494v-11.1h2.9V963.5z"/>
		<path id="XMLID_1280_" class="st4" d="M509.3,958.5c-0.6-0.8-1.5-1.2-2.5-1.2c-1.8,0-3,1.4-3,3.1c0,1.8,1.2,3,3,3
			c0.9,0,1.9-0.5,2.5-1.2v3.5c-1,0.3-1.7,0.5-2.6,0.5c-1.5,0-3-0.6-4.2-1.6c-1.2-1.1-1.8-2.6-1.8-4.2c0-1.5,0.6-3,1.6-4.1
			c1.1-1.1,2.7-1.8,4.2-1.8c0.9,0,1.8,0.2,2.6,0.6V958.5z"/>
		<path id="XMLID_1277_" class="st4" d="M513.9,964l-0.8,1.9h-3.1l4.3-11.1h3.2l4.2,11.1h-3.1l-0.7-1.9H513.9z M515.9,958.3
			L515.9,958.3l-1.2,3.5h2.4L515.9,958.3z"/>
		<path id="XMLID_1275_" class="st4" d="M525.5,963.5h3.5v2.4h-6.4v-11.1h2.9V963.5z"/>
		<path id="XMLID_1272_" class="st4" d="M529.9,954.8h4.1c3.1,0,5.6,2.4,5.6,5.6c0,3.1-2.6,5.6-5.6,5.6h-4.1V954.8z M532.8,963.5
			h0.6c1.7,0,3.2-0.9,3.2-3.1c0-2-1.3-3.1-3.2-3.1h-0.7V963.5z"/>
		<path id="XMLID_1270_" class="st4" d="M543.9,957.3v1.9h3.3v2.4h-3.3v1.9h3.4v2.4H541v-11.1h6.3v2.4H543.9z"/>
		<path id="XMLID_1267_" class="st4" d="M403,981.7l-0.8,1.9h-3.1l4.3-11.1h3.2l4.2,11.1h-3.1l-0.7-1.9H403z M405,975.9L405,975.9
			l-1.2,3.5h2.4L405,975.9z"/>
		<path id="XMLID_1264_" class="st4" d="M414.2,976.9L414.2,976.9c0.5-0.8,1.4-1.1,2.3-1.1c2.3,0,3.8,1.9,3.8,4.1c0,2.2-1.5,4-3.8,4
			c-0.9,0-1.8-0.3-2.3-1v4.5h-2.7v-11.3h2.7V976.9z M414.1,979.9c0,1,0.6,1.7,1.7,1.7c1.1,0,1.7-0.7,1.7-1.7c0-0.9-0.6-1.7-1.7-1.7
			C414.8,978.1,414.1,978.9,414.1,979.9z"/>
		<path id="XMLID_1262_" class="st4" d="M424.4,977.3L424.4,977.3c0.5-0.9,1.4-1.3,2.5-1.3h0.5v2.6c-0.4-0.2-0.7-0.3-1.1-0.3
			c-1.5,0-1.9,1-1.9,2.3v3.1h-2.7v-7.6h2.7V977.3z"/>
		<path id="XMLID_1259_" class="st4" d="M436.6,979.9c0,2.6-2.1,4-4.6,4c-2.4,0-4.6-1.4-4.6-4s2.1-4,4.6-4
			C434.5,975.8,436.6,977.3,436.6,979.9z M430.4,979.9c0,1,0.6,1.7,1.7,1.7c1.1,0,1.7-0.7,1.7-1.7c0-0.9-0.6-1.7-1.7-1.7
			C431,978.1,430.4,978.9,430.4,979.9z"/>
		<path id="XMLID_1256_" class="st4" d="M437.8,971.4h2.7v5.4c0.6-0.7,1.5-1,2.3-1c2.2,0,3.8,1.9,3.8,4c0,2.2-1.6,4-3.8,4
			c-0.9,0-1.8-0.3-2.3-1.1h0v0.8h-2.7V971.4z M440.4,979.9c0,1,0.6,1.7,1.7,1.7c1.1,0,1.7-0.7,1.7-1.7c0-0.9-0.6-1.7-1.7-1.7
			C441,978.1,440.4,978.9,440.4,979.9z"/>
		<path id="XMLID_1253_" class="st4" d="M456.2,983.6h-2.7v-0.8h0c-0.5,0.8-1.4,1.1-2.3,1.1c-2.2,0-3.8-1.9-3.8-4s1.5-4,3.8-4
			c0.9,0,1.8,0.3,2.3,1v-0.7h2.7V983.6z M450.1,979.9c0,1,0.6,1.7,1.7,1.7c1.1,0,1.7-0.7,1.7-1.7c0-0.9-0.6-1.7-1.7-1.7
			C450.8,978.1,450.1,978.9,450.1,979.9z"/>
		<path id="XMLID_1251_" class="st4" d="M463.4,978.5c-0.4-0.3-0.9-0.5-1.4-0.5c-1,0-1.8,0.8-1.8,1.8c0,1.1,0.8,1.9,1.9,1.9
			c0.5,0,1-0.2,1.3-0.5v2.3c-0.6,0.3-1.2,0.4-1.9,0.4c-2.2,0-4.1-1.7-4.1-4c0-2.4,1.9-4.1,4.2-4.1c0.6,0,1.2,0.1,1.8,0.4V978.5z"/>
		<path id="XMLID_1248_" class="st4" d="M467.9,973.2c0,0.8-0.7,1.5-1.5,1.5c-0.8,0-1.5-0.7-1.5-1.5c0-0.8,0.7-1.5,1.5-1.5
			C467.3,971.7,467.9,972.3,467.9,973.2z M467.8,983.6h-2.7v-7.6h2.7V983.6z"/>
		<path id="XMLID_1244_" class="st4" d="M478.1,979.9c0,2.6-2.1,4-4.6,4c-2.4,0-4.6-1.4-4.6-4s2.1-4,4.6-4
			C476,975.8,478.1,977.3,478.1,979.9z M471.8,979.9c0,1,0.6,1.7,1.7,1.7c1.1,0,1.7-0.7,1.7-1.7c0-0.9-0.6-1.7-1.7-1.7
			C472.4,978.1,471.8,978.9,471.8,979.9z M473.2,974.9l-1.2-0.9l2.1-2.5l1.6,1.2L473.2,974.9z"/>
		<path id="XMLID_1242_" class="st4" d="M482,977L482,977c0.6-0.9,1.4-1.2,2.4-1.2c2,0,2.8,1.3,2.8,3.1v4.7h-2.7v-3.7
			c0-0.7,0.1-2-1.2-2c-1.1,0-1.4,0.8-1.4,1.8v3.9h-2.7v-7.6h2.7V977z"/>
		<path id="XMLID_1238_" class="st4" d="M497,983.6h-2.7v-5.4h-0.9v-2.2h0.9v-1c0-1,0-1.8,0.8-2.7c0.7-0.8,1.6-1.2,2.6-1.2
			c0.4,0,0.8,0.1,1.2,0.3v2.3c-0.3-0.1-0.6-0.3-0.9-0.3c-0.7,0-0.9,0.4-0.9,1.3v1.2h1.9v2.2H497V983.6z M502.5,973.2
			c0,0.8-0.7,1.5-1.5,1.5c-0.8,0-1.5-0.7-1.5-1.5c0-0.8,0.7-1.5,1.5-1.5C501.8,971.7,502.5,972.3,502.5,973.2z M502.3,983.6h-2.7
			v-7.6h2.7V983.6z"/>
		<path id="XMLID_1236_" class="st4" d="M506.8,977.3L506.8,977.3c0.5-0.9,1.4-1.3,2.5-1.3h0.5v2.6c-0.4-0.2-0.7-0.3-1.1-0.3
			c-1.5,0-1.9,1-1.9,2.3v3.1h-2.7v-7.6h2.7V977.3z"/>
		<path id="XMLID_1234_" class="st4" d="M513.5,977L513.5,977c0.7-0.8,1.4-1.2,2.4-1.2c1.1,0,2,0.4,2.6,1.4c0.5-0.9,1.5-1.4,2.6-1.4
			c1.9,0,2.6,1.3,2.6,3v4.8h-2.7V980c0-0.8,0-2.1-1.1-2.1c-1.2,0-1.3,1.2-1.3,2.1v3.6h-2.7V980c0-0.8,0-2.1-1.2-2.1
			c-1.2,0-1.2,1.3-1.2,2.1v3.6h-2.7v-7.6h2.7V977z"/>
		<path id="XMLID_1231_" class="st4" d="M533.7,983.6H531v-0.8h0c-0.5,0.8-1.4,1.1-2.3,1.1c-2.2,0-3.8-1.9-3.8-4s1.5-4,3.8-4
			c0.9,0,1.8,0.3,2.3,1v-0.7h2.7V983.6z M527.6,979.9c0,1,0.6,1.7,1.7,1.7c1.1,0,1.7-0.7,1.7-1.7c0-0.9-0.6-1.7-1.7-1.7
			C528.2,978.1,527.6,978.9,527.6,979.9z"/>
		<path id="XMLID_1229_" class="st4" d="M539.4,976.1h3.1l2,3.9l2-3.9h3.1l-6.1,11.3h-3l2.6-4.8L539.4,976.1z"/>
		<path id="XMLID_1110_" class="st4" d="M560.2,978c-0.4-0.2-1-0.4-1.4-0.4c-0.3,0-0.8,0.1-0.8,0.5c0,0.5,0.8,0.6,1.2,0.7
			c1.3,0.3,2.2,0.8,2.2,2.2c0,2-1.8,2.8-3.6,2.8c-1.1,0-2.1-0.3-3.1-0.9l1-1.9c0.5,0.4,1.5,0.8,2.1,0.8c0.3,0,0.8-0.2,0.8-0.6
			c0-0.6-0.8-0.6-1.7-0.8c-0.8-0.2-1.7-0.6-1.7-2c0-1.9,1.7-2.7,3.3-2.7c0.9,0,1.7,0.1,2.5,0.5L560.2,978z"/>
		<path id="XMLID_1107_" class="st4" d="M570.5,980.3h-5.6c0,1.1,0.6,1.7,1.7,1.7c0.6,0,1-0.2,1.3-0.7h2.6c-0.2,0.9-0.7,1.5-1.4,2
			c-0.7,0.4-1.5,0.6-2.4,0.6c-2.5,0-4.4-1.4-4.4-4c0-2.5,1.7-4,4.2-4c2.6,0,4.1,1.6,4.1,4.2V980.3z M568,978.7
			c-0.1-0.7-0.8-1.2-1.5-1.2c-0.8,0-1.4,0.4-1.6,1.2H568z"/>
		<path id="XMLID_1105_" class="st4" d="M574.4,983.6h-2.7v-12.2h2.7V983.6z"/>
		<path id="XMLID_1103_" class="st4" d="M578.9,983.6h-2.7v-12.2h2.7V983.6z"/>
		<path id="XMLID_1100_" class="st4" d="M588.9,983.6h-2.7v-0.8h0c-0.5,0.8-1.4,1.1-2.3,1.1c-2.2,0-3.8-1.9-3.8-4s1.5-4,3.8-4
			c0.9,0,1.8,0.3,2.3,1v-0.7h2.7V983.6z M582.9,979.9c0,1,0.6,1.7,1.7,1.7c1.1,0,1.7-0.7,1.7-1.7c0-0.9-0.6-1.7-1.7-1.7
			C583.5,978.1,582.9,978.9,582.9,979.9z"/>
	</g>
</g>
<polygon id="XMLID_1475_" class="st5" points="391,50.7 381.6,56.1 372.2,61.5 372.2,50.7 372.2,39.8 381.6,45.3 "/>
<polygon id="XMLID_1474_" class="st5" points="497.5,135.7 492.1,126.3 486.7,116.9 497.5,116.9 508.4,116.9 503,126.3 "/>
<polygon id="XMLID_1473_" class="st5" points="610.7,183.7 620.1,178.2 629.5,172.8 629.5,183.7 629.5,194.5 620.1,189.1 "/>
<polygon id="XMLID_1472_" class="st5" points="610.7,50.7 620.1,45.3 629.5,39.8 629.5,50.7 629.5,61.5 620.1,56.1 "/>
<polygon id="XMLID_1471_" class="st5" points="610.7,312.5 620.1,307.1 629.5,301.7 629.5,312.5 629.5,323.4 620.1,318 "/>
<polygon id="XMLID_1470_" class="st5" points="663.5,183.7 654.1,189.1 644.7,194.5 644.7,183.7 644.7,172.8 654.1,178.2 "/>
<polygon id="XMLID_1469_" class="st5" points="775.1,126.3 769.7,116.9 764.3,107.5 775.1,107.5 786,107.5 780.6,116.9 "/>
<polygon id="XMLID_1468_" class="st5" points="775.1,237.7 780.6,247.1 786,256.5 775.1,256.5 764.3,256.5 769.7,247.1 "/>
<polygon id="XMLID_1467_" class="st5" points="497.5,265.9 492.1,256.5 486.7,247.1 497.5,247.1 508.4,247.1 503,256.5 "/>
<polygon id="XMLID_1466_" class="st5" points="497.5,396.2 492.1,386.8 486.7,377.4 497.5,377.4 508.4,377.4 503,386.8 "/>
<polygon id="XMLID_1464_" class="st5" points="497.5,526.4 492.1,517 486.7,507.6 497.5,507.6 508.4,507.6 503,517 "/>
<polygon id="XMLID_1462_" class="st5" points="497.5,656.6 492.1,647.3 486.7,637.9 497.5,637.9 508.4,637.9 503,647.3 "/>
<polygon id="XMLID_504_" class="st5" points="497.5,786.9 492.1,777.5 486.7,768.1 497.5,768.1 508.4,768.1 503,777.5 "/>
<polygon id="XMLID_503_" class="st5" points="497.5,917.1 492.1,907.7 486.7,898.3 497.5,898.3 508.4,898.3 503,907.7 "/>
<polygon id="XMLID_502_" class="st5" points="211.1,609 205.7,599.6 200.2,590.2 211.1,590.2 222,590.2 216.5,599.6 "/>
<polygon id="XMLID_501_" class="st5" points="211.1,712.3 216.5,721.7 222,731.1 211.1,731.1 200.2,731.1 205.7,721.7 "/>
<line id="XMLID_500_" class="st0" x1="211.1" y1="505.2" x2="211.1" y2="606.3"/>
<polyline id="XMLID_498_" class="st0" points="211.1,721.7 211.1,967.2 387.7,967.2 "/>
<polyline id="XMLID_497_" class="st0" points="322.6,660.8 354.8,660.8 354.8,50.1 387.7,50.1 "/>
<line id="XMLID_495_" class="st0" x1="616" y1="183.7" x2="656.2" y2="183.7"/>
<polyline id="XMLID_494_" class="st0" points="620.1,50.7 775.1,50.7 775.1,120.2 "/>
<polyline id="XMLID_493_" class="st0" points="775.1,242.2 775.1,312.5 624.2,312.5 "/>
</svg>
