<?xml version="1.0" encoding="utf-8"?>
<!-- Generator: Adobe Illustrator 21.0.2, SVG Export Plug-In . SVG Version: 6.00 Build 0)  -->
<svg version="1.1" id="Layer_1" xmlns="http://www.w3.org/2000/svg" xmlns:xlink="http://www.w3.org/1999/xlink" x="0px" y="0px"
	 viewBox="0 0 998.6 1148.4" style="enable-background:new 0 0 998.6 1148.4;" xml:space="preserve">
<style type="text/css">
	.st0{fill:none;stroke:#E42527;stroke-width:4;stroke-miterlimit:10;}
	.st1{fill:#95D4E7;}
	.st2{fill:#9D9D9C;}
	.st3{fill:#D81117;}
	.st4{fill:#FFFFFF;}
	.st5{fill:#575756;}
	.st6{fill:#E42527;}
</style>
<line class="st0" x1="497.2" y1="1038.9" x2="497.2" y2="1092.7"/>
<line class="st0" x1="274.3" y1="1015.7" x2="753.8" y2="1015.7"/>
<polyline class="st0" points="679.4,623.5 210.1,623.5 210.1,1027.9 "/>
<line id="XMLID_92_" class="st0" x1="780.6" y1="56.9" x2="780.6" y2="637.4"/>
<rect id="XMLID_90_" x="662.9" y="0.5" class="st1" width="235.4" height="56.4"/>
<rect id="XMLID_89_" x="662.8" y="96" class="st2" width="235.5" height="63.1"/>
<rect id="XMLID_88_" x="388.4" y="593.6" class="st3" width="222.5" height="59.8"/>
<g>
	<g>
		<path class="st4" d="M466.7,620.6h-3.6l-2.7-4.3h0v4.3h-2.9v-11.1h4.3c2.2,0,3.9,1,3.9,3.4c0,1.5-0.9,2.9-2.4,3.1L466.7,620.6z
			 M460.4,614.5h0.3c0.9,0,2-0.2,2-1.4c0-1.2-1.1-1.4-2-1.4h-0.3V614.5z"/>
		<path class="st4" d="M470.4,611.9v1.9h3.3v2.4h-3.3v1.9h3.4v2.4h-6.3v-11.1h6.3v2.4H470.4z"/>
		<path class="st4" d="M486.6,614.4c0,1.6-0.1,3-1.1,4.4c-1.1,1.5-2.7,2.2-4.6,2.2c-3.5,0-5.9-2.4-5.9-5.9c0-3.6,2.4-6,6-6
			c2.3,0,4,1,5,3.1l-2.7,1.1c-0.4-1.1-1.2-1.8-2.4-1.8c-1.9,0-2.9,1.8-2.9,3.5c0,1.7,1,3.5,2.9,3.5c1.3,0,2.2-0.6,2.3-1.9h-2.4v-2.3
			H486.6z"/>
		<path class="st4" d="M490.8,620.6H488v-11.1h2.9V620.6z"/>
		<path class="st4" d="M498.8,612.4c-0.5-0.4-1.2-0.7-1.9-0.7c-0.5,0-1.2,0.3-1.2,0.9c0,0.6,0.8,0.9,1.3,1.1l0.7,0.2
			c1.5,0.5,2.7,1.2,2.7,3c0,1.1-0.3,2.2-1.1,3c-0.9,0.7-2,1-3.1,1c-1.4,0-2.8-0.5-3.9-1.3l1.2-2.3c0.7,0.6,1.6,1.1,2.6,1.1
			c0.7,0,1.4-0.3,1.4-1.1c0-0.8-1.1-1.1-1.8-1.3c-1.8-0.5-3-1-3-3.1c0-2.3,1.6-3.7,3.8-3.7c1.1,0,2.5,0.4,3.5,0.9L498.8,612.4z"/>
		<path class="st4" d="M506.2,620.6h-2.9v-8.7h-2.4v-2.4h7.7v2.4h-2.4V620.6z"/>
		<path class="st4" d="M518.8,620.6h-3.6l-2.7-4.3h0v4.3h-2.9v-11.1h4.3c2.2,0,3.9,1,3.9,3.4c0,1.5-0.9,2.9-2.4,3.1L518.8,620.6z
			 M512.5,614.5h0.3c0.9,0,2-0.2,2-1.4c0-1.2-1.1-1.4-2-1.4h-0.3V614.5z"/>
		<path class="st4" d="M531.3,614.8c0,3.6-2.6,6.1-6.1,6.1c-3.6,0-6.1-2.5-6.1-6.1c0-3.4,2.9-5.7,6.1-5.7
			C528.4,609.1,531.3,611.5,531.3,614.8z M522.1,614.9c0,1.9,1.4,3.3,3.1,3.3c1.7,0,3.1-1.4,3.1-3.3c0-1.5-1.4-2.9-3.1-2.9
			C523.5,611.9,522.1,613.3,522.1,614.9z"/>
		<path class="st4" d="M458.3,630.9c-0.6-0.8-1.5-1.2-2.5-1.2c-1.8,0-3,1.4-3,3.1c0,1.8,1.2,3,3,3c0.9,0,1.9-0.5,2.5-1.2v3.5
			c-1,0.3-1.6,0.5-2.5,0.5c-1.5,0-3-0.6-4.2-1.6c-1.2-1.1-1.8-2.5-1.8-4.2c0-1.5,0.6-3,1.6-4.1c1.1-1.1,2.7-1.8,4.2-1.8
			c0.9,0,1.8,0.2,2.6,0.6V630.9z"/>
		<path class="st4" d="M462.9,636.3l-0.8,1.9H459l4.3-11.1h3.1l4.2,11.1h-3.1l-0.7-1.9H462.9z M464.9,630.6L464.9,630.6l-1.2,3.5
			h2.4L464.9,630.6z"/>
		<path class="st4" d="M475.1,638.3h-2.9v-8.7h-2.4v-2.4h7.7v2.4h-2.4V638.3z"/>
		<path class="st4" d="M480.4,636.3l-0.8,1.9h-3.1l4.3-11.1h3.1l4.2,11.1h-3.1l-0.7-1.9H480.4z M482.4,630.6L482.4,630.6l-1.2,3.5
			h2.4L482.4,630.6z"/>
		<path class="st4" d="M495.2,630c-0.5-0.4-1.2-0.7-1.9-0.7c-0.5,0-1.2,0.3-1.2,0.9c0,0.6,0.8,0.9,1.3,1.1l0.7,0.2
			c1.5,0.5,2.7,1.2,2.7,3c0,1.1-0.3,2.2-1.1,3c-0.9,0.7-2,1-3.1,1c-1.4,0-2.8-0.5-3.9-1.3l1.2-2.3c0.7,0.6,1.6,1.1,2.6,1.1
			c0.7,0,1.4-0.3,1.4-1.1c0-0.8-1.1-1.1-1.8-1.3c-1.8-0.5-3-1-3-3.1c0-2.3,1.6-3.7,3.8-3.7c1.1,0,2.5,0.4,3.5,0.9L495.2,630z"/>
		<path class="st4" d="M502.6,638.3h-2.9v-8.7h-2.4v-2.4h7.7v2.4h-2.4V638.3z"/>
		<path class="st4" d="M515.2,638.3h-3.6l-2.7-4.3h0v4.3H506v-11.1h4.3c2.2,0,3.9,1,3.9,3.4c0,1.5-0.9,2.9-2.4,3.1L515.2,638.3z
			 M508.9,632.1h0.3c0.9,0,2-0.2,2-1.4c0-1.2-1.1-1.4-2-1.4h-0.3V632.1z"/>
		<path class="st4" d="M518.8,636.3l-0.8,1.9H515l4.3-11.1h3.1l4.2,11.1h-3.1l-0.7-1.9H518.8z M520.8,630.6L520.8,630.6l-1.2,3.5
			h2.4L520.8,630.6z"/>
		<path class="st4" d="M530.4,635.8h3.5v2.4h-6.3v-11.1h2.9V635.8z"/>
	</g>
</g>
<g>
	<g>
		<path class="st5" d="M700,23.4h6.6c3.6,0,6,1.6,6,5.5c0,3.9-2.1,5.6-5.9,5.6h-2.4V40H700V23.4z M704.3,31h0.7c1.6,0,3.1,0,3.1-2
			c0-2.1-1.4-2.1-3.1-2.1h-0.7V31z"/>
		<path class="st5" d="M728.3,40H723l-4.1-6.4h0V40h-4.3V23.4h6.4c3.3,0,5.8,1.6,5.8,5.1c0,2.3-1.3,4.3-3.6,4.7L728.3,40z
			 M718.9,30.8h0.4c1.4,0,3-0.3,3-2.1c0-1.8-1.6-2.1-3-2.1h-0.4V30.8z"/>
		<path class="st5" d="M747,31.4c0,5.4-3.8,9.1-9.2,9.1s-9.2-3.8-9.2-9.1c0-5,4.4-8.5,9.2-8.5S747,26.4,747,31.4z M733.1,31.4
			c0,2.9,2.1,4.9,4.7,4.9s4.7-2.1,4.7-4.9c0-2.3-2.1-4.4-4.7-4.4S733.1,29.1,733.1,31.4z"/>
		<path class="st5" d="M749,23.4h6.6c3.6,0,6,1.6,6,5.5c0,3.9-2.1,5.6-5.9,5.6h-2.4V40H749V23.4z M753.3,31h0.7c1.6,0,3.1,0,3.1-2
			c0-2.1-1.4-2.1-3.1-2.1h-0.7V31z"/>
		<path class="st5" d="M767.9,40h-4.3V23.4h4.3V40z"/>
		<path class="st5" d="M775,27.1v2.8h4.9v3.7H775v2.9h5.1V40h-9.4V23.4h9.4v3.7H775z"/>
		<path class="st5" d="M789.4,40h-4.3V27.1h-3.6v-3.7h11.4v3.7h-3.6V40z"/>
		<path class="st5" d="M797.4,37.1l-1.1,2.9h-4.6l6.4-16.6h4.7L809,40h-4.6l-1.1-2.9H797.4z M800.4,28.5L800.4,28.5l-1.8,5.3h3.6
			L800.4,28.5z"/>
		<path class="st5" d="M824.1,40h-5.4l-4.1-6.4h0V40h-4.3V23.4h6.4c3.3,0,5.8,1.6,5.8,5.1c0,2.3-1.3,4.3-3.6,4.7L824.1,40z
			 M814.7,30.8h0.4c1.4,0,3-0.3,3-2.1c0-1.8-1.6-2.1-3-2.1h-0.4V30.8z"/>
		<path class="st5" d="M829.6,40h-4.3V23.4h4.3V40z"/>
		<path class="st5" d="M849.9,31.4c0,5.4-3.8,9.1-9.2,9.1c-5.3,0-9.2-3.8-9.2-9.1c0-5,4.4-8.5,9.2-8.5
			C845.5,22.9,849.9,26.4,849.9,31.4z M836.1,31.4c0,2.9,2.1,4.9,4.7,4.9c2.6,0,4.7-2.1,4.7-4.9c0-2.3-2.1-4.4-4.7-4.4
			C838.2,27,836.1,29.1,836.1,31.4z"/>
	</g>
</g>
<rect id="XMLID_81_" x="387.5" y="1088.8" class="st1" width="222.6" height="56.4"/>
<g>
	<g>
		<path class="st5" d="M419,1111.8h6.6c3.6,0,6,1.6,6,5.5c0,3.9-2.1,5.6-5.9,5.6h-2.4v5.5H419V1111.8z M423.3,1119.4h0.7
			c1.6,0,3.1,0,3.1-2c0-2.1-1.4-2.1-3.1-2.1h-0.7V1119.4z"/>
		<path class="st5" d="M447.3,1128.4H442l-4.1-6.4h0v6.4h-4.3v-16.6h6.4c3.3,0,5.8,1.6,5.8,5.1c0,2.3-1.3,4.3-3.6,4.7L447.3,1128.4z
			 M437.9,1119.2h0.4c1.4,0,3-0.3,3-2.1c0-1.8-1.6-2.1-3-2.1h-0.4V1119.2z"/>
		<path class="st5" d="M466,1119.8c0,5.4-3.8,9.1-9.2,9.1c-5.3,0-9.2-3.8-9.2-9.1c0-5,4.4-8.5,9.2-8.5
			C461.6,1111.2,466,1114.7,466,1119.8z M452.2,1119.8c0,2.9,2.1,4.9,4.7,4.9c2.6,0,4.7-2.1,4.7-4.9c0-2.3-2.1-4.4-4.7-4.4
			C454.3,1115.4,452.2,1117.5,452.2,1119.8z"/>
		<path class="st5" d="M468,1111.8h6.6c3.6,0,6,1.6,6,5.5c0,3.9-2.1,5.6-5.9,5.6h-2.4v5.5H468V1111.8z M472.3,1119.4h0.7
			c1.6,0,3.1,0,3.1-2c0-2.1-1.4-2.1-3.1-2.1h-0.7V1119.4z"/>
		<path class="st5" d="M486.9,1128.4h-4.3v-16.6h4.3V1128.4z"/>
		<path class="st5" d="M494,1115.4v2.8h4.9v3.7H494v2.9h5.1v3.7h-9.4v-16.6h9.4v3.7H494z"/>
		<path class="st5" d="M508.4,1128.4h-4.3v-12.9h-3.6v-3.7h11.4v3.7h-3.6V1128.4z"/>
		<path class="st5" d="M516.4,1125.5l-1.1,2.9h-4.6l6.4-16.6h4.7l6.2,16.6h-4.6l-1.1-2.9H516.4z M519.4,1116.9L519.4,1116.9
			l-1.8,5.3h3.6L519.4,1116.9z"/>
		<path class="st5" d="M543.1,1128.4h-5.4l-4.1-6.4h0v6.4h-4.3v-16.6h6.4c3.3,0,5.8,1.6,5.8,5.1c0,2.3-1.3,4.3-3.6,4.7L543.1,1128.4
			z M533.7,1119.2h0.4c1.4,0,3-0.3,3-2.1c0-1.8-1.6-2.1-3-2.1h-0.4V1119.2z"/>
		<path class="st5" d="M548.6,1128.4h-4.3v-16.6h4.3V1128.4z"/>
		<path class="st5" d="M568.9,1119.8c0,5.4-3.8,9.1-9.2,9.1c-5.3,0-9.2-3.8-9.2-9.1c0-5,4.4-8.5,9.2-8.5
			C564.5,1111.2,568.9,1114.7,568.9,1119.8z M555.1,1119.8c0,2.9,2.1,4.9,4.7,4.9c2.6,0,4.7-2.1,4.7-4.9c0-2.3-2.1-4.4-4.7-4.4
			C557.2,1115.4,555.1,1117.5,555.1,1119.8z"/>
	</g>
</g>
<g>
	<path class="st3" d="M439.8,28.7H432l-5.9-9.3H426v9.3h-6.3V4.5h9.4c4.8,0,8.4,2.3,8.4,7.4c0,3.3-1.9,6.2-5.3,6.8L439.8,28.7z
		 M426,15.3h0.6c2.1,0,4.4-0.4,4.4-3s-2.3-3-4.4-3H426V15.3z"/>
	<path class="st3" d="M447.8,9.8v4h7.1v5.3h-7.1v4.2h7.5v5.3h-13.8V4.5h13.8v5.3H447.8z"/>
	<path class="st3" d="M483.3,15.2c-0.1,3.5-0.3,6.5-2.5,9.6c-2.4,3.3-5.9,4.7-10,4.7c-7.6,0-12.9-5.2-12.9-12.8
		c0-7.9,5.3-13,13.1-13c5,0,8.8,2.2,10.9,6.8l-6,2.5c-0.9-2.3-2.7-3.8-5.2-3.8c-4.1,0-6.3,3.9-6.3,7.6c0,3.8,2.2,7.6,6.4,7.6
		c2.7,0,4.8-1.4,5.1-4.2h-5.1v-4.9H483.3z"/>
	<path class="st3" d="M492.4,28.7h-6.3V4.5h6.3V28.7z"/>
	<path class="st3" d="M509.8,10.7c-1.2-1-2.6-1.6-4.2-1.6c-1.2,0-2.7,0.7-2.7,2c0,1.4,1.7,2,2.8,2.3l1.6,0.5c3.4,1,6,2.7,6,6.6
		c0,2.4-0.6,4.9-2.5,6.5c-1.9,1.6-4.4,2.3-6.9,2.3c-3,0-6-1-8.5-2.8l2.7-5.1c1.6,1.4,3.4,2.5,5.6,2.5c1.5,0,3-0.7,3-2.4
		c0-1.8-2.5-2.4-3.8-2.8c-3.9-1.1-6.5-2.1-6.5-6.8c0-4.9,3.5-8.1,8.3-8.1c2.4,0,5.4,0.8,7.6,2L509.8,10.7z"/>
	<path class="st3" d="M525.9,28.7h-6.3V9.8h-5.2V4.5h16.7v5.3h-5.2V28.7z"/>
	<path class="st3" d="M553.5,28.7h-7.8l-5.9-9.3h-0.1v9.3h-6.3V4.5h9.4c4.8,0,8.4,2.3,8.4,7.4c0,3.3-1.9,6.2-5.3,6.8L553.5,28.7z
		 M539.7,15.3h0.6c2.1,0,4.4-0.4,4.4-3s-2.3-3-4.4-3h-0.6V15.3z"/>
	<path class="st3" d="M580.7,16.1c0,7.8-5.6,13.3-13.4,13.3c-7.8,0-13.4-5.5-13.4-13.3c0-7.3,6.4-12.4,13.4-12.4
		C574.3,3.7,580.7,8.8,580.7,16.1z M560.5,16.1c0,4.2,3.1,7.2,6.8,7.2c3.8,0,6.8-3,6.8-7.2c0-3.3-3.1-6.4-6.8-6.4
		C563.6,9.8,560.5,12.8,560.5,16.1z"/>
	<path class="st3" d="M426.9,51.1c-1.3-1.7-3.4-2.7-5.5-2.7c-3.8,0-6.4,3-6.4,6.7c0,3.8,2.6,6.6,6.5,6.6c2.1,0,4.1-1,5.4-2.6v7.5
		c-2.1,0.6-3.6,1.1-5.5,1.1c-3.4,0-6.6-1.3-9.1-3.6c-2.7-2.4-3.9-5.5-3.9-9.1c0-3.3,1.3-6.5,3.6-8.9c2.4-2.4,5.8-3.9,9.2-3.9
		c2,0,3.9,0.4,5.7,1.2V51.1z"/>
	<path class="st3" d="M436.9,63l-1.7,4.2h-6.7l9.3-24.2h6.9l9.1,24.2h-6.7l-1.6-4.2H436.9z M441.3,50.4L441.3,50.4l-2.7,7.7h5.2
		L441.3,50.4z"/>
	<path class="st3" d="M463.5,67.2h-6.3V48.3H452V43h16.7v5.3h-5.2V67.2z"/>
	<path class="st3" d="M475.2,63l-1.7,4.2h-6.7l9.3-24.2h6.9l9.1,24.2h-6.7l-1.6-4.2H475.2z M479.6,50.4L479.6,50.4l-2.7,7.7h5.2
		L479.6,50.4z"/>
	<path class="st3" d="M507.4,49.2c-1.2-1-2.6-1.6-4.2-1.6c-1.2,0-2.7,0.7-2.7,2c0,1.4,1.7,2,2.8,2.3l1.6,0.5c3.4,1,6,2.7,6,6.6
		c0,2.4-0.6,4.9-2.5,6.5c-1.9,1.6-4.4,2.3-6.9,2.3c-3,0-6-1-8.5-2.8l2.7-5.1c1.6,1.4,3.4,2.5,5.6,2.5c1.5,0,3-0.7,3-2.4
		c0-1.8-2.5-2.4-3.8-2.8c-3.9-1.1-6.5-2.1-6.5-6.8c0-4.9,3.5-8.1,8.3-8.1c2.4,0,5.4,0.8,7.6,2L507.4,49.2z"/>
	<path class="st3" d="M523.5,67.2h-6.3V48.3H512V43h16.7v5.3h-5.2V67.2z"/>
	<path class="st3" d="M551.1,67.2h-7.8l-5.9-9.3h-0.1v9.3H531V43h9.4c4.8,0,8.4,2.3,8.4,7.4c0,3.3-1.9,6.2-5.3,6.8L551.1,67.2z
		 M537.3,53.8h0.6c2.1,0,4.4-0.4,4.4-3s-2.3-3-4.4-3h-0.6V53.8z"/>
	<path class="st3" d="M559,63l-1.7,4.2h-6.7l9.3-24.2h6.9l9.1,24.2h-6.7l-1.6-4.2H559z M563.4,50.4L563.4,50.4l-2.7,7.7h5.2
		L563.4,50.4z"/>
	<path class="st3" d="M584.1,61.8h7.5v5.3h-13.8V43h6.3V61.8z"/>
</g>
<g>
	<g>
		<path class="st4" d="M730.2,114.4h-3.6l-2.7-4.3h0v4.3H721v-11.1h4.3c2.2,0,3.9,1,3.9,3.4c0,1.5-0.9,2.9-2.4,3.1L730.2,114.4z
			 M723.9,108.2h0.3c0.9,0,2-0.2,2-1.4s-1.1-1.4-2-1.4h-0.3V108.2z"/>
		<path class="st4" d="M738.7,111h-5.6c0,1.1,0.6,1.7,1.7,1.7c0.6,0,1-0.2,1.3-0.7h2.6c-0.2,0.9-0.7,1.5-1.4,2
			c-0.7,0.4-1.5,0.6-2.4,0.6c-2.5,0-4.4-1.4-4.4-4c0-2.5,1.7-4,4.2-4c2.6,0,4.1,1.6,4.1,4.2V111z M736.2,109.5
			c-0.1-0.7-0.8-1.2-1.5-1.2c-0.8,0-1.4,0.4-1.6,1.2H736.2z"/>
		<path class="st4" d="M744.9,108.8c-0.4-0.2-1-0.4-1.4-0.4c-0.3,0-0.8,0.1-0.8,0.5c0,0.5,0.8,0.6,1.2,0.7c1.3,0.3,2.2,0.8,2.2,2.2
			c0,2-1.8,2.8-3.6,2.8c-1.1,0-2.1-0.3-3-0.9l1-1.9c0.5,0.4,1.5,0.8,2.1,0.8c0.3,0,0.8-0.2,0.8-0.6c0-0.6-0.8-0.6-1.7-0.8
			c-0.8-0.2-1.7-0.6-1.7-2c0-1.9,1.7-2.7,3.3-2.7c0.9,0,1.7,0.1,2.5,0.5L744.9,108.8z"/>
		<path class="st4" d="M750.1,107.7L750.1,107.7c0.5-0.8,1.4-1.1,2.3-1.1c2.3,0,3.8,1.9,3.8,4c0,2.2-1.5,4-3.8,4
			c-0.9,0-1.8-0.3-2.3-1v4.5h-2.7v-11.3h2.7V107.7z M750,110.6c0,1,0.6,1.7,1.7,1.7c1.1,0,1.7-0.7,1.7-1.7c0-0.9-0.6-1.7-1.7-1.7
			C750.6,108.9,750,109.7,750,110.6z"/>
		<path class="st4" d="M766,110.6c0,2.6-2.1,4-4.5,4c-2.4,0-4.5-1.4-4.5-4s2.1-4,4.5-4C763.9,106.6,766,108,766,110.6z M759.8,110.6
			c0,1,0.6,1.7,1.7,1.7c1.1,0,1.7-0.7,1.7-1.7c0-0.9-0.6-1.7-1.7-1.7C760.4,108.9,759.8,109.7,759.8,110.6z"/>
		<path class="st4" d="M769.9,107.8L769.9,107.8c0.6-0.9,1.4-1.2,2.4-1.2c2,0,2.8,1.3,2.8,3.1v4.7h-2.7v-3.7c0-0.7,0.1-2-1.2-2
			c-1.1,0-1.4,0.8-1.4,1.8v3.9h-2.7v-7.5h2.7V107.8z"/>
		<path class="st4" d="M782,108.8c-0.4-0.2-1-0.4-1.4-0.4c-0.3,0-0.8,0.1-0.8,0.5c0,0.5,0.8,0.6,1.2,0.7c1.3,0.3,2.2,0.8,2.2,2.2
			c0,2-1.8,2.8-3.6,2.8c-1.1,0-2.1-0.3-3-0.9l1-1.9c0.5,0.4,1.5,0.8,2.1,0.8c0.3,0,0.8-0.2,0.8-0.6c0-0.6-0.8-0.6-1.7-0.8
			c-0.8-0.2-1.7-0.6-1.7-2c0-1.9,1.7-2.7,3.3-2.7c0.9,0,1.7,0.1,2.5,0.5L782,108.8z"/>
		<path class="st4" d="M792.8,114.4h-2.7v-0.8h0c-0.5,0.8-1.4,1.1-2.3,1.1c-2.2,0-3.8-1.9-3.8-4c0-2.2,1.5-4,3.8-4
			c0.9,0,1.8,0.3,2.3,1v-0.7h2.7V114.4z M786.7,110.6c0,1,0.6,1.7,1.7,1.7c1.1,0,1.7-0.7,1.7-1.7c0-0.9-0.6-1.7-1.7-1.7
			C787.4,108.9,786.7,109.7,786.7,110.6z"/>
		<path class="st4" d="M794.5,102.2h2.7v5.4c0.6-0.7,1.5-1,2.3-1c2.2,0,3.8,1.9,3.8,4c0,2.2-1.6,4-3.8,4c-0.9,0-1.8-0.3-2.3-1.1h0
			v0.8h-2.7V102.2z M797.1,110.6c0,1,0.6,1.7,1.7,1.7c1.1,0,1.7-0.7,1.7-1.7c0-0.9-0.6-1.7-1.7-1.7
			C797.7,108.9,797.1,109.7,797.1,110.6z"/>
		<path class="st4" d="M807.3,114.4h-2.7v-12.2h2.7V114.4z"/>
		<path class="st4" d="M816.8,111h-5.6c0,1.1,0.6,1.7,1.7,1.7c0.6,0,1-0.2,1.3-0.7h2.6c-0.2,0.9-0.7,1.5-1.4,2
			c-0.7,0.4-1.5,0.6-2.4,0.6c-2.5,0-4.4-1.4-4.4-4c0-2.5,1.7-4,4.2-4c2.6,0,4.1,1.6,4.1,4.2V111z M814.3,109.5
			c-0.1-0.7-0.8-1.2-1.5-1.2c-0.8,0-1.4,0.4-1.6,1.2H814.3z"/>
		<path class="st4" d="M828.7,113.5L828.7,113.5c-0.5,0.8-1.4,1.1-2.3,1.1c-2.2,0-3.8-1.9-3.8-4c0-2.2,1.5-4,3.8-4
			c0.9,0,1.8,0.3,2.3,1v-5.4h2.7v12.2h-2.7V113.5z M825.4,110.6c0,1,0.6,1.7,1.7,1.7c1.1,0,1.7-0.7,1.7-1.7c0-0.9-0.6-1.7-1.7-1.7
			C826,108.9,825.4,109.7,825.4,110.6z"/>
		<path class="st4" d="M840.8,111h-5.6c0,1.1,0.6,1.7,1.7,1.7c0.6,0,1-0.2,1.3-0.7h2.6c-0.2,0.9-0.7,1.5-1.4,2
			c-0.7,0.4-1.5,0.6-2.4,0.6c-2.5,0-4.4-1.4-4.4-4c0-2.5,1.7-4,4.2-4c2.6,0,4.1,1.6,4.1,4.2V111z M838.3,109.5
			c-0.1-0.7-0.8-1.2-1.5-1.2c-0.8,0-1.4,0.4-1.6,1.2H838.3z"/>
		<path class="st4" d="M752.8,132h-2.7v-0.8h0c-0.5,0.8-1.4,1.1-2.3,1.1c-2.2,0-3.8-1.9-3.8-4c0-2.2,1.5-4,3.8-4
			c0.9,0,1.8,0.3,2.3,1v-0.7h2.7V132z M746.7,128.3c0,1,0.6,1.7,1.7,1.7c1.1,0,1.7-0.7,1.7-1.7c0-0.9-0.6-1.7-1.7-1.7
			C747.4,126.5,746.7,127.3,746.7,128.3z"/>
		<path class="st4" d="M760.2,131.2L760.2,131.2c-0.5,0.8-1.4,1.1-2.3,1.1c-2.2,0-3.8-1.9-3.8-4c0-2.2,1.5-4,3.8-4
			c0.9,0,1.8,0.3,2.3,1v-5.4h2.7V132h-2.7V131.2z M756.9,128.3c0,1,0.6,1.7,1.7,1.7s1.7-0.7,1.7-1.7c0-0.9-0.6-1.7-1.7-1.7
			S756.9,127.3,756.9,128.3z"/>
		<path class="st4" d="M767.3,125.4L767.3,125.4c0.7-0.8,1.4-1.2,2.4-1.2c1.1,0,2,0.4,2.6,1.4c0.5-0.9,1.5-1.4,2.6-1.4
			c1.9,0,2.6,1.3,2.6,3v4.8h-2.7v-3.6c0-0.8,0-2.1-1.1-2.1c-1.2,0-1.3,1.2-1.3,2.1v3.6h-2.7v-3.6c0-0.8,0-2.1-1.2-2.1
			c-1.2,0-1.2,1.3-1.2,2.1v3.6h-2.7v-7.5h2.7V125.4z"/>
		<path class="st4" d="M782,121.6c0,0.8-0.7,1.5-1.5,1.5s-1.5-0.7-1.5-1.5c0-0.8,0.7-1.5,1.5-1.5S782,120.7,782,121.6z M781.8,132
			h-2.7v-7.5h2.7V132z"/>
		<path class="st4" d="M788.6,126.4c-0.4-0.2-1-0.4-1.4-0.4c-0.3,0-0.8,0.1-0.8,0.5c0,0.5,0.8,0.6,1.2,0.7c1.3,0.3,2.2,0.8,2.2,2.2
			c0,2-1.8,2.8-3.6,2.8c-1.1,0-2.1-0.3-3-0.9l1-1.9c0.5,0.4,1.5,0.8,2.1,0.8c0.3,0,0.8-0.2,0.8-0.6c0-0.6-0.8-0.6-1.7-0.8
			c-0.8-0.2-1.7-0.6-1.7-2c0-1.9,1.7-2.7,3.3-2.7c0.9,0,1.7,0.1,2.5,0.5L788.6,126.4z"/>
		<path class="st4" d="M794,121.6c0,0.8-0.7,1.5-1.5,1.5s-1.5-0.7-1.5-1.5c0-0.8,0.7-1.5,1.5-1.5S794,120.7,794,121.6z M793.8,132
			h-2.7v-7.5h2.7V132z"/>
		<path class="st4" d="M804.1,128.3c0,2.6-2.1,4-4.5,4c-2.4,0-4.5-1.4-4.5-4c0-2.6,2.1-4,4.5-4C802,124.2,804.1,125.7,804.1,128.3z
			 M797.8,128.3c0,1,0.6,1.7,1.7,1.7c1.1,0,1.7-0.7,1.7-1.7c0-0.9-0.6-1.7-1.7-1.7C798.5,126.5,797.8,127.3,797.8,128.3z
			 M799.3,123.4l-1.2-0.9l2.1-2.5l1.6,1.2L799.3,123.4z"/>
		<path class="st4" d="M808,125.4L808,125.4c0.6-0.9,1.4-1.2,2.4-1.2c2,0,2.8,1.3,2.8,3.1v4.7h-2.7v-3.7c0-0.7,0.1-2-1.2-2
			c-1.1,0-1.4,0.8-1.4,1.8v3.9h-2.7v-7.5h2.7V125.4z"/>
		<path class="st4" d="M822.3,119.8l-5.6,13.6h-2.1l5.6-13.6H822.3z"/>
		<path class="st4" d="M716.2,146.3h-5.6c0,1.1,0.6,1.7,1.7,1.7c0.6,0,1-0.2,1.3-0.7h2.6c-0.2,0.9-0.7,1.5-1.4,2
			c-0.7,0.4-1.5,0.6-2.4,0.6c-2.5,0-4.4-1.4-4.4-4c0-2.5,1.7-4,4.2-4c2.6,0,4.1,1.6,4.1,4.2V146.3z M713.7,144.8
			c-0.1-0.7-0.8-1.2-1.5-1.2c-0.8,0-1.4,0.4-1.6,1.2H713.7z"/>
		<path class="st4" d="M720.1,143.1L720.1,143.1c0.7-0.8,1.4-1.2,2.4-1.2c1.1,0,2,0.4,2.6,1.4c0.5-0.9,1.5-1.4,2.6-1.4
			c1.9,0,2.6,1.3,2.6,3v4.8h-2.7v-3.6c0-0.8,0-2.1-1.1-2.1c-1.2,0-1.3,1.2-1.3,2.1v3.6h-2.7v-3.6c0-0.8,0-2.1-1.2-2.1
			s-1.2,1.3-1.2,2.1v3.6h-2.7v-7.5h2.7V143.1z"/>
		<path class="st4" d="M734.8,139.2c0,0.8-0.7,1.5-1.5,1.5s-1.5-0.7-1.5-1.5c0-0.8,0.7-1.5,1.5-1.5S734.8,138.4,734.8,139.2z
			 M734.6,149.7h-2.7v-7.5h2.7V149.7z"/>
		<path class="st4" d="M741.4,144.1c-0.4-0.2-1-0.4-1.4-0.4c-0.3,0-0.8,0.1-0.8,0.5c0,0.5,0.8,0.6,1.2,0.7c1.3,0.3,2.2,0.8,2.2,2.2
			c0,2-1.8,2.8-3.6,2.8c-1.1,0-2.1-0.3-3-0.9l1-1.9c0.5,0.4,1.5,0.8,2.1,0.8c0.3,0,0.8-0.2,0.8-0.6c0-0.6-0.8-0.6-1.7-0.8
			c-0.8-0.2-1.7-0.6-1.7-2c0-1.9,1.7-2.7,3.3-2.7c0.9,0,1.7,0.1,2.5,0.5L741.4,144.1z"/>
		<path class="st4" d="M746.8,139.2c0,0.8-0.7,1.5-1.5,1.5s-1.5-0.7-1.5-1.5c0-0.8,0.7-1.5,1.5-1.5S746.8,138.4,746.8,139.2z
			 M746.6,149.7h-2.7v-7.5h2.7V149.7z"/>
		<path class="st4" d="M756.9,145.9c0,2.6-2.1,4-4.5,4c-2.4,0-4.5-1.4-4.5-4c0-2.6,2.1-4,4.5-4C754.8,141.9,756.9,143.3,756.9,145.9
			z M750.6,145.9c0,1,0.6,1.7,1.7,1.7c1.1,0,1.7-0.7,1.7-1.7c0-0.9-0.6-1.7-1.7-1.7C751.3,144.2,750.6,145,750.6,145.9z M752.1,141
			l-1.2-0.9l2.1-2.5l1.6,1.2L752.1,141z"/>
		<path class="st4" d="M760.8,143.1L760.8,143.1c0.6-0.9,1.4-1.2,2.4-1.2c2,0,2.8,1.3,2.8,3.1v4.7h-2.7V146c0-0.7,0.1-2-1.2-2
			c-1.1,0-1.4,0.8-1.4,1.8v3.9h-2.7v-7.5h2.7V143.1z"/>
		<path class="st4" d="M780.1,137.5l-5.6,13.6h-2.1l5.6-13.6H780.1z"/>
		<path class="st4" d="M792.1,148.8L792.1,148.8c-0.5,0.8-1.4,1.1-2.3,1.1c-2.2,0-3.8-1.9-3.8-4s1.5-4,3.8-4c0.9,0,1.8,0.3,2.3,1
			v-5.4h2.7v12.2h-2.7V148.8z M788.8,145.9c0,1,0.6,1.7,1.7,1.7c1.1,0,1.7-0.7,1.7-1.7c0-0.9-0.6-1.7-1.7-1.7
			C789.4,144.2,788.8,145,788.8,145.9z"/>
		<path class="st4" d="M804.2,146.3h-5.6c0,1.1,0.6,1.7,1.7,1.7c0.6,0,1-0.2,1.3-0.7h2.6c-0.2,0.9-0.7,1.5-1.4,2
			c-0.7,0.4-1.5,0.6-2.4,0.6c-2.5,0-4.4-1.4-4.4-4c0-2.5,1.7-4,4.2-4c2.6,0,4.1,1.6,4.1,4.2V146.3z M801.7,144.8
			c-0.1-0.7-0.8-1.2-1.5-1.2c-0.8,0-1.4,0.4-1.6,1.2H801.7z"/>
		<path class="st4" d="M810.4,144.1c-0.4-0.2-1-0.4-1.4-0.4c-0.3,0-0.8,0.1-0.8,0.5c0,0.5,0.8,0.6,1.2,0.7c1.3,0.3,2.2,0.8,2.2,2.2
			c0,2-1.8,2.8-3.6,2.8c-1.1,0-2.1-0.3-3-0.9l1-1.9c0.5,0.4,1.5,0.8,2.1,0.8c0.3,0,0.8-0.2,0.8-0.6c0-0.6-0.8-0.6-1.7-0.8
			c-0.8-0.2-1.7-0.6-1.7-2c0-1.9,1.7-2.7,3.3-2.7c0.9,0,1.7,0.1,2.5,0.5L810.4,144.1z"/>
		<path class="st4" d="M815.6,143L815.6,143c0.5-0.8,1.4-1.1,2.3-1.1c2.3,0,3.8,1.9,3.8,4c0,2.2-1.5,4-3.8,4c-0.9,0-1.8-0.3-2.3-1
			v4.5h-2.7v-11.3h2.7V143z M815.5,145.9c0,1,0.6,1.7,1.7,1.7c1.1,0,1.7-0.7,1.7-1.7c0-0.9-0.6-1.7-1.7-1.7
			C816.1,144.2,815.5,145,815.5,145.9z"/>
		<path class="st4" d="M831.3,149.7h-2.7v-0.8h0c-0.5,0.8-1.4,1.1-2.3,1.1c-2.2,0-3.8-1.9-3.8-4s1.5-4,3.8-4c0.9,0,1.8,0.3,2.3,1
			v-0.7h2.7V149.7z M825.3,145.9c0,1,0.6,1.7,1.7,1.7c1.1,0,1.7-0.7,1.7-1.7c0-0.9-0.6-1.7-1.7-1.7
			C825.9,144.2,825.3,145,825.3,145.9z"/>
		<path class="st4" d="M838.5,144.6c-0.4-0.3-0.9-0.5-1.4-0.5c-1,0-1.8,0.8-1.8,1.8c0,1.1,0.8,1.9,1.9,1.9c0.5,0,1-0.2,1.3-0.5v2.3
			c-0.6,0.3-1.2,0.4-1.9,0.4c-2.2,0-4.1-1.7-4.1-3.9c0-2.4,1.9-4.1,4.2-4.1c0.6,0,1.2,0.1,1.8,0.4V144.6z"/>
		<path class="st4" d="M842.8,137.5v5.6h0c0.6-0.8,1.4-1.2,2.4-1.2c1.9,0,2.8,1.3,2.8,3.2v4.6h-2.7v-3.9c0-0.9-0.1-1.8-1.2-1.8
			c-1.1,0-1.4,0.9-1.4,1.8v3.9h-2.7v-12.2H842.8z"/>
		<path class="st4" d="M858.4,145.9c0,2.6-2.1,4-4.5,4c-2.4,0-4.5-1.4-4.5-4c0-2.6,2.1-4,4.5-4C856.3,141.9,858.4,143.3,858.4,145.9
			z M852.2,145.9c0,1,0.6,1.7,1.7,1.7s1.7-0.7,1.7-1.7c0-0.9-0.6-1.7-1.7-1.7S852.2,145,852.2,145.9z"/>
	</g>
</g>
<rect id="XMLID_74_" x="388.4" y="986.4" class="st2" width="221.9" height="63.1"/>
<g>
	<g>
		<path class="st4" d="M444.8,1004.3h-3.6l-2.7-4.3h0v4.3h-2.9v-11.1h4.3c2.2,0,3.9,1,3.9,3.4c0,1.5-0.9,2.9-2.4,3.1L444.8,1004.3z
			 M438.4,998.2h0.3c0.9,0,2-0.2,2-1.4s-1.1-1.4-2-1.4h-0.3V998.2z"/>
		<path class="st4" d="M453.2,1000.9h-5.6c0,1.1,0.6,1.7,1.7,1.7c0.6,0,1-0.2,1.3-0.7h2.6c-0.2,0.9-0.7,1.5-1.4,2
			c-0.7,0.4-1.5,0.6-2.4,0.6c-2.5,0-4.4-1.4-4.4-4c0-2.5,1.7-4,4.2-4c2.6,0,4.1,1.6,4.1,4.2V1000.9z M450.7,999.4
			c-0.1-0.7-0.8-1.2-1.5-1.2c-0.8,0-1.4,0.4-1.6,1.2H450.7z"/>
		<path class="st4" d="M459.4,998.7c-0.4-0.2-1-0.4-1.4-0.4c-0.3,0-0.8,0.1-0.8,0.5c0,0.5,0.8,0.6,1.2,0.7c1.3,0.3,2.2,0.8,2.2,2.2
			c0,2-1.8,2.8-3.6,2.8c-1.1,0-2.1-0.3-3-0.9l1-1.9c0.5,0.4,1.5,0.8,2.1,0.8c0.3,0,0.8-0.2,0.8-0.6c0-0.6-0.8-0.6-1.7-0.8
			s-1.7-0.6-1.7-2c0-1.9,1.7-2.7,3.3-2.7c0.9,0,1.7,0.1,2.5,0.5L459.4,998.7z"/>
		<path class="st4" d="M464.6,997.6L464.6,997.6c0.5-0.8,1.4-1.1,2.3-1.1c2.3,0,3.8,1.9,3.8,4c0,2.2-1.5,4-3.8,4
			c-0.9,0-1.8-0.3-2.3-1v4.5h-2.7v-11.3h2.7V997.6z M464.5,1000.5c0,1,0.6,1.7,1.7,1.7c1.1,0,1.7-0.7,1.7-1.7c0-0.9-0.6-1.7-1.7-1.7
			C465.1,998.8,464.5,999.6,464.5,1000.5z"/>
		<path class="st4" d="M480.6,1000.5c0,2.6-2.1,4-4.5,4c-2.4,0-4.5-1.4-4.5-4c0-2.6,2.1-4,4.5-4
			C478.4,996.5,480.6,997.9,480.6,1000.5z M474.3,1000.5c0,1,0.6,1.7,1.7,1.7c1.1,0,1.7-0.7,1.7-1.7c0-0.9-0.6-1.7-1.7-1.7
			C474.9,998.8,474.3,999.6,474.3,1000.5z"/>
		<path class="st4" d="M484.4,997.7L484.4,997.7c0.6-0.9,1.4-1.2,2.4-1.2c2,0,2.8,1.3,2.8,3.1v4.7h-2.7v-3.7c0-0.7,0.1-2-1.2-2
			c-1.1,0-1.4,0.8-1.4,1.8v3.9h-2.7v-7.5h2.7V997.7z"/>
		<path class="st4" d="M496.5,998.7c-0.4-0.2-1-0.4-1.4-0.4c-0.3,0-0.8,0.1-0.8,0.5c0,0.5,0.8,0.6,1.2,0.7c1.3,0.3,2.2,0.8,2.2,2.2
			c0,2-1.8,2.8-3.6,2.8c-1.1,0-2.1-0.3-3-0.9l1-1.9c0.5,0.4,1.5,0.8,2.1,0.8c0.3,0,0.8-0.2,0.8-0.6c0-0.6-0.8-0.6-1.7-0.8
			s-1.7-0.6-1.7-2c0-1.9,1.7-2.7,3.3-2.7c0.9,0,1.7,0.1,2.5,0.5L496.5,998.7z"/>
		<path class="st4" d="M507.3,1004.3h-2.7v-0.8h0c-0.5,0.8-1.4,1.1-2.3,1.1c-2.2,0-3.8-1.9-3.8-4c0-2.2,1.5-4,3.8-4
			c0.9,0,1.8,0.3,2.3,1v-0.7h2.7V1004.3z M501.3,1000.5c0,1,0.6,1.7,1.7,1.7c1.1,0,1.7-0.7,1.7-1.7c0-0.9-0.6-1.7-1.7-1.7
			C501.9,998.8,501.3,999.6,501.3,1000.5z"/>
		<path class="st4" d="M509,992.1h2.7v5.4c0.6-0.7,1.5-1,2.3-1c2.2,0,3.8,1.9,3.8,4c0,2.2-1.6,4-3.8,4c-0.9,0-1.8-0.3-2.3-1.1h0v0.8
			H509V992.1z M511.6,1000.5c0,1,0.6,1.7,1.7,1.7c1.1,0,1.7-0.7,1.7-1.7c0-0.9-0.6-1.7-1.7-1.7
			C512.2,998.8,511.6,999.6,511.6,1000.5z"/>
		<path class="st4" d="M521.8,1004.3h-2.7v-12.2h2.7V1004.3z"/>
		<path class="st4" d="M531.3,1000.9h-5.6c0,1.1,0.6,1.7,1.7,1.7c0.6,0,1-0.2,1.3-0.7h2.6c-0.2,0.9-0.7,1.5-1.4,2
			c-0.7,0.4-1.5,0.6-2.4,0.6c-2.5,0-4.4-1.4-4.4-4c0-2.5,1.7-4,4.2-4c2.6,0,4.1,1.6,4.1,4.2V1000.9z M528.8,999.4
			c-0.1-0.7-0.8-1.2-1.5-1.2c-0.8,0-1.4,0.4-1.6,1.2H528.8z"/>
		<path class="st4" d="M543.2,1003.4L543.2,1003.4c-0.5,0.8-1.4,1.1-2.3,1.1c-2.2,0-3.8-1.9-3.8-4c0-2.2,1.5-4,3.8-4
			c0.9,0,1.8,0.3,2.3,1v-5.4h2.7v12.2h-2.7V1003.4z M539.9,1000.5c0,1,0.6,1.7,1.7,1.7c1.1,0,1.7-0.7,1.7-1.7c0-0.9-0.6-1.7-1.7-1.7
			C540.5,998.8,539.9,999.6,539.9,1000.5z"/>
		<path class="st4" d="M555.4,1000.9h-5.6c0,1.1,0.6,1.7,1.7,1.7c0.6,0,1-0.2,1.3-0.7h2.6c-0.2,0.9-0.7,1.5-1.4,2
			c-0.7,0.4-1.5,0.6-2.4,0.6c-2.5,0-4.4-1.4-4.4-4c0-2.5,1.7-4,4.2-4c2.6,0,4.1,1.6,4.1,4.2V1000.9z M552.9,999.4
			c-0.1-0.7-0.8-1.2-1.5-1.2c-0.8,0-1.4,0.4-1.6,1.2H552.9z"/>
		<path class="st4" d="M467.3,1021.9h-2.7v-0.8h0c-0.5,0.8-1.4,1.1-2.3,1.1c-2.2,0-3.8-1.9-3.8-4c0-2.2,1.5-4,3.8-4
			c0.9,0,1.8,0.3,2.3,1v-0.7h2.7V1021.9z M461.3,1018.2c0,1,0.6,1.7,1.7,1.7c1.1,0,1.7-0.7,1.7-1.7c0-0.9-0.6-1.7-1.7-1.7
			C461.9,1016.5,461.3,1017.2,461.3,1018.2z"/>
		<path class="st4" d="M474.7,1021.1L474.7,1021.1c-0.5,0.8-1.4,1.1-2.3,1.1c-2.2,0-3.8-1.9-3.8-4c0-2.2,1.5-4,3.8-4
			c0.9,0,1.8,0.3,2.3,1v-5.4h2.7v12.2h-2.7V1021.1z M471.4,1018.2c0,1,0.6,1.7,1.7,1.7c1.1,0,1.7-0.7,1.7-1.7c0-0.9-0.6-1.7-1.7-1.7
			C472,1016.5,471.4,1017.2,471.4,1018.2z"/>
		<path class="st4" d="M481.8,1015.3L481.8,1015.3c0.7-0.8,1.4-1.2,2.4-1.2c1.1,0,2,0.4,2.6,1.4c0.5-0.9,1.5-1.4,2.6-1.4
			c1.9,0,2.6,1.3,2.6,3v4.8h-2.7v-3.6c0-0.8,0-2.1-1.1-2.1c-1.2,0-1.3,1.2-1.3,2.1v3.6h-2.7v-3.6c0-0.8,0-2.1-1.2-2.1
			c-1.2,0-1.2,1.3-1.2,2.1v3.6h-2.7v-7.5h2.7V1015.3z"/>
		<path class="st4" d="M496.5,1011.5c0,0.8-0.7,1.5-1.5,1.5s-1.5-0.7-1.5-1.5s0.7-1.5,1.5-1.5S496.5,1010.7,496.5,1011.5z
			 M496.3,1021.9h-2.7v-7.5h2.7V1021.9z"/>
		<path class="st4" d="M503.1,1016.3c-0.4-0.2-1-0.4-1.4-0.4c-0.3,0-0.8,0.1-0.8,0.5c0,0.5,0.8,0.6,1.2,0.7c1.3,0.3,2.2,0.8,2.2,2.2
			c0,2-1.8,2.8-3.6,2.8c-1.1,0-2.1-0.3-3-0.9l1-1.9c0.5,0.4,1.5,0.8,2.1,0.8c0.3,0,0.8-0.2,0.8-0.6c0-0.6-0.8-0.6-1.7-0.8
			s-1.7-0.6-1.7-2c0-1.9,1.7-2.7,3.3-2.7c0.9,0,1.7,0.1,2.5,0.5L503.1,1016.3z"/>
		<path class="st4" d="M508.5,1011.5c0,0.8-0.7,1.5-1.5,1.5s-1.5-0.7-1.5-1.5s0.7-1.5,1.5-1.5S508.5,1010.7,508.5,1011.5z
			 M508.3,1021.9h-2.7v-7.5h2.7V1021.9z"/>
		<path class="st4" d="M518.6,1018.2c0,2.6-2.1,4-4.5,4c-2.4,0-4.5-1.4-4.5-4s2.1-4,4.5-4S518.6,1015.6,518.6,1018.2z M512.3,1018.2
			c0,1,0.6,1.7,1.7,1.7s1.7-0.7,1.7-1.7c0-0.9-0.6-1.7-1.7-1.7S512.3,1017.2,512.3,1018.2z M513.8,1013.3l-1.2-0.9l2.1-2.5l1.6,1.2
			L513.8,1013.3z"/>
		<path class="st4" d="M522.5,1015.3L522.5,1015.3c0.6-0.9,1.4-1.2,2.4-1.2c2,0,2.8,1.3,2.8,3.1v4.7h-2.7v-3.7c0-0.7,0.1-2-1.2-2
			c-1.1,0-1.4,0.8-1.4,1.8v3.9h-2.7v-7.5h2.7V1015.3z"/>
		<path class="st4" d="M536.8,1009.7l-5.6,13.6h-2.1l5.6-13.6H536.8z"/>
		<path class="st4" d="M430.7,1036.3h-5.6c0,1.1,0.6,1.7,1.7,1.7c0.6,0,1-0.2,1.3-0.7h2.6c-0.2,0.9-0.7,1.5-1.4,2
			c-0.7,0.4-1.5,0.6-2.4,0.6c-2.5,0-4.4-1.4-4.4-4c0-2.5,1.7-4,4.2-4c2.6,0,4.1,1.6,4.1,4.2V1036.3z M428.2,1034.7
			c-0.1-0.7-0.8-1.2-1.5-1.2c-0.8,0-1.4,0.4-1.6,1.2H428.2z"/>
		<path class="st4" d="M434.6,1033L434.6,1033c0.7-0.8,1.4-1.2,2.4-1.2c1.1,0,2,0.4,2.6,1.4c0.5-0.9,1.5-1.4,2.6-1.4
			c1.9,0,2.6,1.3,2.6,3v4.8H442v-3.6c0-0.8,0-2.1-1.1-2.1c-1.2,0-1.3,1.2-1.3,2.1v3.6H437v-3.6c0-0.8,0-2.1-1.2-2.1
			c-1.2,0-1.2,1.3-1.2,2.1v3.6h-2.7v-7.5h2.7V1033z"/>
		<path class="st4" d="M449.3,1029.1c0,0.8-0.7,1.5-1.5,1.5s-1.5-0.7-1.5-1.5s0.7-1.5,1.5-1.5S449.3,1028.3,449.3,1029.1z
			 M449.1,1039.6h-2.7v-7.5h2.7V1039.6z"/>
		<path class="st4" d="M455.9,1034c-0.4-0.2-1-0.4-1.4-0.4c-0.3,0-0.8,0.1-0.8,0.5c0,0.5,0.8,0.6,1.2,0.7c1.3,0.3,2.2,0.8,2.2,2.2
			c0,2-1.8,2.8-3.6,2.8c-1.1,0-2.1-0.3-3-0.9l1-1.9c0.5,0.4,1.5,0.8,2.1,0.8c0.3,0,0.8-0.2,0.8-0.6c0-0.6-0.8-0.6-1.7-0.8
			c-0.8-0.2-1.7-0.6-1.7-2c0-1.9,1.7-2.7,3.3-2.7c0.9,0,1.7,0.1,2.5,0.5L455.9,1034z"/>
		<path class="st4" d="M461.3,1029.1c0,0.8-0.7,1.5-1.5,1.5s-1.5-0.7-1.5-1.5s0.7-1.5,1.5-1.5S461.3,1028.3,461.3,1029.1z
			 M461.1,1039.6h-2.7v-7.5h2.7V1039.6z"/>
		<path class="st4" d="M471.4,1035.8c0,2.6-2.1,4-4.5,4c-2.4,0-4.5-1.4-4.5-4s2.1-4,4.5-4C469.3,1031.8,471.4,1033.2,471.4,1035.8z
			 M465.2,1035.8c0,1,0.6,1.7,1.7,1.7c1.1,0,1.7-0.7,1.7-1.7c0-0.9-0.6-1.7-1.7-1.7C465.8,1034.1,465.2,1034.9,465.2,1035.8z
			 M466.6,1030.9l-1.2-0.9l2.1-2.5l1.6,1.2L466.6,1030.9z"/>
		<path class="st4" d="M475.3,1033L475.3,1033c0.6-0.9,1.4-1.2,2.4-1.2c2,0,2.8,1.3,2.8,3.1v4.7h-2.7v-3.7c0-0.7,0.1-2-1.2-2
			c-1.1,0-1.4,0.8-1.4,1.8v3.9h-2.7v-7.5h2.7V1033z"/>
		<path class="st4" d="M494.6,1027.4l-5.6,13.6h-2.1l5.6-13.6H494.6z"/>
		<path class="st4" d="M506.6,1038.7L506.6,1038.7c-0.5,0.8-1.4,1.1-2.3,1.1c-2.2,0-3.8-1.9-3.8-4c0-2.2,1.5-4,3.8-4
			c0.9,0,1.8,0.3,2.3,1v-5.4h2.7v12.2h-2.7V1038.7z M503.3,1035.8c0,1,0.6,1.7,1.7,1.7s1.7-0.7,1.7-1.7c0-0.9-0.6-1.7-1.7-1.7
			S503.3,1034.9,503.3,1035.8z"/>
		<path class="st4" d="M518.8,1036.3h-5.6c0,1.1,0.6,1.7,1.7,1.7c0.6,0,1-0.2,1.3-0.7h2.6c-0.2,0.9-0.7,1.5-1.4,2
			c-0.7,0.4-1.5,0.6-2.4,0.6c-2.5,0-4.4-1.4-4.4-4c0-2.5,1.7-4,4.2-4c2.6,0,4.1,1.6,4.1,4.2V1036.3z M516.3,1034.7
			c-0.1-0.7-0.8-1.2-1.5-1.2c-0.8,0-1.4,0.4-1.6,1.2H516.3z"/>
		<path class="st4" d="M525,1034c-0.4-0.2-1-0.4-1.4-0.4c-0.3,0-0.8,0.1-0.8,0.5c0,0.5,0.8,0.6,1.2,0.7c1.3,0.3,2.2,0.8,2.2,2.2
			c0,2-1.8,2.8-3.6,2.8c-1.1,0-2.1-0.3-3-0.9l1-1.9c0.5,0.4,1.5,0.8,2.1,0.8c0.3,0,0.8-0.2,0.8-0.6c0-0.6-0.8-0.6-1.7-0.8
			c-0.8-0.2-1.7-0.6-1.7-2c0-1.9,1.7-2.7,3.3-2.7c0.9,0,1.7,0.1,2.5,0.5L525,1034z"/>
		<path class="st4" d="M530.1,1032.9L530.1,1032.9c0.5-0.8,1.4-1.1,2.3-1.1c2.3,0,3.8,1.9,3.8,4c0,2.2-1.5,4-3.8,4
			c-0.9,0-1.8-0.3-2.3-1v4.5h-2.7V1032h2.7V1032.9z M530,1035.8c0,1,0.6,1.7,1.7,1.7c1.1,0,1.7-0.7,1.7-1.7c0-0.9-0.6-1.7-1.7-1.7
			C530.7,1034.1,530,1034.9,530,1035.8z"/>
		<path class="st4" d="M545.8,1039.6h-2.7v-0.8h0c-0.5,0.8-1.4,1.1-2.3,1.1c-2.2,0-3.8-1.9-3.8-4c0-2.2,1.5-4,3.8-4
			c0.9,0,1.8,0.3,2.3,1v-0.7h2.7V1039.6z M539.8,1035.8c0,1,0.6,1.7,1.7,1.7c1.1,0,1.7-0.7,1.7-1.7c0-0.9-0.6-1.7-1.7-1.7
			C540.4,1034.1,539.8,1034.9,539.8,1035.8z"/>
		<path class="st4" d="M553,1034.5c-0.4-0.3-0.9-0.5-1.4-0.5c-1,0-1.8,0.8-1.8,1.8c0,1.1,0.8,1.9,1.9,1.9c0.5,0,1-0.2,1.3-0.5v2.3
			c-0.6,0.3-1.2,0.4-1.9,0.4c-2.2,0-4.1-1.7-4.1-3.9c0-2.4,1.9-4.1,4.2-4.1c0.6,0,1.2,0.1,1.8,0.4V1034.5z"/>
		<path class="st4" d="M557.4,1027.4v5.6h0c0.6-0.8,1.4-1.2,2.4-1.2c1.9,0,2.8,1.3,2.8,3.2v4.6H560v-3.9c0-0.9-0.1-1.8-1.2-1.8
			c-1.1,0-1.4,0.9-1.4,1.8v3.9h-2.7v-12.2H557.4z"/>
		<path class="st4" d="M572.9,1035.8c0,2.6-2.1,4-4.5,4c-2.4,0-4.5-1.4-4.5-4s2.1-4,4.5-4C570.8,1031.8,572.9,1033.2,572.9,1035.8z
			 M566.7,1035.8c0,1,0.6,1.7,1.7,1.7c1.1,0,1.7-0.7,1.7-1.7c0-0.9-0.6-1.7-1.7-1.7C567.3,1034.1,566.7,1034.9,566.7,1035.8z"/>
	</g>
</g>
<rect id="XMLID_71_" x="663.6" y="986.2" class="st2" width="234.7" height="63.1"/>
<g>
	<g>
		<path class="st4" d="M748,1008.8c0,3.6-2.6,6.1-6.1,6.1c-3.6,0-6.1-2.5-6.1-6.1c0-3.4,2.9-5.7,6.1-5.7
			C745,1003.1,748,1005.4,748,1008.8z M738.7,1008.8c0,1.9,1.4,3.3,3.1,3.3c1.7,0,3.1-1.4,3.1-3.3c0-1.5-1.4-2.9-3.1-2.9
			C740.1,1005.9,738.7,1007.3,738.7,1008.8z"/>
		<path class="st4" d="M751.8,1007.8L751.8,1007.8c0.5-0.8,1.4-1.1,2.3-1.1c2.3,0,3.8,1.9,3.8,4c0,2.2-1.5,4-3.8,4
			c-0.9,0-1.8-0.3-2.3-1v4.5h-2.7V1007h2.7V1007.8z M751.8,1010.8c0,1,0.6,1.7,1.7,1.7c1.1,0,1.7-0.7,1.7-1.7c0-0.9-0.6-1.7-1.7-1.7
			C752.4,1009.1,751.8,1009.8,751.8,1010.8z"/>
		<path class="st4" d="M767,1011.2h-5.6c0,1.1,0.6,1.7,1.7,1.7c0.6,0,1-0.2,1.3-0.7h2.6c-0.2,0.9-0.7,1.5-1.4,2
			c-0.7,0.4-1.5,0.6-2.4,0.6c-2.5,0-4.4-1.4-4.4-4c0-2.5,1.7-4,4.2-4c2.6,0,4.1,1.6,4.1,4.2V1011.2z M764.5,1009.7
			c-0.1-0.7-0.8-1.2-1.5-1.2c-0.8,0-1.4,0.4-1.6,1.2H764.5z"/>
		<path class="st4" d="M770.9,1008.2L770.9,1008.2c0.5-0.9,1.4-1.3,2.5-1.3h0.5v2.6c-0.4-0.2-0.7-0.3-1.1-0.3c-1.5,0-1.9,1-1.9,2.3
			v3h-2.7v-7.5h2.7V1008.2z"/>
		<path class="st4" d="M783.2,1014.5h-2.7v-0.8h0c-0.5,0.8-1.4,1.1-2.3,1.1c-2.2,0-3.8-1.9-3.8-4c0-2.2,1.5-4,3.8-4
			c0.9,0,1.8,0.3,2.3,1v-0.7h2.7V1014.5z M777.1,1010.8c0,1,0.6,1.7,1.7,1.7c1.1,0,1.7-0.7,1.7-1.7c0-0.9-0.6-1.7-1.7-1.7
			C777.8,1009.1,777.1,1009.8,777.1,1010.8z"/>
		<path class="st4" d="M790.6,1013.7L790.6,1013.7c-0.5,0.8-1.4,1.1-2.3,1.1c-2.2,0-3.8-1.9-3.8-4c0-2.2,1.5-4,3.8-4
			c0.9,0,1.8,0.3,2.3,1v-5.4h2.7v12.2h-2.7V1013.7z M787.3,1010.8c0,1,0.6,1.7,1.7,1.7s1.7-0.7,1.7-1.7c0-0.9-0.6-1.7-1.7-1.7
			S787.3,1009.8,787.3,1010.8z"/>
		<path class="st4" d="M803.5,1010.8c0,2.6-2.1,4-4.5,4c-2.4,0-4.5-1.4-4.5-4c0-2.6,2.1-4,4.5-4
			C801.4,1006.7,803.5,1008.2,803.5,1010.8z M797.3,1010.8c0,1,0.6,1.7,1.7,1.7c1.1,0,1.7-0.7,1.7-1.7c0-0.9-0.6-1.7-1.7-1.7
			C797.9,1009.1,797.3,1009.8,797.3,1010.8z"/>
		<path class="st4" d="M807.4,1008.2L807.4,1008.2c0.5-0.9,1.4-1.3,2.5-1.3h0.5v2.6c-0.4-0.2-0.7-0.3-1.1-0.3c-1.5,0-1.9,1-1.9,2.3
			v3h-2.7v-7.5h2.7V1008.2z"/>
		<path class="st4" d="M763.1,1032.2h-3.6l-2.7-4.3h0v4.3h-2.9v-11.1h4.3c2.2,0,3.9,1,3.9,3.4c0,1.5-0.9,2.9-2.4,3.1L763.1,1032.2z
			 M756.8,1026.1h0.3c0.9,0,2-0.2,2-1.4c0-1.2-1.1-1.4-2-1.4h-0.3V1026.1z"/>
		<path class="st4" d="M773.5,1021.1v6.2c0,1.4-0.1,2.8-1.2,3.9c-0.9,0.9-2.4,1.2-3.7,1.2c-1.3,0-2.8-0.3-3.7-1.2
			c-1.1-1.1-1.2-2.5-1.2-3.9v-6.2h2.9v5.8c0,1.4,0.1,3,2,3s2-1.6,2-3v-5.8H773.5z"/>
		<path class="st4" d="M778.2,1030.3l-0.8,1.9h-3.1l4.3-11.1h3.1l4.2,11.1h-3.1l-0.7-1.9H778.2z M780.2,1024.5L780.2,1024.5
			l-1.2,3.5h2.4L780.2,1024.5z"/>
		<path class="st4" d="M790.4,1032.2h-2.9v-8.7h-2.4v-2.4h7.7v2.4h-2.4V1032.2z"/>
	</g>
</g>
<rect id="XMLID_68_" x="662.8" y="484" class="st2" width="235.5" height="78.5"/>
<g>
	<g>
		<path class="st4" d="M730.2,511.5h-3.6l-2.7-4.3h0v4.3H721v-11.1h4.3c2.2,0,3.9,1,3.9,3.4c0,1.5-0.9,2.9-2.4,3.1L730.2,511.5z
			 M723.9,505.4h0.3c0.9,0,2-0.2,2-1.4c0-1.2-1.1-1.4-2-1.4h-0.3V505.4z"/>
		<path class="st4" d="M738.7,508.2h-5.6c0,1.1,0.6,1.7,1.7,1.7c0.6,0,1-0.2,1.3-0.7h2.6c-0.2,0.9-0.7,1.5-1.4,2
			c-0.7,0.4-1.5,0.6-2.4,0.6c-2.5,0-4.4-1.4-4.4-4c0-2.5,1.7-4,4.2-4c2.6,0,4.1,1.6,4.1,4.2V508.2z M736.2,506.6
			c-0.1-0.7-0.8-1.2-1.5-1.2c-0.8,0-1.4,0.4-1.6,1.2H736.2z"/>
		<path class="st4" d="M744.9,505.9c-0.4-0.2-1-0.4-1.4-0.4c-0.3,0-0.8,0.1-0.8,0.5c0,0.5,0.8,0.6,1.2,0.7c1.3,0.3,2.2,0.8,2.2,2.2
			c0,2-1.8,2.8-3.6,2.8c-1.1,0-2.1-0.3-3-0.9l1-1.9c0.5,0.4,1.5,0.8,2.1,0.8c0.3,0,0.8-0.2,0.8-0.6c0-0.6-0.8-0.6-1.7-0.8
			c-0.8-0.2-1.7-0.6-1.7-2c0-1.9,1.7-2.7,3.3-2.7c0.9,0,1.7,0.1,2.5,0.5L744.9,505.9z"/>
		<path class="st4" d="M750.1,504.8L750.1,504.8c0.5-0.8,1.4-1.1,2.3-1.1c2.3,0,3.8,1.9,3.8,4c0,2.2-1.5,4-3.8,4
			c-0.9,0-1.8-0.3-2.3-1v4.5h-2.7v-11.3h2.7V504.8z M750,507.7c0,1,0.6,1.7,1.7,1.7c1.1,0,1.7-0.7,1.7-1.7c0-0.9-0.6-1.7-1.7-1.7
			C750.6,506,750,506.8,750,507.7z"/>
		<path class="st4" d="M766,507.7c0,2.6-2.1,4-4.5,4c-2.4,0-4.5-1.4-4.5-4c0-2.6,2.1-4,4.5-4C763.9,503.7,766,505.1,766,507.7z
			 M759.8,507.7c0,1,0.6,1.7,1.7,1.7c1.1,0,1.7-0.7,1.7-1.7c0-0.9-0.6-1.7-1.7-1.7C760.4,506,759.8,506.8,759.8,507.7z"/>
		<path class="st4" d="M769.9,504.9L769.9,504.9c0.6-0.9,1.4-1.2,2.4-1.2c2,0,2.8,1.3,2.8,3.1v4.7h-2.7v-3.7c0-0.7,0.1-2-1.2-2
			c-1.1,0-1.4,0.8-1.4,1.8v3.9h-2.7v-7.5h2.7V504.9z"/>
		<path class="st4" d="M782,505.9c-0.4-0.2-1-0.4-1.4-0.4c-0.3,0-0.8,0.1-0.8,0.5c0,0.5,0.8,0.6,1.2,0.7c1.3,0.3,2.2,0.8,2.2,2.2
			c0,2-1.8,2.8-3.6,2.8c-1.1,0-2.1-0.3-3-0.9l1-1.9c0.5,0.4,1.5,0.8,2.1,0.8c0.3,0,0.8-0.2,0.8-0.6c0-0.6-0.8-0.6-1.7-0.8
			c-0.8-0.2-1.7-0.6-1.7-2c0-1.9,1.7-2.7,3.3-2.7c0.9,0,1.7,0.1,2.5,0.5L782,505.9z"/>
		<path class="st4" d="M792.8,511.5h-2.7v-0.8h0c-0.5,0.8-1.4,1.1-2.3,1.1c-2.2,0-3.8-1.9-3.8-4c0-2.2,1.5-4,3.8-4
			c0.9,0,1.8,0.3,2.3,1v-0.7h2.7V511.5z M786.7,507.7c0,1,0.6,1.7,1.7,1.7c1.1,0,1.7-0.7,1.7-1.7c0-0.9-0.6-1.7-1.7-1.7
			C787.4,506,786.7,506.8,786.7,507.7z"/>
		<path class="st4" d="M794.5,499.3h2.7v5.4c0.6-0.7,1.5-1,2.3-1c2.2,0,3.8,1.9,3.8,4c0,2.2-1.6,4-3.8,4c-0.9,0-1.8-0.3-2.3-1.1h0
			v0.8h-2.7V499.3z M797.1,507.7c0,1,0.6,1.7,1.7,1.7c1.1,0,1.7-0.7,1.7-1.7c0-0.9-0.6-1.7-1.7-1.7
			C797.7,506,797.1,506.8,797.1,507.7z"/>
		<path class="st4" d="M807.3,511.5h-2.7v-12.2h2.7V511.5z"/>
		<path class="st4" d="M816.8,508.2h-5.6c0,1.1,0.6,1.7,1.7,1.7c0.6,0,1-0.2,1.3-0.7h2.6c-0.2,0.9-0.7,1.5-1.4,2
			c-0.7,0.4-1.5,0.6-2.4,0.6c-2.5,0-4.4-1.4-4.4-4c0-2.5,1.7-4,4.2-4c2.6,0,4.1,1.6,4.1,4.2V508.2z M814.3,506.6
			c-0.1-0.7-0.8-1.2-1.5-1.2c-0.8,0-1.4,0.4-1.6,1.2H814.3z"/>
		<path class="st4" d="M828.7,510.6L828.7,510.6c-0.5,0.8-1.4,1.1-2.3,1.1c-2.2,0-3.8-1.9-3.8-4c0-2.2,1.5-4,3.8-4
			c0.9,0,1.8,0.3,2.3,1v-5.4h2.7v12.2h-2.7V510.6z M825.4,507.7c0,1,0.6,1.7,1.7,1.7c1.1,0,1.7-0.7,1.7-1.7c0-0.9-0.6-1.7-1.7-1.7
			C826,506,825.4,506.8,825.4,507.7z"/>
		<path class="st4" d="M840.8,508.2h-5.6c0,1.1,0.6,1.7,1.7,1.7c0.6,0,1-0.2,1.3-0.7h2.6c-0.2,0.9-0.7,1.5-1.4,2
			c-0.7,0.4-1.5,0.6-2.4,0.6c-2.5,0-4.4-1.4-4.4-4c0-2.5,1.7-4,4.2-4c2.6,0,4.1,1.6,4.1,4.2V508.2z M838.3,506.6
			c-0.1-0.7-0.8-1.2-1.5-1.2c-0.8,0-1.4,0.4-1.6,1.2H838.3z"/>
		<path class="st4" d="M752.8,529.1h-2.7v-0.8h0c-0.5,0.8-1.4,1.1-2.3,1.1c-2.2,0-3.8-1.9-3.8-4c0-2.2,1.5-4,3.8-4
			c0.9,0,1.8,0.3,2.3,1v-0.7h2.7V529.1z M746.7,525.4c0,1,0.6,1.7,1.7,1.7c1.1,0,1.7-0.7,1.7-1.7c0-0.9-0.6-1.7-1.7-1.7
			C747.4,523.7,746.7,524.4,746.7,525.4z"/>
		<path class="st4" d="M760.2,528.3L760.2,528.3c-0.5,0.8-1.4,1.1-2.3,1.1c-2.2,0-3.8-1.9-3.8-4c0-2.2,1.5-4,3.8-4
			c0.9,0,1.8,0.3,2.3,1v-5.4h2.7v12.2h-2.7V528.3z M756.9,525.4c0,1,0.6,1.7,1.7,1.7s1.7-0.7,1.7-1.7c0-0.9-0.6-1.7-1.7-1.7
			S756.9,524.4,756.9,525.4z"/>
		<path class="st4" d="M767.3,522.5L767.3,522.5c0.7-0.8,1.4-1.2,2.4-1.2c1.1,0,2,0.4,2.6,1.4c0.5-0.9,1.5-1.4,2.6-1.4
			c1.9,0,2.6,1.3,2.6,3v4.8h-2.7v-3.6c0-0.8,0-2.1-1.1-2.1c-1.2,0-1.3,1.2-1.3,2.1v3.6h-2.7v-3.6c0-0.8,0-2.1-1.2-2.1
			c-1.2,0-1.2,1.3-1.2,2.1v3.6h-2.7v-7.5h2.7V522.5z"/>
		<path class="st4" d="M782,518.7c0,0.8-0.7,1.5-1.5,1.5s-1.5-0.7-1.5-1.5s0.7-1.5,1.5-1.5S782,517.9,782,518.7z M781.8,529.1h-2.7
			v-7.5h2.7V529.1z"/>
		<path class="st4" d="M788.6,523.5c-0.4-0.2-1-0.4-1.4-0.4c-0.3,0-0.8,0.1-0.8,0.5c0,0.5,0.8,0.6,1.2,0.7c1.3,0.3,2.2,0.8,2.2,2.2
			c0,2-1.8,2.8-3.6,2.8c-1.1,0-2.1-0.3-3-0.9l1-1.9c0.5,0.4,1.5,0.8,2.1,0.8c0.3,0,0.8-0.2,0.8-0.6c0-0.6-0.8-0.6-1.7-0.8
			c-0.8-0.2-1.7-0.6-1.7-2c0-1.9,1.7-2.7,3.3-2.7c0.9,0,1.7,0.1,2.5,0.5L788.6,523.5z"/>
		<path class="st4" d="M794,518.7c0,0.8-0.7,1.5-1.5,1.5s-1.5-0.7-1.5-1.5s0.7-1.5,1.5-1.5S794,517.9,794,518.7z M793.8,529.1h-2.7
			v-7.5h2.7V529.1z"/>
		<path class="st4" d="M804.1,525.4c0,2.6-2.1,4-4.5,4c-2.4,0-4.5-1.4-4.5-4s2.1-4,4.5-4C802,521.3,804.1,522.8,804.1,525.4z
			 M797.8,525.4c0,1,0.6,1.7,1.7,1.7c1.1,0,1.7-0.7,1.7-1.7c0-0.9-0.6-1.7-1.7-1.7C798.5,523.7,797.8,524.4,797.8,525.4z
			 M799.3,520.5l-1.2-0.9l2.1-2.5l1.6,1.2L799.3,520.5z"/>
		<path class="st4" d="M808,522.6L808,522.6c0.6-0.9,1.4-1.2,2.4-1.2c2,0,2.8,1.3,2.8,3.1v4.7h-2.7v-3.7c0-0.7,0.1-2-1.2-2
			c-1.1,0-1.4,0.8-1.4,1.8v3.9h-2.7v-7.5h2.7V522.6z"/>
		<path class="st4" d="M822.3,516.9l-5.6,13.6h-2.1l5.6-13.6H822.3z"/>
		<path class="st4" d="M716.2,543.5h-5.6c0,1.1,0.6,1.7,1.7,1.7c0.6,0,1-0.2,1.3-0.7h2.6c-0.2,0.9-0.7,1.5-1.4,2
			c-0.7,0.4-1.5,0.6-2.4,0.6c-2.5,0-4.4-1.4-4.4-4c0-2.5,1.7-4,4.2-4c2.6,0,4.1,1.6,4.1,4.2V543.5z M713.7,541.9
			c-0.1-0.7-0.8-1.2-1.5-1.2c-0.8,0-1.4,0.4-1.6,1.2H713.7z"/>
		<path class="st4" d="M720.1,540.2L720.1,540.2c0.7-0.8,1.4-1.2,2.4-1.2c1.1,0,2,0.4,2.6,1.4c0.5-0.9,1.5-1.4,2.6-1.4
			c1.9,0,2.6,1.3,2.6,3v4.8h-2.7v-3.6c0-0.8,0-2.1-1.1-2.1c-1.2,0-1.3,1.2-1.3,2.1v3.6h-2.7v-3.6c0-0.8,0-2.1-1.2-2.1
			s-1.2,1.3-1.2,2.1v3.6h-2.7v-7.5h2.7V540.2z"/>
		<path class="st4" d="M734.8,536.3c0,0.8-0.7,1.5-1.5,1.5s-1.5-0.7-1.5-1.5s0.7-1.5,1.5-1.5S734.8,535.5,734.8,536.3z M734.6,546.8
			h-2.7v-7.5h2.7V546.8z"/>
		<path class="st4" d="M741.4,541.2c-0.4-0.2-1-0.4-1.4-0.4c-0.3,0-0.8,0.1-0.8,0.5c0,0.5,0.8,0.6,1.2,0.7c1.3,0.3,2.2,0.8,2.2,2.2
			c0,2-1.8,2.8-3.6,2.8c-1.1,0-2.1-0.3-3-0.9l1-1.9c0.5,0.4,1.5,0.8,2.1,0.8c0.3,0,0.8-0.2,0.8-0.6c0-0.6-0.8-0.6-1.7-0.8
			c-0.8-0.2-1.7-0.6-1.7-2c0-1.9,1.7-2.7,3.3-2.7c0.9,0,1.7,0.1,2.5,0.5L741.4,541.2z"/>
		<path class="st4" d="M746.8,536.3c0,0.8-0.7,1.5-1.5,1.5s-1.5-0.7-1.5-1.5s0.7-1.5,1.5-1.5S746.8,535.5,746.8,536.3z M746.6,546.8
			h-2.7v-7.5h2.7V546.8z"/>
		<path class="st4" d="M756.9,543c0,2.6-2.1,4-4.5,4c-2.4,0-4.5-1.4-4.5-4s2.1-4,4.5-4C754.8,539,756.9,540.4,756.9,543z M750.6,543
			c0,1,0.6,1.7,1.7,1.7c1.1,0,1.7-0.7,1.7-1.7c0-0.9-0.6-1.7-1.7-1.7C751.3,541.3,750.6,542.1,750.6,543z M752.1,538.1l-1.2-0.9
			l2.1-2.5l1.6,1.2L752.1,538.1z"/>
		<path class="st4" d="M760.8,540.2L760.8,540.2c0.6-0.9,1.4-1.2,2.4-1.2c2,0,2.8,1.3,2.8,3.1v4.7h-2.7v-3.7c0-0.7,0.1-2-1.2-2
			c-1.1,0-1.4,0.8-1.4,1.8v3.9h-2.7v-7.5h2.7V540.2z"/>
		<path class="st4" d="M780.1,534.6l-5.6,13.6h-2.1l5.6-13.6H780.1z"/>
		<path class="st4" d="M792.1,545.9L792.1,545.9c-0.5,0.8-1.4,1.1-2.3,1.1c-2.2,0-3.8-1.9-3.8-4c0-2.2,1.5-4,3.8-4
			c0.9,0,1.8,0.3,2.3,1v-5.4h2.7v12.2h-2.7V545.9z M788.8,543c0,1,0.6,1.7,1.7,1.7c1.1,0,1.7-0.7,1.7-1.7c0-0.9-0.6-1.7-1.7-1.7
			C789.4,541.3,788.8,542.1,788.8,543z"/>
		<path class="st4" d="M804.2,543.5h-5.6c0,1.1,0.6,1.7,1.7,1.7c0.6,0,1-0.2,1.3-0.7h2.6c-0.2,0.9-0.7,1.5-1.4,2
			c-0.7,0.4-1.5,0.6-2.4,0.6c-2.5,0-4.4-1.4-4.4-4c0-2.5,1.7-4,4.2-4c2.6,0,4.1,1.6,4.1,4.2V543.5z M801.7,541.9
			c-0.1-0.7-0.8-1.2-1.5-1.2c-0.8,0-1.4,0.4-1.6,1.2H801.7z"/>
		<path class="st4" d="M810.4,541.2c-0.4-0.2-1-0.4-1.4-0.4c-0.3,0-0.8,0.1-0.8,0.5c0,0.5,0.8,0.6,1.2,0.7c1.3,0.3,2.2,0.8,2.2,2.2
			c0,2-1.8,2.8-3.6,2.8c-1.1,0-2.1-0.3-3-0.9l1-1.9c0.5,0.4,1.5,0.8,2.1,0.8c0.3,0,0.8-0.2,0.8-0.6c0-0.6-0.8-0.6-1.7-0.8
			c-0.8-0.2-1.7-0.6-1.7-2c0-1.9,1.7-2.7,3.3-2.7c0.9,0,1.7,0.1,2.5,0.5L810.4,541.2z"/>
		<path class="st4" d="M815.6,540.1L815.6,540.1c0.5-0.8,1.4-1.1,2.3-1.1c2.3,0,3.8,1.9,3.8,4c0,2.2-1.5,4-3.8,4
			c-0.9,0-1.8-0.3-2.3-1v4.5h-2.7v-11.3h2.7V540.1z M815.5,543c0,1,0.6,1.7,1.7,1.7c1.1,0,1.7-0.7,1.7-1.7c0-0.9-0.6-1.7-1.7-1.7
			C816.1,541.3,815.5,542.1,815.5,543z"/>
		<path class="st4" d="M831.3,546.8h-2.7v-0.8h0c-0.5,0.8-1.4,1.1-2.3,1.1c-2.2,0-3.8-1.9-3.8-4c0-2.2,1.5-4,3.8-4
			c0.9,0,1.8,0.3,2.3,1v-0.7h2.7V546.8z M825.3,543c0,1,0.6,1.7,1.7,1.7c1.1,0,1.7-0.7,1.7-1.7c0-0.9-0.6-1.7-1.7-1.7
			C825.9,541.3,825.3,542.1,825.3,543z"/>
		<path class="st4" d="M838.5,541.7c-0.4-0.3-0.9-0.5-1.4-0.5c-1,0-1.8,0.8-1.8,1.8c0,1.1,0.8,1.9,1.9,1.9c0.5,0,1-0.2,1.3-0.5v2.3
			c-0.6,0.3-1.2,0.4-1.9,0.4c-2.2,0-4.1-1.7-4.1-3.9c0-2.4,1.9-4.1,4.2-4.1c0.6,0,1.2,0.1,1.8,0.4V541.7z"/>
		<path class="st4" d="M842.8,534.6v5.6h0c0.6-0.8,1.4-1.2,2.4-1.2c1.9,0,2.8,1.3,2.8,3.2v4.6h-2.7v-3.9c0-0.9-0.1-1.8-1.2-1.8
			c-1.1,0-1.4,0.9-1.4,1.8v3.9h-2.7v-12.2H842.8z"/>
		<path class="st4" d="M858.4,543c0,2.6-2.1,4-4.5,4c-2.4,0-4.5-1.4-4.5-4s2.1-4,4.5-4C856.3,539,858.4,540.4,858.4,543z M852.2,543
			c0,1,0.6,1.7,1.7,1.7s1.7-0.7,1.7-1.7c0-0.9-0.6-1.7-1.7-1.7S852.2,542.1,852.2,543z"/>
	</g>
</g>
<rect id="XMLID_62_" x="662.8" y="592.2" class="st2" width="235.5" height="59.8"/>
<rect id="XMLID_61_" x="662.8" y="193.1" class="st2" width="235.5" height="66.8"/>
<g>
	<g>
		<path class="st4" d="M749.6,216h-2.9v-8.7h-2.4v-2.4h7.7v2.4h-2.4V216z"/>
		<path class="st4" d="M759.6,212.7H754c0,1.1,0.6,1.7,1.7,1.7c0.6,0,1-0.2,1.3-0.7h2.6c-0.2,0.9-0.7,1.5-1.4,2
			c-0.7,0.4-1.5,0.6-2.4,0.6c-2.5,0-4.4-1.4-4.4-4c0-2.5,1.7-4,4.2-4c2.6,0,4.1,1.6,4.1,4.2V212.7z M755.1,207.4l-1.2-0.9l2.1-2.5
			l1.6,1.2L755.1,207.4z M757.1,211.2c-0.1-0.7-0.8-1.2-1.5-1.2c-0.8,0-1.4,0.4-1.6,1.2H757.1z"/>
		<path class="st4" d="M766.2,210.9c-0.4-0.3-0.9-0.5-1.4-0.5c-1,0-1.8,0.8-1.8,1.8c0,1.1,0.8,1.9,1.9,1.9c0.5,0,1-0.2,1.3-0.5v2.3
			c-0.6,0.3-1.2,0.4-1.9,0.4c-2.2,0-4.1-1.7-4.1-3.9c0-2.4,1.9-4.1,4.2-4.1c0.6,0,1.2,0.1,1.8,0.4V210.9z"/>
		<path class="st4" d="M770.6,209.4L770.6,209.4c0.6-0.9,1.4-1.2,2.4-1.2c2,0,2.8,1.3,2.8,3.1v4.7h-2.7v-3.7c0-0.7,0.1-2-1.2-2
			c-1.1,0-1.4,0.8-1.4,1.8v3.9h-2.7v-7.5h2.7V209.4z"/>
		<path class="st4" d="M780.5,205.6c0,0.8-0.7,1.5-1.5,1.5s-1.5-0.7-1.5-1.5c0-0.8,0.7-1.5,1.5-1.5S780.5,204.8,780.5,205.6z
			 M780.3,216h-2.7v-7.5h2.7V216z"/>
		<path class="st4" d="M787.5,210.9c-0.4-0.3-0.9-0.5-1.4-0.5c-1,0-1.8,0.8-1.8,1.8c0,1.1,0.8,1.9,1.9,1.9c0.5,0,1-0.2,1.3-0.5v2.3
			c-0.6,0.3-1.2,0.4-1.9,0.4c-2.2,0-4.1-1.7-4.1-3.9c0-2.4,1.9-4.1,4.2-4.1c0.6,0,1.2,0.1,1.8,0.4V210.9z"/>
		<path class="st4" d="M797.7,212.3c0,2.6-2.1,4-4.5,4c-2.4,0-4.5-1.4-4.5-4c0-2.6,2.1-4,4.5-4S797.7,209.7,797.7,212.3z
			 M791.4,212.3c0,1,0.6,1.7,1.7,1.7c1.1,0,1.7-0.7,1.7-1.7c0-0.9-0.6-1.7-1.7-1.7C792.1,210.6,791.4,211.3,791.4,212.3z"/>
		<path class="st4" d="M809.6,215.2L809.6,215.2c-0.5,0.8-1.4,1.1-2.3,1.1c-2.2,0-3.8-1.9-3.8-4c0-2.2,1.5-4,3.8-4
			c0.9,0,1.8,0.3,2.3,1v-5.4h2.7V216h-2.7V215.2z M806.3,212.3c0,1,0.6,1.7,1.7,1.7s1.7-0.7,1.7-1.7c0-0.9-0.6-1.7-1.7-1.7
			S806.3,211.3,806.3,212.3z"/>
		<path class="st4" d="M821.8,212.7h-5.6c0,1.1,0.6,1.7,1.7,1.7c0.6,0,1-0.2,1.3-0.7h2.6c-0.2,0.9-0.7,1.5-1.4,2
			c-0.7,0.4-1.5,0.6-2.4,0.6c-2.5,0-4.4-1.4-4.4-4c0-2.5,1.7-4,4.2-4c2.6,0,4.1,1.6,4.1,4.2V212.7z M819.3,211.2
			c-0.1-0.7-0.8-1.2-1.5-1.2c-0.8,0-1.4,0.4-1.6,1.2H819.3z"/>
		<path class="st4" d="M701.1,226.3c-0.6-0.8-1.5-1.2-2.5-1.2c-1.8,0-3,1.4-3,3.1c0,1.8,1.2,3,3,3c0.9,0,1.9-0.5,2.5-1.2v3.5
			c-1,0.3-1.6,0.5-2.5,0.5c-1.5,0-3-0.6-4.2-1.6c-1.2-1.1-1.8-2.5-1.8-4.2c0-1.5,0.6-3,1.6-4.1c1.1-1.1,2.7-1.8,4.2-1.8
			c0.9,0,1.8,0.2,2.6,0.6V226.3z"/>
		<path class="st4" d="M711,233.7h-2.7v-0.8h0c-0.5,0.8-1.4,1.1-2.3,1.1c-2.2,0-3.8-1.9-3.8-4c0-2.2,1.5-4,3.8-4
			c0.9,0,1.8,0.3,2.3,1v-0.7h2.7V233.7z M705,229.9c0,1,0.6,1.7,1.7,1.7c1.1,0,1.7-0.7,1.7-1.7c0-0.9-0.6-1.7-1.7-1.7
			C705.6,228.2,705,229,705,229.9z"/>
		<path class="st4" d="M715.7,233.7h-2.7v-5.3h-0.9v-2.2h0.9v-2.3h2.7v2.3h1.5v2.2h-1.5V233.7z"/>
		<path class="st4" d="M726.4,233.7h-2.7v-0.8h0c-0.5,0.8-1.4,1.1-2.3,1.1c-2.2,0-3.8-1.9-3.8-4c0-2.2,1.5-4,3.8-4
			c0.9,0,1.8,0.3,2.3,1v-0.7h2.7V233.7z M720.3,229.9c0,1,0.6,1.7,1.7,1.7c1.1,0,1.7-0.7,1.7-1.7c0-0.9-0.6-1.7-1.7-1.7
			C721,228.2,720.3,229,720.3,229.9z"/>
		<path class="st4" d="M733.1,228.1c-0.4-0.2-1-0.4-1.4-0.4c-0.3,0-0.8,0.1-0.8,0.5c0,0.5,0.8,0.6,1.2,0.7c1.3,0.3,2.2,0.8,2.2,2.2
			c0,2-1.8,2.8-3.6,2.8c-1.1,0-2.1-0.3-3-0.9l1-1.9c0.5,0.4,1.5,0.8,2.1,0.8c0.3,0,0.8-0.2,0.8-0.6c0-0.6-0.8-0.6-1.7-0.8
			c-0.8-0.2-1.7-0.6-1.7-2c0-1.9,1.7-2.7,3.3-2.7c0.9,0,1.7,0.1,2.5,0.5L733.1,228.1z"/>
		<path class="st4" d="M738.6,233.7h-2.7v-5.3h-0.9v-2.2h0.9v-2.3h2.7v2.3h1.5v2.2h-1.5V233.7z"/>
		<path class="st4" d="M743.7,227.4L743.7,227.4c0.5-0.9,1.4-1.3,2.5-1.3h0.5v2.6c-0.4-0.2-0.7-0.3-1.1-0.3c-1.5,0-1.9,1-1.9,2.3v3
			H741v-7.5h2.7V227.4z"/>
		<path class="st4" d="M755.9,229.9c0,2.6-2.1,4-4.5,4c-2.4,0-4.5-1.4-4.5-4c0-2.6,2.1-4,4.5-4C753.8,225.9,755.9,227.3,755.9,229.9
			z M749.7,229.9c0,1,0.6,1.7,1.7,1.7s1.7-0.7,1.7-1.7c0-0.9-0.6-1.7-1.7-1.7S749.7,229,749.7,229.9z"/>
		<path class="st4" d="M769.4,221.5l-5.6,13.6h-2.1l5.6-13.6H769.4z"/>
		<path class="st4" d="M787.5,227.9c0,3.6-2.6,6.1-6.1,6.1c-3.6,0-6.1-2.5-6.1-6.1c0-3.4,2.9-5.7,6.1-5.7
			C784.6,222.2,787.5,224.6,787.5,227.9z M778.2,227.9c0,1.9,1.4,3.3,3.1,3.3c1.7,0,3.1-1.4,3.1-3.3c0-1.5-1.4-2.9-3.1-2.9
			C779.7,225,778.2,226.4,778.2,227.9z"/>
		<path class="st4" d="M791.4,227L791.4,227c0.5-0.8,1.4-1.1,2.3-1.1c2.3,0,3.8,1.9,3.8,4c0,2.2-1.5,4-3.8,4c-0.9,0-1.8-0.3-2.3-1
			v4.5h-2.7v-11.3h2.7V227z M791.3,229.9c0,1,0.6,1.7,1.7,1.7c1.1,0,1.7-0.7,1.7-1.7c0-0.9-0.6-1.7-1.7-1.7
			C791.9,228.2,791.3,229,791.3,229.9z"/>
		<path class="st4" d="M806.6,230.4h-5.6c0,1.1,0.6,1.7,1.7,1.7c0.6,0,1-0.2,1.3-0.7h2.6c-0.2,0.9-0.7,1.5-1.4,2
			c-0.7,0.4-1.5,0.6-2.4,0.6c-2.5,0-4.4-1.4-4.4-4c0-2.5,1.7-4,4.2-4c2.6,0,4.1,1.6,4.1,4.2V230.4z M804.1,228.8
			c-0.1-0.7-0.8-1.2-1.5-1.2c-0.8,0-1.4,0.4-1.6,1.2H804.1z"/>
		<path class="st4" d="M810.5,227.4L810.5,227.4c0.5-0.9,1.4-1.3,2.5-1.3h0.5v2.6c-0.4-0.2-0.7-0.3-1.1-0.3c-1.5,0-1.9,1-1.9,2.3v3
			h-2.7v-7.5h2.7V227.4z"/>
		<path class="st4" d="M822.7,233.7H820v-0.8h0c-0.5,0.8-1.4,1.1-2.3,1.1c-2.2,0-3.8-1.9-3.8-4c0-2.2,1.5-4,3.8-4
			c0.9,0,1.8,0.3,2.3,1v-0.7h2.7V233.7z M816.7,229.9c0,1,0.6,1.7,1.7,1.7c1.1,0,1.7-0.7,1.7-1.7c0-0.9-0.6-1.7-1.7-1.7
			C817.3,228.2,816.7,229,816.7,229.9z"/>
		<path class="st4" d="M830.2,232.8L830.2,232.8c-0.5,0.8-1.4,1.1-2.3,1.1c-2.2,0-3.8-1.9-3.8-4c0-2.2,1.5-4,3.8-4
			c0.9,0,1.8,0.3,2.3,1v-5.4h2.7v12.2h-2.7V232.8z M826.8,229.9c0,1,0.6,1.7,1.7,1.7c1.1,0,1.7-0.7,1.7-1.7c0-0.9-0.6-1.7-1.7-1.7
			C827.4,228.2,826.8,229,826.8,229.9z"/>
		<path class="st4" d="M843.1,229.9c0,2.6-2.1,4-4.5,4c-2.4,0-4.5-1.4-4.5-4c0-2.6,2.1-4,4.5-4C840.9,225.9,843.1,227.3,843.1,229.9
			z M836.8,229.9c0,1,0.6,1.7,1.7,1.7c1.1,0,1.7-0.7,1.7-1.7c0-0.9-0.6-1.7-1.7-1.7C837.4,228.2,836.8,229,836.8,229.9z"/>
		<path class="st4" d="M846.9,227.4L846.9,227.4c0.5-0.9,1.4-1.3,2.5-1.3h0.5v2.6c-0.4-0.2-0.7-0.3-1.1-0.3c-1.5,0-1.9,1-1.9,2.3v3
			h-2.7v-7.5h2.7V227.4z"/>
		<path class="st4" d="M861.6,232.8L861.6,232.8c-0.5,0.8-1.4,1.1-2.3,1.1c-2.2,0-3.8-1.9-3.8-4c0-2.2,1.5-4,3.8-4
			c0.9,0,1.8,0.3,2.3,1v-5.4h2.7v12.2h-2.7V232.8z M858.3,229.9c0,1,0.6,1.7,1.7,1.7s1.7-0.7,1.7-1.7c0-0.9-0.6-1.7-1.7-1.7
			S858.3,229,858.3,229.9z"/>
		<path class="st4" d="M873.8,230.4h-5.6c0,1.1,0.6,1.7,1.7,1.7c0.6,0,1-0.2,1.3-0.7h2.6c-0.2,0.9-0.7,1.5-1.4,2
			c-0.7,0.4-1.5,0.6-2.4,0.6c-2.5,0-4.4-1.4-4.4-4c0-2.5,1.7-4,4.2-4c2.6,0,4.1,1.6,4.1,4.2V230.4z M871.3,228.8
			c-0.1-0.7-0.8-1.2-1.5-1.2c-0.8,0-1.4,0.4-1.6,1.2H871.3z"/>
		<path class="st4" d="M773.4,251.3h-3.6l-2.7-4.3h0v4.3h-2.9v-11.1h4.3c2.2,0,3.9,1,3.9,3.4c0,1.5-0.9,2.9-2.4,3.1L773.4,251.3z
			 M767,245.2h0.3c0.9,0,2-0.2,2-1.4c0-1.2-1.1-1.4-2-1.4H767V245.2z"/>
		<path class="st4" d="M783.8,240.2v6.2c0,1.4-0.1,2.8-1.2,3.9c-0.9,0.9-2.4,1.2-3.7,1.2c-1.3,0-2.8-0.3-3.7-1.2
			c-1.1-1.1-1.2-2.5-1.2-3.9v-6.2h2.9v5.8c0,1.4,0.1,3,2,3s2-1.6,2-3v-5.8H783.8z"/>
		<path class="st4" d="M788.4,249.4l-0.8,1.9h-3.1l4.3-11.1h3.1l4.2,11.1h-3.1l-0.7-1.9H788.4z M790.4,243.7L790.4,243.7l-1.2,3.5
			h2.4L790.4,243.7z"/>
		<path class="st4" d="M800.6,251.3h-2.9v-8.7h-2.4v-2.4h7.7v2.4h-2.4V251.3z"/>
	</g>
</g>
<rect id="XMLID_57_" x="101.1" y="683.9" class="st2" width="221.5" height="74.2"/>
<g>
	<g>
		<path class="st4" d="M176.5,711.6h-2.9V703h-2.4v-2.4h7.7v2.4h-2.4V711.6z"/>
		<path class="st4" d="M186.5,708.3h-5.6c0,1.1,0.6,1.7,1.7,1.7c0.6,0,1-0.2,1.3-0.7h2.6c-0.2,0.9-0.7,1.5-1.4,2
			c-0.7,0.4-1.5,0.6-2.4,0.6c-2.5,0-4.4-1.4-4.4-4c0-2.5,1.7-4,4.2-4c2.6,0,4.1,1.6,4.1,4.2V708.3z M182.1,702.9l-1.2-0.9l2.1-2.5
			l1.6,1.2L182.1,702.9z M184,706.7c-0.1-0.7-0.8-1.2-1.5-1.2c-0.8,0-1.4,0.4-1.6,1.2H184z"/>
		<path class="st4" d="M193.2,706.5c-0.4-0.3-0.9-0.5-1.4-0.5c-1,0-1.8,0.8-1.8,1.8c0,1.1,0.8,1.9,1.9,1.9c0.5,0,1-0.2,1.3-0.5v2.3
			c-0.6,0.3-1.2,0.4-1.9,0.4c-2.2,0-4.1-1.7-4.1-3.9c0-2.4,1.9-4.1,4.2-4.1c0.6,0,1.2,0.1,1.8,0.4V706.5z"/>
		<path class="st4" d="M197.5,705L197.5,705c0.6-0.9,1.4-1.2,2.4-1.2c2,0,2.8,1.3,2.8,3.1v4.7h-2.7v-3.7c0-0.7,0.1-2-1.2-2
			c-1.1,0-1.4,0.8-1.4,1.8v3.9h-2.7v-7.5h2.7V705z"/>
		<path class="st4" d="M207.4,701.2c0,0.8-0.7,1.5-1.5,1.5s-1.5-0.7-1.5-1.5s0.7-1.5,1.5-1.5S207.4,700.3,207.4,701.2z M207.2,711.6
			h-2.7v-7.5h2.7V711.6z"/>
		<path class="st4" d="M214.5,706.5c-0.4-0.3-0.9-0.5-1.4-0.5c-1,0-1.8,0.8-1.8,1.8c0,1.1,0.8,1.9,1.9,1.9c0.5,0,1-0.2,1.3-0.5v2.3
			c-0.6,0.3-1.2,0.4-1.9,0.4c-2.2,0-4.1-1.7-4.1-3.9c0-2.4,1.9-4.1,4.2-4.1c0.6,0,1.2,0.1,1.8,0.4V706.5z"/>
		<path class="st4" d="M224.7,707.8c0,2.6-2.1,4-4.5,4c-2.4,0-4.5-1.4-4.5-4c0-2.6,2.1-4,4.5-4C222.5,703.8,224.7,705.3,224.7,707.8
			z M218.4,707.8c0,1,0.6,1.7,1.7,1.7c1.1,0,1.7-0.7,1.7-1.7c0-0.9-0.6-1.7-1.7-1.7C219,706.1,218.4,706.9,218.4,707.8z"/>
		<path class="st4" d="M236.6,710.8L236.6,710.8c-0.5,0.8-1.4,1.1-2.3,1.1c-2.2,0-3.8-1.9-3.8-4c0-2.2,1.5-4,3.8-4
			c0.9,0,1.8,0.3,2.3,1v-5.4h2.7v12.2h-2.7V710.8z M233.2,707.8c0,1,0.6,1.7,1.7,1.7c1.1,0,1.7-0.7,1.7-1.7c0-0.9-0.6-1.7-1.7-1.7
			C233.9,706.1,233.2,706.9,233.2,707.8z"/>
		<path class="st4" d="M248.7,708.3h-5.6c0,1.1,0.6,1.7,1.7,1.7c0.6,0,1-0.2,1.3-0.7h2.6c-0.2,0.9-0.7,1.5-1.4,2
			c-0.7,0.4-1.5,0.6-2.4,0.6c-2.5,0-4.4-1.4-4.4-4c0-2.5,1.7-4,4.2-4c2.6,0,4.1,1.6,4.1,4.2V708.3z M246.2,706.7
			c-0.1-0.7-0.8-1.2-1.5-1.2c-0.8,0-1.4,0.4-1.6,1.2H246.2z"/>
		<path class="st4" d="M128,721.9c-0.6-0.8-1.5-1.2-2.5-1.2c-1.8,0-3,1.4-3,3.1c0,1.8,1.2,3,3,3c0.9,0,1.9-0.5,2.5-1.2v3.5
			c-1,0.3-1.6,0.5-2.5,0.5c-1.5,0-3-0.6-4.2-1.6c-1.2-1.1-1.8-2.5-1.8-4.2c0-1.5,0.6-3,1.6-4.1c1.1-1.1,2.7-1.8,4.2-1.8
			c0.9,0,1.8,0.2,2.6,0.6V721.9z"/>
		<path class="st4" d="M138,729.3h-2.7v-0.8h0c-0.5,0.8-1.4,1.1-2.3,1.1c-2.2,0-3.8-1.9-3.8-4c0-2.2,1.5-4,3.8-4
			c0.9,0,1.8,0.3,2.3,1v-0.7h2.7V729.3z M131.9,725.5c0,1,0.6,1.7,1.7,1.7c1.1,0,1.7-0.7,1.7-1.7c0-0.9-0.6-1.7-1.7-1.7
			C132.6,723.8,131.9,724.6,131.9,725.5z"/>
		<path class="st4" d="M142.7,729.3H140v-5.3h-0.9v-2.2h0.9v-2.3h2.7v2.3h1.5v2.2h-1.5V729.3z"/>
		<path class="st4" d="M153.3,729.3h-2.7v-0.8h0c-0.5,0.8-1.4,1.1-2.3,1.1c-2.2,0-3.8-1.9-3.8-4c0-2.2,1.5-4,3.8-4
			c0.9,0,1.8,0.3,2.3,1v-0.7h2.7V729.3z M147.3,725.5c0,1,0.6,1.7,1.7,1.7c1.1,0,1.7-0.7,1.7-1.7c0-0.9-0.6-1.7-1.7-1.7
			C147.9,723.8,147.3,724.6,147.3,725.5z"/>
		<path class="st4" d="M160.1,723.7c-0.4-0.2-1-0.4-1.4-0.4c-0.3,0-0.8,0.1-0.8,0.5c0,0.5,0.8,0.6,1.2,0.7c1.3,0.3,2.2,0.8,2.2,2.2
			c0,2-1.8,2.8-3.6,2.8c-1.1,0-2.1-0.3-3-0.9l1-1.9c0.5,0.4,1.5,0.8,2.1,0.8c0.3,0,0.8-0.2,0.8-0.6c0-0.6-0.8-0.6-1.7-0.8
			c-0.8-0.2-1.7-0.6-1.7-2c0-1.9,1.7-2.7,3.3-2.7c0.9,0,1.7,0.1,2.5,0.5L160.1,723.7z"/>
		<path class="st4" d="M165.6,729.3h-2.7v-5.3H162v-2.2h0.9v-2.3h2.7v2.3h1.5v2.2h-1.5V729.3z"/>
		<path class="st4" d="M170.6,723L170.6,723c0.5-0.9,1.4-1.3,2.5-1.3h0.5v2.6c-0.4-0.2-0.7-0.3-1.1-0.3c-1.5,0-1.9,1-1.9,2.3v3h-2.7
			v-7.5h2.7V723z"/>
		<path class="st4" d="M182.9,725.5c0,2.6-2.1,4-4.5,4c-2.4,0-4.5-1.4-4.5-4c0-2.6,2.1-4,4.5-4C180.7,721.5,182.9,722.9,182.9,725.5
			z M176.6,725.5c0,1,0.6,1.7,1.7,1.7c1.1,0,1.7-0.7,1.7-1.7c0-0.9-0.6-1.7-1.7-1.7C177.2,723.8,176.6,724.6,176.6,725.5z"/>
		<path class="st4" d="M196.3,717.1l-5.6,13.6h-2.1l5.6-13.6H196.3z"/>
		<path class="st4" d="M214.4,723.5c0,3.6-2.6,6.1-6.1,6.1c-3.6,0-6.1-2.5-6.1-6.1c0-3.4,2.9-5.7,6.1-5.7
			C211.5,717.8,214.4,720.2,214.4,723.5z M205.2,723.5c0,1.9,1.4,3.3,3.1,3.3c1.7,0,3.1-1.4,3.1-3.3c0-1.5-1.4-2.9-3.1-2.9
			C206.6,720.6,205.2,722,205.2,723.5z"/>
		<path class="st4" d="M218.3,722.6L218.3,722.6c0.5-0.8,1.4-1.1,2.3-1.1c2.3,0,3.8,1.9,3.8,4c0,2.2-1.5,4-3.8,4
			c-0.9,0-1.8-0.3-2.3-1v4.5h-2.7v-11.3h2.7V722.6z M218.2,725.5c0,1,0.6,1.7,1.7,1.7c1.1,0,1.7-0.7,1.7-1.7c0-0.9-0.6-1.7-1.7-1.7
			C218.9,723.8,218.2,724.6,218.2,725.5z"/>
		<path class="st4" d="M233.5,725.9h-5.6c0,1.1,0.6,1.7,1.7,1.7c0.6,0,1-0.2,1.3-0.7h2.6c-0.2,0.9-0.7,1.5-1.4,2
			c-0.7,0.4-1.5,0.6-2.4,0.6c-2.5,0-4.4-1.4-4.4-4c0-2.5,1.7-4,4.2-4c2.6,0,4.1,1.6,4.1,4.2V725.9z M231,724.4
			c-0.1-0.7-0.8-1.2-1.5-1.2c-0.8,0-1.4,0.4-1.6,1.2H231z"/>
		<path class="st4" d="M237.4,723L237.4,723c0.5-0.9,1.4-1.3,2.5-1.3h0.5v2.6c-0.4-0.2-0.7-0.3-1.1-0.3c-1.5,0-1.9,1-1.9,2.3v3h-2.7
			v-7.5h2.7V723z"/>
		<path class="st4" d="M249.6,729.3H247v-0.8h0c-0.5,0.8-1.4,1.1-2.3,1.1c-2.2,0-3.8-1.9-3.8-4c0-2.2,1.5-4,3.8-4
			c0.9,0,1.8,0.3,2.3,1v-0.7h2.7V729.3z M243.6,725.5c0,1,0.6,1.7,1.7,1.7s1.7-0.7,1.7-1.7c0-0.9-0.6-1.7-1.7-1.7
			S243.6,724.6,243.6,725.5z"/>
		<path class="st4" d="M257.1,728.4L257.1,728.4c-0.5,0.8-1.4,1.1-2.3,1.1c-2.2,0-3.8-1.9-3.8-4c0-2.2,1.5-4,3.8-4
			c0.9,0,1.8,0.3,2.3,1v-5.4h2.7v12.2h-2.7V728.4z M253.7,725.5c0,1,0.6,1.7,1.7,1.7c1.1,0,1.7-0.7,1.7-1.7c0-0.9-0.6-1.7-1.7-1.7
			C254.4,723.8,253.7,724.6,253.7,725.5z"/>
		<path class="st4" d="M270,725.5c0,2.6-2.1,4-4.5,4c-2.4,0-4.5-1.4-4.5-4c0-2.6,2.1-4,4.5-4C267.9,721.5,270,722.9,270,725.5z
			 M263.7,725.5c0,1,0.6,1.7,1.7,1.7c1.1,0,1.7-0.7,1.7-1.7c0-0.9-0.6-1.7-1.7-1.7C264.4,723.8,263.7,724.6,263.7,725.5z"/>
		<path class="st4" d="M273.9,723L273.9,723c0.5-0.9,1.4-1.3,2.5-1.3h0.5v2.6c-0.4-0.2-0.7-0.3-1.1-0.3c-1.5,0-1.9,1-1.9,2.3v3h-2.7
			v-7.5h2.7V723z"/>
		<path class="st4" d="M288.6,728.4L288.6,728.4c-0.5,0.8-1.4,1.1-2.3,1.1c-2.2,0-3.8-1.9-3.8-4c0-2.2,1.5-4,3.8-4
			c0.9,0,1.8,0.3,2.3,1v-5.4h2.7v12.2h-2.7V728.4z M285.2,725.5c0,1,0.6,1.7,1.7,1.7c1.1,0,1.7-0.7,1.7-1.7c0-0.9-0.6-1.7-1.7-1.7
			C285.9,723.8,285.2,724.6,285.2,725.5z"/>
		<path class="st4" d="M300.7,725.9h-5.6c0,1.1,0.6,1.7,1.7,1.7c0.6,0,1-0.2,1.3-0.7h2.6c-0.2,0.9-0.7,1.5-1.4,2
			c-0.7,0.4-1.5,0.6-2.4,0.6c-2.5,0-4.4-1.4-4.4-4c0-2.5,1.7-4,4.2-4c2.6,0,4.1,1.6,4.1,4.2V725.9z M298.2,724.4
			c-0.1-0.7-0.8-1.2-1.5-1.2c-0.8,0-1.4,0.4-1.6,1.2H298.2z"/>
		<path class="st4" d="M200.3,746.9h-3.6l-2.7-4.3h0v4.3h-2.9v-11.1h4.3c2.2,0,3.9,1,3.9,3.4c0,1.5-0.9,2.9-2.4,3.1L200.3,746.9z
			 M194,740.8h0.3c0.9,0,2-0.2,2-1.4c0-1.2-1.1-1.4-2-1.4H194V740.8z"/>
		<path class="st4" d="M210.7,735.8v6.2c0,1.4-0.1,2.8-1.2,3.9c-0.9,0.9-2.4,1.2-3.7,1.2c-1.3,0-2.8-0.3-3.7-1.2
			c-1.1-1.1-1.2-2.5-1.2-3.9v-6.2h2.9v5.8c0,1.4,0.1,3,2,3c1.9,0,2-1.6,2-3v-5.8H210.7z"/>
		<path class="st4" d="M215.3,745l-0.8,1.9h-3.1l4.3-11.1h3.1l4.2,11.1H220l-0.7-1.9H215.3z M217.4,739.3L217.4,739.3l-1.2,3.5h2.4
			L217.4,739.3z"/>
		<path class="st4" d="M227.5,746.9h-2.9v-8.7h-2.4v-2.4h7.7v2.4h-2.4V746.9z"/>
	</g>
</g>
<rect id="XMLID_49_" x="101.1" y="791.3" class="st2" width="221.5" height="57.2"/>
<g>
	<g>
		<path class="st4" d="M166.7,814.2l-0.8,1.9h-3.1l4.3-11.1h3.1l4.2,11.1h-3.1l-0.7-1.9H166.7z M168.7,808.5L168.7,808.5l-1.2,3.5
			h2.4L168.7,808.5z"/>
		<path class="st4" d="M175.2,804h2.7v5.4c0.6-0.7,1.5-1,2.3-1c2.2,0,3.8,1.9,3.8,4c0,2.2-1.6,4-3.8,4c-0.9,0-1.8-0.3-2.3-1.1h0v0.8
			h-2.7V804z M177.8,812.4c0,1,0.6,1.7,1.7,1.7c1.1,0,1.7-0.7,1.7-1.7c0-0.9-0.6-1.7-1.7-1.7C178.5,810.7,177.8,811.5,177.8,812.4z"
			/>
		<path class="st4" d="M193.9,812.4c0,2.6-2.1,4-4.5,4c-2.4,0-4.5-1.4-4.5-4c0-2.6,2.1-4,4.5-4C191.8,808.4,193.9,809.8,193.9,812.4
			z M187.6,812.4c0,1,0.6,1.7,1.7,1.7c1.1,0,1.7-0.7,1.7-1.7c0-0.9-0.6-1.7-1.7-1.7C188.3,810.7,187.6,811.5,187.6,812.4z"/>
		<path class="st4" d="M203.4,815.4c0,3.2-1.6,4.5-4.4,4.5c-1.7,0-4.1-0.9-4.3-2.9h3c0.1,0.3,0.3,0.5,0.5,0.6
			c0.2,0.1,0.5,0.2,0.8,0.2c1.4,0,1.7-0.9,1.7-2.2v-0.4c-0.7,0.7-1.4,1-2.4,1c-2.2,0-3.7-1.7-3.7-3.9c0-2.2,1.6-4.1,3.9-4.1
			c0.9,0,1.7,0.3,2.2,1h0v-0.8h2.7V815.4z M197.3,812.3c0,1,0.6,1.7,1.7,1.7c1.1,0,1.7-0.7,1.7-1.7c0-0.9-0.6-1.7-1.7-1.7
			C198,810.6,197.3,811.4,197.3,812.3z"/>
		<path class="st4" d="M213.3,816.2h-2.7v-0.8h0c-0.5,0.8-1.4,1.1-2.3,1.1c-2.2,0-3.8-1.9-3.8-4c0-2.2,1.5-4,3.8-4
			c0.9,0,1.8,0.3,2.3,1v-0.7h2.7V816.2z M207.3,812.4c0,1,0.6,1.7,1.7,1.7c1.1,0,1.7-0.7,1.7-1.7c0-0.9-0.6-1.7-1.7-1.7
			C207.9,810.7,207.3,811.5,207.3,812.4z"/>
		<path class="st4" d="M220.8,815.3L220.8,815.3c-0.5,0.8-1.4,1.1-2.3,1.1c-2.2,0-3.8-1.9-3.8-4c0-2.2,1.5-4,3.8-4
			c0.9,0,1.8,0.3,2.3,1V804h2.7v12.2h-2.7V815.3z M217.4,812.4c0,1,0.6,1.7,1.7,1.7c1.1,0,1.7-0.7,1.7-1.7c0-0.9-0.6-1.7-1.7-1.7
			C218,810.7,217.4,811.5,217.4,812.4z"/>
		<path class="st4" d="M233.7,812.4c0,2.6-2.1,4-4.5,4c-2.4,0-4.5-1.4-4.5-4c0-2.6,2.1-4,4.5-4C231.5,808.4,233.7,809.8,233.7,812.4
			z M227.4,812.4c0,1,0.6,1.7,1.7,1.7c1.1,0,1.7-0.7,1.7-1.7c0-0.9-0.6-1.7-1.7-1.7C228,810.7,227.4,811.5,227.4,812.4z"/>
		<path class="st4" d="M245.6,815.3L245.6,815.3c-0.5,0.8-1.4,1.1-2.3,1.1c-2.2,0-3.8-1.9-3.8-4c0-2.2,1.5-4,3.8-4
			c0.9,0,1.8,0.3,2.3,1V804h2.7v12.2h-2.7V815.3z M242.2,812.4c0,1,0.6,1.7,1.7,1.7c1.1,0,1.7-0.7,1.7-1.7c0-0.9-0.6-1.7-1.7-1.7
			C242.9,810.7,242.2,811.5,242.2,812.4z"/>
		<path class="st4" d="M257.7,812.8h-5.6c0,1.1,0.6,1.7,1.7,1.7c0.6,0,1-0.2,1.3-0.7h2.6c-0.2,0.9-0.7,1.5-1.4,2
			c-0.7,0.4-1.5,0.6-2.4,0.6c-2.5,0-4.4-1.4-4.4-4c0-2.5,1.7-4,4.2-4c2.6,0,4.1,1.6,4.1,4.2V812.8z M255.2,811.3
			c-0.1-0.7-0.8-1.2-1.5-1.2c-0.8,0-1.4,0.4-1.6,1.2H255.2z"/>
		<path class="st4" d="M187.3,826.4c-0.6-0.8-1.5-1.2-2.5-1.2c-1.8,0-3,1.4-3,3.1c0,1.8,1.2,3,3,3c0.9,0,1.9-0.5,2.5-1.2v3.5
			c-1,0.3-1.6,0.5-2.5,0.5c-1.5,0-3-0.6-4.2-1.6c-1.2-1.1-1.8-2.5-1.8-4.2c0-1.5,0.6-3,1.6-4.1c1.1-1.1,2.7-1.8,4.2-1.8
			c0.9,0,1.8,0.2,2.6,0.6V826.4z"/>
		<path class="st4" d="M197.3,833.8h-2.7V833h0c-0.5,0.8-1.4,1.1-2.3,1.1c-2.2,0-3.8-1.9-3.8-4c0-2.2,1.5-4,3.8-4
			c0.9,0,1.8,0.3,2.3,1v-0.7h2.7V833.8z M191.3,830.1c0,1,0.6,1.7,1.7,1.7c1.1,0,1.7-0.7,1.7-1.7c0-0.9-0.6-1.7-1.7-1.7
			C191.9,828.3,191.3,829.1,191.3,830.1z"/>
		<path class="st4" d="M202,833.8h-2.7v-5.3h-0.9v-2.2h0.9V824h2.7v2.3h1.5v2.2H202V833.8z"/>
		<path class="st4" d="M212.6,833.8H210V833h0c-0.5,0.8-1.4,1.1-2.3,1.1c-2.2,0-3.8-1.9-3.8-4c0-2.2,1.5-4,3.8-4
			c0.9,0,1.8,0.3,2.3,1v-0.7h2.7V833.8z M206.6,830.1c0,1,0.6,1.7,1.7,1.7c1.1,0,1.7-0.7,1.7-1.7c0-0.9-0.6-1.7-1.7-1.7
			C207.2,828.3,206.6,829.1,206.6,830.1z"/>
		<path class="st4" d="M219.4,828.2c-0.4-0.2-1-0.4-1.4-0.4c-0.3,0-0.8,0.1-0.8,0.5c0,0.5,0.8,0.6,1.2,0.7c1.3,0.3,2.2,0.8,2.2,2.2
			c0,2-1.8,2.8-3.6,2.8c-1.1,0-2.1-0.3-3-0.9l1-1.9c0.5,0.4,1.5,0.8,2.1,0.8c0.3,0,0.8-0.2,0.8-0.6c0-0.6-0.8-0.6-1.7-0.8
			c-0.8-0.2-1.7-0.6-1.7-2c0-1.9,1.7-2.7,3.3-2.7c0.9,0,1.7,0.1,2.5,0.5L219.4,828.2z"/>
		<path class="st4" d="M224.9,833.8h-2.7v-5.3h-0.9v-2.2h0.9V824h2.7v2.3h1.5v2.2h-1.5V833.8z"/>
		<path class="st4" d="M229.9,827.5L229.9,827.5c0.5-0.9,1.4-1.3,2.5-1.3h0.5v2.6c-0.4-0.2-0.7-0.3-1.1-0.3c-1.5,0-1.9,1-1.9,2.3v3
			h-2.7v-7.5h2.7V827.5z"/>
		<path class="st4" d="M242.2,830.1c0,2.6-2.1,4-4.5,4c-2.4,0-4.5-1.4-4.5-4s2.1-4,4.5-4C240.1,826,242.2,827.5,242.2,830.1z
			 M235.9,830.1c0,1,0.6,1.7,1.7,1.7c1.1,0,1.7-0.7,1.7-1.7c0-0.9-0.6-1.7-1.7-1.7C236.6,828.3,235.9,829.1,235.9,830.1z"/>
	</g>
</g>
<rect id="XMLID_50_" x="101.1" y="890.2" class="st2" width="221.5" height="57.2"/>
<g>
	<g>
		<path class="st4" d="M137.9,904.2v7.5c0,2.3-1.2,3.9-3.7,3.9c-1.2,0-2.2-0.6-2.9-1.6l1.7-1.8c0.3,0.4,0.8,0.9,1.2,0.9
			c0.9,0,0.8-1,0.8-1.6v-7.3H137.9z"/>
		<path class="st4" d="M147.4,912h-5.6c0,1.1,0.6,1.7,1.7,1.7c0.6,0,1-0.2,1.3-0.7h2.6c-0.2,0.9-0.7,1.5-1.4,2
			c-0.7,0.4-1.5,0.6-2.4,0.6c-2.5,0-4.4-1.4-4.4-4c0-2.5,1.7-4,4.2-4c2.6,0,4.1,1.6,4.1,4.2V912z M144.9,910.5
			c-0.1-0.7-0.8-1.2-1.5-1.2c-0.8,0-1.4,0.4-1.6,1.2H144.9z"/>
		<path class="st4" d="M151.6,915.3h-2.7V910h-0.9v-2.2h0.9v-1c0-1,0-1.8,0.8-2.6c0.7-0.8,1.6-1.2,2.6-1.2c0.4,0,0.8,0.1,1.1,0.3
			v2.3c-0.3-0.1-0.6-0.3-0.9-0.3c-0.7,0-0.9,0.4-0.9,1.3v1.2h1.9v2.2h-1.9V915.3z"/>
		<path class="st4" d="M162.1,912h-5.6c0,1.1,0.6,1.7,1.7,1.7c0.6,0,1-0.2,1.3-0.7h2.6c-0.2,0.9-0.7,1.5-1.4,2
			c-0.7,0.4-1.5,0.6-2.4,0.6c-2.5,0-4.4-1.4-4.4-4c0-2.5,1.7-4,4.2-4c2.6,0,4.1,1.6,4.1,4.2V912z M159.6,910.5
			c-0.1-0.7-0.8-1.2-1.5-1.2c-0.8,0-1.4,0.4-1.6,1.2H159.6z"/>
		<path class="st4" d="M174,914.5L174,914.5c-0.5,0.8-1.4,1.1-2.3,1.1c-2.2,0-3.8-1.9-3.8-4c0-2.2,1.5-4,3.8-4c0.9,0,1.8,0.3,2.3,1
			v-5.4h2.7v12.2H174V914.5z M170.7,911.6c0,1,0.6,1.7,1.7,1.7c1.1,0,1.7-0.7,1.7-1.7c0-0.9-0.6-1.7-1.7-1.7
			C171.3,909.8,170.7,910.6,170.7,911.6z"/>
		<path class="st4" d="M186.1,912h-5.6c0,1.1,0.6,1.7,1.7,1.7c0.6,0,1-0.2,1.3-0.7h2.6c-0.2,0.9-0.7,1.5-1.4,2
			c-0.7,0.4-1.5,0.6-2.4,0.6c-2.5,0-4.4-1.4-4.4-4c0-2.5,1.7-4,4.2-4c2.6,0,4.1,1.6,4.1,4.2V912z M183.6,910.5
			c-0.1-0.7-0.8-1.2-1.5-1.2c-0.8,0-1.4,0.4-1.6,1.2H183.6z"/>
		<path class="st4" d="M195,907.8v4c0,1,0.2,1.6,1.3,1.6s1.3-0.7,1.3-1.6v-4h2.7v4.5c0,2.5-1.8,3.3-4,3.3s-4-0.8-4-3.3v-4.5H195z"/>
		<path class="st4" d="M204.8,909L204.8,909c0.5-0.9,1.4-1.3,2.5-1.3h0.5v2.6c-0.4-0.2-0.7-0.3-1.1-0.3c-1.5,0-1.9,1-1.9,2.3v3h-2.7
			v-7.5h2.7V909z"/>
		<path class="st4" d="M208.7,903.1h2.7v5.4c0.6-0.7,1.5-1,2.3-1c2.2,0,3.8,1.9,3.8,4c0,2.2-1.6,4-3.8,4c-0.9,0-1.8-0.3-2.3-1.1h0
			v0.8h-2.7V903.1z M211.2,911.6c0,1,0.6,1.7,1.7,1.7c1.1,0,1.7-0.7,1.7-1.7c0-0.9-0.6-1.7-1.7-1.7
			C211.9,909.8,211.2,910.6,211.2,911.6z"/>
		<path class="st4" d="M227,915.3h-2.7v-0.8h0c-0.5,0.8-1.4,1.1-2.3,1.1c-2.2,0-3.8-1.9-3.8-4c0-2.2,1.5-4,3.8-4
			c0.9,0,1.8,0.3,2.3,1v-0.7h2.7V915.3z M221,911.6c0,1,0.6,1.7,1.7,1.7s1.7-0.7,1.7-1.7c0-0.9-0.6-1.7-1.7-1.7S221,910.6,221,911.6
			z"/>
		<path class="st4" d="M231.5,908.7L231.5,908.7c0.6-0.9,1.4-1.2,2.4-1.2c2,0,2.8,1.3,2.8,3.1v4.7h-2.7v-3.7c0-0.7,0.1-2-1.2-2
			c-1.1,0-1.4,0.8-1.4,1.8v3.9h-2.7v-7.5h2.7V908.7z"/>
		<path class="st4" d="M241.4,904.9c0,0.8-0.7,1.5-1.5,1.5s-1.5-0.7-1.5-1.5s0.7-1.5,1.5-1.5S241.4,904.1,241.4,904.9z M241.2,915.3
			h-2.7v-7.5h2.7V915.3z"/>
		<path class="st4" d="M248,909.7c-0.4-0.2-1-0.4-1.4-0.4c-0.3,0-0.8,0.1-0.8,0.5c0,0.5,0.8,0.6,1.2,0.7c1.3,0.3,2.2,0.8,2.2,2.2
			c0,2-1.8,2.8-3.6,2.8c-1.1,0-2.1-0.3-3-0.9l1-1.9c0.5,0.4,1.5,0.8,2.1,0.8c0.3,0,0.8-0.2,0.8-0.6c0-0.6-0.8-0.6-1.7-0.8
			c-0.8-0.2-1.7-0.6-1.7-2c0-1.9,1.7-2.7,3.3-2.7c0.9,0,1.7,0.1,2.5,0.5L248,909.7z"/>
		<path class="st4" d="M253.2,908.7L253.2,908.7c0.7-0.8,1.4-1.2,2.4-1.2c1.1,0,2,0.4,2.6,1.4c0.5-0.9,1.5-1.4,2.6-1.4
			c1.9,0,2.6,1.3,2.6,3v4.8h-2.7v-3.6c0-0.8,0-2.1-1.1-2.1c-1.2,0-1.3,1.2-1.3,2.1v3.6h-2.7v-3.6c0-0.8,0-2.1-1.2-2.1
			s-1.2,1.3-1.2,2.1v3.6h-2.7v-7.5h2.7V908.7z"/>
		<path class="st4" d="M273.6,911.6c0,2.6-2.1,4-4.5,4c-2.4,0-4.5-1.4-4.5-4s2.1-4,4.5-4C271.5,907.5,273.6,909,273.6,911.6z
			 M267.3,911.6c0,1,0.6,1.7,1.7,1.7c1.1,0,1.7-0.7,1.7-1.7c0-0.9-0.6-1.7-1.7-1.7C268,909.8,267.3,910.6,267.3,911.6z"/>
		<path class="st4" d="M278.8,907.8h3.1l2,3.9l2-3.9h3l-6,11.3h-3l2.6-4.8L278.8,907.8z"/>
		<path class="st4" d="M120.5,933h-2.7v-5.3h-0.9v-2.2h0.9v-2.3h2.7v2.3h1.5v2.2h-1.5V933z"/>
		<path class="st4" d="M125.5,926.7L125.5,926.7c0.5-0.9,1.4-1.3,2.5-1.3h0.5v2.6c-0.4-0.2-0.7-0.3-1.1-0.3c-1.5,0-1.9,1-1.9,2.3v3
			h-2.7v-7.5h2.7V926.7z"/>
		<path class="st4" d="M137.8,933h-2.7v-0.8h0c-0.5,0.8-1.4,1.1-2.3,1.1c-2.2,0-3.8-1.9-3.8-4c0-2.2,1.5-4,3.8-4
			c0.9,0,1.8,0.3,2.3,1v-0.7h2.7V933z M131.7,929.2c0,1,0.6,1.7,1.7,1.7s1.7-0.7,1.7-1.7c0-0.9-0.6-1.7-1.7-1.7
			S131.7,928.3,131.7,929.2z M133.3,924.3l-1.2-0.9l2.1-2.5l1.6,1.2L133.3,924.3z"/>
		<path class="st4" d="M142.2,926.4L142.2,926.4c0.7-0.8,1.4-1.2,2.4-1.2c1.1,0,2,0.4,2.6,1.4c0.5-0.9,1.5-1.4,2.6-1.4
			c1.9,0,2.6,1.3,2.6,3v4.8h-2.7v-3.6c0-0.8,0-2.1-1.1-2.1c-1.2,0-1.3,1.2-1.3,2.1v3.6h-2.7v-3.6c0-0.8,0-2.1-1.2-2.1
			s-1.2,1.3-1.2,2.1v3.6h-2.7v-7.5h2.7V926.4z"/>
		<path class="st4" d="M156.9,922.5c0,0.8-0.7,1.5-1.5,1.5c-0.8,0-1.5-0.7-1.5-1.5s0.7-1.5,1.5-1.5
			C156.3,921,156.9,921.7,156.9,922.5z M156.8,933h-2.7v-7.5h2.7V933z"/>
		<path class="st4" d="M161.5,933h-2.7v-5.3h-0.9v-2.2h0.9v-2.3h2.7v2.3h1.5v2.2h-1.5V933z"/>
		<path class="st4" d="M171.6,929.7H166c0,1.1,0.6,1.7,1.7,1.7c0.6,0,1-0.2,1.3-0.7h2.6c-0.2,0.9-0.7,1.5-1.4,2
			c-0.7,0.4-1.5,0.6-2.4,0.6c-2.5,0-4.4-1.4-4.4-4c0-2.5,1.7-4,4.2-4c2.6,0,4.1,1.6,4.1,4.2V929.7z M169.1,928.1
			c-0.1-0.7-0.8-1.2-1.5-1.2c-0.8,0-1.4,0.4-1.6,1.2H169.1z"/>
		<path class="st4" d="M177.8,927.4c-0.4-0.2-1-0.4-1.4-0.4c-0.3,0-0.8,0.1-0.8,0.5c0,0.5,0.8,0.6,1.2,0.7c1.3,0.3,2.2,0.8,2.2,2.2
			c0,2-1.8,2.8-3.6,2.8c-1.1,0-2.1-0.3-3-0.9l1-1.9c0.5,0.4,1.5,0.8,2.1,0.8c0.3,0,0.8-0.2,0.8-0.6c0-0.6-0.8-0.6-1.7-0.8
			c-0.8-0.2-1.7-0.6-1.7-2c0-1.9,1.7-2.7,3.3-2.7c0.9,0,1.7,0.1,2.5,0.5L177.8,927.4z"/>
		<path class="st4" d="M193.7,933H191v-0.8h0c-0.5,0.8-1.4,1.1-2.3,1.1c-2.2,0-3.8-1.9-3.8-4c0-2.2,1.5-4,3.8-4c0.9,0,1.8,0.3,2.3,1
			v-0.7h2.7V933z M187.6,929.2c0,1,0.6,1.7,1.7,1.7c1.1,0,1.7-0.7,1.7-1.7c0-0.9-0.6-1.7-1.7-1.7
			C188.3,927.5,187.6,928.3,187.6,929.2z"/>
		<path class="st4" d="M201.1,932.1L201.1,932.1c-0.5,0.8-1.4,1.1-2.3,1.1c-2.2,0-3.8-1.9-3.8-4c0-2.2,1.5-4,3.8-4
			c0.9,0,1.8,0.3,2.3,1v-5.4h2.7V933h-2.7V932.1z M197.8,929.2c0,1,0.6,1.7,1.7,1.7c1.1,0,1.7-0.7,1.7-1.7c0-0.9-0.6-1.7-1.7-1.7
			C198.4,927.5,197.8,928.3,197.8,929.2z"/>
		<path class="st4" d="M208.2,926.4L208.2,926.4c0.7-0.8,1.4-1.2,2.4-1.2c1.1,0,2,0.4,2.6,1.4c0.5-0.9,1.5-1.4,2.6-1.4
			c1.9,0,2.6,1.3,2.6,3v4.8h-2.7v-3.6c0-0.8,0-2.1-1.1-2.1c-1.2,0-1.3,1.2-1.3,2.1v3.6h-2.7v-3.6c0-0.8,0-2.1-1.2-2.1
			s-1.2,1.3-1.2,2.1v3.6h-2.7v-7.5h2.7V926.4z"/>
		<path class="st4" d="M222.9,922.5c0,0.8-0.7,1.5-1.5,1.5c-0.8,0-1.5-0.7-1.5-1.5s0.7-1.5,1.5-1.5
			C222.2,921,222.9,921.7,222.9,922.5z M222.7,933H220v-7.5h2.7V933z"/>
		<path class="st4" d="M227.1,926.4L227.1,926.4c0.6-0.9,1.4-1.2,2.4-1.2c2,0,2.8,1.3,2.8,3.1v4.7h-2.7v-3.7c0-0.7,0.1-2-1.2-2
			c-1.1,0-1.4,0.8-1.4,1.8v3.9h-2.7v-7.5h2.7V926.4z"/>
		<path class="st4" d="M237,922.5c0,0.8-0.7,1.5-1.5,1.5s-1.5-0.7-1.5-1.5s0.7-1.5,1.5-1.5S237,921.7,237,922.5z M236.9,933h-2.7
			v-7.5h2.7V933z"/>
		<path class="st4" d="M243.6,927.4c-0.4-0.2-1-0.4-1.4-0.4c-0.3,0-0.8,0.1-0.8,0.5c0,0.5,0.8,0.6,1.2,0.7c1.3,0.3,2.2,0.8,2.2,2.2
			c0,2-1.8,2.8-3.6,2.8c-1.1,0-2.1-0.3-3-0.9l1-1.9c0.5,0.4,1.5,0.8,2.1,0.8c0.3,0,0.8-0.2,0.8-0.6c0-0.6-0.8-0.6-1.7-0.8
			c-0.8-0.2-1.7-0.6-1.7-2c0-1.9,1.7-2.7,3.3-2.7c0.9,0,1.7,0.1,2.5,0.5L243.6,927.4z"/>
		<path class="st4" d="M249.1,933h-2.7v-5.3h-0.9v-2.2h0.9v-2.3h2.7v2.3h1.5v2.2h-1.5V933z"/>
		<path class="st4" d="M254.2,926.7L254.2,926.7c0.5-0.9,1.4-1.3,2.5-1.3h0.5v2.6c-0.4-0.2-0.7-0.3-1.1-0.3c-1.5,0-1.9,1-1.9,2.3v3
			h-2.7v-7.5h2.7V926.7z"/>
		<path class="st4" d="M266.4,933h-2.7v-0.8h0c-0.5,0.8-1.4,1.1-2.3,1.1c-2.2,0-3.8-1.9-3.8-4c0-2.2,1.5-4,3.8-4
			c0.9,0,1.8,0.3,2.3,1v-0.7h2.7V933z M260.4,929.2c0,1,0.6,1.7,1.7,1.7c1.1,0,1.7-0.7,1.7-1.7c0-0.9-0.6-1.7-1.7-1.7
			C261,927.5,260.4,928.3,260.4,929.2z"/>
		<path class="st4" d="M271.1,933h-2.7v-5.3h-0.9v-2.2h0.9v-2.3h2.7v2.3h1.5v2.2h-1.5V933z"/>
		<path class="st4" d="M276.3,922.5c0,0.8-0.7,1.5-1.5,1.5c-0.8,0-1.5-0.7-1.5-1.5s0.7-1.5,1.5-1.5
			C275.6,921,276.3,921.7,276.3,922.5z M276.1,933h-2.7v-7.5h2.7V933z"/>
		<path class="st4" d="M281.6,929.3l1.8-3.9h3l-3.9,7.5h-1.7l-4-7.5h3L281.6,929.3z"/>
		<path class="st4" d="M295.6,929.2c0,2.6-2.1,4-4.5,4c-2.4,0-4.5-1.4-4.5-4c0-2.6,2.1-4,4.5-4C293.5,925.2,295.6,926.6,295.6,929.2
			z M289.3,929.2c0,1,0.6,1.7,1.7,1.7c1.1,0,1.7-0.7,1.7-1.7c0-0.9-0.6-1.7-1.7-1.7C290,927.5,289.3,928.3,289.3,929.2z"/>
		<path class="st4" d="M301.8,927.4c-0.4-0.2-1-0.4-1.4-0.4c-0.3,0-0.8,0.1-0.8,0.5c0,0.5,0.8,0.6,1.2,0.7c1.3,0.3,2.2,0.8,2.2,2.2
			c0,2-1.8,2.8-3.6,2.8c-1.1,0-2.1-0.3-3-0.9l1-1.9c0.5,0.4,1.5,0.8,2.1,0.8c0.3,0,0.8-0.2,0.8-0.6c0-0.6-0.8-0.6-1.7-0.8
			c-0.8-0.2-1.7-0.6-1.7-2c0-1.9,1.7-2.7,3.3-2.7c0.9,0,1.7,0.1,2.5,0.5L301.8,927.4z"/>
	</g>
</g>
<rect id="XMLID_39_" x="99.3" y="996.5" class="st2" width="221.5" height="42.4"/>
<g>
	<g>
		<path class="st4" d="M166.2,1014.9c-0.5-0.4-1.2-0.7-1.9-0.7c-0.5,0-1.2,0.3-1.2,0.9c0,0.6,0.8,0.9,1.3,1.1l0.7,0.2
			c1.5,0.5,2.7,1.2,2.7,3c0,1.1-0.3,2.2-1.1,3c-0.9,0.7-2,1-3.1,1c-1.4,0-2.8-0.5-3.9-1.3l1.2-2.3c0.7,0.6,1.6,1.1,2.6,1.1
			c0.7,0,1.4-0.3,1.4-1.1c0-0.8-1.1-1.1-1.8-1.3c-1.8-0.5-3-1-3-3.1c0-2.3,1.6-3.7,3.8-3.7c1.1,0,2.5,0.4,3.5,0.9L166.2,1014.9z"/>
		<path class="st4" d="M178.7,1012v6.2c0,1.4-0.1,2.8-1.2,3.9c-0.9,0.9-2.4,1.2-3.7,1.2c-1.3,0-2.8-0.3-3.7-1.2
			c-1.1-1.1-1.2-2.5-1.2-3.9v-6.2h2.9v5.8c0,1.4,0.1,3,2,3c1.9,0,2-1.6,2-3v-5.8H178.7z"/>
		<path class="st4" d="M180.6,1023.1V1012h4.1c2,0,3.3,0.8,3.3,2.9c0,1-0.3,1.8-1.2,2.3v0c1.6,0.2,2.3,1.3,2.3,2.8
			c0,2.3-2,3.1-4,3.1H180.6z M183.5,1016.4h0.3c0.8,0,1.6-0.1,1.6-1.1c0-1-0.9-1.1-1.7-1.1h-0.2V1016.4z M183.5,1020.9h0.4
			c0.9,0,2.3,0,2.3-1.2c0-1.3-1.4-1.2-2.4-1.2h-0.3V1020.9z"/>
		<path class="st4" d="M198.4,1021.2l-0.8,1.9h-3.1l4.3-11.1h3.1l4.2,11.1h-3.1l-0.7-1.9H198.4z M200.4,1015.4L200.4,1015.4
			l-1.2,3.5h2.4L200.4,1015.4z"/>
		<path class="st4" d="M209.9,1020.7h3.5v2.4h-6.3V1012h2.9V1020.7z"/>
		<path class="st4" d="M222.3,1015.7c-0.6-0.8-1.5-1.2-2.5-1.2c-1.8,0-3,1.4-3,3.1c0,1.8,1.2,3,3,3c0.9,0,1.9-0.5,2.5-1.2v3.5
			c-1,0.3-1.6,0.5-2.5,0.5c-1.5,0-3-0.6-4.2-1.6c-1.2-1.1-1.8-2.5-1.8-4.2c0-1.5,0.6-3,1.6-4.1c1.1-1.1,2.7-1.8,4.2-1.8
			c0.9,0,1.8,0.2,2.6,0.6V1015.7z"/>
		<path class="st4" d="M226.9,1021.2l-0.8,1.9h-3.1l4.3-11.1h3.1l4.2,11.1h-3.1l-0.7-1.9H226.9z M228.9,1015.4L228.9,1015.4
			l-1.2,3.5h2.4L228.9,1015.4z"/>
		<path class="st4" d="M238.4,1020.7h3.5v2.4h-6.3V1012h2.9V1020.7z"/>
		<path class="st4" d="M242.8,1012h4.1c3.1,0,5.6,2.4,5.6,5.5c0,3.1-2.6,5.5-5.6,5.5h-4.1V1012z M245.7,1020.7h0.6
			c1.7,0,3.2-0.9,3.2-3.1c0-2-1.3-3.1-3.2-3.1h-0.7V1020.7z"/>
		<path class="st4" d="M256.8,1014.4v1.9h3.3v2.4h-3.3v1.9h3.4v2.4h-6.3V1012h6.3v2.4H256.8z"/>
	</g>
</g>
<rect id="XMLID_34_" x="662.8" y="299.9" class="st2" width="235.5" height="50.9"/>
<g>
	<g>
		<path class="st4" d="M761.6,320h-2.9v-8.7h-2.4v-2.4h7.7v2.4h-2.4V320z"/>
		<path class="st4" d="M771.6,316.7H766c0,1.1,0.6,1.7,1.7,1.7c0.6,0,1-0.2,1.3-0.7h2.6c-0.2,0.9-0.7,1.5-1.4,2
			c-0.7,0.4-1.5,0.6-2.4,0.6c-2.5,0-4.4-1.4-4.4-4c0-2.5,1.7-4,4.2-4c2.6,0,4.1,1.6,4.1,4.2V316.7z M767.2,311.4l-1.2-0.9l2.1-2.5
			l1.6,1.2L767.2,311.4z M769.1,315.2c-0.1-0.7-0.8-1.2-1.5-1.2c-0.8,0-1.4,0.4-1.6,1.2H769.1z"/>
		<path class="st4" d="M778.3,315c-0.4-0.3-0.9-0.5-1.4-0.5c-1,0-1.8,0.8-1.8,1.8c0,1.1,0.8,1.9,1.9,1.9c0.5,0,1-0.2,1.3-0.5v2.3
			c-0.6,0.3-1.2,0.4-1.9,0.4c-2.2,0-4.1-1.7-4.1-3.9c0-2.4,1.9-4.1,4.2-4.1c0.6,0,1.2,0.1,1.8,0.4V315z"/>
		<path class="st4" d="M782.6,313.5L782.6,313.5c0.6-0.9,1.4-1.2,2.4-1.2c2,0,2.8,1.3,2.8,3.1v4.7h-2.7v-3.7c0-0.7,0.1-2-1.2-2
			c-1.1,0-1.4,0.8-1.4,1.8v3.9h-2.7v-7.5h2.7V313.5z"/>
		<path class="st4" d="M792.5,309.6c0,0.8-0.7,1.5-1.5,1.5s-1.5-0.7-1.5-1.5s0.7-1.5,1.5-1.5S792.5,308.8,792.5,309.6z M792.3,320
			h-2.7v-7.5h2.7V320z"/>
		<path class="st4" d="M799.5,315c-0.4-0.3-0.9-0.5-1.4-0.5c-1,0-1.8,0.8-1.8,1.8c0,1.1,0.8,1.9,1.9,1.9c0.5,0,1-0.2,1.3-0.5v2.3
			c-0.6,0.3-1.2,0.4-1.9,0.4c-2.2,0-4.1-1.7-4.1-3.9c0-2.4,1.9-4.1,4.2-4.1c0.6,0,1.2,0.1,1.8,0.4V315z"/>
		<path class="st4" d="M809.7,316.3c0,2.6-2.1,4-4.5,4c-2.4,0-4.5-1.4-4.5-4c0-2.6,2.1-4,4.5-4S809.7,313.7,809.7,316.3z
			 M803.5,316.3c0,1,0.6,1.7,1.7,1.7s1.7-0.7,1.7-1.7c0-0.9-0.6-1.7-1.7-1.7S803.5,315.4,803.5,316.3z"/>
		<path class="st4" d="M760,330.3c-0.6-0.8-1.5-1.2-2.5-1.2c-1.8,0-3,1.4-3,3.1c0,1.8,1.2,3,3,3c0.9,0,1.9-0.5,2.5-1.2v3.5
			c-1,0.3-1.6,0.5-2.5,0.5c-1.5,0-3-0.6-4.2-1.6c-1.2-1.1-1.8-2.5-1.8-4.2c0-1.5,0.6-3,1.6-4.1c1.1-1.1,2.7-1.8,4.2-1.8
			c0.9,0,1.8,0.2,2.6,0.6V330.3z"/>
		<path class="st4" d="M770,337.7h-2.7v-0.8h0c-0.5,0.8-1.4,1.1-2.3,1.1c-2.2,0-3.8-1.9-3.8-4c0-2.2,1.5-4,3.8-4
			c0.9,0,1.8,0.3,2.3,1v-0.7h2.7V337.7z M763.9,333.9c0,1,0.6,1.7,1.7,1.7c1.1,0,1.7-0.7,1.7-1.7c0-0.9-0.6-1.7-1.7-1.7
			C764.6,332.2,763.9,333,763.9,333.9z"/>
		<path class="st4" d="M774.7,337.7H772v-5.3h-0.9v-2.2h0.9v-2.3h2.7v2.3h1.5v2.2h-1.5V337.7z"/>
		<path class="st4" d="M785.3,337.7h-2.7v-0.8h0c-0.5,0.8-1.4,1.1-2.3,1.1c-2.2,0-3.8-1.9-3.8-4c0-2.2,1.5-4,3.8-4
			c0.9,0,1.8,0.3,2.3,1v-0.7h2.7V337.7z M779.3,333.9c0,1,0.6,1.7,1.7,1.7c1.1,0,1.7-0.7,1.7-1.7c0-0.9-0.6-1.7-1.7-1.7
			C779.9,332.2,779.3,333,779.3,333.9z"/>
		<path class="st4" d="M792.1,332.1c-0.4-0.2-1-0.4-1.4-0.4c-0.3,0-0.8,0.1-0.8,0.5c0,0.5,0.8,0.6,1.2,0.7c1.3,0.3,2.2,0.8,2.2,2.2
			c0,2-1.8,2.8-3.6,2.8c-1.1,0-2.1-0.3-3-0.9l1-1.9c0.5,0.4,1.5,0.8,2.1,0.8c0.3,0,0.8-0.2,0.8-0.6c0-0.6-0.8-0.6-1.7-0.8
			c-0.8-0.2-1.7-0.6-1.7-2c0-1.9,1.7-2.7,3.3-2.7c0.9,0,1.7,0.1,2.5,0.5L792.1,332.1z"/>
		<path class="st4" d="M797.5,337.7h-2.7v-5.3H794v-2.2h0.9v-2.3h2.7v2.3h1.5v2.2h-1.5V337.7z"/>
		<path class="st4" d="M802.6,331.4L802.6,331.4c0.5-0.9,1.4-1.3,2.5-1.3h0.5v2.6c-0.4-0.2-0.7-0.3-1.1-0.3c-1.5,0-1.9,1-1.9,2.3v3
			h-2.7v-7.5h2.7V331.4z"/>
		<path class="st4" d="M814.8,333.9c0,2.6-2.1,4-4.5,4c-2.4,0-4.5-1.4-4.5-4s2.1-4,4.5-4C812.7,329.9,814.8,331.4,814.8,333.9z
			 M808.6,333.9c0,1,0.6,1.7,1.7,1.7c1.1,0,1.7-0.7,1.7-1.7c0-0.9-0.6-1.7-1.7-1.7C809.2,332.2,808.6,333,808.6,333.9z"/>
	</g>
</g>
<rect id="XMLID_37_" x="662.8" y="395.8" class="st2" width="235.5" height="57"/>
<g>
	<g>
		<path class="st4" d="M715.3,417.9l-0.8,1.9h-3.1l4.3-11.1h3.1l4.2,11.1H720l-0.7-1.9H715.3z M717.3,412.2L717.3,412.2l-1.2,3.5
			h2.4L717.3,412.2z"/>
		<path class="st4" d="M728.9,414.2c-0.4-0.2-1-0.4-1.4-0.4c-0.3,0-0.8,0.1-0.8,0.5c0,0.5,0.8,0.6,1.2,0.7c1.3,0.3,2.2,0.8,2.2,2.2
			c0,2-1.8,2.8-3.6,2.8c-1.1,0-2.1-0.3-3-0.9l1-1.9c0.5,0.4,1.5,0.8,2.1,0.8c0.3,0,0.8-0.2,0.8-0.6c0-0.6-0.8-0.6-1.7-0.8
			c-0.8-0.2-1.7-0.6-1.7-2c0-1.9,1.7-2.7,3.3-2.7c0.9,0,1.7,0.1,2.5,0.5L728.9,414.2z"/>
		<path class="st4" d="M736.9,414.7c-0.4-0.3-0.9-0.5-1.4-0.5c-1,0-1.8,0.8-1.8,1.8c0,1.1,0.8,1.9,1.9,1.9c0.5,0,1-0.2,1.3-0.5v2.3
			c-0.6,0.3-1.2,0.4-1.9,0.4c-2.2,0-4.1-1.7-4.1-3.9c0-2.4,1.9-4.1,4.2-4.1c0.6,0,1.2,0.1,1.8,0.4V414.7z"/>
		<path class="st4" d="M746.3,416.5h-5.6c0,1.1,0.6,1.7,1.7,1.7c0.6,0,1-0.2,1.3-0.7h2.6c-0.2,0.9-0.7,1.5-1.4,2
			c-0.7,0.4-1.5,0.6-2.4,0.6c-2.5,0-4.4-1.4-4.4-4c0-2.5,1.7-4,4.2-4c2.6,0,4.1,1.6,4.1,4.2V416.5z M743.8,415
			c-0.1-0.7-0.8-1.2-1.5-1.2c-0.8,0-1.4,0.4-1.6,1.2H743.8z"/>
		<path class="st4" d="M752.5,414.2c-0.4-0.2-1-0.4-1.4-0.4c-0.3,0-0.8,0.1-0.8,0.5c0,0.5,0.8,0.6,1.2,0.7c1.3,0.3,2.2,0.8,2.2,2.2
			c0,2-1.8,2.8-3.6,2.8c-1.1,0-2.1-0.3-3-0.9l1-1.9c0.5,0.4,1.5,0.8,2.1,0.8c0.3,0,0.8-0.2,0.8-0.6c0-0.6-0.8-0.6-1.7-0.8
			c-0.8-0.2-1.7-0.6-1.7-2c0-1.9,1.7-2.7,3.3-2.7c0.9,0,1.7,0.1,2.5,0.5L752.5,414.2z"/>
		<path class="st4" d="M763.6,416.1c0,2.6-2.1,4-4.5,4c-2.4,0-4.5-1.4-4.5-4c0-2.6,2.1-4,4.5-4C761.5,412,763.6,413.5,763.6,416.1z
			 M757.4,416.1c0,1,0.6,1.7,1.7,1.7c1.1,0,1.7-0.7,1.7-1.7c0-0.9-0.6-1.7-1.7-1.7C758,414.4,757.4,415.1,757.4,416.1z"/>
		<path class="st4" d="M767.5,413.5L767.5,413.5c0.5-0.9,1.4-1.3,2.5-1.3h0.5v2.6c-0.4-0.2-0.7-0.3-1.1-0.3c-1.5,0-1.9,1-1.9,2.3v3
			h-2.7v-7.5h2.7V413.5z"/>
		<path class="st4" d="M779.2,419.8h-2.7v-12.2h2.7V419.8z"/>
		<path class="st4" d="M788.7,416.5h-5.6c0,1.1,0.6,1.7,1.7,1.7c0.6,0,1-0.2,1.3-0.7h2.6c-0.2,0.9-0.7,1.5-1.4,2
			c-0.7,0.4-1.5,0.6-2.4,0.6c-2.5,0-4.4-1.4-4.4-4c0-2.5,1.7-4,4.2-4c2.6,0,4.1,1.6,4.1,4.2V416.5z M786.3,415
			c-0.1-0.7-0.8-1.2-1.5-1.2c-0.8,0-1.4,0.4-1.6,1.2H786.3z"/>
		<path class="st4" d="M798.2,419.1c0,3.2-1.6,4.5-4.4,4.5c-1.7,0-4.1-0.9-4.3-2.9h3c0.1,0.3,0.3,0.5,0.5,0.6
			c0.2,0.1,0.5,0.2,0.8,0.2c1.4,0,1.7-0.9,1.7-2.2V419c-0.7,0.7-1.4,1-2.4,1c-2.2,0-3.7-1.7-3.7-3.9c0-2.2,1.6-4.1,3.9-4.1
			c0.9,0,1.7,0.3,2.2,1h0v-0.8h2.7V419.1z M792.2,416c0,1,0.6,1.7,1.7,1.7c1.1,0,1.7-0.7,1.7-1.7c0-0.9-0.6-1.7-1.7-1.7
			C792.8,414.3,792.2,415.1,792.2,416z"/>
		<path class="st4" d="M808.2,419.8h-2.7V419h0c-0.5,0.8-1.4,1.1-2.3,1.1c-2.2,0-3.8-1.9-3.8-4c0-2.2,1.5-4,3.8-4
			c0.9,0,1.8,0.3,2.3,1v-0.7h2.7V419.8z M802.1,416.1c0,1,0.6,1.7,1.7,1.7c1.1,0,1.7-0.7,1.7-1.7c0-0.9-0.6-1.7-1.7-1.7
			C802.8,414.4,802.1,415.1,802.1,416.1z"/>
		<path class="st4" d="M812.6,419.8H810v-12.2h2.7V419.8z"/>
		<path class="st4" d="M825.1,419L825.1,419c-0.5,0.8-1.4,1.1-2.3,1.1c-2.2,0-3.8-1.9-3.8-4c0-2.2,1.5-4,3.8-4c0.9,0,1.8,0.3,2.3,1
			v-5.4h2.7v12.2h-2.7V419z M821.8,416.1c0,1,0.6,1.7,1.7,1.7s1.7-0.7,1.7-1.7c0-0.9-0.6-1.7-1.7-1.7S821.8,415.1,821.8,416.1z"/>
		<path class="st4" d="M837.2,416.5h-5.6c0,1.1,0.6,1.7,1.7,1.7c0.6,0,1-0.2,1.3-0.7h2.6c-0.2,0.9-0.7,1.5-1.4,2
			c-0.7,0.4-1.5,0.6-2.4,0.6c-2.5,0-4.4-1.4-4.4-4c0-2.5,1.7-4,4.2-4c2.6,0,4.1,1.6,4.1,4.2V416.5z M834.7,415
			c-0.1-0.7-0.8-1.2-1.5-1.2c-0.8,0-1.4,0.4-1.6,1.2H834.7z"/>
		<path class="st4" d="M708.5,431.9c-0.4-0.2-1-0.4-1.4-0.4c-0.3,0-0.8,0.1-0.8,0.5c0,0.5,0.8,0.6,1.2,0.7c1.3,0.3,2.2,0.8,2.2,2.2
			c0,2-1.8,2.8-3.6,2.8c-1.1,0-2.1-0.3-3-0.9l1-1.9c0.5,0.4,1.5,0.8,2.1,0.8c0.3,0,0.8-0.2,0.8-0.6c0-0.6-0.8-0.6-1.7-0.8
			c-0.8-0.2-1.7-0.6-1.7-2c0-1.9,1.7-2.7,3.3-2.7c0.9,0,1.7,0.1,2.5,0.5L708.5,431.9z"/>
		<path class="st4" d="M718.8,434.2h-5.6c0,1.1,0.6,1.7,1.7,1.7c0.6,0,1-0.2,1.3-0.7h2.6c-0.2,0.9-0.7,1.5-1.4,2
			c-0.7,0.4-1.5,0.6-2.4,0.6c-2.5,0-4.4-1.4-4.4-4c0-2.5,1.7-4,4.2-4c2.6,0,4.1,1.6,4.1,4.2V434.2z M716.3,432.6
			c-0.1-0.7-0.8-1.2-1.5-1.2c-0.8,0-1.4,0.4-1.6,1.2H716.3z"/>
		<path class="st4" d="M722.7,431.2L722.7,431.2c0.5-0.9,1.4-1.3,2.5-1.3h0.5v2.6c-0.4-0.2-0.7-0.3-1.1-0.3c-1.5,0-1.9,1-1.9,2.3v3
			H720v-7.5h2.7V431.2z"/>
		<path class="st4" d="M730.7,433.8l1.8-3.9h3l-3.9,7.5h-1.7l-4-7.5h3L730.7,433.8z"/>
		<path class="st4" d="M739,427c0,0.8-0.7,1.5-1.5,1.5s-1.5-0.7-1.5-1.5s0.7-1.5,1.5-1.5S739,426.2,739,427z M738.8,437.5h-2.7v-7.5
			h2.7V437.5z"/>
		<path class="st4" d="M746,432.4c-0.4-0.3-0.9-0.5-1.4-0.5c-1,0-1.8,0.8-1.8,1.8c0,1.1,0.8,1.9,1.9,1.9c0.5,0,1-0.2,1.3-0.5v2.3
			c-0.6,0.3-1.2,0.4-1.9,0.4c-2.2,0-4.1-1.7-4.1-3.9c0-2.4,1.9-4.1,4.2-4.1c0.6,0,1.2,0.1,1.8,0.4V432.4z"/>
		<path class="st4" d="M750.5,427c0,0.8-0.7,1.5-1.5,1.5s-1.5-0.7-1.5-1.5s0.7-1.5,1.5-1.5S750.5,426.2,750.5,427z M750.3,437.5
			h-2.7v-7.5h2.7V437.5z"/>
		<path class="st4" d="M760.6,433.7c0,2.6-2.1,4-4.5,4c-2.4,0-4.5-1.4-4.5-4c0-2.6,2.1-4,4.5-4S760.6,431.2,760.6,433.7z
			 M754.4,433.7c0,1,0.6,1.7,1.7,1.7c1.1,0,1.7-0.7,1.7-1.7c0-0.9-0.6-1.7-1.7-1.7C755,432,754.4,432.8,754.4,433.7z"/>
		<path class="st4" d="M766.8,431.9c-0.4-0.2-1-0.4-1.4-0.4c-0.3,0-0.8,0.1-0.8,0.5c0,0.5,0.8,0.6,1.2,0.7c1.3,0.3,2.2,0.8,2.2,2.2
			c0,2-1.8,2.8-3.6,2.8c-1.1,0-2.1-0.3-3-0.9l1-1.9c0.5,0.4,1.5,0.8,2.1,0.8c0.3,0,0.8-0.2,0.8-0.6c0-0.6-0.8-0.6-1.7-0.8
			c-0.8-0.2-1.7-0.6-1.7-2c0-1.9,1.7-2.7,3.3-2.7c0.9,0,1.7,0.1,2.5,0.5L766.8,431.9z"/>
		<path class="st4" d="M779.9,432.4c-0.4-0.3-0.9-0.5-1.4-0.5c-1,0-1.8,0.8-1.8,1.8c0,1.1,0.8,1.9,1.9,1.9c0.5,0,1-0.2,1.3-0.5v2.3
			c-0.6,0.3-1.2,0.4-1.9,0.4c-2.2,0-4.1-1.7-4.1-3.9c0-2.4,1.9-4.1,4.2-4.1c0.6,0,1.2,0.1,1.8,0.4V432.4z"/>
		<path class="st4" d="M784.5,437.5h-2.7v-5.3h-0.9v-2.2h0.9v-2.3h2.7v2.3h1.5v2.2h-1.5V437.5z"/>
		<path class="st4" d="M795.1,437.5h-2.7v-0.8h0c-0.5,0.8-1.4,1.1-2.3,1.1c-2.2,0-3.8-1.9-3.8-4c0-2.2,1.5-4,3.8-4
			c0.9,0,1.8,0.3,2.3,1v-0.7h2.7V437.5z M789.1,433.7c0,1,0.6,1.7,1.7,1.7c1.1,0,1.7-0.7,1.7-1.7c0-0.9-0.6-1.7-1.7-1.7
			C789.7,432,789.1,432.8,789.1,433.7z"/>
		<path class="st4" d="M801.9,431.9c-0.4-0.2-1-0.4-1.4-0.4c-0.3,0-0.8,0.1-0.8,0.5c0,0.5,0.8,0.6,1.2,0.7c1.3,0.3,2.2,0.8,2.2,2.2
			c0,2-1.8,2.8-3.6,2.8c-1.1,0-2.1-0.3-3-0.9l1-1.9c0.5,0.4,1.5,0.8,2.1,0.8c0.3,0,0.8-0.2,0.8-0.6c0-0.6-0.8-0.6-1.7-0.8
			c-0.8-0.2-1.7-0.6-1.7-2c0-1.9,1.7-2.7,3.3-2.7c0.9,0,1.7,0.1,2.5,0.5L801.9,431.9z"/>
		<path class="st4" d="M807.4,437.5h-2.7v-5.3h-0.9v-2.2h0.9v-2.3h2.7v2.3h1.5v2.2h-1.5V437.5z"/>
		<path class="st4" d="M812.4,431.2L812.4,431.2c0.5-0.9,1.4-1.3,2.5-1.3h0.5v2.6c-0.4-0.2-0.7-0.3-1.1-0.3c-1.5,0-1.9,1-1.9,2.3v3
			h-2.7v-7.5h2.7V431.2z"/>
		<path class="st4" d="M824.6,437.5H822v-0.8h0c-0.5,0.8-1.4,1.1-2.3,1.1c-2.2,0-3.8-1.9-3.8-4c0-2.2,1.5-4,3.8-4
			c0.9,0,1.8,0.3,2.3,1v-0.7h2.7V437.5z M818.6,433.7c0,1,0.6,1.7,1.7,1.7c1.1,0,1.7-0.7,1.7-1.7c0-0.9-0.6-1.7-1.7-1.7
			C819.2,432,818.6,432.8,818.6,433.7z"/>
		<path class="st4" d="M829.1,437.5h-2.7v-12.2h2.7V437.5z"/>
		<path class="st4" d="M838.6,434.2H833c0,1.1,0.6,1.7,1.7,1.7c0.6,0,1-0.2,1.3-0.7h2.6c-0.2,0.9-0.7,1.5-1.4,2
			c-0.7,0.4-1.5,0.6-2.4,0.6c-2.5,0-4.4-1.4-4.4-4c0-2.5,1.7-4,4.2-4c2.6,0,4.1,1.6,4.1,4.2V434.2z M836.1,432.6
			c-0.1-0.7-0.8-1.2-1.5-1.2c-0.8,0-1.4,0.4-1.6,1.2H836.1z"/>
		<path class="st4" d="M844.8,431.9c-0.4-0.2-1-0.4-1.4-0.4c-0.3,0-0.8,0.1-0.8,0.5c0,0.5,0.8,0.6,1.2,0.7c1.3,0.3,2.2,0.8,2.2,2.2
			c0,2-1.8,2.8-3.6,2.8c-1.1,0-2.1-0.3-3-0.9l1-1.9c0.5,0.4,1.5,0.8,2.1,0.8c0.3,0,0.8-0.2,0.8-0.6c0-0.6-0.8-0.6-1.7-0.8
			c-0.8-0.2-1.7-0.6-1.7-2c0-1.9,1.7-2.7,3.3-2.7c0.9,0,1.7,0.1,2.5,0.5L844.8,431.9z"/>
	</g>
</g>
<g>
	<g>
		<path class="st4" d="M764.4,620.7c-0.8-1.1-2.2-1.7-3.5-1.7c-2.5,0-4.1,1.9-4.1,4.3c0,2.5,1.7,4.2,4.2,4.2c1.3,0,2.6-0.6,3.5-1.6
			v4.8c-1.3,0.4-2.3,0.7-3.6,0.7c-2.2,0-4.2-0.8-5.8-2.3c-1.7-1.5-2.5-3.6-2.5-5.9c0-2.1,0.8-4.2,2.3-5.7c1.5-1.6,3.7-2.5,5.9-2.5
			c1.3,0,2.5,0.3,3.7,0.8V620.7z"/>
		<path class="st4" d="M770.9,628.3l-1.1,2.7h-4.3l6-15.5h4.4l5.9,15.5h-4.3l-1-2.7H770.9z M773.7,620.3L773.7,620.3l-1.7,4.9h3.4
			L773.7,620.3z"/>
		<path class="st4" d="M790.5,615.5V626c0,3.3-1.7,5.5-5.2,5.5c-1.7,0-3.1-0.9-4-2.3l2.3-2.5c0.5,0.6,1.1,1.3,1.6,1.3
			c1.2,0,1.2-1.4,1.2-2.3v-10.2H790.5z"/>
		<path class="st4" d="M797,628.3L796,631h-4.3l6-15.5h4.4l5.9,15.5h-4.3l-1-2.7H797z M799.9,620.3L799.9,620.3l-1.7,4.9h3.4
			L799.9,620.3z"/>
	</g>
</g>
<rect id="XMLID_22_" x="100.2" y="593.2" class="st2" width="222.5" height="60.7"/>
<g>
	<g>
		<path class="st4" d="M142.8,618v2.6h4.4v3.4h-4.4v6.1h-4v-15.5h8.9v3.4H142.8z"/>
		<path class="st4" d="M153.9,615.5c0,1.2-0.9,2.1-2.1,2.1c-1.2,0-2.1-0.9-2.1-2.1c0-1.2,0.9-2.1,2.1-2.1
			C152.9,613.4,153.9,614.3,153.9,615.5z M153.7,630.1h-3.8v-10.6h3.8V630.1z"/>
		<path class="st4" d="M159.9,621.3L159.9,621.3c0.8-1.3,2-1.9,3.5-1.9h0.7v3.6c-0.5-0.3-1-0.4-1.6-0.4c-2.1,0-2.6,1.4-2.6,3.2v4.3
			h-3.8v-10.6h3.8V621.3z"/>
		<path class="st4" d="M169.2,620.9L169.2,620.9c0.9-1.2,2-1.7,3.4-1.7c1.5,0,2.8,0.6,3.6,2c0.7-1.3,2.1-2,3.6-2
			c2.7,0,3.6,1.8,3.6,4.2v6.7h-3.8v-5.1c0-1.1,0-2.9-1.5-2.9c-1.7,0-1.8,1.6-1.8,2.9v5.1h-3.8v-5.1c0-1.2,0-3-1.7-3s-1.7,1.8-1.7,3
			v5.1h-3.8v-10.6h3.8V620.9z"/>
		<path class="st4" d="M197.4,630.1h-3.8v-1.2h0c-0.7,1.1-2,1.5-3.2,1.5c-3.1,0-5.3-2.6-5.3-5.6c0-3,2.2-5.6,5.3-5.6
			c1.2,0,2.5,0.5,3.3,1.4v-1h3.8V630.1z M189,624.8c0,1.3,0.9,2.4,2.4,2.4c1.5,0,2.4-1,2.4-2.4c0-1.3-0.9-2.4-2.4-2.4
			C189.9,622.4,189,623.5,189,624.8z"/>
		<path class="st4" d="M205.4,619.5h4.3l2.8,5.4l2.8-5.4h4.3l-8.5,15.9H207l3.6-6.7L205.4,619.5z"/>
		<path class="st4" d="M234.5,622.3c-0.6-0.3-1.4-0.5-2-0.5c-0.4,0-1.2,0.2-1.2,0.7c0,0.7,1.2,0.8,1.7,0.9c1.8,0.4,3.1,1.2,3.1,3.1
			c0,2.8-2.5,3.9-5,3.9c-1.5,0-3-0.4-4.3-1.2l1.4-2.6c0.8,0.5,2,1.1,3,1.1c0.5,0,1.2-0.2,1.2-0.8c0-0.8-1.2-0.9-2.3-1.2
			c-1.2-0.3-2.3-0.9-2.3-2.8c0-2.6,2.3-3.8,4.7-3.8c1.2,0,2.4,0.2,3.5,0.7L234.5,622.3z"/>
		<path class="st4" d="M249,625.5h-7.9c0,1.5,0.8,2.3,2.3,2.3c0.8,0,1.4-0.3,1.8-1h3.6c-0.3,1.2-1,2.1-2,2.7c-1,0.6-2.2,0.9-3.4,0.9
			c-3.5,0-6.1-2-6.1-5.6c0-3.5,2.4-5.6,5.9-5.6c3.7,0,5.8,2.3,5.8,5.9V625.5z M245.5,623.3c-0.2-1-1.1-1.7-2.1-1.7
			c-1.1,0-2,0.6-2.2,1.7H245.5z"/>
		<path class="st4" d="M254.5,630.1h-3.8V613h3.8V630.1z"/>
		<path class="st4" d="M260.7,630.1h-3.8V613h3.8V630.1z"/>
		<path class="st4" d="M275.1,624.8c0,3.6-3,5.6-6.4,5.6c-3.4,0-6.4-2-6.4-5.6c0-3.6,3-5.6,6.4-5.6
			C272.1,619.2,275.1,621.2,275.1,624.8z M266.3,624.8c0,1.3,0.9,2.4,2.4,2.4c1.5,0,2.4-1,2.4-2.4c0-1.3-0.9-2.4-2.4-2.4
			C267.2,622.4,266.3,623.5,266.3,624.8z"/>
		<path class="st4" d="M283.8,622.3c-0.6-0.3-1.4-0.5-2-0.5c-0.4,0-1.2,0.2-1.2,0.7c0,0.7,1.2,0.8,1.7,0.9c1.8,0.4,3.1,1.2,3.1,3.1
			c0,2.8-2.5,3.9-5,3.9c-1.5,0-3-0.4-4.3-1.2l1.4-2.6c0.8,0.5,2,1.1,3,1.1c0.5,0,1.2-0.2,1.2-0.8c0-0.8-1.2-0.9-2.3-1.2
			c-1.2-0.3-2.3-0.9-2.3-2.8c0-2.6,2.3-3.8,4.7-3.8c1.2,0,2.4,0.2,3.5,0.7L283.8,622.3z"/>
	</g>
</g>
<polygon id="XMLID_19_" class="st6" points="610.1,623.5 619.5,618.1 628.9,612.7 628.9,623.5 628.9,634.3 619.5,628.9 "/>
<polygon id="XMLID_18_" class="st6" points="322.7,622.1 332.1,616.7 341.4,611.3 341.4,622.1 341.4,632.9 332.1,627.5 "/>
<polygon id="XMLID_17_" class="st6" points="780.6,193.2 775.1,183.8 769.7,174.4 780.6,174.4 791.4,174.4 786,183.8 "/>
<polygon id="XMLID_15_" class="st6" points="780.6,300.6 775.1,291.2 769.7,281.9 780.6,281.9 791.4,281.9 786,291.2 "/>
<polygon id="XMLID_21_" class="st6" points="780.6,398.1 775.1,388.7 769.7,379.3 780.6,379.3 791.4,379.3 786,388.7 "/>
<polygon id="XMLID_7_" class="st6" points="780.6,486.3 775.1,477 769.7,467.6 780.6,467.6 791.4,467.6 786,477 "/>
<polygon id="XMLID_6_" class="st6" points="780.6,594.5 775.1,585.1 769.7,575.7 780.6,575.7 791.4,575.7 786,585.1 "/>
<polygon id="XMLID_3_" class="st6" points="780.6,98.5 775.1,89.2 769.7,79.8 780.6,79.8 791.4,79.8 786,89.2 "/>
<polygon id="XMLID_31_" class="st6" points="210.1,684.8 204.7,675.4 199.3,666.1 210.1,666.1 220.9,666.1 215.5,675.4 "/>
<polygon id="XMLID_2_" class="st6" points="210.1,793.7 204.7,784.3 199.3,774.9 210.1,774.9 220.9,774.9 215.5,784.3 "/>
<polygon id="XMLID_16_" class="st6" points="210.1,893 204.7,883.6 199.3,874.2 210.1,874.2 220.9,874.2 215.5,883.6 "/>
<polygon id="XMLID_1_" class="st6" points="210.1,996.5 204.7,987.1 199.3,977.7 210.1,977.7 220.9,977.7 215.5,987.1 "/>
<polygon id="XMLID_63_" class="st6" points="497.2,1090.1 491.8,1080.7 486.4,1071.4 497.2,1071.4 508,1071.4 502.6,1080.7 "/>
<polygon id="XMLID_66_" class="st6" points="387.5,1015.7 378.1,1021.1 368.7,1026.5 368.7,1015.7 368.7,1004.8 378.1,1010.2 "/>
<polygon id="XMLID_67_" class="st6" points="663.6,1015.7 654.2,1021.1 644.9,1026.5 644.9,1015.7 644.9,1004.8 654.2,1010.2 "/>
</svg>
