<?xml version="1.0" encoding="utf-8"?>
<!-- Generator: Adobe Illustrator 21.0.2, SVG Export Plug-In . SVG Version: 6.00 Build 0)  -->
<svg version="1.1" id="Layer_1" xmlns="http://www.w3.org/2000/svg" xmlns:xlink="http://www.w3.org/1999/xlink" x="0px" y="0px"
	 viewBox="0 0 998.6 1013.3" style="enable-background:new 0 0 998.6 1013.3;" xml:space="preserve">
<style type="text/css">
	.st0{fill:none;stroke:#E42527;stroke-width:4;stroke-miterlimit:10;}
	.st1{fill:#D81117;}
	.st2{fill:#929191;}
	.st3{fill:#9D9D9C;}
	.st4{fill:#FFFFFF;}
	.st5{fill:#E42527;}
</style>
<line id="XMLID_464_" class="st0" x1="499.7" y1="88.3" x2="499.7" y2="1004"/>
<rect id="XMLID_113_" x="103.4" y="407.6" class="st1" width="222.1" height="100.5"/>
<rect id="XMLID_112_" x="103.4" y="608.3" class="st2" width="222.1" height="100.5"/>
<rect id="XMLID_111_" x="390.3" y="0.2" class="st3" width="222.1" height="100.5"/>
<rect id="XMLID_110_" x="665" y="130.6" class="st3" width="235" height="100.5"/>
<g id="XMLID_9171_">
	<g>
		<path id="XMLID_1180_" class="st4" d="M135.2,440l2.7-6.7h3.1l-4.7,11.1H134l-4.7-11.1h3.1L135.2,440z"/>
		<path id="XMLID_1177_" class="st4" d="M146.7,435.3c0,1.5-1.4,2.4-3,2.4c-1.6,0-2.9-0.9-2.9-2.4c0-1.5,1.4-2.4,2.9-2.4
			C145.4,432.9,146.7,433.8,146.7,435.3z M142.7,435.3c0,0.6,0.5,1,1.1,1c0.6,0,1.1-0.4,1.1-1c0-0.6-0.5-1-1.1-1
			C143.2,434.3,142.7,434.8,142.7,435.3z"/>
		<path id="XMLID_1173_" class="st4" d="M152.8,444.3v-11.1h4.1c2,0,3.3,0.8,3.3,2.9c0,1-0.3,1.8-1.2,2.3v0c1.6,0.2,2.3,1.3,2.3,2.8
			c0,2.3-2,3.1-4,3.1H152.8z M155.7,437.6h0.3c0.8,0,1.6-0.1,1.6-1.1c0-1-0.9-1.1-1.7-1.1h-0.2V437.6z M155.7,442.1h0.4
			c0.9,0,2.3,0,2.3-1.2c0-1.3-1.4-1.2-2.4-1.2h-0.3V442.1z"/>
		<path id="XMLID_1170_" class="st4" d="M167.7,435.3c0,1.5-1.4,2.4-3,2.4s-2.9-0.9-2.9-2.4c0-1.5,1.4-2.4,2.9-2.4
			S167.7,433.8,167.7,435.3z M163.7,435.3c0,0.6,0.5,1,1.1,1s1.1-0.4,1.1-1c0-0.6-0.5-1-1.1-1S163.7,434.8,163.7,435.3z"/>
		<path id="XMLID_1167_" class="st4" d="M176.6,442.4l-0.8,1.9h-3.1l4.3-11.1h3.1l4.2,11.1h-3.1l-0.7-1.9H176.6z M178.6,436.6
			L178.6,436.6l-1.2,3.5h2.4L178.6,436.6z"/>
		<path id="XMLID_1164_" class="st4" d="M194.4,444.3h-3.6l-2.7-4.3h0v4.3h-2.9v-11.1h4.3c2.2,0,3.8,1,3.8,3.4
			c0,1.5-0.9,2.8-2.4,3.1L194.4,444.3z M188.1,438.2h0.3c0.9,0,2-0.2,2-1.4c0-1.2-1.1-1.4-2-1.4h-0.3V438.2z"/>
		<path id="XMLID_1162_" class="st4" d="M198.1,435.7v1.9h3.2v2.4h-3.2v1.9h3.4v2.4h-6.3v-11.1h6.3v2.4H198.1z"/>
		<path id="XMLID_1159_" class="st4" d="M206.1,442.4l-0.8,1.9h-3.1l4.3-11.1h3.1l4.2,11.1h-3.1l-0.7-1.9H206.1z M208.1,436.6
			L208.1,436.6l-1.2,3.5h2.4L208.1,436.6z"/>
		<path id="XMLID_1157_" class="st4" d="M224.2,444.3h-2.9v-8.6h-2.4v-2.4h7.6v2.4h-2.4V444.3z"/>
		<path id="XMLID_1155_" class="st4" d="M230.5,435.7v1.9h3.2v2.4h-3.2v1.9h3.4v2.4h-6.3v-11.1h6.3v2.4H230.5z"/>
		<path id="XMLID_1153_" class="st4" d="M243.6,436.9c-0.6-0.8-1.5-1.2-2.5-1.2c-1.8,0-3,1.4-3,3.1c0,1.7,1.2,3,3,3
			c0.9,0,1.9-0.5,2.5-1.2v3.5c-1,0.3-1.6,0.5-2.5,0.5c-1.5,0-3-0.6-4.2-1.6c-1.2-1.1-1.8-2.5-1.8-4.2c0-1.5,0.6-3,1.6-4.1
			c1.1-1.1,2.7-1.8,4.2-1.8c0.9,0,1.8,0.2,2.6,0.6V436.9z"/>
		<path id="XMLID_1151_" class="st4" d="M245.4,433.2h2.9l5.3,6.8h0v-6.8h2.9v11.1h-2.9l-5.3-6.8h0v6.8h-2.9V433.2z"/>
		<path id="XMLID_1149_" class="st4" d="M261.2,444.3h-2.9v-11.1h2.9V444.3z"/>
		<path id="XMLID_1147_" class="st4" d="M271,436.9c-0.6-0.8-1.5-1.2-2.5-1.2c-1.8,0-3,1.4-3,3.1c0,1.7,1.2,3,3,3
			c0.9,0,1.9-0.5,2.5-1.2v3.5c-1,0.3-1.6,0.5-2.5,0.5c-1.5,0-3-0.6-4.2-1.6c-1.2-1.1-1.8-2.5-1.8-4.2c0-1.5,0.6-3,1.6-4.1
			c1.1-1.1,2.7-1.8,4.2-1.8c0.9,0,1.8,0.2,2.6,0.6V436.9z"/>
		<path id="XMLID_1144_" class="st4" d="M275.6,442.4l-0.8,1.9h-3.1l4.3-11.1h3.1l4.2,11.1h-3.1l-0.7-1.9H275.6z M277.6,436.6
			L277.6,436.6l-1.2,3.5h2.4L277.6,436.6z"/>
		<path id="XMLID_1142_" class="st4" d="M177.7,450.8h3.5l2.1,3l2.1-3h3.5l-4.1,5.8v5.3h-2.9v-5.3L177.7,450.8z"/>
		<path id="XMLID_1140_" class="st4" d="M197.3,459.5h3.5v2.4h-6.3v-11.1h2.9V459.5z"/>
		<path id="XMLID_1138_" class="st4" d="M204.6,453.3v1.9h3.2v2.4h-3.2v1.9h3.4v2.4h-6.3v-11.1h6.3v2.4H204.6z"/>
		<path id="XMLID_1136_" class="st4" d="M220.8,455.7c0,1.6-0.1,3-1.1,4.4c-1.1,1.5-2.7,2.2-4.6,2.2c-3.5,0-5.9-2.4-5.9-5.8
			c0-3.6,2.4-6,6-6c2.3,0,4,1,5,3.1l-2.7,1.1c-0.4-1.1-1.2-1.8-2.4-1.8c-1.9,0-2.9,1.8-2.9,3.5c0,1.7,1,3.5,2.9,3.5
			c1.2,0,2.2-0.6,2.3-1.9h-2.3v-2.3H220.8z"/>
		<path id="XMLID_1133_" class="st4" d="M225,460l-0.8,1.9h-3.1l4.3-11.1h3.1l4.2,11.1h-3.1l-0.7-1.9H225z M227,454.3L227,454.3
			l-1.2,3.5h2.4L227,454.3z"/>
		<path id="XMLID_1131_" class="st4" d="M236.5,459.5h3.5v2.4h-6.3v-11.1h2.9V459.5z"/>
		<path id="XMLID_1128_" class="st4" d="M157.5,479.5h-3.6l-2.7-4.3h0v4.3h-2.9v-11.1h4.3c2.2,0,3.8,1,3.8,3.4
			c0,1.5-0.9,2.8-2.4,3.1L157.5,479.5z M151.2,473.4h0.3c0.9,0,2-0.2,2-1.4c0-1.2-1.1-1.4-2-1.4h-0.3V473.4z"/>
		<path id="XMLID_1125_" class="st4" d="M166,476.2h-5.6c0,1.1,0.6,1.7,1.7,1.7c0.6,0,1-0.2,1.3-0.7h2.6c-0.2,0.9-0.7,1.5-1.4,2
			c-0.7,0.4-1.5,0.6-2.4,0.6c-2.5,0-4.4-1.4-4.4-4c0-2.5,1.7-4,4.2-4c2.6,0,4.1,1.6,4.1,4.2V476.2z M163.5,474.7
			c-0.1-0.7-0.8-1.2-1.5-1.2c-0.8,0-1.4,0.4-1.6,1.2H163.5z"/>
		<path id="XMLID_1123_" class="st4" d="M170.9,475.9l1.8-3.9h3l-3.9,7.5H170l-3.9-7.5h3L170.9,475.9z"/>
		<path id="XMLID_1120_" class="st4" d="M179.2,469.1c0,0.8-0.7,1.5-1.5,1.5c-0.8,0-1.5-0.7-1.5-1.5c0-0.8,0.7-1.5,1.5-1.5
			C178.5,467.6,179.2,468.3,179.2,469.1z M179,479.5h-2.7V472h2.7V479.5z"/>
		<path id="XMLID_1118_" class="st4" d="M185.8,473.9c-0.4-0.2-1-0.4-1.4-0.4c-0.3,0-0.8,0.1-0.8,0.5c0,0.5,0.8,0.6,1.2,0.7
			c1.2,0.2,2.2,0.8,2.2,2.2c0,2-1.8,2.8-3.6,2.8c-1.1,0-2.1-0.3-3-0.9l1-1.9c0.5,0.4,1.5,0.8,2.1,0.8c0.3,0,0.8-0.2,0.8-0.6
			c0-0.6-0.8-0.6-1.7-0.8c-0.8-0.2-1.7-0.6-1.7-2c0-1.9,1.7-2.7,3.3-2.7c0.9,0,1.7,0.1,2.5,0.5L185.8,473.9z"/>
		<path id="XMLID_1115_" class="st4" d="M191.1,469.1c0,0.8-0.7,1.5-1.5,1.5c-0.8,0-1.5-0.7-1.5-1.5c0-0.8,0.7-1.5,1.5-1.5
			C190.5,467.6,191.1,468.3,191.1,469.1z M191,479.5h-2.7V472h2.7V479.5z"/>
		<path id="XMLID_1111_" class="st4" d="M201.3,475.8c0,2.6-2.1,4-4.5,4c-2.4,0-4.5-1.4-4.5-4s2.1-4,4.5-4
			C199.1,471.8,201.3,473.2,201.3,475.8z M195,475.8c0,1,0.6,1.7,1.7,1.7c1.1,0,1.7-0.7,1.7-1.7c0-0.9-0.6-1.7-1.7-1.7
			C195.6,474.1,195,474.8,195,475.8z M196.4,470.9l-1.2-0.9l2.1-2.5l1.6,1.2L196.4,470.9z"/>
		<path id="XMLID_1109_" class="st4" d="M205.1,473L205.1,473c0.6-0.9,1.4-1.2,2.4-1.2c2,0,2.8,1.3,2.8,3.1v4.7h-2.7v-3.7
			c0-0.7,0.1-2-1.2-2c-1.1,0-1.4,0.8-1.4,1.7v3.9h-2.7V472h2.7V473z"/>
		<path id="XMLID_1106_" class="st4" d="M219.8,472.9L219.8,472.9c0.5-0.7,1.4-1.1,2.3-1.1c2.2,0,3.8,1.9,3.8,4c0,2.2-1.5,4-3.8,4
			c-0.9,0-1.8-0.3-2.3-1v4.5h-2.7V472h2.7V472.9z M219.7,475.8c0,1,0.6,1.7,1.7,1.7c1.1,0,1.7-0.7,1.7-1.7c0-0.9-0.6-1.7-1.7-1.7
			C220.3,474.1,219.7,474.8,219.7,475.8z"/>
		<path id="XMLID_1104_" class="st4" d="M229.9,473.2L229.9,473.2c0.5-0.9,1.4-1.3,2.5-1.3h0.5v2.6c-0.4-0.2-0.7-0.2-1.1-0.2
			c-1.5,0-1.8,1-1.8,2.3v3h-2.7V472h2.7V473.2z"/>
		<path id="XMLID_1101_" class="st4" d="M241.6,476.2H236c0,1.1,0.6,1.7,1.7,1.7c0.6,0,1-0.2,1.3-0.7h2.6c-0.2,0.9-0.7,1.5-1.4,2
			c-0.7,0.4-1.5,0.6-2.4,0.6c-2.5,0-4.4-1.4-4.4-4c0-2.5,1.7-4,4.2-4c2.6,0,4.1,1.6,4.1,4.2V476.2z M239.1,474.7
			c-0.1-0.7-0.8-1.2-1.5-1.2c-0.8,0-1.4,0.4-1.6,1.2H239.1z"/>
		<path id="XMLID_1099_" class="st4" d="M246.5,475.9l1.8-3.9h3l-3.9,7.5h-1.7l-3.9-7.5h3L246.5,475.9z"/>
		<path id="XMLID_1096_" class="st4" d="M254.8,469.1c0,0.8-0.7,1.5-1.5,1.5c-0.8,0-1.5-0.7-1.5-1.5c0-0.8,0.7-1.5,1.5-1.5
			C254.1,467.6,254.8,468.3,254.8,469.1z M254.6,479.5H252V472h2.7V479.5z"/>
		<path id="XMLID_1093_" class="st4" d="M264.6,479.5H262v-0.8h0c-0.5,0.7-1.4,1.1-2.3,1.1c-2.2,0-3.8-1.9-3.8-4s1.5-4,3.8-4
			c0.9,0,1.8,0.3,2.3,1V472h2.7V479.5z M258.6,475.8c0,1,0.6,1.7,1.7,1.7c1.1,0,1.7-0.7,1.7-1.7c0-0.9-0.6-1.7-1.7-1.7
			C259.2,474.1,258.6,474.8,258.6,475.8z"/>
		<path id="XMLID_1091_" class="st4" d="M269.8,478.1c0,0.9-0.8,1.7-1.7,1.7s-1.7-0.8-1.7-1.7c0-1,0.8-1.7,1.7-1.7
			S269.8,477.2,269.8,478.1z"/>
	</g>
</g>
<g id="XMLID_9136_">
	<g>
		<path id="XMLID_329_" class="st4" d="M139.8,663.2l2.7-6.7h3.1l-4.7,11.1h-2.2l-4.7-11.1h3.1L139.8,663.2z"/>
		<path id="XMLID_327_" class="st4" d="M149.2,659v1.9h3.2v2.4h-3.2v1.9h3.4v2.4h-6.3v-11.1h6.3v2.4H149.2z"/>
		<path id="XMLID_325_" class="st4" d="M154.4,656.5h2.9l5.3,6.8h0v-6.8h2.9v11.1h-2.9l-5.3-6.8h0v6.8h-2.9V656.5z"/>
		<path id="XMLID_323_" class="st4" d="M171.7,667.6h-2.9V659h-2.4v-2.4h7.6v2.4h-2.4V667.6z"/>
		<path id="XMLID_320_" class="st4" d="M177.1,665.7l-0.8,1.9h-3.1l4.3-11.1h3.1l4.2,11.1h-3.1l-0.7-1.9H177.1z M179.1,659.9
			L179.1,659.9l-1.2,3.5h2.4L179.1,659.9z"/>
		<path id="XMLID_318_" class="st4" d="M185.7,656.5h2.9l5.3,6.8h0v-6.8h2.9v11.1h-2.9l-5.3-6.8h0v6.8h-2.9V656.5z"/>
		<path id="XMLID_316_" class="st4" d="M201.5,667.6h-2.9v-11.1h2.9V667.6z"/>
		<path id="XMLID_314_" class="st4" d="M206.3,665.1h3.5v2.4h-6.3v-11.1h2.9V665.1z"/>
		<path id="XMLID_312_" class="st4" d="M213.5,665.1h3.5v2.4h-6.3v-11.1h2.9V665.1z"/>
		<path id="XMLID_309_" class="st4" d="M220.8,665.7l-0.8,1.9h-3.1l4.3-11.1h3.1l4.2,11.1h-3.1l-0.7-1.9H220.8z M222.8,659.9
			L222.8,659.9l-1.2,3.5h2.4L222.8,659.9z"/>
		<path id="XMLID_306_" class="st4" d="M244,656.5v6.2c0,1.4-0.1,2.8-1.2,3.9c-0.9,0.9-2.4,1.2-3.7,1.2s-2.7-0.3-3.7-1.2
			c-1.1-1.1-1.2-2.5-1.2-3.9v-6.2h2.9v5.8c0,1.4,0.1,3,2,3c1.8,0,2-1.6,2-3v-5.8H244z M238.8,655.8l-1.2-0.9l2.1-2.5l1.6,1.2
			L238.8,655.8z"/>
		<path id="XMLID_304_" class="st4" d="M245.9,656.5h2.9l5.3,6.8h0v-6.8h2.9v11.1H254l-5.3-6.8h0v6.8h-2.9V656.5z"/>
		<path id="XMLID_302_" class="st4" d="M261.7,667.6h-2.9v-11.1h2.9V667.6z"/>
		<path id="XMLID_300_" class="st4" d="M271.5,660.2c-0.6-0.8-1.5-1.2-2.5-1.2c-1.8,0-3,1.4-3,3.1c0,1.7,1.2,3,3,3
			c0.9,0,1.9-0.5,2.5-1.2v3.5c-1,0.3-1.6,0.5-2.5,0.5c-1.5,0-3-0.6-4.2-1.6c-1.2-1.1-1.8-2.5-1.8-4.2c0-1.5,0.6-3,1.6-4.1
			c1.1-1.1,2.7-1.8,4.2-1.8c0.9,0,1.8,0.2,2.6,0.6V660.2z"/>
		<path id="XMLID_297_" class="st4" d="M276.1,665.7l-0.8,1.9h-3.1l4.3-11.1h3.1l4.2,11.1h-3.1l-0.7-1.9H276.1z M278.1,659.9
			L278.1,659.9l-1.2,3.5h2.4L278.1,659.9z"/>
	</g>
</g>
<g id="XMLID_9075_">
	<g>
		<path id="XMLID_631_" class="st4" d="M461.8,33.7l-0.8,1.9H458l4.3-11.1h3.1l4.2,11.1h-3.1l-0.7-1.9H461.8z M463.8,28L463.8,28
			l-1.2,3.5h2.4L463.8,28z"/>
		<path id="XMLID_627_" class="st4" d="M470.4,35.6V24.6h4.1c2,0,3.3,0.8,3.3,2.9c0,1-0.3,1.8-1.2,2.3v0c1.6,0.2,2.3,1.3,2.3,2.8
			c0,2.3-2,3.1-4,3.1H470.4z M473.3,28.9h0.3c0.8,0,1.6-0.1,1.6-1.1c0-1-0.9-1.1-1.7-1.1h-0.2V28.9z M473.3,33.4h0.4
			c0.9,0,2.3,0,2.3-1.2c0-1.3-1.4-1.2-2.4-1.2h-0.3V33.4z"/>
		<path id="XMLID_624_" class="st4" d="M492.1,29.9c0,3.6-2.6,6.1-6.1,6.1s-6.1-2.5-6.1-6.1c0-3.3,2.9-5.7,6.1-5.7
			C489.1,24.2,492.1,26.6,492.1,29.9z M482.8,29.9c0,1.9,1.4,3.3,3.1,3.3c1.7,0,3.1-1.4,3.1-3.3c0-1.5-1.4-2.9-3.1-2.9
			C484.2,27,482.8,28.4,482.8,29.9z"/>
		<path id="XMLID_622_" class="st4" d="M504.4,29.5c0,1.6-0.1,3-1.1,4.4c-1.1,1.5-2.7,2.2-4.6,2.2c-3.5,0-5.9-2.4-5.9-5.8
			c0-3.6,2.4-6,6-6c2.3,0,4,1,5,3.1l-2.7,1.1c-0.4-1.1-1.2-1.8-2.4-1.8c-1.9,0-2.9,1.8-2.9,3.5c0,1.7,1,3.5,2.9,3.5
			c1.2,0,2.2-0.6,2.3-1.9h-2.3v-2.3H504.4z"/>
		<path id="XMLID_619_" class="st4" d="M508.6,33.7l-0.8,1.9h-3.1l4.3-11.1h3.1l4.2,11.1h-3.1l-0.7-1.9H508.6z M510.6,28L510.6,28
			l-1.2,3.5h2.4L510.6,28z"/>
		<path id="XMLID_616_" class="st4" d="M517.2,24.6h4.1c3.1,0,5.6,2.4,5.6,5.5c0,3.1-2.6,5.5-5.6,5.5h-4.1V24.6z M520.1,33.2h0.6
			c1.7,0,3.2-0.9,3.2-3.1c0-2-1.3-3.1-3.2-3.1h-0.7V33.2z"/>
		<path id="XMLID_613_" class="st4" d="M540,29.9c0,3.6-2.6,6.1-6.1,6.1c-3.6,0-6.1-2.5-6.1-6.1c0-3.3,2.9-5.7,6.1-5.7
			C537,24.2,540,26.6,540,29.9z M530.7,29.9c0,1.9,1.4,3.3,3.1,3.3c1.7,0,3.1-1.4,3.1-3.3c0-1.5-1.4-2.9-3.1-2.9
			C532.1,27,530.7,28.4,530.7,29.9z"/>
		<path id="XMLID_611_" class="st4" d="M463.7,42.2v6.2c0,1.4-0.1,2.8-1.2,3.9c-0.9,0.9-2.4,1.2-3.7,1.2s-2.7-0.3-3.7-1.2
			c-1.1-1.1-1.2-2.5-1.2-3.9v-6.2h2.9V48c0,1.4,0.1,3,2,3c1.8,0,2-1.6,2-3v-5.8H463.7z"/>
		<path id="XMLID_608_" class="st4" d="M474.8,53.3h-3.6l-2.7-4.3h0v4.3h-2.9V42.2h4.3c2.2,0,3.8,1,3.8,3.4c0,1.5-0.9,2.8-2.4,3.1
			L474.8,53.3z M468.4,47.2h0.3c0.9,0,2-0.2,2-1.4c0-1.2-1.1-1.4-2-1.4h-0.3V47.2z"/>
		<path id="XMLID_604_" class="st4" d="M475.6,53.3V42.2h4.1c2,0,3.3,0.8,3.3,2.9c0,1-0.3,1.8-1.2,2.3v0c1.6,0.2,2.3,1.3,2.3,2.8
			c0,2.3-2,3.1-4,3.1H475.6z M478.4,46.5h0.3c0.8,0,1.6-0.1,1.6-1.1c0-1-0.9-1.1-1.7-1.1h-0.2V46.5z M478.4,51.1h0.4
			c0.9,0,2.3,0,2.3-1.2c0-1.3-1.4-1.2-2.4-1.2h-0.3V51.1z"/>
		<path id="XMLID_601_" class="st4" d="M488.3,51.3l-0.8,1.9h-3.1l4.3-11.1h3.1l4.2,11.1H493l-0.7-1.9H488.3z M490.3,45.6
			L490.3,45.6l-1.2,3.5h2.4L490.3,45.6z"/>
		<path id="XMLID_599_" class="st4" d="M497,42.2h2.9l5.3,6.8h0v-6.8h2.9v11.1h-2.9l-5.3-6.8h0v6.8H497V42.2z"/>
		<path id="XMLID_597_" class="st4" d="M512.8,53.3h-2.9V42.2h2.9V53.3z"/>
		<path id="XMLID_581_" class="st4" d="M520.7,45c-0.5-0.4-1.2-0.7-1.9-0.7c-0.5,0-1.2,0.3-1.2,0.9c0,0.6,0.8,0.9,1.3,1.1l0.7,0.2
			c1.5,0.5,2.7,1.2,2.7,3c0,1.1-0.3,2.2-1.1,3c-0.9,0.7-2,1-3.1,1c-1.4,0-2.8-0.5-3.9-1.3l1.2-2.3c0.7,0.6,1.6,1.1,2.6,1.1
			c0.7,0,1.4-0.3,1.4-1.1c0-0.8-1.1-1.1-1.7-1.3c-1.8-0.5-3-1-3-3.1c0-2.2,1.6-3.7,3.8-3.7c1.1,0,2.5,0.4,3.5,0.9L520.7,45z"/>
		<path id="XMLID_579_" class="st4" d="M524.9,42.2h2.8l2.2,5.9l2.4-5.9h2.9l1.7,11.1H534l-0.8-6.4h0l-2.7,6.4h-1.1l-2.5-6.4h0
			l-0.9,6.4H523L524.9,42.2z"/>
		<path id="XMLID_576_" class="st4" d="M549.8,47.5c0,3.6-2.6,6.1-6.1,6.1s-6.1-2.5-6.1-6.1c0-3.3,2.9-5.7,6.1-5.7
			S549.8,44.2,549.8,47.5z M540.6,47.5c0,1.9,1.4,3.3,3.1,3.3c1.7,0,3.1-1.4,3.1-3.3c0-1.5-1.4-2.9-3.1-2.9
			C542,44.6,540.6,46,540.6,47.5z"/>
		<path id="XMLID_574_" class="st4" d="M475.5,70.9h-2.9V59.8h2.9V70.9z"/>
		<path id="XMLID_572_" class="st4" d="M480,64.3L480,64.3c0.6-0.9,1.4-1.2,2.4-1.2c2,0,2.8,1.3,2.8,3.1v4.7h-2.7v-3.7
			c0-0.7,0.1-2-1.2-2c-1.1,0-1.4,0.8-1.4,1.7v3.9h-2.7v-7.5h2.7V64.3z"/>
		<path id="XMLID_570_" class="st4" d="M490,70.9h-2.7v-5.3h-0.9v-2.2h0.9v-1c0-1,0-1.8,0.8-2.6c0.7-0.8,1.6-1.2,2.6-1.2
			c0.4,0,0.8,0.1,1.1,0.3v2.3c-0.3-0.1-0.6-0.2-0.9-0.2c-0.7,0-0.9,0.4-0.9,1.3v1.2h1.9v2.2H490V70.9z"/>
		<path id="XMLID_567_" class="st4" d="M501.3,67.1c0,2.6-2.1,4-4.5,4c-2.4,0-4.5-1.4-4.5-4c0-2.6,2.1-4,4.5-4
			C499.1,63.1,501.3,64.6,501.3,67.1z M495,67.1c0,1,0.6,1.7,1.7,1.7c1.1,0,1.7-0.7,1.7-1.7c0-0.9-0.6-1.7-1.7-1.7
			C495.6,65.4,495,66.2,495,67.1z"/>
		<path id="XMLID_565_" class="st4" d="M505.1,64.6L505.1,64.6c0.5-0.9,1.4-1.3,2.5-1.3h0.5v2.6c-0.4-0.2-0.7-0.2-1.1-0.2
			c-1.5,0-1.9,1-1.9,2.3v3h-2.7v-7.5h2.7V64.6z"/>
		<path id="XMLID_563_" class="st4" d="M511.8,64.3L511.8,64.3c0.7-0.8,1.4-1.2,2.4-1.2c1.1,0,2,0.4,2.6,1.4
			c0.5-0.9,1.5-1.4,2.6-1.4c1.9,0,2.6,1.2,2.6,3v4.8h-2.7v-3.6c0-0.8,0-2.1-1.1-2.1c-1.2,0-1.3,1.2-1.3,2.1v3.6h-2.7v-3.6
			c0-0.8,0-2.1-1.2-2.1c-1.2,0-1.2,1.3-1.2,2.1v3.6h-2.7v-7.5h2.7V64.3z"/>
		<path id="XMLID_560_" class="st4" d="M531.4,67.6h-5.6c0,1.1,0.6,1.7,1.7,1.7c0.6,0,1-0.2,1.3-0.7h2.6c-0.2,0.9-0.7,1.5-1.4,2
			c-0.7,0.4-1.5,0.6-2.4,0.6c-2.5,0-4.4-1.4-4.4-4c0-2.5,1.7-4,4.2-4c2.6,0,4.1,1.6,4.1,4.2V67.6z M528.9,66
			c-0.1-0.7-0.8-1.2-1.5-1.2c-0.8,0-1.4,0.4-1.6,1.2H528.9z"/>
	</g>
</g>
<g id="XMLID_9015_">
	<g>
		<path id="XMLID_594_" class="st4" d="M721.5,168.4c-0.6-0.8-1.5-1.2-2.5-1.2c-1.8,0-3,1.4-3,3.1c0,1.7,1.2,3,3,3
			c0.9,0,1.9-0.5,2.5-1.2v3.5c-1,0.3-1.6,0.5-2.5,0.5c-1.5,0-3-0.6-4.2-1.6c-1.2-1.1-1.8-2.5-1.8-4.2c0-1.5,0.6-3,1.6-4.1
			c1.1-1.1,2.7-1.8,4.2-1.8c0.9,0,1.8,0.2,2.6,0.6V168.4z"/>
		<path id="XMLID_591_" class="st4" d="M734.9,170.1c0,3.6-2.6,6.1-6.1,6.1c-3.6,0-6.1-2.5-6.1-6.1c0-3.3,2.9-5.7,6.1-5.7
			S734.9,166.7,734.9,170.1z M725.7,170.1c0,1.9,1.4,3.3,3.1,3.3c1.7,0,3.1-1.4,3.1-3.3c0-1.5-1.4-2.9-3.1-2.9
			C727.1,167.2,725.7,168.5,725.7,170.1z"/>
		<path id="XMLID_589_" class="st4" d="M736.3,164.7h2.9l5.3,6.8h0v-6.8h2.9v11.1h-2.9l-5.3-6.8h0v6.8h-2.9V164.7z"/>
		<path id="XMLID_587_" class="st4" d="M753.6,175.8h-2.9v-8.6h-2.4v-2.4h7.6v2.4h-2.4V175.8z"/>
		<path id="XMLID_584_" class="st4" d="M766.2,175.8h-3.6l-2.7-4.3h0v4.3H757v-11.1h4.3c2.2,0,3.8,1,3.8,3.4c0,1.5-0.9,2.8-2.4,3.1
			L766.2,175.8z M759.9,169.7h0.3c0.9,0,2-0.2,2-1.4c0-1.2-1.1-1.4-2-1.4h-0.3V169.7z"/>
		<path id="XMLID_582_" class="st4" d="M769.9,175.8H767v-11.1h2.9V175.8z"/>
		<path id="XMLID_549_" class="st4" d="M771.8,175.8v-11.1h4.1c2,0,3.3,0.8,3.3,2.9c0,1-0.3,1.8-1.2,2.3v0c1.6,0.2,2.3,1.3,2.3,2.8
			c0,2.3-2,3.1-4,3.1H771.8z M774.6,169.1h0.3c0.8,0,1.6-0.1,1.6-1.1c0-1-0.9-1.1-1.7-1.1h-0.2V169.1z M774.6,173.6h0.4
			c0.9,0,2.3,0,2.3-1.2c0-1.3-1.4-1.2-2.4-1.2h-0.3V173.6z"/>
		<path id="XMLID_547_" class="st4" d="M791.3,164.7v6.2c0,1.4-0.1,2.8-1.2,3.9c-0.9,0.9-2.4,1.2-3.7,1.2c-1.3,0-2.7-0.3-3.7-1.2
			c-1.1-1.1-1.2-2.5-1.2-3.9v-6.2h2.9v5.8c0,1.4,0.1,3,2,3c1.8,0,2-1.6,2-3v-5.8H791.3z"/>
		<path id="XMLID_545_" class="st4" d="M791.9,164.7h3.5l2.1,3l2.1-3h3.5l-4.1,5.8v5.3H796v-5.3L791.9,164.7z"/>
		<path id="XMLID_543_" class="st4" d="M806.5,167.2v1.9h3.2v2.4h-3.2v1.9h3.4v2.4h-6.3v-11.1h6.3v2.4H806.5z"/>
		<path id="XMLID_541_" class="st4" d="M811.7,164.7h2.9l5.3,6.8h0v-6.8h2.9v11.1h-2.9l-5.3-6.8h0v6.8h-2.9V164.7z"/>
		<path id="XMLID_539_" class="st4" d="M829,175.8h-2.9v-8.6h-2.4v-2.4h7.6v2.4H829V175.8z"/>
		<path id="XMLID_537_" class="st4" d="M835.3,167.2v1.9h3.2v2.4h-3.2v1.9h3.4v2.4h-6.3v-11.1h6.3v2.4H835.3z"/>
		<path id="XMLID_535_" class="st4" d="M736.9,186.1c-0.6-0.8-1.5-1.2-2.5-1.2c-1.8,0-3,1.4-3,3.1c0,1.7,1.2,3,3,3
			c0.9,0,1.9-0.5,2.5-1.2v3.5c-1,0.3-1.6,0.5-2.5,0.5c-1.5,0-3-0.6-4.2-1.6c-1.2-1.1-1.8-2.5-1.8-4.2c0-1.5,0.6-3,1.6-4.1
			c1.1-1.1,2.7-1.8,4.2-1.8c0.9,0,1.8,0.2,2.6,0.6V186.1z"/>
		<path id="XMLID_532_" class="st4" d="M747.1,189.7c0,2.6-2.1,4-4.5,4c-2.4,0-4.5-1.4-4.5-4s2.1-4,4.5-4
			C745,185.6,747.1,187.1,747.1,189.7z M740.8,189.7c0,1,0.6,1.7,1.7,1.7c1.1,0,1.7-0.7,1.7-1.7c0-0.9-0.6-1.7-1.7-1.7
			C741.5,188,740.8,188.7,740.8,189.7z"/>
		<path id="XMLID_530_" class="st4" d="M751,187.1L751,187.1c0.5-0.9,1.4-1.3,2.5-1.3h0.5v2.6c-0.4-0.2-0.7-0.2-1.1-0.2
			c-1.5,0-1.9,1-1.9,2.3v3h-2.7v-7.5h2.7V187.1z"/>
		<path id="XMLID_528_" class="st4" d="M757.6,187.1L757.6,187.1c0.5-0.9,1.4-1.3,2.5-1.3h0.5v2.6c-0.4-0.2-0.7-0.2-1.1-0.2
			c-1.5,0-1.8,1-1.8,2.3v3h-2.7v-7.5h2.7V187.1z"/>
		<path id="XMLID_525_" class="st4" d="M769.3,190.1h-5.6c0,1.1,0.6,1.7,1.7,1.7c0.6,0,1-0.2,1.3-0.7h2.6c-0.2,0.9-0.7,1.5-1.4,2
			c-0.7,0.4-1.5,0.6-2.4,0.6c-2.5,0-4.4-1.4-4.4-4c0-2.5,1.7-4,4.2-4c2.6,0,4.1,1.6,4.1,4.2V190.1z M766.8,188.6
			c-0.1-0.7-0.8-1.2-1.5-1.2c-0.8,0-1.4,0.4-1.6,1.2H766.8z"/>
		<path id="XMLID_523_" class="st4" d="M776,188.3c-0.4-0.3-0.9-0.5-1.4-0.5c-1,0-1.8,0.8-1.8,1.8c0,1.1,0.8,1.9,1.9,1.9
			c0.5,0,1-0.2,1.3-0.5v2.3c-0.6,0.3-1.2,0.4-1.9,0.4c-2.2,0-4.1-1.7-4.1-3.9c0-2.4,1.8-4.1,4.2-4.1c0.6,0,1.2,0.1,1.8,0.4V188.3z"
			/>
		<path id="XMLID_521_" class="st4" d="M783.1,188.3c-0.4-0.3-0.9-0.5-1.4-0.5c-1,0-1.8,0.8-1.8,1.8c0,1.1,0.8,1.9,1.9,1.9
			c0.5,0,1-0.2,1.3-0.5v2.3c-0.6,0.3-1.2,0.4-1.9,0.4c-2.2,0-4.1-1.7-4.1-3.9c0-2.4,1.8-4.1,4.2-4.1c0.6,0,1.2,0.1,1.8,0.4V188.3z"
			/>
		<path id="XMLID_518_" class="st4" d="M787.6,183c0,0.8-0.7,1.5-1.5,1.5c-0.8,0-1.5-0.7-1.5-1.5c0-0.8,0.7-1.5,1.5-1.5
			C786.9,181.5,787.6,182.2,787.6,183z M787.4,193.4h-2.7v-7.5h2.7V193.4z"/>
		<path id="XMLID_515_" class="st4" d="M797.7,189.7c0,2.6-2.1,4-4.5,4c-2.4,0-4.5-1.4-4.5-4s2.1-4,4.5-4
			C795.6,185.6,797.7,187.1,797.7,189.7z M791.4,189.7c0,1,0.6,1.7,1.7,1.7c1.1,0,1.7-0.7,1.7-1.7c0-0.9-0.6-1.7-1.7-1.7
			C792.1,188,791.4,188.7,791.4,189.7z"/>
		<path id="XMLID_513_" class="st4" d="M801.6,186.9L801.6,186.9c0.6-0.9,1.4-1.2,2.4-1.2c2,0,2.8,1.3,2.8,3.1v4.7h-2.7v-3.7
			c0-0.7,0.1-2-1.2-2c-1.1,0-1.4,0.8-1.4,1.7v3.9h-2.7v-7.5h2.7V186.9z"/>
		<path id="XMLID_510_" class="st4" d="M816.3,190.1h-5.6c0,1.1,0.6,1.7,1.7,1.7c0.6,0,1-0.2,1.3-0.7h2.6c-0.2,0.9-0.7,1.5-1.4,2
			c-0.7,0.4-1.5,0.6-2.4,0.6c-2.5,0-4.4-1.4-4.4-4c0-2.5,1.7-4,4.2-4c2.6,0,4.1,1.6,4.1,4.2V190.1z M813.8,188.6
			c-0.1-0.7-0.8-1.2-1.5-1.2c-0.8,0-1.4,0.4-1.6,1.2H813.8z"/>
		<path id="XMLID_508_" class="st4" d="M822.5,187.8c-0.4-0.2-1-0.4-1.4-0.4c-0.3,0-0.8,0.1-0.8,0.5c0,0.5,0.8,0.6,1.2,0.7
			c1.2,0.2,2.2,0.8,2.2,2.2c0,2-1.8,2.8-3.6,2.8c-1.1,0-2.1-0.3-3-0.9l1-1.9c0.5,0.4,1.5,0.8,2.1,0.8c0.3,0,0.8-0.2,0.8-0.6
			c0-0.6-0.8-0.6-1.7-0.8c-0.8-0.2-1.7-0.6-1.7-2c0-1.9,1.7-2.7,3.3-2.7c0.9,0,1.7,0.1,2.5,0.5L822.5,187.8z"/>
	</g>
</g>
<rect id="XMLID_105_" x="390.3" y="130.6" class="st3" width="222.1" height="100.5"/>
<g id="XMLID_8939_">
	<g>
		<path id="XMLID_814_" class="st4" d="M456.3,177.6h-2.9v-8.6H451v-2.4h7.6v2.4h-2.4V177.6z"/>
		<path id="XMLID_811_" class="st4" d="M471.4,171.8c0,3.6-2.6,6.1-6.1,6.1s-6.1-2.5-6.1-6.1c0-3.3,2.9-5.7,6.1-5.7
			C468.4,166.1,471.4,168.5,471.4,171.8z M462.1,171.8c0,1.9,1.4,3.3,3.1,3.3c1.7,0,3.1-1.4,3.1-3.3c0-1.5-1.4-2.9-3.1-2.9
			C463.5,168.9,462.1,170.3,462.1,171.8z"/>
		<path id="XMLID_808_" class="st4" d="M472.7,166.5h4.4c2.4,0,4,1.1,4,3.6c0,2.6-1.4,3.8-3.9,3.8h-1.6v3.7h-2.9V166.5z
			 M475.6,171.6h0.5c1,0,2.1,0,2.1-1.4c0-1.4-1-1.4-2.1-1.4h-0.5V171.6z"/>
		<path id="XMLID_805_" class="st4" d="M494.1,171.8c0,3.6-2.6,6.1-6.1,6.1c-3.6,0-6.1-2.5-6.1-6.1c0-3.3,2.9-5.7,6.1-5.7
			C491.2,166.1,494.1,168.5,494.1,171.8z M484.9,171.8c0,1.9,1.4,3.3,3.1,3.3c1.7,0,3.1-1.4,3.1-3.3c0-1.5-1.4-2.9-3.1-2.9
			C486.3,168.9,484.9,170.3,484.9,171.8z"/>
		<path id="XMLID_803_" class="st4" d="M506.5,171.4c0,1.6-0.1,3-1.1,4.4c-1.1,1.5-2.7,2.2-4.6,2.2c-3.5,0-5.9-2.4-5.9-5.8
			c0-3.6,2.4-6,6-6c2.3,0,4,1,5,3.1l-2.7,1.1c-0.4-1.1-1.2-1.8-2.4-1.8c-1.9,0-2.9,1.8-2.9,3.5c0,1.7,1,3.5,2.9,3.5
			c1.2,0,2.2-0.6,2.3-1.9h-2.3v-2.3H506.5z"/>
		<path id="XMLID_800_" class="st4" d="M517,177.6h-3.6l-2.7-4.3h0v4.3h-2.9v-11.1h4.3c2.2,0,3.8,1,3.8,3.4c0,1.5-0.9,2.8-2.4,3.1
			L517,177.6z M510.7,171.5h0.3c0.9,0,2-0.2,2-1.4c0-1.2-1.1-1.4-2-1.4h-0.3V171.5z"/>
		<path id="XMLID_797_" class="st4" d="M520.6,175.6l-0.8,1.9h-3.1l4.3-11.1h3.1l4.2,11.1h-3.1l-0.7-1.9H520.6z M522.6,169.9
			L522.6,169.9l-1.2,3.5h2.4L522.6,169.9z"/>
		<path id="XMLID_795_" class="st4" d="M532.1,168.9v1.9h3.2v2.4h-3.2v4.3h-2.9v-11.1h6.4v2.4H532.1z"/>
		<path id="XMLID_793_" class="st4" d="M540.1,177.6h-2.9v-11.1h2.9V177.6z"/>
		<path id="XMLID_790_" class="st4" d="M544.8,175.6l-0.8,1.9H541l4.3-11.1h3.1l4.2,11.1h-3.1l-0.7-1.9H544.8z M546.8,169.9
			L546.8,169.9l-1.2,3.5h2.4L546.8,169.9z"/>
		<path id="XMLID_788_" class="st4" d="M428.7,195.2h-2.9v-11.1h2.9V195.2z"/>
		<path id="XMLID_786_" class="st4" d="M433.2,188.6L433.2,188.6c0.6-0.9,1.4-1.2,2.4-1.2c2,0,2.8,1.3,2.8,3.1v4.7h-2.7v-3.7
			c0-0.7,0.1-2-1.2-2c-1.1,0-1.4,0.8-1.4,1.7v3.9h-2.7v-7.5h2.7V188.6z"/>
		<path id="XMLID_784_" class="st4" d="M445.2,189.6c-0.4-0.2-1-0.4-1.4-0.4c-0.3,0-0.8,0.1-0.8,0.5c0,0.5,0.8,0.6,1.2,0.7
			c1.2,0.2,2.2,0.8,2.2,2.2c0,2-1.8,2.8-3.6,2.8c-1.1,0-2.1-0.3-3-0.9l1-1.9c0.5,0.4,1.5,0.8,2.1,0.8c0.3,0,0.8-0.2,0.8-0.6
			c0-0.6-0.8-0.6-1.7-0.8c-0.8-0.2-1.7-0.6-1.7-2c0-1.9,1.7-2.7,3.3-2.7c0.9,0,1.7,0.1,2.5,0.5L445.2,189.6z"/>
		<path id="XMLID_781_" class="st4" d="M450.4,188.5L450.4,188.5c0.5-0.7,1.4-1.1,2.3-1.1c2.2,0,3.8,1.9,3.8,4c0,2.2-1.5,4-3.8,4
			c-0.9,0-1.8-0.3-2.3-1v4.5h-2.7v-11.3h2.7V188.5z M450.3,191.4c0,1,0.6,1.7,1.7,1.7c1.1,0,1.7-0.7,1.7-1.7c0-0.9-0.6-1.7-1.7-1.7
			C450.9,189.7,450.3,190.5,450.3,191.4z"/>
		<path id="XMLID_778_" class="st4" d="M465.5,191.9h-5.6c0,1.1,0.6,1.7,1.7,1.7c0.6,0,1-0.2,1.3-0.7h2.6c-0.2,0.9-0.7,1.5-1.4,2
			c-0.7,0.4-1.5,0.6-2.4,0.6c-2.5,0-4.4-1.4-4.4-4c0-2.5,1.7-4,4.2-4c2.6,0,4.1,1.6,4.1,4.2V191.9z M463,190.3
			c-0.1-0.7-0.8-1.2-1.5-1.2c-0.8,0-1.4,0.4-1.6,1.2H463z"/>
		<path id="XMLID_776_" class="st4" d="M472.2,190.1c-0.4-0.3-0.9-0.5-1.4-0.5c-1,0-1.8,0.8-1.8,1.8c0,1.1,0.8,1.9,1.9,1.9
			c0.5,0,1-0.2,1.3-0.5v2.3c-0.6,0.3-1.2,0.4-1.9,0.4c-2.2,0-4.1-1.7-4.1-3.9c0-2.4,1.8-4.1,4.2-4.1c0.6,0,1.2,0.1,1.8,0.4V190.1z"
			/>
		<path id="XMLID_774_" class="st4" d="M479.3,190.1c-0.4-0.3-0.9-0.5-1.4-0.5c-1,0-1.8,0.8-1.8,1.8c0,1.1,0.8,1.9,1.9,1.9
			c0.5,0,1-0.2,1.3-0.5v2.3c-0.6,0.3-1.2,0.4-1.9,0.4c-2.2,0-4.1-1.7-4.1-3.9c0-2.4,1.8-4.1,4.2-4.1c0.6,0,1.2,0.1,1.8,0.4V190.1z"
			/>
		<path id="XMLID_771_" class="st4" d="M483.8,184.8c0,0.8-0.7,1.5-1.5,1.5c-0.8,0-1.5-0.7-1.5-1.5c0-0.8,0.7-1.5,1.5-1.5
			C483.1,183.3,483.8,183.9,483.8,184.8z M483.6,195.2h-2.7v-7.5h2.7V195.2z"/>
		<path id="XMLID_767_" class="st4" d="M493.9,191.4c0,2.6-2.1,4-4.5,4c-2.4,0-4.5-1.4-4.5-4s2.1-4,4.5-4
			C491.8,187.4,493.9,188.9,493.9,191.4z M487.6,191.4c0,1,0.6,1.7,1.7,1.7c1.1,0,1.7-0.7,1.7-1.7c0-0.9-0.6-1.7-1.7-1.7
			C488.2,189.7,487.6,190.5,487.6,191.4z M489,186.5l-1.2-0.9l2.1-2.5l1.6,1.2L489,186.5z"/>
		<path id="XMLID_765_" class="st4" d="M497.7,188.6L497.7,188.6c0.6-0.9,1.4-1.2,2.4-1.2c2,0,2.8,1.3,2.8,3.1v4.7h-2.7v-3.7
			c0-0.7,0.1-2-1.2-2c-1.1,0-1.4,0.8-1.4,1.7v3.9h-2.7v-7.5h2.7V188.6z"/>
		<path id="XMLID_763_" class="st4" d="M508.9,189.4v2.2h-4.2v-2.2H508.9z"/>
		<path id="XMLID_761_" class="st4" d="M513.2,188.6L513.2,188.6c0.7-0.8,1.4-1.2,2.4-1.2c1.1,0,2,0.4,2.6,1.4
			c0.5-0.9,1.5-1.4,2.6-1.4c1.9,0,2.6,1.2,2.6,3v4.8h-2.7v-3.6c0-0.8,0-2.1-1.1-2.1c-1.2,0-1.3,1.2-1.3,2.1v3.6h-2.7v-3.6
			c0-0.8,0-2.1-1.2-2.1c-1.2,0-1.2,1.3-1.2,2.1v3.6h-2.7v-7.5h2.7V188.6z"/>
		<path id="XMLID_758_" class="st4" d="M532.8,191.9h-5.6c0,1.1,0.6,1.7,1.7,1.7c0.6,0,1-0.2,1.3-0.7h2.6c-0.2,0.9-0.7,1.5-1.4,2
			c-0.7,0.4-1.5,0.6-2.4,0.6c-2.5,0-4.4-1.4-4.4-4c0-2.5,1.7-4,4.2-4c2.6,0,4.1,1.6,4.1,4.2V191.9z M530.3,190.3
			c-0.1-0.7-0.8-1.2-1.5-1.2c-0.8,0-1.4,0.4-1.6,1.2H530.3z"/>
		<path id="XMLID_755_" class="st4" d="M539.7,194.4L539.7,194.4c-0.5,0.7-1.4,1.1-2.3,1.1c-2.2,0-3.8-1.9-3.8-4c0-2.2,1.5-4,3.8-4
			c0.9,0,1.8,0.3,2.3,1V183h2.7v12.2h-2.7V194.4z M536.3,191.4c0,1,0.6,1.7,1.7,1.7c1.1,0,1.7-0.7,1.7-1.7c0-0.9-0.6-1.7-1.7-1.7
			C537,189.7,536.3,190.5,536.3,191.4z"/>
		<path id="XMLID_752_" class="st4" d="M546.9,184.8c0,0.8-0.7,1.5-1.5,1.5c-0.8,0-1.5-0.7-1.5-1.5c0-0.8,0.7-1.5,1.5-1.5
			C546.2,183.3,546.9,183.9,546.9,184.8z M546.7,195.2H544v-7.5h2.7V195.2z"/>
		<path id="XMLID_750_" class="st4" d="M553.9,190.1c-0.4-0.3-0.9-0.5-1.4-0.5c-1,0-1.8,0.8-1.8,1.8c0,1.1,0.8,1.9,1.9,1.9
			c0.5,0,1-0.2,1.3-0.5v2.3c-0.6,0.3-1.2,0.4-1.9,0.4c-2.2,0-4.1-1.7-4.1-3.9c0-2.4,1.8-4.1,4.2-4.1c0.6,0,1.2,0.1,1.8,0.4V190.1z"
			/>
		<path id="XMLID_747_" class="st4" d="M558.4,184.8c0,0.8-0.7,1.5-1.5,1.5c-0.8,0-1.5-0.7-1.5-1.5c0-0.8,0.7-1.5,1.5-1.5
			C557.7,183.3,558.4,183.9,558.4,184.8z M558.2,195.2h-2.7v-7.5h2.7V195.2z"/>
		<path id="XMLID_743_" class="st4" d="M568.5,191.4c0,2.6-2.1,4-4.5,4c-2.4,0-4.5-1.4-4.5-4s2.1-4,4.5-4
			C566.4,187.4,568.5,188.9,568.5,191.4z M562.2,191.4c0,1,0.6,1.7,1.7,1.7c1.1,0,1.7-0.7,1.7-1.7c0-0.9-0.6-1.7-1.7-1.7
			C562.9,189.7,562.2,190.5,562.2,191.4z M563.7,186.5l-1.2-0.9l2.1-2.5l1.6,1.2L563.7,186.5z"/>
		<path id="XMLID_741_" class="st4" d="M572.4,188.6L572.4,188.6c0.6-0.9,1.4-1.2,2.4-1.2c2,0,2.8,1.3,2.8,3.1v4.7H575v-3.7
			c0-0.7,0.1-2-1.2-2c-1.1,0-1.4,0.8-1.4,1.7v3.9h-2.7v-7.5h2.7V188.6z"/>
	</g>
</g>
<rect id="XMLID_103_" x="390.3" y="260.9" class="st3" width="222.1" height="100.5"/>
<g id="XMLID_8855_">
	<g>
		<path id="XMLID_1030_" class="st4" d="M423.8,309.3l-0.8,1.9H420l4.3-11.1h3.1l4.2,11.1h-3.1l-0.7-1.9H423.8z M425.8,303.6
			L425.8,303.6l-1.2,3.5h2.4L425.8,303.6z"/>
		<path id="XMLID_1027_" class="st4" d="M441.7,311.2h-3.6l-2.7-4.3h0v4.3h-2.9v-11.1h4.3c2.2,0,3.8,1,3.8,3.4
			c0,1.5-0.9,2.8-2.4,3.1L441.7,311.2z M435.3,305.1h0.3c0.9,0,2-0.2,2-1.4c0-1.2-1.1-1.4-2-1.4h-0.3V305.1z"/>
		<path id="XMLID_1025_" class="st4" d="M445.3,302.6v1.9h3.2v2.4h-3.2v1.9h3.4v2.4h-6.3v-11.1h6.3v2.4H445.3z"/>
		<path id="XMLID_1022_" class="st4" d="M453.3,309.3l-0.8,1.9h-3.1l4.3-11.1h3.1l4.2,11.1H458l-0.7-1.9H453.3z M455.4,303.6
			L455.4,303.6l-1.2,3.5h2.4L455.4,303.6z"/>
		<path id="XMLID_1020_" class="st4" d="M471.4,311.2h-2.9v-8.6h-2.4v-2.4h7.6v2.4h-2.4V311.2z"/>
		<path id="XMLID_1018_" class="st4" d="M477.7,302.6v1.9h3.2v2.4h-3.2v1.9h3.4v2.4h-6.3v-11.1h6.3v2.4H477.7z"/>
		<path id="XMLID_1016_" class="st4" d="M490.8,303.9c-0.6-0.8-1.5-1.2-2.5-1.2c-1.8,0-3,1.4-3,3.1c0,1.7,1.2,3,3,3
			c0.9,0,1.9-0.5,2.5-1.2v3.5c-1,0.3-1.6,0.5-2.5,0.5c-1.5,0-3-0.6-4.2-1.6c-1.2-1.1-1.8-2.5-1.8-4.2c0-1.5,0.6-3,1.6-4.1
			c1.1-1.1,2.7-1.8,4.2-1.8c0.9,0,1.8,0.2,2.6,0.6V303.9z"/>
		<path id="XMLID_1014_" class="st4" d="M492.6,300.1h2.9l5.3,6.8h0v-6.8h2.9v11.1h-2.9l-5.3-6.8h0v6.8h-2.9V300.1z"/>
		<path id="XMLID_1012_" class="st4" d="M508.4,311.2h-2.9v-11.1h2.9V311.2z"/>
		<path id="XMLID_1010_" class="st4" d="M518.2,303.9c-0.6-0.8-1.5-1.2-2.5-1.2c-1.8,0-3,1.4-3,3.1c0,1.7,1.2,3,3,3
			c0.9,0,1.9-0.5,2.5-1.2v3.5c-1,0.3-1.6,0.5-2.5,0.5c-1.5,0-3-0.6-4.2-1.6c-1.2-1.1-1.8-2.5-1.8-4.2c0-1.5,0.6-3,1.6-4.1
			c1.1-1.1,2.7-1.8,4.2-1.8c0.9,0,1.8,0.2,2.6,0.6V303.9z"/>
		<path id="XMLID_1007_" class="st4" d="M531.7,305.5c0,3.6-2.6,6.1-6.1,6.1c-3.6,0-6.1-2.5-6.1-6.1c0-3.3,2.9-5.7,6.1-5.7
			C528.8,299.8,531.7,302.1,531.7,305.5z M522.4,305.5c0,1.9,1.4,3.3,3.1,3.3c1.7,0,3.1-1.4,3.1-3.3c0-1.5-1.4-2.9-3.1-2.9
			C523.9,302.6,522.4,304,522.4,305.5z"/>
		<path id="XMLID_1005_" class="st4" d="M539.1,303c-0.5-0.4-1.2-0.7-1.9-0.7c-0.5,0-1.2,0.3-1.2,0.9c0,0.6,0.8,0.9,1.3,1.1l0.7,0.2
			c1.5,0.5,2.7,1.2,2.7,3c0,1.1-0.3,2.2-1.1,3c-0.9,0.7-2,1-3.1,1c-1.4,0-2.8-0.5-3.9-1.3l1.2-2.3c0.7,0.6,1.6,1.1,2.6,1.1
			c0.7,0,1.4-0.3,1.4-1.1c0-0.8-1.1-1.1-1.7-1.3c-1.8-0.5-3-1-3-3.1c0-2.2,1.6-3.7,3.8-3.7c1.1,0,2.5,0.4,3.5,0.9L539.1,303z"/>
		<path id="XMLID_1003_" class="st4" d="M549.2,299l-5.6,13.6h-2.1l5.6-13.6H549.2z"/>
		<path id="XMLID_1000_" class="st4" d="M553.4,309.3l-0.8,1.9h-3.1l4.3-11.1h3.1l4.2,11.1h-3.1l-0.7-1.9H553.4z M555.4,303.6
			L555.4,303.6l-1.2,3.5h2.4L555.4,303.6z"/>
		<path id="XMLID_997_" class="st4" d="M571.2,311.2h-3.6l-2.7-4.3h0v4.3H562v-11.1h4.3c2.2,0,3.8,1,3.8,3.4c0,1.5-0.9,2.8-2.4,3.1
			L571.2,311.2z M564.9,305.1h0.3c0.9,0,2-0.2,2-1.4c0-1.2-1.1-1.4-2-1.4h-0.3V305.1z"/>
		<path id="XMLID_994_" class="st4" d="M581.5,311.9l-0.9-1c-0.9,0.5-1.9,0.7-3,0.7c-3.6,0-6.1-2.5-6.1-6.1c0-3.3,2.9-5.7,6.1-5.7
			c3.5,0,6.1,2.3,6.1,5.9c0,1.5-0.5,2.7-1.4,3.9l1.9,1.9L581.5,311.9z M580.2,307.3c0.3-0.5,0.5-1.1,0.5-1.6c0-1.7-1.4-3.2-3.1-3.2
			c-1.7,0-3.1,1.4-3.1,2.9c0,1.9,1.4,3.3,3.1,3.3c0.3,0,0.6,0,0.9-0.1l-1.8-1.8l2.7-0.3L580.2,307.3z"/>
		<path id="XMLID_992_" class="st4" d="M433.9,324.5l2.7-6.7h3.1l-4.7,11.1h-2.2l-4.7-11.1h3.1L433.9,324.5z"/>
		<path id="XMLID_989_" class="st4" d="M447.5,328.8h-2.7V328h0c-0.5,0.7-1.4,1.1-2.3,1.1c-2.2,0-3.8-1.9-3.8-4s1.5-4,3.8-4
			c0.9,0,1.8,0.3,2.3,1v-0.7h2.7V328.8z M441.5,325.1c0,1,0.6,1.7,1.7,1.7c1.1,0,1.7-0.7,1.7-1.7c0-0.9-0.6-1.7-1.7-1.7
			C442.1,323.4,441.5,324.1,441.5,325.1z"/>
		<path id="XMLID_987_" class="st4" d="M451.9,328.8h-2.7v-12.2h2.7V328.8z"/>
		<path id="XMLID_984_" class="st4" d="M462.2,325.1c0,2.6-2.1,4-4.5,4c-2.4,0-4.5-1.4-4.5-4s2.1-4,4.5-4
			C460.1,321,462.2,322.5,462.2,325.1z M455.9,325.1c0,1,0.6,1.7,1.7,1.7c1.1,0,1.7-0.7,1.7-1.7c0-0.9-0.6-1.7-1.7-1.7
			C456.6,323.4,455.9,324.1,455.9,325.1z"/>
		<path id="XMLID_982_" class="st4" d="M466.1,322.5L466.1,322.5c0.5-0.9,1.4-1.3,2.5-1.3h0.5v2.6c-0.4-0.2-0.7-0.2-1.1-0.2
			c-1.5,0-1.9,1-1.9,2.3v3h-2.7v-7.5h2.7V322.5z"/>
		<path id="XMLID_979_" class="st4" d="M478.3,328.8h-2.7V328h0c-0.5,0.7-1.4,1.1-2.3,1.1c-2.2,0-3.8-1.9-3.8-4s1.5-4,3.8-4
			c0.9,0,1.8,0.3,2.3,1v-0.7h2.7V328.8z M472.3,325.1c0,1,0.6,1.7,1.7,1.7c1.1,0,1.7-0.7,1.7-1.7c0-0.9-0.6-1.7-1.7-1.7
			C472.9,323.4,472.3,324.1,472.3,325.1z"/>
		<path id="XMLID_977_" class="st4" d="M485.5,323.7c-0.4-0.3-0.9-0.5-1.4-0.5c-1,0-1.8,0.8-1.8,1.8c0,1.1,0.8,1.9,1.9,1.9
			c0.5,0,1-0.2,1.3-0.5v2.3c-0.6,0.3-1.2,0.4-1.9,0.4c-2.2,0-4.1-1.7-4.1-3.9c0-2.4,1.8-4.1,4.2-4.1c0.6,0,1.2,0.1,1.8,0.4V323.7z"
			/>
		<path id="XMLID_974_" class="st4" d="M490,318.4c0,0.8-0.7,1.5-1.5,1.5c-0.8,0-1.5-0.7-1.5-1.5c0-0.8,0.7-1.5,1.5-1.5
			C489.3,316.9,490,317.6,490,318.4z M489.8,328.8h-2.7v-7.5h2.7V328.8z"/>
		<path id="XMLID_970_" class="st4" d="M500.1,325.1c0,2.6-2.1,4-4.5,4c-2.4,0-4.5-1.4-4.5-4s2.1-4,4.5-4
			C498,321,500.1,322.5,500.1,325.1z M493.9,325.1c0,1,0.6,1.7,1.7,1.7c1.1,0,1.7-0.7,1.7-1.7c0-0.9-0.6-1.7-1.7-1.7
			C494.5,323.4,493.9,324.1,493.9,325.1z M495.3,320.2l-1.2-0.9l2.1-2.5l1.6,1.2L495.3,320.2z"/>
		<path id="XMLID_968_" class="st4" d="M504,322.3L504,322.3c0.6-0.9,1.4-1.2,2.4-1.2c2,0,2.8,1.3,2.8,3.1v4.7h-2.7v-3.7
			c0-0.7,0.1-2-1.2-2c-1.1,0-1.4,0.8-1.4,1.7v3.9h-2.7v-7.5h2.7V322.3z"/>
		<path id="XMLID_966_" class="st4" d="M515.1,323v2.2h-4.2V323H515.1z"/>
		<path id="XMLID_964_" class="st4" d="M519.7,328.8h-2.9v-11.1h2.9V328.8z"/>
		<path id="XMLID_919_" class="st4" d="M524.2,322.3L524.2,322.3c0.6-0.9,1.4-1.2,2.4-1.2c2,0,2.8,1.3,2.8,3.1v4.7h-2.7v-3.7
			c0-0.7,0.1-2-1.2-2c-1.1,0-1.4,0.8-1.4,1.7v3.9h-2.7v-7.5h2.7V322.3z"/>
		<path id="XMLID_917_" class="st4" d="M534.2,328.8h-2.7v-5.3h-0.9v-2.2h0.9v-1c0-1,0-1.8,0.8-2.6c0.7-0.8,1.6-1.2,2.6-1.2
			c0.4,0,0.8,0.1,1.1,0.3v2.3c-0.3-0.1-0.6-0.2-0.9-0.2c-0.7,0-0.9,0.4-0.9,1.3v1.2h1.9v2.2h-1.9V328.8z"/>
		<path id="XMLID_914_" class="st4" d="M545.4,325.1c0,2.6-2.1,4-4.5,4c-2.4,0-4.5-1.4-4.5-4s2.1-4,4.5-4
			C543.3,321,545.4,322.5,545.4,325.1z M539.2,325.1c0,1,0.6,1.7,1.7,1.7c1.1,0,1.7-0.7,1.7-1.7c0-0.9-0.6-1.7-1.7-1.7
			C539.8,323.4,539.2,324.1,539.2,325.1z"/>
		<path id="XMLID_912_" class="st4" d="M549.3,322.5L549.3,322.5c0.5-0.9,1.4-1.3,2.5-1.3h0.5v2.6c-0.4-0.2-0.7-0.2-1.1-0.2
			c-1.5,0-1.8,1-1.8,2.3v3h-2.7v-7.5h2.7V322.5z"/>
		<path id="XMLID_910_" class="st4" d="M556,322.2L556,322.2c0.7-0.8,1.4-1.2,2.4-1.2c1.1,0,2,0.4,2.6,1.4c0.5-0.9,1.5-1.4,2.6-1.4
			c1.9,0,2.6,1.2,2.6,3v4.8h-2.7v-3.6c0-0.8,0-2.1-1.1-2.1c-1.2,0-1.3,1.2-1.3,2.1v3.6h-2.7v-3.6c0-0.8,0-2.1-1.2-2.1
			c-1.2,0-1.2,1.3-1.2,2.1v3.6h-2.7v-7.5h2.7V322.2z"/>
		<path id="XMLID_907_" class="st4" d="M575.6,325.5h-5.6c0,1.1,0.6,1.7,1.7,1.7c0.6,0,1-0.2,1.3-0.7h2.6c-0.2,0.9-0.7,1.5-1.4,2
			c-0.7,0.4-1.5,0.6-2.4,0.6c-2.5,0-4.4-1.4-4.4-4c0-2.5,1.7-4,4.2-4c2.6,0,4.1,1.6,4.1,4.2V325.5z M573.1,324
			c-0.1-0.7-0.8-1.2-1.5-1.2c-0.8,0-1.4,0.4-1.6,1.2H573.1z"/>
	</g>
</g>
<rect id="XMLID_101_" x="390.3" y="391.3" class="st3" width="222.1" height="100.5"/>
<g id="XMLID_8831_">
	<g>
		<path id="XMLID_217_" class="st4" d="M490.7,430.8c-0.6-0.8-1.5-1.2-2.5-1.2c-1.8,0-3,1.4-3,3.1c0,1.7,1.2,3,3,3
			c0.9,0,1.9-0.5,2.5-1.2v3.5c-1,0.3-1.6,0.5-2.5,0.5c-1.5,0-3-0.6-4.2-1.6c-1.2-1.1-1.8-2.5-1.8-4.2c0-1.5,0.6-3,1.6-4.1
			c1.1-1.1,2.7-1.8,4.2-1.8c0.9,0,1.8,0.2,2.6,0.6V430.8z"/>
		<path id="XMLID_214_" class="st4" d="M495.3,436.3l-0.8,1.9h-3.1l4.3-11.1h3.1l4.2,11.1h-3.1l-0.7-1.9H495.3z M497.3,430.5
			L497.3,430.5l-1.2,3.5h2.4L497.3,430.5z"/>
		<path id="XMLID_212_" class="st4" d="M509.3,427.1v7.5c0,2.3-1.2,3.9-3.7,3.9c-1.2,0-2.2-0.6-2.8-1.6l1.7-1.7
			c0.3,0.4,0.8,0.9,1.2,0.9c0.9,0,0.8-1,0.8-1.6v-7.3H509.3z"/>
		<path id="XMLID_209_" class="st4" d="M513.9,436.3l-0.8,1.9h-3.1l4.3-11.1h3.1l4.2,11.1h-3.1l-0.7-1.9H513.9z M515.9,430.5
			L515.9,430.5l-1.2,3.5h2.4L515.9,430.5z"/>
		<path id="XMLID_207_" class="st4" d="M487.8,448.4c-0.6-0.8-1.5-1.2-2.5-1.2c-1.8,0-3,1.4-3,3.1c0,1.7,1.2,3,3,3
			c0.9,0,1.9-0.5,2.5-1.2v3.5c-1,0.3-1.6,0.5-2.5,0.5c-1.5,0-3-0.6-4.2-1.6c-1.2-1.1-1.8-2.5-1.8-4.2c0-1.5,0.6-3,1.6-4.1
			c1.1-1.1,2.7-1.8,4.2-1.8c0.9,0,1.8,0.2,2.6,0.6V448.4z"/>
		<path id="XMLID_204_" class="st4" d="M498,452c0,2.6-2.1,4-4.5,4c-2.4,0-4.5-1.4-4.5-4s2.1-4,4.5-4C495.9,448,498,449.5,498,452z
			 M491.8,452c0,1,0.6,1.7,1.7,1.7c1.1,0,1.7-0.7,1.7-1.7c0-0.9-0.6-1.7-1.7-1.7C492.4,450.3,491.8,451.1,491.8,452z"/>
		<path id="XMLID_201_" class="st4" d="M499.1,443.6h2.7v5.4c0.6-0.7,1.5-1,2.3-1c2.2,0,3.8,1.8,3.8,4c0,2.2-1.6,4-3.8,4
			c-0.9,0-1.8-0.3-2.3-1.1h0v0.8h-2.7V443.6z M501.7,452c0,1,0.6,1.7,1.7,1.7c1.1,0,1.7-0.7,1.7-1.7c0-0.9-0.6-1.7-1.7-1.7
			C502.4,450.3,501.7,451.1,501.7,452z"/>
		<path id="XMLID_199_" class="st4" d="M511.9,449.5L511.9,449.5c0.5-0.9,1.4-1.3,2.5-1.3h0.5v2.6c-0.4-0.2-0.7-0.2-1.1-0.2
			c-1.5,0-1.9,1-1.9,2.3v3h-2.7v-7.5h2.7V449.5z"/>
		<path id="XMLID_196_" class="st4" d="M524.2,452c0,2.6-2.1,4-4.5,4c-2.4,0-4.5-1.4-4.5-4s2.1-4,4.5-4
			C522,448,524.2,449.5,524.2,452z M517.9,452c0,1,0.6,1.7,1.7,1.7c1.1,0,1.7-0.7,1.7-1.7c0-0.9-0.6-1.7-1.7-1.7
			C518.5,450.3,517.9,451.1,517.9,452z"/>
	</g>
</g>
<rect id="XMLID_99_" x="390.3" y="521.7" class="st3" width="222.1" height="100.5"/>
<g id="XMLID_8713_">
	<g>
		<path id="XMLID_1681_" class="st4" d="M423.4,558l-0.8,1.9h-3.1l4.3-11.1h3.1l4.2,11.1h-3.1l-0.7-1.9H423.4z M425.5,552.3
			L425.5,552.3l-1.2,3.5h2.4L425.5,552.3z"/>
		<path id="XMLID_1678_" class="st4" d="M441.3,559.9h-3.6l-2.7-4.3h0v4.3h-2.9v-11.1h4.3c2.2,0,3.8,1,3.8,3.4
			c0,1.5-0.9,2.8-2.4,3.1L441.3,559.9z M435,553.8h0.3c0.9,0,2-0.2,2-1.4c0-1.2-1.1-1.4-2-1.4H435V553.8z"/>
		<path id="XMLID_1676_" class="st4" d="M445,551.3v1.9h3.2v2.4H445v1.9h3.4v2.4h-6.3v-11.1h6.3v2.4H445z"/>
		<path id="XMLID_1673_" class="st4" d="M453,558l-0.8,1.9h-3.1l4.3-11.1h3.1l4.2,11.1h-3.1l-0.7-1.9H453z M455,552.3L455,552.3
			l-1.2,3.5h2.4L455,552.3z"/>
		<path id="XMLID_1671_" class="st4" d="M471.1,559.9h-2.9v-8.6h-2.4v-2.4h7.6v2.4h-2.4V559.9z"/>
		<path id="XMLID_1669_" class="st4" d="M477.4,551.3v1.9h3.2v2.4h-3.2v1.9h3.4v2.4h-6.3v-11.1h6.3v2.4H477.4z"/>
		<path id="XMLID_1667_" class="st4" d="M490.5,552.6c-0.6-0.8-1.5-1.2-2.5-1.2c-1.8,0-3,1.4-3,3.1c0,1.7,1.2,3,3,3
			c0.9,0,1.9-0.5,2.5-1.2v3.5c-1,0.3-1.6,0.5-2.5,0.5c-1.5,0-3-0.6-4.2-1.6c-1.2-1.1-1.8-2.5-1.8-4.2c0-1.5,0.6-3,1.6-4.1
			c1.1-1.1,2.7-1.8,4.2-1.8c0.9,0,1.8,0.2,2.6,0.6V552.6z"/>
		<path id="XMLID_1665_" class="st4" d="M492.2,548.8h2.9l5.3,6.8h0v-6.8h2.9v11.1h-2.9l-5.3-6.8h0v6.8h-2.9V548.8z"/>
		<path id="XMLID_1663_" class="st4" d="M508.1,559.9h-2.9v-11.1h2.9V559.9z"/>
		<path id="XMLID_1661_" class="st4" d="M517.9,552.6c-0.6-0.8-1.5-1.2-2.5-1.2c-1.8,0-3,1.4-3,3.1c0,1.7,1.2,3,3,3
			c0.9,0,1.9-0.5,2.5-1.2v3.5c-1,0.3-1.6,0.5-2.5,0.5c-1.5,0-3-0.6-4.2-1.6c-1.2-1.1-1.8-2.5-1.8-4.2c0-1.5,0.6-3,1.6-4.1
			c1.1-1.1,2.7-1.8,4.2-1.8c0.9,0,1.8,0.2,2.6,0.6V552.6z"/>
		<path id="XMLID_1658_" class="st4" d="M531.3,554.2c0,3.6-2.6,6.1-6.1,6.1c-3.6,0-6.1-2.5-6.1-6.1c0-3.3,2.9-5.7,6.1-5.7
			C528.4,548.5,531.3,550.8,531.3,554.2z M522.1,554.2c0,1.9,1.4,3.3,3.1,3.3c1.7,0,3.1-1.4,3.1-3.3c0-1.5-1.4-2.9-3.1-2.9
			C523.5,551.3,522.1,552.7,522.1,554.2z"/>
		<path id="XMLID_1656_" class="st4" d="M538.7,551.7c-0.5-0.4-1.2-0.7-1.9-0.7c-0.5,0-1.2,0.3-1.2,0.9c0,0.6,0.8,0.9,1.3,1.1
			l0.7,0.2c1.5,0.5,2.7,1.2,2.7,3c0,1.1-0.3,2.2-1.1,3c-0.9,0.7-2,1-3.1,1c-1.4,0-2.8-0.5-3.9-1.3l1.2-2.3c0.7,0.6,1.6,1.1,2.6,1.1
			c0.7,0,1.4-0.3,1.4-1.1c0-0.8-1.1-1.1-1.7-1.3c-1.8-0.5-3-1-3-3.1c0-2.2,1.6-3.7,3.8-3.7c1.1,0,2.5,0.4,3.5,0.9L538.7,551.7z"/>
		<path id="XMLID_1654_" class="st4" d="M548.9,547.7l-5.6,13.6h-2.1l5.6-13.6H548.9z"/>
		<path id="XMLID_1651_" class="st4" d="M553,558l-0.8,1.9h-3.1l4.3-11.1h3.1l4.2,11.1h-3.1L557,558H553z M555,552.3L555,552.3
			l-1.2,3.5h2.4L555,552.3z"/>
		<path id="XMLID_1648_" class="st4" d="M570.9,559.9h-3.6l-2.7-4.3h0v4.3h-2.9v-11.1h4.3c2.2,0,3.8,1,3.8,3.4
			c0,1.5-0.9,2.8-2.4,3.1L570.9,559.9z M564.5,553.8h0.3c0.9,0,2-0.2,2-1.4c0-1.2-1.1-1.4-2-1.4h-0.3V553.8z"/>
		<path id="XMLID_1645_" class="st4" d="M581.1,560.6l-0.9-1c-0.9,0.5-1.9,0.7-3,0.7c-3.6,0-6.1-2.5-6.1-6.1c0-3.3,2.9-5.7,6.1-5.7
			c3.5,0,6.1,2.3,6.1,5.9c0,1.5-0.5,2.7-1.4,3.9l1.9,1.9L581.1,560.6z M579.8,556.1c0.3-0.5,0.5-1.1,0.5-1.6c0-1.7-1.4-3.2-3.1-3.2
			c-1.7,0-3.1,1.4-3.1,2.9c0,1.9,1.4,3.3,3.1,3.3c0.3,0,0.6,0,0.9-0.1l-1.8-1.8l2.7-0.3L579.8,556.1z"/>
		<path id="XMLID_1643_" class="st4" d="M460.7,573.2l2.7-6.7h3.1l-4.7,11.1h-2.2l-4.7-11.1h3.1L460.7,573.2z"/>
		<path id="XMLID_1640_" class="st4" d="M473.8,574.2h-5.6c0,1.1,0.6,1.7,1.7,1.7c0.6,0,1-0.2,1.3-0.7h2.6c-0.2,0.9-0.7,1.5-1.4,2
			c-0.7,0.4-1.5,0.6-2.4,0.6c-2.5,0-4.4-1.4-4.4-4c0-2.5,1.7-4,4.2-4c2.6,0,4.1,1.6,4.1,4.2V574.2z M471.3,572.7
			c-0.1-0.7-0.8-1.2-1.5-1.2c-0.8,0-1.4,0.4-1.6,1.2H471.3z"/>
		<path id="XMLID_1638_" class="st4" d="M477.7,571.2L477.7,571.2c0.5-0.9,1.4-1.3,2.5-1.3h0.5v2.6c-0.4-0.2-0.7-0.2-1.1-0.2
			c-1.5,0-1.8,1-1.8,2.3v3H475V570h2.7V571.2z"/>
		<path id="XMLID_1635_" class="st4" d="M484.5,567.1c0,0.8-0.7,1.5-1.5,1.5c-0.8,0-1.5-0.7-1.5-1.5c0-0.8,0.7-1.5,1.5-1.5
			C483.8,565.6,484.5,566.3,484.5,567.1z M484.4,577.5h-2.7V570h2.7V577.5z"/>
		<path id="XMLID_1631_" class="st4" d="M489,577.5h-2.7v-5.3h-0.9V570h0.9v-1c0-1,0-1.8,0.8-2.6c0.7-0.8,1.6-1.2,2.6-1.2
			c0.4,0,0.8,0.1,1.1,0.3v2.3c-0.3-0.1-0.6-0.2-0.9-0.2c-0.7,0-0.9,0.4-0.9,1.3v1.2h1.9v2.2H489V577.5z M494.5,567.1
			c0,0.8-0.7,1.5-1.5,1.5c-0.8,0-1.5-0.7-1.5-1.5c0-0.8,0.7-1.5,1.5-1.5C493.8,565.6,494.5,566.3,494.5,567.1z M494.3,577.5h-2.7
			V570h2.7V577.5z"/>
		<path id="XMLID_1629_" class="st4" d="M501.5,572.5c-0.4-0.3-0.9-0.5-1.4-0.5c-1,0-1.8,0.8-1.8,1.8c0,1.1,0.8,1.9,1.9,1.9
			c0.5,0,1-0.2,1.3-0.5v2.3c-0.6,0.3-1.2,0.4-1.9,0.4c-2.2,0-4.1-1.7-4.1-3.9c0-2.4,1.8-4.1,4.2-4.1c0.6,0,1.2,0.1,1.8,0.4V572.5z"
			/>
		<path id="XMLID_1626_" class="st4" d="M511.4,577.5h-2.7v-0.8h0c-0.5,0.7-1.4,1.1-2.3,1.1c-2.2,0-3.8-1.9-3.8-4c0-2.2,1.5-4,3.8-4
			c0.9,0,1.8,0.3,2.3,1V570h2.7V577.5z M505.4,573.8c0,1,0.6,1.7,1.7,1.7c1.1,0,1.7-0.7,1.7-1.7c0-0.9-0.6-1.7-1.7-1.7
			C506,572.1,505.4,572.9,505.4,573.8z"/>
		<path id="XMLID_1624_" class="st4" d="M518.6,572.5c-0.4-0.3-0.9-0.5-1.4-0.5c-1,0-1.8,0.8-1.8,1.8c0,1.1,0.8,1.9,1.9,1.9
			c0.5,0,1-0.2,1.3-0.5v2.3c-0.6,0.3-1.2,0.4-1.9,0.4c-2.2,0-4.1-1.7-4.1-3.9c0-2.4,1.8-4.1,4.2-4.1c0.6,0,1.2,0.1,1.8,0.4V572.5z"
			/>
		<path id="XMLID_1621_" class="st4" d="M523.1,567.1c0,0.8-0.7,1.5-1.5,1.5c-0.8,0-1.5-0.7-1.5-1.5c0-0.8,0.7-1.5,1.5-1.5
			C522.4,565.6,523.1,566.3,523.1,567.1z M523,577.5h-2.7V570h2.7V577.5z"/>
		<path id="XMLID_1617_" class="st4" d="M533.2,573.8c0,2.6-2.1,4-4.5,4c-2.4,0-4.5-1.4-4.5-4c0-2.6,2.1-4,4.5-4
			C531.1,569.8,533.2,571.2,533.2,573.8z M527,573.8c0,1,0.6,1.7,1.7,1.7c1.1,0,1.7-0.7,1.7-1.7c0-0.9-0.6-1.7-1.7-1.7
			C527.6,572.1,527,572.9,527,573.8z M528.4,568.9l-1.2-0.9l2.1-2.5l1.6,1.2L528.4,568.9z"/>
		<path id="XMLID_1615_" class="st4" d="M537.1,571L537.1,571c0.6-0.9,1.4-1.2,2.4-1.2c2,0,2.8,1.3,2.8,3.1v4.7h-2.7v-3.7
			c0-0.7,0.1-2-1.2-2c-1.1,0-1.4,0.8-1.4,1.7v3.9h-2.7V570h2.7V571z"/>
		<path id="XMLID_1613_" class="st4" d="M411,587.6h3.1l2,3.9l2-3.9h3l-6,11.3h-3l2.6-4.8L411,587.6z"/>
		<path id="XMLID_1611_" class="st4" d="M432.2,590.1c-0.4-0.3-0.9-0.5-1.4-0.5c-1,0-1.8,0.8-1.8,1.8c0,1.1,0.8,1.9,1.9,1.9
			c0.5,0,1-0.2,1.3-0.5v2.3c-0.6,0.3-1.2,0.4-1.9,0.4c-2.2,0-4.1-1.7-4.1-3.9c0-2.4,1.8-4.1,4.2-4.1c0.6,0,1.2,0.1,1.8,0.4V590.1z"
			/>
		<path id="XMLID_1608_" class="st4" d="M442.4,591.4c0,2.6-2.1,4-4.5,4c-2.4,0-4.5-1.4-4.5-4c0-2.6,2.1-4,4.5-4
			C440.3,587.4,442.4,588.8,442.4,591.4z M436.1,591.4c0,1,0.6,1.7,1.7,1.7c1.1,0,1.7-0.7,1.7-1.7c0-0.9-0.6-1.7-1.7-1.7
			C436.7,589.7,436.1,590.5,436.1,591.4z"/>
		<path id="XMLID_1606_" class="st4" d="M446.2,588.6L446.2,588.6c0.6-0.9,1.4-1.2,2.4-1.2c2,0,2.8,1.3,2.8,3.1v4.7h-2.7v-3.7
			c0-0.7,0.1-2-1.2-2c-1.1,0-1.4,0.8-1.4,1.7v3.9h-2.7v-7.5h2.7V588.6z"/>
		<path id="XMLID_1604_" class="st4" d="M456.2,595.2h-2.7v-5.3h-0.9v-2.2h0.9v-1c0-1,0-1.8,0.8-2.6c0.7-0.8,1.6-1.2,2.6-1.2
			c0.4,0,0.8,0.1,1.1,0.3v2.3c-0.3-0.1-0.6-0.2-0.9-0.2c-0.7,0-0.9,0.4-0.9,1.3v1.2h1.9v2.2h-1.9V595.2z"/>
		<path id="XMLID_1601_" class="st4" d="M467.5,591.4c0,2.6-2.1,4-4.5,4c-2.4,0-4.5-1.4-4.5-4c0-2.6,2.1-4,4.5-4
			C465.4,587.4,467.5,588.8,467.5,591.4z M461.2,591.4c0,1,0.6,1.7,1.7,1.7c1.1,0,1.7-0.7,1.7-1.7c0-0.9-0.6-1.7-1.7-1.7
			C461.9,589.7,461.2,590.5,461.2,591.4z"/>
		<path id="XMLID_1599_" class="st4" d="M471.4,588.9L471.4,588.9c0.5-0.9,1.4-1.3,2.5-1.3h0.5v2.6c-0.4-0.2-0.7-0.2-1.1-0.2
			c-1.5,0-1.8,1-1.8,2.3v3h-2.7v-7.5h2.7V588.9z"/>
		<path id="XMLID_1597_" class="st4" d="M478,588.6L478,588.6c0.7-0.8,1.4-1.2,2.4-1.2c1.1,0,2,0.4,2.6,1.4c0.5-0.9,1.5-1.4,2.6-1.4
			c1.9,0,2.6,1.2,2.6,3v4.8h-2.7v-3.6c0-0.8,0-2.1-1.1-2.1c-1.2,0-1.3,1.2-1.3,2.1v3.6h-2.7v-3.6c0-0.8,0-2.1-1.2-2.1
			c-1.2,0-1.2,1.3-1.2,2.1v3.6h-2.7v-7.5h2.7V588.6z"/>
		<path id="XMLID_1594_" class="st4" d="M492.7,584.7c0,0.8-0.7,1.5-1.5,1.5c-0.8,0-1.5-0.7-1.5-1.5c0-0.8,0.7-1.5,1.5-1.5
			C492,583.2,492.7,583.9,492.7,584.7z M492.5,595.2h-2.7v-7.5h2.7V595.2z"/>
		<path id="XMLID_1591_" class="st4" d="M500,594.3L500,594.3c-0.5,0.7-1.4,1.1-2.3,1.1c-2.2,0-3.8-1.9-3.8-4c0-2.2,1.5-4,3.8-4
			c0.9,0,1.8,0.3,2.3,1V583h2.7v12.2H500V594.3z M496.6,591.4c0,1,0.6,1.7,1.7,1.7c1.1,0,1.7-0.7,1.7-1.7c0-0.9-0.6-1.7-1.7-1.7
			C497.2,589.7,496.6,590.5,496.6,591.4z"/>
		<path id="XMLID_1588_" class="st4" d="M512.5,595.2h-2.7v-0.8h0c-0.5,0.7-1.4,1.1-2.3,1.1c-2.2,0-3.8-1.9-3.8-4c0-2.2,1.5-4,3.8-4
			c0.9,0,1.8,0.3,2.3,1v-0.7h2.7V595.2z M506.5,591.4c0,1,0.6,1.7,1.7,1.7c1.1,0,1.7-0.7,1.7-1.7c0-0.9-0.6-1.7-1.7-1.7
			C507.2,589.7,506.5,590.5,506.5,591.4z"/>
		<path id="XMLID_1585_" class="st4" d="M520,594.3L520,594.3c-0.5,0.7-1.4,1.1-2.3,1.1c-2.2,0-3.8-1.9-3.8-4c0-2.2,1.5-4,3.8-4
			c0.9,0,1.8,0.3,2.3,1V583h2.7v12.2H520V594.3z M516.6,591.4c0,1,0.6,1.7,1.7,1.7c1.1,0,1.7-0.7,1.7-1.7c0-0.9-0.6-1.7-1.7-1.7
			C517.3,589.7,516.6,590.5,516.6,591.4z"/>
		<path id="XMLID_1582_" class="st4" d="M535,594.3L535,594.3c-0.5,0.7-1.4,1.1-2.3,1.1c-2.2,0-3.8-1.9-3.8-4c0-2.2,1.5-4,3.8-4
			c0.9,0,1.8,0.3,2.3,1V583h2.7v12.2H535V594.3z M531.7,591.4c0,1,0.6,1.7,1.7,1.7c1.1,0,1.7-0.7,1.7-1.7c0-0.9-0.6-1.7-1.7-1.7
			C532.3,589.7,531.7,590.5,531.7,591.4z"/>
		<path id="XMLID_1579_" class="st4" d="M547.1,591.8h-5.6c0,1.1,0.6,1.7,1.7,1.7c0.6,0,1-0.2,1.3-0.7h2.6c-0.2,0.9-0.7,1.5-1.4,2
			c-0.7,0.4-1.5,0.6-2.4,0.6c-2.5,0-4.4-1.4-4.4-4c0-2.5,1.7-4,4.2-4c2.6,0,4.1,1.6,4.1,4.2V591.8z M544.6,590.3
			c-0.1-0.7-0.8-1.2-1.5-1.2c-0.8,0-1.4,0.4-1.6,1.2H544.6z"/>
		<path id="XMLID_1576_" class="st4" d="M556,588.5L556,588.5c0.5-0.7,1.4-1.1,2.3-1.1c2.2,0,3.8,1.9,3.8,4c0,2.2-1.5,4-3.8,4
			c-0.9,0-1.8-0.3-2.3-1v4.5h-2.7v-11.3h2.7V588.5z M555.9,591.4c0,1,0.6,1.7,1.7,1.7c1.1,0,1.7-0.7,1.7-1.7c0-0.9-0.6-1.7-1.7-1.7
			C556.5,589.7,555.9,590.5,555.9,591.4z"/>
		<path id="XMLID_1573_" class="st4" d="M571.6,595.2H569v-0.8h0c-0.5,0.7-1.4,1.1-2.3,1.1c-2.2,0-3.8-1.9-3.8-4c0-2.2,1.5-4,3.8-4
			c0.9,0,1.8,0.3,2.3,1v-0.7h2.7V595.2z M565.6,591.4c0,1,0.6,1.7,1.7,1.7c1.1,0,1.7-0.7,1.7-1.7c0-0.9-0.6-1.7-1.7-1.7
			C566.2,589.7,565.6,590.5,565.6,591.4z"/>
		<path id="XMLID_1570_" class="st4" d="M581.7,594.4c0,3.2-1.6,4.5-4.4,4.5c-1.7,0-4.1-0.9-4.3-2.9h3c0.1,0.3,0.3,0.5,0.5,0.6
			c0.2,0.1,0.5,0.2,0.8,0.2c1.4,0,1.7-0.9,1.7-2.2v-0.4c-0.7,0.7-1.4,1-2.4,1c-2.2,0-3.7-1.7-3.7-3.8c0-2.2,1.6-4.1,3.9-4.1
			c0.9,0,1.7,0.3,2.2,1h0v-0.8h2.7V594.4z M575.6,591.3c0,1,0.6,1.7,1.7,1.7c1.1,0,1.7-0.7,1.7-1.7c0-0.9-0.6-1.7-1.7-1.7
			C576.3,589.6,575.6,590.4,575.6,591.3z"/>
		<path id="XMLID_1567_" class="st4" d="M591.9,591.4c0,2.6-2.1,4-4.5,4c-2.4,0-4.5-1.4-4.5-4c0-2.6,2.1-4,4.5-4
			C589.7,587.4,591.9,588.8,591.9,591.4z M585.6,591.4c0,1,0.6,1.7,1.7,1.7c1.1,0,1.7-0.7,1.7-1.7c0-0.9-0.6-1.7-1.7-1.7
			C586.2,589.7,585.6,590.5,585.6,591.4z"/>
	</g>
</g>
<rect id="XMLID_97_" x="390.3" y="652" class="st3" width="222.1" height="100.5"/>
<g id="XMLID_8618_">
	<g>
		<path id="XMLID_1294_" class="st4" d="M446.9,689.5l-0.8,1.9h-3.1l4.3-11.1h3.1l4.2,11.1h-3.1l-0.7-1.9H446.9z M448.9,683.8
			L448.9,683.8l-1.2,3.5h2.4L448.9,683.8z"/>
		<path id="XMLID_1292_" class="st4" d="M461.6,683.2c-0.5-0.4-1.2-0.7-1.9-0.7c-0.5,0-1.2,0.3-1.2,0.9c0,0.6,0.8,0.9,1.3,1.1
			l0.7,0.2c1.5,0.5,2.7,1.2,2.7,3c0,1.1-0.3,2.2-1.1,3c-0.9,0.7-2,1-3.1,1c-1.4,0-2.8-0.5-3.9-1.3l1.2-2.3c0.7,0.6,1.6,1.1,2.6,1.1
			c0.7,0,1.4-0.3,1.4-1.1c0-0.8-1.1-1.1-1.7-1.3c-1.8-0.5-3-1-3-3.1c0-2.2,1.6-3.7,3.8-3.7c1.1,0,2.5,0.4,3.5,0.9L461.6,683.2z"/>
		<path id="XMLID_1290_" class="st4" d="M467.5,682.8v1.9h3.2v2.4h-3.2v1.9h3.4v2.4h-6.3v-11.1h6.3v2.4H467.5z"/>
		<path id="XMLID_1288_" class="st4" d="M478.7,683.2c-0.5-0.4-1.2-0.7-1.9-0.7c-0.5,0-1.2,0.3-1.2,0.9c0,0.6,0.8,0.9,1.3,1.1
			l0.7,0.2c1.5,0.5,2.7,1.2,2.7,3c0,1.1-0.3,2.2-1.1,3c-0.9,0.7-2,1-3.1,1c-1.4,0-2.8-0.5-3.9-1.3l1.2-2.3c0.7,0.6,1.6,1.1,2.6,1.1
			c0.7,0,1.4-0.3,1.4-1.1c0-0.8-1.1-1.1-1.7-1.3c-1.8-0.5-3-1-3-3.1c0-2.2,1.6-3.7,3.8-3.7c1.1,0,2.5,0.4,3.5,0.9L478.7,683.2z"/>
		<path id="XMLID_1285_" class="st4" d="M493.4,685.7c0,3.6-2.6,6.1-6.1,6.1s-6.1-2.5-6.1-6.1c0-3.3,2.9-5.7,6.1-5.7
			C490.5,680,493.4,682.3,493.4,685.7z M484.1,685.7c0,1.9,1.4,3.3,3.1,3.3c1.7,0,3.1-1.4,3.1-3.3c0-1.5-1.4-2.9-3.1-2.9
			C485.6,682.8,484.1,684.2,484.1,685.7z"/>
		<path id="XMLID_1282_" class="st4" d="M503.9,691.4h-3.6l-2.7-4.3h0v4.3h-2.9v-11.1h4.3c2.2,0,3.8,1,3.8,3.4
			c0,1.5-0.9,2.8-2.4,3.1L503.9,691.4z M497.6,685.3h0.3c0.9,0,2-0.2,2-1.4c0-1.2-1.1-1.4-2-1.4h-0.3V685.3z"/>
		<path id="XMLID_1280_" class="st4" d="M512.6,689h3.5v2.4h-6.3v-11.1h2.9V689z"/>
		<path id="XMLID_1278_" class="st4" d="M519.9,682.8v1.9h3.2v2.4h-3.2v1.9h3.4v2.4H517v-11.1h6.3v2.4H519.9z"/>
		<path id="XMLID_1276_" class="st4" d="M536.1,685.2c0,1.6-0.1,3-1.1,4.4c-1.1,1.5-2.7,2.2-4.6,2.2c-3.5,0-5.9-2.4-5.9-5.8
			c0-3.6,2.4-6,6-6c2.3,0,4,1,5,3.1l-2.7,1.1c-0.4-1.1-1.2-1.8-2.4-1.8c-1.9,0-2.9,1.8-2.9,3.5c0,1.7,1,3.5,2.9,3.5
			c1.2,0,2.2-0.6,2.3-1.9h-2.3v-2.3H536.1z"/>
		<path id="XMLID_1273_" class="st4" d="M540.3,689.5l-0.8,1.9h-3.1l4.3-11.1h3.1l4.2,11.1H545l-0.7-1.9H540.3z M542.3,683.8
			L542.3,683.8l-1.2,3.5h2.4L542.3,683.8z"/>
		<path id="XMLID_1271_" class="st4" d="M551.8,689h3.5v2.4h-6.3v-11.1h2.9V689z"/>
		<path id="XMLID_1269_" class="st4" d="M446.1,700.4v1.9h3.2v2.4h-3.2v1.9h3.4v2.4h-6.3V698h6.3v2.4H446.1z"/>
		<path id="XMLID_1267_" class="st4" d="M453.9,709h-2.7v-12.2h2.7V709z"/>
		<path id="XMLID_1264_" class="st4" d="M463.9,709h-2.7v-0.8h0c-0.5,0.7-1.4,1.1-2.3,1.1c-2.2,0-3.8-1.9-3.8-4s1.5-4,3.8-4
			c0.9,0,1.8,0.3,2.3,1v-0.7h2.7V709z M457.9,705.3c0,1,0.6,1.7,1.7,1.7c1.1,0,1.7-0.7,1.7-1.7c0-0.9-0.6-1.7-1.7-1.7
			C458.5,703.6,457.9,704.4,457.9,705.3z"/>
		<path id="XMLID_1261_" class="st4" d="M465.6,696.9h2.7v5.4c0.6-0.7,1.5-1,2.3-1c2.2,0,3.8,1.8,3.8,4c0,2.2-1.6,4-3.8,4
			c-0.9,0-1.8-0.3-2.3-1.1h0v0.8h-2.7V696.9z M468.2,705.3c0,1,0.6,1.7,1.7,1.7c1.1,0,1.7-0.7,1.7-1.7c0-0.9-0.6-1.7-1.7-1.7
			C468.8,703.6,468.2,704.4,468.2,705.3z"/>
		<path id="XMLID_1258_" class="st4" d="M484.2,705.3c0,2.6-2.1,4-4.5,4c-2.4,0-4.5-1.4-4.5-4s2.1-4,4.5-4
			C482.1,701.3,484.2,702.7,484.2,705.3z M477.9,705.3c0,1,0.6,1.7,1.7,1.7c1.1,0,1.7-0.7,1.7-1.7c0-0.9-0.6-1.7-1.7-1.7
			C478.6,703.6,477.9,704.4,477.9,705.3z"/>
		<path id="XMLID_1256_" class="st4" d="M488.1,702.7L488.1,702.7c0.5-0.9,1.4-1.3,2.5-1.3h0.5v2.6c-0.4-0.2-0.7-0.2-1.1-0.2
			c-1.5,0-1.8,1-1.8,2.3v3h-2.7v-7.5h2.7V702.7z"/>
		<path id="XMLID_1253_" class="st4" d="M500.3,709h-2.7v-0.8h0c-0.5,0.7-1.4,1.1-2.3,1.1c-2.2,0-3.8-1.9-3.8-4s1.5-4,3.8-4
			c0.9,0,1.8,0.3,2.3,1v-0.7h2.7V709z M494.3,705.3c0,1,0.6,1.7,1.7,1.7c1.1,0,1.7-0.7,1.7-1.7c0-0.9-0.6-1.7-1.7-1.7
			C494.9,703.6,494.3,704.4,494.3,705.3z"/>
		<path id="XMLID_1251_" class="st4" d="M507.5,704c-0.4-0.3-0.9-0.5-1.4-0.5c-1,0-1.8,0.8-1.8,1.8c0,1.1,0.8,1.9,1.9,1.9
			c0.5,0,1-0.2,1.3-0.5v2.3c-0.6,0.3-1.2,0.4-1.9,0.4c-2.2,0-4.1-1.7-4.1-3.9c0-2.4,1.8-4.1,4.2-4.1c0.6,0,1.2,0.1,1.8,0.4V704z"/>
		<path id="XMLID_1248_" class="st4" d="M512,698.6c0,0.8-0.7,1.5-1.5,1.5c-0.8,0-1.5-0.7-1.5-1.5c0-0.8,0.7-1.5,1.5-1.5
			C511.3,697.1,512,697.8,512,698.6z M511.8,709h-2.7v-7.5h2.7V709z"/>
		<path id="XMLID_1244_" class="st4" d="M522.1,705.3c0,2.6-2.1,4-4.5,4c-2.4,0-4.5-1.4-4.5-4s2.1-4,4.5-4
			C520,701.3,522.1,702.7,522.1,705.3z M515.8,705.3c0,1,0.6,1.7,1.7,1.7c1.1,0,1.7-0.7,1.7-1.7c0-0.9-0.6-1.7-1.7-1.7
			C516.5,703.6,515.8,704.4,515.8,705.3z M517.3,700.4l-1.2-0.9l2.1-2.5l1.6,1.2L517.3,700.4z"/>
		<path id="XMLID_1242_" class="st4" d="M526,702.5L526,702.5c0.6-0.9,1.4-1.2,2.4-1.2c2,0,2.8,1.3,2.8,3.1v4.7h-2.7v-3.7
			c0-0.7,0.1-2-1.2-2c-1.1,0-1.4,0.8-1.4,1.7v3.9h-2.7v-7.5h2.7V702.5z"/>
		<path id="XMLID_1239_" class="st4" d="M543.7,708.2L543.7,708.2c-0.5,0.7-1.4,1.1-2.3,1.1c-2.2,0-3.8-1.9-3.8-4s1.5-4,3.8-4
			c0.9,0,1.8,0.3,2.3,1v-5.4h2.7V709h-2.7V708.2z M540.4,705.3c0,1,0.6,1.7,1.7,1.7c1.1,0,1.7-0.7,1.7-1.7c0-0.9-0.6-1.7-1.7-1.7
			C541,703.6,540.4,704.4,540.4,705.3z"/>
		<path id="XMLID_1236_" class="st4" d="M555.8,705.7h-5.6c0,1.1,0.6,1.7,1.7,1.7c0.6,0,1-0.2,1.3-0.7h2.6c-0.2,0.9-0.7,1.5-1.4,2
			c-0.7,0.4-1.5,0.6-2.4,0.6c-2.5,0-4.4-1.4-4.4-4c0-2.5,1.7-4,4.2-4c2.6,0,4.1,1.6,4.1,4.2V705.7z M553.3,704.2
			c-0.1-0.7-0.8-1.2-1.5-1.2c-0.8,0-1.4,0.4-1.6,1.2H553.3z"/>
		<path id="XMLID_1233_" class="st4" d="M443.3,726.7h-3.6l-2.7-4.3h0v4.3h-2.9v-11.1h4.3c2.2,0,3.8,1,3.8,3.4
			c0,1.5-0.9,2.8-2.4,3.1L443.3,726.7z M437,720.6h0.3c0.9,0,2-0.2,2-1.4c0-1.2-1.1-1.4-2-1.4H437V720.6z"/>
		<path id="XMLID_1230_" class="st4" d="M446.9,724.7l-0.8,1.9h-3.1l4.3-11.1h3.1l4.2,11.1h-3.1l-0.7-1.9H446.9z M448.9,719
			L448.9,719l-1.2,3.5h2.4L448.9,719z"/>
		<path id="XMLID_1228_" class="st4" d="M456.8,715.6h2.8l2.2,5.9l2.4-5.9h2.9l1.7,11.1h-2.9l-0.8-6.4h0l-2.7,6.4h-1.1l-2.5-6.4h0
			l-0.9,6.4h-2.9L456.8,715.6z"/>
		<path id="XMLID_1226_" class="st4" d="M479.9,721.1c-0.4-0.2-1-0.4-1.4-0.4c-0.3,0-0.8,0.1-0.8,0.5c0,0.5,0.8,0.6,1.2,0.7
			c1.2,0.2,2.2,0.8,2.2,2.2c0,2-1.8,2.8-3.6,2.8c-1.1,0-2.1-0.3-3-0.9l1-1.9c0.5,0.4,1.5,0.8,2.1,0.8c0.3,0,0.8-0.2,0.8-0.6
			c0-0.6-0.8-0.6-1.7-0.8c-0.8-0.2-1.7-0.6-1.7-2c0-1.9,1.7-2.7,3.3-2.7c0.9,0,1.7,0.1,2.5,0.5L479.9,721.1z"/>
		<path id="XMLID_1223_" class="st4" d="M490.2,723.3h-5.6c0,1.1,0.6,1.7,1.7,1.7c0.6,0,1-0.2,1.3-0.7h2.6c-0.2,0.9-0.7,1.5-1.4,2
			c-0.7,0.4-1.5,0.6-2.4,0.6c-2.5,0-4.4-1.4-4.4-4c0-2.5,1.7-4,4.2-4c2.6,0,4.1,1.6,4.1,4.2V723.3z M487.7,721.8
			c-0.1-0.7-0.8-1.2-1.5-1.2c-0.8,0-1.4,0.4-1.6,1.2H487.7z"/>
		<path id="XMLID_1221_" class="st4" d="M494.1,726.7h-2.7v-12.2h2.7V726.7z"/>
		<path id="XMLID_1219_" class="st4" d="M498.5,726.7h-2.7v-12.2h2.7V726.7z"/>
		<path id="XMLID_1216_" class="st4" d="M508.5,726.7h-2.7v-0.8h0c-0.5,0.7-1.4,1.1-2.3,1.1c-2.2,0-3.8-1.9-3.8-4s1.5-4,3.8-4
			c0.9,0,1.8,0.3,2.3,1v-0.7h2.7V726.7z M502.5,722.9c0,1,0.6,1.7,1.7,1.7c1.1,0,1.7-0.7,1.7-1.7c0-0.9-0.6-1.7-1.7-1.7
			C503.2,721.2,502.5,722,502.5,722.9z"/>
		<path id="XMLID_1214_" class="st4" d="M514.3,719.1h3.1l2,3.9l2-3.9h3l-6,11.3h-3l2.6-4.8L514.3,719.1z"/>
		<path id="XMLID_1210_" class="st4" d="M532.8,726.7h-2.7v-5.3h-0.9v-2.2h0.9v-1c0-1,0-1.8,0.8-2.6c0.7-0.8,1.6-1.2,2.6-1.2
			c0.4,0,0.8,0.1,1.1,0.3v2.3c-0.3-0.1-0.6-0.2-0.9-0.2c-0.7,0-0.9,0.4-0.9,1.3v1.2h1.9v2.2h-1.9V726.7z M538.4,716.2
			c0,0.8-0.7,1.5-1.5,1.5c-0.8,0-1.5-0.7-1.5-1.5c0-0.8,0.7-1.5,1.5-1.5C537.7,714.7,538.4,715.4,538.4,716.2z M538.2,726.7h-2.7
			v-7.5h2.7V726.7z"/>
		<path id="XMLID_1208_" class="st4" d="M542.6,720.4L542.6,720.4c0.5-0.9,1.4-1.3,2.5-1.3h0.5v2.6c-0.4-0.2-0.7-0.2-1.1-0.2
			c-1.5,0-1.9,1-1.9,2.3v3H540v-7.5h2.7V720.4z"/>
		<path id="XMLID_1206_" class="st4" d="M549.3,720.1L549.3,720.1c0.7-0.8,1.4-1.2,2.4-1.2c1.1,0,2,0.4,2.6,1.4
			c0.5-0.9,1.5-1.4,2.6-1.4c1.9,0,2.6,1.2,2.6,3v4.8h-2.7v-3.6c0-0.8,0-2.1-1.1-2.1c-1.2,0-1.3,1.2-1.3,2.1v3.6h-2.7v-3.6
			c0-0.8,0-2.1-1.2-2.1c-1.2,0-1.2,1.3-1.2,2.1v3.6h-2.7v-7.5h2.7V720.1z"/>
		<path id="XMLID_1203_" class="st4" d="M569.4,726.7h-2.7v-0.8h0c-0.5,0.7-1.4,1.1-2.3,1.1c-2.2,0-3.8-1.9-3.8-4s1.5-4,3.8-4
			c0.9,0,1.8,0.3,2.3,1v-0.7h2.7V726.7z M563.3,722.9c0,1,0.6,1.7,1.7,1.7c1.1,0,1.7-0.7,1.7-1.7c0-0.9-0.6-1.7-1.7-1.7
			C564,721.2,563.3,722,563.3,722.9z"/>
	</g>
</g>
<rect id="XMLID_95_" x="390.3" y="782.4" class="st3" width="222.1" height="100.5"/>
<g id="XMLID_8511_">
	<g>
		<path id="XMLID_1487_" class="st4" d="M442,810.7v7.5c0,2.3-1.2,3.9-3.7,3.9c-1.2,0-2.2-0.6-2.8-1.6l1.7-1.7
			c0.3,0.4,0.8,0.9,1.2,0.9c0.9,0,0.8-1,0.8-1.6v-7.3H442z"/>
		<path id="XMLID_1485_" class="st4" d="M446.7,813.1v1.9h3.2v2.4h-3.2v1.9h3.4v2.4h-6.3v-11.1h6.3v2.4H446.7z"/>
		<path id="XMLID_1483_" class="st4" d="M454.8,813.1v1.9h3.2v2.4h-3.2v4.3h-2.9v-11.1h6.4v2.4H454.8z"/>
		<path id="XMLID_1481_" class="st4" d="M462.8,813.1v1.9h3.2v2.4h-3.2v1.9h3.4v2.4h-6.3v-11.1h6.3v2.4H462.8z"/>
		<path id="XMLID_1478_" class="st4" d="M473,810.7h4.1c3.1,0,5.6,2.4,5.6,5.5c0,3.1-2.6,5.5-5.6,5.5H473V810.7z M475.9,819.3h0.6
			c1.7,0,3.2-0.9,3.2-3.1c0-2-1.3-3.1-3.2-3.1h-0.7V819.3z"/>
		<path id="XMLID_1476_" class="st4" d="M486.9,813.1v1.9h3.2v2.4h-3.2v1.9h3.4v2.4H484v-11.1h6.3v2.4H486.9z"/>
		<path id="XMLID_1473_" class="st4" d="M497.1,810.7h4.1c3.1,0,5.6,2.4,5.6,5.5c0,3.1-2.6,5.5-5.6,5.5h-4.1V810.7z M500,819.3h0.6
			c1.7,0,3.2-0.9,3.2-3.1c0-2-1.3-3.1-3.2-3.1H500V819.3z"/>
		<path id="XMLID_1471_" class="st4" d="M511.1,821.7h-2.9v-11.1h2.9V821.7z"/>
		<path id="XMLID_1469_" class="st4" d="M517.6,817.4l2.7-6.7h3.1l-4.7,11.1h-2.2l-4.7-11.1h3.1L517.6,817.4z"/>
		<path id="XMLID_1467_" class="st4" d="M527,821.7h-2.9v-11.1h2.9V821.7z"/>
		<path id="XMLID_1465_" class="st4" d="M534.9,813.5c-0.5-0.4-1.2-0.7-1.9-0.7c-0.5,0-1.2,0.3-1.2,0.9c0,0.6,0.8,0.9,1.3,1.1
			l0.7,0.2c1.5,0.5,2.7,1.2,2.7,3c0,1.1-0.3,2.2-1.1,3c-0.9,0.7-2,1-3.1,1c-1.4,0-2.8-0.5-3.9-1.3l1.2-2.3c0.7,0.6,1.6,1.1,2.6,1.1
			c0.7,0,1.4-0.3,1.4-1.1c0-0.8-1.1-1.1-1.7-1.3c-1.8-0.5-3-1-3-3.1c0-2.2,1.6-3.7,3.8-3.7c1.1,0,2.5,0.4,3.5,0.9L534.9,813.5z"/>
		<path id="XMLID_1463_" class="st4" d="M540.8,821.7h-2.9v-11.1h2.9V821.7z"/>
		<path id="XMLID_1459_" class="st4" d="M554.4,816c0,3.6-2.6,6.1-6.1,6.1c-3.6,0-6.1-2.5-6.1-6.1c0-3.3,2.9-5.7,6.1-5.7
			C551.4,810.3,554.4,812.7,554.4,816z M545.1,816c0,1.9,1.4,3.3,3.1,3.3c1.7,0,3.1-1.4,3.1-3.3c0-1.5-1.4-2.9-3.1-2.9
			C546.5,813.1,545.1,814.5,545.1,816z M547.9,810l-1.2-0.9l2.1-2.5l1.6,1.2L547.9,810z"/>
		<path id="XMLID_1457_" class="st4" d="M555.7,810.7h2.9l5.3,6.8h0v-6.8h2.9v11.1h-2.9l-5.3-6.8h0v6.8h-2.9V810.7z"/>
		<path id="XMLID_1454_" class="st4" d="M440.5,839.4h-3.6l-2.7-4.3h0v4.3h-2.9v-11.1h4.3c2.2,0,3.8,1,3.8,3.4
			c0,1.5-0.9,2.8-2.4,3.1L440.5,839.4z M434.2,833.3h0.3c0.9,0,2-0.2,2-1.4c0-1.2-1.1-1.4-2-1.4h-0.3V833.3z"/>
		<path id="XMLID_1451_" class="st4" d="M449,836h-5.6c0,1.1,0.6,1.7,1.7,1.7c0.6,0,1-0.2,1.3-0.7h2.6c-0.2,0.9-0.7,1.5-1.4,2
			c-0.7,0.4-1.5,0.6-2.4,0.6c-2.5,0-4.4-1.4-4.4-4c0-2.5,1.7-4,4.2-4c2.6,0,4.1,1.6,4.1,4.2V836z M446.5,834.5
			c-0.1-0.7-0.8-1.2-1.5-1.2c-0.8,0-1.4,0.4-1.6,1.2H446.5z"/>
		<path id="XMLID_1449_" class="st4" d="M453.9,835.7l1.8-3.9h3l-3.9,7.5H453l-3.9-7.5h3L453.9,835.7z"/>
		<path id="XMLID_1446_" class="st4" d="M462.2,828.9c0,0.8-0.7,1.5-1.5,1.5c-0.8,0-1.5-0.7-1.5-1.5c0-0.8,0.7-1.5,1.5-1.5
			C461.5,827.4,462.2,828.1,462.2,828.9z M462,839.4h-2.7v-7.5h2.7V839.4z"/>
		<path id="XMLID_1444_" class="st4" d="M468.7,833.8c-0.4-0.2-1-0.4-1.4-0.4c-0.3,0-0.8,0.1-0.8,0.5c0,0.5,0.8,0.6,1.2,0.7
			c1.2,0.2,2.2,0.8,2.2,2.2c0,2-1.8,2.8-3.6,2.8c-1.1,0-2.1-0.3-3-0.9l1-1.9c0.5,0.4,1.5,0.8,2.1,0.8c0.3,0,0.8-0.2,0.8-0.6
			c0-0.6-0.8-0.6-1.7-0.8c-0.8-0.2-1.7-0.6-1.7-2c0-1.9,1.7-2.7,3.3-2.7c0.9,0,1.7,0.1,2.5,0.5L468.7,833.8z"/>
		<path id="XMLID_1441_" class="st4" d="M479.5,839.4h-2.7v-0.8h0c-0.5,0.7-1.4,1.1-2.3,1.1c-2.2,0-3.8-1.9-3.8-4s1.5-4,3.8-4
			c0.9,0,1.8,0.3,2.3,1v-0.7h2.7V839.4z M473.5,835.6c0,1,0.6,1.7,1.7,1.7c1.1,0,1.7-0.7,1.7-1.7c0-0.9-0.6-1.7-1.7-1.7
			C474.2,833.9,473.5,834.7,473.5,835.6z"/>
		<path id="XMLID_1439_" class="st4" d="M489,839.4h-2.7v-12.2h2.7V839.4z"/>
		<path id="XMLID_1436_" class="st4" d="M499,839.4h-2.7v-0.8h0c-0.5,0.7-1.4,1.1-2.3,1.1c-2.2,0-3.8-1.9-3.8-4s1.5-4,3.8-4
			c0.9,0,1.8,0.3,2.3,1v-0.7h2.7V839.4z M493,835.6c0,1,0.6,1.7,1.7,1.7c1.1,0,1.7-0.7,1.7-1.7c0-0.9-0.6-1.7-1.7-1.7
			C493.6,833.9,493,834.7,493,835.6z"/>
		<path id="XMLID_1434_" class="st4" d="M511.3,834.3c-0.4-0.3-0.9-0.5-1.4-0.5c-1,0-1.8,0.8-1.8,1.8c0,1.1,0.8,1.9,1.9,1.9
			c0.5,0,1-0.2,1.3-0.5v2.3c-0.6,0.3-1.2,0.4-1.9,0.4c-2.2,0-4.1-1.7-4.1-3.9c0-2.4,1.8-4.1,4.2-4.1c0.6,0,1.2,0.1,1.8,0.4V834.3z"
			/>
		<path id="XMLID_1431_" class="st4" d="M521.2,839.4h-2.7v-0.8h0c-0.5,0.7-1.4,1.1-2.3,1.1c-2.2,0-3.8-1.9-3.8-4s1.5-4,3.8-4
			c0.9,0,1.8,0.3,2.3,1v-0.7h2.7V839.4z M515.1,835.6c0,1,0.6,1.7,1.7,1.7c1.1,0,1.7-0.7,1.7-1.7c0-0.9-0.6-1.7-1.7-1.7
			C515.8,833.9,515.1,834.7,515.1,835.6z"/>
		<path id="XMLID_1429_" class="st4" d="M525.6,833.1L525.6,833.1c0.5-0.9,1.4-1.3,2.5-1.3h0.5v2.6c-0.4-0.2-0.7-0.2-1.1-0.2
			c-1.5,0-1.8,1-1.8,2.3v3h-2.7v-7.5h2.7V833.1z"/>
		<path id="XMLID_1426_" class="st4" d="M532.2,832.7L532.2,832.7c0.5-0.7,1.4-1.1,2.3-1.1c2.2,0,3.8,1.9,3.8,4c0,2.2-1.5,4-3.8,4
			c-0.9,0-1.8-0.3-2.3-1v4.5h-2.7v-11.3h2.7V832.7z M532.1,835.6c0,1,0.6,1.7,1.7,1.7c1.1,0,1.7-0.7,1.7-1.7c0-0.9-0.6-1.7-1.7-1.7
			C532.7,833.9,532.1,834.7,532.1,835.6z"/>
		<path id="XMLID_1423_" class="st4" d="M547.3,836h-5.6c0,1.1,0.6,1.7,1.7,1.7c0.6,0,1-0.2,1.3-0.7h2.6c-0.2,0.9-0.7,1.5-1.4,2
			c-0.7,0.4-1.5,0.6-2.4,0.6c-2.5,0-4.4-1.4-4.4-4c0-2.5,1.7-4,4.2-4c2.6,0,4.1,1.6,4.1,4.2V836z M544.9,834.5
			c-0.1-0.7-0.8-1.2-1.5-1.2c-0.8,0-1.4,0.4-1.6,1.2H544.9z"/>
		<path id="XMLID_1421_" class="st4" d="M551.5,839.4h-2.7V834h-0.9v-2.2h0.9v-2.3h2.7v2.3h1.5v2.2h-1.5V839.4z"/>
		<path id="XMLID_1418_" class="st4" d="M562.1,839.4h-2.7v-0.8h0c-0.5,0.7-1.4,1.1-2.3,1.1c-2.2,0-3.8-1.9-3.8-4s1.5-4,3.8-4
			c0.9,0,1.8,0.3,2.3,1v-0.7h2.7V839.4z M556.1,835.6c0,1,0.6,1.7,1.7,1.7c1.1,0,1.7-0.7,1.7-1.7c0-0.9-0.6-1.7-1.7-1.7
			C556.7,833.9,556.1,834.7,556.1,835.6z"/>
		<path id="XMLID_1416_" class="st4" d="M567.7,836.6l-2.7,4.9h-1.7l1.9-4.9H567.7z"/>
		<path id="XMLID_1413_" class="st4" d="M440.8,857h-3.6l-2.7-4.3h0v4.3h-2.9v-11.1h4.3c2.2,0,3.8,1,3.8,3.4c0,1.5-0.9,2.8-2.4,3.1
			L440.8,857z M434.5,850.9h0.3c0.9,0,2-0.2,2-1.4c0-1.2-1.1-1.4-2-1.4h-0.3V850.9z"/>
		<path id="XMLID_1410_" class="st4" d="M444.4,855.1l-0.8,1.9h-3.1l4.3-11.1h3.1l4.2,11.1h-3.1l-0.7-1.9H444.4z M446.4,849.3
			L446.4,849.3l-1.2,3.5h2.4L446.4,849.3z"/>
		<path id="XMLID_1408_" class="st4" d="M454.2,845.9h2.8l2.2,5.9l2.4-5.9h2.9l1.7,11.1h-2.9l-0.8-6.4h0l-2.7,6.4h-1.1l-2.5-6.4h0
			l-0.9,6.4h-2.9L454.2,845.9z"/>
		<path id="XMLID_1406_" class="st4" d="M477.4,851.4c-0.4-0.2-1-0.4-1.4-0.4c-0.3,0-0.8,0.1-0.8,0.5c0,0.5,0.8,0.6,1.2,0.7
			c1.2,0.2,2.2,0.8,2.2,2.2c0,2-1.8,2.8-3.6,2.8c-1.1,0-2.1-0.3-3-0.9l1-1.9c0.5,0.4,1.5,0.8,2.1,0.8c0.3,0,0.8-0.2,0.8-0.6
			c0-0.6-0.8-0.6-1.7-0.8c-0.8-0.2-1.7-0.6-1.7-2c0-1.9,1.7-2.7,3.3-2.7c0.9,0,1.7,0.1,2.5,0.5L477.4,851.4z"/>
		<path id="XMLID_1403_" class="st4" d="M487.7,853.7h-5.6c0,1.1,0.6,1.7,1.7,1.7c0.6,0,1-0.2,1.3-0.7h2.6c-0.2,0.9-0.7,1.5-1.4,2
			c-0.7,0.4-1.5,0.6-2.4,0.6c-2.5,0-4.4-1.4-4.4-4c0-2.5,1.7-4,4.2-4c2.6,0,4.1,1.6,4.1,4.2V853.7z M485.2,852.1
			c-0.1-0.7-0.8-1.2-1.5-1.2c-0.8,0-1.4,0.4-1.6,1.2H485.2z"/>
		<path id="XMLID_1401_" class="st4" d="M491.6,857h-2.7v-12.2h2.7V857z"/>
		<path id="XMLID_1399_" class="st4" d="M496,857h-2.7v-12.2h2.7V857z"/>
		<path id="XMLID_1396_" class="st4" d="M506,857h-2.7v-0.8h0c-0.5,0.7-1.4,1.1-2.3,1.1c-2.2,0-3.8-1.9-3.8-4s1.5-4,3.8-4
			c0.9,0,1.8,0.3,2.3,1v-0.7h2.7V857z M500,853.2c0,1,0.6,1.7,1.7,1.7c1.1,0,1.7-0.7,1.7-1.7c0-0.9-0.6-1.7-1.7-1.7
			C500.6,851.5,500,852.3,500,853.2z"/>
		<path id="XMLID_1394_" class="st4" d="M511.7,849.5h3.1l2,3.9l2-3.9h3l-6,11.3h-3l2.6-4.8L511.7,849.5z"/>
		<path id="XMLID_1390_" class="st4" d="M530.3,857h-2.7v-5.3h-0.9v-2.2h0.9v-1c0-1,0-1.8,0.8-2.6c0.7-0.8,1.6-1.2,2.6-1.2
			c0.4,0,0.8,0.1,1.1,0.3v2.3c-0.3-0.1-0.6-0.2-0.9-0.2c-0.7,0-0.9,0.4-0.9,1.3v1.2h1.9v2.2h-1.9V857z M535.8,846.6
			c0,0.8-0.7,1.5-1.5,1.5c-0.8,0-1.5-0.7-1.5-1.5c0-0.8,0.7-1.5,1.5-1.5C535.2,845.1,535.8,845.7,535.8,846.6z M535.7,857H533v-7.5
			h2.7V857z"/>
		<path id="XMLID_1388_" class="st4" d="M540.1,850.7L540.1,850.7c0.5-0.9,1.4-1.3,2.5-1.3h0.5v2.6c-0.4-0.2-0.7-0.2-1.1-0.2
			c-1.5,0-1.9,1-1.9,2.3v3h-2.7v-7.5h2.7V850.7z"/>
		<path id="XMLID_1386_" class="st4" d="M546.8,850.4L546.8,850.4c0.7-0.8,1.4-1.2,2.4-1.2c1.1,0,2,0.4,2.6,1.4
			c0.5-0.9,1.5-1.4,2.6-1.4c1.9,0,2.6,1.2,2.6,3v4.8h-2.7v-3.6c0-0.8,0-2.1-1.1-2.1c-1.2,0-1.3,1.2-1.3,2.1v3.6h-2.7v-3.6
			c0-0.8,0-2.1-1.2-2.1c-1.2,0-1.2,1.3-1.2,2.1v3.6h-2.7v-7.5h2.7V850.4z"/>
		<path id="XMLID_1383_" class="st4" d="M566.9,857h-2.7v-0.8h0c-0.5,0.7-1.4,1.1-2.3,1.1c-2.2,0-3.8-1.9-3.8-4s1.5-4,3.8-4
			c0.9,0,1.8,0.3,2.3,1v-0.7h2.7V857z M560.8,853.2c0,1,0.6,1.7,1.7,1.7c1.1,0,1.7-0.7,1.7-1.7c0-0.9-0.6-1.7-1.7-1.7
			C561.5,851.5,560.8,852.3,560.8,853.2z"/>
	</g>
</g>
<rect id="XMLID_93_" x="390.3" y="912.8" class="st3" width="222.1" height="100.5"/>
<g id="XMLID_8432_">
	<g>
		<path id="XMLID_961_" class="st4" d="M460.4,953.6c-0.5-0.4-1.2-0.7-1.9-0.7c-0.5,0-1.2,0.3-1.2,0.9c0,0.6,0.8,0.9,1.3,1.1
			l0.7,0.2c1.5,0.5,2.7,1.2,2.7,3c0,1.1-0.3,2.2-1.1,3c-0.9,0.7-2,1-3.1,1c-1.4,0-2.8-0.5-3.9-1.3l1.2-2.3c0.7,0.6,1.6,1.1,2.6,1.1
			c0.7,0,1.4-0.3,1.4-1.1c0-0.8-1.1-1.1-1.7-1.3c-1.8-0.5-3-1-3-3.1c0-2.2,1.6-3.7,3.8-3.7c1.1,0,2.5,0.4,3.5,0.9L460.4,953.6z"/>
		<path id="XMLID_959_" class="st4" d="M473,950.8v6.2c0,1.4-0.1,2.8-1.2,3.9c-0.9,0.9-2.4,1.2-3.7,1.2s-2.7-0.3-3.7-1.2
			c-1.1-1.1-1.2-2.5-1.2-3.9v-6.2h2.9v5.8c0,1.4,0.1,3,2,3c1.8,0,2-1.6,2-3v-5.8H473z"/>
		<path id="XMLID_955_" class="st4" d="M474.8,961.8v-11.1h4.1c2,0,3.3,0.8,3.3,2.9c0,1-0.3,1.8-1.2,2.3v0c1.6,0.2,2.3,1.3,2.3,2.8
			c0,2.3-2,3.1-4,3.1H474.8z M477.7,955.1h0.3c0.8,0,1.6-0.1,1.6-1.1c0-1-0.9-1.1-1.7-1.1h-0.2V955.1z M477.7,959.6h0.4
			c0.9,0,2.3,0,2.3-1.2c0-1.3-1.4-1.2-2.4-1.2h-0.3V959.6z"/>
		<path id="XMLID_952_" class="st4" d="M487.5,959.9l-0.8,1.9h-3.1l4.3-11.1h3.1l4.2,11.1h-3.1l-0.7-1.9H487.5z M489.5,954.2
			L489.5,954.2l-1.2,3.5h2.4L489.5,954.2z"/>
		<path id="XMLID_950_" class="st4" d="M499.1,959.4h3.5v2.4h-6.3v-11.1h2.9V959.4z"/>
		<path id="XMLID_948_" class="st4" d="M511.4,954.5c-0.6-0.8-1.5-1.2-2.5-1.2c-1.8,0-3,1.4-3,3.1c0,1.7,1.2,3,3,3
			c0.9,0,1.9-0.5,2.5-1.2v3.5c-1,0.3-1.6,0.5-2.5,0.5c-1.5,0-3-0.6-4.2-1.6c-1.2-1.1-1.8-2.5-1.8-4.2c0-1.5,0.6-3,1.6-4.1
			c1.1-1.1,2.7-1.8,4.2-1.8c0.9,0,1.8,0.2,2.6,0.6V954.5z"/>
		<path id="XMLID_945_" class="st4" d="M516,959.9l-0.8,1.9h-3.1l4.3-11.1h3.1l4.2,11.1h-3.1l-0.7-1.9H516z M518,954.2L518,954.2
			l-1.2,3.5h2.4L518,954.2z"/>
		<path id="XMLID_943_" class="st4" d="M527.5,959.4h3.5v2.4h-6.3v-11.1h2.9V959.4z"/>
		<path id="XMLID_940_" class="st4" d="M531.9,950.8h4.1c3.1,0,5.6,2.4,5.6,5.5c0,3.1-2.6,5.5-5.6,5.5h-4.1V950.8z M534.7,959.4h0.6
			c1.7,0,3.2-0.9,3.2-3.1c0-2-1.3-3.1-3.2-3.1h-0.7V959.4z"/>
		<path id="XMLID_938_" class="st4" d="M545.8,953.2v1.9h3.2v2.4h-3.2v1.9h3.4v2.4h-6.3v-11.1h6.3v2.4H545.8z"/>
		<path id="XMLID_935_" class="st4" d="M405.5,977.5l-0.8,1.9h-3.1l4.3-11.1h3.1l4.2,11.1h-3.1l-0.7-1.9H405.5z M407.5,971.8
			L407.5,971.8l-1.2,3.5h2.4L407.5,971.8z"/>
		<path id="XMLID_932_" class="st4" d="M416.7,972.8L416.7,972.8c0.5-0.7,1.4-1.1,2.3-1.1c2.2,0,3.8,1.9,3.8,4c0,2.2-1.5,4-3.8,4
			c-0.9,0-1.8-0.3-2.3-1v4.5H414v-11.3h2.7V972.8z M416.6,975.7c0,1,0.6,1.7,1.7,1.7c1.1,0,1.7-0.7,1.7-1.7c0-0.9-0.6-1.7-1.7-1.7
			C417.3,974,416.6,974.8,416.6,975.7z"/>
		<path id="XMLID_930_" class="st4" d="M426.8,973.2L426.8,973.2c0.5-0.9,1.4-1.3,2.5-1.3h0.5v2.6c-0.4-0.2-0.7-0.2-1.1-0.2
			c-1.5,0-1.9,1-1.9,2.3v3h-2.7v-7.5h2.7V973.2z"/>
		<path id="XMLID_927_" class="st4" d="M439,975.7c0,2.6-2.1,4-4.5,4c-2.4,0-4.5-1.4-4.5-4c0-2.6,2.1-4,4.5-4
			C436.9,971.7,439,973.1,439,975.7z M432.8,975.7c0,1,0.6,1.7,1.7,1.7c1.1,0,1.7-0.7,1.7-1.7c0-0.9-0.6-1.7-1.7-1.7
			C433.4,974,432.8,974.8,432.8,975.7z"/>
		<path id="XMLID_924_" class="st4" d="M440.2,967.3h2.7v5.4c0.6-0.7,1.5-1,2.3-1c2.2,0,3.8,1.8,3.8,4c0,2.2-1.6,4-3.8,4
			c-0.9,0-1.8-0.3-2.3-1.1h0v0.8h-2.7V967.3z M442.7,975.7c0,1,0.6,1.7,1.7,1.7c1.1,0,1.7-0.7,1.7-1.7c0-0.9-0.6-1.7-1.7-1.7
			C443.4,974,442.7,974.8,442.7,975.7z"/>
		<path id="XMLID_921_" class="st4" d="M458.5,979.5h-2.7v-0.8h0c-0.5,0.7-1.4,1.1-2.3,1.1c-2.2,0-3.8-1.9-3.8-4s1.5-4,3.8-4
			c0.9,0,1.8,0.3,2.3,1v-0.7h2.7V979.5z M452.5,975.7c0,1,0.6,1.7,1.7,1.7c1.1,0,1.7-0.7,1.7-1.7c0-0.9-0.6-1.7-1.7-1.7
			C453.1,974,452.5,974.8,452.5,975.7z"/>
		<path id="XMLID_871_" class="st4" d="M465.7,974.4c-0.4-0.3-0.9-0.5-1.4-0.5c-1,0-1.8,0.8-1.8,1.8c0,1.1,0.8,1.9,1.9,1.9
			c0.5,0,1-0.2,1.3-0.5v2.3c-0.6,0.3-1.2,0.4-1.9,0.4c-2.2,0-4.1-1.7-4.1-3.9c0-2.4,1.8-4.1,4.2-4.1c0.6,0,1.2,0.1,1.8,0.4V974.4z"
			/>
		<path id="XMLID_868_" class="st4" d="M470.2,969c0,0.8-0.7,1.5-1.5,1.5c-0.8,0-1.5-0.7-1.5-1.5c0-0.8,0.7-1.5,1.5-1.5
			C469.5,967.5,470.2,968.2,470.2,969z M470,979.5h-2.7v-7.5h2.7V979.5z"/>
		<path id="XMLID_864_" class="st4" d="M480.3,975.7c0,2.6-2.1,4-4.5,4c-2.4,0-4.5-1.4-4.5-4c0-2.6,2.1-4,4.5-4
			C478.2,971.7,480.3,973.1,480.3,975.7z M474.1,975.7c0,1,0.6,1.7,1.7,1.7c1.1,0,1.7-0.7,1.7-1.7c0-0.9-0.6-1.7-1.7-1.7
			C474.7,974,474.1,974.8,474.1,975.7z M475.5,970.8l-1.2-0.9l2.1-2.5l1.6,1.2L475.5,970.8z"/>
		<path id="XMLID_862_" class="st4" d="M484.2,972.9L484.2,972.9c0.6-0.9,1.4-1.2,2.4-1.2c2,0,2.8,1.3,2.8,3.1v4.7h-2.7v-3.7
			c0-0.7,0.1-2-1.2-2c-1.1,0-1.4,0.8-1.4,1.7v3.9h-2.7v-7.5h2.7V972.9z"/>
		<path id="XMLID_858_" class="st4" d="M499.1,979.5h-2.7v-5.3h-0.9v-2.2h0.9v-1c0-1,0-1.8,0.8-2.6c0.7-0.8,1.6-1.2,2.6-1.2
			c0.4,0,0.8,0.1,1.1,0.3v2.3c-0.3-0.1-0.6-0.2-0.9-0.2c-0.7,0-0.9,0.4-0.9,1.3v1.2h1.9v2.2h-1.9V979.5z M504.6,969
			c0,0.8-0.7,1.5-1.5,1.5c-0.8,0-1.5-0.7-1.5-1.5c0-0.8,0.7-1.5,1.5-1.5C503.9,967.5,504.6,968.2,504.6,969z M504.5,979.5h-2.7v-7.5
			h2.7V979.5z"/>
		<path id="XMLID_856_" class="st4" d="M508.9,973.2L508.9,973.2c0.5-0.9,1.4-1.3,2.5-1.3h0.5v2.6c-0.4-0.2-0.7-0.2-1.1-0.2
			c-1.5,0-1.9,1-1.9,2.3v3h-2.7v-7.5h2.7V973.2z"/>
		<path id="XMLID_854_" class="st4" d="M515.5,972.9L515.5,972.9c0.7-0.8,1.4-1.2,2.4-1.2c1.1,0,2,0.4,2.6,1.4
			c0.5-0.9,1.5-1.4,2.6-1.4c1.9,0,2.6,1.2,2.6,3v4.8H523v-3.6c0-0.8,0-2.1-1.1-2.1c-1.2,0-1.3,1.2-1.3,2.1v3.6h-2.7v-3.6
			c0-0.8,0-2.1-1.2-2.1c-1.2,0-1.2,1.3-1.2,2.1v3.6h-2.7v-7.5h2.7V972.9z"/>
		<path id="XMLID_851_" class="st4" d="M535.6,979.5H533v-0.8h0c-0.5,0.7-1.4,1.1-2.3,1.1c-2.2,0-3.8-1.9-3.8-4s1.5-4,3.8-4
			c0.9,0,1.8,0.3,2.3,1v-0.7h2.7V979.5z M529.6,975.7c0,1,0.6,1.7,1.7,1.7c1.1,0,1.7-0.7,1.7-1.7c0-0.9-0.6-1.7-1.7-1.7
			C530.2,974,529.6,974.8,529.6,975.7z"/>
		<path id="XMLID_849_" class="st4" d="M541.3,971.9h3.1l2,3.9l2-3.9h3l-6,11.3h-3l2.6-4.8L541.3,971.9z"/>
		<path id="XMLID_847_" class="st4" d="M562.1,973.9c-0.4-0.2-1-0.4-1.4-0.4c-0.3,0-0.8,0.1-0.8,0.5c0,0.5,0.8,0.6,1.2,0.7
			c1.2,0.2,2.2,0.8,2.2,2.2c0,2-1.8,2.8-3.6,2.8c-1.1,0-2.1-0.3-3-0.9l1-1.9c0.5,0.4,1.5,0.8,2.1,0.8c0.3,0,0.8-0.2,0.8-0.6
			c0-0.6-0.8-0.6-1.7-0.8c-0.8-0.2-1.7-0.6-1.7-2c0-1.9,1.7-2.7,3.3-2.7c0.9,0,1.7,0.1,2.5,0.5L562.1,973.9z"/>
		<path id="XMLID_844_" class="st4" d="M572.4,976.1h-5.6c0,1.1,0.6,1.7,1.7,1.7c0.6,0,1-0.2,1.3-0.7h2.6c-0.2,0.9-0.7,1.5-1.4,2
			c-0.7,0.4-1.5,0.6-2.4,0.6c-2.5,0-4.4-1.4-4.4-4c0-2.5,1.7-4,4.2-4c2.6,0,4.1,1.6,4.1,4.2V976.1z M569.9,974.6
			c-0.1-0.7-0.8-1.2-1.5-1.2c-0.8,0-1.4,0.4-1.6,1.2H569.9z"/>
		<path id="XMLID_842_" class="st4" d="M576.2,979.5h-2.7v-12.2h2.7V979.5z"/>
		<path id="XMLID_840_" class="st4" d="M580.7,979.5H578v-12.2h2.7V979.5z"/>
		<path id="XMLID_837_" class="st4" d="M590.7,979.5H588v-0.8h0c-0.5,0.7-1.4,1.1-2.3,1.1c-2.2,0-3.8-1.9-3.8-4s1.5-4,3.8-4
			c0.9,0,1.8,0.3,2.3,1v-0.7h2.7V979.5z M584.7,975.7c0,1,0.6,1.7,1.7,1.7c1.1,0,1.7-0.7,1.7-1.7c0-0.9-0.6-1.7-1.7-1.7
			C585.3,974,584.7,974.8,584.7,975.7z"/>
	</g>
</g>
<polygon id="XMLID_84_" class="st5" points="393.5,50.5 384.2,55.9 374.8,61.3 374.8,50.5 374.8,39.7 384.2,45.1 "/>
<polygon id="XMLID_82_" class="st5" points="499.7,135.1 494.3,125.7 488.9,116.4 499.7,116.4 510.5,116.4 505.1,125.7 "/>
<polygon id="XMLID_79_" class="st5" points="612.3,182.9 621.7,177.5 631.1,172.1 631.1,182.9 631.1,193.7 621.7,188.3 "/>
<polygon id="XMLID_78_" class="st5" points="612.3,50.5 621.7,45.1 631.1,39.7 631.1,50.5 631.1,61.3 621.7,55.9 "/>
<polygon id="XMLID_77_" class="st5" points="612.3,311.2 621.7,305.8 631.1,300.4 631.1,311.2 631.1,322 621.7,316.6 "/>
<polygon id="XMLID_76_" class="st5" points="665,182.9 655.6,188.3 646.2,193.7 646.2,182.9 646.2,172.1 655.6,177.5 "/>
<polygon id="XMLID_74_" class="st5" points="776.1,125.7 770.7,116.4 765.3,107 776.1,107 786.9,107 781.5,116.4 "/>
<polygon id="XMLID_73_" class="st5" points="776.1,236.7 781.5,246.1 786.9,255.4 776.1,255.4 765.3,255.4 770.7,246.1 "/>
<polygon id="XMLID_72_" class="st5" points="499.7,264.8 494.3,255.4 488.9,246.1 499.7,246.1 510.5,246.1 505.1,255.4 "/>
<polygon id="XMLID_71_" class="st5" points="499.7,394.5 494.3,385.1 488.9,375.8 499.7,375.8 510.5,375.8 505.1,385.1 "/>
<polygon id="XMLID_70_" class="st5" points="499.7,524.2 494.3,514.8 488.9,505.5 499.7,505.5 510.5,505.5 505.1,514.8 "/>
<polygon id="XMLID_68_" class="st5" points="499.7,653.9 494.3,644.5 488.9,635.1 499.7,635.1 510.5,635.1 505.1,644.5 "/>
<polygon id="XMLID_66_" class="st5" points="499.7,783.6 494.3,774.2 488.9,764.8 499.7,764.8 510.5,764.8 505.1,774.2 "/>
<polygon id="XMLID_30_" class="st5" points="499.7,913.2 494.3,903.9 488.9,894.5 499.7,894.5 510.5,894.5 505.1,903.9 "/>
<polygon id="XMLID_24_" class="st5" points="214.4,606.4 209,597 203.6,587.7 214.4,587.7 225.3,587.7 219.9,597 "/>
<polygon id="XMLID_22_" class="st5" points="214.4,709.3 219.9,718.6 225.3,728 214.4,728 203.6,728 209,718.6 "/>
<line id="XMLID_21_" class="st0" x1="214.4" y1="503" x2="214.4" y2="603.8"/>
<polyline id="XMLID_20_" class="st0" points="214.4,718.6 214.4,963.1 390.3,963.1 "/>
<polyline id="XMLID_19_" class="st0" points="325.5,658 357.5,658 357.5,49.9 390.3,49.9 "/>
<line id="XMLID_18_" class="st0" x1="617.6" y1="182.9" x2="657.6" y2="182.9"/>
<polyline id="XMLID_17_" class="st0" points="621.7,50.5 776.1,50.5 776.1,119.7 "/>
<polyline id="XMLID_16_" class="st0" points="776.1,241.2 776.1,311.2 625.8,311.2 "/>
</svg>
