<?xml version="1.0" encoding="utf-8"?>
<!-- Generator: Adobe Illustrator 21.0.2, SVG Export Plug-In . SVG Version: 6.00 Build 0)  -->
<svg version="1.1" id="Layer_1" xmlns="http://www.w3.org/2000/svg" xmlns:xlink="http://www.w3.org/1999/xlink" x="0px" y="0px"
	 viewBox="0 0 998.6 1148.4" style="enable-background:new 0 0 998.6 1148.4;" xml:space="preserve">
<style type="text/css">
	.st0{fill:none;stroke:#E42527;stroke-width:4;stroke-miterlimit:10;}
	.st1{fill:#95D4E7;}
	.st2{fill:#9D9D9C;}
	.st3{fill:#D81117;}
	.st4{fill:#FFFFFF;}
	.st5{fill:#575756;}
	.st6{fill:#E42527;}
</style>
<polyline class="st0" points="495.6,366.2 779.4,366.2 779.4,408 "/>
<polyline class="st0" points="585.7,324.2 916.2,324.2 916.2,522.8 875.6,522.8 "/>
<polyline class="st0" points="498.1,429.4 498.1,466.9 352.1,466.9 352.1,324.2 390.9,324.2 "/>
<line class="st0" x1="492.4" y1="423.5" x2="780" y2="423.5"/>
<polyline class="st0" points="678.4,719.7 207.2,719.7 207.2,1125.9 "/>
<line id="XMLID_489_" class="st0" x1="496.7" y1="112.3" x2="496.7" y2="423.5"/>
<line id="XMLID_99_" class="st0" x1="780" y1="490.5" x2="780" y2="740.6"/>
<rect id="XMLID_135_" x="377.3" y="97.2" class="st1" width="236.4" height="56.6"/>
<rect id="XMLID_134_" x="377.3" y="193.2" class="st2" width="236.5" height="63.4"/>
<rect id="XMLID_133_" x="386.2" y="689.7" class="st3" width="223.4" height="60"/>
<g>
	<g>
		<path class="st4" d="M464.8,716.8h-3.6l-2.7-4.3l0,0v4.3h-2.9v-11.1h4.3c2.2,0,3.9,1,3.9,3.4c0,1.5-0.9,2.9-2.4,3.1L464.8,716.8z
			 M458.5,710.7h0.3c0.9,0,2-0.2,2-1.4s-1.1-1.4-2-1.4h-0.3V710.7z"/>
		<path class="st4" d="M468.5,708.2v1.9h3.3v2.5h-3.3v1.9h3.4v2.5h-6.3v-11.1h6.3v2.5h-3.4V708.2z"/>
		<path class="st4" d="M484.9,710.6c0,1.6-0.1,3-1.1,4.4c-1.1,1.5-2.7,2.2-4.6,2.2c-3.5,0-5.9-2.4-5.9-5.9c0-3.6,2.5-6,6-6
			c2.3,0,4.1,1,5,3.1l-2.7,1.2c-0.4-1.1-1.2-1.8-2.4-1.8c-1.9,0-2.9,1.8-2.9,3.5s1,3.5,2.9,3.5c1.3,0,2.2-0.7,2.3-1.9h-2.4v-2.3
			H484.9z"/>
		<path class="st4" d="M489.1,716.8h-2.9v-11.1h2.9V716.8z"/>
		<path class="st4" d="M497.1,708.6c-0.5-0.4-1.2-0.7-1.9-0.7c-0.5,0-1.2,0.3-1.2,0.9c0,0.6,0.8,0.9,1.3,1.1l0.7,0.2
			c1.6,0.5,2.7,1.2,2.7,3c0,1.1-0.3,2.2-1.2,3c-0.9,0.7-2,1-3.2,1c-1.4,0-2.8-0.5-3.9-1.3l1.2-2.3c0.7,0.6,1.6,1.2,2.6,1.2
			c0.7,0,1.4-0.3,1.4-1.1s-1.1-1.1-1.8-1.3c-1.8-0.5-3-1-3-3.1c0-2.3,1.6-3.7,3.8-3.7c1.1,0,2.5,0.4,3.5,0.9L497.1,708.6z"/>
		<path class="st4" d="M504.5,716.8h-2.9v-8.7h-2.4v-2.5h7.7v2.5h-2.4L504.5,716.8L504.5,716.8z"/>
		<path class="st4" d="M517.2,716.8h-3.6l-2.7-4.3l0,0v4.3H508v-11.1h4.3c2.2,0,3.9,1,3.9,3.4c0,1.5-0.9,2.9-2.4,3.1L517.2,716.8z
			 M510.8,710.7h0.3c0.9,0,2-0.2,2-1.4s-1.1-1.4-2-1.4h-0.3V710.7z"/>
		<path class="st4" d="M529.7,711.1c0,3.6-2.6,6.1-6.2,6.1c-3.6,0-6.2-2.5-6.2-6.1c0-3.4,3-5.7,6.2-5.7
			C526.8,705.3,529.7,707.7,529.7,711.1z M520.4,711.1c0,1.9,1.4,3.3,3.1,3.3s3.1-1.4,3.1-3.3c0-1.5-1.4-2.9-3.1-2.9
			S520.4,709.5,520.4,711.1z"/>
		<path class="st4" d="M456.4,727.2c-0.6-0.8-1.6-1.2-2.5-1.2c-1.8,0-3,1.4-3,3.1c0,1.8,1.2,3,3,3c0.9,0,1.9-0.5,2.5-1.2v3.5
			c-1,0.3-1.7,0.5-2.6,0.5c-1.6,0-3-0.6-4.2-1.6c-1.2-1.1-1.8-2.6-1.8-4.2c0-1.5,0.6-3,1.6-4.1c1.1-1.1,2.7-1.8,4.2-1.8
			c0.9,0,1.8,0.2,2.6,0.6v3.4H456.4z"/>
		<path class="st4" d="M461,732.6l-0.8,1.9h-3.1l4.3-11.1h3.2l4.2,11.1h-3.1l-0.7-1.9H461z M463,726.9L463,726.9l-1.2,3.5h2.4
			L463,726.9z"/>
		<path class="st4" d="M473.2,734.6h-2.9v-8.7H468v-2.5h7.7v2.5h-2.4v8.7H473.2z"/>
		<path class="st4" d="M478.6,732.6l-0.8,1.9h-3.1l4.3-11.1h3.2l4.2,11.1h-3.1l-0.7-1.9H478.6z M480.7,726.9L480.7,726.9l-1.2,3.5
			h2.4L480.7,726.9z"/>
		<path class="st4" d="M493.4,726.3c-0.5-0.4-1.2-0.7-1.9-0.7c-0.5,0-1.2,0.3-1.2,0.9c0,0.6,0.8,0.9,1.3,1.1l0.7,0.2
			c1.6,0.5,2.7,1.2,2.7,3c0,1.1-0.3,2.2-1.2,3c-0.9,0.7-2,1-3.2,1c-1.4,0-2.8-0.5-3.9-1.3l1.2-2.3c0.7,0.6,1.6,1.2,2.6,1.2
			c0.7,0,1.4-0.3,1.4-1.1s-1.1-1.1-1.8-1.3c-1.8-0.5-3-1-3-3.1c0-2.3,1.6-3.7,3.8-3.7c1.1,0,2.5,0.4,3.5,0.9L493.4,726.3z"/>
		<path class="st4" d="M500.9,734.6H498v-8.7h-2.4v-2.5h7.7v2.5h-2.4L500.9,734.6L500.9,734.6z"/>
		<path class="st4" d="M513.6,734.6H510l-2.7-4.3l0,0v4.3h-2.9v-11.1h4.3c2.2,0,3.9,1,3.9,3.4c0,1.5-0.9,2.9-2.4,3.1L513.6,734.6z
			 M507.2,728.4h0.3c0.9,0,2-0.2,2-1.4s-1.1-1.4-2-1.4h-0.3V728.4z"/>
		<path class="st4" d="M517.2,732.6l-0.8,1.9h-3.1l4.3-11.1h3.2l4.2,11.1h-3.1l-0.7-1.9H517.2z M519.2,726.9L519.2,726.9l-1.2,3.5
			h2.4L519.2,726.9z"/>
		<path class="st4" d="M528.8,732.1h3.5v2.5h-6.4v-11.1h2.9V732.1z"/>
	</g>
</g>
<g>
	<g>
		<path class="st5" d="M434.7,124.5c-0.8-0.7-1.8-1.1-2.9-1.1c-0.8,0-1.9,0.5-1.9,1.4c0,1,1.2,1.3,1.9,1.6l1.1,0.3
			c2.3,0.7,4.1,1.9,4.1,4.5c0,1.7-0.4,3.4-1.7,4.5c-1.3,1.1-3,1.6-4.7,1.6c-2.1,0-4.2-0.7-5.9-1.9l1.9-3.5c1.1,0.9,2.4,1.7,3.8,1.7
			c1,0,2.1-0.5,2.1-1.7s-1.7-1.6-2.6-1.9c-2.7-0.8-4.5-1.5-4.5-4.7c0-3.4,2.4-5.6,5.7-5.6c1.7,0,3.7,0.5,5.2,1.4L434.7,124.5z"/>
		<path class="st5" d="M456.7,128.3c0,5.4-3.9,9.2-9.2,9.2c-5.3,0-9.2-3.8-9.2-9.2c0-5,4.4-8.6,9.2-8.6
			C452.3,119.7,456.7,123.2,456.7,128.3z M442.8,128.3c0,2.9,2.1,5,4.7,5s4.7-2.1,4.7-5c0-2.3-2.1-4.4-4.7-4.4
			S442.8,126,442.8,128.3z"/>
		<path class="st5" d="M463.1,133.2h5.2v3.7h-9.5v-16.7h4.3V133.2z"/>
		<path class="st5" d="M474,136.9h-4.3v-16.7h4.3V136.9z"/>
		<path class="st5" d="M488.7,125.8c-0.9-1.2-2.3-1.8-3.8-1.8c-2.6,0-4.4,2-4.4,4.6s1.8,4.5,4.5,4.5c1.4,0,2.8-0.7,3.7-1.8v5.2
			c-1.4,0.4-2.5,0.8-3.8,0.8c-2.3,0-4.5-0.9-6.3-2.5c-1.8-1.7-2.7-3.8-2.7-6.3c0-2.3,0.9-4.5,2.5-6.1c1.6-1.7,4-2.7,6.3-2.7
			c1.4,0,2.7,0.3,4,0.8L488.7,125.8L488.7,125.8z"/>
		<path class="st5" d="M495.7,136.9h-4.3v-16.7h4.3V136.9z"/>
		<path class="st5" d="M505.2,136.9h-4.3v-13h-3.6v-3.7h11.5v3.7h-3.6V136.9z"/>
		<path class="st5" d="M513.3,134l-1.1,2.9h-4.6l6.4-16.7h4.7l6.3,16.7h-4.6l-1.1-2.9H513.3z M516.3,125.4L516.3,125.4l-1.8,5.3h3.6
			L516.3,125.4z"/>
		<path class="st5" d="M526.3,120.3h4.3l7.9,10.2l0,0v-10.2h4.3V137h-4.3l-7.9-10.2l0,0V137h-4.3V120.3z"/>
		<path class="st5" d="M552.3,136.9H548v-13h-3.6v-3.7h11.5v3.7h-3.6L552.3,136.9L552.3,136.9z"/>
		<path class="st5" d="M561.8,123.9v2.8h4.9v3.7h-4.9v2.9h5.1v3.7h-9.5v-16.7h9.5v3.7L561.8,123.9L561.8,123.9z"/>
	</g>
</g>
<rect id="XMLID_128_" x="95.4" y="1090.8" class="st1" width="223.5" height="56.6"/>
<g>
	<path class="st3" d="M267,29l-1.7,4.2h-6.7L268,8.9h6.9l9.1,24.3h-6.7l-1.6-4.2H267z M271.5,16.4L271.5,16.4l-2.7,7.7h5.2
		L271.5,16.4z"/>
	<path class="st3" d="M286,8.9h9c6.8,0,12.3,5.3,12.3,12.1s-5.6,12.1-12.3,12.1h-9V8.9z M292.3,27.9h1.4c3.8,0,7-2.1,7-6.8
		c0-4.3-2.9-6.8-6.9-6.8h-1.5V27.9z"/>
	<path class="st3" d="M316.6,14.3v4.1h7.1v5.3h-7.1v4.2h7.5v5.3h-13.8V8.9h13.8v5.3L316.6,14.3L316.6,14.3z"/>
	<path class="st3" d="M345.3,17.1c-1.3-1.7-3.4-2.7-5.5-2.7c-3.9,0-6.5,3-6.5,6.7c0,3.8,2.6,6.6,6.6,6.6c2.1,0,4.1-1,5.4-2.6v7.6
		c-2.1,0.6-3.6,1.1-5.6,1.1c-3.4,0-6.6-1.3-9.1-3.6c-2.7-2.4-3.9-5.6-3.9-9.2c0-3.3,1.3-6.5,3.6-8.9c2.4-2.4,5.8-3.9,9.2-3.9
		c2,0,3.9,0.5,5.8,1.2V17.1z"/>
	<path class="st3" d="M370.3,8.9v13.7c0,3.1-0.1,6.2-2.5,8.6c-2,2-5.2,2.7-8.1,2.7c-2.8,0-6-0.7-8.1-2.7c-2.4-2.4-2.5-5.4-2.5-8.6
		V8.9h6.3v12.8c0,3.2,0.2,6.6,4.3,6.6c4.1,0,4.3-3.4,4.3-6.6V8.9H370.3z"/>
	<path class="st3" d="M380.5,29l-1.7,4.2h-6.7l9.3-24.3h6.9l9.1,24.3h-6.7l-1.6-4.2H380.5z M384.9,16.4L384.9,16.4l-2.7,7.7h5.2
		L384.9,16.4z"/>
	<path class="st3" d="M416.8,17.1c-1.3-1.7-3.4-2.7-5.5-2.7c-3.9,0-6.5,3-6.5,6.7c0,3.8,2.6,6.6,6.6,6.6c2.1,0,4.1-1,5.4-2.6v7.6
		c-2.1,0.6-3.6,1.1-5.6,1.1c-3.4,0-6.6-1.3-9.1-3.6c-2.7-2.4-3.9-5.6-3.9-9.2c0-3.3,1.3-6.5,3.6-8.9c2.4-2.4,5.8-3.9,9.2-3.9
		c2,0,3.9,0.5,5.8,1.2V17.1z"/>
	<path class="st3" d="M427,33.2h-6.3V8.9h6.3V33.2z"/>
	<path class="st3" d="M456.8,20.6c0,7.9-5.6,13.4-13.4,13.4S430,28.5,430,20.6c0-7.3,6.4-12.5,13.4-12.5
		C450.3,8.1,456.8,13.3,456.8,20.6z M436.5,20.7c0,4.2,3.1,7.2,6.9,7.2s6.9-3.1,6.9-7.2c0-3.3-3.1-6.4-6.9-6.4
		C439.6,14.3,436.5,17.3,436.5,20.7z M442.6,7.5L440,5.6l4.5-5.5l3.6,2.6L442.6,7.5z"/>
	<path class="st3" d="M459.7,8.9h6.3l11.6,14.8h0.1V8.9h6.3v24.3h-6.3l-11.6-14.9H466v14.9h-6.3V8.9z"/>
	<path class="st3" d="M504.2,29l-1.7,4.2h-6.7l9.3-24.3h6.9l9.1,24.3h-6.7l-1.6-4.2H504.2z M508.7,16.4L508.7,16.4l-2.7,7.7h5.2
		L508.7,16.4z"/>
	<path class="st3" d="M534.3,8.9h9.7c5.2,0,8.8,2.4,8.8,8c0,5.7-3.1,8.2-8.6,8.2h-3.6v8.1h-6.3L534.3,8.9L534.3,8.9z M540.6,20.1
		h1.1c2.3,0,4.5,0,4.5-3c0-3.1-2.1-3.1-4.5-3.1h-1.1V20.1z"/>
	<path class="st3" d="M575.8,33.2h-7.9l-6-9.3h-0.1v9.3h-6.3V8.9h9.4c4.8,0,8.4,2.3,8.4,7.5c0,3.3-1.9,6.2-5.3,6.9L575.8,33.2z
		 M561.9,19.8h0.6c2.1,0,4.4-0.4,4.4-3c0-2.6-2.3-3-4.4-3h-0.6V19.8z"/>
	<path class="st3" d="M603.1,20.6c0,7.9-5.6,13.4-13.4,13.4s-13.4-5.5-13.4-13.4c0-7.3,6.4-12.5,13.4-12.5S603.1,13.3,603.1,20.6z
		 M582.8,20.7c0,4.2,3.1,7.2,6.9,7.2s6.9-3.1,6.9-7.2c0-3.3-3.1-6.4-6.9-6.4S582.8,17.3,582.8,20.7z"/>
	<path class="st3" d="M606,8.9h9.7c5.2,0,8.8,2.4,8.8,8c0,5.7-3.1,8.2-8.6,8.2h-3.6v8.1H606V8.9z M612.3,20.1h1.1c2.3,0,4.5,0,4.5-3
		c0-3.1-2.1-3.1-4.5-3.1h-1.1V20.1z"/>
	<path class="st3" d="M633.6,33.2h-6.3V8.9h6.3V33.2z"/>
	<path class="st3" d="M644.1,14.3v4.1h7.1v5.3h-7.1v4.2h7.5v5.3h-13.8V8.9h13.8v5.3L644.1,14.3L644.1,14.3z"/>
	<path class="st3" d="M655.5,8.9h9c6.8,0,12.3,5.3,12.3,12.1s-5.6,12.1-12.3,12.1h-9V8.9z M661.8,27.9h1.4c3.8,0,7-2.1,7-6.8
		c0-4.3-2.9-6.8-6.9-6.8h-1.5V27.9z"/>
	<path class="st3" d="M685.9,29l-1.7,4.2h-6.7l9.3-24.3h6.9l9.1,24.3h-6.7l-1.6-4.2H685.9z M690.3,16.4L690.3,16.4l-2.7,7.7h5.2
		L690.3,16.4z"/>
	<path class="st3" d="M704.9,8.9h9c6.8,0,12.3,5.3,12.3,12.1s-5.6,12.1-12.3,12.1h-9V8.9z M711.2,27.9h1.4c3.8,0,7-2.1,7-6.8
		c0-4.3-2.9-6.8-6.9-6.8h-1.5V27.9z"/>
	<path class="st3" d="M404,57v-9.4h6.3v24.3H404v-10h-9.1v10h-6.3V47.6h6.3V57H404z"/>
	<path class="st3" d="M440.1,59.3c0,7.9-5.6,13.4-13.4,13.4s-13.4-5.5-13.4-13.4c0-7.3,6.4-12.5,13.4-12.5S440.1,51.9,440.1,59.3z
		 M419.8,59.3c0,4.2,3.1,7.2,6.9,7.2s6.9-3.1,6.9-7.2c0-3.3-3.1-6.4-6.9-6.4C422.9,52.9,419.8,56,419.8,59.3z"/>
	<path class="st3" d="M463.2,71.9h-7.9l-6-9.3h-0.1v9.3H443V47.6h9.4c4.8,0,8.4,2.3,8.4,7.5c0,3.3-1.9,6.2-5.3,6.9L463.2,71.9z
		 M449.3,58.5h0.6c2.1,0,4.4-0.4,4.4-3s-2.3-3-4.4-3h-0.6V58.5z"/>
	<path class="st3" d="M471.2,71.9h-6.3V47.6h6.3V71.9z"/>
	<path class="st3" d="M494.4,66.5v5.3h-20.8l11.5-18.9h-9.5v-5.3h20.1l-11.4,18.9H494.4z"/>
	<path class="st3" d="M523.7,59.3c0,7.9-5.6,13.4-13.4,13.4c-7.8,0-13.4-5.5-13.4-13.4c0-7.3,6.4-12.5,13.4-12.5
		C517.3,46.8,523.7,51.9,523.7,59.3z M503.4,59.3c0,4.2,3.1,7.2,6.9,7.2s6.9-3.1,6.9-7.2c0-3.3-3.1-6.4-6.9-6.4
		C506.5,52.9,503.4,56,503.4,59.3z"/>
	<path class="st3" d="M526.7,47.6h6.3l11.6,14.8h0.1V47.6h6.3v24.3h-6.3L533,57l0,0v14.9h-6.3V47.6z"/>
	<path class="st3" d="M564.7,71.9h-6.3v-19h-5.2v-5.3h16.7v5.3h-5.2V71.9z"/>
	<path class="st3" d="M576.5,67.7l-1.7,4.2h-6.7l9.3-24.3h6.9l9.1,24.3h-6.7l-1.6-4.2H576.5z M580.9,55.1L580.9,55.1l-2.7,7.7h5.2
		L580.9,55.1z"/>
	<path class="st3" d="M601.7,66.5h7.6v5.3h-13.9V47.6h6.3L601.7,66.5L601.7,66.5z"/>
</g>
<g>
	<g>
		<path class="st4" d="M445,211.6h-3.6l-2.7-4.3l0,0v4.3h-2.9v-11.1h4.3c2.2,0,3.9,1,3.9,3.4c0,1.5-0.9,2.9-2.4,3.1L445,211.6z
			 M438.6,205.5h0.3c0.9,0,2-0.2,2-1.4s-1.1-1.4-2-1.4h-0.3V205.5z"/>
		<path class="st4" d="M453.5,208.3h-5.7c0,1.1,0.6,1.7,1.7,1.7c0.6,0,1-0.2,1.3-0.7h2.6c-0.2,0.9-0.7,1.5-1.4,2
			c-0.7,0.4-1.6,0.6-2.4,0.6c-2.5,0-4.4-1.4-4.4-4c0-2.5,1.7-4,4.2-4c2.6,0,4.2,1.6,4.2,4.2v0.2H453.5z M451,206.7
			c-0.1-0.7-0.8-1.2-1.5-1.2c-0.8,0-1.4,0.4-1.6,1.2H451z"/>
		<path class="st4" d="M459.7,206c-0.4-0.2-1-0.4-1.4-0.4c-0.3,0-0.8,0.1-0.8,0.5c0,0.5,0.8,0.6,1.2,0.7c1.3,0.3,2.2,0.8,2.2,2.2
			c0,2-1.8,2.8-3.6,2.8c-1.1,0-2.1-0.3-3.1-0.9l1-1.9c0.5,0.4,1.5,0.8,2.1,0.8c0.3,0,0.8-0.2,0.8-0.6c0-0.6-0.8-0.6-1.7-0.8
			c-0.8-0.2-1.7-0.6-1.7-2c0-1.9,1.7-2.7,3.3-2.7c0.9,0,1.7,0.1,2.5,0.5L459.7,206z"/>
		<path class="st4" d="M464.9,204.9L464.9,204.9c0.5-0.8,1.4-1.1,2.3-1.1c2.3,0,3.8,1.9,3.8,4.1c0,2.2-1.6,4-3.8,4
			c-0.9,0-1.8-0.3-2.3-1v4.5h-2.7V204h2.7V204.9z M464.8,207.8c0,1,0.6,1.7,1.7,1.7s1.7-0.7,1.7-1.7c0-0.9-0.6-1.7-1.7-1.7
			S464.8,206.9,464.8,207.8z"/>
		<path class="st4" d="M480.9,207.8c0,2.6-2.1,4-4.6,4c-2.4,0-4.6-1.4-4.6-4s2.1-4,4.6-4S480.9,205.2,480.9,207.8z M474.6,207.8
			c0,1,0.6,1.7,1.7,1.7s1.7-0.7,1.7-1.7c0-0.9-0.6-1.7-1.7-1.7S474.6,206.9,474.6,207.8z"/>
		<path class="st4" d="M484.8,205L484.8,205c0.7-0.9,1.4-1.2,2.5-1.2c2,0,2.9,1.3,2.9,3.1v4.7h-2.7v-3.7c0-0.7,0.1-2-1.2-2
			c-1.1,0-1.4,0.8-1.4,1.8v3.9h-2.7V204h2.7L484.8,205L484.8,205z"/>
		<path class="st4" d="M496.9,206c-0.4-0.2-1-0.4-1.4-0.4c-0.3,0-0.8,0.1-0.8,0.5c0,0.5,0.8,0.6,1.2,0.7c1.3,0.3,2.2,0.8,2.2,2.2
			c0,2-1.8,2.8-3.6,2.8c-1.1,0-2.1-0.3-3.1-0.9l1-1.9c0.5,0.4,1.5,0.8,2.1,0.8c0.3,0,0.8-0.2,0.8-0.6c0-0.6-0.8-0.6-1.7-0.8
			c-0.8-0.2-1.7-0.6-1.7-2c0-1.9,1.7-2.7,3.3-2.7c0.9,0,1.7,0.1,2.5,0.5L496.9,206z"/>
		<path class="st4" d="M507.7,211.6H505v-0.8l0,0c-0.5,0.8-1.4,1.1-2.3,1.1c-2.2,0-3.8-1.9-3.8-4c0-2.2,1.6-4,3.8-4
			c0.9,0,1.8,0.3,2.3,1V204h2.7V211.6z M501.7,207.8c0,1,0.6,1.7,1.7,1.7s1.7-0.7,1.7-1.7c0-0.9-0.6-1.7-1.7-1.7
			S501.7,206.9,501.7,207.8z"/>
		<path class="st4" d="M509.4,199.3h2.7v5.4c0.6-0.7,1.5-1,2.3-1c2.2,0,3.8,1.9,3.8,4c0,2.2-1.6,4-3.8,4c-0.9,0-1.8-0.3-2.3-1.1l0,0
			v0.8h-2.7L509.4,199.3L509.4,199.3z M512,207.8c0,1,0.6,1.7,1.7,1.7c1.1,0,1.7-0.7,1.7-1.7c0-0.9-0.6-1.7-1.7-1.7
			C512.7,206.1,512,206.9,512,207.8z"/>
		<path class="st4" d="M522.3,211.6h-2.7v-12.3h2.7V211.6z"/>
		<path class="st4" d="M531.9,208.3h-5.7c0,1.1,0.6,1.7,1.7,1.7c0.6,0,1-0.2,1.3-0.7h2.6c-0.2,0.9-0.7,1.5-1.4,2
			c-0.7,0.4-1.6,0.6-2.4,0.6c-2.5,0-4.4-1.4-4.4-4c0-2.5,1.7-4,4.2-4c2.6,0,4.2,1.6,4.2,4.2L531.9,208.3L531.9,208.3z M529.4,206.7
			c-0.1-0.7-0.8-1.2-1.5-1.2c-0.8,0-1.4,0.4-1.6,1.2H529.4z"/>
		<path class="st4" d="M543.8,210.8L543.8,210.8c-0.5,0.8-1.4,1.1-2.3,1.1c-2.2,0-3.8-1.9-3.8-4c0-2.2,1.6-4,3.8-4
			c0.9,0,1.8,0.3,2.3,1v-5.4h2.7v12.3h-2.7V210.8z M540.5,207.8c0,1,0.6,1.7,1.7,1.7s1.7-0.7,1.7-1.7c0-0.9-0.6-1.7-1.7-1.7
			S540.5,206.9,540.5,207.8z"/>
		<path class="st4" d="M556,208.3h-5.7c0,1.1,0.6,1.7,1.7,1.7c0.6,0,1-0.2,1.3-0.7h2.6c-0.2,0.9-0.7,1.5-1.4,2
			c-0.7,0.4-1.6,0.6-2.4,0.6c-2.5,0-4.4-1.4-4.4-4c0-2.5,1.7-4,4.2-4c2.6,0,4.2,1.6,4.2,4.2L556,208.3L556,208.3z M553.5,206.7
			c-0.1-0.7-0.8-1.2-1.5-1.2c-0.8,0-1.4,0.4-1.6,1.2H553.5z"/>
		<path class="st4" d="M467.6,229.3h-2.7v-0.8l0,0c-0.5,0.8-1.4,1.1-2.3,1.1c-2.2,0-3.8-1.9-3.8-4c0-2.2,1.6-4,3.8-4
			c0.9,0,1.8,0.3,2.3,1v-0.7h2.7V229.3z M461.5,225.5c0,1,0.6,1.7,1.7,1.7s1.7-0.7,1.7-1.7c0-0.9-0.6-1.7-1.7-1.7
			S461.5,224.6,461.5,225.5z"/>
		<path class="st4" d="M475.1,228.5L475.1,228.5c-0.5,0.8-1.4,1.1-2.3,1.1c-2.2,0-3.8-1.9-3.8-4c0-2.2,1.6-4,3.8-4
			c0.9,0,1.8,0.3,2.3,1v-5.4h2.7v12.3h-2.7V228.5z M471.7,225.5c0,1,0.6,1.7,1.7,1.7s1.7-0.7,1.7-1.7c0-0.9-0.6-1.7-1.7-1.7
			C472.3,223.8,471.7,224.6,471.7,225.5z"/>
		<path class="st4" d="M482.1,222.7L482.1,222.7c0.7-0.8,1.4-1.2,2.4-1.2c1.1,0,2,0.4,2.6,1.4c0.5-0.9,1.5-1.4,2.6-1.4
			c1.9,0,2.6,1.3,2.6,3v4.8h-2.7v-3.6c0-0.8,0-2.1-1.1-2.1c-1.2,0-1.3,1.2-1.3,2.1v3.6h-2.7v-3.6c0-0.8,0-2.1-1.2-2.1
			s-1.2,1.3-1.2,2.1v3.6h-2.7v-7.6h2.7L482.1,222.7L482.1,222.7z"/>
		<path class="st4" d="M496.9,218.8c0,0.8-0.7,1.5-1.5,1.5s-1.5-0.7-1.5-1.5s0.7-1.5,1.5-1.5C496.2,217.3,496.9,218,496.9,218.8z
			 M496.7,229.3H494v-7.6h2.7V229.3z"/>
		<path class="st4" d="M503.5,223.7c-0.4-0.2-1-0.4-1.4-0.4c-0.3,0-0.8,0.1-0.8,0.5c0,0.5,0.8,0.6,1.2,0.7c1.3,0.3,2.2,0.8,2.2,2.2
			c0,2-1.8,2.8-3.6,2.8c-1.1,0-2.1-0.3-3.1-0.9l1-1.9c0.5,0.4,1.5,0.8,2.1,0.8c0.3,0,0.8-0.2,0.8-0.6c0-0.6-0.8-0.6-1.7-0.8
			c-0.8-0.2-1.7-0.6-1.7-2c0-1.9,1.7-2.7,3.3-2.7c0.9,0,1.7,0.1,2.5,0.5L503.5,223.7z"/>
		<path class="st4" d="M508.9,218.8c0,0.8-0.7,1.5-1.5,1.5s-1.5-0.7-1.5-1.5s0.7-1.5,1.5-1.5C508.3,217.3,508.9,218,508.9,218.8z
			 M508.8,229.3h-2.7v-7.6h2.7V229.3z"/>
		<path class="st4" d="M519.1,225.5c0,2.6-2.1,4-4.6,4c-2.4,0-4.6-1.4-4.6-4s2.1-4,4.6-4S519.1,223,519.1,225.5z M512.8,225.5
			c0,1,0.6,1.7,1.7,1.7s1.7-0.7,1.7-1.7c0-0.9-0.6-1.7-1.7-1.7S512.8,224.6,512.8,225.5z M514.3,220.6l-1.2-0.9l2.1-2.5l1.6,1.2
			L514.3,220.6z"/>
		<path class="st4" d="M523,222.7L523,222.7c0.7-0.9,1.4-1.2,2.5-1.2c2,0,2.9,1.3,2.9,3.1v4.7h-2.7v-3.7c0-0.7,0.1-2-1.2-2
			c-1.1,0-1.4,0.8-1.4,1.8v3.9h-2.7v-7.6h2.7L523,222.7L523,222.7z"/>
		<path class="st4" d="M537.4,217.1l-5.6,13.6h-2.1l5.6-13.6H537.4z"/>
		<path class="st4" d="M430.8,243.7h-5.7c0,1.1,0.6,1.7,1.7,1.7c0.6,0,1-0.2,1.3-0.7h2.6c-0.2,0.9-0.7,1.5-1.4,2
			c-0.7,0.4-1.6,0.6-2.4,0.6c-2.5,0-4.4-1.4-4.4-4c0-2.5,1.7-4,4.2-4c2.6,0,4.2,1.6,4.2,4.2v0.2H430.8z M428.3,242.2
			c-0.1-0.7-0.8-1.2-1.5-1.2c-0.8,0-1.4,0.4-1.6,1.2H428.3z"/>
		<path class="st4" d="M434.7,240.4L434.7,240.4c0.7-0.8,1.4-1.2,2.4-1.2c1.1,0,2,0.4,2.6,1.4c0.5-0.9,1.5-1.4,2.6-1.4
			c1.9,0,2.6,1.3,2.6,3v4.8h-2.7v-3.6c0-0.8,0-2.1-1.1-2.1c-1.2,0-1.3,1.2-1.3,2.1v3.6h-2.7v-3.6c0-0.8,0-2.1-1.2-2.1
			s-1.2,1.3-1.2,2.1v3.6H432v-7.6h2.7L434.7,240.4L434.7,240.4z"/>
		<path class="st4" d="M449.5,236.6c0,0.8-0.7,1.5-1.5,1.5s-1.5-0.7-1.5-1.5s0.7-1.5,1.5-1.5S449.5,235.7,449.5,236.6z M449.4,247
			h-2.7v-7.6h2.7V247z"/>
		<path class="st4" d="M456.1,241.4c-0.4-0.2-1-0.4-1.4-0.4c-0.3,0-0.8,0.1-0.8,0.5c0,0.5,0.8,0.6,1.2,0.7c1.3,0.3,2.2,0.8,2.2,2.2
			c0,2-1.8,2.8-3.6,2.8c-1.1,0-2.1-0.3-3.1-0.9l1-1.9c0.5,0.4,1.5,0.8,2.1,0.8c0.3,0,0.8-0.2,0.8-0.6c0-0.6-0.8-0.6-1.7-0.8
			c-0.8-0.2-1.7-0.6-1.7-2c0-1.9,1.7-2.7,3.3-2.7c0.9,0,1.7,0.1,2.5,0.5L456.1,241.4z"/>
		<path class="st4" d="M461.6,236.6c0,0.8-0.7,1.5-1.5,1.5s-1.5-0.7-1.5-1.5s0.7-1.5,1.5-1.5S461.6,235.7,461.6,236.6z M461.4,247
			h-2.7v-7.6h2.7V247z"/>
		<path class="st4" d="M471.7,243.3c0,2.6-2.1,4-4.6,4c-2.4,0-4.6-1.4-4.6-4s2.1-4,4.6-4S471.7,240.7,471.7,243.3z M465.4,243.3
			c0,1,0.6,1.7,1.7,1.7s1.7-0.7,1.7-1.7c0-0.9-0.6-1.7-1.7-1.7S465.4,242.3,465.4,243.3z M466.9,238.3l-1.2-0.9l2.1-2.5l1.6,1.2
			L466.9,238.3z"/>
		<path class="st4" d="M475.6,240.4L475.6,240.4c0.7-0.9,1.4-1.2,2.5-1.2c2,0,2.9,1.3,2.9,3.1v4.7h-2.7v-3.7c0-0.7,0.1-2-1.2-2
			c-1.1,0-1.4,0.8-1.4,1.8v3.9H473v-7.6h2.7L475.6,240.4L475.6,240.4z"/>
		<path class="st4" d="M495,234.8l-5.6,13.6h-2.1l5.6-13.6H495z"/>
		<path class="st4" d="M507.1,246.2L507.1,246.2c-0.5,0.8-1.4,1.1-2.3,1.1c-2.2,0-3.8-1.9-3.8-4c0-2.2,1.6-4,3.8-4
			c0.9,0,1.8,0.3,2.3,1v-5.4h2.7V247h-2.7V246.2z M503.7,243.3c0,1,0.6,1.7,1.7,1.7s1.7-0.7,1.7-1.7c0-0.9-0.6-1.7-1.7-1.7
			C504.4,241.6,503.7,242.3,503.7,243.3z"/>
		<path class="st4" d="M519.3,243.7h-5.7c0,1.1,0.6,1.7,1.7,1.7c0.6,0,1-0.2,1.3-0.7h2.6c-0.2,0.9-0.7,1.5-1.4,2
			c-0.7,0.4-1.6,0.6-2.4,0.6c-2.5,0-4.4-1.4-4.4-4c0-2.5,1.7-4,4.2-4c2.6,0,4.2,1.6,4.2,4.2L519.3,243.7L519.3,243.7z M516.8,242.2
			c-0.1-0.7-0.8-1.2-1.5-1.2c-0.8,0-1.4,0.4-1.6,1.2H516.8z"/>
		<path class="st4" d="M525.5,241.4c-0.4-0.2-1-0.4-1.4-0.4c-0.3,0-0.8,0.1-0.8,0.5c0,0.5,0.8,0.6,1.2,0.7c1.3,0.3,2.2,0.8,2.2,2.2
			c0,2-1.8,2.8-3.6,2.8c-1.1,0-2.1-0.3-3.1-0.9l1-1.9c0.5,0.4,1.5,0.8,2.1,0.8c0.3,0,0.8-0.2,0.8-0.6c0-0.6-0.8-0.6-1.7-0.8
			c-0.8-0.2-1.7-0.6-1.7-2c0-1.9,1.7-2.7,3.3-2.7c0.9,0,1.7,0.1,2.5,0.5L525.5,241.4z"/>
		<path class="st4" d="M530.7,240.3L530.7,240.3c0.5-0.8,1.4-1.1,2.3-1.1c2.3,0,3.8,1.9,3.8,4.1c0,2.2-1.6,4-3.8,4
			c-0.9,0-1.8-0.3-2.3-1v4.5H528v-11.4h2.7V240.3z M530.6,243.3c0,1,0.6,1.7,1.7,1.7c1.1,0,1.7-0.7,1.7-1.7c0-0.9-0.6-1.7-1.7-1.7
			C531.2,241.6,530.6,242.3,530.6,243.3z"/>
		<path class="st4" d="M546.4,247h-2.7v-0.8l0,0c-0.5,0.8-1.4,1.1-2.3,1.1c-2.2,0-3.8-1.9-3.8-4c0-2.2,1.6-4,3.8-4
			c0.9,0,1.8,0.3,2.3,1v-0.7h2.7V247z M540.4,243.3c0,1,0.6,1.7,1.7,1.7c1.1,0,1.7-0.7,1.7-1.7c0-0.9-0.6-1.7-1.7-1.7
			S540.4,242.3,540.4,243.3z"/>
		<path class="st4" d="M553.7,241.9c-0.4-0.3-0.9-0.5-1.4-0.5c-1,0-1.8,0.8-1.8,1.8c0,1.1,0.8,1.9,1.9,1.9c0.5,0,1-0.2,1.3-0.5v2.3
			c-0.6,0.3-1.2,0.4-1.9,0.4c-2.2,0-4.1-1.7-4.1-4c0-2.4,1.9-4.1,4.2-4.1c0.6,0,1.2,0.1,1.8,0.4V241.9z"/>
		<path class="st4" d="M558,234.8v5.6l0,0c0.6-0.8,1.4-1.2,2.4-1.2c1.9,0,2.9,1.3,2.9,3.2v4.6h-2.7v-3.9c0-0.9-0.1-1.8-1.2-1.8
			c-1.1,0-1.4,0.9-1.4,1.8v3.9h-2.7v-12.3L558,234.8L558,234.8z"/>
		<path class="st4" d="M573.7,243.3c0,2.6-2.1,4-4.6,4c-2.4,0-4.6-1.4-4.6-4s2.1-4,4.6-4S573.7,240.7,573.7,243.3z M567.4,243.3
			c0,1,0.6,1.7,1.7,1.7s1.7-0.7,1.7-1.7c0-0.9-0.6-1.7-1.7-1.7S567.4,242.3,567.4,243.3z"/>
	</g>
</g>
<rect id="XMLID_110_" x="661.1" y="689.7" class="st2" width="236.5" height="63.4"/>
<g>
	<g>
		<path class="st4" d="M728.8,708.2h-3.6l-2.7-4.3l0,0v4.3h-2.9V697h4.3c2.2,0,3.9,1,3.9,3.4c0,1.5-0.9,2.9-2.4,3.1L728.8,708.2z
			 M722.5,702h0.3c0.9,0,2-0.2,2-1.4s-1.1-1.4-2-1.4h-0.3V702z"/>
		<path class="st4" d="M737.3,704.8h-5.7c0,1.1,0.6,1.7,1.7,1.7c0.6,0,1-0.2,1.3-0.7h2.6c-0.2,0.9-0.7,1.5-1.4,2
			c-0.7,0.4-1.6,0.6-2.4,0.6c-2.5,0-4.4-1.4-4.4-4c0-2.5,1.7-4,4.2-4c2.6,0,4.2,1.6,4.2,4.2L737.3,704.8L737.3,704.8z M734.8,703.3
			c-0.1-0.7-0.8-1.2-1.5-1.2c-0.8,0-1.4,0.4-1.6,1.2H734.8z"/>
		<path class="st4" d="M743.6,702.5c-0.4-0.2-1-0.4-1.4-0.4c-0.3,0-0.8,0.1-0.8,0.5c0,0.5,0.8,0.6,1.2,0.7c1.3,0.3,2.2,0.8,2.2,2.2
			c0,2-1.8,2.8-3.6,2.8c-1.1,0-2.1-0.3-3.1-0.9l1-1.9c0.5,0.4,1.5,0.8,2.1,0.8c0.3,0,0.8-0.2,0.8-0.6c0-0.6-0.8-0.6-1.7-0.8
			c-0.8-0.2-1.7-0.6-1.7-2c0-1.9,1.7-2.7,3.3-2.7c0.9,0,1.7,0.1,2.5,0.5L743.6,702.5z"/>
		<path class="st4" d="M748.7,701.4L748.7,701.4c0.5-0.8,1.4-1.1,2.3-1.1c2.3,0,3.8,1.9,3.8,4.1c0,2.2-1.6,4-3.8,4
			c-0.9,0-1.8-0.3-2.3-1v4.5H746v-11.4h2.7V701.4z M748.6,704.4c0,1,0.6,1.7,1.7,1.7c1.1,0,1.7-0.7,1.7-1.7c0-0.9-0.6-1.7-1.7-1.7
			C749.3,702.7,748.6,703.5,748.6,704.4z"/>
		<path class="st4" d="M764.8,704.4c0,2.6-2.1,4-4.6,4c-2.4,0-4.6-1.4-4.6-4s2.1-4,4.6-4S764.8,701.8,764.8,704.4z M758.5,704.4
			c0,1,0.6,1.7,1.7,1.7c1.1,0,1.7-0.7,1.7-1.7c0-0.9-0.6-1.7-1.7-1.7S758.5,703.5,758.5,704.4z"/>
		<path class="st4" d="M768.7,701.6L768.7,701.6c0.7-0.9,1.4-1.2,2.5-1.2c2,0,2.9,1.3,2.9,3.1v4.7h-2.7v-3.7c0-0.7,0.1-2-1.2-2
			c-1.1,0-1.4,0.8-1.4,1.8v3.9H766v-7.6h2.7V701.6z"/>
		<path class="st4" d="M780.8,702.5c-0.4-0.2-1-0.4-1.4-0.4c-0.3,0-0.8,0.1-0.8,0.5c0,0.5,0.8,0.6,1.2,0.7c1.3,0.3,2.2,0.8,2.2,2.2
			c0,2-1.8,2.8-3.6,2.8c-1.1,0-2.1-0.3-3.1-0.9l1-1.9c0.5,0.4,1.5,0.8,2.1,0.8c0.3,0,0.8-0.2,0.8-0.6c0-0.6-0.8-0.6-1.7-0.8
			c-0.8-0.2-1.7-0.6-1.7-2c0-1.9,1.7-2.7,3.3-2.7c0.9,0,1.7,0.1,2.5,0.5L780.8,702.5z"/>
		<path class="st4" d="M791.6,708.2h-2.7v-0.8l0,0c-0.5,0.8-1.4,1.1-2.3,1.1c-2.2,0-3.8-1.9-3.8-4c0-2.2,1.6-4,3.8-4
			c0.9,0,1.8,0.3,2.3,1v-0.7h2.7V708.2z M785.6,704.4c0,1,0.6,1.7,1.7,1.7c1.1,0,1.7-0.7,1.7-1.7c0-0.9-0.6-1.7-1.7-1.7
			C786.2,702.7,785.6,703.5,785.6,704.4z"/>
		<path class="st4" d="M793.3,695.9h2.7v5.4c0.6-0.7,1.5-1,2.3-1c2.2,0,3.8,1.9,3.8,4c0,2.2-1.6,4-3.8,4c-0.9,0-1.8-0.3-2.3-1.1l0,0
			v0.8h-2.7V695.9z M795.9,704.4c0,1,0.6,1.7,1.7,1.7c1.1,0,1.7-0.7,1.7-1.7c0-0.9-0.6-1.7-1.7-1.7
			C796.6,702.7,795.9,703.5,795.9,704.4z"/>
		<path class="st4" d="M806.2,708.2h-2.7v-12.3h2.7V708.2z"/>
		<path class="st4" d="M815.7,704.8H810c0,1.1,0.6,1.7,1.7,1.7c0.6,0,1-0.2,1.3-0.7h2.6c-0.2,0.9-0.7,1.5-1.4,2
			c-0.7,0.4-1.6,0.6-2.4,0.6c-2.5,0-4.4-1.4-4.4-4c0-2.5,1.7-4,4.2-4c2.6,0,4.2,1.6,4.2,4.2L815.7,704.8L815.7,704.8z M813.2,703.3
			c-0.1-0.7-0.8-1.2-1.5-1.2c-0.8,0-1.4,0.4-1.6,1.2H813.2z"/>
		<path class="st4" d="M827.7,707.3L827.7,707.3c-0.5,0.8-1.4,1.1-2.3,1.1c-2.2,0-3.8-1.9-3.8-4c0-2.2,1.6-4,3.8-4
			c0.9,0,1.8,0.3,2.3,1V696h2.7v12.3h-2.7V707.3z M824.4,704.4c0,1,0.6,1.7,1.7,1.7s1.7-0.7,1.7-1.7c0-0.9-0.6-1.7-1.7-1.7
			S824.4,703.5,824.4,704.4z"/>
		<path class="st4" d="M839.9,704.8h-5.7c0,1.1,0.6,1.7,1.7,1.7c0.6,0,1-0.2,1.3-0.7h2.6c-0.2,0.9-0.7,1.5-1.4,2
			c-0.7,0.4-1.6,0.6-2.4,0.6c-2.5,0-4.4-1.4-4.4-4c0-2.5,1.7-4,4.2-4c2.6,0,4.2,1.6,4.2,4.2L839.9,704.8L839.9,704.8z M837.4,703.3
			c-0.1-0.7-0.8-1.2-1.5-1.2c-0.8,0-1.4,0.4-1.6,1.2H837.4z"/>
		<path class="st4" d="M751.4,725.9h-2.7v-0.8l0,0c-0.5,0.8-1.4,1.1-2.3,1.1c-2.2,0-3.8-1.9-3.8-4s1.6-4,3.8-4c0.9,0,1.8,0.3,2.3,1
			v-0.7h2.7V725.9z M745.4,722.1c0,1,0.6,1.7,1.7,1.7s1.7-0.7,1.7-1.7c0-0.9-0.6-1.7-1.7-1.7S745.4,721.2,745.4,722.1z"/>
		<path class="st4" d="M758.9,725.1L758.9,725.1c-0.5,0.8-1.4,1.1-2.3,1.1c-2.2,0-3.8-1.9-3.8-4s1.6-4,3.8-4c0.9,0,1.8,0.3,2.3,1
			v-5.4h2.7v12.3h-2.7V725.1z M755.6,722.1c0,1,0.6,1.7,1.7,1.7c1.1,0,1.7-0.7,1.7-1.7c0-0.9-0.6-1.7-1.7-1.7
			C756.2,720.4,755.6,721.2,755.6,722.1z"/>
		<path class="st4" d="M766,719.3L766,719.3c0.7-0.8,1.4-1.2,2.4-1.2c1.1,0,2,0.4,2.6,1.4c0.5-0.9,1.5-1.4,2.6-1.4
			c1.9,0,2.6,1.3,2.6,3v4.8h-2.7v-3.6c0-0.8,0-2.1-1.1-2.1c-1.2,0-1.3,1.2-1.3,2.1v3.6h-2.7v-3.6c0-0.8,0-2.1-1.2-2.1
			s-1.2,1.3-1.2,2.1v3.6h-2.7v-7.6h2.7L766,719.3L766,719.3z"/>
		<path class="st4" d="M780.8,715.4c0,0.8-0.7,1.5-1.5,1.5s-1.5-0.7-1.5-1.5s0.7-1.5,1.5-1.5S780.8,714.6,780.8,715.4z M780.6,725.9
			h-2.7v-7.6h2.7V725.9z"/>
		<path class="st4" d="M787.4,720.3c-0.4-0.2-1-0.4-1.4-0.4c-0.3,0-0.8,0.1-0.8,0.5c0,0.5,0.8,0.6,1.2,0.7c1.3,0.3,2.2,0.8,2.2,2.2
			c0,2-1.8,2.8-3.6,2.8c-1.1,0-2.1-0.3-3.1-0.9l1-1.9c0.5,0.4,1.5,0.8,2.1,0.8c0.3,0,0.8-0.2,0.8-0.6c0-0.6-0.8-0.6-1.7-0.8
			c-0.8-0.2-1.7-0.6-1.7-2c0-1.9,1.7-2.7,3.3-2.7c0.9,0,1.7,0.1,2.5,0.5L787.4,720.3z"/>
		<path class="st4" d="M792.8,715.4c0,0.8-0.7,1.5-1.5,1.5s-1.5-0.7-1.5-1.5s0.7-1.5,1.5-1.5S792.8,714.6,792.8,715.4z M792.6,725.9
			H790v-7.6h2.7v7.6H792.6z"/>
		<path class="st4" d="M803,722.1c0,2.6-2.1,4-4.6,4c-2.4,0-4.6-1.4-4.6-4s2.1-4,4.6-4S803,719.5,803,722.1z M796.7,722.1
			c0,1,0.6,1.7,1.7,1.7s1.7-0.7,1.7-1.7c0-0.9-0.6-1.7-1.7-1.7S796.7,721.2,796.7,722.1z M798.1,717.2l-1.2-0.9l2.1-2.5l1.6,1.2
			L798.1,717.2z"/>
		<path class="st4" d="M806.9,719.3L806.9,719.3c0.7-0.9,1.4-1.2,2.5-1.2c2,0,2.9,1.3,2.9,3.1v4.7h-2.7v-3.7c0-0.7,0.1-2-1.2-2
			c-1.1,0-1.4,0.8-1.4,1.8v3.9h-2.7v-7.6h2.7L806.9,719.3L806.9,719.3z"/>
		<path class="st4" d="M821.2,713.6l-5.6,13.6h-2.1l5.6-13.6H821.2z"/>
		<path class="st4" d="M714.7,740.3H709c0,1.1,0.6,1.7,1.7,1.7c0.6,0,1-0.2,1.3-0.7h2.6c-0.2,0.9-0.7,1.5-1.4,2
			c-0.7,0.4-1.6,0.6-2.4,0.6c-2.5,0-4.4-1.4-4.4-4c0-2.5,1.7-4,4.2-4c2.6,0,4.2,1.6,4.2,4.2L714.7,740.3L714.7,740.3z M712.2,738.7
			c-0.1-0.7-0.8-1.2-1.5-1.2c-0.8,0-1.4,0.4-1.6,1.2H712.2z"/>
		<path class="st4" d="M718.6,737L718.6,737c0.7-0.8,1.4-1.2,2.4-1.2c1.1,0,2,0.4,2.6,1.4c0.5-0.9,1.5-1.4,2.6-1.4
			c1.9,0,2.6,1.3,2.6,3v4.8h-2.7V740c0-0.8,0-2.1-1.1-2.1c-1.2,0-1.3,1.2-1.3,2.1v3.6H721V740c0-0.8,0-2.1-1.2-2.1s-1.2,1.3-1.2,2.1
			v3.6h-2.7V736h2.7V737z"/>
		<path class="st4" d="M733.4,733.1c0,0.8-0.7,1.5-1.5,1.5s-1.5-0.7-1.5-1.5s0.7-1.5,1.5-1.5S733.4,732.3,733.4,733.1z M733.2,743.6
			h-2.7V736h2.7V743.6z"/>
		<path class="st4" d="M740,738c-0.4-0.2-1-0.4-1.4-0.4c-0.3,0-0.8,0.1-0.8,0.5c0,0.5,0.8,0.6,1.2,0.7c1.3,0.3,2.2,0.8,2.2,2.2
			c0,2-1.8,2.8-3.6,2.8c-1.1,0-2.1-0.3-3.1-0.9l1-1.9c0.5,0.4,1.5,0.8,2.1,0.8c0.3,0,0.8-0.2,0.8-0.6c0-0.6-0.8-0.6-1.7-0.8
			c-0.8-0.2-1.7-0.6-1.7-2c0-1.9,1.7-2.7,3.3-2.7c0.9,0,1.7,0.1,2.5,0.5L740,738z"/>
		<path class="st4" d="M745.4,733.1c0,0.8-0.7,1.5-1.5,1.5s-1.5-0.7-1.5-1.5s0.7-1.5,1.5-1.5S745.4,732.3,745.4,733.1z M745.3,743.6
			h-2.7V736h2.7V743.6z"/>
		<path class="st4" d="M755.6,739.8c0,2.6-2.1,4-4.6,4c-2.4,0-4.6-1.4-4.6-4s2.1-4,4.6-4S755.6,737.3,755.6,739.8z M749.3,739.8
			c0,1,0.6,1.7,1.7,1.7s1.7-0.7,1.7-1.7c0-0.9-0.6-1.7-1.7-1.7S749.3,738.9,749.3,739.8z M750.7,734.9l-1.2-0.9l2.1-2.5l1.6,1.2
			L750.7,734.9z"/>
		<path class="st4" d="M759.5,737L759.5,737c0.7-0.9,1.4-1.2,2.5-1.2c2,0,2.9,1.3,2.9,3.1v4.7h-2.7v-3.7c0-0.7,0.1-2-1.2-2
			c-1.1,0-1.4,0.8-1.4,1.8v3.9h-2.7V736h2.7L759.5,737L759.5,737z"/>
		<path class="st4" d="M778.9,731.4l-5.6,13.6h-2.1l5.6-13.6H778.9z"/>
		<path class="st4" d="M791,742.8L791,742.8c-0.5,0.8-1.4,1.1-2.3,1.1c-2.2,0-3.8-1.9-3.8-4c0-2.2,1.6-4,3.8-4c0.9,0,1.8,0.3,2.3,1
			v-5.4h2.7v12.3H791V742.8z M787.6,739.8c0,1,0.6,1.7,1.7,1.7s1.7-0.7,1.7-1.7c0-0.9-0.6-1.7-1.7-1.7S787.6,738.9,787.6,739.8z"/>
		<path class="st4" d="M803.1,740.3h-5.7c0,1.1,0.6,1.7,1.7,1.7c0.6,0,1-0.2,1.3-0.7h2.6c-0.2,0.9-0.7,1.5-1.4,2
			c-0.7,0.4-1.6,0.6-2.4,0.6c-2.5,0-4.4-1.4-4.4-4c0-2.5,1.7-4,4.2-4c2.6,0,4.2,1.6,4.2,4.2L803.1,740.3L803.1,740.3z M800.6,738.7
			c-0.1-0.7-0.8-1.2-1.5-1.2c-0.8,0-1.4,0.4-1.6,1.2H800.6z"/>
		<path class="st4" d="M809.4,738c-0.4-0.2-1-0.4-1.4-0.4c-0.3,0-0.8,0.1-0.8,0.5c0,0.5,0.8,0.6,1.2,0.7c1.3,0.3,2.2,0.8,2.2,2.2
			c0,2-1.8,2.8-3.6,2.8c-1.1,0-2.1-0.3-3.1-0.9l1-1.9c0.5,0.4,1.5,0.8,2.1,0.8c0.3,0,0.8-0.2,0.8-0.6c0-0.6-0.8-0.6-1.7-0.8
			c-0.8-0.2-1.7-0.6-1.7-2c0-1.9,1.7-2.7,3.3-2.7c0.9,0,1.7,0.1,2.5,0.5L809.4,738z"/>
		<path class="st4" d="M814.5,736.9L814.5,736.9c0.5-0.8,1.4-1.1,2.3-1.1c2.3,0,3.8,1.9,3.8,4.1c0,2.2-1.6,4-3.8,4
			c-0.9,0-1.8-0.3-2.3-1v4.5h-2.7V736h2.7V736.9z M814.4,739.8c0,1,0.6,1.7,1.7,1.7c1.1,0,1.7-0.7,1.7-1.7c0-0.9-0.6-1.7-1.7-1.7
			C815.1,738.1,814.4,738.9,814.4,739.8z"/>
		<path class="st4" d="M830.3,743.6h-2.7v-0.8l0,0c-0.5,0.8-1.4,1.1-2.3,1.1c-2.2,0-3.8-1.9-3.8-4c0-2.2,1.6-4,3.8-4
			c0.9,0,1.8,0.3,2.3,1V736h2.7V743.6z M824.2,739.8c0,1,0.6,1.7,1.7,1.7c1.1,0,1.7-0.7,1.7-1.7c0-0.9-0.6-1.7-1.7-1.7
			C824.9,738.1,824.2,738.9,824.2,739.8z"/>
		<path class="st4" d="M837.5,738.5c-0.4-0.3-0.9-0.5-1.4-0.5c-1,0-1.8,0.8-1.8,1.8c0,1.1,0.8,1.9,1.9,1.9c0.5,0,1-0.2,1.3-0.5v2.3
			c-0.6,0.3-1.2,0.4-1.9,0.4c-2.2,0-4.1-1.7-4.1-4c0-2.4,1.9-4.1,4.2-4.1c0.6,0,1.2,0.1,1.8,0.4V738.5z"/>
		<path class="st4" d="M841.9,731.4v5.6l0,0c0.6-0.8,1.4-1.2,2.4-1.2c1.9,0,2.9,1.3,2.9,3.2v4.6h-2.7v-3.9c0-0.9-0.1-1.8-1.2-1.8
			c-1.1,0-1.4,0.9-1.4,1.8v3.9h-2.7v-12.3h2.7V731.4z"/>
		<path class="st4" d="M857.5,739.8c0,2.6-2.1,4-4.6,4c-2.4,0-4.6-1.4-4.6-4s2.1-4,4.6-4S857.5,737.3,857.5,739.8z M851.3,739.8
			c0,1,0.6,1.7,1.7,1.7s1.7-0.7,1.7-1.7c0-0.9-0.6-1.7-1.7-1.7S851.3,738.9,851.3,739.8z"/>
	</g>
</g>
<rect id="XMLID_116_" x="661.8" y="483.4" class="st2" width="236.5" height="78.8"/>
<g>
	<g>
		<path class="st4" d="M738.8,509.1L738,511h-3.1l4.3-11.1h3.2l4.2,11.1h-3.1l-0.7-1.9H738.8z M740.8,503.3L740.8,503.3l-1.2,3.5
			h2.4L740.8,503.3z"/>
		<path class="st4" d="M752.4,505.4c-0.4-0.2-1-0.4-1.4-0.4c-0.3,0-0.8,0.1-0.8,0.5c0,0.5,0.8,0.6,1.2,0.7c1.3,0.3,2.2,0.8,2.2,2.2
			c0,2-1.8,2.8-3.6,2.8c-1.1,0-2.1-0.3-3.1-0.9l1-1.9c0.5,0.4,1.5,0.8,2.1,0.8c0.3,0,0.8-0.2,0.8-0.6c0-0.6-0.8-0.6-1.7-0.8
			c-0.8-0.2-1.7-0.6-1.7-2c0-1.9,1.7-2.7,3.3-2.7c0.9,0,1.7,0.1,2.5,0.5L752.4,505.4z"/>
		<path class="st4" d="M762.8,507.7h-5.7c0,1.1,0.6,1.7,1.7,1.7c0.6,0,1-0.2,1.3-0.7h2.6c-0.2,0.9-0.7,1.5-1.4,2
			c-0.7,0.4-1.6,0.6-2.4,0.6c-2.5,0-4.4-1.4-4.4-4c0-2.5,1.7-4,4.2-4c2.6,0,4.2,1.6,4.2,4.2L762.8,507.7L762.8,507.7z M760.3,506.1
			c-0.1-0.7-0.8-1.2-1.5-1.2c-0.8,0-1.4,0.4-1.6,1.2H760.3z"/>
		<path class="st4" d="M769,505.4c-0.4-0.2-1-0.4-1.4-0.4c-0.3,0-0.8,0.1-0.8,0.5c0,0.5,0.8,0.6,1.2,0.7c1.3,0.3,2.2,0.8,2.2,2.2
			c0,2-1.8,2.8-3.6,2.8c-1.1,0-2.1-0.3-3.1-0.9l1-1.9c0.5,0.4,1.5,0.8,2.1,0.8c0.3,0,0.8-0.2,0.8-0.6c0-0.6-0.8-0.6-1.7-0.8
			c-0.8-0.2-1.7-0.6-1.7-2c0-1.9,1.7-2.7,3.3-2.7c0.9,0,1.7,0.1,2.5,0.5L769,505.4z"/>
		<path class="st4" d="M780.1,507.3c0,2.6-2.1,4-4.6,4c-2.4,0-4.6-1.4-4.6-4s2.1-4,4.6-4S780.1,504.7,780.1,507.3z M773.8,507.3
			c0,1,0.6,1.7,1.7,1.7c1.1,0,1.7-0.7,1.7-1.7c0-0.9-0.6-1.7-1.7-1.7C774.5,505.5,773.8,506.3,773.8,507.3z"/>
		<path class="st4" d="M784,504.7L784,504.7c0.5-0.9,1.4-1.3,2.5-1.3h0.5v2.6c-0.4-0.2-0.7-0.3-1.1-0.3c-1.5,0-1.9,1-1.9,2.3v3.1
			h-2.7v-7.6h2.7V504.7z"/>
		<path class="st4" d="M795.8,511h-2.7v-12.3h2.7V511z"/>
		<path class="st4" d="M805.3,507.7h-5.7c0,1.1,0.6,1.7,1.7,1.7c0.6,0,1-0.2,1.3-0.7h2.6c-0.2,0.9-0.7,1.5-1.4,2
			c-0.7,0.4-1.6,0.6-2.4,0.6c-2.5,0-4.4-1.4-4.4-4c0-2.5,1.7-4,4.2-4c2.6,0,4.2,1.6,4.2,4.2L805.3,507.7L805.3,507.7z M802.9,506.1
			c-0.1-0.7-0.8-1.2-1.5-1.2c-0.8,0-1.4,0.4-1.6,1.2H802.9z"/>
		<path class="st4" d="M814.9,510.3c0,3.2-1.6,4.5-4.4,4.5c-1.7,0-4.1-0.9-4.3-2.9h3c0.1,0.3,0.3,0.5,0.5,0.6s0.5,0.2,0.8,0.2
			c1.4,0,1.7-0.9,1.7-2.2v-0.4c-0.7,0.7-1.4,1-2.4,1c-2.2,0-3.7-1.7-3.7-3.9c0-2.2,1.6-4.1,3.9-4.1c0.9,0,1.7,0.3,2.2,1l0,0v-0.8
			h2.7V510.3z M808.8,507.2c0,1,0.6,1.7,1.7,1.7c1.1,0,1.7-0.7,1.7-1.7c0-0.9-0.6-1.7-1.7-1.7C809.5,505.5,808.8,506.3,808.8,507.2z
			"/>
		<path class="st4" d="M824.9,511h-2.7v-0.8l0,0c-0.5,0.8-1.4,1.1-2.3,1.1c-2.2,0-3.8-1.9-3.8-4c0-2.2,1.6-4,3.8-4
			c0.9,0,1.8,0.3,2.3,1v-0.7h2.7V511z M818.8,507.3c0,1,0.6,1.7,1.7,1.7s1.7-0.7,1.7-1.7c0-0.9-0.6-1.7-1.7-1.7
			S818.8,506.3,818.8,507.3z"/>
		<path class="st4" d="M829.3,511h-2.7v-12.3h2.7V511z"/>
		<path class="st4" d="M744,527.9L744,527.9c-0.5,0.8-1.4,1.1-2.3,1.1c-2.2,0-3.8-1.9-3.8-4c0-2.2,1.6-4,3.8-4c0.9,0,1.8,0.3,2.3,1
			v-5.4h2.7v12.3H744V527.9z M740.7,525c0,1,0.6,1.7,1.7,1.7s1.7-0.7,1.7-1.7c0-0.9-0.6-1.7-1.7-1.7S740.7,524.1,740.7,525z"/>
		<path class="st4" d="M756.2,525.4h-5.7c0,1.1,0.6,1.7,1.7,1.7c0.6,0,1-0.2,1.3-0.7h2.6c-0.2,0.9-0.7,1.5-1.4,2
			c-0.7,0.4-1.6,0.6-2.4,0.6c-2.5,0-4.4-1.4-4.4-4c0-2.5,1.7-4,4.2-4c2.6,0,4.2,1.6,4.2,4.2L756.2,525.4L756.2,525.4z M753.7,523.9
			c-0.1-0.7-0.8-1.2-1.5-1.2c-0.8,0-1.4,0.4-1.6,1.2H753.7z"/>
		<path class="st4" d="M767.5,523.1c-0.4-0.2-1-0.4-1.4-0.4c-0.3,0-0.8,0.1-0.8,0.5c0,0.5,0.8,0.6,1.2,0.7c1.3,0.3,2.2,0.8,2.2,2.2
			c0,2-1.8,2.8-3.6,2.8c-1.1,0-2.1-0.3-3.1-0.9l1-1.9c0.5,0.4,1.5,0.8,2.1,0.8c0.3,0,0.8-0.2,0.8-0.6c0-0.6-0.8-0.6-1.7-0.8
			c-0.8-0.2-1.7-0.6-1.7-2c0-1.9,1.7-2.7,3.3-2.7c0.9,0,1.7,0.1,2.5,0.5L767.5,523.1z"/>
		<path class="st4" d="M777.8,525.4h-5.7c0,1.1,0.6,1.7,1.7,1.7c0.6,0,1-0.2,1.3-0.7h2.6c-0.2,0.9-0.7,1.5-1.4,2
			c-0.7,0.4-1.6,0.6-2.4,0.6c-2.5,0-4.4-1.4-4.4-4c0-2.5,1.7-4,4.2-4c2.6,0,4.2,1.6,4.2,4.2L777.8,525.4L777.8,525.4z M775.3,523.9
			c-0.1-0.7-0.8-1.2-1.5-1.2c-0.8,0-1.4,0.4-1.6,1.2H775.3z"/>
		<path class="st4" d="M781.8,522.4L781.8,522.4c0.5-0.9,1.4-1.3,2.5-1.3h0.5v2.6c-0.4-0.2-0.7-0.3-1.1-0.3c-1.5,0-1.9,1-1.9,2.3
			v3.1h-2.7v-7.6h2.7V522.4z"/>
		<path class="st4" d="M789.7,525.1l1.8-3.9h3l-4,7.6h-1.7l-4-7.6h3L789.7,525.1z"/>
		<path class="st4" d="M798.1,518.3c0,0.8-0.7,1.5-1.5,1.5s-1.5-0.7-1.5-1.5s0.7-1.5,1.5-1.5C797.4,516.8,798.1,517.4,798.1,518.3z
			 M797.9,528.8h-2.7v-7.6h2.7V528.8z"/>
		<path class="st4" d="M805.2,523.7c-0.4-0.3-0.9-0.5-1.4-0.5c-1,0-1.8,0.8-1.8,1.8c0,1.1,0.8,1.9,1.9,1.9c0.5,0,1-0.2,1.3-0.5v2.3
			c-0.6,0.3-1.2,0.4-1.9,0.4c-2.2,0-4.1-1.7-4.1-4c0-2.4,1.9-4.1,4.2-4.1c0.6,0,1.2,0.1,1.8,0.4V523.7z"/>
		<path class="st4" d="M809.7,518.3c0,0.8-0.7,1.5-1.5,1.5s-1.5-0.7-1.5-1.5s0.7-1.5,1.5-1.5S809.7,517.4,809.7,518.3z M809.5,528.8
			h-2.7v-7.6h2.7V528.8z"/>
		<path class="st4" d="M819.9,525c0,2.6-2.1,4-4.6,4c-2.4,0-4.6-1.4-4.6-4s2.1-4,4.6-4S819.9,522.4,819.9,525z M813.6,525
			c0,1,0.6,1.7,1.7,1.7c1.1,0,1.7-0.7,1.7-1.7c0-0.9-0.6-1.7-1.7-1.7C814.2,523.3,813.6,524.1,813.6,525z"/>
		<path class="st4" d="M826.1,523.1c-0.4-0.2-1-0.4-1.4-0.4c-0.3,0-0.8,0.1-0.8,0.5c0,0.5,0.8,0.6,1.2,0.7c1.3,0.3,2.2,0.8,2.2,2.2
			c0,2-1.8,2.8-3.6,2.8c-1.1,0-2.1-0.3-3.1-0.9l1-1.9c0.5,0.4,1.5,0.8,2.1,0.8c0.3,0,0.8-0.2,0.8-0.6c0-0.6-0.8-0.6-1.7-0.8
			c-0.8-0.2-1.7-0.6-1.7-2c0-1.9,1.7-2.7,3.3-2.7c0.9,0,1.7,0.1,2.5,0.5L826.1,523.1z"/>
		<path class="st4" d="M747.3,541.4c-0.4-0.3-0.9-0.5-1.4-0.5c-1,0-1.8,0.8-1.8,1.8c0,1.1,0.8,1.9,1.9,1.9c0.5,0,1-0.2,1.3-0.5v2.3
			c-0.6,0.3-1.2,0.4-1.9,0.4c-2.2,0-4.1-1.7-4.1-4c0-2.4,1.9-4.1,4.2-4.1c0.6,0,1.2,0.1,1.8,0.4V541.4z"/>
		<path class="st4" d="M757.3,546.5h-2.7v-0.8l0,0c-0.5,0.8-1.4,1.1-2.3,1.1c-2.2,0-3.8-1.9-3.8-4s1.6-4,3.8-4c0.9,0,1.8,0.3,2.3,1
			v-0.7h2.7V546.5z M751.2,542.7c0,1,0.6,1.7,1.7,1.7s1.7-0.7,1.7-1.7c0-0.9-0.6-1.7-1.7-1.7S751.2,541.8,751.2,542.7z"/>
		<path class="st4" d="M762,546.5h-2.7v-5.4h-0.9v-2.2h0.9v-2.3h2.7v2.3h1.5v2.2H762V546.5z"/>
		<path class="st4" d="M772.6,546.5H770v-0.8l0,0c-0.5,0.8-1.4,1.1-2.3,1.1c-2.2,0-3.8-1.9-3.8-4s1.6-4,3.8-4c0.9,0,1.8,0.3,2.3,1
			v-0.7h2.7v7.4H772.6z M766.6,542.7c0,1,0.6,1.7,1.7,1.7s1.7-0.7,1.7-1.7c0-0.9-0.6-1.7-1.7-1.7S766.6,541.8,766.6,542.7z"/>
		<path class="st4" d="M779.4,540.9c-0.4-0.2-1-0.4-1.4-0.4c-0.3,0-0.8,0.1-0.8,0.5c0,0.5,0.8,0.6,1.2,0.7c1.3,0.3,2.2,0.8,2.2,2.2
			c0,2-1.8,2.8-3.6,2.8c-1.1,0-2.1-0.3-3.1-0.9l1-1.9c0.5,0.4,1.5,0.8,2.1,0.8c0.3,0,0.8-0.2,0.8-0.6c0-0.6-0.8-0.6-1.7-0.8
			c-0.8-0.2-1.7-0.6-1.7-2c0-1.9,1.7-2.7,3.3-2.7c0.9,0,1.7,0.1,2.5,0.5L779.4,540.9z"/>
		<path class="st4" d="M784.9,546.5h-2.7v-5.4h-0.9v-2.2h0.9v-2.3h2.7v2.3h1.5v2.2h-1.5V546.5z"/>
		<path class="st4" d="M790,540.2L790,540.2c0.5-0.9,1.4-1.3,2.5-1.3h0.5v2.6c-0.4-0.2-0.7-0.3-1.1-0.3c-1.5,0-1.9,1-1.9,2.3v3.1
			h-2.7V539h2.7V540.2z"/>
		<path class="st4" d="M802.3,546.5h-2.7v-0.8l0,0c-0.5,0.8-1.4,1.1-2.3,1.1c-2.2,0-3.8-1.9-3.8-4s1.6-4,3.8-4c0.9,0,1.8,0.3,2.3,1
			v-0.7h2.7V546.5z M796.2,542.7c0,1,0.6,1.7,1.7,1.7c1.1,0,1.7-0.7,1.7-1.7c0-0.9-0.6-1.7-1.7-1.7
			C796.9,541,796.2,541.8,796.2,542.7z"/>
		<path class="st4" d="M806.8,546.5h-2.7v-12.3h2.7V546.5z"/>
		<path class="st4" d="M816.3,543.2h-5.7c0,1.1,0.6,1.7,1.7,1.7c0.6,0,1-0.2,1.3-0.7h2.6c-0.2,0.9-0.7,1.5-1.4,2
			c-0.7,0.4-1.6,0.6-2.4,0.6c-2.5,0-4.4-1.4-4.4-4c0-2.5,1.7-4,4.2-4c2.6,0,4.2,1.6,4.2,4.2L816.3,543.2L816.3,543.2z M813.8,541.6
			c-0.1-0.7-0.8-1.2-1.5-1.2c-0.8,0-1.4,0.4-1.6,1.2H813.8z"/>
		<path class="st4" d="M822.6,540.9c-0.4-0.2-1-0.4-1.4-0.4c-0.3,0-0.8,0.1-0.8,0.5c0,0.5,0.8,0.6,1.2,0.7c1.3,0.3,2.2,0.8,2.2,2.2
			c0,2-1.8,2.8-3.6,2.8c-1.1,0-2.1-0.3-3.1-0.9l1-1.9c0.5,0.4,1.5,0.8,2.1,0.8c0.3,0,0.8-0.2,0.8-0.6c0-0.6-0.8-0.6-1.7-0.8
			c-0.8-0.2-1.7-0.6-1.7-2c0-1.9,1.7-2.7,3.3-2.7c0.9,0,1.7,0.1,2.5,0.5L822.6,540.9z"/>
	</g>
</g>
<rect id="XMLID_113_" x="661.8" y="592.1" class="st2" width="236.5" height="60"/>
<rect id="XMLID_109_" x="97.7" y="781.1" class="st2" width="222.4" height="74.5"/>
<rect id="XMLID_106_" x="97.7" y="888.9" class="st2" width="222.4" height="57.4"/>
<rect id="XMLID_103_" x="97.7" y="988.2" class="st2" width="222.4" height="57.4"/>
<g>
	<g>
		<path class="st4" d="M106.3,1002.3h4.1c3.1,0,5.7,2.4,5.7,5.6s-2.6,5.6-5.7,5.6h-4.1V1002.3z M109.2,1011h0.7
			c1.7,0,3.2-0.9,3.2-3.1c0-2-1.3-3.1-3.2-3.1h-0.7V1011z"/>
		<path class="st4" d="M120.2,1002.9c0,0.8-0.7,1.5-1.5,1.5s-1.5-0.7-1.5-1.5s0.7-1.5,1.5-1.5S120.2,1002.1,120.2,1002.9z
			 M120,1013.4h-2.7v-7.6h2.7V1013.4z"/>
		<path class="st4" d="M124.5,1007.1L124.5,1007.1c0.5-0.9,1.4-1.3,2.5-1.3h0.5v2.6c-0.4-0.2-0.7-0.3-1.1-0.3c-1.5,0-1.9,1-1.9,2.3
			v3.1h-2.7v-7.6h2.7V1007.1z"/>
		<path class="st4" d="M136.3,1010.1h-5.7c0,1.1,0.6,1.7,1.7,1.7c0.6,0,1-0.2,1.3-0.7h2.6c-0.2,0.9-0.7,1.5-1.4,2
			c-0.7,0.4-1.6,0.6-2.4,0.6c-2.5,0-4.4-1.4-4.4-4c0-2.5,1.7-4,4.2-4c2.6,0,4.2,1.6,4.2,4.2v0.2H136.3z M133.8,1008.5
			c-0.1-0.7-0.8-1.2-1.5-1.2c-0.8,0-1.4,0.4-1.6,1.2H133.8z"/>
		<path class="st4" d="M143,1008.3c-0.4-0.3-0.9-0.5-1.4-0.5c-1,0-1.8,0.8-1.8,1.8c0,1.1,0.8,1.9,1.9,1.9c0.5,0,1-0.2,1.3-0.5v2.3
			c-0.6,0.3-1.2,0.4-1.9,0.4c-2.2,0-4.1-1.7-4.1-4c0-2.4,1.9-4.1,4.2-4.1c0.6,0,1.2,0.1,1.8,0.4V1008.3z"/>
		<path class="st4" d="M147.6,1013.4h-2.7v-5.4H144v-2.2h0.9v-2.3h2.7v2.3h1.5v2.2h-1.5L147.6,1013.4L147.6,1013.4z"/>
		<path class="st4" d="M158.5,1009.6c0,2.6-2.1,4-4.6,4c-2.4,0-4.6-1.4-4.6-4s2.1-4,4.6-4S158.5,1007,158.5,1009.6z M152.2,1009.6
			c0,1,0.6,1.7,1.7,1.7c1.1,0,1.7-0.7,1.7-1.7c0-0.9-0.6-1.7-1.7-1.7C152.9,1007.9,152.2,1008.7,152.2,1009.6z"/>
		<path class="st4" d="M162.4,1007.1L162.4,1007.1c0.5-0.9,1.4-1.3,2.5-1.3h0.5v2.6c-0.4-0.2-0.7-0.3-1.1-0.3c-1.5,0-1.9,1-1.9,2.3
			v3.1h-2.7v-7.6h2.7V1007.1z"/>
		<path class="st4" d="M177.2,1012.6L177.2,1012.6c-0.5,0.8-1.4,1.1-2.3,1.1c-2.2,0-3.8-1.9-3.8-4s1.6-4,3.8-4c0.9,0,1.8,0.3,2.3,1
			v-5.4h2.7v12.3h-2.7V1012.6z M173.8,1009.6c0,1,0.6,1.7,1.7,1.7c1.1,0,1.7-0.7,1.7-1.7c0-0.9-0.6-1.7-1.7-1.7
			C174.5,1007.9,173.8,1008.7,173.8,1009.6z"/>
		<path class="st4" d="M189.3,1010.1h-5.7c0,1.1,0.6,1.7,1.7,1.7c0.6,0,1-0.2,1.3-0.7h2.6c-0.2,0.9-0.7,1.5-1.4,2
			c-0.7,0.4-1.6,0.6-2.4,0.6c-2.5,0-4.4-1.4-4.4-4c0-2.5,1.7-4,4.2-4c2.6,0,4.2,1.6,4.2,4.2v0.2H189.3z M186.9,1008.5
			c-0.1-0.7-0.8-1.2-1.5-1.2c-0.8,0-1.4,0.4-1.6,1.2H186.9z"/>
		<path class="st4" d="M203.9,1013.4h-2.7v-0.8l0,0c-0.5,0.8-1.4,1.1-2.3,1.1c-2.2,0-3.8-1.9-3.8-4s1.6-4,3.8-4c0.9,0,1.8,0.3,2.3,1
			v-0.7h2.7V1013.4z M197.9,1009.6c0,1,0.6,1.7,1.7,1.7c1.1,0,1.7-0.7,1.7-1.7c0-0.9-0.6-1.7-1.7-1.7
			C198.5,1007.9,197.9,1008.7,197.9,1009.6z"/>
		<path class="st4" d="M211.4,1012.6L211.4,1012.6c-0.5,0.8-1.4,1.1-2.3,1.1c-2.2,0-3.8-1.9-3.8-4s1.6-4,3.8-4c0.9,0,1.8,0.3,2.3,1
			v-5.4h2.7v12.3h-2.7V1012.6z M208,1009.6c0,1,0.6,1.7,1.7,1.7s1.7-0.7,1.7-1.7c0-0.9-0.6-1.7-1.7-1.7S208,1008.7,208,1009.6z"/>
		<path class="st4" d="M218.5,1006.8L218.5,1006.8c0.7-0.8,1.4-1.2,2.4-1.2c1.1,0,2,0.4,2.6,1.4c0.5-0.9,1.5-1.4,2.6-1.4
			c1.9,0,2.6,1.3,2.6,3v4.8H226v-3.6c0-0.8,0-2.1-1.1-2.1c-1.2,0-1.3,1.2-1.3,2.1v3.6h-2.7v-3.6c0-0.8,0-2.1-1.2-2.1
			s-1.2,1.3-1.2,2.1v3.6h-2.7v-7.6h2.7V1006.8z"/>
		<path class="st4" d="M233.2,1002.9c0,0.8-0.7,1.5-1.5,1.5s-1.5-0.7-1.5-1.5s0.7-1.5,1.5-1.5S233.2,1002.1,233.2,1002.9z
			 M233.1,1013.4h-2.7v-7.6h2.7V1013.4z"/>
		<path class="st4" d="M237.5,1006.8L237.5,1006.8c0.7-0.9,1.4-1.2,2.5-1.2c2,0,2.9,1.3,2.9,3.1v4.7h-2.7v-3.7c0-0.7,0.1-2-1.2-2
			c-1.1,0-1.4,0.8-1.4,1.8v3.9h-2.7v-7.6h2.7v1H237.5z"/>
		<path class="st4" d="M247.5,1002.9c0,0.8-0.7,1.5-1.5,1.5s-1.5-0.7-1.5-1.5s0.7-1.5,1.5-1.5S247.5,1002.1,247.5,1002.9z
			 M247.3,1013.4h-2.7v-7.6h2.7V1013.4z"/>
		<path class="st4" d="M254.1,1007.8c-0.4-0.2-1-0.4-1.4-0.4c-0.3,0-0.8,0.1-0.8,0.5c0,0.5,0.8,0.6,1.2,0.7c1.3,0.3,2.2,0.8,2.2,2.2
			c0,2-1.8,2.8-3.6,2.8c-1.1,0-2.1-0.3-3.1-0.9l1-1.9c0.5,0.4,1.5,0.8,2.1,0.8c0.3,0,0.8-0.2,0.8-0.6c0-0.6-0.8-0.6-1.7-0.8
			c-0.8-0.2-1.7-0.6-1.7-2c0-1.9,1.7-2.7,3.3-2.7c0.9,0,1.7,0.1,2.5,0.5L254.1,1007.8z"/>
		<path class="st4" d="M259.6,1013.4h-2.7v-5.4H256v-2.2h0.9v-2.3h2.7v2.3h1.5v2.2h-1.5V1013.4z"/>
		<path class="st4" d="M264.7,1007.1L264.7,1007.1c0.5-0.9,1.4-1.3,2.5-1.3h0.5v2.6c-0.4-0.2-0.7-0.3-1.1-0.3c-1.5,0-1.9,1-1.9,2.3
			v3.1H262v-7.6h2.7V1007.1z"/>
		<path class="st4" d="M277,1013.4h-2.7v-0.8l0,0c-0.5,0.8-1.4,1.1-2.3,1.1c-2.2,0-3.8-1.9-3.8-4s1.6-4,3.8-4c0.9,0,1.8,0.3,2.3,1
			v-0.7h2.7V1013.4z M270.9,1009.6c0,1,0.6,1.7,1.7,1.7s1.7-0.7,1.7-1.7c0-0.9-0.6-1.7-1.7-1.7
			C271.5,1007.9,270.9,1008.7,270.9,1009.6z"/>
		<path class="st4" d="M284.2,1008.3c-0.4-0.3-0.9-0.5-1.4-0.5c-1,0-1.8,0.8-1.8,1.8c0,1.1,0.8,1.9,1.9,1.9c0.5,0,1-0.2,1.3-0.5v2.3
			c-0.6,0.3-1.2,0.4-1.9,0.4c-2.2,0-4.1-1.7-4.1-4c0-2.4,1.9-4.1,4.2-4.1c0.6,0,1.2,0.1,1.8,0.4V1008.3z"/>
		<path class="st4" d="M288.7,1002.9c0,0.8-0.7,1.5-1.5,1.5s-1.5-0.7-1.5-1.5s0.7-1.5,1.5-1.5S288.7,1002.1,288.7,1002.9z
			 M288.6,1013.4h-2.7v-7.6h2.7V1013.4z"/>
		<path class="st4" d="M298.9,1009.6c0,2.6-2.1,4-4.6,4c-2.4,0-4.6-1.4-4.6-4s2.1-4,4.6-4S298.9,1007,298.9,1009.6z M292.6,1009.6
			c0,1,0.6,1.7,1.7,1.7s1.7-0.7,1.7-1.7c0-0.9-0.6-1.7-1.7-1.7S292.6,1008.7,292.6,1009.6z M294,1004.7l-1.2-0.9l2.1-2.5l1.6,1.2
			L294,1004.7z"/>
		<path class="st4" d="M302.8,1006.8L302.8,1006.8c0.7-0.9,1.4-1.2,2.5-1.2c2,0,2.9,1.3,2.9,3.1v4.7h-2.7v-3.7c0-0.7,0.1-2-1.2-2
			c-1.1,0-1.4,0.8-1.4,1.8v3.9h-2.7v-7.6h2.7L302.8,1006.8L302.8,1006.8z"/>
		<path class="st4" d="M132.9,1030.4c0,3.2-1.6,4.5-4.4,4.5c-1.7,0-4.1-0.9-4.3-2.9h3c0.1,0.3,0.3,0.5,0.5,0.6s0.5,0.2,0.8,0.2
			c1.4,0,1.7-0.9,1.7-2.2v-0.4c-0.7,0.7-1.4,1-2.4,1c-2.2,0-3.7-1.7-3.7-3.9c0-2.2,1.6-4.1,3.9-4.1c0.9,0,1.7,0.3,2.2,1l0,0v-0.8
			h2.7V1030.4z M126.9,1027.3c0,1,0.6,1.7,1.7,1.7s1.7-0.7,1.7-1.7c0-0.9-0.6-1.7-1.7-1.7C127.5,1025.6,126.9,1026.4,126.9,1027.3z"
			/>
		<path class="st4" d="M142.4,1027.8h-5.7c0,1.1,0.6,1.7,1.7,1.7c0.6,0,1-0.2,1.3-0.7h2.6c-0.2,0.9-0.7,1.5-1.4,2
			c-0.7,0.4-1.6,0.6-2.4,0.6c-2.5,0-4.4-1.4-4.4-4c0-2.5,1.7-4,4.2-4c2.6,0,4.2,1.6,4.2,4.2v0.2H142.4z M139.9,1026.2
			c-0.1-0.7-0.8-1.2-1.5-1.2c-0.8,0-1.4,0.4-1.6,1.2H139.9z"/>
		<path class="st4" d="M152.2,1027.4c0,2.6-2.1,4-4.6,4c-2.4,0-4.6-1.4-4.6-4s2.1-4,4.6-4C150.1,1023.3,152.2,1024.8,152.2,1027.4z
			 M145.9,1027.4c0,1,0.6,1.7,1.7,1.7c1.1,0,1.7-0.7,1.7-1.7c0-0.9-0.6-1.7-1.7-1.7C146.5,1025.6,145.9,1026.4,145.9,1027.4z"/>
		<path class="st4" d="M161.7,1030.4c0,3.2-1.6,4.5-4.4,4.5c-1.7,0-4.1-0.9-4.3-2.9h3c0.1,0.3,0.3,0.5,0.5,0.6s0.5,0.2,0.8,0.2
			c1.4,0,1.7-0.9,1.7-2.2v-0.4c-0.7,0.7-1.4,1-2.4,1c-2.2,0-3.7-1.7-3.7-3.9c0-2.2,1.6-4.1,3.9-4.1c0.9,0,1.7,0.3,2.2,1l0,0v-0.8
			h2.7V1030.4z M155.7,1027.3c0,1,0.6,1.7,1.7,1.7c1.1,0,1.7-0.7,1.7-1.7c0-0.9-0.6-1.7-1.7-1.7
			C156.3,1025.6,155.7,1026.4,155.7,1027.3z"/>
		<path class="st4" d="M166.1,1024.8L166.1,1024.8c0.5-0.9,1.4-1.3,2.5-1.3h0.5v2.6c-0.4-0.2-0.7-0.3-1.1-0.3c-1.5,0-1.9,1-1.9,2.3
			v3.1h-2.7v-7.6h2.7V1024.8z"/>
		<path class="st4" d="M178.4,1031.1h-2.7v-0.8l0,0c-0.5,0.8-1.4,1.1-2.3,1.1c-2.2,0-3.8-1.9-3.8-4c0-2.2,1.6-4,3.8-4
			c0.9,0,1.8,0.3,2.3,1v-0.7h2.7V1031.1z M172.3,1027.4c0,1,0.6,1.7,1.7,1.7c1.1,0,1.7-0.7,1.7-1.7c0-0.9-0.6-1.7-1.7-1.7
			C173,1025.6,172.3,1026.4,172.3,1027.4z M173.9,1022.4l-1.2-0.9l2.1-2.5l1.6,1.2L173.9,1022.4z"/>
		<path class="st4" d="M183,1031.1h-2.7v-5.4h-0.9v-2.2h0.9v-1c0-1,0-1.8,0.8-2.7c0.7-0.8,1.6-1.2,2.6-1.2c0.4,0,0.8,0.1,1.2,0.3
			v2.3c-0.3-0.1-0.6-0.3-0.9-0.3c-0.7,0-0.9,0.4-0.9,1.3v1.2h1.9v2.2h-2V1031.1z M188.6,1020.7c0,0.8-0.7,1.5-1.5,1.5
			s-1.5-0.7-1.5-1.5s0.7-1.5,1.5-1.5S188.6,1019.8,188.6,1020.7z M188.4,1031.1h-2.7v-7.6h2.7V1031.1z"/>
		<path class="st4" d="M195.7,1026c-0.4-0.3-0.9-0.5-1.4-0.5c-1,0-1.8,0.8-1.8,1.8c0,1.1,0.8,1.9,1.9,1.9c0.5,0,1-0.2,1.3-0.5v2.3
			c-0.6,0.3-1.2,0.4-1.9,0.4c-2.2,0-4.1-1.7-4.1-4c0-2.4,1.9-4.1,4.2-4.1c0.6,0,1.2,0.1,1.8,0.4V1026z"/>
		<path class="st4" d="M205.6,1031.1h-2.7v-0.8l0,0c-0.5,0.8-1.4,1.1-2.3,1.1c-2.2,0-3.8-1.9-3.8-4c0-2.2,1.6-4,3.8-4
			c0.9,0,1.8,0.3,2.3,1v-0.7h2.7V1031.1z M199.6,1027.4c0,1,0.6,1.7,1.7,1.7s1.7-0.7,1.7-1.7c0-0.9-0.6-1.7-1.7-1.7
			S199.6,1026.4,199.6,1027.4z"/>
		<path class="st4" d="M211.4,1023.6h3.1l2,3.9l2-3.9h3.1l-6.1,11.4h-3l2.6-4.8L211.4,1023.6z"/>
		<path class="st4" d="M235.2,1023.7c-0.6-0.8-1.6-1.2-2.5-1.2c-1.8,0-3,1.4-3,3.1c0,1.8,1.2,3,3,3c0.9,0,1.9-0.5,2.5-1.2v3.5
			c-1,0.3-1.7,0.5-2.6,0.5c-1.6,0-3-0.6-4.2-1.6c-1.2-1.1-1.8-2.6-1.8-4.2c0-1.5,0.6-3,1.6-4.1c1.1-1.1,2.7-1.8,4.2-1.8
			c0.9,0,1.8,0.2,2.6,0.6v3.4H235.2z"/>
		<path class="st4" d="M245.2,1031.1h-2.7v-0.8l0,0c-0.5,0.8-1.4,1.1-2.3,1.1c-2.2,0-3.8-1.9-3.8-4c0-2.2,1.6-4,3.8-4
			c0.9,0,1.8,0.3,2.3,1v-0.7h2.7V1031.1z M239.2,1027.4c0,1,0.6,1.7,1.7,1.7c1.1,0,1.7-0.7,1.7-1.7c0-0.9-0.6-1.7-1.7-1.7
			C239.8,1025.6,239.2,1026.4,239.2,1027.4z"/>
		<path class="st4" d="M250,1031.1h-2.7v-5.4h-0.9v-2.2h0.9v-2.3h2.7v2.3h1.5v2.2H250V1031.1z"/>
		<path class="st4" d="M260.6,1031.1h-2.7v-0.8l0,0c-0.5,0.8-1.4,1.1-2.3,1.1c-2.2,0-3.8-1.9-3.8-4c0-2.2,1.6-4,3.8-4
			c0.9,0,1.8,0.3,2.3,1v-0.7h2.7V1031.1z M254.6,1027.4c0,1,0.6,1.7,1.7,1.7s1.7-0.7,1.7-1.7c0-0.9-0.6-1.7-1.7-1.7
			C255.2,1025.6,254.6,1026.4,254.6,1027.4z"/>
		<path class="st4" d="M267.4,1025.5c-0.4-0.2-1-0.4-1.4-0.4c-0.3,0-0.8,0.1-0.8,0.5c0,0.5,0.8,0.6,1.2,0.7c1.3,0.3,2.2,0.8,2.2,2.2
			c0,2-1.8,2.8-3.6,2.8c-1.1,0-2.1-0.3-3.1-0.9l1-1.9c0.5,0.4,1.5,0.8,2.1,0.8c0.3,0,0.8-0.2,0.8-0.6c0-0.6-0.8-0.6-1.7-0.8
			c-0.8-0.2-1.7-0.6-1.7-2c0-1.9,1.7-2.7,3.3-2.7c0.9,0,1.7,0.1,2.5,0.5L267.4,1025.5z"/>
		<path class="st4" d="M272.9,1031.1h-2.7v-5.4h-0.9v-2.2h0.9v-2.3h2.7v2.3h1.5v2.2h-1.5V1031.1z"/>
		<path class="st4" d="M278,1024.8L278,1024.8c0.5-0.9,1.4-1.3,2.5-1.3h0.5v2.6c-0.4-0.2-0.7-0.3-1.1-0.3c-1.5,0-1.9,1-1.9,2.3v3.1
			h-2.7v-7.6h2.7V1024.8z"/>
		<path class="st4" d="M290.3,1027.4c0,2.6-2.1,4-4.6,4c-2.4,0-4.6-1.4-4.6-4s2.1-4,4.6-4S290.3,1024.8,290.3,1027.4z M284,1027.4
			c0,1,0.6,1.7,1.7,1.7s1.7-0.7,1.7-1.7c0-0.9-0.6-1.7-1.7-1.7C284.6,1025.6,284,1026.4,284,1027.4z"/>
	</g>
</g>
<rect id="XMLID_493_" x="378.5" y="298.6" class="st2" width="236.5" height="51.1"/>
<g>
	<g>
		<path class="st4" d="M431.2,307.7v7.5c0,2.3-1.2,3.9-3.7,3.9c-1.2,0-2.2-0.6-2.9-1.6l1.7-1.8c0.3,0.4,0.8,0.9,1.2,0.9
			c0.9,0,0.8-1,0.8-1.6v-7.3H431.2z"/>
		<path class="st4" d="M440.7,315.5H435c0,1.1,0.6,1.7,1.7,1.7c0.6,0,1-0.2,1.3-0.7h2.6c-0.2,0.9-0.7,1.5-1.4,2
			c-0.7,0.4-1.6,0.6-2.4,0.6c-2.5,0-4.4-1.4-4.4-4c0-2.5,1.7-4,4.2-4c2.6,0,4.2,1.6,4.2,4.2v0.2H440.7z M438.2,313.9
			c-0.1-0.7-0.8-1.2-1.5-1.2c-0.8,0-1.4,0.4-1.6,1.2H438.2z"/>
		<path class="st4" d="M444.9,318.8h-2.7v-5.4h-0.9v-2.2h0.9v-1c0-1,0-1.8,0.8-2.7c0.7-0.8,1.6-1.2,2.6-1.2c0.4,0,0.8,0.1,1.2,0.3
			v2.3c-0.3-0.1-0.6-0.3-0.9-0.3c-0.7,0-0.9,0.4-0.9,1.3v1.2h1.9v2.2H445v5.5H444.9z"/>
		<path class="st4" d="M456,318.8h-2.7V318l0,0c-0.5,0.8-1.4,1.1-2.3,1.1c-2.2,0-3.8-1.9-3.8-4s1.6-4,3.8-4c0.9,0,1.8,0.3,2.3,1
			v-0.7h2.7V318.8z M449.9,315c0,1,0.6,1.7,1.7,1.7s1.7-0.7,1.7-1.7c0-0.9-0.6-1.7-1.7-1.7S449.9,314.1,449.9,315z"/>
		<path class="st4" d="M460.7,318.8H458v-5.4h-0.9v-2.2h0.9V309h2.7v2.3h1.5v2.2h-1.5V318.8z"/>
		<path class="st4" d="M465.7,311.2v4c0,1,0.2,1.6,1.3,1.6s1.3-0.7,1.3-1.6v-4h2.7v4.6c0,2.5-1.8,3.3-4,3.3s-4-0.8-4-3.3v-4.6H465.7
			z"/>
		<path class="st4" d="M475.5,312.5L475.5,312.5c0.5-0.9,1.4-1.3,2.5-1.3h0.5v2.6c-0.4-0.2-0.7-0.3-1.1-0.3c-1.5,0-1.9,1-1.9,2.3
			v3.1h-2.7v-7.6h2.7V312.5z"/>
		<path class="st4" d="M487.8,318.8h-2.7V318l0,0c-0.5,0.8-1.4,1.1-2.3,1.1c-2.2,0-3.8-1.9-3.8-4s1.6-4,3.8-4c0.9,0,1.8,0.3,2.3,1
			v-0.7h2.7V318.8z M481.7,315c0,1,0.6,1.7,1.7,1.7s1.7-0.7,1.7-1.7c0-0.9-0.6-1.7-1.7-1.7C482.4,313.3,481.7,314.1,481.7,315z"/>
		<path class="st4" d="M500.3,318L500.3,318c-0.5,0.8-1.4,1.1-2.3,1.1c-2.2,0-3.8-1.9-3.8-4s1.6-4,3.8-4c0.9,0,1.8,0.3,2.3,1v-5.4
			h2.7V319h-2.7V318z M497,315c0,1,0.6,1.7,1.7,1.7s1.7-0.7,1.7-1.7c0-0.9-0.6-1.7-1.7-1.7S497,314.1,497,315z"/>
		<path class="st4" d="M512.5,315.5h-5.7c0,1.1,0.6,1.7,1.7,1.7c0.6,0,1-0.2,1.3-0.7h2.6c-0.2,0.9-0.7,1.5-1.4,2
			c-0.7,0.4-1.6,0.6-2.4,0.6c-2.5,0-4.4-1.4-4.4-4c0-2.5,1.7-4,4.2-4c2.6,0,4.2,1.6,4.2,4.2L512.5,315.5L512.5,315.5z M510,313.9
			c-0.1-0.7-0.8-1.2-1.5-1.2c-0.8,0-1.4,0.4-1.6,1.2H510z"/>
		<path class="st4" d="M527.1,318.1c0,3.2-1.6,4.5-4.4,4.5c-1.7,0-4.1-0.9-4.3-2.9h3c0.1,0.3,0.3,0.5,0.5,0.6s0.5,0.2,0.8,0.2
			c1.4,0,1.7-0.9,1.7-2.2v-0.4c-0.7,0.7-1.4,1-2.4,1c-2.2,0-3.7-1.7-3.7-3.9c0-2.2,1.6-4.1,3.9-4.1c0.9,0,1.7,0.3,2.2,1l0,0v-0.8
			h2.7V318.1z M521,315c0,1,0.6,1.7,1.7,1.7c1.1,0,1.7-0.7,1.7-1.7c0-0.9-0.6-1.7-1.7-1.7C521.7,313.3,521,314,521,315z"/>
		<path class="st4" d="M536.6,315.5h-5.7c0,1.1,0.6,1.7,1.7,1.7c0.6,0,1-0.2,1.3-0.7h2.6c-0.2,0.9-0.7,1.5-1.4,2
			c-0.7,0.4-1.6,0.6-2.4,0.6c-2.5,0-4.4-1.4-4.4-4c0-2.5,1.7-4,4.2-4c2.6,0,4.2,1.6,4.2,4.2L536.6,315.5L536.6,315.5z M534.1,313.9
			c-0.1-0.7-0.8-1.2-1.5-1.2c-0.8,0-1.4,0.4-1.6,1.2H534.1z"/>
		<path class="st4" d="M542.8,313.2c-0.4-0.2-1-0.4-1.4-0.4c-0.3,0-0.8,0.1-0.8,0.5c0,0.5,0.8,0.6,1.2,0.7c1.3,0.3,2.2,0.8,2.2,2.2
			c0,2-1.8,2.8-3.6,2.8c-1.1,0-2.1-0.3-3.1-0.9l1-1.9c0.5,0.4,1.5,0.8,2.1,0.8c0.3,0,0.8-0.2,0.8-0.6c0-0.6-0.8-0.6-1.7-0.8
			c-0.8-0.2-1.7-0.6-1.7-2c0-1.9,1.7-2.7,3.3-2.7c0.9,0,1.7,0.1,2.5,0.5L542.8,313.2z"/>
		<path class="st4" d="M548.3,318.8h-2.7v-5.4h-0.9v-2.2h0.9V309h2.7v2.3h1.5v2.2h-1.5V318.8z"/>
		<path class="st4" d="M553.5,308.3c0,0.8-0.7,1.5-1.5,1.5s-1.5-0.7-1.5-1.5s0.7-1.5,1.5-1.5C552.9,306.8,553.5,307.5,553.5,308.3z
			 M553.4,318.8h-2.7v-7.6h2.7V318.8z"/>
		<path class="st4" d="M563.7,315c0,2.6-2.1,4-4.6,4c-2.4,0-4.6-1.4-4.6-4s2.1-4,4.6-4S563.7,312.4,563.7,315z M557.4,315
			c0,1,0.6,1.7,1.7,1.7s1.7-0.7,1.7-1.7c0-0.9-0.6-1.7-1.7-1.7S557.4,314.1,557.4,315z M558.9,310.1l-1.2-0.9l2.1-2.5l1.6,1.2
			L558.9,310.1z"/>
		<path class="st4" d="M567.6,312.2L567.6,312.2c0.7-0.9,1.4-1.2,2.5-1.2c2,0,2.9,1.3,2.9,3.1v4.7h-2.7v-3.7c0-0.7,0.1-2-1.2-2
			c-1.1,0-1.4,0.8-1.4,1.8v3.9H565v-7.6h2.7L567.6,312.2L567.6,312.2z"/>
		<path class="st4" d="M472.3,331.4c-0.4-0.3-0.9-0.5-1.4-0.5c-1,0-1.8,0.8-1.8,1.8c0,1.1,0.8,1.9,1.9,1.9c0.5,0,1-0.2,1.3-0.5v2.3
			c-0.6,0.3-1.2,0.4-1.9,0.4c-2.2,0-4.1-1.7-4.1-4c0-2.4,1.9-4.1,4.2-4.1c0.6,0,1.2,0.1,1.8,0.4V331.4z"/>
		<path class="st4" d="M482.3,336.5h-2.7v-0.8l0,0c-0.5,0.8-1.4,1.1-2.3,1.1c-2.2,0-3.8-1.9-3.8-4s1.6-4,3.8-4c0.9,0,1.8,0.3,2.3,1
			V329h2.7V336.5z M476.2,332.8c0,1,0.6,1.7,1.7,1.7s1.7-0.7,1.7-1.7c0-0.9-0.6-1.7-1.7-1.7C476.8,331,476.2,331.8,476.2,332.8z"/>
		<path class="st4" d="M487,336.5h-2.7v-5.4h-0.9V329h0.9v-2.3h2.7v2.3h1.5v2.2H487V336.5z"/>
		<path class="st4" d="M497.6,336.5H495v-0.8l0,0c-0.5,0.8-1.4,1.1-2.3,1.1c-2.2,0-3.8-1.9-3.8-4s1.6-4,3.8-4c0.9,0,1.8,0.3,2.3,1
			V329h2.7v7.5H497.6z M491.6,332.8c0,1,0.6,1.7,1.7,1.7s1.7-0.7,1.7-1.7c0-0.9-0.6-1.7-1.7-1.7S491.6,331.8,491.6,332.8z"/>
		<path class="st4" d="M504.4,330.9c-0.4-0.2-1-0.4-1.4-0.4c-0.3,0-0.8,0.1-0.8,0.5c0,0.5,0.8,0.6,1.2,0.7c1.3,0.3,2.2,0.8,2.2,2.2
			c0,2-1.8,2.8-3.6,2.8c-1.1,0-2.1-0.3-3.1-0.9l1-1.9c0.5,0.4,1.5,0.8,2.1,0.8c0.3,0,0.8-0.2,0.8-0.6c0-0.6-0.8-0.6-1.7-0.8
			c-0.8-0.2-1.7-0.6-1.7-2c0-1.9,1.7-2.7,3.3-2.7c0.9,0,1.7,0.1,2.5,0.5L504.4,330.9z"/>
		<path class="st4" d="M510,336.5h-2.7v-5.4h-0.9V329h0.9v-2.3h2.7v2.3h1.5v2.2H510V336.5z"/>
		<path class="st4" d="M515,330.2L515,330.2c0.5-0.9,1.4-1.3,2.5-1.3h0.5v2.6c-0.4-0.2-0.7-0.3-1.1-0.3c-1.5,0-1.9,1-1.9,2.3v3.1
			h-2.7V329h2.7V330.2z"/>
		<path class="st4" d="M527.3,336.5h-2.7v-0.8l0,0c-0.5,0.8-1.4,1.1-2.3,1.1c-2.2,0-3.8-1.9-3.8-4s1.6-4,3.8-4c0.9,0,1.8,0.3,2.3,1
			V329h2.7V336.5z M521.3,332.8c0,1,0.6,1.7,1.7,1.7s1.7-0.7,1.7-1.7c0-0.9-0.6-1.7-1.7-1.7S521.3,331.8,521.3,332.8z"/>
		<path class="st4" d="M531.8,336.5h-2.7v-12.3h2.7V336.5z"/>
	</g>
</g>
<g>
	<g>
		<path class="st4" d="M139,902.7v7.5c0,2.3-1.2,3.9-3.7,3.9c-1.2,0-2.2-0.6-2.9-1.6l1.7-1.8c0.3,0.4,0.8,0.9,1.2,0.9
			c0.9,0,0.8-1,0.8-1.6v-7.3L139,902.7L139,902.7z"/>
		<path class="st4" d="M148.6,910.5h-5.7c0,1.1,0.6,1.7,1.7,1.7c0.6,0,1-0.2,1.3-0.7h2.6c-0.2,0.9-0.7,1.5-1.4,2
			c-0.7,0.4-1.6,0.6-2.4,0.6c-2.5,0-4.4-1.4-4.4-4c0-2.5,1.7-4,4.2-4c2.6,0,4.2,1.6,4.2,4.2v0.2H148.6z M146.1,909
			c-0.1-0.7-0.8-1.2-1.5-1.2c-0.8,0-1.4,0.4-1.6,1.2H146.1z"/>
		<path class="st4" d="M152.8,913.8h-2.7v-5.4h-0.9v-2.2h0.9v-1c0-1,0-1.8,0.8-2.7c0.7-0.8,1.6-1.2,2.6-1.2c0.4,0,0.8,0.1,1.2,0.3
			v2.3c-0.3-0.1-0.6-0.3-0.9-0.3c-0.7,0-0.9,0.4-0.9,1.3v1.2h1.9v2.2h-1.9v5.5H152.8z"/>
		<path class="st4" d="M163.8,913.8h-2.7V913l0,0c-0.5,0.8-1.4,1.1-2.3,1.1c-2.2,0-3.8-1.9-3.8-4c0-2.2,1.6-4,3.8-4
			c0.9,0,1.8,0.3,2.3,1v-0.7h2.7V913.8z M157.8,910.1c0,1,0.6,1.7,1.7,1.7c1.1,0,1.7-0.7,1.7-1.7c0-0.9-0.6-1.7-1.7-1.7
			C158.4,908.4,157.8,909.1,157.8,910.1z"/>
		<path class="st4" d="M168.5,913.8h-2.7v-5.4H165v-2.2h0.9V904h2.7v2.3h1.5v2.2h-1.5L168.5,913.8L168.5,913.8z"/>
		<path class="st4" d="M173.6,906.3v4c0,1,0.2,1.6,1.3,1.6s1.3-0.7,1.3-1.6v-4h2.7v4.6c0,2.5-1.8,3.3-4,3.3c-2.3,0-4-0.8-4-3.3v-4.6
			H173.6z"/>
		<path class="st4" d="M183.3,907.5L183.3,907.5c0.5-0.9,1.4-1.3,2.5-1.3h0.5v2.6c-0.4-0.2-0.7-0.3-1.1-0.3c-1.5,0-1.9,1-1.9,2.3
			v3.1h-2.7v-7.6h2.7V907.5z"/>
		<path class="st4" d="M195.6,913.8h-2.7V913l0,0c-0.5,0.8-1.4,1.1-2.3,1.1c-2.2,0-3.8-1.9-3.8-4c0-2.2,1.6-4,3.8-4
			c0.9,0,1.8,0.3,2.3,1v-0.7h2.7V913.8z M189.6,910.1c0,1,0.6,1.7,1.7,1.7s1.7-0.7,1.7-1.7c0-0.9-0.6-1.7-1.7-1.7
			S189.6,909.1,189.6,910.1z"/>
		<path class="st4" d="M208.2,913L208.2,913c-0.5,0.8-1.4,1.1-2.3,1.1c-2.2,0-3.8-1.9-3.8-4c0-2.2,1.6-4,3.8-4c0.9,0,1.8,0.3,2.3,1
			v-5.4h2.7V914h-2.7V913z M204.8,910.1c0,1,0.6,1.7,1.7,1.7c1.1,0,1.7-0.7,1.7-1.7c0-0.9-0.6-1.7-1.7-1.7
			C205.5,908.4,204.8,909.1,204.8,910.1z"/>
		<path class="st4" d="M220.3,910.5h-5.7c0,1.1,0.6,1.7,1.7,1.7c0.6,0,1-0.2,1.3-0.7h2.6c-0.2,0.9-0.7,1.5-1.4,2
			c-0.7,0.4-1.6,0.6-2.4,0.6c-2.5,0-4.4-1.4-4.4-4c0-2.5,1.7-4,4.2-4c2.6,0,4.2,1.6,4.2,4.2v0.2H220.3z M217.8,909
			c-0.1-0.7-0.8-1.2-1.5-1.2c-0.8,0-1.4,0.4-1.6,1.2H217.8z"/>
		<path class="st4" d="M235,913.1c0,3.2-1.6,4.5-4.4,4.5c-1.7,0-4.1-0.9-4.3-2.9h3c0.1,0.3,0.3,0.5,0.5,0.6s0.5,0.2,0.8,0.2
			c1.4,0,1.7-0.9,1.7-2.2V913c-0.7,0.7-1.4,1-2.4,1c-2.2,0-3.7-1.7-3.7-3.9s1.6-4.1,3.9-4.1c0.9,0,1.7,0.3,2.2,1l0,0v-0.8h2.7V913.1
			z M228.9,910c0,1,0.6,1.7,1.7,1.7c1.1,0,1.7-0.7,1.7-1.7c0-0.9-0.6-1.7-1.7-1.7S228.9,909.1,228.9,910z"/>
		<path class="st4" d="M244.4,910.5h-5.7c0,1.1,0.6,1.7,1.7,1.7c0.6,0,1-0.2,1.3-0.7h2.6c-0.2,0.9-0.7,1.5-1.4,2
			c-0.7,0.4-1.6,0.6-2.4,0.6c-2.5,0-4.4-1.4-4.4-4c0-2.5,1.7-4,4.2-4c2.6,0,4.2,1.6,4.2,4.2v0.2H244.4z M241.9,909
			c-0.1-0.7-0.8-1.2-1.5-1.2c-0.8,0-1.4,0.4-1.6,1.2H241.9z"/>
		<path class="st4" d="M250.7,908.2c-0.4-0.2-1-0.4-1.4-0.4c-0.3,0-0.8,0.1-0.8,0.5c0,0.5,0.8,0.6,1.2,0.7c1.3,0.3,2.2,0.8,2.2,2.2
			c0,2-1.8,2.8-3.6,2.8c-1.1,0-2.1-0.3-3.1-0.9l1-1.9c0.5,0.4,1.5,0.8,2.1,0.8c0.3,0,0.8-0.2,0.8-0.6c0-0.6-0.8-0.6-1.7-0.8
			c-0.8-0.2-1.7-0.6-1.7-2c0-1.9,1.7-2.7,3.3-2.7c0.9,0,1.7,0.1,2.5,0.5L250.7,908.2z"/>
		<path class="st4" d="M256.2,913.8h-2.7v-5.4h-0.9v-2.2h0.9V904h2.7v2.3h1.5v2.2h-1.5V913.8z"/>
		<path class="st4" d="M261.4,903.4c0,0.8-0.7,1.5-1.5,1.5s-1.5-0.7-1.5-1.5s0.7-1.5,1.5-1.5C260.7,901.9,261.4,902.5,261.4,903.4z
			 M261.2,913.8h-2.7v-7.6h2.7V913.8z"/>
		<path class="st4" d="M271.6,910.1c0,2.6-2.1,4-4.6,4c-2.4,0-4.6-1.4-4.6-4s2.1-4,4.6-4S271.6,907.5,271.6,910.1z M265.3,910.1
			c0,1,0.6,1.7,1.7,1.7s1.7-0.7,1.7-1.7c0-0.9-0.6-1.7-1.7-1.7S265.3,909.1,265.3,910.1z M266.7,905.1l-1.2-0.9l2.1-2.5l1.6,1.2
			L266.7,905.1z"/>
		<path class="st4" d="M275.5,907.2L275.5,907.2c0.7-0.9,1.4-1.2,2.5-1.2c2,0,2.9,1.3,2.9,3.1v4.7h-2.7v-3.7c0-0.7,0.1-2-1.2-2
			c-1.1,0-1.4,0.8-1.4,1.8v3.9h-2.7v-7.6h2.7L275.5,907.2L275.5,907.2z"/>
		<path class="st4" d="M180.2,926.5c-0.4-0.3-0.9-0.5-1.4-0.5c-1,0-1.8,0.8-1.8,1.8c0,1.1,0.8,1.9,1.9,1.9c0.5,0,1-0.2,1.3-0.5v2.3
			c-0.6,0.3-1.2,0.4-1.9,0.4c-2.2,0-4.1-1.7-4.1-4c0-2.4,1.9-4.1,4.2-4.1c0.6,0,1.2,0.1,1.8,0.4V926.5z"/>
		<path class="st4" d="M190.1,931.6h-2.7v-0.8l0,0c-0.5,0.8-1.4,1.1-2.3,1.1c-2.2,0-3.8-1.9-3.8-4s1.6-4,3.8-4c0.9,0,1.8,0.3,2.3,1
			V924h2.7V931.6z M184.1,927.8c0,1,0.6,1.7,1.7,1.7c1.1,0,1.7-0.7,1.7-1.7c0-0.9-0.6-1.7-1.7-1.7
			C184.7,926.1,184.1,926.9,184.1,927.8z"/>
		<path class="st4" d="M194.8,931.6h-2.7v-5.4h-0.9V924h0.9v-2.3h2.7v2.3h1.5v2.2h-1.5V931.6z"/>
		<path class="st4" d="M205.5,931.6h-2.7v-0.8l0,0c-0.5,0.8-1.4,1.1-2.3,1.1c-2.2,0-3.8-1.9-3.8-4s1.6-4,3.8-4c0.9,0,1.8,0.3,2.3,1
			V924h2.7V931.6z M199.5,927.8c0,1,0.6,1.7,1.7,1.7c1.1,0,1.7-0.7,1.7-1.7c0-0.9-0.6-1.7-1.7-1.7S199.5,926.9,199.5,927.8z"/>
		<path class="st4" d="M212.3,925.9c-0.4-0.2-1-0.4-1.4-0.4c-0.3,0-0.8,0.1-0.8,0.5c0,0.5,0.8,0.6,1.2,0.7c1.3,0.3,2.2,0.8,2.2,2.2
			c0,2-1.8,2.8-3.6,2.8c-1.1,0-2.1-0.3-3.1-0.9l1-1.9c0.5,0.4,1.5,0.8,2.1,0.8c0.3,0,0.8-0.2,0.8-0.6c0-0.6-0.8-0.6-1.7-0.8
			c-0.8-0.2-1.7-0.6-1.7-2c0-1.9,1.7-2.7,3.3-2.7c0.9,0,1.7,0.1,2.5,0.5L212.3,925.9z"/>
		<path class="st4" d="M217.8,931.6h-2.7v-5.4h-0.9V924h0.9v-2.3h2.7v2.3h1.5v2.2h-1.5V931.6z"/>
		<path class="st4" d="M222.9,925.2L222.9,925.2c0.5-0.9,1.4-1.3,2.5-1.3h0.5v2.6c-0.4-0.2-0.7-0.3-1.1-0.3c-1.5,0-1.9,1-1.9,2.3
			v3.1h-2.7V924h2.7V925.2z"/>
		<path class="st4" d="M235.2,931.6h-2.7v-0.8l0,0c-0.5,0.8-1.4,1.1-2.3,1.1c-2.2,0-3.8-1.9-3.8-4s1.6-4,3.8-4c0.9,0,1.8,0.3,2.3,1
			V924h2.7V931.6z M229.1,927.8c0,1,0.6,1.7,1.7,1.7c1.1,0,1.7-0.7,1.7-1.7c0-0.9-0.6-1.7-1.7-1.7
			C229.7,926.1,229.1,926.9,229.1,927.8z"/>
		<path class="st4" d="M239.6,931.6H237v-12.3h2.7L239.6,931.6L239.6,931.6z"/>
	</g>
</g>
<rect id="XMLID_94_" x="661.8" y="394.9" class="st2" width="236.5" height="57.2"/>
<g>
	<g>
		<path class="st4" d="M680.5,419h-2.9v-8.7h-2.4v-2.5h7.7v2.5h-2.4L680.5,419L680.5,419z"/>
		<path class="st4" d="M690.5,415.7h-5.7c0,1.1,0.6,1.7,1.7,1.7c0.6,0,1-0.2,1.3-0.7h2.6c-0.2,0.9-0.7,1.5-1.4,2
			c-0.7,0.4-1.6,0.6-2.4,0.6c-2.5,0-4.4-1.4-4.4-4c0-2.5,1.7-4,4.2-4c2.6,0,4.2,1.6,4.2,4.2L690.5,415.7L690.5,415.7z M686.1,410.3
			l-1.2-0.9l2.1-2.5l1.6,1.2L686.1,410.3z M688,414.1c-0.1-0.7-0.8-1.2-1.5-1.2c-0.8,0-1.4,0.4-1.6,1.2H688z"/>
		<path class="st4" d="M697.2,413.9c-0.4-0.3-0.9-0.5-1.4-0.5c-1,0-1.8,0.8-1.8,1.8c0,1.1,0.8,1.9,1.9,1.9c0.5,0,1-0.2,1.3-0.5v2.3
			c-0.6,0.3-1.2,0.4-1.9,0.4c-2.2,0-4.1-1.7-4.1-4c0-2.4,1.9-4.1,4.2-4.1c0.6,0,1.2,0.1,1.8,0.4V413.9z"/>
		<path class="st4" d="M701.6,412.4L701.6,412.4c0.7-0.9,1.4-1.2,2.5-1.2c2,0,2.9,1.3,2.9,3.1v4.7h-2.7v-3.7c0-0.7,0.1-2-1.2-2
			c-1.1,0-1.4,0.8-1.4,1.8v3.9H699v-7.6h2.7L701.6,412.4L701.6,412.4z"/>
		<path class="st4" d="M711.5,408.5c0,0.8-0.7,1.5-1.5,1.5s-1.5-0.7-1.5-1.5s0.7-1.5,1.5-1.5S711.5,407.7,711.5,408.5z M711.3,419
			h-2.7v-7.6h2.7V419z"/>
		<path class="st4" d="M718.6,413.9c-0.4-0.3-0.9-0.5-1.4-0.5c-1,0-1.8,0.8-1.8,1.8c0,1.1,0.8,1.9,1.9,1.9c0.5,0,1-0.2,1.3-0.5v2.3
			c-0.6,0.3-1.2,0.4-1.9,0.4c-2.2,0-4.1-1.7-4.1-4c0-2.4,1.9-4.1,4.2-4.1c0.6,0,1.2,0.1,1.8,0.4V413.9z"/>
		<path class="st4" d="M728.8,415.2c0,2.6-2.1,4-4.6,4c-2.4,0-4.6-1.4-4.6-4s2.1-4,4.6-4S728.8,412.7,728.8,415.2z M722.5,415.2
			c0,1,0.6,1.7,1.7,1.7s1.7-0.7,1.7-1.7c0-0.9-0.6-1.7-1.7-1.7S722.5,414.3,722.5,415.2z"/>
		<path class="st4" d="M740.8,418.2L740.8,418.2c-0.5,0.8-1.4,1.1-2.3,1.1c-2.2,0-3.8-1.9-3.8-4s1.6-4,3.8-4c0.9,0,1.8,0.3,2.3,1
			v-5.4h2.7V419h-2.7V418.2z M737.4,415.2c0,1,0.6,1.7,1.7,1.7c1.1,0,1.7-0.7,1.7-1.7c0-0.9-0.6-1.7-1.7-1.7
			C738.1,413.5,737.4,414.3,737.4,415.2z"/>
		<path class="st4" d="M753,415.7h-5.7c0,1.1,0.6,1.7,1.7,1.7c0.6,0,1-0.2,1.3-0.7h2.6c-0.2,0.9-0.7,1.5-1.4,2
			c-0.7,0.4-1.6,0.6-2.4,0.6c-2.5,0-4.4-1.4-4.4-4c0-2.5,1.7-4,4.2-4c2.6,0,4.2,1.6,4.2,4.2L753,415.7L753,415.7z M750.5,414.1
			c-0.1-0.7-0.8-1.2-1.5-1.2c-0.8,0-1.4,0.4-1.6,1.2H750.5z"/>
		<path class="st4" d="M756.9,419h-2.7v-12.3h2.7V419z"/>
		<path class="st4" d="M769.4,418.2L769.4,418.2c-0.5,0.8-1.4,1.1-2.3,1.1c-2.2,0-3.8-1.9-3.8-4s1.6-4,3.8-4c0.9,0,1.8,0.3,2.3,1
			v-5.4h2.7V419h-2.7V418.2z M766,415.2c0,1,0.6,1.7,1.7,1.7c1.1,0,1.7-0.7,1.7-1.7c0-0.9-0.6-1.7-1.7-1.7
			C766.7,413.5,766,414.3,766,415.2z"/>
		<path class="st4" d="M781.6,415.7h-5.7c0,1.1,0.6,1.7,1.7,1.7c0.6,0,1-0.2,1.3-0.7h2.6c-0.2,0.9-0.7,1.5-1.4,2
			c-0.7,0.4-1.6,0.6-2.4,0.6c-2.5,0-4.4-1.4-4.4-4c0-2.5,1.7-4,4.2-4c2.6,0,4.2,1.6,4.2,4.2L781.6,415.7L781.6,415.7z M779.1,414.1
			c-0.1-0.7-0.8-1.2-1.5-1.2c-0.8,0-1.4,0.4-1.6,1.2H779.1z"/>
		<path class="st4" d="M785.4,412.3L785.4,412.3c0.5-0.8,1.4-1.1,2.3-1.1c2.3,0,3.8,1.9,3.8,4.1s-1.6,4-3.8,4c-0.9,0-1.8-0.3-2.3-1
			v4.5h-2.7v-11.4h2.7V412.3z M785.3,415.2c0,1,0.6,1.7,1.7,1.7c1.1,0,1.7-0.7,1.7-1.7c0-0.9-0.6-1.7-1.7-1.7
			C785.9,413.5,785.3,414.3,785.3,415.2z"/>
		<path class="st4" d="M801.2,419h-2.7v-0.8l0,0c-0.5,0.8-1.4,1.1-2.3,1.1c-2.2,0-3.8-1.9-3.8-4s1.6-4,3.8-4c0.9,0,1.8,0.3,2.3,1
			v-0.7h2.7V419z M795.1,415.2c0,1,0.6,1.7,1.7,1.7c1.1,0,1.7-0.7,1.7-1.7c0-0.9-0.6-1.7-1.7-1.7
			C795.7,413.5,795.1,414.3,795.1,415.2z"/>
		<path class="st4" d="M805.6,412.7L805.6,412.7c0.5-0.9,1.4-1.3,2.5-1.3h0.5v2.6c-0.4-0.2-0.7-0.3-1.1-0.3c-1.5,0-1.9,1-1.9,2.3
			v3.1h-2.7v-7.6h2.7V412.7z"/>
		<path class="st4" d="M812.8,419h-2.7v-5.4h-0.9v-2.2h0.9v-2.3h2.7v2.3h1.5v2.2h-1.5V419z"/>
		<path class="st4" d="M823.5,419h-2.7v-0.8l0,0c-0.5,0.8-1.4,1.1-2.3,1.1c-2.2,0-3.8-1.9-3.8-4s1.6-4,3.8-4c0.9,0,1.8,0.3,2.3,1
			v-0.7h2.7V419z M817.4,415.2c0,1,0.6,1.7,1.7,1.7c1.1,0,1.7-0.7,1.7-1.7c0-0.9-0.6-1.7-1.7-1.7
			C818.1,413.5,817.4,414.3,817.4,415.2z"/>
		<path class="st4" d="M828,412.4L828,412.4c0.7-0.8,1.4-1.2,2.4-1.2c1.1,0,2,0.4,2.6,1.4c0.5-0.9,1.5-1.4,2.6-1.4
			c1.9,0,2.6,1.3,2.6,3v4.8h-2.7v-3.6c0-0.8,0-2.1-1.1-2.1c-1.2,0-1.3,1.2-1.3,2.1v3.6h-2.7v-3.6c0-0.8,0-2.1-1.2-2.1
			s-1.2,1.3-1.2,2.1v3.6h-2.7v-7.6h2.7L828,412.4L828,412.4z"/>
		<path class="st4" d="M847.7,415.7H842c0,1.1,0.6,1.7,1.7,1.7c0.6,0,1-0.2,1.3-0.7h2.6c-0.2,0.9-0.7,1.5-1.4,2
			c-0.7,0.4-1.6,0.6-2.4,0.6c-2.5,0-4.4-1.4-4.4-4c0-2.5,1.7-4,4.2-4c2.6,0,4.2,1.6,4.2,4.2L847.7,415.7L847.7,415.7z M845.2,414.1
			c-0.1-0.7-0.8-1.2-1.5-1.2c-0.8,0-1.4,0.4-1.6,1.2H845.2z"/>
		<path class="st4" d="M851.6,412.4L851.6,412.4c0.7-0.9,1.4-1.2,2.5-1.2c2,0,2.9,1.3,2.9,3.1v4.7h-2.7v-3.7c0-0.7,0.1-2-1.2-2
			c-1.1,0-1.4,0.8-1.4,1.8v3.9H849v-7.6h2.7L851.6,412.4L851.6,412.4z"/>
		<path class="st4" d="M861.6,419h-2.7v-5.4H858v-2.2h0.9v-2.3h2.7v2.3h1.5v2.2h-1.5V419z"/>
		<path class="st4" d="M872.6,415.2c0,2.6-2.1,4-4.6,4c-2.4,0-4.6-1.4-4.6-4s2.1-4,4.6-4S872.6,412.7,872.6,415.2z M866.3,415.2
			c0,1,0.6,1.7,1.7,1.7s1.7-0.7,1.7-1.7c0-0.9-0.6-1.7-1.7-1.7S866.3,414.3,866.3,415.2z"/>
		<path class="st4" d="M725.3,435.9L725.3,435.9c-0.5,0.8-1.4,1.1-2.3,1.1c-2.2,0-3.8-1.9-3.8-4c0-2.2,1.6-4,3.8-4
			c0.9,0,1.8,0.3,2.3,1v-5.4h2.7v12.3h-2.7V435.9z M722,433c0,1,0.6,1.7,1.7,1.7s1.7-0.7,1.7-1.7c0-0.9-0.6-1.7-1.7-1.7
			S722,432,722,433z"/>
		<path class="st4" d="M737.5,433.4h-5.7c0,1.1,0.6,1.7,1.7,1.7c0.6,0,1-0.2,1.3-0.7h2.6c-0.2,0.9-0.7,1.5-1.4,2
			c-0.7,0.4-1.6,0.6-2.4,0.6c-2.5,0-4.4-1.4-4.4-4c0-2.5,1.7-4,4.2-4c2.6,0,4.2,1.6,4.2,4.2L737.5,433.4L737.5,433.4z M735,431.9
			c-0.1-0.7-0.8-1.2-1.5-1.2c-0.8,0-1.4,0.4-1.6,1.2H735z"/>
		<path class="st4" d="M749.3,431.6c-0.4-0.3-0.9-0.5-1.4-0.5c-1,0-1.8,0.8-1.8,1.8c0,1.1,0.8,1.9,1.9,1.9c0.5,0,1-0.2,1.3-0.5v2.3
			c-0.6,0.3-1.2,0.4-1.9,0.4c-2.2,0-4.1-1.7-4.1-4c0-2.4,1.9-4.1,4.2-4.1c0.6,0,1.2,0.1,1.8,0.4V431.6z"/>
		<path class="st4" d="M759.2,436.7h-2.7v-0.8l0,0c-0.5,0.8-1.4,1.1-2.3,1.1c-2.2,0-3.8-1.9-3.8-4c0-2.2,1.6-4,3.8-4
			c0.9,0,1.8,0.3,2.3,1v-0.7h2.7V436.7z M753.2,433c0,1,0.6,1.7,1.7,1.7s1.7-0.7,1.7-1.7c0-0.9-0.6-1.7-1.7-1.7S753.2,432,753.2,433
			z"/>
		<path class="st4" d="M763.7,430.4L763.7,430.4c0.5-0.9,1.4-1.3,2.5-1.3h0.5v2.6c-0.4-0.2-0.7-0.3-1.1-0.3c-1.5,0-1.9,1-1.9,2.3
			v3.1H761v-7.6h2.7V430.4z"/>
		<path class="st4" d="M770.9,436.7h-2.7v-5.4h-0.9v-2.2h0.9v-2.3h2.7v2.3h1.5v2.2h-1.5V436.7z"/>
		<path class="st4" d="M781.8,433c0,2.6-2.1,4-4.6,4c-2.4,0-4.6-1.4-4.6-4s2.1-4,4.6-4S781.8,430.4,781.8,433z M775.6,433
			c0,1,0.6,1.7,1.7,1.7s1.7-0.7,1.7-1.7c0-0.9-0.6-1.7-1.7-1.7S775.6,432,775.6,433z"/>
		<path class="st4" d="M791.4,436c0,3.2-1.6,4.5-4.4,4.5c-1.7,0-4.1-0.9-4.3-2.9h3c0.1,0.3,0.3,0.5,0.5,0.6s0.5,0.2,0.8,0.2
			c1.4,0,1.7-0.9,1.7-2.2v-0.4c-0.7,0.7-1.4,1-2.4,1c-2.2,0-3.7-1.7-3.7-3.9c0-2.2,1.6-4.1,3.9-4.1c0.9,0,1.7,0.3,2.2,1l0,0V429h2.7
			V436z M785.3,432.9c0,1,0.6,1.7,1.7,1.7c1.1,0,1.7-0.7,1.7-1.7c0-0.9-0.6-1.7-1.7-1.7C786,431.2,785.3,432,785.3,432.9z"/>
		<path class="st4" d="M795.7,430.4L795.7,430.4c0.5-0.9,1.4-1.3,2.5-1.3h0.5v2.6c-0.4-0.2-0.7-0.3-1.1-0.3c-1.5,0-1.9,1-1.9,2.3
			v3.1H793v-7.6h2.7V430.4z"/>
		<path class="st4" d="M808,436.7h-2.7v-0.8l0,0c-0.5,0.8-1.4,1.1-2.3,1.1c-2.2,0-3.8-1.9-3.8-4c0-2.2,1.6-4,3.8-4
			c0.9,0,1.8,0.3,2.3,1v-0.7h2.7V436.7z M802,433c0,1,0.6,1.7,1.7,1.7c1.1,0,1.7-0.7,1.7-1.7c0-0.9-0.6-1.7-1.7-1.7
			C802.6,431.2,802,432,802,433z"/>
		<path class="st4" d="M812.8,436.7h-2.7v-5.4h-0.9v-2.2h0.9v-1c0-1,0-1.8,0.8-2.7c0.7-0.8,1.6-1.2,2.6-1.2c0.4,0,0.8,0.1,1.2,0.3
			v2.3c-0.3-0.1-0.6-0.3-0.9-0.3c-0.7,0-0.9,0.4-0.9,1.3v1.2h1.9v2.2h-1.9L812.8,436.7L812.8,436.7z"/>
		<path class="st4" d="M816.5,428l-1.2-0.9l2.1-2.5l1.6,1.2L816.5,428z M818.2,436.7h-2.7v-7.6h2.7V436.7z"/>
		<path class="st4" d="M828.3,436.7h-2.7v-0.8l0,0c-0.5,0.8-1.4,1.1-2.3,1.1c-2.2,0-3.8-1.9-3.8-4c0-2.2,1.6-4,3.8-4
			c0.9,0,1.8,0.3,2.3,1v-0.7h2.7V436.7z M822.2,433c0,1,0.6,1.7,1.7,1.7s1.7-0.7,1.7-1.7c0-0.9-0.6-1.7-1.7-1.7S822.2,432,822.2,433
			z"/>
	</g>
</g>
<rect id="XMLID_497_" x="381.1" y="394.9" class="st2" width="236.5" height="57.2"/>
<g>
	<g>
		<path class="st4" d="M450.8,407.9h4.4c2.4,0,4,1.1,4,3.7s-1.4,3.8-3.9,3.8h-1.6v3.7h-2.9V407.9z M453.7,413h0.5c1,0,2.1,0,2.1-1.4
			s-1-1.4-2.1-1.4h-0.5V413z"/>
		<path class="st4" d="M463.2,412.7L463.2,412.7c0.5-0.9,1.4-1.3,2.5-1.3h0.5v2.6c-0.4-0.2-0.7-0.3-1.1-0.3c-1.5,0-1.9,1-1.9,2.3
			v3.1h-2.7v-7.6h2.7V412.7z"/>
		<path class="st4" d="M475.5,415.2c0,2.6-2.1,4-4.6,4c-2.4,0-4.6-1.4-4.6-4s2.1-4,4.6-4S475.5,412.7,475.5,415.2z M469.2,415.2
			c0,1,0.6,1.7,1.7,1.7s1.7-0.7,1.7-1.7c0-0.9-0.6-1.7-1.7-1.7S469.2,414.3,469.2,415.2z"/>
		<path class="st4" d="M479.7,419H477v-5.4h-1v-2.2h0.9v-1c0-1,0-1.8,0.8-2.7c0.7-0.8,1.6-1.2,2.6-1.2c0.4,0,0.8,0.1,1.2,0.3v2.3
			c-0.3-0.1-0.6-0.3-0.9-0.3c-0.7,0-0.9,0.4-0.9,1.3v1.2h1.9v2.2h-1.9V419z"/>
		<path class="st4" d="M490.2,415.7h-5.7c0,1.1,0.6,1.7,1.7,1.7c0.6,0,1-0.2,1.3-0.7h2.6c-0.2,0.9-0.7,1.5-1.4,2
			c-0.7,0.4-1.6,0.6-2.4,0.6c-2.5,0-4.4-1.4-4.4-4c0-2.5,1.7-4,4.2-4c2.6,0,4.2,1.6,4.2,4.2v0.2H490.2z M487.7,414.1
			c-0.1-0.7-0.8-1.2-1.5-1.2c-0.8,0-1.4,0.4-1.6,1.2H487.7z"/>
		<path class="st4" d="M496.5,413.4c-0.4-0.2-1-0.4-1.4-0.4c-0.3,0-0.8,0.1-0.8,0.5c0,0.5,0.8,0.6,1.2,0.7c1.3,0.3,2.2,0.8,2.2,2.2
			c0,2-1.8,2.8-3.6,2.8c-1.1,0-2.1-0.3-3.1-0.9l1-1.9c0.5,0.4,1.5,0.8,2.1,0.8c0.3,0,0.8-0.2,0.8-0.6c0-0.6-0.8-0.6-1.7-0.8
			c-0.8-0.2-1.7-0.6-1.7-2c0-1.9,1.7-2.7,3.3-2.7c0.9,0,1.7,0.1,2.5,0.5L496.5,413.4z"/>
		<path class="st4" d="M501.9,408.5c0,0.8-0.7,1.5-1.5,1.5s-1.5-0.7-1.5-1.5s0.7-1.5,1.5-1.5C501.2,407,501.9,407.7,501.9,408.5z
			 M501.7,419H499v-7.6h2.7V419z"/>
		<path class="st4" d="M512.1,415.2c0,2.6-2.1,4-4.6,4c-2.4,0-4.6-1.4-4.6-4s2.1-4,4.6-4S512.1,412.7,512.1,415.2z M505.8,415.2
			c0,1,0.6,1.7,1.7,1.7s1.7-0.7,1.7-1.7c0-0.9-0.6-1.7-1.7-1.7S505.8,414.3,505.8,415.2z"/>
		<path class="st4" d="M516,412.4L516,412.4c0.7-0.9,1.4-1.2,2.5-1.2c2,0,2.9,1.3,2.9,3.1v4.7h-2.7v-3.7c0-0.7,0.1-2-1.2-2
			c-1.1,0-1.4,0.8-1.4,1.8v3.9h-2.7v-7.6h2.7L516,412.4L516,412.4z"/>
		<path class="st4" d="M531.3,419h-2.7v-0.8l0,0c-0.5,0.8-1.4,1.1-2.3,1.1c-2.2,0-3.8-1.9-3.8-4s1.6-4,3.8-4c0.9,0,1.8,0.3,2.3,1
			v-0.7h2.7V419z M525.3,415.2c0,1,0.6,1.7,1.7,1.7c1.1,0,1.7-0.7,1.7-1.7c0-0.9-0.6-1.7-1.7-1.7
			C525.9,413.5,525.3,414.3,525.3,415.2z"/>
		<path class="st4" d="M535.8,419h-2.7v-12.3h2.7V419z"/>
		<path class="st4" d="M438.6,436c0,3.2-1.6,4.5-4.4,4.5c-1.7,0-4.1-0.9-4.3-2.9h3c0.1,0.3,0.3,0.5,0.5,0.6s0.5,0.2,0.8,0.2
			c1.4,0,1.7-0.9,1.7-2.2v-0.4c-0.7,0.7-1.4,1-2.4,1c-2.2,0-3.7-1.7-3.7-3.9c0-2.2,1.6-4.1,3.9-4.1c0.9,0,1.7,0.3,2.2,1l0,0V429h2.7
			L438.6,436L438.6,436z M432.6,432.9c0,1,0.6,1.7,1.7,1.7s1.7-0.7,1.7-1.7c0-0.9-0.6-1.7-1.7-1.7
			C433.2,431.2,432.6,432,432.6,432.9z"/>
		<path class="st4" d="M448.1,433.4h-5.7c0,1.1,0.6,1.7,1.7,1.7c0.6,0,1-0.2,1.3-0.7h2.6c-0.2,0.9-0.7,1.5-1.4,2
			c-0.7,0.4-1.6,0.6-2.4,0.6c-2.5,0-4.4-1.4-4.4-4c0-2.5,1.7-4,4.2-4c2.6,0,4.2,1.6,4.2,4.2v0.2H448.1z M445.6,431.9
			c-0.1-0.7-0.8-1.2-1.5-1.2c-0.8,0-1.4,0.4-1.6,1.2H445.6z"/>
		<path class="st4" d="M454.3,431.1c-0.4-0.2-1-0.4-1.4-0.4c-0.3,0-0.8,0.1-0.8,0.5c0,0.5,0.8,0.6,1.2,0.7c1.3,0.3,2.2,0.8,2.2,2.2
			c0,2-1.8,2.8-3.6,2.8c-1.1,0-2.1-0.3-3.1-0.9l1-1.9c0.5,0.4,1.5,0.8,2.1,0.8c0.3,0,0.8-0.2,0.8-0.6c0-0.6-0.8-0.6-1.7-0.8
			c-0.8-0.2-1.7-0.6-1.7-2c0-1.9,1.7-2.7,3.3-2.7c0.9,0,1.7,0.1,2.5,0.5L454.3,431.1z"/>
		<path class="st4" d="M459.8,436.7h-2.7v-5.4h-0.9v-2.2h0.9v-2.3h2.7v2.3h1.5v2.2h-1.5V436.7z"/>
		<path class="st4" d="M465.1,426.3c0,0.8-0.7,1.5-1.5,1.5s-1.5-0.7-1.5-1.5s0.7-1.5,1.5-1.5C464.4,424.7,465.1,425.4,465.1,426.3z
			 M464.9,436.7h-2.7v-7.6h2.7V436.7z"/>
		<path class="st4" d="M475.3,433c0,2.6-2.1,4-4.6,4c-2.4,0-4.6-1.4-4.6-4s2.1-4,4.6-4S475.3,430.4,475.3,433z M469,433
			c0,1,0.6,1.7,1.7,1.7s1.7-0.7,1.7-1.7c0-0.9-0.6-1.7-1.7-1.7C469.6,431.2,469,432,469,433z M470.4,428l-1.2-0.9l2.1-2.5l1.6,1.2
			L470.4,428z"/>
		<path class="st4" d="M479.2,430.1L479.2,430.1c0.7-0.9,1.4-1.2,2.5-1.2c2,0,2.9,1.3,2.9,3.1v4.7h-2.7V433c0-0.7,0.1-2-1.2-2
			c-1.1,0-1.4,0.8-1.4,1.8v3.9h-2.7v-7.6h2.7L479.2,430.1L479.2,430.1z"/>
		<path class="st4" d="M496.8,431.6c-0.4-0.3-0.9-0.5-1.4-0.5c-1,0-1.8,0.8-1.8,1.8c0,1.1,0.8,1.9,1.9,1.9c0.5,0,1-0.2,1.3-0.5v2.3
			c-0.6,0.3-1.2,0.4-1.9,0.4c-2.2,0-4.1-1.7-4.1-4c0-2.4,1.9-4.1,4.2-4.1c0.6,0,1.2,0.1,1.8,0.4V431.6z"/>
		<path class="st4" d="M506.7,436.7H504v-0.8l0,0c-0.5,0.8-1.4,1.1-2.3,1.1c-2.2,0-3.8-1.9-3.8-4c0-2.2,1.6-4,3.8-4
			c0.9,0,1.8,0.3,2.3,1v-0.7h2.7V436.7z M500.7,433c0,1,0.6,1.7,1.7,1.7s1.7-0.7,1.7-1.7c0-0.9-0.6-1.7-1.7-1.7S500.7,432,500.7,433
			z"/>
		<path class="st4" d="M511.4,436.7h-2.7v-5.4h-0.9v-2.2h0.9v-2.3h2.7v2.3h1.5v2.2h-1.5L511.4,436.7L511.4,436.7z"/>
		<path class="st4" d="M522.1,436.7h-2.7v-0.8l0,0c-0.5,0.8-1.4,1.1-2.3,1.1c-2.2,0-3.8-1.9-3.8-4c0-2.2,1.6-4,3.8-4
			c0.9,0,1.8,0.3,2.3,1v-0.7h2.7V436.7z M516.1,433c0,1,0.6,1.7,1.7,1.7c1.1,0,1.7-0.7,1.7-1.7c0-0.9-0.6-1.7-1.7-1.7
			C516.7,431.2,516.1,432,516.1,433z"/>
		<path class="st4" d="M528.9,431.1c-0.4-0.2-1-0.4-1.4-0.4c-0.3,0-0.8,0.1-0.8,0.5c0,0.5,0.8,0.6,1.2,0.7c1.3,0.3,2.2,0.8,2.2,2.2
			c0,2-1.8,2.8-3.6,2.8c-1.1,0-2.1-0.3-3.1-0.9l1-1.9c0.5,0.4,1.5,0.8,2.1,0.8c0.3,0,0.8-0.2,0.8-0.6c0-0.6-0.8-0.6-1.7-0.8
			c-0.8-0.2-1.7-0.6-1.7-2c0-1.9,1.7-2.7,3.3-2.7c0.9,0,1.7,0.1,2.5,0.5L528.9,431.1z"/>
		<path class="st4" d="M534.4,436.7h-2.7v-5.4h-0.9v-2.2h0.9v-2.3h2.7v2.3h1.5v2.2h-1.5V436.7z"/>
		<path class="st4" d="M539.5,430.4L539.5,430.4c0.5-0.9,1.4-1.3,2.5-1.3h0.5v2.6c-0.4-0.2-0.7-0.3-1.1-0.3c-1.5,0-1.9,1-1.9,2.3
			v3.1h-2.7v-7.6h2.7V430.4z"/>
		<path class="st4" d="M551.8,436.7h-2.7v-0.8l0,0c-0.5,0.8-1.4,1.1-2.3,1.1c-2.2,0-3.8-1.9-3.8-4c0-2.2,1.6-4,3.8-4
			c0.9,0,1.8,0.3,2.3,1v-0.7h2.7V436.7z M545.7,433c0,1,0.6,1.7,1.7,1.7c1.1,0,1.7-0.7,1.7-1.7c0-0.9-0.6-1.7-1.7-1.7
			C546.3,431.2,545.7,432,545.7,433z"/>
		<path class="st4" d="M556.2,436.7h-2.7v-12.3h2.7V436.7z"/>
	</g>
</g>
<g>
	<g>
		<path class="st4" d="M763.8,620.7c-0.8-1.1-2.2-1.7-3.6-1.7c-2.5,0-4.2,1.9-4.2,4.3c0,2.5,1.7,4.2,4.2,4.2c1.3,0,2.7-0.6,3.5-1.7
			v4.9c-1.3,0.4-2.3,0.7-3.6,0.7c-2.2,0-4.2-0.8-5.9-2.3c-1.7-1.6-2.5-3.6-2.5-5.9c0-2.1,0.8-4.2,2.3-5.7c1.5-1.6,3.7-2.5,5.9-2.5
			c1.3,0,2.5,0.3,3.7,0.8v4.9H763.8z"/>
		<path class="st4" d="M770.3,628.4l-1.1,2.7h-4.3l6-15.6h4.4l5.9,15.6h-4.3l-1-2.7H770.3z M773.1,620.3L773.1,620.3l-1.7,5h3.4
			L773.1,620.3z"/>
		<path class="st4" d="M790,615.5V626c0,3.3-1.7,5.5-5.2,5.5c-1.7,0-3.1-0.9-4-2.3l2.3-2.5c0.5,0.6,1.1,1.3,1.6,1.3
			c1.2,0,1.2-1.4,1.2-2.3v-10.3L790,615.5L790,615.5z"/>
		<path class="st4" d="M796.6,628.4l-1.1,2.7h-4.3l6-15.6h4.4l5.9,15.6h-4.3l-1-2.7H796.6z M799.4,620.3L799.4,620.3l-1.7,5h3.4
			L799.4,620.3z"/>
	</g>
</g>
<rect id="XMLID_12_" x="96.8" y="689.9" class="st2" width="223.4" height="60.9"/>
<g>
	<g>
		<path class="st4" d="M139.7,714.9v2.6h4.5v3.4h-4.5v6.1h-4.1v-15.6h9v3.4L139.7,714.9L139.7,714.9z"/>
		<path class="st4" d="M150.7,712.3c0,1.2-1,2.1-2.1,2.1c-1.2,0-2.1-1-2.1-2.1c0-1.2,1-2.1,2.1-2.1
			C149.8,710.2,150.7,711.2,150.7,712.3z M150.5,727h-3.8v-10.6h3.8V727z"/>
		<path class="st4" d="M156.8,718.1L156.8,718.1c0.8-1.3,2-1.9,3.5-1.9h0.7v3.6c-0.5-0.3-1-0.4-1.6-0.4c-2.1,0-2.6,1.4-2.6,3.2v4.3
			H153v-10.6h3.8V718.1z"/>
		<path class="st4" d="M166.1,717.7L166.1,717.7c0.9-1.2,2-1.7,3.4-1.7c1.5,0,2.9,0.6,3.6,2c0.7-1.3,2.2-2,3.6-2
			c2.7,0,3.6,1.8,3.6,4.2v6.8h-3.8v-5c0-1.1,0-2.9-1.6-2.9c-1.7,0-1.8,1.6-1.8,2.9v5.1h-3.8V722c0-1.2,0-3-1.7-3s-1.7,1.8-1.7,3v5.1
			h-3.8v-10.6h3.8v1.2H166.1z"/>
		<path class="st4" d="M194.5,727h-3.8v-1.2l0,0c-0.7,1.1-2,1.5-3.2,1.5c-3.1,0-5.4-2.6-5.4-5.7c0-3,2.2-5.7,5.3-5.7
			c1.2,0,2.5,0.5,3.3,1.4v-1h3.8L194.5,727L194.5,727z M186,721.7c0,1.3,0.9,2.4,2.4,2.4s2.4-1,2.4-2.4c0-1.3-0.9-2.4-2.4-2.4
			S186,720.4,186,721.7z"/>
		<path class="st4" d="M202.5,716.4h4.3l2.8,5.4l2.8-5.4h4.3l-8.5,15.9H204l3.6-6.8L202.5,716.4z"/>
		<path class="st4" d="M231.7,719.1c-0.6-0.3-1.4-0.5-2-0.5c-0.4,0-1.2,0.2-1.2,0.7c0,0.7,1.2,0.8,1.7,0.9c1.8,0.4,3.1,1.2,3.1,3.1
			c0,2.8-2.5,4-5,4c-1.5,0-3-0.4-4.3-1.2l1.4-2.6c0.8,0.5,2,1.1,3,1.1c0.5,0,1.2-0.2,1.2-0.8c0-0.8-1.2-0.9-2.4-1.2
			s-2.4-0.9-2.4-2.8c0-2.6,2.4-3.8,4.7-3.8c1.2,0,2.4,0.2,3.5,0.7L231.7,719.1z"/>
		<path class="st4" d="M246.2,722.3h-7.9c0,1.5,0.8,2.4,2.4,2.4c0.8,0,1.4-0.3,1.8-1h3.6c-0.3,1.2-1,2.2-2,2.8s-2.2,0.9-3.4,0.9
			c-3.5,0-6.2-2-6.2-5.7c0-3.5,2.4-5.7,5.9-5.7c3.7,0,5.8,2.3,5.8,5.9L246.2,722.3L246.2,722.3z M242.7,720.2
			c-0.2-1-1.1-1.7-2.1-1.7c-1.1,0-2,0.6-2.2,1.7H242.7z"/>
		<path class="st4" d="M251.7,727H248v-17.2h3.8V727H251.7z"/>
		<path class="st4" d="M258,727h-3.8v-17.2h3.8V727z"/>
		<path class="st4" d="M272.5,721.7c0,3.6-3,5.7-6.4,5.7s-6.4-2-6.4-5.7c0-3.6,3-5.7,6.4-5.7C269.5,716.1,272.5,718.1,272.5,721.7z
			 M263.7,721.7c0,1.3,0.9,2.4,2.4,2.4s2.4-1,2.4-2.4c0-1.3-0.9-2.4-2.4-2.4S263.7,720.4,263.7,721.7z"/>
		<path class="st4" d="M281.2,719.1c-0.6-0.3-1.4-0.5-2-0.5c-0.4,0-1.2,0.2-1.2,0.7c0,0.7,1.2,0.8,1.7,0.9c1.8,0.4,3.1,1.2,3.1,3.1
			c0,2.8-2.5,4-5,4c-1.5,0-3-0.4-4.3-1.2l1.4-2.6c0.8,0.5,2,1.1,3,1.1c0.5,0,1.2-0.2,1.2-0.8c0-0.8-1.2-0.9-2.4-1.2
			c-1.2-0.3-2.4-0.9-2.4-2.8c0-2.6,2.4-3.8,4.7-3.8c1.2,0,2.4,0.2,3.5,0.7L281.2,719.1z"/>
	</g>
</g>
<polygon id="XMLID_84_" class="st6" points="608.8,719.7 618.3,714.3 627.7,708.9 627.7,719.7 627.7,730.6 618.3,725.2 "/>
<polygon id="XMLID_82_" class="st6" points="320.2,718.3 329.6,712.9 339.1,707.5 339.1,718.3 339.1,729.2 329.6,723.8 "/>
<polygon id="XMLID_11_" class="st6" points="495.5,191.4 490.1,182 484.6,172.6 495.5,172.6 506.4,172.6 500.9,182 "/>
<polygon id="XMLID_80_" class="st6" points="495.6,299.3 490.2,289.9 484.7,280.5 495.6,280.5 506.5,280.5 501.1,289.9 "/>
<polygon id="XMLID_79_" class="st6" points="498.1,397.2 492.6,387.8 487.2,378.3 498.1,378.3 509,378.3 503.5,387.8 "/>
<polygon id="XMLID_10_" class="st6" points="662.2,423.5 652.8,428.9 643.4,434.4 643.4,423.5 643.4,412.6 652.8,418 "/>
<polygon id="XMLID_916_" class="st6" points="895.2,522.8 904.7,517.4 914.1,511.9 914.1,522.8 914.1,533.7 904.7,528.2 "/>
<polygon id="XMLID_98_" class="st6" points="379.1,324.2 369.7,329.6 360.3,335 360.3,324.2 360.3,313.3 369.7,318.7 "/>
<polygon id="XMLID_77_" class="st6" points="780,594.4 774.6,585 769.1,575.6 780,575.6 790.9,575.6 785.4,585 "/>
<polygon id="XMLID_78_" class="st6" points="780,689.7 774.6,680.3 769.1,670.9 780,670.9 790.9,670.9 785.4,680.3 "/>
<polygon id="XMLID_9_" class="st6" points="207.2,782 201.7,772.5 196.3,763.1 207.2,763.1 218,763.1 212.6,772.5 "/>
<polygon id="XMLID_73_" class="st6" points="207.2,891.3 201.7,881.8 196.3,872.4 207.2,872.4 218,872.4 212.6,881.8 "/>
<polygon id="XMLID_8_" class="st6" points="207.2,991 201.7,981.6 196.3,972.2 207.2,972.2 218,972.2 212.6,981.6 "/>
<polygon id="XMLID_70_" class="st6" points="207.2,1091.2 201.7,1081.8 196.3,1072.4 207.2,1072.4 218,1072.4 212.6,1081.8 "/>
<g>
	<g>
		<path class="st4" d="M163.3,802.1l-0.8,1.9h-3.1l4.3-11.1h3.2l4.2,11.1H168l-0.7-1.9H163.3z M165.4,796.3L165.4,796.3l-1.2,3.5
			h2.4L165.4,796.3z"/>
		<path class="st4" d="M177,798.4c-0.4-0.2-1-0.4-1.4-0.4c-0.3,0-0.8,0.1-0.8,0.5c0,0.5,0.8,0.6,1.2,0.7c1.3,0.3,2.2,0.8,2.2,2.2
			c0,2-1.8,2.8-3.6,2.8c-1.1,0-2.1-0.3-3.1-0.9l1-1.9c0.5,0.4,1.5,0.8,2.1,0.8c0.3,0,0.8-0.2,0.8-0.6c0-0.6-0.8-0.6-1.7-0.8
			c-0.8-0.2-1.7-0.6-1.7-2c0-1.9,1.7-2.7,3.3-2.7c0.9,0,1.7,0.1,2.5,0.5L177,798.4z"/>
		<path class="st4" d="M187.3,800.7h-5.7c0,1.1,0.6,1.7,1.7,1.7c0.6,0,1-0.2,1.3-0.7h2.6c-0.2,0.9-0.7,1.5-1.4,2
			c-0.7,0.4-1.6,0.6-2.4,0.6c-2.5,0-4.4-1.4-4.4-4c0-2.5,1.7-4,4.2-4c2.6,0,4.2,1.6,4.2,4.2v0.2H187.3z M184.8,799.1
			c-0.1-0.7-0.8-1.2-1.5-1.2c-0.8,0-1.4,0.4-1.6,1.2H184.8z"/>
		<path class="st4" d="M193.6,798.4c-0.4-0.2-1-0.4-1.4-0.4c-0.3,0-0.8,0.1-0.8,0.5c0,0.5,0.8,0.6,1.2,0.7c1.3,0.3,2.2,0.8,2.2,2.2
			c0,2-1.8,2.8-3.6,2.8c-1.1,0-2.1-0.3-3.1-0.9l1-1.9c0.5,0.4,1.5,0.8,2.1,0.8c0.3,0,0.8-0.2,0.8-0.6c0-0.6-0.8-0.6-1.7-0.8
			c-0.8-0.2-1.7-0.6-1.7-2c0-1.9,1.7-2.7,3.3-2.7c0.9,0,1.7,0.1,2.5,0.5L193.6,798.4z"/>
		<path class="st4" d="M204.7,800.2c0,2.6-2.1,4-4.6,4c-2.4,0-4.6-1.4-4.6-4s2.1-4,4.6-4C202.6,796.2,204.7,797.6,204.7,800.2z
			 M198.4,800.2c0,1,0.6,1.7,1.7,1.7c1.1,0,1.7-0.7,1.7-1.7c0-0.9-0.6-1.7-1.7-1.7S198.4,799.3,198.4,800.2z"/>
		<path class="st4" d="M208.6,797.7L208.6,797.7c0.5-0.9,1.4-1.3,2.5-1.3h0.5v2.6c-0.4-0.2-0.7-0.3-1.1-0.3c-1.5,0-1.9,1-1.9,2.3
			v3.1h-2.7v-7.6h2.7V797.7z"/>
		<path class="st4" d="M220.4,804h-2.7v-12.3h2.7V804z"/>
		<path class="st4" d="M229.9,800.7h-5.7c0,1.1,0.6,1.7,1.7,1.7c0.6,0,1-0.2,1.3-0.7h2.6c-0.2,0.9-0.7,1.5-1.4,2
			c-0.7,0.4-1.6,0.6-2.4,0.6c-2.5,0-4.4-1.4-4.4-4c0-2.5,1.7-4,4.2-4c2.6,0,4.2,1.6,4.2,4.2v0.2H229.9z M227.4,799.1
			c-0.1-0.7-0.8-1.2-1.5-1.2c-0.8,0-1.4,0.4-1.6,1.2H227.4z"/>
		<path class="st4" d="M239.5,803.3c0,3.2-1.6,4.5-4.4,4.5c-1.7,0-4.1-0.9-4.3-2.9h3c0.1,0.3,0.3,0.5,0.5,0.6s0.5,0.2,0.8,0.2
			c1.4,0,1.7-0.9,1.7-2.2v-0.4c-0.7,0.7-1.4,1-2.4,1c-2.2,0-3.7-1.7-3.7-3.9s1.6-4.1,3.9-4.1c0.9,0,1.7,0.3,2.2,1l0,0v-0.8h2.7
			V803.3z M233.4,800.2c0,1,0.6,1.7,1.7,1.7c1.1,0,1.7-0.7,1.7-1.7c0-0.9-0.6-1.7-1.7-1.7S233.4,799.2,233.4,800.2z"/>
		<path class="st4" d="M249.4,804h-2.7v-0.8l0,0c-0.5,0.8-1.4,1.1-2.3,1.1c-2.2,0-3.8-1.9-3.8-4c0-2.2,1.6-4,3.8-4
			c0.9,0,1.8,0.3,2.3,1v-0.7h2.7V804z M243.4,800.2c0,1,0.6,1.7,1.7,1.7c1.1,0,1.7-0.7,1.7-1.7c0-0.9-0.6-1.7-1.7-1.7
			S243.4,799.3,243.4,800.2z"/>
		<path class="st4" d="M253.9,804h-2.7v-12.3h2.7V804z"/>
		<path class="st4" d="M168.6,820.9L168.6,820.9c-0.5,0.8-1.4,1.1-2.3,1.1c-2.2,0-3.8-1.9-3.8-4c0-2.2,1.6-4,3.8-4
			c0.9,0,1.8,0.3,2.3,1v-5.4h2.7v12.3h-2.7V820.9z M165.2,818c0,1,0.6,1.7,1.7,1.7c1.1,0,1.7-0.7,1.7-1.7c0-0.9-0.6-1.7-1.7-1.7
			C165.9,816.2,165.2,817,165.2,818z"/>
		<path class="st4" d="M180.8,818.4h-5.7c0,1.1,0.6,1.7,1.7,1.7c0.6,0,1-0.2,1.3-0.7h2.6c-0.2,0.9-0.7,1.5-1.4,2
			c-0.7,0.4-1.6,0.6-2.4,0.6c-2.5,0-4.4-1.4-4.4-4c0-2.5,1.7-4,4.2-4c2.6,0,4.2,1.6,4.2,4.2v0.2H180.8z M178.3,816.8
			c-0.1-0.7-0.8-1.2-1.5-1.2c-0.8,0-1.4,0.4-1.6,1.2H178.3z"/>
		<path class="st4" d="M192.1,816.1c-0.4-0.2-1-0.4-1.4-0.4c-0.3,0-0.8,0.1-0.8,0.5c0,0.5,0.8,0.6,1.2,0.7c1.3,0.3,2.2,0.8,2.2,2.2
			c0,2-1.8,2.8-3.6,2.8c-1.1,0-2.1-0.3-3.1-0.9l1-1.9c0.5,0.4,1.5,0.8,2.1,0.8c0.3,0,0.8-0.2,0.8-0.6c0-0.6-0.8-0.6-1.7-0.8
			c-0.8-0.2-1.7-0.6-1.7-2c0-1.9,1.7-2.7,3.3-2.7c0.9,0,1.7,0.1,2.5,0.5L192.1,816.1z"/>
		<path class="st4" d="M202.4,818.4h-5.7c0,1.1,0.6,1.7,1.7,1.7c0.6,0,1-0.2,1.3-0.7h2.6c-0.2,0.9-0.7,1.5-1.4,2
			c-0.7,0.4-1.6,0.6-2.4,0.6c-2.5,0-4.4-1.4-4.4-4c0-2.5,1.7-4,4.2-4c2.6,0,4.2,1.6,4.2,4.2v0.2H202.4z M199.9,816.8
			c-0.1-0.7-0.8-1.2-1.5-1.2c-0.8,0-1.4,0.4-1.6,1.2H199.9z"/>
		<path class="st4" d="M206.3,815.4L206.3,815.4c0.5-0.9,1.4-1.3,2.5-1.3h0.5v2.6c-0.4-0.2-0.7-0.3-1.1-0.3c-1.5,0-1.9,1-1.9,2.3
			v3.1h-2.7v-7.6h2.7V815.4z"/>
		<path class="st4" d="M214.3,818l1.8-3.9h3l-4,7.6h-1.7l-4-7.6h3L214.3,818z"/>
		<path class="st4" d="M222.6,811.2c0,0.8-0.7,1.5-1.5,1.5s-1.5-0.7-1.5-1.5s0.7-1.5,1.5-1.5S222.6,810.4,222.6,811.2z M222.5,821.7
			h-2.7v-7.6h2.7V821.7z"/>
		<path class="st4" d="M229.7,816.6c-0.4-0.3-0.9-0.5-1.4-0.5c-1,0-1.8,0.8-1.8,1.8c0,1.1,0.8,1.9,1.9,1.9c0.5,0,1-0.2,1.3-0.5v2.3
			c-0.6,0.3-1.2,0.4-1.9,0.4c-2.2,0-4.1-1.7-4.1-4c0-2.4,1.9-4.1,4.2-4.1c0.6,0,1.2,0.1,1.8,0.4V816.6z"/>
		<path class="st4" d="M234.2,811.2c0,0.8-0.7,1.5-1.5,1.5s-1.5-0.7-1.5-1.5s0.7-1.5,1.5-1.5S234.2,810.4,234.2,811.2z M234.1,821.7
			h-2.7v-7.6h2.7V821.7z"/>
		<path class="st4" d="M244.4,818c0,2.6-2.1,4-4.6,4c-2.4,0-4.6-1.4-4.6-4s2.1-4,4.6-4C242.3,813.9,244.4,815.4,244.4,818z
			 M238.1,818c0,1,0.6,1.7,1.7,1.7c1.1,0,1.7-0.7,1.7-1.7c0-0.9-0.6-1.7-1.7-1.7C238.8,816.2,238.1,817,238.1,818z"/>
		<path class="st4" d="M250.6,816.1c-0.4-0.2-1-0.4-1.4-0.4c-0.3,0-0.8,0.1-0.8,0.5c0,0.5,0.8,0.6,1.2,0.7c1.3,0.3,2.2,0.8,2.2,2.2
			c0,2-1.8,2.8-3.6,2.8c-1.1,0-2.1-0.3-3.1-0.9l1-1.9c0.5,0.4,1.5,0.8,2.1,0.8c0.3,0,0.8-0.2,0.8-0.6c0-0.6-0.8-0.6-1.7-0.8
			c-0.8-0.2-1.7-0.6-1.7-2c0-1.9,1.7-2.7,3.3-2.7c0.9,0,1.7,0.1,2.5,0.5L250.6,816.1z"/>
		<path class="st4" d="M171.9,834.3c-0.4-0.3-0.9-0.5-1.4-0.5c-1,0-1.8,0.8-1.8,1.8c0,1.1,0.8,1.9,1.9,1.9c0.5,0,1-0.2,1.3-0.5v2.3
			c-0.6,0.3-1.2,0.4-1.9,0.4c-2.2,0-4.1-1.7-4.1-4c0-2.4,1.9-4.1,4.2-4.1c0.6,0,1.2,0.1,1.8,0.4V834.3z"/>
		<path class="st4" d="M181.8,839.5h-2.7v-0.8l0,0c-0.5,0.8-1.4,1.1-2.3,1.1c-2.2,0-3.8-1.9-3.8-4s1.6-4,3.8-4c0.9,0,1.8,0.3,2.3,1
			v-0.7h2.7V839.5z M175.8,835.7c0,1,0.6,1.7,1.7,1.7c1.1,0,1.7-0.7,1.7-1.7c0-0.9-0.6-1.7-1.7-1.7
			C176.4,834,175.8,834.7,175.8,835.7z"/>
		<path class="st4" d="M186.5,839.5h-2.7v-5.4H183v-2.2h0.9v-2.3h2.7v2.3h1.5v2.2h-1.5L186.5,839.5L186.5,839.5z"/>
		<path class="st4" d="M197.2,839.5h-2.7v-0.8l0,0c-0.5,0.8-1.4,1.1-2.3,1.1c-2.2,0-3.8-1.9-3.8-4s1.6-4,3.8-4c0.9,0,1.8,0.3,2.3,1
			v-0.7h2.7V839.5z M191.2,835.7c0,1,0.6,1.7,1.7,1.7s1.7-0.7,1.7-1.7c0-0.9-0.6-1.7-1.7-1.7S191.2,834.7,191.2,835.7z"/>
		<path class="st4" d="M204,833.8c-0.4-0.2-1-0.4-1.4-0.4c-0.3,0-0.8,0.1-0.8,0.5c0,0.5,0.8,0.6,1.2,0.7c1.3,0.3,2.2,0.8,2.2,2.2
			c0,2-1.8,2.8-3.6,2.8c-1.1,0-2.1-0.3-3.1-0.9l1-1.9c0.5,0.4,1.5,0.8,2.1,0.8c0.3,0,0.8-0.2,0.8-0.6c0-0.6-0.8-0.6-1.7-0.8
			c-0.8-0.2-1.7-0.6-1.7-2c0-1.9,1.7-2.7,3.3-2.7c0.9,0,1.7,0.1,2.5,0.5L204,833.8z"/>
		<path class="st4" d="M209.5,839.5h-2.7v-5.4H206v-2.2h0.9v-2.3h2.7v2.3h1.5v2.2h-1.5L209.5,839.5L209.5,839.5z"/>
		<path class="st4" d="M214.6,833.1L214.6,833.1c0.5-0.9,1.4-1.3,2.5-1.3h0.5v2.6c-0.4-0.2-0.7-0.3-1.1-0.3c-1.5,0-1.9,1-1.9,2.3
			v3.1h-2.7v-7.6h2.7V833.1z"/>
		<path class="st4" d="M226.9,839.5h-2.7v-0.8l0,0c-0.5,0.8-1.4,1.1-2.3,1.1c-2.2,0-3.8-1.9-3.8-4s1.6-4,3.8-4c0.9,0,1.8,0.3,2.3,1
			v-0.7h2.7V839.5z M220.8,835.7c0,1,0.6,1.7,1.7,1.7c1.1,0,1.7-0.7,1.7-1.7c0-0.9-0.6-1.7-1.7-1.7
			C221.5,834,220.8,834.7,220.8,835.7z"/>
		<path class="st4" d="M231.3,839.5h-2.7v-12.3h2.7V839.5z"/>
		<path class="st4" d="M240.9,836.1h-5.7c0,1.1,0.6,1.7,1.7,1.7c0.6,0,1-0.2,1.3-0.7h2.6c-0.2,0.9-0.7,1.5-1.4,2
			c-0.7,0.4-1.6,0.6-2.4,0.6c-2.5,0-4.4-1.4-4.4-4c0-2.5,1.7-4,4.2-4c2.6,0,4.2,1.6,4.2,4.2v0.2H240.9z M238.4,834.6
			c-0.1-0.7-0.8-1.2-1.5-1.2c-0.8,0-1.4,0.4-1.6,1.2H238.4z"/>
		<path class="st4" d="M247.1,833.8c-0.4-0.2-1-0.4-1.4-0.4c-0.3,0-0.8,0.1-0.8,0.5c0,0.5,0.8,0.6,1.2,0.7c1.3,0.3,2.2,0.8,2.2,2.2
			c0,2-1.8,2.8-3.6,2.8c-1.1,0-2.1-0.3-3.1-0.9l1-1.9c0.5,0.4,1.5,0.8,2.1,0.8c0.3,0,0.8-0.2,0.8-0.6c0-0.6-0.8-0.6-1.7-0.8
			c-0.8-0.2-1.7-0.6-1.7-2c0-1.9,1.7-2.7,3.3-2.7c0.9,0,1.7,0.1,2.5,0.5L247.1,833.8z"/>
	</g>
</g>
<g>
	<g>
		<path class="st5" d="M145.9,1116.2c-0.8-0.7-1.8-1.1-2.9-1.1c-0.8,0-1.9,0.5-1.9,1.4c0,1,1.2,1.3,1.9,1.6l1.1,0.3
			c2.3,0.7,4.1,1.9,4.1,4.6c0,1.7-0.4,3.4-1.7,4.5s-3,1.6-4.7,1.6c-2.1,0-4.2-0.7-5.9-1.9l1.9-3.5c1.1,0.9,2.4,1.7,3.8,1.7
			c1,0,2.1-0.5,2.1-1.7s-1.7-1.6-2.6-1.9c-2.7-0.8-4.5-1.5-4.5-4.7c0-3.4,2.4-5.6,5.7-5.6c1.7,0,3.7,0.5,5.2,1.4L145.9,1116.2z"/>
		<path class="st5" d="M167.9,1120c0,5.4-3.9,9.2-9.2,9.2s-9.2-3.8-9.2-9.2c0-5,4.4-8.6,9.2-8.6S167.9,1114.9,167.9,1120z M154,1120
			c0,2.9,2.1,5,4.7,5s4.7-2.1,4.7-5c0-2.3-2.1-4.4-4.7-4.4S154,1117.7,154,1120z"/>
		<path class="st5" d="M174.3,1124.9h5.2v3.7H170V1112h4.3V1124.9z"/>
		<path class="st5" d="M185.2,1128.6h-4.3V1112h4.3V1128.6z"/>
		<path class="st5" d="M199.9,1117.6c-0.9-1.2-2.3-1.8-3.8-1.8c-2.6,0-4.4,2-4.4,4.6s1.8,4.5,4.5,4.5c1.4,0,2.8-0.7,3.7-1.8v5.2
			c-1.4,0.4-2.5,0.8-3.8,0.8c-2.3,0-4.5-0.9-6.3-2.5c-1.8-1.7-2.7-3.8-2.7-6.3c0-2.3,0.9-4.5,2.5-6.1c1.6-1.7,4-2.7,6.3-2.7
			c1.4,0,2.7,0.3,4,0.8V1117.6z"/>
		<path class="st5" d="M206.9,1128.6h-4.3V1112h4.3V1128.6z"/>
		<path class="st5" d="M216.4,1128.6h-4.3v-13h-3.6v-3.7H220v3.7h-3.6V1128.6z"/>
		<path class="st5" d="M224.4,1125.7l-1.1,2.9h-4.6l6.4-16.7h4.7l6.3,16.7h-4.6l-1.1-2.9H224.4z M227.5,1117.1L227.5,1117.1
			l-1.8,5.3h3.6L227.5,1117.1z"/>
		<path class="st5" d="M237.5,1112h4.3l7.9,10.2l0,0V1112h4.3v16.7h-4.3l-7.9-10.2l0,0v10.2h-4.3V1112z"/>
		<path class="st5" d="M263.5,1128.6h-4.3v-13h-3.6v-3.7h11.5v3.7h-3.6V1128.6z"/>
		<path class="st5" d="M273,1115.6v2.8h4.9v3.7H273v2.9h5.1v3.7h-9.5V1112h9.5v3.7L273,1115.6L273,1115.6z"/>
	</g>
</g>
</svg>
