<?xml version="1.0" encoding="utf-8"?>
<!-- Generator: Adobe Illustrator 21.0.2, SVG Export Plug-In . SVG Version: 6.00 Build 0)  -->
<svg version="1.1" id="Layer_1" xmlns="http://www.w3.org/2000/svg" xmlns:xlink="http://www.w3.org/1999/xlink" x="0px" y="0px"
	 viewBox="0 0 998.6 1177.7" style="enable-background:new 0 0 998.6 1177.7;" xml:space="preserve">
<style type="text/css">
	.st0{fill:none;stroke:#E42527;stroke-width:4;stroke-miterlimit:10;}
	.st1{fill:#929191;}
	.st2{fill:#9D9D9C;}
	.st3{fill:#FFFFFF;}
	.st4{fill:#E42527;}
</style>
<line id="XMLID_6224_" class="st0" x1="722.8" y1="137.9" x2="722.8" y2="955.8"/>
<rect id="XMLID_6222_" x="99.5" y="614.5" class="st1" width="349.3" height="158.1"/>
<rect id="XMLID_6221_" x="550.7" y="-0.7" class="st2" width="349.3" height="158.1"/>
<g id="XMLID_18216_">
	<g>
		<path id="XMLID_240_" class="st3" d="M179.6,691.4c-0.9-1.2-2.4-1.9-4-1.9c-2.8,0-4.6,2.1-4.6,4.8c0,2.7,1.9,4.7,4.7,4.7
			c1.5,0,3-0.7,3.9-1.8v5.4c-1.5,0.5-2.6,0.8-4,0.8c-2.4,0-4.7-0.9-6.5-2.6c-1.9-1.7-2.8-4-2.8-6.6c0-2.4,0.9-4.7,2.6-6.4
			c1.7-1.8,4.2-2.8,6.6-2.8c1.5,0,2.8,0.3,4.1,0.9V691.4z"/>
		<path id="XMLID_237_" class="st3" d="M200.8,693.9c0,5.6-4,9.6-9.6,9.6c-5.6,0-9.6-4-9.6-9.6c0-5.3,4.6-9,9.6-9
			C196.1,685,200.8,688.7,200.8,693.9z M186.2,693.9c0,3,2.2,5.2,4.9,5.2c2.7,0,4.9-2.2,4.9-5.2c0-2.4-2.2-4.6-4.9-4.6
			C188.4,689.3,186.2,691.5,186.2,693.9z"/>
		<path id="XMLID_235_" class="st3" d="M202.9,685.5h4.5l8.3,10.6h0v-10.6h4.5v17.4h-4.5l-8.3-10.7h0v10.7h-4.5V685.5z"/>
		<path id="XMLID_233_" class="st3" d="M230.1,702.9h-4.5v-13.6h-3.7v-3.8h12v3.8h-3.7V702.9z"/>
		<path id="XMLID_230_" class="st3" d="M250,702.9h-5.6l-4.3-6.7h0v6.7h-4.5v-17.4h6.8c3.4,0,6.1,1.6,6.1,5.4c0,2.4-1.3,4.5-3.8,4.9
			L250,702.9z M240,693.3h0.4c1.5,0,3.1-0.3,3.1-2.2c0-1.9-1.7-2.2-3.1-2.2H240V693.3z"/>
		<path id="XMLID_228_" class="st3" d="M255.7,702.9h-4.5v-17.4h4.5V702.9z"/>
		<path id="XMLID_224_" class="st3" d="M258.7,702.9v-17.4h6.5c3.1,0,5.2,1.2,5.2,4.5c0,1.6-0.5,2.8-1.9,3.6v0
			c2.5,0.3,3.6,2,3.6,4.4c0,3.6-3.1,4.8-6.3,4.8H258.7z M263.2,692.4h0.5c1.2,0,2.4-0.2,2.4-1.7c0-1.6-1.4-1.7-2.6-1.7h-0.3V692.4z
			 M263.2,699.5h0.6c1.3,0,3.6,0.1,3.6-1.8c0-2.1-2.2-1.9-3.7-1.9h-0.5V699.5z"/>
		<path id="XMLID_222_" class="st3" d="M289.4,685.5v9.8c0,2.2-0.1,4.5-1.8,6.1c-1.5,1.4-3.7,1.9-5.8,1.9s-4.3-0.5-5.8-1.9
			c-1.7-1.7-1.8-3.9-1.8-6.1v-9.8h4.5v9.2c0,2.3,0.2,4.7,3.1,4.7c2.9,0,3.1-2.5,3.1-4.7v-9.2H289.4z"/>
		<path id="XMLID_220_" class="st3" d="M290.4,685.5h5.4l3.3,4.7l3.3-4.7h5.4l-6.4,9.1v8.4h-4.5v-8.4L290.4,685.5z"/>
		<path id="XMLID_218_" class="st3" d="M313.3,689.4v2.9h5.1v3.8h-5.1v3h5.4v3.8h-9.9v-17.4h9.9v3.8H313.3z"/>
		<path id="XMLID_216_" class="st3" d="M321.5,685.5h4.5l8.3,10.6h0v-10.6h4.5v17.4h-4.5l-8.3-10.7h0v10.7h-4.5V685.5z"/>
		<path id="XMLID_214_" class="st3" d="M348.8,702.9h-4.5v-13.6h-3.7v-3.8h12v3.8h-3.7V702.9z"/>
		<path id="XMLID_212_" class="st3" d="M358.7,689.4v2.9h5.1v3.8h-5.1v3h5.4v3.8h-9.9v-17.4h9.9v3.8H358.7z"/>
	</g>
</g>
<g id="XMLID_18153_">
	<g>
		<path id="XMLID_527_" class="st3" d="M662.7,65.4c-0.8-0.7-1.9-1.2-3-1.2c-0.8,0-1.9,0.5-1.9,1.5c0,1,1.2,1.4,2,1.7l1.2,0.3
			c2.4,0.7,4.3,1.9,4.3,4.8c0,1.7-0.4,3.5-1.8,4.7c-1.4,1.2-3.2,1.6-4.9,1.6c-2.2,0-4.3-0.7-6.1-2l1.9-3.6c1.1,1,2.5,1.8,4,1.8
			c1.1,0,2.2-0.5,2.2-1.8c0-1.3-1.8-1.7-2.7-2c-2.8-0.8-4.7-1.5-4.7-4.9c0-3.5,2.5-5.8,6-5.8c1.8,0,3.9,0.6,5.5,1.4L662.7,65.4z"/>
		<path id="XMLID_525_" class="st3" d="M671.9,64.8v2.9h5.1v3.8h-5.1v3h5.4v3.8h-9.9V61h9.9v3.8H671.9z"/>
		<path id="XMLID_523_" class="st3" d="M692.5,66.8c-0.9-1.2-2.4-1.9-4-1.9c-2.8,0-4.6,2.1-4.6,4.8c0,2.7,1.9,4.7,4.7,4.7
			c1.5,0,3-0.7,3.9-1.8V78c-1.5,0.5-2.6,0.8-4,0.8c-2.4,0-4.7-0.9-6.5-2.6c-1.9-1.7-2.8-4-2.8-6.6c0-2.4,0.9-4.7,2.6-6.4
			c1.7-1.8,4.2-2.8,6.6-2.8c1.5,0,2.8,0.3,4.1,0.9V66.8z"/>
		<path id="XMLID_520_" class="st3" d="M709.8,78.4h-5.6l-4.3-6.7h0v6.7h-4.5V61h6.8c3.4,0,6.1,1.6,6.1,5.4c0,2.4-1.3,4.5-3.8,4.9
			L709.8,78.4z M699.8,68.8h0.4c1.5,0,3.1-0.3,3.1-2.2c0-1.9-1.7-2.2-3.1-2.2h-0.4V68.8z"/>
		<path id="XMLID_518_" class="st3" d="M715.5,64.8v2.9h5.1v3.8h-5.1v3h5.4v3.8H711V61h9.9v3.8H715.5z"/>
		<path id="XMLID_516_" class="st3" d="M730.6,78.4h-4.5V64.8h-3.7V61h12v3.8h-3.7V78.4z"/>
		<path id="XMLID_513_" class="st3" d="M739,75.3l-1.2,3H733l6.7-17.4h4.9l6.6,17.4h-4.8l-1.1-3H739z M742.2,66.3L742.2,66.3
			l-1.9,5.5h3.8L742.2,66.3z"/>
		<path id="XMLID_510_" class="st3" d="M767.1,78.4h-5.6l-4.3-6.7h0v6.7h-4.5V61h6.8c3.4,0,6.1,1.6,6.1,5.4c0,2.4-1.3,4.5-3.8,4.9
			L767.1,78.4z M757.2,68.8h0.4c1.5,0,3.1-0.3,3.1-2.2c0-1.9-1.7-2.2-3.1-2.2h-0.4V68.8z"/>
		<path id="XMLID_508_" class="st3" d="M772.9,78.4h-4.5V61h4.5V78.4z"/>
		<path id="XMLID_505_" class="st3" d="M780.3,75.3l-1.2,3h-4.8L781,61h4.9l6.6,17.4h-4.8l-1.1-3H780.3z M783.4,66.3L783.4,66.3
			l-1.9,5.5h3.8L783.4,66.3z"/>
		<path id="XMLID_502_" class="st3" d="M603.4,88.7h6.4c4.9,0,8.8,3.8,8.8,8.7s-4,8.7-8.8,8.7h-6.4V88.7z M607.9,102.2h1
			c2.7,0,5-1.5,5-4.9c0-3.1-2.1-4.9-5-4.9h-1.1V102.2z"/>
		<path id="XMLID_500_" class="st3" d="M625.2,92.5v2.9h5.1v3.8h-5.1v3h5.4v3.8h-9.9V88.7h9.9v3.8H625.2z"/>
		<path id="XMLID_498_" class="st3" d="M645.9,102.2h5.4v3.8h-10V88.7h4.5V102.2z"/>
		<path id="XMLID_495_" class="st3" d="M657.2,103.1l-1.2,3h-4.8l6.7-17.4h4.9l6.6,17.4h-4.8l-1.1-3H657.2z M660.4,94L660.4,94
			l-1.9,5.5h3.8L660.4,94z"/>
		<path id="XMLID_493_" class="st3" d="M688.3,93.1c-0.8-0.7-1.9-1.2-3-1.2c-0.8,0-1.9,0.5-1.9,1.5c0,1,1.2,1.4,2,1.7l1.2,0.3
			c2.4,0.7,4.3,1.9,4.3,4.8c0,1.7-0.4,3.5-1.8,4.7c-1.4,1.2-3.2,1.6-4.9,1.6c-2.2,0-4.3-0.7-6.1-2l1.9-3.6c1.1,1,2.5,1.8,4,1.8
			c1.1,0,2.2-0.5,2.2-1.8c0-1.3-1.8-1.7-2.7-2c-2.8-0.8-4.7-1.5-4.7-4.9c0-3.5,2.5-5.8,6-5.8c1.8,0,3.9,0.6,5.5,1.4L688.3,93.1z"/>
		<path id="XMLID_491_" class="st3" d="M708.1,88.7v9.8c0,2.2-0.1,4.5-1.8,6.1c-1.5,1.4-3.7,1.9-5.8,1.9c-2,0-4.3-0.5-5.8-1.9
			c-1.7-1.7-1.8-3.9-1.8-6.1v-9.8h4.5v9.2c0,2.3,0.2,4.7,3.1,4.7c2.9,0,3.1-2.5,3.1-4.7v-9.2H708.1z"/>
		<path id="XMLID_487_" class="st3" d="M710.9,106.1V88.7h6.5c3.1,0,5.2,1.2,5.2,4.5c0,1.6-0.5,2.8-1.9,3.6v0c2.5,0.3,3.6,2,3.6,4.4
			c0,3.6-3.1,4.8-6.3,4.8H710.9z M715.5,95.5h0.5c1.2,0,2.4-0.2,2.4-1.7c0-1.6-1.4-1.7-2.6-1.7h-0.3V95.5z M715.5,102.6h0.6
			c1.3,0,3.6,0.1,3.6-1.8c0-2.1-2.2-1.9-3.7-1.9h-0.5V102.6z"/>
		<path id="XMLID_484_" class="st3" d="M731,103.1l-1.2,3H725l6.7-17.4h4.9l6.6,17.4h-4.8l-1.1-3H731z M734.2,94L734.2,94l-1.9,5.5
			h3.8L734.2,94z"/>
		<path id="XMLID_482_" class="st3" d="M749.1,102.2h5.4v3.8h-10V88.7h4.5V102.2z"/>
		<path id="XMLID_480_" class="st3" d="M768.5,94.5c-0.9-1.2-2.4-1.9-4-1.9c-2.8,0-4.6,2.1-4.6,4.8c0,2.7,1.9,4.7,4.7,4.7
			c1.5,0,3-0.7,3.9-1.8v5.4c-1.5,0.5-2.6,0.8-4,0.8c-2.4,0-4.7-0.9-6.5-2.6c-1.9-1.7-2.8-4-2.8-6.6c0-2.4,0.9-4.7,2.6-6.4
			c1.7-1.8,4.2-2.8,6.6-2.8c1.5,0,2.8,0.3,4.1,0.9V94.5z"/>
		<path id="XMLID_477_" class="st3" d="M775.7,103.1l-1.2,3h-4.8l6.7-17.4h4.9l6.6,17.4h-4.8l-1.1-3H775.7z M778.9,94L778.9,94
			l-1.9,5.5h3.8L778.9,94z"/>
		<path id="XMLID_475_" class="st3" d="M793.8,102.2h5.4v3.8h-10V88.7h4.5V102.2z"/>
		<path id="XMLID_472_" class="st3" d="M800.7,88.7h6.4c4.9,0,8.8,3.8,8.8,8.7s-4,8.7-8.8,8.7h-6.4V88.7z M805.3,102.2h1
			c2.7,0,5-1.5,5-4.9c0-3.1-2.1-4.9-5-4.9h-1.1V102.2z"/>
		<path id="XMLID_470_" class="st3" d="M822.6,106.1h-4.5V88.7h4.5V106.1z"/>
		<path id="XMLID_467_" class="st3" d="M830,103.1l-1.2,3H824l6.7-17.4h4.9l6.6,17.4h-4.8l-1.1-3H830z M833.2,94L833.2,94l-1.9,5.5
			h3.8L833.2,94z"/>
	</g>
</g>
<rect id="XMLID_6215_" x="550.7" y="204.4" class="st2" width="349.3" height="158.1"/>
<rect id="XMLID_6214_" x="550.7" y="409.4" class="st2" width="349.3" height="158.1"/>
<g id="XMLID_18081_">
	<g>
		<path id="XMLID_661_" class="st3" d="M661.6,258.7c-0.8-0.7-1.9-1.2-3-1.2c-0.8,0-1.9,0.5-1.9,1.5c0,1,1.2,1.4,2,1.7l1.2,0.3
			c2.4,0.7,4.3,1.9,4.3,4.8c0,1.7-0.4,3.5-1.8,4.7c-1.4,1.2-3.2,1.6-4.9,1.6c-2.2,0-4.3-0.7-6.1-2l1.9-3.6c1.1,1,2.5,1.8,4,1.8
			c1.1,0,2.2-0.5,2.2-1.8c0-1.3-1.8-1.7-2.7-2c-2.8-0.8-4.7-1.5-4.7-4.9c0-3.5,2.5-5.8,6-5.8c1.8,0,3.9,0.6,5.5,1.4L661.6,258.7z"/>
		<path id="XMLID_659_" class="st3" d="M681.3,254.2v9.8c0,2.2-0.1,4.5-1.8,6.1c-1.5,1.4-3.7,1.9-5.8,1.9c-2,0-4.3-0.5-5.8-1.9
			c-1.7-1.7-1.8-3.9-1.8-6.1v-9.8h4.5v9.2c0,2.3,0.2,4.7,3.1,4.7c2.9,0,3.1-2.5,3.1-4.7v-9.2H681.3z"/>
		<path id="XMLID_655_" class="st3" d="M684.2,271.7v-17.4h6.5c3.1,0,5.2,1.2,5.2,4.5c0,1.6-0.5,2.8-1.9,3.6v0
			c2.5,0.3,3.6,2,3.6,4.4c0,3.6-3.1,4.8-6.3,4.8H684.2z M688.7,261.1h0.5c1.2,0,2.4-0.2,2.4-1.7c0-1.6-1.4-1.7-2.6-1.7h-0.3V261.1z
			 M688.7,268.2h0.6c1.3,0,3.6,0.1,3.6-1.8c0-2.1-2.2-1.9-3.7-1.9h-0.5V268.2z"/>
		<path id="XMLID_652_" class="st3" d="M704.3,268.6l-1.2,3h-4.8l6.7-17.4h4.9l6.6,17.4h-4.8l-1.1-3H704.3z M707.4,259.6
			L707.4,259.6l-1.9,5.5h3.8L707.4,259.6z"/>
		<path id="XMLID_650_" class="st3" d="M722.4,267.8h5.4v3.8h-10v-17.4h4.5V267.8z"/>
		<path id="XMLID_648_" class="st3" d="M741.7,260.1c-0.9-1.2-2.4-1.9-4-1.9c-2.8,0-4.6,2.1-4.6,4.8c0,2.7,1.9,4.7,4.7,4.7
			c1.5,0,3-0.7,3.9-1.8v5.4c-1.5,0.5-2.6,0.8-4,0.8c-2.4,0-4.7-0.9-6.5-2.6c-1.9-1.7-2.8-4-2.8-6.6c0-2.4,0.9-4.7,2.6-6.4
			c1.7-1.8,4.2-2.8,6.6-2.8c1.5,0,2.8,0.3,4.1,0.9V260.1z"/>
		<path id="XMLID_645_" class="st3" d="M749,268.6l-1.2,3H743l6.7-17.4h4.9l6.6,17.4h-4.8l-1.1-3H749z M752.1,259.6L752.1,259.6
			l-1.9,5.5h3.8L752.1,259.6z"/>
		<path id="XMLID_643_" class="st3" d="M767.1,267.8h5.4v3.8h-10v-17.4h4.5V267.8z"/>
		<path id="XMLID_640_" class="st3" d="M774,254.2h6.4c4.9,0,8.8,3.8,8.8,8.7c0,4.9-4,8.7-8.8,8.7H774V254.2z M778.5,267.8h1
			c2.7,0,5-1.5,5-4.9c0-3.1-2.1-4.9-5-4.9h-1.1V267.8z"/>
		<path id="XMLID_638_" class="st3" d="M795.9,258.1v2.9h5.1v3.8h-5.1v3h5.4v3.8h-9.9v-17.4h9.9v3.8H795.9z"/>
		<path id="XMLID_636_" class="st3" d="M621.8,292.5l4.2-10.6h4.9l-7.4,17.4H620l-7.3-17.4h4.9L621.8,292.5z"/>
		<path id="XMLID_633_" class="st3" d="M642.5,294.1h-8.8c0,1.7,0.9,2.6,2.6,2.6c0.9,0,1.5-0.3,2-1.1h4c-0.3,1.4-1.2,2.4-2.2,3.1
			c-1.1,0.7-2.4,1-3.8,1c-3.9,0-6.9-2.2-6.9-6.3c0-3.9,2.7-6.3,6.6-6.3c4.1,0,6.5,2.5,6.5,6.6V294.1z M638.6,291.7
			c-0.2-1.1-1.2-1.9-2.4-1.9c-1.2,0-2.2,0.6-2.5,1.9H638.6z"/>
		<path id="XMLID_631_" class="st3" d="M648.6,289.5L648.6,289.5c0.9-1.5,2.2-2.1,3.9-2.1h0.8v4c-0.6-0.3-1.1-0.4-1.8-0.4
			c-2.3,0-2.9,1.5-2.9,3.6v4.8h-4.2v-11.8h4.2V289.5z"/>
		<path id="XMLID_628_" class="st3" d="M659.3,283c0,1.3-1.1,2.4-2.4,2.4c-1.3,0-2.4-1.1-2.4-2.4c0-1.3,1.1-2.4,2.4-2.4
			C658.2,280.6,659.3,281.7,659.3,283z M659.1,299.4h-4.2v-11.8h4.2V299.4z"/>
		<path id="XMLID_624_" class="st3" d="M666.3,299.4h-4.2V291h-1.5v-3.5h1.5V286c0-1.6,0-2.8,1.2-4.2c1-1.2,2.5-1.9,4.1-1.9
			c0.6,0,1.2,0.1,1.8,0.4v3.6c-0.5-0.2-0.9-0.4-1.5-0.4c-1.1,0-1.5,0.6-1.5,2v1.9h2.9v3.5h-2.9V299.4z M675,283
			c0,1.3-1.1,2.4-2.4,2.4c-1.3,0-2.4-1.1-2.4-2.4c0-1.3,1.1-2.4,2.4-2.4C673.9,280.6,675,281.7,675,283z M674.7,299.4h-4.2v-11.8
			h4.2V299.4z"/>
		<path id="XMLID_622_" class="st3" d="M686,291.4c-0.6-0.5-1.4-0.8-2.2-0.8c-1.6,0-2.9,1.2-2.9,2.9c0,1.7,1.2,2.9,3,2.9
			c0.7,0,1.5-0.3,2.1-0.8v3.6c-0.9,0.5-1.9,0.7-3,0.7c-3.5,0-6.4-2.6-6.4-6.2c0-3.8,2.9-6.4,6.6-6.4c1,0,1.9,0.2,2.8,0.7V291.4z"/>
		<path id="XMLID_619_" class="st3" d="M701.6,299.4h-4.2v-1.3h0c-0.7,1.2-2.2,1.7-3.6,1.7c-3.5,0-6-2.9-6-6.3s2.4-6.3,5.9-6.3
			c1.4,0,2.8,0.5,3.7,1.5v-1.2h4.2V299.4z M692.1,293.5c0,1.5,1,2.7,2.7,2.7c1.7,0,2.7-1.2,2.7-2.7c0-1.5-1-2.7-2.7-2.7
			C693.1,290.8,692.1,292,692.1,293.5z"/>
		<path id="XMLID_617_" class="st3" d="M716.5,299.4h-4.2v-19.2h4.2V299.4z"/>
		<path id="XMLID_614_" class="st3" d="M732.3,299.4h-4.2v-1.3h0c-0.7,1.2-2.2,1.7-3.6,1.7c-3.5,0-6-2.9-6-6.3s2.4-6.3,5.9-6.3
			c1.4,0,2.8,0.5,3.7,1.5v-1.2h4.2V299.4z M722.8,293.5c0,1.5,1,2.7,2.7,2.7c1.7,0,2.7-1.2,2.7-2.7c0-1.5-1-2.7-2.7-2.7
			C723.8,290.8,722.8,292,722.8,293.5z"/>
		<path id="XMLID_612_" class="st3" d="M750.8,290.6c-0.6-0.3-1.5-0.6-2.3-0.6c-0.5,0-1.3,0.2-1.3,0.8c0,0.8,1.3,0.9,1.9,1
			c2,0.4,3.4,1.3,3.4,3.5c0,3.1-2.8,4.4-5.6,4.4c-1.7,0-3.3-0.5-4.8-1.4l1.5-2.9c0.9,0.6,2.3,1.2,3.3,1.2c0.5,0,1.3-0.3,1.3-0.9
			c0-0.9-1.3-1-2.6-1.3c-1.3-0.3-2.6-1-2.6-3.1c0-2.9,2.6-4.2,5.2-4.2c1.3,0,2.7,0.2,3.9,0.8L750.8,290.6z"/>
		<path id="XMLID_609_" class="st3" d="M768.2,293.5c0,4-3.3,6.3-7.1,6.3c-3.8,0-7.1-2.3-7.1-6.3c0-4,3.3-6.3,7.1-6.3
			C764.9,287.1,768.2,289.4,768.2,293.5z M758.4,293.5c0,1.5,1,2.7,2.7,2.7c1.7,0,2.7-1.2,2.7-2.7c0-1.5-1-2.7-2.7-2.7
			C759.4,290.8,758.4,292,758.4,293.5z"/>
		<path id="XMLID_607_" class="st3" d="M774.3,299.4h-4.2v-19.2h4.2V299.4z"/>
		<path id="XMLID_604_" class="st3" d="M781.5,283c0,1.3-1.1,2.4-2.4,2.4c-1.3,0-2.4-1.1-2.4-2.4c0-1.3,1.1-2.4,2.4-2.4
			C780.5,280.6,781.5,281.7,781.5,283z M781.3,299.4h-4.2v-11.8h4.2V299.4z"/>
		<path id="XMLID_602_" class="st3" d="M792.6,291.4c-0.6-0.5-1.4-0.8-2.2-0.8c-1.6,0-2.9,1.2-2.9,2.9c0,1.7,1.2,2.9,3,2.9
			c0.7,0,1.5-0.3,2.1-0.8v3.6c-0.9,0.5-1.9,0.7-3,0.7c-3.5,0-6.4-2.6-6.4-6.2c0-3.8,2.9-6.4,6.6-6.4c1,0,1.9,0.2,2.8,0.7V291.4z"/>
		<path id="XMLID_599_" class="st3" d="M799.7,283c0,1.3-1.1,2.4-2.4,2.4c-1.3,0-2.4-1.1-2.4-2.4c0-1.3,1.1-2.4,2.4-2.4
			C798.6,280.6,799.7,281.7,799.7,283z M799.4,299.4h-4.2v-11.8h4.2V299.4z"/>
		<path id="XMLID_597_" class="st3" d="M806.8,299.4h-4.2V291h-1.4v-3.5h1.4V284h4.2v3.6h2.4v3.5h-2.4V299.4z"/>
		<path id="XMLID_595_" class="st3" d="M814.6,287.5v6.3c0,1.5,0.4,2.6,2.1,2.6c1.7,0,2.1-1.1,2.1-2.6v-6.3h4.2v7.1
			c0,3.9-2.7,5.1-6.3,5.1c-3.6,0-6.3-1.2-6.3-5.1v-7.1H814.6z"/>
		<path id="XMLID_592_" class="st3" d="M834.6,298.1L834.6,298.1c-0.8,1.2-2.2,1.7-3.6,1.7c-3.5,0-6-2.9-6-6.3s2.4-6.3,5.9-6.3
			c1.4,0,2.8,0.5,3.7,1.5v-8.5h4.2v19.2h-4.2V298.1z M829.4,293.5c0,1.5,1,2.7,2.7,2.7c1.7,0,2.7-1.2,2.7-2.7c0-1.5-1-2.7-2.7-2.7
			C830.4,290.8,829.4,292,829.4,293.5z"/>
	</g>
</g>
<g id="XMLID_17911_">
	<g>
		<path id="XMLID_1707_" class="st3" d="M648.9,434.8h6.4c4.9,0,8.8,3.8,8.8,8.7c0,4.9-4,8.7-8.8,8.7h-6.4V434.8z M653.4,448.4h1
			c2.7,0,5-1.5,5-4.9c0-3.1-2.1-4.9-5-4.9h-1.1V448.4z"/>
		<path id="XMLID_1705_" class="st3" d="M670.8,452.2h-4.5v-17.4h4.5V452.2z"/>
		<path id="XMLID_1703_" class="st3" d="M681,445.4l4.2-10.6h4.9l-7.4,17.4h-3.5l-7.3-17.4h4.9L681,445.4z"/>
		<path id="XMLID_1701_" class="st3" d="M695.8,452.2h-4.5v-17.4h4.5V452.2z"/>
		<path id="XMLID_1699_" class="st3" d="M708.3,439.3c-0.8-0.7-1.9-1.2-3-1.2c-0.8,0-1.9,0.5-1.9,1.5c0,1,1.2,1.4,2,1.7l1.2,0.3
			c2.4,0.7,4.3,1.9,4.3,4.8c0,1.7-0.4,3.5-1.8,4.7c-1.4,1.2-3.2,1.6-4.9,1.6c-2.2,0-4.3-0.7-6.1-2l1.9-3.6c1.1,1,2.5,1.8,4,1.8
			c1.1,0,2.2-0.5,2.2-1.8c0-1.3-1.8-1.7-2.7-2c-2.8-0.8-4.7-1.5-4.7-4.9c0-3.5,2.5-5.8,6-5.8c1.8,0,3.9,0.6,5.5,1.4L708.3,439.3z"/>
		<path id="XMLID_1697_" class="st3" d="M717.5,452.2H713v-17.4h4.5V452.2z"/>
		<path id="XMLID_1693_" class="st3" d="M738.9,443.2c0,5.6-4,9.6-9.6,9.6c-5.6,0-9.6-4-9.6-9.6c0-5.3,4.6-9,9.6-9
			C734.2,434.3,738.9,438,738.9,443.2z M724.3,443.2c0,3,2.2,5.2,4.9,5.2c2.7,0,4.9-2.2,4.9-5.2c0-2.4-2.2-4.6-4.9-4.6
			C726.5,438.6,724.3,440.8,724.3,443.2z M728.7,433.8l-1.9-1.4l3.3-4l2.6,1.8L728.7,433.8z"/>
		<path id="XMLID_1691_" class="st3" d="M741,434.8h4.5l8.3,10.6h0v-10.6h4.5v17.4h-4.5l-8.3-10.7h0v10.7H741V434.8z"/>
		<path id="XMLID_1688_" class="st3" d="M769.2,434.8h6.4c4.9,0,8.8,3.8,8.8,8.7c0,4.9-4,8.7-8.8,8.7h-6.4V434.8z M773.8,448.4h1
			c2.7,0,5-1.5,5-4.9c0-3.1-2.1-4.9-5-4.9h-1.1V448.4z"/>
		<path id="XMLID_1686_" class="st3" d="M791.1,438.7v2.9h5.1v3.8h-5.1v3h5.4v3.8h-9.9v-17.4h9.9v3.8H791.1z"/>
		<path id="XMLID_1683_" class="st3" d="M586.3,462.5h6.4c4.9,0,8.8,3.8,8.8,8.7c0,4.9-4,8.7-8.8,8.7h-6.4V462.5z M590.8,476.1h1
			c2.7,0,5-1.5,5-4.9c0-3.1-2.1-4.9-5-4.9h-1.1V476.1z"/>
		<path id="XMLID_1681_" class="st3" d="M608.2,466.4v2.9h5.1v3.8h-5.1v3h5.4v3.8h-9.9v-17.4h9.9v3.8H608.2z"/>
		<path id="XMLID_1679_" class="st3" d="M625.9,467c-0.8-0.7-1.9-1.2-3-1.2c-0.8,0-1.9,0.5-1.9,1.5c0,1,1.2,1.4,2,1.7l1.2,0.3
			c2.4,0.7,4.3,1.9,4.3,4.8c0,1.7-0.4,3.5-1.8,4.7c-1.4,1.2-3.2,1.6-4.9,1.6c-2.2,0-4.3-0.7-6.1-2l1.9-3.6c1.1,1,2.5,1.8,4,1.8
			c1.1,0,2.2-0.5,2.2-1.8c0-1.3-1.8-1.7-2.7-2c-2.8-0.8-4.7-1.5-4.7-4.9c0-3.5,2.5-5.8,6-5.8c1.8,0,3.9,0.6,5.5,1.4L625.9,467z"/>
		<path id="XMLID_1676_" class="st3" d="M635,476.9l-1.2,3H629l6.7-17.4h4.9l6.6,17.4h-4.8l-1.1-3H635z M638.1,467.9L638.1,467.9
			l-1.9,5.5h3.8L638.1,467.9z"/>
		<path id="XMLID_1673_" class="st3" d="M663.1,480h-5.6l-4.3-6.7h0v6.7h-4.5v-17.4h6.8c3.4,0,6.1,1.6,6.1,5.4
			c0,2.4-1.3,4.5-3.8,4.9L663.1,480z M653.1,470.4h0.4c1.5,0,3.1-0.3,3.1-2.2c0-1.9-1.7-2.2-3.1-2.2h-0.4V470.4z"/>
		<path id="XMLID_1670_" class="st3" d="M678.8,480h-5.6l-4.3-6.7h0v6.7h-4.5v-17.4h6.8c3.4,0,6.1,1.6,6.1,5.4
			c0,2.4-1.3,4.5-3.8,4.9L678.8,480z M668.8,470.4h0.4c1.5,0,3.1-0.3,3.1-2.2c0-1.9-1.7-2.2-3.1-2.2h-0.4V470.4z"/>
		<path id="XMLID_1667_" class="st3" d="M698.4,470.9c0,5.6-4,9.6-9.6,9.6c-5.6,0-9.6-4-9.6-9.6c0-5.3,4.6-9,9.6-9
			C693.8,462,698.4,465.7,698.4,470.9z M683.8,471c0,3,2.2,5.2,4.9,5.2s4.9-2.2,4.9-5.2c0-2.4-2.2-4.6-4.9-4.6
			S683.8,468.6,683.8,471z"/>
		<path id="XMLID_1665_" class="st3" d="M705,476.1h5.4v3.8h-10v-17.4h4.5V476.1z"/>
		<path id="XMLID_1663_" class="st3" d="M716.4,476.1h5.4v3.8h-10v-17.4h4.5V476.1z"/>
		<path id="XMLID_1660_" class="st3" d="M741.7,470.9c0,5.6-4,9.6-9.6,9.6c-5.6,0-9.6-4-9.6-9.6c0-5.3,4.6-9,9.6-9
			C737.1,462,741.7,465.7,741.7,470.9z M727.2,471c0,3,2.2,5.2,4.9,5.2c2.7,0,4.9-2.2,4.9-5.2c0-2.4-2.2-4.6-4.9-4.6
			C729.4,466.4,727.2,468.6,727.2,471z"/>
		<path id="XMLID_1658_" class="st3" d="M762.8,469.3v-6.7h4.5V480h-4.5v-7.1h-6.5v7.1h-4.5v-17.4h4.5v6.7H762.8z"/>
		<path id="XMLID_1656_" class="st3" d="M785.4,462.5v9.8c0,2.2-0.1,4.5-1.8,6.1c-1.5,1.4-3.7,1.9-5.8,1.9c-2,0-4.3-0.5-5.8-1.9
			c-1.7-1.7-1.8-3.9-1.8-6.1v-9.8h4.5v9.2c0,2.3,0.2,4.7,3.1,4.7c2.9,0,3.1-2.5,3.1-4.7v-9.2H785.4z"/>
		<path id="XMLID_1654_" class="st3" d="M790.2,462.5h4.5l3.5,9.3l3.7-9.3h4.5L809,480h-4.5l-1.3-10h0l-4.2,10h-1.8l-4-10h0l-1.5,10
			h-4.5L790.2,462.5z"/>
		<path id="XMLID_1651_" class="st3" d="M815.4,476.9l-1.2,3h-4.8l6.7-17.4h4.9l6.6,17.4h-4.8l-1.1-3H815.4z M818.6,467.9
			L818.6,467.9l-1.9,5.5h3.8L818.6,467.9z"/>
		<path id="XMLID_1649_" class="st3" d="M829,462.5h4.5l8.3,10.6h0v-10.6h4.5V480h-4.5l-8.3-10.7h0V480H829V462.5z"/>
		<path id="XMLID_1646_" class="st3" d="M867.7,470.9c0,5.6-4,9.6-9.6,9.6c-5.6,0-9.6-4-9.6-9.6c0-5.3,4.6-9,9.6-9
			S867.7,465.7,867.7,470.9z M853.2,471c0,3,2.2,5.2,4.9,5.2s4.9-2.2,4.9-5.2c0-2.4-2.2-4.6-4.9-4.6S853.2,468.6,853.2,471z"/>
		<path id="XMLID_1643_" class="st3" d="M622.1,507.7h-5.6l-4.3-6.7h0v6.7h-4.5v-17.4h6.8c3.4,0,6.1,1.6,6.1,5.4
			c0,2.4-1.3,4.5-3.8,4.9L622.1,507.7z M612.1,498.1h0.4c1.5,0,3.1-0.3,3.1-2.2c0-1.9-1.7-2.2-3.1-2.2h-0.4V498.1z"/>
		<path id="XMLID_1640_" class="st3" d="M635.4,502.5h-8.8c0,1.7,0.9,2.6,2.6,2.6c0.9,0,1.5-0.3,2-1.1h4c-0.3,1.4-1.2,2.4-2.2,3.1
			c-1.1,0.7-2.4,1-3.8,1c-3.9,0-6.9-2.2-6.9-6.3c0-3.9,2.7-6.3,6.6-6.3c4.1,0,6.5,2.5,6.5,6.6V502.5z M631.5,500
			c-0.2-1.1-1.2-1.9-2.4-1.9c-1.2,0-2.2,0.6-2.5,1.9H631.5z"/>
		<path id="XMLID_1637_" class="st3" d="M650.2,507.7H646v-1.3h0c-0.7,1.2-2.2,1.7-3.6,1.7c-3.5,0-6-2.9-6-6.3
			c0-3.4,2.4-6.3,5.9-6.3c1.4,0,2.8,0.5,3.7,1.5v-1.2h4.2V507.7z M640.8,501.8c0,1.5,1,2.7,2.7,2.7c1.7,0,2.7-1.2,2.7-2.7
			c0-1.5-1-2.7-2.7-2.7C641.8,499.1,640.8,500.3,640.8,501.8z"/>
		<path id="XMLID_1635_" class="st3" d="M657.2,507.7H653v-19.2h4.2V507.7z"/>
		<path id="XMLID_1632_" class="st3" d="M664.5,491.3c0,1.3-1.1,2.4-2.4,2.4c-1.3,0-2.4-1.1-2.4-2.4c0-1.3,1.1-2.4,2.4-2.4
			C663.4,488.9,664.5,490,664.5,491.3z M664.2,507.7H660v-11.8h4.2V507.7z"/>
		<path id="XMLID_1630_" class="st3" d="M677.8,504.2v3.5h-12l5.6-8.4h-4.8v-3.5h11.8l-5.5,8.4H677.8z"/>
		<path id="XMLID_1627_" class="st3" d="M692.8,507.7h-4.2v-1.3h0c-0.7,1.2-2.2,1.7-3.6,1.7c-3.5,0-6-2.9-6-6.3
			c0-3.4,2.4-6.3,5.9-6.3c1.4,0,2.8,0.5,3.7,1.5v-1.2h4.2V507.7z M683.4,501.8c0,1.5,1,2.7,2.7,2.7c1.7,0,2.7-1.2,2.7-2.7
			c0-1.5-1-2.7-2.7-2.7C684.4,499.1,683.4,500.3,683.4,501.8z"/>
		<path id="XMLID_1624_" class="st3" d="M715.7,502.5h-8.8c0,1.7,0.9,2.6,2.6,2.6c0.9,0,1.5-0.3,2-1.1h4c-0.3,1.4-1.2,2.4-2.2,3.1
			c-1.1,0.7-2.4,1-3.8,1c-3.9,0-6.9-2.2-6.9-6.3c0-3.9,2.7-6.3,6.6-6.3c4.1,0,6.5,2.5,6.5,6.6V502.5z M711.8,500
			c-0.2-1.1-1.2-1.9-2.4-1.9c-1.2,0-2.2,0.6-2.5,1.9H711.8z"/>
		<path id="XMLID_1622_" class="st3" d="M725.5,498.9c-0.6-0.3-1.5-0.6-2.3-0.6c-0.5,0-1.3,0.2-1.3,0.8c0,0.8,1.3,0.9,1.9,1
			c2,0.4,3.4,1.3,3.4,3.5c0,3.1-2.8,4.4-5.6,4.4c-1.7,0-3.3-0.5-4.8-1.4l1.5-2.9c0.9,0.6,2.3,1.2,3.3,1.2c0.5,0,1.3-0.3,1.3-0.9
			c0-0.9-1.3-1-2.6-1.3c-1.3-0.3-2.6-1-2.6-3.1c0-2.9,2.6-4.2,5.2-4.2c1.3,0,2.7,0.2,3.9,0.8L725.5,498.9z"/>
		<path id="XMLID_1620_" class="st3" d="M734.1,507.7h-4.2v-8.4h-1.4v-3.5h1.4v-3.6h4.2v3.6h2.4v3.5h-2.4V507.7z"/>
		<path id="XMLID_1618_" class="st3" d="M741.9,495.8v6.3c0,1.5,0.4,2.6,2.1,2.6c1.7,0,2.1-1.1,2.1-2.6v-6.3h4.2v7.1
			c0,3.9-2.7,5.1-6.3,5.1s-6.3-1.2-6.3-5.1v-7.1H741.9z"/>
		<path id="XMLID_1615_" class="st3" d="M761.9,506.4L761.9,506.4c-0.8,1.2-2.2,1.7-3.6,1.7c-3.5,0-6-2.9-6-6.3
			c0-3.4,2.4-6.3,5.9-6.3c1.4,0,2.8,0.5,3.7,1.5v-8.5h4.2v19.2h-4.2V506.4z M756.7,501.8c0,1.5,1,2.7,2.7,2.7c1.7,0,2.7-1.2,2.7-2.7
			c0-1.5-1-2.7-2.7-2.7C757.7,499.1,756.7,500.3,756.7,501.8z"/>
		<path id="XMLID_1612_" class="st3" d="M773.2,491.3c0,1.3-1.1,2.4-2.4,2.4c-1.3,0-2.4-1.1-2.4-2.4c0-1.3,1.1-2.4,2.4-2.4
			C772.2,488.9,773.2,490,773.2,491.3z M773,507.7h-4.2v-11.8h4.2V507.7z"/>
		<path id="XMLID_1609_" class="st3" d="M789.1,501.8c0,4-3.3,6.3-7.1,6.3c-3.8,0-7.1-2.3-7.1-6.3c0-4,3.3-6.3,7.1-6.3
			C785.8,495.4,789.1,497.7,789.1,501.8z M779.3,501.8c0,1.5,1,2.7,2.7,2.7c1.7,0,2.7-1.2,2.7-2.7c0-1.5-1-2.7-2.7-2.7
			C780.3,499.1,779.3,500.3,779.3,501.8z"/>
		<path id="XMLID_1607_" class="st3" d="M806.8,498.9c-0.6-0.3-1.5-0.6-2.3-0.6c-0.5,0-1.3,0.2-1.3,0.8c0,0.8,1.3,0.9,1.9,1
			c2,0.4,3.4,1.3,3.4,3.5c0,3.1-2.8,4.4-5.6,4.4c-1.7,0-3.3-0.5-4.8-1.4l1.5-2.9c0.9,0.6,2.3,1.2,3.3,1.2c0.5,0,1.3-0.3,1.3-0.9
			c0-0.9-1.3-1-2.6-1.3c-1.3-0.3-2.6-1-2.6-3.1c0-2.9,2.6-4.2,5.2-4.2c1.3,0,2.7,0.2,3.9,0.8L806.8,498.9z"/>
		<path id="XMLID_1604_" class="st3" d="M815.3,491.3c0,1.3-1.1,2.4-2.4,2.4c-1.3,0-2.4-1.1-2.4-2.4c0-1.3,1.1-2.4,2.4-2.4
			C814.2,488.9,815.3,490,815.3,491.3z M815,507.7h-4.2v-11.8h4.2V507.7z"/>
		<path id="XMLID_1602_" class="st3" d="M829.9,507.7h-4.2v-19.2h4.2V507.7z"/>
		<path id="XMLID_1599_" class="st3" d="M845.6,507.7h-4.2v-1.3h0c-0.7,1.2-2.2,1.7-3.6,1.7c-3.5,0-6-2.9-6-6.3
			c0-3.4,2.4-6.3,5.9-6.3c1.4,0,2.8,0.5,3.7,1.5v-1.2h4.2V507.7z M836.2,501.8c0,1.5,1,2.7,2.7,2.7c1.7,0,2.7-1.2,2.7-2.7
			c0-1.5-1-2.7-2.7-2.7C837.1,499.1,836.2,500.3,836.2,501.8z"/>
		<path id="XMLID_1597_" class="st3" d="M581,526.6c-0.6-0.3-1.5-0.6-2.3-0.6c-0.5,0-1.3,0.2-1.3,0.8c0,0.8,1.3,0.9,1.9,1
			c2,0.4,3.4,1.3,3.4,3.5c0,3.1-2.8,4.4-5.6,4.4c-1.7,0-3.3-0.5-4.8-1.4l1.5-2.9c0.9,0.6,2.3,1.2,3.3,1.2c0.5,0,1.3-0.3,1.3-0.9
			c0-0.9-1.3-1-2.6-1.3c-1.3-0.3-2.6-1-2.6-3.1c0-2.9,2.6-4.2,5.2-4.2c1.3,0,2.7,0.2,3.9,0.8L581,526.6z"/>
		<path id="XMLID_1594_" class="st3" d="M598.4,529.5c0,4-3.3,6.3-7.1,6.3c-3.8,0-7.1-2.3-7.1-6.3c0-4,3.3-6.3,7.1-6.3
			C595.1,523.1,598.4,525.4,598.4,529.5z M588.5,529.5c0,1.5,1,2.7,2.7,2.7c1.7,0,2.7-1.2,2.7-2.7c0-1.5-1-2.7-2.7-2.7
			C589.5,526.8,588.5,528,588.5,529.5z"/>
		<path id="XMLID_1592_" class="st3" d="M604.5,535.4h-4.2v-19.2h4.2V535.4z"/>
		<path id="XMLID_1589_" class="st3" d="M611.7,519c0,1.3-1.1,2.4-2.4,2.4c-1.3,0-2.4-1.1-2.4-2.4c0-1.3,1.1-2.4,2.4-2.4
			C610.6,516.6,611.7,517.7,611.7,519z M611.5,535.4h-4.2v-11.8h4.2V535.4z"/>
		<path id="XMLID_1587_" class="st3" d="M622.8,527.4c-0.6-0.5-1.4-0.8-2.2-0.8c-1.6,0-2.9,1.2-2.9,2.9c0,1.7,1.2,2.9,3,2.9
			c0.7,0,1.5-0.3,2.1-0.8v3.6c-0.9,0.5-1.9,0.7-3,0.7c-3.5,0-6.4-2.6-6.4-6.2c0-3.8,2.9-6.4,6.6-6.4c1,0,1.9,0.2,2.8,0.7V527.4z"/>
		<path id="XMLID_1584_" class="st3" d="M629.8,519c0,1.3-1.1,2.4-2.4,2.4c-1.3,0-2.4-1.1-2.4-2.4c0-1.3,1.1-2.4,2.4-2.4
			C628.8,516.6,629.8,517.7,629.8,519z M629.6,535.4h-4.2v-11.8h4.2V535.4z"/>
		<path id="XMLID_1582_" class="st3" d="M636.9,535.4h-4.2V527h-1.4v-3.5h1.4V520h4.2v3.6h2.4v3.5h-2.4V535.4z"/>
		<path id="XMLID_1580_" class="st3" d="M644.8,523.5v6.3c0,1.5,0.4,2.6,2.1,2.6c1.7,0,2.1-1.1,2.1-2.6v-6.3h4.2v7.1
			c0,3.9-2.7,5.1-6.3,5.1c-3.6,0-6.3-1.2-6.3-5.1v-7.1H644.8z"/>
		<path id="XMLID_1577_" class="st3" d="M664.8,534.1L664.8,534.1c-0.8,1.2-2.2,1.7-3.6,1.7c-3.5,0-6-2.9-6-6.3
			c0-3.4,2.4-6.3,5.9-6.3c1.4,0,2.8,0.5,3.7,1.5v-8.5h4.2v19.2h-4.2V534.1z M659.5,529.5c0,1.5,1,2.7,2.7,2.7c1.7,0,2.7-1.2,2.7-2.7
			c0-1.5-1-2.7-2.7-2.7C660.5,526.8,659.5,528,659.5,529.5z"/>
		<path id="XMLID_1575_" class="st3" d="M688.1,527.4c-0.6-0.5-1.4-0.8-2.2-0.8c-1.6,0-2.9,1.2-2.9,2.9c0,1.7,1.2,2.9,3,2.9
			c0.7,0,1.5-0.3,2.1-0.8v3.6c-0.9,0.5-1.9,0.7-3,0.7c-3.5,0-6.4-2.6-6.4-6.2c0-3.8,2.9-6.4,6.6-6.4c1,0,1.9,0.2,2.8,0.7V527.4z"/>
		<path id="XMLID_1572_" class="st3" d="M704.1,529.5c0,4-3.3,6.3-7.1,6.3c-3.8,0-7.1-2.3-7.1-6.3c0-4,3.3-6.3,7.1-6.3
			C700.8,523.1,704.1,525.4,704.1,529.5z M694.3,529.5c0,1.5,1,2.7,2.7,2.7c1.7,0,2.7-1.2,2.7-2.7c0-1.5-1-2.7-2.7-2.7
			C695.3,526.8,694.3,528,694.3,529.5z"/>
		<path id="XMLID_1570_" class="st3" d="M710.2,525.5L710.2,525.5c0.9-1.5,2.2-2.1,3.9-2.1h0.8v4c-0.6-0.3-1.1-0.4-1.8-0.4
			c-2.3,0-2.9,1.5-2.9,3.6v4.8H706v-11.8h4.2V525.5z"/>
		<path id="XMLID_1568_" class="st3" d="M720.7,525.5L720.7,525.5c0.9-1.5,2.2-2.1,3.9-2.1h0.8v4c-0.6-0.3-1.1-0.4-1.8-0.4
			c-2.3,0-2.9,1.5-2.9,3.6v4.8h-4.2v-11.8h4.2V525.5z"/>
		<path id="XMLID_1565_" class="st3" d="M739.1,530.2h-8.8c0,1.7,0.9,2.6,2.6,2.6c0.9,0,1.5-0.3,2-1.1h4c-0.3,1.4-1.2,2.4-2.2,3.1
			c-1.1,0.7-2.4,1-3.8,1c-3.9,0-6.9-2.2-6.9-6.3c0-3.9,2.7-6.3,6.6-6.3c4.1,0,6.5,2.5,6.5,6.6V530.2z M735.2,527.7
			c-0.2-1.1-1.2-1.9-2.4-1.9c-1.2,0-2.2,0.6-2.5,1.9H735.2z"/>
		<path id="XMLID_1563_" class="st3" d="M748.8,526.6c-0.6-0.3-1.5-0.6-2.3-0.6c-0.5,0-1.3,0.2-1.3,0.8c0,0.8,1.3,0.9,1.9,1
			c2,0.4,3.4,1.3,3.4,3.5c0,3.1-2.8,4.4-5.6,4.4c-1.7,0-3.3-0.5-4.8-1.4l1.5-2.9c0.9,0.6,2.3,1.2,3.3,1.2c0.5,0,1.3-0.3,1.3-0.9
			c0-0.9-1.3-1-2.6-1.3c-1.3-0.3-2.6-1-2.6-3.1c0-2.9,2.6-4.2,5.2-4.2c1.3,0,2.7,0.2,3.9,0.8L748.8,526.6z"/>
		<path id="XMLID_1560_" class="st3" d="M756.9,524.9L756.9,524.9c0.8-1.2,2.2-1.7,3.6-1.7c3.5,0,6,3,6,6.4c0,3.4-2.4,6.3-5.9,6.3
			c-1.4,0-2.8-0.5-3.7-1.5v7h-4.2v-17.8h4.2V524.9z M756.8,529.5c0,1.5,1,2.7,2.7,2.7c1.7,0,2.7-1.2,2.7-2.7c0-1.5-1-2.7-2.7-2.7
			C757.8,526.8,756.8,528,756.8,529.5z"/>
		<path id="XMLID_1557_" class="st3" d="M782,529.5c0,4-3.3,6.3-7.1,6.3c-3.8,0-7.1-2.3-7.1-6.3c0-4,3.3-6.3,7.1-6.3
			C778.7,523.1,782,525.4,782,529.5z M772.2,529.5c0,1.5,1,2.7,2.7,2.7c1.7,0,2.7-1.2,2.7-2.7c0-1.5-1-2.7-2.7-2.7
			C773.2,526.8,772.2,528,772.2,529.5z"/>
		<path id="XMLID_1555_" class="st3" d="M788.1,525.1L788.1,525.1c1-1.4,2.2-1.9,3.8-1.9c3.2,0,4.5,2,4.5,4.9v7.3h-4.2v-5.8
			c0-1.1,0.2-3.1-1.9-3.1c-1.7,0-2.2,1.3-2.2,2.7v6.1h-4.2v-11.8h4.2V525.1z"/>
		<path id="XMLID_1552_" class="st3" d="M808.1,534.1L808.1,534.1c-0.8,1.2-2.2,1.7-3.6,1.7c-3.5,0-6-2.9-6-6.3
			c0-3.4,2.4-6.3,5.9-6.3c1.4,0,2.8,0.5,3.7,1.5v-8.5h4.2v19.2h-4.2V534.1z M802.8,529.5c0,1.5,1,2.7,2.7,2.7c1.7,0,2.7-1.2,2.7-2.7
			c0-1.5-1-2.7-2.7-2.7C803.8,526.8,802.8,528,802.8,529.5z"/>
		<path id="XMLID_1549_" class="st3" d="M827.1,530.2h-8.8c0,1.7,0.9,2.6,2.6,2.6c0.9,0,1.5-0.3,2-1.1h4c-0.3,1.4-1.2,2.4-2.2,3.1
			c-1.1,0.7-2.4,1-3.8,1c-3.9,0-6.9-2.2-6.9-6.3c0-3.9,2.7-6.3,6.6-6.3c4.1,0,6.5,2.5,6.5,6.6V530.2z M823.2,527.7
			c-0.2-1.1-1.2-1.9-2.4-1.9c-1.2,0-2.2,0.6-2.5,1.9H823.2z"/>
		<path id="XMLID_1546_" class="st3" d="M850.3,529.5c0,4-3.3,6.3-7.1,6.3c-3.8,0-7.1-2.3-7.1-6.3c0-4,3.3-6.3,7.1-6.3
			C847,523.1,850.3,525.4,850.3,529.5z M840.5,529.5c0,1.5,1,2.7,2.7,2.7c1.7,0,2.7-1.2,2.7-2.7c0-1.5-1-2.7-2.7-2.7
			C841.5,526.8,840.5,528,840.5,529.5z"/>
		<path id="XMLID_1544_" class="st3" d="M864.3,525.1L864.3,525.1c1-1.4,2.2-1.9,3.8-1.9c3.2,0,4.5,2,4.5,4.9v7.3h-4.2v-5.8
			c0-1.1,0.2-3.1-1.9-3.1c-1.7,0-2.2,1.3-2.2,2.7v6.1h-4.2v-11.8h4.2V525.1z"/>
		<path id="XMLID_1541_" class="st3" d="M888.8,529.5c0,4-3.3,6.3-7.1,6.3c-3.8,0-7.1-2.3-7.1-6.3c0-4,3.3-6.3,7.1-6.3
			C885.5,523.1,888.8,525.4,888.8,529.5z M878.9,529.5c0,1.5,1,2.7,2.7,2.7c1.7,0,2.7-1.2,2.7-2.7c0-1.5-1-2.7-2.7-2.7
			C879.9,526.8,878.9,528,878.9,529.5z"/>
	</g>
</g>
<rect id="XMLID_6211_" x="550.7" y="614.5" class="st2" width="349.3" height="158.1"/>
<g id="XMLID_17837_">
	<g>
		<path id="XMLID_750_" class="st3" d="M657,672.9c-0.8-0.7-1.9-1.2-3-1.2c-0.8,0-1.9,0.5-1.9,1.5c0,1,1.2,1.4,2,1.7l1.2,0.3
			c2.4,0.7,4.3,1.9,4.3,4.8c0,1.7-0.4,3.5-1.8,4.7c-1.4,1.2-3.2,1.6-4.9,1.6c-2.2,0-4.3-0.7-6.1-2l1.9-3.6c1.1,1,2.5,1.8,4,1.8
			c1.1,0,2.2-0.5,2.2-1.8c0-1.3-1.8-1.7-2.7-2c-2.8-0.8-4.7-1.5-4.7-4.9c0-3.5,2.5-5.8,6-5.8c1.8,0,3.9,0.6,5.5,1.4L657,672.9z"/>
		<path id="XMLID_748_" class="st3" d="M676.8,668.4v9.8c0,2.2-0.1,4.5-1.8,6.1c-1.5,1.4-3.7,1.9-5.8,1.9c-2,0-4.3-0.5-5.8-1.9
			c-1.7-1.7-1.8-3.9-1.8-6.1v-9.8h4.5v9.2c0,2.3,0.2,4.7,3.1,4.7c2.9,0,3.1-2.5,3.1-4.7v-9.2H676.8z"/>
		<path id="XMLID_744_" class="st3" d="M679.6,685.9v-17.4h6.5c3.1,0,5.2,1.2,5.2,4.5c0,1.6-0.5,2.8-1.9,3.6v0
			c2.5,0.3,3.6,2,3.6,4.4c0,3.6-3.1,4.8-6.3,4.8H679.6z M684.2,675.3h0.5c1.2,0,2.4-0.2,2.4-1.7c0-1.6-1.4-1.7-2.6-1.7h-0.3V675.3z
			 M684.2,682.4h0.6c1.3,0,3.6,0.1,3.6-1.8c0-2.1-2.2-1.9-3.7-1.9h-0.5V682.4z"/>
		<path id="XMLID_741_" class="st3" d="M699.7,682.8l-1.2,3h-4.8l6.7-17.4h4.9l6.6,17.4h-4.8l-1.1-3H699.7z M702.9,673.8
			L702.9,673.8l-1.9,5.5h3.8L702.9,673.8z"/>
		<path id="XMLID_739_" class="st3" d="M717.8,682h5.4v3.8h-10v-17.4h4.5V682z"/>
		<path id="XMLID_737_" class="st3" d="M737.2,674.3c-0.9-1.2-2.4-1.9-4-1.9c-2.8,0-4.6,2.1-4.6,4.8c0,2.7,1.9,4.7,4.7,4.7
			c1.5,0,3-0.7,3.9-1.8v5.4c-1.5,0.5-2.6,0.8-4,0.8c-2.4,0-4.7-0.9-6.5-2.6c-1.9-1.7-2.8-4-2.8-6.6c0-2.4,0.9-4.7,2.6-6.4
			c1.7-1.8,4.2-2.8,6.6-2.8c1.5,0,2.8,0.3,4.1,0.9V674.3z"/>
		<path id="XMLID_734_" class="st3" d="M744.4,682.8l-1.2,3h-4.8l6.7-17.4h4.9l6.6,17.4h-4.8l-1.1-3H744.4z M747.6,673.8
			L747.6,673.8l-1.9,5.5h3.8L747.6,673.8z"/>
		<path id="XMLID_732_" class="st3" d="M762.6,682h5.4v3.8h-10v-17.4h4.5V682z"/>
		<path id="XMLID_729_" class="st3" d="M769.5,668.4h6.4c4.9,0,8.8,3.8,8.8,8.7c0,4.9-4,8.7-8.8,8.7h-6.4V668.4z M774,682h1
			c2.7,0,5-1.5,5-4.9c0-3.1-2.1-4.9-5-4.9H774V682z"/>
		<path id="XMLID_727_" class="st3" d="M791.3,672.3v2.9h5.1v3.8h-5.1v3h5.4v3.8h-9.9v-17.4h9.9v3.8H791.3z"/>
		<path id="XMLID_725_" class="st3" d="M603.7,700v2.9h5v3.8h-5v6.8h-4.5v-17.4h10v3.8H603.7z"/>
		<path id="XMLID_722_" class="st3" d="M616.1,697.2c0,1.3-1.1,2.4-2.4,2.4c-1.3,0-2.4-1.1-2.4-2.4c0-1.3,1.1-2.4,2.4-2.4
			C615,694.8,616.1,695.9,616.1,697.2z M615.8,713.6h-4.2v-11.8h4.2V713.6z"/>
		<path id="XMLID_720_" class="st3" d="M622.8,703.7L622.8,703.7c0.9-1.5,2.2-2.1,3.9-2.1h0.8v4c-0.6-0.3-1.1-0.4-1.8-0.4
			c-2.3,0-2.9,1.5-2.9,3.6v4.8h-4.2v-11.8h4.2V703.7z"/>
		<path id="XMLID_718_" class="st3" d="M633.3,703.2L633.3,703.2c1-1.3,2.3-1.9,3.8-1.9c1.7,0,3.2,0.7,4,2.3c0.8-1.5,2.4-2.3,4-2.3
			c3,0,4,2,4,4.7v7.6H645v-5.7c0-1.2,0-3.2-1.7-3.2c-1.9,0-2,1.8-2,3.2v5.7H637v-5.7c0-1.3,0-3.3-1.9-3.3c-1.9,0-1.9,2-1.9,3.3v5.7
			h-4.2v-11.8h4.2V703.2z"/>
		<path id="XMLID_714_" class="st3" d="M664.9,713.6h-4.2v-1.3h0c-0.7,1.2-2.2,1.7-3.6,1.7c-3.5,0-6-2.9-6-6.3
			c0-3.4,2.4-6.3,5.9-6.3c1.4,0,2.8,0.5,3.7,1.5v-1.2h4.2V713.6z M655.4,707.7c0,1.5,1,2.7,2.7,2.7c1.7,0,2.7-1.2,2.7-2.7
			c0-1.5-1-2.7-2.7-2.7C656.4,705,655.4,706.2,655.4,707.7z"/>
		<path id="XMLID_712_" class="st3" d="M679.8,713.6h-4.2v-19.2h4.2V713.6z"/>
		<path id="XMLID_709_" class="st3" d="M695.5,713.6h-4.2v-1.3h0c-0.7,1.2-2.2,1.7-3.6,1.7c-3.5,0-6-2.9-6-6.3
			c0-3.4,2.4-6.3,5.9-6.3c1.4,0,2.8,0.5,3.7,1.5v-1.2h4.2V713.6z M686.1,707.7c0,1.5,1,2.7,2.7,2.7c1.7,0,2.7-1.2,2.7-2.7
			c0-1.5-1-2.7-2.7-2.7C687,705,686.1,706.2,686.1,707.7z"/>
		<path id="XMLID_706_" class="st3" d="M719.2,713.6H715v-1.3h0c-0.7,1.2-2.2,1.7-3.6,1.7c-3.5,0-6-2.9-6-6.3c0-3.4,2.4-6.3,5.9-6.3
			c1.4,0,2.8,0.5,3.7,1.5v-1.2h4.2V713.6z M709.7,707.7c0,1.5,1,2.7,2.7,2.7c1.7,0,2.7-1.2,2.7-2.7c0-1.5-1-2.7-2.7-2.7
			C710.7,705,709.7,706.2,709.7,707.7z"/>
		<path id="XMLID_703_" class="st3" d="M726.1,701.7v6.3c0,1.5,0.4,2.6,2.1,2.6c1.7,0,2.1-1.1,2.1-2.6v-6.3h4.2v7.1
			c0,3.9-2.7,5.1-6.3,5.1c-3.6,0-6.3-1.2-6.3-5.1v-7.1H726.1z"/>
		<path id="XMLID_701_" class="st3" d="M741.8,713.6h-4.2v-8.4h-1.4v-3.5h1.4v-3.6h4.2v3.6h2.4v3.5h-2.4V713.6z"/>
		<path id="XMLID_698_" class="st3" d="M758.9,707.7c0,4-3.3,6.3-7.1,6.3c-3.8,0-7.1-2.3-7.1-6.3s3.3-6.3,7.1-6.3
			C755.6,701.3,758.9,703.6,758.9,707.7z M749.1,707.7c0,1.5,1,2.7,2.7,2.7c1.7,0,2.7-1.2,2.7-2.7c0-1.5-1-2.7-2.7-2.7
			C750.1,705,749.1,706.2,749.1,707.7z"/>
		<path id="XMLID_696_" class="st3" d="M765,703.7L765,703.7c0.9-1.5,2.2-2.1,3.9-2.1h0.8v4c-0.6-0.3-1.1-0.4-1.8-0.4
			c-2.3,0-2.9,1.5-2.9,3.6v4.8h-4.2v-11.8h4.2V703.7z"/>
		<path id="XMLID_693_" class="st3" d="M775.7,697.2c0,1.3-1.1,2.4-2.4,2.4c-1.3,0-2.4-1.1-2.4-2.4c0-1.3,1.1-2.4,2.4-2.4
			C774.7,694.8,775.7,695.9,775.7,697.2z M775.5,713.6h-4.2v-11.8h4.2V713.6z"/>
		<path id="XMLID_691_" class="st3" d="M789,710.1v3.5h-12l5.6-8.4h-4.8v-3.5h11.8l-5.5,8.4H789z"/>
		<path id="XMLID_688_" class="st3" d="M804.1,713.6h-4.2v-1.3h0c-0.7,1.2-2.2,1.7-3.6,1.7c-3.5,0-6-2.9-6-6.3
			c0-3.4,2.4-6.3,5.9-6.3c1.4,0,2.8,0.5,3.7,1.5v-1.2h4.2V713.6z M794.6,707.7c0,1.5,1,2.7,2.7,2.7c1.7,0,2.7-1.2,2.7-2.7
			c0-1.5-1-2.7-2.7-2.7C795.6,705,794.6,706.2,794.6,707.7z"/>
		<path id="XMLID_686_" class="st3" d="M815.4,705.6c-0.6-0.5-1.4-0.8-2.2-0.8c-1.6,0-2.9,1.2-2.9,2.9c0,1.7,1.2,2.9,3,2.9
			c0.7,0,1.5-0.3,2.1-0.8v3.6c-0.9,0.5-1.9,0.7-3,0.7c-3.5,0-6.4-2.6-6.4-6.2c0-3.8,2.9-6.4,6.6-6.4c1,0,1.9,0.2,2.8,0.7V705.6z"/>
		<path id="XMLID_683_" class="st3" d="M822.5,697.2c0,1.3-1.1,2.4-2.4,2.4c-1.3,0-2.4-1.1-2.4-2.4c0-1.3,1.1-2.4,2.4-2.4
			C821.4,694.8,822.5,695.9,822.5,697.2z M822.3,713.6h-4.2v-11.8h4.2V713.6z"/>
		<path id="XMLID_679_" class="st3" d="M838.4,707.7c0,4-3.3,6.3-7.1,6.3c-3.8,0-7.1-2.3-7.1-6.3s3.3-6.3,7.1-6.3
			C835.1,701.3,838.4,703.6,838.4,707.7z M828.6,707.7c0,1.5,1,2.7,2.7,2.7c1.7,0,2.7-1.2,2.7-2.7c0-1.5-1-2.7-2.7-2.7
			C829.6,705,828.6,706.2,828.6,707.7z M830.8,700l-1.9-1.4l3.3-4l2.6,1.8L830.8,700z"/>
		<path id="XMLID_677_" class="st3" d="M844.5,703.2L844.5,703.2c1-1.4,2.2-1.9,3.8-1.9c3.2,0,4.5,2,4.5,4.9v7.3h-4.2v-5.8
			c0-1.1,0.2-3.1-1.9-3.1c-1.7,0-2.2,1.3-2.2,2.7v6.1h-4.2v-11.8h4.2V703.2z"/>
	</g>
</g>
<rect id="XMLID_6209_" x="550.7" y="819.6" class="st2" width="349.3" height="158.1"/>
<g id="XMLID_17721_">
	<g>
		<path id="XMLID_1160_" class="st3" d="M625,867.7c-0.8-0.7-1.9-1.2-3-1.2c-0.8,0-1.9,0.5-1.9,1.5c0,1,1.2,1.4,2,1.7l1.2,0.3
			c2.4,0.7,4.3,1.9,4.3,4.8c0,1.7-0.4,3.5-1.8,4.7c-1.4,1.2-3.2,1.6-4.9,1.6c-2.2,0-4.3-0.7-6.1-2l1.9-3.6c1.1,1,2.5,1.8,4,1.8
			c1.1,0,2.2-0.5,2.2-1.8c0-1.3-1.8-1.7-2.7-2c-2.8-0.8-4.7-1.5-4.7-4.9c0-3.5,2.5-5.8,6-5.8c1.8,0,3.9,0.6,5.5,1.4L625,867.7z"/>
		<path id="XMLID_1158_" class="st3" d="M634.2,867.1v2.9h5.1v3.8h-5.1v3h5.4v3.8h-9.9v-17.4h9.9v3.8H634.2z"/>
		<path id="XMLID_1156_" class="st3" d="M654.8,869.1c-0.9-1.2-2.4-1.9-4-1.9c-2.8,0-4.6,2.1-4.6,4.8c0,2.7,1.9,4.7,4.7,4.7
			c1.5,0,3-0.7,3.9-1.8v5.4c-1.5,0.5-2.6,0.8-4,0.8c-2.4,0-4.7-0.9-6.5-2.6c-1.9-1.7-2.8-4-2.8-6.6c0-2.4,0.9-4.7,2.6-6.4
			c1.7-1.8,4.2-2.8,6.6-2.8c1.5,0,2.8,0.3,4.1,0.9V869.1z"/>
		<path id="XMLID_1153_" class="st3" d="M672.1,880.7h-5.6l-4.3-6.7h0v6.7h-4.5v-17.4h6.8c3.4,0,6.1,1.6,6.1,5.4
			c0,2.4-1.3,4.5-3.8,4.9L672.1,880.7z M662.1,871.1h0.4c1.5,0,3.1-0.3,3.1-2.2c0-1.9-1.7-2.2-3.1-2.2h-0.4V871.1z"/>
		<path id="XMLID_1151_" class="st3" d="M677.8,867.1v2.9h5.1v3.8h-5.1v3h5.4v3.8h-9.9v-17.4h9.9v3.8H677.8z"/>
		<path id="XMLID_1149_" class="st3" d="M692.9,880.7h-4.5v-13.6h-3.7v-3.8h12v3.8h-3.7V880.7z"/>
		<path id="XMLID_1146_" class="st3" d="M701.4,877.6l-1.2,3h-4.8l6.7-17.4h4.9l6.6,17.4h-4.8l-1.1-3H701.4z M704.5,868.6
			L704.5,868.6l-1.9,5.5h3.8L704.5,868.6z"/>
		<path id="XMLID_1143_" class="st3" d="M729.4,880.7h-5.6l-4.3-6.7h0v6.7H715v-17.4h6.8c3.4,0,6.1,1.6,6.1,5.4
			c0,2.4-1.3,4.5-3.8,4.9L729.4,880.7z M719.5,871.1h0.4c1.5,0,3.1-0.3,3.1-2.2c0-1.9-1.7-2.2-3.1-2.2h-0.4V871.1z"/>
		<path id="XMLID_1141_" class="st3" d="M735.2,880.7h-4.5v-17.4h4.5V880.7z"/>
		<path id="XMLID_1138_" class="st3" d="M742.6,877.6l-1.2,3h-4.8l6.7-17.4h4.9l6.6,17.4h-4.8l-1.1-3H742.6z M745.7,868.6
			L745.7,868.6l-1.9,5.5h3.8L745.7,868.6z"/>
		<path id="XMLID_1135_" class="st3" d="M764.1,863.2h6.4c4.9,0,8.8,3.8,8.8,8.7c0,4.9-4,8.7-8.8,8.7h-6.4V863.2z M768.6,876.8h1
			c2.7,0,5-1.5,5-4.9c0-3.1-2.1-4.9-5-4.9h-1.1V876.8z"/>
		<path id="XMLID_1133_" class="st3" d="M786,867.1v2.9h5.1v3.8H786v3h5.4v3.8h-9.9v-17.4h9.9v3.8H786z"/>
		<path id="XMLID_1131_" class="st3" d="M806.6,876.8h5.4v3.8h-10v-17.4h4.5V876.8z"/>
		<path id="XMLID_1128_" class="st3" d="M818,877.6l-1.2,3h-4.8l6.7-17.4h4.9l6.6,17.4h-4.8l-1.1-3H818z M821.1,868.6L821.1,868.6
			l-1.9,5.5h3.8L821.1,868.6z"/>
		<path id="XMLID_1126_" class="st3" d="M650.6,895.4c-0.8-0.7-1.9-1.2-3-1.2c-0.8,0-1.9,0.5-1.9,1.5c0,1,1.2,1.4,2,1.7l1.2,0.3
			c2.4,0.7,4.3,1.9,4.3,4.8c0,1.7-0.4,3.5-1.8,4.7c-1.4,1.2-3.2,1.6-4.9,1.6c-2.2,0-4.3-0.7-6.1-2l1.9-3.6c1.1,1,2.5,1.8,4,1.8
			c1.1,0,2.2-0.5,2.2-1.8c0-1.3-1.8-1.7-2.7-2c-2.8-0.8-4.7-1.5-4.7-4.9c0-3.5,2.5-5.8,6-5.8c1.8,0,3.9,0.6,5.5,1.4L650.6,895.4z"/>
		<path id="XMLID_1124_" class="st3" d="M670.4,891v9.8c0,2.2-0.1,4.5-1.8,6.1c-1.5,1.4-3.7,1.9-5.8,1.9c-2,0-4.3-0.5-5.8-1.9
			c-1.7-1.7-1.8-3.9-1.8-6.1V891h4.5v9.2c0,2.3,0.2,4.7,3.1,4.7c2.9,0,3.1-2.5,3.1-4.7V891H670.4z"/>
		<path id="XMLID_1120_" class="st3" d="M673.2,908.4V891h6.5c3.1,0,5.2,1.2,5.2,4.5c0,1.6-0.5,2.8-1.9,3.6v0c2.5,0.3,3.6,2,3.6,4.4
			c0,3.6-3.1,4.8-6.3,4.8H673.2z M677.8,897.8h0.5c1.2,0,2.4-0.2,2.4-1.7c0-1.6-1.4-1.7-2.6-1.7h-0.3V897.8z M677.8,904.9h0.6
			c1.3,0,3.6,0.1,3.6-1.8c0-2.1-2.2-1.9-3.7-1.9h-0.5V904.9z"/>
		<path id="XMLID_1117_" class="st3" d="M693.3,905.3l-1.2,3h-4.8L694,891h4.9l6.6,17.4h-4.8l-1.1-3H693.3z M696.5,896.3
			L696.5,896.3l-1.9,5.5h3.8L696.5,896.3z"/>
		<path id="XMLID_1115_" class="st3" d="M711.4,904.5h5.4v3.8h-10V891h4.5V904.5z"/>
		<path id="XMLID_1113_" class="st3" d="M730.8,896.8c-0.9-1.2-2.4-1.9-4-1.9c-2.8,0-4.6,2.1-4.6,4.8c0,2.7,1.9,4.7,4.7,4.7
			c1.5,0,3-0.7,3.9-1.8v5.4c-1.5,0.5-2.6,0.8-4,0.8c-2.4,0-4.7-0.9-6.5-2.6c-1.9-1.7-2.8-4-2.8-6.6c0-2.4,0.9-4.7,2.6-6.4
			c1.7-1.8,4.2-2.8,6.6-2.8c1.5,0,2.8,0.3,4.1,0.9V896.8z"/>
		<path id="XMLID_1110_" class="st3" d="M738,905.3l-1.2,3H732l6.7-17.4h4.9l6.6,17.4h-4.8l-1.1-3H738z M741.2,896.3L741.2,896.3
			l-1.9,5.5h3.8L741.2,896.3z"/>
		<path id="XMLID_1108_" class="st3" d="M756.1,904.5h5.4v3.8h-10V891h4.5V904.5z"/>
		<path id="XMLID_1105_" class="st3" d="M763,891h6.4c4.9,0,8.8,3.8,8.8,8.7c0,4.9-4,8.7-8.8,8.7H763V891z M767.6,904.5h1
			c2.7,0,5-1.5,5-4.9c0-3.1-2.1-4.9-5-4.9h-1.1V904.5z"/>
		<path id="XMLID_1103_" class="st3" d="M784.9,908.4h-4.5V891h4.5V908.4z"/>
		<path id="XMLID_1100_" class="st3" d="M792.3,905.3l-1.2,3h-4.8L793,891h4.9l6.6,17.4h-4.8l-1.1-3H792.3z M795.5,896.3
			L795.5,896.3l-1.9,5.5h3.8L795.5,896.3z"/>
		<path id="XMLID_1098_" class="st3" d="M588,922.5v2.9h5.1v3.8H588v3h5.4v3.8h-9.9v-17.4h9.9v3.8H588z"/>
		<path id="XMLID_1096_" class="st3" d="M600.2,925.8L600.2,925.8c1-1.4,2.2-1.9,3.8-1.9c3.2,0,4.5,2,4.5,4.9v7.3h-4.2v-5.8
			c0-1.1,0.2-3.1-1.9-3.1c-1.7,0-2.2,1.3-2.2,2.7v6.1H596v-11.8h4.2V925.8z"/>
		<path id="XMLID_1094_" class="st3" d="M615.9,936.1h-4.2v-8.4h-1.4v-3.5h1.4v-3.6h4.2v3.6h2.4v3.5h-2.4V936.1z"/>
		<path id="XMLID_1092_" class="st3" d="M623.8,926.2L623.8,926.2c0.9-1.5,2.2-2.1,3.9-2.1h0.8v4c-0.6-0.3-1.1-0.4-1.8-0.4
			c-2.3,0-2.9,1.5-2.9,3.6v4.8h-4.2v-11.8h4.2V926.2z"/>
		<path id="XMLID_1089_" class="st3" d="M642.2,930.9h-8.8c0,1.7,0.9,2.6,2.6,2.6c0.9,0,1.5-0.3,2-1.1h4c-0.3,1.4-1.2,2.4-2.2,3.1
			c-1.1,0.7-2.4,1-3.8,1c-3.9,0-6.9-2.2-6.9-6.3c0-3.9,2.7-6.3,6.6-6.3c4.1,0,6.5,2.5,6.5,6.6V930.9z M638.3,928.4
			c-0.2-1.1-1.2-1.9-2.4-1.9c-1.2,0-2.2,0.6-2.5,1.9H638.3z"/>
		<path id="XMLID_1086_" class="st3" d="M657.2,934.9c0,5-2.5,7.1-6.9,7.1c-2.7,0-6.4-1.4-6.7-4.5h4.7c0.1,0.4,0.4,0.7,0.8,0.9
			c0.4,0.2,0.8,0.3,1.2,0.3c2.3,0,2.7-1.5,2.7-3.4v-0.6c-1.1,1.1-2.2,1.6-3.8,1.6c-3.5,0-5.8-2.6-5.8-6.1c0-3.5,2.4-6.4,6.1-6.4
			c1.4,0,2.7,0.5,3.5,1.6h0v-1.2h4.2V934.9z M647.7,930.1c0,1.5,1,2.7,2.7,2.7c1.7,0,2.7-1.2,2.7-2.7c0-1.5-1-2.7-2.7-2.7
			C648.7,927.4,647.7,928.6,647.7,930.1z"/>
		<path id="XMLID_1083_" class="st3" d="M672.8,936.1h-4.2v-1.3h0c-0.7,1.2-2.2,1.7-3.6,1.7c-3.5,0-6-2.9-6-6.3
			c0-3.4,2.4-6.3,5.9-6.3c1.4,0,2.8,0.5,3.7,1.5v-1.2h4.2V936.1z M663.3,930.2c0,1.5,1,2.7,2.7,2.7c1.7,0,2.7-1.2,2.7-2.7
			c0-1.5-1-2.7-2.7-2.7C664.3,927.5,663.3,928.7,663.3,930.2z"/>
		<path id="XMLID_1081_" class="st3" d="M687.7,936.1h-4.2v-19.2h4.2V936.1z"/>
		<path id="XMLID_1078_" class="st3" d="M703.4,936.1h-4.2v-1.3h0c-0.7,1.2-2.2,1.7-3.6,1.7c-3.5,0-6-2.9-6-6.3
			c0-3.4,2.4-6.3,5.9-6.3c1.4,0,2.8,0.5,3.7,1.5v-1.2h4.2V936.1z M693.9,930.2c0,1.5,1,2.7,2.7,2.7c1.7,0,2.7-1.2,2.7-2.7
			c0-1.5-1-2.7-2.7-2.7C694.9,927.5,693.9,928.7,693.9,930.2z"/>
		<path id="XMLID_1075_" class="st3" d="M727.1,936.1h-4.2v-1.3h0c-0.7,1.2-2.2,1.7-3.6,1.7c-3.5,0-6-2.9-6-6.3
			c0-3.4,2.4-6.3,5.9-6.3c1.4,0,2.8,0.5,3.7,1.5v-1.2h4.2V936.1z M717.6,930.2c0,1.5,1,2.7,2.7,2.7c1.7,0,2.7-1.2,2.7-2.7
			c0-1.5-1-2.7-2.7-2.7C718.6,927.5,717.6,928.7,717.6,930.2z"/>
		<path id="XMLID_1073_" class="st3" d="M734,924.2v6.3c0,1.5,0.4,2.6,2.1,2.6c1.7,0,2.1-1.1,2.1-2.6v-6.3h4.2v7.1
			c0,3.9-2.7,5.1-6.3,5.1c-3.6,0-6.3-1.2-6.3-5.1v-7.1H734z"/>
		<path id="XMLID_1071_" class="st3" d="M749.7,936.1h-4.2v-8.4h-1.4v-3.5h1.4v-3.6h4.2v3.6h2.4v3.5h-2.4V936.1z"/>
		<path id="XMLID_1068_" class="st3" d="M766.8,930.2c0,4-3.3,6.3-7.1,6.3c-3.8,0-7.1-2.3-7.1-6.3c0-4,3.3-6.3,7.1-6.3
			C763.5,923.8,766.8,926.1,766.8,930.2z M756.9,930.2c0,1.5,1,2.7,2.7,2.7c1.7,0,2.7-1.2,2.7-2.7c0-1.5-1-2.7-2.7-2.7
			C757.9,927.5,756.9,928.7,756.9,930.2z"/>
		<path id="XMLID_1066_" class="st3" d="M772.9,926.2L772.9,926.2c0.9-1.5,2.2-2.1,3.9-2.1h0.8v4c-0.6-0.3-1.1-0.4-1.8-0.4
			c-2.3,0-2.9,1.5-2.9,3.6v4.8h-4.2v-11.8h4.2V926.2z"/>
		<path id="XMLID_1063_" class="st3" d="M783.6,919.7c0,1.3-1.1,2.4-2.4,2.4c-1.3,0-2.4-1.1-2.4-2.4c0-1.3,1.1-2.4,2.4-2.4
			C782.5,917.3,783.6,918.4,783.6,919.7z M783.3,936.1h-4.2v-11.8h4.2V936.1z"/>
		<path id="XMLID_1061_" class="st3" d="M796.9,932.6v3.5h-12l5.6-8.4h-4.8v-3.5h11.8l-5.5,8.4H796.9z"/>
		<path id="XMLID_1058_" class="st3" d="M812,936.1h-4.2v-1.3h0c-0.7,1.2-2.2,1.7-3.6,1.7c-3.5,0-6-2.9-6-6.3c0-3.4,2.4-6.3,5.9-6.3
			c1.4,0,2.8,0.5,3.7,1.5v-1.2h4.2V936.1z M802.5,930.2c0,1.5,1,2.7,2.7,2.7c1.7,0,2.7-1.2,2.7-2.7c0-1.5-1-2.7-2.7-2.7
			C803.5,927.5,802.5,928.7,802.5,930.2z"/>
		<path id="XMLID_1056_" class="st3" d="M823.3,928.1c-0.6-0.5-1.4-0.8-2.2-0.8c-1.6,0-2.9,1.2-2.9,2.9c0,1.7,1.2,2.9,3,2.9
			c0.7,0,1.5-0.3,2.1-0.8v3.6c-0.9,0.5-1.9,0.7-3,0.7c-3.5,0-6.4-2.6-6.4-6.2c0-3.8,2.9-6.4,6.6-6.4c1,0,1.9,0.2,2.8,0.7V928.1z"/>
		<path id="XMLID_1053_" class="st3" d="M830.4,919.7c0,1.3-1.1,2.4-2.4,2.4c-1.3,0-2.4-1.1-2.4-2.4c0-1.3,1.1-2.4,2.4-2.4
			C829.3,917.3,830.4,918.4,830.4,919.7z M830.1,936.1h-4.2v-11.8h4.2V936.1z"/>
		<path id="XMLID_1049_" class="st3" d="M846.3,930.2c0,4-3.3,6.3-7.1,6.3c-3.8,0-7.1-2.3-7.1-6.3c0-4,3.3-6.3,7.1-6.3
			C843,923.8,846.3,926.1,846.3,930.2z M836.5,930.2c0,1.5,1,2.7,2.7,2.7c1.7,0,2.7-1.2,2.7-2.7c0-1.5-1-2.7-2.7-2.7
			C837.5,927.5,836.5,928.7,836.5,930.2z M838.7,922.5l-1.9-1.4l3.3-4l2.6,1.8L838.7,922.5z"/>
		<path id="XMLID_1047_" class="st3" d="M852.4,925.8L852.4,925.8c1-1.4,2.2-1.9,3.8-1.9c3.2,0,4.5,2,4.5,4.9v7.3h-4.2v-5.8
			c0-1.1,0.2-3.1-1.9-3.1c-1.7,0-2.2,1.3-2.2,2.7v6.1h-4.2v-11.8h4.2V925.8z"/>
	</g>
</g>
<polygon id="XMLID_6201_" class="st4" points="555.8,78.4 541.1,86.9 526.4,95.4 526.4,78.4 526.4,61.4 541.1,69.9 "/>
<polygon id="XMLID_6200_" class="st4" points="722.8,211.5 714.3,196.8 705.8,182 722.8,182 739.8,182 731.3,196.8 "/>
<polygon id="XMLID_6195_" class="st4" points="722.8,415.5 714.3,400.8 705.8,386 722.8,386 739.8,386 731.3,400.8 "/>
<polygon id="XMLID_6194_" class="st4" points="722.8,619.5 714.3,604.8 705.8,590 722.8,590 739.8,590 731.3,604.8 "/>
<polygon id="XMLID_6193_" class="st4" points="722.8,823.5 714.3,808.8 705.8,794 722.8,794 739.8,794 731.3,808.8 "/>
<polygon id="XMLID_6188_" class="st4" points="257.5,774.7 266,789.4 274.5,804.1 257.5,804.1 240.5,804.1 249,789.4 "/>
<polyline id="XMLID_2862_" class="st0" points="257.5,789.4 257.5,1173.9 534.1,1173.9 722.8,1173.9 722.8,977.7 "/>
<polyline id="XMLID_6185_" class="st0" points="257.1,614.5 257.1,77.5 499.2,77.5 550.7,77.5 "/>
</svg>
