<?xml version="1.0" encoding="utf-8"?>
<!-- Generator: Adobe Illustrator 21.0.2, SVG Export Plug-In . SVG Version: 6.00 Build 0)  -->
<svg version="1.1" id="Layer_1" xmlns="http://www.w3.org/2000/svg" xmlns:xlink="http://www.w3.org/1999/xlink" x="0px" y="0px"
	 viewBox="0 0 998.6 1148.4" style="enable-background:new 0 0 998.6 1148.4;" xml:space="preserve">
<style type="text/css">
	.st0{fill:none;stroke:#E42527;stroke-width:4;stroke-miterlimit:10;}
	.st1{fill:#95D4E7;}
	.st2{fill:#9D9D9C;}
	.st3{fill:#D81117;}
	.st4{fill:#575756;}
	.st5{fill:#FFFFFF;}
	.st6{fill:#E42527;}
</style>
<polyline class="st0" points="336.2,654.3 336.2,668.7 482.9,668.7 482.9,1091.9 "/>
<polyline class="st0" points="350.1,525.8 188.8,525.8 188.8,583 "/>
<polyline class="st0" points="483.7,483.7 483.7,509.9 350.1,509.9 350.1,525.8 482.5,525.8 482.5,590.3 "/>
<polyline class="st0" points="370.6,260.4 322.7,260.4 322.7,461.9 377.5,461.9 "/>
<line class="st0" x1="478.4" y1="462" x2="770.4" y2="462"/>
<line id="XMLID_1285_" class="st0" x1="482.8" y1="146" x2="482.8" y2="374.8"/>
<rect id="XMLID_956_" x="361.6" y="130.7" class="st1" width="240" height="57.5"/>
<rect id="XMLID_955_" x="361.5" y="228.1" class="st2" width="240.1" height="64.4"/>
<rect id="XMLID_954_" x="370.6" y="562.8" class="st3" width="226.8" height="61"/>
<g>
	<g>
		<path class="st4" d="M450.5,137.2v9.5c0,2.2-0.1,4.3-1.8,6c-1.4,1.4-3.6,1.9-5.6,1.9s-4.2-0.5-5.6-1.9c-1.7-1.6-1.8-3.8-1.8-6
			v-9.5h4.4v8.9c0,2.2,0.2,4.6,3,4.6s3-2.4,3-4.6v-8.9H450.5z"/>
		<path class="st4" d="M453.3,137.2h4.4l8.1,10.3l0,0v-10.3h4.4v16.9h-4.4l-8.1-10.4l0,0v10.4h-4.4V137.2z"/>
		<path class="st4" d="M477.4,154.1H473v-16.9h4.4V154.1z"/>
		<path class="st4" d="M480.3,137.2h6.2c4.7,0,8.6,3.7,8.6,8.5s-3.9,8.5-8.6,8.5h-6.2V137.2z M484.7,150.4h1c2.6,0,4.9-1.4,4.9-4.7
			c0-3-2-4.7-4.8-4.7h-1v9.4H484.7z"/>
		<path class="st4" d="M501.5,151.2l-1.2,2.9h-4.7l6.5-16.9h4.8l6.4,16.9h-4.7l-1.1-2.9H501.5z M504.5,142.4L504.5,142.4l-1.9,5.4
			h3.7L504.5,142.4z"/>
		<path class="st4" d="M514.7,137.2h6.2c4.7,0,8.6,3.7,8.6,8.5s-3.9,8.5-8.6,8.5h-6.2V137.2z M519.1,150.4h1c2.6,0,4.9-1.4,4.9-4.7
			c0-3-2-4.7-4.8-4.7h-1v9.4H519.1z"/>
		<path class="st4" d="M419.8,168.5c-0.8-0.7-1.8-1.1-2.9-1.1c-0.8,0-1.9,0.5-1.9,1.4c0,1,1.2,1.4,2,1.6l1.1,0.3
			c2.4,0.7,4.2,1.9,4.2,4.6c0,1.7-0.4,3.4-1.7,4.6c-1.3,1.1-3.1,1.6-4.8,1.6c-2.1,0-4.2-0.7-5.9-1.9l1.9-3.5c1.1,1,2.4,1.7,3.9,1.7
			c1,0,2.1-0.5,2.1-1.7s-1.7-1.7-2.7-1.9c-2.8-0.8-4.6-1.5-4.6-4.8c0-3.4,2.4-5.7,5.8-5.7c1.7,0,3.8,0.5,5.3,1.4L419.8,168.5z"/>
		<path class="st4" d="M442.2,172.3c0,5.5-3.9,9.3-9.4,9.3s-9.4-3.9-9.4-9.3c0-5.1,4.5-8.7,9.4-8.7S442.2,167.2,442.2,172.3z
			 M428.1,172.3c0,2.9,2.2,5,4.8,5s4.8-2.1,4.8-5c0-2.3-2.2-4.5-4.8-4.5S428.1,170,428.1,172.3z"/>
		<path class="st4" d="M448.6,177.3h5.3v3.7h-9.7v-16.9h4.4L448.6,177.3L448.6,177.3z"/>
		<path class="st4" d="M459.7,181h-4.4v-16.9h4.4V181z"/>
		<path class="st4" d="M474.7,169.8c-0.9-1.2-2.4-1.9-3.9-1.9c-2.7,0-4.5,2.1-4.5,4.7c0,2.7,1.8,4.6,4.6,4.6c1.4,0,2.9-0.7,3.8-1.8
			v5.3c-1.5,0.4-2.5,0.8-3.9,0.8c-2.4,0-4.6-0.9-6.3-2.5c-1.9-1.7-2.7-3.9-2.7-6.4c0-2.3,0.9-4.5,2.5-6.2c1.7-1.7,4.1-2.7,6.4-2.7
			c1.4,0,2.7,0.3,4,0.9V169.8z"/>
		<path class="st4" d="M481.8,181h-4.4v-16.9h4.4V181z"/>
		<path class="st4" d="M491.4,181H487v-13.2h-3.6v-3.7H495v3.7h-3.6V181z"/>
		<path class="st4" d="M499.6,178.1l-1.2,2.9h-4.7l6.5-16.9h4.8l6.4,16.9h-4.7l-1.1-2.9H499.6z M502.7,169.3L502.7,169.3l-1.9,5.4
			h3.7L502.7,169.3z"/>
		<path class="st4" d="M512.8,164.1h4.4l8.1,10.3l0,0v-10.3h4.4V181h-4.4l-8.1-10.4l0,0V181h-4.4V164.1z"/>
		<path class="st4" d="M539.3,181h-4.4v-13.2h-3.6v-3.7H543v3.7h-3.6V181H539.3z"/>
		<path class="st4" d="M548.9,167.8v2.8h5v3.7h-5v2.9h5.2v3.7h-9.6V164h9.6v3.7h-5.2V167.8z"/>
	</g>
</g>
<rect id="XMLID_951_" x="368.8" y="1090.9" class="st1" width="226.9" height="57.5"/>
<g>
	<path class="st3" d="M295.9,18.1c-1.3-1.8-3.4-2.7-5.6-2.7c-3.9,0-6.6,3-6.6,6.8c0,3.9,2.7,6.7,6.7,6.7c2.1,0,4.2-1,5.5-2.6V34
		c-2.1,0.7-3.7,1.1-5.7,1.1c-3.4,0-6.7-1.3-9.3-3.6c-2.7-2.5-4-5.7-4-9.3c0-3.4,1.3-6.6,3.6-9c2.4-2.5,5.9-4,9.4-4
		c2.1,0,4,0.5,5.9,1.2v7.7H295.9z"/>
	<path class="st3" d="M306.2,15.2v4.1h7.2v5.4h-7.2V29h7.6v5.4h-14V9.8h14v5.4C313.8,15.2,306.2,15.2,306.2,15.2z"/>
	<path class="st3" d="M338.3,34.5h-8l-6-9.5h-0.1v9.5h-6.4V9.8h9.6c4.9,0,8.6,2.3,8.6,7.6c0,3.4-1.9,6.3-5.4,7L338.3,34.5z
		 M324.2,20.9h0.6c2.1,0,4.4-0.4,4.4-3.1s-2.4-3.1-4.4-3.1h-0.6V20.9z"/>
	<path class="st3" d="M349.9,34.5h-6.4V15.2h-5.3V9.8h17v5.4h-5.3L349.9,34.5L349.9,34.5z"/>
	<path class="st3" d="M363.9,34.5h-6.4V9.8h6.4V34.5z"/>
	<path class="st3" d="M374.5,15.2v4.1h7v5.4h-7v9.7h-6.4V9.8h14.2v5.4C382.3,15.2,374.5,15.2,374.5,15.2z"/>
	<path class="st3" d="M392.2,34.5h-6.4V9.8h6.4V34.5z"/>
	<path class="st3" d="M414,18.1c-1.3-1.8-3.4-2.7-5.6-2.7c-3.9,0-6.6,3-6.6,6.8c0,3.9,2.7,6.7,6.7,6.7c2.1,0,4.2-1,5.5-2.6V34
		c-2.1,0.7-3.7,1.1-5.7,1.1c-3.4,0-6.7-1.3-9.3-3.6c-2.7-2.5-4-5.7-4-9.3c0-3.4,1.3-6.6,3.6-9c2.4-2.5,5.9-4,9.4-4
		c2.1,0,4,0.5,5.9,1.2v7.7H414z"/>
	<path class="st3" d="M424.3,30.2l-1.7,4.3h-6.8l9.5-24.7h7l9.3,24.7h-6.8l-1.6-4.3H424.3z M428.7,17.4L428.7,17.4l-2.7,7.8h5.3
		L428.7,17.4z"/>
	<path class="st3" d="M461.1,18.1c-1.3-1.8-3.4-2.7-5.6-2.7c-3.9,0-6.6,3-6.6,6.8c0,3.9,2.7,6.7,6.7,6.7c2.1,0,4.2-1,5.5-2.6V34
		c-2.1,0.7-3.7,1.1-5.7,1.1c-3.4,0-6.7-1.3-9.3-3.6c-2.7-2.5-4-5.7-4-9.3c0-3.4,1.3-6.6,3.6-9c2.4-2.5,5.9-4,9.4-4
		c2.1,0,4,0.5,5.9,1.2v7.7H461.1z"/>
	<path class="st3" d="M471.5,34.5h-6.4V9.8h6.4V34.5z"/>
	<path class="st3" d="M504.7,9.8h6.4l11.7,15.1h0.1V9.8h6.4v24.7h-6.4l-11.7-15.1h-0.1v15.1h-6.4L504.7,9.8L504.7,9.8z"/>
	<path class="st3" d="M562.3,18.1c-1.3-1.8-3.4-2.7-5.6-2.7c-3.9,0-6.6,3-6.6,6.8c0,3.9,2.7,6.7,6.7,6.7c2.1,0,4.2-1,5.5-2.6V34
		c-2.1,0.7-3.7,1.1-5.7,1.1c-3.4,0-6.7-1.3-9.3-3.6c-2.7-2.5-4-5.7-4-9.3c0-3.4,1.3-6.6,3.6-9c2.4-2.5,5.9-4,9.4-4
		c2.1,0,4,0.5,5.9,1.2L562.3,18.1L562.3,18.1z"/>
	<path class="st3" d="M572.6,30.2l-1.7,4.3h-6.8l9.5-24.7h7l9.3,24.7H583l-1.6-4.3H572.6z M577.1,17.4L577.1,17.4l-2.7,7.8h5.3
		L577.1,17.4z"/>
	<path class="st3" d="M599.7,34.5h-6.4V15.2H588V9.8h17v5.4h-5.3V34.5z"/>
	<path class="st3" d="M611.6,30.2l-1.7,4.3h-6.8l9.5-24.7h7l9.3,24.7h-6.8l-1.6-4.3H611.6z M616.1,17.4L616.1,17.4l-2.7,7.8h5.3
		L616.1,17.4z"/>
	<path class="st3" d="M644.4,16.2c-1.2-1-2.7-1.6-4.3-1.6c-1.2,0-2.7,0.7-2.7,2.1c0,1.4,1.7,2,2.8,2.4l1.6,0.5
		c3.4,1,6.1,2.7,6.1,6.7c0,2.5-0.6,5-2.6,6.6c-1.9,1.6-4.5,2.3-7,2.3c-3.1,0-6.1-1-8.7-2.8l2.7-5.2c1.6,1.4,3.5,2.6,5.7,2.6
		c1.5,0,3.1-0.8,3.1-2.5c0-1.8-2.5-2.4-3.9-2.8c-4-1.1-6.7-2.2-6.7-7c0-5,3.6-8.3,8.5-8.3c2.5,0,5.5,0.8,7.7,2L644.4,16.2z"/>
	<path class="st3" d="M660.8,34.5h-6.4V15.2h-5.3V9.8h17v5.4h-5.3V34.5z"/>
	<path class="st3" d="M689,34.5h-8l-6-9.5h-0.1v9.5h-6.4V9.8h9.6c4.9,0,8.6,2.3,8.6,7.6c0,3.4-1.9,6.3-5.4,7L689,34.5z M674.9,20.9
		h0.6c2.1,0,4.4-0.4,4.4-3.1s-2.4-3.1-4.4-3.1h-0.6V20.9z"/>
	<path class="st3" d="M697,30.2l-1.7,4.3h-6.8L698,9.8h7l9.3,24.7h-6.8l-1.6-4.3H697z M701.5,17.4L701.5,17.4l-2.7,7.8h5.3
		L701.5,17.4z"/>
	<path class="st3" d="M722.6,29h7.7v5.4h-14.1V9.8h6.4L722.6,29L722.6,29z"/>
	<path class="st3" d="M291.6,61L291.6,61c1.3-1.8,3.1-3,5.4-3c4.4,0,7.2,3.8,7.2,8c0,4.4-2.6,8.3-7.3,8.3c-2.2,0-4-1.2-5.2-2.9h-0.1
		v11.2h-2.9V58.4h2.9V61z M301.2,66.1c0-3-1.8-5.5-5-5.5c-3,0-4.8,2.6-4.8,5.5s1.7,5.6,4.8,5.6C299.5,71.6,301.2,69.1,301.2,66.1z"
		/>
	<path class="st3" d="M322,66.1c0,4.6-3.6,8.1-8.2,8.1s-8.2-3.5-8.2-8.1s3.6-8.1,8.2-8.1S322,61.5,322,66.1z M308.6,66.1
		c0,2.9,2.3,5.3,5.2,5.3c2.9,0,5.2-2.5,5.2-5.3c0-2.9-2.3-5.3-5.2-5.3S308.6,63.2,308.6,66.1z"/>
	<path class="st3" d="M327.8,60.9L327.8,60.9c0.8-1.8,2.3-2.9,4.3-2.9c0.8,0,1.7,0.3,2.4,0.8l-1.3,2.7c-0.5-0.5-1.1-0.6-1.8-0.6
		c-3.2,0-3.6,2.9-3.6,5.4v7.5h-2.9V58.4h2.9V60.9z"/>
	<path class="st3" d="M370.1,61.4c0,7.3-5.8,12.9-12.9,12.9s-12.9-5.5-12.9-12.9c0-7.1,5.9-12.9,12.9-12.9S370.1,54.3,370.1,61.4z
		 M367,61.4c0-5.4-4.1-10-9.8-10c-5.8,0-9.8,4.5-9.8,10c0,5.6,4.5,10,9.8,10S367,67,367,61.4z"/>
	<path class="st3" d="M375.8,60.9L375.8,60.9c0.8-1.8,2.3-2.9,4.3-2.9c0.8,0,1.7,0.3,2.4,0.8l-1.3,2.7c-0.5-0.5-1.1-0.6-1.8-0.6
		c-3.2,0-3.6,2.9-3.6,5.4v7.5h-2.9V58.4h2.9V60.9z"/>
	<path class="st3" d="M395.6,71.3L395.6,71.3c-1.2,1.7-3.1,2.9-5.3,2.9c-4.7,0-7.3-3.9-7.3-8.3c0-4.2,2.8-8,7.2-8
		c2.3,0,4.1,1.2,5.3,3h0.1V45.3h2.9v28.4h-2.9L395.6,71.3L395.6,71.3z M395.8,66.1c0-3-1.8-5.5-5-5.5c-3,0-4.8,2.6-4.8,5.5
		s1.7,5.6,4.8,5.6C394,71.6,395.8,69.1,395.8,66.1z"/>
	<path class="st3" d="M404.1,66.6c0,2.6,1.8,5.1,4.6,5.1c2.3,0,3.5-1.1,4.6-3l2.5,1.4c-1.4,2.6-4.1,4.2-7.1,4.2
		c-4.7,0-7.5-3.5-7.5-8c0-4.7,2.5-8.2,7.5-8.2c4.9,0,7.2,3.6,7.2,8.1v0.5L404.1,66.6L404.1,66.6z M412.9,64.3
		c-0.4-2.3-1.9-3.8-4.2-3.8c-2.3,0-4,1.6-4.3,3.8H412.9z"/>
	<path class="st3" d="M421.3,60.5L421.3,60.5c1-1.6,2.8-2.5,4.7-2.5c4.3,0,5.4,2.9,5.4,6.6v9.1h-2.9v-8.8c0-2.6-0.4-4.4-3.4-4.4
		c-3.8,0-3.8,3.3-3.8,6.1v7h-2.9V58.4h2.9L421.3,60.5L421.3,60.5z"/>
	<path class="st3" d="M452.8,49.1v15.7c0,4.7-0.9,9.5-6.7,9.5c-1.4,0-2.6-0.4-3.9-1.1l1.5-2.6c0.7,0.5,1.6,0.8,2.5,0.8
		c3.5,0,3.5-4.1,3.5-6.6V49.1H452.8z"/>
	<path class="st3" d="M459.5,58.4v8.5c0,2.5,0.6,4.6,3.5,4.6s3.5-2.2,3.5-4.6v-8.5h2.9v8.8c0,4.2-2,7-6.5,7s-6.5-2.8-6.5-7v-8.8
		C456.4,58.4,459.5,58.4,459.5,58.4z"/>
	<path class="st3" d="M484.9,71.3L484.9,71.3c-1.2,1.7-3.1,2.9-5.3,2.9c-4.7,0-7.3-3.9-7.3-8.3c0-4.2,2.8-8,7.2-8
		c2.3,0,4.1,1.2,5.3,3h0.1V45.3h2.9v28.4h-2.9L484.9,71.3L484.9,71.3z M485,66.1c0-3-1.8-5.5-5-5.5c-3,0-4.8,2.6-4.8,5.5
		s1.7,5.6,4.8,5.6C483.3,71.6,485,69.1,485,66.1z"/>
	<path class="st3" d="M495.8,51.4c0,1.1-0.9,2-2,2s-2-0.9-2-2s0.9-2.1,2-2.1C494.9,49.4,495.8,50.3,495.8,51.4z M495.2,73.7h-2.9
		V58.4h2.9V73.7z"/>
	<path class="st3" d="M511.2,62.8c-1.2-1.3-2.6-2.1-4.4-2.1c-2.9,0-5.1,2.6-5.1,5.4c0,3.1,2.2,5.4,5.3,5.4c1.7,0,3.1-0.8,4.2-2v3.8
		c-1.3,0.7-2.7,1-4.2,1c-4.5,0-8.2-3.5-8.2-8c0-4.7,3.7-8.2,8.4-8.2c1.4,0,2.9,0.3,4.1,1L511.2,62.8L511.2,62.8z"/>
	<path class="st3" d="M518.5,51.4c0,1.1-0.9,2-2,2s-2-0.9-2-2s0.9-2.1,2-2.1S518.5,50.3,518.5,51.4z M518,73.7h-3V58.4h2.9L518,73.7
		L518,73.7z"/>
	<path class="st3" d="M537,73.7h-2.9v-2.4H534c-1.2,1.7-3,2.9-5.2,2.9c-4.7,0-7.3-3.9-7.3-8.3c0-4.2,2.8-8,7.2-8
		c2.3,0,4.1,1.2,5.3,3h0.1v-2.6h2.9V73.7z M534.2,66.1c0-3-1.8-5.5-5-5.5c-3,0-4.8,2.6-4.8,5.5s1.7,5.6,4.8,5.6
		C532.5,71.6,534.2,69.1,534.2,66.1z"/>
	<path class="st3" d="M543.9,73.7H541V45.3h2.9V73.7z"/>
	<path class="st3" d="M563.2,49.1c-2.1,4.3-2.8,9.8-2.8,14.6s0.8,10.3,2.8,14.6l-2.4,1.8c-2.4-4.7-3.4-11.1-3.4-16.4
		s1-11.7,3.4-16.4L563.2,49.1z"/>
	<path class="st3" d="M570.1,49.1v14.6c0,4,1.2,7.7,6,7.7c4.7,0,6-3.7,6-7.7V49.1h3.1v15.6c0,5.4-3.4,9.6-9,9.6c-5.7,0-9-4.2-9-9.6
		V49.1H570.1z"/>
	<path class="st3" d="M595.1,61.9c-0.4-0.8-1.1-1.3-2-1.3c-0.8,0-1.6,0.7-1.6,1.5c0,1.3,1.8,1.9,3.6,2.7s3.5,1.9,3.5,4.3
		c0,2.9-2.4,5.1-5.3,5.1c-2.2,0-4.5-1.3-5.3-3.4l2.5-1.1c0.6,1.1,1.4,2,2.8,2c1.2,0,2.3-0.9,2.3-2.2c0-0.8-0.4-1.2-1.1-1.7l-2.9-1.5
		c-1.7-0.9-2.9-1.8-2.9-3.9c0-2.5,2-4.4,4.5-4.4c1.9,0,3.4,1,4.2,2.7L595.1,61.9z"/>
	<path class="st3" d="M604.4,58.4v8.5c0,2.5,0.6,4.6,3.5,4.6s3.5-2.2,3.5-4.6v-8.5h2.9v8.8c0,4.2-2,7-6.5,7s-6.5-2.8-6.5-7v-8.8
		C601.3,58.4,604.4,58.4,604.4,58.4z"/>
	<path class="st3" d="M629.5,62.8c-1.2-1.3-2.6-2.1-4.4-2.1c-2.9,0-5.1,2.6-5.1,5.4c0,3.1,2.2,5.4,5.3,5.4c1.7,0,3.1-0.8,4.2-2v3.8
		c-1.3,0.7-2.7,1-4.2,1c-4.5,0-8.2-3.5-8.2-8c0-4.7,3.7-8.2,8.4-8.2c1.4,0,2.9,0.3,4.1,1L629.5,62.8L629.5,62.8z"/>
	<path class="st3" d="M647.1,73.7h-2.9v-2.4h-0.1c-1.2,1.7-3,2.9-5.2,2.9c-4.7,0-7.3-3.9-7.3-8.3c0-4.2,2.8-8,7.2-8
		c2.3,0,4.1,1.2,5.3,3h0.1v-2.6h2.9V73.7z M644.3,66.1c0-3-1.8-5.5-5-5.5c-3,0-4.8,2.6-4.8,5.5s1.7,5.6,4.8,5.6
		C642.5,71.6,644.3,69.1,644.3,66.1z"/>
	<path class="st3" d="M653.6,61L653.6,61c1.3-1.8,3.1-3,5.4-3c4.4,0,7.2,3.8,7.2,8c0,4.4-2.6,8.3-7.3,8.3c-2.2,0-4-1.2-5.2-2.9h-0.1
		v11.2h-2.9V58.4h2.9L653.6,61L653.6,61z M663.2,66.1c0-3-1.8-5.5-5-5.5c-3,0-4.8,2.6-4.8,5.5s1.7,5.6,4.8,5.6
		C661.5,71.6,663.2,69.1,663.2,66.1z"/>
	<path class="st3" d="M673.2,51.4c0,1.1-0.9,2-2,2s-2-0.9-2-2s0.9-2.1,2-2.1S673.2,50.3,673.2,51.4z M672.7,73.7h-2.9V58.4h2.9V73.7
		z"/>
	<path class="st3" d="M692.3,66.1c0,4.6-3.6,8.1-8.2,8.1c-4.6,0-8.2-3.5-8.2-8.1s3.6-8.1,8.2-8.1C688.8,58,692.3,61.5,692.3,66.1z
		 M678.9,66.1c0,2.9,2.3,5.3,5.2,5.3s5.2-2.5,5.2-5.3c0-2.9-2.3-5.3-5.2-5.3C681.3,60.8,678.9,63.2,678.9,66.1z M688.9,51.2
		l-5.4,4.9l-1.4-0.9l4.1-5.4L688.9,51.2z"/>
	<path class="st3" d="M698,60.5L698,60.5c1-1.6,2.8-2.5,4.7-2.5c4.3,0,5.4,2.9,5.4,6.6v9.1h-2.9v-8.8c0-2.6-0.4-4.4-3.4-4.4
		c-3.8,0-3.8,3.3-3.8,6.1v7h-3V58.4h2.9L698,60.5L698,60.5z"/>
	<path class="st3" d="M714.4,47.3c2.4,4.7,3.4,11.1,3.4,16.4c0,5.3-1,11.6-3.4,16.4l-2.4-1.8c2.1-4.3,2.8-9.8,2.8-14.6
		S714,53.4,712,49.1L714.4,47.3z"/>
</g>
<g>
	<g>
		<path class="st5" d="M430.2,246.8h-3.7l-2.8-4.4l0,0v4.4h-2.9v-11.3h4.4c2.2,0,3.9,1.1,3.9,3.5c0,1.6-0.9,2.9-2.5,3.2L430.2,246.8
			z M423.8,240.6h0.3c1,0,2-0.2,2-1.4s-1.1-1.4-2-1.4h-0.3V240.6z"/>
		<path class="st5" d="M438.9,243.4h-5.7c0,1.1,0.6,1.7,1.7,1.7c0.6,0,1-0.2,1.3-0.7h2.6c-0.2,0.9-0.8,1.6-1.5,2s-1.6,0.6-2.5,0.6
			c-2.6,0-4.5-1.4-4.5-4.1c0-2.6,1.8-4.1,4.3-4.1c2.7,0,4.2,1.6,4.2,4.3v0.3H438.9z M436.3,241.9c-0.1-0.7-0.8-1.2-1.5-1.2
			c-0.8,0-1.5,0.4-1.6,1.2H436.3z"/>
		<path class="st5" d="M445.2,241.1c-0.4-0.2-1-0.4-1.5-0.4c-0.3,0-0.9,0.1-0.9,0.5c0,0.5,0.9,0.6,1.2,0.7c1.3,0.3,2.2,0.9,2.2,2.3
			c0,2-1.8,2.9-3.6,2.9c-1.1,0-2.2-0.3-3.1-0.9l1-1.9c0.6,0.4,1.5,0.8,2.2,0.8c0.3,0,0.9-0.2,0.9-0.6c0-0.6-0.9-0.6-1.7-0.9
			c-0.9-0.2-1.7-0.6-1.7-2c0-1.9,1.7-2.7,3.4-2.7c0.9,0,1.7,0.1,2.5,0.5L445.2,241.1z"/>
		<path class="st5" d="M450.5,240L450.5,240c0.5-0.8,1.5-1.1,2.4-1.1c2.3,0,3.9,1.9,3.9,4.1c0,2.2-1.6,4.1-3.9,4.1
			c-0.9,0-1.8-0.3-2.4-1v4.6h-2.7v-11.5h2.7V240z M450.4,243c0,1,0.6,1.7,1.8,1.7s1.8-0.8,1.8-1.7s-0.6-1.7-1.8-1.7
			S450.4,242,450.4,243z"/>
		<path class="st5" d="M466.7,243c0,2.6-2.2,4.1-4.6,4.1c-2.5,0-4.6-1.5-4.6-4.1s2.2-4.1,4.6-4.1C464.6,238.9,466.7,240.4,466.7,243
			z M460.4,243c0,1,0.6,1.7,1.8,1.7c1.1,0,1.8-0.8,1.8-1.7s-0.6-1.7-1.8-1.7C461,241.2,460.4,242,460.4,243z"/>
		<path class="st5" d="M470.7,240.1L470.7,240.1c0.7-0.9,1.4-1.2,2.5-1.2c2.1,0,2.9,1.3,2.9,3.2v4.8h-2.7v-3.8c0-0.7,0.1-2-1.2-2
			c-1.1,0-1.4,0.8-1.4,1.8v4H468v-7.7h2.7V240.1z"/>
		<path class="st5" d="M483,241.1c-0.4-0.2-1-0.4-1.5-0.4c-0.3,0-0.9,0.1-0.9,0.5c0,0.5,0.9,0.6,1.2,0.7c1.3,0.3,2.2,0.9,2.2,2.3
			c0,2-1.8,2.9-3.6,2.9c-1.1,0-2.2-0.3-3.1-0.9l1-1.9c0.6,0.4,1.5,0.8,2.2,0.8c0.3,0,0.9-0.2,0.9-0.6c0-0.6-0.9-0.6-1.7-0.9
			c-0.9-0.2-1.7-0.6-1.7-2c0-1.9,1.7-2.7,3.4-2.7c0.9,0,1.7,0.1,2.5,0.5L483,241.1z"/>
		<path class="st5" d="M494,246.8h-2.7V246l0,0c-0.5,0.8-1.4,1.1-2.3,1.1c-2.3,0-3.9-1.9-3.9-4.1c0-2.2,1.6-4.1,3.9-4.1
			c0.9,0,1.8,0.3,2.4,1v-0.7h2.7v7.6H494z M487.8,243c0,1,0.6,1.7,1.8,1.7s1.8-0.8,1.8-1.7s-0.6-1.7-1.8-1.7S487.8,242,487.8,243z"
			/>
		<path class="st5" d="M495.7,234.4h2.7v5.5c0.6-0.7,1.5-1,2.4-1c2.3,0,3.9,1.9,3.9,4.1c0,2.2-1.6,4.1-3.9,4.1
			c-0.9,0-1.8-0.3-2.3-1.1l0,0v0.9h-2.7v-12.5H495.7z M498.4,243c0,1,0.6,1.7,1.8,1.7c1.1,0,1.8-0.8,1.8-1.7s-0.6-1.7-1.8-1.7
			C499,241.2,498.4,242,498.4,243z"/>
		<path class="st5" d="M508.8,246.8H506v-12.5h2.7L508.8,246.8L508.8,246.8z"/>
		<path class="st5" d="M518.5,243.4h-5.7c0,1.1,0.6,1.7,1.7,1.7c0.6,0,1-0.2,1.3-0.7h2.6c-0.2,0.9-0.8,1.6-1.5,2s-1.6,0.6-2.5,0.6
			c-2.6,0-4.5-1.4-4.5-4.1c0-2.6,1.8-4.1,4.3-4.1c2.7,0,4.2,1.6,4.2,4.3v0.3H518.5z M515.9,241.9c-0.1-0.7-0.8-1.2-1.5-1.2
			c-0.8,0-1.5,0.4-1.6,1.2H515.9z"/>
		<path class="st5" d="M530.6,246L530.6,246c-0.5,0.8-1.5,1.1-2.4,1.1c-2.3,0-3.9-1.9-3.9-4.1c0-2.2,1.6-4.1,3.9-4.1
			c0.9,0,1.8,0.3,2.4,1v-5.5h2.7v12.5h-2.7V246z M527.2,243c0,1,0.6,1.7,1.8,1.7s1.8-0.8,1.8-1.7s-0.6-1.7-1.8-1.7
			S527.2,242,527.2,243z"/>
		<path class="st5" d="M543,243.4h-5.7c0,1.1,0.6,1.7,1.7,1.7c0.6,0,1-0.2,1.3-0.7h2.6c-0.2,0.9-0.8,1.6-1.5,2s-1.6,0.6-2.5,0.6
			c-2.6,0-4.5-1.4-4.5-4.1c0-2.6,1.8-4.1,4.3-4.1c2.7,0,4.2,1.6,4.2,4.3v0.3H543z M540.5,241.9c-0.1-0.7-0.8-1.2-1.5-1.2
			c-0.8,0-1.5,0.4-1.6,1.2H540.5z"/>
		<path class="st5" d="M453.2,264.8h-2.7V264l0,0c-0.5,0.8-1.4,1.1-2.3,1.1c-2.3,0-3.9-1.9-3.9-4.1s1.6-4.1,3.9-4.1
			c0.9,0,1.8,0.3,2.4,1v-0.7h2.7v7.6H453.2z M447.1,261c0,1,0.6,1.7,1.8,1.7c1.1,0,1.8-0.8,1.8-1.7c0-0.9-0.6-1.7-1.8-1.7
			C447.7,259.2,447.1,260,447.1,261z"/>
		<path class="st5" d="M460.8,264L460.8,264c-0.5,0.8-1.5,1.1-2.4,1.1c-2.3,0-3.9-1.9-3.9-4.1s1.6-4.1,3.9-4.1c0.9,0,1.8,0.3,2.4,1
			v-5.5h2.7v12.5h-2.7V264z M457.4,261c0,1,0.6,1.7,1.8,1.7c1.1,0,1.8-0.8,1.8-1.7c0-0.9-0.6-1.7-1.8-1.7
			C458,259.2,457.4,260,457.4,261z"/>
		<path class="st5" d="M468,258.1L468,258.1c0.7-0.9,1.5-1.2,2.5-1.2c1.1,0,2.1,0.4,2.6,1.5c0.5-1,1.6-1.5,2.6-1.5
			c2,0,2.6,1.3,2.6,3v4.9h-2.7v-3.7c0-0.8,0-2.1-1.1-2.1c-1.3,0-1.3,1.2-1.3,2.1v3.7h-2.7v-3.7c0-0.9,0-2.2-1.2-2.2
			s-1.2,1.3-1.2,2.2v3.7h-2.7v-7.7h2.7L468,258.1L468,258.1z"/>
		<path class="st5" d="M483,254.2c0,0.8-0.7,1.5-1.5,1.5s-1.5-0.7-1.5-1.5s0.7-1.5,1.5-1.5C482.3,252.6,483,253.3,483,254.2z
			 M482.8,264.8h-2.7v-7.7h2.7V264.8z"/>
		<path class="st5" d="M489.7,259.1c-0.4-0.2-1-0.4-1.5-0.4c-0.3,0-0.9,0.1-0.9,0.5c0,0.5,0.9,0.6,1.2,0.7c1.3,0.3,2.2,0.9,2.2,2.3
			c0,2-1.8,2.9-3.6,2.9c-1.1,0-2.2-0.3-3.1-0.9l1-1.9c0.6,0.4,1.5,0.8,2.2,0.8c0.3,0,0.9-0.2,0.9-0.6c0-0.6-0.9-0.6-1.7-0.9
			c-0.9-0.2-1.7-0.6-1.7-2c0-1.9,1.7-2.7,3.4-2.7c0.9,0,1.7,0.1,2.5,0.5L489.7,259.1z"/>
		<path class="st5" d="M495.2,254.2c0,0.8-0.7,1.5-1.5,1.5s-1.5-0.7-1.5-1.5s0.7-1.5,1.5-1.5C494.5,252.6,495.2,253.3,495.2,254.2z
			 M495,264.8h-2.7v-7.7h2.7V264.8z"/>
		<path class="st5" d="M505.5,261c0,2.6-2.2,4.1-4.6,4.1c-2.5,0-4.6-1.5-4.6-4.1s2.2-4.1,4.6-4.1C503.4,256.9,505.5,258.4,505.5,261
			z M499.1,261c0,1,0.6,1.7,1.8,1.7c1.1,0,1.8-0.8,1.8-1.7c0-0.9-0.6-1.7-1.8-1.7C499.8,259.2,499.1,260,499.1,261z M500.6,256
			l-1.2-0.9l2.1-2.6l1.7,1.2L500.6,256z"/>
		<path class="st5" d="M509.5,258.1L509.5,258.1c0.7-0.9,1.4-1.2,2.5-1.2c2.1,0,2.9,1.3,2.9,3.2v4.8h-2.7v-3.8c0-0.7,0.1-2-1.2-2
			c-1.1,0-1.4,0.8-1.4,1.8v4h-2.7v-7.7h2.7v0.9H509.5z"/>
		<path class="st5" d="M524.1,252.4l-5.7,13.8h-2.1l5.7-13.8L524.1,252.4L524.1,252.4z"/>
		<path class="st5" d="M415.9,279.4h-5.7c0,1.1,0.6,1.7,1.7,1.7c0.6,0,1-0.2,1.3-0.7h2.6c-0.2,0.9-0.8,1.6-1.5,2s-1.6,0.6-2.5,0.6
			c-2.6,0-4.5-1.4-4.5-4.1c0-2.6,1.8-4.1,4.3-4.1c2.7,0,4.2,1.6,4.2,4.3v0.3H415.9z M413.4,277.8c-0.1-0.7-0.8-1.2-1.5-1.2
			c-0.8,0-1.5,0.4-1.6,1.2H413.4z"/>
		<path class="st5" d="M419.9,276.1L419.9,276.1c0.7-0.9,1.5-1.2,2.5-1.2c1.1,0,2.1,0.4,2.6,1.5c0.5-1,1.6-1.5,2.6-1.5
			c2,0,2.6,1.3,2.6,3v4.9h-2.7v-3.7c0-0.8,0-2.1-1.1-2.1c-1.3,0-1.3,1.2-1.3,2.1v3.7h-2.7v-3.7c0-0.9,0-2.2-1.2-2.2
			s-1.2,1.3-1.2,2.2v3.7h-2.7v-7.7h2.7L419.9,276.1L419.9,276.1z"/>
		<path class="st5" d="M434.9,272.2c0,0.8-0.7,1.5-1.5,1.5s-1.5-0.7-1.5-1.5s0.7-1.5,1.5-1.5C434.2,270.6,434.9,271.3,434.9,272.2z
			 M434.7,282.8H432v-7.7h2.7V282.8z"/>
		<path class="st5" d="M441.6,277.1c-0.4-0.2-1-0.4-1.5-0.4c-0.3,0-0.9,0.1-0.9,0.5c0,0.5,0.9,0.6,1.2,0.7c1.3,0.3,2.2,0.9,2.2,2.3
			c0,2-1.8,2.9-3.6,2.9c-1.1,0-2.2-0.3-3.1-0.9l1-1.9c0.6,0.4,1.5,0.8,2.2,0.8c0.3,0,0.9-0.2,0.9-0.6c0-0.6-0.9-0.6-1.7-0.9
			c-0.9-0.2-1.7-0.6-1.7-2c0-1.9,1.7-2.7,3.4-2.7c0.9,0,1.7,0.1,2.5,0.5L441.6,277.1z"/>
		<path class="st5" d="M447.1,272.2c0,0.8-0.7,1.5-1.5,1.5s-1.5-0.7-1.5-1.5s0.7-1.5,1.5-1.5C446.4,270.6,447.1,271.3,447.1,272.2z
			 M446.9,282.8h-2.7v-7.7h2.7V282.8z"/>
		<path class="st5" d="M457.4,279c0,2.6-2.2,4.1-4.6,4.1c-2.5,0-4.6-1.5-4.6-4.1s2.2-4.1,4.6-4.1C455.3,274.9,457.4,276.3,457.4,279
			z M451,279c0,1,0.6,1.7,1.8,1.7c1.1,0,1.8-0.8,1.8-1.7c0-0.9-0.6-1.7-1.8-1.7C451.7,277.2,451,278,451,279z M452.5,274l-1.2-0.9
			l2.1-2.6l1.7,1.2L452.5,274z"/>
		<path class="st5" d="M461.4,276.1L461.4,276.1c0.7-0.9,1.4-1.2,2.5-1.2c2.1,0,2.9,1.3,2.9,3.2v4.8H464v-3.8c0-0.7,0.1-2-1.2-2
			c-1.1,0-1.4,0.8-1.4,1.8v4h-2.7v-7.7h2.7V276.1z"/>
		<path class="st5" d="M481.1,270.4l-5.7,13.8h-2.1l5.7-13.8H481.1z"/>
		<path class="st5" d="M493.3,282L493.3,282c-0.5,0.8-1.5,1.1-2.4,1.1c-2.3,0-3.9-1.9-3.9-4.1s1.6-4.1,3.9-4.1c0.9,0,1.8,0.3,2.4,1
			v-5.5h2.7v12.5h-2.7V282z M489.9,279c0,1,0.6,1.7,1.8,1.7s1.8-0.8,1.8-1.7c0-0.9-0.6-1.7-1.8-1.7S489.9,278,489.9,279z"/>
		<path class="st5" d="M505.7,279.4H500c0,1.1,0.6,1.7,1.7,1.7c0.6,0,1-0.2,1.3-0.7h2.6c-0.2,0.9-0.8,1.6-1.5,2s-1.6,0.6-2.5,0.6
			c-2.6,0-4.5-1.4-4.5-4.1c0-2.6,1.8-4.1,4.3-4.1c2.7,0,4.2,1.6,4.2,4.3v0.3H505.7z M503.1,277.8c-0.1-0.7-0.8-1.2-1.5-1.2
			c-0.8,0-1.5,0.4-1.6,1.2H503.1z"/>
		<path class="st5" d="M512,277.1c-0.4-0.2-1-0.4-1.5-0.4c-0.3,0-0.9,0.1-0.9,0.5c0,0.5,0.9,0.6,1.2,0.7c1.3,0.3,2.2,0.9,2.2,2.3
			c0,2-1.8,2.9-3.6,2.9c-1.1,0-2.2-0.3-3.1-0.9l1-1.9c0.6,0.4,1.5,0.8,2.2,0.8c0.3,0,0.9-0.2,0.9-0.6c0-0.6-0.9-0.6-1.7-0.9
			c-0.9-0.2-1.7-0.6-1.7-2c0-1.9,1.7-2.7,3.4-2.7c0.9,0,1.7,0.1,2.5,0.5L512,277.1z"/>
		<path class="st5" d="M517.3,276L517.3,276c0.5-0.8,1.5-1.1,2.4-1.1c2.3,0,3.9,1.9,3.9,4.1s-1.6,4.1-3.9,4.1c-0.9,0-1.8-0.3-2.4-1
			v4.6h-2.7v-11.5h2.7V276z M517.2,279c0,1,0.6,1.7,1.8,1.7s1.8-0.8,1.8-1.7c0-0.9-0.6-1.7-1.8-1.7S517.2,278,517.2,279z"/>
		<path class="st5" d="M533.3,282.8h-2.7V282l0,0c-0.5,0.8-1.4,1.1-2.3,1.1c-2.3,0-3.9-1.9-3.9-4.1s1.6-4.1,3.9-4.1
			c0.9,0,1.8,0.3,2.4,1v-0.7h2.7v7.6H533.3z M527.1,279c0,1,0.6,1.7,1.8,1.7c1.1,0,1.8-0.8,1.8-1.7c0-0.9-0.6-1.7-1.8-1.7
			C527.7,277.2,527.1,278,527.1,279z"/>
		<path class="st5" d="M540.6,277.6c-0.4-0.3-0.9-0.5-1.4-0.5c-1,0-1.9,0.8-1.9,1.9s0.8,1.9,1.9,1.9c0.5,0,1-0.2,1.4-0.5v2.3
			c-0.6,0.3-1.3,0.4-1.9,0.4c-2.3,0-4.2-1.7-4.2-4c0-2.5,1.9-4.2,4.3-4.2c0.6,0,1.3,0.1,1.8,0.4L540.6,277.6L540.6,277.6z"/>
		<path class="st5" d="M545,270.4v5.7l0,0c0.6-0.8,1.4-1.2,2.5-1.2c2,0,2.9,1.3,2.9,3.2v4.7h-2.7v-3.9c0-0.9-0.1-1.8-1.2-1.8
			c-1.1,0-1.4,0.9-1.4,1.8v3.9h-2.7v-12.5L545,270.4L545,270.4z"/>
		<path class="st5" d="M560.9,279c0,2.6-2.2,4.1-4.6,4.1c-2.5,0-4.6-1.5-4.6-4.1s2.2-4.1,4.6-4.1C558.8,274.9,560.9,276.3,560.9,279
			z M554.5,279c0,1,0.6,1.7,1.8,1.7c1.1,0,1.8-0.8,1.8-1.7c0-0.9-0.6-1.7-1.8-1.7C555.2,277.2,554.5,278,554.5,279z"/>
	</g>
</g>
<rect id="XMLID_947_" x="362.4" y="890.3" class="st2" width="240.1" height="64.4"/>
<g>
	<g>
		<path class="st5" d="M382.6,907.8h4.2c3.2,0,5.7,2.5,5.7,5.7s-2.6,5.7-5.7,5.7h-4.2V907.8z M385.6,916.7h0.7c1.8,0,3.3-1,3.3-3.2
			c0-2-1.3-3.2-3.2-3.2h-0.7L385.6,916.7L385.6,916.7z"/>
		<path class="st5" d="M396.7,908.5c0,0.8-0.7,1.5-1.5,1.5s-1.5-0.7-1.5-1.5s0.7-1.5,1.5-1.5S396.7,907.7,396.7,908.5z M396.6,919.2
			h-2.7v-7.7h2.7V919.2z"/>
		<path class="st5" d="M401.1,912.7L401.1,912.7c0.6-0.9,1.5-1.4,2.5-1.4h0.5v2.6c-0.4-0.2-0.7-0.3-1.2-0.3c-1.5,0-1.9,1-1.9,2.3
			v3.1h-2.7v-7.7h2.7v1.4H401.1z"/>
		<path class="st5" d="M413.1,915.8h-5.7c0,1.1,0.6,1.7,1.7,1.7c0.6,0,1-0.2,1.3-0.7h2.6c-0.2,0.9-0.8,1.6-1.5,2s-1.6,0.6-2.5,0.6
			c-2.6,0-4.5-1.4-4.5-4.1c0-2.6,1.8-4.1,4.3-4.1c2.7,0,4.2,1.6,4.2,4.3v0.3H413.1z M410.5,914.2c-0.1-0.7-0.8-1.2-1.5-1.2
			c-0.8,0-1.5,0.4-1.6,1.2H410.5z"/>
		<path class="st5" d="M419.9,914c-0.4-0.3-0.9-0.5-1.4-0.5c-1,0-1.9,0.8-1.9,1.9c0,1.1,0.8,1.9,1.9,1.9c0.5,0,1-0.2,1.4-0.5v2.3
			c-0.6,0.3-1.3,0.4-1.9,0.4c-2.3,0-4.2-1.7-4.2-4c0-2.5,1.9-4.2,4.3-4.2c0.6,0,1.3,0.1,1.8,0.4L419.9,914L419.9,914z"/>
		<path class="st5" d="M424.5,919.2h-2.7v-5.4h-0.9v-2.3h0.9v-2.3h2.7v2.3h1.5v2.3h-1.5V919.2z"/>
		<path class="st5" d="M435.6,915.3c0,2.6-2.2,4.1-4.6,4.1c-2.5,0-4.6-1.5-4.6-4.1s2.2-4.1,4.6-4.1
			C433.5,911.2,435.6,912.7,435.6,915.3z M429.3,915.3c0,1,0.6,1.7,1.8,1.7c1.1,0,1.8-0.8,1.8-1.7s-0.6-1.7-1.8-1.7
			S429.3,914.4,429.3,915.3z"/>
		<path class="st5" d="M439.6,912.7L439.6,912.7c0.6-0.9,1.5-1.4,2.5-1.4h0.5v2.6c-0.4-0.2-0.7-0.3-1.2-0.3c-1.5,0-1.9,1-1.9,2.3
			v3.1h-2.7v-7.7h2.7v1.4H439.6z"/>
		<path class="st5" d="M454.6,918.3L454.6,918.3c-0.5,0.8-1.5,1.1-2.4,1.1c-2.3,0-3.9-1.9-3.9-4.1c0-2.2,1.6-4.1,3.9-4.1
			c0.9,0,1.8,0.3,2.4,1v-5.5h2.7v12.5h-2.7V918.3z M451.2,915.3c0,1,0.6,1.7,1.8,1.7c1.1,0,1.8-0.8,1.8-1.7s-0.6-1.7-1.8-1.7
			C451.8,913.6,451.2,914.4,451.2,915.3z"/>
		<path class="st5" d="M466.9,915.8h-5.7c0,1.1,0.6,1.7,1.7,1.7c0.6,0,1-0.2,1.3-0.7h2.6c-0.2,0.9-0.8,1.6-1.5,2s-1.6,0.6-2.5,0.6
			c-2.6,0-4.5-1.4-4.5-4.1c0-2.6,1.8-4.1,4.3-4.1c2.7,0,4.2,1.6,4.2,4.3v0.3H466.9z M464.4,914.2c-0.1-0.7-0.8-1.2-1.5-1.2
			c-0.8,0-1.5,0.4-1.6,1.2H464.4z"/>
		<path class="st5" d="M481.7,919.2H479v-0.9l0,0c-0.5,0.8-1.4,1.1-2.3,1.1c-2.3,0-3.9-1.9-3.9-4.1c0-2.2,1.6-4.1,3.9-4.1
			c0.9,0,1.8,0.3,2.4,1v-0.7h2.7v7.7H481.7z M475.6,915.3c0,1,0.6,1.7,1.8,1.7c1.1,0,1.8-0.8,1.8-1.7s-0.6-1.7-1.8-1.7
			S475.6,914.4,475.6,915.3z"/>
		<path class="st5" d="M489.3,918.3L489.3,918.3c-0.5,0.8-1.5,1.1-2.4,1.1c-2.3,0-3.9-1.9-3.9-4.1c0-2.2,1.6-4.1,3.9-4.1
			c0.9,0,1.8,0.3,2.4,1v-5.5h2.7v12.5h-2.7V918.3z M485.9,915.3c0,1,0.6,1.7,1.8,1.7c1.1,0,1.8-0.8,1.8-1.7s-0.6-1.7-1.8-1.7
			C486.6,913.6,485.9,914.4,485.9,915.3z"/>
		<path class="st5" d="M496.5,912.4L496.5,912.4c0.7-0.9,1.5-1.2,2.5-1.2c1.1,0,2.1,0.4,2.6,1.5c0.5-1,1.6-1.5,2.6-1.5
			c2,0,2.6,1.3,2.6,3v4.9h-2.7v-3.7c0-0.8,0-2.1-1.1-2.1c-1.3,0-1.3,1.2-1.3,2.1v3.7H499v-3.7c0-0.9,0-2.2-1.2-2.2s-1.2,1.3-1.2,2.2
			v3.7h-2.7v-7.7h2.7L496.5,912.4L496.5,912.4z"/>
		<path class="st5" d="M511.5,908.5c0,0.8-0.7,1.5-1.5,1.5s-1.5-0.7-1.5-1.5s0.7-1.5,1.5-1.5S511.5,907.7,511.5,908.5z M511.3,919.2
			h-2.7v-7.7h2.7V919.2z"/>
		<path class="st5" d="M515.9,912.4L515.9,912.4c0.7-0.9,1.4-1.2,2.5-1.2c2.1,0,2.9,1.3,2.9,3.2v4.8h-2.7v-3.8c0-0.7,0.1-2-1.2-2
			c-1.1,0-1.4,0.8-1.4,1.8v4h-2.7v-7.7h2.7L515.9,912.4L515.9,912.4z"/>
		<path class="st5" d="M526,908.5c0,0.8-0.7,1.5-1.5,1.5s-1.5-0.7-1.5-1.5s0.7-1.5,1.5-1.5S526,907.7,526,908.5z M525.8,919.2h-2.7
			v-7.7h2.7V919.2z"/>
		<path class="st5" d="M532.7,913.4c-0.4-0.2-1-0.4-1.5-0.4c-0.3,0-0.9,0.1-0.9,0.5c0,0.5,0.9,0.6,1.2,0.7c1.3,0.3,2.2,0.9,2.2,2.3
			c0,2-1.8,2.9-3.6,2.9c-1.1,0-2.2-0.3-3.1-0.9l1-1.9c0.6,0.4,1.5,0.8,2.2,0.8c0.3,0,0.9-0.2,0.9-0.6c0-0.6-0.9-0.6-1.7-0.9
			c-0.9-0.2-1.7-0.6-1.7-2c0-1.9,1.7-2.7,3.4-2.7c0.9,0,1.7,0.1,2.5,0.5L532.7,913.4z"/>
		<path class="st5" d="M538.3,919.2h-2.7v-5.4h-0.9v-2.3h0.9v-2.3h2.7v2.3h1.5v2.3h-1.5V919.2z"/>
		<path class="st5" d="M543.4,912.7L543.4,912.7c0.6-0.9,1.5-1.4,2.5-1.4h0.5v2.6c-0.4-0.2-0.7-0.3-1.2-0.3c-1.5,0-1.9,1-1.9,2.3
			v3.1h-2.7v-7.7h2.7v1.4H543.4z"/>
		<path class="st5" d="M555.9,919.2h-2.7v-0.9l0,0c-0.5,0.8-1.4,1.1-2.3,1.1c-2.3,0-3.9-1.9-3.9-4.1c0-2.2,1.6-4.1,3.9-4.1
			c0.9,0,1.8,0.3,2.4,1v-0.7h2.7v7.7H555.9z M549.7,915.3c0,1,0.6,1.7,1.8,1.7c1.1,0,1.8-0.8,1.8-1.7s-0.6-1.7-1.8-1.7
			C550.4,913.6,549.7,914.4,549.7,915.3z"/>
		<path class="st5" d="M563.3,914c-0.4-0.3-0.9-0.5-1.4-0.5c-1,0-1.9,0.8-1.9,1.9c0,1.1,0.8,1.9,1.9,1.9c0.5,0,1-0.2,1.4-0.5v2.3
			c-0.6,0.3-1.3,0.4-1.9,0.4c-2.3,0-4.2-1.7-4.2-4c0-2.5,1.9-4.2,4.3-4.2c0.6,0,1.3,0.1,1.8,0.4L563.3,914L563.3,914z"/>
		<path class="st5" d="M567.8,908.5c0,0.8-0.7,1.5-1.5,1.5s-1.5-0.7-1.5-1.5s0.7-1.5,1.5-1.5S567.8,907.7,567.8,908.5z M567.7,919.2
			H565v-7.7h2.7V919.2z"/>
		<path class="st5" d="M578.2,915.3c0,2.6-2.2,4.1-4.6,4.1c-2.5,0-4.6-1.5-4.6-4.1s2.2-4.1,4.6-4.1S578.2,912.7,578.2,915.3z
			 M571.8,915.3c0,1,0.6,1.7,1.8,1.7c1.1,0,1.8-0.8,1.8-1.7s-0.6-1.7-1.8-1.7C572.4,913.6,571.8,914.4,571.8,915.3z M573.2,910.3
			l-1.2-0.9l2.1-2.6l1.7,1.2L573.2,910.3z"/>
		<path class="st5" d="M582.1,912.4L582.1,912.4c0.7-0.9,1.4-1.2,2.5-1.2c2.1,0,2.9,1.3,2.9,3.2v4.8h-2.7v-3.8c0-0.7,0.1-2-1.2-2
			c-1.1,0-1.4,0.8-1.4,1.8v4h-2.7v-7.7h2.7L582.1,912.4L582.1,912.4z"/>
		<path class="st5" d="M411,936.4c0,3.3-1.6,4.6-4.5,4.6c-1.8,0-4.1-0.9-4.4-2.9h3.1c0.1,0.3,0.3,0.5,0.5,0.6s0.5,0.2,0.8,0.2
			c1.5,0,1.8-1,1.8-2.2v-0.4c-0.7,0.7-1.4,1-2.4,1c-2.3,0-3.8-1.7-3.8-3.9c0-2.3,1.6-4.2,3.9-4.2c0.9,0,1.7,0.3,2.3,1.1l0,0v-0.8
			h2.7V936.4z M404.8,933.2c0,1,0.6,1.7,1.8,1.7s1.8-0.7,1.8-1.7c0-0.9-0.6-1.7-1.8-1.7S404.8,932.3,404.8,933.2z"/>
		<path class="st5" d="M420.6,933.8h-5.7c0,1.1,0.6,1.7,1.7,1.7c0.6,0,1-0.2,1.3-0.7h2.6c-0.2,0.9-0.8,1.6-1.5,2s-1.6,0.6-2.5,0.6
			c-2.6,0-4.5-1.4-4.5-4.1c0-2.6,1.8-4.1,4.3-4.1c2.7,0,4.2,1.6,4.2,4.3v0.3H420.6z M418.1,932.2c-0.1-0.7-0.8-1.2-1.5-1.2
			c-0.8,0-1.5,0.4-1.6,1.2H418.1z"/>
		<path class="st5" d="M430.5,933.3c0,2.6-2.2,4.1-4.6,4.1c-2.5,0-4.6-1.5-4.6-4.1s2.2-4.1,4.6-4.1
			C428.4,929.2,430.5,930.7,430.5,933.3z M424.2,933.3c0,1,0.6,1.7,1.8,1.7c1.1,0,1.8-0.8,1.8-1.7s-0.6-1.7-1.8-1.7
			C424.8,931.6,424.2,932.4,424.2,933.3z"/>
		<path class="st5" d="M440.2,936.4c0,3.3-1.6,4.6-4.5,4.6c-1.8,0-4.1-0.9-4.4-2.9h3.1c0.1,0.3,0.3,0.5,0.5,0.6s0.5,0.2,0.8,0.2
			c1.5,0,1.8-1,1.8-2.2v-0.4c-0.7,0.7-1.4,1-2.4,1c-2.3,0-3.8-1.7-3.8-3.9c0-2.3,1.6-4.2,3.9-4.2c0.9,0,1.7,0.3,2.3,1.1l0,0v-0.8
			h2.7V936.4z M434.1,933.2c0,1,0.6,1.7,1.8,1.7c1.1,0,1.8-0.7,1.8-1.7c0-0.9-0.6-1.7-1.8-1.7S434.1,932.3,434.1,933.2z"/>
		<path class="st5" d="M444.7,930.7L444.7,930.7c0.6-0.9,1.5-1.4,2.5-1.4h0.5v2.6c-0.4-0.2-0.7-0.3-1.2-0.3c-1.5,0-1.9,1-1.9,2.3
			v3.1h-2.7v-7.7h2.7v1.4H444.7z"/>
		<path class="st5" d="M457.1,937.1h-2.7v-0.9l0,0c-0.5,0.8-1.4,1.1-2.3,1.1c-2.3,0-3.9-1.9-3.9-4.1c0-2.2,1.6-4.1,3.9-4.1
			c0.9,0,1.8,0.3,2.4,1v-0.7h2.7v7.7H457.1z M451,933.3c0,1,0.6,1.7,1.8,1.7c1.1,0,1.8-0.8,1.8-1.7s-0.6-1.7-1.8-1.7
			S451,932.4,451,933.3z M452.6,928.3l-1.2-0.9l2.1-2.6l1.7,1.2L452.6,928.3z"/>
		<path class="st5" d="M461.9,937.1h-2.7v-5.4h-1v-2.3h1v-1c0-1.1,0-1.8,0.8-2.7c0.7-0.8,1.7-1.2,2.7-1.2c0.4,0,0.8,0.1,1.2,0.3v2.4
			c-0.3-0.1-0.6-0.3-1-0.3c-0.7,0-0.9,0.4-0.9,1.3v1.2h1.9v2.3H462v5.4H461.9z M467.5,926.5c0,0.8-0.7,1.5-1.5,1.5s-1.5-0.7-1.5-1.5
			s0.7-1.5,1.5-1.5S467.5,925.7,467.5,926.5z M467.3,937.1h-2.7v-7.7h2.7V937.1z"/>
		<path class="st5" d="M474.7,932c-0.4-0.3-0.9-0.5-1.4-0.5c-1.1,0-1.9,0.8-1.9,1.9c0,1.1,0.8,1.9,1.9,1.9c0.5,0,1-0.2,1.4-0.5v2.3
			c-0.6,0.3-1.3,0.4-1.9,0.4c-2.3,0-4.2-1.7-4.2-4c0-2.5,1.9-4.2,4.3-4.2c0.6,0,1.3,0.1,1.8,0.4L474.7,932L474.7,932z"/>
		<path class="st5" d="M484.8,937.1h-2.7v-0.9l0,0c-0.5,0.8-1.4,1.1-2.3,1.1c-2.3,0-3.9-1.9-3.9-4.1c0-2.2,1.6-4.1,3.9-4.1
			c0.9,0,1.8,0.3,2.4,1v-0.7h2.7v7.7H484.8z M478.6,933.3c0,1,0.6,1.7,1.8,1.7s1.8-0.8,1.8-1.7s-0.6-1.7-1.8-1.7
			S478.6,932.4,478.6,933.3z"/>
		<path class="st5" d="M490.6,929.5h3.2l2.1,3.9l2-3.9h3.1l-6.2,11.5h-3.1l2.6-4.9L490.6,929.5z"/>
		<path class="st5" d="M512.2,932c-0.4-0.3-0.9-0.5-1.4-0.5c-1.1,0-1.9,0.8-1.9,1.9c0,1.1,0.8,1.9,1.9,1.9c0.5,0,1-0.2,1.4-0.5v2.3
			c-0.6,0.3-1.3,0.4-1.9,0.4c-2.3,0-4.2-1.7-4.2-4c0-2.5,1.9-4.2,4.3-4.2c0.6,0,1.3,0.1,1.8,0.4V932z"/>
		<path class="st5" d="M522.4,937.1h-2.7v-0.9l0,0c-0.5,0.8-1.4,1.1-2.3,1.1c-2.3,0-3.9-1.9-3.9-4.1c0-2.2,1.6-4.1,3.9-4.1
			c0.9,0,1.8,0.3,2.4,1v-0.7h2.7v7.7H522.4z M516.2,933.3c0,1,0.6,1.7,1.8,1.7s1.8-0.8,1.8-1.7s-0.6-1.7-1.8-1.7
			S516.2,932.4,516.2,933.3z"/>
		<path class="st5" d="M527.1,937.1h-2.7v-5.4h-0.9v-2.3h0.9v-2.3h2.7v2.3h1.5v2.3h-1.5V937.1z"/>
		<path class="st5" d="M538,937.1h-2.7v-0.9l0,0c-0.5,0.8-1.4,1.1-2.3,1.1c-2.3,0-3.9-1.9-3.9-4.1c0-2.2,1.6-4.1,3.9-4.1
			c0.9,0,1.8,0.3,2.4,1v-0.7h2.7v7.7H538z M531.8,933.3c0,1,0.6,1.7,1.8,1.7s1.8-0.8,1.8-1.7s-0.6-1.7-1.8-1.7
			S531.8,932.4,531.8,933.3z"/>
		<path class="st5" d="M544.9,931.4c-0.4-0.2-1-0.4-1.5-0.4c-0.3,0-0.9,0.1-0.9,0.5c0,0.5,0.9,0.6,1.2,0.7c1.3,0.3,2.2,0.9,2.2,2.3
			c0,2-1.8,2.9-3.6,2.9c-1.1,0-2.2-0.3-3.1-0.9l1-1.9c0.6,0.4,1.5,0.8,2.2,0.8c0.3,0,0.9-0.2,0.9-0.6c0-0.6-0.9-0.6-1.7-0.9
			c-0.9-0.2-1.7-0.6-1.7-2c0-1.9,1.7-2.7,3.4-2.7c0.9,0,1.7,0.1,2.5,0.5L544.9,931.4z"/>
		<path class="st5" d="M550.5,937.1h-2.7v-5.4h-0.9v-2.3h0.9v-2.3h2.7v2.3h1.5v2.3h-1.5V937.1z"/>
		<path class="st5" d="M555.6,930.7L555.6,930.7c0.6-0.9,1.5-1.4,2.5-1.4h0.5v2.6c-0.4-0.2-0.7-0.3-1.2-0.3c-1.5,0-1.9,1-1.9,2.3
			v3.1h-2.7v-7.7h2.7v1.4H555.6z"/>
		<path class="st5" d="M568.1,933.3c0,2.6-2.2,4.1-4.6,4.1c-2.5,0-4.6-1.5-4.6-4.1s2.2-4.1,4.6-4.1S568.1,930.7,568.1,933.3z
			 M561.7,933.3c0,1,0.6,1.7,1.8,1.7c1.1,0,1.8-0.8,1.8-1.7s-0.6-1.7-1.8-1.7C562.4,931.6,561.7,932.4,561.7,933.3z"/>
	</g>
</g>
<rect id="XMLID_1289_" x="361.5" y="987.9" class="st2" width="240.1" height="64.4"/>
<g>
	<g>
		<path class="st5" d="M430.2,1006.6h-3.7l-2.8-4.4l0,0v4.4h-2.9v-11.3h4.4c2.2,0,3.9,1.1,3.9,3.5c0,1.6-0.9,2.9-2.5,3.2
			L430.2,1006.6z M423.8,1000.3h0.3c1,0,2-0.2,2-1.4s-1.1-1.4-2-1.4h-0.3V1000.3z"/>
		<path class="st5" d="M438.9,1003.2h-5.7c0,1.1,0.6,1.7,1.7,1.7c0.6,0,1-0.2,1.3-0.7h2.6c-0.2,0.9-0.8,1.6-1.5,2s-1.6,0.6-2.5,0.6
			c-2.6,0-4.5-1.4-4.5-4.1c0-2.6,1.8-4.1,4.3-4.1c2.7,0,4.2,1.6,4.2,4.3v0.3H438.9z M436.3,1001.6c-0.1-0.7-0.8-1.2-1.5-1.2
			c-0.8,0-1.5,0.4-1.6,1.2H436.3z"/>
		<path class="st5" d="M445.2,1000.9c-0.4-0.2-1-0.4-1.5-0.4c-0.3,0-0.9,0.1-0.9,0.5c0,0.5,0.9,0.6,1.2,0.7c1.3,0.3,2.2,0.9,2.2,2.3
			c0,2-1.8,2.9-3.6,2.9c-1.1,0-2.2-0.3-3.1-0.9l1-1.9c0.6,0.4,1.5,0.8,2.2,0.8c0.3,0,0.9-0.2,0.9-0.6c0-0.6-0.9-0.6-1.7-0.9
			c-0.9-0.2-1.7-0.6-1.7-2c0-1.9,1.7-2.7,3.4-2.7c0.9,0,1.7,0.1,2.5,0.5L445.2,1000.9z"/>
		<path class="st5" d="M450.5,999.8L450.5,999.8c0.5-0.8,1.5-1.1,2.4-1.1c2.3,0,3.9,1.9,3.9,4.1c0,2.2-1.6,4.1-3.9,4.1
			c-0.9,0-1.8-0.3-2.4-1v4.6h-2.7V999h2.7V999.8z M450.4,1002.7c0,1,0.6,1.7,1.8,1.7s1.8-0.8,1.8-1.7s-0.6-1.7-1.8-1.7
			S450.4,1001.8,450.4,1002.7z"/>
		<path class="st5" d="M466.7,1002.7c0,2.6-2.2,4.1-4.6,4.1c-2.5,0-4.6-1.5-4.6-4.1s2.2-4.1,4.6-4.1
			C464.6,998.6,466.7,1000.1,466.7,1002.7z M460.4,1002.7c0,1,0.6,1.7,1.8,1.7c1.1,0,1.8-0.8,1.8-1.7s-0.6-1.7-1.8-1.7
			S460.4,1001.8,460.4,1002.7z"/>
		<path class="st5" d="M470.7,999.9L470.7,999.9c0.7-0.9,1.4-1.2,2.5-1.2c2.1,0,2.9,1.3,2.9,3.2v4.8h-2.7v-3.8c0-0.7,0.1-2-1.2-2
			c-1.1,0-1.4,0.8-1.4,1.8v4H468V999h2.7V999.9z"/>
		<path class="st5" d="M483,1000.9c-0.4-0.2-1-0.4-1.5-0.4c-0.3,0-0.9,0.1-0.9,0.5c0,0.5,0.9,0.6,1.2,0.7c1.3,0.3,2.2,0.9,2.2,2.3
			c0,2-1.8,2.9-3.6,2.9c-1.1,0-2.2-0.3-3.1-0.9l1-1.9c0.6,0.4,1.5,0.8,2.2,0.8c0.3,0,0.9-0.2,0.9-0.6c0-0.6-0.9-0.6-1.7-0.9
			c-0.9-0.2-1.7-0.6-1.7-2c0-1.9,1.7-2.7,3.4-2.7c0.9,0,1.7,0.1,2.5,0.5L483,1000.9z"/>
		<path class="st5" d="M494,1006.6h-2.7v-0.9l0,0c-0.5,0.8-1.4,1.1-2.3,1.1c-2.3,0-3.9-1.9-3.9-4.1c0-2.2,1.6-4.1,3.9-4.1
			c0.9,0,1.8,0.3,2.4,1v-0.7h2.7v7.7H494z M487.8,1002.7c0,1,0.6,1.7,1.8,1.7s1.8-0.8,1.8-1.7s-0.6-1.7-1.8-1.7
			S487.8,1001.8,487.8,1002.7z"/>
		<path class="st5" d="M495.7,994.1h2.7v5.5c0.6-0.7,1.5-1,2.4-1c2.3,0,3.9,1.9,3.9,4.1c0,2.2-1.6,4.1-3.9,4.1
			c-0.9,0-1.8-0.3-2.3-1.1l0,0v0.9h-2.7v-12.5H495.7z M498.4,1002.7c0,1,0.6,1.7,1.8,1.7c1.1,0,1.8-0.8,1.8-1.7s-0.6-1.7-1.8-1.7
			S498.4,1001.8,498.4,1002.7z"/>
		<path class="st5" d="M508.8,1006.6H506v-12.5h2.7L508.8,1006.6L508.8,1006.6z"/>
		<path class="st5" d="M518.5,1003.2h-5.7c0,1.1,0.6,1.7,1.7,1.7c0.6,0,1-0.2,1.3-0.7h2.6c-0.2,0.9-0.8,1.6-1.5,2s-1.6,0.6-2.5,0.6
			c-2.6,0-4.5-1.4-4.5-4.1c0-2.6,1.8-4.1,4.3-4.1c2.7,0,4.2,1.6,4.2,4.3v0.3H518.5z M515.9,1001.6c-0.1-0.7-0.8-1.2-1.5-1.2
			c-0.8,0-1.5,0.4-1.6,1.2H515.9z"/>
		<path class="st5" d="M530.6,1005.7L530.6,1005.7c-0.5,0.8-1.5,1.1-2.4,1.1c-2.3,0-3.9-1.9-3.9-4.1c0-2.2,1.6-4.1,3.9-4.1
			c0.9,0,1.8,0.3,2.4,1v-5.5h2.7v12.5h-2.7V1005.7z M527.2,1002.7c0,1,0.6,1.7,1.8,1.7s1.8-0.8,1.8-1.7s-0.6-1.7-1.8-1.7
			S527.2,1001.8,527.2,1002.7z"/>
		<path class="st5" d="M543,1003.2h-5.7c0,1.1,0.6,1.7,1.7,1.7c0.6,0,1-0.2,1.3-0.7h2.6c-0.2,0.9-0.8,1.6-1.5,2s-1.6,0.6-2.5,0.6
			c-2.6,0-4.5-1.4-4.5-4.1c0-2.6,1.8-4.1,4.3-4.1c2.7,0,4.2,1.6,4.2,4.3v0.3H543z M540.5,1001.6c-0.1-0.7-0.8-1.2-1.5-1.2
			c-0.8,0-1.5,0.4-1.6,1.2H540.5z"/>
		<path class="st5" d="M453.2,1024.6h-2.7v-0.9l0,0c-0.5,0.8-1.4,1.1-2.3,1.1c-2.3,0-3.9-1.9-3.9-4.1c0-2.2,1.6-4.1,3.9-4.1
			c0.9,0,1.8,0.3,2.4,1v-0.7h2.7v7.7H453.2z M447.1,1020.7c0,1,0.6,1.7,1.8,1.7c1.1,0,1.8-0.8,1.8-1.7s-0.6-1.7-1.8-1.7
			S447.1,1019.8,447.1,1020.7z"/>
		<path class="st5" d="M460.8,1023.7L460.8,1023.7c-0.5,0.8-1.5,1.1-2.4,1.1c-2.3,0-3.9-1.9-3.9-4.1c0-2.2,1.6-4.1,3.9-4.1
			c0.9,0,1.8,0.3,2.4,1v-5.5h2.7v12.5h-2.7V1023.7z M457.4,1020.7c0,1,0.6,1.7,1.8,1.7c1.1,0,1.8-0.8,1.8-1.7s-0.6-1.7-1.8-1.7
			S457.4,1019.8,457.4,1020.7z"/>
		<path class="st5" d="M468,1017.8L468,1017.8c0.7-0.9,1.5-1.2,2.5-1.2c1.1,0,2.1,0.4,2.6,1.5c0.5-1,1.6-1.5,2.6-1.5
			c2,0,2.6,1.3,2.6,3v4.9h-2.7v-3.7c0-0.8,0-2.1-1.1-2.1c-1.3,0-1.3,1.2-1.3,2.1v3.7h-2.7v-3.7c0-0.9,0-2.2-1.2-2.2
			s-1.2,1.3-1.2,2.2v3.7h-2.7v-7.7h2.7L468,1017.8L468,1017.8z"/>
		<path class="st5" d="M483,1013.9c0,0.8-0.7,1.5-1.5,1.5s-1.5-0.7-1.5-1.5s0.7-1.5,1.5-1.5S483,1013.1,483,1013.9z M482.8,1024.6
			h-2.7v-7.7h2.7V1024.6z"/>
		<path class="st5" d="M489.7,1018.9c-0.4-0.2-1-0.4-1.5-0.4c-0.3,0-0.9,0.1-0.9,0.5c0,0.5,0.9,0.6,1.2,0.7c1.3,0.3,2.2,0.9,2.2,2.3
			c0,2-1.8,2.9-3.6,2.9c-1.1,0-2.2-0.3-3.1-0.9l1-1.9c0.6,0.4,1.5,0.8,2.2,0.8c0.3,0,0.9-0.2,0.9-0.6c0-0.6-0.9-0.6-1.7-0.9
			c-0.9-0.2-1.7-0.6-1.7-2c0-1.9,1.7-2.7,3.4-2.7c0.9,0,1.7,0.1,2.5,0.5L489.7,1018.9z"/>
		<path class="st5" d="M495.2,1013.9c0,0.8-0.7,1.5-1.5,1.5s-1.5-0.7-1.5-1.5s0.7-1.5,1.5-1.5S495.2,1013.1,495.2,1013.9z
			 M495,1024.6h-2.7v-7.7h2.7V1024.6z"/>
		<path class="st5" d="M505.5,1020.7c0,2.6-2.2,4.1-4.6,4.1c-2.5,0-4.6-1.5-4.6-4.1s2.2-4.1,4.6-4.1
			C503.4,1016.6,505.5,1018.1,505.5,1020.7z M499.1,1020.7c0,1,0.6,1.7,1.8,1.7c1.1,0,1.8-0.8,1.8-1.7s-0.6-1.7-1.8-1.7
			C499.8,1019,499.1,1019.8,499.1,1020.7z M500.6,1015.7l-1.2-0.9l2.1-2.6l1.7,1.2L500.6,1015.7z"/>
		<path class="st5" d="M509.5,1017.9L509.5,1017.9c0.7-0.9,1.4-1.2,2.5-1.2c2.1,0,2.9,1.3,2.9,3.2v4.8h-2.7v-3.8c0-0.7,0.1-2-1.2-2
			c-1.1,0-1.4,0.8-1.4,1.8v4h-2.7v-7.7h2.7v0.9H509.5z"/>
		<path class="st5" d="M524.1,1012.1l-5.7,13.8h-2.1l5.7-13.8L524.1,1012.1L524.1,1012.1z"/>
		<path class="st5" d="M415.9,1039.2h-5.7c0,1.1,0.6,1.7,1.7,1.7c0.6,0,1-0.2,1.3-0.7h2.6c-0.2,0.9-0.8,1.6-1.5,2s-1.6,0.6-2.5,0.6
			c-2.6,0-4.5-1.4-4.5-4.1c0-2.6,1.8-4.1,4.3-4.1c2.7,0,4.2,1.6,4.2,4.3v0.3H415.9z M413.4,1037.6c-0.1-0.7-0.8-1.2-1.5-1.2
			c-0.8,0-1.5,0.4-1.6,1.2H413.4z"/>
		<path class="st5" d="M419.9,1035.8L419.9,1035.8c0.7-0.9,1.5-1.2,2.5-1.2c1.1,0,2.1,0.4,2.6,1.5c0.5-1,1.6-1.5,2.6-1.5
			c2,0,2.6,1.3,2.6,3v4.9h-2.7v-3.7c0-0.8,0-2.1-1.1-2.1c-1.3,0-1.3,1.2-1.3,2.1v3.7h-2.7v-3.7c0-0.9,0-2.2-1.2-2.2
			s-1.2,1.3-1.2,2.2v3.7h-2.7v-7.7h2.7L419.9,1035.8L419.9,1035.8z"/>
		<path class="st5" d="M434.9,1031.9c0,0.8-0.7,1.5-1.5,1.5s-1.5-0.7-1.5-1.5s0.7-1.5,1.5-1.5
			C434.2,1030.4,434.9,1031.1,434.9,1031.9z M434.7,1042.6H432v-7.7h2.7V1042.6z"/>
		<path class="st5" d="M441.6,1036.9c-0.4-0.2-1-0.4-1.5-0.4c-0.3,0-0.9,0.1-0.9,0.5c0,0.5,0.9,0.6,1.2,0.7c1.3,0.3,2.2,0.9,2.2,2.3
			c0,2-1.8,2.9-3.6,2.9c-1.1,0-2.2-0.3-3.1-0.9l1-1.9c0.6,0.4,1.5,0.8,2.2,0.8c0.3,0,0.9-0.2,0.9-0.6c0-0.6-0.9-0.6-1.7-0.9
			c-0.9-0.2-1.7-0.6-1.7-2c0-1.9,1.7-2.7,3.4-2.7c0.9,0,1.7,0.1,2.5,0.5L441.6,1036.9z"/>
		<path class="st5" d="M447.1,1031.9c0,0.8-0.7,1.5-1.5,1.5s-1.5-0.7-1.5-1.5s0.7-1.5,1.5-1.5S447.1,1031.1,447.1,1031.9z
			 M446.9,1042.6h-2.7v-7.7h2.7V1042.6z"/>
		<path class="st5" d="M457.4,1038.7c0,2.6-2.2,4.1-4.6,4.1c-2.5,0-4.6-1.5-4.6-4.1s2.2-4.1,4.6-4.1
			C455.3,1034.6,457.4,1036.1,457.4,1038.7z M451,1038.7c0,1,0.6,1.7,1.8,1.7c1.1,0,1.8-0.8,1.8-1.7c0-0.9-0.6-1.7-1.8-1.7
			C451.7,1037,451,1037.8,451,1038.7z M452.5,1033.7l-1.2-0.9l2.1-2.6l1.7,1.2L452.5,1033.7z"/>
		<path class="st5" d="M461.4,1035.9L461.4,1035.9c0.7-0.9,1.4-1.2,2.5-1.2c2.1,0,2.9,1.3,2.9,3.2v4.8H464v-3.8c0-0.7,0.1-2-1.2-2
			c-1.1,0-1.4,0.8-1.4,1.8v4h-2.7v-7.7h2.7V1035.9z"/>
		<path class="st5" d="M481.1,1030.1l-5.7,13.8h-2.1l5.7-13.8H481.1z"/>
		<path class="st5" d="M493.3,1041.7L493.3,1041.7c-0.5,0.8-1.5,1.1-2.4,1.1c-2.3,0-3.9-1.9-3.9-4.1s1.6-4.1,3.9-4.1
			c0.9,0,1.8,0.3,2.4,1v-5.5h2.7v12.5h-2.7V1041.7z M489.9,1038.7c0,1,0.6,1.7,1.8,1.7s1.8-0.8,1.8-1.7c0-0.9-0.6-1.7-1.8-1.7
			S489.9,1037.8,489.9,1038.7z"/>
		<path class="st5" d="M505.7,1039.2H500c0,1.1,0.6,1.7,1.7,1.7c0.6,0,1-0.2,1.3-0.7h2.6c-0.2,0.9-0.8,1.6-1.5,2s-1.6,0.6-2.5,0.6
			c-2.6,0-4.5-1.4-4.5-4.1c0-2.6,1.8-4.1,4.3-4.1c2.7,0,4.2,1.6,4.2,4.3v0.3H505.7z M503.1,1037.6c-0.1-0.7-0.8-1.2-1.5-1.2
			c-0.8,0-1.5,0.4-1.6,1.2H503.1z"/>
		<path class="st5" d="M512,1036.9c-0.4-0.2-1-0.4-1.5-0.4c-0.3,0-0.9,0.1-0.9,0.5c0,0.5,0.9,0.6,1.2,0.7c1.3,0.3,2.2,0.9,2.2,2.3
			c0,2-1.8,2.9-3.6,2.9c-1.1,0-2.2-0.3-3.1-0.9l1-1.9c0.6,0.4,1.5,0.8,2.2,0.8c0.3,0,0.9-0.2,0.9-0.6c0-0.6-0.9-0.6-1.7-0.9
			c-0.9-0.2-1.7-0.6-1.7-2c0-1.9,1.7-2.7,3.4-2.7c0.9,0,1.7,0.1,2.5,0.5L512,1036.9z"/>
		<path class="st5" d="M517.3,1035.7L517.3,1035.7c0.5-0.8,1.5-1.1,2.4-1.1c2.3,0,3.9,1.9,3.9,4.1s-1.6,4.1-3.9,4.1
			c-0.9,0-1.8-0.3-2.4-1v4.6h-2.7v-11.5h2.7V1035.7z M517.2,1038.7c0,1,0.6,1.7,1.8,1.7s1.8-0.8,1.8-1.7c0-0.9-0.6-1.7-1.8-1.7
			S517.2,1037.8,517.2,1038.7z"/>
		<path class="st5" d="M533.3,1042.6h-2.7v-0.9l0,0c-0.5,0.8-1.4,1.1-2.3,1.1c-2.3,0-3.9-1.9-3.9-4.1s1.6-4.1,3.9-4.1
			c0.9,0,1.8,0.3,2.4,1v-0.7h2.7v7.7H533.3z M527.1,1038.7c0,1,0.6,1.7,1.8,1.7c1.1,0,1.8-0.8,1.8-1.7c0-0.9-0.6-1.7-1.8-1.7
			C527.7,1037,527.1,1037.8,527.1,1038.7z"/>
		<path class="st5" d="M540.6,1037.4c-0.4-0.3-0.9-0.5-1.4-0.5c-1,0-1.9,0.8-1.9,1.9s0.8,1.9,1.9,1.9c0.5,0,1-0.2,1.4-0.5v2.3
			c-0.6,0.3-1.3,0.4-1.9,0.4c-2.3,0-4.2-1.7-4.2-4c0-2.5,1.9-4.2,4.3-4.2c0.6,0,1.3,0.2,1.8,0.4L540.6,1037.4L540.6,1037.4z"/>
		<path class="st5" d="M545,1030.1v5.7l0,0c0.6-0.8,1.4-1.2,2.5-1.2c2,0,2.9,1.3,2.9,3.2v4.7h-2.7v-3.9c0-0.9-0.1-1.8-1.2-1.8
			c-1.1,0-1.4,0.9-1.4,1.8v3.9h-2.7V1030h2.6V1030.1z"/>
		<path class="st5" d="M560.9,1038.7c0,2.6-2.2,4.1-4.6,4.1c-2.5,0-4.6-1.5-4.6-4.1s2.2-4.1,4.6-4.1
			C558.8,1034.6,560.9,1036.1,560.9,1038.7z M554.5,1038.7c0,1,0.6,1.7,1.8,1.7c1.1,0,1.8-0.8,1.8-1.7c0-0.9-0.6-1.7-1.8-1.7
			C555.2,1037,554.5,1037.8,554.5,1038.7z"/>
	</g>
</g>
<rect id="XMLID_944_" x="650.4" y="421.9" class="st2" width="240.1" height="80"/>
<rect id="XMLID_943_" x="365.4" y="795.6" class="st2" width="232.9" height="58.3"/>
<rect id="XMLID_942_" x="362.8" y="335.2" class="st2" width="240.1" height="51.9"/>
<g>
	<g>
		<path class="st5" d="M445.4,809.6v7.6c0,2.4-1.2,4-3.8,4c-1.3,0-2.2-0.6-2.9-1.7l1.7-1.8c0.3,0.4,0.8,1,1.2,1c0.9,0,0.8-1,0.8-1.7
			v-7.5h3V809.6z"/>
		<path class="st5" d="M455.1,817.6h-5.7c0,1.1,0.6,1.7,1.7,1.7c0.6,0,1-0.2,1.3-0.7h2.6c-0.2,0.9-0.8,1.6-1.5,2s-1.6,0.6-2.5,0.6
			c-2.6,0-4.5-1.4-4.5-4.1c0-2.6,1.8-4.1,4.3-4.1c2.7,0,4.2,1.6,4.2,4.3v0.3H455.1z M452.6,816c-0.1-0.7-0.8-1.2-1.5-1.2
			c-0.8,0-1.5,0.4-1.6,1.2H452.6z"/>
		<path class="st5" d="M459.4,821h-2.7v-5.4h-1v-2.3h1v-1c0-1.1,0-1.8,0.8-2.7c0.7-0.8,1.7-1.2,2.7-1.2c0.4,0,0.8,0.1,1.2,0.3v2.4
			c-0.3-0.1-0.6-0.3-1-0.3c-0.7,0-0.9,0.4-0.9,1.3v1.2h1.9v2.3h-1.9v5.4H459.4z"/>
		<path class="st5" d="M470.6,821h-2.7v-0.9l0,0c-0.5,0.8-1.4,1.1-2.3,1.1c-2.3,0-3.9-1.9-3.9-4.1c0-2.2,1.6-4.1,3.9-4.1
			c0.9,0,1.8,0.3,2.4,1v-0.7h2.7v7.7H470.6z M464.4,817.1c0,1,0.6,1.7,1.8,1.7s1.8-0.8,1.8-1.7s-0.6-1.7-1.8-1.7
			S464.4,816.2,464.4,817.1z"/>
		<path class="st5" d="M475.4,821h-2.7v-5.4h-0.9v-2.3h0.9V811h2.7v2.3h1.5v2.3h-1.5V821z"/>
		<path class="st5" d="M480.5,813.3v4.1c0,1,0.2,1.7,1.4,1.7c1.1,0,1.4-0.7,1.4-1.7v-4.1h2.7v4.6c0,2.5-1.8,3.3-4.1,3.3
			c-2.3,0-4.1-0.8-4.1-3.3v-4.6H480.5z"/>
		<path class="st5" d="M490.4,814.5L490.4,814.5c0.6-0.9,1.5-1.4,2.5-1.4h0.5v2.6c-0.4-0.2-0.7-0.3-1.2-0.3c-1.5,0-1.9,1-1.9,2.3
			v3.1h-2.7v-7.7h2.7v1.4H490.4z"/>
		<path class="st5" d="M502.9,821h-2.7v-0.9l0,0c-0.5,0.8-1.4,1.1-2.3,1.1c-2.3,0-3.9-1.9-3.9-4.1c0-2.2,1.6-4.1,3.9-4.1
			c0.9,0,1.8,0.3,2.4,1v-0.7h2.7v7.7H502.9z M496.7,817.1c0,1,0.6,1.7,1.8,1.7c1.1,0,1.8-0.8,1.8-1.7s-0.6-1.7-1.8-1.7
			C497.4,815.4,496.7,816.2,496.7,817.1z"/>
		<path class="st5" d="M515.6,820.1L515.6,820.1c-0.5,0.8-1.5,1.1-2.4,1.1c-2.3,0-3.9-1.9-3.9-4.1c0-2.2,1.6-4.1,3.9-4.1
			c0.9,0,1.8,0.3,2.4,1v-5.5h2.7V821h-2.7V820.1z M512.2,817.1c0,1,0.6,1.7,1.8,1.7c1.1,0,1.8-0.8,1.8-1.7s-0.6-1.7-1.8-1.7
			C512.9,815.4,512.2,816.2,512.2,817.1z"/>
		<path class="st5" d="M528,817.6h-5.7c0,1.1,0.6,1.7,1.7,1.7c0.6,0,1-0.2,1.3-0.7h2.6c-0.2,0.9-0.8,1.6-1.5,2s-1.6,0.6-2.5,0.6
			c-2.6,0-4.5-1.4-4.5-4.1c0-2.6,1.8-4.1,4.3-4.1c2.7,0,4.2,1.6,4.2,4.3v0.3H528z M525.5,816c-0.1-0.7-0.8-1.2-1.5-1.2
			c-0.8,0-1.5,0.4-1.6,1.2H525.5z"/>
		<path class="st5" d="M410.3,830.6c-0.5-0.4-1.2-0.7-2-0.7c-0.5,0-1.3,0.3-1.3,0.9c0,0.7,0.8,0.9,1.3,1.1l0.7,0.2
			c1.6,0.5,2.8,1.3,2.8,3.1c0,1.1-0.3,2.3-1.2,3c-0.9,0.8-2.1,1.1-3.2,1.1c-1.4,0-2.8-0.5-4-1.3l1.3-2.4c0.7,0.6,1.6,1.2,2.6,1.2
			c0.7,0,1.4-0.3,1.4-1.1s-1.2-1.1-1.8-1.3c-1.8-0.5-3.1-1-3.1-3.2c0-2.3,1.6-3.8,3.9-3.8c1.1,0,2.5,0.4,3.5,0.9L410.3,830.6z"/>
		<path class="st5" d="M421.2,835.6h-5.7c0,1.1,0.6,1.7,1.7,1.7c0.6,0,1-0.2,1.3-0.7h2.6c-0.2,0.9-0.8,1.6-1.5,2s-1.6,0.6-2.5,0.6
			c-2.6,0-4.5-1.4-4.5-4.1c0-2.6,1.8-4.1,4.3-4.1c2.7,0,4.2,1.6,4.2,4.3v0.3H421.2z M418.6,834c-0.1-0.7-0.8-1.2-1.5-1.2
			c-0.8,0-1.5,0.4-1.6,1.2H418.6z"/>
		<path class="st5" d="M425.1,832.5L425.1,832.5c0.6-0.9,1.5-1.4,2.5-1.4h0.5v2.6c-0.4-0.2-0.7-0.3-1.2-0.3c-1.5,0-1.9,1-1.9,2.3
			v3.1h-2.7v-7.7h2.7v1.4H425.1z"/>
		<path class="st5" d="M433.2,835.2l1.8-3.9h3.1l-4,7.7h-1.7l-4-7.7h3.1L433.2,835.2z"/>
		<path class="st5" d="M441.7,828.3c0,0.8-0.7,1.5-1.5,1.5s-1.5-0.7-1.5-1.5s0.7-1.5,1.5-1.5S441.7,827.5,441.7,828.3z M441.5,839
			h-2.7v-7.7h2.7V839z"/>
		<path class="st5" d="M448.9,833.8c-0.4-0.3-0.9-0.5-1.4-0.5c-1.1,0-1.9,0.8-1.9,1.9c0,1.1,0.8,1.9,1.9,1.9c0.5,0,1-0.2,1.4-0.5
			v2.3c-0.6,0.3-1.3,0.4-1.9,0.4c-2.3,0-4.2-1.7-4.2-4c0-2.5,1.9-4.2,4.3-4.2c0.6,0,1.3,0.1,1.8,0.4L448.9,833.8L448.9,833.8z"/>
		<path class="st5" d="M453.5,828.3c0,0.8-0.7,1.5-1.5,1.5s-1.5-0.7-1.5-1.5s0.7-1.5,1.5-1.5S453.5,827.5,453.5,828.3z M453.3,839
			h-2.7v-7.7h2.7V839z"/>
		<path class="st5" d="M463.8,835.1c0,2.6-2.2,4.1-4.6,4.1c-2.5,0-4.6-1.5-4.6-4.1s2.2-4.1,4.6-4.1
			C461.6,831,463.8,832.5,463.8,835.1z M457.4,835.1c0,1,0.6,1.7,1.8,1.7c1.1,0,1.8-0.8,1.8-1.7s-0.6-1.7-1.8-1.7
			C458.1,833.4,457.4,834.2,457.4,835.1z"/>
		<path class="st5" d="M470.1,833.2c-0.4-0.2-1-0.4-1.5-0.4c-0.3,0-0.9,0.1-0.9,0.5c0,0.5,0.9,0.6,1.2,0.7c1.3,0.3,2.2,0.9,2.2,2.3
			c0,2-1.8,2.9-3.6,2.9c-1.1,0-2.2-0.3-3.1-0.9l1-1.9c0.6,0.4,1.5,0.8,2.2,0.8c0.3,0,0.9-0.2,0.9-0.6c0-0.6-0.9-0.6-1.7-0.9
			c-0.9-0.2-1.7-0.6-1.7-2c0-1.9,1.7-2.7,3.4-2.7c0.9,0,1.7,0.1,2.5,0.5L470.1,833.2z"/>
		<path class="st5" d="M486,831.4c-0.6-0.8-1.6-1.2-2.6-1.2c-1.8,0-3,1.4-3,3.1c0,1.8,1.2,3.1,3.1,3.1c1,0,1.9-0.5,2.5-1.2v3.5
			c-1,0.3-1.7,0.5-2.6,0.5c-1.6,0-3.1-0.6-4.2-1.7c-1.2-1.1-1.8-2.6-1.8-4.3c0-1.5,0.6-3,1.7-4.1s2.7-1.8,4.3-1.8
			c0.9,0,1.8,0.2,2.7,0.6v3.5H486z"/>
		<path class="st5" d="M496.2,839h-2.7v-0.9l0,0c-0.5,0.8-1.4,1.1-2.3,1.1c-2.3,0-3.9-1.9-3.9-4.1c0-2.2,1.6-4.1,3.9-4.1
			c0.9,0,1.8,0.3,2.4,1v-0.7h2.7v7.7H496.2z M490,835.1c0,1,0.6,1.7,1.8,1.7s1.8-0.8,1.8-1.7s-0.6-1.7-1.8-1.7S490,834.2,490,835.1z
			"/>
		<path class="st5" d="M501,839h-2.7v-5.4h-0.9v-2.3h0.9V829h2.7v2.3h1.5v2.3H501V839z"/>
		<path class="st5" d="M511.8,839h-2.7v-0.9l0,0c-0.5,0.8-1.4,1.1-2.3,1.1c-2.3,0-3.9-1.9-3.9-4.1c0-2.2,1.6-4.1,3.9-4.1
			c0.9,0,1.8,0.3,2.4,1v-0.7h2.7v7.7H511.8z M505.7,835.1c0,1,0.6,1.7,1.8,1.7c1.1,0,1.8-0.8,1.8-1.7s-0.6-1.7-1.8-1.7
			C506.3,833.4,505.7,834.2,505.7,835.1z"/>
		<path class="st5" d="M518.7,833.2c-0.4-0.2-1-0.4-1.5-0.4c-0.3,0-0.9,0.1-0.9,0.5c0,0.5,0.9,0.6,1.2,0.7c1.3,0.3,2.2,0.9,2.2,2.3
			c0,2-1.8,2.9-3.6,2.9c-1.1,0-2.2-0.3-3.1-0.9l1-1.9c0.6,0.4,1.5,0.8,2.2,0.8c0.3,0,0.9-0.2,0.9-0.6c0-0.6-0.9-0.6-1.7-0.9
			c-0.9-0.2-1.7-0.6-1.7-2c0-1.9,1.7-2.7,3.4-2.7c0.9,0,1.7,0.1,2.5,0.5L518.7,833.2z"/>
		<path class="st5" d="M524.3,839h-2.7v-5.4h-0.9v-2.3h0.9V829h2.7v2.3h1.5v2.3h-1.5V839z"/>
		<path class="st5" d="M529.4,832.5L529.4,832.5c0.6-0.9,1.5-1.4,2.5-1.4h0.5v2.6c-0.4-0.2-0.7-0.3-1.2-0.3c-1.5,0-1.9,1-1.9,2.3
			v3.1h-2.7v-7.7h2.7v1.4H529.4z"/>
		<path class="st5" d="M541.9,839h-2.7v-0.9l0,0c-0.5,0.8-1.4,1.1-2.3,1.1c-2.3,0-3.9-1.9-3.9-4.1c0-2.2,1.6-4.1,3.9-4.1
			c0.9,0,1.8,0.3,2.4,1v-0.7h2.7v7.7H541.9z M535.8,835.1c0,1,0.6,1.7,1.8,1.7s1.8-0.8,1.8-1.7s-0.6-1.7-1.8-1.7
			S535.8,834.2,535.8,835.1z"/>
		<path class="st5" d="M546.5,839h-2.7v-12.5h2.7V839z"/>
		<path class="st5" d="M556.2,835.6h-5.7c0,1.1,0.6,1.7,1.7,1.7c0.6,0,1-0.2,1.3-0.7h2.6c-0.2,0.9-0.8,1.6-1.5,2s-1.6,0.6-2.5,0.6
			c-2.6,0-4.5-1.4-4.5-4.1c0-2.6,1.8-4.1,4.3-4.1c2.7,0,4.2,1.6,4.2,4.3v0.3H556.2z M553.6,834c-0.1-0.7-0.8-1.2-1.5-1.2
			c-0.8,0-1.5,0.4-1.6,1.2H553.6z"/>
		<path class="st5" d="M562.5,833.2c-0.4-0.2-1-0.4-1.5-0.4c-0.3,0-0.9,0.1-0.9,0.5c0,0.5,0.9,0.6,1.2,0.7c1.3,0.3,2.2,0.9,2.2,2.3
			c0,2-1.8,2.9-3.6,2.9c-1.1,0-2.2-0.3-3.1-0.9l1-1.9c0.6,0.4,1.5,0.8,2.2,0.8c0.3,0,0.9-0.2,0.9-0.6c0-0.6-0.9-0.6-1.7-0.9
			c-0.9-0.2-1.7-0.6-1.7-2c0-1.9,1.7-2.7,3.4-2.7c0.9,0,1.7,0.1,2.5,0.5L562.5,833.2z"/>
	</g>
</g>
<rect id="XMLID_939_" x="650.4" y="231.3" class="st2" width="240.1" height="58.1"/>
<g>
	<g>
		<path class="st5" d="M669.3,255.9h-2.9v-8.8H664v-2.5h7.8v2.5h-2.4L669.3,255.9L669.3,255.9z"/>
		<path class="st5" d="M679.6,252.5h-5.7c0,1.1,0.6,1.7,1.7,1.7c0.6,0,1-0.2,1.3-0.7h2.6c-0.2,0.9-0.8,1.6-1.5,2s-1.6,0.6-2.5,0.6
			c-2.6,0-4.5-1.4-4.5-4.1c0-2.6,1.8-4.1,4.3-4.1c2.7,0,4.2,1.6,4.2,4.3v0.3H679.6z M675,247l-1.2-0.9l2.1-2.6l1.7,1.2L675,247z
			 M677,250.9c-0.1-0.7-0.8-1.2-1.5-1.2c-0.8,0-1.5,0.4-1.6,1.2H677z"/>
		<path class="st5" d="M686.4,250.7c-0.4-0.3-0.9-0.5-1.4-0.5c-1.1,0-1.9,0.8-1.9,1.9c0,1.1,0.8,1.9,1.9,1.9c0.5,0,1-0.2,1.4-0.5
			v2.3c-0.6,0.3-1.3,0.4-1.9,0.4c-2.3,0-4.2-1.7-4.2-4c0-2.5,1.9-4.2,4.3-4.2c0.6,0,1.3,0.1,1.8,0.4L686.4,250.7L686.4,250.7z"/>
		<path class="st5" d="M690.8,249.2L690.8,249.2c0.7-0.9,1.4-1.2,2.5-1.2c2.1,0,2.9,1.3,2.9,3.2v4.8h-2.7v-3.8c0-0.7,0.1-2-1.2-2
			c-1.1,0-1.4,0.8-1.4,1.8v4H688v-7.7h2.7L690.8,249.2L690.8,249.2z"/>
		<path class="st5" d="M700.9,245.2c0,0.8-0.7,1.5-1.5,1.5s-1.5-0.7-1.5-1.5s0.7-1.5,1.5-1.5S700.9,244.4,700.9,245.2z M700.7,255.9
			H698v-7.7h2.7V255.9z"/>
		<path class="st5" d="M708,250.7c-0.4-0.3-0.9-0.5-1.4-0.5c-1,0-1.9,0.8-1.9,1.9c0,1.1,0.8,1.9,1.9,1.9c0.5,0,1-0.2,1.4-0.5v2.3
			c-0.6,0.3-1.3,0.4-1.9,0.4c-2.3,0-4.2-1.7-4.2-4c0-2.5,1.9-4.2,4.3-4.2c0.6,0,1.3,0.1,1.8,0.4L708,250.7L708,250.7z"/>
		<path class="st5" d="M718.4,252c0,2.6-2.2,4.1-4.6,4.1c-2.5,0-4.6-1.5-4.6-4.1s2.2-4.1,4.6-4.1C716.3,247.9,718.4,249.4,718.4,252
			z M712,252c0,1,0.6,1.7,1.8,1.7c1.1,0,1.8-0.8,1.8-1.7s-0.6-1.7-1.8-1.7C712.7,250.3,712,251.1,712,252z"/>
		<path class="st5" d="M730.6,255L730.6,255c-0.5,0.8-1.5,1.1-2.4,1.1c-2.3,0-3.9-1.9-3.9-4.1c0-2.2,1.6-4.1,3.9-4.1
			c0.9,0,1.8,0.3,2.4,1v-5.5h2.7v12.5h-2.7V255z M727.2,252c0,1,0.6,1.7,1.8,1.7c1.1,0,1.8-0.8,1.8-1.7s-0.6-1.7-1.8-1.7
			S727.2,251.1,727.2,252z"/>
		<path class="st5" d="M742.9,252.5h-5.7c0,1.1,0.6,1.7,1.7,1.7c0.6,0,1-0.2,1.3-0.7h2.6c-0.2,0.9-0.8,1.6-1.5,2s-1.6,0.6-2.5,0.6
			c-2.6,0-4.5-1.4-4.5-4.1c0-2.6,1.8-4.1,4.3-4.1c2.7,0,4.2,1.6,4.2,4.3v0.3H742.9z M740.4,250.9c-0.1-0.7-0.8-1.2-1.5-1.2
			c-0.8,0-1.5,0.4-1.6,1.2H740.4z"/>
		<path class="st5" d="M746.9,255.9h-2.7v-12.5h2.7V255.9z"/>
		<path class="st5" d="M759.6,255L759.6,255c-0.5,0.8-1.5,1.1-2.4,1.1c-2.3,0-3.9-1.9-3.9-4.1c0-2.2,1.6-4.1,3.9-4.1
			c0.9,0,1.8,0.3,2.4,1v-5.5h2.7v12.5h-2.7V255z M756.2,252c0,1,0.6,1.7,1.8,1.7s1.8-0.8,1.8-1.7s-0.6-1.7-1.8-1.7
			S756.2,251.1,756.2,252z"/>
		<path class="st5" d="M772,252.5h-5.7c0,1.1,0.6,1.7,1.7,1.7c0.6,0,1-0.2,1.3-0.7h2.6c-0.2,0.9-0.8,1.6-1.5,2s-1.6,0.6-2.5,0.6
			c-2.6,0-4.5-1.4-4.5-4.1c0-2.6,1.8-4.1,4.3-4.1c2.7,0,4.2,1.6,4.2,4.3v0.3H772z M769.5,250.9c-0.1-0.7-0.8-1.2-1.5-1.2
			c-0.8,0-1.5,0.4-1.6,1.2H769.5z"/>
		<path class="st5" d="M775.9,249L775.9,249c0.5-0.8,1.5-1.1,2.4-1.1c2.3,0,3.9,1.9,3.9,4.1c0,2.2-1.6,4.1-3.9,4.1
			c-0.9,0-1.8-0.3-2.4-1v4.6h-2.7v-11.5h2.7V249z M775.8,252c0,1,0.6,1.7,1.8,1.7s1.8-0.8,1.8-1.7s-0.6-1.7-1.8-1.7
			S775.8,251.1,775.8,252z"/>
		<path class="st5" d="M791.9,255.9h-2.7V255l0,0c-0.5,0.8-1.4,1.1-2.3,1.1c-2.3,0-3.9-1.9-3.9-4.1c0-2.2,1.6-4.1,3.9-4.1
			c0.9,0,1.8,0.3,2.4,1v-0.7h2.7v7.7H791.9z M785.7,252c0,1,0.6,1.7,1.8,1.7c1.1,0,1.8-0.8,1.8-1.7s-0.6-1.7-1.8-1.7
			C786.4,250.3,785.7,251.1,785.7,252z"/>
		<path class="st5" d="M796.4,249.4L796.4,249.4c0.6-0.9,1.5-1.4,2.5-1.4h0.5v2.6c-0.4-0.2-0.7-0.3-1.2-0.3c-1.5,0-1.9,1-1.9,2.3
			v3.1h-2.7V248h2.7v1.4H796.4z"/>
		<path class="st5" d="M803.7,255.9H801v-5.4h-0.9v-2.3h0.9v-2.3h2.7v2.3h1.5v2.3h-1.5V255.9z"/>
		<path class="st5" d="M814.6,255.9h-2.7V255l0,0c-0.5,0.8-1.4,1.1-2.3,1.1c-2.3,0-3.9-1.9-3.9-4.1c0-2.2,1.6-4.1,3.9-4.1
			c0.9,0,1.8,0.3,2.4,1v-0.7h2.7v7.7H814.6z M808.4,252c0,1,0.6,1.7,1.8,1.7s1.8-0.8,1.8-1.7s-0.6-1.7-1.8-1.7
			S808.4,251.1,808.4,252z"/>
		<path class="st5" d="M819.1,249.1L819.1,249.1c0.7-0.9,1.5-1.2,2.5-1.2c1.1,0,2.1,0.4,2.6,1.5c0.5-1,1.6-1.5,2.6-1.5
			c2,0,2.6,1.3,2.6,3v4.9h-2.7v-3.7c0-0.8,0-2.1-1.1-2.1c-1.3,0-1.3,1.2-1.3,2.1v3.7h-2.7v-3.7c0-0.9,0-2.2-1.2-2.2
			s-1.2,1.3-1.2,2.2v3.7h-2.7v-7.7h2.7L819.1,249.1L819.1,249.1z"/>
		<path class="st5" d="M839.1,252.5h-5.7c0,1.1,0.6,1.7,1.7,1.7c0.6,0,1-0.2,1.3-0.7h2.6c-0.2,0.9-0.8,1.6-1.5,2s-1.6,0.6-2.5,0.6
			c-2.6,0-4.5-1.4-4.5-4.1c0-2.6,1.8-4.1,4.3-4.1c2.7,0,4.2,1.6,4.2,4.3v0.3H839.1z M836.6,250.9c-0.1-0.7-0.8-1.2-1.5-1.2
			c-0.8,0-1.5,0.4-1.6,1.2H836.6z"/>
		<path class="st5" d="M843.1,249.2L843.1,249.2c0.7-0.9,1.4-1.2,2.5-1.2c2.1,0,2.9,1.3,2.9,3.2v4.8h-2.7v-3.8c0-0.7,0.1-2-1.2-2
			c-1.1,0-1.4,0.8-1.4,1.8v4h-2.7v-7.7h2.7L843.1,249.2L843.1,249.2z"/>
		<path class="st5" d="M853.3,255.9h-2.7v-5.4h-0.9v-2.3h0.9v-2.3h2.7v2.3h1.5v2.3h-1.5V255.9z"/>
		<path class="st5" d="M864.4,252c0,2.6-2.2,4.1-4.6,4.1c-2.5,0-4.6-1.5-4.6-4.1s2.2-4.1,4.6-4.1S864.4,249.4,864.4,252z M858,252
			c0,1,0.6,1.7,1.8,1.7c1.1,0,1.8-0.8,1.8-1.7s-0.6-1.7-1.8-1.7S858,251.1,858,252z"/>
		<path class="st5" d="M714.9,273L714.9,273c-0.5,0.8-1.5,1.1-2.4,1.1c-2.3,0-3.9-1.9-3.9-4.1s1.6-4.1,3.9-4.1c0.9,0,1.8,0.3,2.4,1
			v-5.5h2.7v12.5h-2.7V273z M711.5,270c0,1,0.6,1.7,1.8,1.7s1.8-0.8,1.8-1.7c0-0.9-0.6-1.7-1.8-1.7S711.5,269.1,711.5,270z"/>
		<path class="st5" d="M727.3,270.5h-5.7c0,1.1,0.6,1.7,1.7,1.7c0.6,0,1-0.2,1.3-0.7h2.6c-0.2,0.9-0.8,1.6-1.5,2s-1.6,0.6-2.5,0.6
			c-2.6,0-4.5-1.4-4.5-4.1c0-2.6,1.8-4.1,4.3-4.1c2.7,0,4.2,1.6,4.2,4.3v0.3H727.3z M724.7,268.9c-0.1-0.7-0.8-1.2-1.5-1.2
			c-0.8,0-1.5,0.4-1.6,1.2H724.7z"/>
		<path class="st5" d="M739.2,268.7c-0.4-0.3-0.9-0.5-1.4-0.5c-1.1,0-1.9,0.8-1.9,1.9s0.8,1.9,1.9,1.9c0.5,0,1-0.2,1.4-0.5v2.3
			c-0.6,0.3-1.3,0.4-1.9,0.4c-2.3,0-4.2-1.7-4.2-4c0-2.5,1.9-4.2,4.3-4.2c0.6,0,1.3,0.1,1.8,0.4L739.2,268.7L739.2,268.7z"/>
		<path class="st5" d="M749.3,273.9h-2.7V273l0,0c-0.5,0.8-1.4,1.1-2.3,1.1c-2.3,0-3.9-1.9-3.9-4.1s1.6-4.1,3.9-4.1
			c0.9,0,1.8,0.3,2.4,1v-0.7h2.7v7.7H749.3z M743.1,270c0,1,0.6,1.7,1.8,1.7s1.8-0.8,1.8-1.7c0-0.9-0.6-1.7-1.8-1.7
			S743.1,269.1,743.1,270z"/>
		<path class="st5" d="M753.8,267.4L753.8,267.4c0.6-0.9,1.5-1.4,2.5-1.4h0.5v2.6c-0.4-0.2-0.7-0.3-1.2-0.3c-1.5,0-1.9,1-1.9,2.3
			v3.1H751V266h2.7v1.4H753.8z"/>
		<path class="st5" d="M761.2,273.9h-2.7v-5.4h-0.9v-2.3h0.9v-2.3h2.7v2.3h1.5v2.3h-1.5V273.9z"/>
		<path class="st5" d="M772.3,270c0,2.6-2.2,4.1-4.6,4.1c-2.5,0-4.6-1.5-4.6-4.1s2.2-4.1,4.6-4.1S772.3,267.4,772.3,270z M765.9,270
			c0,1,0.6,1.7,1.8,1.7c1.1,0,1.8-0.8,1.8-1.7c0-0.9-0.6-1.7-1.8-1.7S765.9,269.1,765.9,270z"/>
		<path class="st5" d="M781.9,273.1c0,3.3-1.6,4.6-4.5,4.6c-1.8,0-4.1-0.9-4.4-2.9h3.1c0.1,0.3,0.3,0.5,0.5,0.6s0.5,0.2,0.8,0.2
			c1.5,0,1.8-1,1.8-2.2V273c-0.7,0.7-1.4,1-2.4,1c-2.3,0-3.8-1.7-3.8-3.9c0-2.3,1.6-4.2,3.9-4.2c0.9,0,1.7,0.3,2.3,1.1l0,0v-0.8h2.7
			L781.9,273.1L781.9,273.1z M775.8,270c0,1,0.6,1.7,1.8,1.7s1.8-0.7,1.8-1.7c0-0.9-0.6-1.7-1.8-1.7S775.8,269,775.8,270z"/>
		<path class="st5" d="M786.4,267.4L786.4,267.4c0.6-0.9,1.5-1.4,2.5-1.4h0.5v2.6c-0.4-0.2-0.7-0.3-1.2-0.3c-1.5,0-1.9,1-1.9,2.3
			v3.1h-2.7V266h2.7v1.4H786.4z"/>
		<path class="st5" d="M798.9,273.9h-2.7V273l0,0c-0.5,0.8-1.4,1.1-2.3,1.1c-2.3,0-3.9-1.9-3.9-4.1s1.6-4.1,3.9-4.1
			c0.9,0,1.8,0.3,2.4,1v-0.7h2.7v7.7H798.9z M792.7,270c0,1,0.6,1.7,1.8,1.7s1.8-0.8,1.8-1.7c0-0.9-0.6-1.7-1.8-1.7
			S792.7,269.1,792.7,270z"/>
		<path class="st5" d="M803.7,273.9H801v-5.4h-1v-2.3h1v-1c0-1.1,0-1.8,0.8-2.7c0.7-0.8,1.6-1.2,2.7-1.2c0.4,0,0.8,0.1,1.2,0.3v2.4
			c-0.3-0.1-0.6-0.3-1-0.3c-0.7,0-0.9,0.4-0.9,1.3v1.2h1.9v2.3h-1.9L803.7,273.9L803.7,273.9z"/>
		<path class="st5" d="M807.4,265l-1.2-0.9l2.1-2.6l1.7,1.2L807.4,265z M809.2,273.9h-2.7v-7.7h2.7V273.9z"/>
		<path class="st5" d="M819.4,273.9h-2.7V273l0,0c-0.5,0.8-1.4,1.1-2.3,1.1c-2.3,0-3.9-1.9-3.9-4.1s1.6-4.1,3.9-4.1
			c0.9,0,1.8,0.3,2.4,1v-0.7h2.7v7.7H819.4z M813.3,270c0,1,0.6,1.7,1.8,1.7s1.8-0.8,1.8-1.7c0-0.9-0.6-1.7-1.8-1.7
			S813.3,269.1,813.3,270z"/>
	</g>
</g>
<g>
	<g>
		<path class="st5" d="M675.6,454.5h-2.9v-8.8h-2.4v-2.5h7.8v2.5h-2.4L675.6,454.5L675.6,454.5z"/>
		<path class="st5" d="M685.8,451.1h-5.7c0,1.1,0.6,1.7,1.7,1.7c0.6,0,1-0.2,1.3-0.7h2.6c-0.2,0.9-0.8,1.6-1.5,2s-1.6,0.6-2.5,0.6
			c-2.6,0-4.5-1.4-4.5-4.1c0-2.6,1.8-4.1,4.3-4.1c2.7,0,4.2,1.6,4.2,4.3v0.3H685.8z M681.3,445.6l-1.2-0.9l2.1-2.6l1.7,1.2
			L681.3,445.6z M683.3,449.5c-0.1-0.7-0.8-1.2-1.5-1.2c-0.8,0-1.5,0.4-1.6,1.2H683.3z"/>
		<path class="st5" d="M692.6,449.3c-0.4-0.3-0.9-0.5-1.4-0.5c-1.1,0-1.9,0.8-1.9,1.9s0.8,1.9,1.9,1.9c0.5,0,1-0.2,1.4-0.5v2.3
			c-0.6,0.3-1.3,0.4-1.9,0.4c-2.3,0-4.2-1.7-4.2-4c0-2.5,1.9-4.2,4.3-4.2c0.6,0,1.3,0.1,1.8,0.4L692.6,449.3L692.6,449.3z"/>
		<path class="st5" d="M697,447.8L697,447.8c0.7-0.9,1.4-1.2,2.5-1.2c2.1,0,2.9,1.3,2.9,3.2v4.8h-2.7v-3.8c0-0.7,0.1-2-1.2-2
			c-1.1,0-1.4,0.8-1.4,1.8v4h-2.7v-7.7h2.7L697,447.8L697,447.8z"/>
		<path class="st5" d="M707.1,443.8c0,0.8-0.7,1.5-1.5,1.5s-1.5-0.7-1.5-1.5s0.7-1.5,1.5-1.5C706.4,442.3,707.1,443,707.1,443.8z
			 M706.9,454.5h-2.7v-7.7h2.7V454.5z"/>
		<path class="st5" d="M714.3,449.3c-0.4-0.3-0.9-0.5-1.4-0.5c-1,0-1.9,0.8-1.9,1.9s0.8,1.9,1.9,1.9c0.5,0,1-0.2,1.4-0.5v2.3
			c-0.6,0.3-1.3,0.4-1.9,0.4c-2.3,0-4.2-1.7-4.2-4c0-2.5,1.9-4.2,4.3-4.2c0.6,0,1.3,0.1,1.8,0.4L714.3,449.3L714.3,449.3z"/>
		<path class="st5" d="M724.7,450.6c0,2.6-2.2,4.1-4.6,4.1c-2.5,0-4.6-1.5-4.6-4.1s2.2-4.1,4.6-4.1S724.7,448,724.7,450.6z
			 M718.3,450.6c0,1,0.6,1.7,1.8,1.7c1.1,0,1.8-0.8,1.8-1.7c0-0.9-0.6-1.7-1.8-1.7C718.9,448.9,718.3,449.7,718.3,450.6z"/>
		<path class="st5" d="M736.8,453.6L736.8,453.6c-0.5,0.8-1.5,1.1-2.4,1.1c-2.3,0-3.9-1.9-3.9-4.1s1.6-4.1,3.9-4.1
			c0.9,0,1.8,0.3,2.4,1V442h2.7v12.5h-2.7V453.6z M733.4,450.6c0,1,0.6,1.7,1.8,1.7s1.8-0.8,1.8-1.7c0-0.9-0.6-1.7-1.8-1.7
			S733.4,449.7,733.4,450.6z"/>
		<path class="st5" d="M749.2,451.1h-5.7c0,1.1,0.6,1.7,1.7,1.7c0.6,0,1-0.2,1.3-0.7h2.6c-0.2,0.9-0.8,1.6-1.5,2s-1.6,0.6-2.5,0.6
			c-2.6,0-4.5-1.4-4.5-4.1c0-2.6,1.8-4.1,4.3-4.1c2.7,0,4.2,1.6,4.2,4.3v0.3H749.2z M746.7,449.5c-0.1-0.7-0.8-1.2-1.5-1.2
			c-0.8,0-1.5,0.4-1.6,1.2H746.7z"/>
		<path class="st5" d="M753.2,454.5h-2.7V442h2.7V454.5z"/>
		<path class="st5" d="M765.9,453.6L765.9,453.6c-0.5,0.8-1.5,1.1-2.4,1.1c-2.3,0-3.9-1.9-3.9-4.1s1.6-4.1,3.9-4.1
			c0.9,0,1.8,0.3,2.4,1V442h2.7v12.5h-2.7V453.6z M762.5,450.6c0,1,0.6,1.7,1.8,1.7s1.8-0.8,1.8-1.7c0-0.9-0.6-1.7-1.8-1.7
			S762.5,449.7,762.5,450.6z"/>
		<path class="st5" d="M778.2,451.1h-5.7c0,1.1,0.6,1.7,1.7,1.7c0.6,0,1-0.2,1.3-0.7h2.6c-0.2,0.9-0.8,1.6-1.5,2s-1.6,0.6-2.5,0.6
			c-2.6,0-4.5-1.4-4.5-4.1c0-2.6,1.8-4.1,4.3-4.1c2.7,0,4.2,1.6,4.2,4.3v0.3H778.2z M775.7,449.5c-0.1-0.7-0.8-1.2-1.5-1.2
			c-0.8,0-1.5,0.4-1.6,1.2H775.7z"/>
		<path class="st5" d="M782.1,447.6L782.1,447.6c0.5-0.8,1.5-1.1,2.4-1.1c2.3,0,3.9,1.9,3.9,4.1s-1.6,4.1-3.9,4.1
			c-0.9,0-1.8-0.3-2.4-1v4.6h-2.7v-11.5h2.7V447.6z M782,450.6c0,1,0.6,1.7,1.8,1.7s1.8-0.8,1.8-1.7c0-0.9-0.6-1.7-1.8-1.7
			S782,449.7,782,450.6z"/>
		<path class="st5" d="M798.1,454.5h-2.7v-0.9l0,0c-0.5,0.8-1.4,1.1-2.3,1.1c-2.3,0-3.9-1.9-3.9-4.1s1.6-4.1,3.9-4.1
			c0.9,0,1.8,0.3,2.4,1v-0.7h2.7v7.7H798.1z M792,450.6c0,1,0.6,1.7,1.8,1.7c1.1,0,1.8-0.8,1.8-1.7c0-0.9-0.6-1.7-1.8-1.7
			S792,449.7,792,450.6z"/>
		<path class="st5" d="M802.7,448L802.7,448c0.6-0.9,1.5-1.4,2.5-1.4h0.5v2.6c-0.4-0.2-0.7-0.3-1.2-0.3c-1.5,0-1.9,1-1.9,2.3v3.1
			h-2.7v-7.7h2.7v1.4H802.7z"/>
		<path class="st5" d="M810,454.5h-2.7V449h-0.9v-2.3h0.9v-2.3h2.7v2.3h1.5v2.3H810V454.5z"/>
		<path class="st5" d="M820.8,454.5h-2.7v-0.9l0,0c-0.5,0.8-1.4,1.1-2.3,1.1c-2.3,0-3.9-1.9-3.9-4.1s1.6-4.1,3.9-4.1
			c0.9,0,1.8,0.3,2.4,1v-0.7h2.7v7.7H820.8z M814.7,450.6c0,1,0.6,1.7,1.8,1.7s1.8-0.8,1.8-1.7c0-0.9-0.6-1.7-1.8-1.7
			S814.7,449.7,814.7,450.6z"/>
		<path class="st5" d="M825.4,447.7L825.4,447.7c0.7-0.9,1.5-1.2,2.5-1.2c1.1,0,2.1,0.4,2.6,1.5c0.5-1,1.6-1.5,2.6-1.5
			c2,0,2.6,1.3,2.6,3v4.9H833v-3.7c0-0.8,0-2.1-1.1-2.1c-1.3,0-1.3,1.2-1.3,2.1v3.7h-2.7v-3.7c0-0.9,0-2.2-1.2-2.2s-1.2,1.3-1.2,2.2
			v3.7h-2.7v-7.7h2.7L825.4,447.7L825.4,447.7z"/>
		<path class="st5" d="M845.4,451.1h-5.7c0,1.1,0.6,1.7,1.7,1.7c0.6,0,1-0.2,1.3-0.7h2.6c-0.2,0.9-0.8,1.6-1.5,2s-1.6,0.6-2.5,0.6
			c-2.6,0-4.5-1.4-4.5-4.1c0-2.6,1.8-4.1,4.3-4.1c2.7,0,4.2,1.6,4.2,4.3v0.3H845.4z M842.8,449.5c-0.1-0.7-0.8-1.2-1.5-1.2
			c-0.8,0-1.5,0.4-1.6,1.2H842.8z"/>
		<path class="st5" d="M849.3,447.8L849.3,447.8c0.7-0.9,1.4-1.2,2.5-1.2c2.1,0,2.9,1.3,2.9,3.2v4.8H852v-3.8c0-0.7,0.1-2-1.2-2
			c-1.1,0-1.4,0.8-1.4,1.8v4h-2.7v-7.7h2.7L849.3,447.8L849.3,447.8z"/>
		<path class="st5" d="M859.5,454.5h-2.7V449h-0.9v-2.3h0.9v-2.3h2.7v2.3h1.5v2.3h-1.5V454.5z"/>
		<path class="st5" d="M870.6,450.6c0,2.6-2.2,4.1-4.6,4.1c-2.5,0-4.6-1.5-4.6-4.1s2.2-4.1,4.6-4.1
			C868.5,446.5,870.6,448,870.6,450.6z M864.2,450.6c0,1,0.6,1.7,1.8,1.7c1.1,0,1.8-0.8,1.8-1.7c0-0.9-0.6-1.7-1.8-1.7
			C864.9,448.9,864.2,449.7,864.2,450.6z"/>
		<path class="st5" d="M693.2,461.8c0,0.8-0.7,1.5-1.5,1.5s-1.5-0.7-1.5-1.5s0.7-1.5,1.5-1.5S693.2,461,693.2,461.8z M693,472.5
			h-2.7v-7.7h2.7V472.5z"/>
		<path class="st5" d="M697.5,465.8L697.5,465.8c0.7-0.9,1.4-1.2,2.5-1.2c2.1,0,2.9,1.3,2.9,3.2v4.8h-2.7v-3.8c0-0.7,0.1-2-1.2-2
			c-1.1,0-1.4,0.8-1.4,1.8v4h-2.7v-7.7h2.7L697.5,465.8L697.5,465.8z"/>
		<path class="st5" d="M707.7,472.5H705V467h-1v-2.3h1v-1c0-1.1,0-1.8,0.8-2.7c0.7-0.8,1.7-1.2,2.7-1.2c0.4,0,0.8,0.1,1.2,0.3v2.4
			c-0.3-0.1-0.6-0.3-1-0.3c-0.7,0-0.9,0.4-0.9,1.3v1.2h1.9v2.3h-1.9L707.7,472.5L707.7,472.5z"/>
		<path class="st5" d="M719.2,468.6c0,2.6-2.2,4.1-4.6,4.1c-2.5,0-4.6-1.5-4.6-4.1s2.2-4.1,4.6-4.1
			C717.1,464.5,719.2,466,719.2,468.6z M712.8,468.6c0,1,0.6,1.7,1.8,1.7c1.1,0,1.8-0.8,1.8-1.7c0-0.9-0.6-1.7-1.8-1.7
			C713.5,466.9,712.8,467.7,712.8,468.6z"/>
		<path class="st5" d="M723.2,466L723.2,466c0.6-0.9,1.5-1.4,2.5-1.4h0.5v2.6c-0.4-0.2-0.7-0.3-1.2-0.3c-1.5,0-1.9,1-1.9,2.3v3.1
			h-2.7v-7.7h2.7v1.4H723.2z"/>
		<path class="st5" d="M730,465.7L730,465.7c0.7-0.9,1.5-1.2,2.5-1.2c1.1,0,2.1,0.4,2.6,1.5c0.5-1,1.6-1.5,2.6-1.5
			c2,0,2.6,1.3,2.6,3v4.9h-2.7v-3.7c0-0.8,0-2.1-1.1-2.1c-1.3,0-1.3,1.2-1.3,2.1v3.7h-2.7v-3.7c0-0.9,0-2.2-1.2-2.2
			s-1.2,1.3-1.2,2.2v3.7h-2.7v-7.7h2.7L730,465.7L730,465.7z"/>
		<path class="st5" d="M750.5,472.5h-2.7v-0.9l0,0c-0.5,0.8-1.4,1.1-2.3,1.1c-2.3,0-3.9-1.9-3.9-4.1s1.6-4.1,3.9-4.1
			c0.9,0,1.8,0.3,2.4,1v-0.7h2.7v7.7H750.5z M744.3,468.6c0,1,0.6,1.7,1.8,1.7s1.8-0.8,1.8-1.7c0-0.9-0.6-1.7-1.8-1.7
			S744.3,467.7,744.3,468.6z M745.9,463.6l-1.2-0.9l2.1-2.6l1.7,1.2L745.9,463.6z"/>
		<path class="st5" d="M755.3,472.5h-2.7V467h-0.9v-2.3h0.9v-2.3h2.7v2.3h1.5v2.3h-1.5V472.5z"/>
		<path class="st5" d="M760.6,461.8c0,0.8-0.7,1.5-1.5,1.5s-1.5-0.7-1.5-1.5s0.7-1.5,1.5-1.5C759.9,460.3,760.6,461,760.6,461.8z
			 M760.4,472.5h-2.7v-7.7h2.7V472.5z"/>
		<path class="st5" d="M767.8,467.3c-0.4-0.3-0.9-0.5-1.4-0.5c-1.1,0-1.9,0.8-1.9,1.9s0.8,1.9,1.9,1.9c0.5,0,1-0.2,1.4-0.5v2.3
			c-0.6,0.3-1.3,0.4-1.9,0.4c-2.3,0-4.2-1.7-4.2-4c0-2.5,1.9-4.2,4.3-4.2c0.6,0,1.3,0.1,1.8,0.4L767.8,467.3L767.8,467.3z"/>
		<path class="st5" d="M777.9,472.5h-2.7v-0.9l0,0c-0.5,0.8-1.4,1.1-2.3,1.1c-2.3,0-3.9-1.9-3.9-4.1s1.6-4.1,3.9-4.1
			c0.9,0,1.8,0.3,2.4,1v-0.7h2.7v7.7H777.9z M771.7,468.6c0,1,0.6,1.7,1.8,1.7c1.1,0,1.8-0.8,1.8-1.7c0-0.9-0.6-1.7-1.8-1.7
			C772.4,466.9,771.7,467.7,771.7,468.6z"/>
		<path class="st5" d="M790.4,467.3c-0.4-0.3-0.9-0.5-1.4-0.5c-1.1,0-1.9,0.8-1.9,1.9s0.8,1.9,1.9,1.9c0.5,0,1-0.2,1.4-0.5v2.3
			c-0.6,0.3-1.3,0.4-1.9,0.4c-2.3,0-4.2-1.7-4.2-4c0-2.5,1.9-4.2,4.3-4.2c0.6,0,1.3,0.1,1.8,0.4L790.4,467.3L790.4,467.3z"/>
		<path class="st5" d="M800.5,472.5h-2.7v-0.9l0,0c-0.5,0.8-1.4,1.1-2.3,1.1c-2.3,0-3.9-1.9-3.9-4.1s1.6-4.1,3.9-4.1
			c0.9,0,1.8,0.3,2.4,1v-0.7h2.7v7.7H800.5z M794.4,468.6c0,1,0.6,1.7,1.8,1.7s1.8-0.8,1.8-1.7c0-0.9-0.6-1.7-1.8-1.7
			S794.4,467.7,794.4,468.6z"/>
		<path class="st5" d="M805.3,472.5h-2.7V467h-0.9v-2.3h0.9v-2.3h2.7v2.3h1.5v2.3h-1.5V472.5z"/>
		<path class="st5" d="M816.1,472.5h-2.7v-0.9l0,0c-0.5,0.8-1.4,1.1-2.3,1.1c-2.3,0-3.9-1.9-3.9-4.1s1.6-4.1,3.9-4.1
			c0.9,0,1.8,0.3,2.4,1v-0.7h2.7v7.7H816.1z M810,468.6c0,1,0.6,1.7,1.8,1.7s1.8-0.8,1.8-1.7c0-0.9-0.6-1.7-1.8-1.7
			S810,467.7,810,468.6z"/>
		<path class="st5" d="M823,466.8c-0.4-0.2-1-0.4-1.5-0.4c-0.3,0-0.9,0.1-0.9,0.5c0,0.5,0.9,0.6,1.2,0.7c1.3,0.3,2.2,0.9,2.2,2.3
			c0,2-1.8,2.9-3.6,2.9c-1.1,0-2.2-0.3-3.1-0.9l1-1.9c0.6,0.4,1.5,0.8,2.2,0.8c0.3,0,0.9-0.2,0.9-0.6c0-0.6-0.9-0.6-1.7-0.9
			c-0.9-0.2-1.7-0.6-1.7-2c0-1.9,1.7-2.7,3.4-2.7c0.9,0,1.7,0.1,2.5,0.5L823,466.8z"/>
		<path class="st5" d="M828.6,472.5h-2.7V467H825v-2.3h0.9v-2.3h2.7v2.3h1.5v2.3h-1.5L828.6,472.5L828.6,472.5z"/>
		<path class="st5" d="M833.8,466L833.8,466c0.6-0.9,1.5-1.4,2.5-1.4h0.5v2.6c-0.4-0.2-0.7-0.3-1.2-0.3c-1.5,0-1.9,1-1.9,2.3v3.1
			H831v-7.7h2.7L833.8,466L833.8,466z"/>
		<path class="st5" d="M846.3,472.5h-2.7v-0.9l0,0c-0.5,0.8-1.4,1.1-2.3,1.1c-2.3,0-3.9-1.9-3.9-4.1s1.6-4.1,3.9-4.1
			c0.9,0,1.8,0.3,2.4,1v-0.7h2.7v7.7H846.3z M840.1,468.6c0,1,0.6,1.7,1.8,1.7s1.8-0.8,1.8-1.7c0-0.9-0.6-1.7-1.8-1.7
			S840.1,467.7,840.1,468.6z"/>
		<path class="st5" d="M850.8,472.5h-2.7V460h2.7V472.5z"/>
	</g>
</g>
<rect id="XMLID_934_" x="365.4" y="432.9" class="st2" width="240.1" height="58.1"/>
<g>
	<g>
		<path class="st5" d="M436.2,446.1h4.5c2.4,0,4.1,1.1,4.1,3.7c0,2.7-1.4,3.8-4,3.8h-1.7v3.8h-2.9V446.1z M439.1,451.3h0.5
			c1.1,0,2.1,0,2.1-1.4s-1-1.4-2.1-1.4h-0.5V451.3z"/>
		<path class="st5" d="M448.8,451L448.8,451c0.6-0.9,1.5-1.4,2.5-1.4h0.5v2.6c-0.4-0.2-0.7-0.3-1.2-0.3c-1.5,0-1.9,1-1.9,2.3v3.1
			H446v-7.7h2.7L448.8,451L448.8,451z"/>
		<path class="st5" d="M461.3,453.6c0,2.6-2.2,4.1-4.6,4.1c-2.5,0-4.6-1.5-4.6-4.1s2.2-4.1,4.6-4.1
			C459.1,449.5,461.3,450.9,461.3,453.6z M454.9,453.6c0,1,0.6,1.7,1.8,1.7c1.1,0,1.8-0.8,1.8-1.7c0-0.9-0.6-1.7-1.8-1.7
			C455.5,451.8,454.9,452.6,454.9,453.6z"/>
		<path class="st5" d="M465.5,457.4h-2.7V452h-1v-2.3h1v-1c0-1.1,0-1.8,0.8-2.7c0.7-0.8,1.7-1.2,2.7-1.2c0.4,0,0.8,0.1,1.2,0.3v2.4
			c-0.3-0.1-0.6-0.3-1-0.3c-0.7,0-0.9,0.4-0.9,1.3v1.2h1.9v2.3h-1.9v5.4H465.5z"/>
		<path class="st5" d="M476.2,454h-5.7c0,1.1,0.6,1.7,1.7,1.7c0.6,0,1-0.2,1.3-0.7h2.6c-0.2,0.9-0.8,1.6-1.5,2s-1.6,0.6-2.5,0.6
			c-2.6,0-4.5-1.4-4.5-4.1c0-2.6,1.8-4.1,4.3-4.1c2.7,0,4.2,1.6,4.2,4.3v0.3H476.2z M473.7,452.4c-0.1-0.7-0.8-1.2-1.5-1.2
			c-0.8,0-1.5,0.4-1.6,1.2H473.7z"/>
		<path class="st5" d="M482.5,451.7c-0.4-0.2-1-0.4-1.5-0.4c-0.3,0-0.9,0.1-0.9,0.5c0,0.5,0.9,0.6,1.2,0.7c1.3,0.3,2.2,0.9,2.2,2.3
			c0,2-1.8,2.9-3.6,2.9c-1.1,0-2.2-0.3-3.1-0.9l1-1.9c0.6,0.4,1.5,0.8,2.2,0.8c0.3,0,0.9-0.2,0.9-0.6c0-0.6-0.9-0.6-1.7-0.9
			c-0.9-0.2-1.7-0.6-1.7-2c0-1.9,1.7-2.7,3.4-2.7c0.9,0,1.7,0.1,2.5,0.5L482.5,451.7z"/>
		<path class="st5" d="M488.1,446.8c0,0.8-0.7,1.5-1.5,1.5s-1.5-0.7-1.5-1.5s0.7-1.5,1.5-1.5C487.4,445.2,488.1,445.9,488.1,446.8z
			 M487.9,457.4h-2.7v-7.7h2.7V457.4z"/>
		<path class="st5" d="M498.4,453.6c0,2.6-2.2,4.1-4.6,4.1c-2.5,0-4.6-1.5-4.6-4.1s2.2-4.1,4.6-4.1
			C496.2,449.5,498.4,450.9,498.4,453.6z M492,453.6c0,1,0.6,1.7,1.8,1.7c1.1,0,1.8-0.8,1.8-1.7c0-0.9-0.6-1.7-1.8-1.7
			C492.6,451.8,492,452.6,492,453.6z"/>
		<path class="st5" d="M502.3,450.7L502.3,450.7c0.7-0.9,1.4-1.2,2.5-1.2c2.1,0,2.9,1.3,2.9,3.2v4.8H505v-3.8c0-0.7,0.1-2-1.2-2
			c-1.1,0-1.4,0.8-1.4,1.8v4h-2.7v-7.7h2.7v0.9H502.3z"/>
		<path class="st5" d="M517.9,457.4h-2.7v-0.9l0,0c-0.5,0.8-1.4,1.1-2.3,1.1c-2.3,0-3.9-1.9-3.9-4.1s1.6-4.1,3.9-4.1
			c0.9,0,1.8,0.3,2.4,1v-0.7h2.7v7.7H517.9z M511.8,453.6c0,1,0.6,1.7,1.8,1.7s1.8-0.8,1.8-1.7c0-0.9-0.6-1.7-1.8-1.7
			S511.8,452.6,511.8,453.6z"/>
		<path class="st5" d="M522.5,457.4h-2.7V445h2.7V457.4z"/>
		<path class="st5" d="M456.5,475.4h-2.7V470h-0.9v-2.3h0.9v-2.3h2.7v2.3h1.5v2.3h-1.5V475.4z"/>
		<path class="st5" d="M466.8,472h-5.7c0,1.1,0.6,1.7,1.7,1.7c0.6,0,1-0.2,1.3-0.7h2.6c-0.2,0.9-0.8,1.6-1.5,2s-1.6,0.6-2.5,0.6
			c-2.6,0-4.5-1.4-4.5-4.1c0-2.6,1.8-4.1,4.3-4.1c2.7,0,4.2,1.6,4.2,4.3v0.3H466.8z M462.3,466.6l-1.2-0.9l2.1-2.6l1.7,1.2
			L462.3,466.6z M464.3,470.4c-0.1-0.7-0.8-1.2-1.5-1.2c-0.8,0-1.5,0.4-1.6,1.2H464.3z"/>
		<path class="st5" d="M473.6,470.2c-0.4-0.3-0.9-0.5-1.4-0.5c-1.1,0-1.9,0.8-1.9,1.9s0.8,1.9,1.9,1.9c0.5,0,1-0.2,1.4-0.5v2.3
			c-0.6,0.3-1.3,0.4-1.9,0.4c-2.3,0-4.2-1.7-4.2-4c0-2.5,1.9-4.2,4.3-4.2c0.6,0,1.3,0.1,1.8,0.4L473.6,470.2L473.6,470.2z"/>
		<path class="st5" d="M478,468.7L478,468.7c0.7-0.9,1.4-1.2,2.5-1.2c2.1,0,2.9,1.3,2.9,3.2v4.8h-2.7v-3.8c0-0.7,0.1-2-1.2-2
			c-1.1,0-1.4,0.8-1.4,1.8v4h-2.7v-7.7h2.7L478,468.7L478,468.7z"/>
		<path class="st5" d="M488.1,464.7c0,0.8-0.7,1.5-1.5,1.5s-1.5-0.7-1.5-1.5s0.7-1.5,1.5-1.5S488.1,463.9,488.1,464.7z M487.9,475.4
			h-2.7v-7.7h2.7V475.4z"/>
		<path class="st5" d="M495.3,470.2c-0.4-0.3-0.9-0.5-1.4-0.5c-1.1,0-1.9,0.8-1.9,1.9s0.8,1.9,1.9,1.9c0.5,0,1-0.2,1.4-0.5v2.3
			c-0.6,0.3-1.3,0.4-1.9,0.4c-2.3,0-4.2-1.7-4.2-4c0-2.5,1.9-4.2,4.3-4.2c0.6,0,1.3,0.1,1.8,0.4L495.3,470.2L495.3,470.2z"/>
		<path class="st5" d="M505.7,471.6c0,2.6-2.2,4.1-4.6,4.1c-2.5,0-4.6-1.5-4.6-4.1s2.2-4.1,4.6-4.1
			C503.5,467.4,505.7,468.9,505.7,471.6z M499.3,471.6c0,1,0.6,1.7,1.8,1.7c1.1,0,1.8-0.8,1.8-1.7c0-0.9-0.6-1.7-1.8-1.7
			C499.9,469.8,499.3,470.6,499.3,471.6z"/>
	</g>
</g>
<rect id="XMLID_931_" x="365.4" y="696" class="st2" width="240.1" height="58.1"/>
<g>
	<g>
		<path class="st5" d="M436.2,709.2h4.5c2.4,0,4.1,1.1,4.1,3.7c0,2.7-1.4,3.8-4,3.8h-1.7v3.8h-2.9V709.2z M439.1,714.4h0.5
			c1.1,0,2.1,0,2.1-1.4s-1-1.4-2.1-1.4h-0.5V714.4z"/>
		<path class="st5" d="M448.8,714L448.8,714c0.6-0.9,1.5-1.4,2.5-1.4h0.5v2.6c-0.4-0.2-0.7-0.3-1.2-0.3c-1.5,0-1.9,1-1.9,2.3v3.1
			H446v-7.7h2.7L448.8,714L448.8,714z"/>
		<path class="st5" d="M461.3,716.6c0,2.6-2.2,4.1-4.6,4.1c-2.5,0-4.6-1.5-4.6-4.1s2.2-4.1,4.6-4.1
			C459.1,712.5,461.3,714,461.3,716.6z M454.9,716.6c0,1,0.6,1.7,1.8,1.7c1.1,0,1.8-0.8,1.8-1.7s-0.6-1.7-1.8-1.7
			C455.5,714.9,454.9,715.7,454.9,716.6z"/>
		<path class="st5" d="M465.5,720.5h-2.7V715h-1v-2.3h1v-1c0-1.1,0-1.8,0.8-2.7c0.7-0.8,1.7-1.2,2.7-1.2c0.4,0,0.8,0.1,1.2,0.3v2.4
			c-0.3-0.1-0.6-0.3-1-0.3c-0.7,0-0.9,0.4-0.9,1.3v1.2h1.9v2.3h-1.9v5.5H465.5z"/>
		<path class="st5" d="M476.2,717.1h-5.7c0,1.1,0.6,1.7,1.7,1.7c0.6,0,1-0.2,1.3-0.7h2.6c-0.2,0.9-0.8,1.6-1.5,2s-1.6,0.6-2.5,0.6
			c-2.6,0-4.5-1.4-4.5-4.1c0-2.6,1.8-4.1,4.3-4.1c2.7,0,4.2,1.6,4.2,4.3v0.3H476.2z M473.7,715.5c-0.1-0.7-0.8-1.2-1.5-1.2
			c-0.8,0-1.5,0.4-1.6,1.2H473.7z"/>
		<path class="st5" d="M482.5,714.8c-0.4-0.2-1-0.4-1.5-0.4c-0.3,0-0.9,0.1-0.9,0.5c0,0.5,0.9,0.6,1.2,0.7c1.3,0.3,2.2,0.9,2.2,2.3
			c0,2-1.8,2.9-3.6,2.9c-1.1,0-2.2-0.3-3.1-0.9l1-1.9c0.6,0.4,1.5,0.8,2.2,0.8c0.3,0,0.9-0.2,0.9-0.6c0-0.6-0.9-0.6-1.7-0.9
			c-0.9-0.2-1.7-0.6-1.7-2c0-1.9,1.7-2.7,3.4-2.7c0.9,0,1.7,0.1,2.5,0.5L482.5,714.8z"/>
		<path class="st5" d="M488.1,709.8c0,0.8-0.7,1.5-1.5,1.5s-1.5-0.7-1.5-1.5s0.7-1.5,1.5-1.5S488.1,709,488.1,709.8z M487.9,720.5
			h-2.7v-7.7h2.7V720.5z"/>
		<path class="st5" d="M498.4,716.6c0,2.6-2.2,4.1-4.6,4.1c-2.5,0-4.6-1.5-4.6-4.1s2.2-4.1,4.6-4.1
			C496.2,712.5,498.4,714,498.4,716.6z M492,716.6c0,1,0.6,1.7,1.8,1.7c1.1,0,1.8-0.8,1.8-1.7s-0.6-1.7-1.8-1.7
			C492.6,714.9,492,715.7,492,716.6z"/>
		<path class="st5" d="M502.3,713.8L502.3,713.8c0.7-0.9,1.4-1.2,2.5-1.2c2.1,0,2.9,1.3,2.9,3.2v4.8H505v-3.8c0-0.7,0.1-2-1.2-2
			c-1.1,0-1.4,0.8-1.4,1.8v4h-2.7v-7.7h2.7v0.9H502.3z"/>
		<path class="st5" d="M517.9,720.5h-2.7v-0.9l0,0c-0.5,0.8-1.4,1.1-2.3,1.1c-2.3,0-3.9-1.9-3.9-4.1c0-2.2,1.6-4.1,3.9-4.1
			c0.9,0,1.8,0.3,2.4,1v-0.7h2.7v7.7H517.9z M511.8,716.6c0,1,0.6,1.7,1.8,1.7s1.8-0.8,1.8-1.7s-0.6-1.7-1.8-1.7
			S511.8,715.7,511.8,716.6z"/>
		<path class="st5" d="M522.5,720.5h-2.7V708h2.7V720.5z"/>
		<path class="st5" d="M456.5,738.5h-2.7V733h-0.9v-2.3h0.9v-2.3h2.7v2.3h1.5v2.3h-1.5V738.5z"/>
		<path class="st5" d="M466.8,735.1h-5.7c0,1.1,0.6,1.7,1.7,1.7c0.6,0,1-0.2,1.3-0.7h2.6c-0.2,0.9-0.8,1.6-1.5,2s-1.6,0.6-2.5,0.6
			c-2.6,0-4.5-1.4-4.5-4.1c0-2.6,1.8-4.1,4.3-4.1c2.7,0,4.2,1.6,4.2,4.3v0.3H466.8z M462.3,729.6l-1.2-0.9l2.1-2.6l1.7,1.2
			L462.3,729.6z M464.3,733.5c-0.1-0.7-0.8-1.2-1.5-1.2c-0.8,0-1.5,0.4-1.6,1.2H464.3z"/>
		<path class="st5" d="M473.6,733.3c-0.4-0.3-0.9-0.5-1.4-0.5c-1.1,0-1.9,0.8-1.9,1.9c0,1.1,0.8,1.9,1.9,1.9c0.5,0,1-0.2,1.4-0.5
			v2.3c-0.6,0.3-1.3,0.4-1.9,0.4c-2.3,0-4.2-1.7-4.2-4c0-2.5,1.9-4.2,4.3-4.2c0.6,0,1.3,0.1,1.8,0.4L473.6,733.3L473.6,733.3z"/>
		<path class="st5" d="M478,731.8L478,731.8c0.7-0.9,1.4-1.2,2.5-1.2c2.1,0,2.9,1.3,2.9,3.2v4.8h-2.7v-3.8c0-0.7,0.1-2-1.2-2
			c-1.1,0-1.4,0.8-1.4,1.8v4h-2.7v-7.7h2.7L478,731.8L478,731.8z"/>
		<path class="st5" d="M488.1,727.8c0,0.8-0.7,1.5-1.5,1.5s-1.5-0.7-1.5-1.5s0.7-1.5,1.5-1.5S488.1,727,488.1,727.8z M487.9,738.5
			h-2.7v-7.7h2.7V738.5z"/>
		<path class="st5" d="M495.3,733.3c-0.4-0.3-0.9-0.5-1.4-0.5c-1.1,0-1.9,0.8-1.9,1.9c0,1.1,0.8,1.9,1.9,1.9c0.5,0,1-0.2,1.4-0.5
			v2.3c-0.6,0.3-1.3,0.4-1.9,0.4c-2.3,0-4.2-1.7-4.2-4c0-2.5,1.9-4.2,4.3-4.2c0.6,0,1.3,0.1,1.8,0.4L495.3,733.3L495.3,733.3z"/>
		<path class="st5" d="M505.7,734.6c0,2.6-2.2,4.1-4.6,4.1c-2.5,0-4.6-1.5-4.6-4.1s2.2-4.1,4.6-4.1S505.7,732,505.7,734.6z
			 M499.3,734.6c0,1,0.6,1.7,1.8,1.7c1.1,0,1.8-0.8,1.8-1.7s-0.6-1.7-1.8-1.7C499.9,732.9,499.3,733.7,499.3,734.6z"/>
	</g>
</g>
<g>
	<g>
		<path class="st5" d="M469.6,359.7c-0.8-1.1-2.2-1.7-3.6-1.7c-2.5,0-4.2,1.9-4.2,4.4s1.7,4.3,4.3,4.3c1.3,0,2.7-0.7,3.6-1.7v4.9
			c-1.4,0.4-2.4,0.7-3.6,0.7c-2.2,0-4.3-0.8-5.9-2.3c-1.7-1.6-2.5-3.6-2.5-6c0-2.2,0.8-4.2,2.3-5.8c1.6-1.6,3.8-2.6,6-2.6
			c1.3,0,2.5,0.3,3.8,0.8v5H469.6z"/>
		<path class="st5" d="M476.2,367.5l-1.1,2.8h-4.4l6.1-15.9h4.5l6,15.9h-4.4l-1-2.8H476.2z M479.1,359.3L479.1,359.3l-1.7,5h3.4
			L479.1,359.3z"/>
		<path class="st5" d="M496.2,354.4v10.7c0,3.3-1.7,5.6-5.3,5.6c-1.8,0-3.1-0.9-4.1-2.3l2.4-2.5c0.5,0.6,1.1,1.3,1.7,1.3
			c1.2,0,1.2-1.5,1.2-2.3v-10.4h4.1V354.4z"/>
		<path class="st5" d="M502.9,367.5l-1.1,2.8h-4.4l6.1-15.9h4.5l6,15.9h-4.4l-1-2.8H502.9z M505.8,359.3L505.8,359.3l-1.7,5h3.4
			L505.8,359.3z"/>
	</g>
</g>
<polygon id="XMLID_926_" class="st6" points="482.8,226.3 477.3,216.8 471.8,207.2 482.8,207.2 493.8,207.2 488.3,216.8 "/>
<polygon id="XMLID_528_" class="st6" points="767.9,232.8 762.4,223.2 756.9,213.7 767.9,213.7 778.9,213.7 773.4,223.2 "/>
<polygon id="XMLID_925_" class="st6" points="482.8,335.9 477.3,326.3 471.8,316.8 482.8,316.8 493.8,316.8 488.3,326.3 "/>
<polygon id="XMLID_924_" class="st6" points="482.8,434 477.3,424.5 471.8,414.9 482.8,414.9 493.8,414.9 488.3,424.5 "/>
<polygon id="XMLID_918_" class="st6" points="482.8,563.9 477.3,554.3 471.8,544.8 482.8,544.8 493.8,544.8 488.3,554.3 "/>
<polygon id="XMLID_920_" class="st6" points="482.8,697.8 477.3,688.3 471.8,678.7 482.8,678.7 493.8,678.7 488.3,688.3 "/>
<polygon id="XMLID_530_" class="st6" points="188.8,563.9 183.3,554.3 177.8,544.8 188.8,544.8 199.8,544.8 194.3,554.3 "/>
<polygon id="XMLID_550_" class="st6" points="650.8,462 641.2,467.5 631.7,473 631.7,462 631.7,451 641.2,456.5 "/>
<polygon id="XMLID_544_" class="st6" points="369.2,461.9 359.7,467.5 350.1,473 350.1,461.9 350.1,450.9 359.7,456.4 "/>
<polygon id="XMLID_540_" class="st6" points="482.8,892.8 477.3,883.2 471.8,873.7 482.8,873.7 493.8,873.7 488.3,883.2 "/>
<polygon id="XMLID_533_" class="st6" points="482.9,989.4 477.4,979.9 471.9,970.3 482.9,970.3 494,970.3 488.4,979.9 "/>
<polygon id="XMLID_949_" class="st6" points="482.9,1091.9 477.4,1082.4 471.9,1072.8 482.9,1072.8 494,1072.8 488.4,1082.4 "/>
<polygon id="XMLID_532_" class="st6" points="481.5,795.3 476,785.8 470.5,776.2 481.5,776.2 492.6,776.2 487.1,785.8 "/>
<g>
	<g>
		<path class="st4" d="M420.3,1099.4h5.6c4.2,0,7.7,3.3,7.7,7.5s-3.5,7.5-7.7,7.5h-5.6V1099.4z M424.2,1111.1h0.9
			c2.3,0,4.3-1.3,4.3-4.2c0-2.7-1.8-4.2-4.3-4.2h-0.9V1111.1z"/>
		<path class="st4" d="M439.1,1100.3c0,1.1-0.9,2-2,2s-2-0.9-2-2s0.9-2,2-2C438.2,1098.2,439.1,1099.1,439.1,1100.3z M438.9,1114.5
			h-3.6v-10.3h3.6V1114.5z"/>
		<path class="st4" d="M445,1105.9L445,1105.9c0.7-1.3,1.9-1.8,3.4-1.8h0.7v3.5c-0.5-0.3-1-0.3-1.5-0.3c-2,0-2.5,1.3-2.5,3.1v4.1
			h-3.6v-10.3h3.6v1.7H445z"/>
		<path class="st4" d="M460.9,1109.9h-7.7c0,1.5,0.8,2.3,2.3,2.3c0.8,0,1.3-0.3,1.7-0.9h3.5c-0.3,1.2-1,2.1-1.9,2.7
			s-2.1,0.9-3.3,0.9c-3.4,0-5.9-1.9-5.9-5.5c0-3.4,2.3-5.5,5.7-5.5c3.6,0,5.6,2.2,5.6,5.7L460.9,1109.9L460.9,1109.9z M457.5,1107.8
			c-0.2-1-1.1-1.6-2.1-1.6c-1.1,0-1.9,0.6-2.2,1.6H457.5z"/>
		<path class="st4" d="M470,1107.5c-0.5-0.4-1.2-0.7-1.9-0.7c-1.4,0-2.5,1.1-2.5,2.5c0,1.5,1.1,2.5,2.6,2.5c0.6,0,1.3-0.3,1.8-0.7
			v3.1c-0.8,0.4-1.7,0.6-2.6,0.6c-3,0-5.6-2.3-5.6-5.4c0-3.3,2.5-5.6,5.7-5.6c0.8,0,1.7,0.2,2.4,0.6v3.1H470z"/>
		<path class="st4" d="M479.6,1107.5c-0.5-0.4-1.2-0.7-1.9-0.7c-1.4,0-2.5,1.1-2.5,2.5c0,1.5,1.1,2.5,2.6,2.5c0.6,0,1.3-0.3,1.8-0.7
			v3.1c-0.8,0.4-1.7,0.6-2.6,0.6c-3,0-5.6-2.3-5.6-5.4c0-3.3,2.5-5.6,5.7-5.6c0.8,0,1.7,0.2,2.4,0.6v3.1H479.6z"/>
		<path class="st4" d="M485.7,1100.3c0,1.1-0.9,2-2,2s-2-0.9-2-2s0.9-2,2-2C484.8,1098.2,485.7,1099.1,485.7,1100.3z M485.5,1114.5
			h-3.6v-10.3h3.6V1114.5z"/>
		<path class="st4" d="M499.5,1109.3c0,3.5-2.9,5.5-6.2,5.5c-3.3,0-6.2-2-6.2-5.5s2.9-5.5,6.2-5.5
			C496.6,1103.9,499.5,1105.8,499.5,1109.3z M491,1109.3c0,1.3,0.9,2.3,2.3,2.3s2.3-1,2.3-2.3s-0.9-2.3-2.3-2.3
			S491,1108.1,491,1109.3z M492.9,1102.7l-1.6-1.2l2.8-3.4l2.2,1.6L492.9,1102.7z"/>
		<path class="st4" d="M504.8,1105.5L504.8,1105.5c0.9-1.2,1.9-1.7,3.3-1.7c2.8,0,3.9,1.7,3.9,4.3v6.3h-3.6v-5c0-1,0.2-2.7-1.6-2.7
			c-1.5,0-1.9,1.1-1.9,2.4v5.3h-3.6v-10.3h3.6L504.8,1105.5L504.8,1105.5z"/>
		<path class="st4" d="M529,1113.3L529,1113.3c-0.7,1-1.9,1.5-3.1,1.5c-3,0-5.2-2.5-5.2-5.5c0-2.9,2.1-5.5,5.1-5.5
			c1.2,0,2.4,0.4,3.2,1.3v-7.3h3.6v16.6H529V1113.3z M524.4,1109.3c0,1.3,0.9,2.3,2.3,2.3s2.3-1,2.3-2.3s-0.9-2.3-2.3-2.3
			S524.4,1108.1,524.4,1109.3z"/>
		<path class="st4" d="M545.4,1109.9h-7.7c0,1.5,0.8,2.3,2.3,2.3c0.8,0,1.3-0.3,1.7-0.9h3.5c-0.3,1.2-1,2.1-1.9,2.7
			s-2.1,0.9-3.3,0.9c-3.4,0-5.9-1.9-5.9-5.5c0-3.4,2.3-5.5,5.7-5.5c3.6,0,5.6,2.2,5.6,5.7L545.4,1109.9L545.4,1109.9z M542,1107.8
			c-0.2-1-1.1-1.6-2.1-1.6c-1.1,0-1.9,0.6-2.2,1.6H542z"/>
		<path class="st4" d="M384.8,1138.5v-15.1h5.6c2.7,0,4.5,1,4.5,3.9c0,1.4-0.4,2.5-1.7,3.1l0,0c2.2,0.3,3.1,1.7,3.1,3.8
			c0,3.2-2.7,4.2-5.5,4.2L384.8,1138.5L384.8,1138.5z M388.7,1129.3h0.4c1,0,2.1-0.2,2.1-1.5c0-1.4-1.2-1.5-2.3-1.5h-0.3
			L388.7,1129.3L388.7,1129.3z M388.7,1135.5h0.5c1.2,0,3.1,0.1,3.1-1.6c0-1.8-1.9-1.6-3.2-1.6h-0.4V1135.5z"/>
		<path class="st4" d="M402.1,1124.3c0,1.1-0.9,2-2,2s-2-0.9-2-2s0.9-2,2-2C401.2,1122.2,402.1,1123.1,402.1,1124.3z M401.9,1138.5
			h-3.6v-10.3h3.6V1138.5z"/>
		<path class="st4" d="M414.8,1133.9h-7.7c0,1.5,0.8,2.3,2.3,2.3c0.8,0,1.3-0.3,1.7-0.9h3.5c-0.3,1.2-1,2.1-1.9,2.7
			s-2.1,0.9-3.3,0.9c-3.4,0-5.9-1.9-5.9-5.5c0-3.4,2.3-5.5,5.7-5.5c3.6,0,5.6,2.2,5.6,5.7L414.8,1133.9L414.8,1133.9z M411.5,1131.8
			c-0.2-1-1.1-1.6-2.1-1.6c-1.1,0-1.9,0.6-2.2,1.6H411.5z"/>
		<path class="st4" d="M420.1,1129.5L420.1,1129.5c0.9-1.2,1.9-1.7,3.3-1.7c2.8,0,3.9,1.7,3.9,4.3v6.3h-3.6v-5c0-1,0.2-2.7-1.6-2.7
			c-1.5,0-1.9,1.1-1.9,2.4v5.3h-3.6v-10.3h3.6L420.1,1129.5L420.1,1129.5z"/>
		<path class="st4" d="M440.3,1133.9h-7.7c0,1.5,0.8,2.3,2.3,2.3c0.8,0,1.3-0.3,1.7-0.9h3.5c-0.3,1.2-1,2.1-1.9,2.7
			s-2.1,0.9-3.3,0.9c-3.4,0-5.9-1.9-5.9-5.5c0-3.4,2.3-5.5,5.7-5.5c3.6,0,5.6,2.2,5.6,5.7L440.3,1133.9L440.3,1133.9z M436.9,1131.8
			c-0.2-1-1.1-1.6-2.1-1.6c-1.1,0-1.9,0.6-2.2,1.6H436.9z"/>
		<path class="st4" d="M448.7,1130.8c-0.6-0.3-1.3-0.5-2-0.5c-0.4,0-1.1,0.2-1.1,0.7c0,0.7,1.1,0.8,1.6,0.9c1.7,0.3,3,1.1,3,3
			c0,2.7-2.5,3.8-4.8,3.8c-1.5,0-2.9-0.4-4.1-1.2l1.3-2.5c0.7,0.5,2,1,2.9,1c0.5,0,1.1-0.2,1.1-0.8c0-0.8-1.1-0.8-2.3-1.1
			c-1.1-0.3-2.3-0.9-2.3-2.7c0-2.5,2.3-3.6,4.5-3.6c1.2,0,2.3,0.2,3.4,0.7L448.7,1130.8z"/>
		<path class="st4" d="M460.8,1123.4h3.9l3.1,8.1l3.2-8.1h3.9l2.3,15.1h-3.9l-1.1-8.7l0,0l-3.6,8.7H467l-3.5-8.7l0,0l-1.3,8.7h-3.9
			L460.8,1123.4z"/>
		<path class="st4" d="M482.3,1128.2v5.5c0,1.3,0.3,2.2,1.8,2.2s1.8-0.9,1.8-2.2v-5.5h3.6v6.2c0,3.4-2.4,4.4-5.5,4.4s-5.5-1-5.5-4.4
			v-6.2H482.3z"/>
		<path class="st4" d="M495.5,1129.5L495.5,1129.5c0.9-1.2,1.9-1.7,3.3-1.7c2.8,0,3.9,1.7,3.9,4.3v6.3H499v-5c0-1,0.2-2.7-1.6-2.7
			c-1.5,0-1.9,1.1-1.9,2.4v5.3h-3.6v-10.3h3.6V1129.5z"/>
		<path class="st4" d="M508.9,1124.3c0,1.1-0.9,2-2,2s-2-0.9-2-2s0.9-2,2-2C508,1122.2,508.9,1123.1,508.9,1124.3z M508.7,1138.5
			h-3.6v-10.3h3.6V1138.5z"/>
		<path class="st4" d="M518.5,1131.5c-0.5-0.4-1.2-0.7-1.9-0.7c-1.4,0-2.5,1.1-2.5,2.5c0,1.5,1.1,2.5,2.6,2.5c0.6,0,1.3-0.3,1.8-0.7
			v3.1c-0.8,0.4-1.7,0.6-2.6,0.6c-3,0-5.6-2.3-5.6-5.4c0-3.3,2.5-5.6,5.7-5.6c0.8,0,1.7,0.2,2.4,0.6v3.1H518.5z"/>
		<path class="st4" d="M524.6,1124.3c0,1.1-0.9,2-2,2s-2-0.9-2-2s0.9-2,2-2C523.7,1122.2,524.6,1123.1,524.6,1124.3z M524.4,1138.5
			h-3.6v-10.3h3.6V1138.5z"/>
		<path class="st4" d="M530.3,1129.4L530.3,1129.4c0.7-1,1.9-1.5,3.1-1.5c3.1,0,5.2,2.6,5.2,5.5c0,3-2.1,5.4-5.1,5.4
			c-1.2,0-2.4-0.4-3.2-1.3v6.1h-3.6v-15.4h3.6V1129.4z M530.2,1133.3c0,1.3,0.9,2.3,2.3,2.3c1.5,0,2.3-1,2.3-2.3s-0.9-2.3-2.3-2.3
			C531.1,1131,530.2,1132.1,530.2,1133.3z"/>
		<path class="st4" d="M551.7,1138.5H548v-1.1l0,0c-0.6,1-1.9,1.5-3.1,1.5c-3,0-5.2-2.5-5.2-5.5c0-2.9,2.1-5.5,5.1-5.5
			c1.2,0,2.4,0.4,3.2,1.3v-1h3.6v10.3H551.7z M543.5,1133.3c0,1.3,0.9,2.3,2.3,2.3s2.3-1,2.3-2.3s-0.9-2.3-2.3-2.3
			S543.5,1132.1,543.5,1133.3z"/>
		<path class="st4" d="M557.7,1138.5h-3.6v-16.6h3.6V1138.5z"/>
		<path class="st4" d="M570.7,1133.9H563c0,1.5,0.8,2.3,2.3,2.3c0.8,0,1.3-0.3,1.7-0.9h3.5c-0.3,1.2-1,2.1-1.9,2.7s-2.1,0.9-3.3,0.9
			c-3.4,0-5.9-1.9-5.9-5.5c0-3.4,2.3-5.5,5.7-5.5c3.6,0,5.6,2.2,5.6,5.7L570.7,1133.9L570.7,1133.9z M567.3,1131.8
			c-0.2-1-1.1-1.6-2.1-1.6c-1.1,0-1.9,0.6-2.2,1.6H567.3z"/>
		<path class="st4" d="M579.1,1130.8c-0.6-0.3-1.3-0.5-2-0.5c-0.4,0-1.1,0.2-1.1,0.7c0,0.7,1.1,0.8,1.6,0.9c1.7,0.3,3,1.1,3,3
			c0,2.7-2.5,3.8-4.8,3.8c-1.5,0-2.9-0.4-4.1-1.2l1.3-2.5c0.7,0.5,2,1,2.9,1c0.5,0,1.1-0.2,1.1-0.8c0-0.8-1.1-0.8-2.3-1.1
			c-1.1-0.3-2.3-0.9-2.3-2.7c0-2.5,2.3-3.6,4.5-3.6c1.2,0,2.3,0.2,3.4,0.7L579.1,1130.8z"/>
	</g>
</g>
<g>
	<g>
		<path class="st5" d="M428.9,582.8c-0.6-0.8-1.6-1.2-2.6-1.2c-1.8,0-3,1.4-3,3.1c0,1.8,1.2,3.1,3.1,3.1c1,0,1.9-0.5,2.5-1.2v3.5
			c-1,0.3-1.7,0.5-2.6,0.5c-1.6,0-3.1-0.6-4.2-1.7c-1.2-1.1-1.8-2.6-1.8-4.3c0-1.5,0.6-3,1.7-4.1s2.7-1.8,4.3-1.8
			c0.9,0,1.8,0.2,2.7,0.6v3.5H428.9z"/>
		<path class="st5" d="M433.7,581.5v1.9h3.3v2.5h-3.3v2h3.5v2.5h-6.4V579h6.4v2.5H433.7z"/>
		<path class="st5" d="M448.4,590.3h-3.7l-2.8-4.4l0,0v4.4H439V579h4.4c2.2,0,3.9,1.1,3.9,3.5c0,1.6-0.9,2.9-2.5,3.2L448.4,590.3z
			 M441.9,584h0.3c1,0,2-0.2,2-1.4s-1.1-1.4-2-1.4h-0.3V584z"/>
		<path class="st5" d="M453.7,590.3h-2.9v-8.8h-2.4V579h7.8v2.5h-2.4v8.8H453.7z"/>
		<path class="st5" d="M460.1,590.3h-2.9V579h2.9V590.3z"/>
		<path class="st5" d="M465,581.5v1.9h3.2v2.5H465v4.4h-3V579h6.5v2.5H465z"/>
		<path class="st5" d="M473.1,590.3h-2.9V579h2.9V590.3z"/>
		<path class="st5" d="M483.1,582.8c-0.6-0.8-1.6-1.2-2.6-1.2c-1.8,0-3,1.4-3,3.1c0,1.8,1.2,3.1,3.1,3.1c1,0,1.9-0.5,2.5-1.2v3.5
			c-1,0.3-1.7,0.5-2.6,0.5c-1.6,0-3.1-0.6-4.2-1.7c-1.2-1.1-1.8-2.6-1.8-4.3c0-1.5,0.6-3,1.7-4.1s2.7-1.8,4.3-1.8
			c0.9,0,1.8,0.2,2.7,0.6v3.5H483.1z"/>
		<path class="st5" d="M487.8,588.3l-0.8,2h-3.1l4.4-11.3h3.2l4.3,11.3h-3.1l-0.7-2H487.8z M489.8,582.5L489.8,582.5l-1.2,3.6h2.4
			L489.8,582.5z"/>
		<path class="st5" d="M504.7,582.8c-0.6-0.8-1.6-1.2-2.6-1.2c-1.8,0-3,1.4-3,3.1c0,1.8,1.2,3.1,3.1,3.1c1,0,1.9-0.5,2.5-1.2v3.5
			c-1,0.3-1.7,0.5-2.6,0.5c-1.6,0-3.1-0.6-4.2-1.7c-1.2-1.1-1.8-2.6-1.8-4.3c0-1.5,0.6-3,1.7-4.1s2.7-1.8,4.3-1.8
			c0.9,0,1.8,0.2,2.7,0.6v3.5H504.7z"/>
		<path class="st5" d="M509.5,590.3h-2.9V579h2.9V590.3z"/>
		<path class="st5" d="M523.3,584.4c0,3.7-2.6,6.2-6.3,6.2c-3.6,0-6.3-2.6-6.3-6.2c0-3.4,3-5.8,6.3-5.8S523.3,581,523.3,584.4z
			 M513.9,584.4c0,1.9,1.4,3.4,3.2,3.4s3.2-1.4,3.2-3.4c0-1.6-1.4-3-3.2-3S513.9,582.9,513.9,584.4z M516.7,578.3l-1.2-0.9l2.1-2.6
			l1.7,1.2L516.7,578.3z"/>
		<path class="st5" d="M524.7,579h2.9l5.4,6.9l0,0V579h2.9v11.3H533l-5.4-6.9l0,0v6.9h-2.9L524.7,579L524.7,579z"/>
		<path class="st5" d="M441.8,600.8c-0.6-0.8-1.6-1.2-2.6-1.2c-1.8,0-3,1.4-3,3.1c0,1.8,1.2,3.1,3.1,3.1c1,0,1.9-0.5,2.5-1.2v3.5
			c-1,0.3-1.7,0.5-2.6,0.5c-1.6,0-3.1-0.6-4.2-1.7c-1.2-1.1-1.8-2.6-1.8-4.3c0-1.5,0.6-3,1.7-4.1s2.7-1.8,4.3-1.8
			c0.9,0,1.8,0.2,2.7,0.6v3.5H441.8z"/>
		<path class="st5" d="M446.5,606.3l-0.8,2h-3.1L447,597h3.2l4.3,11.3h-3.1l-0.7-2H446.5z M448.6,600.5L448.6,600.5l-1.2,3.6h2.4
			L448.6,600.5z"/>
		<path class="st5" d="M459,608.3h-3v-8.8h-2.4V597h7.8v2.5H459V608.3z"/>
		<path class="st5" d="M464.4,606.3l-0.8,2h-3.1l4.4-11.3h3.2l4.3,11.3h-3.1l-0.7-2H464.4z M466.5,600.5L466.5,600.5l-1.2,3.6h2.4
			L466.5,600.5z"/>
		<path class="st5" d="M479.5,599.9c-0.5-0.4-1.2-0.7-2-0.7c-0.5,0-1.3,0.3-1.3,0.9c0,0.7,0.8,0.9,1.3,1.1l0.7,0.2
			c1.6,0.5,2.8,1.3,2.8,3.1c0,1.1-0.3,2.3-1.2,3c-0.9,0.8-2.1,1.1-3.2,1.1c-1.4,0-2.8-0.5-4-1.3l1.3-2.4c0.7,0.6,1.6,1.2,2.6,1.2
			c0.7,0,1.4-0.3,1.4-1.1s-1.2-1.1-1.8-1.3c-1.8-0.5-3.1-1-3.1-3.2c0-2.3,1.6-3.8,3.9-3.8c1.1,0,2.5,0.4,3.5,0.9L479.5,599.9z"/>
		<path class="st5" d="M487,608.3h-2.9v-8.8h-2.4V597h7.8v2.5H487V608.3z"/>
		<path class="st5" d="M499.9,608.3h-3.7l-2.8-4.4l0,0v4.4h-2.9V597h4.4c2.2,0,3.9,1.1,3.9,3.5c0,1.6-0.9,2.9-2.5,3.2L499.9,608.3z
			 M493.4,602h0.3c1,0,2-0.2,2-1.4s-1.1-1.4-2-1.4h-0.3V602z"/>
		<path class="st5" d="M503.6,606.3l-0.8,2h-3.1L504,597h3.2l4.3,11.3h-3.1l-0.7-2H503.6z M505.6,600.5L505.6,600.5l-1.2,3.6h2.4
			L505.6,600.5z"/>
		<path class="st5" d="M515.3,605.8h3.5v2.5h-6.5V597h2.9L515.3,605.8L515.3,605.8z"/>
	</g>
</g>
<rect id="XMLID_938_" x="81" y="562.8" class="st3" width="226.8" height="61"/>
<g>
	<g>
		<path class="st5" d="M121.9,590.3H119V579h2.9V590.3z"/>
		<path class="st5" d="M126.5,583.6L126.5,583.6c0.7-0.9,1.4-1.2,2.5-1.2c2.1,0,2.9,1.3,2.9,3.2v4.8h-2.7v-3.8c0-0.7,0.1-2-1.2-2
			c-1.1,0-1.4,0.8-1.4,1.8v4h-2.7v-7.7h2.7L126.5,583.6L126.5,583.6z"/>
		<path class="st5" d="M136.7,590.3H134v-5.4h-1v-2.3h1v-1c0-1.1,0-1.8,0.8-2.7c0.7-0.8,1.7-1.2,2.7-1.2c0.4,0,0.8,0.1,1.2,0.3v2.4
			c-0.3-0.1-0.6-0.3-1-0.3c-0.7,0-0.9,0.4-0.9,1.3v1.2h1.9v2.3h-1.9v5.4H136.7z"/>
		<path class="st5" d="M148.2,586.5c0,2.6-2.2,4.1-4.6,4.1c-2.5,0-4.6-1.5-4.6-4.1s2.2-4.1,4.6-4.1
			C146,582.3,148.2,583.8,148.2,586.5z M141.8,586.5c0,1,0.6,1.7,1.8,1.7c1.1,0,1.8-0.8,1.8-1.7s-0.6-1.7-1.8-1.7
			C142.4,584.7,141.8,585.5,141.8,586.5z"/>
		<path class="st5" d="M152.1,583.9L152.1,583.9c0.6-0.9,1.5-1.4,2.5-1.4h0.5v2.6c-0.4-0.2-0.7-0.3-1.2-0.3c-1.5,0-1.9,1-1.9,2.3
			v3.1h-2.7v-7.7h2.7L152.1,583.9L152.1,583.9z"/>
		<path class="st5" d="M158.9,583.6L158.9,583.6c0.7-0.9,1.5-1.2,2.5-1.2c1.1,0,2.1,0.4,2.6,1.5c0.5-1,1.6-1.5,2.6-1.5
			c2,0,2.6,1.3,2.6,3v4.9h-2.7v-3.7c0-0.8,0-2.1-1.1-2.1c-1.3,0-1.3,1.2-1.3,2.1v3.7h-2.7v-3.7c0-0.9,0-2.2-1.2-2.2
			s-1.2,1.3-1.2,2.2v3.7h-2.7v-7.7h2.7v1H158.9z"/>
		<path class="st5" d="M178.9,586.9h-5.7c0,1.1,0.6,1.7,1.7,1.7c0.6,0,1-0.2,1.3-0.7h2.6c-0.2,0.9-0.8,1.6-1.5,2s-1.6,0.6-2.5,0.6
			c-2.6,0-4.5-1.4-4.5-4.1c0-2.6,1.8-4.1,4.3-4.1c2.7,0,4.2,1.6,4.2,4.3L178.9,586.9L178.9,586.9z M176.4,585.3
			c-0.1-0.7-0.8-1.2-1.5-1.2c-0.8,0-1.5,0.4-1.6,1.2H176.4z"/>
		<path class="st5" d="M191.1,589.4L191.1,589.4c-0.5,0.8-1.5,1.1-2.4,1.1c-2.3,0-3.9-1.9-3.9-4.1c0-2.2,1.6-4.1,3.9-4.1
			c0.9,0,1.8,0.3,2.4,1v-5.5h2.7v12.5h-2.7V589.4z M187.7,586.5c0,1,0.6,1.7,1.8,1.7c1.1,0,1.8-0.8,1.8-1.7s-0.6-1.7-1.8-1.7
			C188.3,584.7,187.7,585.5,187.7,586.5z"/>
		<path class="st5" d="M203.5,586.9h-5.7c0,1.1,0.6,1.7,1.7,1.7c0.6,0,1-0.2,1.3-0.7h2.6c-0.2,0.9-0.8,1.6-1.5,2s-1.6,0.6-2.5,0.6
			c-2.6,0-4.5-1.4-4.5-4.1c0-2.6,1.8-4.1,4.3-4.1c2.7,0,4.2,1.6,4.2,4.3L203.5,586.9L203.5,586.9z M200.9,585.3
			c-0.1-0.7-0.8-1.2-1.5-1.2c-0.8,0-1.5,0.4-1.6,1.2H200.9z"/>
		<path class="st5" d="M209.8,577.8h2.7v5.5c0.6-0.7,1.5-1,2.4-1c2.3,0,3.9,1.9,3.9,4.1c0,2.2-1.6,4.1-3.9,4.1
			c-0.9,0-1.8-0.3-2.3-1.1l0,0v0.9h-2.7L209.8,577.8L209.8,577.8z M212.4,586.5c0,1,0.6,1.7,1.8,1.7c1.1,0,1.8-0.8,1.8-1.7
			s-0.6-1.7-1.8-1.7C213,584.7,212.4,585.5,212.4,586.5z"/>
		<path class="st5" d="M223,579.6c0,0.8-0.7,1.5-1.5,1.5s-1.5-0.7-1.5-1.5s0.7-1.5,1.5-1.5S223,578.8,223,579.6z M222.8,590.3h-2.7
			v-7.7h2.7V590.3z"/>
		<path class="st5" d="M232.5,586.9h-5.7c0,1.1,0.6,1.7,1.7,1.7c0.6,0,1-0.2,1.3-0.7h2.6c-0.2,0.9-0.8,1.6-1.5,2s-1.6,0.6-2.5,0.6
			c-2.6,0-4.5-1.4-4.5-4.1c0-2.6,1.8-4.1,4.3-4.1c2.7,0,4.2,1.6,4.2,4.3L232.5,586.9L232.5,586.9z M230,585.3
			c-0.1-0.7-0.8-1.2-1.5-1.2c-0.8,0-1.5,0.4-1.6,1.2H230z"/>
		<path class="st5" d="M236.5,583.6L236.5,583.6c0.7-0.9,1.4-1.2,2.5-1.2c2.1,0,2.9,1.3,2.9,3.2v4.8h-2.7v-3.8c0-0.7,0.1-2-1.2-2
			c-1.1,0-1.4,0.8-1.4,1.8v4h-2.7v-7.7h2.7v0.9H236.5z"/>
		<path class="st5" d="M251.6,586.9h-5.7c0,1.1,0.6,1.7,1.7,1.7c0.6,0,1-0.2,1.3-0.7h2.6c-0.2,0.9-0.8,1.6-1.5,2s-1.6,0.6-2.5,0.6
			c-2.6,0-4.5-1.4-4.5-4.1c0-2.6,1.8-4.1,4.3-4.1c2.7,0,4.2,1.6,4.2,4.3L251.6,586.9L251.6,586.9z M249,585.3
			c-0.1-0.7-0.8-1.2-1.5-1.2c-0.8,0-1.5,0.4-1.6,1.2H249z"/>
		<path class="st5" d="M257.9,584.6c-0.4-0.2-1-0.4-1.5-0.4c-0.3,0-0.9,0.1-0.9,0.5c0,0.5,0.9,0.6,1.2,0.7c1.3,0.3,2.2,0.9,2.2,2.3
			c0,2-1.8,2.9-3.6,2.9c-1.1,0-2.2-0.3-3.1-0.9l1-1.9c0.6,0.4,1.5,0.8,2.2,0.8c0.3,0,0.9-0.2,0.9-0.6c0-0.6-0.9-0.6-1.7-0.9
			c-0.9-0.2-1.7-0.6-1.7-2c0-1.9,1.7-2.7,3.4-2.7c0.9,0,1.7,0.1,2.5,0.5L257.9,584.6z"/>
		<path class="st5" d="M144.7,597h2.9l2.3,6l2.4-6h2.9l1.7,11.3H154l-0.8-6.5l0,0l-2.7,6.5h-1.2l-2.6-6.5l0,0l-0.9,6.5h-2.9
			L144.7,597z"/>
		<path class="st5" d="M160.8,600.6v4.1c0,1,0.2,1.7,1.4,1.7c1.1,0,1.4-0.7,1.4-1.7v-4.1h2.7v4.6c0,2.5-1.8,3.3-4.1,3.3
			s-4.1-0.8-4.1-3.3v-4.6H160.8z"/>
		<path class="st5" d="M170.7,601.6L170.7,601.6c0.7-0.9,1.4-1.2,2.5-1.2c2.1,0,2.9,1.3,2.9,3.2v4.8h-2.7v-3.8c0-0.7,0.1-2-1.2-2
			c-1.1,0-1.4,0.8-1.4,1.8v4H168v-7.7h2.7V601.6z"/>
		<path class="st5" d="M180.8,597.6c0,0.8-0.7,1.5-1.5,1.5s-1.5-0.7-1.5-1.5s0.7-1.5,1.5-1.5S180.8,596.8,180.8,597.6z M180.6,608.3
			h-2.7v-7.7h2.7V608.3z"/>
		<path class="st5" d="M188,603.1c-0.4-0.3-0.9-0.5-1.4-0.5c-1.1,0-1.9,0.8-1.9,1.9c0,1.1,0.8,1.9,1.9,1.9c0.5,0,1-0.2,1.4-0.5v2.3
			c-0.6,0.3-1.3,0.4-1.9,0.4c-2.3,0-4.2-1.7-4.2-4c0-2.5,1.9-4.2,4.3-4.2c0.6,0,1.3,0.2,1.8,0.4L188,603.1L188,603.1z"/>
		<path class="st5" d="M192.6,597.6c0,0.8-0.7,1.5-1.5,1.5s-1.5-0.7-1.5-1.5s0.7-1.5,1.5-1.5C191.9,596.1,192.6,596.8,192.6,597.6z
			 M192.4,608.3h-2.7v-7.7h2.7V608.3z"/>
		<path class="st5" d="M196.8,601.5L196.8,601.5c0.5-0.8,1.5-1.1,2.4-1.1c2.3,0,3.9,1.9,3.9,4.1c0,2.2-1.6,4.1-3.9,4.1
			c-0.9,0-1.8-0.3-2.4-1v4.6h-2.7v-11.5h2.7V601.5z M196.8,604.4c0,1,0.6,1.7,1.8,1.7s1.8-0.8,1.8-1.7s-0.6-1.7-1.8-1.7
			S196.8,603.5,196.8,604.4z"/>
		<path class="st5" d="M212.8,608.3h-2.7v-0.9l0,0c-0.5,0.8-1.4,1.1-2.3,1.1c-2.3,0-3.9-1.9-3.9-4.1c0-2.2,1.6-4.1,3.9-4.1
			c0.9,0,1.8,0.3,2.4,1v-0.7h2.7L212.8,608.3L212.8,608.3z M206.7,604.4c0,1,0.6,1.7,1.8,1.7c1.1,0,1.8-0.8,1.8-1.7
			s-0.6-1.7-1.8-1.7S206.7,603.5,206.7,604.4z"/>
		<path class="st5" d="M217.4,608.3h-2.7v-12.5h2.7V608.3z"/>
		<path class="st5" d="M227.1,604.9h-5.7c0,1.1,0.6,1.7,1.7,1.7c0.6,0,1-0.2,1.3-0.7h2.6c-0.2,0.9-0.8,1.6-1.5,2s-1.6,0.6-2.5,0.6
			c-2.6,0-4.5-1.4-4.5-4.1c0-2.6,1.8-4.1,4.3-4.1c2.7,0,4.2,1.6,4.2,4.3L227.1,604.9L227.1,604.9z M224.6,603.3
			c-0.1-0.7-0.8-1.2-1.5-1.2c-0.8,0-1.5,0.4-1.6,1.2H224.6z"/>
		<path class="st5" d="M233.4,602.6c-0.4-0.2-1-0.4-1.5-0.4c-0.3,0-0.9,0.1-0.9,0.5c0,0.5,0.9,0.6,1.2,0.7c1.3,0.3,2.2,0.9,2.2,2.3
			c0,2-1.8,2.9-3.6,2.9c-1.1,0-2.2-0.3-3.1-0.9l1-1.9c0.6,0.4,1.5,0.8,2.2,0.8c0.3,0,0.9-0.2,0.9-0.6c0-0.6-0.9-0.6-1.7-0.9
			c-0.9-0.2-1.7-0.6-1.7-2c0-1.9,1.7-2.7,3.4-2.7c0.9,0,1.7,0.1,2.5,0.5L233.4,602.6z"/>
	</g>
</g>
<polyline class="st0" points="482.9,200.6 767.9,200.6 767.9,231.3 "/>
<polyline class="st0" points="890.4,461.9 908.8,461.9 908.8,401.2 482.5,401.2 482.5,424.5 "/>
<polyline class="st0" points="188.8,623.7 188.8,654.3 483.7,654.3 483.7,623.7 "/>
<path class="st3" d="M501.8,21.6c0,8-5.8,13.7-13.8,13.7s-13.8-5.6-13.8-13.7c0-7.5,6.6-12.7,13.8-12.7
	C495.2,8.8,501.8,14.1,501.8,21.6z M481,21.6c0,4.3,3.2,7.4,7.1,7.4s7.1-3.1,7.1-7.4c0-3.5-3.2-6.6-7.1-6.6
	C484.1,15,481,18.2,481,21.6z M487.2,8.1l-2.7-1.9l4.7-5.6l3.7,2.6L487.2,8.1z"/>
</svg>
