<?xml version="1.0" encoding="utf-8"?>
<!-- Generator: Adobe Illustrator 21.0.2, SVG Export Plug-In . SVG Version: 6.00 Build 0)  -->
<svg version="1.1" id="Layer_1" xmlns="http://www.w3.org/2000/svg" xmlns:xlink="http://www.w3.org/1999/xlink" x="0px" y="0px"
	 viewBox="0 0 998.6 841" style="enable-background:new 0 0 998.6 841;" xml:space="preserve">
<style type="text/css">
	.st0{fill:none;stroke:#E42527;stroke-width:4;stroke-miterlimit:10;}
	.st1{fill:#D81117;}
	.st2{fill:#929191;}
	.st3{fill:#9D9D9C;}
	.st4{fill:#FFFFFF;}
	.st5{fill:#E42527;}
</style>
<line id="XMLID_2818_" class="st0" x1="497.8" y1="88.7" x2="497.8" y2="745.7"/>
<rect id="XMLID_2554_" x="99.6" y="409.6" class="st1" width="223.1" height="101"/>
<rect id="XMLID_2553_" x="99.6" y="611.2" class="st2" width="223.1" height="101"/>
<rect id="XMLID_2552_" x="387.8" y="0.2" class="st3" width="223.1" height="101"/>
<rect id="XMLID_2551_" x="663.8" y="131.2" class="st3" width="236.2" height="101"/>
<g id="XMLID_20410_">
	<g>
		<path id="XMLID_1161_" class="st4" d="M134.1,442.1l2.7-6.8h3.1l-4.8,11.1h-2.2l-4.7-11.1h3.1L134.1,442.1z"/>
		<path id="XMLID_1158_" class="st4" d="M145.7,437.4c0,1.5-1.4,2.4-3,2.4c-1.6,0-3-0.9-3-2.4c0-1.5,1.4-2.4,3-2.4
			C144.3,435,145.7,435.9,145.7,437.4z M141.6,437.4c0,0.6,0.5,1,1.1,1c0.6,0,1.1-0.4,1.1-1c0-0.6-0.5-1-1.1-1
			C142.1,436.4,141.6,436.9,141.6,437.4z"/>
		<path id="XMLID_1154_" class="st4" d="M151.7,446.4v-11.1h4.1c2,0,3.3,0.8,3.3,2.9c0,1-0.3,1.8-1.2,2.3v0c1.6,0.2,2.3,1.3,2.3,2.8
			c0,2.3-2,3.1-4,3.1H151.7z M154.6,439.7h0.3c0.8,0,1.6-0.1,1.6-1.1c0-1-0.9-1.1-1.7-1.1h-0.2V439.7z M154.6,444.2h0.4
			c0.9,0,2.3,0,2.3-1.2c0-1.3-1.4-1.2-2.4-1.2h-0.3V444.2z"/>
		<path id="XMLID_1151_" class="st4" d="M166.8,437.4c0,1.5-1.4,2.4-3,2.4s-3-0.9-3-2.4c0-1.5,1.4-2.4,3-2.4
			S166.8,435.9,166.8,437.4z M162.7,437.4c0,0.6,0.5,1,1.1,1c0.6,0,1.1-0.4,1.1-1c0-0.6-0.5-1-1.1-1
			C163.2,436.4,162.7,436.9,162.7,437.4z"/>
		<path id="XMLID_1148_" class="st4" d="M175.7,444.5l-0.8,1.9h-3.1l4.3-11.1h3.2l4.2,11.1h-3.1l-0.7-1.9H175.7z M177.7,438.8
			L177.7,438.8l-1.2,3.5h2.4L177.7,438.8z"/>
		<path id="XMLID_1145_" class="st4" d="M193.6,446.4H190l-2.7-4.3h0v4.3h-2.9v-11.1h4.3c2.2,0,3.9,1,3.9,3.4c0,1.5-0.9,2.9-2.4,3.1
			L193.6,446.4z M187.2,440.3h0.3c0.9,0,2-0.2,2-1.4c0-1.2-1.1-1.4-2-1.4h-0.3V440.3z"/>
		<path id="XMLID_1143_" class="st4" d="M197.3,437.8v1.9h3.3v2.4h-3.3v1.9h3.4v2.4h-6.3v-11.1h6.3v2.4H197.3z"/>
		<path id="XMLID_1140_" class="st4" d="M205.3,444.5l-0.8,1.9h-3.1l4.3-11.1h3.2l4.2,11.1H210l-0.7-1.9H205.3z M207.3,438.8
			L207.3,438.8l-1.2,3.5h2.4L207.3,438.8z"/>
		<path id="XMLID_1138_" class="st4" d="M223.5,446.4h-2.9v-8.7h-2.4v-2.4h7.7v2.4h-2.4V446.4z"/>
		<path id="XMLID_1136_" class="st4" d="M229.8,437.8v1.9h3.3v2.4h-3.3v1.9h3.4v2.4h-6.3v-11.1h6.3v2.4H229.8z"/>
		<path id="XMLID_1134_" class="st4" d="M243,439c-0.6-0.8-1.5-1.2-2.5-1.2c-1.8,0-3,1.4-3,3.1c0,1.8,1.2,3,3,3
			c0.9,0,1.9-0.5,2.5-1.2v3.5c-1,0.3-1.7,0.5-2.6,0.5c-1.5,0-3-0.6-4.2-1.6c-1.2-1.1-1.8-2.6-1.8-4.2c0-1.5,0.6-3,1.6-4.1
			c1.1-1.1,2.7-1.8,4.2-1.8c0.9,0,1.8,0.2,2.6,0.6V439z"/>
		<path id="XMLID_1132_" class="st4" d="M244.8,435.3h2.9l5.3,6.8h0v-6.8h2.9v11.1H253l-5.3-6.8h0v6.8h-2.9V435.3z"/>
		<path id="XMLID_1130_" class="st4" d="M260.7,446.4h-2.9v-11.1h2.9V446.4z"/>
		<path id="XMLID_1128_" class="st4" d="M270.5,439c-0.6-0.8-1.5-1.2-2.5-1.2c-1.8,0-3,1.4-3,3.1c0,1.8,1.2,3,3,3
			c0.9,0,1.9-0.5,2.5-1.2v3.5c-1,0.3-1.7,0.5-2.6,0.5c-1.5,0-3-0.6-4.2-1.6c-1.2-1.1-1.8-2.6-1.8-4.2c0-1.5,0.6-3,1.6-4.1
			c1.1-1.1,2.7-1.8,4.2-1.8c0.9,0,1.8,0.2,2.6,0.6V439z"/>
		<path id="XMLID_966_" class="st4" d="M275.1,444.5l-0.8,1.9h-3.1l4.3-11.1h3.2l4.2,11.1h-3.1l-0.7-1.9H275.1z M277.2,438.8
			L277.2,438.8l-1.2,3.5h2.4L277.2,438.8z"/>
		<path id="XMLID_964_" class="st4" d="M176.8,453h3.5l2.1,3l2.1-3h3.5l-4.1,5.8v5.3h-2.9v-5.3L176.8,453z"/>
		<path id="XMLID_962_" class="st4" d="M196.5,461.7h3.5v2.4h-6.4V453h2.9V461.7z"/>
		<path id="XMLID_960_" class="st4" d="M203.8,455.5v1.9h3.3v2.4h-3.3v1.9h3.4v2.4h-6.3V453h6.3v2.4H203.8z"/>
		<path id="XMLID_958_" class="st4" d="M220.1,457.9c0,1.6-0.1,3-1.1,4.4c-1.1,1.5-2.7,2.2-4.6,2.2c-3.5,0-5.9-2.4-5.9-5.9
			c0-3.6,2.4-6,6-6c2.3,0,4.1,1,5,3.1l-2.7,1.2c-0.4-1.1-1.2-1.8-2.4-1.8c-1.9,0-2.9,1.8-2.9,3.5c0,1.7,1,3.5,2.9,3.5
			c1.3,0,2.2-0.6,2.3-1.9h-2.4v-2.3H220.1z"/>
		<path id="XMLID_955_" class="st4" d="M224.3,462.2l-0.8,1.9h-3.1l4.3-11.1h3.2l4.2,11.1H229l-0.7-1.9H224.3z M226.3,456.5
			L226.3,456.5l-1.2,3.5h2.4L226.3,456.5z"/>
		<path id="XMLID_953_" class="st4" d="M235.9,461.7h3.5v2.4H233V453h2.9V461.7z"/>
		<path id="XMLID_950_" class="st4" d="M151.4,481.8h-3.6l-2.7-4.3h0v4.3h-2.9v-11.1h4.3c2.2,0,3.9,1,3.9,3.4c0,1.5-0.9,2.9-2.4,3.1
			L151.4,481.8z M145.1,475.7h0.3c0.9,0,2-0.2,2-1.4c0-1.2-1.1-1.4-2-1.4h-0.3V475.7z"/>
		<path id="XMLID_947_" class="st4" d="M159.9,478.5h-5.7c0,1.1,0.6,1.7,1.7,1.7c0.6,0,1-0.2,1.3-0.7h2.6c-0.2,0.9-0.7,1.5-1.4,2
			c-0.7,0.4-1.5,0.6-2.4,0.6c-2.5,0-4.4-1.4-4.4-4c0-2.5,1.7-4,4.2-4c2.6,0,4.1,1.6,4.1,4.2V478.5z M157.4,477
			c-0.1-0.7-0.8-1.2-1.5-1.2c-0.8,0-1.4,0.4-1.6,1.2H157.4z"/>
		<path id="XMLID_945_" class="st4" d="M164.9,478.2l1.8-3.9h3l-4,7.6H164l-4-7.6h3L164.9,478.2z"/>
		<path id="XMLID_942_" class="st4" d="M173.2,471.4c0,0.8-0.7,1.5-1.5,1.5c-0.8,0-1.5-0.7-1.5-1.5c0-0.8,0.7-1.5,1.5-1.5
			C172.5,469.9,173.2,470.5,173.2,471.4z M173,481.8h-2.7v-7.6h2.7V481.8z"/>
		<path id="XMLID_940_" class="st4" d="M179.8,476.2c-0.4-0.2-1-0.4-1.4-0.4c-0.3,0-0.8,0.1-0.8,0.5c0,0.5,0.8,0.6,1.2,0.7
			c1.3,0.3,2.2,0.8,2.2,2.2c0,2-1.8,2.8-3.6,2.8c-1.1,0-2.1-0.3-3.1-0.9l1-1.9c0.5,0.4,1.5,0.8,2.1,0.8c0.3,0,0.8-0.2,0.8-0.6
			c0-0.6-0.8-0.6-1.7-0.8c-0.8-0.2-1.7-0.6-1.7-2c0-1.9,1.7-2.7,3.3-2.7c0.9,0,1.7,0.1,2.5,0.5L179.8,476.2z"/>
		<path id="XMLID_937_" class="st4" d="M185.2,471.4c0,0.8-0.7,1.5-1.5,1.5c-0.8,0-1.5-0.7-1.5-1.5c0-0.8,0.7-1.5,1.5-1.5
			C184.5,469.9,185.2,470.5,185.2,471.4z M185.1,481.8h-2.7v-7.6h2.7V481.8z"/>
		<path id="XMLID_933_" class="st4" d="M195.4,478.1c0,2.6-2.1,4-4.6,4c-2.4,0-4.6-1.4-4.6-4c0-2.6,2.1-4,4.6-4
			S195.4,475.5,195.4,478.1z M189.1,478.1c0,1,0.6,1.7,1.7,1.7c1.1,0,1.7-0.7,1.7-1.7c0-0.9-0.6-1.7-1.7-1.7
			C189.7,476.4,189.1,477.1,189.1,478.1z M190.5,473.2l-1.2-0.9l2.1-2.5l1.6,1.2L190.5,473.2z"/>
		<path id="XMLID_931_" class="st4" d="M199.3,475.3L199.3,475.3c0.6-0.9,1.4-1.2,2.4-1.2c2,0,2.8,1.3,2.8,3.1v4.7h-2.7v-3.7
			c0-0.7,0.1-2-1.2-2c-1.1,0-1.4,0.8-1.4,1.8v3.9h-2.7v-7.6h2.7V475.3z"/>
		<path id="XMLID_928_" class="st4" d="M214,475.1L214,475.1c0.5-0.8,1.4-1.1,2.3-1.1c2.3,0,3.8,1.9,3.8,4.1c0,2.2-1.5,4-3.8,4
			c-0.9,0-1.8-0.3-2.3-1v4.5h-2.7v-11.3h2.7V475.1z M213.9,478.1c0,1,0.6,1.7,1.7,1.7c1.1,0,1.7-0.7,1.7-1.7c0-0.9-0.6-1.7-1.7-1.7
			C214.5,476.4,213.9,477.1,213.9,478.1z"/>
		<path id="XMLID_926_" class="st4" d="M224.1,475.5L224.1,475.5c0.5-0.9,1.4-1.3,2.5-1.3h0.5v2.6c-0.4-0.2-0.7-0.3-1.1-0.3
			c-1.5,0-1.9,1-1.9,2.3v3.1h-2.7v-7.6h2.7V475.5z"/>
		<path id="XMLID_923_" class="st4" d="M235.9,478.5h-5.7c0,1.1,0.6,1.7,1.7,1.7c0.6,0,1-0.2,1.3-0.7h2.6c-0.2,0.9-0.7,1.5-1.4,2
			c-0.7,0.4-1.5,0.6-2.4,0.6c-2.5,0-4.4-1.4-4.4-4c0-2.5,1.7-4,4.2-4c2.6,0,4.1,1.6,4.1,4.2V478.5z M233.4,477
			c-0.1-0.7-0.8-1.2-1.5-1.2c-0.8,0-1.4,0.4-1.6,1.2H233.4z"/>
		<path id="XMLID_921_" class="st4" d="M240.9,478.2l1.8-3.9h3l-4,7.6H240l-4-7.6h3L240.9,478.2z"/>
		<path id="XMLID_900_" class="st4" d="M249.2,471.4c0,0.8-0.7,1.5-1.5,1.5c-0.8,0-1.5-0.7-1.5-1.5c0-0.8,0.7-1.5,1.5-1.5
			C248.5,469.9,249.2,470.5,249.2,471.4z M249,481.8h-2.7v-7.6h2.7V481.8z"/>
		<path id="XMLID_897_" class="st4" d="M259.1,481.8h-2.7V481h0c-0.5,0.8-1.4,1.1-2.3,1.1c-2.2,0-3.8-1.9-3.8-4s1.5-4,3.8-4
			c0.9,0,1.8,0.3,2.3,1v-0.7h2.7V481.8z M253,478.1c0,1,0.6,1.7,1.7,1.7c1.1,0,1.7-0.7,1.7-1.7c0-0.9-0.6-1.7-1.7-1.7
			C253.6,476.4,253,477.1,253,478.1z"/>
		<path id="XMLID_895_" class="st4" d="M264.2,480.4c0,0.9-0.8,1.7-1.7,1.7c-1,0-1.7-0.8-1.7-1.7c0-1,0.8-1.7,1.7-1.7
			C263.5,478.7,264.2,479.5,264.2,480.4z"/>
	</g>
</g>
<g id="XMLID_20375_">
	<g>
		<path id="XMLID_296_" class="st4" d="M136.1,663.4l2.7-6.8h3.1l-4.8,11.1H135l-4.7-11.1h3.1L136.1,663.4z"/>
		<path id="XMLID_294_" class="st4" d="M145.6,659.1v1.9h3.3v2.4h-3.3v1.9h3.4v2.4h-6.3v-11.1h6.3v2.4H145.6z"/>
		<path id="XMLID_292_" class="st4" d="M150.8,656.6h2.9l5.3,6.8h0v-6.8h2.9v11.1H159l-5.3-6.8h0v6.8h-2.9V656.6z"/>
		<path id="XMLID_290_" class="st4" d="M168.2,667.7h-2.9v-8.7h-2.4v-2.4h7.7v2.4h-2.4V667.7z"/>
		<path id="XMLID_287_" class="st4" d="M173.6,665.8l-0.8,1.9h-3.1l4.3-11.1h3.2l4.2,11.1h-3.1l-0.7-1.9H173.6z M175.6,660
			L175.6,660l-1.2,3.5h2.4L175.6,660z"/>
		<path id="XMLID_285_" class="st4" d="M182.3,656.6h2.9l5.3,6.8h0v-6.8h2.9v11.1h-2.9l-5.3-6.8h0v6.8h-2.9V656.6z"/>
		<path id="XMLID_283_" class="st4" d="M198.2,667.7h-2.9v-11.1h2.9V667.7z"/>
		<path id="XMLID_281_" class="st4" d="M203,665.3h3.5v2.4h-6.4v-11.1h2.9V665.3z"/>
		<path id="XMLID_279_" class="st4" d="M210.3,665.3h3.5v2.4h-6.4v-11.1h2.9V665.3z"/>
		<path id="XMLID_276_" class="st4" d="M217.5,665.8l-0.8,1.9h-3.1l4.3-11.1h3.2l4.2,11.1h-3.1l-0.7-1.9H217.5z M219.5,660
			L219.5,660l-1.2,3.5h2.4L219.5,660z"/>
		<path id="XMLID_273_" class="st4" d="M240.9,656.6v6.3c0,1.4-0.1,2.8-1.2,3.9c-0.9,0.9-2.4,1.2-3.7,1.2c-1.3,0-2.8-0.3-3.7-1.2
			c-1.1-1.1-1.2-2.5-1.2-3.9v-6.3h2.9v5.9c0,1.4,0.1,3,2,3s2-1.6,2-3v-5.9H240.9z M235.7,655.9l-1.2-0.9l2.1-2.5l1.6,1.2
			L235.7,655.9z"/>
		<path id="XMLID_271_" class="st4" d="M242.7,656.6h2.9l5.3,6.8h0v-6.8h2.9v11.1h-2.9l-5.3-6.8h0v6.8h-2.9V656.6z"/>
		<path id="XMLID_269_" class="st4" d="M258.6,667.7h-2.9v-11.1h2.9V667.7z"/>
		<path id="XMLID_267_" class="st4" d="M268.5,660.3c-0.6-0.8-1.5-1.2-2.5-1.2c-1.8,0-3,1.4-3,3.1c0,1.8,1.2,3,3,3
			c0.9,0,1.9-0.5,2.5-1.2v3.5c-1,0.3-1.7,0.5-2.6,0.5c-1.5,0-3-0.6-4.2-1.6c-1.2-1.1-1.8-2.6-1.8-4.2c0-1.5,0.6-3,1.6-4.1
			c1.1-1.1,2.7-1.8,4.2-1.8c0.9,0,1.8,0.2,2.6,0.6V660.3z"/>
		<path id="XMLID_264_" class="st4" d="M273.1,665.8l-0.8,1.9h-3.1l4.3-11.1h3.2l4.2,11.1h-3.1l-0.7-1.9H273.1z M275.1,660
			L275.1,660l-1.2,3.5h2.4L275.1,660z"/>
	</g>
</g>
<g id="XMLID_20314_">
	<g>
		<path id="XMLID_597_" class="st4" d="M459.7,33.9l-0.8,1.9h-3.1l4.3-11.1h3.2l4.2,11.1h-3.1l-0.7-1.9H459.7z M461.7,28.1
			L461.7,28.1l-1.2,3.5h2.4L461.7,28.1z"/>
		<path id="XMLID_593_" class="st4" d="M468.4,35.8V24.7h4.1c2,0,3.3,0.8,3.3,2.9c0,1-0.3,1.8-1.2,2.3v0c1.6,0.2,2.3,1.3,2.3,2.8
			c0,2.3-2,3.1-4,3.1H468.4z M471.3,29.1h0.3c0.8,0,1.6-0.1,1.6-1.1c0-1-0.9-1.1-1.7-1.1h-0.2V29.1z M471.3,33.6h0.4
			c0.9,0,2.3,0,2.3-1.2c0-1.3-1.4-1.2-2.4-1.2h-0.3V33.6z"/>
		<path id="XMLID_590_" class="st4" d="M490.1,30.1c0,3.6-2.6,6.1-6.2,6.1c-3.6,0-6.2-2.5-6.2-6.1c0-3.4,3-5.7,6.2-5.7
			C487.2,24.3,490.1,26.7,490.1,30.1z M480.8,30.1c0,1.9,1.4,3.3,3.1,3.3c1.7,0,3.1-1.4,3.1-3.3c0-1.5-1.4-2.9-3.1-2.9
			C482.2,27.1,480.8,28.5,480.8,30.1z"/>
		<path id="XMLID_588_" class="st4" d="M502.5,29.6c0,1.6-0.1,3-1.1,4.4c-1.1,1.5-2.7,2.2-4.6,2.2c-3.5,0-5.9-2.4-5.9-5.9
			c0-3.6,2.4-6,6-6c2.3,0,4.1,1,5,3.1l-2.7,1.2c-0.4-1.1-1.2-1.8-2.4-1.8c-1.9,0-2.9,1.8-2.9,3.5c0,1.7,1,3.5,2.9,3.5
			c1.3,0,2.2-0.6,2.3-1.9h-2.4v-2.3H502.5z"/>
		<path id="XMLID_585_" class="st4" d="M506.7,33.9l-0.8,1.9h-3.1l4.3-11.1h3.2l4.2,11.1h-3.1l-0.7-1.9H506.7z M508.7,28.1
			L508.7,28.1l-1.2,3.5h2.4L508.7,28.1z"/>
		<path id="XMLID_582_" class="st4" d="M515.4,24.7h4.1c3.1,0,5.7,2.4,5.7,5.6c0,3.1-2.6,5.6-5.7,5.6h-4.1V24.7z M518.3,33.4h0.6
			c1.7,0,3.2-0.9,3.2-3.1c0-2-1.3-3.1-3.2-3.1h-0.7V33.4z"/>
		<path id="XMLID_579_" class="st4" d="M538.2,30.1c0,3.6-2.6,6.1-6.2,6.1c-3.6,0-6.2-2.5-6.2-6.1c0-3.4,3-5.7,6.2-5.7
			C535.3,24.3,538.2,26.7,538.2,30.1z M528.9,30.1c0,1.9,1.4,3.3,3.1,3.3c1.7,0,3.1-1.4,3.1-3.3c0-1.5-1.4-2.9-3.1-2.9
			C530.4,27.1,528.9,28.5,528.9,30.1z"/>
		<path id="XMLID_577_" class="st4" d="M461.7,42.4v6.3c0,1.4-0.1,2.8-1.2,3.9c-0.9,0.9-2.4,1.2-3.7,1.2s-2.8-0.3-3.7-1.2
			c-1.1-1.1-1.2-2.5-1.2-3.9v-6.3h2.9v5.9c0,1.4,0.1,3,2,3c1.9,0,2-1.6,2-3v-5.9H461.7z"/>
		<path id="XMLID_546_" class="st4" d="M472.7,53.5h-3.6l-2.7-4.3h0v4.3h-2.9V42.4h4.3c2.2,0,3.9,1,3.9,3.4c0,1.5-0.9,2.9-2.4,3.1
			L472.7,53.5z M466.4,47.4h0.3c0.9,0,2-0.2,2-1.4c0-1.2-1.1-1.4-2-1.4h-0.3V47.4z"/>
		<path id="XMLID_542_" class="st4" d="M473.5,53.5V42.4h4.1c2,0,3.3,0.8,3.3,2.9c0,1-0.3,1.8-1.2,2.3v0c1.6,0.2,2.3,1.3,2.3,2.8
			c0,2.3-2,3.1-4,3.1H473.5z M476.4,46.8h0.3c0.8,0,1.6-0.1,1.6-1.1c0-1-0.9-1.1-1.7-1.1h-0.2V46.8z M476.4,51.3h0.4
			c0.9,0,2.3,0,2.3-1.2c0-1.3-1.4-1.2-2.4-1.2h-0.3V51.3z"/>
		<path id="XMLID_539_" class="st4" d="M486.3,51.6l-0.8,1.9h-3.1l4.3-11.1h3.2l4.2,11.1H491l-0.7-1.9H486.3z M488.4,45.8
			L488.4,45.8l-1.2,3.5h2.4L488.4,45.8z"/>
		<path id="XMLID_537_" class="st4" d="M495,42.4h2.9l5.3,6.8h0v-6.8h2.9v11.1h-2.9l-5.3-6.8h0v6.8H495V42.4z"/>
		<path id="XMLID_535_" class="st4" d="M510.9,53.5H508V42.4h2.9V53.5z"/>
		<path id="XMLID_533_" class="st4" d="M518.9,45.3c-0.5-0.4-1.2-0.7-1.9-0.7c-0.5,0-1.2,0.3-1.2,0.9c0,0.6,0.8,0.9,1.3,1.1l0.7,0.2
			c1.5,0.5,2.7,1.2,2.7,3c0,1.1-0.3,2.2-1.2,3c-0.9,0.7-2,1-3.2,1c-1.4,0-2.8-0.5-3.9-1.3l1.2-2.3c0.7,0.6,1.6,1.2,2.6,1.2
			c0.7,0,1.4-0.3,1.4-1.1c0-0.8-1.1-1.1-1.8-1.3c-1.8-0.5-3-1-3-3.1c0-2.3,1.6-3.7,3.8-3.7c1.1,0,2.5,0.4,3.5,0.9L518.9,45.3z"/>
		<path id="XMLID_531_" class="st4" d="M523.1,42.4h2.8l2.3,5.9l2.4-5.9h2.9l1.7,11.1h-2.9l-0.8-6.4h0l-2.7,6.4h-1.2l-2.6-6.4h0
			l-0.9,6.4h-2.9L523.1,42.4z"/>
		<path id="XMLID_528_" class="st4" d="M548.1,47.8c0,3.6-2.6,6.1-6.2,6.1s-6.2-2.5-6.2-6.1c0-3.4,3-5.7,6.2-5.7
			S548.1,44.4,548.1,47.8z M538.8,47.8c0,1.9,1.4,3.3,3.1,3.3s3.1-1.4,3.1-3.3c0-1.5-1.4-2.9-3.1-2.9S538.8,46.2,538.8,47.8z"/>
		<path id="XMLID_526_" class="st4" d="M473.5,71.2h-2.9V60.1h2.9V71.2z"/>
		<path id="XMLID_524_" class="st4" d="M478,64.6L478,64.6c0.6-0.9,1.4-1.2,2.4-1.2c2,0,2.8,1.3,2.8,3.1v4.7h-2.7v-3.7
			c0-0.7,0.1-2-1.2-2c-1.1,0-1.4,0.8-1.4,1.8v3.9h-2.7v-7.6h2.7V64.6z"/>
		<path id="XMLID_522_" class="st4" d="M488,71.2h-2.7v-5.4h-0.9v-2.2h0.9v-1c0-1,0-1.8,0.8-2.7c0.7-0.8,1.6-1.2,2.6-1.2
			c0.4,0,0.8,0.1,1.2,0.3v2.3c-0.3-0.1-0.6-0.3-0.9-0.3c-0.7,0-0.9,0.4-0.9,1.3v1.2h1.9v2.2H488V71.2z"/>
		<path id="XMLID_519_" class="st4" d="M499.4,67.5c0,2.6-2.1,4-4.6,4c-2.4,0-4.6-1.4-4.6-4c0-2.6,2.1-4,4.6-4
			C497.2,63.4,499.4,64.9,499.4,67.5z M493.1,67.5c0,1,0.6,1.7,1.7,1.7c1.1,0,1.7-0.7,1.7-1.7c0-0.9-0.6-1.7-1.7-1.7
			C493.7,65.7,493.1,66.5,493.1,67.5z"/>
		<path id="XMLID_517_" class="st4" d="M503.2,64.9L503.2,64.9c0.5-0.9,1.4-1.3,2.5-1.3h0.5v2.6c-0.4-0.2-0.7-0.3-1.1-0.3
			c-1.5,0-1.9,1-1.9,2.3v3.1h-2.7v-7.6h2.7V64.9z"/>
		<path id="XMLID_515_" class="st4" d="M509.9,64.6L509.9,64.6c0.7-0.8,1.4-1.2,2.4-1.2c1.1,0,2,0.4,2.6,1.4
			c0.5-0.9,1.5-1.4,2.6-1.4c1.9,0,2.6,1.3,2.6,3v4.8h-2.7v-3.6c0-0.8,0-2.1-1.1-2.1c-1.2,0-1.3,1.2-1.3,2.1v3.6h-2.7v-3.6
			c0-0.8,0-2.1-1.2-2.1c-1.2,0-1.2,1.3-1.2,2.1v3.6h-2.7v-7.6h2.7V64.6z"/>
		<path id="XMLID_512_" class="st4" d="M529.6,67.9H524c0,1.1,0.6,1.7,1.7,1.7c0.6,0,1-0.2,1.3-0.7h2.6c-0.2,0.9-0.7,1.5-1.4,2
			c-0.7,0.4-1.5,0.6-2.4,0.6c-2.5,0-4.4-1.4-4.4-4c0-2.5,1.7-4,4.2-4c2.6,0,4.1,1.6,4.1,4.2V67.9z M527.1,66.4
			c-0.1-0.7-0.8-1.2-1.5-1.2c-0.8,0-1.4,0.4-1.6,1.2H527.1z"/>
	</g>
</g>
<g id="XMLID_20254_">
	<g>
		<path id="XMLID_574_" class="st4" d="M720.6,169.3c-0.6-0.8-1.5-1.2-2.5-1.2c-1.8,0-3,1.4-3,3.1c0,1.8,1.2,3,3,3
			c0.9,0,1.9-0.5,2.5-1.2v3.5c-1,0.3-1.7,0.5-2.6,0.5c-1.5,0-3-0.6-4.2-1.6c-1.2-1.1-1.8-2.6-1.8-4.2c0-1.5,0.6-3,1.6-4.1
			c1.1-1.1,2.7-1.8,4.2-1.8c0.9,0,1.8,0.2,2.6,0.6V169.3z"/>
		<path id="XMLID_571_" class="st4" d="M734.1,170.9c0,3.6-2.6,6.1-6.2,6.1c-3.6,0-6.2-2.5-6.2-6.1c0-3.4,3-5.7,6.2-5.7
			S734.1,167.5,734.1,170.9z M724.8,170.9c0,1.9,1.4,3.3,3.1,3.3c1.7,0,3.1-1.4,3.1-3.3c0-1.5-1.4-2.9-3.1-2.9
			C726.3,168,724.8,169.4,724.8,170.9z"/>
		<path id="XMLID_569_" class="st4" d="M735.5,165.5h2.9l5.3,6.8h0v-6.8h2.9v11.1h-2.9l-5.3-6.8h0v6.8h-2.9V165.5z"/>
		<path id="XMLID_567_" class="st4" d="M752.9,176.7H750V168h-2.4v-2.4h7.7v2.4h-2.4V176.7z"/>
		<path id="XMLID_564_" class="st4" d="M765.6,176.7H762l-2.7-4.3h0v4.3h-2.9v-11.1h4.3c2.2,0,3.9,1,3.9,3.4c0,1.5-0.9,2.9-2.4,3.1
			L765.6,176.7z M759.2,170.5h0.3c0.9,0,2-0.2,2-1.4c0-1.2-1.1-1.4-2-1.4h-0.3V170.5z"/>
		<path id="XMLID_562_" class="st4" d="M769.3,176.7h-2.9v-11.1h2.9V176.7z"/>
		<path id="XMLID_558_" class="st4" d="M771.2,176.7v-11.1h4.1c2,0,3.3,0.8,3.3,2.9c0,1-0.3,1.8-1.2,2.3v0c1.6,0.2,2.3,1.3,2.3,2.8
			c0,2.3-2,3.1-4,3.1H771.2z M774,169.9h0.3c0.8,0,1.6-0.1,1.6-1.1c0-1-0.9-1.1-1.7-1.1H774V169.9z M774,174.4h0.4
			c0.9,0,2.3,0,2.3-1.2c0-1.3-1.4-1.2-2.4-1.2H774V174.4z"/>
		<path id="XMLID_556_" class="st4" d="M790.8,165.5v6.3c0,1.4-0.1,2.8-1.2,3.9c-0.9,0.9-2.4,1.2-3.7,1.2c-1.3,0-2.8-0.3-3.7-1.2
			c-1.1-1.1-1.2-2.5-1.2-3.9v-6.3h2.9v5.9c0,1.4,0.1,3,2,3c1.9,0,2-1.6,2-3v-5.9H790.8z"/>
		<path id="XMLID_554_" class="st4" d="M791.4,165.5h3.5l2.1,3l2.1-3h3.5l-4.1,5.8v5.3h-2.9v-5.3L791.4,165.5z"/>
		<path id="XMLID_552_" class="st4" d="M806,168v1.9h3.3v2.4H806v1.9h3.4v2.4h-6.3v-11.1h6.3v2.4H806z"/>
		<path id="XMLID_550_" class="st4" d="M811.3,165.5h2.9l5.3,6.8h0v-6.8h2.9v11.1h-2.9l-5.3-6.8h0v6.8h-2.9V165.5z"/>
		<path id="XMLID_548_" class="st4" d="M828.7,176.7h-2.9V168h-2.4v-2.4h7.7v2.4h-2.4V176.7z"/>
		<path id="XMLID_503_" class="st4" d="M835,168v1.9h3.3v2.4H835v1.9h3.4v2.4h-6.3v-11.1h6.3v2.4H835z"/>
		<path id="XMLID_501_" class="st4" d="M736.1,187c-0.6-0.8-1.5-1.2-2.5-1.2c-1.8,0-3,1.4-3,3.1c0,1.8,1.2,3,3,3
			c0.9,0,1.9-0.5,2.5-1.2v3.5c-1,0.3-1.7,0.5-2.6,0.5c-1.5,0-3-0.6-4.2-1.6c-1.2-1.1-1.8-2.6-1.8-4.2c0-1.5,0.6-3,1.6-4.1
			c1.1-1.1,2.7-1.8,4.2-1.8c0.9,0,1.8,0.2,2.6,0.6V187z"/>
		<path id="XMLID_498_" class="st4" d="M746.4,190.6c0,2.6-2.1,4-4.6,4c-2.4,0-4.6-1.4-4.6-4c0-2.6,2.1-4,4.6-4
			C744.2,186.5,746.4,188,746.4,190.6z M740.1,190.6c0,1,0.6,1.7,1.7,1.7c1.1,0,1.7-0.7,1.7-1.7c0-0.9-0.6-1.7-1.7-1.7
			C740.7,188.9,740.1,189.7,740.1,190.6z"/>
		<path id="XMLID_496_" class="st4" d="M750.2,188L750.2,188c0.5-0.9,1.4-1.3,2.5-1.3h0.5v2.6c-0.4-0.2-0.7-0.3-1.1-0.3
			c-1.5,0-1.9,1-1.9,2.3v3.1h-2.7v-7.6h2.7V188z"/>
		<path id="XMLID_494_" class="st4" d="M756.9,188L756.9,188c0.5-0.9,1.4-1.3,2.5-1.3h0.5v2.6c-0.4-0.2-0.7-0.3-1.1-0.3
			c-1.5,0-1.9,1-1.9,2.3v3.1h-2.7v-7.6h2.7V188z"/>
		<path id="XMLID_491_" class="st4" d="M768.7,191h-5.7c0,1.1,0.6,1.7,1.7,1.7c0.6,0,1-0.2,1.3-0.7h2.6c-0.2,0.9-0.7,1.5-1.4,2
			c-0.7,0.4-1.5,0.6-2.4,0.6c-2.5,0-4.4-1.4-4.4-4c0-2.5,1.7-4,4.2-4c2.6,0,4.1,1.6,4.1,4.2V191z M766.2,189.5
			c-0.1-0.7-0.8-1.2-1.5-1.2c-0.8,0-1.4,0.4-1.6,1.2H766.2z"/>
		<path id="XMLID_489_" class="st4" d="M775.4,189.3c-0.4-0.3-0.9-0.5-1.4-0.5c-1,0-1.8,0.8-1.8,1.8c0,1.1,0.8,1.9,1.9,1.9
			c0.5,0,1-0.2,1.3-0.5v2.3c-0.6,0.3-1.2,0.4-1.9,0.4c-2.2,0-4.1-1.7-4.1-4c0-2.4,1.9-4.1,4.2-4.1c0.6,0,1.2,0.1,1.8,0.4V189.3z"/>
		<path id="XMLID_487_" class="st4" d="M782.5,189.3c-0.4-0.3-0.9-0.5-1.4-0.5c-1,0-1.8,0.8-1.8,1.8c0,1.1,0.8,1.9,1.9,1.9
			c0.5,0,1-0.2,1.3-0.5v2.3c-0.6,0.3-1.2,0.4-1.9,0.4c-2.2,0-4.1-1.7-4.1-4c0-2.4,1.9-4.1,4.2-4.1c0.6,0,1.2,0.1,1.8,0.4V189.3z"/>
		<path id="XMLID_484_" class="st4" d="M787,183.9c0,0.8-0.7,1.5-1.5,1.5c-0.8,0-1.5-0.7-1.5-1.5c0-0.8,0.7-1.5,1.5-1.5
			C786.3,182.4,787,183.1,787,183.9z M786.9,194.4h-2.7v-7.6h2.7V194.4z"/>
		<path id="XMLID_481_" class="st4" d="M797.2,190.6c0,2.6-2.1,4-4.6,4c-2.4,0-4.6-1.4-4.6-4c0-2.6,2.1-4,4.6-4
			C795.1,186.5,797.2,188,797.2,190.6z M790.9,190.6c0,1,0.6,1.7,1.7,1.7c1.1,0,1.7-0.7,1.7-1.7c0-0.9-0.6-1.7-1.7-1.7
			C791.5,188.9,790.9,189.7,790.9,190.6z"/>
		<path id="XMLID_479_" class="st4" d="M801.1,187.8L801.1,187.8c0.6-0.9,1.4-1.2,2.4-1.2c2,0,2.8,1.3,2.8,3.1v4.7h-2.7v-3.7
			c0-0.7,0.1-2-1.2-2c-1.1,0-1.4,0.8-1.4,1.8v3.9h-2.7v-7.6h2.7V187.8z"/>
		<path id="XMLID_476_" class="st4" d="M815.9,191h-5.7c0,1.1,0.6,1.7,1.7,1.7c0.6,0,1-0.2,1.3-0.7h2.6c-0.2,0.9-0.7,1.5-1.4,2
			c-0.7,0.4-1.5,0.6-2.4,0.6c-2.5,0-4.4-1.4-4.4-4c0-2.5,1.7-4,4.2-4c2.6,0,4.1,1.6,4.1,4.2V191z M813.4,189.5
			c-0.1-0.7-0.8-1.2-1.5-1.2c-0.8,0-1.4,0.4-1.6,1.2H813.4z"/>
		<path id="XMLID_474_" class="st4" d="M822.1,188.7c-0.4-0.2-1-0.4-1.4-0.4c-0.3,0-0.8,0.1-0.8,0.5c0,0.5,0.8,0.6,1.2,0.7
			c1.3,0.3,2.2,0.8,2.2,2.2c0,2-1.8,2.8-3.6,2.8c-1.1,0-2.1-0.3-3.1-0.9l1-1.9c0.5,0.4,1.5,0.8,2.1,0.8c0.3,0,0.8-0.2,0.8-0.6
			c0-0.6-0.8-0.6-1.7-0.8c-0.8-0.2-1.7-0.6-1.7-2c0-1.9,1.7-2.7,3.3-2.7c0.9,0,1.7,0.1,2.5,0.5L822.1,188.7z"/>
	</g>
</g>
<rect id="XMLID_2546_" x="387.8" y="131.2" class="st3" width="223.1" height="101"/>
<g id="XMLID_20178_">
	<g>
		<path id="XMLID_779_" class="st4" d="M454.1,178.4h-2.9v-8.7h-2.4v-2.4h7.7v2.4h-2.4V178.4z"/>
		<path id="XMLID_776_" class="st4" d="M469.3,172.7c0,3.6-2.6,6.1-6.2,6.1s-6.2-2.5-6.2-6.1c0-3.4,3-5.7,6.2-5.7
			S469.3,169.3,469.3,172.7z M460,172.7c0,1.9,1.4,3.3,3.1,3.3s3.1-1.4,3.1-3.3c0-1.5-1.4-2.9-3.1-2.9S460,171.2,460,172.7z"/>
		<path id="XMLID_773_" class="st4" d="M470.7,167.3h4.4c2.4,0,4,1.1,4,3.7c0,2.6-1.4,3.8-3.9,3.8h-1.6v3.7h-2.9V167.3z
			 M473.6,172.4h0.5c1,0,2.1,0,2.1-1.4c0-1.4-1-1.4-2.1-1.4h-0.5V172.4z"/>
		<path id="XMLID_770_" class="st4" d="M492.2,172.7c0,3.6-2.6,6.1-6.2,6.1c-3.6,0-6.2-2.5-6.2-6.1c0-3.4,3-5.7,6.2-5.7
			C489.2,166.9,492.2,169.3,492.2,172.7z M482.9,172.7c0,1.9,1.4,3.3,3.1,3.3c1.7,0,3.1-1.4,3.1-3.3c0-1.5-1.4-2.9-3.1-2.9
			C484.3,169.7,482.9,171.2,482.9,172.7z"/>
		<path id="XMLID_768_" class="st4" d="M504.6,172.2c0,1.6-0.1,3-1.1,4.4c-1.1,1.5-2.7,2.2-4.6,2.2c-3.5,0-5.9-2.4-5.9-5.9
			c0-3.6,2.4-6,6-6c2.3,0,4.1,1,5,3.1l-2.7,1.2c-0.4-1.1-1.2-1.8-2.4-1.8c-1.9,0-2.9,1.8-2.9,3.5c0,1.7,1,3.5,2.9,3.5
			c1.3,0,2.2-0.6,2.3-1.9h-2.4v-2.3H504.6z"/>
		<path id="XMLID_765_" class="st4" d="M515.2,178.4h-3.6l-2.7-4.3h0v4.3h-2.9v-11.1h4.3c2.2,0,3.9,1,3.9,3.4c0,1.5-0.9,2.9-2.4,3.1
			L515.2,178.4z M508.8,172.3h0.3c0.9,0,2-0.2,2-1.4c0-1.2-1.1-1.4-2-1.4h-0.3V172.3z"/>
		<path id="XMLID_762_" class="st4" d="M518.8,176.5l-0.8,1.9H515l4.3-11.1h3.2l4.2,11.1h-3.1l-0.7-1.9H518.8z M520.8,170.8
			L520.8,170.8l-1.2,3.5h2.4L520.8,170.8z"/>
		<path id="XMLID_760_" class="st4" d="M530.4,169.8v1.9h3.2v2.4h-3.2v4.4h-2.9v-11.1h6.4v2.4H530.4z"/>
		<path id="XMLID_758_" class="st4" d="M538.4,178.4h-2.9v-11.1h2.9V178.4z"/>
		<path id="XMLID_755_" class="st4" d="M543.1,176.5l-0.8,1.9h-3.1l4.3-11.1h3.2l4.2,11.1h-3.1l-0.7-1.9H543.1z M545.1,170.8
			L545.1,170.8l-1.2,3.5h2.4L545.1,170.8z"/>
		<path id="XMLID_753_" class="st4" d="M426.5,196.1h-2.9V185h2.9V196.1z"/>
		<path id="XMLID_751_" class="st4" d="M431,189.5L431,189.5c0.6-0.9,1.4-1.2,2.4-1.2c2,0,2.8,1.3,2.8,3.1v4.7h-2.7v-3.7
			c0-0.7,0.1-2-1.2-2c-1.1,0-1.4,0.8-1.4,1.8v3.9h-2.7v-7.6h2.7V189.5z"/>
		<path id="XMLID_749_" class="st4" d="M443,190.5c-0.4-0.2-1-0.4-1.4-0.4c-0.3,0-0.8,0.1-0.8,0.5c0,0.5,0.8,0.6,1.2,0.7
			c1.3,0.3,2.2,0.8,2.2,2.2c0,2-1.8,2.8-3.6,2.8c-1.1,0-2.1-0.3-3.1-0.9l1-1.9c0.5,0.4,1.5,0.8,2.1,0.8c0.3,0,0.8-0.2,0.8-0.6
			c0-0.6-0.8-0.6-1.7-0.8c-0.8-0.2-1.7-0.6-1.7-2c0-1.9,1.7-2.7,3.3-2.7c0.9,0,1.7,0.1,2.5,0.5L443,190.5z"/>
		<path id="XMLID_746_" class="st4" d="M448.2,189.4L448.2,189.4c0.5-0.8,1.4-1.1,2.3-1.1c2.3,0,3.8,1.9,3.8,4.1c0,2.2-1.5,4-3.8,4
			c-0.9,0-1.8-0.3-2.3-1v4.5h-2.7v-11.3h2.7V189.4z M448.1,192.4c0,1,0.6,1.7,1.7,1.7c1.1,0,1.7-0.7,1.7-1.7c0-0.9-0.6-1.7-1.7-1.7
			C448.7,190.7,448.1,191.4,448.1,192.4z"/>
		<path id="XMLID_743_" class="st4" d="M463.4,192.8h-5.7c0,1.1,0.6,1.7,1.7,1.7c0.6,0,1-0.2,1.3-0.7h2.6c-0.2,0.9-0.7,1.5-1.4,2
			c-0.7,0.4-1.5,0.6-2.4,0.6c-2.5,0-4.4-1.4-4.4-4c0-2.5,1.7-4,4.2-4c2.6,0,4.1,1.6,4.1,4.2V192.8z M460.9,191.3
			c-0.1-0.7-0.8-1.2-1.5-1.2c-0.8,0-1.4,0.4-1.6,1.2H460.9z"/>
		<path id="XMLID_741_" class="st4" d="M470.1,191c-0.4-0.3-0.9-0.5-1.4-0.5c-1,0-1.8,0.8-1.8,1.8c0,1.1,0.8,1.9,1.9,1.9
			c0.5,0,1-0.2,1.3-0.5v2.3c-0.6,0.3-1.2,0.4-1.9,0.4c-2.2,0-4.1-1.7-4.1-4c0-2.4,1.9-4.1,4.2-4.1c0.6,0,1.2,0.1,1.8,0.4V191z"/>
		<path id="XMLID_739_" class="st4" d="M477.2,191c-0.4-0.3-0.9-0.5-1.4-0.5c-1,0-1.8,0.8-1.8,1.8c0,1.1,0.8,1.9,1.9,1.9
			c0.5,0,1-0.2,1.3-0.5v2.3c-0.6,0.3-1.2,0.4-1.9,0.4c-2.2,0-4.1-1.7-4.1-4c0-2.4,1.9-4.1,4.2-4.1c0.6,0,1.2,0.1,1.8,0.4V191z"/>
		<path id="XMLID_736_" class="st4" d="M481.8,185.7c0,0.8-0.7,1.5-1.5,1.5c-0.8,0-1.5-0.7-1.5-1.5c0-0.8,0.7-1.5,1.5-1.5
			C481.1,184.2,481.8,184.8,481.8,185.7z M481.6,196.1h-2.7v-7.6h2.7V196.1z"/>
		<path id="XMLID_732_" class="st4" d="M491.9,192.4c0,2.6-2.1,4-4.6,4c-2.4,0-4.6-1.4-4.6-4s2.1-4,4.6-4
			C489.8,188.3,491.9,189.8,491.9,192.4z M485.6,192.4c0,1,0.6,1.7,1.7,1.7c1.1,0,1.7-0.7,1.7-1.7c0-0.9-0.6-1.7-1.7-1.7
			C486.3,190.7,485.6,191.4,485.6,192.4z M487.1,187.5l-1.2-0.9l2.1-2.5l1.6,1.2L487.1,187.5z"/>
		<path id="XMLID_730_" class="st4" d="M495.8,189.5L495.8,189.5c0.6-0.9,1.4-1.2,2.4-1.2c2,0,2.8,1.3,2.8,3.1v4.7h-2.7v-3.7
			c0-0.7,0.1-2-1.2-2c-1.1,0-1.4,0.8-1.4,1.8v3.9h-2.7v-7.6h2.7V189.5z"/>
		<path id="XMLID_728_" class="st4" d="M507,190.3v2.2h-4.2v-2.2H507z"/>
		<path id="XMLID_726_" class="st4" d="M511.4,189.5L511.4,189.5c0.7-0.8,1.4-1.2,2.4-1.2c1.1,0,2,0.4,2.6,1.4
			c0.5-0.9,1.5-1.4,2.6-1.4c1.9,0,2.6,1.3,2.6,3v4.8h-2.7v-3.6c0-0.8,0-2.1-1.1-2.1c-1.2,0-1.3,1.2-1.3,2.1v3.6h-2.7v-3.6
			c0-0.8,0-2.1-1.2-2.1c-1.2,0-1.2,1.3-1.2,2.1v3.6h-2.7v-7.6h2.7V189.5z"/>
		<path id="XMLID_723_" class="st4" d="M531,192.8h-5.7c0,1.1,0.6,1.7,1.7,1.7c0.6,0,1-0.2,1.3-0.7h2.6c-0.2,0.9-0.7,1.5-1.4,2
			c-0.7,0.4-1.5,0.6-2.4,0.6c-2.5,0-4.4-1.4-4.4-4c0-2.5,1.7-4,4.2-4c2.6,0,4.1,1.6,4.1,4.2V192.8z M528.5,191.3
			c-0.1-0.7-0.8-1.2-1.5-1.2c-0.8,0-1.4,0.4-1.6,1.2H528.5z"/>
		<path id="XMLID_720_" class="st4" d="M538,195.3L538,195.3c-0.5,0.8-1.4,1.1-2.3,1.1c-2.2,0-3.8-1.9-3.8-4s1.5-4,3.8-4
			c0.9,0,1.8,0.3,2.3,1v-5.4h2.7v12.2H538V195.3z M534.6,192.4c0,1,0.6,1.7,1.7,1.7c1.1,0,1.7-0.7,1.7-1.7c0-0.9-0.6-1.7-1.7-1.7
			C535.2,190.7,534.6,191.4,534.6,192.4z"/>
		<path id="XMLID_702_" class="st4" d="M545.2,185.7c0,0.8-0.7,1.5-1.5,1.5s-1.5-0.7-1.5-1.5c0-0.8,0.7-1.5,1.5-1.5
			S545.2,184.8,545.2,185.7z M545,196.1h-2.7v-7.6h2.7V196.1z"/>
		<path id="XMLID_700_" class="st4" d="M552.2,191c-0.4-0.3-0.9-0.5-1.4-0.5c-1,0-1.8,0.8-1.8,1.8c0,1.1,0.8,1.9,1.9,1.9
			c0.5,0,1-0.2,1.3-0.5v2.3c-0.6,0.3-1.2,0.4-1.9,0.4c-2.2,0-4.1-1.7-4.1-4c0-2.4,1.9-4.1,4.2-4.1c0.6,0,1.2,0.1,1.8,0.4V191z"/>
		<path id="XMLID_697_" class="st4" d="M556.7,185.7c0,0.8-0.7,1.5-1.5,1.5s-1.5-0.7-1.5-1.5c0-0.8,0.7-1.5,1.5-1.5
			S556.7,184.8,556.7,185.7z M556.6,196.1h-2.7v-7.6h2.7V196.1z"/>
		<path id="XMLID_693_" class="st4" d="M566.9,192.4c0,2.6-2.1,4-4.6,4c-2.4,0-4.6-1.4-4.6-4s2.1-4,4.6-4
			C564.8,188.3,566.9,189.8,566.9,192.4z M560.6,192.4c0,1,0.6,1.7,1.7,1.7c1.1,0,1.7-0.7,1.7-1.7c0-0.9-0.6-1.7-1.7-1.7
			C561.3,190.7,560.6,191.4,560.6,192.4z M562.1,187.5l-1.2-0.9l2.1-2.5l1.6,1.2L562.1,187.5z"/>
		<path id="XMLID_691_" class="st4" d="M570.8,189.5L570.8,189.5c0.6-0.9,1.4-1.2,2.4-1.2c2,0,2.8,1.3,2.8,3.1v4.7h-2.7v-3.7
			c0-0.7,0.1-2-1.2-2c-1.1,0-1.4,0.8-1.4,1.8v3.9h-2.7v-7.6h2.7V189.5z"/>
	</g>
</g>
<rect id="XMLID_2544_" x="387.8" y="262.2" class="st3" width="223.1" height="101"/>
<rect id="XMLID_2542_" x="387.8" y="393.2" class="st3" width="223.1" height="101"/>
<g id="XMLID_20154_">
	<g>
		<path id="XMLID_184_" class="st4" d="M488.7,305.3c-0.6-0.8-1.5-1.2-2.5-1.2c-1.8,0-3,1.4-3,3.1c0,1.8,1.2,3,3,3
			c0.9,0,1.9-0.5,2.5-1.2v3.5c-1,0.3-1.7,0.5-2.6,0.5c-1.5,0-3-0.6-4.2-1.6c-1.2-1.1-1.8-2.6-1.8-4.2c0-1.5,0.6-3,1.6-4.1
			c1.1-1.1,2.7-1.8,4.2-1.8c0.9,0,1.8,0.2,2.6,0.6V305.3z"/>
		<path id="XMLID_181_" class="st4" d="M493.3,310.8l-0.8,1.9h-3.1l4.3-11.1h3.2l4.2,11.1H498l-0.7-1.9H493.3z M495.3,305L495.3,305
			l-1.2,3.5h2.4L495.3,305z"/>
		<path id="XMLID_179_" class="st4" d="M507.4,301.6v7.5c0,2.3-1.2,3.9-3.7,3.9c-1.2,0-2.2-0.6-2.9-1.6l1.7-1.8
			c0.3,0.4,0.8,0.9,1.2,0.9c0.9,0,0.8-1,0.8-1.6v-7.3H507.4z"/>
		<path id="XMLID_176_" class="st4" d="M512.1,310.8l-0.8,1.9h-3.1l4.3-11.1h3.2l4.2,11.1h-3.1l-0.7-1.9H512.1z M514.1,305
			L514.1,305l-1.2,3.5h2.4L514.1,305z"/>
		<path id="XMLID_174_" class="st4" d="M485.8,323c-0.6-0.8-1.5-1.2-2.5-1.2c-1.8,0-3,1.4-3,3.1c0,1.8,1.2,3,3,3
			c0.9,0,1.9-0.5,2.5-1.2v3.5c-1,0.3-1.7,0.5-2.6,0.5c-1.5,0-3-0.6-4.2-1.6c-1.2-1.1-1.8-2.6-1.8-4.2c0-1.5,0.6-3,1.6-4.1
			c1.1-1.1,2.7-1.8,4.2-1.8c0.9,0,1.8,0.2,2.6,0.6V323z"/>
		<path id="XMLID_171_" class="st4" d="M496.1,326.6c0,2.6-2.1,4-4.6,4c-2.4,0-4.6-1.4-4.6-4c0-2.6,2.1-4,4.6-4
			C494,322.6,496.1,324.1,496.1,326.6z M489.8,326.6c0,1,0.6,1.7,1.7,1.7c1.1,0,1.7-0.7,1.7-1.7c0-0.9-0.6-1.7-1.7-1.7
			C490.5,324.9,489.8,325.7,489.8,326.6z"/>
		<path id="XMLID_168_" class="st4" d="M497.2,318.2h2.7v5.4c0.6-0.7,1.5-1,2.3-1c2.2,0,3.8,1.9,3.8,4c0,2.2-1.6,4-3.8,4
			c-0.9,0-1.8-0.3-2.3-1.1h0v0.8h-2.7V318.2z M499.8,326.6c0,1,0.6,1.7,1.7,1.7c1.1,0,1.7-0.7,1.7-1.7c0-0.9-0.6-1.7-1.7-1.7
			C500.5,324.9,499.8,325.7,499.8,326.6z"/>
		<path id="XMLID_166_" class="st4" d="M510.1,324.1L510.1,324.1c0.5-0.9,1.4-1.3,2.5-1.3h0.5v2.6c-0.4-0.2-0.7-0.3-1.1-0.3
			c-1.5,0-1.9,1-1.9,2.3v3.1h-2.7v-7.6h2.7V324.1z"/>
		<path id="XMLID_163_" class="st4" d="M522.4,326.6c0,2.6-2.1,4-4.6,4c-2.4,0-4.6-1.4-4.6-4c0-2.6,2.1-4,4.6-4
			C520.2,322.6,522.4,324.1,522.4,326.6z M516.1,326.6c0,1,0.6,1.7,1.7,1.7c1.1,0,1.7-0.7,1.7-1.7c0-0.9-0.6-1.7-1.7-1.7
			C516.7,324.9,516.1,325.7,516.1,326.6z"/>
	</g>
</g>
<rect id="XMLID_2540_" x="387.8" y="524.2" class="st3" width="223.1" height="101"/>
<g id="XMLID_20054_">
	<g>
		<path id="XMLID_1125_" class="st4" d="M421.2,441.8l-0.8,1.9h-3.1l4.3-11.1h3.2l4.2,11.1h-3.1l-0.7-1.9H421.2z M423.2,436
			L423.2,436l-1.2,3.5h2.4L423.2,436z"/>
		<path id="XMLID_1122_" class="st4" d="M439.1,443.7h-3.6l-2.7-4.3h0v4.3h-2.9v-11.1h4.3c2.2,0,3.9,1,3.9,3.4
			c0,1.5-0.9,2.9-2.4,3.1L439.1,443.7z M432.7,437.6h0.3c0.9,0,2-0.2,2-1.4c0-1.2-1.1-1.4-2-1.4h-0.3V437.6z"/>
		<path id="XMLID_1120_" class="st4" d="M442.8,435v1.9h3.3v2.4h-3.3v1.9h3.4v2.4h-6.3v-11.1h6.3v2.4H442.8z"/>
		<path id="XMLID_1117_" class="st4" d="M450.8,441.8l-0.8,1.9H447l4.3-11.1h3.2l4.2,11.1h-3.1l-0.7-1.9H450.8z M452.9,436
			L452.9,436l-1.2,3.5h2.4L452.9,436z"/>
		<path id="XMLID_1115_" class="st4" d="M469,443.7h-2.9V435h-2.4v-2.4h7.7v2.4H469V443.7z"/>
		<path id="XMLID_1113_" class="st4" d="M475.3,435v1.9h3.3v2.4h-3.3v1.9h3.4v2.4h-6.3v-11.1h6.3v2.4H475.3z"/>
		<path id="XMLID_1111_" class="st4" d="M488.5,436.3c-0.6-0.8-1.5-1.2-2.5-1.2c-1.8,0-3,1.4-3,3.1c0,1.8,1.2,3,3,3
			c0.9,0,1.9-0.5,2.5-1.2v3.5c-1,0.3-1.7,0.5-2.6,0.5c-1.5,0-3-0.6-4.2-1.6c-1.2-1.1-1.8-2.6-1.8-4.2c0-1.5,0.6-3,1.6-4.1
			c1.1-1.1,2.7-1.8,4.2-1.8c0.9,0,1.8,0.2,2.6,0.6V436.3z"/>
		<path id="XMLID_1109_" class="st4" d="M490.3,432.6h2.9l5.3,6.8h0v-6.8h2.9v11.1h-2.9l-5.3-6.8h0v6.8h-2.9V432.6z"/>
		<path id="XMLID_1107_" class="st4" d="M506.2,443.7h-2.9v-11.1h2.9V443.7z"/>
		<path id="XMLID_1105_" class="st4" d="M516,436.3c-0.6-0.8-1.5-1.2-2.5-1.2c-1.8,0-3,1.4-3,3.1c0,1.8,1.2,3,3,3
			c0.9,0,1.9-0.5,2.5-1.2v3.5c-1,0.3-1.7,0.5-2.6,0.5c-1.5,0-3-0.6-4.2-1.6c-1.2-1.1-1.8-2.6-1.8-4.2c0-1.5,0.6-3,1.6-4.1
			c1.1-1.1,2.7-1.8,4.2-1.8c0.9,0,1.8,0.2,2.6,0.6V436.3z"/>
		<path id="XMLID_1102_" class="st4" d="M529.6,437.9c0,3.6-2.6,6.1-6.2,6.1s-6.2-2.5-6.2-6.1c0-3.4,3-5.7,6.2-5.7
			C526.6,432.2,529.6,434.6,529.6,437.9z M520.3,438c0,1.9,1.4,3.3,3.1,3.3c1.7,0,3.1-1.4,3.1-3.3c0-1.5-1.4-2.9-3.1-2.9
			C521.7,435,520.3,436.4,520.3,438z"/>
		<path id="XMLID_1040_" class="st4" d="M537,435.4c-0.5-0.4-1.2-0.7-1.9-0.7c-0.5,0-1.2,0.3-1.2,0.9c0,0.6,0.8,0.9,1.3,1.1l0.7,0.2
			c1.5,0.5,2.7,1.2,2.7,3c0,1.1-0.3,2.2-1.2,3c-0.9,0.7-2,1-3.2,1c-1.4,0-2.8-0.5-3.9-1.3l1.2-2.3c0.7,0.6,1.6,1.2,2.6,1.2
			c0.7,0,1.4-0.3,1.4-1.1c0-0.8-1.1-1.1-1.8-1.3c-1.8-0.5-3-1-3-3.1c0-2.3,1.6-3.7,3.8-3.7c1.1,0,2.5,0.4,3.5,0.9L537,435.4z"/>
		<path id="XMLID_1038_" class="st4" d="M547.2,431.5l-5.6,13.6h-2.1l5.6-13.6H547.2z"/>
		<path id="XMLID_1035_" class="st4" d="M551.4,441.8l-0.8,1.9h-3.1l4.3-11.1h3.2l4.2,11.1h-3.1l-0.7-1.9H551.4z M553.4,436
			L553.4,436l-1.2,3.5h2.4L553.4,436z"/>
		<path id="XMLID_1032_" class="st4" d="M569.3,443.7h-3.6l-2.7-4.3h0v4.3H560v-11.1h4.3c2.2,0,3.9,1,3.9,3.4c0,1.5-0.9,2.9-2.4,3.1
			L569.3,443.7z M562.9,437.6h0.3c0.9,0,2-0.2,2-1.4c0-1.2-1.1-1.4-2-1.4h-0.3V437.6z"/>
		<path id="XMLID_1029_" class="st4" d="M579.6,444.4l-0.9-1c-0.9,0.5-1.9,0.7-3.1,0.7c-3.6,0-6.2-2.5-6.2-6.1c0-3.4,3-5.7,6.2-5.7
			c3.5,0,6.2,2.3,6.2,6c0,1.5-0.5,2.8-1.4,3.9l1.9,1.9L579.6,444.4z M578.3,439.8c0.3-0.5,0.5-1.1,0.5-1.6c0-1.7-1.4-3.2-3.1-3.2
			c-1.7,0-3.2,1.4-3.2,2.9c0,1.9,1.4,3.3,3.2,3.3c0.3,0,0.6,0,0.9-0.1l-1.8-1.8l2.7-0.3L578.3,439.8z"/>
		<path id="XMLID_1027_" class="st4" d="M401.2,459h3.5v2.4h-6.4v-11.1h2.9V459z"/>
		<path id="XMLID_1025_" class="st4" d="M408.2,461.4h-2.7v-12.2h2.7V461.4z"/>
		<path id="XMLID_1022_" class="st4" d="M417.7,458.1h-5.7c0,1.1,0.6,1.7,1.7,1.7c0.6,0,1-0.2,1.3-0.7h2.6c-0.2,0.9-0.7,1.5-1.4,2
			s-1.5,0.6-2.4,0.6c-2.5,0-4.4-1.4-4.4-4c0-2.5,1.7-4,4.2-4c2.6,0,4.1,1.6,4.1,4.2V458.1z M415.3,456.5c-0.1-0.7-0.8-1.2-1.5-1.2
			c-0.8,0-1.4,0.4-1.6,1.2H415.3z"/>
		<path id="XMLID_1020_" class="st4" d="M421.7,454.8L421.7,454.8c0.6-0.9,1.4-1.2,2.4-1.2c2,0,2.8,1.3,2.8,3.1v4.7h-2.7v-3.7
			c0-0.7,0.1-2-1.2-2c-1.1,0-1.4,0.8-1.4,1.8v3.9H419v-7.6h2.7V454.8z"/>
		<path id="XMLID_1017_" class="st4" d="M437,461.4h-2.7v-0.8h0c-0.5,0.8-1.4,1.1-2.3,1.1c-2.2,0-3.8-1.9-3.8-4s1.5-4,3.8-4
			c0.9,0,1.8,0.3,2.3,1v-0.7h2.7V461.4z M430.9,457.6c0,1,0.6,1.7,1.7,1.7c1.1,0,1.7-0.7,1.7-1.7c0-0.9-0.6-1.7-1.7-1.7
			C431.6,455.9,430.9,456.7,430.9,457.6z"/>
		<path id="XMLID_1014_" class="st4" d="M444.5,460.6L444.5,460.6c-0.5,0.8-1.4,1.1-2.3,1.1c-2.2,0-3.8-1.9-3.8-4s1.5-4,3.8-4
			c0.9,0,1.8,0.3,2.3,1v-5.4h2.7v12.2h-2.7V460.6z M441.1,457.6c0,1,0.6,1.7,1.7,1.7c1.1,0,1.7-0.7,1.7-1.7c0-0.9-0.6-1.7-1.7-1.7
			C441.7,455.9,441.1,456.7,441.1,457.6z"/>
		<path id="XMLID_1011_" class="st4" d="M457.4,457.6c0,2.6-2.1,4-4.6,4c-2.4,0-4.6-1.4-4.6-4c0-2.6,2.1-4,4.6-4
			C455.3,453.6,457.4,455.1,457.4,457.6z M451.1,457.6c0,1,0.6,1.7,1.7,1.7c1.1,0,1.7-0.7,1.7-1.7c0-0.9-0.6-1.7-1.7-1.7
			C451.7,455.9,451.1,456.7,451.1,457.6z"/>
		<path id="XMLID_1009_" class="st4" d="M466.6,461.4h-2.7v-5.4H463v-2.2h0.9v-1c0-1,0-1.8,0.8-2.7c0.7-0.8,1.6-1.2,2.6-1.2
			c0.4,0,0.8,0.1,1.2,0.3v2.3c-0.3-0.1-0.6-0.3-0.9-0.3c-0.7,0-0.9,0.4-0.9,1.3v1.2h1.9v2.2h-1.9V461.4z"/>
		<path id="XMLID_1006_" class="st4" d="M477.9,457.6c0,2.6-2.1,4-4.6,4c-2.4,0-4.6-1.4-4.6-4c0-2.6,2.1-4,4.6-4
			C475.8,453.6,477.9,455.1,477.9,457.6z M471.7,457.6c0,1,0.6,1.7,1.7,1.7c1.1,0,1.7-0.7,1.7-1.7c0-0.9-0.6-1.7-1.7-1.7
			C472.3,455.9,471.7,456.7,471.7,457.6z"/>
		<path id="XMLID_1004_" class="st4" d="M481.8,455.1L481.8,455.1c0.5-0.9,1.4-1.3,2.5-1.3h0.5v2.6c-0.4-0.2-0.7-0.3-1.1-0.3
			c-1.5,0-1.9,1-1.9,2.3v3.1h-2.7v-7.6h2.7V455.1z"/>
		<path id="XMLID_1002_" class="st4" d="M488.5,454.8L488.5,454.8c0.7-0.8,1.4-1.2,2.4-1.2c1.1,0,2,0.4,2.6,1.4
			c0.5-0.9,1.5-1.4,2.6-1.4c1.9,0,2.6,1.3,2.6,3v4.8H496v-3.6c0-0.8,0-2.1-1.1-2.1c-1.2,0-1.3,1.2-1.3,2.1v3.6h-2.7v-3.6
			c0-0.8,0-2.1-1.2-2.1c-1.2,0-1.2,1.3-1.2,2.1v3.6h-2.7v-7.6h2.7V454.8z"/>
		<path id="XMLID_1000_" class="st4" d="M503.1,453.8v4c0,1,0.2,1.6,1.3,1.6c1.1,0,1.3-0.7,1.3-1.6v-4h2.7v4.6c0,2.5-1.8,3.3-4,3.3
			c-2.3,0-4-0.8-4-3.3v-4.6H503.1z"/>
		<path id="XMLID_998_" class="st4" d="M512.8,461.4h-2.7v-12.2h2.7V461.4z"/>
		<path id="XMLID_995_" class="st4" d="M522.9,461.4h-2.7v-0.8h0c-0.5,0.8-1.4,1.1-2.3,1.1c-2.2,0-3.8-1.9-3.8-4s1.5-4,3.8-4
			c0.9,0,1.8,0.3,2.3,1v-0.7h2.7V461.4z M516.8,457.6c0,1,0.6,1.7,1.7,1.7c1.1,0,1.7-0.7,1.7-1.7c0-0.9-0.6-1.7-1.7-1.7
			C517.5,455.9,516.8,456.7,516.8,457.6z"/>
		<path id="XMLID_993_" class="st4" d="M527.4,455.1L527.4,455.1c0.5-0.9,1.4-1.3,2.5-1.3h0.5v2.6c-0.4-0.2-0.7-0.3-1.1-0.3
			c-1.5,0-1.9,1-1.9,2.3v3.1h-2.7v-7.6h2.7V455.1z"/>
		<path id="XMLID_990_" class="st4" d="M534.2,450.9c0,0.8-0.7,1.5-1.5,1.5c-0.8,0-1.5-0.7-1.5-1.5c0-0.8,0.7-1.5,1.5-1.5
			C533.5,449.4,534.2,450.1,534.2,450.9z M534,461.4h-2.7v-7.6h2.7V461.4z"/>
		<path id="XMLID_987_" class="st4" d="M544.4,457.6c0,2.6-2.1,4-4.6,4c-2.4,0-4.6-1.4-4.6-4c0-2.6,2.1-4,4.6-4
			C542.2,453.6,544.4,455.1,544.4,457.6z M538.1,457.6c0,1,0.6,1.7,1.7,1.7c1.1,0,1.7-0.7,1.7-1.7c0-0.9-0.6-1.7-1.7-1.7
			C538.7,455.9,538.1,456.7,538.1,457.6z"/>
		<path id="XMLID_985_" class="st4" d="M553.6,461.4h-2.7v-5.4H550v-2.2h0.9v-2.3h2.7v2.3h1.5v2.2h-1.5V461.4z"/>
		<path id="XMLID_981_" class="st4" d="M563.7,458.1h-5.7c0,1.1,0.6,1.7,1.7,1.7c0.6,0,1-0.2,1.3-0.7h2.6c-0.2,0.9-0.7,1.5-1.4,2
			c-0.7,0.4-1.5,0.6-2.4,0.6c-2.5,0-4.4-1.4-4.4-4c0-2.5,1.7-4,4.2-4c2.6,0,4.1,1.6,4.1,4.2V458.1z M559.3,452.7l-1.2-0.9l2.1-2.5
			l1.6,1.2L559.3,452.7z M561.2,456.5c-0.1-0.7-0.8-1.2-1.5-1.2c-0.8,0-1.4,0.4-1.6,1.2H561.2z"/>
		<path id="XMLID_979_" class="st4" d="M570.4,456.3c-0.4-0.3-0.9-0.5-1.4-0.5c-1,0-1.8,0.8-1.8,1.8c0,1.1,0.8,1.9,1.9,1.9
			c0.5,0,1-0.2,1.3-0.5v2.3c-0.6,0.3-1.2,0.4-1.9,0.4c-2.2,0-4.1-1.7-4.1-4c0-2.4,1.9-4.1,4.2-4.1c0.6,0,1.2,0.1,1.8,0.4V456.3z"/>
		<path id="XMLID_977_" class="st4" d="M574.8,454.8L574.8,454.8c0.6-0.9,1.4-1.2,2.4-1.2c2,0,2.8,1.3,2.8,3.1v4.7h-2.7v-3.7
			c0-0.7,0.1-2-1.2-2c-1.1,0-1.4,0.8-1.4,1.8v3.9h-2.7v-7.6h2.7V454.8z"/>
		<path id="XMLID_974_" class="st4" d="M584.7,450.9c0,0.8-0.7,1.5-1.5,1.5c-0.8,0-1.5-0.7-1.5-1.5c0-0.8,0.7-1.5,1.5-1.5
			C584,449.4,584.7,450.1,584.7,450.9z M584.5,461.4h-2.7v-7.6h2.7V461.4z"/>
		<path id="XMLID_972_" class="st4" d="M591.7,456.3c-0.4-0.3-0.9-0.5-1.4-0.5c-1,0-1.8,0.8-1.8,1.8c0,1.1,0.8,1.9,1.9,1.9
			c0.5,0,1-0.2,1.3-0.5v2.3c-0.6,0.3-1.2,0.4-1.9,0.4c-2.2,0-4.1-1.7-4.1-4c0-2.4,1.9-4.1,4.2-4.1c0.6,0,1.2,0.1,1.8,0.4V456.3z"/>
		<path id="XMLID_969_" class="st4" d="M602,457.6c0,2.6-2.1,4-4.6,4c-2.4,0-4.6-1.4-4.6-4c0-2.6,2.1-4,4.6-4
			C599.8,453.6,602,455.1,602,457.6z M595.7,457.6c0,1,0.6,1.7,1.7,1.7c1.1,0,1.7-0.7,1.7-1.7c0-0.9-0.6-1.7-1.7-1.7
			C596.3,455.9,595.7,456.7,595.7,457.6z"/>
	</g>
</g>
<rect id="XMLID_2538_" x="387.8" y="655.2" class="st3" width="223.1" height="101"/>
<g id="XMLID_19933_">
	<g>
		<path id="XMLID_1487_" class="st4" d="M439.8,552.1v7.5c0,2.3-1.2,3.9-3.7,3.9c-1.2,0-2.2-0.6-2.9-1.6l1.7-1.8
			c0.3,0.4,0.8,0.9,1.2,0.9c0.9,0,0.8-1,0.8-1.6v-7.3H439.8z"/>
		<path id="XMLID_1485_" class="st4" d="M444.6,554.6v1.9h3.3v2.4h-3.3v1.9h3.4v2.4h-6.3v-11.1h6.3v2.4H444.6z"/>
		<path id="XMLID_1483_" class="st4" d="M452.7,554.6v1.9h3.2v2.4h-3.2v4.4h-2.9v-11.1h6.4v2.4H452.7z"/>
		<path id="XMLID_1481_" class="st4" d="M460.7,554.6v1.9h3.3v2.4h-3.3v1.9h3.4v2.4h-6.3v-11.1h6.3v2.4H460.7z"/>
		<path id="XMLID_1478_" class="st4" d="M470.9,552.1h4.1c3.1,0,5.7,2.4,5.7,5.6c0,3.1-2.6,5.6-5.7,5.6h-4.1V552.1z M473.8,560.8
			h0.6c1.7,0,3.2-0.9,3.2-3.1c0-2-1.3-3.1-3.2-3.1h-0.7V560.8z"/>
		<path id="XMLID_1476_" class="st4" d="M484.9,554.6v1.9h3.3v2.4h-3.3v1.9h3.4v2.4H482v-11.1h6.3v2.4H484.9z"/>
		<path id="XMLID_1473_" class="st4" d="M495.2,552.1h4.1c3.1,0,5.7,2.4,5.7,5.6c0,3.1-2.6,5.6-5.7,5.6h-4.1V552.1z M498.1,560.8
			h0.6c1.7,0,3.2-0.9,3.2-3.1c0-2-1.3-3.1-3.2-3.1h-0.7V560.8z"/>
		<path id="XMLID_1471_" class="st4" d="M509.2,563.2h-2.9v-11.1h2.9V563.2z"/>
		<path id="XMLID_1469_" class="st4" d="M515.7,558.9l2.7-6.8h3.1l-4.8,11.1h-2.2l-4.7-11.1h3.1L515.7,558.9z"/>
		<path id="XMLID_1467_" class="st4" d="M525.2,563.2h-2.9v-11.1h2.9V563.2z"/>
		<path id="XMLID_1465_" class="st4" d="M533.2,555c-0.5-0.4-1.2-0.7-1.9-0.7c-0.5,0-1.2,0.3-1.2,0.9c0,0.6,0.8,0.9,1.3,1.1l0.7,0.2
			c1.5,0.5,2.7,1.2,2.7,3c0,1.1-0.3,2.2-1.2,3c-0.9,0.7-2,1-3.2,1c-1.4,0-2.8-0.5-3.9-1.3l1.2-2.3c0.7,0.6,1.6,1.2,2.6,1.2
			c0.7,0,1.4-0.3,1.4-1.1c0-0.8-1.1-1.1-1.8-1.3c-1.8-0.5-3-1-3-3.1c0-2.3,1.6-3.7,3.8-3.7c1.1,0,2.5,0.4,3.5,0.9L533.2,555z"/>
		<path id="XMLID_1463_" class="st4" d="M539.1,563.2h-2.9v-11.1h2.9V563.2z"/>
		<path id="XMLID_1459_" class="st4" d="M552.7,557.5c0,3.6-2.6,6.1-6.2,6.1s-6.2-2.5-6.2-6.1c0-3.4,3-5.7,6.2-5.7
			C549.8,551.7,552.7,554.1,552.7,557.5z M543.4,557.5c0,1.9,1.4,3.3,3.1,3.3c1.7,0,3.1-1.4,3.1-3.3c0-1.5-1.4-2.9-3.1-2.9
			C544.8,554.5,543.4,555.9,543.4,557.5z M546.2,551.4l-1.2-0.9l2.1-2.5l1.6,1.2L546.2,551.4z"/>
		<path id="XMLID_1457_" class="st4" d="M554,552.1h2.9l5.3,6.8h0v-6.8h2.9v11.1h-2.9l-5.3-6.8h0v6.8H554V552.1z"/>
		<path id="XMLID_1454_" class="st4" d="M429.6,580.9H426l-2.7-4.3h0v4.3h-2.9v-11.1h4.3c2.2,0,3.9,1,3.9,3.4c0,1.5-0.9,2.9-2.4,3.1
			L429.6,580.9z M423.2,574.8h0.3c0.9,0,2-0.2,2-1.4c0-1.2-1.1-1.4-2-1.4h-0.3V574.8z"/>
		<path id="XMLID_1451_" class="st4" d="M438.1,577.6h-5.7c0,1.1,0.6,1.7,1.7,1.7c0.6,0,1-0.2,1.3-0.7h2.6c-0.2,0.9-0.7,1.5-1.4,2
			c-0.7,0.4-1.5,0.6-2.4,0.6c-2.5,0-4.4-1.4-4.4-4c0-2.5,1.7-4,4.2-4c2.6,0,4.1,1.6,4.1,4.2V577.6z M435.6,576.1
			c-0.1-0.7-0.8-1.2-1.5-1.2c-0.8,0-1.4,0.4-1.6,1.2H435.6z"/>
		<path id="XMLID_1449_" class="st4" d="M443,577.2l1.8-3.9h3l-4,7.6h-1.7l-4-7.6h3L443,577.2z"/>
		<path id="XMLID_1446_" class="st4" d="M451.3,570.5c0,0.8-0.7,1.5-1.5,1.5c-0.8,0-1.5-0.7-1.5-1.5c0-0.8,0.7-1.5,1.5-1.5
			C450.7,569,451.3,569.6,451.3,570.5z M451.2,580.9h-2.7v-7.6h2.7V580.9z"/>
		<path id="XMLID_1444_" class="st4" d="M457.9,575.3c-0.4-0.2-1-0.4-1.4-0.4c-0.3,0-0.8,0.1-0.8,0.5c0,0.5,0.8,0.6,1.2,0.7
			c1.3,0.3,2.2,0.8,2.2,2.2c0,2-1.8,2.8-3.6,2.8c-1.1,0-2.1-0.3-3.1-0.9l1-1.9c0.5,0.4,1.5,0.8,2.1,0.8c0.3,0,0.8-0.2,0.8-0.6
			c0-0.6-0.8-0.6-1.7-0.8c-0.8-0.2-1.7-0.6-1.7-2c0-1.9,1.7-2.7,3.3-2.7c0.9,0,1.7,0.1,2.5,0.5L457.9,575.3z"/>
		<path id="XMLID_1441_" class="st4" d="M468.8,580.9h-2.7v-0.8h0c-0.5,0.8-1.4,1.1-2.3,1.1c-2.2,0-3.8-1.9-3.8-4c0-2.2,1.5-4,3.8-4
			c0.9,0,1.8,0.3,2.3,1v-0.7h2.7V580.9z M462.7,577.2c0,1,0.6,1.7,1.7,1.7c1.1,0,1.7-0.7,1.7-1.7c0-0.9-0.6-1.7-1.7-1.7
			C463.4,575.4,462.7,576.2,462.7,577.2z"/>
		<path id="XMLID_1438_" class="st4" d="M483.4,577.6h-5.7c0,1.1,0.6,1.7,1.7,1.7c0.6,0,1-0.2,1.3-0.7h2.6c-0.2,0.9-0.7,1.5-1.4,2
			c-0.7,0.4-1.5,0.6-2.4,0.6c-2.5,0-4.4-1.4-4.4-4c0-2.5,1.7-4,4.2-4c2.6,0,4.1,1.6,4.1,4.2V577.6z M480.9,576.1
			c-0.1-0.7-0.8-1.2-1.5-1.2c-0.8,0-1.4,0.4-1.6,1.2H480.9z"/>
		<path id="XMLID_1436_" class="st4" d="M487.3,580.9h-2.7v-12.2h2.7V580.9z"/>
		<path id="XMLID_1434_" class="st4" d="M497.1,580.9h-2.7v-5.4h-0.9v-2.2h0.9v-1c0-1,0-1.8,0.8-2.7c0.7-0.8,1.6-1.2,2.6-1.2
			c0.4,0,0.8,0.1,1.2,0.3v2.3c-0.3-0.1-0.6-0.3-0.9-0.3c-0.7,0-0.9,0.4-0.9,1.3v1.2h1.9v2.2h-1.9V580.9z"/>
		<path id="XMLID_1431_" class="st4" d="M508.4,577.2c0,2.6-2.1,4-4.6,4c-2.4,0-4.6-1.4-4.6-4s2.1-4,4.6-4
			C506.3,573.1,508.4,574.6,508.4,577.2z M502.1,577.2c0,1,0.6,1.7,1.7,1.7c1.1,0,1.7-0.7,1.7-1.7c0-0.9-0.6-1.7-1.7-1.7
			C502.8,575.4,502.1,576.2,502.1,577.2z"/>
		<path id="XMLID_1429_" class="st4" d="M512.3,574.6L512.3,574.6c0.5-0.9,1.4-1.3,2.5-1.3h0.5v2.6c-0.4-0.2-0.7-0.3-1.1-0.3
			c-1.5,0-1.9,1-1.9,2.3v3.1h-2.7v-7.6h2.7V574.6z"/>
		<path id="XMLID_1427_" class="st4" d="M519,574.3L519,574.3c0.7-0.8,1.4-1.2,2.4-1.2c1.1,0,2,0.4,2.6,1.4c0.5-0.9,1.5-1.4,2.6-1.4
			c1.9,0,2.6,1.3,2.6,3v4.8h-2.7v-3.6c0-0.8,0-2.1-1.1-2.1c-1.2,0-1.3,1.2-1.3,2.1v3.6h-2.7v-3.6c0-0.8,0-2.1-1.2-2.1
			c-1.2,0-1.2,1.3-1.2,2.1v3.6h-2.7v-7.6h2.7V574.3z"/>
		<path id="XMLID_1425_" class="st4" d="M533.5,573.4v4c0,1,0.2,1.6,1.3,1.6c1.1,0,1.3-0.7,1.3-1.6v-4h2.7v4.6c0,2.5-1.8,3.3-4,3.3
			c-2.3,0-4-0.8-4-3.3v-4.6H533.5z"/>
		<path id="XMLID_1423_" class="st4" d="M543.3,580.9h-2.7v-12.2h2.7V580.9z"/>
		<path id="XMLID_1420_" class="st4" d="M553.4,580.9h-2.7v-0.8h0c-0.5,0.8-1.4,1.1-2.3,1.1c-2.2,0-3.8-1.9-3.8-4c0-2.2,1.5-4,3.8-4
			c0.9,0,1.8,0.3,2.3,1v-0.7h2.7V580.9z M547.3,577.2c0,1,0.6,1.7,1.7,1.7c1.1,0,1.7-0.7,1.7-1.7c0-0.9-0.6-1.7-1.7-1.7
			C547.9,575.4,547.3,576.2,547.3,577.2z"/>
		<path id="XMLID_1418_" class="st4" d="M557.8,574.6L557.8,574.6c0.5-0.9,1.4-1.3,2.5-1.3h0.5v2.6c-0.4-0.2-0.7-0.3-1.1-0.3
			c-1.5,0-1.9,1-1.9,2.3v3.1h-2.7v-7.6h2.7V574.6z"/>
		<path id="XMLID_1415_" class="st4" d="M564.7,570.5c0,0.8-0.7,1.5-1.5,1.5s-1.5-0.7-1.5-1.5c0-0.8,0.7-1.5,1.5-1.5
			S564.7,569.6,564.7,570.5z M564.5,580.9h-2.7v-7.6h2.7V580.9z"/>
		<path id="XMLID_1412_" class="st4" d="M574.8,577.2c0,2.6-2.1,4-4.6,4c-2.4,0-4.6-1.4-4.6-4s2.1-4,4.6-4
			C572.7,573.1,574.8,574.6,574.8,577.2z M568.6,577.2c0,1,0.6,1.7,1.7,1.7c1.1,0,1.7-0.7,1.7-1.7c0-0.9-0.6-1.7-1.7-1.7
			C569.2,575.4,568.6,576.2,568.6,577.2z"/>
		<path id="XMLID_1410_" class="st4" d="M424,598.6h-2.7v-5.4h-0.9v-2.2h0.9v-2.3h2.7v2.3h1.5v2.2H424V598.6z"/>
		<path id="XMLID_1406_" class="st4" d="M434.1,595.3h-5.7c0,1.1,0.6,1.7,1.7,1.7c0.6,0,1-0.2,1.3-0.7h2.6c-0.2,0.9-0.7,1.5-1.4,2
			c-0.7,0.4-1.5,0.6-2.4,0.6c-2.5,0-4.4-1.4-4.4-4c0-2.5,1.7-4,4.2-4c2.6,0,4.1,1.6,4.1,4.2V595.3z M429.7,589.9l-1.2-0.9l2.1-2.5
			l1.6,1.2L429.7,589.9z M431.6,593.8c-0.1-0.7-0.8-1.2-1.5-1.2c-0.8,0-1.4,0.4-1.6,1.2H431.6z"/>
		<path id="XMLID_1404_" class="st4" d="M440.8,593.5c-0.4-0.3-0.9-0.5-1.4-0.5c-1,0-1.8,0.8-1.8,1.8c0,1.1,0.8,1.9,1.9,1.9
			c0.5,0,1-0.2,1.3-0.5v2.3c-0.6,0.3-1.2,0.4-1.9,0.4c-2.2,0-4.1-1.7-4.1-4c0-2.4,1.9-4.1,4.2-4.1c0.6,0,1.2,0.1,1.8,0.4V593.5z"/>
		<path id="XMLID_1402_" class="st4" d="M445.2,592L445.2,592c0.6-0.9,1.4-1.2,2.4-1.2c2,0,2.8,1.3,2.8,3.1v4.7h-2.7v-3.7
			c0-0.7,0.1-2-1.2-2c-1.1,0-1.4,0.8-1.4,1.8v3.9h-2.7v-7.6h2.7V592z"/>
		<path id="XMLID_1399_" class="st4" d="M455.1,588.2c0,0.8-0.7,1.5-1.5,1.5c-0.8,0-1.5-0.7-1.5-1.5c0-0.8,0.7-1.5,1.5-1.5
			C454.4,586.7,455.1,587.3,455.1,588.2z M454.9,598.6h-2.7v-7.6h2.7V598.6z"/>
		<path id="XMLID_1397_" class="st4" d="M462.1,593.5c-0.4-0.3-0.9-0.5-1.4-0.5c-1,0-1.8,0.8-1.8,1.8c0,1.1,0.8,1.9,1.9,1.9
			c0.5,0,1-0.2,1.3-0.5v2.3c-0.6,0.3-1.2,0.4-1.9,0.4c-2.2,0-4.1-1.7-4.1-4c0-2.4,1.9-4.1,4.2-4.1c0.6,0,1.2,0.1,1.8,0.4V593.5z"/>
		<path id="XMLID_1394_" class="st4" d="M472.4,594.9c0,2.6-2.1,4-4.6,4c-2.4,0-4.6-1.4-4.6-4c0-2.6,2.1-4,4.6-4
			C470.2,590.8,472.4,592.3,472.4,594.9z M466.1,594.9c0,1,0.6,1.7,1.7,1.7c1.1,0,1.7-0.7,1.7-1.7c0-0.9-0.6-1.7-1.7-1.7
			C466.7,593.1,466.1,593.9,466.1,594.9z"/>
		<path id="XMLID_1392_" class="st4" d="M483.6,593c-0.4-0.2-1-0.4-1.4-0.4c-0.3,0-0.8,0.1-0.8,0.5c0,0.5,0.8,0.6,1.2,0.7
			c1.3,0.3,2.2,0.8,2.2,2.2c0,2-1.8,2.8-3.6,2.8c-1.1,0-2.1-0.3-3.1-0.9l1-1.9c0.5,0.4,1.5,0.8,2.1,0.8c0.3,0,0.8-0.2,0.8-0.6
			c0-0.6-0.8-0.6-1.7-0.8c-0.8-0.2-1.7-0.6-1.7-2c0-1.9,1.7-2.7,3.3-2.7c0.9,0,1.7,0.1,2.5,0.5L483.6,593z"/>
		<path id="XMLID_1389_" class="st4" d="M494,595.3h-5.7c0,1.1,0.6,1.7,1.7,1.7c0.6,0,1-0.2,1.3-0.7h2.6c-0.2,0.9-0.7,1.5-1.4,2
			c-0.7,0.4-1.5,0.6-2.4,0.6c-2.5,0-4.4-1.4-4.4-4c0-2.5,1.7-4,4.2-4c2.6,0,4.1,1.6,4.1,4.2V595.3z M491.5,593.8
			c-0.1-0.7-0.8-1.2-1.5-1.2c-0.8,0-1.4,0.4-1.6,1.2H491.5z"/>
		<path id="XMLID_1387_" class="st4" d="M497.9,598.6h-2.7v-12.2h2.7V598.6z"/>
		<path id="XMLID_1385_" class="st4" d="M502.3,598.6h-2.7v-12.2h2.7V598.6z"/>
		<path id="XMLID_1382_" class="st4" d="M512.4,598.6h-2.7v-0.8h0c-0.5,0.8-1.4,1.1-2.3,1.1c-2.2,0-3.8-1.9-3.8-4c0-2.2,1.5-4,3.8-4
			c0.9,0,1.8,0.3,2.3,1v-0.7h2.7V598.6z M506.3,594.9c0,1,0.6,1.7,1.7,1.7c1.1,0,1.7-0.7,1.7-1.7c0-0.9-0.6-1.7-1.7-1.7
			C507,593.1,506.3,593.9,506.3,594.9z"/>
		<path id="XMLID_1380_" class="st4" d="M518.1,591.1h3.1l2,3.9l2-3.9h3.1l-6.1,11.3h-3l2.6-4.8L518.1,591.1z"/>
		<path id="XMLID_1375_" class="st4" d="M536.8,598.6h-2.7v-5.4h-0.9v-2.2h0.9v-1c0-1,0-1.8,0.8-2.7c0.7-0.8,1.6-1.2,2.6-1.2
			c0.4,0,0.8,0.1,1.2,0.3v2.3c-0.3-0.1-0.6-0.3-0.9-0.3c-0.7,0-0.9,0.4-0.9,1.3v1.2h1.9v2.2h-1.9V598.6z M542.3,588.2
			c0,0.8-0.7,1.5-1.5,1.5c-0.8,0-1.5-0.7-1.5-1.5c0-0.8,0.7-1.5,1.5-1.5C541.7,586.7,542.3,587.3,542.3,588.2z M542.2,598.6h-2.7
			v-7.6h2.7V598.6z"/>
		<path id="XMLID_1373_" class="st4" d="M546.6,592.3L546.6,592.3c0.5-0.9,1.4-1.3,2.5-1.3h0.5v2.6c-0.4-0.2-0.7-0.3-1.1-0.3
			c-1.5,0-1.9,1-1.9,2.3v3.1h-2.7v-7.6h2.7V592.3z"/>
		<path id="XMLID_1371_" class="st4" d="M553.3,592L553.3,592c0.7-0.8,1.4-1.2,2.4-1.2c1.1,0,2,0.4,2.6,1.4c0.5-0.9,1.5-1.4,2.6-1.4
			c1.9,0,2.6,1.3,2.6,3v4.8h-2.7V595c0-0.8,0-2.1-1.1-2.1c-1.2,0-1.3,1.2-1.3,2.1v3.6h-2.7V595c0-0.8,0-2.1-1.2-2.1
			c-1.2,0-1.2,1.3-1.2,2.1v3.6h-2.7v-7.6h2.7V592z"/>
		<path id="XMLID_1368_" class="st4" d="M573.5,598.6h-2.7v-0.8h0c-0.5,0.8-1.4,1.1-2.3,1.1c-2.2,0-3.8-1.9-3.8-4c0-2.2,1.5-4,3.8-4
			c0.9,0,1.8,0.3,2.3,1v-0.7h2.7V598.6z M567.4,594.9c0,1,0.6,1.7,1.7,1.7c1.1,0,1.7-0.7,1.7-1.7c0-0.9-0.6-1.7-1.7-1.7
			C568.1,593.1,567.4,593.9,567.4,594.9z"/>
	</g>
</g>
<g id="XMLID_19854_">
	<g>
		<path id="XMLID_1100_" class="st4" d="M458.3,694.4c-0.5-0.4-1.2-0.7-1.9-0.7c-0.5,0-1.2,0.3-1.2,0.9c0,0.6,0.8,0.9,1.3,1.1
			l0.7,0.2c1.5,0.5,2.7,1.2,2.7,3c0,1.1-0.3,2.2-1.2,3c-0.9,0.7-2,1-3.2,1c-1.4,0-2.8-0.5-3.9-1.3l1.2-2.3c0.7,0.6,1.6,1.2,2.6,1.2
			c0.7,0,1.4-0.3,1.4-1.1c0-0.8-1.1-1.1-1.8-1.3c-1.8-0.5-3-1-3-3.1c0-2.3,1.6-3.7,3.8-3.7c1.1,0,2.5,0.4,3.5,0.9L458.3,694.4z"/>
		<path id="XMLID_1098_" class="st4" d="M470.9,691.5v6.3c0,1.4-0.1,2.8-1.2,3.9c-0.9,0.9-2.4,1.2-3.7,1.2c-1.3,0-2.8-0.3-3.7-1.2
			c-1.1-1.1-1.2-2.5-1.2-3.9v-6.3h2.9v5.9c0,1.4,0.1,3,2,3c1.9,0,2-1.6,2-3v-5.9H470.9z"/>
		<path id="XMLID_1094_" class="st4" d="M472.7,702.6v-11.1h4.1c2,0,3.3,0.8,3.3,2.9c0,1-0.3,1.8-1.2,2.3v0c1.6,0.2,2.3,1.3,2.3,2.8
			c0,2.3-2,3.1-4,3.1H472.7z M475.6,695.9h0.3c0.8,0,1.6-0.1,1.6-1.1c0-1-0.9-1.1-1.7-1.1h-0.2V695.9z M475.6,700.4h0.4
			c0.9,0,2.3,0,2.3-1.2c0-1.3-1.4-1.2-2.4-1.2h-0.3V700.4z"/>
		<path id="XMLID_1090_" class="st4" d="M485.6,700.7l-0.8,1.9h-3.1l4.3-11.1h3.2l4.2,11.1h-3.1l-0.7-1.9H485.6z M487.6,694.9
			L487.6,694.9l-1.2,3.5h2.4L487.6,694.9z"/>
		<path id="XMLID_1088_" class="st4" d="M497.1,700.2h3.5v2.4h-6.4v-11.1h2.9V700.2z"/>
		<path id="XMLID_1086_" class="st4" d="M509.5,695.2c-0.6-0.8-1.5-1.2-2.5-1.2c-1.8,0-3,1.4-3,3.1c0,1.8,1.2,3,3,3
			c0.9,0,1.9-0.5,2.5-1.2v3.5c-1,0.3-1.7,0.5-2.6,0.5c-1.5,0-3-0.6-4.2-1.6c-1.2-1.1-1.8-2.6-1.8-4.2c0-1.5,0.6-3,1.6-4.1
			c1.1-1.1,2.7-1.8,4.2-1.8c0.9,0,1.8,0.2,2.6,0.6V695.2z"/>
		<path id="XMLID_1083_" class="st4" d="M514.1,700.7l-0.8,1.9h-3.1l4.3-11.1h3.2l4.2,11.1h-3.1l-0.7-1.9H514.1z M516.1,694.9
			L516.1,694.9l-1.2,3.5h2.4L516.1,694.9z"/>
		<path id="XMLID_1081_" class="st4" d="M525.7,700.2h3.5v2.4h-6.4v-11.1h2.9V700.2z"/>
		<path id="XMLID_1078_" class="st4" d="M530.1,691.5h4.1c3.1,0,5.7,2.4,5.7,5.6c0,3.1-2.6,5.6-5.7,5.6h-4.1V691.5z M533,700.2h0.6
			c1.7,0,3.2-0.9,3.2-3.1c0-2-1.3-3.1-3.2-3.1H533V700.2z"/>
		<path id="XMLID_1076_" class="st4" d="M544.1,693.9v1.9h3.3v2.4h-3.3v1.9h3.4v2.4h-6.3v-11.1h6.3v2.4H544.1z"/>
		<path id="XMLID_1073_" class="st4" d="M403.2,718.4l-0.8,1.9h-3.1l4.3-11.1h3.2l4.2,11.1h-3.1l-0.7-1.9H403.2z M405.2,712.6
			L405.2,712.6l-1.2,3.5h2.4L405.2,712.6z"/>
		<path id="XMLID_1070_" class="st4" d="M414.4,713.6L414.4,713.6c0.5-0.8,1.4-1.1,2.3-1.1c2.3,0,3.8,1.9,3.8,4.1c0,2.2-1.5,4-3.8,4
			c-0.9,0-1.8-0.3-2.3-1v4.5h-2.7v-11.3h2.7V713.6z M414.3,716.5c0,1,0.6,1.7,1.7,1.7c1.1,0,1.7-0.7,1.7-1.7c0-0.9-0.6-1.7-1.7-1.7
			C414.9,714.8,414.3,715.6,414.3,716.5z"/>
		<path id="XMLID_1068_" class="st4" d="M424.5,714L424.5,714c0.5-0.9,1.4-1.3,2.5-1.3h0.5v2.6c-0.4-0.2-0.7-0.3-1.1-0.3
			c-1.5,0-1.9,1-1.9,2.3v3.1h-2.7v-7.6h2.7V714z"/>
		<path id="XMLID_1065_" class="st4" d="M436.8,716.5c0,2.6-2.1,4-4.6,4c-2.4,0-4.6-1.4-4.6-4s2.1-4,4.6-4
			C434.7,712.5,436.8,714,436.8,716.5z M430.5,716.5c0,1,0.6,1.7,1.7,1.7c1.1,0,1.7-0.7,1.7-1.7c0-0.9-0.6-1.7-1.7-1.7
			C431.2,714.8,430.5,715.6,430.5,716.5z"/>
		<path id="XMLID_1062_" class="st4" d="M438,708.1h2.7v5.4c0.6-0.7,1.5-1,2.3-1c2.2,0,3.8,1.9,3.8,4c0,2.2-1.6,4-3.8,4
			c-0.9,0-1.8-0.3-2.3-1.1h0v0.8H438V708.1z M440.6,716.5c0,1,0.6,1.7,1.7,1.7c1.1,0,1.7-0.7,1.7-1.7c0-0.9-0.6-1.7-1.7-1.7
			C441.2,714.8,440.6,715.6,440.6,716.5z"/>
		<path id="XMLID_1059_" class="st4" d="M456.4,720.3h-2.7v-0.8h0c-0.5,0.8-1.4,1.1-2.3,1.1c-2.2,0-3.8-1.9-3.8-4c0-2.2,1.5-4,3.8-4
			c0.9,0,1.8,0.3,2.3,1v-0.7h2.7V720.3z M450.3,716.5c0,1,0.6,1.7,1.7,1.7c1.1,0,1.7-0.7,1.7-1.7c0-0.9-0.6-1.7-1.7-1.7
			C451,714.8,450.3,715.6,450.3,716.5z"/>
		<path id="XMLID_1057_" class="st4" d="M463.6,715.2c-0.4-0.3-0.9-0.5-1.4-0.5c-1,0-1.8,0.8-1.8,1.8c0,1.1,0.8,1.9,1.9,1.9
			c0.5,0,1-0.2,1.3-0.5v2.3c-0.6,0.3-1.2,0.4-1.9,0.4c-2.2,0-4.1-1.7-4.1-4c0-2.4,1.9-4.1,4.2-4.1c0.6,0,1.2,0.1,1.8,0.4V715.2z"/>
		<path id="XMLID_1054_" class="st4" d="M468.1,709.9c0,0.8-0.7,1.5-1.5,1.5c-0.8,0-1.5-0.7-1.5-1.5c0-0.8,0.7-1.5,1.5-1.5
			C467.5,708.3,468.1,709,468.1,709.9z M468,720.3h-2.7v-7.6h2.7V720.3z"/>
		<path id="XMLID_1050_" class="st4" d="M478.3,716.5c0,2.6-2.1,4-4.6,4c-2.4,0-4.6-1.4-4.6-4s2.1-4,4.6-4
			C476.2,712.5,478.3,714,478.3,716.5z M472,716.5c0,1,0.6,1.7,1.7,1.7c1.1,0,1.7-0.7,1.7-1.7c0-0.9-0.6-1.7-1.7-1.7
			C472.7,714.8,472,715.6,472,716.5z M473.4,711.6l-1.2-0.9l2.1-2.5l1.6,1.2L473.4,711.6z"/>
		<path id="XMLID_1048_" class="st4" d="M482.2,713.7L482.2,713.7c0.6-0.9,1.4-1.2,2.4-1.2c2,0,2.8,1.3,2.8,3.1v4.7h-2.7v-3.7
			c0-0.7,0.1-2-1.2-2c-1.1,0-1.4,0.8-1.4,1.8v3.9h-2.7v-7.6h2.7V713.7z"/>
		<path id="XMLID_1044_" class="st4" d="M497.2,720.3h-2.7V715h-0.9v-2.2h0.9v-1c0-1,0-1.8,0.8-2.7c0.7-0.8,1.6-1.2,2.6-1.2
			c0.4,0,0.8,0.1,1.2,0.3v2.3c-0.3-0.1-0.6-0.3-0.9-0.3c-0.7,0-0.9,0.4-0.9,1.3v1.2h1.9v2.2h-1.9V720.3z M502.7,709.9
			c0,0.8-0.7,1.5-1.5,1.5c-0.8,0-1.5-0.7-1.5-1.5c0-0.8,0.7-1.5,1.5-1.5C502.1,708.3,502.7,709,502.7,709.9z M502.6,720.3h-2.7v-7.6
			h2.7V720.3z"/>
		<path id="XMLID_1042_" class="st4" d="M507,714L507,714c0.5-0.9,1.4-1.3,2.5-1.3h0.5v2.6c-0.4-0.2-0.7-0.3-1.1-0.3
			c-1.5,0-1.9,1-1.9,2.3v3.1h-2.7v-7.6h2.7V714z"/>
		<path id="XMLID_920_" class="st4" d="M513.7,713.7L513.7,713.7c0.7-0.8,1.4-1.2,2.4-1.2c1.1,0,2,0.4,2.6,1.4
			c0.5-0.9,1.5-1.4,2.6-1.4c1.9,0,2.6,1.3,2.6,3v4.8h-2.7v-3.6c0-0.8,0-2.1-1.1-2.1c-1.2,0-1.3,1.2-1.3,2.1v3.6h-2.7v-3.6
			c0-0.8,0-2.1-1.2-2.1c-1.2,0-1.2,1.3-1.2,2.1v3.6H511v-7.6h2.7V713.7z"/>
		<path id="XMLID_917_" class="st4" d="M533.9,720.3h-2.7v-0.8h0c-0.5,0.8-1.4,1.1-2.3,1.1c-2.2,0-3.8-1.9-3.8-4c0-2.2,1.5-4,3.8-4
			c0.9,0,1.8,0.3,2.3,1v-0.7h2.7V720.3z M527.8,716.5c0,1,0.6,1.7,1.7,1.7c1.1,0,1.7-0.7,1.7-1.7c0-0.9-0.6-1.7-1.7-1.7
			C528.5,714.8,527.8,715.6,527.8,716.5z"/>
		<path id="XMLID_915_" class="st4" d="M539.6,712.8h3.1l2,3.9l2-3.9h3.1l-6.1,11.3h-3l2.6-4.8L539.6,712.8z"/>
		<path id="XMLID_913_" class="st4" d="M560.4,714.7c-0.4-0.2-1-0.4-1.4-0.4c-0.3,0-0.8,0.1-0.8,0.5c0,0.5,0.8,0.6,1.2,0.7
			c1.3,0.3,2.2,0.8,2.2,2.2c0,2-1.8,2.8-3.6,2.8c-1.1,0-2.1-0.3-3.1-0.9l1-1.9c0.5,0.4,1.5,0.8,2.1,0.8c0.3,0,0.8-0.2,0.8-0.6
			c0-0.6-0.8-0.6-1.7-0.8c-0.8-0.2-1.7-0.6-1.7-2c0-1.9,1.7-2.7,3.3-2.7c0.9,0,1.7,0.1,2.5,0.5L560.4,714.7z"/>
		<path id="XMLID_910_" class="st4" d="M570.8,717h-5.7c0,1.1,0.6,1.7,1.7,1.7c0.6,0,1-0.2,1.3-0.7h2.6c-0.2,0.9-0.7,1.5-1.4,2
			c-0.7,0.4-1.5,0.6-2.4,0.6c-2.5,0-4.4-1.4-4.4-4c0-2.5,1.7-4,4.2-4c2.6,0,4.1,1.6,4.1,4.2V717z M568.3,715.4
			c-0.1-0.7-0.8-1.2-1.5-1.2c-0.8,0-1.4,0.4-1.6,1.2H568.3z"/>
		<path id="XMLID_908_" class="st4" d="M574.7,720.3H572v-12.2h2.7V720.3z"/>
		<path id="XMLID_906_" class="st4" d="M579.1,720.3h-2.7v-12.2h2.7V720.3z"/>
		<path id="XMLID_903_" class="st4" d="M589.2,720.3h-2.7v-0.8h0c-0.5,0.8-1.4,1.1-2.3,1.1c-2.2,0-3.8-1.9-3.8-4c0-2.2,1.5-4,3.8-4
			c0.9,0,1.8,0.3,2.3,1v-0.7h2.7V720.3z M583.1,716.5c0,1,0.6,1.7,1.7,1.7c1.1,0,1.7-0.7,1.7-1.7c0-0.9-0.6-1.7-1.7-1.7
			C583.8,714.8,583.1,715.6,583.1,716.5z"/>
	</g>
</g>
<polygon id="XMLID_2531_" class="st5" points="391.1,50.7 381.7,56.2 372.3,61.6 372.3,50.7 372.3,39.9 381.7,45.3 "/>
<polygon id="XMLID_2530_" class="st5" points="497.8,135.8 492.3,126.4 486.9,117 497.8,117 508.6,117 503.2,126.4 "/>
<polygon id="XMLID_2529_" class="st5" points="611,183.8 620.4,178.3 629.8,172.9 629.8,183.8 629.8,194.6 620.4,189.2 "/>
<polygon id="XMLID_2528_" class="st5" points="611,50.7 620.4,45.3 629.8,39.9 629.8,50.7 629.8,61.6 620.4,56.2 "/>
<polygon id="XMLID_2527_" class="st5" points="611,312.7 620.4,307.3 629.8,301.9 629.8,312.7 629.8,323.6 620.4,318.1 "/>
<polygon id="XMLID_2526_" class="st5" points="663.8,183.8 654.4,189.2 645,194.6 645,183.8 645,172.9 654.4,178.3 "/>
<polygon id="XMLID_2525_" class="st5" points="775.5,126.4 770.1,117 764.6,107.5 775.5,107.5 786.4,107.5 780.9,117 "/>
<polygon id="XMLID_2524_" class="st5" points="775.5,237.9 780.9,247.3 786.4,256.7 775.5,256.7 764.6,256.7 770.1,247.3 "/>
<polygon id="XMLID_2523_" class="st5" points="497.8,266.1 492.3,256.7 486.9,247.3 497.8,247.3 508.6,247.3 503.2,256.7 "/>
<polygon id="XMLID_2522_" class="st5" points="497.8,396.4 492.3,387 486.9,377.6 497.8,377.6 508.6,377.6 503.2,387 "/>
<polygon id="XMLID_2520_" class="st5" points="497.8,526.7 492.3,517.3 486.9,507.9 497.8,507.9 508.6,507.9 503.2,517.3 "/>
<polygon id="XMLID_2518_" class="st5" points="497.8,657 492.3,647.6 486.9,638.2 497.8,638.2 508.6,638.2 503.2,647.6 "/>
<polygon id="XMLID_1609_" class="st5" points="211.2,609.3 205.7,599.9 200.3,590.5 211.2,590.5 222,590.5 216.6,599.9 "/>
<polygon id="XMLID_1608_" class="st5" points="211.2,712.7 216.6,722.1 222,731.5 211.2,731.5 200.3,731.5 205.7,722.1 "/>
<line id="XMLID_1607_" class="st0" x1="211.2" y1="505.5" x2="211.2" y2="606.7"/>
<polyline id="XMLID_1610_" class="st0" points="211.2,722.1 211.2,836.7 387.8,836.7 499.8,836.7 499.8,758.1 "/>
<polyline id="XMLID_1605_" class="st0" points="322.7,661.2 354.9,661.2 354.9,50.2 387.8,50.2 "/>
<line id="XMLID_1604_" class="st0" x1="616.3" y1="183.8" x2="656.5" y2="183.8"/>
<polyline id="XMLID_1603_" class="st0" points="620.4,50.7 775.5,50.7 775.5,120.2 "/>
<polyline id="XMLID_1602_" class="st0" points="775.5,242.4 775.5,312.7 624.5,312.7 "/>
</svg>
