<?xml version="1.0" encoding="utf-8"?>
<!-- Generator: Adobe Illustrator 21.0.2, SVG Export Plug-In . SVG Version: 6.00 Build 0)  -->
<svg version="1.1" id="Layer_1" xmlns="http://www.w3.org/2000/svg" xmlns:xlink="http://www.w3.org/1999/xlink" x="0px" y="0px"
	 viewBox="0 0 998.6 1017.7" style="enable-background:new 0 0 998.6 1017.7;" xml:space="preserve">
<style type="text/css">
	.st0{fill:none;stroke:#E42527;stroke-width:4;stroke-miterlimit:10;}
	.st1{fill:#D81117;}
	.st2{fill:#929191;}
	.st3{fill:#9D9D9C;}
	.st4{fill:#FFFFFF;}
	.st5{fill:#E42527;}
</style>
<line id="XMLID_5209_" class="st0" x1="497.4" y1="89.3" x2="497.4" y2="938.4"/>
<rect id="XMLID_5208_" x="98.9" y="410.4" class="st1" width="223.3" height="101.1"/>
<rect id="XMLID_5207_" x="98.9" y="612.2" class="st2" width="223.3" height="101.1"/>
<rect id="XMLID_5206_" x="387.4" y="0.7" class="st3" width="223.3" height="101.1"/>
<rect id="XMLID_5205_" x="663.6" y="131.8" class="st3" width="236.4" height="101.1"/>
<g id="XMLID_14087_">
	<g>
		<path id="XMLID_1312_" class="st4" d="M133.4,442.9l2.7-6.8h3.1l-4.8,11.1h-2.2l-4.7-11.1h3.1L133.4,442.9z"/>
		<path id="XMLID_1309_" class="st4" d="M145,438.3c0,1.6-1.4,2.4-3,2.4c-1.6,0-3-0.9-3-2.4c0-1.5,1.4-2.4,3-2.4
			C143.7,435.9,145,436.7,145,438.3z M141,438.3c0,0.6,0.5,1,1.1,1c0.6,0,1.1-0.4,1.1-1c0-0.6-0.5-1-1.1-1
			C141.5,437.3,141,437.7,141,438.3z"/>
		<path id="XMLID_1305_" class="st4" d="M151.1,447.3v-11.1h4.1c2,0,3.3,0.8,3.3,2.9c0,1-0.3,1.8-1.2,2.3v0c1.6,0.2,2.3,1.3,2.3,2.8
			c0,2.3-2,3.1-4,3.1H151.1z M154,440.5h0.3c0.8,0,1.6-0.1,1.6-1.1c0-1-0.9-1.1-1.7-1.1H154V440.5z M154,445.1h0.4
			c0.9,0,2.3,0,2.3-1.2c0-1.3-1.4-1.2-2.4-1.2H154V445.1z"/>
		<path id="XMLID_1302_" class="st4" d="M166.2,438.3c0,1.6-1.4,2.4-3,2.4c-1.6,0-3-0.9-3-2.4c0-1.5,1.4-2.4,3-2.4
			C164.8,435.9,166.2,436.7,166.2,438.3z M162.1,438.3c0,0.6,0.5,1,1.1,1c0.6,0,1.1-0.4,1.1-1c0-0.6-0.5-1-1.1-1
			C162.6,437.3,162.1,437.7,162.1,438.3z"/>
		<path id="XMLID_1299_" class="st4" d="M175.1,445.4l-0.8,1.9h-3.1l4.3-11.1h3.2l4.2,11.1h-3.1l-0.7-1.9H175.1z M177.1,439.6
			L177.1,439.6l-1.2,3.5h2.4L177.1,439.6z"/>
		<path id="XMLID_1296_" class="st4" d="M193,447.3h-3.6l-2.7-4.3h0v4.3h-2.9v-11.1h4.3c2.2,0,3.9,1,3.9,3.4c0,1.5-0.9,2.9-2.4,3.1
			L193,447.3z M186.6,441.1h0.3c0.9,0,2-0.2,2-1.4c0-1.2-1.1-1.4-2-1.4h-0.3V441.1z"/>
		<path id="XMLID_1294_" class="st4" d="M196.7,438.6v1.9h3.3v2.5h-3.3v1.9h3.4v2.5h-6.3v-11.1h6.3v2.5H196.7z"/>
		<path id="XMLID_1291_" class="st4" d="M204.7,445.4l-0.8,1.9h-3.1l4.3-11.1h3.2l4.2,11.1h-3.1l-0.7-1.9H204.7z M206.8,439.6
			L206.8,439.6l-1.2,3.5h2.4L206.8,439.6z"/>
		<path id="XMLID_1289_" class="st4" d="M222.9,447.3H220v-8.7h-2.4v-2.5h7.7v2.5h-2.4V447.3z"/>
		<path id="XMLID_1287_" class="st4" d="M229.3,438.6v1.9h3.3v2.5h-3.3v1.9h3.4v2.5h-6.3v-11.1h6.3v2.5H229.3z"/>
		<path id="XMLID_1285_" class="st4" d="M242.5,439.9c-0.6-0.8-1.5-1.2-2.5-1.2c-1.8,0-3,1.4-3,3.1c0,1.8,1.2,3,3,3
			c0.9,0,1.9-0.5,2.5-1.2v3.5c-1,0.3-1.7,0.5-2.6,0.5c-1.5,0-3-0.6-4.2-1.6c-1.2-1.1-1.8-2.6-1.8-4.2c0-1.5,0.6-3,1.6-4.1
			c1.1-1.1,2.7-1.8,4.2-1.8c0.9,0,1.8,0.2,2.6,0.6V439.9z"/>
		<path id="XMLID_1283_" class="st4" d="M244.2,436.2h2.9l5.3,6.8h0v-6.8h2.9v11.1h-2.9l-5.3-6.8h0v6.8h-2.9V436.2z"/>
		<path id="XMLID_1281_" class="st4" d="M260.1,447.3h-2.9v-11.1h2.9V447.3z"/>
		<path id="XMLID_1279_" class="st4" d="M270,439.9c-0.6-0.8-1.6-1.2-2.5-1.2c-1.8,0-3,1.4-3,3.1c0,1.8,1.2,3,3,3
			c0.9,0,1.9-0.5,2.5-1.2v3.5c-1,0.3-1.7,0.5-2.6,0.5c-1.5,0-3-0.6-4.2-1.6c-1.2-1.1-1.8-2.6-1.8-4.2c0-1.5,0.6-3,1.6-4.1
			c1.1-1.1,2.7-1.8,4.2-1.8c0.9,0,1.8,0.2,2.6,0.6V439.9z"/>
		<path id="XMLID_1276_" class="st4" d="M274.6,445.4l-0.8,1.9h-3.1l4.3-11.1h3.2l4.2,11.1h-3.1l-0.7-1.9H274.6z M276.6,439.6
			L276.6,439.6l-1.2,3.5h2.4L276.6,439.6z"/>
		<path id="XMLID_1274_" class="st4" d="M176.2,453.9h3.5l2.1,3l2.1-3h3.5l-4.1,5.8v5.3h-2.9v-5.3L176.2,453.9z"/>
		<path id="XMLID_1272_" class="st4" d="M195.9,462.6h3.5v2.5H193v-11.1h2.9V462.6z"/>
		<path id="XMLID_1270_" class="st4" d="M203.2,456.3v1.9h3.3v2.5h-3.3v1.9h3.4v2.5h-6.3v-11.1h6.3v2.5H203.2z"/>
		<path id="XMLID_1268_" class="st4" d="M219.6,458.8c0,1.6-0.1,3-1.1,4.4c-1.1,1.5-2.7,2.2-4.6,2.2c-3.5,0-5.9-2.4-5.9-5.9
			c0-3.6,2.5-6,6-6c2.3,0,4.1,1,5,3.1l-2.7,1.2c-0.4-1.1-1.2-1.8-2.4-1.8c-1.9,0-2.9,1.8-2.9,3.5c0,1.7,1,3.5,2.9,3.5
			c1.3,0,2.2-0.6,2.3-1.9h-2.4v-2.3H219.6z"/>
		<path id="XMLID_1265_" class="st4" d="M223.7,463.1l-0.8,1.9h-3.1l4.3-11.1h3.2l4.2,11.1h-3.1l-0.7-1.9H223.7z M225.7,457.3
			L225.7,457.3l-1.2,3.5h2.4L225.7,457.3z"/>
		<path id="XMLID_1263_" class="st4" d="M235.3,462.6h3.5v2.5h-6.4v-11.1h2.9V462.6z"/>
		<path id="XMLID_1260_" class="st4" d="M150.8,482.7h-3.6l-2.7-4.3h0v4.3h-2.9v-11.1h4.3c2.2,0,3.9,1,3.9,3.4
			c0,1.5-0.9,2.9-2.4,3.1L150.8,482.7z M144.5,476.6h0.3c0.9,0,2-0.2,2-1.4c0-1.2-1.1-1.4-2-1.4h-0.3V476.6z"/>
		<path id="XMLID_1257_" class="st4" d="M159.3,479.4h-5.7c0,1.1,0.6,1.7,1.7,1.7c0.6,0,1-0.2,1.3-0.7h2.6c-0.2,0.9-0.7,1.5-1.4,2
			c-0.7,0.4-1.6,0.6-2.4,0.6c-2.5,0-4.4-1.4-4.4-4c0-2.5,1.7-4,4.2-4c2.6,0,4.1,1.6,4.1,4.2V479.4z M156.8,477.8
			c-0.1-0.7-0.8-1.2-1.5-1.2c-0.8,0-1.4,0.4-1.6,1.2H156.8z"/>
		<path id="XMLID_1255_" class="st4" d="M164.3,479l1.8-3.9h3l-4,7.6h-1.7l-4-7.6h3L164.3,479z"/>
		<path id="XMLID_1252_" class="st4" d="M172.6,472.2c0,0.8-0.7,1.5-1.5,1.5c-0.8,0-1.5-0.7-1.5-1.5c0-0.8,0.7-1.5,1.5-1.5
			C171.9,470.7,172.6,471.4,172.6,472.2z M172.4,482.7h-2.7v-7.6h2.7V482.7z"/>
		<path id="XMLID_1250_" class="st4" d="M179.2,477.1c-0.4-0.2-1-0.4-1.4-0.4c-0.3,0-0.8,0.1-0.8,0.5c0,0.5,0.8,0.6,1.2,0.7
			c1.3,0.3,2.2,0.8,2.2,2.2c0,2-1.8,2.8-3.6,2.8c-1.1,0-2.1-0.3-3.1-0.9l1-1.9c0.5,0.4,1.5,0.8,2.1,0.8c0.3,0,0.8-0.2,0.8-0.6
			c0-0.6-0.8-0.6-1.7-0.8c-0.8-0.2-1.7-0.6-1.7-2c0-1.9,1.7-2.7,3.3-2.7c0.9,0,1.7,0.1,2.5,0.5L179.2,477.1z"/>
		<path id="XMLID_1247_" class="st4" d="M184.6,472.2c0,0.8-0.7,1.5-1.5,1.5c-0.8,0-1.5-0.7-1.5-1.5c0-0.8,0.7-1.5,1.5-1.5
			C183.9,470.7,184.6,471.4,184.6,472.2z M184.5,482.7h-2.7v-7.6h2.7V482.7z"/>
		<path id="XMLID_1243_" class="st4" d="M194.8,478.9c0,2.6-2.1,4-4.6,4c-2.4,0-4.6-1.4-4.6-4s2.1-4,4.6-4
			C192.7,474.9,194.8,476.4,194.8,478.9z M188.5,478.9c0,1,0.6,1.7,1.7,1.7c1.1,0,1.7-0.7,1.7-1.7c0-0.9-0.6-1.7-1.7-1.7
			C189.1,477.2,188.5,478,188.5,478.9z M189.9,474l-1.2-0.9l2.1-2.5l1.6,1.2L189.9,474z"/>
		<path id="XMLID_1241_" class="st4" d="M198.7,476.1L198.7,476.1c0.7-0.9,1.4-1.2,2.5-1.2c2,0,2.9,1.3,2.9,3.1v4.7h-2.7V479
			c0-0.7,0.1-2-1.2-2c-1.1,0-1.4,0.8-1.4,1.8v3.9H196v-7.6h2.7V476.1z"/>
		<path id="XMLID_1238_" class="st4" d="M213.4,476L213.4,476c0.5-0.8,1.4-1.1,2.3-1.1c2.3,0,3.8,1.9,3.8,4.1c0,2.2-1.6,4-3.8,4
			c-0.9,0-1.8-0.3-2.3-1v4.5h-2.7v-11.4h2.7V476z M213.3,478.9c0,1,0.6,1.7,1.7,1.7c1.1,0,1.7-0.7,1.7-1.7c0-0.9-0.6-1.7-1.7-1.7
			C214,477.2,213.3,478,213.3,478.9z"/>
		<path id="XMLID_1039_" class="st4" d="M223.6,476.4L223.6,476.4c0.5-0.9,1.4-1.3,2.5-1.3h0.5v2.6c-0.4-0.2-0.7-0.3-1.1-0.3
			c-1.5,0-1.9,1-1.9,2.3v3.1h-2.7v-7.6h2.7V476.4z"/>
		<path id="XMLID_1036_" class="st4" d="M235.4,479.4h-5.7c0,1.1,0.6,1.7,1.7,1.7c0.6,0,1-0.2,1.3-0.7h2.6c-0.2,0.9-0.7,1.5-1.4,2
			c-0.7,0.4-1.5,0.6-2.4,0.6c-2.5,0-4.4-1.4-4.4-4c0-2.5,1.7-4,4.2-4c2.6,0,4.1,1.6,4.1,4.2V479.4z M232.9,477.8
			c-0.1-0.7-0.8-1.2-1.5-1.2c-0.8,0-1.4,0.4-1.6,1.2H232.9z"/>
		<path id="XMLID_1034_" class="st4" d="M240.3,479l1.8-3.9h3l-4,7.6h-1.7l-4-7.6h3L240.3,479z"/>
		<path id="XMLID_1031_" class="st4" d="M248.6,472.2c0,0.8-0.7,1.5-1.5,1.5c-0.8,0-1.5-0.7-1.5-1.5c0-0.8,0.7-1.5,1.5-1.5
			C248,470.7,248.6,471.4,248.6,472.2z M248.5,482.7h-2.7v-7.6h2.7V482.7z"/>
		<path id="XMLID_1028_" class="st4" d="M258.5,482.7h-2.7v-0.8h0c-0.5,0.8-1.4,1.1-2.3,1.1c-2.2,0-3.8-1.9-3.8-4c0-2.2,1.6-4,3.8-4
			c0.9,0,1.8,0.3,2.3,1v-0.7h2.7V482.7z M252.5,478.9c0,1,0.6,1.7,1.7,1.7c1.1,0,1.7-0.7,1.7-1.7c0-0.9-0.6-1.7-1.7-1.7
			C253.1,477.2,252.5,478,252.5,478.9z"/>
		<path id="XMLID_1026_" class="st4" d="M263.7,481.3c0,0.9-0.8,1.7-1.7,1.7c-1,0-1.7-0.8-1.7-1.7c0-1,0.8-1.7,1.7-1.7
			C262.9,479.6,263.7,480.3,263.7,481.3z"/>
	</g>
</g>
<g id="XMLID_14052_">
	<g>
		<path id="XMLID_272_" class="st4" d="M135.5,664.4l2.7-6.8h3.1l-4.8,11.1h-2.2l-4.7-11.1h3.1L135.5,664.4z"/>
		<path id="XMLID_270_" class="st4" d="M144.9,660.1v1.9h3.3v2.5h-3.3v1.9h3.4v2.5h-6.3v-11.1h6.3v2.5H144.9z"/>
		<path id="XMLID_268_" class="st4" d="M150.2,657.6h2.9l5.3,6.8h0v-6.8h2.9v11.1h-2.9l-5.3-6.8h0v6.8h-2.9V657.6z"/>
		<path id="XMLID_266_" class="st4" d="M167.6,668.8h-2.9v-8.7h-2.4v-2.5h7.7v2.5h-2.4V668.8z"/>
		<path id="XMLID_263_" class="st4" d="M173,666.8l-0.8,1.9h-3.1l4.3-11.1h3.2l4.2,11.1h-3.1l-0.7-1.9H173z M175,661.1L175,661.1
			l-1.2,3.5h2.4L175,661.1z"/>
		<path id="XMLID_261_" class="st4" d="M181.7,657.6h2.9l5.3,6.8h0v-6.8h2.9v11.1h-2.9l-5.3-6.8h0v6.8h-2.9V657.6z"/>
		<path id="XMLID_259_" class="st4" d="M197.6,668.8h-2.9v-11.1h2.9V668.8z"/>
		<path id="XMLID_257_" class="st4" d="M202.4,666.3h3.5v2.5h-6.4v-11.1h2.9V666.3z"/>
		<path id="XMLID_255_" class="st4" d="M209.7,666.3h3.5v2.5h-6.4v-11.1h2.9V666.3z"/>
		<path id="XMLID_252_" class="st4" d="M216.9,666.8l-0.8,1.9h-3.1l4.3-11.1h3.2l4.2,11.1h-3.1l-0.7-1.9H216.9z M219,661.1
			L219,661.1l-1.2,3.5h2.4L219,661.1z"/>
		<path id="XMLID_249_" class="st4" d="M240.4,657.6v6.3c0,1.4-0.1,2.9-1.2,3.9c-0.9,0.9-2.4,1.2-3.7,1.2s-2.8-0.3-3.7-1.2
			c-1.1-1.1-1.2-2.5-1.2-3.9v-6.3h2.9v5.9c0,1.4,0.1,3,2,3c1.9,0,2-1.6,2-3v-5.9H240.4z M235.1,656.9l-1.2-0.9l2.1-2.5l1.6,1.2
			L235.1,656.9z"/>
		<path id="XMLID_247_" class="st4" d="M242.2,657.6h2.9l5.3,6.8h0v-6.8h2.9v11.1h-2.9l-5.3-6.8h0v6.8h-2.9V657.6z"/>
		<path id="XMLID_245_" class="st4" d="M258.1,668.8h-2.9v-11.1h2.9V668.8z"/>
		<path id="XMLID_243_" class="st4" d="M267.9,661.4c-0.6-0.8-1.5-1.2-2.5-1.2c-1.8,0-3,1.4-3,3.1c0,1.8,1.2,3,3,3
			c0.9,0,1.9-0.5,2.5-1.2v3.5c-1,0.3-1.7,0.5-2.6,0.5c-1.6,0-3-0.6-4.2-1.6c-1.2-1.1-1.8-2.6-1.8-4.2c0-1.5,0.6-3,1.6-4.1
			c1.1-1.1,2.7-1.8,4.2-1.8c0.9,0,1.8,0.2,2.6,0.6V661.4z"/>
		<path id="XMLID_240_" class="st4" d="M272.6,666.8l-0.8,1.9h-3.1l4.3-11.1h3.2l4.2,11.1h-3.1l-0.7-1.9H272.6z M274.6,661.1
			L274.6,661.1l-1.2,3.5h2.4L274.6,661.1z"/>
	</g>
</g>
<g id="XMLID_13958_">
	<g>
		<path id="XMLID_1234_" class="st4" d="M410.6,49.3l-0.8,1.9h-3.1l4.3-11.1h3.2l4.2,11.1h-3.1l-0.7-1.9H410.6z M412.6,43.6
			L412.6,43.6l-1.2,3.5h2.4L412.6,43.6z"/>
		<path id="XMLID_1230_" class="st4" d="M419.2,51.2V40.1h4.1c2,0,3.3,0.8,3.3,2.9c0,1-0.3,1.8-1.2,2.3v0c1.6,0.2,2.3,1.3,2.3,2.8
			c0,2.3-2,3.1-4,3.1H419.2z M422.1,44.5h0.3c0.8,0,1.6-0.1,1.6-1.1c0-1-0.9-1.1-1.7-1.1h-0.2V44.5z M422.1,49h0.4
			c0.9,0,2.3,0,2.3-1.2c0-1.3-1.4-1.2-2.4-1.2h-0.3V49z"/>
		<path id="XMLID_1227_" class="st4" d="M441,45.5c0,3.6-2.6,6.1-6.2,6.1s-6.2-2.5-6.2-6.1c0-3.4,3-5.7,6.2-5.7
			C438,39.7,441,42.1,441,45.5z M431.7,45.5c0,1.9,1.4,3.3,3.1,3.3s3.1-1.4,3.1-3.3c0-1.5-1.4-2.9-3.1-2.9S431.7,44,431.7,45.5z"/>
		<path id="XMLID_1225_" class="st4" d="M453.4,45c0,1.6-0.1,3-1.1,4.4c-1.1,1.5-2.7,2.2-4.6,2.2c-3.5,0-5.9-2.4-5.9-5.9
			c0-3.6,2.5-6,6-6c2.3,0,4.1,1,5,3.1l-2.7,1.2c-0.4-1.1-1.2-1.8-2.4-1.8c-1.9,0-2.9,1.8-2.9,3.5c0,1.7,1,3.5,2.9,3.5
			c1.3,0,2.2-0.6,2.3-1.9h-2.4V45H453.4z"/>
		<path id="XMLID_1222_" class="st4" d="M457.6,49.3l-0.8,1.9h-3.1l4.3-11.1h3.2l4.2,11.1h-3.1l-0.7-1.9H457.6z M459.6,43.6
			L459.6,43.6l-1.2,3.5h2.4L459.6,43.6z"/>
		<path id="XMLID_1219_" class="st4" d="M466.3,40.1h4.1c3.1,0,5.7,2.4,5.7,5.6s-2.6,5.6-5.7,5.6h-4.1V40.1z M469.2,48.8h0.6
			c1.7,0,3.2-0.9,3.2-3.1c0-2-1.3-3.1-3.2-3.1h-0.7V48.8z"/>
		<path id="XMLID_1216_" class="st4" d="M489.2,45.5c0,3.6-2.6,6.1-6.2,6.1s-6.2-2.5-6.2-6.1c0-3.4,3-5.7,6.2-5.7
			C486.2,39.7,489.2,42.1,489.2,45.5z M479.9,45.5c0,1.9,1.4,3.3,3.1,3.3c1.7,0,3.1-1.4,3.1-3.3c0-1.5-1.4-2.9-3.1-2.9
			C481.3,42.6,479.9,44,479.9,45.5z"/>
		<path id="XMLID_1214_" class="st4" d="M505.2,40.1v6.3c0,1.4-0.1,2.9-1.2,3.9c-0.9,0.9-2.4,1.2-3.7,1.2c-1.3,0-2.8-0.3-3.7-1.2
			c-1.1-1.1-1.2-2.5-1.2-3.9v-6.3h2.9V46c0,1.4,0.1,3,2,3c1.9,0,2-1.6,2-3v-5.9H505.2z"/>
		<path id="XMLID_1211_" class="st4" d="M516.3,51.2h-3.6L510,47h0v4.3h-2.9V40.1h4.3c2.2,0,3.9,1,3.9,3.4c0,1.5-0.9,2.9-2.4,3.1
			L516.3,51.2z M509.9,45.1h0.3c0.9,0,2-0.2,2-1.4c0-1.2-1.1-1.4-2-1.4h-0.3V45.1z"/>
		<path id="XMLID_1207_" class="st4" d="M517.1,51.2V40.1h4.1c2,0,3.3,0.8,3.3,2.9c0,1-0.3,1.8-1.2,2.3v0c1.6,0.2,2.3,1.3,2.3,2.8
			c0,2.3-2,3.1-4,3.1H517.1z M520,44.5h0.3c0.8,0,1.6-0.1,1.6-1.1c0-1-0.9-1.1-1.7-1.1H520V44.5z M520,49h0.4c0.9,0,2.3,0,2.3-1.2
			c0-1.3-1.4-1.2-2.4-1.2H520V49z"/>
		<path id="XMLID_1100_" class="st4" d="M529.9,49.3l-0.8,1.9h-3.1l4.3-11.1h3.2l4.2,11.1h-3.1l-0.7-1.9H529.9z M531.9,43.6
			L531.9,43.6l-1.2,3.5h2.4L531.9,43.6z"/>
		<path id="XMLID_1098_" class="st4" d="M538.6,40.1h2.9l5.3,6.8h0v-6.8h2.9v11.1h-2.9l-5.3-6.8h0v6.8h-2.9V40.1z"/>
		<path id="XMLID_1096_" class="st4" d="M554.5,51.2h-2.9V40.1h2.9V51.2z"/>
		<path id="XMLID_1094_" class="st4" d="M562.5,43c-0.5-0.4-1.2-0.7-1.9-0.7c-0.5,0-1.2,0.3-1.2,0.9c0,0.6,0.8,0.9,1.3,1.1l0.7,0.2
			c1.6,0.5,2.7,1.2,2.7,3c0,1.1-0.3,2.2-1.2,3c-0.9,0.7-2,1-3.2,1c-1.4,0-2.8-0.5-3.9-1.3l1.2-2.3c0.7,0.6,1.6,1.2,2.6,1.2
			c0.7,0,1.4-0.3,1.4-1.1c0-0.8-1.1-1.1-1.8-1.3c-1.8-0.5-3-1-3-3.1c0-2.3,1.6-3.7,3.8-3.7c1.1,0,2.5,0.4,3.5,0.9L562.5,43z"/>
		<path id="XMLID_1092_" class="st4" d="M566.7,40.1h2.8l2.3,6l2.4-6h2.9l1.7,11.1h-2.9l-0.8-6.4h0l-2.7,6.4h-1.2l-2.6-6.4h0
			l-0.9,6.4h-2.9L566.7,40.1z"/>
		<path id="XMLID_1089_" class="st4" d="M591.8,45.5c0,3.6-2.6,6.1-6.2,6.1c-3.6,0-6.2-2.5-6.2-6.1c0-3.4,3-5.7,6.2-5.7
			C588.8,39.7,591.8,42.1,591.8,45.5z M582.5,45.5c0,1.9,1.4,3.3,3.1,3.3s3.1-1.4,3.1-3.3c0-1.5-1.4-2.9-3.1-2.9
			S582.5,44,582.5,45.5z"/>
		<path id="XMLID_1087_" class="st4" d="M421,64.6l2.7-6.8h3.1L422.1,69h-2.2l-4.7-11.1h3.1L421,64.6z"/>
		<path id="XMLID_1084_" class="st4" d="M434.2,65.6h-5.7c0,1.1,0.6,1.7,1.7,1.7c0.6,0,1-0.2,1.3-0.7h2.6c-0.2,0.9-0.7,1.5-1.4,2
			c-0.7,0.4-1.6,0.6-2.4,0.6c-2.5,0-4.4-1.4-4.4-4c0-2.5,1.7-4,4.2-4c2.6,0,4.1,1.6,4.1,4.2V65.6z M431.7,64.1
			c-0.1-0.7-0.8-1.2-1.5-1.2c-0.8,0-1.4,0.4-1.6,1.2H431.7z"/>
		<path id="XMLID_1082_" class="st4" d="M438.1,62.6L438.1,62.6c0.5-0.9,1.4-1.3,2.5-1.3h0.5v2.6c-0.4-0.2-0.7-0.3-1.1-0.3
			c-1.5,0-1.9,1-1.9,2.3V69h-2.7v-7.6h2.7V62.6z"/>
		<path id="XMLID_1079_" class="st4" d="M445,58.5c0,0.8-0.7,1.5-1.5,1.5c-0.8,0-1.5-0.7-1.5-1.5c0-0.8,0.7-1.5,1.5-1.5
			C444.3,57,445,57.7,445,58.5z M444.8,69h-2.7v-7.6h2.7V69z"/>
		<path id="XMLID_1075_" class="st4" d="M449.5,69h-2.7v-5.4h-0.9v-2.2h0.9v-1c0-1,0-1.8,0.8-2.7c0.7-0.8,1.6-1.2,2.6-1.2
			c0.4,0,0.8,0.1,1.2,0.3v2.3c-0.3-0.1-0.6-0.3-0.9-0.3c-0.7,0-0.9,0.4-0.9,1.3v1.2h1.9v2.2h-1.9V69z M455,58.5
			c0,0.8-0.7,1.5-1.5,1.5c-0.8,0-1.5-0.7-1.5-1.5c0-0.8,0.7-1.5,1.5-1.5C454.3,57,455,57.7,455,58.5z M454.8,69h-2.7v-7.6h2.7V69z"
			/>
		<path id="XMLID_1073_" class="st4" d="M462.1,63.9c-0.4-0.3-0.9-0.5-1.4-0.5c-1,0-1.8,0.8-1.8,1.8c0,1.1,0.8,1.9,1.9,1.9
			c0.5,0,1-0.2,1.3-0.5v2.3c-0.6,0.3-1.2,0.4-1.9,0.4c-2.2,0-4.1-1.7-4.1-4c0-2.4,1.9-4.1,4.2-4.1c0.6,0,1.2,0.1,1.8,0.4V63.9z"/>
		<path id="XMLID_1070_" class="st4" d="M472,69h-2.7v-0.8h0c-0.5,0.8-1.4,1.1-2.3,1.1c-2.2,0-3.8-1.9-3.8-4c0-2.2,1.5-4,3.8-4
			c0.9,0,1.8,0.3,2.3,1v-0.7h2.7V69z M466,65.2c0,1,0.6,1.7,1.7,1.7s1.7-0.7,1.7-1.7c0-0.9-0.6-1.7-1.7-1.7S466,64.3,466,65.2z"/>
		<path id="XMLID_1068_" class="st4" d="M479.3,63.9c-0.4-0.3-0.9-0.5-1.4-0.5c-1,0-1.8,0.8-1.8,1.8c0,1.1,0.8,1.9,1.9,1.9
			c0.5,0,1-0.2,1.3-0.5v2.3c-0.6,0.3-1.2,0.4-1.9,0.4c-2.2,0-4.1-1.7-4.1-4c0-2.4,1.9-4.1,4.2-4.1c0.6,0,1.2,0.1,1.8,0.4V63.9z"/>
		<path id="XMLID_1065_" class="st4" d="M483.8,58.5c0,0.8-0.7,1.5-1.5,1.5c-0.8,0-1.5-0.7-1.5-1.5c0-0.8,0.7-1.5,1.5-1.5
			C483.1,57,483.8,57.7,483.8,58.5z M483.6,69h-2.7v-7.6h2.7V69z"/>
		<path id="XMLID_1061_" class="st4" d="M494,65.2c0,2.6-2.1,4-4.6,4c-2.4,0-4.6-1.4-4.6-4c0-2.6,2.1-4,4.6-4
			C491.8,61.1,494,62.6,494,65.2z M487.7,65.2c0,1,0.6,1.7,1.7,1.7c1.1,0,1.7-0.7,1.7-1.7c0-0.9-0.6-1.7-1.7-1.7
			C488.3,63.5,487.7,64.3,487.7,65.2z M489.1,60.3l-1.2-0.9l2.1-2.5l1.6,1.2L489.1,60.3z"/>
		<path id="XMLID_1059_" class="st4" d="M497.9,62.4L497.9,62.4c0.7-0.9,1.4-1.2,2.5-1.2c2,0,2.9,1.3,2.9,3.1V69h-2.7v-3.7
			c0-0.7,0.1-2-1.2-2c-1.1,0-1.4,0.8-1.4,1.8V69h-2.7v-7.6h2.7V62.4z"/>
		<path id="XMLID_1056_" class="st4" d="M517.8,65.6h-5.7c0,1.1,0.6,1.7,1.7,1.7c0.6,0,1-0.2,1.3-0.7h2.6c-0.2,0.9-0.7,1.5-1.4,2
			c-0.7,0.4-1.6,0.6-2.4,0.6c-2.5,0-4.4-1.4-4.4-4c0-2.5,1.7-4,4.2-4c2.6,0,4.1,1.6,4.1,4.2V65.6z M515.3,64.1
			c-0.1-0.7-0.8-1.2-1.5-1.2c-0.8,0-1.4,0.4-1.6,1.2H515.3z"/>
		<path id="XMLID_1054_" class="st4" d="M527,69h-2.9V57.8h2.9V69z"/>
		<path id="XMLID_1052_" class="st4" d="M531.5,62.4L531.5,62.4c0.6-0.9,1.4-1.2,2.5-1.2c2,0,2.8,1.3,2.8,3.1V69h-2.7v-3.7
			c0-0.7,0.1-2-1.2-2c-1.1,0-1.4,0.8-1.4,1.8V69h-2.7v-7.6h2.7V62.4z"/>
		<path id="XMLID_1050_" class="st4" d="M541.6,69h-2.7v-5.4h-0.9v-2.2h0.9v-1c0-1,0-1.8,0.8-2.7c0.7-0.8,1.6-1.2,2.6-1.2
			c0.4,0,0.8,0.1,1.2,0.3v2.3c-0.3-0.1-0.6-0.3-0.9-0.3c-0.7,0-0.9,0.4-0.9,1.3v1.2h1.9v2.2h-1.9V69z"/>
		<path id="XMLID_1047_" class="st4" d="M552.9,65.2c0,2.6-2.1,4-4.6,4c-2.4,0-4.6-1.4-4.6-4c0-2.6,2.1-4,4.6-4
			C550.8,61.1,552.9,62.6,552.9,65.2z M546.6,65.2c0,1,0.6,1.7,1.7,1.7c1.1,0,1.7-0.7,1.7-1.7c0-0.9-0.6-1.7-1.7-1.7
			C547.3,63.5,546.6,64.3,546.6,65.2z"/>
		<path id="XMLID_1045_" class="st4" d="M556.8,62.6L556.8,62.6c0.5-0.9,1.4-1.3,2.5-1.3h0.5v2.6c-0.4-0.2-0.7-0.3-1.1-0.3
			c-1.5,0-1.9,1-1.9,2.3V69h-2.7v-7.6h2.7V62.6z"/>
		<path id="XMLID_1043_" class="st4" d="M563.5,62.3L563.5,62.3c0.7-0.8,1.4-1.2,2.4-1.2c1.1,0,2,0.4,2.6,1.4
			c0.5-0.9,1.5-1.4,2.6-1.4c1.9,0,2.6,1.3,2.6,3V69H571v-3.6c0-0.8,0-2.1-1.1-2.1c-1.2,0-1.3,1.2-1.3,2.1V69h-2.7v-3.6
			c0-0.8,0-2.1-1.2-2.1c-1.2,0-1.2,1.3-1.2,2.1V69h-2.7v-7.6h2.7V62.3z"/>
		<path id="XMLID_1040_" class="st4" d="M583.2,65.6h-5.7c0,1.1,0.6,1.7,1.7,1.7c0.6,0,1-0.2,1.3-0.7h2.6c-0.2,0.9-0.7,1.5-1.4,2
			c-0.7,0.4-1.5,0.6-2.4,0.6c-2.5,0-4.4-1.4-4.4-4c0-2.5,1.7-4,4.2-4c2.6,0,4.1,1.6,4.1,4.2V65.6z M580.7,64.1
			c-0.1-0.7-0.8-1.2-1.5-1.2c-0.8,0-1.4,0.4-1.6,1.2H580.7z"/>
	</g>
</g>
<g id="XMLID_13898_">
	<g>
		<path id="XMLID_565_" class="st4" d="M720.5,169.9c-0.6-0.8-1.5-1.2-2.5-1.2c-1.8,0-3,1.4-3,3.1c0,1.8,1.2,3,3,3
			c0.9,0,1.9-0.5,2.5-1.2v3.5c-1,0.3-1.7,0.5-2.6,0.5c-1.6,0-3-0.6-4.2-1.6c-1.2-1.1-1.8-2.6-1.8-4.2c0-1.5,0.6-3,1.6-4.1
			c1.1-1.1,2.7-1.8,4.2-1.8c0.9,0,1.8,0.2,2.6,0.6V169.9z"/>
		<path id="XMLID_562_" class="st4" d="M734,171.5c0,3.6-2.6,6.1-6.2,6.1c-3.6,0-6.2-2.5-6.2-6.1c0-3.4,3-5.7,6.2-5.7
			C731,165.8,734,168.1,734,171.5z M724.7,171.5c0,1.9,1.4,3.3,3.1,3.3c1.7,0,3.1-1.4,3.1-3.3c0-1.5-1.4-2.9-3.1-2.9
			C726.1,168.6,724.7,170,724.7,171.5z"/>
		<path id="XMLID_560_" class="st4" d="M735.3,166.1h2.9l5.3,6.8h0v-6.8h2.9v11.1h-2.9l-5.3-6.8h0v6.8h-2.9V166.1z"/>
		<path id="XMLID_558_" class="st4" d="M752.8,177.3h-2.9v-8.7h-2.4v-2.5h7.7v2.5h-2.4V177.3z"/>
		<path id="XMLID_555_" class="st4" d="M765.5,177.3h-3.6l-2.7-4.3h0v4.3h-2.9v-11.1h4.3c2.2,0,3.9,1,3.9,3.4c0,1.5-0.9,2.9-2.4,3.1
			L765.5,177.3z M759.1,171.1h0.3c0.9,0,2-0.2,2-1.4c0-1.2-1.1-1.4-2-1.4h-0.3V171.1z"/>
		<path id="XMLID_553_" class="st4" d="M769.2,177.3h-2.9v-11.1h2.9V177.3z"/>
		<path id="XMLID_549_" class="st4" d="M771,177.3v-11.1h4.1c2,0,3.3,0.8,3.3,2.9c0,1-0.3,1.8-1.2,2.3v0c1.6,0.2,2.3,1.3,2.3,2.8
			c0,2.3-2,3.1-4,3.1H771z M773.9,170.5h0.3c0.8,0,1.6-0.1,1.6-1.1c0-1-0.9-1.1-1.7-1.1h-0.2V170.5z M773.9,175.1h0.4
			c0.9,0,2.3,0,2.3-1.2c0-1.3-1.4-1.2-2.4-1.2h-0.3V175.1z"/>
		<path id="XMLID_547_" class="st4" d="M790.7,166.1v6.3c0,1.4-0.1,2.9-1.2,3.9c-0.9,0.9-2.4,1.2-3.7,1.2c-1.3,0-2.8-0.3-3.7-1.2
			c-1.1-1.1-1.2-2.5-1.2-3.9v-6.3h2.9v5.9c0,1.4,0.1,3,2,3s2-1.6,2-3v-5.9H790.7z"/>
		<path id="XMLID_545_" class="st4" d="M791.3,166.1h3.5l2.1,3l2.1-3h3.5l-4.1,5.8v5.3h-2.9v-5.3L791.3,166.1z"/>
		<path id="XMLID_543_" class="st4" d="M806,168.6v1.9h3.3v2.5H806v1.9h3.4v2.5h-6.3v-11.1h6.3v2.5H806z"/>
		<path id="XMLID_541_" class="st4" d="M811.2,166.1h2.9l5.3,6.8h0v-6.8h2.9v11.1h-2.9l-5.3-6.8h0v6.8h-2.9V166.1z"/>
		<path id="XMLID_539_" class="st4" d="M828.6,177.3h-2.9v-8.7h-2.4v-2.5h7.7v2.5h-2.4V177.3z"/>
		<path id="XMLID_537_" class="st4" d="M835,168.6v1.9h3.3v2.5H835v1.9h3.4v2.5h-6.3v-11.1h6.3v2.5H835z"/>
		<path id="XMLID_535_" class="st4" d="M735.9,187.6c-0.6-0.8-1.5-1.2-2.5-1.2c-1.8,0-3,1.4-3,3.1c0,1.8,1.2,3,3,3
			c0.9,0,1.9-0.5,2.5-1.2v3.5c-1,0.3-1.7,0.5-2.6,0.5c-1.5,0-3-0.6-4.2-1.6c-1.2-1.1-1.8-2.6-1.8-4.2c0-1.5,0.6-3,1.6-4.1
			c1.1-1.1,2.7-1.8,4.2-1.8c0.9,0,1.8,0.2,2.6,0.6V187.6z"/>
		<path id="XMLID_532_" class="st4" d="M746.2,191.2c0,2.6-2.1,4-4.6,4c-2.4,0-4.6-1.4-4.6-4s2.1-4,4.6-4
			C744.1,187.2,746.2,188.6,746.2,191.2z M739.9,191.2c0,1,0.6,1.7,1.7,1.7c1.1,0,1.7-0.7,1.7-1.7c0-0.9-0.6-1.7-1.7-1.7
			C740.6,189.5,739.9,190.3,739.9,191.2z"/>
		<path id="XMLID_530_" class="st4" d="M750.1,188.7L750.1,188.7c0.5-0.9,1.4-1.3,2.5-1.3h0.5v2.6c-0.4-0.2-0.7-0.3-1.1-0.3
			c-1.5,0-1.9,1-1.9,2.3v3.1h-2.7v-7.6h2.7V188.7z"/>
		<path id="XMLID_528_" class="st4" d="M756.8,188.7L756.8,188.7c0.5-0.9,1.4-1.3,2.5-1.3h0.5v2.6c-0.4-0.2-0.7-0.3-1.1-0.3
			c-1.5,0-1.9,1-1.9,2.3v3.1h-2.7v-7.6h2.7V188.7z"/>
		<path id="XMLID_497_" class="st4" d="M768.6,191.7h-5.7c0,1.1,0.6,1.7,1.7,1.7c0.6,0,1-0.2,1.3-0.7h2.6c-0.2,0.9-0.7,1.5-1.4,2
			c-0.7,0.4-1.6,0.6-2.4,0.6c-2.5,0-4.4-1.4-4.4-4c0-2.5,1.7-4,4.2-4c2.6,0,4.1,1.6,4.1,4.2V191.7z M766.1,190.1
			c-0.1-0.7-0.8-1.2-1.5-1.2c-0.8,0-1.4,0.4-1.6,1.2H766.1z"/>
		<path id="XMLID_495_" class="st4" d="M775.3,189.9c-0.4-0.3-0.9-0.5-1.4-0.5c-1,0-1.8,0.8-1.8,1.8c0,1.1,0.8,1.9,1.9,1.9
			c0.5,0,1-0.2,1.3-0.5v2.3c-0.6,0.3-1.2,0.4-1.9,0.4c-2.2,0-4.1-1.7-4.1-4c0-2.4,1.9-4.1,4.2-4.1c0.6,0,1.2,0.1,1.8,0.4V189.9z"/>
		<path id="XMLID_493_" class="st4" d="M782.4,189.9c-0.4-0.3-0.9-0.5-1.4-0.5c-1,0-1.8,0.8-1.8,1.8c0,1.1,0.8,1.9,1.9,1.9
			c0.5,0,1-0.2,1.3-0.5v2.3c-0.6,0.3-1.2,0.4-1.9,0.4c-2.2,0-4.1-1.7-4.1-4c0-2.4,1.9-4.1,4.2-4.1c0.6,0,1.2,0.1,1.8,0.4V189.9z"/>
		<path id="XMLID_490_" class="st4" d="M786.9,184.5c0,0.8-0.7,1.5-1.5,1.5c-0.8,0-1.5-0.7-1.5-1.5c0-0.8,0.7-1.5,1.5-1.5
			C786.3,183,786.9,183.7,786.9,184.5z M786.8,195h-2.7v-7.6h2.7V195z"/>
		<path id="XMLID_487_" class="st4" d="M797.1,191.2c0,2.6-2.1,4-4.6,4c-2.4,0-4.6-1.4-4.6-4s2.1-4,4.6-4
			C795,187.2,797.1,188.6,797.1,191.2z M790.8,191.2c0,1,0.6,1.7,1.7,1.7c1.1,0,1.7-0.7,1.7-1.7c0-0.9-0.6-1.7-1.7-1.7
			C791.4,189.5,790.8,190.3,790.8,191.2z"/>
		<path id="XMLID_485_" class="st4" d="M801,188.4L801,188.4c0.7-0.9,1.4-1.2,2.5-1.2c2,0,2.9,1.3,2.9,3.1v4.7h-2.7v-3.7
			c0-0.7,0.1-2-1.2-2c-1.1,0-1.4,0.8-1.4,1.8v3.9h-2.7v-7.6h2.7V188.4z"/>
		<path id="XMLID_482_" class="st4" d="M815.9,191.7h-5.7c0,1.1,0.6,1.7,1.7,1.7c0.6,0,1-0.2,1.3-0.7h2.6c-0.2,0.9-0.7,1.5-1.4,2
			c-0.7,0.4-1.6,0.6-2.4,0.6c-2.5,0-4.4-1.4-4.4-4c0-2.5,1.7-4,4.2-4c2.6,0,4.1,1.6,4.1,4.2V191.7z M813.4,190.1
			c-0.1-0.7-0.8-1.2-1.5-1.2c-0.8,0-1.4,0.4-1.6,1.2H813.4z"/>
		<path id="XMLID_480_" class="st4" d="M822.1,189.4c-0.4-0.2-1-0.4-1.4-0.4c-0.3,0-0.8,0.1-0.8,0.5c0,0.5,0.8,0.6,1.2,0.7
			c1.3,0.3,2.2,0.8,2.2,2.2c0,2-1.8,2.8-3.6,2.8c-1.1,0-2.1-0.3-3.1-0.9l1-1.9c0.5,0.4,1.5,0.8,2.1,0.8c0.3,0,0.8-0.2,0.8-0.6
			c0-0.6-0.8-0.6-1.7-0.8c-0.8-0.2-1.7-0.6-1.7-2c0-1.9,1.7-2.7,3.3-2.7c0.9,0,1.7,0.1,2.5,0.5L822.1,189.4z"/>
	</g>
</g>
<rect id="XMLID_5200_" x="387.4" y="131.8" class="st3" width="223.3" height="101.1"/>
<rect id="XMLID_5199_" x="387.4" y="262.9" class="st3" width="223.3" height="101.1"/>
<g id="XMLID_13785_">
	<g>
		<path id="XMLID_1571_" class="st4" d="M421.2,169.8l-0.8,1.9h-3.1l4.3-11.1h3.2l4.2,11.1h-3.1l-0.7-1.9H421.2z M423.2,164.1
			L423.2,164.1l-1.2,3.5h2.4L423.2,164.1z"/>
		<path id="XMLID_1568_" class="st4" d="M439.1,171.7h-3.6l-2.7-4.3h0v4.3h-2.9v-11.1h4.3c2.2,0,3.9,1,3.9,3.4
			c0,1.5-0.9,2.9-2.4,3.1L439.1,171.7z M432.7,165.6h0.3c0.9,0,2-0.2,2-1.4c0-1.2-1.1-1.4-2-1.4h-0.3V165.6z"/>
		<path id="XMLID_1566_" class="st4" d="M442.8,163.1v1.9h3.3v2.5h-3.3v1.9h3.4v2.5h-6.3v-11.1h6.3v2.5H442.8z"/>
		<path id="XMLID_1563_" class="st4" d="M450.8,169.8l-0.8,1.9H447l4.3-11.1h3.2l4.2,11.1h-3.1l-0.7-1.9H450.8z M452.9,164.1
			L452.9,164.1l-1.2,3.5h2.4L452.9,164.1z"/>
		<path id="XMLID_1561_" class="st4" d="M469,171.7h-2.9v-8.7h-2.4v-2.5h7.7v2.5H469V171.7z"/>
		<path id="XMLID_1559_" class="st4" d="M475.4,163.1v1.9h3.3v2.5h-3.3v1.9h3.4v2.5h-6.3v-11.1h6.3v2.5H475.4z"/>
		<path id="XMLID_1557_" class="st4" d="M488.5,164.3c-0.6-0.8-1.5-1.2-2.5-1.2c-1.8,0-3,1.4-3,3.1c0,1.8,1.2,3,3,3
			c0.9,0,1.9-0.5,2.5-1.2v3.5c-1,0.3-1.7,0.5-2.6,0.5c-1.5,0-3-0.6-4.2-1.6c-1.2-1.1-1.8-2.6-1.8-4.2c0-1.5,0.6-3,1.6-4.1
			c1.1-1.1,2.7-1.8,4.2-1.8c0.9,0,1.8,0.2,2.6,0.6V164.3z"/>
		<path id="XMLID_1555_" class="st4" d="M490.3,160.6h2.9l5.3,6.8h0v-6.8h2.9v11.1h-2.9l-5.3-6.8h0v6.8h-2.9V160.6z"/>
		<path id="XMLID_1553_" class="st4" d="M506.2,171.7h-2.9v-11.1h2.9V171.7z"/>
		<path id="XMLID_1551_" class="st4" d="M516.1,164.3c-0.6-0.8-1.5-1.2-2.5-1.2c-1.8,0-3,1.4-3,3.1c0,1.8,1.2,3,3,3
			c0.9,0,1.9-0.5,2.5-1.2v3.5c-1,0.3-1.7,0.5-2.6,0.5c-1.5,0-3-0.6-4.2-1.6c-1.2-1.1-1.8-2.6-1.8-4.2c0-1.5,0.6-3,1.6-4.1
			c1.1-1.1,2.7-1.8,4.2-1.8c0.9,0,1.8,0.2,2.6,0.6V164.3z"/>
		<path id="XMLID_1527_" class="st4" d="M529.6,166c0,3.6-2.6,6.1-6.2,6.1s-6.2-2.5-6.2-6.1c0-3.4,3-5.7,6.2-5.7
			C526.7,160.2,529.6,162.6,529.6,166z M520.3,166c0,1.9,1.4,3.3,3.1,3.3c1.7,0,3.1-1.4,3.1-3.3c0-1.5-1.4-2.9-3.1-2.9
			C521.7,163,520.3,164.5,520.3,166z"/>
		<path id="XMLID_1454_" class="st4" d="M537.1,163.5c-0.5-0.4-1.2-0.7-1.9-0.7c-0.5,0-1.2,0.3-1.2,0.9c0,0.6,0.8,0.9,1.3,1.1
			l0.7,0.2c1.6,0.5,2.7,1.2,2.7,3c0,1.1-0.3,2.2-1.2,3c-0.9,0.7-2,1-3.2,1c-1.4,0-2.8-0.5-3.9-1.3l1.2-2.3c0.7,0.6,1.6,1.2,2.6,1.2
			c0.7,0,1.4-0.3,1.4-1.1c0-0.8-1.1-1.1-1.8-1.3c-1.8-0.5-3-1-3-3.1c0-2.3,1.6-3.7,3.8-3.7c1.1,0,2.5,0.4,3.5,0.9L537.1,163.5z"/>
		<path id="XMLID_1452_" class="st4" d="M547.3,159.5l-5.6,13.6h-2.1l5.6-13.6H547.3z"/>
		<path id="XMLID_1449_" class="st4" d="M551.4,169.8l-0.8,1.9h-3.1l4.3-11.1h3.2l4.2,11.1h-3.1l-0.7-1.9H551.4z M553.5,164.1
			L553.5,164.1l-1.2,3.5h2.4L553.5,164.1z"/>
		<path id="XMLID_1446_" class="st4" d="M569.4,171.7h-3.6l-2.7-4.3h0v4.3h-2.9v-11.1h4.3c2.2,0,3.9,1,3.9,3.4
			c0,1.5-0.9,2.9-2.4,3.1L569.4,171.7z M563,165.6h0.3c0.9,0,2-0.2,2-1.4c0-1.2-1.1-1.4-2-1.4H563V165.6z"/>
		<path id="XMLID_1443_" class="st4" d="M579.7,172.4l-0.9-1c-0.9,0.5-1.9,0.7-3.1,0.7c-3.6,0-6.2-2.5-6.2-6.1c0-3.4,3-5.7,6.2-5.7
			c3.5,0,6.2,2.3,6.2,6c0,1.5-0.5,2.8-1.4,3.9l1.9,1.9L579.7,172.4z M578.4,167.9c0.3-0.5,0.5-1.1,0.5-1.6c0-1.7-1.4-3.2-3.1-3.2
			c-1.7,0-3.2,1.4-3.2,2.9c0,1.9,1.4,3.3,3.2,3.3c0.3,0,0.6,0,0.9-0.1l-1.8-1.8l2.7-0.3L578.4,167.9z"/>
		<path id="XMLID_1441_" class="st4" d="M430.1,189.5h-2.9v-11.1h2.9V189.5z"/>
		<path id="XMLID_1439_" class="st4" d="M434.6,182.9L434.6,182.9c0.6-0.9,1.4-1.2,2.5-1.2c2,0,2.8,1.3,2.8,3.1v4.7h-2.7v-3.7
			c0-0.7,0.1-2-1.2-2c-1.1,0-1.4,0.8-1.4,1.8v3.9h-2.7v-7.6h2.7V182.9z"/>
		<path id="XMLID_1437_" class="st4" d="M446.7,183.8c-0.4-0.2-1-0.4-1.4-0.4c-0.3,0-0.8,0.1-0.8,0.5c0,0.5,0.8,0.6,1.2,0.7
			c1.3,0.3,2.2,0.8,2.2,2.2c0,2-1.8,2.8-3.6,2.8c-1.1,0-2.1-0.3-3.1-0.9l1-1.9c0.5,0.4,1.5,0.8,2.1,0.8c0.3,0,0.8-0.2,0.8-0.6
			c0-0.6-0.8-0.6-1.7-0.8c-0.8-0.2-1.7-0.6-1.7-2c0-1.9,1.7-2.7,3.3-2.7c0.9,0,1.7,0.1,2.5,0.5L446.7,183.8z"/>
		<path id="XMLID_1414_" class="st4" d="M451.9,182.7L451.9,182.7c0.5-0.8,1.4-1.1,2.3-1.1c2.3,0,3.8,1.9,3.8,4.1c0,2.2-1.6,4-3.8,4
			c-0.9,0-1.8-0.3-2.3-1v4.5h-2.7v-11.4h2.7V182.7z M451.8,185.7c0,1,0.6,1.7,1.7,1.7c1.1,0,1.7-0.7,1.7-1.7c0-0.9-0.6-1.7-1.7-1.7
			C452.4,184,451.8,184.8,451.8,185.7z"/>
		<path id="XMLID_1411_" class="st4" d="M467.1,186.1h-5.7c0,1.1,0.6,1.7,1.7,1.7c0.6,0,1-0.2,1.3-0.7h2.6c-0.2,0.9-0.7,1.5-1.4,2
			s-1.6,0.6-2.4,0.6c-2.5,0-4.4-1.4-4.4-4c0-2.5,1.7-4,4.2-4c2.6,0,4.1,1.6,4.1,4.2V186.1z M464.6,184.6c-0.1-0.7-0.8-1.2-1.5-1.2
			c-0.8,0-1.4,0.4-1.6,1.2H464.6z"/>
		<path id="XMLID_1409_" class="st4" d="M473.8,184.4c-0.4-0.3-0.9-0.5-1.4-0.5c-1,0-1.8,0.8-1.8,1.8c0,1.1,0.8,1.9,1.9,1.9
			c0.5,0,1-0.2,1.3-0.5v2.3c-0.6,0.3-1.2,0.4-1.9,0.4c-2.2,0-4.1-1.7-4.1-4c0-2.4,1.9-4.1,4.2-4.1c0.6,0,1.2,0.1,1.8,0.4V184.4z"/>
		<path id="XMLID_1407_" class="st4" d="M480.9,184.4c-0.4-0.3-0.9-0.5-1.4-0.5c-1,0-1.8,0.8-1.8,1.8c0,1.1,0.8,1.9,1.9,1.9
			c0.5,0,1-0.2,1.3-0.5v2.3c-0.6,0.3-1.2,0.4-1.9,0.4c-2.2,0-4.1-1.7-4.1-4c0-2.4,1.9-4.1,4.2-4.1c0.6,0,1.2,0.1,1.8,0.4V184.4z"/>
		<path id="XMLID_1404_" class="st4" d="M485.5,179c0,0.8-0.7,1.5-1.5,1.5c-0.8,0-1.5-0.7-1.5-1.5c0-0.8,0.7-1.5,1.5-1.5
			C484.8,177.5,485.5,178.2,485.5,179z M485.3,189.5h-2.7v-7.6h2.7V189.5z"/>
		<path id="XMLID_1400_" class="st4" d="M495.6,185.7c0,2.6-2.1,4-4.6,4c-2.4,0-4.6-1.4-4.6-4s2.1-4,4.6-4
			C493.5,181.6,495.6,183.1,495.6,185.7z M489.3,185.7c0,1,0.6,1.7,1.7,1.7c1.1,0,1.7-0.7,1.7-1.7c0-0.9-0.6-1.7-1.7-1.7
			C490,184,489.3,184.8,489.3,185.7z M490.8,180.8l-1.2-0.9l2.1-2.5l1.6,1.2L490.8,180.8z"/>
		<path id="XMLID_1398_" class="st4" d="M499.5,182.9L499.5,182.9c0.7-0.9,1.4-1.2,2.5-1.2c2,0,2.9,1.3,2.9,3.1v4.7h-2.7v-3.7
			c0-0.7,0.1-2-1.2-2c-1.1,0-1.4,0.8-1.4,1.8v3.9h-2.7v-7.6h2.7V182.9z"/>
		<path id="XMLID_1396_" class="st4" d="M514.4,189.5h-2.7v-12.3h2.7V189.5z"/>
		<path id="XMLID_1394_" class="st4" d="M518.8,189.5h-2.7v-12.3h2.7V189.5z"/>
		<path id="XMLID_1391_" class="st4" d="M528.4,186.1h-5.7c0,1.1,0.6,1.7,1.7,1.7c0.6,0,1-0.2,1.3-0.7h2.6c-0.2,0.9-0.7,1.5-1.4,2
			c-0.7,0.4-1.5,0.6-2.4,0.6c-2.5,0-4.4-1.4-4.4-4c0-2.5,1.7-4,4.2-4c2.6,0,4.1,1.6,4.1,4.2V186.1z M525.9,184.6
			c-0.1-0.7-0.8-1.2-1.5-1.2c-0.8,0-1.4,0.4-1.6,1.2H525.9z"/>
		<path id="XMLID_1389_" class="st4" d="M532.3,182.9L532.3,182.9c0.7-0.9,1.4-1.2,2.5-1.2c2,0,2.9,1.3,2.9,3.1v4.7h-2.7v-3.7
			c0-0.7,0.1-2-1.2-2c-1.1,0-1.4,0.8-1.4,1.8v3.9h-2.7v-7.6h2.7V182.9z"/>
		<path id="XMLID_1386_" class="st4" d="M547.6,189.5h-2.7v-0.8h0c-0.5,0.8-1.4,1.1-2.3,1.1c-2.2,0-3.8-1.9-3.8-4c0-2.2,1.6-4,3.8-4
			c0.9,0,1.8,0.3,2.3,1v-0.7h2.7V189.5z M541.6,185.7c0,1,0.6,1.7,1.7,1.7c1.1,0,1.7-0.7,1.7-1.7c0-0.9-0.6-1.7-1.7-1.7
			C542.2,184,541.6,184.8,541.6,185.7z"/>
		<path id="XMLID_1383_" class="st4" d="M555.1,188.6L555.1,188.6c-0.5,0.8-1.4,1.1-2.3,1.1c-2.2,0-3.8-1.9-3.8-4c0-2.2,1.5-4,3.8-4
			c0.9,0,1.8,0.3,2.3,1v-5.4h2.7v12.3h-2.7V188.6z M551.7,185.7c0,1,0.6,1.7,1.7,1.7s1.7-0.7,1.7-1.7c0-0.9-0.6-1.7-1.7-1.7
			S551.7,184.8,551.7,185.7z"/>
		<path id="XMLID_1380_" class="st4" d="M568,185.7c0,2.6-2.1,4-4.6,4c-2.4,0-4.6-1.4-4.6-4s2.1-4,4.6-4
			C565.9,181.6,568,183.1,568,185.7z M561.8,185.7c0,1,0.6,1.7,1.7,1.7c1.1,0,1.7-0.7,1.7-1.7c0-0.9-0.6-1.7-1.7-1.7
			C562.4,184,561.8,184.8,561.8,185.7z"/>
		<path id="XMLID_1377_" class="st4" d="M453.4,206.3L453.4,206.3c-0.5,0.8-1.4,1.1-2.3,1.1c-2.2,0-3.8-1.9-3.8-4c0-2.2,1.5-4,3.8-4
			c0.9,0,1.8,0.3,2.3,1v-5.4h2.7v12.3h-2.7V206.3z M450,203.4c0,1,0.6,1.7,1.7,1.7c1.1,0,1.7-0.7,1.7-1.7c0-0.9-0.6-1.7-1.7-1.7
			C450.6,201.7,450,202.5,450,203.4z"/>
		<path id="XMLID_1374_" class="st4" d="M465.5,203.8h-5.7c0,1.1,0.6,1.7,1.7,1.7c0.6,0,1-0.2,1.3-0.7h2.6c-0.2,0.9-0.7,1.5-1.4,2
			c-0.7,0.4-1.6,0.6-2.4,0.6c-2.5,0-4.4-1.4-4.4-4c0-2.5,1.7-4,4.2-4c2.6,0,4.1,1.6,4.1,4.2V203.8z M463,202.3
			c-0.1-0.7-0.8-1.2-1.5-1.2c-0.8,0-1.4,0.4-1.6,1.2H463z"/>
		<path id="XMLID_1372_" class="st4" d="M474.8,207.2h-2.7v-5.4h-0.9v-2.2h0.9v-1c0-1,0-1.8,0.8-2.7c0.7-0.8,1.6-1.2,2.6-1.2
			c0.4,0,0.8,0.1,1.2,0.3v2.3c-0.3-0.1-0.6-0.3-0.9-0.3c-0.7,0-0.9,0.4-0.9,1.3v1.2h1.9v2.2h-1.9V207.2z"/>
		<path id="XMLID_1369_" class="st4" d="M486.1,203.4c0,2.6-2.1,4-4.6,4c-2.4,0-4.6-1.4-4.6-4s2.1-4,4.6-4
			C484,199.4,486.1,200.8,486.1,203.4z M479.8,203.4c0,1,0.6,1.7,1.7,1.7c1.1,0,1.7-0.7,1.7-1.7c0-0.9-0.6-1.7-1.7-1.7
			C480.5,201.7,479.8,202.5,479.8,203.4z"/>
		<path id="XMLID_1367_" class="st4" d="M490,200.8L490,200.8c0.5-0.9,1.4-1.3,2.5-1.3h0.5v2.6c-0.4-0.2-0.7-0.3-1.1-0.3
			c-1.5,0-1.9,1-1.9,2.3v3.1h-2.7v-7.6h2.7V200.8z"/>
		<path id="XMLID_1365_" class="st4" d="M496.7,200.6L496.7,200.6c0.7-0.8,1.4-1.2,2.4-1.2c1.1,0,2,0.4,2.6,1.4
			c0.5-0.9,1.5-1.4,2.6-1.4c1.9,0,2.6,1.3,2.6,3v4.8h-2.7v-3.6c0-0.8,0-2.1-1.1-2.1c-1.2,0-1.3,1.2-1.3,2.1v3.6h-2.7v-3.6
			c0-0.8,0-2.1-1.2-2.1c-1.2,0-1.2,1.3-1.2,2.1v3.6H494v-7.6h2.7V200.6z"/>
		<path id="XMLID_1363_" class="st4" d="M511.3,199.6v4c0,1,0.2,1.6,1.3,1.6c1.1,0,1.3-0.7,1.3-1.6v-4h2.7v4.6c0,2.5-1.8,3.3-4,3.3
			s-4-0.8-4-3.3v-4.6H511.3z"/>
		<path id="XMLID_1361_" class="st4" d="M521,207.2h-2.7v-12.3h2.7V207.2z"/>
		<path id="XMLID_1358_" class="st4" d="M531.1,207.2h-2.7v-0.8h0c-0.5,0.8-1.4,1.1-2.3,1.1c-2.2,0-3.8-1.9-3.8-4c0-2.2,1.5-4,3.8-4
			c0.9,0,1.8,0.3,2.3,1v-0.7h2.7V207.2z M525,203.4c0,1,0.6,1.7,1.7,1.7s1.7-0.7,1.7-1.7c0-0.9-0.6-1.7-1.7-1.7S525,202.5,525,203.4
			z"/>
		<path id="XMLID_1356_" class="st4" d="M535.6,200.8L535.6,200.8c0.5-0.9,1.4-1.3,2.5-1.3h0.5v2.6c-0.4-0.2-0.7-0.3-1.1-0.3
			c-1.5,0-1.9,1-1.9,2.3v3.1h-2.7v-7.6h2.7V200.8z"/>
		<path id="XMLID_1353_" class="st4" d="M542.4,196.7c0,0.8-0.7,1.5-1.5,1.5c-0.8,0-1.5-0.7-1.5-1.5c0-0.8,0.7-1.5,1.5-1.5
			C541.7,195.2,542.4,195.9,542.4,196.7z M542.2,207.2h-2.7v-7.6h2.7V207.2z"/>
		<path id="XMLID_1350_" class="st4" d="M552.6,203.4c0,2.6-2.1,4-4.6,4c-2.4,0-4.6-1.4-4.6-4s2.1-4,4.6-4S552.6,200.8,552.6,203.4z
			 M546.3,203.4c0,1,0.6,1.7,1.7,1.7s1.7-0.7,1.7-1.7c0-0.9-0.6-1.7-1.7-1.7S546.3,202.5,546.3,203.4z"/>
	</g>
</g>
<g id="XMLID_13709_">
	<g>
		<path id="XMLID_761_" class="st4" d="M447.2,294.3c-0.5-0.4-1.2-0.7-1.9-0.7c-0.5,0-1.2,0.3-1.2,0.9c0,0.6,0.8,0.9,1.3,1.1
			l0.7,0.2c1.6,0.5,2.7,1.2,2.7,3c0,1.1-0.3,2.2-1.2,3c-0.9,0.7-2,1-3.2,1c-1.4,0-2.8-0.5-3.9-1.3l1.2-2.3c0.7,0.6,1.6,1.2,2.6,1.2
			c0.7,0,1.4-0.3,1.4-1.1c0-0.8-1.1-1.1-1.8-1.3c-1.8-0.5-3-1-3-3.1c0-2.3,1.6-3.7,3.8-3.7c1.1,0,2.5,0.4,3.5,0.9L447.2,294.3z"/>
		<path id="XMLID_759_" class="st4" d="M453.1,293.9v1.9h3.3v2.5h-3.3v1.9h3.4v2.5h-6.3v-11.1h6.3v2.5H453.1z"/>
		<path id="XMLID_757_" class="st4" d="M466.3,295.2c-0.6-0.8-1.5-1.2-2.5-1.2c-1.8,0-3,1.4-3,3.1c0,1.8,1.2,3,3,3
			c0.9,0,1.9-0.5,2.5-1.2v3.5c-1,0.3-1.7,0.5-2.6,0.5c-1.5,0-3-0.6-4.2-1.6c-1.2-1.1-1.8-2.6-1.8-4.2c0-1.5,0.6-3,1.6-4.1
			c1.1-1.1,2.7-1.8,4.2-1.8c0.9,0,1.8,0.2,2.6,0.6V295.2z"/>
		<path id="XMLID_754_" class="st4" d="M477.3,302.6h-3.6l-2.7-4.3h0v4.3h-2.9v-11.1h4.3c2.2,0,3.9,1,3.9,3.4c0,1.5-0.9,2.9-2.4,3.1
			L477.3,302.6z M471,296.4h0.3c0.9,0,2-0.2,2-1.4c0-1.2-1.1-1.4-2-1.4H471V296.4z"/>
		<path id="XMLID_752_" class="st4" d="M481,293.9v1.9h3.3v2.5H481v1.9h3.4v2.5h-6.3v-11.1h6.3v2.5H481z"/>
		<path id="XMLID_750_" class="st4" d="M490.7,302.6h-2.9v-8.7h-2.4v-2.5h7.7v2.5h-2.4V302.6z"/>
		<path id="XMLID_747_" class="st4" d="M496.1,300.6l-0.8,1.9h-3.1l4.3-11.1h3.2l4.2,11.1h-3.1l-0.7-1.9H496.1z M498.1,294.9
			L498.1,294.9l-1.2,3.5h2.4L498.1,294.9z"/>
		<path id="XMLID_744_" class="st4" d="M514,302.6h-3.6l-2.7-4.3h0v4.3h-2.9v-11.1h4.3c2.2,0,3.9,1,3.9,3.4c0,1.5-0.9,2.9-2.4,3.1
			L514,302.6z M507.7,296.4h0.3c0.9,0,2-0.2,2-1.4c0-1.2-1.1-1.4-2-1.4h-0.3V296.4z"/>
		<path id="XMLID_742_" class="st4" d="M517.7,302.6h-2.9v-11.1h2.9V302.6z"/>
		<path id="XMLID_739_" class="st4" d="M522.4,300.6l-0.8,1.9h-3.1l4.3-11.1h3.2l4.2,11.1h-3.1l-0.7-1.9H522.4z M524.4,294.9
			L524.4,294.9l-1.2,3.5h2.4L524.4,294.9z"/>
		<path id="XMLID_736_" class="st4" d="M536.2,291.4h4.1c3.1,0,5.7,2.4,5.7,5.6s-2.6,5.6-5.7,5.6h-4.1V291.4z M539.1,300.1h0.6
			c1.7,0,3.2-0.9,3.2-3.1c0-2-1.3-3.1-3.2-3.1h-0.7V300.1z"/>
		<path id="XMLID_732_" class="st4" d="M550.2,293.9v1.9h3.3v2.5h-3.3v1.9h3.4v2.5h-6.3v-11.1h6.3v2.5H550.2z"/>
		<path id="XMLID_730_" class="st4" d="M457.1,312c-0.5-0.4-1.2-0.7-1.9-0.7c-0.5,0-1.2,0.3-1.2,0.9c0,0.6,0.8,0.9,1.3,1.1l0.7,0.2
			c1.6,0.5,2.7,1.2,2.7,3c0,1.1-0.3,2.2-1.2,3c-0.9,0.7-2,1-3.2,1c-1.4,0-2.8-0.5-3.9-1.3l1.2-2.3c0.7,0.6,1.6,1.2,2.6,1.2
			c0.7,0,1.4-0.3,1.4-1.1c0-0.8-1.1-1.1-1.8-1.3c-1.8-0.5-3-1-3-3.1c0-2.3,1.6-3.7,3.8-3.7c1.1,0,2.5,0.4,3.5,0.9L457.1,312z"/>
		<path id="XMLID_728_" class="st4" d="M463,311.6v1.9h3.3v2.5H463v1.9h3.4v2.5h-6.3v-11.1h6.3v2.5H463z"/>
		<path id="XMLID_725_" class="st4" d="M477.5,320.3h-3.6l-2.7-4.3h0v4.3h-2.9v-11.1h4.3c2.2,0,3.9,1,3.9,3.4c0,1.5-0.9,2.9-2.4,3.1
			L477.5,320.3z M471.1,314.2h0.3c0.9,0,2-0.2,2-1.4c0-1.2-1.1-1.4-2-1.4h-0.3V314.2z"/>
		<path id="XMLID_723_" class="st4" d="M482.6,315.9l2.7-6.8h3.1l-4.8,11.1h-2.2l-4.7-11.1h3.1L482.6,315.9z"/>
		<path id="XMLID_721_" class="st4" d="M492.1,320.3h-2.9v-11.1h2.9V320.3z"/>
		<path id="XMLID_719_" class="st4" d="M501.9,312.9c-0.6-0.8-1.6-1.2-2.5-1.2c-1.8,0-3,1.4-3,3.1c0,1.8,1.2,3,3,3
			c0.9,0,1.9-0.5,2.5-1.2v3.5c-1,0.3-1.7,0.5-2.6,0.5c-1.6,0-3-0.6-4.2-1.6c-1.2-1.1-1.8-2.6-1.8-4.2c0-1.5,0.6-3,1.6-4.1
			c1.1-1.1,2.7-1.8,4.2-1.8c0.9,0,1.8,0.2,2.6,0.6V312.9z"/>
		<path id="XMLID_717_" class="st4" d="M506.6,320.3h-2.9v-11.1h2.9V320.3z"/>
		<path id="XMLID_714_" class="st4" d="M520.3,314.5c0,3.6-2.6,6.1-6.2,6.1c-3.6,0-6.2-2.5-6.2-6.1c0-3.4,3-5.7,6.2-5.7
			C517.3,308.8,520.3,311.2,520.3,314.5z M511,314.5c0,1.9,1.4,3.3,3.1,3.3c1.7,0,3.1-1.4,3.1-3.3c0-1.5-1.4-2.9-3.1-2.9
			C512.4,311.6,511,313,511,314.5z"/>
		<path id="XMLID_711_" class="st4" d="M529.5,318.4l-0.8,1.9h-3.1l4.3-11.1h3.2l4.2,11.1h-3.1l-0.7-1.9H529.5z M531.5,312.6
			L531.5,312.6l-1.2,3.5h2.4L531.5,312.6z"/>
		<path id="XMLID_709_" class="st4" d="M541.1,317.8h3.5v2.5h-6.4v-11.1h2.9V317.8z"/>
		<path id="XMLID_707_" class="st4" d="M460.1,330.6c-0.6-0.8-1.6-1.2-2.5-1.2c-1.8,0-3,1.4-3,3.1c0,1.8,1.2,3,3,3
			c0.9,0,1.9-0.5,2.5-1.2v3.5c-1,0.3-1.7,0.5-2.6,0.5c-1.6,0-3-0.6-4.2-1.6c-1.2-1.1-1.8-2.6-1.8-4.2c0-1.5,0.6-3,1.6-4.1
			c1.1-1.1,2.7-1.8,4.2-1.8c0.9,0,1.8,0.2,2.6,0.6V330.6z"/>
		<path id="XMLID_705_" class="st4" d="M464.7,338h-2.9v-11.1h2.9V338z"/>
		<path id="XMLID_703_" class="st4" d="M476.3,326.9v6.3c0,1.4-0.1,2.9-1.2,3.9c-0.9,0.9-2.4,1.2-3.7,1.2s-2.8-0.3-3.7-1.2
			c-1.1-1.1-1.2-2.5-1.2-3.9v-6.3h2.9v5.9c0,1.4,0.1,3,2,3c1.9,0,2-1.6,2-3v-5.9H476.3z"/>
		<path id="XMLID_700_" class="st4" d="M478.1,326.9h4.1c3.1,0,5.7,2.4,5.7,5.6s-2.6,5.6-5.7,5.6h-4.1V326.9z M481,335.6h0.6
			c1.7,0,3.2-0.9,3.2-3.1c0-2-1.3-3.1-3.2-3.1H481V335.6z"/>
		<path id="XMLID_697_" class="st4" d="M492.1,336.1l-0.8,1.9h-3.1l4.3-11.1h3.2l4.2,11.1h-3.1l-0.7-1.9H492.1z M494.1,330.3
			L494.1,330.3l-1.2,3.5h2.4L494.1,330.3z"/>
		<path id="XMLID_694_" class="st4" d="M500.8,326.9h4.1c3.1,0,5.7,2.4,5.7,5.6s-2.6,5.6-5.7,5.6h-4.1V326.9z M503.6,335.6h0.6
			c1.7,0,3.2-0.9,3.2-3.1c0-2-1.3-3.1-3.2-3.1h-0.7V335.6z"/>
		<path id="XMLID_691_" class="st4" d="M514.7,336.1l-0.8,1.9h-3.1l4.3-11.1h3.2l4.2,11.1h-3.1l-0.7-1.9H514.7z M516.7,330.3
			L516.7,330.3l-1.2,3.5h2.4L516.7,330.3z"/>
		<path id="XMLID_689_" class="st4" d="M523.4,326.9h2.9l5.3,6.8h0v-6.8h2.9V338h-2.9l-5.3-6.8h0v6.8h-2.9V326.9z"/>
		<path id="XMLID_686_" class="st4" d="M548.1,332.2c0,3.6-2.6,6.1-6.2,6.1s-6.2-2.5-6.2-6.1c0-3.4,3-5.7,6.2-5.7
			C545.2,326.5,548.1,328.9,548.1,332.2z M538.8,332.3c0,1.9,1.4,3.3,3.1,3.3c1.7,0,3.1-1.4,3.1-3.3c0-1.5-1.4-2.9-3.1-2.9
			C540.3,329.3,538.8,330.7,538.8,332.3z"/>
	</g>
</g>
<rect id="XMLID_5196_" x="387.4" y="394" class="st3" width="223.3" height="101.1"/>
<g id="XMLID_13606_">
	<g>
		<path id="XMLID_1204_" class="st4" d="M418.9,421.7h4.1c3.1,0,5.7,2.4,5.7,5.6c0,3.1-2.6,5.6-5.7,5.6h-4.1V421.7z M421.8,430.4
			h0.7c1.7,0,3.2-0.9,3.2-3.1c0-2-1.3-3.1-3.2-3.1h-0.7V430.4z"/>
		<path id="XMLID_1202_" class="st4" d="M432.9,432.9H430v-11.1h2.9V432.9z"/>
		<path id="XMLID_1199_" class="st4" d="M444.1,432.9h-3.6l-2.7-4.3h0v4.3h-2.9v-11.1h4.3c2.2,0,3.9,1,3.9,3.4
			c0,1.5-0.9,2.9-2.4,3.1L444.1,432.9z M437.7,426.7h0.3c0.9,0,2-0.2,2-1.4c0-1.2-1.1-1.4-2-1.4h-0.3V426.7z"/>
		<path id="XMLID_1197_" class="st4" d="M448.2,431.4c0,0.9-0.8,1.7-1.7,1.7c-1,0-1.7-0.8-1.7-1.7c0-1,0.8-1.7,1.7-1.7
			C447.4,429.7,448.2,430.5,448.2,431.4z"/>
		<path id="XMLID_1194_" class="st4" d="M455,421.7h4.1c3.1,0,5.7,2.4,5.7,5.6c0,3.1-2.6,5.6-5.7,5.6H455V421.7z M457.9,430.4h0.6
			c1.7,0,3.2-0.9,3.2-3.1c0-2-1.3-3.1-3.2-3.1h-0.7V430.4z"/>
		<path id="XMLID_1192_" class="st4" d="M469,424.2v1.9h3.3v2.5H469v1.9h3.4v2.5h-6.3v-11.1h6.3v2.5H469z"/>
		<path id="XMLID_1190_" class="st4" d="M488.9,421.7v6.3c0,1.4-0.1,2.9-1.2,3.9c-0.9,0.9-2.4,1.2-3.7,1.2s-2.8-0.3-3.7-1.2
			c-1.1-1.1-1.2-2.5-1.2-3.9v-6.3h2.9v5.9c0,1.4,0.1,3,2,3c1.9,0,2-1.6,2-3v-5.9H488.9z"/>
		<path id="XMLID_1187_" class="st4" d="M500,432.9h-3.6l-2.7-4.3h0v4.3h-2.9v-11.1h4.3c2.2,0,3.9,1,3.9,3.4c0,1.5-0.9,2.9-2.4,3.1
			L500,432.9z M493.7,426.7h0.3c0.9,0,2-0.2,2-1.4c0-1.2-1.1-1.4-2-1.4h-0.3V426.7z"/>
		<path id="XMLID_1183_" class="st4" d="M500.8,432.9v-11.1h4.1c2,0,3.3,0.8,3.3,2.9c0,1-0.3,1.8-1.2,2.3v0c1.6,0.2,2.3,1.3,2.3,2.8
			c0,2.3-2,3.1-4,3.1H500.8z M503.7,426.1h0.3c0.8,0,1.6-0.1,1.6-1.1c0-1-0.9-1.1-1.7-1.1h-0.2V426.1z M503.7,430.6h0.4
			c0.9,0,2.3,0,2.3-1.2c0-1.3-1.4-1.2-2.4-1.2h-0.3V430.6z"/>
		<path id="XMLID_1178_" class="st4" d="M513.6,430.9l-0.8,1.9h-3.1l4.3-11.1h3.2l4.2,11.1h-3.1l-0.7-1.9H513.6z M515.7,425.2
			L515.7,425.2l-1.2,3.5h2.4L515.7,425.2z"/>
		<path id="XMLID_1176_" class="st4" d="M522.3,421.7h2.9l5.3,6.8h0v-6.8h2.9v11.1h-2.9l-5.3-6.8h0v6.8h-2.9V421.7z"/>
		<path id="XMLID_1174_" class="st4" d="M538.2,432.9h-2.9v-11.1h2.9V432.9z"/>
		<path id="XMLID_1172_" class="st4" d="M546.2,424.6c-0.5-0.4-1.2-0.7-1.9-0.7c-0.5,0-1.2,0.3-1.2,0.9c0,0.6,0.8,0.9,1.3,1.1
			l0.7,0.2c1.6,0.5,2.7,1.2,2.7,3c0,1.1-0.3,2.2-1.2,3c-0.9,0.7-2,1-3.2,1c-1.4,0-2.8-0.5-3.9-1.3l1.2-2.3c0.7,0.6,1.6,1.2,2.6,1.2
			c0.7,0,1.4-0.3,1.4-1.1c0-0.8-1.1-1.1-1.8-1.3c-1.8-0.5-3-1-3-3.1c0-2.3,1.6-3.7,3.8-3.7c1.1,0,2.5,0.4,3.5,0.9L546.2,424.6z"/>
		<path id="XMLID_1170_" class="st4" d="M550.4,421.7h2.8l2.3,6l2.4-6h2.9l1.7,11.1h-2.9l-0.8-6.4h0l-2.7,6.4h-1.2l-2.6-6.4h0
			l-0.9,6.4h-2.9L550.4,421.7z"/>
		<path id="XMLID_1167_" class="st4" d="M575.5,427.1c0,3.6-2.6,6.1-6.2,6.1c-3.6,0-6.2-2.5-6.2-6.1c0-3.4,3-5.7,6.2-5.7
			C572.5,421.4,575.5,423.7,575.5,427.1z M566.2,427.1c0,1.9,1.4,3.3,3.1,3.3c1.7,0,3.1-1.4,3.1-3.3c0-1.5-1.4-2.9-3.1-2.9
			C567.6,424.2,566.2,425.6,566.2,427.1z"/>
		<path id="XMLID_1165_" class="st4" d="M430,444.7v2.2h-4.2v-2.2H430z"/>
		<path id="XMLID_1163_" class="st4" d="M442.8,444.4c0,1.6-0.1,3-1.1,4.4c-1.1,1.5-2.7,2.2-4.6,2.2c-3.5,0-5.9-2.4-5.9-5.9
			c0-3.6,2.5-6,6-6c2.3,0,4.1,1,5,3.1l-2.7,1.2c-0.4-1.1-1.2-1.8-2.4-1.8c-1.9,0-2.9,1.8-2.9,3.5c0,1.7,1,3.5,2.9,3.5
			c1.3,0,2.2-0.6,2.3-1.9h-2.4v-2.3H442.8z"/>
		<path id="XMLID_1161_" class="st4" d="M447.1,441.9v1.9h3.3v2.5h-3.3v1.9h3.4v2.5h-6.3v-11.1h6.3v2.5H447.1z"/>
		<path id="XMLID_1159_" class="st4" d="M458.4,442.3c-0.5-0.4-1.2-0.7-1.9-0.7c-0.5,0-1.2,0.3-1.2,0.9c0,0.6,0.8,0.9,1.3,1.1
			l0.7,0.2c1.6,0.5,2.7,1.2,2.7,3c0,1.1-0.3,2.2-1.2,3c-0.9,0.7-2,1-3.2,1c-1.4,0-2.8-0.5-3.9-1.3l1.2-2.3c0.7,0.6,1.6,1.2,2.6,1.2
			c0.7,0,1.4-0.3,1.4-1.1c0-0.8-1.1-1.1-1.8-1.3c-1.8-0.5-3-1-3-3.1c0-2.3,1.6-3.7,3.8-3.7c1.1,0,2.5,0.4,3.5,0.9L458.4,442.3z"/>
		<path id="XMLID_1157_" class="st4" d="M465.8,450.6h-2.9v-8.7h-2.4v-2.5h7.7v2.5h-2.4V450.6z"/>
		<path id="XMLID_1155_" class="st4" d="M472.1,450.6h-2.9v-11.1h2.9V450.6z"/>
		<path id="XMLID_1152_" class="st4" d="M485.8,444.8c0,3.6-2.6,6.1-6.2,6.1s-6.2-2.5-6.2-6.1c0-3.4,3-5.7,6.2-5.7
			C482.8,439.1,485.8,441.4,485.8,444.8z M476.5,444.8c0,1.9,1.4,3.3,3.1,3.3c1.7,0,3.1-1.4,3.1-3.3c0-1.5-1.4-2.9-3.1-2.9
			C477.9,441.9,476.5,443.3,476.5,444.8z"/>
		<path id="XMLID_1149_" class="st4" d="M496.4,450.6h-3.6l-2.7-4.3h0v4.3h-2.9v-11.1h4.3c2.2,0,3.9,1,3.9,3.4
			c0,1.5-0.9,2.9-2.4,3.1L496.4,450.6z M490,444.4h0.3c0.9,0,2-0.2,2-1.4c0-1.2-1.1-1.4-2-1.4H490V444.4z"/>
		<path id="XMLID_1147_" class="st4" d="M511.9,439.4v6.3c0,1.4-0.1,2.9-1.2,3.9c-0.9,0.9-2.4,1.2-3.7,1.2s-2.8-0.3-3.7-1.2
			c-1.1-1.1-1.2-2.5-1.2-3.9v-6.3h2.9v5.9c0,1.4,0.1,3,2,3c1.9,0,2-1.6,2-3v-5.9H511.9z"/>
		<path id="XMLID_1144_" class="st4" d="M523,450.6h-3.6l-2.7-4.3h0v4.3h-2.9v-11.1h4.3c2.2,0,3.9,1,3.9,3.4c0,1.5-0.9,2.9-2.4,3.1
			L523,450.6z M516.6,444.4h0.3c0.9,0,2-0.2,2-1.4c0-1.2-1.1-1.4-2-1.4h-0.3V444.4z"/>
		<path id="XMLID_1140_" class="st4" d="M523.8,450.6v-11.1h4.1c2,0,3.3,0.8,3.3,2.9c0,1-0.3,1.8-1.2,2.3v0c1.6,0.2,2.3,1.3,2.3,2.8
			c0,2.3-2,3.1-4,3.1H523.8z M526.7,443.8h0.3c0.8,0,1.6-0.1,1.6-1.1c0-1-0.9-1.1-1.7-1.1h-0.2V443.8z M526.7,448.4h0.4
			c0.9,0,2.3,0,2.3-1.2c0-1.3-1.4-1.2-2.4-1.2h-0.3V448.4z"/>
		<path id="XMLID_1137_" class="st4" d="M536.6,448.6l-0.8,1.9h-3.1l4.3-11.1h3.2l4.2,11.1h-3.1l-0.7-1.9H536.6z M538.6,442.9
			L538.6,442.9l-1.2,3.5h2.4L538.6,442.9z"/>
		<path id="XMLID_1135_" class="st4" d="M545.3,439.4h2.9l5.3,6.8h0v-6.8h2.9v11.1h-2.9l-5.3-6.8h0v6.8h-2.9V439.4z"/>
		<path id="XMLID_1132_" class="st4" d="M561.1,448.6l-0.8,1.9h-3.1l4.3-11.1h3.2l4.2,11.1h-3.1l-0.7-1.9H561.1z M563.2,442.9
			L563.2,442.9l-1.2,3.5h2.4L563.2,442.9z"/>
		<path id="XMLID_1130_" class="st4" d="M443.6,457.2h3.5l2.1,3l2.1-3h3.5l-4.1,5.8v5.3h-2.9V463L443.6,457.2z"/>
		<path id="XMLID_1128_" class="st4" d="M464.9,468.3H462v-8.7h-2.4v-2.5h7.7v2.5h-2.4V468.3z"/>
		<path id="XMLID_1126_" class="st4" d="M471.2,459.6v1.9h3.3v2.5h-3.3v1.9h3.4v2.5h-6.3v-11.1h6.3v2.5H471.2z"/>
		<path id="XMLID_1123_" class="st4" d="M485.7,468.3h-3.6l-2.7-4.3h0v4.3h-2.9v-11.1h4.3c2.2,0,3.9,1,3.9,3.4
			c0,1.5-0.9,2.9-2.4,3.1L485.7,468.3z M479.4,462.2h0.3c0.9,0,2-0.2,2-1.4c0-1.2-1.1-1.4-2-1.4h-0.3V462.2z"/>
		<path id="XMLID_1120_" class="st4" d="M495.8,468.3h-3.6l-2.7-4.3h0v4.3h-2.9v-11.1h4.3c2.2,0,3.9,1,3.9,3.4
			c0,1.5-0.9,2.9-2.4,3.1L495.8,468.3z M489.4,462.2h0.3c0.9,0,2-0.2,2-1.4c0-1.2-1.1-1.4-2-1.4h-0.3V462.2z"/>
		<path id="XMLID_1118_" class="st4" d="M499.4,468.3h-2.9v-11.1h2.9V468.3z"/>
		<path id="XMLID_1116_" class="st4" d="M505.8,468.3h-2.9v-8.7h-2.4v-2.5h7.7v2.5h-2.4V468.3z"/>
		<path id="XMLID_1113_" class="st4" d="M521,462.5c0,3.6-2.6,6.1-6.2,6.1s-6.2-2.5-6.2-6.1c0-3.4,3-5.7,6.2-5.7
			C518,456.8,521,459.2,521,462.5z M511.7,462.5c0,1.9,1.4,3.3,3.1,3.3s3.1-1.4,3.1-3.3c0-1.5-1.4-2.9-3.1-2.9
			S511.7,461,511.7,462.5z"/>
		<path id="XMLID_1110_" class="st4" d="M531.6,468.3H528l-2.7-4.3h0v4.3h-2.9v-11.1h4.3c2.2,0,3.9,1,3.9,3.4c0,1.5-0.9,2.9-2.4,3.1
			L531.6,468.3z M525.2,462.2h0.3c0.9,0,2-0.2,2-1.4c0-1.2-1.1-1.4-2-1.4h-0.3V462.2z"/>
		<path id="XMLID_1108_" class="st4" d="M535.2,468.3h-2.9v-11.1h2.9V468.3z"/>
		<path id="XMLID_1105_" class="st4" d="M540,466.4l-0.8,1.9h-3.1l4.3-11.1h3.2l4.2,11.1h-3.1l-0.7-1.9H540z M542,460.6L542,460.6
			l-1.2,3.5h2.4L542,460.6z"/>
		<path id="XMLID_1103_" class="st4" d="M551.5,465.8h3.5v2.5h-6.4v-11.1h2.9V465.8z"/>
	</g>
</g>
<rect id="XMLID_5194_" x="387.4" y="525.1" class="st3" width="223.3" height="101.1"/>
<g id="XMLID_13519_">
	<g>
		<path id="XMLID_1021_" class="st4" d="M435.9,556.8c-0.6-0.8-1.6-1.2-2.5-1.2c-1.8,0-3,1.4-3,3.1c0,1.8,1.2,3,3,3
			c0.9,0,1.9-0.5,2.5-1.2v3.5c-1,0.3-1.7,0.5-2.6,0.5c-1.5,0-3-0.6-4.2-1.6c-1.2-1.1-1.8-2.6-1.8-4.2c0-1.5,0.6-3,1.6-4.1
			c1.1-1.1,2.7-1.8,4.2-1.8c0.9,0,1.8,0.2,2.6,0.6V556.8z"/>
		<path id="XMLID_1018_" class="st4" d="M440.5,562.2l-0.8,1.9h-3.1L441,553h3.2l4.2,11.1h-3.1l-0.7-1.9H440.5z M442.5,556.5
			L442.5,556.5l-1.2,3.5h2.4L442.5,556.5z"/>
		<path id="XMLID_1016_" class="st4" d="M454.6,553v7.5c0,2.3-1.2,3.9-3.7,3.9c-1.2,0-2.2-0.6-2.9-1.6l1.7-1.8
			c0.3,0.4,0.8,0.9,1.2,0.9c0.9,0,0.8-1,0.8-1.6V553H454.6z"/>
		<path id="XMLID_1013_" class="st4" d="M459.3,562.2l-0.8,1.9h-3.1l4.3-11.1h3.2l4.2,11.1H464l-0.7-1.9H459.3z M461.3,556.5
			L461.3,556.5l-1.2,3.5h2.4L461.3,556.5z"/>
		<path id="XMLID_1011_" class="st4" d="M477.7,559.8l2.7-6.8h3.1l-4.8,11.1h-2.2l-4.7-11.1h3.1L477.7,559.8z"/>
		<path id="XMLID_1009_" class="st4" d="M487.2,555.5v1.9h3.3v2.5h-3.3v1.9h3.4v2.5h-6.3V553h6.3v2.5H487.2z"/>
		<path id="XMLID_1007_" class="st4" d="M492.4,553h2.9l5.3,6.8h0V553h2.9v11.1h-2.9l-5.3-6.8h0v6.8h-2.9V553z"/>
		<path id="XMLID_1005_" class="st4" d="M509.8,564.2h-2.9v-8.7h-2.4V553h7.7v2.5h-2.4V564.2z"/>
		<path id="XMLID_1002_" class="st4" d="M515.2,562.2l-0.8,1.9h-3.1l4.3-11.1h3.2l4.2,11.1h-3.1l-0.7-1.9H515.2z M517.2,556.5
			L517.2,556.5L516,560h2.4L517.2,556.5z"/>
		<path id="XMLID_1000_" class="st4" d="M523.9,553h2.9l5.3,6.8h0V553h2.9v11.1h-2.9l-5.3-6.8h0v6.8h-2.9V553z"/>
		<path id="XMLID_998_" class="st4" d="M539.8,564.2h-2.9V553h2.9V564.2z"/>
		<path id="XMLID_996_" class="st4" d="M544.6,561.7h3.5v2.5h-6.4V553h2.9V561.7z"/>
		<path id="XMLID_994_" class="st4" d="M551.9,561.7h3.5v2.5H549V553h2.9V561.7z"/>
		<path id="XMLID_991_" class="st4" d="M559.1,562.2l-0.8,1.9h-3.1l4.3-11.1h3.2l4.2,11.1h-3.1l-0.7-1.9H559.1z M561.2,556.5
			L561.2,556.5l-1.2,3.5h2.4L561.2,556.5z"/>
		<path id="XMLID_989_" class="st4" d="M429.6,570.8v6.3c0,1.4-0.1,2.9-1.2,3.9c-0.9,0.9-2.4,1.2-3.7,1.2s-2.8-0.3-3.7-1.2
			c-1.1-1.1-1.2-2.5-1.2-3.9v-6.3h2.9v5.9c0,1.4,0.1,3,2,3c1.9,0,2-1.6,2-3v-5.9H429.6z"/>
		<path id="XMLID_987_" class="st4" d="M431.4,570.8h2.9l5.3,6.8h0v-6.8h2.9v11.1h-2.9l-5.3-6.8h0v6.8h-2.9V570.8z"/>
		<path id="XMLID_985_" class="st4" d="M447.3,581.9h-2.9v-11.1h2.9V581.9z"/>
		<path id="XMLID_983_" class="st4" d="M457.1,574.5c-0.6-0.8-1.6-1.2-2.5-1.2c-1.8,0-3,1.4-3,3.1c0,1.8,1.2,3,3,3
			c0.9,0,1.9-0.5,2.5-1.2v3.5c-1,0.3-1.7,0.5-2.6,0.5c-1.6,0-3-0.6-4.2-1.6c-1.2-1.1-1.8-2.6-1.8-4.2c0-1.5,0.6-3,1.6-4.1
			c1.1-1.1,2.7-1.8,4.2-1.8c0.9,0,1.8,0.2,2.6,0.6V574.5z"/>
		<path id="XMLID_980_" class="st4" d="M461.8,580l-0.8,1.9h-3.1l4.3-11.1h3.2l4.2,11.1h-3.1l-0.7-1.9H461.8z M463.8,574.2
			L463.8,574.2l-1.2,3.5h2.4L463.8,574.2z"/>
		<path id="XMLID_978_" class="st4" d="M481.6,573.6c-0.5-0.4-1.2-0.7-1.9-0.7c-0.5,0-1.2,0.3-1.2,0.9c0,0.6,0.8,0.9,1.3,1.1
			l0.7,0.2c1.5,0.5,2.7,1.2,2.7,3c0,1.1-0.3,2.2-1.2,3c-0.9,0.7-2,1-3.2,1c-1.4,0-2.8-0.5-3.9-1.3l1.2-2.3c0.7,0.6,1.6,1.2,2.6,1.2
			c0.7,0,1.4-0.3,1.4-1.1c0-0.8-1.1-1.1-1.8-1.3c-1.8-0.5-3-1-3-3.1c0-2.3,1.6-3.7,3.8-3.7c1.1,0,2.5,0.4,3.5,0.9L481.6,573.6z"/>
		<path id="XMLID_976_" class="st4" d="M494.3,570.8v6.3c0,1.4-0.1,2.9-1.2,3.9c-0.9,0.9-2.4,1.2-3.7,1.2s-2.8-0.3-3.7-1.2
			c-1.1-1.1-1.2-2.5-1.2-3.9v-6.3h2.9v5.9c0,1.4,0.1,3,2,3c1.9,0,2-1.6,2-3v-5.9H494.3z"/>
		<path id="XMLID_972_" class="st4" d="M496.1,581.9v-11.1h4.1c2,0,3.3,0.8,3.3,2.9c0,1-0.3,1.8-1.2,2.3v0c1.6,0.2,2.3,1.3,2.3,2.8
			c0,2.3-2,3.1-4,3.1H496.1z M499,575.1h0.3c0.8,0,1.6-0.1,1.6-1.1c0-1-0.9-1.1-1.7-1.1H499V575.1z M499,579.7h0.4
			c0.9,0,2.3,0,2.3-1.2c0-1.3-1.4-1.2-2.4-1.2H499V579.7z"/>
		<path id="XMLID_969_" class="st4" d="M508.9,580l-0.8,1.9h-3.1l4.3-11.1h3.2l4.2,11.1h-3.1l-0.7-1.9H508.9z M511,574.2L511,574.2
			l-1.2,3.5h2.4L511,574.2z"/>
		<path id="XMLID_967_" class="st4" d="M520.5,579.4h3.5v2.5h-6.4v-11.1h2.9V579.4z"/>
		<path id="XMLID_933_" class="st4" d="M532.9,574.5c-0.6-0.8-1.5-1.2-2.5-1.2c-1.8,0-3,1.4-3,3.1c0,1.8,1.2,3,3,3
			c0.9,0,1.9-0.5,2.5-1.2v3.5c-1,0.3-1.7,0.5-2.6,0.5c-1.5,0-3-0.6-4.2-1.6c-1.2-1.1-1.8-2.6-1.8-4.2c0-1.5,0.6-3,1.6-4.1
			c1.1-1.1,2.7-1.8,4.2-1.8c0.9,0,1.8,0.2,2.6,0.6V574.5z"/>
		<path id="XMLID_930_" class="st4" d="M537.5,580l-0.8,1.9h-3.1l4.3-11.1h3.2l4.2,11.1h-3.1l-0.7-1.9H537.5z M539.5,574.2
			L539.5,574.2l-1.2,3.5h2.4L539.5,574.2z"/>
		<path id="XMLID_928_" class="st4" d="M549.1,579.4h3.5v2.5h-6.4v-11.1h2.9V579.4z"/>
		<path id="XMLID_925_" class="st4" d="M553.5,570.8h4.1c3.1,0,5.7,2.4,5.7,5.6c0,3.1-2.6,5.6-5.7,5.6h-4.1V570.8z M556.4,579.4h0.6
			c1.7,0,3.2-0.9,3.2-3.1c0-2-1.3-3.1-3.2-3.1h-0.7V579.4z"/>
		<path id="XMLID_923_" class="st4" d="M567.5,581.9h-2.9v-11.1h2.9V581.9z"/>
		<path id="XMLID_920_" class="st4" d="M572.2,580l-0.8,1.9h-3.1l4.3-11.1h3.2l4.2,11.1h-3.1l-0.7-1.9H572.2z M574.3,574.2
			L574.3,574.2l-1.2,3.5h2.4L574.3,574.2z"/>
		<path id="XMLID_918_" class="st4" d="M480.4,592.2c-0.6-0.8-1.6-1.2-2.5-1.2c-1.8,0-3,1.4-3,3.1c0,1.8,1.2,3,3,3
			c0.9,0,1.9-0.5,2.5-1.2v3.5c-1,0.3-1.7,0.5-2.6,0.5c-1.6,0-3-0.6-4.2-1.6c-1.2-1.1-1.8-2.6-1.8-4.2c0-1.5,0.6-3,1.6-4.1
			c1.1-1.1,2.7-1.8,4.2-1.8c0.9,0,1.8,0.2,2.6,0.6V592.2z"/>
		<path id="XMLID_915_" class="st4" d="M493.9,593.8c0,3.6-2.6,6.1-6.2,6.1s-6.2-2.5-6.2-6.1c0-3.4,3-5.7,6.2-5.7
			C491,588.1,493.9,590.5,493.9,593.8z M484.6,593.8c0,1.9,1.4,3.3,3.1,3.3c1.7,0,3.1-1.4,3.1-3.3c0-1.5-1.4-2.9-3.1-2.9
			C486,590.9,484.6,592.3,484.6,593.8z"/>
		<path id="XMLID_911_" class="st4" d="M495.3,599.6v-11.1h4.1c2,0,3.3,0.8,3.3,2.9c0,1-0.3,1.8-1.2,2.3v0c1.6,0.2,2.3,1.3,2.3,2.8
			c0,2.3-2,3.1-4,3.1H495.3z M498.2,592.8h0.3c0.8,0,1.6-0.1,1.6-1.1c0-1-0.9-1.1-1.7-1.1h-0.2V592.8z M498.2,597.4h0.4
			c0.9,0,2.3,0,2.3-1.2c0-1.3-1.4-1.2-2.4-1.2h-0.3V597.4z"/>
		<path id="XMLID_908_" class="st4" d="M514.5,599.6h-3.6l-2.7-4.3h0v4.3h-2.9v-11.1h4.3c2.2,0,3.9,1,3.9,3.4c0,1.5-0.9,2.9-2.4,3.1
			L514.5,599.6z M508.2,593.5h0.3c0.9,0,2-0.2,2-1.4c0-1.2-1.1-1.4-2-1.4h-0.3V593.5z"/>
		<path id="XMLID_905_" class="st4" d="M527.1,593.8c0,3.6-2.6,6.1-6.2,6.1c-3.6,0-6.2-2.5-6.2-6.1c0-3.4,3-5.7,6.2-5.7
			C524.1,588.1,527.1,590.5,527.1,593.8z M517.8,593.8c0,1.9,1.4,3.3,3.1,3.3c1.7,0,3.1-1.4,3.1-3.3c0-1.5-1.4-2.9-3.1-2.9
			C519.2,590.9,517.8,592.3,517.8,593.8z"/>
	</g>
</g>
<rect id="XMLID_5192_" x="387.4" y="656.2" class="st3" width="223.3" height="101.1"/>
<rect id="XMLID_5191_" x="387.4" y="787.3" class="st3" width="223.3" height="101.1"/>
<g id="XMLID_13399_">
	<g>
		<path id="XMLID_1742_" class="st4" d="M420.8,691.3l-0.8,1.9h-3.1l4.3-11.1h3.2l4.2,11.1h-3.1l-0.7-1.9H420.8z M422.8,685.5
			L422.8,685.5l-1.2,3.5h2.4L422.8,685.5z"/>
		<path id="XMLID_1739_" class="st4" d="M438.7,693.2h-3.6l-2.7-4.3h0v4.3h-2.9v-11.1h4.3c2.2,0,3.9,1,3.9,3.4
			c0,1.5-0.9,2.9-2.4,3.1L438.7,693.2z M432.4,687.1h0.3c0.9,0,2-0.2,2-1.4c0-1.2-1.1-1.4-2-1.4h-0.3V687.1z"/>
		<path id="XMLID_1737_" class="st4" d="M442.4,684.5v1.9h3.3v2.5h-3.3v1.9h3.4v2.5h-6.3v-11.1h6.3v2.5H442.4z"/>
		<path id="XMLID_1734_" class="st4" d="M450.5,691.3l-0.8,1.9h-3.1l4.3-11.1h3.2l4.2,11.1h-3.1l-0.7-1.9H450.5z M452.5,685.5
			L452.5,685.5l-1.2,3.5h2.4L452.5,685.5z"/>
		<path id="XMLID_1732_" class="st4" d="M468.7,693.2h-2.9v-8.7h-2.4v-2.5h7.7v2.5h-2.4V693.2z"/>
		<path id="XMLID_1730_" class="st4" d="M475,684.5v1.9h3.3v2.5H475v1.9h3.4v2.5h-6.3v-11.1h6.3v2.5H475z"/>
		<path id="XMLID_1728_" class="st4" d="M488.2,685.8c-0.6-0.8-1.6-1.2-2.5-1.2c-1.8,0-3,1.4-3,3.1c0,1.8,1.2,3,3,3
			c0.9,0,1.9-0.5,2.5-1.2v3.5c-1,0.3-1.7,0.5-2.6,0.5c-1.6,0-3-0.6-4.2-1.6c-1.2-1.1-1.8-2.6-1.8-4.2c0-1.5,0.6-3,1.6-4.1
			c1.1-1.1,2.7-1.8,4.2-1.8c0.9,0,1.8,0.2,2.6,0.6V685.8z"/>
		<path id="XMLID_1726_" class="st4" d="M490,682.1h2.9l5.3,6.8h0v-6.8h2.9v11.1h-2.9l-5.3-6.8h0v6.8H490V682.1z"/>
		<path id="XMLID_1724_" class="st4" d="M505.9,693.2H503v-11.1h2.9V693.2z"/>
		<path id="XMLID_1722_" class="st4" d="M515.7,685.8c-0.6-0.8-1.6-1.2-2.5-1.2c-1.8,0-3,1.4-3,3.1c0,1.8,1.2,3,3,3
			c0.9,0,1.9-0.5,2.5-1.2v3.5c-1,0.3-1.7,0.5-2.6,0.5c-1.6,0-3-0.6-4.2-1.6c-1.2-1.1-1.8-2.6-1.8-4.2c0-1.5,0.6-3,1.6-4.1
			c1.1-1.1,2.7-1.8,4.2-1.8c0.9,0,1.8,0.2,2.6,0.6V685.8z"/>
		<path id="XMLID_1719_" class="st4" d="M529.2,687.4c0,3.6-2.6,6.1-6.2,6.1c-3.6,0-6.2-2.5-6.2-6.1c0-3.4,3-5.7,6.2-5.7
			C526.3,681.7,529.2,684.1,529.2,687.4z M519.9,687.5c0,1.9,1.4,3.3,3.1,3.3c1.7,0,3.1-1.4,3.1-3.3c0-1.5-1.4-2.9-3.1-2.9
			C521.4,684.5,519.9,685.9,519.9,687.5z"/>
		<path id="XMLID_1717_" class="st4" d="M536.7,685c-0.5-0.4-1.2-0.7-1.9-0.7c-0.5,0-1.2,0.3-1.2,0.9c0,0.6,0.8,0.9,1.3,1.1l0.7,0.2
			c1.6,0.5,2.7,1.2,2.7,3c0,1.1-0.3,2.2-1.2,3c-0.9,0.7-2,1-3.2,1c-1.4,0-2.8-0.5-3.9-1.3l1.2-2.3c0.7,0.6,1.6,1.2,2.6,1.2
			c0.7,0,1.4-0.3,1.4-1.1c0-0.8-1.1-1.1-1.8-1.3c-1.8-0.5-3-1-3-3.1c0-2.3,1.6-3.7,3.8-3.7c1.1,0,2.5,0.4,3.5,0.9L536.7,685z"/>
		<path id="XMLID_1715_" class="st4" d="M546.9,681l-5.6,13.6h-2.1l5.6-13.6H546.9z"/>
		<path id="XMLID_1712_" class="st4" d="M551.1,691.3l-0.8,1.9h-3.1l4.3-11.1h3.2l4.2,11.1h-3.1l-0.7-1.9H551.1z M553.1,685.5
			L553.1,685.5l-1.2,3.5h2.4L553.1,685.5z"/>
		<path id="XMLID_1709_" class="st4" d="M569,693.2h-3.6l-2.7-4.3h0v4.3h-2.9v-11.1h4.3c2.2,0,3.9,1,3.9,3.4c0,1.5-0.9,2.9-2.4,3.1
			L569,693.2z M562.7,687.1h0.3c0.9,0,2-0.2,2-1.4c0-1.2-1.1-1.4-2-1.4h-0.3V687.1z"/>
		<path id="XMLID_1706_" class="st4" d="M579.3,693.9l-0.9-1c-0.9,0.5-1.9,0.7-3.1,0.7c-3.6,0-6.2-2.5-6.2-6.1c0-3.4,3-5.7,6.2-5.7
			c3.5,0,6.2,2.3,6.2,6c0,1.5-0.5,2.8-1.4,3.9l1.9,1.9L579.3,693.9z M578,689.3c0.3-0.5,0.5-1.1,0.5-1.6c0-1.7-1.4-3.2-3.1-3.2
			c-1.7,0-3.2,1.4-3.2,2.9c0,1.9,1.4,3.3,3.2,3.3c0.3,0,0.6,0,0.9-0.1l-1.8-1.8l2.7-0.3L578,689.3z"/>
		<path id="XMLID_1704_" class="st4" d="M451.2,706.6l2.7-6.8h3.1l-4.8,11.1H450l-4.7-11.1h3.1L451.2,706.6z"/>
		<path id="XMLID_1701_" class="st4" d="M464.4,707.6h-5.7c0,1.1,0.6,1.7,1.7,1.7c0.6,0,1-0.2,1.3-0.7h2.6c-0.2,0.9-0.7,1.5-1.4,2
			s-1.6,0.6-2.4,0.6c-2.5,0-4.4-1.4-4.4-4c0-2.5,1.7-4,4.2-4c2.6,0,4.1,1.6,4.1,4.2V707.6z M461.9,706c-0.1-0.7-0.8-1.2-1.5-1.2
			c-0.8,0-1.4,0.4-1.6,1.2H461.9z"/>
		<path id="XMLID_1699_" class="st4" d="M468.3,704.6L468.3,704.6c0.5-0.9,1.4-1.3,2.5-1.3h0.5v2.6c-0.4-0.2-0.7-0.3-1.1-0.3
			c-1.5,0-1.9,1-1.9,2.3v3.1h-2.7v-7.6h2.7V704.6z"/>
		<path id="XMLID_1696_" class="st4" d="M475.2,700.5c0,0.8-0.7,1.5-1.5,1.5c-0.8,0-1.5-0.7-1.5-1.5c0-0.8,0.7-1.5,1.5-1.5
			C474.5,698.9,475.2,699.6,475.2,700.5z M475,710.9h-2.7v-7.6h2.7V710.9z"/>
		<path id="XMLID_1692_" class="st4" d="M479.6,710.9h-2.7v-5.4H476v-2.2h0.9v-1c0-1,0-1.8,0.8-2.7c0.7-0.8,1.6-1.2,2.6-1.2
			c0.4,0,0.8,0.1,1.2,0.3v2.3c-0.3-0.1-0.6-0.3-0.9-0.3c-0.7,0-0.9,0.4-0.9,1.3v1.2h1.9v2.2h-1.9V710.9z M485.2,700.5
			c0,0.8-0.7,1.5-1.5,1.5c-0.8,0-1.5-0.7-1.5-1.5c0-0.8,0.7-1.5,1.5-1.5C484.5,698.9,485.2,699.6,485.2,700.5z M485,710.9h-2.7v-7.6
			h2.7V710.9z"/>
		<path id="XMLID_1690_" class="st4" d="M492.3,705.8c-0.4-0.3-0.9-0.5-1.4-0.5c-1,0-1.8,0.8-1.8,1.8c0,1.1,0.8,1.9,1.9,1.9
			c0.5,0,1-0.2,1.3-0.5v2.3c-0.6,0.3-1.2,0.4-1.9,0.4c-2.2,0-4.1-1.7-4.1-4c0-2.4,1.9-4.1,4.2-4.1c0.6,0,1.2,0.1,1.8,0.4V705.8z"/>
		<path id="XMLID_1687_" class="st4" d="M502.2,710.9h-2.7v-0.8h0c-0.5,0.8-1.4,1.1-2.3,1.1c-2.2,0-3.8-1.9-3.8-4s1.5-4,3.8-4
			c0.9,0,1.8,0.3,2.3,1v-0.7h2.7V710.9z M496.1,707.2c0,1,0.6,1.7,1.7,1.7c1.1,0,1.7-0.7,1.7-1.7c0-0.9-0.6-1.7-1.7-1.7
			C496.8,705.4,496.1,706.2,496.1,707.2z"/>
		<path id="XMLID_1685_" class="st4" d="M509.5,705.8c-0.4-0.3-0.9-0.5-1.4-0.5c-1,0-1.8,0.8-1.8,1.8c0,1.1,0.8,1.9,1.9,1.9
			c0.5,0,1-0.2,1.3-0.5v2.3c-0.6,0.3-1.2,0.4-1.9,0.4c-2.2,0-4.1-1.7-4.1-4c0-2.4,1.9-4.1,4.2-4.1c0.6,0,1.2,0.1,1.8,0.4V705.8z"/>
		<path id="XMLID_1682_" class="st4" d="M514,700.5c0,0.8-0.7,1.5-1.5,1.5s-1.5-0.7-1.5-1.5c0-0.8,0.7-1.5,1.5-1.5
			S514,699.6,514,700.5z M513.8,710.9h-2.7v-7.6h2.7V710.9z"/>
		<path id="XMLID_1678_" class="st4" d="M524.1,707.2c0,2.6-2.1,4-4.6,4c-2.4,0-4.6-1.4-4.6-4s2.1-4,4.6-4
			C522,703.1,524.1,704.6,524.1,707.2z M517.9,707.2c0,1,0.6,1.7,1.7,1.7c1.1,0,1.7-0.7,1.7-1.7c0-0.9-0.6-1.7-1.7-1.7
			C518.5,705.4,517.9,706.2,517.9,707.2z M519.3,702.2l-1.2-0.9l2.1-2.5l1.6,1.2L519.3,702.2z"/>
		<path id="XMLID_1676_" class="st4" d="M528,704.3L528,704.3c0.7-0.9,1.4-1.2,2.5-1.2c2,0,2.9,1.3,2.9,3.1v4.7h-2.7v-3.7
			c0-0.7,0.1-2-1.2-2c-1.1,0-1.4,0.8-1.4,1.8v3.9h-2.7v-7.6h2.7V704.3z"/>
		<path id="XMLID_1673_" class="st4" d="M548,707.6h-5.7c0,1.1,0.6,1.7,1.7,1.7c0.6,0,1-0.2,1.3-0.7h2.6c-0.2,0.9-0.7,1.5-1.4,2
			c-0.7,0.4-1.5,0.6-2.4,0.6c-2.5,0-4.4-1.4-4.4-4c0-2.5,1.7-4,4.2-4c2.6,0,4.1,1.6,4.1,4.2V707.6z M545.5,706
			c-0.1-0.7-0.8-1.2-1.5-1.2c-0.8,0-1.4,0.4-1.6,1.2H545.5z"/>
		<path id="XMLID_1670_" class="st4" d="M415.3,718.2c0,0.8-0.7,1.5-1.5,1.5c-0.8,0-1.5-0.7-1.5-1.5c0-0.8,0.7-1.5,1.5-1.5
			C414.7,716.7,415.3,717.3,415.3,718.2z M415.2,728.7h-2.7v-7.6h2.7V728.7z"/>
		<path id="XMLID_1668_" class="st4" d="M419.6,722L419.6,722c0.7-0.8,1.4-1.2,2.4-1.2c1.1,0,2,0.4,2.6,1.4c0.5-0.9,1.5-1.4,2.6-1.4
			c1.9,0,2.6,1.3,2.6,3v4.8h-2.7V725c0-0.8,0-2.1-1.1-2.1c-1.2,0-1.3,1.2-1.3,2.1v3.6H422V725c0-0.8,0-2.1-1.2-2.1
			c-1.2,0-1.2,1.3-1.2,2.1v3.6h-2.7v-7.6h2.7V722z"/>
		<path id="XMLID_1665_" class="st4" d="M434.1,721.9L434.1,721.9c0.5-0.8,1.4-1.1,2.3-1.1c2.3,0,3.8,1.9,3.8,4.1c0,2.2-1.6,4-3.8,4
			c-0.9,0-1.8-0.3-2.3-1v4.5h-2.7v-11.4h2.7V721.9z M434.1,724.9c0,1,0.6,1.7,1.7,1.7c1.1,0,1.7-0.7,1.7-1.7c0-0.9-0.6-1.7-1.7-1.7
			C434.7,723.2,434.1,723.9,434.1,724.9z"/>
		<path id="XMLID_1663_" class="st4" d="M444.3,722.3L444.3,722.3c0.5-0.9,1.4-1.3,2.5-1.3h0.5v2.6c-0.4-0.2-0.7-0.3-1.1-0.3
			c-1.5,0-1.9,1-1.9,2.3v3.1h-2.7v-7.6h2.7V722.3z"/>
		<path id="XMLID_1660_" class="st4" d="M456.1,725.3h-5.7c0,1.1,0.6,1.7,1.7,1.7c0.6,0,1-0.2,1.3-0.7h2.6c-0.2,0.9-0.7,1.5-1.4,2
			c-0.7,0.4-1.6,0.6-2.4,0.6c-2.5,0-4.4-1.4-4.4-4c0-2.5,1.7-4,4.2-4c2.6,0,4.1,1.6,4.1,4.2V725.3z M453.6,723.8
			c-0.1-0.7-0.8-1.2-1.5-1.2c-0.8,0-1.4,0.4-1.6,1.2H453.6z"/>
		<path id="XMLID_1658_" class="st4" d="M462.3,723c-0.4-0.2-1-0.4-1.4-0.4c-0.3,0-0.8,0.1-0.8,0.5c0,0.5,0.8,0.6,1.2,0.7
			c1.3,0.3,2.2,0.8,2.2,2.2c0,2-1.8,2.8-3.6,2.8c-1.1,0-2.1-0.3-3.1-0.9l1-1.9c0.5,0.4,1.5,0.8,2.1,0.8c0.3,0,0.8-0.2,0.8-0.6
			c0-0.6-0.8-0.6-1.7-0.8c-0.8-0.2-1.7-0.6-1.7-2c0-1.9,1.7-2.7,3.3-2.7c0.9,0,1.7,0.1,2.5,0.5L462.3,723z"/>
		<path id="XMLID_1655_" class="st4" d="M467.7,718.2c0,0.8-0.7,1.5-1.5,1.5c-0.8,0-1.5-0.7-1.5-1.5c0-0.8,0.7-1.5,1.5-1.5
			C467.1,716.7,467.7,717.3,467.7,718.2z M467.6,728.7h-2.7v-7.6h2.7V728.7z"/>
		<path id="XMLID_1651_" class="st4" d="M477.9,724.9c0,2.6-2.1,4-4.6,4c-2.4,0-4.6-1.4-4.6-4s2.1-4,4.6-4
			C475.8,720.8,477.9,722.3,477.9,724.9z M471.6,724.9c0,1,0.6,1.7,1.7,1.7c1.1,0,1.7-0.7,1.7-1.7c0-0.9-0.6-1.7-1.7-1.7
			C472.3,723.2,471.6,723.9,471.6,724.9z M473.1,720l-1.2-0.9l2.1-2.5l1.6,1.2L473.1,720z"/>
		<path id="XMLID_1649_" class="st4" d="M481.8,722.1L481.8,722.1c0.7-0.9,1.4-1.2,2.5-1.2c2,0,2.9,1.3,2.9,3.1v4.7h-2.7V725
			c0-0.7,0.1-2-1.2-2c-1.1,0-1.4,0.8-1.4,1.8v3.9h-2.7v-7.6h2.7V722.1z"/>
		<path id="XMLID_1646_" class="st4" d="M499.6,727.8L499.6,727.8c-0.5,0.8-1.4,1.1-2.3,1.1c-2.2,0-3.8-1.9-3.8-4c0-2.2,1.6-4,3.8-4
			c0.9,0,1.8,0.3,2.3,1v-5.4h2.7v12.3h-2.7V727.8z M496.3,724.9c0,1,0.6,1.7,1.7,1.7c1.1,0,1.7-0.7,1.7-1.7c0-0.9-0.6-1.7-1.7-1.7
			C496.9,723.2,496.3,723.9,496.3,724.9z"/>
		<path id="XMLID_1643_" class="st4" d="M511.8,725.3h-5.7c0,1.1,0.6,1.7,1.7,1.7c0.6,0,1-0.2,1.3-0.7h2.6c-0.2,0.9-0.7,1.5-1.4,2
			c-0.7,0.4-1.5,0.6-2.4,0.6c-2.5,0-4.4-1.4-4.4-4c0-2.5,1.7-4,4.2-4c2.6,0,4.1,1.6,4.1,4.2V725.3z M509.3,723.8
			c-0.1-0.7-0.8-1.2-1.5-1.2c-0.8,0-1.4,0.4-1.6,1.2H509.3z"/>
		<path id="XMLID_1639_" class="st4" d="M520.9,718.2c0,0.8-0.7,1.5-1.5,1.5s-1.5-0.7-1.5-1.5c0-0.8,0.7-1.5,1.5-1.5
			S520.9,717.3,520.9,718.2z M520.8,728.7h-2.7v-7.6h2.7V728.7z"/>
		<path id="XMLID_1637_" class="st4" d="M525.2,722.1L525.2,722.1c0.6-0.9,1.4-1.2,2.5-1.2c2,0,2.9,1.3,2.9,3.1v4.7h-2.7V725
			c0-0.7,0.1-2-1.2-2c-1.1,0-1.4,0.8-1.4,1.8v3.9h-2.7v-7.6h2.7V722.1z"/>
		<path id="XMLID_1635_" class="st4" d="M535.3,728.7h-2.7v-5.4h-0.9v-2.2h0.9v-1c0-1,0-1.8,0.8-2.7c0.7-0.8,1.6-1.2,2.6-1.2
			c0.4,0,0.8,0.1,1.2,0.3v2.3c-0.3-0.1-0.6-0.3-0.9-0.3c-0.7,0-0.9,0.4-0.9,1.3v1.2h1.9v2.2h-1.9V728.7z"/>
		<path id="XMLID_1632_" class="st4" d="M546.6,724.9c0,2.6-2.1,4-4.6,4c-2.4,0-4.6-1.4-4.6-4s2.1-4,4.6-4
			C544.5,720.8,546.6,722.3,546.6,724.9z M540.3,724.9c0,1,0.6,1.7,1.7,1.7s1.7-0.7,1.7-1.7c0-0.9-0.6-1.7-1.7-1.7
			S540.3,723.9,540.3,724.9z"/>
		<path id="XMLID_1630_" class="st4" d="M550.5,722.3L550.5,722.3c0.5-0.9,1.4-1.3,2.5-1.3h0.5v2.6c-0.4-0.2-0.7-0.3-1.1-0.3
			c-1.5,0-1.9,1-1.9,2.3v3.1h-2.7v-7.6h2.7V722.3z"/>
		<path id="XMLID_1628_" class="st4" d="M557.2,722L557.2,722c0.7-0.8,1.4-1.2,2.4-1.2c1.1,0,2,0.4,2.6,1.4c0.5-0.9,1.5-1.4,2.6-1.4
			c1.9,0,2.6,1.3,2.6,3v4.8h-2.7V725c0-0.8,0-2.1-1.1-2.1c-1.2,0-1.3,1.2-1.3,2.1v3.6h-2.7V725c0-0.8,0-2.1-1.2-2.1
			c-1.2,0-1.2,1.3-1.2,2.1v3.6h-2.7v-7.6h2.7V722z"/>
		<path id="XMLID_1625_" class="st4" d="M576.9,725.3h-5.7c0,1.1,0.6,1.7,1.7,1.7c0.6,0,1-0.2,1.3-0.7h2.6c-0.2,0.9-0.7,1.5-1.4,2
			c-0.7,0.4-1.6,0.6-2.4,0.6c-2.5,0-4.4-1.4-4.4-4c0-2.5,1.7-4,4.2-4c2.6,0,4.1,1.6,4.1,4.2V725.3z M574.4,723.8
			c-0.1-0.7-0.8-1.2-1.5-1.2c-0.8,0-1.4,0.4-1.6,1.2H574.4z"/>
	</g>
</g>
<g id="XMLID_13340_">
	<g>
		<path id="XMLID_525_" class="st4" d="M439.5,822.4v7.5c0,2.3-1.2,3.9-3.7,3.9c-1.2,0-2.2-0.6-2.9-1.6l1.7-1.8
			c0.3,0.4,0.8,0.9,1.2,0.9c0.9,0,0.8-1,0.8-1.6v-7.3H439.5z"/>
		<path id="XMLID_523_" class="st4" d="M444.2,824.9v1.9h3.3v2.5h-3.3v1.9h3.4v2.5h-6.3v-11.1h6.3v2.5H444.2z"/>
		<path id="XMLID_521_" class="st4" d="M452.3,824.9v1.9h3.2v2.5h-3.2v4.4h-2.9v-11.1h6.4v2.5H452.3z"/>
		<path id="XMLID_519_" class="st4" d="M460.3,824.9v1.9h3.3v2.5h-3.3v1.9h3.4v2.5h-6.3v-11.1h6.3v2.5H460.3z"/>
		<path id="XMLID_516_" class="st4" d="M470.6,822.4h4.1c3.1,0,5.7,2.4,5.7,5.6c0,3.1-2.6,5.6-5.7,5.6h-4.1V822.4z M473.5,831.1h0.6
			c1.7,0,3.2-0.9,3.2-3.1c0-2-1.3-3.1-3.2-3.1h-0.7V831.1z"/>
		<path id="XMLID_514_" class="st4" d="M484.6,824.9v1.9h3.3v2.5h-3.3v1.9h3.4v2.5h-6.3v-11.1h6.3v2.5H484.6z"/>
		<path id="XMLID_511_" class="st4" d="M494.9,822.4h4.1c3.1,0,5.7,2.4,5.7,5.6c0,3.1-2.6,5.6-5.7,5.6h-4.1V822.4z M497.8,831.1h0.6
			c1.7,0,3.2-0.9,3.2-3.1c0-2-1.3-3.1-3.2-3.1h-0.7V831.1z"/>
		<path id="XMLID_509_" class="st4" d="M508.9,833.5H506v-11.1h2.9V833.5z"/>
		<path id="XMLID_507_" class="st4" d="M515.4,829.2l2.7-6.8h3.1l-4.8,11.1h-2.2l-4.7-11.1h3.1L515.4,829.2z"/>
		<path id="XMLID_505_" class="st4" d="M524.9,833.5H522v-11.1h2.9V833.5z"/>
		<path id="XMLID_503_" class="st4" d="M532.9,825.3c-0.5-0.4-1.2-0.7-1.9-0.7c-0.5,0-1.2,0.3-1.2,0.9c0,0.6,0.8,0.9,1.3,1.1
			l0.7,0.2c1.6,0.5,2.7,1.2,2.7,3c0,1.1-0.3,2.2-1.2,3c-0.9,0.7-2,1-3.2,1c-1.4,0-2.8-0.5-3.9-1.3l1.2-2.3c0.7,0.6,1.6,1.2,2.6,1.2
			c0.7,0,1.4-0.3,1.4-1.1c0-0.8-1.1-1.1-1.8-1.3c-1.8-0.5-3-1-3-3.1c0-2.3,1.6-3.7,3.8-3.7c1.1,0,2.5,0.4,3.5,0.9L532.9,825.3z"/>
		<path id="XMLID_501_" class="st4" d="M538.8,833.5h-2.9v-11.1h2.9V833.5z"/>
		<path id="XMLID_471_" class="st4" d="M552.4,827.8c0,3.6-2.6,6.1-6.2,6.1c-3.6,0-6.2-2.5-6.2-6.1c0-3.4,3-5.7,6.2-5.7
			C549.5,822,552.4,824.4,552.4,827.8z M543.1,827.8c0,1.9,1.4,3.3,3.1,3.3c1.7,0,3.1-1.4,3.1-3.3c0-1.5-1.4-2.9-3.1-2.9
			C544.5,824.9,543.1,826.3,543.1,827.8z M545.9,821.7l-1.2-0.9l2.1-2.5l1.6,1.2L545.9,821.7z"/>
		<path id="XMLID_469_" class="st4" d="M553.8,822.4h2.9l5.3,6.8h0v-6.8h2.9v11.1H562l-5.3-6.8h0v6.8h-2.9V822.4z"/>
		<path id="XMLID_467_" class="st4" d="M448.8,842.6v1.9h3.2v2.5h-3.2v4.4h-2.9v-11.1h6.4v2.5H448.8z"/>
		<path id="XMLID_464_" class="st4" d="M456.7,840.8c0,0.8-0.7,1.5-1.5,1.5c-0.8,0-1.5-0.7-1.5-1.5c0-0.8,0.7-1.5,1.5-1.5
			C456,839.3,456.7,840,456.7,840.8z M456.5,851.3h-2.7v-7.6h2.7V851.3z"/>
		<path id="XMLID_462_" class="st4" d="M461,844.9L461,844.9c0.5-0.9,1.4-1.3,2.5-1.3h0.5v2.6c-0.4-0.2-0.7-0.3-1.1-0.3
			c-1.5,0-1.9,1-1.9,2.3v3.1h-2.7v-7.6h2.7V844.9z"/>
		<path id="XMLID_460_" class="st4" d="M467.7,844.6L467.7,844.6c0.7-0.8,1.4-1.2,2.4-1.2c1.1,0,2,0.4,2.6,1.4
			c0.5-0.9,1.5-1.4,2.6-1.4c1.9,0,2.6,1.3,2.6,3v4.8h-2.7v-3.6c0-0.8,0-2.1-1.1-2.1c-1.2,0-1.3,1.2-1.3,2.1v3.6h-2.7v-3.6
			c0-0.8,0-2.1-1.2-2.1c-1.2,0-1.2,1.3-1.2,2.1v3.6H465v-7.6h2.7V844.6z"/>
		<path id="XMLID_457_" class="st4" d="M487.9,851.3h-2.7v-0.8h0c-0.5,0.8-1.4,1.1-2.3,1.1c-2.2,0-3.8-1.9-3.8-4s1.5-4,3.8-4
			c0.9,0,1.8,0.3,2.3,1v-0.7h2.7V851.3z M481.8,847.5c0,1,0.6,1.7,1.7,1.7c1.1,0,1.7-0.7,1.7-1.7c0-0.9-0.6-1.7-1.7-1.7
			C482.5,845.8,481.8,846.6,481.8,847.5z"/>
		<path id="XMLID_455_" class="st4" d="M493.6,843.7h3.1l2,3.9l2-3.9h3.1l-6.1,11.4h-3l2.6-4.8L493.6,843.7z"/>
		<path id="XMLID_453_" class="st4" d="M514.5,845.6c-0.4-0.2-1-0.4-1.4-0.4c-0.3,0-0.8,0.1-0.8,0.5c0,0.5,0.8,0.6,1.2,0.7
			c1.3,0.3,2.2,0.8,2.2,2.2c0,2-1.8,2.8-3.6,2.8c-1.1,0-2.1-0.3-3.1-0.9l1-1.9c0.5,0.4,1.5,0.8,2.1,0.8c0.3,0,0.8-0.2,0.8-0.6
			c0-0.6-0.8-0.6-1.7-0.8c-0.8-0.2-1.7-0.6-1.7-2c0-1.9,1.7-2.7,3.3-2.7c0.9,0,1.7,0.1,2.5,0.5L514.5,845.6z"/>
		<path id="XMLID_450_" class="st4" d="M524.8,847.9h-5.7c0,1.1,0.6,1.7,1.7,1.7c0.6,0,1-0.2,1.3-0.7h2.6c-0.2,0.9-0.7,1.5-1.4,2
			c-0.7,0.4-1.6,0.6-2.4,0.6c-2.5,0-4.4-1.4-4.4-4c0-2.5,1.7-4,4.2-4c2.6,0,4.1,1.6,4.1,4.2V847.9z M522.3,846.4
			c-0.1-0.7-0.8-1.2-1.5-1.2c-0.8,0-1.4,0.4-1.6,1.2H522.3z"/>
		<path id="XMLID_448_" class="st4" d="M528.7,851.3H526V839h2.7V851.3z"/>
		<path id="XMLID_446_" class="st4" d="M533.2,851.3h-2.7V839h2.7V851.3z"/>
		<path id="XMLID_443_" class="st4" d="M543.5,847.5c0,2.6-2.1,4-4.6,4c-2.4,0-4.6-1.4-4.6-4s2.1-4,4.6-4
			C541.4,843.4,543.5,844.9,543.5,847.5z M537.2,847.5c0,1,0.6,1.7,1.7,1.7c1.1,0,1.7-0.7,1.7-1.7c0-0.9-0.6-1.7-1.7-1.7
			C537.9,845.8,537.2,846.6,537.2,847.5z"/>
	</g>
</g>
<rect id="XMLID_5188_" x="387.4" y="917.2" class="st3" width="223.3" height="101.1"/>
<g id="XMLID_13268_">
	<g>
		<path id="XMLID_883_" class="st4" d="M457.9,955.2c-0.5-0.4-1.2-0.7-1.9-0.7c-0.5,0-1.2,0.3-1.2,0.9c0,0.6,0.8,0.9,1.3,1.1
			l0.7,0.2c1.6,0.5,2.7,1.2,2.7,3c0,1.1-0.3,2.2-1.2,3c-0.9,0.7-2,1-3.2,1c-1.4,0-2.8-0.5-3.9-1.3l1.2-2.3c0.7,0.6,1.6,1.2,2.6,1.2
			c0.7,0,1.4-0.3,1.4-1.1c0-0.8-1.1-1.1-1.8-1.3c-1.8-0.5-3-1-3-3.1c0-2.3,1.6-3.7,3.8-3.7c1.1,0,2.5,0.4,3.5,0.9L457.9,955.2z"/>
		<path id="XMLID_881_" class="st4" d="M470.6,952.3v6.3c0,1.4-0.1,2.9-1.2,3.9c-0.9,0.9-2.4,1.2-3.7,1.2s-2.8-0.3-3.7-1.2
			c-1.1-1.1-1.2-2.5-1.2-3.9v-6.3h2.9v5.9c0,1.4,0.1,3,2,3c1.9,0,2-1.6,2-3v-5.9H470.6z"/>
		<path id="XMLID_877_" class="st4" d="M472.4,963.4v-11.1h4.1c2,0,3.3,0.8,3.3,2.9c0,1-0.3,1.8-1.2,2.3v0c1.6,0.2,2.3,1.3,2.3,2.8
			c0,2.3-2,3.1-4,3.1H472.4z M475.3,956.7h0.3c0.8,0,1.6-0.1,1.6-1.1c0-1-0.9-1.1-1.7-1.1h-0.2V956.7z M475.3,961.2h0.4
			c0.9,0,2.3,0,2.3-1.2c0-1.3-1.4-1.2-2.4-1.2h-0.3V961.2z"/>
		<path id="XMLID_874_" class="st4" d="M485.2,961.5l-0.8,1.9h-3.1l4.3-11.1h3.2l4.2,11.1h-3.1l-0.7-1.9H485.2z M487.2,955.7
			L487.2,955.7l-1.2,3.5h2.4L487.2,955.7z"/>
		<path id="XMLID_872_" class="st4" d="M496.8,961h3.5v2.5h-6.4v-11.1h2.9V961z"/>
		<path id="XMLID_870_" class="st4" d="M509.2,956c-0.6-0.8-1.5-1.2-2.5-1.2c-1.8,0-3,1.4-3,3.1c0,1.8,1.2,3,3,3
			c0.9,0,1.9-0.5,2.5-1.2v3.5c-1,0.3-1.7,0.5-2.6,0.5c-1.5,0-3-0.6-4.2-1.6c-1.2-1.1-1.8-2.6-1.8-4.2c0-1.5,0.6-3,1.6-4.1
			c1.1-1.1,2.7-1.8,4.2-1.8c0.9,0,1.8,0.2,2.6,0.6V956z"/>
		<path id="XMLID_867_" class="st4" d="M513.8,961.5l-0.8,1.9H510l4.3-11.1h3.2l4.2,11.1h-3.1l-0.7-1.9H513.8z M515.8,955.7
			L515.8,955.7l-1.2,3.5h2.4L515.8,955.7z"/>
		<path id="XMLID_865_" class="st4" d="M525.4,961h3.5v2.5h-6.4v-11.1h2.9V961z"/>
		<path id="XMLID_862_" class="st4" d="M529.8,952.3h4.1c3.1,0,5.7,2.4,5.7,5.6c0,3.1-2.6,5.6-5.7,5.6h-4.1V952.3z M532.7,961h0.6
			c1.7,0,3.2-0.9,3.2-3.1c0-2-1.3-3.1-3.2-3.1h-0.7V961z"/>
		<path id="XMLID_860_" class="st4" d="M543.8,954.7v1.9h3.3v2.5h-3.3v1.9h3.4v2.5h-6.3v-11.1h6.3v2.5H543.8z"/>
		<path id="XMLID_858_" class="st4" d="M415.4,972.5v1.9h3.2v2.5h-3.2v4.4h-2.9V970h6.4v2.5H415.4z"/>
		<path id="XMLID_855_" class="st4" d="M423.3,970.7c0,0.8-0.7,1.5-1.5,1.5c-0.8,0-1.5-0.7-1.5-1.5c0-0.8,0.7-1.5,1.5-1.5
			C422.6,969.2,423.3,969.8,423.3,970.7z M423.1,981.1h-2.7v-7.6h2.7V981.1z"/>
		<path id="XMLID_853_" class="st4" d="M427.6,974.8L427.6,974.8c0.5-0.9,1.4-1.3,2.5-1.3h0.5v2.6c-0.4-0.2-0.7-0.3-1.1-0.3
			c-1.5,0-1.9,1-1.9,2.3v3.1h-2.7v-7.6h2.7V974.8z"/>
		<path id="XMLID_851_" class="st4" d="M434.3,974.5L434.3,974.5c0.7-0.8,1.4-1.2,2.4-1.2c1.1,0,2,0.4,2.6,1.4
			c0.5-0.9,1.5-1.4,2.6-1.4c1.9,0,2.6,1.3,2.6,3v4.8h-2.7v-3.6c0-0.8,0-2.1-1.1-2.1c-1.2,0-1.3,1.2-1.3,2.1v3.6h-2.7v-3.6
			c0-0.8,0-2.1-1.2-2.1c-1.2,0-1.2,1.3-1.2,2.1v3.6h-2.7v-7.6h2.7V974.5z"/>
		<path id="XMLID_848_" class="st4" d="M454.5,981.1h-2.7v-0.8h0c-0.5,0.8-1.4,1.1-2.3,1.1c-2.2,0-3.8-1.9-3.8-4s1.5-4,3.8-4
			c0.9,0,1.8,0.3,2.3,1v-0.7h2.7V981.1z M448.4,977.4c0,1,0.6,1.7,1.7,1.7c1.1,0,1.7-0.7,1.7-1.7c0-0.9-0.6-1.7-1.7-1.7
			C449.1,975.7,448.4,976.4,448.4,977.4z"/>
		<path id="XMLID_845_" class="st4" d="M467,980.3L467,980.3c-0.5,0.8-1.4,1.1-2.3,1.1c-2.2,0-3.8-1.9-3.8-4s1.6-4,3.8-4
			c0.9,0,1.8,0.3,2.3,1v-5.4h2.7v12.3H467V980.3z M463.7,977.4c0,1,0.6,1.7,1.7,1.7c1.1,0,1.7-0.7,1.7-1.7c0-0.9-0.6-1.7-1.7-1.7
			C464.3,975.7,463.7,976.4,463.7,977.4z"/>
		<path id="XMLID_842_" class="st4" d="M479.2,977.8h-5.7c0,1.1,0.6,1.7,1.7,1.7c0.6,0,1-0.2,1.3-0.7h2.6c-0.2,0.9-0.7,1.5-1.4,2
			c-0.7,0.4-1.5,0.6-2.4,0.6c-2.5,0-4.4-1.4-4.4-4c0-2.5,1.7-4,4.2-4c2.6,0,4.1,1.6,4.1,4.2V977.8z M476.7,976.3
			c-0.1-0.7-0.8-1.2-1.5-1.2c-0.8,0-1.4,0.4-1.6,1.2H476.7z"/>
		<path id="XMLID_839_" class="st4" d="M493.8,981.1h-2.7v-0.8h0c-0.5,0.8-1.4,1.1-2.3,1.1c-2.2,0-3.8-1.9-3.8-4s1.6-4,3.8-4
			c0.9,0,1.8,0.3,2.3,1v-0.7h2.7V981.1z M487.7,977.4c0,1,0.6,1.7,1.7,1.7c1.1,0,1.7-0.7,1.7-1.7c0-0.9-0.6-1.7-1.7-1.7
			C488.3,975.7,487.7,976.4,487.7,977.4z"/>
		<path id="XMLID_836_" class="st4" d="M498.1,974.4L498.1,974.4c0.5-0.8,1.4-1.1,2.3-1.1c2.3,0,3.8,1.9,3.8,4.1c0,2.2-1.6,4-3.8,4
			c-0.9,0-1.8-0.3-2.3-1v4.5h-2.7v-11.4h2.7V974.4z M498.1,977.4c0,1,0.6,1.7,1.7,1.7c1.1,0,1.7-0.7,1.7-1.7c0-0.9-0.6-1.7-1.7-1.7
			C498.7,975.7,498.1,976.4,498.1,977.4z"/>
		<path id="XMLID_834_" class="st4" d="M508.3,974.8L508.3,974.8c0.5-0.9,1.4-1.3,2.5-1.3h0.5v2.6c-0.4-0.2-0.7-0.3-1.1-0.3
			c-1.5,0-1.9,1-1.9,2.3v3.1h-2.7v-7.6h2.7V974.8z"/>
		<path id="XMLID_831_" class="st4" d="M520.6,977.4c0,2.6-2.1,4-4.6,4c-2.4,0-4.6-1.4-4.6-4s2.1-4,4.6-4
			C518.5,973.3,520.6,974.8,520.6,977.4z M514.3,977.4c0,1,0.6,1.7,1.7,1.7c1.1,0,1.7-0.7,1.7-1.7c0-0.9-0.6-1.7-1.7-1.7
			C514.9,975.7,514.3,976.4,514.3,977.4z"/>
		<path id="XMLID_828_" class="st4" d="M521.7,968.9h2.7v5.4c0.6-0.7,1.5-1,2.3-1c2.2,0,3.8,1.9,3.8,4c0,2.2-1.6,4-3.8,4
			c-0.9,0-1.8-0.3-2.3-1.1h0v0.8h-2.7V968.9z M524.3,977.4c0,1,0.6,1.7,1.7,1.7c1.1,0,1.7-0.7,1.7-1.7c0-0.9-0.6-1.7-1.7-1.7
			C525,975.7,524.3,976.4,524.3,977.4z"/>
		<path id="XMLID_824_" class="st4" d="M540.2,981.1h-2.7v-0.8h0c-0.5,0.8-1.4,1.1-2.3,1.1c-2.2,0-3.8-1.9-3.8-4s1.6-4,3.8-4
			c0.9,0,1.8,0.3,2.3,1v-0.7h2.7V981.1z M534.1,977.4c0,1,0.6,1.7,1.7,1.7c1.1,0,1.7-0.7,1.7-1.7c0-0.9-0.6-1.7-1.7-1.7
			C534.7,975.7,534.1,976.4,534.1,977.4z"/>
		<path id="XMLID_822_" class="st4" d="M547.4,976c-0.4-0.3-0.9-0.5-1.4-0.5c-1,0-1.8,0.8-1.8,1.8c0,1.1,0.8,1.9,1.9,1.9
			c0.5,0,1-0.2,1.3-0.5v2.3c-0.6,0.3-1.2,0.4-1.9,0.4c-2.2,0-4.1-1.7-4.1-4c0-2.4,1.9-4.1,4.2-4.1c0.6,0,1.2,0.1,1.8,0.4V976z"/>
		<path id="XMLID_733_" class="st4" d="M551.9,970.7c0,0.8-0.7,1.5-1.5,1.5c-0.8,0-1.5-0.7-1.5-1.5c0-0.8,0.7-1.5,1.5-1.5
			C551.3,969.2,551.9,969.8,551.9,970.7z M551.8,981.1h-2.7v-7.6h2.7V981.1z"/>
		<path id="XMLID_654_" class="st4" d="M562.1,977.4c0,2.6-2.1,4-4.6,4c-2.4,0-4.6-1.4-4.6-4s2.1-4,4.6-4
			C560,973.3,562.1,974.8,562.1,977.4z M555.8,977.4c0,1,0.6,1.7,1.7,1.7s1.7-0.7,1.7-1.7c0-0.9-0.6-1.7-1.7-1.7
			S555.8,976.4,555.8,977.4z M557.2,972.5l-1.2-0.9l2.1-2.5l1.6,1.2L557.2,972.5z"/>
		<path id="XMLID_652_" class="st4" d="M566,974.5L566,974.5c0.6-0.9,1.4-1.2,2.5-1.2c2,0,2.8,1.3,2.8,3.1v4.7h-2.7v-3.7
			c0-0.7,0.1-2-1.2-2c-1.1,0-1.4,0.8-1.4,1.8v3.9h-2.7v-7.6h2.7V974.5z"/>
	</g>
</g>
<polygon id="XMLID_5186_" class="st5" points="390.7,51.2 381.3,56.7 371.9,62.1 371.9,51.2 371.9,40.4 381.3,45.8 "/>
<polygon id="XMLID_5185_" class="st5" points="497.4,136.4 492,126.9 486.6,117.5 497.4,117.5 508.3,117.5 502.9,126.9 "/>
<polygon id="XMLID_5184_" class="st5" points="610.7,184.4 620.1,179 629.6,173.5 629.6,184.4 629.6,195.3 620.1,189.8 "/>
<polygon id="XMLID_5183_" class="st5" points="610.7,51.2 620.1,45.8 629.6,40.4 629.6,51.2 629.6,62.1 620.1,56.7 "/>
<polygon id="XMLID_5182_" class="st5" points="663.6,184.4 654.2,189.8 644.8,195.3 644.8,184.4 644.8,173.5 654.2,179 "/>
<polygon id="XMLID_5181_" class="st5" points="775.4,126.9 770,117.5 764.5,108.1 775.4,108.1 786.3,108.1 780.8,117.5 "/>
<polygon id="XMLID_5180_" class="st5" points="497.4,266.8 492,257.4 486.6,247.9 497.4,247.9 508.3,247.9 502.9,257.4 "/>
<polygon id="XMLID_5179_" class="st5" points="497.4,397.2 492,387.8 486.6,378.4 497.4,378.4 508.3,378.4 502.9,387.8 "/>
<polygon id="XMLID_5178_" class="st5" points="497.4,527.6 492,518.2 486.6,508.8 497.4,508.8 508.3,508.8 502.9,518.2 "/>
<polygon id="XMLID_5177_" class="st5" points="497.4,658 492,648.6 486.6,639.2 497.4,639.2 508.3,639.2 502.9,648.6 "/>
<polygon id="XMLID_5176_" class="st5" points="497.4,788.5 492,779 486.6,769.6 497.4,769.6 508.3,769.6 502.9,779 "/>
<polygon id="XMLID_5175_" class="st5" points="497.4,917.2 492,907.8 486.6,898.4 497.4,898.4 508.3,898.4 502.9,907.8 "/>
<polygon id="XMLID_5174_" class="st5" points="210.6,610.3 205.2,600.9 199.7,591.5 210.6,591.5 221.5,591.5 216,600.9 "/>
<polygon id="XMLID_5173_" class="st5" points="210.6,713.7 216,723.1 221.5,732.6 210.6,732.6 199.7,732.6 205.2,723.1 "/>
<line id="XMLID_5172_" class="st0" x1="210.6" y1="506.3" x2="210.6" y2="607.6"/>
<polyline id="XMLID_5171_" class="st0" points="210.6,723.1 210.6,967.7 387.4,967.7 "/>
<polyline id="XMLID_5170_" class="st0" points="322.3,662.2 354.5,662.2 354.5,50.7 387.4,50.7 "/>
<line id="XMLID_5169_" class="st0" x1="616.1" y1="184.4" x2="656.3" y2="184.4"/>
<polyline id="XMLID_5168_" class="st0" points="620.1,51.2 775.4,51.2 775.4,120.8 "/>
</svg>
