<?xml version="1.0" encoding="utf-8"?>
<!-- Generator: Adobe Illustrator 21.0.2, SVG Export Plug-In . SVG Version: 6.00 Build 0)  -->
<svg version="1.1" id="Layer_1" xmlns="http://www.w3.org/2000/svg" xmlns:xlink="http://www.w3.org/1999/xlink" x="0px" y="0px"
	 viewBox="0 0 998.6 756.6" style="enable-background:new 0 0 998.6 756.6;" xml:space="preserve">
<style type="text/css">
	.st0{fill:none;stroke:#E42527;stroke-width:4;stroke-miterlimit:10;}
	.st1{fill:#929191;}
	.st2{fill:#9D9D9C;}
	.st3{fill:#FFFFFF;}
	.st4{fill:#E42527;}
</style>
<polyline id="XMLID_1787_" class="st0" points="210.6,475.5 210.6,50 354.5,50 387.5,50 "/>
<line id="XMLID_2145_" class="st0" x1="497.5" y1="88.6" x2="497.5" y2="731.8"/>
<rect id="XMLID_1880_" x="99" y="396.1" class="st1" width="223.3" height="101.1"/>
<rect id="XMLID_1879_" x="387.5" y="0" class="st2" width="223.3" height="101.1"/>
<rect id="XMLID_1878_" x="663.7" y="131.1" class="st2" width="236.3" height="101.1"/>
<g id="XMLID_10217_">
	<g>
		<path id="XMLID_296_" class="st3" d="M135.5,448.2l2.7-6.8h3.1l-4.8,11.1h-2.2l-4.7-11.1h3.1L135.5,448.2z"/>
		<path id="XMLID_294_" class="st3" d="M145,443.9v1.9h3.3v2.5H145v1.9h3.4v2.5h-6.3v-11.1h6.3v2.5H145z"/>
		<path id="XMLID_292_" class="st3" d="M150.2,441.5h2.9l5.3,6.8h0v-6.8h2.9v11.1h-2.9l-5.3-6.8h0v6.8h-2.9V441.5z"/>
		<path id="XMLID_290_" class="st3" d="M167.7,452.6h-2.9v-8.7h-2.4v-2.5h7.7v2.5h-2.4V452.6z"/>
		<path id="XMLID_287_" class="st3" d="M173.1,450.7l-0.8,1.9h-3.1l4.3-11.1h3.2l4.2,11.1h-3.1l-0.7-1.9H173.1z M175.1,444.9
			L175.1,444.9l-1.2,3.5h2.4L175.1,444.9z"/>
		<path id="XMLID_285_" class="st3" d="M181.7,441.5h2.9l5.3,6.8h0v-6.8h2.9v11.1H190l-5.3-6.8h0v6.8h-2.9V441.5z"/>
		<path id="XMLID_283_" class="st3" d="M197.6,452.6h-2.9v-11.1h2.9V452.6z"/>
		<path id="XMLID_281_" class="st3" d="M202.4,450.2h3.5v2.5h-6.4v-11.1h2.9V450.2z"/>
		<path id="XMLID_279_" class="st3" d="M209.7,450.2h3.5v2.5h-6.4v-11.1h2.9V450.2z"/>
		<path id="XMLID_276_" class="st3" d="M217,450.7l-0.8,1.9h-3.1l4.3-11.1h3.2l4.2,11.1h-3.1l-0.7-1.9H217z M219,444.9L219,444.9
			l-1.2,3.5h2.4L219,444.9z"/>
		<path id="XMLID_273_" class="st3" d="M240.4,441.5v6.3c0,1.4-0.1,2.8-1.2,3.9c-0.9,0.9-2.4,1.2-3.7,1.2c-1.3,0-2.8-0.3-3.7-1.2
			c-1.1-1.1-1.2-2.5-1.2-3.9v-6.3h2.9v5.9c0,1.4,0.1,3,2,3c1.9,0,2-1.6,2-3v-5.9H240.4z M235.2,440.8l-1.2-0.9l2.1-2.5l1.6,1.2
			L235.2,440.8z"/>
		<path id="XMLID_271_" class="st3" d="M242.2,441.5h2.9l5.3,6.8h0v-6.8h2.9v11.1h-2.9l-5.3-6.8h0v6.8h-2.9V441.5z"/>
		<path id="XMLID_269_" class="st3" d="M258.1,452.6h-2.9v-11.1h2.9V452.6z"/>
		<path id="XMLID_267_" class="st3" d="M268,445.2c-0.6-0.8-1.6-1.2-2.5-1.2c-1.8,0-3,1.4-3,3.1c0,1.8,1.2,3,3,3
			c0.9,0,1.9-0.5,2.5-1.2v3.5c-1,0.3-1.7,0.5-2.6,0.5c-1.6,0-3-0.6-4.2-1.6c-1.2-1.1-1.8-2.6-1.8-4.2c0-1.5,0.6-3,1.6-4.1
			c1.1-1.1,2.7-1.8,4.2-1.8c0.9,0,1.8,0.2,2.6,0.6V445.2z"/>
		<path id="XMLID_264_" class="st3" d="M272.6,450.7l-0.8,1.9h-3.1l4.3-11.1h3.2l4.2,11.1h-3.1l-0.7-1.9H272.6z M274.6,444.9
			L274.6,444.9l-1.2,3.5h2.4L274.6,444.9z"/>
	</g>
</g>
<g id="XMLID_10156_">
	<g>
		<path id="XMLID_597_" class="st3" d="M459.4,33.7l-0.8,1.9h-3.1l4.3-11.1h3.2l4.2,11.1h-3.1l-0.7-1.9H459.4z M461.4,28L461.4,28
			l-1.2,3.5h2.4L461.4,28z"/>
		<path id="XMLID_593_" class="st3" d="M468.1,35.7V24.5h4.1c2,0,3.3,0.8,3.3,2.9c0,1-0.3,1.8-1.2,2.3v0c1.6,0.2,2.3,1.3,2.3,2.8
			c0,2.3-2,3.1-4,3.1H468.1z M470.9,28.9h0.3c0.8,0,1.6-0.1,1.6-1.1c0-1-0.9-1.1-1.7-1.1h-0.2V28.9z M470.9,33.5h0.4
			c0.9,0,2.3,0,2.3-1.2c0-1.3-1.4-1.2-2.4-1.2h-0.3V33.5z"/>
		<path id="XMLID_590_" class="st3" d="M489.8,29.9c0,3.6-2.6,6.1-6.2,6.1c-3.6,0-6.2-2.5-6.2-6.1c0-3.4,3-5.7,6.2-5.7
			C486.8,24.2,489.8,26.5,489.8,29.9z M480.5,29.9c0,1.9,1.4,3.3,3.1,3.3c1.7,0,3.1-1.4,3.1-3.3c0-1.5-1.4-2.9-3.1-2.9
			C481.9,27,480.5,28.4,480.5,29.9z"/>
		<path id="XMLID_588_" class="st3" d="M502.2,29.5c0,1.6-0.1,3-1.1,4.4c-1.1,1.5-2.7,2.2-4.6,2.2c-3.5,0-5.9-2.4-5.9-5.9
			c0-3.6,2.5-6,6-6c2.3,0,4.1,1,5,3.1l-2.7,1.2c-0.4-1.1-1.2-1.8-2.4-1.8c-1.9,0-2.9,1.8-2.9,3.5c0,1.7,1,3.5,2.9,3.5
			c1.3,0,2.2-0.6,2.3-1.9h-2.4v-2.3H502.2z"/>
		<path id="XMLID_585_" class="st3" d="M506.4,33.7l-0.8,1.9h-3.1l4.3-11.1h3.2l4.2,11.1h-3.1l-0.7-1.9H506.4z M508.4,28L508.4,28
			l-1.2,3.5h2.4L508.4,28z"/>
		<path id="XMLID_582_" class="st3" d="M515.1,24.5h4.1c3.1,0,5.7,2.4,5.7,5.6c0,3.1-2.6,5.6-5.7,5.6h-4.1V24.5z M518,33.2h0.6
			c1.7,0,3.2-0.9,3.2-3.1c0-2-1.3-3.1-3.2-3.1H518V33.2z"/>
		<path id="XMLID_579_" class="st3" d="M538,29.9c0,3.6-2.6,6.1-6.2,6.1s-6.2-2.5-6.2-6.1c0-3.4,3-5.7,6.2-5.7S538,26.5,538,29.9z
			 M528.7,29.9c0,1.9,1.4,3.3,3.1,3.3c1.7,0,3.1-1.4,3.1-3.3c0-1.5-1.4-2.9-3.1-2.9C530.1,27,528.7,28.4,528.7,29.9z"/>
		<path id="XMLID_577_" class="st3" d="M461.3,42.3v6.3c0,1.4-0.1,2.8-1.2,3.9c-0.9,0.9-2.4,1.2-3.7,1.2c-1.3,0-2.8-0.3-3.7-1.2
			c-1.1-1.1-1.2-2.5-1.2-3.9v-6.3h2.9v5.9c0,1.4,0.1,3,2,3c1.9,0,2-1.6,2-3v-5.9H461.3z"/>
		<path id="XMLID_574_" class="st3" d="M472.4,53.4h-3.6l-2.7-4.3h0v4.3h-2.9V42.3h4.3c2.2,0,3.9,1,3.9,3.4c0,1.5-0.9,2.9-2.4,3.1
			L472.4,53.4z M466.1,47.3h0.3c0.9,0,2-0.2,2-1.4c0-1.2-1.1-1.4-2-1.4h-0.3V47.3z"/>
		<path id="XMLID_570_" class="st3" d="M473.2,53.4V42.3h4.1c2,0,3.3,0.8,3.3,2.9c0,1-0.3,1.8-1.2,2.3v0c1.6,0.2,2.3,1.3,2.3,2.8
			c0,2.3-2,3.1-4,3.1H473.2z M476.1,46.6h0.3c0.8,0,1.6-0.1,1.6-1.1c0-1-0.9-1.1-1.7-1.1h-0.2V46.6z M476.1,51.2h0.4
			c0.9,0,2.3,0,2.3-1.2c0-1.3-1.4-1.2-2.4-1.2h-0.3V51.2z"/>
		<path id="XMLID_567_" class="st3" d="M486,51.5l-0.8,1.9h-3.1l4.3-11.1h3.2l4.2,11.1h-3.1l-0.7-1.9H486z M488.1,45.7L488.1,45.7
			l-1.2,3.5h2.4L488.1,45.7z"/>
		<path id="XMLID_565_" class="st3" d="M494.7,42.3h2.9l5.3,6.8h0v-6.8h2.9v11.1h-2.9l-5.3-6.8h0v6.8h-2.9V42.3z"/>
		<path id="XMLID_563_" class="st3" d="M510.6,53.4h-2.9V42.3h2.9V53.4z"/>
		<path id="XMLID_547_" class="st3" d="M518.6,45.1c-0.5-0.4-1.2-0.7-1.9-0.7c-0.5,0-1.2,0.3-1.2,0.9c0,0.6,0.8,0.9,1.3,1.1l0.7,0.2
			c1.5,0.5,2.7,1.2,2.7,3c0,1.1-0.3,2.2-1.2,3c-0.9,0.7-2,1-3.2,1c-1.4,0-2.8-0.5-3.9-1.3l1.2-2.3c0.7,0.6,1.6,1.2,2.6,1.2
			c0.7,0,1.4-0.3,1.4-1.1c0-0.8-1.1-1.1-1.8-1.3c-1.8-0.5-3-1-3-3.1c0-2.3,1.6-3.7,3.8-3.7c1.1,0,2.5,0.4,3.5,0.9L518.6,45.1z"/>
		<path id="XMLID_545_" class="st3" d="M522.8,42.3h2.8l2.3,6l2.4-6h2.9l1.7,11.1H532l-0.8-6.4h0l-2.7,6.4h-1.2l-2.6-6.4h0l-0.9,6.4
			h-2.9L522.8,42.3z"/>
		<path id="XMLID_542_" class="st3" d="M547.9,47.6c0,3.6-2.6,6.1-6.2,6.1c-3.6,0-6.2-2.5-6.2-6.1c0-3.4,3-5.7,6.2-5.7
			C544.9,41.9,547.9,44.3,547.9,47.6z M538.6,47.6c0,1.9,1.4,3.3,3.1,3.3c1.7,0,3.1-1.4,3.1-3.3c0-1.5-1.4-2.9-3.1-2.9
			C540,44.7,538.6,46.1,538.6,47.6z"/>
		<path id="XMLID_540_" class="st3" d="M473.2,71.1h-2.9V60h2.9V71.1z"/>
		<path id="XMLID_538_" class="st3" d="M477.7,64.5L477.7,64.5c0.7-0.9,1.4-1.2,2.5-1.2c2,0,2.8,1.3,2.8,3.1v4.7h-2.7v-3.7
			c0-0.7,0.1-2-1.2-2c-1.1,0-1.4,0.8-1.4,1.8v3.9H475v-7.6h2.7V64.5z"/>
		<path id="XMLID_536_" class="st3" d="M487.7,71.1H485v-5.4h-0.9v-2.2h0.9v-1c0-1,0-1.8,0.8-2.7c0.7-0.8,1.6-1.2,2.6-1.2
			c0.4,0,0.8,0.1,1.2,0.3v2.3c-0.3-0.1-0.6-0.3-0.9-0.3c-0.7,0-0.9,0.4-0.9,1.3v1.2h1.9v2.2h-1.9V71.1z"/>
		<path id="XMLID_533_" class="st3" d="M499.1,67.3c0,2.6-2.1,4-4.6,4c-2.4,0-4.6-1.4-4.6-4c0-2.6,2.1-4,4.6-4
			C496.9,63.3,499.1,64.7,499.1,67.3z M492.8,67.3c0,1,0.6,1.7,1.7,1.7c1.1,0,1.7-0.7,1.7-1.7c0-0.9-0.6-1.7-1.7-1.7
			C493.4,65.6,492.8,66.4,492.8,67.3z"/>
		<path id="XMLID_531_" class="st3" d="M502.9,64.8L502.9,64.8c0.5-0.9,1.4-1.3,2.5-1.3h0.5V66c-0.4-0.2-0.7-0.3-1.1-0.3
			c-1.5,0-1.9,1-1.9,2.3v3.1h-2.7v-7.6h2.7V64.8z"/>
		<path id="XMLID_529_" class="st3" d="M509.6,64.5L509.6,64.5c0.7-0.8,1.4-1.2,2.4-1.2c1.1,0,2,0.4,2.6,1.4
			c0.5-0.9,1.5-1.4,2.6-1.4c1.9,0,2.6,1.3,2.6,3v4.8h-2.7v-3.6c0-0.8,0-2.1-1.1-2.1c-1.2,0-1.3,1.2-1.3,2.1v3.6H512v-3.6
			c0-0.8,0-2.1-1.2-2.1c-1.2,0-1.2,1.3-1.2,2.1v3.6h-2.7v-7.6h2.7V64.5z"/>
		<path id="XMLID_526_" class="st3" d="M529.3,67.8h-5.7c0,1.1,0.6,1.7,1.7,1.7c0.6,0,1-0.2,1.3-0.7h2.6c-0.2,0.9-0.7,1.5-1.4,2
			c-0.7,0.4-1.6,0.6-2.4,0.6c-2.5,0-4.4-1.4-4.4-4c0-2.5,1.7-4,4.2-4c2.6,0,4.1,1.6,4.1,4.2V67.8z M526.8,66.2
			c-0.1-0.7-0.8-1.2-1.5-1.2c-0.8,0-1.4,0.4-1.6,1.2H526.8z"/>
	</g>
</g>
<g id="XMLID_10096_">
	<g>
		<path id="XMLID_560_" class="st3" d="M720.5,169.2c-0.6-0.8-1.6-1.2-2.5-1.2c-1.8,0-3,1.4-3,3.1c0,1.8,1.2,3,3,3
			c0.9,0,1.9-0.5,2.5-1.2v3.5c-1,0.3-1.7,0.5-2.6,0.5c-1.6,0-3-0.6-4.2-1.6c-1.2-1.1-1.8-2.6-1.8-4.2c0-1.5,0.6-3,1.6-4.1
			c1.1-1.1,2.7-1.8,4.2-1.8c0.9,0,1.8,0.2,2.6,0.6V169.2z"/>
		<path id="XMLID_557_" class="st3" d="M734,170.8c0,3.6-2.6,6.1-6.2,6.1c-3.6,0-6.2-2.5-6.2-6.1c0-3.4,3-5.7,6.2-5.7
			C731.1,165.1,734,167.5,734,170.8z M724.7,170.9c0,1.9,1.4,3.3,3.1,3.3c1.7,0,3.1-1.4,3.1-3.3c0-1.5-1.4-2.9-3.1-2.9
			C726.1,167.9,724.7,169.3,724.7,170.9z"/>
		<path id="XMLID_555_" class="st3" d="M735.4,165.5h2.9l5.3,6.8h0v-6.8h2.9v11.1h-2.9l-5.3-6.8h0v6.8h-2.9V165.5z"/>
		<path id="XMLID_553_" class="st3" d="M752.8,176.6h-2.9v-8.7h-2.4v-2.5h7.7v2.5h-2.4V176.6z"/>
		<path id="XMLID_550_" class="st3" d="M765.5,176.6h-3.6l-2.7-4.3h0v4.3h-2.9v-11.1h4.3c2.2,0,3.9,1,3.9,3.4c0,1.5-0.9,2.9-2.4,3.1
			L765.5,176.6z M759.1,170.5h0.3c0.9,0,2-0.2,2-1.4c0-1.2-1.1-1.4-2-1.4h-0.3V170.5z"/>
		<path id="XMLID_548_" class="st3" d="M769.2,176.6h-2.9v-11.1h2.9V176.6z"/>
		<path id="XMLID_515_" class="st3" d="M771.1,176.6v-11.1h4.1c2,0,3.3,0.8,3.3,2.9c0,1-0.3,1.8-1.2,2.3v0c1.6,0.2,2.3,1.3,2.3,2.8
			c0,2.3-2,3.1-4,3.1H771.1z M773.9,169.9h0.3c0.8,0,1.6-0.1,1.6-1.1c0-1-0.9-1.1-1.7-1.1h-0.2V169.9z M773.9,174.4h0.4
			c0.9,0,2.3,0,2.3-1.2c0-1.3-1.4-1.2-2.4-1.2h-0.3V174.4z"/>
		<path id="XMLID_513_" class="st3" d="M790.7,165.5v6.3c0,1.4-0.1,2.8-1.2,3.9c-0.9,0.9-2.4,1.2-3.7,1.2s-2.8-0.3-3.7-1.2
			c-1.1-1.1-1.2-2.5-1.2-3.9v-6.3h2.9v5.9c0,1.4,0.1,3,2,3c1.9,0,2-1.6,2-3v-5.9H790.7z"/>
		<path id="XMLID_511_" class="st3" d="M791.3,165.5h3.5l2.1,3l2.1-3h3.5l-4.1,5.8v5.3h-2.9v-5.3L791.3,165.5z"/>
		<path id="XMLID_509_" class="st3" d="M806,167.9v1.9h3.3v2.5H806v1.9h3.4v2.5h-6.3v-11.1h6.3v2.5H806z"/>
		<path id="XMLID_507_" class="st3" d="M811.2,165.5h2.9l5.3,6.8h0v-6.8h2.9v11.1h-2.9l-5.3-6.8h0v6.8h-2.9V165.5z"/>
		<path id="XMLID_505_" class="st3" d="M828.6,176.6h-2.9v-8.7h-2.4v-2.5h7.7v2.5h-2.4V176.6z"/>
		<path id="XMLID_503_" class="st3" d="M835,167.9v1.9h3.3v2.5H835v1.9h3.4v2.5h-6.3v-11.1h6.3v2.5H835z"/>
		<path id="XMLID_501_" class="st3" d="M735.9,186.9c-0.6-0.8-1.6-1.2-2.5-1.2c-1.8,0-3,1.4-3,3.1c0,1.8,1.2,3,3,3
			c0.9,0,1.9-0.5,2.5-1.2v3.5c-1,0.3-1.7,0.5-2.6,0.5c-1.6,0-3-0.6-4.2-1.6c-1.2-1.1-1.8-2.6-1.8-4.2c0-1.5,0.6-3,1.6-4.1
			c1.1-1.1,2.7-1.8,4.2-1.8c0.9,0,1.8,0.2,2.6,0.6V186.9z"/>
		<path id="XMLID_498_" class="st3" d="M746.2,190.6c0,2.6-2.1,4-4.6,4c-2.4,0-4.6-1.4-4.6-4c0-2.6,2.1-4,4.6-4
			C744.1,186.5,746.2,188,746.2,190.6z M739.9,190.6c0,1,0.6,1.7,1.7,1.7c1.1,0,1.7-0.7,1.7-1.7c0-0.9-0.6-1.7-1.7-1.7
			C740.6,188.8,739.9,189.6,739.9,190.6z"/>
		<path id="XMLID_496_" class="st3" d="M750.1,188L750.1,188c0.5-0.9,1.4-1.3,2.5-1.3h0.5v2.6c-0.4-0.2-0.7-0.3-1.1-0.3
			c-1.5,0-1.9,1-1.9,2.3v3.1h-2.7v-7.6h2.7V188z"/>
		<path id="XMLID_494_" class="st3" d="M756.8,188L756.8,188c0.5-0.9,1.4-1.3,2.5-1.3h0.5v2.6c-0.4-0.2-0.7-0.3-1.1-0.3
			c-1.5,0-1.9,1-1.9,2.3v3.1h-2.7v-7.6h2.7V188z"/>
		<path id="XMLID_491_" class="st3" d="M768.6,191h-5.7c0,1.1,0.6,1.7,1.7,1.7c0.6,0,1-0.2,1.3-0.7h2.6c-0.2,0.9-0.7,1.5-1.4,2
			c-0.7,0.4-1.5,0.6-2.4,0.6c-2.5,0-4.4-1.4-4.4-4c0-2.5,1.7-4,4.2-4c2.6,0,4.1,1.6,4.1,4.2V191z M766.1,189.4
			c-0.1-0.7-0.8-1.2-1.5-1.2c-0.8,0-1.4,0.4-1.6,1.2H766.1z"/>
		<path id="XMLID_489_" class="st3" d="M775.3,189.2c-0.4-0.3-0.9-0.5-1.4-0.5c-1,0-1.8,0.8-1.8,1.8c0,1.1,0.8,1.9,1.9,1.9
			c0.5,0,1-0.2,1.3-0.5v2.3c-0.6,0.3-1.2,0.4-1.9,0.4c-2.2,0-4.1-1.7-4.1-4c0-2.4,1.9-4.1,4.2-4.1c0.6,0,1.2,0.1,1.8,0.4V189.2z"/>
		<path id="XMLID_487_" class="st3" d="M782.4,189.2c-0.4-0.3-0.9-0.5-1.4-0.5c-1,0-1.8,0.8-1.8,1.8c0,1.1,0.8,1.9,1.9,1.9
			c0.5,0,1-0.2,1.3-0.5v2.3c-0.6,0.3-1.2,0.4-1.9,0.4c-2.2,0-4.1-1.7-4.1-4c0-2.4,1.9-4.1,4.2-4.1c0.6,0,1.2,0.1,1.8,0.4V189.2z"/>
		<path id="XMLID_484_" class="st3" d="M786.9,183.8c0,0.8-0.7,1.5-1.5,1.5c-0.8,0-1.5-0.7-1.5-1.5c0-0.8,0.7-1.5,1.5-1.5
			C786.3,182.3,786.9,183,786.9,183.8z M786.8,194.3h-2.7v-7.6h2.7V194.3z"/>
		<path id="XMLID_481_" class="st3" d="M797.1,190.6c0,2.6-2.1,4-4.6,4c-2.4,0-4.6-1.4-4.6-4c0-2.6,2.1-4,4.6-4
			S797.1,188,797.1,190.6z M790.8,190.6c0,1,0.6,1.7,1.7,1.7c1.1,0,1.7-0.7,1.7-1.7c0-0.9-0.6-1.7-1.7-1.7
			C791.5,188.8,790.8,189.6,790.8,190.6z"/>
		<path id="XMLID_479_" class="st3" d="M801,187.7L801,187.7c0.6-0.9,1.4-1.2,2.5-1.2c2,0,2.8,1.3,2.8,3.1v4.7h-2.7v-3.7
			c0-0.7,0.1-2-1.2-2c-1.1,0-1.4,0.8-1.4,1.8v3.9h-2.7v-7.6h2.7V187.7z"/>
		<path id="XMLID_476_" class="st3" d="M815.9,191h-5.7c0,1.1,0.6,1.7,1.7,1.7c0.6,0,1-0.2,1.3-0.7h2.6c-0.2,0.9-0.7,1.5-1.4,2
			c-0.7,0.4-1.5,0.6-2.4,0.6c-2.5,0-4.4-1.4-4.4-4c0-2.5,1.7-4,4.2-4c2.6,0,4.1,1.6,4.1,4.2V191z M813.4,189.4
			c-0.1-0.7-0.8-1.2-1.5-1.2c-0.8,0-1.4,0.4-1.6,1.2H813.4z"/>
		<path id="XMLID_474_" class="st3" d="M822.1,188.7c-0.4-0.2-1-0.4-1.4-0.4c-0.3,0-0.8,0.1-0.8,0.5c0,0.5,0.8,0.6,1.2,0.7
			c1.3,0.3,2.2,0.8,2.2,2.2c0,2-1.8,2.8-3.6,2.8c-1.1,0-2.1-0.3-3.1-0.9l1-1.9c0.5,0.4,1.5,0.8,2.1,0.8c0.3,0,0.8-0.2,0.8-0.6
			c0-0.6-0.8-0.6-1.7-0.8c-0.8-0.2-1.7-0.6-1.7-2c0-1.9,1.7-2.7,3.3-2.7c0.9,0,1.7,0.1,2.5,0.5L822.1,188.7z"/>
	</g>
</g>
<rect id="XMLID_1873_" x="387.5" y="131.1" class="st2" width="223.3" height="101.1"/>
<g id="XMLID_10020_">
	<g>
		<path id="XMLID_780_" class="st3" d="M453.8,178.4h-2.9v-8.7h-2.4v-2.5h7.7v2.5h-2.4V178.4z"/>
		<path id="XMLID_777_" class="st3" d="M469,172.6c0,3.6-2.6,6.1-6.2,6.1c-3.6,0-6.2-2.5-6.2-6.1c0-3.4,3-5.7,6.2-5.7
			C466,166.9,469,169.3,469,172.6z M459.7,172.6c0,1.9,1.4,3.3,3.1,3.3c1.7,0,3.1-1.4,3.1-3.3c0-1.5-1.4-2.9-3.1-2.9
			C461.1,169.7,459.7,171.1,459.7,172.6z"/>
		<path id="XMLID_774_" class="st3" d="M470.3,167.3h4.4c2.4,0,4,1.1,4,3.7c0,2.6-1.4,3.8-3.9,3.8h-1.6v3.7h-2.9V167.3z
			 M473.2,172.4h0.5c1,0,2.1,0,2.1-1.4c0-1.4-1-1.4-2.1-1.4h-0.5V172.4z"/>
		<path id="XMLID_771_" class="st3" d="M491.9,172.6c0,3.6-2.6,6.1-6.2,6.1c-3.6,0-6.2-2.5-6.2-6.1c0-3.4,3-5.7,6.2-5.7
			C488.9,166.9,491.9,169.3,491.9,172.6z M482.6,172.6c0,1.9,1.4,3.3,3.1,3.3c1.7,0,3.1-1.4,3.1-3.3c0-1.5-1.4-2.9-3.1-2.9
			C484,169.7,482.6,171.1,482.6,172.6z"/>
		<path id="XMLID_769_" class="st3" d="M504.3,172.2c0,1.6-0.1,3-1.1,4.4c-1.1,1.5-2.7,2.2-4.6,2.2c-3.5,0-5.9-2.4-5.9-5.9
			c0-3.6,2.5-6,6-6c2.3,0,4.1,1,5,3.1l-2.7,1.2c-0.4-1.1-1.2-1.8-2.4-1.8c-1.9,0-2.9,1.8-2.9,3.5c0,1.7,1,3.5,2.9,3.5
			c1.3,0,2.2-0.6,2.3-1.9h-2.4v-2.3H504.3z"/>
		<path id="XMLID_766_" class="st3" d="M514.9,178.4h-3.6l-2.7-4.3h0v4.3h-2.9v-11.1h4.3c2.2,0,3.9,1,3.9,3.4c0,1.5-0.9,2.9-2.4,3.1
			L514.9,178.4z M508.5,172.3h0.3c0.9,0,2-0.2,2-1.4c0-1.2-1.1-1.4-2-1.4h-0.3V172.3z"/>
		<path id="XMLID_763_" class="st3" d="M518.5,176.5l-0.8,1.9h-3.1l4.3-11.1h3.2l4.2,11.1h-3.1l-0.7-1.9H518.5z M520.5,170.7
			L520.5,170.7l-1.2,3.5h2.4L520.5,170.7z"/>
		<path id="XMLID_761_" class="st3" d="M530.1,169.7v1.9h3.2v2.5h-3.2v4.4h-2.9v-11.1h6.4v2.5H530.1z"/>
		<path id="XMLID_759_" class="st3" d="M538.1,178.4h-2.9v-11.1h2.9V178.4z"/>
		<path id="XMLID_756_" class="st3" d="M542.8,176.5l-0.8,1.9H539l4.3-11.1h3.2l4.2,11.1h-3.1l-0.7-1.9H542.8z M544.8,170.7
			L544.8,170.7l-1.2,3.5h2.4L544.8,170.7z"/>
		<path id="XMLID_754_" class="st3" d="M426.1,196.1h-2.9V185h2.9V196.1z"/>
		<path id="XMLID_752_" class="st3" d="M430.6,189.5L430.6,189.5c0.6-0.9,1.4-1.2,2.5-1.2c2,0,2.8,1.3,2.8,3.1v4.7h-2.7v-3.7
			c0-0.7,0.1-2-1.2-2c-1.1,0-1.4,0.8-1.4,1.8v3.9h-2.7v-7.6h2.7V189.5z"/>
		<path id="XMLID_750_" class="st3" d="M442.7,190.5c-0.4-0.2-1-0.4-1.4-0.4c-0.3,0-0.8,0.1-0.8,0.5c0,0.5,0.8,0.6,1.2,0.7
			c1.3,0.3,2.2,0.8,2.2,2.2c0,2-1.8,2.8-3.6,2.8c-1.1,0-2.1-0.3-3.1-0.9l1-1.9c0.5,0.4,1.5,0.8,2.1,0.8c0.3,0,0.8-0.2,0.8-0.6
			c0-0.6-0.8-0.6-1.7-0.8c-0.8-0.2-1.7-0.6-1.7-2c0-1.9,1.7-2.7,3.3-2.7c0.9,0,1.7,0.1,2.5,0.5L442.7,190.5z"/>
		<path id="XMLID_747_" class="st3" d="M447.9,189.4L447.9,189.4c0.5-0.8,1.4-1.1,2.3-1.1c2.3,0,3.8,1.9,3.8,4.1c0,2.2-1.6,4-3.8,4
			c-0.9,0-1.8-0.3-2.3-1v4.5h-2.7v-11.4h2.7V189.4z M447.8,192.3c0,1,0.6,1.7,1.7,1.7c1.1,0,1.7-0.7,1.7-1.7c0-0.9-0.6-1.7-1.7-1.7
			C448.4,190.6,447.8,191.4,447.8,192.3z"/>
		<path id="XMLID_744_" class="st3" d="M463.1,192.8h-5.7c0,1.1,0.6,1.7,1.7,1.7c0.6,0,1-0.2,1.3-0.7h2.6c-0.2,0.9-0.7,1.5-1.4,2
			c-0.7,0.4-1.5,0.6-2.4,0.6c-2.5,0-4.4-1.4-4.4-4c0-2.5,1.7-4,4.2-4c2.6,0,4.1,1.6,4.1,4.2V192.8z M460.6,191.2
			c-0.1-0.7-0.8-1.2-1.5-1.2c-0.8,0-1.4,0.4-1.6,1.2H460.6z"/>
		<path id="XMLID_742_" class="st3" d="M469.8,191c-0.4-0.3-0.9-0.5-1.4-0.5c-1,0-1.8,0.8-1.8,1.8c0,1.1,0.8,1.9,1.9,1.9
			c0.5,0,1-0.2,1.3-0.5v2.3c-0.6,0.3-1.2,0.4-1.9,0.4c-2.2,0-4.1-1.7-4.1-4c0-2.4,1.9-4.1,4.2-4.1c0.6,0,1.2,0.1,1.8,0.4V191z"/>
		<path id="XMLID_740_" class="st3" d="M476.9,191c-0.4-0.3-0.9-0.5-1.4-0.5c-1,0-1.8,0.8-1.8,1.8c0,1.1,0.8,1.9,1.9,1.9
			c0.5,0,1-0.2,1.3-0.5v2.3c-0.6,0.3-1.2,0.4-1.9,0.4c-2.2,0-4.1-1.7-4.1-4c0-2.4,1.9-4.1,4.2-4.1c0.6,0,1.2,0.1,1.8,0.4V191z"/>
		<path id="XMLID_737_" class="st3" d="M481.4,185.6c0,0.8-0.7,1.5-1.5,1.5c-0.8,0-1.5-0.7-1.5-1.5c0-0.8,0.7-1.5,1.5-1.5
			C480.8,184.1,481.4,184.8,481.4,185.6z M481.3,196.1h-2.7v-7.6h2.7V196.1z"/>
		<path id="XMLID_733_" class="st3" d="M491.6,192.3c0,2.6-2.1,4-4.6,4c-2.4,0-4.6-1.4-4.6-4c0-2.6,2.1-4,4.6-4
			C489.5,188.3,491.6,189.7,491.6,192.3z M485.3,192.3c0,1,0.6,1.7,1.7,1.7c1.1,0,1.7-0.7,1.7-1.7c0-0.9-0.6-1.7-1.7-1.7
			C486,190.6,485.3,191.4,485.3,192.3z M486.8,187.4l-1.2-0.9l2.1-2.5l1.6,1.2L486.8,187.4z"/>
		<path id="XMLID_731_" class="st3" d="M495.5,189.5L495.5,189.5c0.7-0.9,1.4-1.2,2.5-1.2c2,0,2.8,1.3,2.8,3.1v4.7h-2.7v-3.7
			c0-0.7,0.1-2-1.2-2c-1.1,0-1.4,0.8-1.4,1.8v3.9h-2.7v-7.6h2.7V189.5z"/>
		<path id="XMLID_729_" class="st3" d="M506.7,190.3v2.2h-4.2v-2.2H506.7z"/>
		<path id="XMLID_727_" class="st3" d="M511.1,189.5L511.1,189.5c0.7-0.8,1.4-1.2,2.4-1.2c1.1,0,2,0.4,2.6,1.4
			c0.5-0.9,1.5-1.4,2.6-1.4c1.9,0,2.6,1.3,2.6,3v4.8h-2.7v-3.6c0-0.8,0-2.1-1.1-2.1c-1.2,0-1.3,1.2-1.3,2.1v3.6h-2.7v-3.6
			c0-0.8,0-2.1-1.2-2.1c-1.2,0-1.2,1.3-1.2,2.1v3.6h-2.7v-7.6h2.7V189.5z"/>
		<path id="XMLID_724_" class="st3" d="M530.8,192.8h-5.7c0,1.1,0.6,1.7,1.7,1.7c0.6,0,1-0.2,1.3-0.7h2.6c-0.2,0.9-0.7,1.5-1.4,2
			c-0.7,0.4-1.6,0.6-2.4,0.6c-2.5,0-4.4-1.4-4.4-4c0-2.5,1.7-4,4.2-4c2.6,0,4.1,1.6,4.1,4.2V192.8z M528.3,191.2
			c-0.1-0.7-0.8-1.2-1.5-1.2c-0.8,0-1.4,0.4-1.6,1.2H528.3z"/>
		<path id="XMLID_721_" class="st3" d="M537.7,195.3L537.7,195.3c-0.5,0.8-1.4,1.1-2.3,1.1c-2.2,0-3.8-1.9-3.8-4s1.6-4,3.8-4
			c0.9,0,1.8,0.3,2.3,1v-5.4h2.7v12.3h-2.7V195.3z M534.3,192.3c0,1,0.6,1.7,1.7,1.7c1.1,0,1.7-0.7,1.7-1.7c0-0.9-0.6-1.7-1.7-1.7
			C534.9,190.6,534.3,191.4,534.3,192.3z"/>
		<path id="XMLID_718_" class="st3" d="M544.9,185.6c0,0.8-0.7,1.5-1.5,1.5c-0.8,0-1.5-0.7-1.5-1.5c0-0.8,0.7-1.5,1.5-1.5
			C544.2,184.1,544.9,184.8,544.9,185.6z M544.7,196.1H542v-7.6h2.7V196.1z"/>
		<path id="XMLID_716_" class="st3" d="M552,191c-0.4-0.3-0.9-0.5-1.4-0.5c-1,0-1.8,0.8-1.8,1.8c0,1.1,0.8,1.9,1.9,1.9
			c0.5,0,1-0.2,1.3-0.5v2.3c-0.6,0.3-1.2,0.4-1.9,0.4c-2.2,0-4.1-1.7-4.1-4c0-2.4,1.9-4.1,4.2-4.1c0.6,0,1.2,0.1,1.8,0.4V191z"/>
		<path id="XMLID_713_" class="st3" d="M556.5,185.6c0,0.8-0.7,1.5-1.5,1.5s-1.5-0.7-1.5-1.5c0-0.8,0.7-1.5,1.5-1.5
			S556.5,184.8,556.5,185.6z M556.3,196.1h-2.7v-7.6h2.7V196.1z"/>
		<path id="XMLID_709_" class="st3" d="M566.7,192.3c0,2.6-2.1,4-4.6,4c-2.4,0-4.6-1.4-4.6-4c0-2.6,2.1-4,4.6-4
			C564.5,188.3,566.7,189.7,566.7,192.3z M560.4,192.3c0,1,0.6,1.7,1.7,1.7c1.1,0,1.7-0.7,1.7-1.7c0-0.9-0.6-1.7-1.7-1.7
			C561,190.6,560.4,191.4,560.4,192.3z M561.8,187.4l-1.2-0.9l2.1-2.5l1.6,1.2L561.8,187.4z"/>
		<path id="XMLID_707_" class="st3" d="M570.6,189.5L570.6,189.5c0.6-0.9,1.4-1.2,2.5-1.2c2,0,2.8,1.3,2.8,3.1v4.7h-2.7v-3.7
			c0-0.7,0.1-2-1.2-2c-1.1,0-1.4,0.8-1.4,1.8v3.9h-2.7v-7.6h2.7V189.5z"/>
	</g>
</g>
<rect id="XMLID_1871_" x="387.5" y="262.2" class="st2" width="223.3" height="101.1"/>
<g id="XMLID_9936_">
	<g>
		<path id="XMLID_996_" class="st3" d="M421.2,310.8l-0.8,1.9h-3.1l4.3-11.1h3.2l4.2,11.1h-3.1l-0.7-1.9H421.2z M423.2,305.1
			L423.2,305.1l-1.2,3.5h2.4L423.2,305.1z"/>
		<path id="XMLID_993_" class="st3" d="M439.1,312.8h-3.6l-2.7-4.3h0v4.3h-2.9v-11.1h4.3c2.2,0,3.9,1,3.9,3.4c0,1.5-0.9,2.9-2.4,3.1
			L439.1,312.8z M432.8,306.6h0.3c0.9,0,2-0.2,2-1.4c0-1.2-1.1-1.4-2-1.4h-0.3V306.6z"/>
		<path id="XMLID_991_" class="st3" d="M442.8,304.1v1.9h3.3v2.5h-3.3v1.9h3.4v2.5h-6.3v-11.1h6.3v2.5H442.8z"/>
		<path id="XMLID_988_" class="st3" d="M450.9,310.8l-0.8,1.9H447l4.3-11.1h3.2l4.2,11.1h-3.1l-0.7-1.9H450.9z M452.9,305.1
			L452.9,305.1l-1.2,3.5h2.4L452.9,305.1z"/>
		<path id="XMLID_986_" class="st3" d="M469.1,312.8h-2.9v-8.7h-2.4v-2.5h7.7v2.5h-2.4V312.8z"/>
		<path id="XMLID_984_" class="st3" d="M475.4,304.1v1.9h3.3v2.5h-3.3v1.9h3.4v2.5h-6.3v-11.1h6.3v2.5H475.4z"/>
		<path id="XMLID_982_" class="st3" d="M488.6,305.4c-0.6-0.8-1.6-1.2-2.5-1.2c-1.8,0-3,1.4-3,3.1c0,1.8,1.2,3,3,3
			c0.9,0,1.9-0.5,2.5-1.2v3.5c-1,0.3-1.7,0.5-2.6,0.5c-1.6,0-3-0.6-4.2-1.6c-1.2-1.1-1.8-2.6-1.8-4.2c0-1.5,0.6-3,1.6-4.1
			c1.1-1.1,2.7-1.8,4.2-1.8c0.9,0,1.8,0.2,2.6,0.6V305.4z"/>
		<path id="XMLID_980_" class="st3" d="M490.4,301.6h2.9l5.3,6.8h0v-6.8h2.9v11.1h-2.9l-5.3-6.8h0v6.8h-2.9V301.6z"/>
		<path id="XMLID_978_" class="st3" d="M506.3,312.8h-2.9v-11.1h2.9V312.8z"/>
		<path id="XMLID_976_" class="st3" d="M516.1,305.4c-0.6-0.8-1.6-1.2-2.5-1.2c-1.8,0-3,1.4-3,3.1c0,1.8,1.2,3,3,3
			c0.9,0,1.9-0.5,2.5-1.2v3.5c-1,0.3-1.7,0.5-2.6,0.5c-1.6,0-3-0.6-4.2-1.6c-1.2-1.1-1.8-2.6-1.8-4.2c0-1.5,0.6-3,1.6-4.1
			c1.1-1.1,2.7-1.8,4.2-1.8c0.9,0,1.8,0.2,2.6,0.6V305.4z"/>
		<path id="XMLID_973_" class="st3" d="M529.7,307c0,3.6-2.6,6.1-6.2,6.1c-3.6,0-6.2-2.5-6.2-6.1c0-3.4,3-5.7,6.2-5.7
			C526.7,301.3,529.7,303.6,529.7,307z M520.3,307c0,1.9,1.4,3.3,3.1,3.3c1.7,0,3.1-1.4,3.1-3.3c0-1.5-1.4-2.9-3.1-2.9
			C521.8,304.1,520.3,305.5,520.3,307z"/>
		<path id="XMLID_971_" class="st3" d="M537.1,304.5c-0.5-0.4-1.2-0.7-1.9-0.7c-0.5,0-1.2,0.3-1.2,0.9c0,0.6,0.8,0.9,1.3,1.1
			l0.7,0.2c1.6,0.5,2.7,1.2,2.7,3c0,1.1-0.3,2.2-1.2,3c-0.9,0.7-2,1-3.2,1c-1.4,0-2.8-0.5-3.9-1.3l1.2-2.3c0.7,0.6,1.6,1.2,2.6,1.2
			c0.7,0,1.4-0.3,1.4-1.1c0-0.8-1.1-1.1-1.8-1.3c-1.8-0.5-3-1-3-3.1c0-2.3,1.6-3.7,3.8-3.7c1.1,0,2.5,0.4,3.5,0.9L537.1,304.5z"/>
		<path id="XMLID_969_" class="st3" d="M547.3,300.5l-5.6,13.6h-2.1l5.6-13.6H547.3z"/>
		<path id="XMLID_966_" class="st3" d="M551.5,310.8l-0.8,1.9h-3.1l4.3-11.1h3.2l4.2,11.1h-3.1l-0.7-1.9H551.5z M553.5,305.1
			L553.5,305.1l-1.2,3.5h2.4L553.5,305.1z"/>
		<path id="XMLID_963_" class="st3" d="M569.4,312.8h-3.6l-2.7-4.3h0v4.3h-2.9v-11.1h4.3c2.2,0,3.9,1,3.9,3.4c0,1.5-0.9,2.9-2.4,3.1
			L569.4,312.8z M563.1,306.6h0.3c0.9,0,2-0.2,2-1.4c0-1.2-1.1-1.4-2-1.4h-0.3V306.6z"/>
		<path id="XMLID_960_" class="st3" d="M579.7,313.5l-0.9-1c-0.9,0.5-1.9,0.7-3.1,0.7c-3.6,0-6.2-2.5-6.2-6.1c0-3.4,3-5.7,6.2-5.7
			c3.5,0,6.2,2.3,6.2,6c0,1.5-0.5,2.8-1.4,3.9l1.9,1.9L579.7,313.5z M578.4,308.9c0.3-0.5,0.5-1.1,0.5-1.6c0-1.7-1.4-3.2-3.1-3.2
			c-1.7,0-3.2,1.4-3.2,2.9c0,1.9,1.4,3.3,3.2,3.3c0.3,0,0.6,0,0.9-0.1l-1.8-1.8l2.7-0.3L578.4,308.9z"/>
		<path id="XMLID_958_" class="st3" d="M431.3,326.1l2.7-6.8h3.1l-4.8,11.1h-2.2l-4.7-11.1h3.1L431.3,326.1z"/>
		<path id="XMLID_955_" class="st3" d="M445,330.5h-2.7v-0.8h0c-0.5,0.8-1.4,1.1-2.3,1.1c-2.2,0-3.8-1.9-3.8-4c0-2.2,1.6-4,3.8-4
			c0.9,0,1.8,0.3,2.3,1v-0.7h2.7V330.5z M438.9,326.7c0,1,0.6,1.7,1.7,1.7c1.1,0,1.7-0.7,1.7-1.7c0-0.9-0.6-1.7-1.7-1.7
			C439.5,325,438.9,325.8,438.9,326.7z"/>
		<path id="XMLID_953_" class="st3" d="M449.4,330.5h-2.7v-12.3h2.7V330.5z"/>
		<path id="XMLID_950_" class="st3" d="M459.8,326.7c0,2.6-2.1,4-4.6,4c-2.4,0-4.6-1.4-4.6-4c0-2.6,2.1-4,4.6-4
			C457.6,322.7,459.8,324.1,459.8,326.7z M453.5,326.7c0,1,0.6,1.7,1.7,1.7c1.1,0,1.7-0.7,1.7-1.7c0-0.9-0.6-1.7-1.7-1.7
			C454.1,325,453.5,325.8,453.5,326.7z"/>
		<path id="XMLID_947_" class="st3" d="M463.7,324.2L463.7,324.2c0.5-0.9,1.4-1.3,2.5-1.3h0.5v2.6c-0.4-0.2-0.7-0.3-1.1-0.3
			c-1.5,0-1.9,1-1.9,2.3v3.1H461v-7.6h2.7V324.2z"/>
		<path id="XMLID_944_" class="st3" d="M476,330.5h-2.7v-0.8h0c-0.5,0.8-1.4,1.1-2.3,1.1c-2.2,0-3.8-1.9-3.8-4c0-2.2,1.5-4,3.8-4
			c0.9,0,1.8,0.3,2.3,1v-0.7h2.7V330.5z M469.9,326.7c0,1,0.6,1.7,1.7,1.7c1.1,0,1.7-0.7,1.7-1.7c0-0.9-0.6-1.7-1.7-1.7
			C470.5,325,469.9,325.8,469.9,326.7z"/>
		<path id="XMLID_942_" class="st3" d="M483.2,325.4c-0.4-0.3-0.9-0.5-1.4-0.5c-1,0-1.8,0.8-1.8,1.8c0,1.1,0.8,1.9,1.9,1.9
			c0.5,0,1-0.2,1.3-0.5v2.3c-0.6,0.3-1.2,0.4-1.9,0.4c-2.2,0-4.1-1.7-4.1-4c0-2.4,1.9-4.1,4.2-4.1c0.6,0,1.2,0.1,1.8,0.4V325.4z"/>
		<path id="XMLID_939_" class="st3" d="M487.7,320c0,0.8-0.7,1.5-1.5,1.5c-0.8,0-1.5-0.7-1.5-1.5c0-0.8,0.7-1.5,1.5-1.5
			C487,318.5,487.7,319.2,487.7,320z M487.6,330.5h-2.7v-7.6h2.7V330.5z"/>
		<path id="XMLID_934_" class="st3" d="M497.9,326.7c0,2.6-2.1,4-4.6,4c-2.4,0-4.6-1.4-4.6-4c0-2.6,2.1-4,4.6-4
			C495.8,322.7,497.9,324.1,497.9,326.7z M491.6,326.7c0,1,0.6,1.7,1.7,1.7c1.1,0,1.7-0.7,1.7-1.7c0-0.9-0.6-1.7-1.7-1.7
			C492.2,325,491.6,325.8,491.6,326.7z M493,321.8l-1.2-0.9l2.1-2.5l1.6,1.2L493,321.8z"/>
		<path id="XMLID_932_" class="st3" d="M501.8,323.9L501.8,323.9c0.6-0.9,1.4-1.2,2.5-1.2c2,0,2.8,1.3,2.8,3.1v4.7h-2.7v-3.7
			c0-0.7,0.1-2-1.2-2c-1.1,0-1.4,0.8-1.4,1.8v3.9h-2.7v-7.6h2.7V323.9z"/>
		<path id="XMLID_930_" class="st3" d="M513,324.6v2.2h-4.2v-2.2H513z"/>
		<path id="XMLID_928_" class="st3" d="M517.6,330.5h-2.9v-11.1h2.9V330.5z"/>
		<path id="XMLID_919_" class="st3" d="M522.1,323.9L522.1,323.9c0.6-0.9,1.4-1.2,2.5-1.2c2,0,2.8,1.3,2.8,3.1v4.7h-2.7v-3.7
			c0-0.7,0.1-2-1.2-2c-1.1,0-1.4,0.8-1.4,1.8v3.9h-2.7v-7.6h2.7V323.9z"/>
		<path id="XMLID_917_" class="st3" d="M532.1,330.5h-2.7v-5.4h-0.9v-2.2h0.9v-1c0-1,0-1.8,0.8-2.7c0.7-0.8,1.6-1.2,2.6-1.2
			c0.4,0,0.8,0.1,1.2,0.3v2.3c-0.3-0.1-0.6-0.3-0.9-0.3c-0.7,0-0.9,0.4-0.9,1.3v1.2h1.9v2.2h-1.9V330.5z"/>
		<path id="XMLID_914_" class="st3" d="M543.5,326.7c0,2.6-2.1,4-4.6,4c-2.4,0-4.6-1.4-4.6-4c0-2.6,2.1-4,4.6-4
			C541.4,322.7,543.5,324.1,543.5,326.7z M537.2,326.7c0,1,0.6,1.7,1.7,1.7c1.1,0,1.7-0.7,1.7-1.7c0-0.9-0.6-1.7-1.7-1.7
			C537.8,325,537.2,325.8,537.2,326.7z"/>
		<path id="XMLID_912_" class="st3" d="M547.4,324.2L547.4,324.2c0.5-0.9,1.4-1.3,2.5-1.3h0.5v2.6c-0.4-0.2-0.7-0.3-1.1-0.3
			c-1.5,0-1.9,1-1.9,2.3v3.1h-2.7v-7.6h2.7V324.2z"/>
		<path id="XMLID_910_" class="st3" d="M554.1,323.9L554.1,323.9c0.7-0.8,1.4-1.2,2.4-1.2c1.1,0,2,0.4,2.6,1.4
			c0.5-0.9,1.5-1.4,2.6-1.4c1.9,0,2.6,1.3,2.6,3v4.8h-2.7v-3.6c0-0.8,0-2.1-1.1-2.1c-1.2,0-1.3,1.2-1.3,2.1v3.6h-2.7v-3.6
			c0-0.8,0-2.1-1.2-2.1c-1.2,0-1.2,1.3-1.2,2.1v3.6h-2.7v-7.6h2.7V323.9z"/>
		<path id="XMLID_907_" class="st3" d="M573.8,327.2h-5.7c0,1.1,0.6,1.7,1.7,1.7c0.6,0,1-0.2,1.3-0.7h2.6c-0.2,0.9-0.7,1.5-1.4,2
			c-0.7,0.4-1.6,0.6-2.4,0.6c-2.5,0-4.4-1.4-4.4-4c0-2.5,1.7-4,4.2-4c2.6,0,4.1,1.6,4.1,4.2V327.2z M571.3,325.6
			c-0.1-0.7-0.8-1.2-1.5-1.2c-0.8,0-1.4,0.4-1.6,1.2H571.3z"/>
	</g>
</g>
<rect id="XMLID_1869_" x="387.5" y="393.3" class="st2" width="223.3" height="101.1"/>
<g id="XMLID_9912_">
	<g>
		<path id="XMLID_184_" class="st3" d="M488.4,436.5c-0.6-0.8-1.6-1.2-2.5-1.2c-1.8,0-3,1.4-3,3.1c0,1.8,1.2,3,3,3
			c0.9,0,1.9-0.5,2.5-1.2v3.5c-1,0.3-1.7,0.5-2.6,0.5c-1.6,0-3-0.6-4.2-1.6c-1.2-1.1-1.8-2.6-1.8-4.2c0-1.5,0.6-3,1.6-4.1
			c1.1-1.1,2.7-1.8,4.2-1.8c0.9,0,1.8,0.2,2.6,0.6V436.5z"/>
		<path id="XMLID_181_" class="st3" d="M493,441.9l-0.8,1.9h-3.1l4.3-11.1h3.2l4.2,11.1h-3.1l-0.7-1.9H493z M495,436.2L495,436.2
			l-1.2,3.5h2.4L495,436.2z"/>
		<path id="XMLID_179_" class="st3" d="M507.1,432.7v7.5c0,2.3-1.2,3.9-3.7,3.9c-1.2,0-2.2-0.6-2.9-1.6l1.7-1.8
			c0.3,0.4,0.8,0.9,1.2,0.9c0.9,0,0.8-1,0.8-1.6v-7.3H507.1z"/>
		<path id="XMLID_176_" class="st3" d="M511.8,441.9l-0.8,1.9h-3.1l4.3-11.1h3.2l4.2,11.1h-3.1l-0.7-1.9H511.8z M513.8,436.2
			L513.8,436.2l-1.2,3.5h2.4L513.8,436.2z"/>
		<path id="XMLID_174_" class="st3" d="M485.5,454.2c-0.6-0.8-1.6-1.2-2.5-1.2c-1.8,0-3,1.4-3,3.1c0,1.8,1.2,3,3,3
			c0.9,0,1.9-0.5,2.5-1.2v3.5c-1,0.3-1.7,0.5-2.6,0.5c-1.6,0-3-0.6-4.2-1.6c-1.2-1.1-1.8-2.6-1.8-4.2c0-1.5,0.6-3,1.6-4.1
			c1.1-1.1,2.7-1.8,4.2-1.8c0.9,0,1.8,0.2,2.6,0.6V454.2z"/>
		<path id="XMLID_171_" class="st3" d="M495.8,457.8c0,2.6-2.1,4-4.6,4c-2.4,0-4.6-1.4-4.6-4c0-2.6,2.1-4,4.6-4
			C493.7,453.8,495.8,455.2,495.8,457.8z M489.5,457.8c0,1,0.6,1.7,1.7,1.7c1.1,0,1.7-0.7,1.7-1.7c0-0.9-0.6-1.7-1.7-1.7
			C490.1,456.1,489.5,456.9,489.5,457.8z"/>
		<path id="XMLID_168_" class="st3" d="M496.9,449.3h2.7v5.4c0.6-0.7,1.5-1,2.3-1c2.2,0,3.8,1.9,3.8,4c0,2.2-1.6,4-3.8,4
			c-0.9,0-1.8-0.3-2.3-1.1h0v0.8h-2.7V449.3z M499.5,457.8c0,1,0.6,1.7,1.7,1.7c1.1,0,1.7-0.7,1.7-1.7c0-0.9-0.6-1.7-1.7-1.7
			C500.2,456.1,499.5,456.9,499.5,457.8z"/>
		<path id="XMLID_166_" class="st3" d="M509.8,455.2L509.8,455.2c0.5-0.9,1.4-1.3,2.5-1.3h0.5v2.6c-0.4-0.2-0.7-0.3-1.1-0.3
			c-1.5,0-1.9,1-1.9,2.3v3.1h-2.7V454h2.7V455.2z"/>
		<path id="XMLID_163_" class="st3" d="M522.1,457.8c0,2.6-2.1,4-4.6,4c-2.4,0-4.6-1.4-4.6-4c0-2.6,2.1-4,4.6-4
			C519.9,453.8,522.1,455.2,522.1,457.8z M515.8,457.8c0,1,0.6,1.7,1.7,1.7c1.1,0,1.7-0.7,1.7-1.7c0-0.9-0.6-1.7-1.7-1.7
			C516.4,456.1,515.8,456.9,515.8,457.8z"/>
	</g>
</g>
<rect id="XMLID_1867_" x="387.5" y="524.4" class="st2" width="223.3" height="101.1"/>
<g id="XMLID_9827_">
	<g>
		<path id="XMLID_1088_" class="st3" d="M439.5,562.2v7.5c0,2.3-1.2,3.9-3.7,3.9c-1.2,0-2.2-0.6-2.9-1.6l1.7-1.8
			c0.3,0.4,0.8,0.9,1.2,0.9c0.9,0,0.8-1,0.8-1.6v-7.3H439.5z"/>
		<path id="XMLID_1086_" class="st3" d="M444.2,564.6v1.9h3.3v2.5h-3.3v1.9h3.4v2.5h-6.3v-11.1h6.3v2.5H444.2z"/>
		<path id="XMLID_1084_" class="st3" d="M452.3,564.6v1.9h3.2v2.5h-3.2v4.4h-2.9v-11.1h6.4v2.5H452.3z"/>
		<path id="XMLID_1082_" class="st3" d="M460.3,564.6v1.9h3.3v2.5h-3.3v1.9h3.4v2.5h-6.3v-11.1h6.3v2.5H460.3z"/>
		<path id="XMLID_1079_" class="st3" d="M470.6,562.2h4.1c3.1,0,5.7,2.4,5.7,5.6s-2.6,5.6-5.7,5.6h-4.1V562.2z M473.5,570.9h0.6
			c1.7,0,3.2-0.9,3.2-3.1c0-2-1.3-3.1-3.2-3.1h-0.7V570.9z"/>
		<path id="XMLID_1077_" class="st3" d="M484.6,564.6v1.9h3.3v2.5h-3.3v1.9h3.4v2.5h-6.3v-11.1h6.3v2.5H484.6z"/>
		<path id="XMLID_1074_" class="st3" d="M494.9,562.2h4.1c3.1,0,5.7,2.4,5.7,5.6s-2.6,5.6-5.7,5.6h-4.1V562.2z M497.8,570.9h0.7
			c1.7,0,3.2-0.9,3.2-3.1c0-2-1.3-3.1-3.2-3.1h-0.7V570.9z"/>
		<path id="XMLID_1072_" class="st3" d="M508.9,573.3H506v-11.1h2.9V573.3z"/>
		<path id="XMLID_1070_" class="st3" d="M515.5,568.9l2.7-6.8h3.1l-4.8,11.1h-2.2l-4.7-11.1h3.1L515.5,568.9z"/>
		<path id="XMLID_1068_" class="st3" d="M524.9,573.3H522v-11.1h2.9V573.3z"/>
		<path id="XMLID_1066_" class="st3" d="M532.9,565c-0.5-0.4-1.2-0.7-1.9-0.7c-0.5,0-1.2,0.3-1.2,0.9c0,0.6,0.8,0.9,1.3,1.1l0.7,0.2
			c1.5,0.5,2.7,1.2,2.7,3c0,1.1-0.3,2.2-1.2,3c-0.9,0.7-2,1-3.2,1c-1.4,0-2.8-0.5-3.9-1.3l1.2-2.3c0.7,0.6,1.6,1.2,2.6,1.2
			c0.7,0,1.4-0.3,1.4-1.1c0-0.8-1.1-1.1-1.8-1.3c-1.8-0.5-3-1-3-3.1c0-2.3,1.6-3.7,3.8-3.7c1.1,0,2.5,0.4,3.5,0.9L532.9,565z"/>
		<path id="XMLID_1064_" class="st3" d="M538.8,573.3h-2.9v-11.1h2.9V573.3z"/>
		<path id="XMLID_1060_" class="st3" d="M552.4,567.5c0,3.6-2.6,6.1-6.2,6.1s-6.2-2.5-6.2-6.1c0-3.4,3-5.7,6.2-5.7
			S552.4,564.2,552.4,567.5z M543.1,567.6c0,1.9,1.4,3.3,3.1,3.3c1.7,0,3.1-1.4,3.1-3.3c0-1.5-1.4-2.9-3.1-2.9
			C544.6,564.6,543.1,566,543.1,567.6z M545.9,561.5l-1.2-0.9l2.1-2.5l1.6,1.2L545.9,561.5z"/>
		<path id="XMLID_1058_" class="st3" d="M553.8,562.2h2.9l5.3,6.8h0v-6.8h2.9v11.1H562l-5.3-6.8h0v6.8h-2.9V562.2z"/>
		<path id="XMLID_1055_" class="st3" d="M421.4,591h-3.6l-2.7-4.3h0v4.3h-2.9v-11.1h4.3c2.2,0,3.9,1,3.9,3.4c0,1.5-0.9,2.9-2.4,3.1
			L421.4,591z M415,584.9h0.3c0.9,0,2-0.2,2-1.4c0-1.2-1.1-1.4-2-1.4H415V584.9z"/>
		<path id="XMLID_1052_" class="st3" d="M429.9,587.7h-5.7c0,1.1,0.6,1.7,1.7,1.7c0.6,0,1-0.2,1.3-0.7h2.6c-0.2,0.9-0.7,1.5-1.4,2
			c-0.7,0.4-1.5,0.6-2.4,0.6c-2.5,0-4.4-1.4-4.4-4c0-2.5,1.7-4,4.2-4c2.6,0,4.1,1.6,4.1,4.2V587.7z M427.4,586.1
			c-0.1-0.7-0.8-1.2-1.5-1.2c-0.8,0-1.4,0.4-1.6,1.2H427.4z"/>
		<path id="XMLID_1050_" class="st3" d="M434.8,587.3l1.8-3.9h3l-4,7.6h-1.7l-4-7.6h3L434.8,587.3z"/>
		<path id="XMLID_1047_" class="st3" d="M443.1,580.6c0,0.8-0.7,1.5-1.5,1.5c-0.8,0-1.5-0.7-1.5-1.5c0-0.8,0.7-1.5,1.5-1.5
			C442.4,579,443.1,579.7,443.1,580.6z M443,591h-2.7v-7.6h2.7V591z"/>
		<path id="XMLID_1045_" class="st3" d="M449.7,585.4c-0.4-0.2-1-0.4-1.4-0.4c-0.3,0-0.8,0.1-0.8,0.5c0,0.5,0.8,0.6,1.2,0.7
			c1.3,0.3,2.2,0.8,2.2,2.2c0,2-1.8,2.8-3.6,2.8c-1.1,0-2.1-0.3-3.1-0.9l1-1.9c0.5,0.4,1.5,0.8,2.1,0.8c0.3,0,0.8-0.2,0.8-0.6
			c0-0.6-0.8-0.6-1.7-0.8c-0.8-0.2-1.7-0.6-1.7-2c0-1.9,1.7-2.7,3.3-2.7c0.9,0,1.7,0.1,2.5,0.5L449.7,585.4z"/>
		<path id="XMLID_1042_" class="st3" d="M455.2,580.6c0,0.8-0.7,1.5-1.5,1.5c-0.8,0-1.5-0.7-1.5-1.5c0-0.8,0.7-1.5,1.5-1.5
			C454.5,579,455.2,579.7,455.2,580.6z M455,591h-2.7v-7.6h2.7V591z"/>
		<path id="XMLID_1038_" class="st3" d="M465.3,587.3c0,2.6-2.1,4-4.6,4c-2.4,0-4.6-1.4-4.6-4s2.1-4,4.6-4
			C463.2,583.2,465.3,584.7,465.3,587.3z M459,587.3c0,1,0.6,1.7,1.7,1.7c1.1,0,1.7-0.7,1.7-1.7c0-0.9-0.6-1.7-1.7-1.7
			C459.7,585.5,459,586.3,459,587.3z M460.5,582.3l-1.2-0.9l2.1-2.5l1.6,1.2L460.5,582.3z"/>
		<path id="XMLID_1036_" class="st3" d="M469.2,584.4L469.2,584.4c0.6-0.9,1.4-1.2,2.5-1.2c2,0,2.8,1.3,2.8,3.1v4.7h-2.7v-3.7
			c0-0.7,0.1-2-1.2-2c-1.1,0-1.4,0.8-1.4,1.8v3.9h-2.7v-7.6h2.7V584.4z"/>
		<path id="XMLID_1034_" class="st3" d="M480.3,583.5h3.1l2,3.9l2-3.9h3.1l-6.1,11.4h-3l2.6-4.8L480.3,583.5z"/>
		<path id="XMLID_1031_" class="st3" d="M504.4,591h-2.7v-0.8h0c-0.5,0.8-1.4,1.1-2.3,1.1c-2.2,0-3.8-1.9-3.8-4s1.6-4,3.8-4
			c0.9,0,1.8,0.3,2.3,1v-0.7h2.7V591z M498.3,587.3c0,1,0.6,1.7,1.7,1.7s1.7-0.7,1.7-1.7c0-0.9-0.6-1.7-1.7-1.7
			S498.3,586.3,498.3,587.3z"/>
		<path id="XMLID_1028_" class="st3" d="M508.7,584.3L508.7,584.3c0.5-0.8,1.4-1.1,2.3-1.1c2.3,0,3.8,1.9,3.8,4.1c0,2.2-1.6,4-3.8,4
			c-0.9,0-1.8-0.3-2.3-1v4.5h-2.7v-11.4h2.7V584.3z M508.7,587.3c0,1,0.6,1.7,1.7,1.7c1.1,0,1.7-0.7,1.7-1.7c0-0.9-0.6-1.7-1.7-1.7
			C509.3,585.5,508.7,586.3,508.7,587.3z"/>
		<path id="XMLID_1026_" class="st3" d="M518.9,584.7L518.9,584.7c0.5-0.9,1.4-1.3,2.5-1.3h0.5v2.6c-0.4-0.2-0.7-0.3-1.1-0.3
			c-1.5,0-1.9,1-1.9,2.3v3.1h-2.7v-7.6h2.7V584.7z"/>
		<path id="XMLID_1023_" class="st3" d="M531.2,587.3c0,2.6-2.1,4-4.6,4c-2.4,0-4.6-1.4-4.6-4s2.1-4,4.6-4
			C529.1,583.2,531.2,584.7,531.2,587.3z M524.9,587.3c0,1,0.6,1.7,1.7,1.7c1.1,0,1.7-0.7,1.7-1.7c0-0.9-0.6-1.7-1.7-1.7
			C525.6,585.5,524.9,586.3,524.9,587.3z"/>
		<path id="XMLID_1020_" class="st3" d="M532.3,578.8h2.7v5.4c0.6-0.7,1.5-1,2.3-1c2.2,0,3.8,1.9,3.8,4c0,2.2-1.6,4-3.8,4
			c-0.9,0-1.8-0.3-2.3-1.1h0v0.8h-2.7V578.8z M534.9,587.3c0,1,0.6,1.7,1.7,1.7c1.1,0,1.7-0.7,1.7-1.7c0-0.9-0.6-1.7-1.7-1.7
			C535.6,585.5,534.9,586.3,534.9,587.3z"/>
		<path id="XMLID_1017_" class="st3" d="M550.8,591h-2.7v-0.8h0c-0.5,0.8-1.4,1.1-2.3,1.1c-2.2,0-3.8-1.9-3.8-4s1.5-4,3.8-4
			c0.9,0,1.8,0.3,2.3,1v-0.7h2.7V591z M544.7,587.3c0,1,0.6,1.7,1.7,1.7c1.1,0,1.7-0.7,1.7-1.7c0-0.9-0.6-1.7-1.7-1.7
			C545.3,585.5,544.7,586.3,544.7,587.3z"/>
		<path id="XMLID_1015_" class="st3" d="M558,585.9c-0.4-0.3-0.9-0.5-1.4-0.5c-1,0-1.8,0.8-1.8,1.8c0,1.1,0.8,1.9,1.9,1.9
			c0.5,0,1-0.2,1.3-0.5v2.3c-0.6,0.3-1.2,0.4-1.9,0.4c-2.2,0-4.1-1.7-4.1-4c0-2.4,1.9-4.1,4.2-4.1c0.6,0,1.2,0.1,1.8,0.4V585.9z"/>
		<path id="XMLID_1012_" class="st3" d="M562.5,580.6c0,0.8-0.7,1.5-1.5,1.5s-1.5-0.7-1.5-1.5c0-0.8,0.7-1.5,1.5-1.5
			S562.5,579.7,562.5,580.6z M562.4,591h-2.7v-7.6h2.7V591z"/>
		<path id="XMLID_1008_" class="st3" d="M572.7,587.3c0,2.6-2.1,4-4.6,4c-2.4,0-4.6-1.4-4.6-4s2.1-4,4.6-4
			C570.6,583.2,572.7,584.7,572.7,587.3z M566.4,587.3c0,1,0.6,1.7,1.7,1.7c1.1,0,1.7-0.7,1.7-1.7c0-0.9-0.6-1.7-1.7-1.7
			C567,585.5,566.4,586.3,566.4,587.3z M567.8,582.3l-1.2-0.9l2.1-2.5l1.6,1.2L567.8,582.3z"/>
		<path id="XMLID_1006_" class="st3" d="M576.6,584.4L576.6,584.4c0.6-0.9,1.4-1.2,2.5-1.2c2,0,2.8,1.3,2.8,3.1v4.7h-2.7v-3.7
			c0-0.7,0.1-2-1.2-2c-1.1,0-1.4,0.8-1.4,1.8v3.9h-2.7v-7.6h2.7V584.4z"/>
	</g>
</g>
<rect id="XMLID_1865_" x="387.5" y="655.5" class="st2" width="223.3" height="101.1"/>
<g id="XMLID_9748_">
	<g>
		<path id="XMLID_937_" class="st3" d="M457.9,694.2c-0.5-0.4-1.2-0.7-1.9-0.7c-0.5,0-1.2,0.3-1.2,0.9c0,0.6,0.8,0.9,1.3,1.1
			l0.7,0.2c1.5,0.5,2.7,1.2,2.7,3c0,1.1-0.3,2.2-1.2,3c-0.9,0.7-2,1-3.2,1c-1.4,0-2.8-0.5-3.9-1.3l1.2-2.3c0.7,0.6,1.6,1.2,2.6,1.2
			c0.7,0,1.4-0.3,1.4-1.1c0-0.8-1.1-1.1-1.8-1.3c-1.8-0.5-3-1-3-3.1c0-2.3,1.6-3.7,3.8-3.7c1.1,0,2.5,0.4,3.5,0.9L457.9,694.2z"/>
		<path id="XMLID_925_" class="st3" d="M470.6,691.3v6.3c0,1.4-0.1,2.8-1.2,3.9c-0.9,0.9-2.4,1.2-3.7,1.2c-1.3,0-2.8-0.3-3.7-1.2
			c-1.1-1.1-1.2-2.5-1.2-3.9v-6.3h2.9v5.9c0,1.4,0.1,3,2,3c1.9,0,2-1.6,2-3v-5.9H470.6z"/>
		<path id="XMLID_921_" class="st3" d="M472.4,702.5v-11.1h4.1c2,0,3.3,0.8,3.3,2.9c0,1-0.3,1.8-1.2,2.3v0c1.6,0.2,2.3,1.3,2.3,2.8
			c0,2.3-2,3.1-4,3.1H472.4z M475.3,695.7h0.3c0.8,0,1.6-0.1,1.6-1.1c0-1-0.9-1.1-1.7-1.1h-0.2V695.7z M475.3,700.3h0.4
			c0.9,0,2.3,0,2.3-1.2c0-1.3-1.4-1.2-2.4-1.2h-0.3V700.3z"/>
		<path id="XMLID_886_" class="st3" d="M485.2,700.5l-0.8,1.9h-3.1l4.3-11.1h3.2l4.2,11.1H490l-0.7-1.9H485.2z M487.3,694.8
			L487.3,694.8l-1.2,3.5h2.4L487.3,694.8z"/>
		<path id="XMLID_884_" class="st3" d="M496.8,700h3.5v2.5h-6.4v-11.1h2.9V700z"/>
		<path id="XMLID_882_" class="st3" d="M509.2,695.1c-0.6-0.8-1.6-1.2-2.5-1.2c-1.8,0-3,1.4-3,3.1c0,1.8,1.2,3,3,3
			c0.9,0,1.9-0.5,2.5-1.2v3.5c-1,0.3-1.7,0.5-2.6,0.5c-1.6,0-3-0.6-4.2-1.6c-1.2-1.1-1.8-2.6-1.8-4.2c0-1.5,0.6-3,1.6-4.1
			c1.1-1.1,2.7-1.8,4.2-1.8c0.9,0,1.8,0.2,2.6,0.6V695.1z"/>
		<path id="XMLID_879_" class="st3" d="M513.8,700.5l-0.8,1.9H510l4.3-11.1h3.2l4.2,11.1h-3.1l-0.7-1.9H513.8z M515.9,694.8
			L515.9,694.8l-1.2,3.5h2.4L515.9,694.8z"/>
		<path id="XMLID_877_" class="st3" d="M525.4,700h3.5v2.5h-6.4v-11.1h2.9V700z"/>
		<path id="XMLID_874_" class="st3" d="M529.8,691.3h4.1c3.1,0,5.7,2.4,5.7,5.6s-2.6,5.6-5.7,5.6h-4.1V691.3z M532.7,700h0.6
			c1.7,0,3.2-0.9,3.2-3.1c0-2-1.3-3.1-3.2-3.1h-0.7V700z"/>
		<path id="XMLID_872_" class="st3" d="M543.8,693.8v1.9h3.3v2.5h-3.3v1.9h3.4v2.5h-6.3v-11.1h6.3v2.5H543.8z"/>
		<path id="XMLID_869_" class="st3" d="M402.8,718.3l-0.8,1.9H399l4.3-11.1h3.2l4.2,11.1h-3.1l-0.7-1.9H402.8z M404.8,712.5
			L404.8,712.5l-1.2,3.5h2.4L404.8,712.5z"/>
		<path id="XMLID_866_" class="st3" d="M414,713.5L414,713.5c0.5-0.8,1.4-1.1,2.3-1.1c2.3,0,3.8,1.9,3.8,4.1c0,2.2-1.6,4-3.8,4
			c-0.9,0-1.8-0.3-2.3-1v4.5h-2.7v-11.4h2.7V713.5z M413.9,716.4c0,1,0.6,1.7,1.7,1.7c1.1,0,1.7-0.7,1.7-1.7c0-0.9-0.6-1.7-1.7-1.7
			C414.6,714.7,413.9,715.5,413.9,716.4z"/>
		<path id="XMLID_864_" class="st3" d="M424.2,713.9L424.2,713.9c0.5-0.9,1.4-1.3,2.5-1.3h0.5v2.6c-0.4-0.2-0.7-0.3-1.1-0.3
			c-1.5,0-1.9,1-1.9,2.3v3.1h-2.7v-7.6h2.7V713.9z"/>
		<path id="XMLID_861_" class="st3" d="M436.5,716.4c0,2.6-2.1,4-4.6,4c-2.4,0-4.6-1.4-4.6-4s2.1-4,4.6-4
			C434.4,712.4,436.5,713.8,436.5,716.4z M430.2,716.4c0,1,0.6,1.7,1.7,1.7c1.1,0,1.7-0.7,1.7-1.7c0-0.9-0.6-1.7-1.7-1.7
			C430.8,714.7,430.2,715.5,430.2,716.4z"/>
		<path id="XMLID_858_" class="st3" d="M437.6,707.9h2.7v5.4c0.6-0.7,1.5-1,2.3-1c2.2,0,3.8,1.9,3.8,4c0,2.2-1.6,4-3.8,4
			c-0.9,0-1.8-0.3-2.3-1.1h0v0.8h-2.7V707.9z M440.2,716.4c0,1,0.6,1.7,1.7,1.7c1.1,0,1.7-0.7,1.7-1.7c0-0.9-0.6-1.7-1.7-1.7
			C440.8,714.7,440.2,715.5,440.2,716.4z"/>
		<path id="XMLID_855_" class="st3" d="M456,720.2h-2.7v-0.8h0c-0.5,0.8-1.4,1.1-2.3,1.1c-2.2,0-3.8-1.9-3.8-4c0-2.2,1.5-4,3.8-4
			c0.9,0,1.8,0.3,2.3,1v-0.7h2.7V720.2z M450,716.4c0,1,0.6,1.7,1.7,1.7c1.1,0,1.7-0.7,1.7-1.7c0-0.9-0.6-1.7-1.7-1.7
			C450.6,714.7,450,715.5,450,716.4z"/>
		<path id="XMLID_837_" class="st3" d="M463.3,715.1c-0.4-0.3-0.9-0.5-1.4-0.5c-1,0-1.8,0.8-1.8,1.8c0,1.1,0.8,1.9,1.9,1.9
			c0.5,0,1-0.2,1.3-0.5v2.3c-0.6,0.3-1.2,0.4-1.9,0.4c-2.2,0-4.1-1.7-4.1-4c0-2.4,1.9-4.1,4.2-4.1c0.6,0,1.2,0.1,1.8,0.4V715.1z"/>
		<path id="XMLID_834_" class="st3" d="M467.8,709.7c0,0.8-0.7,1.5-1.5,1.5c-0.8,0-1.5-0.7-1.5-1.5c0-0.8,0.7-1.5,1.5-1.5
			C467.1,708.2,467.8,708.9,467.8,709.7z M467.6,720.2H465v-7.6h2.7V720.2z"/>
		<path id="XMLID_830_" class="st3" d="M478,716.4c0,2.6-2.1,4-4.6,4c-2.4,0-4.6-1.4-4.6-4s2.1-4,4.6-4
			C475.9,712.4,478,713.8,478,716.4z M471.7,716.4c0,1,0.6,1.7,1.7,1.7c1.1,0,1.7-0.7,1.7-1.7c0-0.9-0.6-1.7-1.7-1.7
			C472.3,714.7,471.7,715.5,471.7,716.4z M473.1,711.5l-1.2-0.9l2.1-2.5l1.6,1.2L473.1,711.5z"/>
		<path id="XMLID_828_" class="st3" d="M481.9,713.6L481.9,713.6c0.6-0.9,1.4-1.2,2.5-1.2c2,0,2.8,1.3,2.8,3.1v4.7h-2.7v-3.7
			c0-0.7,0.1-2-1.2-2c-1.1,0-1.4,0.8-1.4,1.8v3.9h-2.7v-7.6h2.7V713.6z"/>
		<path id="XMLID_824_" class="st3" d="M496.9,720.2h-2.7v-5.4h-0.9v-2.2h0.9v-1c0-1,0-1.8,0.8-2.7c0.7-0.8,1.6-1.2,2.6-1.2
			c0.4,0,0.8,0.1,1.2,0.3v2.3c-0.3-0.1-0.6-0.3-0.9-0.3c-0.7,0-0.9,0.4-0.9,1.3v1.2h1.9v2.2h-1.9V720.2z M502.4,709.7
			c0,0.8-0.7,1.5-1.5,1.5c-0.8,0-1.5-0.7-1.5-1.5c0-0.8,0.7-1.5,1.5-1.5C501.8,708.2,502.4,708.9,502.4,709.7z M502.3,720.2h-2.7
			v-7.6h2.7V720.2z"/>
		<path id="XMLID_822_" class="st3" d="M506.7,713.9L506.7,713.9c0.5-0.9,1.4-1.3,2.5-1.3h0.5v2.6c-0.4-0.2-0.7-0.3-1.1-0.3
			c-1.5,0-1.9,1-1.9,2.3v3.1H504v-7.6h2.7V713.9z"/>
		<path id="XMLID_820_" class="st3" d="M513.4,713.6L513.4,713.6c0.7-0.8,1.4-1.2,2.4-1.2c1.1,0,2,0.4,2.6,1.4
			c0.5-0.9,1.5-1.4,2.6-1.4c1.9,0,2.6,1.3,2.6,3v4.8h-2.7v-3.6c0-0.8,0-2.1-1.1-2.1c-1.2,0-1.3,1.2-1.3,2.1v3.6h-2.7v-3.6
			c0-0.8,0-2.1-1.2-2.1c-1.2,0-1.2,1.3-1.2,2.1v3.6h-2.7v-7.6h2.7V713.6z"/>
		<path id="XMLID_817_" class="st3" d="M533.6,720.2h-2.7v-0.8h0c-0.5,0.8-1.4,1.1-2.3,1.1c-2.2,0-3.8-1.9-3.8-4c0-2.2,1.5-4,3.8-4
			c0.9,0,1.8,0.3,2.3,1v-0.7h2.7V720.2z M527.6,716.4c0,1,0.6,1.7,1.7,1.7c1.1,0,1.7-0.7,1.7-1.7c0-0.9-0.6-1.7-1.7-1.7
			C528.2,714.7,527.6,715.5,527.6,716.4z"/>
		<path id="XMLID_815_" class="st3" d="M539.4,712.6h3.1l2,3.9l2-3.9h3.1l-6.1,11.4h-3l2.6-4.8L539.4,712.6z"/>
		<path id="XMLID_813_" class="st3" d="M560.2,714.6c-0.4-0.2-1-0.4-1.4-0.4c-0.3,0-0.8,0.1-0.8,0.5c0,0.5,0.8,0.6,1.2,0.7
			c1.3,0.3,2.2,0.8,2.2,2.2c0,2-1.8,2.8-3.6,2.8c-1.1,0-2.1-0.3-3.1-0.9l1-1.9c0.5,0.4,1.5,0.8,2.1,0.8c0.3,0,0.8-0.2,0.8-0.6
			c0-0.6-0.8-0.6-1.7-0.8c-0.8-0.2-1.7-0.6-1.7-2c0-1.9,1.7-2.7,3.3-2.7c0.9,0,1.7,0.1,2.5,0.5L560.2,714.6z"/>
		<path id="XMLID_810_" class="st3" d="M570.5,716.9h-5.7c0,1.1,0.6,1.7,1.7,1.7c0.6,0,1-0.2,1.3-0.7h2.6c-0.2,0.9-0.7,1.5-1.4,2
			c-0.7,0.4-1.5,0.6-2.4,0.6c-2.5,0-4.4-1.4-4.4-4c0-2.5,1.7-4,4.2-4c2.6,0,4.1,1.6,4.1,4.2V716.9z M568,715.3
			c-0.1-0.7-0.8-1.2-1.5-1.2c-0.8,0-1.4,0.4-1.6,1.2H568z"/>
		<path id="XMLID_808_" class="st3" d="M574.4,720.2h-2.7v-12.3h2.7V720.2z"/>
		<path id="XMLID_806_" class="st3" d="M578.9,720.2h-2.7v-12.3h2.7V720.2z"/>
		<path id="XMLID_803_" class="st3" d="M589,720.2h-2.7v-0.8h0c-0.5,0.8-1.4,1.1-2.3,1.1c-2.2,0-3.8-1.9-3.8-4c0-2.2,1.6-4,3.8-4
			c0.9,0,1.8,0.3,2.3,1v-0.7h2.7V720.2z M582.9,716.4c0,1,0.6,1.7,1.7,1.7c1.1,0,1.7-0.7,1.7-1.7c0-0.9-0.6-1.7-1.7-1.7
			C583.5,714.7,582.9,715.5,582.9,716.4z"/>
	</g>
</g>
<polygon id="XMLID_1858_" class="st4" points="390.7,50.6 381.3,56 371.9,61.5 371.9,50.6 371.9,39.7 381.3,45.2 "/>
<polygon id="XMLID_1857_" class="st4" points="497.5,135.7 492,126.3 486.6,116.9 497.5,116.9 508.3,116.9 502.9,126.3 "/>
<polygon id="XMLID_1856_" class="st4" points="610.8,183.7 620.2,178.3 629.6,172.9 629.6,183.7 629.6,194.6 620.2,189.2 "/>
<polygon id="XMLID_1855_" class="st4" points="610.8,50.6 620.2,45.2 629.6,39.7 629.6,50.6 629.6,61.5 620.2,56 "/>
<polygon id="XMLID_1854_" class="st4" points="610.8,312.8 620.2,307.3 629.6,301.9 629.6,312.8 629.6,323.6 620.2,318.2 "/>
<polygon id="XMLID_1853_" class="st4" points="663.7,183.7 654.2,189.2 644.8,194.6 644.8,183.7 644.8,172.9 654.2,178.3 "/>
<polygon id="XMLID_1852_" class="st4" points="775.4,126.3 770,116.9 764.5,107.5 775.4,107.5 786.3,107.5 780.8,116.9 "/>
<polygon id="XMLID_1851_" class="st4" points="775.4,237.9 780.8,247.3 786.3,256.7 775.4,256.7 764.5,256.7 770,247.3 "/>
<polygon id="XMLID_1850_" class="st4" points="497.5,266.1 492,256.7 486.6,247.3 497.5,247.3 508.3,247.3 502.9,256.7 "/>
<polygon id="XMLID_1849_" class="st4" points="497.5,396.5 492,387.1 486.6,377.7 497.5,377.7 508.3,377.7 502.9,387.1 "/>
<polygon id="XMLID_1847_" class="st4" points="497.5,526.9 492,517.5 486.6,508.1 497.5,508.1 508.3,508.1 502.9,517.5 "/>
<polygon id="XMLID_1845_" class="st4" points="497.5,657.3 492,647.9 486.6,638.5 497.5,638.5 508.3,638.5 502.9,647.9 "/>
<polygon id="XMLID_1793_" class="st4" points="210.6,496.4 216.1,505.9 221.5,515.3 210.6,515.3 199.8,515.3 205.2,505.9 "/>
<polyline id="XMLID_1788_" class="st0" points="210.6,505.9 210.6,707.1 387.5,707.1 "/>
<line id="XMLID_1786_" class="st0" x1="616.1" y1="183.7" x2="656.3" y2="183.7"/>
<polyline id="XMLID_1785_" class="st0" points="620.2,50.6 775.4,50.6 775.4,120.2 "/>
<polyline id="XMLID_1460_" class="st0" points="775.4,242.4 775.4,312.8 624.3,312.8 "/>
</svg>
