<?xml version="1.0" encoding="utf-8"?>
<!-- Generator: Adobe Illustrator 21.0.2, SVG Export Plug-In . SVG Version: 6.00 Build 0)  -->
<svg version="1.1" id="Layer_1" xmlns="http://www.w3.org/2000/svg" xmlns:xlink="http://www.w3.org/1999/xlink" x="0px" y="0px"
	 viewBox="0 0 998.6 1230.1" style="enable-background:new 0 0 998.6 1230.1;" xml:space="preserve">
<style type="text/css">
	.st0{fill:none;stroke:#E42527;stroke-width:4;stroke-miterlimit:10;}
	.st1{fill:#9D9D9C;}
	.st2{fill:#FFFFFF;}
	.st3{fill:#E42527;}
</style>
<line id="XMLID_5524_" class="st0" x1="515.9" y1="144.3" x2="515.9" y2="1202.8"/>
<rect id="XMLID_5521_" x="337.1" y="0.3" class="st1" width="363" height="164.3"/>
<g id="XMLID_10717_">
	<g>
		<path id="XMLID_634_" class="st2" d="M445.5,70.4c-1-1.3-2.5-2-4.1-2c-2.9,0-4.8,2.2-4.8,5c0,2.9,2,4.9,4.9,4.9
			c1.5,0,3.1-0.7,4.1-1.9v5.6c-1.6,0.5-2.7,0.8-4.2,0.8c-2.5,0-4.9-1-6.8-2.7c-2-1.8-2.9-4.2-2.9-6.8c0-2.5,0.9-4.8,2.7-6.6
			c1.8-1.8,4.3-2.9,6.9-2.9c1.5,0,2.9,0.3,4.3,0.9V70.4z"/>
		<path id="XMLID_632_" class="st2" d="M453.1,82.4h-4.7V64.3h4.7V82.4z"/>
		<path id="XMLID_630_" class="st2" d="M471.9,64.3v10.2c0,2.3-0.1,4.6-1.9,6.4c-1.5,1.5-3.9,2-6,2c-2.1,0-4.5-0.5-6-2
			c-1.8-1.8-1.9-4.1-1.9-6.4V64.3h4.7v9.5c0,2.4,0.2,4.9,3.2,4.9c3,0,3.2-2.6,3.2-4.9v-9.5H471.9z"/>
		<path id="XMLID_627_" class="st2" d="M474.9,64.3h6.7c5,0,9.2,4,9.2,9c0,5.1-4.2,9-9.2,9h-6.7V64.3z M479.6,78.5h1.1
			c2.8,0,5.2-1.5,5.2-5.1c0-3.2-2.1-5.1-5.2-5.1h-1.1V78.5z"/>
		<path id="XMLID_624_" class="st2" d="M497.5,79.3l-1.2,3.1h-5l7-18.1h5.1l6.8,18.1h-5l-1.2-3.1H497.5z M500.8,69.9L500.8,69.9
			l-2,5.8h3.9L500.8,69.9z"/>
		<path id="XMLID_621_" class="st2" d="M511.6,64.3h6.7c5,0,9.2,4,9.2,9c0,5.1-4.2,9-9.2,9h-6.7V64.3z M516.4,78.5h1.1
			c2.8,0,5.2-1.5,5.2-5.1c0-3.2-2.1-5.1-5.2-5.1h-1.1V78.5z"/>
		<path id="XMLID_618_" class="st2" d="M529.7,64.3h6.7c5,0,9.2,4,9.2,9c0,5.1-4.2,9-9.2,9h-6.7V64.3z M534.4,78.5h1.1
			c2.8,0,5.2-1.5,5.2-5.1c0-3.2-2.1-5.1-5.2-5.1h-1.1V78.5z"/>
		<path id="XMLID_615_" class="st2" d="M552.4,79.3l-1.2,3.1h-5l7-18.1h5.1l6.8,18.1h-5l-1.2-3.1H552.4z M555.6,69.9L555.6,69.9
			l-2,5.8h3.9L555.6,69.9z"/>
		<path id="XMLID_613_" class="st2" d="M566.5,64.3h4.7l8.6,11.1h0V64.3h4.7v18.1h-4.7l-8.6-11.1h0v11.1h-4.7V64.3z"/>
		<path id="XMLID_610_" class="st2" d="M606.7,73.1c0,5.9-4.2,10-10,10s-10-4.1-10-10c0-5.5,4.8-9.3,10-9.3S606.7,67.6,606.7,73.1z
			 M591.6,73.1c0,3.1,2.3,5.4,5.1,5.4c2.8,0,5.1-2.3,5.1-5.4c0-2.5-2.3-4.8-5.1-4.8C593.9,68.3,591.6,70.6,591.6,73.1z"/>
		<path id="XMLID_608_" class="st2" d="M433.9,97.8c-0.9-0.7-2-1.2-3.1-1.2c-0.9,0-2,0.5-2,1.5c0,1.1,1.3,1.5,2.1,1.7l1.2,0.4
			c2.5,0.7,4.5,2,4.5,4.9c0,1.8-0.4,3.6-1.9,4.9c-1.4,1.2-3.3,1.7-5.1,1.7c-2.3,0-4.5-0.8-6.4-2.1l2-3.8c1.2,1,2.6,1.9,4.2,1.9
			c1.1,0,2.3-0.6,2.3-1.8c0-1.3-1.8-1.8-2.9-2.1c-3-0.8-4.9-1.6-4.9-5.1c0-3.7,2.6-6.1,6.2-6.1c1.8,0,4.1,0.6,5.7,1.5L433.9,97.8z"
			/>
		<path id="XMLID_605_" class="st2" d="M452.6,105.1c0,4.2-3.5,6.6-7.4,6.6c-3.9,0-7.4-2.4-7.4-6.6c0-4.2,3.5-6.6,7.4-6.6
			C449.1,98.5,452.6,100.9,452.6,105.1z M442.4,105.1c0,1.6,1,2.8,2.8,2.8c1.8,0,2.8-1.2,2.8-2.8c0-1.5-1-2.8-2.8-2.8
			C443.4,102.3,442.4,103.6,442.4,105.1z"/>
		<path id="XMLID_603_" class="st2" d="M458.9,111.2h-4.4V91.3h4.4V111.2z"/>
		<path id="XMLID_600_" class="st2" d="M466.4,94.2c0,1.3-1.1,2.4-2.4,2.4c-1.3,0-2.4-1.1-2.4-2.4c0-1.3,1.1-2.4,2.4-2.4
			C465.3,91.8,466.4,92.9,466.4,94.2z M466.2,111.2h-4.4V98.9h4.4V111.2z"/>
		<path id="XMLID_598_" class="st2" d="M477.9,102.9c-0.6-0.5-1.4-0.9-2.3-0.9c-1.7,0-3,1.3-3,3c0,1.8,1.3,3,3.1,3
			c0.8,0,1.6-0.3,2.2-0.8v3.7c-1,0.5-2,0.7-3.1,0.7c-3.6,0-6.7-2.7-6.7-6.4c0-4,3-6.7,6.9-6.7c1,0,2,0.2,2.9,0.7V102.9z"/>
		<path id="XMLID_594_" class="st2" d="M485.3,94.2c0,1.3-1.1,2.4-2.4,2.4c-1.3,0-2.4-1.1-2.4-2.4c0-1.3,1.1-2.4,2.4-2.4
			C484.2,91.8,485.3,92.9,485.3,94.2z M485,111.2h-4.4V98.9h4.4V111.2z"/>
		<path id="XMLID_592_" class="st2" d="M492.7,111.2h-4.4v-8.7h-1.4v-3.6h1.4v-3.7h4.4v3.7h2.5v3.6h-2.5V111.2z"/>
		<path id="XMLID_590_" class="st2" d="M500.8,98.9v6.6c0,1.6,0.4,2.7,2.2,2.7s2.2-1.1,2.2-2.7v-6.6h4.4v7.4c0,4.1-2.9,5.3-6.6,5.3
			c-3.7,0-6.6-1.2-6.6-5.3v-7.4H500.8z"/>
		<path id="XMLID_587_" class="st2" d="M521.6,109.9L521.6,109.9c-0.8,1.2-2.3,1.8-3.8,1.8c-3.6,0-6.2-3-6.2-6.6
			c0-3.5,2.5-6.6,6.2-6.6c1.4,0,2.9,0.5,3.8,1.6v-8.8h4.4v19.9h-4.4V109.9z M516.1,105.1c0,1.6,1,2.8,2.8,2.8c1.8,0,2.8-1.2,2.8-2.8
			c0-1.5-1-2.8-2.8-2.8C517.2,102.3,516.1,103.6,516.1,105.1z"/>
		<path id="XMLID_585_" class="st2" d="M543,105.2l2.9-6.3h4.9l-6.4,12.3h-2.8l-6.5-12.3h4.9L543,105.2z"/>
		<path id="XMLID_582_" class="st2" d="M564.6,105.8h-9.2c0,1.8,0.9,2.7,2.7,2.7c0.9,0,1.6-0.3,2.1-1.1h4.2
			c-0.3,1.4-1.2,2.5-2.3,3.2c-1.1,0.7-2.5,1-3.9,1c-4.1,0-7.1-2.3-7.1-6.6c0-4.1,2.8-6.6,6.8-6.6c4.3,0,6.7,2.6,6.7,6.8V105.8z
			 M560.5,103.3c-0.2-1.2-1.3-1.9-2.5-1.9c-1.3,0-2.3,0.7-2.6,1.9H560.5z"/>
		<path id="XMLID_580_" class="st2" d="M570.9,101L570.9,101c0.9-1.5,2.3-2.2,4-2.2h0.8v4.2c-0.6-0.3-1.2-0.4-1.8-0.4
			c-2.4,0-3,1.6-3,3.7v5h-4.4V98.9h4.4V101z"/>
		<path id="XMLID_577_" class="st2" d="M577.3,91.3h4.4v8.8c0.9-1.1,2.4-1.6,3.8-1.6c3.6,0,6.2,3,6.2,6.6c0,3.6-2.5,6.6-6.2,6.6
			c-1.4,0-2.9-0.6-3.7-1.8h0v1.4h-4.4V91.3z M581.5,105.1c0,1.6,1,2.8,2.8,2.8c1.8,0,2.8-1.2,2.8-2.8c0-1.5-1-2.8-2.8-2.8
			C582.5,102.3,581.5,103.6,581.5,105.1z"/>
		<path id="XMLID_574_" class="st2" d="M607.2,111.2h-4.4v-1.4h0c-0.8,1.2-2.3,1.8-3.7,1.8c-3.6,0-6.2-3-6.2-6.6
			c0-3.5,2.5-6.6,6.2-6.6c1.4,0,2.9,0.5,3.8,1.6v-1.2h4.4V111.2z M597.4,105.1c0,1.6,1,2.8,2.8,2.8c1.8,0,2.8-1.2,2.8-2.8
			c0-1.5-1-2.8-2.8-2.8C598.4,102.3,597.4,103.6,597.4,105.1z"/>
		<path id="XMLID_572_" class="st2" d="M614.5,111.2h-4.4V91.3h4.4V111.2z"/>
	</g>
</g>
<rect id="XMLID_5515_" x="337.1" y="213.4" class="st1" width="363" height="164.3"/>
<rect id="XMLID_5514_" x="337.1" y="426.5" class="st1" width="363" height="164.3"/>
<g id="XMLID_10597_">
	<g>
		<path id="XMLID_1289_" class="st2" d="M391.9,275.2l-1.2,3.1h-5l7-18.1h5.1l6.8,18.1h-5l-1.2-3.1H391.9z M395.2,265.8L395.2,265.8
			l-2,5.8h3.9L395.2,265.8z"/>
		<path id="XMLID_1286_" class="st2" d="M421.1,278.3h-5.9l-4.4-7h0v7H406v-18.1h7c3.6,0,6.3,1.7,6.3,5.6c0,2.5-1.4,4.7-4,5.1
			L421.1,278.3z M410.7,268.3h0.5c1.5,0,3.3-0.3,3.3-2.3c0-2-1.7-2.3-3.3-2.3h-0.5V268.3z"/>
		<path id="XMLID_1284_" class="st2" d="M427.1,264.2v3h5.3v4h-5.3v3.1h5.6v4h-10.3v-18.1h10.3v4H427.1z"/>
		<path id="XMLID_1281_" class="st2" d="M440.2,275.2l-1.2,3.1h-5l7-18.1h5.1l6.8,18.1h-5l-1.2-3.1H440.2z M443.4,265.8L443.4,265.8
			l-2,5.8h3.9L443.4,265.8z"/>
		<path id="XMLID_1279_" class="st2" d="M469.7,278.3H465v-14.1h-3.9v-4h12.5v4h-3.9V278.3z"/>
		<path id="XMLID_1277_" class="st2" d="M480,264.2v3h5.3v4H480v3.1h5.6v4h-10.3v-18.1h10.3v4H480z"/>
		<path id="XMLID_1275_" class="st2" d="M501.5,266.3c-1-1.3-2.5-2-4.1-2c-2.9,0-4.8,2.2-4.8,5c0,2.9,2,4.9,4.9,4.9
			c1.5,0,3.1-0.7,4.1-1.9v5.6c-1.6,0.5-2.7,0.8-4.2,0.8c-2.5,0-4.9-1-6.8-2.7c-2-1.8-2.9-4.2-2.9-6.8c0-2.5,0.9-4.8,2.7-6.6
			c1.8-1.8,4.3-2.9,6.9-2.9c1.5,0,2.9,0.3,4.3,0.9V266.3z"/>
		<path id="XMLID_1273_" class="st2" d="M504.4,260.2h4.7l8.6,11.1h0v-11.1h4.7v18.1h-4.7l-8.6-11.1h0v11.1h-4.7V260.2z"/>
		<path id="XMLID_1271_" class="st2" d="M530.2,278.3h-4.7v-18.1h4.7V278.3z"/>
		<path id="XMLID_1269_" class="st2" d="M546.2,266.3c-1-1.3-2.5-2-4.1-2c-2.9,0-4.8,2.2-4.8,5c0,2.9,2,4.9,4.9,4.9
			c1.5,0,3.1-0.7,4.1-1.9v5.6c-1.6,0.5-2.7,0.8-4.2,0.8c-2.5,0-4.9-1-6.8-2.7c-2-1.8-2.9-4.2-2.9-6.8c0-2.5,0.9-4.8,2.7-6.6
			c1.8-1.8,4.3-2.9,6.9-2.9c1.5,0,2.9,0.3,4.3,0.9V266.3z"/>
		<path id="XMLID_1266_" class="st2" d="M568.2,268.9c0,5.9-4.2,10-10,10s-10-4.1-10-10c0-5.5,4.8-9.3,10-9.3
			C563.4,259.6,568.2,263.5,568.2,268.9z M553.1,269c0,3.1,2.3,5.4,5.1,5.4c2.8,0,5.1-2.3,5.1-5.4c0-2.5-2.3-4.8-5.1-4.8
			C555.4,264.2,553.1,266.5,553.1,269z"/>
		<path id="XMLID_1264_" class="st2" d="M580.3,264.9c-0.9-0.7-2-1.2-3.1-1.2c-0.9,0-2,0.5-2,1.5c0,1.1,1.3,1.5,2.1,1.7l1.2,0.4
			c2.5,0.7,4.5,2,4.5,4.9c0,1.8-0.4,3.6-1.9,4.9c-1.4,1.2-3.3,1.7-5.1,1.7c-2.3,0-4.5-0.8-6.4-2.1l2-3.8c1.2,1,2.6,1.9,4.2,1.9
			c1.1,0,2.3-0.6,2.3-1.8c0-1.3-1.8-1.8-2.9-2.1c-3-0.8-4.9-1.6-4.9-5.1c0-3.7,2.6-6.1,6.2-6.1c1.8,0,4.1,0.6,5.7,1.5L580.3,264.9z"
			/>
		<path id="XMLID_1262_" class="st2" d="M596.9,258.4l-9.2,22.2h-3.4l9.2-22.2H596.9z"/>
		<path id="XMLID_1259_" class="st2" d="M603.7,275.2l-1.2,3.1h-5l7-18.1h5.1l6.8,18.1h-5l-1.2-3.1H603.7z M607,265.8L607,265.8
			l-2,5.8h3.9L607,265.8z"/>
		<path id="XMLID_1256_" class="st2" d="M632.9,278.3H627l-4.4-7h0v7h-4.7v-18.1h7c3.6,0,6.3,1.7,6.3,5.6c0,2.5-1.4,4.7-4,5.1
			L632.9,278.3z M622.5,268.3h0.5c1.5,0,3.3-0.3,3.3-2.3c0-2-1.7-2.3-3.3-2.3h-0.5V268.3z"/>
		<path id="XMLID_1253_" class="st2" d="M649.7,279.4l-1.4-1.7c-1.4,0.8-3,1.2-5,1.2c-5.8,0-10-4.1-10-10c0-5.5,4.8-9.3,10-9.3
			c5.6,0,10,3.8,10,9.7c0,2.4-0.8,4.5-2.3,6.4l3,3.1L649.7,279.4z M647.5,272c0.6-0.8,0.8-1.8,0.8-2.7c0-2.7-2.3-5.2-5.1-5.2
			c-2.8,0-5.1,2.3-5.1,4.8c0,3.1,2.3,5.4,5.1,5.4c0.5,0,1-0.1,1.4-0.2l-2.9-2.9l4.4-0.6L647.5,272z"/>
		<path id="XMLID_1251_" class="st2" d="M440.8,300l4.4-11h5.1l-7.7,18.1h-3.6l-7.6-18.1h5.1L440.8,300z"/>
		<path id="XMLID_1248_" class="st2" d="M462.3,301.7h-9.2c0,1.8,0.9,2.7,2.7,2.7c0.9,0,1.6-0.3,2.1-1.1h4.2
			c-0.3,1.4-1.2,2.5-2.3,3.2c-1.1,0.7-2.5,1-3.9,1c-4.1,0-7.1-2.3-7.1-6.6c0-4.1,2.8-6.6,6.8-6.6c4.3,0,6.7,2.6,6.7,6.8V301.7z
			 M458.2,299.2c-0.2-1.2-1.3-1.9-2.5-1.9c-1.3,0-2.3,0.7-2.6,1.9H458.2z"/>
		<path id="XMLID_1246_" class="st2" d="M468.6,296.8L468.6,296.8c0.9-1.5,2.3-2.2,4-2.2h0.8v4.2c-0.6-0.3-1.2-0.4-1.8-0.4
			c-2.4,0-3,1.6-3,3.7v5h-4.4v-12.3h4.4V296.8z"/>
		<path id="XMLID_1243_" class="st2" d="M479.8,290.1c0,1.3-1.1,2.4-2.4,2.4c-1.3,0-2.4-1.1-2.4-2.4c0-1.3,1.1-2.4,2.4-2.4
			C478.7,287.6,479.8,288.7,479.8,290.1z M479.5,307.1h-4.4v-12.3h4.4V307.1z"/>
		<path id="XMLID_1239_" class="st2" d="M487,307.1h-4.4v-8.7h-1.5v-3.6h1.5v-1.6c0-1.7,0-3,1.2-4.3c1.1-1.3,2.6-2,4.3-2
			c0.7,0,1.3,0.1,1.9,0.4v3.8c-0.5-0.2-1-0.4-1.5-0.4c-1.1,0-1.5,0.7-1.5,2.1v2h3v3.6h-3V307.1z M496.1,290.1c0,1.3-1.1,2.4-2.4,2.4
			c-1.3,0-2.4-1.1-2.4-2.4c0-1.3,1.1-2.4,2.4-2.4C495,287.6,496.1,288.7,496.1,290.1z M495.8,307.1h-4.4v-12.3h4.4V307.1z"/>
		<path id="XMLID_1237_" class="st2" d="M507.6,298.8c-0.6-0.5-1.4-0.9-2.3-0.9c-1.7,0-3,1.3-3,3c0,1.8,1.3,3,3.1,3
			c0.8,0,1.6-0.3,2.2-0.8v3.7c-1,0.5-2,0.7-3.1,0.7c-3.6,0-6.7-2.7-6.7-6.4c0-4,3-6.7,6.9-6.7c1,0,2,0.2,2.9,0.7V298.8z"/>
		<path id="XMLID_1234_" class="st2" d="M523.7,307.1h-4.4v-1.4h0c-0.8,1.2-2.3,1.8-3.7,1.8c-3.6,0-6.2-3-6.2-6.6
			c0-3.5,2.5-6.6,6.2-6.6c1.4,0,2.9,0.5,3.8,1.6v-1.2h4.4V307.1z M513.9,301c0,1.6,1,2.8,2.8,2.8c1.8,0,2.8-1.2,2.8-2.8
			c0-1.5-1-2.8-2.8-2.8C514.9,298.2,513.9,299.5,513.9,301z"/>
		<path id="XMLID_1232_" class="st2" d="M535.5,298.8c-0.6-0.5-1.4-0.9-2.3-0.9c-1.7,0-3,1.3-3,3c0,1.8,1.3,3,3.1,3
			c0.8,0,1.6-0.3,2.2-0.8v3.7c-1,0.5-2,0.7-3.1,0.7c-3.6,0-6.7-2.7-6.7-6.4c0-4,3-6.7,6.9-6.7c1,0,2,0.2,2.9,0.7V298.8z"/>
		<path id="XMLID_1229_" class="st2" d="M542.9,290.1c0,1.3-1.1,2.4-2.4,2.4c-1.3,0-2.4-1.1-2.4-2.4c0-1.3,1.1-2.4,2.4-2.4
			C541.8,287.6,542.9,288.7,542.9,290.1z M542.6,307.1h-4.4v-12.3h4.4V307.1z"/>
		<path id="XMLID_1225_" class="st2" d="M559.4,301c0,4.2-3.5,6.6-7.4,6.6c-3.9,0-7.4-2.4-7.4-6.6s3.5-6.6,7.4-6.6
			C555.9,294.4,559.4,296.8,559.4,301z M549.2,301c0,1.6,1,2.8,2.8,2.8c1.8,0,2.8-1.2,2.8-2.8c0-1.5-1-2.8-2.8-2.8
			C550.2,298.2,549.2,299.5,549.2,301z M551.5,293l-1.9-1.4l3.4-4.1l2.7,1.9L551.5,293z"/>
		<path id="XMLID_1223_" class="st2" d="M565.7,296.4L565.7,296.4c1.1-1.5,2.3-2,4-2c3.3,0,4.6,2.1,4.6,5.1v7.6H570v-6
			c0-1.2,0.2-3.2-2-3.2c-1.8,0-2.3,1.3-2.3,2.9v6.4h-4.4v-12.3h4.4V296.4z"/>
		<path id="XMLID_1221_" class="st2" d="M583.7,294.8h5l3.3,6.3l3.2-6.3h5l-9.9,18.5h-4.9l4.2-7.8L583.7,294.8z"/>
		<path id="XMLID_1219_" class="st2" d="M388.5,335.9h-4.4V316h4.4V335.9z"/>
		<path id="XMLID_1217_" class="st2" d="M395.7,335.9h-4.4V316h4.4V335.9z"/>
		<path id="XMLID_1214_" class="st2" d="M411.2,330.5H402c0,1.8,0.9,2.7,2.7,2.7c0.9,0,1.6-0.3,2.1-1.1h4.2
			c-0.3,1.4-1.2,2.5-2.3,3.2c-1.1,0.7-2.5,1-3.9,1c-4.1,0-7.1-2.3-7.1-6.6c0-4.1,2.8-6.6,6.8-6.6c4.3,0,6.7,2.6,6.7,6.8V330.5z
			 M407.2,328c-0.2-1.2-1.3-1.9-2.5-1.9c-1.3,0-2.3,0.7-2.6,1.9H407.2z"/>
		<path id="XMLID_1212_" class="st2" d="M417.6,325.2L417.6,325.2c1.1-1.5,2.3-2,4-2c3.3,0,4.6,2.1,4.6,5.1v7.6h-4.4v-6
			c0-1.2,0.2-3.2-2-3.2c-1.8,0-2.3,1.3-2.3,2.9v6.4h-4.4v-12.3h4.4V325.2z"/>
		<path id="XMLID_1209_" class="st2" d="M442.6,335.9h-4.4v-1.4h0c-0.8,1.2-2.3,1.8-3.7,1.8c-3.6,0-6.2-3-6.2-6.6
			c0-3.5,2.5-6.6,6.2-6.6c1.4,0,2.9,0.5,3.8,1.6v-1.2h4.4V335.9z M432.7,329.8c0,1.6,1,2.8,2.8,2.8c1.8,0,2.8-1.2,2.8-2.8
			c0-1.5-1-2.8-2.8-2.8C433.7,327,432.7,328.3,432.7,329.8z"/>
		<path id="XMLID_1206_" class="st2" d="M454.7,334.5L454.7,334.5c-0.8,1.2-2.3,1.8-3.8,1.8c-3.6,0-6.2-3-6.2-6.6
			c0-3.5,2.5-6.6,6.2-6.6c1.4,0,2.9,0.5,3.8,1.6V316h4.4v19.9h-4.4V334.5z M449.3,329.8c0,1.6,1,2.8,2.8,2.8c1.8,0,2.8-1.2,2.8-2.8
			c0-1.5-1-2.8-2.8-2.8C450.3,327,449.3,328.3,449.3,329.8z"/>
		<path id="XMLID_1202_" class="st2" d="M475.7,329.8c0,4.2-3.5,6.6-7.4,6.6c-3.9,0-7.4-2.4-7.4-6.6s3.5-6.6,7.4-6.6
			C472.3,323.2,475.7,325.6,475.7,329.8z M465.5,329.8c0,1.6,1,2.8,2.8,2.8c1.8,0,2.8-1.2,2.8-2.8c0-1.5-1-2.8-2.8-2.8
			C466.6,327,465.5,328.3,465.5,329.8z"/>
		<path id="XMLID_1199_" class="st2" d="M495.2,334.5L495.2,334.5c-0.8,1.2-2.3,1.8-3.8,1.8c-3.6,0-6.2-3-6.2-6.6
			c0-3.5,2.5-6.6,6.2-6.6c1.4,0,2.9,0.5,3.8,1.6V316h4.4v19.9h-4.4V334.5z M489.7,329.8c0,1.6,1,2.8,2.8,2.8c1.8,0,2.8-1.2,2.8-2.8
			c0-1.5-1-2.8-2.8-2.8C490.8,327,489.7,328.3,489.7,329.8z"/>
		<path id="XMLID_1196_" class="st2" d="M515,330.5h-9.2c0,1.8,0.9,2.7,2.7,2.7c0.9,0,1.6-0.3,2.1-1.1h4.2c-0.3,1.4-1.2,2.5-2.3,3.2
			c-1.1,0.7-2.5,1-3.9,1c-4.1,0-7.1-2.3-7.1-6.6c0-4.1,2.8-6.6,6.8-6.6c4.3,0,6.7,2.6,6.7,6.8V330.5z M510.9,328
			c-0.2-1.2-1.3-1.9-2.5-1.9c-1.3,0-2.3,0.7-2.6,1.9H510.9z"/>
		<path id="XMLID_1194_" class="st2" d="M530,335.9h-4.4v-8.7h-1.5v-3.6h1.5V322c0-1.7,0-3,1.2-4.3c1.1-1.3,2.6-2,4.3-2
			c0.7,0,1.3,0.1,1.9,0.4v3.8c-0.5-0.2-1-0.4-1.5-0.4c-1.1,0-1.5,0.7-1.5,2.1v2h3v3.6h-3V335.9z"/>
		<path id="XMLID_1191_" class="st2" d="M548.4,329.8c0,4.2-3.5,6.6-7.4,6.6c-3.9,0-7.4-2.4-7.4-6.6s3.5-6.6,7.4-6.6
			C545,323.2,548.4,325.6,548.4,329.8z M538.2,329.8c0,1.6,1,2.8,2.8,2.8c1.8,0,2.8-1.2,2.8-2.8c0-1.5-1-2.8-2.8-2.8
			C539.2,327,538.2,328.3,538.2,329.8z"/>
		<path id="XMLID_1189_" class="st2" d="M554.8,325.6L554.8,325.6c0.9-1.5,2.3-2.2,4-2.2h0.8v4.2c-0.6-0.3-1.2-0.4-1.8-0.4
			c-2.4,0-3,1.6-3,3.7v5h-4.4v-12.3h4.4V325.6z"/>
		<path id="XMLID_1187_" class="st2" d="M565.6,325.1L565.6,325.1c1.1-1.4,2.4-1.9,3.9-1.9c1.8,0,3.3,0.7,4.2,2.4
			c0.8-1.5,2.5-2.4,4.2-2.4c3.1,0,4.2,2,4.2,4.9v7.8h-4.4V330c0-1.3,0-3.4-1.8-3.4c-2,0-2.1,1.9-2.1,3.4v5.9h-4.4V330
			c0-1.4,0-3.5-1.9-3.5c-1.9,0-1.9,2.1-1.9,3.5v5.9h-4.4v-12.3h4.4V325.1z"/>
		<path id="XMLID_1185_" class="st2" d="M589.3,323.6v6.6c0,1.6,0.4,2.7,2.2,2.7c1.8,0,2.2-1.1,2.2-2.7v-6.6h4.4v7.4
			c0,4.1-2.9,5.3-6.6,5.3s-6.6-1.2-6.6-5.3v-7.4H589.3z"/>
		<path id="XMLID_1183_" class="st2" d="M605.2,335.9h-4.4V316h4.4V335.9z"/>
		<path id="XMLID_1180_" class="st2" d="M621.5,335.9h-4.4v-1.4h0c-0.8,1.2-2.3,1.8-3.7,1.8c-3.6,0-6.2-3-6.2-6.6
			c0-3.5,2.5-6.6,6.2-6.6c1.4,0,2.9,0.5,3.8,1.6v-1.2h4.4V335.9z M611.7,329.8c0,1.6,1,2.8,2.8,2.8c1.8,0,2.8-1.2,2.8-2.8
			c0-1.5-1-2.8-2.8-2.8C612.7,327,611.7,328.3,611.7,329.8z"/>
		<path id="XMLID_1178_" class="st2" d="M628.8,325.6L628.8,325.6c0.9-1.5,2.3-2.2,4-2.2h0.8v4.2c-0.6-0.3-1.2-0.4-1.8-0.4
			c-2.4,0-3,1.6-3,3.7v5h-4.4v-12.3h4.4V325.6z"/>
		<path id="XMLID_1175_" class="st2" d="M639.9,318.9c0,1.3-1.1,2.4-2.4,2.4c-1.3,0-2.4-1.1-2.4-2.4c0-1.3,1.1-2.4,2.4-2.4
			C638.8,316.4,639.9,317.5,639.9,318.9z M639.7,335.9h-4.4v-12.3h4.4V335.9z"/>
		<path id="XMLID_1172_" class="st2" d="M656.5,329.8c0,4.2-3.5,6.6-7.4,6.6c-3.9,0-7.4-2.4-7.4-6.6s3.5-6.6,7.4-6.6
			C653,323.2,656.5,325.6,656.5,329.8z M646.2,329.8c0,1.6,1,2.8,2.8,2.8c1.8,0,2.8-1.2,2.8-2.8c0-1.5-1-2.8-2.8-2.8
			C647.3,327,646.2,328.3,646.2,329.8z"/>
	</g>
</g>
<rect id="XMLID_5511_" x="337.1" y="639.6" class="st1" width="363" height="164.3"/>
<rect id="XMLID_5509_" x="337.1" y="852.7" class="st1" width="363" height="164.3"/>
<g id="XMLID_10510_">
	<g>
		<path id="XMLID_819_" class="st2" d="M415.9,479c-1-1.3-2.5-2-4.1-2c-2.9,0-4.8,2.2-4.8,5c0,2.9,2,4.9,4.9,4.9
			c1.5,0,3.1-0.7,4.1-1.9v5.6c-1.6,0.5-2.7,0.8-4.2,0.8c-2.5,0-4.9-1-6.8-2.7c-2-1.8-2.9-4.2-2.9-6.8c0-2.5,0.9-4.8,2.7-6.6
			c1.8-1.8,4.3-2.9,6.9-2.9c1.5,0,2.9,0.3,4.3,0.9V479z"/>
		<path id="XMLID_816_" class="st2" d="M423.4,487.8l-1.2,3.1h-5l7-18.1h5.1L436,491h-5l-1.2-3.1H423.4z M426.7,478.5L426.7,478.5
			l-2,5.8h3.9L426.7,478.5z"/>
		<path id="XMLID_814_" class="st2" d="M446.3,472.9v12.2c0,3.8-2,6.4-6,6.4c-2,0-3.6-1-4.7-2.7l2.7-2.9c0.5,0.7,1.3,1.5,1.9,1.5
			c1.4,0,1.3-1.7,1.3-2.7v-11.9H446.3z"/>
		<path id="XMLID_811_" class="st2" d="M453.8,487.8l-1.2,3.1h-5l7-18.1h5.1l6.8,18.1h-5l-1.2-3.1H453.8z M457.1,478.5L457.1,478.5
			l-2,5.8h3.9L457.1,478.5z"/>
		<path id="XMLID_809_" class="st2" d="M483.8,483.9l4.4-11h5.1l-7.7,18.1h-3.6l-7.6-18.1h5.1L483.8,483.9z"/>
		<path id="XMLID_807_" class="st2" d="M499.2,476.9v3h5.3v4h-5.3v3.1h5.6v4h-10.3v-18.1h10.3v4H499.2z"/>
		<path id="XMLID_805_" class="st2" d="M507.7,472.9h4.7L521,484h0v-11.1h4.7V491H521l-8.6-11.1h0V491h-4.7V472.9z"/>
		<path id="XMLID_803_" class="st2" d="M536,491h-4.7v-14.1h-3.9v-4h12.5v4H536V491z"/>
		<path id="XMLID_800_" class="st2" d="M544.8,487.8l-1.2,3.1h-5l7-18.1h5.1l6.8,18.1h-5l-1.2-3.1H544.8z M548.1,478.5L548.1,478.5
			l-2,5.8h3.9L548.1,478.5z"/>
		<path id="XMLID_798_" class="st2" d="M558.9,472.9h4.7l8.6,11.1h0v-11.1h4.7V491h-4.7l-8.6-11.1h0V491h-4.7V472.9z"/>
		<path id="XMLID_796_" class="st2" d="M584.8,491h-4.7v-18.1h4.7V491z"/>
		<path id="XMLID_794_" class="st2" d="M592.5,487h5.6v4h-10.3v-18.1h4.7V487z"/>
		<path id="XMLID_792_" class="st2" d="M604.4,487h5.6v4h-10.3v-18.1h4.7V487z"/>
		<path id="XMLID_789_" class="st2" d="M616.2,487.8L615,491h-5l7-18.1h5.1l6.8,18.1h-5l-1.2-3.1H616.2z M619.5,478.5L619.5,478.5
			l-2,5.8h3.9L619.5,478.5z"/>
		<path id="XMLID_787_" class="st2" d="M405.6,501.7v10.2c0,2.3-0.1,4.6-1.9,6.4c-1.5,1.5-3.9,2-6,2s-4.5-0.5-6-2
			c-1.8-1.8-1.9-4.1-1.9-6.4v-10.2h4.7v9.5c0,2.4,0.2,4.9,3.2,4.9c3,0,3.2-2.6,3.2-4.9v-9.5H405.6z"/>
		<path id="XMLID_785_" class="st2" d="M408.5,501.7h4.7l8.6,11.1h0v-11.1h4.7v18.1h-4.7l-8.6-11.1h0v11.1h-4.7V501.7z"/>
		<path id="XMLID_783_" class="st2" d="M434.4,519.8h-4.7v-18.1h4.7V519.8z"/>
		<path id="XMLID_781_" class="st2" d="M450.4,507.8c-1-1.3-2.5-2-4.1-2c-2.9,0-4.8,2.2-4.8,5c0,2.9,2,4.9,4.9,4.9
			c1.5,0,3.1-0.7,4.1-1.9v5.6c-1.6,0.5-2.7,0.8-4.2,0.8c-2.5,0-4.9-1-6.8-2.7c-2-1.8-2.9-4.2-2.9-6.8c0-2.5,0.9-4.8,2.7-6.6
			c1.8-1.8,4.3-2.9,6.9-2.9c1.5,0,2.9,0.3,4.3,0.9V507.8z"/>
		<path id="XMLID_778_" class="st2" d="M457.9,516.6l-1.2,3.1h-5l7-18.1h5.1l6.8,18.1h-5l-1.2-3.1H457.9z M461.2,507.3L461.2,507.3
			l-2,5.8h3.9L461.2,507.3z"/>
		<path id="XMLID_776_" class="st2" d="M490.2,506.4c-0.9-0.7-2-1.2-3.1-1.2c-0.9,0-2,0.5-2,1.5c0,1.1,1.3,1.5,2.1,1.7l1.2,0.4
			c2.5,0.7,4.5,2,4.5,4.9c0,1.8-0.4,3.6-1.9,4.9c-1.4,1.2-3.3,1.7-5.1,1.7c-2.3,0-4.5-0.8-6.4-2.1l2-3.8c1.2,1,2.6,1.9,4.2,1.9
			c1.1,0,2.3-0.6,2.3-1.8c0-1.3-1.8-1.8-2.9-2.1c-3-0.8-4.9-1.6-4.9-5.1c0-3.7,2.6-6.1,6.2-6.1c1.8,0,4.1,0.6,5.7,1.5L490.2,506.4z"
			/>
		<path id="XMLID_774_" class="st2" d="M510.7,501.7v10.2c0,2.3-0.1,4.6-1.9,6.4c-1.5,1.5-3.9,2-6,2c-2.1,0-4.5-0.5-6-2
			c-1.8-1.8-1.9-4.1-1.9-6.4v-10.2h4.7v9.5c0,2.4,0.2,4.9,3.2,4.9c3,0,3.2-2.6,3.2-4.9v-9.5H510.7z"/>
		<path id="XMLID_770_" class="st2" d="M513.7,519.8v-18.1h6.7c3.2,0,5.4,1.2,5.4,4.7c0,1.6-0.5,3-2,3.7v0c2.6,0.3,3.7,2.1,3.7,4.6
			c0,3.8-3.2,5-6.6,5H513.7z M518.4,508.8h0.5c1.2,0,2.5-0.2,2.5-1.8c0-1.7-1.5-1.8-2.7-1.8h-0.3V508.8z M518.4,516.2h0.6
			c1.4,0,3.7,0.1,3.7-1.9c0-2.2-2.3-2-3.9-2h-0.5V516.2z"/>
		<path id="XMLID_767_" class="st2" d="M534.6,516.6l-1.2,3.1h-5l7-18.1h5.1l6.8,18.1h-5l-1.2-3.1H534.6z M537.9,507.3L537.9,507.3
			l-2,5.8h3.9L537.9,507.3z"/>
		<path id="XMLID_765_" class="st2" d="M553.4,515.8h5.6v4h-10.3v-18.1h4.7V515.8z"/>
		<path id="XMLID_763_" class="st2" d="M573.5,507.8c-1-1.3-2.5-2-4.1-2c-2.9,0-4.8,2.2-4.8,5c0,2.9,2,4.9,4.9,4.9
			c1.5,0,3.1-0.7,4.1-1.9v5.6c-1.6,0.5-2.7,0.8-4.2,0.8c-2.5,0-4.9-1-6.8-2.7c-2-1.8-2.9-4.2-2.9-6.8c0-2.5,0.9-4.8,2.7-6.6
			c1.8-1.8,4.3-2.9,6.9-2.9c1.5,0,2.9,0.3,4.3,0.9V507.8z"/>
		<path id="XMLID_760_" class="st2" d="M581,516.6l-1.2,3.1h-5l7-18.1h5.1l6.8,18.1h-5l-1.2-3.1H581z M584.3,507.3L584.3,507.3
			l-2,5.8h3.9L584.3,507.3z"/>
		<path id="XMLID_758_" class="st2" d="M599.9,515.8h5.6v4h-10.3v-18.1h4.7V515.8z"/>
		<path id="XMLID_755_" class="st2" d="M607.1,501.7h6.7c5,0,9.2,4,9.2,9c0,5.1-4.2,9-9.2,9h-6.7V501.7z M611.8,515.8h1.1
			c2.8,0,5.2-1.5,5.2-5.1c0-3.2-2.1-5.1-5.2-5.1h-1.1V515.8z"/>
		<path id="XMLID_753_" class="st2" d="M629.8,519.8h-4.7v-18.1h4.7V519.8z"/>
		<path id="XMLID_750_" class="st2" d="M637.5,516.6l-1.2,3.1h-5l7-18.1h5.1l6.8,18.1h-5l-1.2-3.1H637.5z M640.8,507.3L640.8,507.3
			l-2,5.8h3.9L640.8,507.3z"/>
		<path id="XMLID_748_" class="st2" d="M488.2,536.6c-1-1.3-2.5-2-4.1-2c-2.9,0-4.8,2.2-4.8,5c0,2.9,2,4.9,4.9,4.9
			c1.5,0,3.1-0.7,4.1-1.9v5.6c-1.6,0.5-2.7,0.8-4.2,0.8c-2.5,0-4.9-1-6.8-2.7c-2-1.8-2.9-4.2-2.9-6.8c0-2.5,0.9-4.8,2.7-6.6
			c1.8-1.8,4.3-2.9,6.9-2.9c1.5,0,2.9,0.3,4.3,0.9V536.6z"/>
		<path id="XMLID_745_" class="st2" d="M510.2,539.2c0,5.9-4.2,10-10,10s-10-4.1-10-10c0-5.5,4.8-9.3,10-9.3
			C505.4,529.9,510.2,533.7,510.2,539.2z M495.1,539.2c0,3.1,2.3,5.4,5.1,5.4c2.8,0,5.1-2.3,5.1-5.4c0-2.5-2.3-4.8-5.1-4.8
			C497.4,534.5,495.1,536.7,495.1,539.2z"/>
		<path id="XMLID_741_" class="st2" d="M512.4,548.6v-18.1h6.7c3.2,0,5.4,1.2,5.4,4.7c0,1.6-0.5,3-2,3.7v0c2.6,0.3,3.7,2.1,3.7,4.6
			c0,3.8-3.2,5-6.6,5H512.4z M517.1,537.6h0.5c1.2,0,2.5-0.2,2.5-1.8c0-1.7-1.5-1.8-2.7-1.8h-0.3V537.6z M517.1,545h0.6
			c1.4,0,3.7,0.1,3.7-1.9c0-2.2-2.3-2-3.9-2h-0.5V545z"/>
		<path id="XMLID_738_" class="st2" d="M543.7,548.6h-5.9l-4.4-7h0v7h-4.7v-18.1h7c3.6,0,6.3,1.7,6.3,5.6c0,2.5-1.4,4.7-4,5.1
			L543.7,548.6z M533.3,538.6h0.5c1.5,0,3.3-0.3,3.3-2.3c0-2-1.7-2.3-3.3-2.3h-0.5V538.6z"/>
		<path id="XMLID_735_" class="st2" d="M564.1,539.2c0,5.9-4.2,10-10,10s-10-4.1-10-10c0-5.5,4.8-9.3,10-9.3
			C559.3,529.9,564.1,533.7,564.1,539.2z M548.9,539.2c0,3.1,2.3,5.4,5.1,5.4c2.8,0,5.1-2.3,5.1-5.4c0-2.5-2.3-4.8-5.1-4.8
			C551.2,534.5,548.9,536.7,548.9,539.2z"/>
	</g>
</g>
<rect id="XMLID_5507_" x="337.1" y="1065.8" class="st1" width="363" height="164.3"/>
<g id="XMLID_10390_">
	<g>
		<path id="XMLID_1082_" class="st2" d="M391.3,699.6l-1.2,3.1h-5l7-18.1h5.1l6.8,18.1h-5l-1.2-3.1H391.3z M394.6,690.3L394.6,690.3
			l-2,5.8h3.9L394.6,690.3z"/>
		<path id="XMLID_1079_" class="st2" d="M420.5,702.8h-5.9l-4.4-7h0v7h-4.7v-18.1h7c3.6,0,6.3,1.7,6.3,5.6c0,2.5-1.4,4.7-4,5.1
			L420.5,702.8z M410.1,692.8h0.5c1.5,0,3.3-0.3,3.3-2.3c0-2-1.7-2.3-3.3-2.3h-0.5V692.8z"/>
		<path id="XMLID_1077_" class="st2" d="M426.4,688.7v3h5.3v4h-5.3v3.1h5.6v4h-10.3v-18.1H432v4H426.4z"/>
		<path id="XMLID_1074_" class="st2" d="M439.5,699.6l-1.2,3.1h-5l7-18.1h5.1l6.8,18.1h-5l-1.2-3.1H439.5z M442.8,690.3L442.8,690.3
			l-2,5.8h3.9L442.8,690.3z"/>
		<path id="XMLID_1072_" class="st2" d="M469.1,702.8h-4.7v-14.1h-3.9v-4H473v4h-3.9V702.8z"/>
		<path id="XMLID_1070_" class="st2" d="M479.4,688.7v3h5.3v4h-5.3v3.1h5.6v4h-10.3v-18.1H485v4H479.4z"/>
		<path id="XMLID_1068_" class="st2" d="M500.8,690.7c-1-1.3-2.5-2-4.1-2c-2.9,0-4.8,2.2-4.8,5c0,2.9,2,4.9,4.9,4.9
			c1.5,0,3.1-0.7,4.1-1.9v5.6c-1.6,0.5-2.7,0.8-4.2,0.8c-2.5,0-4.9-1-6.8-2.7c-2-1.8-2.9-4.2-2.9-6.8c0-2.5,0.9-4.8,2.7-6.6
			c1.8-1.8,4.3-2.9,6.9-2.9c1.5,0,2.9,0.3,4.3,0.9V690.7z"/>
		<path id="XMLID_1066_" class="st2" d="M503.7,684.7h4.7l8.6,11.1h0v-11.1h4.7v18.1h-4.7l-8.6-11.1h0v11.1h-4.7V684.7z"/>
		<path id="XMLID_1064_" class="st2" d="M529.6,702.8h-4.7v-18.1h4.7V702.8z"/>
		<path id="XMLID_1062_" class="st2" d="M545.6,690.7c-1-1.3-2.5-2-4.1-2c-2.9,0-4.8,2.2-4.8,5c0,2.9,2,4.9,4.9,4.9
			c1.5,0,3.1-0.7,4.1-1.9v5.6c-1.6,0.5-2.7,0.8-4.2,0.8c-2.5,0-4.9-1-6.8-2.7c-2-1.8-2.9-4.2-2.9-6.8c0-2.5,0.9-4.8,2.7-6.6
			c1.8-1.8,4.3-2.9,6.9-2.9c1.5,0,2.9,0.3,4.3,0.9V690.7z"/>
		<path id="XMLID_1059_" class="st2" d="M567.6,693.4c0,5.9-4.2,10-10,10s-10-4.1-10-10c0-5.5,4.8-9.3,10-9.3
			S567.6,687.9,567.6,693.4z M552.5,693.4c0,3.1,2.3,5.4,5.1,5.4s5.1-2.3,5.1-5.4c0-2.5-2.3-4.8-5.1-4.8S552.5,690.9,552.5,693.4z"
			/>
		<path id="XMLID_1057_" class="st2" d="M579.7,689.3c-0.9-0.7-2-1.2-3.1-1.2c-0.9,0-2,0.5-2,1.5c0,1.1,1.3,1.5,2.1,1.7l1.2,0.4
			c2.5,0.7,4.5,2,4.5,4.9c0,1.8-0.4,3.6-1.9,4.9c-1.4,1.2-3.3,1.7-5.1,1.7c-2.3,0-4.5-0.8-6.4-2.1l2-3.8c1.2,1,2.6,1.9,4.2,1.9
			c1.1,0,2.3-0.6,2.3-1.8c0-1.3-1.8-1.8-2.9-2.1c-3-0.8-4.9-1.6-4.9-5.1c0-3.7,2.6-6.1,6.2-6.1c1.8,0,4.1,0.6,5.7,1.5L579.7,689.3z"
			/>
		<path id="XMLID_1055_" class="st2" d="M596.3,682.8l-9.2,22.2h-3.4l9.2-22.2H596.3z"/>
		<path id="XMLID_1052_" class="st2" d="M603.1,699.6l-1.2,3.1h-5l7-18.1h5.1l6.8,18.1h-5l-1.2-3.1H603.1z M606.4,690.3L606.4,690.3
			l-2,5.8h3.9L606.4,690.3z"/>
		<path id="XMLID_1049_" class="st2" d="M632.3,702.8h-5.9l-4.4-7h0v7h-4.7v-18.1h7c3.6,0,6.3,1.7,6.3,5.6c0,2.5-1.4,4.7-4,5.1
			L632.3,702.8z M621.9,692.8h0.5c1.5,0,3.3-0.3,3.3-2.3c0-2-1.7-2.3-3.3-2.3h-0.5V692.8z"/>
		<path id="XMLID_1046_" class="st2" d="M649,703.9l-1.4-1.7c-1.4,0.8-3,1.2-5,1.2c-5.8,0-10-4.1-10-10c0-5.5,4.8-9.3,10-9.3
			c5.6,0,10,3.8,10,9.7c0,2.4-0.8,4.5-2.3,6.4l3,3.1L649,703.9z M646.9,696.5c0.6-0.8,0.8-1.8,0.8-2.7c0-2.7-2.3-5.2-5.1-5.2
			c-2.8,0-5.1,2.3-5.1,4.8c0,3.1,2.3,5.4,5.1,5.4c0.5,0,1-0.1,1.4-0.2l-2.9-2.9l4.4-0.6L646.9,696.5z"/>
		<path id="XMLID_1044_" class="st2" d="M440.7,724.5l4.4-11h5.1l-7.7,18.1h-3.6l-7.6-18.1h5.1L440.7,724.5z"/>
		<path id="XMLID_1041_" class="st2" d="M462.2,726.1H453c0,1.8,0.9,2.7,2.7,2.7c0.9,0,1.6-0.3,2.1-1.1h4.2
			c-0.3,1.4-1.2,2.5-2.3,3.2c-1.1,0.7-2.5,1-3.9,1c-4.1,0-7.1-2.3-7.1-6.6c0-4.1,2.8-6.6,6.8-6.6c4.3,0,6.7,2.6,6.7,6.8V726.1z
			 M458.1,723.6c-0.2-1.2-1.3-1.9-2.5-1.9c-1.3,0-2.3,0.7-2.6,1.9H458.1z"/>
		<path id="XMLID_1039_" class="st2" d="M468.5,721.3L468.5,721.3c0.9-1.5,2.3-2.2,4-2.2h0.8v4.2c-0.6-0.3-1.2-0.4-1.8-0.4
			c-2.4,0-3,1.6-3,3.7v5h-4.4v-12.3h4.4V721.3z"/>
		<path id="XMLID_1036_" class="st2" d="M479.7,714.5c0,1.3-1.1,2.4-2.4,2.4c-1.3,0-2.4-1.1-2.4-2.4c0-1.3,1.1-2.4,2.4-2.4
			C478.6,712.1,479.7,713.2,479.7,714.5z M479.4,731.6H475v-12.3h4.4V731.6z"/>
		<path id="XMLID_1032_" class="st2" d="M487,731.6h-4.4v-8.7H481v-3.6h1.5v-1.6c0-1.7,0-3,1.2-4.3c1.1-1.3,2.6-2,4.3-2
			c0.7,0,1.3,0.1,1.9,0.4v3.8c-0.5-0.2-1-0.4-1.5-0.4c-1.1,0-1.5,0.7-1.5,2.1v2h3v3.6h-3V731.6z M496,714.5c0,1.3-1.1,2.4-2.4,2.4
			c-1.3,0-2.4-1.1-2.4-2.4c0-1.3,1.1-2.4,2.4-2.4C494.9,712.1,496,713.2,496,714.5z M495.7,731.6h-4.4v-12.3h4.4V731.6z"/>
		<path id="XMLID_1030_" class="st2" d="M507.5,723.3c-0.6-0.5-1.4-0.9-2.3-0.9c-1.7,0-3,1.3-3,3c0,1.8,1.3,3,3.1,3
			c0.8,0,1.6-0.3,2.2-0.8v3.7c-1,0.5-2,0.7-3.1,0.7c-3.6,0-6.7-2.7-6.7-6.4c0-4,3-6.7,6.9-6.7c1,0,2,0.2,2.9,0.7V723.3z"/>
		<path id="XMLID_1027_" class="st2" d="M523.6,731.6h-4.4v-1.4h0c-0.8,1.2-2.3,1.8-3.7,1.8c-3.6,0-6.2-3-6.2-6.6
			c0-3.5,2.5-6.6,6.2-6.6c1.4,0,2.9,0.5,3.8,1.6v-1.2h4.4V731.6z M513.8,725.4c0,1.6,1,2.8,2.8,2.8c1.8,0,2.8-1.2,2.8-2.8
			c0-1.5-1-2.8-2.8-2.8C514.8,722.6,513.8,723.9,513.8,725.4z"/>
		<path id="XMLID_1025_" class="st2" d="M535.4,723.3c-0.6-0.5-1.4-0.9-2.3-0.9c-1.7,0-3,1.3-3,3c0,1.8,1.3,3,3.1,3
			c0.8,0,1.6-0.3,2.2-0.8v3.7c-1,0.5-2,0.7-3.1,0.7c-3.6,0-6.7-2.7-6.7-6.4c0-4,3-6.7,6.9-6.7c1,0,2,0.2,2.9,0.7V723.3z"/>
		<path id="XMLID_1022_" class="st2" d="M542.8,714.5c0,1.3-1.1,2.4-2.4,2.4c-1.3,0-2.4-1.1-2.4-2.4c0-1.3,1.1-2.4,2.4-2.4
			C541.7,712.1,542.8,713.2,542.8,714.5z M542.5,731.6h-4.4v-12.3h4.4V731.6z"/>
		<path id="XMLID_1018_" class="st2" d="M559.3,725.4c0,4.2-3.5,6.6-7.4,6.6c-3.9,0-7.4-2.4-7.4-6.6s3.5-6.6,7.4-6.6
			C555.9,718.8,559.3,721.2,559.3,725.4z M549.1,725.4c0,1.6,1,2.8,2.8,2.8c1.8,0,2.8-1.2,2.8-2.8c0-1.5-1-2.8-2.8-2.8
			C550.1,722.6,549.1,723.9,549.1,725.4z M551.4,717.4l-1.9-1.4l3.4-4.1l2.7,1.9L551.4,717.4z"/>
		<path id="XMLID_1016_" class="st2" d="M565.6,720.8L565.6,720.8c1.1-1.5,2.3-2,4-2c3.3,0,4.6,2.1,4.6,5.1v7.6h-4.4v-6
			c0-1.2,0.2-3.2-2-3.2c-1.8,0-2.3,1.3-2.3,2.9v6.4h-4.4v-12.3h4.4V720.8z"/>
		<path id="XMLID_1013_" class="st2" d="M598,726.1h-9.2c0,1.8,0.9,2.7,2.7,2.7c0.9,0,1.6-0.3,2.1-1.1h4.2c-0.3,1.4-1.2,2.5-2.3,3.2
			c-1.1,0.7-2.5,1-3.9,1c-4.1,0-7.1-2.3-7.1-6.6c0-4.1,2.8-6.6,6.8-6.6c4.3,0,6.7,2.6,6.7,6.8V726.1z M594,723.6
			c-0.2-1.2-1.3-1.9-2.5-1.9c-1.3,0-2.3,0.7-2.6,1.9H594z"/>
		<path id="XMLID_1010_" class="st2" d="M382.4,743.3c0,1.3-1.1,2.4-2.4,2.4c-1.3,0-2.4-1.1-2.4-2.4c0-1.3,1.1-2.4,2.4-2.4
			C381.3,740.9,382.4,742,382.4,743.3z M382.2,760.4h-4.4v-12.3h4.4V760.4z"/>
		<path id="XMLID_1008_" class="st2" d="M389.4,749.6L389.4,749.6c1.1-1.4,2.4-1.9,3.9-1.9c1.8,0,3.3,0.7,4.2,2.4
			c0.8-1.5,2.5-2.4,4.2-2.4c3.1,0,4.2,2,4.2,4.9v7.8h-4.4v-5.9c0-1.3,0-3.4-1.8-3.4c-2,0-2.1,1.9-2.1,3.4v5.9h-4.4v-5.9
			c0-1.4,0-3.5-1.9-3.5c-1.9,0-1.9,2.1-1.9,3.5v5.9h-4.4v-12.3h4.4V749.6z"/>
		<path id="XMLID_1005_" class="st2" d="M413,749.4L413,749.4c0.8-1.2,2.3-1.8,3.8-1.8c3.7,0,6.2,3.1,6.2,6.6c0,3.6-2.5,6.5-6.2,6.5
			c-1.4,0-2.9-0.5-3.8-1.6v7.3h-4.4v-18.5h4.4V749.4z M412.9,754.2c0,1.6,1,2.8,2.8,2.8c1.8,0,2.8-1.2,2.8-2.8c0-1.5-1-2.8-2.8-2.8
			C413.9,751.4,412.9,752.7,412.9,754.2z"/>
		<path id="XMLID_1003_" class="st2" d="M429.5,750.1L429.5,750.1c0.9-1.5,2.3-2.2,4-2.2h0.8v4.2c-0.6-0.3-1.2-0.4-1.8-0.4
			c-2.4,0-3,1.6-3,3.7v5h-4.4v-12.3h4.4V750.1z"/>
		<path id="XMLID_1000_" class="st2" d="M448.7,754.9h-9.2c0,1.8,0.9,2.7,2.7,2.7c0.9,0,1.6-0.3,2.1-1.1h4.2
			c-0.3,1.4-1.2,2.5-2.3,3.2c-1.1,0.7-2.5,1-3.9,1c-4.1,0-7.1-2.3-7.1-6.6c0-4.1,2.8-6.6,6.8-6.6c4.3,0,6.7,2.6,6.7,6.8V754.9z
			 M444.6,752.4c-0.2-1.2-1.3-1.9-2.5-1.9c-1.3,0-2.3,0.7-2.6,1.9H444.6z"/>
		<path id="XMLID_998_" class="st2" d="M458.8,751.2c-0.7-0.4-1.6-0.6-2.4-0.6c-0.5,0-1.4,0.2-1.4,0.8c0,0.8,1.4,1,2,1.1
			c2,0.4,3.6,1.4,3.6,3.6c0,3.2-3,4.6-5.8,4.6c-1.8,0-3.5-0.5-5-1.4l1.6-3c0.9,0.6,2.4,1.2,3.5,1.2c0.6,0,1.4-0.3,1.4-0.9
			c0-1-1.4-1-2.7-1.4c-1.4-0.4-2.7-1-2.7-3.2c0-3,2.7-4.4,5.4-4.4c1.4,0,2.8,0.2,4.1,0.8L458.8,751.2z"/>
		<path id="XMLID_995_" class="st2" d="M467.6,743.3c0,1.3-1.1,2.4-2.4,2.4c-1.3,0-2.4-1.1-2.4-2.4c0-1.3,1.1-2.4,2.4-2.4
			C466.5,740.9,467.6,742,467.6,743.3z M467.4,760.4H463v-12.3h4.4V760.4z"/>
		<path id="XMLID_991_" class="st2" d="M484.2,754.2c0,4.2-3.5,6.6-7.4,6.6c-3.9,0-7.4-2.4-7.4-6.6s3.5-6.6,7.4-6.6
			C480.7,747.6,484.2,750,484.2,754.2z M473.9,754.2c0,1.6,1,2.8,2.8,2.8c1.8,0,2.8-1.2,2.8-2.8c0-1.5-1-2.8-2.8-2.8
			C475,751.4,473.9,752.7,473.9,754.2z M476.3,746.2l-1.9-1.4l3.4-4.1l2.7,1.9L476.3,746.2z"/>
		<path id="XMLID_989_" class="st2" d="M490.5,749.6L490.5,749.6c1.1-1.5,2.3-2,4-2c3.3,0,4.6,2.1,4.6,5.1v7.6h-4.4v-6
			c0-1.2,0.2-3.2-2-3.2c-1.8,0-2.3,1.3-2.3,2.9v6.4h-4.4v-12.3h4.4V749.6z"/>
		<path id="XMLID_986_" class="st2" d="M519.5,759L519.5,759c-0.8,1.2-2.3,1.8-3.8,1.8c-3.6,0-6.2-3-6.2-6.6c0-3.5,2.5-6.6,6.2-6.6
			c1.4,0,2.9,0.5,3.8,1.6v-8.8h4.4v19.9h-4.4V759z M514,754.2c0,1.6,1,2.8,2.8,2.8c1.8,0,2.8-1.2,2.8-2.8c0-1.5-1-2.8-2.8-2.8
			C515,751.4,514,752.7,514,754.2z"/>
		<path id="XMLID_983_" class="st2" d="M539.2,754.9H530c0,1.8,0.9,2.7,2.7,2.7c0.9,0,1.6-0.3,2.1-1.1h4.2c-0.3,1.4-1.2,2.5-2.3,3.2
			c-1.1,0.7-2.5,1-3.9,1c-4.1,0-7.1-2.3-7.1-6.6c0-4.1,2.8-6.6,6.8-6.6c4.3,0,6.7,2.6,6.7,6.8V754.9z M535.2,752.4
			c-0.2-1.2-1.3-1.9-2.5-1.9c-1.3,0-2.3,0.7-2.6,1.9H535.2z"/>
		<path id="XMLID_980_" class="st2" d="M554.1,743.3c0,1.3-1.1,2.4-2.4,2.4s-2.4-1.1-2.4-2.4c0-1.3,1.1-2.4,2.4-2.4
			S554.1,742,554.1,743.3z M553.8,760.4h-4.4v-12.3h4.4V760.4z"/>
		<path id="XMLID_978_" class="st2" d="M561.1,749.6L561.1,749.6c1.1-1.5,2.3-2,4-2c3.3,0,4.6,2.1,4.6,5.1v7.6h-4.4v-6
			c0-1.2,0.2-3.2-2-3.2c-1.8,0-2.3,1.3-2.3,2.9v6.4h-4.4v-12.3h4.4V749.6z"/>
		<path id="XMLID_976_" class="st2" d="M577.4,760.4H573v-8.7h-1.5v-3.6h1.5v-1.6c0-1.7,0-3,1.2-4.3c1.1-1.3,2.6-2,4.3-2
			c0.7,0,1.3,0.1,1.9,0.4v3.8c-0.5-0.2-1-0.4-1.5-0.4c-1.1,0-1.5,0.7-1.5,2.1v2h3v3.6h-3V760.4z"/>
		<path id="XMLID_973_" class="st2" d="M595.8,754.2c0,4.2-3.5,6.6-7.4,6.6c-3.9,0-7.4-2.4-7.4-6.6s3.5-6.6,7.4-6.6
			C592.3,747.6,595.8,750,595.8,754.2z M585.6,754.2c0,1.6,1,2.8,2.8,2.8c1.8,0,2.8-1.2,2.8-2.8c0-1.5-1-2.8-2.8-2.8
			C586.6,751.4,585.6,752.7,585.6,754.2z"/>
		<path id="XMLID_971_" class="st2" d="M602.1,750.1L602.1,750.1c0.9-1.5,2.3-2.2,4-2.2h0.8v4.2c-0.6-0.3-1.2-0.4-1.8-0.4
			c-2.4,0-3,1.6-3,3.7v5h-4.4v-12.3h4.4V750.1z"/>
		<path id="XMLID_969_" class="st2" d="M613,749.6L613,749.6c1.1-1.4,2.4-1.9,3.9-1.9c1.8,0,3.3,0.7,4.2,2.4
			c0.8-1.5,2.5-2.4,4.2-2.4c3.1,0,4.2,2,4.2,4.9v7.8h-4.4v-5.9c0-1.3,0-3.4-1.8-3.4c-2,0-2.1,1.9-2.1,3.4v5.9h-4.4v-5.9
			c0-1.4,0-3.5-1.9-3.5c-1.9,0-1.9,2.1-1.9,3.5v5.9h-4.4v-12.3h4.4V749.6z"/>
		<path id="XMLID_966_" class="st2" d="M645,754.9h-9.2c0,1.8,0.9,2.7,2.7,2.7c0.9,0,1.6-0.3,2.1-1.1h4.2c-0.3,1.4-1.2,2.5-2.3,3.2
			c-1.1,0.7-2.5,1-3.9,1c-4.1,0-7.1-2.3-7.1-6.6c0-4.1,2.8-6.6,6.8-6.6c4.3,0,6.7,2.6,6.7,6.8V754.9z M641,752.4
			c-0.2-1.2-1.3-1.9-2.5-1.9c-1.3,0-2.3,0.7-2.6,1.9H641z"/>
	</g>
</g>
<g id="XMLID_10331_">
	<g>
		<path id="XMLID_464_" class="st2" d="M421.6,912.8V925c0,3.8-2,6.4-6,6.4c-2,0-3.6-1-4.7-2.7l2.7-2.9c0.5,0.7,1.3,1.5,1.9,1.5
			c1.4,0,1.3-1.7,1.3-2.7v-11.9H421.6z"/>
		<path id="XMLID_462_" class="st2" d="M429.3,916.8v3h5.3v4h-5.3v3.1h5.6v4h-10.3v-18.1h10.3v4H429.3z"/>
		<path id="XMLID_460_" class="st2" d="M442.5,916.8v3h5.2v4h-5.2v7.1h-4.7v-18.1h10.4v4H442.5z"/>
		<path id="XMLID_458_" class="st2" d="M455.5,916.8v3h5.3v4h-5.3v3.1h5.6v4h-10.3v-18.1h10.3v4H455.5z"/>
		<path id="XMLID_455_" class="st2" d="M472.3,912.8h6.7c5,0,9.2,4,9.2,9c0,5.1-4.2,9-9.2,9h-6.7V912.8z M477,926.9h1.1
			c2.8,0,5.2-1.5,5.2-5.1c0-3.2-2.1-5.1-5.2-5.1H477V926.9z"/>
		<path id="XMLID_453_" class="st2" d="M495,916.8v3h5.3v4H495v3.1h5.6v4h-10.3v-18.1h10.3v4H495z"/>
		<path id="XMLID_450_" class="st2" d="M511.7,912.8h6.7c5,0,9.2,4,9.2,9c0,5.1-4.2,9-9.2,9h-6.7V912.8z M516.4,926.9h1.1
			c2.8,0,5.2-1.5,5.2-5.1c0-3.2-2.1-5.1-5.2-5.1h-1.1V926.9z"/>
		<path id="XMLID_448_" class="st2" d="M534.5,930.9h-4.7v-18.1h4.7V930.9z"/>
		<path id="XMLID_446_" class="st2" d="M545.2,923.8l4.4-11h5.1l-7.7,18.1h-3.6l-7.6-18.1h5.1L545.2,923.8z"/>
		<path id="XMLID_444_" class="st2" d="M560.5,930.9h-4.7v-18.1h4.7V930.9z"/>
		<path id="XMLID_442_" class="st2" d="M573.5,917.4c-0.9-0.7-2-1.2-3.1-1.2c-0.9,0-2,0.5-2,1.5c0,1.1,1.3,1.5,2.1,1.7l1.2,0.4
			c2.5,0.7,4.5,2,4.5,4.9c0,1.8-0.4,3.6-1.9,4.9c-1.4,1.2-3.3,1.7-5.1,1.7c-2.3,0-4.5-0.8-6.4-2.1l2-3.8c1.2,1,2.6,1.9,4.2,1.9
			c1.1,0,2.3-0.6,2.3-1.8c0-1.3-1.8-1.8-2.9-2.1c-3-0.8-4.9-1.6-4.9-5.1c0-3.7,2.6-6.1,6.2-6.1c1.8,0,4.1,0.6,5.7,1.5L573.5,917.4z"
			/>
		<path id="XMLID_440_" class="st2" d="M583.1,930.9h-4.7v-18.1h4.7V930.9z"/>
		<path id="XMLID_436_" class="st2" d="M605.3,921.5c0,5.9-4.2,10-10,10s-10-4.1-10-10c0-5.5,4.8-9.3,10-9.3
			C600.5,912.2,605.3,916,605.3,921.5z M590.1,921.5c0,3.1,2.3,5.4,5.1,5.4c2.8,0,5.1-2.3,5.1-5.4c0-2.5-2.3-4.8-5.1-4.8
			C592.5,916.7,590.1,919,590.1,921.5z M594.7,911.7l-1.9-1.4l3.4-4.1l2.7,1.9L594.7,911.7z"/>
		<path id="XMLID_434_" class="st2" d="M607.5,912.8h4.7l8.6,11.1h0v-11.1h4.7v18.1h-4.7l-8.6-11.1h0v11.1h-4.7V912.8z"/>
		<path id="XMLID_432_" class="st2" d="M436.9,945.6v3h5.2v4h-5.2v7.1h-4.7v-18.1h10.4v4H436.9z"/>
		<path id="XMLID_429_" class="st2" d="M449.7,942.6c0,1.3-1.1,2.4-2.4,2.4c-1.3,0-2.4-1.1-2.4-2.4c0-1.3,1.1-2.4,2.4-2.4
			C448.6,940.2,449.7,941.3,449.7,942.6z M449.4,959.7h-4.4v-12.3h4.4V959.7z"/>
		<path id="XMLID_427_" class="st2" d="M456.7,949.4L456.7,949.4c0.9-1.5,2.3-2.2,4-2.2h0.8v4.2c-0.6-0.3-1.2-0.4-1.8-0.4
			c-2.4,0-3,1.6-3,3.7v5h-4.4v-12.3h4.4V949.4z"/>
		<path id="XMLID_425_" class="st2" d="M467.5,948.9L467.5,948.9c1.1-1.4,2.4-1.9,3.9-1.9c1.8,0,3.3,0.7,4.2,2.4
			c0.8-1.5,2.5-2.4,4.2-2.4c3.1,0,4.2,2,4.2,4.9v7.8h-4.4v-5.9c0-1.3,0-3.4-1.8-3.4c-2,0-2.1,1.9-2.1,3.4v5.9h-4.4v-5.9
			c0-1.4,0-3.5-1.9-3.5c-1.9,0-1.9,2.1-1.9,3.5v5.9h-4.4v-12.3h4.4V948.9z"/>
		<path id="XMLID_422_" class="st2" d="M500.4,959.7H496v-1.4h0c-0.8,1.2-2.3,1.8-3.7,1.8c-3.6,0-6.2-3-6.2-6.6
			c0-3.5,2.5-6.6,6.2-6.6c1.4,0,2.9,0.5,3.8,1.6v-1.2h4.4V959.7z M490.5,953.5c0,1.6,1,2.8,2.8,2.8c1.8,0,2.8-1.2,2.8-2.8
			c0-1.5-1-2.8-2.8-2.8C491.6,950.7,490.5,952,490.5,953.5z"/>
		<path id="XMLID_420_" class="st2" d="M509.7,947.4h5l3.3,6.3l3.2-6.3h5l-9.9,18.5h-4.9l4.2-7.8L509.7,947.4z"/>
		<path id="XMLID_418_" class="st2" d="M543.6,950.5c-0.7-0.4-1.6-0.6-2.4-0.6c-0.5,0-1.4,0.2-1.4,0.8c0,0.8,1.4,1,2,1.1
			c2,0.4,3.6,1.4,3.6,3.6c0,3.2-3,4.6-5.8,4.6c-1.8,0-3.5-0.5-5-1.4l1.6-3c0.9,0.6,2.4,1.2,3.5,1.2c0.6,0,1.4-0.3,1.4-0.9
			c0-1-1.4-1-2.7-1.4c-1.4-0.4-2.7-1-2.7-3.2c0-3,2.7-4.4,5.4-4.4c1.4,0,2.8,0.2,4.1,0.8L543.6,950.5z"/>
		<path id="XMLID_415_" class="st2" d="M560.4,954.2h-9.2c0,1.8,0.9,2.7,2.7,2.7c0.9,0,1.6-0.3,2.1-1.1h4.2
			c-0.3,1.4-1.2,2.5-2.3,3.2c-1.1,0.7-2.5,1-3.9,1c-4.1,0-7.1-2.3-7.1-6.6c0-4.1,2.8-6.6,6.8-6.6c4.3,0,6.7,2.6,6.7,6.8V954.2z
			 M556.3,951.7c-0.2-1.2-1.3-1.9-2.5-1.9c-1.3,0-2.3,0.7-2.6,1.9H556.3z"/>
		<path id="XMLID_413_" class="st2" d="M566.8,959.7h-4.4v-19.9h4.4V959.7z"/>
		<path id="XMLID_411_" class="st2" d="M574,959.7h-4.4v-19.9h4.4V959.7z"/>
		<path id="XMLID_408_" class="st2" d="M590.8,953.5c0,4.2-3.5,6.6-7.4,6.6c-3.9,0-7.4-2.4-7.4-6.6c0-4.2,3.5-6.6,7.4-6.6
			C587.4,947,590.8,949.3,590.8,953.5z M580.6,953.5c0,1.6,1,2.8,2.8,2.8c1.8,0,2.8-1.2,2.8-2.8c0-1.5-1-2.8-2.8-2.8
			C581.6,950.7,580.6,952,580.6,953.5z"/>
	</g>
</g>
<g id="XMLID_10259_">
	<g>
		<path id="XMLID_568_" class="st2" d="M451.7,1128.6c-0.9-0.7-2-1.2-3.1-1.2c-0.9,0-2,0.5-2,1.5c0,1.1,1.3,1.5,2.1,1.7l1.2,0.4
			c2.5,0.7,4.5,2,4.5,4.9c0,1.8-0.4,3.6-1.9,4.9c-1.4,1.2-3.3,1.7-5.1,1.7c-2.3,0-4.5-0.8-6.4-2.1l2-3.8c1.2,1,2.6,1.9,4.2,1.9
			c1.1,0,2.3-0.6,2.3-1.8c0-1.3-1.8-1.8-2.9-2.1c-3-0.8-4.9-1.6-4.9-5.1c0-3.7,2.6-6.1,6.2-6.1c1.8,0,4.1,0.6,5.7,1.5L451.7,1128.6z
			"/>
		<path id="XMLID_566_" class="st2" d="M472.2,1123.9v10.2c0,2.3-0.1,4.6-1.9,6.4c-1.5,1.5-3.9,2-6,2c-2.1,0-4.5-0.5-6-2
			c-1.8-1.8-1.9-4.1-1.9-6.4v-10.2h4.7v9.5c0,2.4,0.2,4.9,3.2,4.9c3,0,3.2-2.6,3.2-4.9v-9.5H472.2z"/>
		<path id="XMLID_562_" class="st2" d="M475.2,1142v-18.1h6.7c3.2,0,5.4,1.2,5.4,4.7c0,1.6-0.5,3-2,3.7v0c2.6,0.3,3.7,2.1,3.7,4.6
			c0,3.8-3.2,5-6.6,5H475.2z M479.9,1131h0.5c1.2,0,2.5-0.2,2.5-1.8c0-1.7-1.5-1.8-2.7-1.8h-0.3V1131z M479.9,1138.4h0.6
			c1.4,0,3.7,0.1,3.7-1.9c0-2.2-2.3-2-3.9-2h-0.5V1138.4z"/>
		<path id="XMLID_559_" class="st2" d="M496,1138.9l-1.2,3.1h-5l7-18.1h5.1l6.8,18.1h-5l-1.2-3.1H496z M499.3,1129.5L499.3,1129.5
			l-2,5.8h3.9L499.3,1129.5z"/>
		<path id="XMLID_557_" class="st2" d="M514.9,1138h5.6v4h-10.3v-18.1h4.7V1138z"/>
		<path id="XMLID_555_" class="st2" d="M535,1130c-1-1.3-2.5-2-4.1-2c-2.9,0-4.8,2.2-4.8,5c0,2.9,2,4.9,4.9,4.9
			c1.5,0,3.1-0.7,4.1-1.9v5.6c-1.6,0.5-2.7,0.8-4.2,0.8c-2.5,0-4.9-1-6.8-2.7c-2-1.8-2.9-4.2-2.9-6.8c0-2.5,0.9-4.8,2.7-6.6
			c1.8-1.8,4.3-2.9,6.9-2.9c1.5,0,2.9,0.3,4.3,0.9V1130z"/>
		<path id="XMLID_552_" class="st2" d="M542.5,1138.9l-1.2,3.1h-5l7-18.1h5.1l6.8,18.1h-5l-1.2-3.1H542.5z M545.8,1129.5
			L545.8,1129.5l-2,5.8h3.9L545.8,1129.5z"/>
		<path id="XMLID_550_" class="st2" d="M561.3,1138h5.6v4h-10.3v-18.1h4.7V1138z"/>
		<path id="XMLID_547_" class="st2" d="M568.5,1123.9h6.7c5,0,9.2,4,9.2,9c0,5.1-4.2,9-9.2,9h-6.7V1123.9z M573.2,1138h1.1
			c2.8,0,5.2-1.5,5.2-5.1c0-3.2-2.1-5.1-5.2-5.1h-1.1V1138z"/>
		<path id="XMLID_545_" class="st2" d="M591.3,1127.9v3h5.3v4h-5.3v3.1h5.6v4h-10.3v-18.1h10.3v4H591.3z"/>
		<path id="XMLID_543_" class="st2" d="M382.6,1156.7v3h5.2v4h-5.2v7.1h-4.7v-18.1h10.4v4H382.6z"/>
		<path id="XMLID_540_" class="st2" d="M395.4,1153.8c0,1.3-1.1,2.4-2.4,2.4c-1.3,0-2.4-1.1-2.4-2.4c0-1.3,1.1-2.4,2.4-2.4
			C394.3,1151.3,395.4,1152.4,395.4,1153.8z M395.1,1170.8h-4.4v-12.3h4.4V1170.8z"/>
		<path id="XMLID_538_" class="st2" d="M402.4,1160.5L402.4,1160.5c0.9-1.5,2.3-2.2,4-2.2h0.8v4.2c-0.6-0.3-1.2-0.4-1.8-0.4
			c-2.4,0-3,1.6-3,3.7v5H398v-12.3h4.4V1160.5z"/>
		<path id="XMLID_536_" class="st2" d="M413.2,1160L413.2,1160c1.1-1.4,2.4-1.9,3.9-1.9c1.8,0,3.3,0.7,4.2,2.4
			c0.8-1.5,2.5-2.4,4.2-2.4c3.1,0,4.2,2,4.2,4.9v7.8h-4.4v-5.9c0-1.3,0-3.4-1.8-3.4c-2,0-2.1,1.9-2.1,3.4v5.9h-4.4v-5.9
			c0-1.4,0-3.5-1.9-3.5c-1.9,0-1.9,2.1-1.9,3.5v5.9h-4.4v-12.3h4.4V1160z"/>
		<path id="XMLID_533_" class="st2" d="M446.1,1170.8h-4.4v-1.4h0c-0.8,1.2-2.3,1.8-3.7,1.8c-3.6,0-6.2-3-6.2-6.6s2.5-6.6,6.2-6.6
			c1.4,0,2.9,0.5,3.8,1.6v-1.2h4.4V1170.8z M436.2,1164.7c0,1.6,1,2.8,2.8,2.8c1.8,0,2.8-1.2,2.8-2.8c0-1.5-1-2.8-2.8-2.8
			C437.3,1161.9,436.2,1163.1,436.2,1164.7z"/>
		<path id="XMLID_530_" class="st2" d="M466.5,1169.4L466.5,1169.4c-0.8,1.2-2.3,1.8-3.8,1.8c-3.6,0-6.2-3-6.2-6.6s2.5-6.6,6.2-6.6
			c1.4,0,2.9,0.5,3.8,1.6v-8.8h4.4v19.9h-4.4V1169.4z M461,1164.7c0,1.6,1,2.8,2.8,2.8c1.8,0,2.8-1.2,2.8-2.8c0-1.5-1-2.8-2.8-2.8
			C462,1161.9,461,1163.1,461,1164.7z"/>
		<path id="XMLID_527_" class="st2" d="M486.2,1165.4H477c0,1.8,0.9,2.7,2.7,2.7c0.9,0,1.6-0.3,2.1-1.1h4.2
			c-0.3,1.4-1.2,2.5-2.3,3.2c-1.1,0.7-2.5,1-3.9,1c-4.1,0-7.1-2.3-7.1-6.6c0-4.1,2.8-6.6,6.8-6.6c4.3,0,6.7,2.6,6.7,6.8V1165.4z
			 M482.2,1162.9c-0.2-1.2-1.3-1.9-2.5-1.9c-1.3,0-2.3,0.7-2.6,1.9H482.2z"/>
		<path id="XMLID_524_" class="st2" d="M509.9,1170.8h-4.4v-1.4h0c-0.8,1.2-2.3,1.8-3.7,1.8c-3.6,0-6.2-3-6.2-6.6s2.5-6.6,6.2-6.6
			c1.4,0,2.9,0.5,3.8,1.6v-1.2h4.4V1170.8z M500.1,1164.7c0,1.6,1,2.8,2.8,2.8c1.8,0,2.8-1.2,2.8-2.8c0-1.5-1-2.8-2.8-2.8
			C501.1,1161.9,500.1,1163.1,500.1,1164.7z"/>
		<path id="XMLID_521_" class="st2" d="M517,1159.9L517,1159.9c0.8-1.2,2.3-1.8,3.8-1.8c3.7,0,6.2,3.1,6.2,6.6
			c0,3.6-2.5,6.5-6.2,6.5c-1.4,0-2.9-0.5-3.8-1.6v7.3h-4.4v-18.5h4.4V1159.9z M516.9,1164.7c0,1.6,1,2.8,2.8,2.8
			c1.8,0,2.8-1.2,2.8-2.8c0-1.5-1-2.8-2.8-2.8C517.9,1161.9,516.9,1163.1,516.9,1164.7z"/>
		<path id="XMLID_519_" class="st2" d="M533.6,1160.5L533.6,1160.5c0.9-1.5,2.3-2.2,4-2.2h0.8v4.2c-0.6-0.3-1.2-0.4-1.8-0.4
			c-2.4,0-3,1.6-3,3.7v5h-4.4v-12.3h4.4V1160.5z"/>
		<path id="XMLID_516_" class="st2" d="M553.6,1164.7c0,4.2-3.5,6.6-7.4,6.6c-3.9,0-7.4-2.4-7.4-6.6s3.5-6.6,7.4-6.6
			C550.1,1158.1,553.6,1160.5,553.6,1164.7z M543.3,1164.7c0,1.6,1,2.8,2.8,2.8c1.8,0,2.8-1.2,2.8-2.8c0-1.5-1-2.8-2.8-2.8
			C544.4,1161.9,543.3,1163.1,543.3,1164.7z"/>
		<path id="XMLID_513_" class="st2" d="M555.4,1150.9h4.4v8.8c0.9-1.1,2.4-1.6,3.8-1.6c3.6,0,6.2,3,6.2,6.6c0,3.6-2.5,6.6-6.2,6.6
			c-1.4,0-2.9-0.6-3.7-1.8h0v1.4h-4.4V1150.9z M559.6,1164.7c0,1.6,1,2.8,2.8,2.8c1.8,0,2.8-1.2,2.8-2.8c0-1.5-1-2.8-2.8-2.8
			C560.6,1161.9,559.6,1163.1,559.6,1164.7z"/>
		<path id="XMLID_510_" class="st2" d="M585.4,1170.8H581v-1.4h0c-0.8,1.2-2.3,1.8-3.7,1.8c-3.6,0-6.2-3-6.2-6.6s2.5-6.6,6.2-6.6
			c1.4,0,2.9,0.5,3.8,1.6v-1.2h4.4V1170.8z M575.5,1164.7c0,1.6,1,2.8,2.8,2.8c1.8,0,2.8-1.2,2.8-2.8c0-1.5-1-2.8-2.8-2.8
			C576.5,1161.9,575.5,1163.1,575.5,1164.7z"/>
		<path id="XMLID_508_" class="st2" d="M597.1,1162.5c-0.6-0.5-1.4-0.9-2.3-0.9c-1.7,0-3,1.3-3,3c0,1.8,1.3,3,3.1,3
			c0.8,0,1.6-0.3,2.2-0.8v3.7c-1,0.5-2,0.7-3.1,0.7c-3.6,0-6.7-2.7-6.7-6.4c0-4,3-6.7,6.9-6.7c1,0,2,0.2,2.9,0.7V1162.5z"/>
		<path id="XMLID_505_" class="st2" d="M604.5,1153.8c0,1.3-1.1,2.4-2.4,2.4c-1.3,0-2.4-1.1-2.4-2.4c0-1.3,1.1-2.4,2.4-2.4
			C603.4,1151.3,604.5,1152.4,604.5,1153.8z M604.2,1170.8h-4.4v-12.3h4.4V1170.8z"/>
		<path id="XMLID_501_" class="st2" d="M621,1164.7c0,4.2-3.5,6.6-7.4,6.6c-3.9,0-7.4-2.4-7.4-6.6s3.5-6.6,7.4-6.6
			C617.6,1158.1,621,1160.5,621,1164.7z M610.8,1164.7c0,1.6,1,2.8,2.8,2.8c1.8,0,2.8-1.2,2.8-2.8c0-1.5-1-2.8-2.8-2.8
			C611.8,1161.9,610.8,1163.1,610.8,1164.7z M613.1,1156.7l-1.9-1.4l3.4-4.1l2.7,1.9L613.1,1156.7z"/>
		<path id="XMLID_499_" class="st2" d="M627.3,1160.1L627.3,1160.1c1.1-1.5,2.3-2,4-2c3.3,0,4.6,2.1,4.6,5.1v7.6h-4.4v-6
			c0-1.2,0.2-3.2-2-3.2c-1.8,0-2.3,1.3-2.3,2.9v6.4H623v-12.3h4.4V1160.1z"/>
	</g>
</g>
<polygon id="XMLID_5500_" class="st3" points="515.9,220.8 507.1,205.5 498.2,190.2 515.9,190.2 533.6,190.2 524.7,205.5 "/>
<polygon id="XMLID_5495_" class="st3" points="515.9,432.8 507.1,417.5 498.2,402.2 515.9,402.2 533.6,402.2 524.7,417.5 "/>
<polygon id="XMLID_5494_" class="st3" points="515.9,644.8 507.1,629.5 498.2,614.2 515.9,614.2 533.6,614.2 524.7,629.5 "/>
<polygon id="XMLID_5493_" class="st3" points="515.9,856.8 507.1,841.5 498.2,826.2 515.9,826.2 533.6,826.2 524.7,841.5 "/>
<polygon id="XMLID_5492_" class="st3" points="515.9,1068.8 507.1,1053.5 498.2,1038.2 515.9,1038.2 533.6,1038.2 524.7,1053.5 "/>
</svg>
