<?xml version="1.0" encoding="utf-8"?>
<!-- Generator: Adobe Illustrator 21.0.2, SVG Export Plug-In . SVG Version: 6.00 Build 0)  -->
<svg version="1.1" id="Layer_1" xmlns="http://www.w3.org/2000/svg" xmlns:xlink="http://www.w3.org/1999/xlink" x="0px" y="0px"
	 viewBox="0 0 998.6 887.1" style="enable-background:new 0 0 998.6 887.1;" xml:space="preserve">
<style type="text/css">
	.st0{fill:none;stroke:#E42527;stroke-width:4;stroke-miterlimit:10;}
	.st1{fill:#D81117;}
	.st2{fill:#929191;}
	.st3{fill:#9D9D9C;}
	.st4{fill:#FFFFFF;}
	.st5{fill:#E42527;}
</style>
<line id="XMLID_4188_" class="st0" x1="497.7" y1="88.5" x2="497.7" y2="864.6"/>
<rect id="XMLID_4187_" x="99.5" y="409.4" class="st1" width="223.2" height="101"/>
<rect id="XMLID_4186_" x="99.5" y="611.1" class="st2" width="223.2" height="101"/>
<rect id="XMLID_4185_" x="387.8" class="st3" width="223.2" height="101"/>
<rect id="XMLID_4184_" x="663.8" y="131" class="st3" width="236.2" height="101"/>
<g id="XMLID_16729_">
	<g>
		<path id="XMLID_1220_" class="st4" d="M134,441.9l2.7-6.8h3.1l-4.8,11.1h-2.2l-4.7-11.1h3.1L134,441.9z"/>
		<path id="XMLID_1217_" class="st4" d="M145.6,437.3c0,1.5-1.4,2.4-3,2.4c-1.6,0-3-0.9-3-2.4c0-1.5,1.4-2.4,3-2.4
			C144.2,434.8,145.6,435.7,145.6,437.3z M141.5,437.3c0,0.6,0.5,1,1.1,1c0.6,0,1.1-0.4,1.1-1c0-0.6-0.5-1-1.1-1
			C142,436.2,141.5,436.7,141.5,437.3z"/>
		<path id="XMLID_1213_" class="st4" d="M151.7,446.3v-11.1h4.1c2,0,3.3,0.8,3.3,2.9c0,1-0.3,1.8-1.2,2.3v0c1.6,0.2,2.3,1.3,2.3,2.8
			c0,2.3-2,3.1-4,3.1H151.7z M154.5,439.5h0.3c0.8,0,1.6-0.1,1.6-1.1c0-1-0.9-1.1-1.7-1.1h-0.2V439.5z M154.5,444h0.4
			c0.9,0,2.3,0,2.3-1.2c0-1.3-1.4-1.2-2.4-1.2h-0.3V444z"/>
		<path id="XMLID_1210_" class="st4" d="M166.7,437.3c0,1.5-1.4,2.4-3,2.4c-1.6,0-3-0.9-3-2.4c0-1.5,1.4-2.4,3-2.4
			C165.3,434.8,166.7,435.7,166.7,437.3z M162.6,437.3c0,0.6,0.5,1,1.1,1c0.6,0,1.1-0.4,1.1-1c0-0.6-0.5-1-1.1-1
			C163.1,436.2,162.6,436.7,162.6,437.3z"/>
		<path id="XMLID_1207_" class="st4" d="M175.6,444.3l-0.8,1.9h-3.1l4.3-11.1h3.2l4.2,11.1h-3.1l-0.7-1.9H175.6z M177.6,438.6
			L177.6,438.6l-1.2,3.5h2.4L177.6,438.6z"/>
		<path id="XMLID_1204_" class="st4" d="M193.5,446.3h-3.6l-2.7-4.3h0v4.3h-2.9v-11.1h4.3c2.2,0,3.9,1,3.9,3.4
			c0,1.5-0.9,2.9-2.4,3.1L193.5,446.3z M187.2,440.1h0.3c0.9,0,2-0.2,2-1.4c0-1.2-1.1-1.4-2-1.4h-0.3V440.1z"/>
		<path id="XMLID_1202_" class="st4" d="M197.2,437.6v1.9h3.3v2.4h-3.3v1.9h3.4v2.4h-6.3v-11.1h6.3v2.4H197.2z"/>
		<path id="XMLID_1199_" class="st4" d="M205.3,444.3l-0.8,1.9h-3.1l4.3-11.1h3.2l4.2,11.1H210l-0.7-1.9H205.3z M207.3,438.6
			L207.3,438.6l-1.2,3.5h2.4L207.3,438.6z"/>
		<path id="XMLID_1197_" class="st4" d="M223.4,446.3h-2.9v-8.7h-2.4v-2.4h7.7v2.4h-2.4V446.3z"/>
		<path id="XMLID_1195_" class="st4" d="M229.8,437.6v1.9h3.3v2.4h-3.3v1.9h3.4v2.4h-6.3v-11.1h6.3v2.4H229.8z"/>
		<path id="XMLID_1193_" class="st4" d="M242.9,438.9c-0.6-0.8-1.5-1.2-2.5-1.2c-1.8,0-3,1.4-3,3.1c0,1.8,1.2,3,3,3
			c0.9,0,1.9-0.5,2.5-1.2v3.5c-1,0.3-1.7,0.5-2.6,0.5c-1.5,0-3-0.6-4.2-1.6c-1.2-1.1-1.8-2.6-1.8-4.2c0-1.5,0.6-3,1.6-4.1
			c1.1-1.1,2.7-1.8,4.2-1.8c0.9,0,1.8,0.2,2.6,0.6V438.9z"/>
		<path id="XMLID_1191_" class="st4" d="M244.7,435.1h2.9l5.3,6.8h0v-6.8h2.9v11.1h-2.9l-5.3-6.8h0v6.8h-2.9V435.1z"/>
		<path id="XMLID_1189_" class="st4" d="M260.6,446.3h-2.9v-11.1h2.9V446.3z"/>
		<path id="XMLID_1187_" class="st4" d="M270.5,438.9c-0.6-0.8-1.5-1.2-2.5-1.2c-1.8,0-3,1.4-3,3.1c0,1.8,1.2,3,3,3
			c0.9,0,1.9-0.5,2.5-1.2v3.5c-1,0.3-1.7,0.5-2.6,0.5c-1.5,0-3-0.6-4.2-1.6c-1.2-1.1-1.8-2.6-1.8-4.2c0-1.5,0.6-3,1.6-4.1
			c1.1-1.1,2.7-1.8,4.2-1.8c0.9,0,1.8,0.2,2.6,0.6V438.9z"/>
		<path id="XMLID_1184_" class="st4" d="M275.1,444.3l-0.8,1.9h-3.1l4.3-11.1h3.2l4.2,11.1h-3.1l-0.7-1.9H275.1z M277.1,438.6
			L277.1,438.6l-1.2,3.5h2.4L277.1,438.6z"/>
		<path id="XMLID_1182_" class="st4" d="M176.7,452.8h3.5l2.1,3l2.1-3h3.5l-4.1,5.8v5.3h-2.9v-5.3L176.7,452.8z"/>
		<path id="XMLID_1180_" class="st4" d="M196.4,461.5h3.5v2.4h-6.4v-11.1h2.9V461.5z"/>
		<path id="XMLID_1178_" class="st4" d="M203.7,455.3v1.9h3.3v2.4h-3.3v1.9h3.4v2.4h-6.3v-11.1h6.3v2.4H203.7z"/>
		<path id="XMLID_1176_" class="st4" d="M220,457.8c0,1.6-0.1,3-1.1,4.4c-1.1,1.5-2.7,2.2-4.6,2.2c-3.5,0-5.9-2.4-5.9-5.9
			c0-3.6,2.4-6,6-6c2.3,0,4.1,1,5,3.1l-2.7,1.2c-0.4-1.1-1.2-1.8-2.4-1.8c-1.9,0-2.9,1.8-2.9,3.5c0,1.7,1,3.5,2.9,3.5
			c1.3,0,2.2-0.6,2.3-1.9h-2.4v-2.3H220z"/>
		<path id="XMLID_1173_" class="st4" d="M224.2,462l-0.8,1.9h-3.1l4.3-11.1h3.2L232,464h-3.1l-0.7-1.9H224.2z M226.2,456.3
			L226.2,456.3l-1.2,3.5h2.4L226.2,456.3z"/>
		<path id="XMLID_1171_" class="st4" d="M235.8,461.5h3.5v2.4h-6.4v-11.1h2.9V461.5z"/>
		<path id="XMLID_1168_" class="st4" d="M151.4,481.7h-3.6l-2.7-4.3h0v4.3h-2.9v-11.1h4.3c2.2,0,3.9,1,3.9,3.4
			c0,1.5-0.9,2.9-2.4,3.1L151.4,481.7z M145,475.5h0.3c0.9,0,2-0.2,2-1.4c0-1.2-1.1-1.4-2-1.4H145V475.5z"/>
		<path id="XMLID_1165_" class="st4" d="M159.9,478.3h-5.7c0,1.1,0.6,1.7,1.7,1.7c0.6,0,1-0.2,1.3-0.7h2.6c-0.2,0.9-0.7,1.5-1.4,2
			c-0.7,0.4-1.5,0.6-2.4,0.6c-2.5,0-4.4-1.4-4.4-4c0-2.5,1.7-4,4.2-4c2.6,0,4.1,1.6,4.1,4.2V478.3z M157.4,476.8
			c-0.1-0.7-0.8-1.2-1.5-1.2c-0.8,0-1.4,0.4-1.6,1.2H157.4z"/>
		<path id="XMLID_1163_" class="st4" d="M164.8,478l1.8-3.9h3l-4,7.6h-1.7l-4-7.6h3L164.8,478z"/>
		<path id="XMLID_1160_" class="st4" d="M173.1,471.2c0,0.8-0.7,1.5-1.5,1.5c-0.8,0-1.5-0.7-1.5-1.5c0-0.8,0.7-1.5,1.5-1.5
			C172.4,469.7,173.1,470.4,173.1,471.2z M173,481.7h-2.7v-7.6h2.7V481.7z"/>
		<path id="XMLID_1158_" class="st4" d="M179.7,476c-0.4-0.2-1-0.4-1.4-0.4c-0.3,0-0.8,0.1-0.8,0.5c0,0.5,0.8,0.6,1.2,0.7
			c1.3,0.3,2.2,0.8,2.2,2.2c0,2-1.8,2.8-3.6,2.8c-1.1,0-2.1-0.3-3.1-0.9l1-1.9c0.5,0.4,1.5,0.8,2.1,0.8c0.3,0,0.8-0.2,0.8-0.6
			c0-0.6-0.8-0.6-1.7-0.8c-0.8-0.2-1.7-0.6-1.7-2c0-1.9,1.7-2.7,3.3-2.7c0.9,0,1.7,0.1,2.5,0.5L179.7,476z"/>
		<path id="XMLID_1155_" class="st4" d="M185.1,471.2c0,0.8-0.7,1.5-1.5,1.5c-0.8,0-1.5-0.7-1.5-1.5c0-0.8,0.7-1.5,1.5-1.5
			C184.5,469.7,185.1,470.4,185.1,471.2z M185,481.7h-2.7v-7.6h2.7V481.7z"/>
		<path id="XMLID_1151_" class="st4" d="M195.3,477.9c0,2.6-2.1,4-4.6,4c-2.4,0-4.6-1.4-4.6-4c0-2.6,2.1-4,4.6-4
			C193.2,473.9,195.3,475.3,195.3,477.9z M189,477.9c0,1,0.6,1.7,1.7,1.7c1.1,0,1.7-0.7,1.7-1.7c0-0.9-0.6-1.7-1.7-1.7
			C189.7,476.2,189,477,189,477.9z M190.5,473l-1.2-0.9l2.1-2.5l1.6,1.2L190.5,473z"/>
		<path id="XMLID_1149_" class="st4" d="M199.2,475.1L199.2,475.1c0.6-0.9,1.4-1.2,2.4-1.2c2,0,2.8,1.3,2.8,3.1v4.7h-2.7V478
			c0-0.7,0.1-2-1.2-2c-1.1,0-1.4,0.8-1.4,1.8v3.9h-2.7v-7.6h2.7V475.1z"/>
		<path id="XMLID_1146_" class="st4" d="M213.9,475L213.9,475c0.5-0.8,1.4-1.1,2.3-1.1c2.3,0,3.8,1.9,3.8,4.1c0,2.2-1.5,4-3.8,4
			c-0.9,0-1.8-0.3-2.3-1v4.5h-2.7v-11.3h2.7V475z M213.8,477.9c0,1,0.6,1.7,1.7,1.7c1.1,0,1.7-0.7,1.7-1.7c0-0.9-0.6-1.7-1.7-1.7
			C214.5,476.2,213.8,477,213.8,477.9z"/>
		<path id="XMLID_1050_" class="st4" d="M224.1,475.3L224.1,475.3c0.5-0.9,1.4-1.3,2.5-1.3h0.5v2.6c-0.4-0.2-0.7-0.3-1.1-0.3
			c-1.5,0-1.9,1-1.9,2.3v3.1h-2.7v-7.6h2.7V475.3z"/>
		<path id="XMLID_1047_" class="st4" d="M235.9,478.3h-5.7c0,1.1,0.6,1.7,1.7,1.7c0.6,0,1-0.2,1.3-0.7h2.6c-0.2,0.9-0.7,1.5-1.4,2
			c-0.7,0.4-1.5,0.6-2.4,0.6c-2.5,0-4.4-1.4-4.4-4c0-2.5,1.7-4,4.2-4c2.6,0,4.1,1.6,4.1,4.2V478.3z M233.4,476.8
			c-0.1-0.7-0.8-1.2-1.5-1.2c-0.8,0-1.4,0.4-1.6,1.2H233.4z"/>
		<path id="XMLID_1045_" class="st4" d="M240.8,478l1.8-3.9h3l-4,7.6h-1.7l-4-7.6h3L240.8,478z"/>
		<path id="XMLID_1042_" class="st4" d="M249.1,471.2c0,0.8-0.7,1.5-1.5,1.5c-0.8,0-1.5-0.7-1.5-1.5c0-0.8,0.7-1.5,1.5-1.5
			C248.4,469.7,249.1,470.4,249.1,471.2z M249,481.7h-2.7v-7.6h2.7V481.7z"/>
		<path id="XMLID_1039_" class="st4" d="M259,481.7h-2.7v-0.8h0c-0.5,0.8-1.4,1.1-2.3,1.1c-2.2,0-3.8-1.9-3.8-4c0-2.2,1.5-4,3.8-4
			c0.9,0,1.8,0.3,2.3,1v-0.7h2.7V481.7z M253,477.9c0,1,0.6,1.7,1.7,1.7c1.1,0,1.7-0.7,1.7-1.7c0-0.9-0.6-1.7-1.7-1.7
			C253.6,476.2,253,477,253,477.9z"/>
		<path id="XMLID_1037_" class="st4" d="M264.2,480.2c0,0.9-0.8,1.7-1.7,1.7c-1,0-1.7-0.8-1.7-1.7c0-1,0.8-1.7,1.7-1.7
			C263.4,478.5,264.2,479.3,264.2,480.2z"/>
	</g>
</g>
<g id="XMLID_16694_">
	<g>
		<path id="XMLID_272_" class="st4" d="M136,663.2l2.7-6.8h3.1l-4.8,11.1h-2.2l-4.7-11.1h3.1L136,663.2z"/>
		<path id="XMLID_270_" class="st4" d="M145.5,658.9v1.9h3.3v2.4h-3.3v1.9h3.4v2.4h-6.3v-11.1h6.3v2.4H145.5z"/>
		<path id="XMLID_268_" class="st4" d="M150.7,656.4h2.9l5.3,6.8h0v-6.8h2.9v11.1h-2.9l-5.3-6.8h0v6.8h-2.9V656.4z"/>
		<path id="XMLID_266_" class="st4" d="M168.1,667.6h-2.9v-8.7h-2.4v-2.4h7.7v2.4h-2.4V667.6z"/>
		<path id="XMLID_263_" class="st4" d="M173.5,665.6l-0.8,1.9h-3.1l4.3-11.1h3.2l4.2,11.1h-3.1l-0.7-1.9H173.5z M175.5,659.9
			L175.5,659.9l-1.2,3.5h2.4L175.5,659.9z"/>
		<path id="XMLID_261_" class="st4" d="M182.2,656.4h2.9l5.3,6.8h0v-6.8h2.9v11.1h-2.9l-5.3-6.8h0v6.8h-2.9V656.4z"/>
		<path id="XMLID_259_" class="st4" d="M198.1,667.6h-2.9v-11.1h2.9V667.6z"/>
		<path id="XMLID_257_" class="st4" d="M202.9,665.1h3.5v2.4H200v-11.1h2.9V665.1z"/>
		<path id="XMLID_255_" class="st4" d="M210.2,665.1h3.5v2.4h-6.4v-11.1h2.9V665.1z"/>
		<path id="XMLID_252_" class="st4" d="M217.4,665.6l-0.8,1.9h-3.1l4.3-11.1h3.2l4.2,11.1h-3.1l-0.7-1.9H217.4z M219.5,659.9
			L219.5,659.9l-1.2,3.5h2.4L219.5,659.9z"/>
		<path id="XMLID_249_" class="st4" d="M240.8,656.4v6.3c0,1.4-0.1,2.8-1.2,3.9c-0.9,0.9-2.4,1.2-3.7,1.2s-2.8-0.3-3.7-1.2
			c-1.1-1.1-1.2-2.5-1.2-3.9v-6.3h2.9v5.9c0,1.4,0.1,3,2,3c1.9,0,2-1.6,2-3v-5.9H240.8z M235.6,655.8l-1.2-0.9l2.1-2.5l1.6,1.2
			L235.6,655.8z"/>
		<path id="XMLID_247_" class="st4" d="M242.7,656.4h2.9l5.3,6.8h0v-6.8h2.9v11.1h-2.9l-5.3-6.8h0v6.8h-2.9V656.4z"/>
		<path id="XMLID_245_" class="st4" d="M258.6,667.6h-2.9v-11.1h2.9V667.6z"/>
		<path id="XMLID_243_" class="st4" d="M268.4,660.2c-0.6-0.8-1.5-1.2-2.5-1.2c-1.8,0-3,1.4-3,3.1c0,1.8,1.2,3,3,3
			c0.9,0,1.9-0.5,2.5-1.2v3.5c-1,0.3-1.7,0.5-2.6,0.5c-1.5,0-3-0.6-4.2-1.6c-1.2-1.1-1.8-2.6-1.8-4.2c0-1.5,0.6-3,1.6-4.1
			c1.1-1.1,2.7-1.8,4.2-1.8c0.9,0,1.8,0.2,2.6,0.6V660.2z"/>
		<path id="XMLID_240_" class="st4" d="M273,665.6l-0.8,1.9h-3.1l4.3-11.1h3.2l4.2,11.1h-3.1l-0.7-1.9H273z M275,659.9L275,659.9
			l-1.2,3.5h2.4L275,659.9z"/>
	</g>
</g>
<g id="XMLID_16600_">
	<g>
		<path id="XMLID_1142_" class="st4" d="M410.9,48.6l-0.8,1.9h-3.1l4.3-11.1h3.2l4.2,11.1h-3.1l-0.7-1.9H410.9z M412.9,42.8
			L412.9,42.8l-1.2,3.5h2.4L412.9,42.8z"/>
		<path id="XMLID_1138_" class="st4" d="M419.6,50.5V39.4h4.1c2,0,3.3,0.8,3.3,2.9c0,1-0.3,1.8-1.2,2.3v0c1.6,0.2,2.3,1.3,2.3,2.8
			c0,2.3-2,3.1-4,3.1H419.6z M422.5,43.8h0.3c0.8,0,1.6-0.1,1.6-1.1c0-1-0.9-1.1-1.7-1.1h-0.2V43.8z M422.5,48.3h0.4
			c0.9,0,2.3,0,2.3-1.2c0-1.3-1.4-1.2-2.4-1.2h-0.3V48.3z"/>
		<path id="XMLID_1135_" class="st4" d="M441.3,44.7c0,3.6-2.6,6.1-6.2,6.1s-6.2-2.5-6.2-6.1c0-3.4,3-5.7,6.2-5.7
			C438.4,39,441.3,41.4,441.3,44.7z M432,44.8c0,1.9,1.4,3.3,3.1,3.3c1.7,0,3.1-1.4,3.1-3.3c0-1.5-1.4-2.9-3.1-2.9
			C433.5,41.8,432,43.2,432,44.8z"/>
		<path id="XMLID_1133_" class="st4" d="M453.8,44.3c0,1.6-0.1,3-1.1,4.4c-1.1,1.5-2.7,2.2-4.6,2.2c-3.5,0-5.9-2.4-5.9-5.9
			c0-3.6,2.4-6,6-6c2.3,0,4.1,1,5,3.1l-2.7,1.2c-0.4-1.1-1.2-1.8-2.4-1.8c-1.9,0-2.9,1.8-2.9,3.5c0,1.7,1,3.5,2.9,3.5
			c1.3,0,2.2-0.6,2.3-1.9H448v-2.3H453.8z"/>
		<path id="XMLID_1130_" class="st4" d="M457.9,48.6l-0.8,1.9h-3.1l4.3-11.1h3.2l4.2,11.1h-3.1l-0.7-1.9H457.9z M460,42.8L460,42.8
			l-1.2,3.5h2.4L460,42.8z"/>
		<path id="XMLID_1127_" class="st4" d="M466.6,39.4h4.1c3.1,0,5.7,2.4,5.7,5.6c0,3.1-2.6,5.6-5.7,5.6h-4.1V39.4z M469.5,48.1h0.6
			c1.7,0,3.2-0.9,3.2-3.1c0-2-1.3-3.1-3.2-3.1h-0.7V48.1z"/>
		<path id="XMLID_1124_" class="st4" d="M489.5,44.7c0,3.6-2.6,6.1-6.2,6.1s-6.2-2.5-6.2-6.1c0-3.4,3-5.7,6.2-5.7
			C486.5,39,489.5,41.4,489.5,44.7z M480.2,44.8c0,1.9,1.4,3.3,3.1,3.3c1.7,0,3.1-1.4,3.1-3.3c0-1.5-1.4-2.9-3.1-2.9
			C481.6,41.8,480.2,43.2,480.2,44.8z"/>
		<path id="XMLID_1122_" class="st4" d="M505.5,39.4v6.3c0,1.4-0.1,2.8-1.2,3.9c-0.9,0.9-2.4,1.2-3.7,1.2s-2.8-0.3-3.7-1.2
			c-1.1-1.1-1.2-2.5-1.2-3.9v-6.3h2.9v5.9c0,1.4,0.1,3,2,3c1.9,0,2-1.6,2-3v-5.9H505.5z"/>
		<path id="XMLID_1119_" class="st4" d="M516.6,50.5H513l-2.7-4.3h0v4.3h-2.9V39.4h4.3c2.2,0,3.9,1,3.9,3.4c0,1.5-0.9,2.9-2.4,3.1
			L516.6,50.5z M510.2,44.4h0.3c0.9,0,2-0.2,2-1.4c0-1.2-1.1-1.4-2-1.4h-0.3V44.4z"/>
		<path id="XMLID_1115_" class="st4" d="M517.4,50.5V39.4h4.1c2,0,3.3,0.8,3.3,2.9c0,1-0.3,1.8-1.2,2.3v0c1.6,0.2,2.3,1.3,2.3,2.8
			c0,2.3-2,3.1-4,3.1H517.4z M520.3,43.8h0.3c0.8,0,1.6-0.1,1.6-1.1c0-1-0.9-1.1-1.7-1.1h-0.2V43.8z M520.3,48.3h0.4
			c0.9,0,2.3,0,2.3-1.2c0-1.3-1.4-1.2-2.4-1.2h-0.3V48.3z"/>
		<path id="XMLID_1112_" class="st4" d="M530.2,48.6l-0.8,1.9h-3.1l4.3-11.1h3.2l4.2,11.1h-3.1l-0.7-1.9H530.2z M532.2,42.8
			L532.2,42.8l-1.2,3.5h2.4L532.2,42.8z"/>
		<path id="XMLID_1110_" class="st4" d="M538.9,39.4h2.9l5.3,6.8h0v-6.8h2.9v11.1h-2.9l-5.3-6.8h0v6.8h-2.9V39.4z"/>
		<path id="XMLID_1107_" class="st4" d="M554.8,50.5h-2.9V39.4h2.9V50.5z"/>
		<path id="XMLID_1105_" class="st4" d="M562.8,42.2c-0.5-0.4-1.2-0.7-1.9-0.7c-0.5,0-1.2,0.3-1.2,0.9c0,0.6,0.8,0.9,1.3,1.1
			l0.7,0.2c1.5,0.5,2.7,1.2,2.7,3c0,1.1-0.3,2.2-1.2,3c-0.9,0.7-2,1-3.2,1c-1.4,0-2.8-0.5-3.9-1.3l1.2-2.3c0.7,0.6,1.6,1.2,2.6,1.2
			c0.7,0,1.4-0.3,1.4-1.1c0-0.8-1.1-1.1-1.8-1.3c-1.8-0.5-3-1-3-3.1c0-2.3,1.6-3.7,3.8-3.7c1.1,0,2.5,0.4,3.5,0.9L562.8,42.2z"/>
		<path id="XMLID_1103_" class="st4" d="M567,39.4h2.8l2.3,5.9l2.4-5.9h2.9l1.7,11.1h-2.9l-0.8-6.4h0l-2.7,6.4h-1.2l-2.6-6.4h0
			l-0.9,6.4h-2.9L567,39.4z"/>
		<path id="XMLID_1100_" class="st4" d="M592,44.7c0,3.6-2.6,6.1-6.2,6.1s-6.2-2.5-6.2-6.1c0-3.4,3-5.7,6.2-5.7
			C589,39,592,41.4,592,44.7z M582.7,44.8c0,1.9,1.4,3.3,3.1,3.3c1.7,0,3.1-1.4,3.1-3.3c0-1.5-1.4-2.9-3.1-2.9
			C584.1,41.8,582.7,43.2,582.7,44.8z"/>
		<path id="XMLID_1098_" class="st4" d="M421.4,63.8l2.7-6.8h3.1l-4.8,11.1h-2.2l-4.7-11.1h3.1L421.4,63.8z"/>
		<path id="XMLID_1095_" class="st4" d="M434.6,64.9h-5.7c0,1.1,0.6,1.7,1.7,1.7c0.6,0,1-0.2,1.3-0.7h2.6c-0.2,0.9-0.7,1.5-1.4,2
			c-0.7,0.4-1.5,0.6-2.4,0.6c-2.5,0-4.4-1.4-4.4-4c0-2.5,1.7-4,4.2-4c2.6,0,4.1,1.6,4.1,4.2V64.9z M432.1,63.3
			c-0.1-0.7-0.8-1.2-1.5-1.2c-0.8,0-1.4,0.4-1.6,1.2H432.1z"/>
		<path id="XMLID_1093_" class="st4" d="M438.5,61.9L438.5,61.9c0.5-0.9,1.4-1.3,2.5-1.3h0.5v2.6c-0.4-0.2-0.7-0.3-1.1-0.3
			c-1.5,0-1.9,1-1.9,2.3v3.1h-2.7v-7.6h2.7V61.9z"/>
		<path id="XMLID_1090_" class="st4" d="M445.3,57.7c0,0.8-0.7,1.5-1.5,1.5c-0.8,0-1.5-0.7-1.5-1.5c0-0.8,0.7-1.5,1.5-1.5
			C444.6,56.2,445.3,56.9,445.3,57.7z M445.2,68.2h-2.7v-7.6h2.7V68.2z"/>
		<path id="XMLID_1086_" class="st4" d="M449.8,68.2h-2.7v-5.4h-0.9v-2.2h0.9v-1c0-1,0-1.8,0.8-2.7c0.7-0.8,1.6-1.2,2.6-1.2
			c0.4,0,0.8,0.1,1.2,0.3v2.3c-0.3-0.1-0.6-0.3-0.9-0.3c-0.7,0-0.9,0.4-0.9,1.3v1.2h1.9v2.2h-1.9V68.2z M455.3,57.7
			c0,0.8-0.7,1.5-1.5,1.5c-0.8,0-1.5-0.7-1.5-1.5c0-0.8,0.7-1.5,1.5-1.5C454.7,56.2,455.3,56.9,455.3,57.7z M455.2,68.2h-2.7v-7.6
			h2.7V68.2z"/>
		<path id="XMLID_1084_" class="st4" d="M462.4,63.1c-0.4-0.3-0.9-0.5-1.4-0.5c-1,0-1.8,0.8-1.8,1.8c0,1.1,0.8,1.9,1.9,1.9
			c0.5,0,1-0.2,1.3-0.5V68c-0.6,0.3-1.2,0.4-1.9,0.4c-2.2,0-4.1-1.7-4.1-4c0-2.4,1.9-4.1,4.2-4.1c0.6,0,1.2,0.1,1.8,0.4V63.1z"/>
		<path id="XMLID_1081_" class="st4" d="M472.3,68.2h-2.7v-0.8h0c-0.5,0.8-1.4,1.1-2.3,1.1c-2.2,0-3.8-1.9-3.8-4s1.5-4,3.8-4
			c0.9,0,1.8,0.3,2.3,1v-0.7h2.7V68.2z M466.3,64.4c0,1,0.6,1.7,1.7,1.7c1.1,0,1.7-0.7,1.7-1.7c0-0.9-0.6-1.7-1.7-1.7
			C466.9,62.7,466.3,63.5,466.3,64.4z"/>
		<path id="XMLID_1079_" class="st4" d="M479.6,63.1c-0.4-0.3-0.9-0.5-1.4-0.5c-1,0-1.8,0.8-1.8,1.8c0,1.1,0.8,1.9,1.9,1.9
			c0.5,0,1-0.2,1.3-0.5V68c-0.6,0.3-1.2,0.4-1.9,0.4c-2.2,0-4.1-1.7-4.1-4c0-2.4,1.9-4.1,4.2-4.1c0.6,0,1.2,0.1,1.8,0.4V63.1z"/>
		<path id="XMLID_1076_" class="st4" d="M484.1,57.7c0,0.8-0.7,1.5-1.5,1.5c-0.8,0-1.5-0.7-1.5-1.5c0-0.8,0.7-1.5,1.5-1.5
			C483.4,56.2,484.1,56.9,484.1,57.7z M483.9,68.2h-2.7v-7.6h2.7V68.2z"/>
		<path id="XMLID_1072_" class="st4" d="M494.3,64.4c0,2.6-2.1,4-4.6,4c-2.4,0-4.6-1.4-4.6-4c0-2.6,2.1-4,4.6-4
			C492.1,60.4,494.3,61.9,494.3,64.4z M488,64.4c0,1,0.6,1.7,1.7,1.7c1.1,0,1.7-0.7,1.7-1.7c0-0.9-0.6-1.7-1.7-1.7
			C488.6,62.7,488,63.5,488,64.4z M489.4,59.5l-1.2-0.9l2.1-2.5l1.6,1.2L489.4,59.5z"/>
		<path id="XMLID_1070_" class="st4" d="M498.2,61.6L498.2,61.6c0.6-0.9,1.4-1.2,2.4-1.2c2,0,2.8,1.3,2.8,3.1v4.7h-2.7v-3.7
			c0-0.7,0.1-2-1.2-2c-1.1,0-1.4,0.8-1.4,1.8v3.9h-2.7v-7.6h2.7V61.6z"/>
		<path id="XMLID_1067_" class="st4" d="M518.1,64.9h-5.7c0,1.1,0.6,1.7,1.7,1.7c0.6,0,1-0.2,1.3-0.7h2.6c-0.2,0.9-0.7,1.5-1.4,2
			c-0.7,0.4-1.5,0.6-2.4,0.6c-2.5,0-4.4-1.4-4.4-4c0-2.5,1.7-4,4.2-4c2.6,0,4.1,1.6,4.1,4.2V64.9z M515.6,63.3
			c-0.1-0.7-0.8-1.2-1.5-1.2c-0.8,0-1.4,0.4-1.6,1.2H515.6z"/>
		<path id="XMLID_1065_" class="st4" d="M527.3,68.2h-2.9V57.1h2.9V68.2z"/>
		<path id="XMLID_1063_" class="st4" d="M531.8,61.6L531.8,61.6c0.6-0.9,1.4-1.2,2.4-1.2c2,0,2.8,1.3,2.8,3.1v4.7h-2.7v-3.7
			c0-0.7,0.1-2-1.2-2c-1.1,0-1.4,0.8-1.4,1.8v3.9h-2.7v-7.6h2.7V61.6z"/>
		<path id="XMLID_1061_" class="st4" d="M541.8,68.2h-2.7v-5.4h-0.9v-2.2h0.9v-1c0-1,0-1.8,0.8-2.7c0.7-0.8,1.6-1.2,2.6-1.2
			c0.4,0,0.8,0.1,1.2,0.3v2.3c-0.3-0.1-0.6-0.3-0.9-0.3c-0.7,0-0.9,0.4-0.9,1.3v1.2h1.9v2.2h-1.9V68.2z"/>
		<path id="XMLID_1058_" class="st4" d="M553.2,64.4c0,2.6-2.1,4-4.6,4c-2.4,0-4.6-1.4-4.6-4c0-2.6,2.1-4,4.6-4
			C551,60.4,553.2,61.9,553.2,64.4z M546.9,64.4c0,1,0.6,1.7,1.7,1.7s1.7-0.7,1.7-1.7c0-0.9-0.6-1.7-1.7-1.7S546.9,63.5,546.9,64.4z
			"/>
		<path id="XMLID_1056_" class="st4" d="M557.1,61.9L557.1,61.9c0.5-0.9,1.4-1.3,2.5-1.3h0.5v2.6c-0.4-0.2-0.7-0.3-1.1-0.3
			c-1.5,0-1.9,1-1.9,2.3v3.1h-2.7v-7.6h2.7V61.9z"/>
		<path id="XMLID_1054_" class="st4" d="M563.7,61.6L563.7,61.6c0.7-0.8,1.4-1.2,2.4-1.2c1.1,0,2,0.4,2.6,1.4
			c0.5-0.9,1.5-1.4,2.6-1.4c1.9,0,2.6,1.3,2.6,3v4.8h-2.7v-3.6c0-0.8,0-2.1-1.1-2.1c-1.2,0-1.3,1.2-1.3,2.1v3.6h-2.7v-3.6
			c0-0.8,0-2.1-1.2-2.1c-1.2,0-1.2,1.3-1.2,2.1v3.6h-2.7v-7.6h2.7V61.6z"/>
		<path id="XMLID_1051_" class="st4" d="M583.4,64.9h-5.7c0,1.1,0.6,1.7,1.7,1.7c0.6,0,1-0.2,1.3-0.7h2.6c-0.2,0.9-0.7,1.5-1.4,2
			c-0.7,0.4-1.5,0.6-2.4,0.6c-2.5,0-4.4-1.4-4.4-4c0-2.5,1.7-4,4.2-4c2.6,0,4.1,1.6,4.1,4.2V64.9z M580.9,63.3
			c-0.1-0.7-0.8-1.2-1.5-1.2c-0.8,0-1.4,0.4-1.6,1.2H580.9z"/>
	</g>
</g>
<g id="XMLID_16540_">
	<g>
		<path id="XMLID_565_" class="st4" d="M720.6,169.1c-0.6-0.8-1.5-1.2-2.5-1.2c-1.8,0-3,1.4-3,3.1c0,1.8,1.2,3,3,3
			c0.9,0,1.9-0.5,2.5-1.2v3.5c-1,0.3-1.7,0.5-2.6,0.5c-1.5,0-3-0.6-4.2-1.6c-1.2-1.1-1.8-2.6-1.8-4.2c0-1.5,0.6-3,1.6-4.1
			c1.1-1.1,2.7-1.8,4.2-1.8c0.9,0,1.8,0.2,2.6,0.6V169.1z"/>
		<path id="XMLID_562_" class="st4" d="M734.1,170.7c0,3.6-2.6,6.1-6.2,6.1s-6.2-2.5-6.2-6.1c0-3.4,3-5.7,6.2-5.7
			C731.2,165,734.1,167.3,734.1,170.7z M724.8,170.7c0,1.9,1.4,3.3,3.1,3.3c1.7,0,3.1-1.4,3.1-3.3c0-1.5-1.4-2.9-3.1-2.9
			C726.2,167.8,724.8,169.2,724.8,170.7z"/>
		<path id="XMLID_560_" class="st4" d="M735.5,165.3h2.9l5.3,6.8h0v-6.8h2.9v11.1h-2.9l-5.3-6.8h0v6.8h-2.9V165.3z"/>
		<path id="XMLID_558_" class="st4" d="M752.9,176.5H750v-8.7h-2.4v-2.4h7.7v2.4h-2.4V176.5z"/>
		<path id="XMLID_555_" class="st4" d="M765.6,176.5H762l-2.7-4.3h0v4.3h-2.9v-11.1h4.3c2.2,0,3.9,1,3.9,3.4c0,1.5-0.9,2.9-2.4,3.1
			L765.6,176.5z M759.2,170.3h0.3c0.9,0,2-0.2,2-1.4c0-1.2-1.1-1.4-2-1.4h-0.3V170.3z"/>
		<path id="XMLID_553_" class="st4" d="M769.3,176.5h-2.9v-11.1h2.9V176.5z"/>
		<path id="XMLID_549_" class="st4" d="M771.1,176.5v-11.1h4.1c2,0,3.3,0.8,3.3,2.9c0,1-0.3,1.8-1.2,2.3v0c1.6,0.2,2.3,1.3,2.3,2.8
			c0,2.3-2,3.1-4,3.1H771.1z M774,169.7h0.3c0.8,0,1.6-0.1,1.6-1.1c0-1-0.9-1.1-1.7-1.1H774V169.7z M774,174.2h0.4
			c0.9,0,2.3,0,2.3-1.2c0-1.3-1.4-1.2-2.4-1.2H774V174.2z"/>
		<path id="XMLID_547_" class="st4" d="M790.8,165.3v6.3c0,1.4-0.1,2.8-1.2,3.9c-0.9,0.9-2.4,1.2-3.7,1.2s-2.8-0.3-3.7-1.2
			c-1.1-1.1-1.2-2.5-1.2-3.9v-6.3h2.9v5.9c0,1.4,0.1,3,2,3c1.9,0,2-1.6,2-3v-5.9H790.8z"/>
		<path id="XMLID_545_" class="st4" d="M791.4,165.3h3.5l2.1,3l2.1-3h3.5l-4.1,5.8v5.3h-2.9v-5.3L791.4,165.3z"/>
		<path id="XMLID_543_" class="st4" d="M806,167.8v1.9h3.3v2.4H806v1.9h3.4v2.4h-6.3v-11.1h6.3v2.4H806z"/>
		<path id="XMLID_541_" class="st4" d="M811.3,165.3h2.9l5.3,6.8h0v-6.8h2.9v11.1h-2.9l-5.3-6.8h0v6.8h-2.9V165.3z"/>
		<path id="XMLID_539_" class="st4" d="M828.7,176.5h-2.9v-8.7h-2.4v-2.4h7.7v2.4h-2.4V176.5z"/>
		<path id="XMLID_537_" class="st4" d="M835,167.8v1.9h3.3v2.4H835v1.9h3.4v2.4h-6.3v-11.1h6.3v2.4H835z"/>
		<path id="XMLID_535_" class="st4" d="M736.1,186.8c-0.6-0.8-1.5-1.2-2.5-1.2c-1.8,0-3,1.4-3,3.1c0,1.8,1.2,3,3,3
			c0.9,0,1.9-0.5,2.5-1.2v3.5c-1,0.3-1.7,0.5-2.6,0.5c-1.5,0-3-0.6-4.2-1.6c-1.2-1.1-1.8-2.6-1.8-4.2c0-1.5,0.6-3,1.6-4.1
			c1.1-1.1,2.7-1.8,4.2-1.8c0.9,0,1.8,0.2,2.6,0.6V186.8z"/>
		<path id="XMLID_532_" class="st4" d="M746.3,190.4c0,2.6-2.1,4-4.6,4c-2.4,0-4.6-1.4-4.6-4s2.1-4,4.6-4
			C744.2,186.3,746.3,187.8,746.3,190.4z M740.1,190.4c0,1,0.6,1.7,1.7,1.7c1.1,0,1.7-0.7,1.7-1.7c0-0.9-0.6-1.7-1.7-1.7
			C740.7,188.7,740.1,189.5,740.1,190.4z"/>
		<path id="XMLID_530_" class="st4" d="M750.2,187.8L750.2,187.8c0.5-0.9,1.4-1.3,2.5-1.3h0.5v2.6c-0.4-0.2-0.7-0.3-1.1-0.3
			c-1.5,0-1.9,1-1.9,2.3v3.1h-2.7v-7.6h2.7V187.8z"/>
		<path id="XMLID_528_" class="st4" d="M756.9,187.8L756.9,187.8c0.5-0.9,1.4-1.3,2.5-1.3h0.5v2.6c-0.4-0.2-0.7-0.3-1.1-0.3
			c-1.5,0-1.9,1-1.9,2.3v3.1h-2.7v-7.6h2.7V187.8z"/>
		<path id="XMLID_497_" class="st4" d="M768.7,190.8H763c0,1.1,0.6,1.7,1.7,1.7c0.6,0,1-0.2,1.3-0.7h2.6c-0.2,0.9-0.7,1.5-1.4,2
			c-0.7,0.4-1.5,0.6-2.4,0.6c-2.5,0-4.4-1.4-4.4-4c0-2.5,1.7-4,4.2-4c2.6,0,4.1,1.6,4.1,4.2V190.8z M766.2,189.3
			c-0.1-0.7-0.8-1.2-1.5-1.2c-0.8,0-1.4,0.4-1.6,1.2H766.2z"/>
		<path id="XMLID_495_" class="st4" d="M775.4,189.1c-0.4-0.3-0.9-0.5-1.4-0.5c-1,0-1.8,0.8-1.8,1.8c0,1.1,0.8,1.9,1.9,1.9
			c0.5,0,1-0.2,1.3-0.5v2.3c-0.6,0.3-1.2,0.4-1.9,0.4c-2.2,0-4.1-1.7-4.1-4c0-2.4,1.9-4.1,4.2-4.1c0.6,0,1.2,0.1,1.8,0.4V189.1z"/>
		<path id="XMLID_493_" class="st4" d="M782.5,189.1c-0.4-0.3-0.9-0.5-1.4-0.5c-1,0-1.8,0.8-1.8,1.8c0,1.1,0.8,1.9,1.9,1.9
			c0.5,0,1-0.2,1.3-0.5v2.3c-0.6,0.3-1.2,0.4-1.9,0.4c-2.2,0-4.1-1.7-4.1-4c0-2.4,1.9-4.1,4.2-4.1c0.6,0,1.2,0.1,1.8,0.4V189.1z"/>
		<path id="XMLID_490_" class="st4" d="M787,183.7c0,0.8-0.7,1.5-1.5,1.5c-0.8,0-1.5-0.7-1.5-1.5c0-0.8,0.7-1.5,1.5-1.5
			C786.3,182.2,787,182.9,787,183.7z M786.9,194.2h-2.7v-7.6h2.7V194.2z"/>
		<path id="XMLID_487_" class="st4" d="M797.2,190.4c0,2.6-2.1,4-4.6,4c-2.4,0-4.6-1.4-4.6-4s2.1-4,4.6-4S797.2,187.8,797.2,190.4z
			 M790.9,190.4c0,1,0.6,1.7,1.7,1.7s1.7-0.7,1.7-1.7c0-0.9-0.6-1.7-1.7-1.7S790.9,189.5,790.9,190.4z"/>
		<path id="XMLID_485_" class="st4" d="M801.1,187.6L801.1,187.6c0.6-0.9,1.4-1.2,2.4-1.2c2,0,2.8,1.3,2.8,3.1v4.7h-2.7v-3.7
			c0-0.7,0.1-2-1.2-2c-1.1,0-1.4,0.8-1.4,1.8v3.9h-2.7v-7.6h2.7V187.6z"/>
		<path id="XMLID_482_" class="st4" d="M815.9,190.8h-5.7c0,1.1,0.6,1.7,1.7,1.7c0.6,0,1-0.2,1.3-0.7h2.6c-0.2,0.9-0.7,1.5-1.4,2
			c-0.7,0.4-1.5,0.6-2.4,0.6c-2.5,0-4.4-1.4-4.4-4c0-2.5,1.7-4,4.2-4c2.6,0,4.1,1.6,4.1,4.2V190.8z M813.4,189.3
			c-0.1-0.7-0.8-1.2-1.5-1.2c-0.8,0-1.4,0.4-1.6,1.2H813.4z"/>
		<path id="XMLID_480_" class="st4" d="M822.1,188.5c-0.4-0.2-1-0.4-1.4-0.4c-0.3,0-0.8,0.1-0.8,0.5c0,0.5,0.8,0.6,1.2,0.7
			c1.3,0.3,2.2,0.8,2.2,2.2c0,2-1.8,2.8-3.6,2.8c-1.1,0-2.1-0.3-3.1-0.9l1-1.9c0.5,0.4,1.5,0.8,2.1,0.8c0.3,0,0.8-0.2,0.8-0.6
			c0-0.6-0.8-0.6-1.7-0.8c-0.8-0.2-1.7-0.6-1.7-2c0-1.9,1.7-2.7,3.3-2.7c0.9,0,1.7,0.1,2.5,0.5L822.1,188.5z"/>
	</g>
</g>
<rect id="XMLID_4179_" x="387.8" y="131" class="st3" width="223.2" height="101"/>
<rect id="XMLID_4178_" x="387.8" y="262" class="st3" width="223.2" height="101"/>
<g id="XMLID_16337_">
	<g>
		<path id="XMLID_2319_" class="st4" d="M421.5,158.5l-0.8,1.9h-3.1l4.3-11.1h3.2l4.2,11.1h-3.1l-0.7-1.9H421.5z M423.5,152.8
			L423.5,152.8l-1.2,3.5h2.4L423.5,152.8z"/>
		<path id="XMLID_2316_" class="st4" d="M439.4,160.5h-3.6l-2.7-4.3h0v4.3h-2.9v-11.1h4.3c2.2,0,3.9,1,3.9,3.4
			c0,1.5-0.9,2.9-2.4,3.1L439.4,160.5z M433.1,154.3h0.3c0.9,0,2-0.2,2-1.4c0-1.2-1.1-1.4-2-1.4h-0.3V154.3z"/>
		<path id="XMLID_2314_" class="st4" d="M443.1,151.8v1.9h3.3v2.4h-3.3v1.9h3.4v2.4h-6.3v-11.1h6.3v2.4H443.1z"/>
		<path id="XMLID_2311_" class="st4" d="M451.2,158.5l-0.8,1.9h-3.1l4.3-11.1h3.2l4.2,11.1h-3.1l-0.7-1.9H451.2z M453.2,152.8
			L453.2,152.8l-1.2,3.5h2.4L453.2,152.8z"/>
		<path id="XMLID_2309_" class="st4" d="M469.3,160.5h-2.9v-8.7h-2.4v-2.4h7.7v2.4h-2.4V160.5z"/>
		<path id="XMLID_2307_" class="st4" d="M475.7,151.8v1.9h3.3v2.4h-3.3v1.9h3.4v2.4h-6.3v-11.1h6.3v2.4H475.7z"/>
		<path id="XMLID_2305_" class="st4" d="M488.8,153.1c-0.6-0.8-1.5-1.2-2.5-1.2c-1.8,0-3,1.4-3,3.1c0,1.8,1.2,3,3,3
			c0.9,0,1.9-0.5,2.5-1.2v3.5c-1,0.3-1.7,0.5-2.6,0.5c-1.5,0-3-0.6-4.2-1.6c-1.2-1.1-1.8-2.6-1.8-4.2c0-1.5,0.6-3,1.6-4.1
			c1.1-1.1,2.7-1.8,4.2-1.8c0.9,0,1.8,0.2,2.6,0.6V153.1z"/>
		<path id="XMLID_2303_" class="st4" d="M490.6,149.3h2.9l5.3,6.8h0v-6.8h2.9v11.1h-2.9l-5.3-6.8h0v6.8h-2.9V149.3z"/>
		<path id="XMLID_2301_" class="st4" d="M506.5,160.5h-2.9v-11.1h2.9V160.5z"/>
		<path id="XMLID_2299_" class="st4" d="M516.4,153.1c-0.6-0.8-1.5-1.2-2.5-1.2c-1.8,0-3,1.4-3,3.1c0,1.8,1.2,3,3,3
			c0.9,0,1.9-0.5,2.5-1.2v3.5c-1,0.3-1.7,0.5-2.6,0.5c-1.5,0-3-0.6-4.2-1.6c-1.2-1.1-1.8-2.6-1.8-4.2c0-1.5,0.6-3,1.6-4.1
			c1.1-1.1,2.7-1.8,4.2-1.8c0.9,0,1.8,0.2,2.6,0.6V153.1z"/>
		<path id="XMLID_2296_" class="st4" d="M529.9,154.7c0,3.6-2.6,6.1-6.2,6.1s-6.2-2.5-6.2-6.1c0-3.4,3-5.7,6.2-5.7
			C526.9,149,529.9,151.3,529.9,154.7z M520.6,154.7c0,1.9,1.4,3.3,3.1,3.3c1.7,0,3.1-1.4,3.1-3.3c0-1.5-1.4-2.9-3.1-2.9
			C522,151.8,520.6,153.2,520.6,154.7z"/>
		<path id="XMLID_2294_" class="st4" d="M537.3,152.2c-0.5-0.4-1.2-0.7-1.9-0.7c-0.5,0-1.2,0.3-1.2,0.9c0,0.6,0.8,0.9,1.3,1.1
			l0.7,0.2c1.5,0.5,2.7,1.2,2.7,3c0,1.1-0.3,2.2-1.2,3c-0.9,0.7-2,1-3.2,1c-1.4,0-2.8-0.5-3.9-1.3l1.2-2.3c0.7,0.6,1.6,1.2,2.6,1.2
			c0.7,0,1.4-0.3,1.4-1.1c0-0.8-1.1-1.1-1.8-1.3c-1.8-0.5-3-1-3-3.1c0-2.3,1.6-3.7,3.8-3.7c1.1,0,2.5,0.4,3.5,0.9L537.3,152.2z"/>
		<path id="XMLID_2292_" class="st4" d="M547.5,148.2l-5.6,13.6h-2.1l5.6-13.6H547.5z"/>
		<path id="XMLID_2289_" class="st4" d="M551.7,158.5l-0.8,1.9h-3.1l4.3-11.1h3.2l4.2,11.1h-3.1l-0.7-1.9H551.7z M553.7,152.8
			L553.7,152.8l-1.2,3.5h2.4L553.7,152.8z"/>
		<path id="XMLID_2286_" class="st4" d="M569.6,160.5H566l-2.7-4.3h0v4.3h-2.9v-11.1h4.3c2.2,0,3.9,1,3.9,3.4c0,1.5-0.9,2.9-2.4,3.1
			L569.6,160.5z M563.3,154.3h0.3c0.9,0,2-0.2,2-1.4c0-1.2-1.1-1.4-2-1.4h-0.3V154.3z"/>
		<path id="XMLID_2283_" class="st4" d="M580,161.2l-0.9-1c-0.9,0.5-1.9,0.7-3.1,0.7c-3.6,0-6.2-2.5-6.2-6.1c0-3.4,3-5.7,6.2-5.7
			c3.5,0,6.2,2.3,6.2,6c0,1.5-0.5,2.8-1.4,3.9l1.9,1.9L580,161.2z M578.6,156.6c0.3-0.5,0.5-1.1,0.5-1.6c0-1.7-1.4-3.2-3.1-3.2
			c-1.7,0-3.2,1.4-3.2,2.9c0,1.9,1.4,3.3,3.2,3.3c0.3,0,0.6,0,0.9-0.1l-1.8-1.8l2.7-0.3L578.6,156.6z"/>
		<path id="XMLID_2281_" class="st4" d="M418.4,178.2h-2.9v-11.1h2.9V178.2z"/>
		<path id="XMLID_2279_" class="st4" d="M422.9,171.6L422.9,171.6c0.6-0.9,1.4-1.2,2.4-1.2c2,0,2.8,1.3,2.8,3.1v4.7h-2.7v-3.7
			c0-0.7,0.1-2-1.2-2c-1.1,0-1.4,0.8-1.4,1.8v3.9h-2.7v-7.6h2.7V171.6z"/>
		<path id="XMLID_2277_" class="st4" d="M435,172.6c-0.4-0.2-1-0.4-1.4-0.4c-0.3,0-0.8,0.1-0.8,0.5c0,0.5,0.8,0.6,1.2,0.7
			c1.3,0.3,2.2,0.8,2.2,2.2c0,2-1.8,2.8-3.6,2.8c-1.1,0-2.1-0.3-3.1-0.9l1-1.9c0.5,0.4,1.5,0.8,2.1,0.8c0.3,0,0.8-0.2,0.8-0.6
			c0-0.6-0.8-0.6-1.7-0.8c-0.8-0.2-1.7-0.6-1.7-2c0-1.9,1.7-2.7,3.3-2.7c0.9,0,1.7,0.1,2.5,0.5L435,172.6z"/>
		<path id="XMLID_2274_" class="st4" d="M440.1,171.5L440.1,171.5c0.5-0.8,1.4-1.1,2.3-1.1c2.3,0,3.8,1.9,3.8,4.1c0,2.2-1.5,4-3.8,4
			c-0.9,0-1.8-0.3-2.3-1v4.5h-2.7v-11.3h2.7V171.5z M440,174.4c0,1,0.6,1.7,1.7,1.7c1.1,0,1.7-0.7,1.7-1.7c0-0.9-0.6-1.7-1.7-1.7
			C440.7,172.7,440,173.5,440,174.4z"/>
		<path id="XMLID_2271_" class="st4" d="M455.4,174.8h-5.7c0,1.1,0.6,1.7,1.7,1.7c0.6,0,1-0.2,1.3-0.7h2.6c-0.2,0.9-0.7,1.5-1.4,2
			c-0.7,0.4-1.5,0.6-2.4,0.6c-2.5,0-4.4-1.4-4.4-4c0-2.5,1.7-4,4.2-4c2.6,0,4.1,1.6,4.1,4.2V174.8z M452.9,173.3
			c-0.1-0.7-0.8-1.2-1.5-1.2c-0.8,0-1.4,0.4-1.6,1.2H452.9z"/>
		<path id="XMLID_2269_" class="st4" d="M462.1,173.1c-0.4-0.3-0.9-0.5-1.4-0.5c-1,0-1.8,0.8-1.8,1.8c0,1.1,0.8,1.9,1.9,1.9
			c0.5,0,1-0.2,1.3-0.5v2.3c-0.6,0.3-1.2,0.4-1.9,0.4c-2.2,0-4.1-1.7-4.1-4c0-2.4,1.9-4.1,4.2-4.1c0.6,0,1.2,0.1,1.8,0.4V173.1z"/>
		<path id="XMLID_2267_" class="st4" d="M469.2,173.1c-0.4-0.3-0.9-0.5-1.4-0.5c-1,0-1.8,0.8-1.8,1.8c0,1.1,0.8,1.9,1.9,1.9
			c0.5,0,1-0.2,1.3-0.5v2.3c-0.6,0.3-1.2,0.4-1.9,0.4c-2.2,0-4.1-1.7-4.1-4c0-2.4,1.9-4.1,4.2-4.1c0.6,0,1.2,0.1,1.8,0.4V173.1z"/>
		<path id="XMLID_2264_" class="st4" d="M473.7,167.7c0,0.8-0.7,1.5-1.5,1.5c-0.8,0-1.5-0.7-1.5-1.5c0-0.8,0.7-1.5,1.5-1.5
			C473,166.2,473.7,166.9,473.7,167.7z M473.5,178.2h-2.7v-7.6h2.7V178.2z"/>
		<path id="XMLID_2260_" class="st4" d="M483.9,174.4c0,2.6-2.1,4-4.6,4c-2.4,0-4.6-1.4-4.6-4s2.1-4,4.6-4
			C481.7,170.4,483.9,171.8,483.9,174.4z M477.6,174.4c0,1,0.6,1.7,1.7,1.7c1.1,0,1.7-0.7,1.7-1.7c0-0.9-0.6-1.7-1.7-1.7
			C478.2,172.7,477.6,173.5,477.6,174.4z M479,169.5l-1.2-0.9l2.1-2.5l1.6,1.2L479,169.5z"/>
		<path id="XMLID_2258_" class="st4" d="M487.8,171.6L487.8,171.6c0.6-0.9,1.4-1.2,2.4-1.2c2,0,2.8,1.3,2.8,3.1v4.7h-2.7v-3.7
			c0-0.7,0.1-2-1.2-2c-1.1,0-1.4,0.8-1.4,1.8v3.9h-2.7v-7.6h2.7V171.6z"/>
		<path id="XMLID_2256_" class="st4" d="M502.6,178.2h-2.7v-12.2h2.7V178.2z"/>
		<path id="XMLID_2254_" class="st4" d="M507,178.2h-2.7v-12.2h2.7V178.2z"/>
		<path id="XMLID_2251_" class="st4" d="M516.6,174.8h-5.7c0,1.1,0.6,1.7,1.7,1.7c0.6,0,1-0.2,1.3-0.7h2.6c-0.2,0.9-0.7,1.5-1.4,2
			c-0.7,0.4-1.5,0.6-2.4,0.6c-2.5,0-4.4-1.4-4.4-4c0-2.5,1.7-4,4.2-4c2.6,0,4.1,1.6,4.1,4.2V174.8z M514.1,173.3
			c-0.1-0.7-0.8-1.2-1.5-1.2c-0.8,0-1.4,0.4-1.6,1.2H514.1z"/>
		<path id="XMLID_2249_" class="st4" d="M520.5,171.6L520.5,171.6c0.6-0.9,1.4-1.2,2.4-1.2c2,0,2.8,1.3,2.8,3.1v4.7h-2.7v-3.7
			c0-0.7,0.1-2-1.2-2c-1.1,0-1.4,0.8-1.4,1.8v3.9h-2.7v-7.6h2.7V171.6z"/>
		<path id="XMLID_2246_" class="st4" d="M535.8,178.2h-2.7v-0.8h0c-0.5,0.8-1.4,1.1-2.3,1.1c-2.2,0-3.8-1.9-3.8-4c0-2.2,1.5-4,3.8-4
			c0.9,0,1.8,0.3,2.3,1v-0.7h2.7V178.2z M529.8,174.4c0,1,0.6,1.7,1.7,1.7c1.1,0,1.7-0.7,1.7-1.7c0-0.9-0.6-1.7-1.7-1.7
			C530.4,172.7,529.8,173.5,529.8,174.4z"/>
		<path id="XMLID_2243_" class="st4" d="M543.3,177.3L543.3,177.3c-0.5,0.8-1.4,1.1-2.3,1.1c-2.2,0-3.8-1.9-3.8-4c0-2.2,1.5-4,3.8-4
			c0.9,0,1.8,0.3,2.3,1v-5.4h2.7v12.2h-2.7V177.3z M539.9,174.4c0,1,0.6,1.7,1.7,1.7c1.1,0,1.7-0.7,1.7-1.7c0-0.9-0.6-1.7-1.7-1.7
			C540.6,172.7,539.9,173.5,539.9,174.4z"/>
		<path id="XMLID_2240_" class="st4" d="M556.2,174.4c0,2.6-2.1,4-4.6,4c-2.4,0-4.6-1.4-4.6-4s2.1-4,4.6-4
			C554.1,170.4,556.2,171.8,556.2,174.4z M549.9,174.4c0,1,0.6,1.7,1.7,1.7c1.1,0,1.7-0.7,1.7-1.7c0-0.9-0.6-1.7-1.7-1.7
			C550.6,172.7,549.9,173.5,549.9,174.4z"/>
		<path id="XMLID_2237_" class="st4" d="M568.2,177.3L568.2,177.3c-0.5,0.8-1.4,1.1-2.3,1.1c-2.2,0-3.8-1.9-3.8-4c0-2.2,1.5-4,3.8-4
			c0.9,0,1.8,0.3,2.3,1v-5.4h2.7v12.2h-2.7V177.3z M564.8,174.4c0,1,0.6,1.7,1.7,1.7c1.1,0,1.7-0.7,1.7-1.7c0-0.9-0.6-1.7-1.7-1.7
			C565.5,172.7,564.8,173.5,564.8,174.4z"/>
		<path id="XMLID_2234_" class="st4" d="M580.3,174.8h-5.7c0,1.1,0.6,1.7,1.7,1.7c0.6,0,1-0.2,1.3-0.7h2.6c-0.2,0.9-0.7,1.5-1.4,2
			c-0.7,0.4-1.5,0.6-2.4,0.6c-2.5,0-4.4-1.4-4.4-4c0-2.5,1.7-4,4.2-4c2.6,0,4.1,1.6,4.1,4.2V174.8z M577.8,173.3
			c-0.1-0.7-0.8-1.2-1.5-1.2c-0.8,0-1.4,0.4-1.6,1.2H577.8z"/>
		<path id="XMLID_2232_" class="st4" d="M405,195.9h-2.7v-5.4h-0.9v-2.2h0.9v-1c0-1,0-1.8,0.8-2.7c0.7-0.8,1.6-1.2,2.6-1.2
			c0.4,0,0.8,0.1,1.2,0.3v2.3c-0.3-0.1-0.6-0.3-0.9-0.3c-0.7,0-0.9,0.4-0.9,1.3v1.2h1.9v2.2H405V195.9z"/>
		<path id="XMLID_2229_" class="st4" d="M416.3,192.1c0,2.6-2.1,4-4.6,4c-2.4,0-4.6-1.4-4.6-4c0-2.6,2.1-4,4.6-4
			C414.2,188.1,416.3,189.5,416.3,192.1z M410.1,192.1c0,1,0.6,1.7,1.7,1.7c1.1,0,1.7-0.7,1.7-1.7c0-0.9-0.6-1.7-1.7-1.7
			C410.7,190.4,410.1,191.2,410.1,192.1z"/>
		<path id="XMLID_2227_" class="st4" d="M420.2,189.6L420.2,189.6c0.5-0.9,1.4-1.3,2.5-1.3h0.5v2.6c-0.4-0.2-0.7-0.3-1.1-0.3
			c-1.5,0-1.9,1-1.9,2.3v3.1h-2.7v-7.6h2.7V189.6z"/>
		<path id="XMLID_2225_" class="st4" d="M426.9,189.3L426.9,189.3c0.7-0.8,1.4-1.2,2.4-1.2c1.1,0,2,0.4,2.6,1.4
			c0.5-0.9,1.5-1.4,2.6-1.4c1.9,0,2.6,1.3,2.6,3v4.8h-2.7v-3.6c0-0.8,0-2.1-1.1-2.1c-1.2,0-1.3,1.2-1.3,2.1v3.6h-2.7v-3.6
			c0-0.8,0-2.1-1.2-2.1c-1.2,0-1.2,1.3-1.2,2.1v3.6h-2.7v-7.6h2.7V189.3z"/>
		<path id="XMLID_2223_" class="st4" d="M441.5,188.3v4c0,1,0.2,1.6,1.3,1.6s1.3-0.7,1.3-1.6v-4h2.7v4.6c0,2.5-1.8,3.3-4,3.3
			s-4-0.8-4-3.3v-4.6H441.5z"/>
		<path id="XMLID_2221_" class="st4" d="M451.2,195.9h-2.7v-12.2h2.7V195.9z"/>
		<path id="XMLID_2218_" class="st4" d="M461.3,195.9h-2.7V195h0c-0.5,0.8-1.4,1.1-2.3,1.1c-2.2,0-3.8-1.9-3.8-4c0-2.2,1.5-4,3.8-4
			c0.9,0,1.8,0.3,2.3,1v-0.7h2.7V195.9z M455.2,192.1c0,1,0.6,1.7,1.7,1.7s1.7-0.7,1.7-1.7c0-0.9-0.6-1.7-1.7-1.7
			S455.2,191.2,455.2,192.1z"/>
		<path id="XMLID_2216_" class="st4" d="M465.8,189.6L465.8,189.6c0.5-0.9,1.4-1.3,2.5-1.3h0.5v2.6c-0.4-0.2-0.7-0.3-1.1-0.3
			c-1.5,0-1.9,1-1.9,2.3v3.1h-2.7v-7.6h2.7V189.6z"/>
		<path id="XMLID_2213_" class="st4" d="M472.6,185.4c0,0.8-0.7,1.5-1.5,1.5c-0.8,0-1.5-0.7-1.5-1.5c0-0.8,0.7-1.5,1.5-1.5
			C471.9,183.9,472.6,184.6,472.6,185.4z M472.4,195.9h-2.7v-7.6h2.7V195.9z"/>
		<path id="XMLID_2210_" class="st4" d="M482.8,192.1c0,2.6-2.1,4-4.6,4c-2.4,0-4.6-1.4-4.6-4c0-2.6,2.1-4,4.6-4
			C480.6,188.1,482.8,189.5,482.8,192.1z M476.5,192.1c0,1,0.6,1.7,1.7,1.7c1.1,0,1.7-0.7,1.7-1.7c0-0.9-0.6-1.7-1.7-1.7
			C477.1,190.4,476.5,191.2,476.5,192.1z"/>
		<path id="XMLID_2208_" class="st4" d="M487.9,188.3h3.1l2,3.9l2-3.9h3.1l-6.1,11.3h-3l2.6-4.8L487.9,188.3z"/>
		<path id="XMLID_2205_" class="st4" d="M511.5,192.5h-5.7c0,1.1,0.6,1.7,1.7,1.7c0.6,0,1-0.2,1.3-0.7h2.6c-0.2,0.9-0.7,1.5-1.4,2
			c-0.7,0.4-1.5,0.6-2.4,0.6c-2.5,0-4.4-1.4-4.4-4c0-2.5,1.7-4,4.2-4c2.6,0,4.1,1.6,4.1,4.2V192.5z M509,191
			c-0.1-0.7-0.8-1.2-1.5-1.2c-0.8,0-1.4,0.4-1.6,1.2H509z"/>
		<path id="XMLID_2203_" class="st4" d="M515.4,195.9h-2.7v-12.2h2.7V195.9z"/>
		<path id="XMLID_2200_" class="st4" d="M525.5,195.9h-2.7V195h0c-0.5,0.8-1.4,1.1-2.3,1.1c-2.2,0-3.8-1.9-3.8-4c0-2.2,1.5-4,3.8-4
			c0.9,0,1.8,0.3,2.3,1v-0.7h2.7V195.9z M519.4,192.1c0,1,0.6,1.7,1.7,1.7s1.7-0.7,1.7-1.7c0-0.9-0.6-1.7-1.7-1.7
			S519.4,191.2,519.4,192.1z"/>
		<path id="XMLID_2197_" class="st4" d="M527.2,183.6h2.7v5.4c0.6-0.7,1.5-1,2.3-1c2.2,0,3.8,1.9,3.8,4c0,2.2-1.6,4-3.8,4
			c-0.9,0-1.8-0.3-2.3-1.1h0v0.8h-2.7V183.6z M529.8,192.1c0,1,0.6,1.7,1.7,1.7c1.1,0,1.7-0.7,1.7-1.7c0-0.9-0.6-1.7-1.7-1.7
			C530.4,190.4,529.8,191.2,529.8,192.1z"/>
		<path id="XMLID_2194_" class="st4" d="M545.9,192.1c0,2.6-2.1,4-4.6,4c-2.4,0-4.6-1.4-4.6-4c0-2.6,2.1-4,4.6-4
			C543.8,188.1,545.9,189.5,545.9,192.1z M539.6,192.1c0,1,0.6,1.7,1.7,1.7c1.1,0,1.7-0.7,1.7-1.7c0-0.9-0.6-1.7-1.7-1.7
			C540.2,190.4,539.6,191.2,539.6,192.1z"/>
		<path id="XMLID_2192_" class="st4" d="M549.8,189.6L549.8,189.6c0.5-0.9,1.4-1.3,2.5-1.3h0.5v2.6c-0.4-0.2-0.7-0.3-1.1-0.3
			c-1.5,0-1.9,1-1.9,2.3v3.1h-2.7v-7.6h2.7V189.6z"/>
		<path id="XMLID_2189_" class="st4" d="M562,195.9h-2.7V195h0c-0.5,0.8-1.4,1.1-2.3,1.1c-2.2,0-3.8-1.9-3.8-4c0-2.2,1.5-4,3.8-4
			c0.9,0,1.8,0.3,2.3,1v-0.7h2.7V195.9z M556,192.1c0,1,0.6,1.7,1.7,1.7c1.1,0,1.7-0.7,1.7-1.7c0-0.9-0.6-1.7-1.7-1.7
			C556.6,190.4,556,191.2,556,192.1z"/>
		<path id="XMLID_2187_" class="st4" d="M569.3,190.8c-0.4-0.3-0.9-0.5-1.4-0.5c-1,0-1.8,0.8-1.8,1.8c0,1.1,0.8,1.9,1.9,1.9
			c0.5,0,1-0.2,1.3-0.5v2.3c-0.6,0.3-1.2,0.4-1.9,0.4c-2.2,0-4.1-1.7-4.1-4c0-2.4,1.9-4.1,4.2-4.1c0.6,0,1.2,0.1,1.8,0.4V190.8z"/>
		<path id="XMLID_2184_" class="st4" d="M573.8,185.4c0,0.8-0.7,1.5-1.5,1.5c-0.8,0-1.5-0.7-1.5-1.5c0-0.8,0.7-1.5,1.5-1.5
			C573.1,183.9,573.8,184.6,573.8,185.4z M573.6,195.9H571v-7.6h2.7V195.9z"/>
		<path id="XMLID_2180_" class="st4" d="M584,192.1c0,2.6-2.1,4-4.6,4c-2.4,0-4.6-1.4-4.6-4c0-2.6,2.1-4,4.6-4
			C581.8,188.1,584,189.5,584,192.1z M577.7,192.1c0,1,0.6,1.7,1.7,1.7c1.1,0,1.7-0.7,1.7-1.7c0-0.9-0.6-1.7-1.7-1.7
			C578.3,190.4,577.7,191.2,577.7,192.1z M579.1,187.2l-1.2-0.9l2.1-2.5l1.6,1.2L579.1,187.2z"/>
		<path id="XMLID_2178_" class="st4" d="M587.9,189.3L587.9,189.3c0.6-0.9,1.4-1.2,2.4-1.2c2,0,2.8,1.3,2.8,3.1v4.7h-2.7v-3.7
			c0-0.7,0.1-2-1.2-2c-1.1,0-1.4,0.8-1.4,1.8v3.9h-2.7v-7.6h2.7V189.3z"/>
		<path id="XMLID_2175_" class="st4" d="M411,212.7L411,212.7c-0.5,0.8-1.4,1.1-2.3,1.1c-2.2,0-3.8-1.9-3.8-4c0-2.2,1.5-4,3.8-4
			c0.9,0,1.8,0.3,2.3,1v-5.4h2.7v12.2H411V212.7z M407.7,209.8c0,1,0.6,1.7,1.7,1.7c1.1,0,1.7-0.7,1.7-1.7c0-0.9-0.6-1.7-1.7-1.7
			C408.3,208.1,407.7,208.9,407.7,209.8z"/>
		<path id="XMLID_2172_" class="st4" d="M423.2,210.3h-5.7c0,1.1,0.6,1.7,1.7,1.7c0.6,0,1-0.2,1.3-0.7h2.6c-0.2,0.9-0.7,1.5-1.4,2
			c-0.7,0.4-1.5,0.6-2.4,0.6c-2.5,0-4.4-1.4-4.4-4c0-2.5,1.7-4,4.2-4c2.6,0,4.1,1.6,4.1,4.2V210.3z M420.7,208.7
			c-0.1-0.7-0.8-1.2-1.5-1.2c-0.8,0-1.4,0.4-1.6,1.2H420.7z"/>
		<path id="XMLID_2169_" class="st4" d="M429.4,201.3h2.7v5.4c0.6-0.7,1.5-1,2.3-1c2.2,0,3.8,1.9,3.8,4c0,2.2-1.6,4-3.8,4
			c-0.9,0-1.8-0.3-2.3-1.1h0v0.8h-2.7V201.3z M432,209.8c0,1,0.6,1.7,1.7,1.7c1.1,0,1.7-0.7,1.7-1.7c0-0.9-0.6-1.7-1.7-1.7
			C432.6,208.1,432,208.9,432,209.8z"/>
		<path id="XMLID_2166_" class="st4" d="M448.1,209.8c0,2.6-2.1,4-4.6,4c-2.4,0-4.6-1.4-4.6-4s2.1-4,4.6-4
			C445.9,205.8,448.1,207.2,448.1,209.8z M441.8,209.8c0,1,0.6,1.7,1.7,1.7c1.1,0,1.7-0.7,1.7-1.7c0-0.9-0.6-1.7-1.7-1.7
			C442.4,208.1,441.8,208.9,441.8,209.8z"/>
		<path id="XMLID_2164_" class="st4" d="M452,213.6h-2.7v-12.2h2.7V213.6z"/>
		<path id="XMLID_2161_" class="st4" d="M461.5,210.3h-5.7c0,1.1,0.6,1.7,1.7,1.7c0.6,0,1-0.2,1.3-0.7h2.6c-0.2,0.9-0.7,1.5-1.4,2
			c-0.7,0.4-1.5,0.6-2.4,0.6c-2.5,0-4.4-1.4-4.4-4c0-2.5,1.7-4,4.2-4c2.6,0,4.1,1.6,4.1,4.2V210.3z M459,208.7
			c-0.1-0.7-0.8-1.2-1.5-1.2c-0.8,0-1.4,0.4-1.6,1.2H459z"/>
		<path id="XMLID_2159_" class="st4" d="M465.7,213.6H463v-5.4h-0.9V206h0.9v-2.3h2.7v2.3h1.5v2.2h-1.5V213.6z"/>
		<path id="XMLID_2156_" class="st4" d="M476.3,213.6h-2.7v-0.8h0c-0.5,0.8-1.4,1.1-2.3,1.1c-2.2,0-3.8-1.9-3.8-4c0-2.2,1.5-4,3.8-4
			c0.9,0,1.8,0.3,2.3,1V206h2.7V213.6z M470.3,209.8c0,1,0.6,1.7,1.7,1.7c1.1,0,1.7-0.7,1.7-1.7c0-0.9-0.6-1.7-1.7-1.7
			C470.9,208.1,470.3,208.9,470.3,209.8z"/>
		<path id="XMLID_2153_" class="st4" d="M488.9,212.7L488.9,212.7c-0.5,0.8-1.4,1.1-2.3,1.1c-2.2,0-3.8-1.9-3.8-4c0-2.2,1.5-4,3.8-4
			c0.9,0,1.8,0.3,2.3,1v-5.4h2.7v12.2h-2.7V212.7z M485.5,209.8c0,1,0.6,1.7,1.7,1.7c1.1,0,1.7-0.7,1.7-1.7c0-0.9-0.6-1.7-1.7-1.7
			C486.1,208.1,485.5,208.9,485.5,209.8z"/>
		<path id="XMLID_2150_" class="st4" d="M501,210.3h-5.7c0,1.1,0.6,1.7,1.7,1.7c0.6,0,1-0.2,1.3-0.7h2.6c-0.2,0.9-0.7,1.5-1.4,2
			c-0.7,0.4-1.5,0.6-2.4,0.6c-2.5,0-4.4-1.4-4.4-4c0-2.5,1.7-4,4.2-4c2.6,0,4.1,1.6,4.1,4.2V210.3z M498.5,208.7
			c-0.1-0.7-0.8-1.2-1.5-1.2c-0.8,0-1.4,0.4-1.6,1.2H498.5z"/>
		<path id="XMLID_2148_" class="st4" d="M510,213.6h-2.7v-12.2h2.7V213.6z"/>
		<path id="XMLID_2145_" class="st4" d="M514.6,203.1c0,0.8-0.7,1.5-1.5,1.5c-0.8,0-1.5-0.7-1.5-1.5c0-0.8,0.7-1.5,1.5-1.5
			C513.9,201.6,514.6,202.3,514.6,203.1z M514.4,213.6h-2.7V206h2.7V213.6z"/>
		<path id="XMLID_2142_" class="st4" d="M524.6,217.4h-2.7v-4.5c-0.6,0.7-1.5,1-2.3,1c-2.3,0-3.8-1.8-3.8-4c0-2.2,1.6-4.1,3.8-4.1
			c0.9,0,1.8,0.4,2.3,1.1h0V206h2.7V217.4z M518.5,209.8c0,1,0.6,1.7,1.7,1.7c1.1,0,1.7-0.7,1.7-1.7c0-0.9-0.6-1.7-1.7-1.7
			C519.2,208.1,518.5,208.9,518.5,209.8z"/>
		<path id="XMLID_2140_" class="st4" d="M528.9,206v4c0,1,0.2,1.6,1.3,1.6c1.1,0,1.3-0.7,1.3-1.6v-4h2.7v4.6c0,2.5-1.8,3.3-4,3.3
			s-4-0.8-4-3.3V206H528.9z"/>
		<path id="XMLID_2137_" class="st4" d="M538.8,203.1c0,0.8-0.7,1.5-1.5,1.5c-0.8,0-1.5-0.7-1.5-1.5c0-0.8,0.7-1.5,1.5-1.5
			C538.2,201.6,538.8,202.3,538.8,203.1z M538.7,213.6H536V206h2.7V213.6z"/>
		<path id="XMLID_2134_" class="st4" d="M546.1,212.7L546.1,212.7c-0.5,0.8-1.4,1.1-2.3,1.1c-2.2,0-3.8-1.9-3.8-4c0-2.2,1.5-4,3.8-4
			c0.9,0,1.8,0.3,2.3,1v-5.4h2.7v12.2h-2.7V212.7z M542.8,209.8c0,1,0.6,1.7,1.7,1.7s1.7-0.7,1.7-1.7c0-0.9-0.6-1.7-1.7-1.7
			S542.8,208.9,542.8,209.8z"/>
		<path id="XMLID_2131_" class="st4" d="M558.8,213.6h-2.7v-0.8h0c-0.5,0.8-1.4,1.1-2.3,1.1c-2.2,0-3.8-1.9-3.8-4c0-2.2,1.5-4,3.8-4
			c0.9,0,1.8,0.3,2.3,1V206h2.7V213.6z M552.7,209.8c0,1,0.6,1.7,1.7,1.7c1.1,0,1.7-0.7,1.7-1.7c0-0.9-0.6-1.7-1.7-1.7
			C553.4,208.1,552.7,208.9,552.7,209.8z"/>
		<path id="XMLID_2129_" class="st4" d="M566,208.5c-0.4-0.3-0.9-0.5-1.4-0.5c-1,0-1.8,0.8-1.8,1.8c0,1.1,0.8,1.9,1.9,1.9
			c0.5,0,1-0.2,1.3-0.5v2.3c-0.6,0.3-1.2,0.4-1.9,0.4c-2.2,0-4.1-1.7-4.1-4c0-2.4,1.9-4.1,4.2-4.1c0.6,0,1.2,0.1,1.8,0.4V208.5z"/>
		<path id="XMLID_2126_" class="st4" d="M570.5,203.1c0,0.8-0.7,1.5-1.5,1.5c-0.8,0-1.5-0.7-1.5-1.5c0-0.8,0.7-1.5,1.5-1.5
			C569.9,201.6,570.5,202.3,570.5,203.1z M570.4,213.6h-2.7V206h2.7V213.6z"/>
		<path id="XMLID_2122_" class="st4" d="M580.7,209.8c0,2.6-2.1,4-4.6,4c-2.4,0-4.6-1.4-4.6-4s2.1-4,4.6-4
			C578.6,205.8,580.7,207.2,580.7,209.8z M574.4,209.8c0,1,0.6,1.7,1.7,1.7c1.1,0,1.7-0.7,1.7-1.7c0-0.9-0.6-1.7-1.7-1.7
			C575.1,208.1,574.4,208.9,574.4,209.8z M575.9,204.9l-1.2-0.9l2.1-2.5l1.6,1.2L575.9,204.9z"/>
		<path id="XMLID_2120_" class="st4" d="M584.6,207L584.6,207c0.6-0.9,1.4-1.2,2.4-1.2c2,0,2.8,1.3,2.8,3.1v4.7h-2.7v-3.7
			c0-0.7,0.1-2-1.2-2c-1.1,0-1.4,0.8-1.4,1.8v3.9h-2.7V206h2.7V207z"/>
	</g>
</g>
<g id="XMLID_16250_">
	<g>
		<path id="XMLID_913_" class="st4" d="M436.6,294.3c-0.6-0.8-1.5-1.2-2.5-1.2c-1.8,0-3,1.4-3,3.1c0,1.8,1.2,3,3,3
			c0.9,0,1.9-0.5,2.5-1.2v3.5c-1,0.3-1.7,0.5-2.6,0.5c-1.5,0-3-0.6-4.2-1.6c-1.2-1.1-1.8-2.6-1.8-4.2c0-1.5,0.6-3,1.6-4.1
			c1.1-1.1,2.7-1.8,4.2-1.8c0.9,0,1.8,0.2,2.6,0.6V294.3z"/>
		<path id="XMLID_910_" class="st4" d="M441.2,299.7l-0.8,1.9h-3.1l4.3-11.1h3.2l4.2,11.1h-3.1l-0.7-1.9H441.2z M443.2,294
			L443.2,294l-1.2,3.5h2.4L443.2,294z"/>
		<path id="XMLID_908_" class="st4" d="M455.3,290.5v7.5c0,2.3-1.2,3.9-3.7,3.9c-1.2,0-2.2-0.6-2.9-1.6l1.7-1.8
			c0.3,0.4,0.8,0.9,1.2,0.9c0.9,0,0.8-1,0.8-1.6v-7.3H455.3z"/>
		<path id="XMLID_905_" class="st4" d="M460,299.7l-0.8,1.9h-3.1l4.3-11.1h3.2l4.2,11.1h-3.1l-0.7-1.9H460z M462,294L462,294
			l-1.2,3.5h2.4L462,294z"/>
		<path id="XMLID_903_" class="st4" d="M478.4,297.3l2.7-6.8h3.1l-4.8,11.1h-2.2l-4.7-11.1h3.1L478.4,297.3z"/>
		<path id="XMLID_901_" class="st4" d="M487.8,293v1.9h3.3v2.4h-3.3v1.9h3.4v2.4h-6.3v-11.1h6.3v2.4H487.8z"/>
		<path id="XMLID_899_" class="st4" d="M493.1,290.5h2.9l5.3,6.8h0v-6.8h2.9v11.1h-2.9l-5.3-6.8h0v6.8h-2.9V290.5z"/>
		<path id="XMLID_897_" class="st4" d="M510.5,301.7h-2.9V293h-2.4v-2.4h7.7v2.4h-2.4V301.7z"/>
		<path id="XMLID_894_" class="st4" d="M515.9,299.7l-0.8,1.9H512l4.3-11.1h3.2l4.2,11.1h-3.1l-0.7-1.9H515.9z M517.9,294L517.9,294
			l-1.2,3.5h2.4L517.9,294z"/>
		<path id="XMLID_892_" class="st4" d="M524.6,290.5h2.9l5.3,6.8h0v-6.8h2.9v11.1h-2.9l-5.3-6.8h0v6.8h-2.9V290.5z"/>
		<path id="XMLID_890_" class="st4" d="M540.4,301.7h-2.9v-11.1h2.9V301.7z"/>
		<path id="XMLID_888_" class="st4" d="M545.2,299.2h3.5v2.4h-6.4v-11.1h2.9V299.2z"/>
		<path id="XMLID_886_" class="st4" d="M552.5,299.2h3.5v2.4h-6.4v-11.1h2.9V299.2z"/>
		<path id="XMLID_883_" class="st4" d="M559.8,299.7l-0.8,1.9h-3.1l4.3-11.1h3.2l4.2,11.1h-3.1l-0.7-1.9H559.8z M561.8,294
			L561.8,294l-1.2,3.5h2.4L561.8,294z"/>
		<path id="XMLID_881_" class="st4" d="M430.3,308.2v6.3c0,1.4-0.1,2.8-1.2,3.9c-0.9,0.9-2.4,1.2-3.7,1.2s-2.8-0.3-3.7-1.2
			c-1.1-1.1-1.2-2.5-1.2-3.9v-6.3h2.9v5.9c0,1.4,0.1,3,2,3c1.9,0,2-1.6,2-3v-5.9H430.3z"/>
		<path id="XMLID_879_" class="st4" d="M432.1,308.2h2.9l5.3,6.8h0v-6.8h2.9v11.1h-2.9l-5.3-6.8h0v6.8h-2.9V308.2z"/>
		<path id="XMLID_877_" class="st4" d="M448,319.4h-2.9v-11.1h2.9V319.4z"/>
		<path id="XMLID_875_" class="st4" d="M457.8,312c-0.6-0.8-1.5-1.2-2.5-1.2c-1.8,0-3,1.4-3,3.1c0,1.8,1.2,3,3,3
			c0.9,0,1.9-0.5,2.5-1.2v3.5c-1,0.3-1.7,0.5-2.6,0.5c-1.5,0-3-0.6-4.2-1.6c-1.2-1.1-1.8-2.6-1.8-4.2c0-1.5,0.6-3,1.6-4.1
			c1.1-1.1,2.7-1.8,4.2-1.8c0.9,0,1.8,0.2,2.6,0.6V312z"/>
		<path id="XMLID_872_" class="st4" d="M462.5,317.4l-0.8,1.9h-3.1l4.3-11.1h3.2l4.2,11.1h-3.1l-0.7-1.9H462.5z M464.5,311.7
			L464.5,311.7l-1.2,3.5h2.4L464.5,311.7z"/>
		<path id="XMLID_870_" class="st4" d="M482.3,311.1c-0.5-0.4-1.2-0.7-1.9-0.7c-0.5,0-1.2,0.3-1.2,0.9c0,0.6,0.8,0.9,1.3,1.1
			l0.7,0.2c1.5,0.5,2.7,1.2,2.7,3c0,1.1-0.3,2.2-1.2,3c-0.9,0.7-2,1-3.2,1c-1.4,0-2.8-0.5-3.9-1.3l1.2-2.3c0.7,0.6,1.6,1.2,2.6,1.2
			c0.7,0,1.4-0.3,1.4-1.1c0-0.8-1.1-1.1-1.8-1.3c-1.8-0.5-3-1-3-3.1c0-2.3,1.6-3.7,3.8-3.7c1.1,0,2.5,0.4,3.5,0.9L482.3,311.1z"/>
		<path id="XMLID_868_" class="st4" d="M494.9,308.2v6.3c0,1.4-0.1,2.8-1.2,3.9c-0.9,0.9-2.4,1.2-3.7,1.2s-2.8-0.3-3.7-1.2
			c-1.1-1.1-1.2-2.5-1.2-3.9v-6.3h2.9v5.9c0,1.4,0.1,3,2,3c1.9,0,2-1.6,2-3v-5.9H494.9z"/>
		<path id="XMLID_864_" class="st4" d="M496.8,319.4v-11.1h4.1c2,0,3.3,0.8,3.3,2.9c0,1-0.3,1.8-1.2,2.3v0c1.6,0.2,2.3,1.3,2.3,2.8
			c0,2.3-2,3.1-4,3.1H496.8z M499.7,312.6h0.3c0.8,0,1.6-0.1,1.6-1.1c0-1-0.9-1.1-1.7-1.1h-0.2V312.6z M499.7,317.2h0.4
			c0.9,0,2.3,0,2.3-1.2c0-1.3-1.4-1.2-2.4-1.2h-0.3V317.2z"/>
		<path id="XMLID_861_" class="st4" d="M509.6,317.4l-0.8,1.9h-3.1l4.3-11.1h3.2l4.2,11.1h-3.1l-0.7-1.9H509.6z M511.6,311.7
			L511.6,311.7l-1.2,3.5h2.4L511.6,311.7z"/>
		<path id="XMLID_859_" class="st4" d="M521.2,316.9h3.5v2.4h-6.4v-11.1h2.9V316.9z"/>
		<path id="XMLID_857_" class="st4" d="M533.5,312c-0.6-0.8-1.5-1.2-2.5-1.2c-1.8,0-3,1.4-3,3.1c0,1.8,1.2,3,3,3
			c0.9,0,1.9-0.5,2.5-1.2v3.5c-1,0.3-1.7,0.5-2.6,0.5c-1.5,0-3-0.6-4.2-1.6c-1.2-1.1-1.8-2.6-1.8-4.2c0-1.5,0.6-3,1.6-4.1
			c1.1-1.1,2.7-1.8,4.2-1.8c0.9,0,1.8,0.2,2.6,0.6V312z"/>
		<path id="XMLID_854_" class="st4" d="M538.2,317.4l-0.8,1.9h-3.1l4.3-11.1h3.2l4.2,11.1h-3.1l-0.7-1.9H538.2z M540.2,311.7
			L540.2,311.7l-1.2,3.5h2.4L540.2,311.7z"/>
		<path id="XMLID_852_" class="st4" d="M549.7,316.9h3.5v2.4h-6.4v-11.1h2.9V316.9z"/>
		<path id="XMLID_849_" class="st4" d="M554.1,308.2h4.1c3.1,0,5.7,2.4,5.7,5.6c0,3.1-2.6,5.6-5.7,5.6h-4.1V308.2z M557,316.9h0.6
			c1.7,0,3.2-0.9,3.2-3.1c0-2-1.3-3.1-3.2-3.1H557V316.9z"/>
		<path id="XMLID_847_" class="st4" d="M568.1,319.4h-2.9v-11.1h2.9V319.4z"/>
		<path id="XMLID_844_" class="st4" d="M572.9,317.4l-0.8,1.9H569l4.3-11.1h3.2l4.2,11.1h-3.1l-0.7-1.9H572.9z M574.9,311.7
			L574.9,311.7l-1.2,3.5h2.4L574.9,311.7z"/>
		<path id="XMLID_842_" class="st4" d="M481.1,329.7c-0.6-0.8-1.5-1.2-2.5-1.2c-1.8,0-3,1.4-3,3.1c0,1.8,1.2,3,3,3
			c0.9,0,1.9-0.5,2.5-1.2v3.5c-1,0.3-1.7,0.5-2.6,0.5c-1.5,0-3-0.6-4.2-1.6c-1.2-1.1-1.8-2.6-1.8-4.2c0-1.5,0.6-3,1.6-4.1
			c1.1-1.1,2.7-1.8,4.2-1.8c0.9,0,1.8,0.2,2.6,0.6V329.7z"/>
		<path id="XMLID_839_" class="st4" d="M494.6,331.3c0,3.6-2.6,6.1-6.2,6.1s-6.2-2.5-6.2-6.1c0-3.4,3-5.7,6.2-5.7
			C491.7,325.6,494.6,327.9,494.6,331.3z M485.3,331.3c0,1.9,1.4,3.3,3.1,3.3c1.7,0,3.1-1.4,3.1-3.3c0-1.5-1.4-2.9-3.1-2.9
			C486.7,328.4,485.3,329.8,485.3,331.3z"/>
		<path id="XMLID_835_" class="st4" d="M495.9,337.1v-11.1h4.1c2,0,3.3,0.8,3.3,2.9c0,1-0.3,1.8-1.2,2.3v0c1.6,0.2,2.3,1.3,2.3,2.8
			c0,2.3-2,3.1-4,3.1H495.9z M498.8,330.3h0.3c0.8,0,1.6-0.1,1.6-1.1c0-1-0.9-1.1-1.7-1.1h-0.2V330.3z M498.8,334.9h0.4
			c0.9,0,2.3,0,2.3-1.2c0-1.3-1.4-1.2-2.4-1.2h-0.3V334.9z"/>
		<path id="XMLID_832_" class="st4" d="M515.2,337.1h-3.6l-2.7-4.3h0v4.3h-2.9v-11.1h4.3c2.2,0,3.9,1,3.9,3.4c0,1.5-0.9,2.9-2.4,3.1
			L515.2,337.1z M508.8,330.9h0.3c0.9,0,2-0.2,2-1.4c0-1.2-1.1-1.4-2-1.4h-0.3V330.9z"/>
		<path id="XMLID_829_" class="st4" d="M527.7,331.3c0,3.6-2.6,6.1-6.2,6.1c-3.6,0-6.2-2.5-6.2-6.1c0-3.4,3-5.7,6.2-5.7
			C524.8,325.6,527.7,327.9,527.7,331.3z M518.4,331.3c0,1.9,1.4,3.3,3.1,3.3c1.7,0,3.1-1.4,3.1-3.3c0-1.5-1.4-2.9-3.1-2.9
			C519.8,328.4,518.4,329.8,518.4,331.3z"/>
	</g>
</g>
<rect id="XMLID_4175_" x="387.8" y="393" class="st3" width="223.2" height="101"/>
<g id="XMLID_16132_">
	<g>
		<path id="XMLID_1521_" class="st4" d="M421.1,429.9l-0.8,1.9h-3.1l4.3-11.1h3.2l4.2,11.1h-3.1l-0.7-1.9H421.1z M423.1,424.2
			L423.1,424.2l-1.2,3.5h2.4L423.1,424.2z"/>
		<path id="XMLID_1518_" class="st4" d="M439.1,431.9h-3.6l-2.7-4.3h0v4.3h-2.9v-11.1h4.3c2.2,0,3.9,1,3.9,3.4
			c0,1.5-0.9,2.9-2.4,3.1L439.1,431.9z M432.7,425.7h0.3c0.9,0,2-0.2,2-1.4c0-1.2-1.1-1.4-2-1.4h-0.3V425.7z"/>
		<path id="XMLID_1516_" class="st4" d="M442.7,423.2v1.9h3.3v2.4h-3.3v1.9h3.4v2.4h-6.3v-11.1h6.3v2.4H442.7z"/>
		<path id="XMLID_1513_" class="st4" d="M450.8,429.9l-0.8,1.9H447l4.3-11.1h3.2l4.2,11.1h-3.1l-0.7-1.9H450.8z M452.8,424.2
			L452.8,424.2l-1.2,3.5h2.4L452.8,424.2z"/>
		<path id="XMLID_1511_" class="st4" d="M469,431.9h-2.9v-8.7h-2.4v-2.4h7.7v2.4H469V431.9z"/>
		<path id="XMLID_1509_" class="st4" d="M475.3,423.2v1.9h3.3v2.4h-3.3v1.9h3.4v2.4h-6.3v-11.1h6.3v2.4H475.3z"/>
		<path id="XMLID_1507_" class="st4" d="M488.5,424.5c-0.6-0.8-1.5-1.2-2.5-1.2c-1.8,0-3,1.4-3,3.1c0,1.8,1.2,3,3,3
			c0.9,0,1.9-0.5,2.5-1.2v3.5c-1,0.3-1.7,0.5-2.6,0.5c-1.5,0-3-0.6-4.2-1.6c-1.2-1.1-1.8-2.6-1.8-4.2c0-1.5,0.6-3,1.6-4.1
			c1.1-1.1,2.7-1.8,4.2-1.8c0.9,0,1.8,0.2,2.6,0.6V424.5z"/>
		<path id="XMLID_1505_" class="st4" d="M490.3,420.7h2.9l5.3,6.8h0v-6.8h2.9v11.1h-2.9l-5.3-6.8h0v6.8h-2.9V420.7z"/>
		<path id="XMLID_1503_" class="st4" d="M506.1,431.9h-2.9v-11.1h2.9V431.9z"/>
		<path id="XMLID_1501_" class="st4" d="M516,424.5c-0.6-0.8-1.5-1.2-2.5-1.2c-1.8,0-3,1.4-3,3.1c0,1.8,1.2,3,3,3
			c0.9,0,1.9-0.5,2.5-1.2v3.5c-1,0.3-1.7,0.5-2.6,0.5c-1.5,0-3-0.6-4.2-1.6c-1.2-1.1-1.8-2.6-1.8-4.2c0-1.5,0.6-3,1.6-4.1
			c1.1-1.1,2.7-1.8,4.2-1.8c0.9,0,1.8,0.2,2.6,0.6V424.5z"/>
		<path id="XMLID_1498_" class="st4" d="M529.5,426.1c0,3.6-2.6,6.1-6.2,6.1s-6.2-2.5-6.2-6.1c0-3.4,3-5.7,6.2-5.7
			C526.6,420.4,529.5,422.7,529.5,426.1z M520.2,426.1c0,1.9,1.4,3.3,3.1,3.3c1.7,0,3.1-1.4,3.1-3.3c0-1.5-1.4-2.9-3.1-2.9
			C521.6,423.2,520.2,424.6,520.2,426.1z"/>
		<path id="XMLID_1496_" class="st4" d="M537,423.6c-0.5-0.4-1.2-0.7-1.9-0.7c-0.5,0-1.2,0.3-1.2,0.9c0,0.6,0.8,0.9,1.3,1.1l0.7,0.2
			c1.5,0.5,2.7,1.2,2.7,3c0,1.1-0.3,2.2-1.2,3c-0.9,0.7-2,1-3.2,1c-1.4,0-2.8-0.5-3.9-1.3l1.2-2.3c0.7,0.6,1.6,1.2,2.6,1.2
			c0.7,0,1.4-0.3,1.4-1.1c0-0.8-1.1-1.1-1.8-1.3c-1.8-0.5-3-1-3-3.1c0-2.3,1.6-3.7,3.8-3.7c1.1,0,2.5,0.4,3.5,0.9L537,423.6z"/>
		<path id="XMLID_1494_" class="st4" d="M547.1,419.6l-5.6,13.6h-2.1l5.6-13.6H547.1z"/>
		<path id="XMLID_1491_" class="st4" d="M551.3,429.9l-0.8,1.9h-3.1l4.3-11.1h3.2l4.2,11.1H556l-0.7-1.9H551.3z M553.3,424.2
			L553.3,424.2l-1.2,3.5h2.4L553.3,424.2z"/>
		<path id="XMLID_1488_" class="st4" d="M569.3,431.9h-3.6l-2.7-4.3h0v4.3H560v-11.1h4.3c2.2,0,3.9,1,3.9,3.4c0,1.5-0.9,2.9-2.4,3.1
			L569.3,431.9z M562.9,425.7h0.3c0.9,0,2-0.2,2-1.4c0-1.2-1.1-1.4-2-1.4h-0.3V425.7z"/>
		<path id="XMLID_1485_" class="st4" d="M579.6,432.5l-0.9-1c-0.9,0.5-1.9,0.7-3.1,0.7c-3.6,0-6.2-2.5-6.2-6.1c0-3.4,3-5.7,6.2-5.7
			c3.5,0,6.2,2.3,6.2,6c0,1.5-0.5,2.8-1.4,3.9l1.9,1.9L579.6,432.5z M578.3,428c0.3-0.5,0.5-1.1,0.5-1.6c0-1.7-1.4-3.2-3.1-3.2
			c-1.7,0-3.2,1.4-3.2,2.9c0,1.9,1.4,3.3,3.2,3.3c0.3,0,0.6,0,0.9-0.1l-1.8-1.8l2.7-0.3L578.3,428z"/>
		<path id="XMLID_1483_" class="st4" d="M451.2,445.2l2.7-6.8h3.1l-4.8,11.1H450l-4.7-11.1h3.1L451.2,445.2z"/>
		<path id="XMLID_1480_" class="st4" d="M464.4,446.2h-5.7c0,1.1,0.6,1.7,1.7,1.7c0.6,0,1-0.2,1.3-0.7h2.6c-0.2,0.9-0.7,1.5-1.4,2
			c-0.7,0.4-1.5,0.6-2.4,0.6c-2.5,0-4.4-1.4-4.4-4c0-2.5,1.7-4,4.2-4c2.6,0,4.1,1.6,4.1,4.2V446.2z M461.9,444.7
			c-0.1-0.7-0.8-1.2-1.5-1.2c-0.8,0-1.4,0.4-1.6,1.2H461.9z"/>
		<path id="XMLID_1478_" class="st4" d="M468.3,443.2L468.3,443.2c0.5-0.9,1.4-1.3,2.5-1.3h0.5v2.6c-0.4-0.2-0.7-0.3-1.1-0.3
			c-1.5,0-1.9,1-1.9,2.3v3.1h-2.7V442h2.7V443.2z"/>
		<path id="XMLID_1475_" class="st4" d="M475.1,439.1c0,0.8-0.7,1.5-1.5,1.5c-0.8,0-1.5-0.7-1.5-1.5c0-0.8,0.7-1.5,1.5-1.5
			C474.5,437.6,475.1,438.3,475.1,439.1z M475,449.6h-2.7V442h2.7V449.6z"/>
		<path id="XMLID_1471_" class="st4" d="M479.6,449.6h-2.7v-5.4H476V442h0.9v-1c0-1,0-1.8,0.8-2.7c0.7-0.8,1.6-1.2,2.6-1.2
			c0.4,0,0.8,0.1,1.2,0.3v2.3c-0.3-0.1-0.6-0.3-0.9-0.3c-0.7,0-0.9,0.4-0.9,1.3v1.2h1.9v2.2h-1.9V449.6z M485.2,439.1
			c0,0.8-0.7,1.5-1.5,1.5c-0.8,0-1.5-0.7-1.5-1.5c0-0.8,0.7-1.5,1.5-1.5C484.5,437.6,485.2,438.3,485.2,439.1z M485,449.6h-2.7V442
			h2.7V449.6z"/>
		<path id="XMLID_1469_" class="st4" d="M492.2,444.4c-0.4-0.3-0.9-0.5-1.4-0.5c-1,0-1.8,0.8-1.8,1.8c0,1.1,0.8,1.9,1.9,1.9
			c0.5,0,1-0.2,1.3-0.5v2.3c-0.6,0.3-1.2,0.4-1.9,0.4c-2.2,0-4.1-1.7-4.1-4c0-2.4,1.9-4.1,4.2-4.1c0.6,0,1.2,0.1,1.8,0.4V444.4z"/>
		<path id="XMLID_1466_" class="st4" d="M502.2,449.6h-2.7v-0.8h0c-0.5,0.8-1.4,1.1-2.3,1.1c-2.2,0-3.8-1.9-3.8-4s1.5-4,3.8-4
			c0.9,0,1.8,0.3,2.3,1V442h2.7V449.6z M496.1,445.8c0,1,0.6,1.7,1.7,1.7c1.1,0,1.7-0.7,1.7-1.7c0-0.9-0.6-1.7-1.7-1.7
			C496.8,444.1,496.1,444.8,496.1,445.8z"/>
		<path id="XMLID_1464_" class="st4" d="M509.4,444.4c-0.4-0.3-0.9-0.5-1.4-0.5c-1,0-1.8,0.8-1.8,1.8c0,1.1,0.8,1.9,1.9,1.9
			c0.5,0,1-0.2,1.3-0.5v2.3c-0.6,0.3-1.2,0.4-1.9,0.4c-2.2,0-4.1-1.7-4.1-4c0-2.4,1.9-4.1,4.2-4.1c0.6,0,1.2,0.1,1.8,0.4V444.4z"/>
		<path id="XMLID_1461_" class="st4" d="M513.9,439.1c0,0.8-0.7,1.5-1.5,1.5c-0.8,0-1.5-0.7-1.5-1.5c0-0.8,0.7-1.5,1.5-1.5
			C513.2,437.6,513.9,438.3,513.9,439.1z M513.8,449.6h-2.7V442h2.7V449.6z"/>
		<path id="XMLID_1457_" class="st4" d="M524.1,445.8c0,2.6-2.1,4-4.6,4c-2.4,0-4.6-1.4-4.6-4c0-2.6,2.1-4,4.6-4
			C522,441.7,524.1,443.2,524.1,445.8z M517.8,445.8c0,1,0.6,1.7,1.7,1.7c1.1,0,1.7-0.7,1.7-1.7c0-0.9-0.6-1.7-1.7-1.7
			C518.4,444.1,517.8,444.8,517.8,445.8z M519.2,440.9L518,440l2.1-2.5l1.6,1.2L519.2,440.9z"/>
		<path id="XMLID_1455_" class="st4" d="M528,443L528,443c0.6-0.9,1.4-1.2,2.4-1.2c2,0,2.8,1.3,2.8,3.1v4.7h-2.7v-3.7
			c0-0.7,0.1-2-1.2-2c-1.1,0-1.4,0.8-1.4,1.8v3.9h-2.7V442h2.7V443z"/>
		<path id="XMLID_1453_" class="st4" d="M539,442h3.1l2,3.9l2-3.9h3.1l-6.1,11.3h-3l2.6-4.8L539,442z"/>
		<path id="XMLID_1451_" class="st4" d="M422.6,462.2c-0.4-0.3-0.9-0.5-1.4-0.5c-1,0-1.8,0.8-1.8,1.8c0,1.1,0.8,1.9,1.9,1.9
			c0.5,0,1-0.2,1.3-0.5v2.3c-0.6,0.3-1.2,0.4-1.9,0.4c-2.2,0-4.1-1.7-4.1-4c0-2.4,1.9-4.1,4.2-4.1c0.6,0,1.2,0.1,1.8,0.4V462.2z"/>
		<path id="XMLID_1448_" class="st4" d="M432.8,463.5c0,2.6-2.1,4-4.6,4c-2.4,0-4.6-1.4-4.6-4c0-2.6,2.1-4,4.6-4
			C430.7,459.4,432.8,460.9,432.8,463.5z M426.5,463.5c0,1,0.6,1.7,1.7,1.7c1.1,0,1.7-0.7,1.7-1.7c0-0.9-0.6-1.7-1.7-1.7
			C427.1,461.8,426.5,462.6,426.5,463.5z"/>
		<path id="XMLID_1446_" class="st4" d="M436.7,460.7L436.7,460.7c0.6-0.9,1.4-1.2,2.4-1.2c2,0,2.8,1.3,2.8,3.1v4.7h-2.7v-3.7
			c0-0.7,0.1-2-1.2-2c-1.1,0-1.4,0.8-1.4,1.8v3.9H434v-7.6h2.7V460.7z"/>
		<path id="XMLID_1444_" class="st4" d="M446.7,467.3H444v-5.4h-0.9v-2.2h0.9v-1c0-1,0-1.8,0.8-2.7c0.7-0.8,1.6-1.2,2.6-1.2
			c0.4,0,0.8,0.1,1.2,0.3v2.3c-0.3-0.1-0.6-0.3-0.9-0.3c-0.7,0-0.9,0.4-0.9,1.3v1.2h1.9v2.2h-1.9V467.3z"/>
		<path id="XMLID_1441_" class="st4" d="M458,463.5c0,2.6-2.1,4-4.6,4c-2.4,0-4.6-1.4-4.6-4c0-2.6,2.1-4,4.6-4
			C455.9,459.4,458,460.9,458,463.5z M451.7,463.5c0,1,0.6,1.7,1.7,1.7c1.1,0,1.7-0.7,1.7-1.7c0-0.9-0.6-1.7-1.7-1.7
			C452.4,461.8,451.7,462.6,451.7,463.5z"/>
		<path id="XMLID_1439_" class="st4" d="M461.9,460.9L461.9,460.9c0.5-0.9,1.4-1.3,2.5-1.3h0.5v2.6c-0.4-0.2-0.7-0.3-1.1-0.3
			c-1.5,0-1.9,1-1.9,2.3v3.1h-2.7v-7.6h2.7V460.9z"/>
		<path id="XMLID_1437_" class="st4" d="M468.6,460.6L468.6,460.6c0.7-0.8,1.4-1.2,2.4-1.2c1.1,0,2,0.4,2.6,1.4
			c0.5-0.9,1.5-1.4,2.6-1.4c1.9,0,2.6,1.3,2.6,3v4.8h-2.7v-3.6c0-0.8,0-2.1-1.1-2.1c-1.2,0-1.3,1.2-1.3,2.1v3.6H471v-3.6
			c0-0.8,0-2.1-1.2-2.1c-1.2,0-1.2,1.3-1.2,2.1v3.6h-2.7v-7.6h2.7V460.6z"/>
		<path id="XMLID_1434_" class="st4" d="M483.4,456.8c0,0.8-0.7,1.5-1.5,1.5c-0.8,0-1.5-0.7-1.5-1.5c0-0.8,0.7-1.5,1.5-1.5
			C482.7,455.3,483.4,456,483.4,456.8z M483.2,467.3h-2.7v-7.6h2.7V467.3z"/>
		<path id="XMLID_1430_" class="st4" d="M490.7,466.4L490.7,466.4c-0.5,0.8-1.4,1.1-2.3,1.1c-2.2,0-3.8-1.9-3.8-4s1.5-4,3.8-4
			c0.9,0,1.8,0.3,2.3,1V455h2.7v12.2h-2.7V466.4z M487.3,463.5c0,1,0.6,1.7,1.7,1.7c1.1,0,1.7-0.7,1.7-1.7c0-0.9-0.6-1.7-1.7-1.7
			C487.9,461.8,487.3,462.6,487.3,463.5z"/>
		<path id="XMLID_1427_" class="st4" d="M503.3,467.3h-2.7v-0.8h0c-0.5,0.8-1.4,1.1-2.3,1.1c-2.2,0-3.8-1.9-3.8-4s1.5-4,3.8-4
			c0.9,0,1.8,0.3,2.3,1v-0.7h2.7V467.3z M497.2,463.5c0,1,0.6,1.7,1.7,1.7c1.1,0,1.7-0.7,1.7-1.7c0-0.9-0.6-1.7-1.7-1.7
			C497.9,461.8,497.2,462.6,497.2,463.5z"/>
		<path id="XMLID_1424_" class="st4" d="M510.8,466.4L510.8,466.4c-0.5,0.8-1.4,1.1-2.3,1.1c-2.2,0-3.8-1.9-3.8-4s1.5-4,3.8-4
			c0.9,0,1.8,0.3,2.3,1V455h2.7v12.2h-2.7V466.4z M507.4,463.5c0,1,0.6,1.7,1.7,1.7c1.1,0,1.7-0.7,1.7-1.7c0-0.9-0.6-1.7-1.7-1.7
			C508,461.8,507.4,462.6,507.4,463.5z"/>
		<path id="XMLID_1421_" class="st4" d="M525.9,466.4L525.9,466.4c-0.5,0.8-1.4,1.1-2.3,1.1c-2.2,0-3.8-1.9-3.8-4s1.5-4,3.8-4
			c0.9,0,1.8,0.3,2.3,1V455h2.7v12.2h-2.7V466.4z M522.5,463.5c0,1,0.6,1.7,1.7,1.7c1.1,0,1.7-0.7,1.7-1.7c0-0.9-0.6-1.7-1.7-1.7
			C523.2,461.8,522.5,462.6,522.5,463.5z"/>
		<path id="XMLID_1418_" class="st4" d="M538,463.9h-5.7c0,1.1,0.6,1.7,1.7,1.7c0.6,0,1-0.2,1.3-0.7h2.6c-0.2,0.9-0.7,1.5-1.4,2
			c-0.7,0.4-1.5,0.6-2.4,0.6c-2.5,0-4.4-1.4-4.4-4c0-2.5,1.7-4,4.2-4c2.6,0,4.1,1.6,4.1,4.2V463.9z M535.5,462.4
			c-0.1-0.7-0.8-1.2-1.5-1.2c-0.8,0-1.4,0.4-1.6,1.2H535.5z"/>
		<path id="XMLID_1415_" class="st4" d="M546.9,460.5L546.9,460.5c0.5-0.8,1.4-1.1,2.3-1.1c2.3,0,3.8,1.9,3.8,4.1c0,2.2-1.5,4-3.8,4
			c-0.9,0-1.8-0.3-2.3-1v4.5h-2.7v-11.3h2.7V460.5z M546.8,463.5c0,1,0.6,1.7,1.7,1.7s1.7-0.7,1.7-1.7c0-0.9-0.6-1.7-1.7-1.7
			S546.8,462.6,546.8,463.5z"/>
		<path id="XMLID_1412_" class="st4" d="M562.7,467.3H560v-0.8h0c-0.5,0.8-1.4,1.1-2.3,1.1c-2.2,0-3.8-1.9-3.8-4s1.5-4,3.8-4
			c0.9,0,1.8,0.3,2.3,1v-0.7h2.7V467.3z M556.6,463.5c0,1,0.6,1.7,1.7,1.7c1.1,0,1.7-0.7,1.7-1.7c0-0.9-0.6-1.7-1.7-1.7
			C557.3,461.8,556.6,462.6,556.6,463.5z"/>
		<path id="XMLID_1409_" class="st4" d="M572.8,466.5c0,3.2-1.6,4.5-4.4,4.5c-1.7,0-4.1-0.9-4.3-2.9h3c0.1,0.3,0.3,0.5,0.5,0.6
			c0.2,0.1,0.5,0.2,0.8,0.2c1.4,0,1.7-0.9,1.7-2.2v-0.4c-0.7,0.7-1.4,1-2.4,1c-2.2,0-3.7-1.7-3.7-3.9c0-2.2,1.6-4.1,3.9-4.1
			c0.9,0,1.7,0.3,2.2,1h0v-0.8h2.7V466.5z M566.7,463.4c0,1,0.6,1.7,1.7,1.7c1.1,0,1.7-0.7,1.7-1.7c0-0.9-0.6-1.7-1.7-1.7
			C567.3,461.7,566.7,462.5,566.7,463.4z"/>
		<path id="XMLID_1406_" class="st4" d="M583,463.5c0,2.6-2.1,4-4.6,4c-2.4,0-4.6-1.4-4.6-4c0-2.6,2.1-4,4.6-4
			C580.9,459.4,583,460.9,583,463.5z M576.7,463.5c0,1,0.6,1.7,1.7,1.7c1.1,0,1.7-0.7,1.7-1.7c0-0.9-0.6-1.7-1.7-1.7
			C577.3,461.8,576.7,462.6,576.7,463.5z"/>
	</g>
</g>
<rect id="XMLID_4173_" x="387.8" y="524" class="st3" width="223.2" height="101"/>
<g id="XMLID_16045_">
	<g>
		<path id="XMLID_1001_" class="st4" d="M436.2,555.7c-0.6-0.8-1.5-1.2-2.5-1.2c-1.8,0-3,1.4-3,3.1c0,1.8,1.2,3,3,3
			c0.9,0,1.9-0.5,2.5-1.2v3.5c-1,0.3-1.7,0.5-2.6,0.5c-1.5,0-3-0.6-4.2-1.6c-1.2-1.1-1.8-2.6-1.8-4.2c0-1.5,0.6-3,1.6-4.1
			c1.1-1.1,2.7-1.8,4.2-1.8c0.9,0,1.8,0.2,2.6,0.6V555.7z"/>
		<path id="XMLID_998_" class="st4" d="M440.8,561.1l-0.8,1.9H437l4.3-11.1h3.2l4.2,11.1h-3.1l-0.7-1.9H440.8z M442.9,555.4
			L442.9,555.4l-1.2,3.5h2.4L442.9,555.4z"/>
		<path id="XMLID_996_" class="st4" d="M454.9,551.9v7.5c0,2.3-1.2,3.9-3.7,3.9c-1.2,0-2.2-0.6-2.9-1.6l1.7-1.8
			c0.3,0.4,0.8,0.9,1.2,0.9c0.9,0,0.8-1,0.8-1.6v-7.3H454.9z"/>
		<path id="XMLID_992_" class="st4" d="M459.6,561.1l-0.8,1.9h-3.1l4.3-11.1h3.2l4.2,11.1h-3.1l-0.7-1.9H459.6z M461.6,555.4
			L461.6,555.4l-1.2,3.5h2.4L461.6,555.4z"/>
		<path id="XMLID_990_" class="st4" d="M478,558.7l2.7-6.8h3.1l-4.8,11.1h-2.2l-4.7-11.1h3.1L478,558.7z"/>
		<path id="XMLID_988_" class="st4" d="M487.5,554.4v1.9h3.3v2.4h-3.3v1.9h3.4v2.4h-6.3v-11.1h6.3v2.4H487.5z"/>
		<path id="XMLID_986_" class="st4" d="M492.7,551.9h2.9l5.3,6.8h0v-6.8h2.9v11.1h-2.9l-5.3-6.8h0v6.8h-2.9V551.9z"/>
		<path id="XMLID_984_" class="st4" d="M510.1,563.1h-2.9v-8.7h-2.4v-2.4h7.7v2.4h-2.4V563.1z"/>
		<path id="XMLID_981_" class="st4" d="M515.5,561.1l-0.8,1.9h-3.1l4.3-11.1h3.2l4.2,11.1h-3.1l-0.7-1.9H515.5z M517.5,555.4
			L517.5,555.4l-1.2,3.5h2.4L517.5,555.4z"/>
		<path id="XMLID_979_" class="st4" d="M524.2,551.9h2.9l5.3,6.8h0v-6.8h2.9v11.1h-2.9l-5.3-6.8h0v6.8h-2.9V551.9z"/>
		<path id="XMLID_977_" class="st4" d="M540.1,563.1h-2.9v-11.1h2.9V563.1z"/>
		<path id="XMLID_975_" class="st4" d="M544.8,560.6h3.5v2.4H542v-11.1h2.9V560.6z"/>
		<path id="XMLID_973_" class="st4" d="M552.1,560.6h3.5v2.4h-6.4v-11.1h2.9V560.6z"/>
		<path id="XMLID_970_" class="st4" d="M559.4,561.1l-0.8,1.9h-3.1l4.3-11.1h3.2l4.2,11.1h-3.1l-0.7-1.9H559.4z M561.4,555.4
			L561.4,555.4l-1.2,3.5h2.4L561.4,555.4z"/>
		<path id="XMLID_967_" class="st4" d="M429.9,569.6v6.3c0,1.4-0.1,2.8-1.2,3.9c-0.9,0.9-2.4,1.2-3.7,1.2s-2.8-0.3-3.7-1.2
			c-1.1-1.1-1.2-2.5-1.2-3.9v-6.3h2.9v5.9c0,1.4,0.1,3,2,3c1.9,0,2-1.6,2-3v-5.9H429.9z"/>
		<path id="XMLID_965_" class="st4" d="M431.7,569.6h2.9l5.3,6.8h0v-6.8h2.9v11.1h-2.9l-5.3-6.8h0v6.8h-2.9V569.6z"/>
		<path id="XMLID_963_" class="st4" d="M447.6,580.8h-2.9v-11.1h2.9V580.8z"/>
		<path id="XMLID_961_" class="st4" d="M457.5,573.4c-0.6-0.8-1.5-1.2-2.5-1.2c-1.8,0-3,1.4-3,3.1c0,1.8,1.2,3,3,3
			c0.9,0,1.9-0.5,2.5-1.2v3.5c-1,0.3-1.7,0.5-2.6,0.5c-1.5,0-3-0.6-4.2-1.6c-1.2-1.1-1.8-2.6-1.8-4.2c0-1.5,0.6-3,1.6-4.1
			c1.1-1.1,2.7-1.8,4.2-1.8c0.9,0,1.8,0.2,2.6,0.6V573.4z"/>
		<path id="XMLID_958_" class="st4" d="M462.1,578.8l-0.8,1.9h-3.1l4.3-11.1h3.2l4.2,11.1h-3.1l-0.7-1.9H462.1z M464.1,573.1
			L464.1,573.1l-1.2,3.5h2.4L464.1,573.1z"/>
		<path id="XMLID_956_" class="st4" d="M481.9,572.5c-0.5-0.4-1.2-0.7-1.9-0.7c-0.5,0-1.2,0.3-1.2,0.9c0,0.6,0.8,0.9,1.3,1.1
			l0.7,0.2c1.5,0.5,2.7,1.2,2.7,3c0,1.1-0.3,2.2-1.2,3c-0.9,0.7-2,1-3.2,1c-1.4,0-2.8-0.5-3.9-1.3l1.2-2.3c0.7,0.6,1.6,1.2,2.6,1.2
			c0.7,0,1.4-0.3,1.4-1.1c0-0.8-1.1-1.1-1.8-1.3c-1.8-0.5-3-1-3-3.1c0-2.3,1.6-3.7,3.8-3.7c1.1,0,2.5,0.4,3.5,0.9L481.9,572.5z"/>
		<path id="XMLID_954_" class="st4" d="M494.6,569.6v6.3c0,1.4-0.1,2.8-1.2,3.9c-0.9,0.9-2.4,1.2-3.7,1.2s-2.8-0.3-3.7-1.2
			c-1.1-1.1-1.2-2.5-1.2-3.9v-6.3h2.9v5.9c0,1.4,0.1,3,2,3s2-1.6,2-3v-5.9H494.6z"/>
		<path id="XMLID_950_" class="st4" d="M496.4,580.8v-11.1h4.1c2,0,3.3,0.8,3.3,2.9c0,1-0.3,1.8-1.2,2.3v0c1.6,0.2,2.3,1.3,2.3,2.8
			c0,2.3-2,3.1-4,3.1H496.4z M499.3,574h0.3c0.8,0,1.6-0.1,1.6-1.1c0-1-0.9-1.1-1.7-1.1h-0.2V574z M499.3,578.6h0.4
			c0.9,0,2.3,0,2.3-1.2c0-1.3-1.4-1.2-2.4-1.2h-0.3V578.6z"/>
		<path id="XMLID_947_" class="st4" d="M509.2,578.8l-0.8,1.9h-3.1l4.3-11.1h3.2l4.2,11.1h-3.1l-0.7-1.9H509.2z M511.2,573.1
			L511.2,573.1l-1.2,3.5h2.4L511.2,573.1z"/>
		<path id="XMLID_945_" class="st4" d="M520.8,578.3h3.5v2.4h-6.4v-11.1h2.9V578.3z"/>
		<path id="XMLID_943_" class="st4" d="M533.2,573.4c-0.6-0.8-1.5-1.2-2.5-1.2c-1.8,0-3,1.4-3,3.1c0,1.8,1.2,3,3,3
			c0.9,0,1.9-0.5,2.5-1.2v3.5c-1,0.3-1.7,0.5-2.6,0.5c-1.5,0-3-0.6-4.2-1.6c-1.2-1.1-1.8-2.6-1.8-4.2c0-1.5,0.6-3,1.6-4.1
			c1.1-1.1,2.7-1.8,4.2-1.8c0.9,0,1.8,0.2,2.6,0.6V573.4z"/>
		<path id="XMLID_940_" class="st4" d="M537.8,578.8l-0.8,1.9h-3.1l4.3-11.1h3.2l4.2,11.1h-3.1l-0.7-1.9H537.8z M539.8,573.1
			L539.8,573.1l-1.2,3.5h2.4L539.8,573.1z"/>
		<path id="XMLID_938_" class="st4" d="M549.4,578.3h3.5v2.4h-6.4v-11.1h2.9V578.3z"/>
		<path id="XMLID_935_" class="st4" d="M553.8,569.6h4.1c3.1,0,5.7,2.4,5.7,5.6c0,3.1-2.6,5.6-5.7,5.6h-4.1V569.6z M556.7,578.3h0.6
			c1.7,0,3.2-0.9,3.2-3.1c0-2-1.3-3.1-3.2-3.1h-0.7V578.3z"/>
		<path id="XMLID_933_" class="st4" d="M567.8,580.8h-2.9v-11.1h2.9V580.8z"/>
		<path id="XMLID_930_" class="st4" d="M572.5,578.8l-0.8,1.9h-3.1l4.3-11.1h3.2l4.2,11.1h-3.1l-0.7-1.9H572.5z M574.5,573.1
			L574.5,573.1l-1.2,3.5h2.4L574.5,573.1z"/>
		<path id="XMLID_928_" class="st4" d="M480.7,591.1c-0.6-0.8-1.5-1.2-2.5-1.2c-1.8,0-3,1.4-3,3.1c0,1.8,1.2,3,3,3
			c0.9,0,1.9-0.5,2.5-1.2v3.5c-1,0.3-1.7,0.5-2.6,0.5c-1.5,0-3-0.6-4.2-1.6c-1.2-1.1-1.8-2.6-1.8-4.2c0-1.5,0.6-3,1.6-4.1
			c1.1-1.1,2.7-1.8,4.2-1.8c0.9,0,1.8,0.2,2.6,0.6V591.1z"/>
		<path id="XMLID_925_" class="st4" d="M494.2,592.7c0,3.6-2.6,6.1-6.2,6.1c-3.6,0-6.2-2.5-6.2-6.1c0-3.4,3-5.7,6.2-5.7
			C491.3,587,494.2,589.3,494.2,592.7z M484.9,592.7c0,1.9,1.4,3.3,3.1,3.3c1.7,0,3.1-1.4,3.1-3.3c0-1.5-1.4-2.9-3.1-2.9
			C486.3,589.8,484.9,591.2,484.9,592.7z"/>
		<path id="XMLID_921_" class="st4" d="M495.6,598.5v-11.1h4.1c2,0,3.3,0.8,3.3,2.9c0,1-0.3,1.8-1.2,2.3v0c1.6,0.2,2.3,1.3,2.3,2.8
			c0,2.3-2,3.1-4,3.1H495.6z M498.5,591.7h0.3c0.8,0,1.6-0.1,1.6-1.1c0-1-0.9-1.1-1.7-1.1h-0.2V591.7z M498.5,596.3h0.4
			c0.9,0,2.3,0,2.3-1.2c0-1.3-1.4-1.2-2.4-1.2h-0.3V596.3z"/>
		<path id="XMLID_918_" class="st4" d="M514.8,598.5h-3.6l-2.7-4.3h0v4.3h-2.9v-11.1h4.3c2.2,0,3.9,1,3.9,3.4c0,1.5-0.9,2.9-2.4,3.1
			L514.8,598.5z M508.4,592.3h0.3c0.9,0,2-0.2,2-1.4c0-1.2-1.1-1.4-2-1.4h-0.3V592.3z"/>
		<path id="XMLID_915_" class="st4" d="M527.3,592.7c0,3.6-2.6,6.1-6.2,6.1s-6.2-2.5-6.2-6.1c0-3.4,3-5.7,6.2-5.7
			C524.4,587,527.3,589.3,527.3,592.7z M518,592.7c0,1.9,1.4,3.3,3.1,3.3c1.7,0,3.1-1.4,3.1-3.3c0-1.5-1.4-2.9-3.1-2.9
			C519.5,589.8,518,591.2,518,592.7z"/>
	</g>
</g>
<rect id="XMLID_4171_" x="387.8" y="655" class="st3" width="223.2" height="101"/>
<rect id="XMLID_4169_" x="387.8" y="786" class="st3" width="223.2" height="101"/>
<g id="XMLID_15986_">
	<g>
		<path id="XMLID_525_" class="st4" d="M439.8,692.6v7.5c0,2.3-1.2,3.9-3.7,3.9c-1.2,0-2.2-0.6-2.9-1.6l1.7-1.8
			c0.3,0.4,0.8,0.9,1.2,0.9c0.9,0,0.8-1,0.8-1.6v-7.3H439.8z"/>
		<path id="XMLID_523_" class="st4" d="M444.5,695v1.9h3.3v2.4h-3.3v1.9h3.4v2.4h-6.3v-11.1h6.3v2.4H444.5z"/>
		<path id="XMLID_521_" class="st4" d="M452.6,695v1.9h3.2v2.4h-3.2v4.4h-2.9v-11.1h6.4v2.4H452.6z"/>
		<path id="XMLID_519_" class="st4" d="M460.6,695v1.9h3.3v2.4h-3.3v1.9h3.4v2.4h-6.3v-11.1h6.3v2.4H460.6z"/>
		<path id="XMLID_516_" class="st4" d="M470.9,692.6h4.1c3.1,0,5.7,2.4,5.7,5.6c0,3.1-2.6,5.6-5.7,5.6h-4.1V692.6z M473.8,701.2h0.6
			c1.7,0,3.2-0.9,3.2-3.1c0-2-1.3-3.1-3.2-3.1h-0.7V701.2z"/>
		<path id="XMLID_514_" class="st4" d="M484.9,695v1.9h3.3v2.4h-3.3v1.9h3.4v2.4H482v-11.1h6.3v2.4H484.9z"/>
		<path id="XMLID_511_" class="st4" d="M495.2,692.6h4.1c3.1,0,5.7,2.4,5.7,5.6c0,3.1-2.6,5.6-5.7,5.6h-4.1V692.6z M498.1,701.2h0.6
			c1.7,0,3.2-0.9,3.2-3.1c0-2-1.3-3.1-3.2-3.1h-0.7V701.2z"/>
		<path id="XMLID_509_" class="st4" d="M509.2,703.7h-2.9v-11.1h2.9V703.7z"/>
		<path id="XMLID_507_" class="st4" d="M515.7,699.3l2.7-6.8h3.1l-4.8,11.1h-2.2l-4.7-11.1h3.1L515.7,699.3z"/>
		<path id="XMLID_505_" class="st4" d="M525.2,703.7h-2.9v-11.1h2.9V703.7z"/>
		<path id="XMLID_503_" class="st4" d="M533.2,695.4c-0.5-0.4-1.2-0.7-1.9-0.7c-0.5,0-1.2,0.3-1.2,0.9c0,0.6,0.8,0.9,1.3,1.1
			l0.7,0.2c1.5,0.5,2.7,1.2,2.7,3c0,1.1-0.3,2.2-1.2,3c-0.9,0.7-2,1-3.2,1c-1.4,0-2.8-0.5-3.9-1.3l1.2-2.3c0.7,0.6,1.6,1.2,2.6,1.2
			c0.7,0,1.4-0.3,1.4-1.1c0-0.8-1.1-1.1-1.8-1.3c-1.8-0.5-3-1-3-3.1c0-2.3,1.6-3.7,3.8-3.7c1.1,0,2.5,0.4,3.5,0.9L533.2,695.4z"/>
		<path id="XMLID_501_" class="st4" d="M539,703.7h-2.9v-11.1h2.9V703.7z"/>
		<path id="XMLID_471_" class="st4" d="M552.7,697.9c0,3.6-2.6,6.1-6.2,6.1s-6.2-2.5-6.2-6.1c0-3.4,3-5.7,6.2-5.7
			C549.7,692.2,552.7,694.6,552.7,697.9z M543.4,697.9c0,1.9,1.4,3.3,3.1,3.3c1.7,0,3.1-1.4,3.1-3.3c0-1.5-1.4-2.9-3.1-2.9
			C544.8,695,543.4,696.4,543.4,697.9z M546.2,691.9L545,691l2.1-2.5l1.6,1.2L546.2,691.9z"/>
		<path id="XMLID_469_" class="st4" d="M554,692.6h2.9l5.3,6.8h0v-6.8h2.9v11.1h-2.9l-5.3-6.8h0v6.8H554V692.6z"/>
		<path id="XMLID_467_" class="st4" d="M449.1,712.7v1.9h3.2v2.4h-3.2v4.4h-2.9v-11.1h6.4v2.4H449.1z"/>
		<path id="XMLID_464_" class="st4" d="M457,710.9c0,0.8-0.7,1.5-1.5,1.5c-0.8,0-1.5-0.7-1.5-1.5c0-0.8,0.7-1.5,1.5-1.5
			C456.4,709.4,457,710.1,457,710.9z M456.9,721.4h-2.7v-7.6h2.7V721.4z"/>
		<path id="XMLID_462_" class="st4" d="M461.3,715.1L461.3,715.1c0.5-0.9,1.4-1.3,2.5-1.3h0.5v2.6c-0.4-0.2-0.7-0.3-1.1-0.3
			c-1.5,0-1.9,1-1.9,2.3v3.1h-2.7v-7.6h2.7V715.1z"/>
		<path id="XMLID_460_" class="st4" d="M468,714.8L468,714.8c0.7-0.8,1.4-1.2,2.4-1.2c1.1,0,2,0.4,2.6,1.4c0.5-0.9,1.5-1.4,2.6-1.4
			c1.9,0,2.6,1.3,2.6,3v4.8h-2.7v-3.6c0-0.8,0-2.1-1.1-2.1c-1.2,0-1.3,1.2-1.3,2.1v3.6h-2.7v-3.6c0-0.8,0-2.1-1.2-2.1
			c-1.2,0-1.2,1.3-1.2,2.1v3.6h-2.7v-7.6h2.7V714.8z"/>
		<path id="XMLID_457_" class="st4" d="M488.2,721.4h-2.7v-0.8h0c-0.5,0.8-1.4,1.1-2.3,1.1c-2.2,0-3.8-1.9-3.8-4c0-2.2,1.5-4,3.8-4
			c0.9,0,1.8,0.3,2.3,1v-0.7h2.7V721.4z M482.1,717.6c0,1,0.6,1.7,1.7,1.7c1.1,0,1.7-0.7,1.7-1.7c0-0.9-0.6-1.7-1.7-1.7
			C482.8,715.9,482.1,716.7,482.1,717.6z"/>
		<path id="XMLID_455_" class="st4" d="M493.9,713.8h3.1l2,3.9l2-3.9h3.1l-6.1,11.3h-3l2.6-4.8L493.9,713.8z"/>
		<path id="XMLID_453_" class="st4" d="M514.7,715.8c-0.4-0.2-1-0.4-1.4-0.4c-0.3,0-0.8,0.1-0.8,0.5c0,0.5,0.8,0.6,1.2,0.7
			c1.3,0.3,2.2,0.8,2.2,2.2c0,2-1.8,2.8-3.6,2.8c-1.1,0-2.1-0.3-3.1-0.9l1-1.9c0.5,0.4,1.5,0.8,2.1,0.8c0.3,0,0.8-0.2,0.8-0.6
			c0-0.6-0.8-0.6-1.7-0.8c-0.8-0.2-1.7-0.6-1.7-2c0-1.9,1.7-2.7,3.3-2.7c0.9,0,1.7,0.1,2.5,0.5L514.7,715.8z"/>
		<path id="XMLID_450_" class="st4" d="M525.1,718.1h-5.7c0,1.1,0.6,1.7,1.7,1.7c0.6,0,1-0.2,1.3-0.7h2.6c-0.2,0.9-0.7,1.5-1.4,2
			c-0.7,0.4-1.5,0.6-2.4,0.6c-2.5,0-4.4-1.4-4.4-4c0-2.5,1.7-4,4.2-4c2.6,0,4.1,1.6,4.1,4.2V718.1z M522.6,716.5
			c-0.1-0.7-0.8-1.2-1.5-1.2c-0.8,0-1.4,0.4-1.6,1.2H522.6z"/>
		<path id="XMLID_448_" class="st4" d="M529,721.4h-2.7v-12.2h2.7V721.4z"/>
		<path id="XMLID_446_" class="st4" d="M533.5,721.4h-2.7v-12.2h2.7V721.4z"/>
		<path id="XMLID_443_" class="st4" d="M543.8,717.6c0,2.6-2.1,4-4.6,4c-2.4,0-4.6-1.4-4.6-4s2.1-4,4.6-4
			C541.7,713.6,543.8,715,543.8,717.6z M537.5,717.6c0,1,0.6,1.7,1.7,1.7c1.1,0,1.7-0.7,1.7-1.7c0-0.9-0.6-1.7-1.7-1.7
			C538.1,715.9,537.5,716.7,537.5,717.6z"/>
	</g>
</g>
<g id="XMLID_15914_">
	<g>
		<path id="XMLID_722_" class="st4" d="M458.2,824c-0.5-0.4-1.2-0.7-1.9-0.7c-0.5,0-1.2,0.3-1.2,0.9c0,0.6,0.8,0.9,1.3,1.1l0.7,0.2
			c1.5,0.5,2.7,1.2,2.7,3c0,1.1-0.3,2.2-1.2,3c-0.9,0.7-2,1-3.2,1c-1.4,0-2.8-0.5-3.9-1.3l1.2-2.3c0.7,0.6,1.6,1.2,2.6,1.2
			c0.7,0,1.4-0.3,1.4-1.1c0-0.8-1.1-1.1-1.8-1.3c-1.8-0.5-3-1-3-3.1c0-2.3,1.6-3.7,3.8-3.7c1.1,0,2.5,0.4,3.5,0.9L458.2,824z"/>
		<path id="XMLID_720_" class="st4" d="M470.9,821.1v6.3c0,1.4-0.1,2.8-1.2,3.9c-0.9,0.9-2.4,1.2-3.7,1.2s-2.8-0.3-3.7-1.2
			c-1.1-1.1-1.2-2.5-1.2-3.9v-6.3h2.9v5.9c0,1.4,0.1,3,2,3c1.9,0,2-1.6,2-3v-5.9H470.9z"/>
		<path id="XMLID_716_" class="st4" d="M472.7,832.2v-11.1h4.1c2,0,3.3,0.8,3.3,2.9c0,1-0.3,1.8-1.2,2.3v0c1.6,0.2,2.3,1.3,2.3,2.8
			c0,2.3-2,3.1-4,3.1H472.7z M475.6,825.5h0.3c0.8,0,1.6-0.1,1.6-1.1c0-1-0.9-1.1-1.7-1.1h-0.2V825.5z M475.6,830h0.4
			c0.9,0,2.3,0,2.3-1.2c0-1.3-1.4-1.2-2.4-1.2h-0.3V830z"/>
		<path id="XMLID_713_" class="st4" d="M485.5,830.3l-0.8,1.9h-3.1l4.3-11.1h3.2l4.2,11.1h-3.1l-0.7-1.9H485.5z M487.5,824.6
			L487.5,824.6l-1.2,3.5h2.4L487.5,824.6z"/>
		<path id="XMLID_711_" class="st4" d="M497.1,829.8h3.5v2.4h-6.4v-11.1h2.9V829.8z"/>
		<path id="XMLID_709_" class="st4" d="M509.5,824.9c-0.6-0.8-1.5-1.2-2.5-1.2c-1.8,0-3,1.4-3,3.1c0,1.8,1.2,3,3,3
			c0.9,0,1.9-0.5,2.5-1.2v3.5c-1,0.3-1.7,0.5-2.6,0.5c-1.5,0-3-0.6-4.2-1.6c-1.2-1.1-1.8-2.6-1.8-4.2c0-1.5,0.6-3,1.6-4.1
			c1.1-1.1,2.7-1.8,4.2-1.8c0.9,0,1.8,0.2,2.6,0.6V824.9z"/>
		<path id="XMLID_706_" class="st4" d="M514.1,830.3l-0.8,1.9h-3.1l4.3-11.1h3.2l4.2,11.1h-3.1l-0.7-1.9H514.1z M516.1,824.6
			L516.1,824.6l-1.2,3.5h2.4L516.1,824.6z"/>
		<path id="XMLID_704_" class="st4" d="M525.7,829.8h3.5v2.4h-6.4v-11.1h2.9V829.8z"/>
		<path id="XMLID_701_" class="st4" d="M530.1,821.1h4.1c3.1,0,5.7,2.4,5.7,5.6c0,3.1-2.6,5.6-5.7,5.6h-4.1V821.1z M533,829.8h0.6
			c1.7,0,3.2-0.9,3.2-3.1c0-2-1.3-3.1-3.2-3.1H533V829.8z"/>
		<path id="XMLID_699_" class="st4" d="M544.1,823.6v1.9h3.3v2.4h-3.3v1.9h3.4v2.4h-6.3v-11.1h6.3v2.4H544.1z"/>
		<path id="XMLID_697_" class="st4" d="M415.8,841.3v1.9h3.2v2.4h-3.2v4.4h-2.9v-11.1h6.4v2.4H415.8z"/>
		<path id="XMLID_694_" class="st4" d="M423.7,839.5c0,0.8-0.7,1.5-1.5,1.5c-0.8,0-1.5-0.7-1.5-1.5c0-0.8,0.7-1.5,1.5-1.5
			C423,838,423.7,838.6,423.7,839.5z M423.5,849.9h-2.7v-7.6h2.7V849.9z"/>
		<path id="XMLID_692_" class="st4" d="M427.9,843.6L427.9,843.6c0.5-0.9,1.4-1.3,2.5-1.3h0.5v2.6c-0.4-0.2-0.7-0.3-1.1-0.3
			c-1.5,0-1.9,1-1.9,2.3v3.1h-2.7v-7.6h2.7V843.6z"/>
		<path id="XMLID_690_" class="st4" d="M434.6,843.3L434.6,843.3c0.7-0.8,1.4-1.2,2.4-1.2c1.1,0,2,0.4,2.6,1.4
			c0.5-0.9,1.5-1.4,2.6-1.4c1.9,0,2.6,1.3,2.6,3v4.8h-2.7v-3.6c0-0.8,0-2.1-1.1-2.1c-1.2,0-1.3,1.2-1.3,2.1v3.6H437v-3.6
			c0-0.8,0-2.1-1.2-2.1c-1.2,0-1.2,1.3-1.2,2.1v3.6h-2.7v-7.6h2.7V843.3z"/>
		<path id="XMLID_687_" class="st4" d="M454.8,849.9h-2.7v-0.8h0c-0.5,0.8-1.4,1.1-2.3,1.1c-2.2,0-3.8-1.9-3.8-4c0-2.2,1.5-4,3.8-4
			c0.9,0,1.8,0.3,2.3,1v-0.7h2.7V849.9z M448.8,846.2c0,1,0.6,1.7,1.7,1.7c1.1,0,1.7-0.7,1.7-1.7c0-0.9-0.6-1.7-1.7-1.7
			C449.4,844.5,448.8,845.2,448.8,846.2z"/>
		<path id="XMLID_684_" class="st4" d="M467.4,849.1L467.4,849.1c-0.5,0.8-1.4,1.1-2.3,1.1c-2.2,0-3.8-1.9-3.8-4c0-2.2,1.5-4,3.8-4
			c0.9,0,1.8,0.3,2.3,1v-5.4h2.7v12.2h-2.7V849.1z M464,846.2c0,1,0.6,1.7,1.7,1.7c1.1,0,1.7-0.7,1.7-1.7c0-0.9-0.6-1.7-1.7-1.7
			C464.6,844.5,464,845.2,464,846.2z"/>
		<path id="XMLID_681_" class="st4" d="M479.5,846.6h-5.7c0,1.1,0.6,1.7,1.7,1.7c0.6,0,1-0.2,1.3-0.7h2.6c-0.2,0.9-0.7,1.5-1.4,2
			c-0.7,0.4-1.5,0.6-2.4,0.6c-2.5,0-4.4-1.4-4.4-4c0-2.5,1.7-4,4.2-4c2.6,0,4.1,1.6,4.1,4.2V846.6z M477,845.1
			c-0.1-0.7-0.8-1.2-1.5-1.2c-0.8,0-1.4,0.4-1.6,1.2H477z"/>
		<path id="XMLID_678_" class="st4" d="M494.1,849.9h-2.7v-0.8h0c-0.5,0.8-1.4,1.1-2.3,1.1c-2.2,0-3.8-1.9-3.8-4c0-2.2,1.5-4,3.8-4
			c0.9,0,1.8,0.3,2.3,1v-0.7h2.7V849.9z M488,846.2c0,1,0.6,1.7,1.7,1.7c1.1,0,1.7-0.7,1.7-1.7c0-0.9-0.6-1.7-1.7-1.7
			C488.6,844.5,488,845.2,488,846.2z"/>
		<path id="XMLID_675_" class="st4" d="M498.4,843.2L498.4,843.2c0.5-0.8,1.4-1.1,2.3-1.1c2.3,0,3.8,1.9,3.8,4.1c0,2.2-1.5,4-3.8,4
			c-0.9,0-1.8-0.3-2.3-1v4.5h-2.7v-11.3h2.7V843.2z M498.3,846.2c0,1,0.6,1.7,1.7,1.7c1.1,0,1.7-0.7,1.7-1.7c0-0.9-0.6-1.7-1.7-1.7
			C499,844.5,498.3,845.2,498.3,846.2z"/>
		<path id="XMLID_673_" class="st4" d="M508.6,843.6L508.6,843.6c0.5-0.9,1.4-1.3,2.5-1.3h0.5v2.6c-0.4-0.2-0.7-0.3-1.1-0.3
			c-1.5,0-1.9,1-1.9,2.3v3.1h-2.7v-7.6h2.7V843.6z"/>
		<path id="XMLID_670_" class="st4" d="M520.9,846.2c0,2.6-2.1,4-4.6,4c-2.4,0-4.6-1.4-4.6-4c0-2.6,2.1-4,4.6-4
			C518.8,842.1,520.9,843.6,520.9,846.2z M514.6,846.2c0,1,0.6,1.7,1.7,1.7c1.1,0,1.7-0.7,1.7-1.7c0-0.9-0.6-1.7-1.7-1.7
			C515.2,844.5,514.6,845.2,514.6,846.2z"/>
		<path id="XMLID_667_" class="st4" d="M522,837.7h2.7v5.4c0.6-0.7,1.5-1,2.3-1c2.2,0,3.8,1.9,3.8,4c0,2.2-1.6,4-3.8,4
			c-0.9,0-1.8-0.3-2.3-1.1h0v0.8H522V837.7z M524.6,846.2c0,1,0.6,1.7,1.7,1.7c1.1,0,1.7-0.7,1.7-1.7c0-0.9-0.6-1.7-1.7-1.7
			C525.2,844.5,524.6,845.2,524.6,846.2z"/>
		<path id="XMLID_663_" class="st4" d="M540.4,849.9h-2.7v-0.8h0c-0.5,0.8-1.4,1.1-2.3,1.1c-2.2,0-3.8-1.9-3.8-4c0-2.2,1.5-4,3.8-4
			c0.9,0,1.8,0.3,2.3,1v-0.7h2.7V849.9z M534.4,846.2c0,1,0.6,1.7,1.7,1.7c1.1,0,1.7-0.7,1.7-1.7c0-0.9-0.6-1.7-1.7-1.7
			C535,844.5,534.4,845.2,534.4,846.2z"/>
		<path id="XMLID_661_" class="st4" d="M547.7,844.8c-0.4-0.3-0.9-0.5-1.4-0.5c-1,0-1.8,0.8-1.8,1.8c0,1.1,0.8,1.9,1.9,1.9
			c0.5,0,1-0.2,1.3-0.5v2.3c-0.6,0.3-1.2,0.4-1.9,0.4c-2.2,0-4.1-1.7-4.1-4c0-2.4,1.9-4.1,4.2-4.1c0.6,0,1.2,0.1,1.8,0.4V844.8z"/>
		<path id="XMLID_658_" class="st4" d="M552.2,839.5c0,0.8-0.7,1.5-1.5,1.5c-0.8,0-1.5-0.7-1.5-1.5c0-0.8,0.7-1.5,1.5-1.5
			C551.5,838,552.2,838.6,552.2,839.5z M552,849.9h-2.7v-7.6h2.7V849.9z"/>
		<path id="XMLID_654_" class="st4" d="M562.3,846.2c0,2.6-2.1,4-4.6,4c-2.4,0-4.6-1.4-4.6-4c0-2.6,2.1-4,4.6-4
			C560.2,842.1,562.3,843.6,562.3,846.2z M556.1,846.2c0,1,0.6,1.7,1.7,1.7c1.1,0,1.7-0.7,1.7-1.7c0-0.9-0.6-1.7-1.7-1.7
			C556.7,844.5,556.1,845.2,556.1,846.2z M557.5,841.3l-1.2-0.9l2.1-2.5l1.6,1.2L557.5,841.3z"/>
		<path id="XMLID_652_" class="st4" d="M566.2,843.4L566.2,843.4c0.6-0.9,1.4-1.2,2.4-1.2c2,0,2.8,1.3,2.8,3.1v4.7h-2.7v-3.7
			c0-0.7,0.1-2-1.2-2c-1.1,0-1.4,0.8-1.4,1.8v3.9h-2.7v-7.6h2.7V843.4z"/>
	</g>
</g>
<polygon id="XMLID_4165_" class="st5" points="391.1,50.5 381.7,55.9 372.3,61.4 372.3,50.5 372.3,39.7 381.7,45.1 "/>
<polygon id="XMLID_4164_" class="st5" points="497.7,135.6 492.3,126.1 486.9,116.7 497.7,116.7 508.6,116.7 503.2,126.1 "/>
<polygon id="XMLID_4163_" class="st5" points="610.9,183.6 620.3,178.1 629.8,172.7 629.8,183.6 629.8,194.4 620.3,189 "/>
<polygon id="XMLID_4162_" class="st5" points="610.9,50.5 620.3,45.1 629.8,39.7 629.8,50.5 629.8,61.4 620.3,55.9 "/>
<polygon id="XMLID_4161_" class="st5" points="663.8,183.6 654.4,189 645,194.4 645,183.6 645,172.7 654.4,178.1 "/>
<polygon id="XMLID_4160_" class="st5" points="775.5,126.1 770.1,116.7 764.6,107.3 775.5,107.3 786.3,107.3 780.9,116.7 "/>
<polygon id="XMLID_4159_" class="st5" points="497.7,265.9 492.3,256.5 486.9,247.1 497.7,247.1 508.6,247.1 503.2,256.5 "/>
<polygon id="XMLID_4158_" class="st5" points="497.7,396.2 492.3,386.8 486.9,377.4 497.7,377.4 508.6,377.4 503.2,386.8 "/>
<polygon id="XMLID_4157_" class="st5" points="497.7,526.5 492.3,517.1 486.9,507.7 497.7,507.7 508.6,507.7 503.2,517.1 "/>
<polygon id="XMLID_4156_" class="st5" points="497.7,656.9 492.3,647.4 486.9,638 497.7,638 508.6,638 503.2,647.4 "/>
<polygon id="XMLID_4155_" class="st5" points="497.7,787.2 492.3,777.8 486.9,768.4 497.7,768.4 508.6,768.4 503.2,777.8 "/>
<polygon id="XMLID_4153_" class="st5" points="211.1,609.1 205.7,599.7 200.2,590.3 211.1,590.3 222,590.3 216.5,599.7 "/>
<polygon id="XMLID_4152_" class="st5" points="211.1,712.5 216.5,721.9 222,731.3 211.1,731.3 200.2,731.3 205.7,721.9 "/>
<line id="XMLID_4151_" class="st0" x1="211.1" y1="505.3" x2="211.1" y2="606.5"/>
<polyline id="XMLID_4150_" class="st0" points="211.1,721.9 211.1,836.5 387.8,836.5 "/>
<polyline id="XMLID_4149_" class="st0" points="322.7,661 354.9,661 354.9,50 387.8,50 "/>
<line id="XMLID_4148_" class="st0" x1="616.3" y1="183.6" x2="656.4" y2="183.6"/>
<polyline id="XMLID_4147_" class="st0" points="620.3,50.5 775.5,50.5 775.5,120 "/>
</svg>
