<?xml version="1.0" encoding="utf-8"?>
<!-- Generator: Adobe Illustrator 21.0.2, SVG Export Plug-In . SVG Version: 6.00 Build 0)  -->
<svg version="1.1" id="Layer_1" xmlns="http://www.w3.org/2000/svg" xmlns:xlink="http://www.w3.org/1999/xlink" x="0px" y="0px"
	 viewBox="0 0 998.6 841.7" style="enable-background:new 0 0 998.6 841.7;" xml:space="preserve">
<style type="text/css">
	.st0{fill:none;stroke:#E42527;stroke-width:4;stroke-miterlimit:10;}
	.st1{fill:#D81117;}
	.st2{fill:#929191;}
	.st3{fill:#9D9D9C;}
	.st4{fill:#FFFFFF;}
	.st5{fill:#E42527;}
</style>
<line id="XMLID_4456_" class="st0" x1="497.2" y1="88.6" x2="497.2" y2="742.4"/>
<rect id="XMLID_4455_" x="98.6" y="409.9" class="st1" width="223.4" height="101.1"/>
<rect id="XMLID_4454_" x="98.6" y="611.8" class="st2" width="223.4" height="101.1"/>
<rect id="XMLID_4453_" x="387.2" class="st3" width="223.4" height="101.1"/>
<rect id="XMLID_4452_" x="663.5" y="131.2" class="st3" width="236.5" height="101.1"/>
<g id="XMLID_14905_">
	<g>
		<path id="XMLID_1121_" class="st4" d="M133.1,442.4l2.7-6.8h3.1l-4.8,11.1h-2.2l-4.7-11.1h3.1L133.1,442.4z"/>
		<path id="XMLID_1118_" class="st4" d="M144.7,437.8c0,1.6-1.4,2.4-3,2.4c-1.6,0-3-0.9-3-2.4c0-1.6,1.4-2.4,3-2.4
			C143.3,435.4,144.7,436.2,144.7,437.8z M140.6,437.8c0,0.6,0.5,1,1.1,1c0.6,0,1.1-0.4,1.1-1c0-0.6-0.5-1-1.1-1
			C141.1,436.8,140.6,437.2,140.6,437.8z"/>
		<path id="XMLID_1114_" class="st4" d="M150.8,446.8v-11.1h4.1c2,0,3.3,0.8,3.3,2.9c0,1-0.3,1.8-1.2,2.3v0c1.6,0.2,2.3,1.3,2.3,2.8
			c0,2.3-2,3.1-4,3.1H150.8z M153.7,440h0.3c0.8,0,1.6-0.1,1.6-1.1c0-1-0.9-1.1-1.7-1.1h-0.2V440z M153.7,444.6h0.4
			c0.9,0,2.3,0,2.3-1.2c0-1.3-1.4-1.2-2.4-1.2h-0.3V444.6z"/>
		<path id="XMLID_1111_" class="st4" d="M165.8,437.8c0,1.6-1.4,2.4-3,2.4c-1.6,0-3-0.9-3-2.4c0-1.6,1.4-2.4,3-2.4
			C164.4,435.4,165.8,436.2,165.8,437.8z M161.7,437.8c0,0.6,0.5,1,1.1,1c0.6,0,1.1-0.4,1.1-1c0-0.6-0.5-1-1.1-1
			C162.2,436.8,161.7,437.2,161.7,437.8z"/>
		<path id="XMLID_1108_" class="st4" d="M174.7,444.9l-0.8,1.9h-3.1l4.3-11.1h3.2l4.2,11.1h-3.1l-0.7-1.9H174.7z M176.7,439.1
			L176.7,439.1l-1.2,3.5h2.4L176.7,439.1z"/>
		<path id="XMLID_1105_" class="st4" d="M192.7,446.8h-3.6l-2.7-4.3h0v4.3h-2.9v-11.1h4.3c2.2,0,3.9,1,3.9,3.4
			c0,1.5-0.9,2.9-2.4,3.1L192.7,446.8z M186.3,440.7h0.3c0.9,0,2-0.2,2-1.4c0-1.2-1.1-1.4-2-1.4h-0.3V440.7z"/>
		<path id="XMLID_1103_" class="st4" d="M196.4,438.1v1.9h3.3v2.5h-3.3v1.9h3.4v2.5h-6.3v-11.1h6.3v2.5H196.4z"/>
		<path id="XMLID_1100_" class="st4" d="M204.4,444.9l-0.8,1.9h-3.1l4.3-11.1h3.2l4.2,11.1h-3.1l-0.7-1.9H204.4z M206.4,439.1
			L206.4,439.1l-1.2,3.5h2.4L206.4,439.1z"/>
		<path id="XMLID_1098_" class="st4" d="M222.6,446.8h-2.9v-8.7h-2.4v-2.5h7.7v2.5h-2.4V446.8z"/>
		<path id="XMLID_1096_" class="st4" d="M229,438.1v1.9h3.3v2.5H229v1.9h3.4v2.5h-6.3v-11.1h6.3v2.5H229z"/>
		<path id="XMLID_1094_" class="st4" d="M242.1,439.4c-0.6-0.8-1.6-1.2-2.5-1.2c-1.8,0-3,1.4-3,3.1c0,1.8,1.2,3,3,3
			c0.9,0,1.9-0.5,2.5-1.2v3.5c-1,0.3-1.7,0.5-2.6,0.5c-1.6,0-3-0.6-4.2-1.6c-1.2-1.1-1.8-2.6-1.8-4.2c0-1.5,0.6-3,1.6-4.1
			c1.1-1.1,2.7-1.8,4.2-1.8c0.9,0,1.8,0.2,2.6,0.6V439.4z"/>
		<path id="XMLID_1092_" class="st4" d="M243.9,435.7h2.9l5.3,6.8h0v-6.8h2.9v11.1h-2.9l-5.3-6.8h0v6.8h-2.9V435.7z"/>
		<path id="XMLID_1090_" class="st4" d="M259.8,446.8h-2.9v-11.1h2.9V446.8z"/>
		<path id="XMLID_1088_" class="st4" d="M269.7,439.4c-0.6-0.8-1.6-1.2-2.5-1.2c-1.8,0-3,1.4-3,3.1c0,1.8,1.2,3,3,3
			c0.9,0,1.9-0.5,2.5-1.2v3.5c-1,0.3-1.7,0.5-2.6,0.5c-1.6,0-3-0.6-4.2-1.6c-1.2-1.1-1.8-2.6-1.8-4.2c0-1.5,0.6-3,1.6-4.1
			c1.1-1.1,2.7-1.8,4.2-1.8c0.9,0,1.8,0.2,2.6,0.6V439.4z"/>
		<path id="XMLID_1085_" class="st4" d="M274.3,444.9l-0.8,1.9h-3.1l4.3-11.1h3.2l4.2,11.1H279l-0.7-1.9H274.3z M276.3,439.1
			L276.3,439.1l-1.2,3.5h2.4L276.3,439.1z"/>
		<path id="XMLID_1083_" class="st4" d="M175.8,453.4h3.5l2.1,3l2.1-3h3.5l-4.1,5.8v5.3H180v-5.3L175.8,453.4z"/>
		<path id="XMLID_1081_" class="st4" d="M195.6,462.1h3.5v2.5h-6.4v-11.1h2.9V462.1z"/>
		<path id="XMLID_1079_" class="st4" d="M202.9,455.8v1.9h3.3v2.5h-3.3v1.9h3.4v2.5H200v-11.1h6.3v2.5H202.9z"/>
		<path id="XMLID_1077_" class="st4" d="M219.2,458.3c0,1.6-0.1,3-1.1,4.4c-1.1,1.5-2.7,2.2-4.6,2.2c-3.5,0-5.9-2.4-5.9-5.9
			c0-3.6,2.5-6,6-6c2.3,0,4.1,1,5,3.1l-2.7,1.2c-0.4-1.1-1.2-1.8-2.4-1.8c-1.9,0-2.9,1.8-2.9,3.5c0,1.7,1,3.5,2.9,3.5
			c1.3,0,2.2-0.6,2.3-1.9h-2.4v-2.3H219.2z"/>
		<path id="XMLID_1074_" class="st4" d="M223.4,462.6l-0.8,1.9h-3.1l4.3-11.1h3.2l4.2,11.1h-3.1l-0.7-1.9H223.4z M225.4,456.8
			L225.4,456.8l-1.2,3.5h2.4L225.4,456.8z"/>
		<path id="XMLID_1072_" class="st4" d="M235,462.1h3.5v2.5h-6.4v-11.1h2.9V462.1z"/>
		<path id="XMLID_1069_" class="st4" d="M150.5,482.2h-3.6l-2.7-4.3h0v4.3h-2.9v-11.1h4.3c2.2,0,3.9,1,3.9,3.4
			c0,1.5-0.9,2.9-2.4,3.1L150.5,482.2z M144.1,476.1h0.3c0.9,0,2-0.2,2-1.4c0-1.2-1.1-1.4-2-1.4h-0.3V476.1z"/>
		<path id="XMLID_1066_" class="st4" d="M159,478.9h-5.7c0,1.1,0.6,1.7,1.7,1.7c0.6,0,1-0.2,1.3-0.7h2.6c-0.2,0.9-0.7,1.5-1.4,2
			c-0.7,0.4-1.6,0.6-2.4,0.6c-2.5,0-4.4-1.4-4.4-4c0-2.5,1.7-4,4.2-4c2.6,0,4.2,1.6,4.2,4.2V478.9z M156.5,477.4
			c-0.1-0.7-0.8-1.2-1.5-1.2c-0.8,0-1.4,0.4-1.6,1.2H156.5z"/>
		<path id="XMLID_1064_" class="st4" d="M163.9,478.6l1.8-3.9h3l-4,7.6h-1.7l-4-7.6h3L163.9,478.6z"/>
		<path id="XMLID_1061_" class="st4" d="M172.3,471.8c0,0.8-0.7,1.5-1.5,1.5c-0.8,0-1.5-0.7-1.5-1.5c0-0.8,0.7-1.5,1.5-1.5
			C171.6,470.3,172.3,470.9,172.3,471.8z M172.1,482.2h-2.7v-7.6h2.7V482.2z"/>
		<path id="XMLID_1059_" class="st4" d="M178.9,476.6c-0.4-0.2-1-0.4-1.4-0.4c-0.3,0-0.8,0.1-0.8,0.5c0,0.5,0.8,0.6,1.2,0.7
			c1.3,0.3,2.2,0.8,2.2,2.2c0,2-1.8,2.8-3.6,2.8c-1.1,0-2.1-0.3-3.1-0.9l1-1.9c0.5,0.4,1.5,0.8,2.1,0.8c0.3,0,0.8-0.2,0.8-0.6
			c0-0.6-0.8-0.6-1.7-0.8c-0.8-0.2-1.7-0.6-1.7-2c0-1.9,1.7-2.7,3.3-2.7c0.9,0,1.7,0.1,2.5,0.5L178.9,476.6z"/>
		<path id="XMLID_1056_" class="st4" d="M184.3,471.8c0,0.8-0.7,1.5-1.5,1.5c-0.8,0-1.5-0.7-1.5-1.5c0-0.8,0.7-1.5,1.5-1.5
			C183.6,470.3,184.3,470.9,184.3,471.8z M184.1,482.2h-2.7v-7.6h2.7V482.2z"/>
		<path id="XMLID_1052_" class="st4" d="M194.5,478.5c0,2.6-2.1,4-4.6,4c-2.4,0-4.6-1.4-4.6-4s2.1-4,4.6-4
			C192.3,474.4,194.5,475.9,194.5,478.5z M188.2,478.5c0,1,0.6,1.7,1.7,1.7c1.1,0,1.7-0.7,1.7-1.7c0-0.9-0.6-1.7-1.7-1.7
			C188.8,476.8,188.2,477.5,188.2,478.5z M189.6,473.5l-1.2-0.9l2.1-2.5l1.6,1.2L189.6,473.5z"/>
		<path id="XMLID_1050_" class="st4" d="M198.4,475.6L198.4,475.6c0.6-0.9,1.4-1.2,2.5-1.2c2,0,2.9,1.3,2.9,3.1v4.7H201v-3.7
			c0-0.7,0.1-2-1.2-2c-1.1,0-1.4,0.8-1.4,1.8v3.9h-2.7v-7.6h2.7V475.6z"/>
		<path id="XMLID_1047_" class="st4" d="M213.1,475.5L213.1,475.5c0.5-0.8,1.4-1.1,2.3-1.1c2.3,0,3.8,1.9,3.8,4.1c0,2.2-1.6,4-3.8,4
			c-0.9,0-1.8-0.3-2.3-1v4.5h-2.7v-11.4h2.7V475.5z M213,478.5c0,1,0.6,1.7,1.7,1.7c1.1,0,1.7-0.7,1.7-1.7c0-0.9-0.6-1.7-1.7-1.7
			C213.7,476.8,213,477.5,213,478.5z"/>
		<path id="XMLID_951_" class="st4" d="M223.3,475.9L223.3,475.9c0.5-0.9,1.4-1.3,2.5-1.3h0.5v2.6c-0.4-0.2-0.7-0.3-1.1-0.3
			c-1.5,0-1.9,1-1.9,2.3v3.1h-2.7v-7.6h2.7V475.9z"/>
		<path id="XMLID_948_" class="st4" d="M235.1,478.9h-5.7c0,1.1,0.6,1.7,1.7,1.7c0.6,0,1-0.2,1.3-0.7h2.6c-0.2,0.9-0.7,1.5-1.4,2
			c-0.7,0.4-1.6,0.6-2.4,0.6c-2.5,0-4.4-1.4-4.4-4c0-2.5,1.7-4,4.2-4c2.6,0,4.2,1.6,4.2,4.2V478.9z M232.6,477.4
			c-0.1-0.7-0.8-1.2-1.5-1.2c-0.8,0-1.4,0.4-1.6,1.2H232.6z"/>
		<path id="XMLID_946_" class="st4" d="M240,478.6l1.8-3.9h3l-4,7.6h-1.7l-4-7.6h3L240,478.6z"/>
		<path id="XMLID_943_" class="st4" d="M248.3,471.8c0,0.8-0.7,1.5-1.5,1.5c-0.8,0-1.5-0.7-1.5-1.5c0-0.8,0.7-1.5,1.5-1.5
			C247.7,470.3,248.3,470.9,248.3,471.8z M248.2,482.2h-2.7v-7.6h2.7V482.2z"/>
		<path id="XMLID_940_" class="st4" d="M258.2,482.2h-2.7v-0.8h0c-0.5,0.8-1.4,1.1-2.3,1.1c-2.2,0-3.8-1.9-3.8-4s1.6-4,3.8-4
			c0.9,0,1.8,0.3,2.3,1v-0.7h2.7V482.2z M252.2,478.5c0,1,0.6,1.7,1.7,1.7c1.1,0,1.7-0.7,1.7-1.7c0-0.9-0.6-1.7-1.7-1.7
			C252.8,476.8,252.2,477.5,252.2,478.5z"/>
		<path id="XMLID_938_" class="st4" d="M263.4,480.8c0,0.9-0.8,1.7-1.7,1.7c-1,0-1.7-0.8-1.7-1.7c0-1,0.8-1.7,1.7-1.7
			C262.6,479.1,263.4,479.9,263.4,480.8z"/>
	</g>
</g>
<g id="XMLID_14870_">
	<g>
		<path id="XMLID_272_" class="st4" d="M135.1,664l2.7-6.8h3.1l-4.8,11.1H134l-4.7-11.1h3.1L135.1,664z"/>
		<path id="XMLID_270_" class="st4" d="M144.6,659.7v1.9h3.3v2.5h-3.3v1.9h3.4v2.5h-6.3v-11.1h6.3v2.5H144.6z"/>
		<path id="XMLID_268_" class="st4" d="M149.8,657.2h2.9l5.3,6.8h0v-6.8h2.9v11.1H158l-5.3-6.8h0v6.8h-2.9V657.2z"/>
		<path id="XMLID_266_" class="st4" d="M167.3,668.4h-2.9v-8.7H162v-2.5h7.7v2.5h-2.4V668.4z"/>
		<path id="XMLID_263_" class="st4" d="M172.7,666.4l-0.8,1.9h-3.1l4.3-11.1h3.2l4.2,11.1h-3.1l-0.7-1.9H172.7z M174.7,660.7
			L174.7,660.7l-1.2,3.5h2.4L174.7,660.7z"/>
		<path id="XMLID_261_" class="st4" d="M181.4,657.2h2.9l5.3,6.8h0v-6.8h2.9v11.1h-2.9l-5.3-6.8h0v6.8h-2.9V657.2z"/>
		<path id="XMLID_259_" class="st4" d="M197.3,668.4h-2.9v-11.1h2.9V668.4z"/>
		<path id="XMLID_257_" class="st4" d="M202.1,665.9h3.5v2.5h-6.4v-11.1h2.9V665.9z"/>
		<path id="XMLID_255_" class="st4" d="M209.4,665.9h3.5v2.5h-6.4v-11.1h2.9V665.9z"/>
		<path id="XMLID_252_" class="st4" d="M216.6,666.4l-0.8,1.9h-3.1l4.3-11.1h3.2l4.2,11.1h-3.1l-0.7-1.9H216.6z M218.6,660.7
			L218.6,660.7l-1.2,3.5h2.4L218.6,660.7z"/>
		<path id="XMLID_249_" class="st4" d="M240,657.2v6.3c0,1.4-0.1,2.9-1.2,3.9c-0.9,0.9-2.4,1.2-3.7,1.2s-2.8-0.3-3.7-1.2
			c-1.1-1.1-1.2-2.5-1.2-3.9v-6.3h2.9v5.9c0,1.4,0.1,3,2,3c1.9,0,2-1.6,2-3v-5.9H240z M234.8,656.6l-1.2-0.9l2.1-2.5l1.6,1.2
			L234.8,656.6z"/>
		<path id="XMLID_247_" class="st4" d="M241.9,657.2h2.9l5.3,6.8h0v-6.8h2.9v11.1h-2.9l-5.3-6.8h0v6.8h-2.9V657.2z"/>
		<path id="XMLID_245_" class="st4" d="M257.8,668.4h-2.9v-11.1h2.9V668.4z"/>
		<path id="XMLID_243_" class="st4" d="M267.6,661c-0.6-0.8-1.6-1.2-2.5-1.2c-1.8,0-3,1.4-3,3.1c0,1.8,1.2,3,3,3
			c0.9,0,1.9-0.5,2.5-1.2v3.5c-1,0.3-1.7,0.5-2.6,0.5c-1.6,0-3-0.6-4.2-1.6c-1.2-1.1-1.8-2.6-1.8-4.2c0-1.5,0.6-3,1.6-4.1
			c1.1-1.1,2.7-1.8,4.2-1.8c0.9,0,1.8,0.2,2.6,0.6V661z"/>
		<path id="XMLID_240_" class="st4" d="M272.3,666.4l-0.8,1.9h-3.1l4.3-11.1h3.2l4.2,11.1H277l-0.7-1.9H272.3z M274.3,660.7
			L274.3,660.7l-1.2,3.5h2.4L274.3,660.7z"/>
	</g>
</g>
<g id="XMLID_14776_">
	<g>
		<path id="XMLID_1043_" class="st4" d="M410.3,48.6l-0.8,1.9h-3.1l4.3-11.1h3.2l4.2,11.1H415l-0.7-1.9H410.3z M412.3,42.9
			L412.3,42.9l-1.2,3.5h2.4L412.3,42.9z"/>
		<path id="XMLID_1039_" class="st4" d="M419,50.6V39.4h4.1c2,0,3.3,0.8,3.3,2.9c0,1-0.3,1.8-1.2,2.3v0c1.6,0.2,2.3,1.3,2.3,2.8
			c0,2.3-2,3.1-4,3.1H419z M421.9,43.8h0.3c0.8,0,1.6-0.1,1.6-1.1c0-1-0.9-1.1-1.7-1.1h-0.2V43.8z M421.9,48.4h0.4
			c0.9,0,2.3,0,2.3-1.2c0-1.3-1.4-1.2-2.4-1.2h-0.3V48.4z"/>
		<path id="XMLID_1036_" class="st4" d="M440.8,44.8c0,3.6-2.6,6.1-6.2,6.1s-6.2-2.5-6.2-6.1c0-3.4,3-5.7,6.2-5.7
			C437.8,39.1,440.8,41.4,440.8,44.8z M431.5,44.8c0,1.9,1.4,3.3,3.1,3.3c1.7,0,3.1-1.4,3.1-3.3c0-1.5-1.4-2.9-3.1-2.9
			C432.9,41.9,431.5,43.3,431.5,44.8z"/>
		<path id="XMLID_1034_" class="st4" d="M453.2,44.4c0,1.6-0.1,3-1.1,4.4c-1.1,1.5-2.7,2.2-4.6,2.2c-3.5,0-5.9-2.4-5.9-5.9
			c0-3.6,2.5-6,6-6c2.3,0,4.1,1,5,3.1l-2.7,1.2c-0.4-1.1-1.2-1.8-2.4-1.8c-1.9,0-2.9,1.8-2.9,3.5c0,1.7,1,3.5,2.9,3.5
			c1.3,0,2.2-0.6,2.3-1.9h-2.4v-2.3H453.2z"/>
		<path id="XMLID_1031_" class="st4" d="M457.4,48.6l-0.8,1.9h-3.1l4.3-11.1h3.2l4.2,11.1h-3.1l-0.7-1.9H457.4z M459.4,42.9
			L459.4,42.9l-1.2,3.5h2.4L459.4,42.9z"/>
		<path id="XMLID_1028_" class="st4" d="M466.1,39.4h4.1c3.1,0,5.7,2.4,5.7,5.6s-2.6,5.6-5.7,5.6h-4.1V39.4z M469,48.1h0.6
			c1.7,0,3.2-0.9,3.2-3.1c0-2-1.3-3.1-3.2-3.1H469V48.1z"/>
		<path id="XMLID_1025_" class="st4" d="M489,44.8c0,3.6-2.6,6.1-6.2,6.1s-6.2-2.5-6.2-6.1c0-3.4,3-5.7,6.2-5.7
			C486,39.1,489,41.4,489,44.8z M479.7,44.8c0,1.9,1.4,3.3,3.1,3.3c1.7,0,3.1-1.4,3.1-3.3c0-1.5-1.4-2.9-3.1-2.9
			C481.1,41.9,479.7,43.3,479.7,44.8z"/>
		<path id="XMLID_1023_" class="st4" d="M505,39.4v6.3c0,1.4-0.1,2.9-1.2,3.9c-0.9,0.9-2.4,1.2-3.7,1.2c-1.3,0-2.8-0.3-3.7-1.2
			c-1.1-1.1-1.2-2.5-1.2-3.9v-6.3h2.9v5.9c0,1.4,0.1,3,2,3c1.9,0,2-1.6,2-3v-5.9H505z"/>
		<path id="XMLID_1020_" class="st4" d="M516.1,50.6h-3.6l-2.7-4.3h0v4.3h-2.9V39.4h4.3c2.2,0,3.9,1,3.9,3.4c0,1.5-0.9,2.9-2.4,3.1
			L516.1,50.6z M509.8,44.4h0.3c0.9,0,2-0.2,2-1.4c0-1.2-1.1-1.4-2-1.4h-0.3V44.4z"/>
		<path id="XMLID_1016_" class="st4" d="M516.9,50.6V39.4h4.1c2,0,3.3,0.8,3.3,2.9c0,1-0.3,1.8-1.2,2.3v0c1.6,0.2,2.3,1.3,2.3,2.8
			c0,2.3-2,3.1-4,3.1H516.9z M519.8,43.8h0.3c0.8,0,1.6-0.1,1.6-1.1c0-1-0.9-1.1-1.7-1.1h-0.2V43.8z M519.8,48.4h0.4
			c0.9,0,2.3,0,2.3-1.2c0-1.3-1.4-1.2-2.4-1.2h-0.3V48.4z"/>
		<path id="XMLID_1013_" class="st4" d="M529.7,48.6l-0.8,1.9h-3.1l4.3-11.1h3.2l4.2,11.1h-3.1l-0.7-1.9H529.7z M531.8,42.9
			L531.8,42.9l-1.2,3.5h2.4L531.8,42.9z"/>
		<path id="XMLID_1011_" class="st4" d="M538.5,39.4h2.9l5.3,6.8h0v-6.8h2.9v11.1h-2.9l-5.3-6.8h0v6.8h-2.9V39.4z"/>
		<path id="XMLID_1008_" class="st4" d="M554.4,50.6h-2.9V39.4h2.9V50.6z"/>
		<path id="XMLID_1006_" class="st4" d="M562.4,42.3c-0.5-0.4-1.2-0.7-1.9-0.7c-0.5,0-1.2,0.3-1.2,0.9c0,0.6,0.8,0.9,1.3,1.1
			l0.7,0.2c1.6,0.5,2.7,1.2,2.7,3c0,1.1-0.3,2.2-1.2,3c-0.9,0.7-2,1-3.2,1c-1.4,0-2.8-0.5-3.9-1.3l1.2-2.3c0.7,0.6,1.6,1.2,2.6,1.2
			c0.7,0,1.4-0.3,1.4-1.1c0-0.8-1.1-1.1-1.8-1.3c-1.8-0.5-3-1-3-3.1c0-2.3,1.6-3.7,3.8-3.7c1.1,0,2.5,0.4,3.5,0.9L562.4,42.3z"/>
		<path id="XMLID_1004_" class="st4" d="M566.6,39.4h2.9l2.3,6l2.4-6h2.9l1.7,11.1h-2.9l-0.8-6.4h0l-2.7,6.4h-1.2l-2.6-6.4h0
			l-0.9,6.4h-2.9L566.6,39.4z"/>
		<path id="XMLID_1001_" class="st4" d="M591.6,44.8c0,3.6-2.6,6.1-6.2,6.1s-6.2-2.5-6.2-6.1c0-3.4,3-5.7,6.2-5.7
			C588.7,39.1,591.6,41.4,591.6,44.8z M582.3,44.8c0,1.9,1.4,3.3,3.1,3.3c1.7,0,3.1-1.4,3.1-3.3c0-1.5-1.4-2.9-3.1-2.9
			C583.7,41.9,582.3,43.3,582.3,44.8z"/>
		<path id="XMLID_999_" class="st4" d="M420.8,63.9l2.7-6.8h3.1l-4.8,11.1h-2.2L415,57.2h3.1L420.8,63.9z"/>
		<path id="XMLID_996_" class="st4" d="M434,65h-5.7c0,1.1,0.6,1.7,1.7,1.7c0.6,0,1-0.2,1.3-0.7h2.6c-0.2,0.9-0.7,1.5-1.4,2
			c-0.7,0.4-1.6,0.6-2.4,0.6c-2.5,0-4.4-1.4-4.4-4c0-2.5,1.7-4,4.2-4c2.6,0,4.2,1.6,4.2,4.2V65z M431.5,63.4
			c-0.1-0.7-0.8-1.2-1.5-1.2c-0.8,0-1.4,0.4-1.6,1.2H431.5z"/>
		<path id="XMLID_994_" class="st4" d="M437.9,62L437.9,62c0.5-0.9,1.4-1.3,2.5-1.3h0.5v2.6c-0.4-0.2-0.7-0.3-1.1-0.3
			c-1.5,0-1.9,1-1.9,2.3v3.1h-2.7v-7.6h2.7V62z"/>
		<path id="XMLID_991_" class="st4" d="M444.8,57.8c0,0.8-0.7,1.5-1.5,1.5c-0.8,0-1.5-0.7-1.5-1.5c0-0.8,0.7-1.5,1.5-1.5
			C444.1,56.3,444.8,57,444.8,57.8z M444.6,68.3h-2.7v-7.6h2.7V68.3z"/>
		<path id="XMLID_987_" class="st4" d="M449.2,68.3h-2.7v-5.4h-0.9v-2.2h0.9v-1c0-1,0-1.8,0.8-2.7c0.7-0.8,1.6-1.2,2.6-1.2
			c0.4,0,0.8,0.1,1.2,0.3v2.3c-0.3-0.1-0.6-0.3-0.9-0.3c-0.7,0-0.9,0.4-0.9,1.3v1.2h1.9v2.2h-1.9V68.3z M454.8,57.8
			c0,0.8-0.7,1.5-1.5,1.5c-0.8,0-1.5-0.7-1.5-1.5c0-0.8,0.7-1.5,1.5-1.5C454.1,56.3,454.8,57,454.8,57.8z M454.6,68.3H452v-7.6h2.7
			V68.3z"/>
		<path id="XMLID_985_" class="st4" d="M461.9,63.2c-0.4-0.3-0.9-0.5-1.4-0.5c-1,0-1.8,0.8-1.8,1.8c0,1.1,0.8,1.9,1.9,1.9
			c0.5,0,1-0.2,1.3-0.5v2.3c-0.6,0.3-1.2,0.4-1.9,0.4c-2.2,0-4.1-1.7-4.1-4c0-2.4,1.9-4.1,4.2-4.1c0.6,0,1.2,0.1,1.8,0.4V63.2z"/>
		<path id="XMLID_982_" class="st4" d="M471.8,68.3h-2.7v-0.8h0c-0.5,0.8-1.4,1.1-2.3,1.1c-2.2,0-3.8-1.9-3.8-4c0-2.2,1.6-4,3.8-4
			c0.9,0,1.8,0.3,2.3,1v-0.7h2.7V68.3z M465.8,64.5c0,1,0.6,1.7,1.7,1.7c1.1,0,1.7-0.7,1.7-1.7c0-0.9-0.6-1.7-1.7-1.7
			C466.4,62.8,465.8,63.6,465.8,64.5z"/>
		<path id="XMLID_980_" class="st4" d="M479.1,63.2c-0.4-0.3-0.9-0.5-1.4-0.5c-1,0-1.8,0.8-1.8,1.8c0,1.1,0.8,1.9,1.9,1.9
			c0.5,0,1-0.2,1.3-0.5v2.3c-0.6,0.3-1.2,0.4-1.9,0.4c-2.2,0-4.1-1.7-4.1-4c0-2.4,1.9-4.1,4.2-4.1c0.6,0,1.2,0.1,1.8,0.4V63.2z"/>
		<path id="XMLID_977_" class="st4" d="M483.6,57.8c0,0.8-0.7,1.5-1.5,1.5c-0.8,0-1.5-0.7-1.5-1.5c0-0.8,0.7-1.5,1.5-1.5
			C482.9,56.3,483.6,57,483.6,57.8z M483.4,68.3h-2.7v-7.6h2.7V68.3z"/>
		<path id="XMLID_973_" class="st4" d="M493.8,64.5c0,2.6-2.1,4-4.6,4c-2.4,0-4.6-1.4-4.6-4s2.1-4,4.6-4
			C491.7,60.5,493.8,61.9,493.8,64.5z M487.5,64.5c0,1,0.6,1.7,1.7,1.7c1.1,0,1.7-0.7,1.7-1.7c0-0.9-0.6-1.7-1.7-1.7
			C488.1,62.8,487.5,63.6,487.5,64.5z M488.9,59.6l-1.2-0.9l2.1-2.5l1.6,1.2L488.9,59.6z"/>
		<path id="XMLID_971_" class="st4" d="M497.7,61.7L497.7,61.7c0.6-0.9,1.4-1.2,2.5-1.2c2,0,2.9,1.3,2.9,3.1v4.7h-2.7v-3.7
			c0-0.7,0.1-2-1.2-2c-1.1,0-1.4,0.8-1.4,1.8v3.9H495v-7.6h2.7V61.7z"/>
		<path id="XMLID_968_" class="st4" d="M517.6,65H512c0,1.1,0.6,1.7,1.7,1.7c0.6,0,1-0.2,1.3-0.7h2.6c-0.2,0.9-0.7,1.5-1.4,2
			c-0.7,0.4-1.6,0.6-2.4,0.6c-2.5,0-4.4-1.4-4.4-4c0-2.5,1.7-4,4.2-4c2.6,0,4.2,1.6,4.2,4.2V65z M515.1,63.4
			c-0.1-0.7-0.8-1.2-1.5-1.2c-0.8,0-1.4,0.4-1.6,1.2H515.1z"/>
		<path id="XMLID_966_" class="st4" d="M526.9,68.3H524V57.2h2.9V68.3z"/>
		<path id="XMLID_964_" class="st4" d="M531.4,61.7L531.4,61.7c0.7-0.9,1.4-1.2,2.5-1.2c2,0,2.9,1.3,2.9,3.1v4.7H534v-3.7
			c0-0.7,0.1-2-1.2-2c-1.1,0-1.4,0.8-1.4,1.8v3.9h-2.7v-7.6h2.7V61.7z"/>
		<path id="XMLID_962_" class="st4" d="M541.4,68.3h-2.7v-5.4h-0.9v-2.2h0.9v-1c0-1,0-1.8,0.8-2.7c0.7-0.8,1.6-1.2,2.6-1.2
			c0.4,0,0.8,0.1,1.2,0.3v2.3c-0.3-0.1-0.6-0.3-0.9-0.3c-0.7,0-0.9,0.4-0.9,1.3v1.2h1.9v2.2h-1.9V68.3z"/>
		<path id="XMLID_959_" class="st4" d="M552.7,64.5c0,2.6-2.1,4-4.6,4c-2.4,0-4.6-1.4-4.6-4s2.1-4,4.6-4
			C550.6,60.5,552.7,61.9,552.7,64.5z M546.5,64.5c0,1,0.6,1.7,1.7,1.7c1.1,0,1.7-0.7,1.7-1.7c0-0.9-0.6-1.7-1.7-1.7
			C547.1,62.8,546.5,63.6,546.5,64.5z"/>
		<path id="XMLID_957_" class="st4" d="M556.6,62L556.6,62c0.5-0.9,1.4-1.3,2.5-1.3h0.5v2.6c-0.4-0.2-0.7-0.3-1.1-0.3
			c-1.5,0-1.9,1-1.9,2.3v3.1H554v-7.6h2.7V62z"/>
		<path id="XMLID_955_" class="st4" d="M563.3,61.7L563.3,61.7c0.7-0.8,1.4-1.2,2.4-1.2c1.1,0,2,0.4,2.6,1.4
			c0.5-0.9,1.5-1.4,2.6-1.4c1.9,0,2.6,1.3,2.6,3v4.8h-2.7v-3.6c0-0.8,0-2.1-1.1-2.1c-1.2,0-1.3,1.2-1.3,2.1v3.6h-2.7v-3.6
			c0-0.8,0-2.1-1.2-2.1c-1.2,0-1.2,1.3-1.2,2.1v3.6h-2.7v-7.6h2.7V61.7z"/>
		<path id="XMLID_952_" class="st4" d="M583,65h-5.7c0,1.1,0.6,1.7,1.7,1.7c0.6,0,1-0.2,1.3-0.7h2.6c-0.2,0.9-0.7,1.5-1.4,2
			s-1.6,0.6-2.4,0.6c-2.5,0-4.4-1.4-4.4-4c0-2.5,1.7-4,4.2-4c2.6,0,4.2,1.6,4.2,4.2V65z M580.5,63.4c-0.1-0.7-0.8-1.2-1.5-1.2
			c-0.8,0-1.4,0.4-1.6,1.2H580.5z"/>
	</g>
</g>
<g id="XMLID_14716_">
	<g>
		<path id="XMLID_623_" class="st4" d="M720.4,169.3c-0.6-0.8-1.6-1.2-2.5-1.2c-1.8,0-3,1.4-3,3.1c0,1.8,1.2,3,3,3
			c0.9,0,1.9-0.5,2.5-1.2v3.5c-1,0.3-1.7,0.5-2.6,0.5c-1.6,0-3-0.6-4.2-1.6c-1.2-1.1-1.8-2.6-1.8-4.2c0-1.5,0.6-3,1.6-4.1
			c1.1-1.1,2.7-1.8,4.2-1.8c0.9,0,1.8,0.2,2.6,0.6V169.3z"/>
		<path id="XMLID_620_" class="st4" d="M733.9,170.9c0,3.6-2.6,6.1-6.2,6.1s-6.2-2.5-6.2-6.1c0-3.4,3-5.7,6.2-5.7
			C731,165.2,733.9,167.5,733.9,170.9z M724.6,170.9c0,1.9,1.4,3.3,3.1,3.3c1.7,0,3.1-1.4,3.1-3.3c0-1.5-1.4-2.9-3.1-2.9
			C726,168,724.6,169.4,724.6,170.9z"/>
		<path id="XMLID_591_" class="st4" d="M735.3,165.5h2.9l5.3,6.8h0v-6.8h2.9v11.1h-2.9l-5.3-6.8h0v6.8h-2.9V165.5z"/>
		<path id="XMLID_589_" class="st4" d="M752.7,176.7h-2.9V168h-2.4v-2.5h7.7v2.5h-2.4V176.7z"/>
		<path id="XMLID_586_" class="st4" d="M765.4,176.7h-3.6l-2.7-4.3h0v4.3h-2.9v-11.1h4.3c2.2,0,3.9,1,3.9,3.4c0,1.5-0.9,2.9-2.4,3.1
			L765.4,176.7z M759.1,170.5h0.3c0.9,0,2-0.2,2-1.4c0-1.2-1.1-1.4-2-1.4h-0.3V170.5z"/>
		<path id="XMLID_584_" class="st4" d="M769.1,176.7h-2.9v-11.1h2.9V176.7z"/>
		<path id="XMLID_580_" class="st4" d="M771,176.7v-11.1h4.1c2,0,3.3,0.8,3.3,2.9c0,1-0.3,1.8-1.2,2.3v0c1.6,0.2,2.3,1.3,2.3,2.8
			c0,2.3-2,3.1-4,3.1H771z M773.9,169.9h0.3c0.8,0,1.6-0.1,1.6-1.1c0-1-0.9-1.1-1.7-1.1h-0.2V169.9z M773.9,174.4h0.4
			c0.9,0,2.3,0,2.3-1.2c0-1.3-1.4-1.2-2.4-1.2h-0.3V174.4z"/>
		<path id="XMLID_578_" class="st4" d="M790.6,165.5v6.3c0,1.4-0.1,2.9-1.2,3.9c-0.9,0.9-2.4,1.2-3.7,1.2c-1.3,0-2.8-0.3-3.7-1.2
			c-1.1-1.1-1.2-2.5-1.2-3.9v-6.3h2.9v5.9c0,1.4,0.1,3,2,3c1.9,0,2-1.6,2-3v-5.9H790.6z"/>
		<path id="XMLID_576_" class="st4" d="M791.3,165.5h3.5l2.1,3l2.1-3h3.5l-4.1,5.8v5.3h-2.9v-5.3L791.3,165.5z"/>
		<path id="XMLID_574_" class="st4" d="M805.9,168v1.9h3.3v2.5h-3.3v1.9h3.4v2.5H803v-11.1h6.3v2.5H805.9z"/>
		<path id="XMLID_572_" class="st4" d="M811.1,165.5h2.9l5.3,6.8h0v-6.8h2.9v11.1h-2.9l-5.3-6.8h0v6.8h-2.9V165.5z"/>
		<path id="XMLID_570_" class="st4" d="M828.6,176.7h-2.9V168h-2.4v-2.5h7.7v2.5h-2.4V176.7z"/>
		<path id="XMLID_568_" class="st4" d="M834.9,168v1.9h3.3v2.5h-3.3v1.9h3.4v2.5H832v-11.1h6.3v2.5H834.9z"/>
		<path id="XMLID_566_" class="st4" d="M735.9,187c-0.6-0.8-1.6-1.2-2.5-1.2c-1.8,0-3,1.4-3,3.1c0,1.8,1.2,3,3,3
			c0.9,0,1.9-0.5,2.5-1.2v3.5c-1,0.3-1.7,0.5-2.6,0.5c-1.6,0-3-0.6-4.2-1.6c-1.2-1.1-1.8-2.6-1.8-4.2c0-1.5,0.6-3,1.6-4.1
			c1.1-1.1,2.7-1.8,4.2-1.8c0.9,0,1.8,0.2,2.6,0.6V187z"/>
		<path id="XMLID_563_" class="st4" d="M746.2,190.6c0,2.6-2.1,4-4.6,4c-2.4,0-4.6-1.4-4.6-4c0-2.6,2.1-4,4.6-4
			C744,186.6,746.2,188,746.2,190.6z M739.9,190.6c0,1,0.6,1.7,1.7,1.7c1.1,0,1.7-0.7,1.7-1.7c0-0.9-0.6-1.7-1.7-1.7
			C740.5,188.9,739.9,189.7,739.9,190.6z"/>
		<path id="XMLID_561_" class="st4" d="M750.1,188.1L750.1,188.1c0.5-0.9,1.4-1.3,2.5-1.3h0.5v2.6c-0.4-0.2-0.7-0.3-1.1-0.3
			c-1.5,0-1.9,1-1.9,2.3v3.1h-2.7v-7.6h2.7V188.1z"/>
		<path id="XMLID_559_" class="st4" d="M756.7,188.1L756.7,188.1c0.5-0.9,1.4-1.3,2.5-1.3h0.5v2.6c-0.4-0.2-0.7-0.3-1.1-0.3
			c-1.5,0-1.9,1-1.9,2.3v3.1h-2.7v-7.6h2.7V188.1z"/>
		<path id="XMLID_556_" class="st4" d="M768.5,191.1h-5.7c0,1.1,0.6,1.7,1.7,1.7c0.6,0,1-0.2,1.3-0.7h2.6c-0.2,0.9-0.7,1.5-1.4,2
			c-0.7,0.4-1.6,0.6-2.4,0.6c-2.5,0-4.4-1.4-4.4-4c0-2.5,1.7-4,4.2-4c2.6,0,4.2,1.6,4.2,4.2V191.1z M766,189.5
			c-0.1-0.7-0.8-1.2-1.5-1.2c-0.8,0-1.4,0.4-1.6,1.2H766z"/>
		<path id="XMLID_554_" class="st4" d="M775.2,189.3c-0.4-0.3-0.9-0.5-1.4-0.5c-1,0-1.8,0.8-1.8,1.8c0,1.1,0.8,1.9,1.9,1.9
			c0.5,0,1-0.2,1.3-0.5v2.3c-0.6,0.3-1.2,0.4-1.9,0.4c-2.2,0-4.1-1.7-4.1-4c0-2.4,1.9-4.1,4.2-4.1c0.6,0,1.2,0.1,1.8,0.4V189.3z"/>
		<path id="XMLID_552_" class="st4" d="M782.4,189.3c-0.4-0.3-0.9-0.5-1.4-0.5c-1,0-1.8,0.8-1.8,1.8c0,1.1,0.8,1.9,1.9,1.9
			c0.5,0,1-0.2,1.3-0.5v2.3c-0.6,0.3-1.2,0.4-1.9,0.4c-2.2,0-4.1-1.7-4.1-4c0-2.4,1.9-4.1,4.2-4.1c0.6,0,1.2,0.1,1.8,0.4V189.3z"/>
		<path id="XMLID_549_" class="st4" d="M786.9,183.9c0,0.8-0.7,1.5-1.5,1.5c-0.8,0-1.5-0.7-1.5-1.5c0-0.8,0.7-1.5,1.5-1.5
			C786.2,182.4,786.9,183.1,786.9,183.9z M786.7,194.4H784v-7.6h2.7V194.4z"/>
		<path id="XMLID_546_" class="st4" d="M797.1,190.6c0,2.6-2.1,4-4.6,4c-2.4,0-4.6-1.4-4.6-4c0-2.6,2.1-4,4.6-4
			C794.9,186.6,797.1,188,797.1,190.6z M790.8,190.6c0,1,0.6,1.7,1.7,1.7c1.1,0,1.7-0.7,1.7-1.7c0-0.9-0.6-1.7-1.7-1.7
			C791.4,188.9,790.8,189.7,790.8,190.6z"/>
		<path id="XMLID_544_" class="st4" d="M801,187.8L801,187.8c0.6-0.9,1.4-1.2,2.5-1.2c2,0,2.9,1.3,2.9,3.1v4.7h-2.7v-3.7
			c0-0.7,0.1-2-1.2-2c-1.1,0-1.4,0.8-1.4,1.8v3.9h-2.7v-7.6h2.7V187.8z"/>
		<path id="XMLID_541_" class="st4" d="M815.8,191.1h-5.7c0,1.1,0.6,1.7,1.7,1.7c0.6,0,1-0.2,1.3-0.7h2.6c-0.2,0.9-0.7,1.5-1.4,2
			c-0.7,0.4-1.6,0.6-2.4,0.6c-2.5,0-4.4-1.4-4.4-4c0-2.5,1.7-4,4.2-4c2.6,0,4.2,1.6,4.2,4.2V191.1z M813.3,189.5
			c-0.1-0.7-0.8-1.2-1.5-1.2c-0.8,0-1.4,0.4-1.6,1.2H813.3z"/>
		<path id="XMLID_539_" class="st4" d="M822,188.8c-0.4-0.2-1-0.4-1.4-0.4c-0.3,0-0.8,0.1-0.8,0.5c0,0.5,0.8,0.6,1.2,0.7
			c1.3,0.3,2.2,0.8,2.2,2.2c0,2-1.8,2.8-3.6,2.8c-1.1,0-2.1-0.3-3.1-0.9l1-1.9c0.5,0.4,1.5,0.8,2.1,0.8c0.3,0,0.8-0.2,0.8-0.6
			c0-0.6-0.8-0.6-1.7-0.8c-0.8-0.2-1.7-0.6-1.7-2c0-1.9,1.7-2.7,3.3-2.7c0.9,0,1.7,0.1,2.5,0.5L822,188.8z"/>
	</g>
</g>
<rect id="XMLID_4447_" x="387.2" y="131.2" class="st3" width="223.4" height="101.1"/>
<rect id="XMLID_4446_" x="387.2" y="262.3" class="st3" width="223.4" height="101.1"/>
<g id="XMLID_14513_">
	<g>
		<path id="XMLID_2220_" class="st4" d="M420.9,158.7l-0.8,1.9h-3.1l4.3-11.1h3.2l4.2,11.1h-3.1l-0.7-1.9H420.9z M422.9,153
			L422.9,153l-1.2,3.5h2.4L422.9,153z"/>
		<path id="XMLID_2217_" class="st4" d="M438.9,160.7h-3.6l-2.7-4.3h0v4.3h-2.9v-11.1h4.3c2.2,0,3.9,1,3.9,3.4
			c0,1.5-0.9,2.9-2.4,3.1L438.9,160.7z M432.5,154.5h0.3c0.9,0,2-0.2,2-1.4c0-1.2-1.1-1.4-2-1.4h-0.3V154.5z"/>
		<path id="XMLID_2215_" class="st4" d="M442.6,152v1.9h3.3v2.5h-3.3v1.9h3.4v2.5h-6.3v-11.1h6.3v2.5H442.6z"/>
		<path id="XMLID_2212_" class="st4" d="M450.6,158.7l-0.8,1.9h-3.1l4.3-11.1h3.2l4.2,11.1h-3.1l-0.7-1.9H450.6z M452.7,153
			L452.7,153l-1.2,3.5h2.4L452.7,153z"/>
		<path id="XMLID_2210_" class="st4" d="M468.8,160.7h-2.9V152h-2.4v-2.5h7.7v2.5h-2.4V160.7z"/>
		<path id="XMLID_2208_" class="st4" d="M475.2,152v1.9h3.3v2.5h-3.3v1.9h3.4v2.5h-6.3v-11.1h6.3v2.5H475.2z"/>
		<path id="XMLID_2206_" class="st4" d="M488.4,153.3c-0.6-0.8-1.6-1.2-2.5-1.2c-1.8,0-3,1.4-3,3.1c0,1.8,1.2,3,3,3
			c0.9,0,1.9-0.5,2.5-1.2v3.5c-1,0.3-1.7,0.5-2.6,0.5c-1.6,0-3-0.6-4.2-1.6c-1.2-1.1-1.8-2.6-1.8-4.2c0-1.5,0.6-3,1.6-4.1
			c1.1-1.1,2.7-1.8,4.2-1.8c0.9,0,1.8,0.2,2.6,0.6V153.3z"/>
		<path id="XMLID_2204_" class="st4" d="M490.1,149.5h2.9l5.3,6.8h0v-6.8h2.9v11.1h-2.9l-5.3-6.8h0v6.8h-2.9V149.5z"/>
		<path id="XMLID_2202_" class="st4" d="M506.1,160.7h-2.9v-11.1h2.9V160.7z"/>
		<path id="XMLID_2200_" class="st4" d="M515.9,153.3c-0.6-0.8-1.6-1.2-2.5-1.2c-1.8,0-3,1.4-3,3.1c0,1.8,1.2,3,3,3
			c0.9,0,1.9-0.5,2.5-1.2v3.5c-1,0.3-1.7,0.5-2.6,0.5c-1.6,0-3-0.6-4.2-1.6c-1.2-1.1-1.8-2.6-1.8-4.2c0-1.5,0.6-3,1.6-4.1
			c1.1-1.1,2.7-1.8,4.2-1.8c0.9,0,1.8,0.2,2.6,0.6V153.3z"/>
		<path id="XMLID_2197_" class="st4" d="M529.5,154.9c0,3.6-2.6,6.1-6.2,6.1c-3.6,0-6.2-2.5-6.2-6.1c0-3.4,3-5.7,6.2-5.7
			C526.5,149.2,529.5,151.5,529.5,154.9z M520.1,154.9c0,1.9,1.4,3.3,3.1,3.3c1.7,0,3.1-1.4,3.1-3.3c0-1.5-1.4-2.9-3.1-2.9
			C521.6,152,520.1,153.4,520.1,154.9z"/>
		<path id="XMLID_2195_" class="st4" d="M536.9,152.4c-0.5-0.4-1.2-0.7-1.9-0.7c-0.5,0-1.2,0.3-1.2,0.9c0,0.6,0.8,0.9,1.3,1.1
			l0.7,0.2c1.6,0.5,2.7,1.2,2.7,3c0,1.1-0.3,2.2-1.2,3c-0.9,0.7-2,1-3.2,1c-1.4,0-2.8-0.5-3.9-1.3l1.2-2.3c0.7,0.6,1.6,1.2,2.6,1.2
			c0.7,0,1.4-0.3,1.4-1.1c0-0.8-1.1-1.1-1.8-1.3c-1.8-0.5-3-1-3-3.1c0-2.3,1.6-3.7,3.8-3.7c1.1,0,2.5,0.4,3.5,0.9L536.9,152.4z"/>
		<path id="XMLID_2193_" class="st4" d="M547.1,148.4l-5.6,13.6h-2.1l5.6-13.6H547.1z"/>
		<path id="XMLID_2190_" class="st4" d="M551.3,158.7l-0.8,1.9h-3.1l4.3-11.1h3.2l4.2,11.1H556l-0.7-1.9H551.3z M553.3,153
			L553.3,153l-1.2,3.5h2.4L553.3,153z"/>
		<path id="XMLID_2187_" class="st4" d="M569.2,160.7h-3.6l-2.7-4.3h0v4.3H560v-11.1h4.3c2.2,0,3.9,1,3.9,3.4c0,1.5-0.9,2.9-2.4,3.1
			L569.2,160.7z M562.9,154.5h0.3c0.9,0,2-0.2,2-1.4c0-1.2-1.1-1.4-2-1.4h-0.3V154.5z"/>
		<path id="XMLID_2184_" class="st4" d="M579.6,161.4l-0.9-1c-0.9,0.5-1.9,0.7-3.1,0.7c-3.6,0-6.2-2.5-6.2-6.1c0-3.4,3-5.7,6.2-5.7
			c3.5,0,6.2,2.3,6.2,6c0,1.5-0.5,2.8-1.4,3.9l1.9,1.9L579.6,161.4z M578.3,156.8c0.3-0.5,0.5-1.1,0.5-1.6c0-1.7-1.4-3.2-3.1-3.2
			c-1.7,0-3.2,1.4-3.2,2.9c0,1.9,1.4,3.3,3.2,3.3c0.3,0,0.6,0,0.9-0.1l-1.8-1.8l2.7-0.3L578.3,156.8z"/>
		<path id="XMLID_2182_" class="st4" d="M417.8,178.4h-2.9v-11.1h2.9V178.4z"/>
		<path id="XMLID_2180_" class="st4" d="M422.3,171.8L422.3,171.8c0.6-0.9,1.4-1.2,2.5-1.2c2,0,2.9,1.3,2.9,3.1v4.7h-2.7v-3.7
			c0-0.7,0.1-2-1.2-2c-1.1,0-1.4,0.8-1.4,1.8v3.9h-2.7v-7.6h2.7V171.8z"/>
		<path id="XMLID_2178_" class="st4" d="M434.4,172.8c-0.4-0.2-1-0.4-1.4-0.4c-0.3,0-0.8,0.1-0.8,0.5c0,0.5,0.8,0.6,1.2,0.7
			c1.3,0.3,2.2,0.8,2.2,2.2c0,2-1.8,2.8-3.6,2.8c-1.1,0-2.1-0.3-3.1-0.9l1-1.9c0.5,0.4,1.5,0.8,2.1,0.8c0.3,0,0.8-0.2,0.8-0.6
			c0-0.6-0.8-0.6-1.7-0.8c-0.8-0.2-1.7-0.6-1.7-2c0-1.9,1.7-2.7,3.3-2.7c0.9,0,1.7,0.1,2.5,0.5L434.4,172.8z"/>
		<path id="XMLID_2175_" class="st4" d="M439.6,171.7L439.6,171.7c0.5-0.8,1.4-1.1,2.3-1.1c2.3,0,3.8,1.9,3.8,4.1c0,2.2-1.6,4-3.8,4
			c-0.9,0-1.8-0.3-2.3-1v4.5h-2.7v-11.4h2.7V171.7z M439.5,174.6c0,1,0.6,1.7,1.7,1.7c1.1,0,1.7-0.7,1.7-1.7c0-0.9-0.6-1.7-1.7-1.7
			C440.1,172.9,439.5,173.7,439.5,174.6z"/>
		<path id="XMLID_2172_" class="st4" d="M454.8,175.1h-5.7c0,1.1,0.6,1.7,1.7,1.7c0.6,0,1-0.2,1.3-0.7h2.6c-0.2,0.9-0.7,1.5-1.4,2
			c-0.7,0.4-1.6,0.6-2.4,0.6c-2.5,0-4.4-1.4-4.4-4c0-2.5,1.7-4,4.2-4c2.6,0,4.2,1.6,4.2,4.2V175.1z M452.3,173.5
			c-0.1-0.7-0.8-1.2-1.5-1.2c-0.8,0-1.4,0.4-1.6,1.2H452.3z"/>
		<path id="XMLID_2170_" class="st4" d="M461.5,173.3c-0.4-0.3-0.9-0.5-1.4-0.5c-1,0-1.8,0.8-1.8,1.8c0,1.1,0.8,1.9,1.9,1.9
			c0.5,0,1-0.2,1.3-0.5v2.3c-0.6,0.3-1.2,0.4-1.9,0.4c-2.2,0-4.1-1.7-4.1-4c0-2.4,1.9-4.1,4.2-4.1c0.6,0,1.2,0.1,1.8,0.4V173.3z"/>
		<path id="XMLID_2168_" class="st4" d="M468.7,173.3c-0.4-0.3-0.9-0.5-1.4-0.5c-1,0-1.8,0.8-1.8,1.8c0,1.1,0.8,1.9,1.9,1.9
			c0.5,0,1-0.2,1.3-0.5v2.3c-0.6,0.3-1.2,0.4-1.9,0.4c-2.2,0-4.1-1.7-4.1-4c0-2.4,1.9-4.1,4.2-4.1c0.6,0,1.2,0.1,1.8,0.4V173.3z"/>
		<path id="XMLID_2165_" class="st4" d="M473.2,167.9c0,0.8-0.7,1.5-1.5,1.5c-0.8,0-1.5-0.7-1.5-1.5c0-0.8,0.7-1.5,1.5-1.5
			C472.5,166.4,473.2,167.1,473.2,167.9z M473,178.4h-2.7v-7.6h2.7V178.4z"/>
		<path id="XMLID_2161_" class="st4" d="M483.4,174.6c0,2.6-2.1,4-4.6,4c-2.4,0-4.6-1.4-4.6-4c0-2.6,2.1-4,4.6-4
			C481.2,170.6,483.4,172,483.4,174.6z M477.1,174.6c0,1,0.6,1.7,1.7,1.7c1.1,0,1.7-0.7,1.7-1.7c0-0.9-0.6-1.7-1.7-1.7
			C477.7,172.9,477.1,173.7,477.1,174.6z M478.5,169.7l-1.2-0.9l2.1-2.5l1.6,1.2L478.5,169.7z"/>
		<path id="XMLID_2159_" class="st4" d="M487.3,171.8L487.3,171.8c0.7-0.9,1.4-1.2,2.5-1.2c2,0,2.9,1.3,2.9,3.1v4.7h-2.7v-3.7
			c0-0.7,0.1-2-1.2-2c-1.1,0-1.4,0.8-1.4,1.8v3.9h-2.7v-7.6h2.7V171.8z"/>
		<path id="XMLID_2157_" class="st4" d="M502.1,178.4h-2.7v-12.3h2.7V178.4z"/>
		<path id="XMLID_2155_" class="st4" d="M506.6,178.4h-2.7v-12.3h2.7V178.4z"/>
		<path id="XMLID_2152_" class="st4" d="M516.1,175.1h-5.7c0,1.1,0.6,1.7,1.7,1.7c0.6,0,1-0.2,1.3-0.7h2.6c-0.2,0.9-0.7,1.5-1.4,2
			s-1.6,0.6-2.4,0.6c-2.5,0-4.4-1.4-4.4-4c0-2.5,1.7-4,4.2-4c2.6,0,4.2,1.6,4.2,4.2V175.1z M513.6,173.5c-0.1-0.7-0.8-1.2-1.5-1.2
			c-0.8,0-1.4,0.4-1.6,1.2H513.6z"/>
		<path id="XMLID_2150_" class="st4" d="M520,171.8L520,171.8c0.6-0.9,1.4-1.2,2.5-1.2c2,0,2.9,1.3,2.9,3.1v4.7h-2.7v-3.7
			c0-0.7,0.1-2-1.2-2c-1.1,0-1.4,0.8-1.4,1.8v3.9h-2.7v-7.6h2.7V171.8z"/>
		<path id="XMLID_2147_" class="st4" d="M535.4,178.4h-2.7v-0.8h0c-0.5,0.8-1.4,1.1-2.3,1.1c-2.2,0-3.8-1.9-3.8-4c0-2.2,1.6-4,3.8-4
			c0.9,0,1.8,0.3,2.3,1v-0.7h2.7V178.4z M529.3,174.6c0,1,0.6,1.7,1.7,1.7c1.1,0,1.7-0.7,1.7-1.7c0-0.9-0.6-1.7-1.7-1.7
			C530,172.9,529.3,173.7,529.3,174.6z"/>
		<path id="XMLID_2144_" class="st4" d="M542.9,177.5L542.9,177.5c-0.5,0.8-1.4,1.1-2.3,1.1c-2.2,0-3.8-1.9-3.8-4c0-2.2,1.6-4,3.8-4
			c0.9,0,1.8,0.3,2.3,1v-5.4h2.7v12.3h-2.7V177.5z M539.5,174.6c0,1,0.6,1.7,1.7,1.7c1.1,0,1.7-0.7,1.7-1.7c0-0.9-0.6-1.7-1.7-1.7
			C540.1,172.9,539.5,173.7,539.5,174.6z"/>
		<path id="XMLID_2141_" class="st4" d="M555.8,174.6c0,2.6-2.1,4-4.6,4c-2.4,0-4.6-1.4-4.6-4c0-2.6,2.1-4,4.6-4
			C553.7,170.6,555.8,172,555.8,174.6z M549.5,174.6c0,1,0.6,1.7,1.7,1.7c1.1,0,1.7-0.7,1.7-1.7c0-0.9-0.6-1.7-1.7-1.7
			C550.2,172.9,549.5,173.7,549.5,174.6z"/>
		<path id="XMLID_2138_" class="st4" d="M567.8,177.5L567.8,177.5c-0.5,0.8-1.4,1.1-2.3,1.1c-2.2,0-3.8-1.9-3.8-4c0-2.2,1.6-4,3.8-4
			c0.9,0,1.8,0.3,2.3,1v-5.4h2.7v12.3h-2.7V177.5z M564.4,174.6c0,1,0.6,1.7,1.7,1.7c1.1,0,1.7-0.7,1.7-1.7c0-0.9-0.6-1.7-1.7-1.7
			C565.1,172.9,564.4,173.7,564.4,174.6z"/>
		<path id="XMLID_2135_" class="st4" d="M580,175.1h-5.7c0,1.1,0.6,1.7,1.7,1.7c0.6,0,1-0.2,1.3-0.7h2.6c-0.2,0.9-0.7,1.5-1.4,2
			c-0.7,0.4-1.6,0.6-2.4,0.6c-2.5,0-4.4-1.4-4.4-4c0-2.5,1.7-4,4.2-4c2.6,0,4.2,1.6,4.2,4.2V175.1z M577.5,173.5
			c-0.1-0.7-0.8-1.2-1.5-1.2c-0.8,0-1.4,0.4-1.6,1.2H577.5z"/>
		<path id="XMLID_2133_" class="st4" d="M404.4,196.1h-2.7v-5.4h-0.9v-2.2h0.9v-1c0-1,0-1.8,0.8-2.7c0.7-0.8,1.6-1.2,2.6-1.2
			c0.4,0,0.8,0.1,1.2,0.3v2.3c-0.3-0.1-0.6-0.3-0.9-0.3c-0.7,0-0.9,0.4-0.9,1.3v1.2h1.9v2.2h-1.9V196.1z"/>
		<path id="XMLID_2130_" class="st4" d="M415.8,192.3c0,2.6-2.1,4-4.6,4c-2.4,0-4.6-1.4-4.6-4c0-2.6,2.1-4,4.6-4
			C413.6,188.3,415.8,189.7,415.8,192.3z M409.5,192.3c0,1,0.6,1.7,1.7,1.7c1.1,0,1.7-0.7,1.7-1.7c0-0.9-0.6-1.7-1.7-1.7
			C410.1,190.6,409.5,191.4,409.5,192.3z"/>
		<path id="XMLID_2128_" class="st4" d="M419.7,189.8L419.7,189.8c0.5-0.9,1.4-1.3,2.5-1.3h0.5v2.6c-0.4-0.2-0.7-0.3-1.1-0.3
			c-1.5,0-1.9,1-1.9,2.3v3.1H417v-7.6h2.7V189.8z"/>
		<path id="XMLID_2126_" class="st4" d="M426.4,189.5L426.4,189.5c0.7-0.8,1.4-1.2,2.4-1.2c1.1,0,2,0.4,2.6,1.4
			c0.5-0.9,1.5-1.4,2.6-1.4c1.9,0,2.6,1.3,2.6,3v4.8h-2.7v-3.6c0-0.8,0-2.1-1.1-2.1c-1.2,0-1.3,1.2-1.3,2.1v3.6h-2.7v-3.6
			c0-0.8,0-2.1-1.2-2.1c-1.2,0-1.2,1.3-1.2,2.1v3.6h-2.7v-7.6h2.7V189.5z"/>
		<path id="XMLID_2124_" class="st4" d="M440.9,188.5v4c0,1,0.2,1.6,1.3,1.6c1.1,0,1.3-0.7,1.3-1.6v-4h2.7v4.6c0,2.5-1.8,3.3-4,3.3
			s-4-0.8-4-3.3v-4.6H440.9z"/>
		<path id="XMLID_2122_" class="st4" d="M450.7,196.1H448v-12.3h2.7V196.1z"/>
		<path id="XMLID_2119_" class="st4" d="M460.8,196.1h-2.7v-0.8h0c-0.5,0.8-1.4,1.1-2.3,1.1c-2.2,0-3.8-1.9-3.8-4c0-2.2,1.6-4,3.8-4
			c0.9,0,1.8,0.3,2.3,1v-0.7h2.7V196.1z M454.7,192.3c0,1,0.6,1.7,1.7,1.7c1.1,0,1.7-0.7,1.7-1.7c0-0.9-0.6-1.7-1.7-1.7
			C455.3,190.6,454.7,191.4,454.7,192.3z"/>
		<path id="XMLID_2117_" class="st4" d="M465.2,189.8L465.2,189.8c0.5-0.9,1.4-1.3,2.5-1.3h0.5v2.6c-0.4-0.2-0.7-0.3-1.1-0.3
			c-1.5,0-1.9,1-1.9,2.3v3.1h-2.7v-7.6h2.7V189.8z"/>
		<path id="XMLID_2114_" class="st4" d="M472.1,185.6c0,0.8-0.7,1.5-1.5,1.5c-0.8,0-1.5-0.7-1.5-1.5c0-0.8,0.7-1.5,1.5-1.5
			C471.4,184.1,472.1,184.8,472.1,185.6z M471.9,196.1h-2.7v-7.6h2.7V196.1z"/>
		<path id="XMLID_2111_" class="st4" d="M482.3,192.3c0,2.6-2.1,4-4.6,4c-2.4,0-4.6-1.4-4.6-4c0-2.6,2.1-4,4.6-4
			C480.1,188.3,482.3,189.7,482.3,192.3z M476,192.3c0,1,0.6,1.7,1.7,1.7c1.1,0,1.7-0.7,1.7-1.7c0-0.9-0.6-1.7-1.7-1.7
			C476.6,190.6,476,191.4,476,192.3z"/>
		<path id="XMLID_2109_" class="st4" d="M487.4,188.5h3.1l2,3.9l2-3.9h3.1l-6.1,11.4h-3l2.6-4.8L487.4,188.5z"/>
		<path id="XMLID_2106_" class="st4" d="M511.1,192.8h-5.7c0,1.1,0.6,1.7,1.7,1.7c0.6,0,1-0.2,1.3-0.7h2.6c-0.2,0.9-0.7,1.5-1.4,2
			c-0.7,0.4-1.6,0.6-2.4,0.6c-2.5,0-4.4-1.4-4.4-4c0-2.5,1.7-4,4.2-4c2.6,0,4.2,1.6,4.2,4.2V192.8z M508.6,191.2
			c-0.1-0.7-0.8-1.2-1.5-1.2c-0.8,0-1.4,0.4-1.6,1.2H508.6z"/>
		<path id="XMLID_2104_" class="st4" d="M515,196.1h-2.7v-12.3h2.7V196.1z"/>
		<path id="XMLID_2101_" class="st4" d="M525,196.1h-2.7v-0.8h0c-0.5,0.8-1.4,1.1-2.3,1.1c-2.2,0-3.8-1.9-3.8-4c0-2.2,1.6-4,3.8-4
			c0.9,0,1.8,0.3,2.3,1v-0.7h2.7V196.1z M519,192.3c0,1,0.6,1.7,1.7,1.7c1.1,0,1.7-0.7,1.7-1.7c0-0.9-0.6-1.7-1.7-1.7
			C519.6,190.6,519,191.4,519,192.3z"/>
		<path id="XMLID_2098_" class="st4" d="M526.7,183.9h2.7v5.4c0.6-0.7,1.5-1,2.3-1c2.2,0,3.8,1.9,3.8,4c0,2.2-1.6,4-3.8,4
			c-0.9,0-1.8-0.3-2.3-1.1h0v0.8h-2.7V183.9z M529.3,192.3c0,1,0.6,1.7,1.7,1.7c1.1,0,1.7-0.7,1.7-1.7c0-0.9-0.6-1.7-1.7-1.7
			C530,190.6,529.3,191.4,529.3,192.3z"/>
		<path id="XMLID_2095_" class="st4" d="M545.5,192.3c0,2.6-2.1,4-4.6,4c-2.4,0-4.6-1.4-4.6-4c0-2.6,2.1-4,4.6-4
			C543.3,188.3,545.5,189.7,545.5,192.3z M539.2,192.3c0,1,0.6,1.7,1.7,1.7c1.1,0,1.7-0.7,1.7-1.7c0-0.9-0.6-1.7-1.7-1.7
			C539.8,190.6,539.2,191.4,539.2,192.3z"/>
		<path id="XMLID_2093_" class="st4" d="M549.4,189.8L549.4,189.8c0.5-0.9,1.4-1.3,2.5-1.3h0.5v2.6c-0.4-0.2-0.7-0.3-1.1-0.3
			c-1.5,0-1.9,1-1.9,2.3v3.1h-2.7v-7.6h2.7V189.8z"/>
		<path id="XMLID_2090_" class="st4" d="M561.6,196.1H559v-0.8h0c-0.5,0.8-1.4,1.1-2.3,1.1c-2.2,0-3.8-1.9-3.8-4c0-2.2,1.6-4,3.8-4
			c0.9,0,1.8,0.3,2.3,1v-0.7h2.7V196.1z M555.6,192.3c0,1,0.6,1.7,1.7,1.7c1.1,0,1.7-0.7,1.7-1.7c0-0.9-0.6-1.7-1.7-1.7
			C556.2,190.6,555.6,191.4,555.6,192.3z"/>
		<path id="XMLID_2088_" class="st4" d="M568.9,191c-0.4-0.3-0.9-0.5-1.4-0.5c-1,0-1.8,0.8-1.8,1.8c0,1.1,0.8,1.9,1.9,1.9
			c0.5,0,1-0.2,1.3-0.5v2.3c-0.6,0.3-1.2,0.4-1.9,0.4c-2.2,0-4.1-1.7-4.1-4c0-2.4,1.9-4.1,4.2-4.1c0.6,0,1.2,0.1,1.8,0.4V191z"/>
		<path id="XMLID_2085_" class="st4" d="M573.4,185.6c0,0.8-0.7,1.5-1.5,1.5c-0.8,0-1.5-0.7-1.5-1.5c0-0.8,0.7-1.5,1.5-1.5
			C572.7,184.1,573.4,184.8,573.4,185.6z M573.3,196.1h-2.7v-7.6h2.7V196.1z"/>
		<path id="XMLID_2081_" class="st4" d="M583.6,192.3c0,2.6-2.1,4-4.6,4c-2.4,0-4.6-1.4-4.6-4c0-2.6,2.1-4,4.6-4
			C581.5,188.3,583.6,189.7,583.6,192.3z M577.3,192.3c0,1,0.6,1.7,1.7,1.7c1.1,0,1.7-0.7,1.7-1.7c0-0.9-0.6-1.7-1.7-1.7
			C577.9,190.6,577.3,191.4,577.3,192.3z M578.7,187.4l-1.2-0.9l2.1-2.5l1.6,1.2L578.7,187.4z"/>
		<path id="XMLID_2079_" class="st4" d="M587.5,189.5L587.5,189.5c0.6-0.9,1.4-1.2,2.5-1.2c2,0,2.9,1.3,2.9,3.1v4.7h-2.7v-3.7
			c0-0.7,0.1-2-1.2-2c-1.1,0-1.4,0.8-1.4,1.8v3.9h-2.7v-7.6h2.7V189.5z"/>
		<path id="XMLID_2076_" class="st4" d="M410.4,213L410.4,213c-0.5,0.8-1.4,1.1-2.3,1.1c-2.2,0-3.8-1.9-3.8-4c0-2.2,1.6-4,3.8-4
			c0.9,0,1.8,0.3,2.3,1v-5.4h2.7v12.3h-2.7V213z M407.1,210.1c0,1,0.6,1.7,1.7,1.7c1.1,0,1.7-0.7,1.7-1.7c0-0.9-0.6-1.7-1.7-1.7
			C407.7,208.3,407.1,209.1,407.1,210.1z"/>
		<path id="XMLID_2073_" class="st4" d="M422.6,210.5h-5.7c0,1.1,0.6,1.7,1.7,1.7c0.6,0,1-0.2,1.3-0.7h2.6c-0.2,0.9-0.7,1.5-1.4,2
			c-0.7,0.4-1.6,0.6-2.4,0.6c-2.5,0-4.4-1.4-4.4-4c0-2.5,1.7-4,4.2-4c2.6,0,4.2,1.6,4.2,4.2V210.5z M420.1,209
			c-0.1-0.7-0.8-1.2-1.5-1.2c-0.8,0-1.4,0.4-1.6,1.2H420.1z"/>
		<path id="XMLID_2070_" class="st4" d="M428.8,201.6h2.7v5.4c0.6-0.7,1.5-1,2.3-1c2.2,0,3.8,1.9,3.8,4c0,2.2-1.6,4-3.8,4
			c-0.9,0-1.8-0.3-2.3-1.1h0v0.8h-2.7V201.6z M431.4,210.1c0,1,0.6,1.7,1.7,1.7c1.1,0,1.7-0.7,1.7-1.7c0-0.9-0.6-1.7-1.7-1.7
			C432,208.3,431.4,209.1,431.4,210.1z"/>
		<path id="XMLID_2067_" class="st4" d="M447.5,210.1c0,2.6-2.1,4-4.6,4c-2.4,0-4.6-1.4-4.6-4c0-2.6,2.1-4,4.6-4
			C445.4,206,447.5,207.5,447.5,210.1z M441.2,210.1c0,1,0.6,1.7,1.7,1.7c1.1,0,1.7-0.7,1.7-1.7c0-0.9-0.6-1.7-1.7-1.7
			C441.9,208.3,441.2,209.1,441.2,210.1z"/>
		<path id="XMLID_2065_" class="st4" d="M451.4,213.8h-2.7v-12.3h2.7V213.8z"/>
		<path id="XMLID_2062_" class="st4" d="M461,210.5h-5.7c0,1.1,0.6,1.7,1.7,1.7c0.6,0,1-0.2,1.3-0.7h2.6c-0.2,0.9-0.7,1.5-1.4,2
			c-0.7,0.4-1.6,0.6-2.4,0.6c-2.5,0-4.4-1.4-4.4-4c0-2.5,1.7-4,4.2-4c2.6,0,4.2,1.6,4.2,4.2V210.5z M458.5,209
			c-0.1-0.7-0.8-1.2-1.5-1.2c-0.8,0-1.4,0.4-1.6,1.2H458.5z"/>
		<path id="XMLID_2060_" class="st4" d="M465.2,213.8h-2.7v-5.4h-0.9v-2.2h0.9V204h2.7v2.3h1.5v2.2h-1.5V213.8z"/>
		<path id="XMLID_2057_" class="st4" d="M475.8,213.8h-2.7V213h0c-0.5,0.8-1.4,1.1-2.3,1.1c-2.2,0-3.8-1.9-3.8-4c0-2.2,1.6-4,3.8-4
			c0.9,0,1.8,0.3,2.3,1v-0.7h2.7V213.8z M469.8,210.1c0,1,0.6,1.7,1.7,1.7c1.1,0,1.7-0.7,1.7-1.7c0-0.9-0.6-1.7-1.7-1.7
			C470.4,208.3,469.8,209.1,469.8,210.1z"/>
		<path id="XMLID_2054_" class="st4" d="M488.4,213L488.4,213c-0.5,0.8-1.4,1.1-2.3,1.1c-2.2,0-3.8-1.9-3.8-4c0-2.2,1.6-4,3.8-4
			c0.9,0,1.8,0.3,2.3,1v-5.4h2.7v12.3h-2.7V213z M485,210.1c0,1,0.6,1.7,1.7,1.7c1.1,0,1.7-0.7,1.7-1.7c0-0.9-0.6-1.7-1.7-1.7
			C485.6,208.3,485,209.1,485,210.1z"/>
		<path id="XMLID_2051_" class="st4" d="M500.5,210.5h-5.7c0,1.1,0.6,1.7,1.7,1.7c0.6,0,1-0.2,1.3-0.7h2.6c-0.2,0.9-0.7,1.5-1.4,2
			c-0.7,0.4-1.6,0.6-2.4,0.6c-2.5,0-4.4-1.4-4.4-4c0-2.5,1.7-4,4.2-4c2.6,0,4.2,1.6,4.2,4.2V210.5z M498,209
			c-0.1-0.7-0.8-1.2-1.5-1.2c-0.8,0-1.4,0.4-1.6,1.2H498z"/>
		<path id="XMLID_2049_" class="st4" d="M509.5,213.8h-2.7v-12.3h2.7V213.8z"/>
		<path id="XMLID_2046_" class="st4" d="M514.1,203.4c0,0.8-0.7,1.5-1.5,1.5c-0.8,0-1.5-0.7-1.5-1.5c0-0.8,0.7-1.5,1.5-1.5
			C513.5,201.8,514.1,202.5,514.1,203.4z M514,213.8h-2.7v-7.6h2.7V213.8z"/>
		<path id="XMLID_2043_" class="st4" d="M524.1,217.6h-2.7v-4.5c-0.6,0.7-1.5,1-2.3,1c-2.3,0-3.8-1.8-3.8-4c0-2.2,1.6-4.1,3.8-4.1
			c0.9,0,1.8,0.4,2.3,1.1h0v-0.9h2.7V217.6z M518.1,210.1c0,1,0.6,1.7,1.7,1.7c1.1,0,1.7-0.7,1.7-1.7c0-0.9-0.6-1.7-1.7-1.7
			C518.7,208.3,518.1,209.1,518.1,210.1z"/>
		<path id="XMLID_2041_" class="st4" d="M528.5,206.3v4c0,1,0.2,1.6,1.3,1.6s1.3-0.7,1.3-1.6v-4h2.7v4.6c0,2.5-1.8,3.3-4,3.3
			c-2.3,0-4-0.8-4-3.3v-4.6H528.5z"/>
		<path id="XMLID_2038_" class="st4" d="M538.4,203.4c0,0.8-0.7,1.5-1.5,1.5c-0.8,0-1.5-0.7-1.5-1.5c0-0.8,0.7-1.5,1.5-1.5
			C537.7,201.8,538.4,202.5,538.4,203.4z M538.2,213.8h-2.7v-7.6h2.7V213.8z"/>
		<path id="XMLID_2035_" class="st4" d="M545.7,213L545.7,213c-0.5,0.8-1.4,1.1-2.3,1.1c-2.2,0-3.8-1.9-3.8-4c0-2.2,1.6-4,3.8-4
			c0.9,0,1.8,0.3,2.3,1v-5.4h2.7v12.3h-2.7V213z M542.3,210.1c0,1,0.6,1.7,1.7,1.7c1.1,0,1.7-0.7,1.7-1.7c0-0.9-0.6-1.7-1.7-1.7
			C543,208.3,542.3,209.1,542.3,210.1z"/>
		<path id="XMLID_2032_" class="st4" d="M558.4,213.8h-2.7V213h0c-0.5,0.8-1.4,1.1-2.3,1.1c-2.2,0-3.8-1.9-3.8-4c0-2.2,1.6-4,3.8-4
			c0.9,0,1.8,0.3,2.3,1v-0.7h2.7V213.8z M552.3,210.1c0,1,0.6,1.7,1.7,1.7c1.1,0,1.7-0.7,1.7-1.7c0-0.9-0.6-1.7-1.7-1.7
			C553,208.3,552.3,209.1,552.3,210.1z"/>
		<path id="XMLID_2030_" class="st4" d="M565.6,208.7c-0.4-0.3-0.9-0.5-1.4-0.5c-1,0-1.8,0.8-1.8,1.8c0,1.1,0.8,1.9,1.9,1.9
			c0.5,0,1-0.2,1.3-0.5v2.3c-0.6,0.3-1.2,0.4-1.9,0.4c-2.2,0-4.1-1.7-4.1-4c0-2.4,1.9-4.1,4.2-4.1c0.6,0,1.2,0.1,1.8,0.4V208.7z"/>
		<path id="XMLID_2027_" class="st4" d="M570.1,203.4c0,0.8-0.7,1.5-1.5,1.5c-0.8,0-1.5-0.7-1.5-1.5c0-0.8,0.7-1.5,1.5-1.5
			C569.5,201.8,570.1,202.5,570.1,203.4z M570,213.8h-2.7v-7.6h2.7V213.8z"/>
		<path id="XMLID_2023_" class="st4" d="M580.3,210.1c0,2.6-2.1,4-4.6,4c-2.4,0-4.6-1.4-4.6-4c0-2.6,2.1-4,4.6-4
			C578.2,206,580.3,207.5,580.3,210.1z M574,210.1c0,1,0.6,1.7,1.7,1.7c1.1,0,1.7-0.7,1.7-1.7c0-0.9-0.6-1.7-1.7-1.7
			C574.7,208.3,574,209.1,574,210.1z M575.5,205.1l-1.2-0.9l2.1-2.5l1.6,1.2L575.5,205.1z"/>
		<path id="XMLID_2021_" class="st4" d="M584.2,207.2L584.2,207.2c0.6-0.9,1.4-1.2,2.5-1.2c2,0,2.9,1.3,2.9,3.1v4.7h-2.7v-3.7
			c0-0.7,0.1-2-1.2-2c-1.1,0-1.4,0.8-1.4,1.8v3.9h-2.7v-7.6h2.7V207.2z"/>
	</g>
</g>
<g id="XMLID_14426_">
	<g>
		<path id="XMLID_901_" class="st4" d="M436.1,294.6c-0.6-0.8-1.6-1.2-2.5-1.2c-1.8,0-3,1.4-3,3.1c0,1.8,1.2,3,3,3
			c0.9,0,1.9-0.5,2.5-1.2v3.5c-1,0.3-1.7,0.5-2.6,0.5c-1.6,0-3-0.6-4.2-1.6c-1.2-1.1-1.8-2.6-1.8-4.2c0-1.5,0.6-3,1.6-4.1
			c1.1-1.1,2.7-1.8,4.2-1.8c0.9,0,1.8,0.2,2.6,0.6V294.6z"/>
		<path id="XMLID_898_" class="st4" d="M440.7,300.1l-0.8,1.9h-3.1l4.3-11.1h3.2l4.2,11.1h-3.1l-0.7-1.9H440.7z M442.7,294.3
			L442.7,294.3l-1.2,3.5h2.4L442.7,294.3z"/>
		<path id="XMLID_896_" class="st4" d="M454.8,290.9v7.5c0,2.3-1.2,3.9-3.7,3.9c-1.2,0-2.2-0.6-2.9-1.6l1.7-1.8
			c0.3,0.4,0.8,0.9,1.2,0.9c0.9,0,0.8-1,0.8-1.6v-7.3H454.8z"/>
		<path id="XMLID_893_" class="st4" d="M459.4,300.1l-0.8,1.9h-3.1l4.3-11.1h3.2l4.2,11.1h-3.1l-0.7-1.9H459.4z M461.5,294.3
			L461.5,294.3l-1.2,3.5h2.4L461.5,294.3z"/>
		<path id="XMLID_891_" class="st4" d="M477.9,297.7l2.7-6.8h3.1L479,302h-2.2l-4.7-11.1h3.1L477.9,297.7z"/>
		<path id="XMLID_889_" class="st4" d="M487.3,293.3v1.9h3.3v2.5h-3.3v1.9h3.4v2.5h-6.3v-11.1h6.3v2.5H487.3z"/>
		<path id="XMLID_887_" class="st4" d="M492.6,290.9h2.9l5.3,6.8h0v-6.8h2.9V302h-2.9l-5.3-6.8h0v6.8h-2.9V290.9z"/>
		<path id="XMLID_885_" class="st4" d="M510,302h-2.9v-8.7h-2.4v-2.5h7.7v2.5H510V302z"/>
		<path id="XMLID_882_" class="st4" d="M515.4,300.1l-0.8,1.9h-3.1l4.3-11.1h3.2l4.2,11.1h-3.1l-0.7-1.9H515.4z M517.4,294.3
			L517.4,294.3l-1.2,3.5h2.4L517.4,294.3z"/>
		<path id="XMLID_880_" class="st4" d="M524.1,290.9h2.9l5.3,6.8h0v-6.8h2.9V302h-2.9l-5.3-6.8h0v6.8h-2.9V290.9z"/>
		<path id="XMLID_878_" class="st4" d="M540,302h-2.9v-11.1h2.9V302z"/>
		<path id="XMLID_876_" class="st4" d="M544.8,299.6h3.5v2.5h-6.4v-11.1h2.9V299.6z"/>
		<path id="XMLID_874_" class="st4" d="M552.1,299.6h3.5v2.5h-6.4v-11.1h2.9V299.6z"/>
		<path id="XMLID_871_" class="st4" d="M559.4,300.1l-0.8,1.9h-3.1l4.3-11.1h3.2l4.2,11.1h-3.1l-0.7-1.9H559.4z M561.4,294.3
			L561.4,294.3l-1.2,3.5h2.4L561.4,294.3z"/>
		<path id="XMLID_869_" class="st4" d="M429.7,308.6v6.3c0,1.4-0.1,2.9-1.2,3.9c-0.9,0.9-2.4,1.2-3.7,1.2c-1.3,0-2.8-0.3-3.7-1.2
			c-1.1-1.1-1.2-2.5-1.2-3.9v-6.3h2.9v5.9c0,1.4,0.1,3,2,3c1.9,0,2-1.6,2-3v-5.9H429.7z"/>
		<path id="XMLID_867_" class="st4" d="M431.5,308.6h2.9l5.3,6.8h0v-6.8h2.9v11.1h-2.9l-5.3-6.8h0v6.8h-2.9V308.6z"/>
		<path id="XMLID_865_" class="st4" d="M447.5,319.8h-2.9v-11.1h2.9V319.8z"/>
		<path id="XMLID_863_" class="st4" d="M457.3,312.3c-0.6-0.8-1.6-1.2-2.5-1.2c-1.8,0-3,1.4-3,3.1c0,1.8,1.2,3,3,3
			c0.9,0,1.9-0.5,2.5-1.2v3.5c-1,0.3-1.7,0.5-2.6,0.5c-1.6,0-3-0.6-4.2-1.6c-1.2-1.1-1.8-2.6-1.8-4.2c0-1.5,0.6-3,1.6-4.1
			c1.1-1.1,2.7-1.8,4.2-1.8c0.9,0,1.8,0.2,2.6,0.6V312.3z"/>
		<path id="XMLID_860_" class="st4" d="M461.9,317.8l-0.8,1.9h-3.1l4.3-11.1h3.2l4.2,11.1h-3.1l-0.7-1.9H461.9z M464,312.1
			L464,312.1l-1.2,3.5h2.4L464,312.1z"/>
		<path id="XMLID_858_" class="st4" d="M481.8,311.5c-0.5-0.4-1.2-0.7-1.9-0.7c-0.5,0-1.2,0.3-1.2,0.9c0,0.6,0.8,0.9,1.3,1.1
			l0.7,0.2c1.6,0.5,2.7,1.2,2.7,3c0,1.1-0.3,2.2-1.2,3c-0.9,0.7-2,1-3.2,1c-1.4,0-2.8-0.5-3.9-1.3l1.2-2.3c0.7,0.6,1.6,1.2,2.6,1.2
			c0.7,0,1.4-0.3,1.4-1.1c0-0.8-1.1-1.1-1.8-1.3c-1.8-0.5-3-1-3-3.1c0-2.3,1.6-3.7,3.8-3.7c1.1,0,2.5,0.4,3.5,0.9L481.8,311.5z"/>
		<path id="XMLID_856_" class="st4" d="M494.5,308.6v6.3c0,1.4-0.1,2.9-1.2,3.9c-0.9,0.9-2.4,1.2-3.7,1.2s-2.8-0.3-3.7-1.2
			c-1.1-1.1-1.2-2.5-1.2-3.9v-6.3h2.9v5.9c0,1.4,0.1,3,2,3c1.9,0,2-1.6,2-3v-5.9H494.5z"/>
		<path id="XMLID_852_" class="st4" d="M496.3,319.8v-11.1h4.1c2,0,3.3,0.8,3.3,2.9c0,1-0.3,1.8-1.2,2.3v0c1.6,0.2,2.3,1.3,2.3,2.8
			c0,2.3-2,3.1-4,3.1H496.3z M499.2,313h0.3c0.8,0,1.6-0.1,1.6-1.1c0-1-0.9-1.1-1.7-1.1h-0.2V313z M499.2,317.5h0.4
			c0.9,0,2.3,0,2.3-1.2c0-1.3-1.4-1.2-2.4-1.2h-0.3V317.5z"/>
		<path id="XMLID_849_" class="st4" d="M509.1,317.8l-0.8,1.9h-3.1l4.3-11.1h3.2l4.2,11.1h-3.1l-0.7-1.9H509.1z M511.1,312.1
			L511.1,312.1l-1.2,3.5h2.4L511.1,312.1z"/>
		<path id="XMLID_847_" class="st4" d="M520.7,317.3h3.5v2.5h-6.4v-11.1h2.9V317.3z"/>
		<path id="XMLID_845_" class="st4" d="M533.1,312.3c-0.6-0.8-1.6-1.2-2.5-1.2c-1.8,0-3,1.4-3,3.1c0,1.8,1.2,3,3,3
			c0.9,0,1.9-0.5,2.5-1.2v3.5c-1,0.3-1.7,0.5-2.6,0.5c-1.6,0-3-0.6-4.2-1.6c-1.2-1.1-1.8-2.6-1.8-4.2c0-1.5,0.6-3,1.6-4.1
			c1.1-1.1,2.7-1.8,4.2-1.8c0.9,0,1.8,0.2,2.6,0.6V312.3z"/>
		<path id="XMLID_842_" class="st4" d="M537.7,317.8l-0.8,1.9h-3.1l4.3-11.1h3.2l4.2,11.1h-3.1l-0.7-1.9H537.7z M539.7,312.1
			L539.7,312.1l-1.2,3.5h2.4L539.7,312.1z"/>
		<path id="XMLID_840_" class="st4" d="M549.3,317.3h3.5v2.5h-6.4v-11.1h2.9V317.3z"/>
		<path id="XMLID_837_" class="st4" d="M553.7,308.6h4.1c3.1,0,5.7,2.4,5.7,5.6c0,3.1-2.6,5.6-5.7,5.6h-4.1V308.6z M556.6,317.3h0.6
			c1.7,0,3.2-0.9,3.2-3.1c0-2-1.3-3.1-3.2-3.1h-0.7V317.3z"/>
		<path id="XMLID_835_" class="st4" d="M567.7,319.8h-2.9v-11.1h2.9V319.8z"/>
		<path id="XMLID_832_" class="st4" d="M572.5,317.8l-0.8,1.9h-3.1l4.3-11.1h3.2l4.2,11.1h-3.1l-0.7-1.9H572.5z M574.5,312.1
			L574.5,312.1l-1.2,3.5h2.4L574.5,312.1z"/>
		<path id="XMLID_830_" class="st4" d="M480.6,330.1c-0.6-0.8-1.6-1.2-2.5-1.2c-1.8,0-3,1.4-3,3.1c0,1.8,1.2,3,3,3
			c0.9,0,1.9-0.5,2.5-1.2v3.5c-1,0.3-1.7,0.5-2.6,0.5c-1.6,0-3-0.6-4.2-1.6c-1.2-1.1-1.8-2.6-1.8-4.2c0-1.5,0.6-3,1.6-4.1
			c1.1-1.1,2.7-1.8,4.2-1.8c0.9,0,1.8,0.2,2.6,0.6V330.1z"/>
		<path id="XMLID_827_" class="st4" d="M494.1,331.7c0,3.6-2.6,6.1-6.2,6.1s-6.2-2.5-6.2-6.1c0-3.4,3-5.7,6.2-5.7
			C491.2,326,494.1,328.3,494.1,331.7z M484.8,331.7c0,1.9,1.4,3.3,3.1,3.3c1.7,0,3.1-1.4,3.1-3.3c0-1.5-1.4-2.9-3.1-2.9
			C486.2,328.8,484.8,330.2,484.8,331.7z"/>
		<path id="XMLID_823_" class="st4" d="M495.5,337.5v-11.1h4.1c2,0,3.3,0.8,3.3,2.9c0,1-0.3,1.8-1.2,2.3v0c1.6,0.2,2.3,1.3,2.3,2.8
			c0,2.3-2,3.1-4,3.1H495.5z M498.4,330.7h0.3c0.8,0,1.6-0.1,1.6-1.1c0-1-0.9-1.1-1.7-1.1h-0.2V330.7z M498.4,335.3h0.4
			c0.9,0,2.3,0,2.3-1.2c0-1.3-1.4-1.2-2.4-1.2h-0.3V335.3z"/>
		<path id="XMLID_820_" class="st4" d="M514.7,337.5h-3.6l-2.7-4.3h0v4.3h-2.9v-11.1h4.3c2.2,0,3.9,1,3.9,3.4c0,1.5-0.9,2.9-2.4,3.1
			L514.7,337.5z M508.4,331.3h0.3c0.9,0,2-0.2,2-1.4c0-1.2-1.1-1.4-2-1.4h-0.3V331.3z"/>
		<path id="XMLID_817_" class="st4" d="M527.3,331.7c0,3.6-2.6,6.1-6.2,6.1s-6.2-2.5-6.2-6.1c0-3.4,3-5.7,6.2-5.7
			C524.3,326,527.3,328.3,527.3,331.7z M518,331.7c0,1.9,1.4,3.3,3.1,3.3s3.1-1.4,3.1-3.3c0-1.5-1.4-2.9-3.1-2.9
			S518,330.2,518,331.7z"/>
	</g>
</g>
<rect id="XMLID_4443_" x="387.2" y="393.5" class="st3" width="223.4" height="101.1"/>
<g id="XMLID_14308_">
	<g>
		<path id="XMLID_1421_" class="st4" d="M420.5,430.4l-0.8,1.9h-3.1l4.3-11.1h3.2l4.2,11.1h-3.1l-0.7-1.9H420.5z M422.6,424.7
			L422.6,424.7l-1.2,3.5h2.4L422.6,424.7z"/>
		<path id="XMLID_1418_" class="st4" d="M438.5,432.4h-3.6l-2.7-4.3h0v4.3h-2.9v-11.1h4.3c2.2,0,3.9,1,3.9,3.4
			c0,1.5-0.9,2.9-2.4,3.1L438.5,432.4z M432.1,426.2h0.3c0.9,0,2-0.2,2-1.4c0-1.2-1.1-1.4-2-1.4h-0.3V426.2z"/>
		<path id="XMLID_1416_" class="st4" d="M442.2,423.7v1.9h3.3v2.5h-3.3v1.9h3.4v2.5h-6.3v-11.1h6.3v2.5H442.2z"/>
		<path id="XMLID_1413_" class="st4" d="M450.3,430.4l-0.8,1.9h-3.1l4.3-11.1h3.2l4.2,11.1H455l-0.7-1.9H450.3z M452.3,424.7
			L452.3,424.7l-1.2,3.5h2.4L452.3,424.7z"/>
		<path id="XMLID_1411_" class="st4" d="M468.4,432.4h-2.9v-8.7h-2.4v-2.5h7.7v2.5h-2.4V432.4z"/>
		<path id="XMLID_1409_" class="st4" d="M474.8,423.7v1.9h3.3v2.5h-3.3v1.9h3.4v2.5h-6.3v-11.1h6.3v2.5H474.8z"/>
		<path id="XMLID_1407_" class="st4" d="M488,425c-0.6-0.8-1.6-1.2-2.5-1.2c-1.8,0-3,1.4-3,3.1c0,1.8,1.2,3,3,3
			c0.9,0,1.9-0.5,2.5-1.2v3.5c-1,0.3-1.7,0.5-2.6,0.5c-1.6,0-3-0.6-4.2-1.6c-1.2-1.1-1.8-2.6-1.8-4.2c0-1.5,0.6-3,1.6-4.1
			c1.1-1.1,2.7-1.8,4.2-1.8c0.9,0,1.8,0.2,2.6,0.6V425z"/>
		<path id="XMLID_1405_" class="st4" d="M489.8,421.2h2.9l5.3,6.8h0v-6.8h2.9v11.1H498l-5.3-6.8h0v6.8h-2.9V421.2z"/>
		<path id="XMLID_1403_" class="st4" d="M505.7,432.4h-2.9v-11.1h2.9V432.4z"/>
		<path id="XMLID_1401_" class="st4" d="M515.5,425c-0.6-0.8-1.6-1.2-2.5-1.2c-1.8,0-3,1.4-3,3.1c0,1.8,1.2,3,3,3
			c0.9,0,1.9-0.5,2.5-1.2v3.5c-1,0.3-1.7,0.5-2.6,0.5c-1.6,0-3-0.6-4.2-1.6c-1.2-1.1-1.8-2.6-1.8-4.2c0-1.5,0.6-3,1.6-4.1
			c1.1-1.1,2.7-1.8,4.2-1.8c0.9,0,1.8,0.2,2.6,0.6V425z"/>
		<path id="XMLID_1398_" class="st4" d="M529.1,426.6c0,3.6-2.6,6.1-6.2,6.1s-6.2-2.5-6.2-6.1c0-3.4,3-5.7,6.2-5.7
			C526.1,420.9,529.1,423.2,529.1,426.6z M519.8,426.6c0,1.9,1.4,3.3,3.1,3.3c1.7,0,3.1-1.4,3.1-3.3c0-1.5-1.4-2.9-3.1-2.9
			C521.2,423.7,519.8,425.1,519.8,426.6z"/>
		<path id="XMLID_1396_" class="st4" d="M536.5,424.1c-0.5-0.4-1.2-0.7-1.9-0.7c-0.5,0-1.2,0.3-1.2,0.9c0,0.6,0.8,0.9,1.3,1.1
			l0.7,0.2c1.6,0.5,2.7,1.2,2.7,3c0,1.1-0.3,2.2-1.2,3c-0.9,0.7-2,1-3.2,1c-1.4,0-2.8-0.5-3.9-1.3l1.2-2.3c0.7,0.6,1.6,1.2,2.6,1.2
			c0.7,0,1.4-0.3,1.4-1.1c0-0.8-1.1-1.1-1.8-1.3c-1.8-0.5-3-1-3-3.1c0-2.3,1.6-3.7,3.8-3.7c1.1,0,2.5,0.4,3.5,0.9L536.5,424.1z"/>
		<path id="XMLID_1394_" class="st4" d="M546.7,420.1l-5.6,13.6H539l5.6-13.6H546.7z"/>
		<path id="XMLID_1391_" class="st4" d="M550.9,430.4l-0.8,1.9h-3.1l4.3-11.1h3.2l4.2,11.1h-3.1l-0.7-1.9H550.9z M552.9,424.7
			L552.9,424.7l-1.2,3.5h2.4L552.9,424.7z"/>
		<path id="XMLID_1388_" class="st4" d="M568.9,432.4h-3.6l-2.7-4.3h0v4.3h-2.9v-11.1h4.3c2.2,0,3.9,1,3.9,3.4
			c0,1.5-0.9,2.9-2.4,3.1L568.9,432.4z M562.5,426.2h0.3c0.9,0,2-0.2,2-1.4c0-1.2-1.1-1.4-2-1.4h-0.3V426.2z"/>
		<path id="XMLID_1385_" class="st4" d="M579.2,433.1l-0.9-1c-0.9,0.5-1.9,0.7-3.1,0.7c-3.6,0-6.2-2.5-6.2-6.1c0-3.4,3-5.7,6.2-5.7
			c3.5,0,6.2,2.3,6.2,6c0,1.5-0.5,2.8-1.4,3.9l1.9,1.9L579.2,433.1z M577.9,428.5c0.3-0.5,0.5-1.1,0.5-1.6c0-1.7-1.4-3.2-3.1-3.2
			c-1.7,0-3.2,1.4-3.2,2.9c0,1.9,1.4,3.3,3.2,3.3c0.3,0,0.6,0,0.9-0.1l-1.8-1.8l2.7-0.3L577.9,428.5z"/>
		<path id="XMLID_1383_" class="st4" d="M450.7,445.7l2.7-6.8h3.1l-4.8,11.1h-2.2l-4.7-11.1h3.1L450.7,445.7z"/>
		<path id="XMLID_1380_" class="st4" d="M463.9,446.8h-5.7c0,1.1,0.6,1.7,1.7,1.7c0.6,0,1-0.2,1.3-0.7h2.6c-0.2,0.9-0.7,1.5-1.4,2
			c-0.7,0.4-1.6,0.6-2.4,0.6c-2.5,0-4.4-1.4-4.4-4c0-2.5,1.7-4,4.2-4c2.6,0,4.2,1.6,4.2,4.2V446.8z M461.4,445.2
			c-0.1-0.7-0.8-1.2-1.5-1.2c-0.8,0-1.4,0.4-1.6,1.2H461.4z"/>
		<path id="XMLID_1378_" class="st4" d="M467.8,443.8L467.8,443.8c0.5-0.9,1.4-1.3,2.5-1.3h0.5v2.6c-0.4-0.2-0.7-0.3-1.1-0.3
			c-1.5,0-1.9,1-1.9,2.3v3.1h-2.7v-7.6h2.7V443.8z"/>
		<path id="XMLID_1375_" class="st4" d="M474.6,439.6c0,0.8-0.7,1.5-1.5,1.5c-0.8,0-1.5-0.7-1.5-1.5c0-0.8,0.7-1.5,1.5-1.5
			C474,438.1,474.6,438.8,474.6,439.6z M474.5,450.1h-2.7v-7.6h2.7V450.1z"/>
		<path id="XMLID_1371_" class="st4" d="M479.1,450.1h-2.7v-5.4h-0.9v-2.2h0.9v-1c0-1,0-1.8,0.8-2.7c0.7-0.8,1.6-1.2,2.6-1.2
			c0.4,0,0.8,0.1,1.2,0.3v2.3c-0.3-0.1-0.6-0.3-0.9-0.3c-0.7,0-0.9,0.4-0.9,1.3v1.2h1.9v2.2h-1.9V450.1z M484.7,439.6
			c0,0.8-0.7,1.5-1.5,1.5c-0.8,0-1.5-0.7-1.5-1.5c0-0.8,0.7-1.5,1.5-1.5C484,438.1,484.7,438.8,484.7,439.6z M484.5,450.1h-2.7v-7.6
			h2.7V450.1z"/>
		<path id="XMLID_1369_" class="st4" d="M491.7,445c-0.4-0.3-0.9-0.5-1.4-0.5c-1,0-1.8,0.8-1.8,1.8c0,1.1,0.8,1.9,1.9,1.9
			c0.5,0,1-0.2,1.3-0.5v2.3c-0.6,0.3-1.2,0.4-1.9,0.4c-2.2,0-4.1-1.7-4.1-4c0-2.4,1.9-4.1,4.2-4.1c0.6,0,1.2,0.1,1.8,0.4V445z"/>
		<path id="XMLID_1366_" class="st4" d="M501.7,450.1H499v-0.8h0c-0.5,0.8-1.4,1.1-2.3,1.1c-2.2,0-3.8-1.9-3.8-4c0-2.2,1.6-4,3.8-4
			c0.9,0,1.8,0.3,2.3,1v-0.7h2.7V450.1z M495.6,446.3c0,1,0.6,1.7,1.7,1.7c1.1,0,1.7-0.7,1.7-1.7c0-0.9-0.6-1.7-1.7-1.7
			C496.3,444.6,495.6,445.4,495.6,446.3z"/>
		<path id="XMLID_1364_" class="st4" d="M508.9,445c-0.4-0.3-0.9-0.5-1.4-0.5c-1,0-1.8,0.8-1.8,1.8c0,1.1,0.8,1.9,1.9,1.9
			c0.5,0,1-0.2,1.3-0.5v2.3c-0.6,0.3-1.2,0.4-1.9,0.4c-2.2,0-4.1-1.7-4.1-4c0-2.4,1.9-4.1,4.2-4.1c0.6,0,1.2,0.1,1.8,0.4V445z"/>
		<path id="XMLID_1361_" class="st4" d="M513.5,439.6c0,0.8-0.7,1.5-1.5,1.5c-0.8,0-1.5-0.7-1.5-1.5c0-0.8,0.7-1.5,1.5-1.5
			C512.8,438.1,513.5,438.8,513.5,439.6z M513.3,450.1h-2.7v-7.6h2.7V450.1z"/>
		<path id="XMLID_1357_" class="st4" d="M523.6,446.3c0,2.6-2.1,4-4.6,4c-2.4,0-4.6-1.4-4.6-4c0-2.6,2.1-4,4.6-4
			S523.6,443.7,523.6,446.3z M517.3,446.3c0,1,0.6,1.7,1.7,1.7c1.1,0,1.7-0.7,1.7-1.7c0-0.9-0.6-1.7-1.7-1.7
			C518,444.6,517.3,445.4,517.3,446.3z M518.8,441.4l-1.2-0.9l2.1-2.5l1.6,1.2L518.8,441.4z"/>
		<path id="XMLID_1355_" class="st4" d="M527.5,443.5L527.5,443.5c0.6-0.9,1.4-1.2,2.5-1.2c2,0,2.9,1.3,2.9,3.1v4.7h-2.7v-3.7
			c0-0.7,0.1-2-1.2-2c-1.1,0-1.4,0.8-1.4,1.8v3.9h-2.7v-7.6h2.7V443.5z"/>
		<path id="XMLID_1353_" class="st4" d="M538.6,442.5h3.1l2,3.9l2-3.9h3.1l-6.1,11.4h-3l2.6-4.8L538.6,442.5z"/>
		<path id="XMLID_1351_" class="st4" d="M422,462.7c-0.4-0.3-0.9-0.5-1.4-0.5c-1,0-1.8,0.8-1.8,1.8c0,1.1,0.8,1.9,1.9,1.9
			c0.5,0,1-0.2,1.3-0.5v2.3c-0.6,0.3-1.2,0.4-1.9,0.4c-2.2,0-4.1-1.7-4.1-4c0-2.4,1.9-4.1,4.2-4.1c0.6,0,1.2,0.1,1.8,0.4V462.7z"/>
		<path id="XMLID_1348_" class="st4" d="M432.2,464c0,2.6-2.1,4-4.6,4c-2.4,0-4.6-1.4-4.6-4s2.1-4,4.6-4S432.2,461.5,432.2,464z
			 M425.9,464c0,1,0.6,1.7,1.7,1.7c1.1,0,1.7-0.7,1.7-1.7c0-0.9-0.6-1.7-1.7-1.7C426.6,462.3,425.9,463.1,425.9,464z"/>
		<path id="XMLID_1346_" class="st4" d="M436.1,461.2L436.1,461.2c0.6-0.9,1.4-1.2,2.5-1.2c2,0,2.9,1.3,2.9,3.1v4.7h-2.7v-3.7
			c0-0.7,0.1-2-1.2-2c-1.1,0-1.4,0.8-1.4,1.8v3.9h-2.7v-7.6h2.7V461.2z"/>
		<path id="XMLID_1344_" class="st4" d="M446.1,467.8h-2.7v-5.4h-0.9v-2.2h0.9v-1c0-1,0-1.8,0.8-2.7c0.7-0.8,1.6-1.2,2.6-1.2
			c0.4,0,0.8,0.1,1.2,0.3v2.3c-0.3-0.1-0.6-0.3-0.9-0.3c-0.7,0-0.9,0.4-0.9,1.3v1.2h1.9v2.2h-1.9V467.8z"/>
		<path id="XMLID_1341_" class="st4" d="M457.5,464c0,2.6-2.1,4-4.6,4c-2.4,0-4.6-1.4-4.6-4s2.1-4,4.6-4
			C455.4,460,457.5,461.5,457.5,464z M451.2,464c0,1,0.6,1.7,1.7,1.7c1.1,0,1.7-0.7,1.7-1.7c0-0.9-0.6-1.7-1.7-1.7
			C451.8,462.3,451.2,463.1,451.2,464z"/>
		<path id="XMLID_1339_" class="st4" d="M461.4,461.5L461.4,461.5c0.5-0.9,1.4-1.3,2.5-1.3h0.5v2.6c-0.4-0.2-0.7-0.3-1.1-0.3
			c-1.5,0-1.9,1-1.9,2.3v3.1h-2.7v-7.6h2.7V461.5z"/>
		<path id="XMLID_1337_" class="st4" d="M468.1,461.2L468.1,461.2c0.7-0.8,1.4-1.2,2.4-1.2c1.1,0,2,0.4,2.6,1.4
			c0.5-0.9,1.5-1.4,2.6-1.4c1.9,0,2.6,1.3,2.6,3v4.8h-2.7v-3.6c0-0.8,0-2.1-1.1-2.1c-1.2,0-1.3,1.2-1.3,2.1v3.6h-2.7v-3.6
			c0-0.8,0-2.1-1.2-2.1c-1.2,0-1.2,1.3-1.2,2.1v3.6h-2.7v-7.6h2.7V461.2z"/>
		<path id="XMLID_1334_" class="st4" d="M482.9,457.3c0,0.8-0.7,1.5-1.5,1.5c-0.8,0-1.5-0.7-1.5-1.5c0-0.8,0.7-1.5,1.5-1.5
			C482.2,455.8,482.9,456.5,482.9,457.3z M482.7,467.8H480v-7.6h2.7V467.8z"/>
		<path id="XMLID_1330_" class="st4" d="M490.2,467L490.2,467c-0.5,0.8-1.4,1.1-2.3,1.1c-2.2,0-3.8-1.9-3.8-4s1.6-4,3.8-4
			c0.9,0,1.8,0.3,2.3,1v-5.4h2.7v12.3h-2.7V467z M486.8,464c0,1,0.6,1.7,1.7,1.7c1.1,0,1.7-0.7,1.7-1.7c0-0.9-0.6-1.7-1.7-1.7
			C487.4,462.3,486.8,463.1,486.8,464z"/>
		<path id="XMLID_1327_" class="st4" d="M502.8,467.8h-2.7V467h0c-0.5,0.8-1.4,1.1-2.3,1.1c-2.2,0-3.8-1.9-3.8-4s1.6-4,3.8-4
			c0.9,0,1.8,0.3,2.3,1v-0.7h2.7V467.8z M496.8,464c0,1,0.6,1.7,1.7,1.7c1.1,0,1.7-0.7,1.7-1.7c0-0.9-0.6-1.7-1.7-1.7
			C497.4,462.3,496.8,463.1,496.8,464z"/>
		<path id="XMLID_1324_" class="st4" d="M510.3,467L510.3,467c-0.5,0.8-1.4,1.1-2.3,1.1c-2.2,0-3.8-1.9-3.8-4s1.6-4,3.8-4
			c0.9,0,1.8,0.3,2.3,1v-5.4h2.7v12.3h-2.7V467z M506.9,464c0,1,0.6,1.7,1.7,1.7c1.1,0,1.7-0.7,1.7-1.7c0-0.9-0.6-1.7-1.7-1.7
			C507.6,462.3,506.9,463.1,506.9,464z"/>
		<path id="XMLID_1321_" class="st4" d="M525.5,467L525.5,467c-0.5,0.8-1.4,1.1-2.3,1.1c-2.2,0-3.8-1.9-3.8-4s1.6-4,3.8-4
			c0.9,0,1.8,0.3,2.3,1v-5.4h2.7v12.3h-2.7V467z M522.1,464c0,1,0.6,1.7,1.7,1.7c1.1,0,1.7-0.7,1.7-1.7c0-0.9-0.6-1.7-1.7-1.7
			C522.7,462.3,522.1,463.1,522.1,464z"/>
		<path id="XMLID_1318_" class="st4" d="M537.6,464.5H532c0,1.1,0.6,1.7,1.7,1.7c0.6,0,1-0.2,1.3-0.7h2.6c-0.2,0.9-0.7,1.5-1.4,2
			c-0.7,0.4-1.6,0.6-2.4,0.6c-2.5,0-4.4-1.4-4.4-4c0-2.5,1.7-4,4.2-4c2.6,0,4.2,1.6,4.2,4.2V464.5z M535.1,462.9
			c-0.1-0.7-0.8-1.2-1.5-1.2c-0.8,0-1.4,0.4-1.6,1.2H535.1z"/>
		<path id="XMLID_1315_" class="st4" d="M546.5,461.1L546.5,461.1c0.5-0.8,1.4-1.1,2.3-1.1c2.3,0,3.8,1.9,3.8,4.1c0,2.2-1.6,4-3.8,4
			c-0.9,0-1.8-0.3-2.3-1v4.5h-2.7v-11.4h2.7V461.1z M546.4,464c0,1,0.6,1.7,1.7,1.7c1.1,0,1.7-0.7,1.7-1.7c0-0.9-0.6-1.7-1.7-1.7
			C547,462.3,546.4,463.1,546.4,464z"/>
		<path id="XMLID_1312_" class="st4" d="M562.3,467.8h-2.7V467h0c-0.5,0.8-1.4,1.1-2.3,1.1c-2.2,0-3.8-1.9-3.8-4s1.6-4,3.8-4
			c0.9,0,1.8,0.3,2.3,1v-0.7h2.7V467.8z M556.2,464c0,1,0.6,1.7,1.7,1.7c1.1,0,1.7-0.7,1.7-1.7c0-0.9-0.6-1.7-1.7-1.7
			C556.8,462.3,556.2,463.1,556.2,464z"/>
		<path id="XMLID_1309_" class="st4" d="M572.4,467.1c0,3.2-1.6,4.5-4.4,4.5c-1.7,0-4.1-0.9-4.3-2.9h3c0.1,0.3,0.3,0.5,0.5,0.6
			c0.2,0.1,0.5,0.2,0.8,0.2c1.4,0,1.7-0.9,1.7-2.2v-0.4c-0.7,0.7-1.4,1-2.4,1c-2.2,0-3.7-1.7-3.7-3.9c0-2.2,1.6-4.1,3.9-4.1
			c0.9,0,1.7,0.3,2.2,1h0v-0.8h2.7V467.1z M566.3,464c0,1,0.6,1.7,1.7,1.7c1.1,0,1.7-0.7,1.7-1.7c0-0.9-0.6-1.7-1.7-1.7
			C566.9,462.3,566.3,463,566.3,464z"/>
		<path id="XMLID_1306_" class="st4" d="M582.6,464c0,2.6-2.1,4-4.6,4c-2.4,0-4.6-1.4-4.6-4s2.1-4,4.6-4S582.6,461.5,582.6,464z
			 M576.3,464c0,1,0.6,1.7,1.7,1.7s1.7-0.7,1.7-1.7c0-0.9-0.6-1.7-1.7-1.7S576.3,463.1,576.3,464z"/>
	</g>
</g>
<rect id="XMLID_4441_" x="387.2" y="524.6" class="st3" width="223.4" height="101.1"/>
<g id="XMLID_14249_">
	<g>
		<path id="XMLID_522_" class="st4" d="M439.2,552.6v7.5c0,2.3-1.2,3.9-3.7,3.9c-1.2,0-2.2-0.6-2.9-1.6l1.7-1.8
			c0.3,0.4,0.8,0.9,1.2,0.9c0.9,0,0.8-1,0.8-1.6v-7.3H439.2z"/>
		<path id="XMLID_520_" class="st4" d="M444,555.1v1.9h3.3v2.5H444v1.9h3.4v2.5h-6.3v-11.1h6.3v2.5H444z"/>
		<path id="XMLID_518_" class="st4" d="M452.1,555.1v1.9h3.2v2.5h-3.2v4.4h-2.9v-11.1h6.4v2.5H452.1z"/>
		<path id="XMLID_516_" class="st4" d="M460.1,555.1v1.9h3.3v2.5h-3.3v1.9h3.4v2.5h-6.3v-11.1h6.3v2.5H460.1z"/>
		<path id="XMLID_513_" class="st4" d="M470.4,552.6h4.1c3.1,0,5.7,2.4,5.7,5.6c0,3.1-2.6,5.6-5.7,5.6h-4.1V552.6z M473.3,561.3h0.6
			c1.7,0,3.2-0.9,3.2-3.1c0-2-1.3-3.1-3.2-3.1h-0.7V561.3z"/>
		<path id="XMLID_511_" class="st4" d="M484.4,555.1v1.9h3.3v2.5h-3.3v1.9h3.4v2.5h-6.3v-11.1h6.3v2.5H484.4z"/>
		<path id="XMLID_508_" class="st4" d="M494.7,552.6h4.1c3.1,0,5.7,2.4,5.7,5.6c0,3.1-2.6,5.6-5.7,5.6h-4.1V552.6z M497.6,561.3h0.6
			c1.7,0,3.2-0.9,3.2-3.1c0-2-1.3-3.1-3.2-3.1h-0.7V561.3z"/>
		<path id="XMLID_506_" class="st4" d="M508.7,563.7h-2.9v-11.1h2.9V563.7z"/>
		<path id="XMLID_504_" class="st4" d="M515.3,559.4l2.7-6.8h3.1l-4.8,11.1h-2.2l-4.7-11.1h3.1L515.3,559.4z"/>
		<path id="XMLID_502_" class="st4" d="M524.7,563.7h-2.9v-11.1h2.9V563.7z"/>
		<path id="XMLID_500_" class="st4" d="M532.7,555.5c-0.5-0.4-1.2-0.7-1.9-0.7c-0.5,0-1.2,0.3-1.2,0.9c0,0.6,0.8,0.9,1.3,1.1
			l0.7,0.2c1.6,0.5,2.7,1.2,2.7,3c0,1.1-0.3,2.2-1.2,3c-0.9,0.7-2,1-3.2,1c-1.4,0-2.8-0.5-3.9-1.3l1.2-2.3c0.7,0.6,1.6,1.2,2.6,1.2
			c0.7,0,1.4-0.3,1.4-1.1c0-0.8-1.1-1.1-1.8-1.3c-1.8-0.5-3-1-3-3.1c0-2.3,1.6-3.7,3.8-3.7c1.1,0,2.5,0.4,3.5,0.9L532.7,555.5z"/>
		<path id="XMLID_498_" class="st4" d="M538.6,563.7h-2.9v-11.1h2.9V563.7z"/>
		<path id="XMLID_494_" class="st4" d="M552.3,558c0,3.6-2.6,6.1-6.2,6.1s-6.2-2.5-6.2-6.1c0-3.4,3-5.7,6.2-5.7
			C549.3,552.2,552.3,554.6,552.3,558z M542.9,558c0,1.9,1.4,3.3,3.1,3.3c1.7,0,3.1-1.4,3.1-3.3c0-1.5-1.4-2.9-3.1-2.9
			C544.4,555,542.9,556.4,542.9,558z M545.7,551.9l-1.2-0.9l2.1-2.5l1.6,1.2L545.7,551.9z"/>
		<path id="XMLID_492_" class="st4" d="M553.6,552.6h2.9l5.3,6.8h0v-6.8h2.9v11.1h-2.9l-5.3-6.8h0v6.8h-2.9V552.6z"/>
		<path id="XMLID_490_" class="st4" d="M448.6,572.8v1.9h3.2v2.5h-3.2v4.4h-2.9v-11.1h6.4v2.5H448.6z"/>
		<path id="XMLID_487_" class="st4" d="M456.5,571c0,0.8-0.7,1.5-1.5,1.5c-0.8,0-1.5-0.7-1.5-1.5c0-0.8,0.7-1.5,1.5-1.5
			C455.8,569.5,456.5,570.1,456.5,571z M456.3,581.5h-2.7v-7.6h2.7V581.5z"/>
		<path id="XMLID_485_" class="st4" d="M460.8,575.1L460.8,575.1c0.5-0.9,1.4-1.3,2.5-1.3h0.5v2.6c-0.4-0.2-0.7-0.3-1.1-0.3
			c-1.5,0-1.9,1-1.9,2.3v3.1h-2.7v-7.6h2.7V575.1z"/>
		<path id="XMLID_483_" class="st4" d="M467.5,574.8L467.5,574.8c0.7-0.8,1.4-1.2,2.4-1.2c1.1,0,2,0.4,2.6,1.4
			c0.5-0.9,1.5-1.4,2.6-1.4c1.9,0,2.6,1.3,2.6,3v4.8H475v-3.6c0-0.8,0-2.1-1.1-2.1c-1.2,0-1.3,1.2-1.3,2.1v3.6h-2.7v-3.6
			c0-0.8,0-2.1-1.2-2.1s-1.2,1.3-1.2,2.1v3.6h-2.7v-7.6h2.7V574.8z"/>
		<path id="XMLID_480_" class="st4" d="M487.7,581.5H485v-0.8h0c-0.5,0.8-1.4,1.1-2.3,1.1c-2.2,0-3.8-1.9-3.8-4s1.6-4,3.8-4
			c0.9,0,1.8,0.3,2.3,1v-0.7h2.7V581.5z M481.6,577.7c0,1,0.6,1.7,1.7,1.7c1.1,0,1.7-0.7,1.7-1.7c0-0.9-0.6-1.7-1.7-1.7
			C482.3,576,481.6,576.8,481.6,577.7z"/>
		<path id="XMLID_478_" class="st4" d="M493.4,573.9h3.1l2,3.9l2-3.9h3.1l-6.1,11.4h-3l2.6-4.8L493.4,573.9z"/>
		<path id="XMLID_476_" class="st4" d="M514.3,575.8c-0.4-0.2-1-0.4-1.4-0.4c-0.3,0-0.8,0.1-0.8,0.5c0,0.5,0.8,0.6,1.2,0.7
			c1.3,0.3,2.2,0.8,2.2,2.2c0,2-1.8,2.8-3.6,2.8c-1.1,0-2.1-0.3-3.1-0.9l1-1.9c0.5,0.4,1.5,0.8,2.1,0.8c0.3,0,0.8-0.2,0.8-0.6
			c0-0.6-0.8-0.6-1.7-0.8c-0.8-0.2-1.7-0.6-1.7-2c0-1.9,1.7-2.7,3.3-2.7c0.9,0,1.7,0.1,2.5,0.5L514.3,575.8z"/>
		<path id="XMLID_473_" class="st4" d="M524.6,578.1H519c0,1.1,0.6,1.7,1.7,1.7c0.6,0,1-0.2,1.3-0.7h2.6c-0.2,0.9-0.7,1.5-1.4,2
			c-0.7,0.4-1.6,0.6-2.4,0.6c-2.5,0-4.4-1.4-4.4-4c0-2.5,1.7-4,4.2-4c2.6,0,4.2,1.6,4.2,4.2V578.1z M522.1,576.6
			c-0.1-0.7-0.8-1.2-1.5-1.2c-0.8,0-1.4,0.4-1.6,1.2H522.1z"/>
		<path id="XMLID_471_" class="st4" d="M528.6,581.5h-2.7v-12.3h2.7V581.5z"/>
		<path id="XMLID_469_" class="st4" d="M533,581.5h-2.7v-12.3h2.7V581.5z"/>
		<path id="XMLID_466_" class="st4" d="M543.4,577.7c0,2.6-2.1,4-4.6,4c-2.4,0-4.6-1.4-4.6-4s2.1-4,4.6-4
			C541.2,573.6,543.4,575.1,543.4,577.7z M537.1,577.7c0,1,0.6,1.7,1.7,1.7c1.1,0,1.7-0.7,1.7-1.7c0-0.9-0.6-1.7-1.7-1.7
			C537.7,576,537.1,576.8,537.1,577.7z"/>
	</g>
</g>
<rect id="XMLID_4439_" x="387.2" y="655.8" class="st3" width="223.4" height="101.1"/>
<g id="XMLID_14190_">
	<g>
		<path id="XMLID_617_" class="st4" d="M439.2,693.4v7.5c0,2.3-1.2,3.9-3.7,3.9c-1.2,0-2.2-0.6-2.9-1.6l1.7-1.8
			c0.3,0.4,0.8,0.9,1.2,0.9c0.9,0,0.8-1,0.8-1.6v-7.3H439.2z"/>
		<path id="XMLID_615_" class="st4" d="M444,695.9v1.9h3.3v2.5H444v1.9h3.4v2.5h-6.3v-11.1h6.3v2.5H444z"/>
		<path id="XMLID_613_" class="st4" d="M452.1,695.9v1.9h3.2v2.5h-3.2v4.4h-2.9v-11.1h6.4v2.5H452.1z"/>
		<path id="XMLID_611_" class="st4" d="M460.1,695.9v1.9h3.3v2.5h-3.3v1.9h3.4v2.5h-6.3v-11.1h6.3v2.5H460.1z"/>
		<path id="XMLID_608_" class="st4" d="M470.4,693.4h4.1c3.1,0,5.7,2.4,5.7,5.6c0,3.1-2.6,5.6-5.7,5.6h-4.1V693.4z M473.3,702.1h0.6
			c1.7,0,3.2-0.9,3.2-3.1c0-2-1.3-3.1-3.2-3.1h-0.7V702.1z"/>
		<path id="XMLID_606_" class="st4" d="M484.4,695.9v1.9h3.3v2.5h-3.3v1.9h3.4v2.5h-6.3v-11.1h6.3v2.5H484.4z"/>
		<path id="XMLID_603_" class="st4" d="M494.7,693.4h4.1c3.1,0,5.7,2.4,5.7,5.6c0,3.1-2.6,5.6-5.7,5.6h-4.1V693.4z M497.6,702.1h0.6
			c1.7,0,3.2-0.9,3.2-3.1c0-2-1.3-3.1-3.2-3.1h-0.7V702.1z"/>
		<path id="XMLID_601_" class="st4" d="M508.7,704.5h-2.9v-11.1h2.9V704.5z"/>
		<path id="XMLID_599_" class="st4" d="M515.3,700.2l2.7-6.8h3.1l-4.8,11.1h-2.2l-4.7-11.1h3.1L515.3,700.2z"/>
		<path id="XMLID_597_" class="st4" d="M524.7,704.5h-2.9v-11.1h2.9V704.5z"/>
		<path id="XMLID_595_" class="st4" d="M532.7,696.3c-0.5-0.4-1.2-0.7-1.9-0.7c-0.5,0-1.2,0.3-1.2,0.9c0,0.6,0.8,0.9,1.3,1.1
			l0.7,0.2c1.6,0.5,2.7,1.2,2.7,3c0,1.1-0.3,2.2-1.2,3c-0.9,0.7-2,1-3.2,1c-1.4,0-2.8-0.5-3.9-1.3l1.2-2.3c0.7,0.6,1.6,1.2,2.6,1.2
			c0.7,0,1.4-0.3,1.4-1.1c0-0.8-1.1-1.1-1.8-1.3c-1.8-0.5-3-1-3-3.1c0-2.3,1.6-3.7,3.8-3.7c1.1,0,2.5,0.4,3.5,0.9L532.7,696.3z"/>
		<path id="XMLID_593_" class="st4" d="M538.6,704.5h-2.9v-11.1h2.9V704.5z"/>
		<path id="XMLID_529_" class="st4" d="M552.3,698.8c0,3.6-2.6,6.1-6.2,6.1s-6.2-2.5-6.2-6.1c0-3.4,3-5.7,6.2-5.7
			C549.3,693,552.3,695.4,552.3,698.8z M542.9,698.8c0,1.9,1.4,3.3,3.1,3.3c1.7,0,3.1-1.4,3.1-3.3c0-1.5-1.4-2.9-3.1-2.9
			C544.4,695.8,542.9,697.2,542.9,698.8z M545.7,692.7l-1.2-0.9l2.1-2.5l1.6,1.2L545.7,692.7z"/>
		<path id="XMLID_527_" class="st4" d="M553.6,693.4h2.9l5.3,6.8h0v-6.8h2.9v11.1h-2.9l-5.3-6.8h0v6.8h-2.9V693.4z"/>
		<path id="XMLID_525_" class="st4" d="M448.6,713.6v1.9h3.2v2.5h-3.2v4.4h-2.9v-11.1h6.4v2.5H448.6z"/>
		<path id="XMLID_464_" class="st4" d="M456.5,711.8c0,0.8-0.7,1.5-1.5,1.5c-0.8,0-1.5-0.7-1.5-1.5c0-0.8,0.7-1.5,1.5-1.5
			C455.8,710.3,456.5,710.9,456.5,711.8z M456.3,722.3h-2.7v-7.6h2.7V722.3z"/>
		<path id="XMLID_462_" class="st4" d="M460.8,715.9L460.8,715.9c0.5-0.9,1.4-1.3,2.5-1.3h0.5v2.6c-0.4-0.2-0.7-0.3-1.1-0.3
			c-1.5,0-1.9,1-1.9,2.3v3.1h-2.7v-7.6h2.7V715.9z"/>
		<path id="XMLID_460_" class="st4" d="M467.5,715.6L467.5,715.6c0.7-0.8,1.4-1.2,2.4-1.2c1.1,0,2,0.4,2.6,1.4
			c0.5-0.9,1.5-1.4,2.6-1.4c1.9,0,2.6,1.3,2.6,3v4.8H475v-3.6c0-0.8,0-2.1-1.1-2.1c-1.2,0-1.3,1.2-1.3,2.1v3.6h-2.7v-3.6
			c0-0.8,0-2.1-1.2-2.1s-1.2,1.3-1.2,2.1v3.6h-2.7v-7.6h2.7V715.6z"/>
		<path id="XMLID_457_" class="st4" d="M487.7,722.3H485v-0.8h0c-0.5,0.8-1.4,1.1-2.3,1.1c-2.2,0-3.8-1.9-3.8-4s1.6-4,3.8-4
			c0.9,0,1.8,0.3,2.3,1v-0.7h2.7V722.3z M481.6,718.5c0,1,0.6,1.7,1.7,1.7c1.1,0,1.7-0.7,1.7-1.7c0-0.9-0.6-1.7-1.7-1.7
			C482.3,716.8,481.6,717.6,481.6,718.5z"/>
		<path id="XMLID_455_" class="st4" d="M493.4,714.7h3.1l2,3.9l2-3.9h3.1l-6.1,11.4h-3l2.6-4.8L493.4,714.7z"/>
		<path id="XMLID_453_" class="st4" d="M514.3,716.6c-0.4-0.2-1-0.4-1.4-0.4c-0.3,0-0.8,0.1-0.8,0.5c0,0.5,0.8,0.6,1.2,0.7
			c1.3,0.3,2.2,0.8,2.2,2.2c0,2-1.8,2.8-3.6,2.8c-1.1,0-2.1-0.3-3.1-0.9l1-1.9c0.5,0.4,1.5,0.8,2.1,0.8c0.3,0,0.8-0.2,0.8-0.6
			c0-0.6-0.8-0.6-1.7-0.8c-0.8-0.2-1.7-0.6-1.7-2c0-1.9,1.7-2.7,3.3-2.7c0.9,0,1.7,0.1,2.5,0.5L514.3,716.6z"/>
		<path id="XMLID_450_" class="st4" d="M524.6,718.9H519c0,1.1,0.6,1.7,1.7,1.7c0.6,0,1-0.2,1.3-0.7h2.6c-0.2,0.9-0.7,1.5-1.4,2
			c-0.7,0.4-1.6,0.6-2.4,0.6c-2.5,0-4.4-1.4-4.4-4c0-2.5,1.7-4,4.2-4c2.6,0,4.2,1.6,4.2,4.2V718.9z M522.1,717.4
			c-0.1-0.7-0.8-1.2-1.5-1.2c-0.8,0-1.4,0.4-1.6,1.2H522.1z"/>
		<path id="XMLID_448_" class="st4" d="M528.6,722.3h-2.7V710h2.7V722.3z"/>
		<path id="XMLID_446_" class="st4" d="M533,722.3h-2.7V710h2.7V722.3z"/>
		<path id="XMLID_443_" class="st4" d="M543.4,718.5c0,2.6-2.1,4-4.6,4c-2.4,0-4.6-1.4-4.6-4c0-2.6,2.1-4,4.6-4
			C541.2,714.4,543.4,715.9,543.4,718.5z M537.1,718.5c0,1,0.6,1.7,1.7,1.7c1.1,0,1.7-0.7,1.7-1.7c0-0.9-0.6-1.7-1.7-1.7
			C537.7,716.8,537.1,717.6,537.1,718.5z"/>
	</g>
</g>
<polygon id="XMLID_4435_" class="st5" points="390.5,50.6 381,56 371.6,61.4 371.6,50.6 371.6,39.7 381,45.1 "/>
<polygon id="XMLID_4434_" class="st5" points="497.2,135.7 491.8,126.3 486.4,116.9 497.2,116.9 508.1,116.9 502.7,126.3 "/>
<polygon id="XMLID_4433_" class="st5" points="610.6,183.8 620,178.3 629.4,172.9 629.4,183.8 629.4,194.7 620,189.2 "/>
<polygon id="XMLID_4432_" class="st5" points="610.6,50.6 620,45.1 629.4,39.7 629.4,50.6 629.4,61.4 620,56 "/>
<polygon id="XMLID_4431_" class="st5" points="663.5,183.8 654.1,189.2 644.7,194.7 644.7,183.8 644.7,172.9 654.1,178.3 "/>
<polygon id="XMLID_4430_" class="st5" points="775.3,126.3 769.9,116.9 764.5,107.5 775.3,107.5 786.2,107.5 780.8,116.9 "/>
<polygon id="XMLID_4429_" class="st5" points="497.2,266.2 491.8,256.8 486.4,247.4 497.2,247.4 508.1,247.4 502.7,256.8 "/>
<polygon id="XMLID_4428_" class="st5" points="497.2,396.7 491.8,387.3 486.4,377.8 497.2,377.8 508.1,377.8 502.7,387.3 "/>
<polygon id="XMLID_4427_" class="st5" points="497.2,527.2 491.8,517.7 486.4,508.3 497.2,508.3 508.1,508.3 502.7,517.7 "/>
<polygon id="XMLID_4426_" class="st5" points="497.2,657.6 491.8,648.2 486.4,638.8 497.2,638.8 508.1,638.8 502.7,648.2 "/>
<polygon id="XMLID_4424_" class="st5" points="210.3,609.9 204.8,600.5 199.4,591 210.3,591 221.1,591 215.7,600.5 "/>
<polygon id="XMLID_4423_" class="st5" points="210.3,713.4 215.7,722.8 221.1,732.2 210.3,732.2 199.4,732.2 204.8,722.8 "/>
<line id="XMLID_4422_" class="st0" x1="210.3" y1="505.9" x2="210.3" y2="607.2"/>
<polyline id="XMLID_1434_" class="st0" points="210.3,722.8 210.3,837.5 387.2,837.5 497.2,837.5 497.2,757 "/>
<polyline id="XMLID_4420_" class="st0" points="322,661.8 354.2,661.8 354.2,50 387.2,50 "/>
<line id="XMLID_4419_" class="st0" x1="615.9" y1="183.8" x2="656.1" y2="183.8"/>
<polyline id="XMLID_4418_" class="st0" points="620,50.6 775.3,50.6 775.3,120.2 "/>
</svg>
