<?xml version="1.0" encoding="utf-8"?>
<!-- Generator: Adobe Illustrator 21.0.2, SVG Export Plug-In . SVG Version: 6.00 Build 0)  -->
<svg version="1.1" id="Layer_1" xmlns="http://www.w3.org/2000/svg" xmlns:xlink="http://www.w3.org/1999/xlink" x="0px" y="0px"
	 viewBox="0 0 998.6 884" style="enable-background:new 0 0 998.6 884;" xml:space="preserve">
<style type="text/css">
	.st0{fill:none;stroke:#E42527;stroke-width:4;stroke-miterlimit:10;}
	.st1{fill:#D81117;}
	.st2{fill:#929191;}
	.st3{fill:#9D9D9C;}
	.st4{fill:#FFFFFF;}
	.st5{fill:#45C5E6;}
	.st6{fill:#E42527;}
</style>
<line id="XMLID_947_" class="st0" x1="498" y1="86.9" x2="498" y2="874.2"/>
<rect id="XMLID_666_" x="100.5" y="407.2" class="st1" width="222.7" height="100.8"/>
<rect id="XMLID_665_" x="100.5" y="608.5" class="st2" width="222.7" height="100.8"/>
<rect id="XMLID_664_" x="388.2" y="-1.4" class="st3" width="222.7" height="100.8"/>
<rect id="XMLID_663_" x="663.8" y="129.3" class="st3" width="235.8" height="100.8"/>
<g id="XMLID_8337_">
	<g>
		<path id="XMLID_1332_" class="st4" d="M132.4,439.6l2.7-6.7h3.1l-4.7,11.1h-2.2l-4.7-11.1h3.1L132.4,439.6z"/>
		<path id="XMLID_1329_" class="st4" d="M144,435c0,1.5-1.4,2.4-3,2.4c-1.6,0-2.9-0.9-2.9-2.4c0-1.5,1.4-2.4,2.9-2.4
			C142.6,432.6,144,433.5,144,435z M139.9,435c0,0.6,0.5,1,1.1,1c0.6,0,1.1-0.4,1.1-1c0-0.6-0.5-1-1.1-1
			C140.4,434,139.9,434.5,139.9,435z"/>
		<path id="XMLID_1325_" class="st4" d="M150,444v-11.1h4.1c2,0,3.3,0.8,3.3,2.9c0,1-0.3,1.8-1.2,2.3v0c1.6,0.2,2.3,1.3,2.3,2.8
			c0,2.3-2,3.1-4,3.1H150z M152.9,437.3h0.3c0.8,0,1.6-0.1,1.6-1.1c0-1-0.9-1.1-1.7-1.1h-0.2V437.3z M152.9,441.8h0.4
			c0.9,0,2.3,0,2.3-1.2c0-1.3-1.4-1.2-2.4-1.2h-0.3V441.8z"/>
		<path id="XMLID_1322_" class="st4" d="M165,435c0,1.5-1.4,2.4-3,2.4c-1.6,0-2.9-0.9-2.9-2.4c0-1.5,1.4-2.4,2.9-2.4
			C163.6,432.6,165,433.5,165,435z M161,435c0,0.6,0.5,1,1.1,1c0.6,0,1.1-0.4,1.1-1c0-0.6-0.5-1-1.1-1C161.4,434,161,434.5,161,435z
			"/>
		<path id="XMLID_1319_" class="st4" d="M173.9,442.1l-0.8,1.9h-3.1l4.3-11.1h3.2l4.2,11.1h-3.1l-0.7-1.9H173.9z M175.9,436.3
			L175.9,436.3l-1.2,3.5h2.4L175.9,436.3z"/>
		<path id="XMLID_1316_" class="st4" d="M191.8,444h-3.6l-2.7-4.3h0v4.3h-2.9v-11.1h4.3c2.2,0,3.9,1,3.9,3.4c0,1.5-0.9,2.9-2.4,3.1
			L191.8,444z M185.5,437.9h0.3c0.9,0,2-0.2,2-1.4c0-1.2-1.1-1.4-2-1.4h-0.3V437.9z"/>
		<path id="XMLID_1314_" class="st4" d="M195.5,435.3v1.9h3.3v2.4h-3.3v1.9h3.4v2.4h-6.3v-11.1h6.3v2.4H195.5z"/>
		<path id="XMLID_1311_" class="st4" d="M203.5,442.1l-0.8,1.9h-3.1l4.3-11.1h3.2l4.2,11.1h-3.1l-0.7-1.9H203.5z M205.5,436.3
			L205.5,436.3l-1.2,3.5h2.4L205.5,436.3z"/>
		<path id="XMLID_1309_" class="st4" d="M221.7,444h-2.9v-8.7h-2.4v-2.4h7.7v2.4h-2.4V444z"/>
		<path id="XMLID_1307_" class="st4" d="M228,435.3v1.9h3.3v2.4H228v1.9h3.4v2.4h-6.3v-11.1h6.3v2.4H228z"/>
		<path id="XMLID_1305_" class="st4" d="M241.1,436.6c-0.6-0.8-1.5-1.2-2.5-1.2c-1.8,0-3,1.4-3,3.1c0,1.8,1.2,3,3,3
			c0.9,0,1.9-0.5,2.5-1.2v3.5c-1,0.3-1.6,0.5-2.5,0.5c-1.5,0-3-0.6-4.2-1.6c-1.2-1.1-1.8-2.5-1.8-4.2c0-1.5,0.6-3,1.6-4.1
			c1.1-1.1,2.7-1.8,4.2-1.8c0.9,0,1.8,0.2,2.6,0.6V436.6z"/>
		<path id="XMLID_1303_" class="st4" d="M242.9,432.9h2.9l5.3,6.8h0v-6.8h2.9V444h-2.9l-5.3-6.8h0v6.8h-2.9V432.9z"/>
		<path id="XMLID_1301_" class="st4" d="M258.8,444h-2.9v-11.1h2.9V444z"/>
		<path id="XMLID_1299_" class="st4" d="M268.6,436.6c-0.6-0.8-1.5-1.2-2.5-1.2c-1.8,0-3,1.4-3,3.1c0,1.8,1.2,3,3,3
			c0.9,0,1.9-0.5,2.5-1.2v3.5c-1,0.3-1.6,0.5-2.5,0.5c-1.5,0-3-0.6-4.2-1.6c-1.2-1.1-1.8-2.5-1.8-4.2c0-1.5,0.6-3,1.6-4.1
			c1.1-1.1,2.7-1.8,4.2-1.8c0.9,0,1.8,0.2,2.6,0.6V436.6z"/>
		<path id="XMLID_1296_" class="st4" d="M273.2,442.1l-0.8,1.9h-3.1l4.3-11.1h3.2L281,444h-3.1l-0.7-1.9H273.2z M275.2,436.3
			L275.2,436.3l-1.2,3.5h2.4L275.2,436.3z"/>
		<path id="XMLID_1294_" class="st4" d="M175,450.6h3.5l2.1,3l2.1-3h3.5l-4.1,5.8v5.3h-2.9v-5.3L175,450.6z"/>
		<path id="XMLID_1292_" class="st4" d="M194.7,459.2h3.5v2.4h-6.3v-11.1h2.9V459.2z"/>
		<path id="XMLID_1290_" class="st4" d="M202,453v1.9h3.3v2.4H202v1.9h3.4v2.4h-6.3v-11.1h6.3v2.4H202z"/>
		<path id="XMLID_1288_" class="st4" d="M218.3,455.5c0,1.6-0.1,3-1.1,4.4c-1.1,1.5-2.7,2.2-4.6,2.2c-3.5,0-5.9-2.4-5.9-5.9
			c0-3.6,2.4-6,6-6c2.3,0,4.1,1,5,3.1l-2.7,1.1c-0.4-1.1-1.2-1.8-2.4-1.8c-1.9,0-2.9,1.8-2.9,3.5c0,1.7,1,3.5,2.9,3.5
			c1.3,0,2.2-0.6,2.3-1.9h-2.4v-2.3H218.3z"/>
		<path id="XMLID_1285_" class="st4" d="M222.4,459.7l-0.8,1.9h-3.1l4.3-11.1h3.2l4.2,11.1h-3.1l-0.7-1.9H222.4z M224.5,454
			L224.5,454l-1.2,3.5h2.4L224.5,454z"/>
		<path id="XMLID_1283_" class="st4" d="M234,459.2h3.5v2.4h-6.3v-11.1h2.9V459.2z"/>
		<path id="XMLID_1280_" class="st4" d="M152.2,479.3h-3.6l-2.7-4.3h0v4.3H143v-11.1h4.3c2.2,0,3.9,1,3.9,3.4c0,1.5-0.9,2.9-2.4,3.1
			L152.2,479.3z M145.9,473.2h0.3c0.9,0,2-0.2,2-1.4c0-1.2-1.1-1.4-2-1.4h-0.3V473.2z"/>
		<path id="XMLID_1277_" class="st4" d="M160.7,476h-5.6c0,1.1,0.6,1.7,1.7,1.7c0.6,0,1-0.2,1.3-0.7h2.6c-0.2,0.9-0.7,1.5-1.4,2
			c-0.7,0.4-1.5,0.6-2.4,0.6c-2.5,0-4.4-1.4-4.4-4c0-2.5,1.7-4,4.2-4c2.6,0,4.1,1.6,4.1,4.2V476z M158.2,474.5
			c-0.1-0.7-0.8-1.2-1.5-1.2c-0.8,0-1.4,0.4-1.6,1.2H158.2z"/>
		<path id="XMLID_1275_" class="st4" d="M165.7,475.7l1.8-3.9h3l-3.9,7.6h-1.7l-4-7.6h3L165.7,475.7z"/>
		<path id="XMLID_1272_" class="st4" d="M174,468.9c0,0.8-0.7,1.5-1.5,1.5c-0.8,0-1.5-0.7-1.5-1.5c0-0.8,0.7-1.5,1.5-1.5
			C173.3,467.4,174,468.1,174,468.9z M173.8,479.3h-2.7v-7.6h2.7V479.3z"/>
		<path id="XMLID_1270_" class="st4" d="M180.6,473.7c-0.4-0.2-1-0.4-1.4-0.4c-0.3,0-0.8,0.1-0.8,0.5c0,0.5,0.8,0.6,1.2,0.7
			c1.3,0.2,2.2,0.8,2.2,2.2c0,2-1.8,2.8-3.6,2.8c-1.1,0-2.1-0.3-3-0.9l1-1.9c0.5,0.4,1.5,0.8,2.1,0.8c0.3,0,0.8-0.2,0.8-0.6
			c0-0.6-0.8-0.6-1.7-0.8c-0.8-0.2-1.7-0.6-1.7-2c0-1.9,1.7-2.7,3.3-2.7c0.9,0,1.7,0.1,2.5,0.5L180.6,473.7z"/>
		<path id="XMLID_1267_" class="st4" d="M186,468.9c0,0.8-0.7,1.5-1.5,1.5c-0.8,0-1.5-0.7-1.5-1.5c0-0.8,0.7-1.5,1.5-1.5
			C185.3,467.4,186,468.1,186,468.9z M185.8,479.3h-2.7v-7.6h2.7V479.3z"/>
		<path id="XMLID_1263_" class="st4" d="M196.1,475.6c0,2.6-2.1,4-4.6,4c-2.4,0-4.6-1.4-4.6-4c0-2.6,2.1-4,4.6-4
			C194,471.5,196.1,473,196.1,475.6z M189.8,475.6c0,1,0.6,1.7,1.7,1.7c1.1,0,1.7-0.7,1.7-1.7c0-0.9-0.6-1.7-1.7-1.7
			C190.5,473.9,189.8,474.7,189.8,475.6z M191.3,470.7l-1.2-0.9l2.1-2.5l1.6,1.2L191.3,470.7z"/>
		<path id="XMLID_1261_" class="st4" d="M200,472.8L200,472.8c0.6-0.9,1.4-1.2,2.4-1.2c2,0,2.8,1.3,2.8,3.1v4.7h-2.7v-3.7
			c0-0.7,0.1-2-1.2-2c-1.1,0-1.4,0.8-1.4,1.8v3.9h-2.7v-7.6h2.7V472.8z"/>
		<path id="XMLID_1258_" class="st4" d="M214.7,472.6L214.7,472.6c0.5-0.8,1.4-1.1,2.3-1.1c2.3,0,3.8,1.9,3.8,4.1c0,2.2-1.5,4-3.8,4
			c-0.9,0-1.8-0.3-2.3-1v4.5H212v-11.3h2.7V472.6z M214.6,475.6c0,1,0.6,1.7,1.7,1.7c1.1,0,1.7-0.7,1.7-1.7c0-0.9-0.6-1.7-1.7-1.7
			C215.2,473.9,214.6,474.7,214.6,475.6z"/>
		<path id="XMLID_1256_" class="st4" d="M224.8,473L224.8,473c0.5-0.9,1.4-1.3,2.5-1.3h0.5v2.6c-0.4-0.2-0.7-0.3-1.1-0.3
			c-1.5,0-1.9,1-1.9,2.3v3h-2.7v-7.6h2.7V473z"/>
		<path id="XMLID_1253_" class="st4" d="M236.6,476h-5.6c0,1.1,0.6,1.7,1.7,1.7c0.6,0,1-0.2,1.3-0.7h2.6c-0.2,0.9-0.7,1.5-1.4,2
			c-0.7,0.4-1.5,0.6-2.4,0.6c-2.5,0-4.4-1.4-4.4-4c0-2.5,1.7-4,4.2-4c2.6,0,4.1,1.6,4.1,4.2V476z M234.1,474.5
			c-0.1-0.7-0.8-1.2-1.5-1.2c-0.8,0-1.4,0.4-1.6,1.2H234.1z"/>
		<path id="XMLID_1251_" class="st4" d="M241.5,475.7l1.8-3.9h3l-3.9,7.6h-1.7l-4-7.6h3L241.5,475.7z"/>
		<path id="XMLID_1248_" class="st4" d="M249.8,468.9c0,0.8-0.7,1.5-1.5,1.5c-0.8,0-1.5-0.7-1.5-1.5c0-0.8,0.7-1.5,1.5-1.5
			C249.1,467.4,249.8,468.1,249.8,468.9z M249.7,479.3H247v-7.6h2.7V479.3z"/>
		<path id="XMLID_1245_" class="st4" d="M259.7,479.3H257v-0.8h0c-0.5,0.8-1.4,1.1-2.3,1.1c-2.2,0-3.8-1.9-3.8-4c0-2.2,1.5-4,3.8-4
			c0.9,0,1.8,0.3,2.3,1v-0.7h2.7V479.3z M253.7,475.6c0,1,0.6,1.7,1.7,1.7c1.1,0,1.7-0.7,1.7-1.7c0-0.9-0.6-1.7-1.7-1.7
			C254.3,473.9,253.7,474.7,253.7,475.6z"/>
		<path id="XMLID_1243_" class="st4" d="M264.8,477.9c0,0.9-0.8,1.7-1.7,1.7c-1,0-1.7-0.8-1.7-1.7c0-1,0.8-1.7,1.7-1.7
			C264.1,476.2,264.8,477,264.8,477.9z"/>
	</g>
</g>
<g id="XMLID_8302_">
	<g>
		<path id="XMLID_308_" class="st4" d="M137,663.6l2.7-6.7h3.1L138,668h-2.2l-4.7-11.1h3.1L137,663.6z"/>
		<path id="XMLID_306_" class="st4" d="M146.4,659.3v1.9h3.3v2.4h-3.3v1.9h3.4v2.4h-6.3v-11.1h6.3v2.4H146.4z"/>
		<path id="XMLID_304_" class="st4" d="M151.6,656.9h2.9l5.3,6.8h0v-6.8h2.9V668h-2.9l-5.3-6.8h0v6.8h-2.9V656.9z"/>
		<path id="XMLID_302_" class="st4" d="M169,668h-2.9v-8.7h-2.4v-2.4h7.7v2.4H169V668z"/>
		<path id="XMLID_299_" class="st4" d="M174.4,666l-0.8,1.9h-3.1l4.3-11.1h3.2l4.2,11.1h-3.1l-0.7-1.9H174.4z M176.4,660.3
			L176.4,660.3l-1.2,3.5h2.4L176.4,660.3z"/>
		<path id="XMLID_297_" class="st4" d="M183,656.9h2.9l5.3,6.8h0v-6.8h2.9V668h-2.9l-5.3-6.8h0v6.8H183V656.9z"/>
		<path id="XMLID_295_" class="st4" d="M198.9,668H196v-11.1h2.9V668z"/>
		<path id="XMLID_293_" class="st4" d="M203.7,665.5h3.5v2.4h-6.3v-11.1h2.9V665.5z"/>
		<path id="XMLID_291_" class="st4" d="M211,665.5h3.5v2.4h-6.3v-11.1h2.9V665.5z"/>
		<path id="XMLID_288_" class="st4" d="M218.2,666l-0.8,1.9h-3.1l4.3-11.1h3.2L226,668h-3.1l-0.7-1.9H218.2z M220.2,660.3
			L220.2,660.3l-1.2,3.5h2.4L220.2,660.3z"/>
		<path id="XMLID_285_" class="st4" d="M241.6,656.9v6.2c0,1.4-0.1,2.8-1.2,3.9c-0.9,0.9-2.4,1.2-3.7,1.2c-1.3,0-2.8-0.3-3.7-1.2
			c-1.1-1.1-1.2-2.5-1.2-3.9v-6.2h2.9v5.8c0,1.4,0.1,3,2,3c1.9,0,2-1.6,2-3v-5.8H241.6z M236.3,656.2l-1.2-0.9l2.1-2.5l1.6,1.2
			L236.3,656.2z"/>
		<path id="XMLID_283_" class="st4" d="M243.4,656.9h2.9l5.3,6.8h0v-6.8h2.9V668h-2.9l-5.3-6.8h0v6.8h-2.9V656.9z"/>
		<path id="XMLID_281_" class="st4" d="M259.2,668h-2.9v-11.1h2.9V668z"/>
		<path id="XMLID_279_" class="st4" d="M269.1,660.6c-0.6-0.8-1.5-1.2-2.5-1.2c-1.8,0-3,1.4-3,3.1c0,1.8,1.2,3,3,3
			c0.9,0,1.9-0.5,2.5-1.2v3.5c-1,0.3-1.6,0.5-2.5,0.5c-1.5,0-3-0.6-4.2-1.6c-1.2-1.1-1.8-2.5-1.8-4.2c0-1.5,0.6-3,1.6-4.1
			c1.1-1.1,2.7-1.8,4.2-1.8c0.9,0,1.8,0.2,2.6,0.6V660.6z"/>
		<path id="XMLID_276_" class="st4" d="M273.7,666l-0.8,1.9h-3.1l4.3-11.1h3.2l4.2,11.1h-3.1l-0.7-1.9H273.7z M275.7,660.3
			L275.7,660.3l-1.2,3.5h2.4L275.7,660.3z"/>
	</g>
</g>
<g id="XMLID_8241_">
	<g>
		<path id="XMLID_626_" class="st4" d="M460,32.2l-0.8,1.9h-3.1l4.3-11.1h3.2l4.2,11.1h-3.1l-0.7-1.9H460z M462,26.4L462,26.4
			l-1.2,3.5h2.4L462,26.4z"/>
		<path id="XMLID_622_" class="st4" d="M468.6,34.1V23h4.1c2,0,3.3,0.8,3.3,2.9c0,1-0.3,1.8-1.2,2.3v0c1.6,0.2,2.3,1.3,2.3,2.8
			c0,2.3-2,3.1-4,3.1H468.6z M471.5,27.4h0.3c0.8,0,1.6-0.1,1.6-1.1c0-1-0.9-1.1-1.7-1.1h-0.2V27.4z M471.5,31.9h0.4
			c0.9,0,2.3,0,2.3-1.2c0-1.3-1.4-1.2-2.4-1.2h-0.3V31.9z"/>
		<path id="XMLID_619_" class="st4" d="M490.3,28.3c0,3.6-2.6,6.1-6.1,6.1s-6.1-2.5-6.1-6.1c0-3.4,2.9-5.7,6.1-5.7
			C487.4,22.6,490.3,25,490.3,28.3z M481.1,28.4c0,1.9,1.4,3.3,3.1,3.3s3.1-1.4,3.1-3.3c0-1.5-1.4-2.9-3.1-2.9
			S481.1,26.8,481.1,28.4z"/>
		<path id="XMLID_617_" class="st4" d="M502.8,27.9c0,1.6-0.1,3-1.1,4.4c-1.1,1.5-2.7,2.2-4.6,2.2c-3.5,0-5.9-2.4-5.9-5.9
			c0-3.6,2.4-6,6-6c2.3,0,4.1,1,5,3.1l-2.7,1.1c-0.4-1.1-1.2-1.8-2.4-1.8c-1.9,0-2.9,1.8-2.9,3.5c0,1.7,1,3.5,2.9,3.5
			c1.3,0,2.2-0.6,2.3-1.9H497v-2.3H502.8z"/>
		<path id="XMLID_614_" class="st4" d="M506.9,32.2l-0.8,1.9h-3.1l4.3-11.1h3.2l4.2,11.1h-3.1l-0.7-1.9H506.9z M508.9,26.4
			L508.9,26.4l-1.2,3.5h2.4L508.9,26.4z"/>
		<path id="XMLID_611_" class="st4" d="M515.6,23h4.1c3.1,0,5.6,2.4,5.6,5.6c0,3.1-2.6,5.6-5.6,5.6h-4.1V23z M518.5,31.7h0.6
			c1.7,0,3.2-0.9,3.2-3.1c0-2-1.3-3.1-3.2-3.1h-0.7V31.7z"/>
		<path id="XMLID_608_" class="st4" d="M538.4,28.3c0,3.6-2.6,6.1-6.1,6.1c-3.6,0-6.1-2.5-6.1-6.1c0-3.4,2.9-5.7,6.1-5.7
			C535.4,22.6,538.4,25,538.4,28.3z M529.1,28.4c0,1.9,1.4,3.3,3.1,3.3c1.7,0,3.1-1.4,3.1-3.3c0-1.5-1.4-2.9-3.1-2.9
			C530.5,25.4,529.1,26.8,529.1,28.4z"/>
		<path id="XMLID_606_" class="st4" d="M461.9,40.7v6.2c0,1.4-0.1,2.8-1.2,3.9c-0.9,0.9-2.4,1.2-3.7,1.2c-1.3,0-2.8-0.3-3.7-1.2
			c-1.1-1.1-1.2-2.5-1.2-3.9v-6.2h2.9v5.8c0,1.4,0.1,3,2,3c1.9,0,2-1.6,2-3v-5.8H461.9z"/>
		<path id="XMLID_603_" class="st4" d="M473,51.8h-3.6l-2.7-4.3h0v4.3h-2.9V40.7h4.3c2.2,0,3.9,1,3.9,3.4c0,1.5-0.9,2.9-2.4,3.1
			L473,51.8z M466.7,45.6h0.3c0.9,0,2-0.2,2-1.4c0-1.2-1.1-1.4-2-1.4h-0.3V45.6z"/>
		<path id="XMLID_599_" class="st4" d="M473.8,51.8V40.7h4.1c2,0,3.3,0.8,3.3,2.9c0,1-0.3,1.8-1.2,2.3v0c1.6,0.2,2.3,1.3,2.3,2.8
			c0,2.3-2,3.1-4,3.1H473.8z M476.7,45h0.3c0.8,0,1.6-0.1,1.6-1.1c0-1-0.9-1.1-1.7-1.1h-0.2V45z M476.7,49.6h0.4
			c0.9,0,2.3,0,2.3-1.2c0-1.3-1.4-1.2-2.4-1.2h-0.3V49.6z"/>
		<path id="XMLID_596_" class="st4" d="M486.6,49.8l-0.8,1.9h-3.1l4.3-11.1h3.2l4.2,11.1h-3.1l-0.7-1.9H486.6z M488.6,44.1
			L488.6,44.1l-1.2,3.5h2.4L488.6,44.1z"/>
		<path id="XMLID_594_" class="st4" d="M495.3,40.7h2.9l5.3,6.8h0v-6.8h2.9v11.1h-2.9l-5.3-6.8h0v6.8h-2.9V40.7z"/>
		<path id="XMLID_592_" class="st4" d="M511.1,51.8h-2.9V40.7h2.9V51.8z"/>
		<path id="XMLID_590_" class="st4" d="M519.1,43.5c-0.5-0.4-1.2-0.7-1.9-0.7c-0.5,0-1.2,0.3-1.2,0.9c0,0.6,0.8,0.9,1.3,1.1L518,45
			c1.5,0.5,2.7,1.2,2.7,3c0,1.1-0.3,2.2-1.1,3c-0.9,0.7-2,1-3.2,1c-1.4,0-2.8-0.5-3.9-1.3l1.2-2.3c0.7,0.6,1.6,1.1,2.6,1.1
			c0.7,0,1.4-0.3,1.4-1.1c0-0.8-1.1-1.1-1.8-1.3c-1.8-0.5-3-1-3-3.1c0-2.3,1.6-3.7,3.8-3.7c1.1,0,2.5,0.4,3.5,0.9L519.1,43.5z"/>
		<path id="XMLID_588_" class="st4" d="M523.3,40.7h2.8l2.3,5.9l2.4-5.9h2.9l1.7,11.1h-2.9l-0.8-6.4h0l-2.7,6.4h-1.1l-2.5-6.4h0
			l-0.9,6.4h-2.9L523.3,40.7z"/>
		<path id="XMLID_585_" class="st4" d="M548.3,46c0,3.6-2.6,6.1-6.1,6.1c-3.6,0-6.1-2.5-6.1-6.1c0-3.4,2.9-5.7,6.1-5.7
			C545.3,40.3,548.3,42.7,548.3,46z M539,46c0,1.9,1.4,3.3,3.1,3.3c1.7,0,3.1-1.4,3.1-3.3c0-1.5-1.4-2.9-3.1-2.9
			C540.4,43.1,539,44.5,539,46z"/>
		<path id="XMLID_583_" class="st4" d="M473.8,69.4h-2.9V58.3h2.9V69.4z"/>
		<path id="XMLID_581_" class="st4" d="M478.3,62.9L478.3,62.9c0.6-0.9,1.4-1.2,2.4-1.2c2,0,2.8,1.3,2.8,3.1v4.7h-2.7v-3.7
			c0-0.7,0.1-2-1.2-2c-1.1,0-1.4,0.8-1.4,1.8v3.9h-2.7v-7.6h2.7V62.9z"/>
		<path id="XMLID_579_" class="st4" d="M488.3,69.4h-2.7v-5.3h-0.9v-2.2h0.9v-1c0-1,0-1.8,0.8-2.7c0.7-0.8,1.6-1.2,2.6-1.2
			c0.4,0,0.8,0.1,1.1,0.3v2.3c-0.3-0.1-0.6-0.3-0.9-0.3c-0.7,0-0.9,0.4-0.9,1.3v1.2h1.9v2.2h-1.9V69.4z"/>
		<path id="XMLID_576_" class="st4" d="M499.6,65.7c0,2.6-2.1,4-4.6,4c-2.4,0-4.6-1.4-4.6-4c0-2.6,2.1-4,4.6-4
			C497.4,61.6,499.6,63.1,499.6,65.7z M493.3,65.7c0,1,0.6,1.7,1.7,1.7c1.1,0,1.7-0.7,1.7-1.7c0-0.9-0.6-1.7-1.7-1.7
			C493.9,64,493.3,64.7,493.3,65.7z"/>
		<path id="XMLID_574_" class="st4" d="M503.5,63.1L503.5,63.1c0.5-0.9,1.4-1.3,2.5-1.3h0.5v2.6c-0.4-0.2-0.7-0.3-1.1-0.3
			c-1.5,0-1.9,1-1.9,2.3v3h-2.7v-7.6h2.7V63.1z"/>
		<path id="XMLID_572_" class="st4" d="M510.1,62.8L510.1,62.8c0.7-0.8,1.4-1.2,2.4-1.2c1.1,0,2,0.4,2.6,1.4
			c0.5-0.9,1.5-1.4,2.6-1.4c1.9,0,2.6,1.3,2.6,3v4.8h-2.7v-3.6c0-0.8,0-2.1-1.1-2.1c-1.2,0-1.3,1.2-1.3,2.1v3.6h-2.7v-3.6
			c0-0.8,0-2.1-1.2-2.1c-1.2,0-1.2,1.3-1.2,2.1v3.6h-2.7v-7.6h2.7V62.8z"/>
		<path id="XMLID_564_" class="st4" d="M529.8,66.1h-5.6c0,1.1,0.6,1.7,1.7,1.7c0.6,0,1-0.2,1.3-0.7h2.6c-0.2,0.9-0.7,1.5-1.4,2
			c-0.7,0.4-1.5,0.6-2.4,0.6c-2.5,0-4.4-1.4-4.4-4c0-2.5,1.7-4,4.2-4c2.6,0,4.1,1.6,4.1,4.2V66.1z M527.3,64.6
			c-0.1-0.7-0.8-1.2-1.5-1.2c-0.8,0-1.4,0.4-1.6,1.2H527.3z"/>
	</g>
</g>
<g id="XMLID_8181_">
	<g>
		<path id="XMLID_543_" class="st4" d="M720.4,167.3c-0.6-0.8-1.5-1.2-2.5-1.2c-1.8,0-3,1.4-3,3.1c0,1.8,1.2,3,3,3
			c0.9,0,1.9-0.5,2.5-1.2v3.5c-1,0.3-1.6,0.5-2.5,0.5c-1.5,0-3-0.6-4.2-1.6c-1.2-1.1-1.8-2.5-1.8-4.2c0-1.5,0.6-3,1.6-4.1
			c1.1-1.1,2.7-1.8,4.2-1.8c0.9,0,1.8,0.2,2.6,0.6V167.3z"/>
		<path id="XMLID_540_" class="st4" d="M733.9,168.9c0,3.6-2.6,6.1-6.1,6.1c-3.6,0-6.1-2.5-6.1-6.1c0-3.4,2.9-5.7,6.1-5.7
			C731,163.2,733.9,165.6,733.9,168.9z M724.7,168.9c0,1.9,1.4,3.3,3.1,3.3c1.7,0,3.1-1.4,3.1-3.3c0-1.5-1.4-2.9-3.1-2.9
			C726.1,166,724.7,167.4,724.7,168.9z"/>
		<path id="XMLID_538_" class="st4" d="M735.3,163.6h2.9l5.3,6.8h0v-6.8h2.9v11.1h-2.9l-5.3-6.8h0v6.8h-2.9V163.6z"/>
		<path id="XMLID_536_" class="st4" d="M752.7,174.7h-2.9V166h-2.4v-2.4h7.7v2.4h-2.4V174.7z"/>
		<path id="XMLID_533_" class="st4" d="M765.3,174.7h-3.6l-2.7-4.3h0v4.3h-2.9v-11.1h4.3c2.2,0,3.9,1,3.9,3.4c0,1.5-0.9,2.9-2.4,3.1
			L765.3,174.7z M759,168.6h0.3c0.9,0,2-0.2,2-1.4c0-1.2-1.1-1.4-2-1.4H759V168.6z"/>
		<path id="XMLID_531_" class="st4" d="M769,174.7h-2.9v-11.1h2.9V174.7z"/>
		<path id="XMLID_527_" class="st4" d="M770.9,174.7v-11.1h4.1c2,0,3.3,0.8,3.3,2.9c0,1-0.3,1.8-1.2,2.3v0c1.6,0.2,2.3,1.3,2.3,2.8
			c0,2.3-2,3.1-4,3.1H770.9z M773.8,167.9h0.3c0.8,0,1.6-0.1,1.6-1.1c0-1-0.9-1.1-1.7-1.1h-0.2V167.9z M773.8,172.5h0.4
			c0.9,0,2.3,0,2.3-1.2c0-1.3-1.4-1.2-2.4-1.2h-0.3V172.5z"/>
		<path id="XMLID_525_" class="st4" d="M790.5,163.6v6.2c0,1.4-0.1,2.8-1.2,3.9c-0.9,0.9-2.4,1.2-3.7,1.2c-1.3,0-2.8-0.3-3.7-1.2
			c-1.1-1.1-1.2-2.5-1.2-3.9v-6.2h2.9v5.8c0,1.4,0.1,3,2,3c1.9,0,2-1.6,2-3v-5.8H790.5z"/>
		<path id="XMLID_523_" class="st4" d="M791.1,163.6h3.5l2.1,3l2.1-3h3.5l-4.1,5.8v5.3h-2.9v-5.3L791.1,163.6z"/>
		<path id="XMLID_521_" class="st4" d="M805.7,166v1.9h3.3v2.4h-3.3v1.9h3.4v2.4h-6.3v-11.1h6.3v2.4H805.7z"/>
		<path id="XMLID_519_" class="st4" d="M810.9,163.6h2.9l5.3,6.8h0v-6.8h2.9v11.1h-2.9l-5.3-6.8h0v6.8h-2.9V163.6z"/>
		<path id="XMLID_517_" class="st4" d="M828.3,174.7h-2.9V166h-2.4v-2.4h7.7v2.4h-2.4V174.7z"/>
		<path id="XMLID_515_" class="st4" d="M834.7,166v1.9h3.3v2.4h-3.3v1.9h3.4v2.4h-6.3v-11.1h6.3v2.4H834.7z"/>
		<path id="XMLID_513_" class="st4" d="M735.9,185c-0.6-0.8-1.5-1.2-2.5-1.2c-1.8,0-3,1.4-3,3.1c0,1.8,1.2,3,3,3
			c0.9,0,1.9-0.5,2.5-1.2v3.5c-1,0.3-1.6,0.5-2.5,0.5c-1.5,0-3-0.6-4.2-1.6c-1.2-1.1-1.8-2.5-1.8-4.2c0-1.5,0.6-3,1.6-4.1
			c1.1-1.1,2.7-1.8,4.2-1.8c0.9,0,1.8,0.2,2.6,0.6V185z"/>
		<path id="XMLID_510_" class="st4" d="M746.1,188.6c0,2.6-2.1,4-4.6,4c-2.4,0-4.6-1.4-4.6-4c0-2.6,2.1-4,4.6-4
			C744,184.6,746.1,186,746.1,188.6z M739.9,188.6c0,1,0.6,1.7,1.7,1.7c1.1,0,1.7-0.7,1.7-1.7c0-0.9-0.6-1.7-1.7-1.7
			C740.5,186.9,739.9,187.7,739.9,188.6z"/>
		<path id="XMLID_508_" class="st4" d="M750,186L750,186c0.5-0.9,1.4-1.3,2.5-1.3h0.5v2.6c-0.4-0.2-0.7-0.3-1.1-0.3
			c-1.5,0-1.9,1-1.9,2.3v3h-2.7v-7.6h2.7V186z"/>
		<path id="XMLID_506_" class="st4" d="M756.7,186L756.7,186c0.5-0.9,1.4-1.3,2.5-1.3h0.5v2.6c-0.4-0.2-0.7-0.3-1.1-0.3
			c-1.5,0-1.9,1-1.9,2.3v3H754v-7.6h2.7V186z"/>
		<path id="XMLID_503_" class="st4" d="M768.5,189h-5.6c0,1.1,0.6,1.7,1.7,1.7c0.6,0,1-0.2,1.3-0.7h2.6c-0.2,0.9-0.7,1.5-1.4,2
			c-0.7,0.4-1.5,0.6-2.4,0.6c-2.5,0-4.4-1.4-4.4-4c0-2.5,1.7-4,4.2-4c2.6,0,4.1,1.6,4.1,4.2V189z M766,187.5
			c-0.1-0.7-0.8-1.2-1.5-1.2c-0.8,0-1.4,0.4-1.6,1.2H766z"/>
		<path id="XMLID_501_" class="st4" d="M775.1,187.3c-0.4-0.3-0.9-0.5-1.4-0.5c-1,0-1.8,0.8-1.8,1.8c0,1.1,0.8,1.9,1.9,1.9
			c0.5,0,1-0.2,1.3-0.5v2.3c-0.6,0.3-1.2,0.4-1.9,0.4c-2.2,0-4.1-1.7-4.1-3.9c0-2.4,1.9-4.1,4.2-4.1c0.6,0,1.2,0.1,1.8,0.4V187.3z"
			/>
		<path id="XMLID_499_" class="st4" d="M782.2,187.3c-0.4-0.3-0.9-0.5-1.4-0.5c-1,0-1.8,0.8-1.8,1.8c0,1.1,0.8,1.9,1.9,1.9
			c0.5,0,1-0.2,1.3-0.5v2.3c-0.6,0.3-1.2,0.4-1.9,0.4c-2.2,0-4.1-1.7-4.1-3.9c0-2.4,1.9-4.1,4.2-4.1c0.6,0,1.2,0.1,1.8,0.4V187.3z"
			/>
		<path id="XMLID_496_" class="st4" d="M786.7,181.9c0,0.8-0.7,1.5-1.5,1.5c-0.8,0-1.5-0.7-1.5-1.5c0-0.8,0.7-1.5,1.5-1.5
			C786.1,180.4,786.7,181.1,786.7,181.9z M786.6,192.4h-2.7v-7.6h2.7V192.4z"/>
		<path id="XMLID_493_" class="st4" d="M796.9,188.6c0,2.6-2.1,4-4.6,4c-2.4,0-4.6-1.4-4.6-4c0-2.6,2.1-4,4.6-4
			C794.8,184.6,796.9,186,796.9,188.6z M790.6,188.6c0,1,0.6,1.7,1.7,1.7c1.1,0,1.7-0.7,1.7-1.7c0-0.9-0.6-1.7-1.7-1.7
			C791.2,186.9,790.6,187.7,790.6,188.6z"/>
		<path id="XMLID_491_" class="st4" d="M800.8,185.8L800.8,185.8c0.6-0.9,1.4-1.2,2.4-1.2c2,0,2.8,1.3,2.8,3.1v4.7h-2.7v-3.7
			c0-0.7,0.1-2-1.2-2c-1.1,0-1.4,0.8-1.4,1.8v3.9h-2.7v-7.6h2.7V185.8z"/>
		<path id="XMLID_488_" class="st4" d="M815.6,189H810c0,1.1,0.6,1.7,1.7,1.7c0.6,0,1-0.2,1.3-0.7h2.6c-0.2,0.9-0.7,1.5-1.4,2
			c-0.7,0.4-1.5,0.6-2.4,0.6c-2.5,0-4.4-1.4-4.4-4c0-2.5,1.7-4,4.2-4c2.6,0,4.1,1.6,4.1,4.2V189z M813.1,187.5
			c-0.1-0.7-0.8-1.2-1.5-1.2c-0.8,0-1.4,0.4-1.6,1.2H813.1z"/>
		<path id="XMLID_486_" class="st4" d="M821.8,186.7c-0.4-0.2-1-0.4-1.4-0.4c-0.3,0-0.8,0.1-0.8,0.5c0,0.5,0.8,0.6,1.2,0.7
			c1.3,0.2,2.2,0.8,2.2,2.2c0,2-1.8,2.8-3.6,2.8c-1.1,0-2.1-0.3-3-0.9l1-1.9c0.5,0.4,1.5,0.8,2.1,0.8c0.3,0,0.8-0.2,0.8-0.6
			c0-0.6-0.8-0.6-1.7-0.8c-0.8-0.2-1.7-0.6-1.7-2c0-1.9,1.7-2.7,3.3-2.7c0.9,0,1.7,0.1,2.5,0.5L821.8,186.7z"/>
	</g>
</g>
<rect id="XMLID_658_" x="388.2" y="129.3" class="st3" width="222.7" height="100.8"/>
<g id="XMLID_8105_">
	<g>
		<path id="XMLID_882_" class="st4" d="M454.4,176.5h-2.9v-8.7h-2.4v-2.4h7.7v2.4h-2.4V176.5z"/>
		<path id="XMLID_879_" class="st4" d="M469.6,170.7c0,3.6-2.6,6.1-6.1,6.1c-3.6,0-6.1-2.5-6.1-6.1c0-3.4,2.9-5.7,6.1-5.7
			C466.6,165,469.6,167.3,469.6,170.7z M460.3,170.7c0,1.9,1.4,3.3,3.1,3.3c1.7,0,3.1-1.4,3.1-3.3c0-1.5-1.4-2.9-3.1-2.9
			C461.7,167.8,460.3,169.2,460.3,170.7z"/>
		<path id="XMLID_876_" class="st4" d="M470.9,165.4h4.4c2.4,0,4,1.1,4,3.7c0,2.6-1.4,3.8-3.9,3.8h-1.6v3.7h-2.9V165.4z
			 M473.8,170.5h0.5c1,0,2.1,0,2.1-1.4c0-1.4-1-1.4-2.1-1.4h-0.5V170.5z"/>
		<path id="XMLID_873_" class="st4" d="M492.4,170.7c0,3.6-2.6,6.1-6.1,6.1s-6.1-2.5-6.1-6.1c0-3.4,2.9-5.7,6.1-5.7
			C489.4,165,492.4,167.3,492.4,170.7z M483.1,170.7c0,1.9,1.4,3.3,3.1,3.3c1.7,0,3.1-1.4,3.1-3.3c0-1.5-1.4-2.9-3.1-2.9
			C484.5,167.8,483.1,169.2,483.1,170.7z"/>
		<path id="XMLID_871_" class="st4" d="M504.8,170.3c0,1.6-0.1,3-1.1,4.4c-1.1,1.5-2.7,2.2-4.6,2.2c-3.5,0-5.9-2.4-5.9-5.9
			c0-3.6,2.4-6,6-6c2.3,0,4.1,1,5,3.1l-2.7,1.1c-0.4-1.1-1.2-1.8-2.4-1.8c-1.9,0-2.9,1.8-2.9,3.5c0,1.7,1,3.5,2.9,3.5
			c1.3,0,2.2-0.6,2.3-1.9h-2.4v-2.3H504.8z"/>
		<path id="XMLID_868_" class="st4" d="M515.4,176.5h-3.6l-2.7-4.3h0v4.3h-2.9v-11.1h4.3c2.2,0,3.9,1,3.9,3.4c0,1.5-0.9,2.9-2.4,3.1
			L515.4,176.5z M509,170.3h0.3c0.9,0,2-0.2,2-1.4c0-1.2-1.1-1.4-2-1.4H509V170.3z"/>
		<path id="XMLID_865_" class="st4" d="M519,174.5l-0.8,1.9h-3.1l4.3-11.1h3.2l4.2,11.1h-3.1l-0.7-1.9H519z M521,168.8L521,168.8
			l-1.2,3.5h2.4L521,168.8z"/>
		<path id="XMLID_863_" class="st4" d="M530.5,167.8v1.9h3.2v2.4h-3.2v4.4h-2.9v-11.1h6.4v2.4H530.5z"/>
		<path id="XMLID_861_" class="st4" d="M538.5,176.5h-2.9v-11.1h2.9V176.5z"/>
		<path id="XMLID_858_" class="st4" d="M543.2,174.5l-0.8,1.9h-3.1l4.3-11.1h3.2l4.2,11.1h-3.1l-0.7-1.9H543.2z M545.2,168.8
			L545.2,168.8l-1.2,3.5h2.4L545.2,168.8z"/>
		<path id="XMLID_856_" class="st4" d="M426.8,194.1h-2.9V183h2.9V194.1z"/>
		<path id="XMLID_854_" class="st4" d="M431.3,187.6L431.3,187.6c0.6-0.9,1.4-1.2,2.4-1.2c2,0,2.8,1.3,2.8,3.1v4.7h-2.7v-3.7
			c0-0.7,0.1-2-1.2-2c-1.1,0-1.4,0.8-1.4,1.8v3.9h-2.7v-7.6h2.7V187.6z"/>
		<path id="XMLID_852_" class="st4" d="M443.3,188.5c-0.4-0.2-1-0.4-1.4-0.4c-0.3,0-0.8,0.1-0.8,0.5c0,0.5,0.8,0.6,1.2,0.7
			c1.3,0.2,2.2,0.8,2.2,2.2c0,2-1.8,2.8-3.6,2.8c-1.1,0-2.1-0.3-3-0.9l1-1.9c0.5,0.4,1.5,0.8,2.1,0.8c0.3,0,0.8-0.2,0.8-0.6
			c0-0.6-0.8-0.6-1.7-0.8c-0.8-0.2-1.7-0.6-1.7-2c0-1.9,1.7-2.7,3.3-2.7c0.9,0,1.7,0.1,2.5,0.5L443.3,188.5z"/>
		<path id="XMLID_849_" class="st4" d="M448.5,187.4L448.5,187.4c0.5-0.8,1.4-1.1,2.3-1.1c2.3,0,3.8,1.9,3.8,4.1c0,2.2-1.5,4-3.8,4
			c-0.9,0-1.8-0.3-2.3-1v4.5h-2.7v-11.3h2.7V187.4z M448.4,190.4c0,1,0.6,1.7,1.7,1.7c1.1,0,1.7-0.7,1.7-1.7c0-0.9-0.6-1.7-1.7-1.7
			C449,188.7,448.4,189.4,448.4,190.4z"/>
		<path id="XMLID_846_" class="st4" d="M463.7,190.8h-5.6c0,1.1,0.6,1.7,1.7,1.7c0.6,0,1-0.2,1.3-0.7h2.6c-0.2,0.9-0.7,1.5-1.4,2
			c-0.7,0.4-1.5,0.6-2.4,0.6c-2.5,0-4.4-1.4-4.4-4c0-2.5,1.7-4,4.2-4c2.6,0,4.1,1.6,4.1,4.2V190.8z M461.2,189.3
			c-0.1-0.7-0.8-1.2-1.5-1.2c-0.8,0-1.4,0.4-1.6,1.2H461.2z"/>
		<path id="XMLID_844_" class="st4" d="M470.4,189c-0.4-0.3-0.9-0.5-1.4-0.5c-1,0-1.8,0.8-1.8,1.8c0,1.1,0.8,1.9,1.9,1.9
			c0.5,0,1-0.2,1.3-0.5v2.3c-0.6,0.3-1.2,0.4-1.9,0.4c-2.2,0-4.1-1.7-4.1-3.9c0-2.4,1.9-4.1,4.2-4.1c0.6,0,1.2,0.1,1.8,0.4V189z"/>
		<path id="XMLID_842_" class="st4" d="M477.5,189c-0.4-0.3-0.9-0.5-1.4-0.5c-1,0-1.8,0.8-1.8,1.8c0,1.1,0.8,1.9,1.9,1.9
			c0.5,0,1-0.2,1.3-0.5v2.3c-0.6,0.3-1.2,0.4-1.9,0.4c-2.2,0-4.1-1.7-4.1-3.9c0-2.4,1.9-4.1,4.2-4.1c0.6,0,1.2,0.1,1.8,0.4V189z"/>
		<path id="XMLID_839_" class="st4" d="M482,183.7c0,0.8-0.7,1.5-1.5,1.5c-0.8,0-1.5-0.7-1.5-1.5c0-0.8,0.7-1.5,1.5-1.5
			C481.3,182.2,482,182.9,482,183.7z M481.8,194.1h-2.7v-7.6h2.7V194.1z"/>
		<path id="XMLID_835_" class="st4" d="M492.2,190.4c0,2.6-2.1,4-4.6,4c-2.4,0-4.6-1.4-4.6-4s2.1-4,4.6-4
			C490,186.3,492.2,187.8,492.2,190.4z M485.9,190.4c0,1,0.6,1.7,1.7,1.7c1.1,0,1.7-0.7,1.7-1.7c0-0.9-0.6-1.7-1.7-1.7
			C486.5,188.7,485.9,189.4,485.9,190.4z M487.3,185.5l-1.2-0.9l2.1-2.5l1.6,1.2L487.3,185.5z"/>
		<path id="XMLID_833_" class="st4" d="M496,187.6L496,187.6c0.6-0.9,1.4-1.2,2.4-1.2c2,0,2.8,1.3,2.8,3.1v4.7h-2.7v-3.7
			c0-0.7,0.1-2-1.2-2c-1.1,0-1.4,0.8-1.4,1.8v3.9h-2.7v-7.6h2.7V187.6z"/>
		<path id="XMLID_831_" class="st4" d="M507.2,188.3v2.2H503v-2.2H507.2z"/>
		<path id="XMLID_829_" class="st4" d="M511.5,187.5L511.5,187.5c0.7-0.8,1.4-1.2,2.4-1.2c1.1,0,2,0.4,2.6,1.4
			c0.5-0.9,1.5-1.4,2.6-1.4c1.9,0,2.6,1.3,2.6,3v4.8H519v-3.6c0-0.8,0-2.1-1.1-2.1c-1.2,0-1.3,1.2-1.3,2.1v3.6h-2.7v-3.6
			c0-0.8,0-2.1-1.2-2.1c-1.2,0-1.2,1.3-1.2,2.1v3.6h-2.7v-7.6h2.7V187.5z"/>
		<path id="XMLID_826_" class="st4" d="M531.2,190.8h-5.6c0,1.1,0.6,1.7,1.7,1.7c0.6,0,1-0.2,1.3-0.7h2.6c-0.2,0.9-0.7,1.5-1.4,2
			c-0.7,0.4-1.5,0.6-2.4,0.6c-2.5,0-4.4-1.4-4.4-4c0-2.5,1.7-4,4.2-4c2.6,0,4.1,1.6,4.1,4.2V190.8z M528.7,189.3
			c-0.1-0.7-0.8-1.2-1.5-1.2c-0.8,0-1.4,0.4-1.6,1.2H528.7z"/>
		<path id="XMLID_823_" class="st4" d="M538.1,193.3L538.1,193.3c-0.5,0.8-1.4,1.1-2.3,1.1c-2.2,0-3.8-1.9-3.8-4s1.5-4,3.8-4
			c0.9,0,1.8,0.3,2.3,1v-5.4h2.7v12.2h-2.7V193.3z M534.7,190.4c0,1,0.6,1.7,1.7,1.7c1.1,0,1.7-0.7,1.7-1.7c0-0.9-0.6-1.7-1.7-1.7
			C535.4,188.7,534.7,189.4,534.7,190.4z"/>
		<path id="XMLID_820_" class="st4" d="M545.3,183.7c0,0.8-0.7,1.5-1.5,1.5c-0.8,0-1.5-0.7-1.5-1.5c0-0.8,0.7-1.5,1.5-1.5
			C544.6,182.2,545.3,182.9,545.3,183.7z M545.1,194.1h-2.7v-7.6h2.7V194.1z"/>
		<path id="XMLID_818_" class="st4" d="M552.4,189c-0.4-0.3-0.9-0.5-1.4-0.5c-1,0-1.8,0.8-1.8,1.8c0,1.1,0.8,1.9,1.9,1.9
			c0.5,0,1-0.2,1.3-0.5v2.3c-0.6,0.3-1.2,0.4-1.9,0.4c-2.2,0-4.1-1.7-4.1-3.9c0-2.4,1.9-4.1,4.2-4.1c0.6,0,1.2,0.1,1.8,0.4V189z"/>
		<path id="XMLID_815_" class="st4" d="M556.9,183.7c0,0.8-0.7,1.5-1.5,1.5c-0.8,0-1.5-0.7-1.5-1.5c0-0.8,0.7-1.5,1.5-1.5
			C556.2,182.2,556.9,182.9,556.9,183.7z M556.7,194.1H554v-7.6h2.7V194.1z"/>
		<path id="XMLID_811_" class="st4" d="M567,190.4c0,2.6-2.1,4-4.6,4c-2.4,0-4.6-1.4-4.6-4s2.1-4,4.6-4
			C564.9,186.3,567,187.8,567,190.4z M560.7,190.4c0,1,0.6,1.7,1.7,1.7c1.1,0,1.7-0.7,1.7-1.7c0-0.9-0.6-1.7-1.7-1.7
			C561.4,188.7,560.7,189.4,560.7,190.4z M562.2,185.5l-1.2-0.9l2.1-2.5l1.6,1.2L562.2,185.5z"/>
		<path id="XMLID_809_" class="st4" d="M570.9,187.6L570.9,187.6c0.6-0.9,1.4-1.2,2.4-1.2c2,0,2.8,1.3,2.8,3.1v4.7h-2.7v-3.7
			c0-0.7,0.1-2-1.2-2c-1.1,0-1.4,0.8-1.4,1.8v3.9h-2.7v-7.6h2.7V187.6z"/>
	</g>
</g>
<rect id="XMLID_656_" x="388.2" y="260.1" class="st3" width="222.7" height="100.8"/>
<g id="XMLID_8021_">
	<g>
		<path id="XMLID_1099_" class="st4" d="M421.9,308.6l-0.8,1.9h-3.1l4.3-11.1h3.2l4.2,11.1h-3.1l-0.7-1.9H421.9z M423.9,302.8
			L423.9,302.8l-1.2,3.5h2.4L423.9,302.8z"/>
		<path id="XMLID_1096_" class="st4" d="M439.8,310.5h-3.6l-2.7-4.3h0v4.3h-2.9v-11.1h4.3c2.2,0,3.9,1,3.9,3.4
			c0,1.5-0.9,2.9-2.4,3.1L439.8,310.5z M433.5,304.4h0.3c0.9,0,2-0.2,2-1.4c0-1.2-1.1-1.4-2-1.4h-0.3V304.4z"/>
		<path id="XMLID_1094_" class="st4" d="M443.5,301.8v1.9h3.3v2.4h-3.3v1.9h3.4v2.4h-6.3v-11.1h6.3v2.4H443.5z"/>
		<path id="XMLID_1091_" class="st4" d="M451.5,308.6l-0.8,1.9h-3.1l4.3-11.1h3.2l4.2,11.1h-3.1l-0.7-1.9H451.5z M453.5,302.8
			L453.5,302.8l-1.2,3.5h2.4L453.5,302.8z"/>
		<path id="XMLID_1089_" class="st4" d="M469.7,310.5h-2.9v-8.7h-2.4v-2.4h7.7v2.4h-2.4V310.5z"/>
		<path id="XMLID_1087_" class="st4" d="M476,301.8v1.9h3.3v2.4H476v1.9h3.4v2.4h-6.3v-11.1h6.3v2.4H476z"/>
		<path id="XMLID_1085_" class="st4" d="M489.1,303.1c-0.6-0.8-1.5-1.2-2.5-1.2c-1.8,0-3,1.4-3,3.1c0,1.8,1.2,3,3,3
			c0.9,0,1.9-0.5,2.5-1.2v3.5c-1,0.3-1.6,0.5-2.5,0.5c-1.5,0-3-0.6-4.2-1.6c-1.2-1.1-1.8-2.5-1.8-4.2c0-1.5,0.6-3,1.6-4.1
			c1.1-1.1,2.7-1.8,4.2-1.8c0.9,0,1.8,0.2,2.6,0.6V303.1z"/>
		<path id="XMLID_1083_" class="st4" d="M490.9,299.4h2.9l5.3,6.8h0v-6.8h2.9v11.1h-2.9l-5.3-6.8h0v6.8h-2.9V299.4z"/>
		<path id="XMLID_1081_" class="st4" d="M506.8,310.5h-2.9v-11.1h2.9V310.5z"/>
		<path id="XMLID_1053_" class="st4" d="M516.6,303.1c-0.6-0.8-1.5-1.2-2.5-1.2c-1.8,0-3,1.4-3,3.1c0,1.8,1.2,3,3,3
			c0.9,0,1.9-0.5,2.5-1.2v3.5c-1,0.3-1.6,0.5-2.5,0.5c-1.5,0-3-0.6-4.2-1.6c-1.2-1.1-1.8-2.5-1.8-4.2c0-1.5,0.6-3,1.6-4.1
			c1.1-1.1,2.7-1.8,4.2-1.8c0.9,0,1.8,0.2,2.6,0.6V303.1z"/>
		<path id="XMLID_1050_" class="st4" d="M530.1,304.8c0,3.6-2.6,6.1-6.1,6.1c-3.6,0-6.1-2.5-6.1-6.1c0-3.4,2.9-5.7,6.1-5.7
			C527.1,299,530.1,301.4,530.1,304.8z M520.8,304.8c0,1.9,1.4,3.3,3.1,3.3c1.7,0,3.1-1.4,3.1-3.3c0-1.5-1.4-2.9-3.1-2.9
			C522.2,301.8,520.8,303.2,520.8,304.8z"/>
		<path id="XMLID_1048_" class="st4" d="M537.5,302.3c-0.5-0.4-1.2-0.7-1.9-0.7c-0.5,0-1.2,0.3-1.2,0.9c0,0.6,0.8,0.9,1.3,1.1
			l0.7,0.2c1.5,0.5,2.7,1.2,2.7,3c0,1.1-0.3,2.2-1.1,3c-0.9,0.7-2,1-3.2,1c-1.4,0-2.8-0.5-3.9-1.3l1.2-2.3c0.7,0.6,1.6,1.1,2.6,1.1
			c0.7,0,1.4-0.3,1.4-1.1c0-0.8-1.1-1.1-1.8-1.3c-1.8-0.5-3-1-3-3.1c0-2.3,1.6-3.7,3.8-3.7c1.1,0,2.5,0.4,3.5,0.9L537.5,302.3z"/>
		<path id="XMLID_1046_" class="st4" d="M547.7,298.3l-5.6,13.6H540l5.6-13.6H547.7z"/>
		<path id="XMLID_1043_" class="st4" d="M551.9,308.6l-0.8,1.9H548l4.3-11.1h3.2l4.2,11.1h-3.1l-0.7-1.9H551.9z M553.9,302.8
			L553.9,302.8l-1.2,3.5h2.4L553.9,302.8z"/>
		<path id="XMLID_1040_" class="st4" d="M569.8,310.5h-3.6l-2.7-4.3h0v4.3h-2.9v-11.1h4.3c2.2,0,3.9,1,3.9,3.4
			c0,1.5-0.9,2.9-2.4,3.1L569.8,310.5z M563.4,304.4h0.3c0.9,0,2-0.2,2-1.4c0-1.2-1.1-1.4-2-1.4h-0.3V304.4z"/>
		<path id="XMLID_1037_" class="st4" d="M580.1,311.2l-0.9-1c-0.9,0.5-1.9,0.7-3,0.7c-3.6,0-6.1-2.5-6.1-6.1c0-3.4,2.9-5.7,6.1-5.7
			c3.5,0,6.1,2.3,6.1,5.9c0,1.5-0.5,2.8-1.4,3.9l1.9,1.9L580.1,311.2z M578.7,306.6c0.3-0.5,0.5-1.1,0.5-1.6c0-1.7-1.4-3.2-3.1-3.2
			c-1.7,0-3.2,1.4-3.2,2.9c0,1.9,1.4,3.3,3.2,3.3c0.3,0,0.6,0,0.9-0.1l-1.8-1.8l2.7-0.3L578.7,306.6z"/>
		<path id="XMLID_1035_" class="st4" d="M432,323.8l2.7-6.7h3.1l-4.7,11.1h-2.2l-4.7-11.1h3.1L432,323.8z"/>
		<path id="XMLID_1032_" class="st4" d="M445.6,328.2h-2.7v-0.8h0c-0.5,0.8-1.4,1.1-2.3,1.1c-2.2,0-3.8-1.9-3.8-4c0-2.2,1.5-4,3.8-4
			c0.9,0,1.8,0.3,2.3,1v-0.7h2.7V328.2z M439.6,324.4c0,1,0.6,1.7,1.7,1.7s1.7-0.7,1.7-1.7c0-0.9-0.6-1.7-1.7-1.7
			S439.6,323.5,439.6,324.4z"/>
		<path id="XMLID_1030_" class="st4" d="M450.1,328.2h-2.7V316h2.7V328.2z"/>
		<path id="XMLID_1027_" class="st4" d="M460.4,324.4c0,2.6-2.1,4-4.6,4c-2.4,0-4.6-1.4-4.6-4c0-2.6,2.1-4,4.6-4
			C458.3,320.4,460.4,321.8,460.4,324.4z M454.1,324.4c0,1,0.6,1.7,1.7,1.7c1.1,0,1.7-0.7,1.7-1.7c0-0.9-0.6-1.7-1.7-1.7
			C454.7,322.7,454.1,323.5,454.1,324.4z"/>
		<path id="XMLID_1025_" class="st4" d="M464.3,321.9L464.3,321.9c0.5-0.9,1.4-1.3,2.5-1.3h0.5v2.6c-0.4-0.2-0.7-0.3-1.1-0.3
			c-1.5,0-1.9,1-1.9,2.3v3h-2.7v-7.6h2.7V321.9z"/>
		<path id="XMLID_1022_" class="st4" d="M476.5,328.2h-2.7v-0.8h0c-0.5,0.8-1.4,1.1-2.3,1.1c-2.2,0-3.8-1.9-3.8-4c0-2.2,1.5-4,3.8-4
			c0.9,0,1.8,0.3,2.3,1v-0.7h2.7V328.2z M470.5,324.4c0,1,0.6,1.7,1.7,1.7c1.1,0,1.7-0.7,1.7-1.7c0-0.9-0.6-1.7-1.7-1.7
			C471.1,322.7,470.5,323.5,470.5,324.4z"/>
		<path id="XMLID_1020_" class="st4" d="M483.8,323.1c-0.4-0.3-0.9-0.5-1.4-0.5c-1,0-1.8,0.8-1.8,1.8c0,1.1,0.8,1.9,1.9,1.9
			c0.5,0,1-0.2,1.3-0.5v2.3c-0.6,0.3-1.2,0.4-1.9,0.4c-2.2,0-4.1-1.7-4.1-3.9c0-2.4,1.9-4.1,4.2-4.1c0.6,0,1.2,0.1,1.8,0.4V323.1z"
			/>
		<path id="XMLID_1017_" class="st4" d="M488.3,317.7c0,0.8-0.7,1.5-1.5,1.5c-0.8,0-1.5-0.7-1.5-1.5c0-0.8,0.7-1.5,1.5-1.5
			C487.6,316.2,488.3,316.9,488.3,317.7z M488.1,328.2h-2.7v-7.6h2.7V328.2z"/>
		<path id="XMLID_1013_" class="st4" d="M498.4,324.4c0,2.6-2.1,4-4.6,4c-2.4,0-4.6-1.4-4.6-4c0-2.6,2.1-4,4.6-4
			C496.3,320.4,498.4,321.8,498.4,324.4z M492.1,324.4c0,1,0.6,1.7,1.7,1.7c1.1,0,1.7-0.7,1.7-1.7c0-0.9-0.6-1.7-1.7-1.7
			C492.8,322.7,492.1,323.5,492.1,324.4z M493.6,319.5l-1.2-0.9l2.1-2.5l1.6,1.2L493.6,319.5z"/>
		<path id="XMLID_1011_" class="st4" d="M502.3,321.6L502.3,321.6c0.6-0.9,1.4-1.2,2.4-1.2c2,0,2.8,1.3,2.8,3.1v4.7h-2.7v-3.7
			c0-0.7,0.1-2-1.2-2c-1.1,0-1.4,0.8-1.4,1.8v3.9h-2.7v-7.6h2.7V321.6z"/>
		<path id="XMLID_1009_" class="st4" d="M513.5,322.3v2.2h-4.2v-2.2H513.5z"/>
		<path id="XMLID_1007_" class="st4" d="M518.1,328.2h-2.9v-11.1h2.9V328.2z"/>
		<path id="XMLID_1005_" class="st4" d="M522.6,321.6L522.6,321.6c0.6-0.9,1.4-1.2,2.4-1.2c2,0,2.8,1.3,2.8,3.1v4.7h-2.7v-3.7
			c0-0.7,0.1-2-1.2-2c-1.1,0-1.4,0.8-1.4,1.8v3.9h-2.7v-7.6h2.7V321.6z"/>
		<path id="XMLID_1003_" class="st4" d="M532.6,328.2h-2.7v-5.3H529v-2.2h0.9v-1c0-1,0-1.8,0.8-2.7c0.7-0.8,1.6-1.2,2.6-1.2
			c0.4,0,0.8,0.1,1.1,0.3v2.3c-0.3-0.1-0.6-0.3-0.9-0.3c-0.7,0-0.9,0.4-0.9,1.3v1.2h1.9v2.2h-1.9V328.2z"/>
		<path id="XMLID_1000_" class="st4" d="M543.9,324.4c0,2.6-2.1,4-4.6,4c-2.4,0-4.6-1.4-4.6-4c0-2.6,2.1-4,4.6-4
			C541.8,320.4,543.9,321.8,543.9,324.4z M537.6,324.4c0,1,0.6,1.7,1.7,1.7s1.7-0.7,1.7-1.7c0-0.9-0.6-1.7-1.7-1.7
			S537.6,323.5,537.6,324.4z"/>
		<path id="XMLID_998_" class="st4" d="M547.8,321.9L547.8,321.9c0.5-0.9,1.4-1.3,2.5-1.3h0.5v2.6c-0.4-0.2-0.7-0.3-1.1-0.3
			c-1.5,0-1.9,1-1.9,2.3v3h-2.7v-7.6h2.7V321.9z"/>
		<path id="XMLID_996_" class="st4" d="M554.4,321.6L554.4,321.6c0.7-0.8,1.4-1.2,2.4-1.2c1.1,0,2,0.4,2.6,1.4
			c0.5-0.9,1.5-1.4,2.6-1.4c1.9,0,2.6,1.3,2.6,3v4.8h-2.7v-3.6c0-0.8,0-2.1-1.1-2.1c-1.2,0-1.3,1.2-1.3,2.1v3.6h-2.7v-3.6
			c0-0.8,0-2.1-1.2-2.1c-1.2,0-1.2,1.3-1.2,2.1v3.6h-2.7v-7.6h2.7V321.6z"/>
		<path id="XMLID_993_" class="st4" d="M574.1,324.9h-5.6c0,1.1,0.6,1.7,1.7,1.7c0.6,0,1-0.2,1.3-0.7h2.6c-0.2,0.9-0.7,1.5-1.4,2
			c-0.7,0.4-1.5,0.6-2.4,0.6c-2.5,0-4.4-1.4-4.4-4c0-2.5,1.7-4,4.2-4c2.6,0,4.1,1.6,4.1,4.2V324.9z M571.6,323.3
			c-0.1-0.7-0.8-1.2-1.5-1.2c-0.8,0-1.4,0.4-1.6,1.2H571.6z"/>
	</g>
</g>
<rect id="XMLID_654_" x="388.2" y="390.9" class="st3" width="222.7" height="100.8"/>
<g id="XMLID_7997_">
	<g>
		<path id="XMLID_196_" class="st4" d="M488.9,430.5c-0.6-0.8-1.5-1.2-2.5-1.2c-1.8,0-3,1.4-3,3.1c0,1.8,1.2,3,3,3
			c0.9,0,1.9-0.5,2.5-1.2v3.5c-1,0.3-1.6,0.5-2.5,0.5c-1.5,0-3-0.6-4.2-1.6c-1.2-1.1-1.8-2.5-1.8-4.2c0-1.5,0.6-3,1.6-4.1
			c1.1-1.1,2.7-1.8,4.2-1.8c0.9,0,1.8,0.2,2.6,0.6V430.5z"/>
		<path id="XMLID_193_" class="st4" d="M493.5,435.9l-0.8,1.9h-3.1l4.3-11.1h3.2l4.2,11.1h-3.1l-0.7-1.9H493.5z M495.6,430.2
			L495.6,430.2l-1.2,3.5h2.4L495.6,430.2z"/>
		<path id="XMLID_191_" class="st4" d="M507.6,426.8v7.5c0,2.3-1.2,3.9-3.7,3.9c-1.2,0-2.2-0.6-2.9-1.6l1.7-1.8
			c0.3,0.4,0.8,0.9,1.2,0.9c0.9,0,0.8-1,0.8-1.6v-7.3H507.6z"/>
		<path id="XMLID_188_" class="st4" d="M512.2,435.9l-0.8,1.9h-3.1l4.3-11.1h3.2l4.2,11.1h-3.1l-0.7-1.9H512.2z M514.3,430.2
			L514.3,430.2l-1.2,3.5h2.4L514.3,430.2z"/>
		<path id="XMLID_186_" class="st4" d="M486.1,448.2c-0.6-0.8-1.5-1.2-2.5-1.2c-1.8,0-3,1.4-3,3.1c0,1.8,1.2,3,3,3
			c0.9,0,1.9-0.5,2.5-1.2v3.5c-1,0.3-1.6,0.5-2.5,0.5c-1.5,0-3-0.6-4.2-1.6c-1.2-1.1-1.8-2.5-1.8-4.2c0-1.5,0.6-3,1.6-4.1
			c1.1-1.1,2.7-1.8,4.2-1.8c0.9,0,1.8,0.2,2.6,0.6V448.2z"/>
		<path id="XMLID_183_" class="st4" d="M496.3,451.8c0,2.6-2.1,4-4.6,4c-2.4,0-4.6-1.4-4.6-4c0-2.6,2.1-4,4.6-4
			C494.2,447.7,496.3,449.2,496.3,451.8z M490.1,451.8c0,1,0.6,1.7,1.7,1.7c1.1,0,1.7-0.7,1.7-1.7c0-0.9-0.6-1.7-1.7-1.7
			C490.7,450.1,490.1,450.8,490.1,451.8z"/>
		<path id="XMLID_180_" class="st4" d="M497.4,443.3h2.7v5.4c0.6-0.7,1.5-1,2.3-1c2.2,0,3.8,1.9,3.8,4c0,2.2-1.6,4-3.8,4
			c-0.9,0-1.8-0.3-2.3-1.1h0v0.8h-2.7V443.3z M500,451.8c0,1,0.6,1.7,1.7,1.7c1.1,0,1.7-0.7,1.7-1.7c0-0.9-0.6-1.7-1.7-1.7
			C500.7,450.1,500,450.8,500,451.8z"/>
		<path id="XMLID_178_" class="st4" d="M510.3,449.2L510.3,449.2c0.5-0.9,1.4-1.3,2.5-1.3h0.5v2.6c-0.4-0.2-0.7-0.3-1.1-0.3
			c-1.5,0-1.9,1-1.9,2.3v3h-2.7V448h2.7V449.2z"/>
		<path id="XMLID_175_" class="st4" d="M522.5,451.8c0,2.6-2.1,4-4.6,4c-2.4,0-4.6-1.4-4.6-4c0-2.6,2.1-4,4.6-4
			C520.4,447.7,522.5,449.2,522.5,451.8z M516.3,451.8c0,1,0.6,1.7,1.7,1.7c1.1,0,1.7-0.7,1.7-1.7c0-0.9-0.6-1.7-1.7-1.7
			C516.9,450.1,516.3,450.8,516.3,451.8z"/>
	</g>
</g>
<rect id="XMLID_89_" x="663.9" y="390.9" class="st5" width="222.7" height="100.8"/>
<g id="XMLID_7913_">
	<g>
		<path id="XMLID_1182_" class="st4" d="M697.1,435.9l-0.8,1.9h-3.1l4.3-11.1h3.2l4.2,11.1h-3.1l-0.7-1.9H697.1z M699.2,430.2
			L699.2,430.2l-1.2,3.5h2.4L699.2,430.2z"/>
		<path id="XMLID_1179_" class="st4" d="M715,437.9h-3.6l-2.7-4.3h0v4.3h-2.9v-11.1h4.3c2.2,0,3.9,1,3.9,3.4c0,1.5-0.9,2.9-2.4,3.1
			L715,437.9z M708.7,431.7h0.3c0.9,0,2-0.2,2-1.4c0-1.2-1.1-1.4-2-1.4h-0.3V431.7z"/>
		<path id="XMLID_1177_" class="st4" d="M718.7,429.2v1.9h3.3v2.4h-3.3v1.9h3.4v2.4h-6.3v-11.1h6.3v2.4H718.7z"/>
		<path id="XMLID_1174_" class="st4" d="M726.8,435.9l-0.8,1.9h-3.1l4.3-11.1h3.2l4.2,11.1h-3.1l-0.7-1.9H726.8z M728.8,430.2
			L728.8,430.2l-1.2,3.5h2.4L728.8,430.2z"/>
		<path id="XMLID_1172_" class="st4" d="M744.9,437.9H742v-8.7h-2.4v-2.4h7.7v2.4h-2.4V437.9z"/>
		<path id="XMLID_1170_" class="st4" d="M751.2,429.2v1.9h3.3v2.4h-3.3v1.9h3.4v2.4h-6.3v-11.1h6.3v2.4H751.2z"/>
		<path id="XMLID_1168_" class="st4" d="M764.4,430.5c-0.6-0.8-1.5-1.2-2.5-1.2c-1.8,0-3,1.4-3,3.1c0,1.8,1.2,3,3,3
			c0.9,0,1.9-0.5,2.5-1.2v3.5c-1,0.3-1.6,0.5-2.5,0.5c-1.5,0-3-0.6-4.2-1.6c-1.2-1.1-1.8-2.5-1.8-4.2c0-1.5,0.6-3,1.6-4.1
			c1.1-1.1,2.7-1.8,4.2-1.8c0.9,0,1.8,0.2,2.6,0.6V430.5z"/>
		<path id="XMLID_1166_" class="st4" d="M766.1,426.8h2.9l5.3,6.8h0v-6.8h2.9v11.1h-2.9l-5.3-6.8h0v6.8h-2.9V426.8z"/>
		<path id="XMLID_1164_" class="st4" d="M782,437.9h-2.9v-11.1h2.9V437.9z"/>
		<path id="XMLID_1162_" class="st4" d="M791.8,430.5c-0.6-0.8-1.5-1.2-2.5-1.2c-1.8,0-3,1.4-3,3.1c0,1.8,1.2,3,3,3
			c0.9,0,1.9-0.5,2.5-1.2v3.5c-1,0.3-1.6,0.5-2.5,0.5c-1.5,0-3-0.6-4.2-1.6c-1.2-1.1-1.8-2.5-1.8-4.2c0-1.5,0.6-3,1.6-4.1
			c1.1-1.1,2.7-1.8,4.2-1.8c0.9,0,1.8,0.2,2.6,0.6V430.5z"/>
		<path id="XMLID_1159_" class="st4" d="M805.3,432.1c0,3.6-2.6,6.1-6.1,6.1c-3.6,0-6.1-2.5-6.1-6.1c0-3.4,2.9-5.7,6.1-5.7
			C802.4,426.4,805.3,428.8,805.3,432.1z M796.1,432.1c0,1.9,1.4,3.3,3.1,3.3c1.7,0,3.1-1.4,3.1-3.3c0-1.5-1.4-2.9-3.1-2.9
			C797.5,429.2,796.1,430.6,796.1,432.1z"/>
		<path id="XMLID_1157_" class="st4" d="M812.8,429.6c-0.5-0.4-1.2-0.7-1.9-0.7c-0.5,0-1.2,0.3-1.2,0.9c0,0.6,0.8,0.9,1.3,1.1
			l0.7,0.2c1.5,0.5,2.7,1.2,2.7,3c0,1.1-0.3,2.2-1.1,3c-0.9,0.7-2,1-3.2,1c-1.4,0-2.8-0.5-3.9-1.3l1.2-2.3c0.7,0.6,1.6,1.1,2.6,1.1
			c0.7,0,1.4-0.3,1.4-1.1c0-0.8-1.1-1.1-1.8-1.3c-1.8-0.5-3-1-3-3.1c0-2.3,1.6-3.7,3.8-3.7c1.1,0,2.5,0.4,3.5,0.9L812.8,429.6z"/>
		<path id="XMLID_1155_" class="st4" d="M822.9,425.6l-5.6,13.6h-2.1l5.6-13.6H822.9z"/>
		<path id="XMLID_1152_" class="st4" d="M827.1,435.9l-0.8,1.9h-3.1l4.3-11.1h3.2l4.2,11.1h-3.1l-0.7-1.9H827.1z M829.1,430.2
			L829.1,430.2l-1.2,3.5h2.4L829.1,430.2z"/>
		<path id="XMLID_1149_" class="st4" d="M845,437.9h-3.6l-2.7-4.3h0v4.3h-2.9v-11.1h4.3c2.2,0,3.9,1,3.9,3.4c0,1.5-0.9,2.9-2.4,3.1
			L845,437.9z M838.7,431.7h0.3c0.9,0,2-0.2,2-1.4c0-1.2-1.1-1.4-2-1.4h-0.3V431.7z"/>
		<path id="XMLID_1146_" class="st4" d="M855.3,438.6l-0.9-1c-0.9,0.5-1.9,0.7-3,0.7c-3.6,0-6.1-2.5-6.1-6.1c0-3.4,2.9-5.7,6.1-5.7
			c3.5,0,6.1,2.3,6.1,5.9c0,1.5-0.5,2.8-1.4,3.9l1.9,1.9L855.3,438.6z M854,434c0.3-0.5,0.5-1.1,0.5-1.6c0-1.7-1.4-3.2-3.1-3.2
			c-1.7,0-3.2,1.4-3.2,2.9c0,1.9,1.4,3.3,3.2,3.3c0.3,0,0.6,0,0.9-0.1l-1.8-1.8l2.7-0.3L854,434z"/>
		<path id="XMLID_1144_" class="st4" d="M707.2,451.2l2.7-6.7h3.1l-4.7,11.1H706l-4.7-11.1h3.1L707.2,451.2z"/>
		<path id="XMLID_1141_" class="st4" d="M720.9,455.5h-2.7v-0.8h0c-0.5,0.8-1.4,1.1-2.3,1.1c-2.2,0-3.8-1.9-3.8-4c0-2.2,1.5-4,3.8-4
			c0.9,0,1.8,0.3,2.3,1V448h2.7V455.5z M714.8,451.8c0,1,0.6,1.7,1.7,1.7c1.1,0,1.7-0.7,1.7-1.7c0-0.9-0.6-1.7-1.7-1.7
			C715.5,450.1,714.8,450.8,714.8,451.8z"/>
		<path id="XMLID_1139_" class="st4" d="M725.3,455.5h-2.7v-12.2h2.7V455.5z"/>
		<path id="XMLID_1136_" class="st4" d="M735.6,451.8c0,2.6-2.1,4-4.6,4c-2.4,0-4.6-1.4-4.6-4c0-2.6,2.1-4,4.6-4
			C733.5,447.7,735.6,449.2,735.6,451.8z M729.4,451.8c0,1,0.6,1.7,1.7,1.7c1.1,0,1.7-0.7,1.7-1.7c0-0.9-0.6-1.7-1.7-1.7
			C730,450.1,729.4,450.8,729.4,451.8z"/>
		<path id="XMLID_1134_" class="st4" d="M739.5,449.2L739.5,449.2c0.5-0.9,1.4-1.3,2.5-1.3h0.5v2.6c-0.4-0.2-0.7-0.3-1.1-0.3
			c-1.5,0-1.9,1-1.9,2.3v3h-2.7V448h2.7V449.2z"/>
		<path id="XMLID_1131_" class="st4" d="M751.8,455.5h-2.7v-0.8h0c-0.5,0.8-1.4,1.1-2.3,1.1c-2.2,0-3.8-1.9-3.8-4c0-2.2,1.5-4,3.8-4
			c0.9,0,1.8,0.3,2.3,1V448h2.7V455.5z M745.7,451.8c0,1,0.6,1.7,1.7,1.7c1.1,0,1.7-0.7,1.7-1.7c0-0.9-0.6-1.7-1.7-1.7
			C746.4,450.1,745.7,450.8,745.7,451.8z"/>
		<path id="XMLID_1129_" class="st4" d="M759,450.4c-0.4-0.3-0.9-0.5-1.4-0.5c-1,0-1.8,0.8-1.8,1.8c0,1.1,0.8,1.9,1.9,1.9
			c0.5,0,1-0.2,1.3-0.5v2.3c-0.6,0.3-1.2,0.4-1.9,0.4c-2.2,0-4.1-1.7-4.1-3.9c0-2.4,1.9-4.1,4.2-4.1c0.6,0,1.2,0.1,1.8,0.4V450.4z"
			/>
		<path id="XMLID_1126_" class="st4" d="M763.5,445.1c0,0.8-0.7,1.5-1.5,1.5s-1.5-0.7-1.5-1.5c0-0.8,0.7-1.5,1.5-1.5
			S763.5,444.3,763.5,445.1z M763.3,455.5h-2.7V448h2.7V455.5z"/>
		<path id="XMLID_1122_" class="st4" d="M773.7,451.8c0,2.6-2.1,4-4.6,4c-2.4,0-4.6-1.4-4.6-4c0-2.6,2.1-4,4.6-4
			C771.5,447.7,773.7,449.2,773.7,451.8z M767.4,451.8c0,1,0.6,1.7,1.7,1.7c1.1,0,1.7-0.7,1.7-1.7c0-0.9-0.6-1.7-1.7-1.7
			C768,450.1,767.4,450.8,767.4,451.8z M768.8,446.9l-1.2-0.9l2.1-2.5l1.6,1.2L768.8,446.9z"/>
		<path id="XMLID_1120_" class="st4" d="M777.5,449L777.5,449c0.6-0.9,1.4-1.2,2.4-1.2c2,0,2.8,1.3,2.8,3.1v4.7h-2.7v-3.7
			c0-0.7,0.1-2-1.2-2c-1.1,0-1.4,0.8-1.4,1.8v3.9h-2.7V448h2.7V449z"/>
		<path id="XMLID_1118_" class="st4" d="M788.7,449.7v2.2h-4.2v-2.2H788.7z"/>
		<path id="XMLID_1116_" class="st4" d="M793.3,455.5h-2.9v-11.1h2.9V455.5z"/>
		<path id="XMLID_1114_" class="st4" d="M797.8,449L797.8,449c0.6-0.9,1.4-1.2,2.4-1.2c2,0,2.8,1.3,2.8,3.1v4.7h-2.7v-3.7
			c0-0.7,0.1-2-1.2-2c-1.1,0-1.4,0.8-1.4,1.8v3.9h-2.7V448h2.7V449z"/>
		<path id="XMLID_1112_" class="st4" d="M807.8,455.5h-2.7v-5.3h-0.9V448h0.9v-1c0-1,0-1.8,0.8-2.7c0.7-0.8,1.6-1.2,2.6-1.2
			c0.4,0,0.8,0.1,1.1,0.3v2.3c-0.3-0.1-0.6-0.3-0.9-0.3c-0.7,0-0.9,0.4-0.9,1.3v1.2h1.9v2.2h-1.9V455.5z"/>
		<path id="XMLID_1109_" class="st4" d="M819.1,451.8c0,2.6-2.1,4-4.6,4c-2.4,0-4.6-1.4-4.6-4c0-2.6,2.1-4,4.6-4
			C817,447.7,819.1,449.2,819.1,451.8z M812.9,451.8c0,1,0.6,1.7,1.7,1.7c1.1,0,1.7-0.7,1.7-1.7c0-0.9-0.6-1.7-1.7-1.7
			C813.5,450.1,812.9,450.8,812.9,451.8z"/>
		<path id="XMLID_1107_" class="st4" d="M823,449.2L823,449.2c0.5-0.9,1.4-1.3,2.5-1.3h0.5v2.6c-0.4-0.2-0.7-0.3-1.1-0.3
			c-1.5,0-1.9,1-1.9,2.3v3h-2.7V448h2.7V449.2z"/>
		<path id="XMLID_1105_" class="st4" d="M829.7,448.9L829.7,448.9c0.7-0.8,1.4-1.2,2.4-1.2c1.1,0,2,0.4,2.6,1.4
			c0.5-0.9,1.5-1.4,2.6-1.4c1.9,0,2.6,1.3,2.6,3v4.8h-2.7v-3.6c0-0.8,0-2.1-1.1-2.1c-1.2,0-1.3,1.2-1.3,2.1v3.6h-2.7v-3.6
			c0-0.8,0-2.1-1.2-2.1c-1.2,0-1.2,1.3-1.2,2.1v3.6H827V448h2.7V448.9z"/>
		<path id="XMLID_1102_" class="st4" d="M849.3,452.2h-5.6c0,1.1,0.6,1.7,1.7,1.7c0.6,0,1-0.2,1.3-0.7h2.6c-0.2,0.9-0.7,1.5-1.4,2
			c-0.7,0.4-1.5,0.6-2.4,0.6c-2.5,0-4.4-1.4-4.4-4c0-2.5,1.7-4,4.2-4c2.6,0,4.1,1.6,4.1,4.2V452.2z M846.8,450.7
			c-0.1-0.7-0.8-1.2-1.5-1.2c-0.8,0-1.4,0.4-1.6,1.2H846.8z"/>
	</g>
</g>
<rect id="XMLID_652_" x="388.2" y="521.6" class="st3" width="222.7" height="100.8"/>
<g id="XMLID_7834_">
	<g>
		<path id="XMLID_1078_" class="st4" d="M447.6,558l-0.8,1.9h-3.1l4.3-11.1h3.2l4.2,11.1h-3.1l-0.7-1.9H447.6z M449.6,552.3
			L449.6,552.3l-1.2,3.5h2.4L449.6,552.3z"/>
		<path id="XMLID_1076_" class="st4" d="M462.3,551.7c-0.5-0.4-1.2-0.7-1.9-0.7c-0.5,0-1.2,0.3-1.2,0.9c0,0.6,0.8,0.9,1.3,1.1
			l0.7,0.2c1.5,0.5,2.7,1.2,2.7,3c0,1.1-0.3,2.2-1.1,3c-0.9,0.7-2,1-3.2,1c-1.4,0-2.8-0.5-3.9-1.3l1.2-2.3c0.7,0.6,1.6,1.1,2.6,1.1
			c0.7,0,1.4-0.3,1.4-1.1c0-0.8-1.1-1.1-1.8-1.3c-1.8-0.5-3-1-3-3.1c0-2.3,1.6-3.7,3.8-3.7c1.1,0,2.5,0.4,3.5,0.9L462.3,551.7z"/>
		<path id="XMLID_1074_" class="st4" d="M468.2,551.3v1.9h3.3v2.4h-3.3v1.9h3.4v2.4h-6.3v-11.1h6.3v2.4H468.2z"/>
		<path id="XMLID_1072_" class="st4" d="M479.5,551.7c-0.5-0.4-1.2-0.7-1.9-0.7c-0.5,0-1.2,0.3-1.2,0.9c0,0.6,0.8,0.9,1.3,1.1
			l0.7,0.2c1.5,0.5,2.7,1.2,2.7,3c0,1.1-0.3,2.2-1.1,3c-0.9,0.7-2,1-3.2,1c-1.4,0-2.8-0.5-3.9-1.3l1.2-2.3c0.7,0.6,1.6,1.1,2.6,1.1
			c0.7,0,1.4-0.3,1.4-1.1c0-0.8-1.1-1.1-1.8-1.3c-1.8-0.5-3-1-3-3.1c0-2.3,1.6-3.7,3.8-3.7c1.1,0,2.5,0.4,3.5,0.9L479.5,551.7z"/>
		<path id="XMLID_1069_" class="st4" d="M494.2,554.2c0,3.6-2.6,6.1-6.1,6.1s-6.1-2.5-6.1-6.1c0-3.4,2.9-5.7,6.1-5.7
			C491.3,548.5,494.2,550.9,494.2,554.2z M484.9,554.2c0,1.9,1.4,3.3,3.1,3.3c1.7,0,3.1-1.4,3.1-3.3c0-1.5-1.4-2.9-3.1-2.9
			C486.3,551.3,484.9,552.7,484.9,554.2z"/>
		<path id="XMLID_1066_" class="st4" d="M504.8,560h-3.6l-2.7-4.3h0v4.3h-2.9v-11.1h4.3c2.2,0,3.9,1,3.9,3.4c0,1.5-0.9,2.9-2.4,3.1
			L504.8,560z M498.4,553.9h0.3c0.9,0,2-0.2,2-1.4c0-1.2-1.1-1.4-2-1.4h-0.3V553.9z"/>
		<path id="XMLID_1064_" class="st4" d="M513.5,557.5h3.5v2.4h-6.3v-11.1h2.9V557.5z"/>
		<path id="XMLID_1062_" class="st4" d="M520.8,551.3v1.9h3.3v2.4h-3.3v1.9h3.4v2.4h-6.3v-11.1h6.3v2.4H520.8z"/>
		<path id="XMLID_1060_" class="st4" d="M537.1,553.8c0,1.6-0.1,3-1.1,4.4c-1.1,1.5-2.7,2.2-4.6,2.2c-3.5,0-5.9-2.4-5.9-5.9
			c0-3.6,2.4-6,6-6c2.3,0,4.1,1,5,3.1l-2.7,1.1c-0.4-1.1-1.2-1.8-2.4-1.8c-1.9,0-2.9,1.8-2.9,3.5c0,1.7,1,3.5,2.9,3.5
			c1.3,0,2.2-0.6,2.3-1.9h-2.4v-2.3H537.1z"/>
		<path id="XMLID_1057_" class="st4" d="M541.2,558l-0.8,1.9h-3.1l4.3-11.1h3.2L549,560h-3.1l-0.7-1.9H541.2z M543.2,552.3
			L543.2,552.3l-1.2,3.5h2.4L543.2,552.3z"/>
		<path id="XMLID_1055_" class="st4" d="M552.8,557.5h3.5v2.4h-6.3v-11.1h2.9V557.5z"/>
		<path id="XMLID_969_" class="st4" d="M431.6,573.3l2.7-6.7h3.1l-4.7,11.1h-2.2l-4.7-11.1h3.1L431.6,573.3z"/>
		<path id="XMLID_966_" class="st4" d="M445.2,577.7h-2.7v-0.8h0c-0.5,0.8-1.4,1.1-2.3,1.1c-2.2,0-3.8-1.9-3.8-4s1.5-4,3.8-4
			c0.9,0,1.8,0.3,2.3,1v-0.7h2.7V577.7z M439.2,573.9c0,1,0.6,1.7,1.7,1.7c1.1,0,1.7-0.7,1.7-1.7c0-0.9-0.6-1.7-1.7-1.7
			C439.8,572.2,439.2,573,439.2,573.9z"/>
		<path id="XMLID_964_" class="st4" d="M449.7,577.7H447v-12.2h2.7V577.7z"/>
		<path id="XMLID_961_" class="st4" d="M460,573.9c0,2.6-2.1,4-4.6,4c-2.4,0-4.6-1.4-4.6-4s2.1-4,4.6-4
			C457.9,569.8,460,571.3,460,573.9z M453.7,573.9c0,1,0.6,1.7,1.7,1.7c1.1,0,1.7-0.7,1.7-1.7c0-0.9-0.6-1.7-1.7-1.7
			C454.4,572.2,453.7,573,453.7,573.9z"/>
		<path id="XMLID_959_" class="st4" d="M463.9,571.3L463.9,571.3c0.5-0.9,1.4-1.3,2.5-1.3h0.5v2.6c-0.4-0.2-0.7-0.3-1.1-0.3
			c-1.5,0-1.9,1-1.9,2.3v3h-2.7v-7.6h2.7V571.3z"/>
		<path id="XMLID_956_" class="st4" d="M476.2,577.7h-2.7v-0.8h0c-0.5,0.8-1.4,1.1-2.3,1.1c-2.2,0-3.8-1.9-3.8-4s1.5-4,3.8-4
			c0.9,0,1.8,0.3,2.3,1v-0.7h2.7V577.7z M470.1,573.9c0,1,0.6,1.7,1.7,1.7c1.1,0,1.7-0.7,1.7-1.7c0-0.9-0.6-1.7-1.7-1.7
			C470.7,572.2,470.1,573,470.1,573.9z"/>
		<path id="XMLID_954_" class="st4" d="M483.4,572.6c-0.4-0.3-0.9-0.5-1.4-0.5c-1,0-1.8,0.8-1.8,1.8c0,1.1,0.8,1.9,1.9,1.9
			c0.5,0,1-0.2,1.3-0.5v2.3c-0.6,0.3-1.2,0.4-1.9,0.4c-2.2,0-4.1-1.7-4.1-3.9c0-2.4,1.9-4.1,4.2-4.1c0.6,0,1.2,0.1,1.8,0.4V572.6z"
			/>
		<path id="XMLID_937_" class="st4" d="M487.9,567.2c0,0.8-0.7,1.5-1.5,1.5c-0.8,0-1.5-0.7-1.5-1.5c0-0.8,0.7-1.5,1.5-1.5
			C487.2,565.7,487.9,566.4,487.9,567.2z M487.7,577.7H485v-7.6h2.7V577.7z"/>
		<path id="XMLID_933_" class="st4" d="M498,573.9c0,2.6-2.1,4-4.6,4c-2.4,0-4.6-1.4-4.6-4s2.1-4,4.6-4
			C495.9,569.8,498,571.3,498,573.9z M491.8,573.9c0,1,0.6,1.7,1.7,1.7c1.1,0,1.7-0.7,1.7-1.7c0-0.9-0.6-1.7-1.7-1.7
			C492.4,572.2,491.8,573,491.8,573.9z M493.2,569l-1.2-0.9l2.1-2.5l1.6,1.2L493.2,569z"/>
		<path id="XMLID_931_" class="st4" d="M501.9,571.1L501.9,571.1c0.6-0.9,1.4-1.2,2.4-1.2c2,0,2.8,1.3,2.8,3.1v4.7h-2.7V574
			c0-0.7,0.1-2-1.2-2c-1.1,0-1.4,0.8-1.4,1.8v3.9h-2.7v-7.6h2.7V571.1z"/>
		<path id="XMLID_929_" class="st4" d="M513.1,571.8v2.2h-4.2v-2.2H513.1z"/>
		<path id="XMLID_927_" class="st4" d="M517.7,577.7h-2.9v-11.1h2.9V577.7z"/>
		<path id="XMLID_925_" class="st4" d="M522.2,571.1L522.2,571.1c0.6-0.9,1.4-1.2,2.4-1.2c2,0,2.8,1.3,2.8,3.1v4.7h-2.7V574
			c0-0.7,0.1-2-1.2-2c-1.1,0-1.4,0.8-1.4,1.8v3.9h-2.7v-7.6h2.7V571.1z"/>
		<path id="XMLID_923_" class="st4" d="M532.2,577.7h-2.7v-5.3h-0.9v-2.2h0.9v-1c0-1,0-1.8,0.8-2.7c0.7-0.8,1.6-1.2,2.6-1.2
			c0.4,0,0.8,0.1,1.1,0.3v2.3c-0.3-0.1-0.6-0.3-0.9-0.3c-0.7,0-0.9,0.4-0.9,1.3v1.2h1.9v2.2h-1.9V577.7z"/>
		<path id="XMLID_920_" class="st4" d="M543.5,573.9c0,2.6-2.1,4-4.6,4c-2.4,0-4.6-1.4-4.6-4s2.1-4,4.6-4
			C541.4,569.8,543.5,571.3,543.5,573.9z M537.2,573.9c0,1,0.6,1.7,1.7,1.7c1.1,0,1.7-0.7,1.7-1.7c0-0.9-0.6-1.7-1.7-1.7
			C537.9,572.2,537.2,573,537.2,573.9z"/>
		<path id="XMLID_918_" class="st4" d="M547.4,571.3L547.4,571.3c0.5-0.9,1.4-1.3,2.5-1.3h0.5v2.6c-0.4-0.2-0.7-0.3-1.1-0.3
			c-1.5,0-1.9,1-1.9,2.3v3h-2.7v-7.6h2.7V571.3z"/>
		<path id="XMLID_916_" class="st4" d="M554.1,571L554.1,571c0.7-0.8,1.4-1.2,2.4-1.2c1.1,0,2,0.4,2.6,1.4c0.5-0.9,1.5-1.4,2.6-1.4
			c1.9,0,2.6,1.3,2.6,3v4.8h-2.7V574c0-0.8,0-2.1-1.1-2.1c-1.2,0-1.3,1.2-1.3,2.1v3.6h-2.7V574c0-0.8,0-2.1-1.2-2.1
			c-1.2,0-1.2,1.3-1.2,2.1v3.6h-2.7v-7.6h2.7V571z"/>
		<path id="XMLID_913_" class="st4" d="M573.7,574.3h-5.6c0,1.1,0.6,1.7,1.7,1.7c0.6,0,1-0.2,1.3-0.7h2.6c-0.2,0.9-0.7,1.5-1.4,2
			c-0.7,0.4-1.5,0.6-2.4,0.6c-2.5,0-4.4-1.4-4.4-4c0-2.5,1.7-4,4.2-4c2.6,0,4.1,1.6,4.1,4.2V574.3z M571.2,572.8
			c-0.1-0.7-0.8-1.2-1.5-1.2c-0.8,0-1.4,0.4-1.6,1.2H571.2z"/>
		<path id="XMLID_910_" class="st4" d="M492.2,595.3h-3.6l-2.7-4.3h0v4.3H483v-11.1h4.3c2.2,0,3.9,1,3.9,3.4c0,1.5-0.9,2.9-2.4,3.1
			L492.2,595.3z M485.8,589.2h0.3c0.9,0,2-0.2,2-1.4c0-1.2-1.1-1.4-2-1.4h-0.3V589.2z"/>
		<path id="XMLID_907_" class="st4" d="M495.8,593.4l-0.8,1.9H492l4.3-11.1h3.2l4.2,11.1h-3.1l-0.7-1.9H495.8z M497.8,587.7
			L497.8,587.7l-1.2,3.5h2.4L497.8,587.7z"/>
		<path id="XMLID_905_" class="st4" d="M505.7,584.2h2.8l2.3,5.9l2.4-5.9h2.9l1.7,11.1h-2.9l-0.8-6.4h0l-2.7,6.4h-1.1l-2.5-6.4h0
			l-0.9,6.4h-2.9L505.7,584.2z"/>
	</g>
</g>
<rect id="XMLID_642_" x="388.2" y="652.4" class="st3" width="222.7" height="100.8"/>
<g id="XMLID_7147_">
	<g>
		<path id="XMLID_1481_" class="st4" d="M427.4,680.8v7.5c0,2.3-1.2,3.9-3.7,3.9c-1.2,0-2.2-0.6-2.9-1.6l1.7-1.8
			c0.3,0.4,0.8,0.9,1.2,0.9c0.9,0,0.8-1,0.8-1.6v-7.3H427.4z"/>
		<path id="XMLID_1479_" class="st4" d="M432.1,683.2v1.9h3.3v2.4h-3.3v1.9h3.4v2.4h-6.3v-11.1h6.3v2.4H432.1z"/>
		<path id="XMLID_1477_" class="st4" d="M440.2,683.2v1.9h3.2v2.4h-3.2v4.4h-2.9v-11.1h6.4v2.4H440.2z"/>
		<path id="XMLID_1475_" class="st4" d="M448.1,683.2v1.9h3.3v2.4h-3.3v1.9h3.4v2.4h-6.3v-11.1h6.3v2.4H448.1z"/>
		<path id="XMLID_1472_" class="st4" d="M458.4,680.8h4.1c3.1,0,5.6,2.4,5.6,5.6c0,3.1-2.6,5.6-5.6,5.6h-4.1V680.8z M461.3,689.4
			h0.6c1.7,0,3.2-0.9,3.2-3.1c0-2-1.3-3.1-3.2-3.1h-0.7V689.4z"/>
		<path id="XMLID_1470_" class="st4" d="M472.4,683.2v1.9h3.3v2.4h-3.3v1.9h3.4v2.4h-6.3v-11.1h6.3v2.4H472.4z"/>
		<path id="XMLID_1468_" class="st4" d="M492.3,680.8v6.2c0,1.4-0.1,2.8-1.2,3.9c-0.9,0.9-2.4,1.2-3.7,1.2c-1.3,0-2.8-0.3-3.7-1.2
			c-1.1-1.1-1.2-2.5-1.2-3.9v-6.2h2.9v5.8c0,1.4,0.1,3,2,3c1.9,0,2-1.6,2-3v-5.8H492.3z"/>
		<path id="XMLID_1465_" class="st4" d="M503.3,691.9h-3.6l-2.7-4.3h0v4.3h-2.9v-11.1h4.3c2.2,0,3.9,1,3.9,3.4
			c0,1.5-0.9,2.9-2.4,3.1L503.3,691.9z M497,685.8h0.3c0.9,0,2-0.2,2-1.4c0-1.2-1.1-1.4-2-1.4H497V685.8z"/>
		<path id="XMLID_1461_" class="st4" d="M504.1,691.9v-11.1h4.1c2,0,3.3,0.8,3.3,2.9c0,1-0.3,1.8-1.2,2.3v0c1.6,0.2,2.3,1.3,2.3,2.8
			c0,2.3-2,3.1-4,3.1H504.1z M507,685.1h0.3c0.8,0,1.6-0.1,1.6-1.1c0-1-0.9-1.1-1.7-1.1H507V685.1z M507,689.7h0.4
			c0.9,0,2.3,0,2.3-1.2c0-1.3-1.4-1.2-2.4-1.2H507V689.7z"/>
		<path id="XMLID_1458_" class="st4" d="M516.9,690l-0.8,1.9h-3.1l4.3-11.1h3.2l4.2,11.1h-3.1l-0.7-1.9H516.9z M518.9,684.2
			L518.9,684.2l-1.2,3.5h2.4L518.9,684.2z"/>
		<path id="XMLID_1456_" class="st4" d="M525.6,680.8h2.9l5.3,6.8h0v-6.8h2.9v11.1h-2.9l-5.3-6.8h0v6.8h-2.9V680.8z"/>
		<path id="XMLID_1454_" class="st4" d="M541.4,691.9h-2.9v-11.1h2.9V691.9z"/>
		<path id="XMLID_1452_" class="st4" d="M549.4,683.6c-0.5-0.4-1.2-0.7-1.9-0.7c-0.5,0-1.2,0.3-1.2,0.9c0,0.6,0.8,0.9,1.3,1.1
			l0.7,0.2c1.5,0.5,2.7,1.2,2.7,3c0,1.1-0.3,2.2-1.1,3c-0.9,0.7-2,1-3.2,1c-1.4,0-2.8-0.5-3.9-1.3l1.2-2.3c0.7,0.6,1.6,1.1,2.6,1.1
			c0.7,0,1.4-0.3,1.4-1.1c0-0.8-1.1-1.1-1.8-1.3c-1.8-0.5-3-1-3-3.1c0-2.3,1.6-3.7,3.8-3.7c1.1,0,2.5,0.4,3.5,0.9L549.4,683.6z"/>
		<path id="XMLID_1450_" class="st4" d="M553.6,680.8h2.8l2.3,5.9l2.4-5.9h2.9l1.7,11.1h-2.9l-0.8-6.4h0l-2.7,6.4h-1.1l-2.5-6.4h0
			l-0.9,6.4h-2.9L553.6,680.8z"/>
		<path id="XMLID_1447_" class="st4" d="M578.6,686.1c0,3.6-2.6,6.1-6.1,6.1c-3.6,0-6.1-2.5-6.1-6.1c0-3.4,2.9-5.7,6.1-5.7
			C575.7,680.4,578.6,682.8,578.6,686.1z M569.3,686.1c0,1.9,1.4,3.3,3.1,3.3c1.7,0,3.1-1.4,3.1-3.3c0-1.5-1.4-2.9-3.1-2.9
			C570.7,683.2,569.3,684.6,569.3,686.1z"/>
		<path id="XMLID_1444_" class="st4" d="M442.3,709.6h-3.6l-2.7-4.3h0v4.3H433v-11.1h4.3c2.2,0,3.9,1,3.9,3.4c0,1.5-0.9,2.9-2.4,3.1
			L442.3,709.6z M435.9,703.4h0.3c0.9,0,2-0.2,2-1.4c0-1.2-1.1-1.4-2-1.4h-0.3V703.4z"/>
		<path id="XMLID_1441_" class="st4" d="M450.8,706.2h-5.6c0,1.1,0.6,1.7,1.7,1.7c0.6,0,1-0.2,1.3-0.7h2.6c-0.2,0.9-0.7,1.5-1.4,2
			c-0.7,0.4-1.5,0.6-2.4,0.6c-2.5,0-4.4-1.4-4.4-4c0-2.5,1.7-4,4.2-4c2.6,0,4.1,1.6,4.1,4.2V706.2z M448.3,704.7
			c-0.1-0.7-0.8-1.2-1.5-1.2c-0.8,0-1.4,0.4-1.6,1.2H448.3z"/>
		<path id="XMLID_1439_" class="st4" d="M455.7,705.9l1.8-3.9h3l-3.9,7.6h-1.7l-4-7.6h3L455.7,705.9z"/>
		<path id="XMLID_1436_" class="st4" d="M464,699.1c0,0.8-0.7,1.5-1.5,1.5c-0.8,0-1.5-0.7-1.5-1.5c0-0.8,0.7-1.5,1.5-1.5
			C463.3,697.6,464,698.3,464,699.1z M463.8,709.6h-2.7V702h2.7V709.6z"/>
		<path id="XMLID_1434_" class="st4" d="M470.6,703.9c-0.4-0.2-1-0.4-1.4-0.4c-0.3,0-0.8,0.1-0.8,0.5c0,0.5,0.8,0.6,1.2,0.7
			c1.3,0.2,2.2,0.8,2.2,2.2c0,2-1.8,2.8-3.6,2.8c-1.1,0-2.1-0.3-3-0.9l1-1.9c0.5,0.4,1.5,0.8,2.1,0.8c0.3,0,0.8-0.2,0.8-0.6
			c0-0.6-0.8-0.6-1.7-0.8c-0.8-0.2-1.7-0.6-1.7-2c0-1.9,1.7-2.7,3.3-2.7c0.9,0,1.7,0.1,2.5,0.5L470.6,703.9z"/>
		<path id="XMLID_1431_" class="st4" d="M476,699.1c0,0.8-0.7,1.5-1.5,1.5c-0.8,0-1.5-0.7-1.5-1.5c0-0.8,0.7-1.5,1.5-1.5
			C475.3,697.6,476,698.3,476,699.1z M475.8,709.6h-2.7V702h2.7V709.6z"/>
		<path id="XMLID_1427_" class="st4" d="M486.1,705.8c0,2.6-2.1,4-4.6,4c-2.4,0-4.6-1.4-4.6-4c0-2.6,2.1-4,4.6-4
			C484,701.8,486.1,703.2,486.1,705.8z M479.9,705.8c0,1,0.6,1.7,1.7,1.7c1.1,0,1.7-0.7,1.7-1.7c0-0.9-0.6-1.7-1.7-1.7
			C480.5,704.1,479.9,704.9,479.9,705.8z M481.3,700.9l-1.2-0.9l2.1-2.5l1.6,1.2L481.3,700.9z"/>
		<path id="XMLID_1425_" class="st4" d="M490,703L490,703c0.6-0.9,1.4-1.2,2.4-1.2c2,0,2.8,1.3,2.8,3.1v4.7h-2.7v-3.7
			c0-0.7,0.1-2-1.2-2c-1.1,0-1.4,0.8-1.4,1.8v3.9h-2.7V702h2.7V703z"/>
		<path id="XMLID_1423_" class="st4" d="M501.2,703.7v2.2H497v-2.2H501.2z"/>
		<path id="XMLID_1421_" class="st4" d="M505.8,709.6h-2.9v-11.1h2.9V709.6z"/>
		<path id="XMLID_1419_" class="st4" d="M510.3,703L510.3,703c0.6-0.9,1.4-1.2,2.4-1.2c2,0,2.8,1.3,2.8,3.1v4.7h-2.7v-3.7
			c0-0.7,0.1-2-1.2-2c-1.1,0-1.4,0.8-1.4,1.8v3.9h-2.7V702h2.7V703z"/>
		<path id="XMLID_1417_" class="st4" d="M520.3,709.6h-2.7v-5.3h-0.9V702h0.9v-1c0-1,0-1.8,0.8-2.7c0.7-0.8,1.6-1.2,2.6-1.2
			c0.4,0,0.8,0.1,1.1,0.3v2.3c-0.3-0.1-0.6-0.3-0.9-0.3c-0.7,0-0.9,0.4-0.9,1.3v1.2h1.9v2.2h-1.9V709.6z"/>
		<path id="XMLID_1414_" class="st4" d="M531.6,705.8c0,2.6-2.1,4-4.6,4c-2.4,0-4.6-1.4-4.6-4c0-2.6,2.1-4,4.6-4
			C529.5,701.8,531.6,703.2,531.6,705.8z M525.3,705.8c0,1,0.6,1.7,1.7,1.7c1.1,0,1.7-0.7,1.7-1.7c0-0.9-0.6-1.7-1.7-1.7
			C526,704.1,525.3,704.9,525.3,705.8z"/>
		<path id="XMLID_1412_" class="st4" d="M535.5,703.2L535.5,703.2c0.5-0.9,1.4-1.3,2.5-1.3h0.5v2.6c-0.4-0.2-0.7-0.3-1.1-0.3
			c-1.5,0-1.9,1-1.9,2.3v3h-2.7V702h2.7V703.2z"/>
		<path id="XMLID_1410_" class="st4" d="M542.2,702.9L542.2,702.9c0.7-0.8,1.4-1.2,2.4-1.2c1.1,0,2,0.4,2.6,1.4
			c0.5-0.9,1.5-1.4,2.6-1.4c1.9,0,2.6,1.3,2.6,3v4.8h-2.7V706c0-0.8,0-2.1-1.1-2.1c-1.2,0-1.3,1.2-1.3,2.1v3.6h-2.7V706
			c0-0.8,0-2.1-1.2-2.1s-1.2,1.3-1.2,2.1v3.6h-2.7V702h2.7V702.9z"/>
		<path id="XMLID_1407_" class="st4" d="M561.8,706.2h-5.6c0,1.1,0.6,1.7,1.7,1.7c0.6,0,1-0.2,1.3-0.7h2.6c-0.2,0.9-0.7,1.5-1.4,2
			c-0.7,0.4-1.5,0.6-2.4,0.6c-2.5,0-4.4-1.4-4.4-4c0-2.5,1.7-4,4.2-4c2.6,0,4.1,1.6,4.1,4.2V706.2z M559.3,704.7
			c-0.1-0.7-0.8-1.2-1.5-1.2c-0.8,0-1.4,0.4-1.6,1.2H559.3z"/>
		<path id="XMLID_1405_" class="st4" d="M567.2,703.7v2.2h-4.2v-2.2H567.2z"/>
		<path id="XMLID_1403_" class="st4" d="M461.5,718.6v1.9h3.2v2.4h-3.2v4.4h-2.9v-11.1h6.4v2.4H461.5z"/>
		<path id="XMLID_1400_" class="st4" d="M469.3,716.8c0,0.8-0.7,1.5-1.5,1.5c-0.8,0-1.5-0.7-1.5-1.5c0-0.8,0.7-1.5,1.5-1.5
			C468.7,715.3,469.3,716,469.3,716.8z M469.2,727.2h-2.7v-7.6h2.7V727.2z"/>
		<path id="XMLID_1398_" class="st4" d="M473.6,720.9L473.6,720.9c0.5-0.9,1.4-1.3,2.5-1.3h0.5v2.6c-0.4-0.2-0.7-0.3-1.1-0.3
			c-1.5,0-1.9,1-1.9,2.3v3H471v-7.6h2.7V720.9z"/>
		<path id="XMLID_1396_" class="st4" d="M480.3,720.6L480.3,720.6c0.7-0.8,1.4-1.2,2.4-1.2c1.1,0,2,0.4,2.6,1.4
			c0.5-0.9,1.5-1.4,2.6-1.4c1.9,0,2.6,1.3,2.6,3v4.8h-2.7v-3.6c0-0.8,0-2.1-1.1-2.1c-1.2,0-1.3,1.2-1.3,2.1v3.6h-2.7v-3.6
			c0-0.8,0-2.1-1.2-2.1c-1.2,0-1.2,1.3-1.2,2.1v3.6h-2.7v-7.6h2.7V720.6z"/>
		<path id="XMLID_1393_" class="st4" d="M500.5,727.2h-2.7v-0.8h0c-0.5,0.8-1.4,1.1-2.3,1.1c-2.2,0-3.8-1.9-3.8-4c0-2.2,1.5-4,3.8-4
			c0.9,0,1.8,0.3,2.3,1v-0.7h2.7V727.2z M494.4,723.5c0,1,0.6,1.7,1.7,1.7c1.1,0,1.7-0.7,1.7-1.7c0-0.9-0.6-1.7-1.7-1.7
			C495,721.8,494.4,722.5,494.4,723.5z"/>
		<path id="XMLID_1390_" class="st4" d="M516.6,727.2H513l-2.7-4.3h0v4.3h-2.9v-11.1h4.3c2.2,0,3.9,1,3.9,3.4c0,1.5-0.9,2.9-2.4,3.1
			L516.6,727.2z M510.2,721.1h0.3c0.9,0,2-0.2,2-1.4c0-1.2-1.1-1.4-2-1.4h-0.3V721.1z"/>
		<path id="XMLID_1387_" class="st4" d="M520.2,725.3l-0.8,1.9h-3.1l4.3-11.1h3.2l4.2,11.1h-3.1l-0.7-1.9H520.2z M522.2,719.6
			L522.2,719.6l-1.2,3.5h2.4L522.2,719.6z"/>
		<path id="XMLID_1385_" class="st4" d="M530.1,716.1h2.8l2.3,5.9l2.4-5.9h2.9l1.7,11.1h-2.9l-0.8-6.4h0l-2.7,6.4h-1.1l-2.5-6.4h0
			l-0.9,6.4h-2.9L530.1,716.1z"/>
	</g>
</g>
<rect id="XMLID_634_" x="388.2" y="783.2" class="st3" width="222.7" height="100.8"/>
<g id="XMLID_544_">
	<g>
		<path id="XMLID_713_" class="st4" d="M458.6,814.4c-0.5-0.4-1.2-0.7-1.9-0.7c-0.5,0-1.2,0.3-1.2,0.9c0,0.6,0.8,0.9,1.3,1.1
			l0.7,0.2c1.5,0.5,2.7,1.2,2.7,3c0,1.1-0.3,2.2-1.1,3c-0.9,0.7-2,1-3.2,1c-1.4,0-2.8-0.5-3.9-1.3l1.2-2.3c0.7,0.6,1.6,1.1,2.6,1.1
			c0.7,0,1.4-0.3,1.4-1.1c0-0.8-1.1-1.1-1.8-1.3c-1.8-0.5-3-1-3-3.1c0-2.3,1.6-3.7,3.8-3.7c1.1,0,2.5,0.4,3.5,0.9L458.6,814.4z"/>
		<path id="XMLID_711_" class="st4" d="M471.2,811.5v6.2c0,1.4-0.1,2.8-1.2,3.9c-0.9,0.9-2.4,1.2-3.7,1.2c-1.3,0-2.8-0.3-3.7-1.2
			c-1.1-1.1-1.2-2.5-1.2-3.9v-6.2h2.9v5.8c0,1.4,0.1,3,2,3c1.9,0,2-1.6,2-3v-5.8H471.2z"/>
		<path id="XMLID_707_" class="st4" d="M473,822.6v-11.1h4.1c2,0,3.3,0.8,3.3,2.9c0,1-0.3,1.8-1.2,2.3v0c1.6,0.2,2.3,1.3,2.3,2.8
			c0,2.3-2,3.1-4,3.1H473z M475.9,815.9h0.3c0.8,0,1.6-0.1,1.6-1.1c0-1-0.9-1.1-1.7-1.1h-0.2V815.9z M475.9,820.4h0.4
			c0.9,0,2.3,0,2.3-1.2c0-1.3-1.4-1.2-2.4-1.2h-0.3V820.4z"/>
		<path id="XMLID_704_" class="st4" d="M485.8,820.7l-0.8,1.9H482l4.3-11.1h3.2l4.2,11.1h-3.1l-0.7-1.9H485.8z M487.8,814.9
			L487.8,814.9l-1.2,3.5h2.4L487.8,814.9z"/>
		<path id="XMLID_702_" class="st4" d="M497.4,820.2h3.5v2.4h-6.3v-11.1h2.9V820.2z"/>
		<path id="XMLID_700_" class="st4" d="M509.7,815.2c-0.6-0.8-1.5-1.2-2.5-1.2c-1.8,0-3,1.4-3,3.1c0,1.8,1.2,3,3,3
			c0.9,0,1.9-0.5,2.5-1.2v3.5c-1,0.3-1.6,0.5-2.5,0.5c-1.5,0-3-0.6-4.2-1.6c-1.2-1.1-1.8-2.5-1.8-4.2c0-1.5,0.6-3,1.6-4.1
			c1.1-1.1,2.7-1.8,4.2-1.8c0.9,0,1.8,0.2,2.6,0.6V815.2z"/>
		<path id="XMLID_697_" class="st4" d="M514.3,820.7l-0.8,1.9h-3.1l4.3-11.1h3.2l4.2,11.1H519l-0.7-1.9H514.3z M516.3,814.9
			L516.3,814.9l-1.2,3.5h2.4L516.3,814.9z"/>
		<path id="XMLID_695_" class="st4" d="M525.9,820.2h3.5v2.4H523v-11.1h2.9V820.2z"/>
		<path id="XMLID_692_" class="st4" d="M530.3,811.5h4.1c3.1,0,5.6,2.4,5.6,5.6c0,3.1-2.6,5.6-5.6,5.6h-4.1V811.5z M533.2,820.2h0.6
			c1.7,0,3.2-0.9,3.2-3.1c0-2-1.3-3.1-3.2-3.1h-0.7V820.2z"/>
		<path id="XMLID_690_" class="st4" d="M544.2,814v1.9h3.3v2.4h-3.3v1.9h3.4v2.4h-6.3v-11.1h6.3v2.4H544.2z"/>
		<path id="XMLID_688_" class="st4" d="M426,831.6v1.9h3.2v2.4H426v4.4h-2.9v-11.1h6.4v2.4H426z"/>
		<path id="XMLID_685_" class="st4" d="M433.8,829.8c0,0.8-0.7,1.5-1.5,1.5c-0.8,0-1.5-0.7-1.5-1.5c0-0.8,0.7-1.5,1.5-1.5
			C433.2,828.3,433.8,829,433.8,829.8z M433.7,840.3H431v-7.6h2.7V840.3z"/>
		<path id="XMLID_683_" class="st4" d="M438.1,834L438.1,834c0.5-0.9,1.4-1.3,2.5-1.3h0.5v2.6c-0.4-0.2-0.7-0.3-1.1-0.3
			c-1.5,0-1.9,1-1.9,2.3v3h-2.7v-7.6h2.7V834z"/>
		<path id="XMLID_681_" class="st4" d="M444.8,833.7L444.8,833.7c0.7-0.8,1.4-1.2,2.4-1.2c1.1,0,2,0.4,2.6,1.4
			c0.5-0.9,1.5-1.4,2.6-1.4c1.9,0,2.6,1.3,2.6,3v4.8h-2.7v-3.6c0-0.8,0-2.1-1.1-2.1c-1.2,0-1.3,1.2-1.3,2.1v3.6h-2.7v-3.6
			c0-0.8,0-2.1-1.2-2.1c-1.2,0-1.2,1.3-1.2,2.1v3.6h-2.7v-7.6h2.7V833.7z"/>
		<path id="XMLID_678_" class="st4" d="M465,840.3h-2.7v-0.8h0c-0.5,0.8-1.4,1.1-2.3,1.1c-2.2,0-3.8-1.9-3.8-4s1.5-4,3.8-4
			c0.9,0,1.8,0.3,2.3,1v-0.7h2.7V840.3z M458.9,836.5c0,1,0.6,1.7,1.7,1.7c1.1,0,1.7-0.7,1.7-1.7c0-0.9-0.6-1.7-1.7-1.7
			C459.5,834.8,458.9,835.6,458.9,836.5z"/>
		<path id="XMLID_675_" class="st4" d="M481.1,840.3h-3.6l-2.7-4.3h0v4.3h-2.9v-11.1h4.3c2.2,0,3.9,1,3.9,3.4c0,1.5-0.9,2.9-2.4,3.1
			L481.1,840.3z M474.7,834.2h0.3c0.9,0,2-0.2,2-1.4c0-1.2-1.1-1.4-2-1.4h-0.3V834.2z"/>
		<path id="XMLID_672_" class="st4" d="M484.7,838.4l-0.8,1.9h-3.1l4.3-11.1h3.2l4.2,11.1h-3.1l-0.7-1.9H484.7z M486.7,832.6
			L486.7,832.6l-1.2,3.5h2.4L486.7,832.6z"/>
		<path id="XMLID_670_" class="st4" d="M494.6,829.2h2.8l2.3,5.9l2.4-5.9h2.9l1.7,11.1h-2.9l-0.8-6.4h0l-2.7,6.4h-1.1l-2.5-6.4h0
			l-0.9,6.4h-2.9L494.6,829.2z"/>
		<path id="XMLID_668_" class="st4" d="M511.7,832.7h3.1l2,3.9l2-3.9h3l-6.1,11.3h-3l2.6-4.8L511.7,832.7z"/>
		<path id="XMLID_661_" class="st4" d="M527.6,829.2h4.4c2.4,0,4,1.1,4,3.7c0,2.6-1.4,3.8-3.9,3.8h-1.6v3.7h-2.9V829.2z
			 M530.5,834.3h0.5c1,0,2.1,0,2.1-1.4c0-1.4-1-1.4-2.1-1.4h-0.5V834.3z"/>
		<path id="XMLID_659_" class="st4" d="M539.9,840.3h-2.7v-12.2h2.7V840.3z"/>
		<path id="XMLID_653_" class="st4" d="M550,840.3h-2.7v-0.8h0c-0.5,0.8-1.4,1.1-2.3,1.1c-2.2,0-3.8-1.9-3.8-4s1.5-4,3.8-4
			c0.9,0,1.8,0.3,2.3,1v-0.7h2.7V840.3z M543.9,836.5c0,1,0.6,1.7,1.7,1.7c1.1,0,1.7-0.7,1.7-1.7c0-0.9-0.6-1.7-1.7-1.7
			C544.5,834.8,543.9,835.6,543.9,836.5z"/>
		<path id="XMLID_650_" class="st4" d="M554.4,833.7L554.4,833.7c0.6-0.9,1.4-1.2,2.4-1.2c2,0,2.8,1.3,2.8,3.1v4.7H557v-3.7
			c0-0.7,0.1-2-1.2-2c-1.1,0-1.4,0.8-1.4,1.8v3.9h-2.7v-7.6h2.7V833.7z"/>
		<path id="XMLID_647_" class="st4" d="M570,836.5c0,2.6-2.1,4-4.6,4c-2.4,0-4.6-1.4-4.6-4s2.1-4,4.6-4
			C567.9,832.5,570,833.9,570,836.5z M563.7,836.5c0,1,0.6,1.7,1.7,1.7s1.7-0.7,1.7-1.7c0-0.9-0.6-1.7-1.7-1.7
			S563.7,835.6,563.7,836.5z"/>
		<path id="XMLID_645_" class="st4" d="M576.2,834.7c-0.4-0.2-1-0.4-1.4-0.4c-0.3,0-0.8,0.1-0.8,0.5c0,0.5,0.8,0.6,1.2,0.7
			c1.3,0.2,2.2,0.8,2.2,2.2c0,2-1.8,2.8-3.6,2.8c-1.1,0-2.1-0.3-3-0.9l1-1.9c0.5,0.4,1.5,0.8,2.1,0.8c0.3,0,0.8-0.2,0.8-0.6
			c0-0.6-0.8-0.6-1.7-0.8s-1.7-0.6-1.7-2c0-1.9,1.7-2.7,3.3-2.7c0.9,0,1.7,0.1,2.5,0.5L576.2,834.7z"/>
	</g>
</g>
<polygon id="XMLID_570_" class="st6" points="391.5,49 382.1,54.4 372.7,59.8 372.7,49 372.7,38.1 382.1,43.6 "/>
<polygon id="XMLID_569_" class="st6" points="498,133.9 492.6,124.5 487.1,115.1 498,115.1 508.8,115.1 503.4,124.5 "/>
<polygon id="XMLID_568_" class="st6" points="611,181.8 620.4,176.4 629.8,170.9 629.8,181.8 629.8,192.6 620.4,187.2 "/>
<polygon id="XMLID_566_" class="st6" points="611,49 620.4,43.6 629.8,38.1 629.8,49 629.8,59.8 620.4,54.4 "/>
<polygon id="XMLID_565_" class="st6" points="611,310.5 620.4,305.1 629.8,299.7 629.8,310.5 629.8,321.4 620.4,315.9 "/>
<polygon id="XMLID_561_" class="st6" points="498,263.9 492.6,254.6 487.1,245.2 498,245.2 508.8,245.2 503.4,254.6 "/>
<polygon id="XMLID_88_" class="st6" points="775.2,389.5 769.8,380.1 764.4,370.8 775.2,370.8 786.1,370.8 780.7,380.1 "/>
<polygon id="XMLID_560_" class="st6" points="498,394 492.6,384.6 487.1,375.3 498,375.3 508.8,375.3 503.4,384.6 "/>
<polygon id="XMLID_558_" class="st6" points="498,524.1 492.6,514.7 487.1,505.3 498,505.3 508.8,505.3 503.4,514.7 "/>
<polygon id="XMLID_556_" class="st6" points="498,654.2 492.6,644.8 487.1,635.4 498,635.4 508.8,635.4 503.4,644.8 "/>
<polygon id="XMLID_43_" class="st6" points="498,784.3 492.6,774.9 487.1,765.5 498,765.5 508.8,765.5 503.4,774.9 "/>
<polygon id="XMLID_40_" class="st6" points="211.9,606.6 206.5,597.2 201,587.8 211.9,587.8 222.7,587.8 217.3,597.2 "/>
<polygon id="XMLID_39_" class="st6" points="211.9,709.8 217.3,719.2 222.7,728.5 211.9,728.5 201,728.5 206.5,719.2 "/>
<line id="XMLID_37_" class="st0" x1="211.9" y1="502.9" x2="211.9" y2="604"/>
<polyline id="XMLID_36_" class="st0" points="211.9,719.2 211.9,833.6 388.2,833.6 "/>
<polyline id="XMLID_35_" class="st0" points="323.3,658.4 355.4,658.4 355.4,48.4 388.2,48.4 "/>
<line id="XMLID_34_" class="st0" x1="616.3" y1="181.8" x2="656.4" y2="181.8"/>
<polyline id="XMLID_33_" class="st0" points="620.4,49 775.2,49 775.2,118.4 "/>
<polyline id="XMLID_31_" class="st0" points="775.2,240.3 775.2,310.5 624.5,310.5 "/>
<line id="XMLID_64_" class="st0" x1="775.6" y1="346.4" x2="775.6" y2="384.6"/>
</svg>
