<?xml version="1.0" encoding="utf-8"?>
<!-- Generator: Adobe Illustrator 22.0.0, SVG Export Plug-In . SVG Version: 6.00 Build 0)  -->
<svg version="1.1" id="Layer_1" xmlns="http://www.w3.org/2000/svg" xmlns:xlink="http://www.w3.org/1999/xlink" x="0px" y="0px"
	 viewBox="0 0 430 430" style="enable-background:new 0 0 430 430;" xml:space="preserve">
<style type="text/css">
	.st0{fill:#FFFFFF;}
	.st1{fill:#45C5E6;}
	.st2{fill:#D81117;}
</style>
<g id="XMLID_388_">
	<path class="st0" d="M214.9,418.7c-112.3,0-203.6-91.3-203.6-203.6S102.6,11.5,214.9,11.5s203.6,91.3,203.6,203.6
		C418.5,327.3,327.2,418.7,214.9,418.7z"/>
	<path class="st1" d="M214.9,22.9c51.3,0,99.6,20,135.8,56.3C387,115.5,407,163.7,407,215.1s-20,99.6-56.3,135.8
		c-36.3,36.3-84.5,56.3-135.8,56.3s-99.6-20-135.8-56.3c-36.3-36.3-56.3-84.5-56.3-135.8s20-99.6,56.3-135.8
		C115.3,42.9,163.6,22.9,214.9,22.9 M214.9-0.1C96.1-0.1-0.2,96.2-0.2,215.1s96.3,215.1,215.1,215.1S430,333.9,430,215.1
		S333.7-0.1,214.9-0.1L214.9-0.1z"/>
</g>
<g id="XMLID_163_">
	<path id="XMLID_184_" class="st2" d="M193.2,326.1c-29.7,0-59.3,0-89,0c0-34.6,0-69.3,0-104.1c5.3,0,10.4,0,15.5,0
		c0-4.8,0-9.4,0-14.3c-5.2,0-10.3,0-15.5,0c0-34.7,0-69.1,0-103.5c29.7,0,59.3,0,89,0c0,9.1,0,18.1,0,27.2c7,0,13.7,0,20.6,0
		c0-9.2,0-18.2,0-27.2c37.5,0,74.9,0,112.4,0c0,37.1,0,74.2,0,111.3c-5.2,0-10.3,0-15.5,0c0,7.6,0,14.8,0,22c5.3,0,10.4,0,15.5,0
		c0,12.3,0,24.6,0,36.9c-7.6,0-15.1-0.1-22.7,0c-1.8,0-2.3-0.4-2.3-2.2c0.1-10.2,0-20.3,0-30.5c0-0.5,0.1-1.1-0.1-1.6
		c-0.1-0.4-0.5-0.9-0.8-0.9c-4.4-0.1-8.7,0-13.2,0c0,5.2,0,10.3,0,15.5c-8.4,0-16.6,0-25.1,0c0-7.8,0-15.5,0-23.2
		c-7.9,0-15.6,0-23.3,0c0,6.8,0,13.5,0,20.5c0.7,0,1.4,0,2.1,0c6.2,0,12.4,0.1,18.6,0c1.6,0,2,0.5,2,2c-0.1,14.2,0,28.5,0,42.7
		c0,3.7,0,3.7,3.8,3.7c4.1,0,8.2,0,12.6,0c0-7.9,0-15.6,0-23.3c8.5,0,16.7,0,25.1,0c0,7.8,0,15.5,0,23.2c7.9,0,15.6,0,23.3,0
		c0,8.3,0,16.5,0,24.8c-7.7,0-15.5,0-23.2,0.1c-1.5,0-1.7-0.6-1.7-1.9c0-6.5,0-13,0.1-19.5c0-1.7-0.5-2.2-2.2-2.1
		c-4.6,0.1-9.2,0-13.8,0c-0.6,0-1.3,0-2.1,0c0,0.9,0,1.5,0,2.2c0,6.5,0,13,0,19.5c0,1.4-0.4,1.8-1.8,1.8c-7.2-0.1-14.4,0-21.6,0
		c-0.5,0-1-0.1-1.7-0.2c0-6.8,0-13.4,0-20.2c-6.6,0-13,0-19.6,0c0,6.8,0,13.5,0,20.4c-0.9,0-1.5,0-2.1,0c-6.8,0-13.6,0-20.4,0
		c-2.3,0-2.3,0-2.3-2.3c0-14.2,0-28.5,0-42.7c0-1.4-0.3-2-1.9-2c-5.7,0.1-11.3,0.1-17,0c-1.3,0-1.7,0.4-1.7,1.7
		C193.2,295.3,193.2,310.7,193.2,326.1z M177.5,120c-19.3,0-38.4,0-57.6,0c0,0.7,0,1.3,0,1.9c0,17.9,0,35.8,0,53.7
		c0,1.6,0.4,2.1,2.1,2.1c18-0.1,35.9,0,53.9,0c0.6,0,1.1-0.1,1.8-0.1C177.5,158.2,177.5,139.1,177.5,120z M252.8,177.4
		c19.3,0,38.4,0,57.5,0c0-19.3,0-38.4,0-57.5c-19.2,0-38.3,0-57.5,0C252.8,139.1,252.8,158.2,252.8,177.4z M177.5,252.8
		c-0.5,0-0.9-0.1-1.2-0.1c-18.2,0-36.5,0-54.7,0c-1.5,0-1.7,0.7-1.7,1.9c0,18.1,0,36.1,0,54.2c0,0.5,0.1,1,0.1,1.6
		c19.2,0,38.3,0,57.5,0C177.5,291.2,177.5,272.1,177.5,252.8z M168.3,231.2c-1,0-1.7,0-2.4,0c-11,0-22,0-33,0c-3.8,0-3.8,0-3.9,3.8
		c-0.1,1.7,0.5,2.2,2.2,2.2c19.3-0.1,38.5,0,57.8,0c4.1,0,4.1,0,4.1,4.1c0,3.9,0,7.9,0,11.9c0.5,0.1,0.7,0.2,1,0.2
		c6.1,0,12.2,0,18.3,0c1.4,0,1.3-0.9,1.3-1.8c0-6.1,0-12.3,0-18.4c0-1.4-0.4-1.9-1.9-1.9c-6.6,0.1-13.2,0-19.8,0.1
		c-1.4,0-1.8-0.4-1.8-1.8c0.1-6.5,0-13,0-19.5c0-0.7-0.1-1.4-0.1-2.1c-7.3,0-14.4,0-21.8,0C168.3,215.6,168.3,223.3,168.3,231.2z
		 M215.2,182.7c0.4,0.1,0.5,0.2,0.7,0.2c6.6,0,13.2,0,19.8,0c1.5,0,1.4-0.8,1.4-1.8c0-15,0-30.1,0-45.1c0-1.5-0.5-1.9-1.9-1.9
		c-6,0.1-12,0-18.1,0c-0.6,0-1.3,0-2,0C215.2,150.4,215.2,166.5,215.2,182.7z M238.6,206.4c0.9,0,1.7,0,2.4,0c7.8,0,15.6,0,23.4,0
		c6.9,0,13.8,0,20.7,0c2.5,0,2.5,0,2.5,2.6c0,1.1,0.1,2.3,0,3.4c-0.1,1.5,0.5,1.9,1.9,1.9c3.2-0.1,6.5,0,9.7,0
		c0.6,0,1.1-0.1,1.7-0.2c0-7,0-13.9,0-20.7c-20.9,0-41.6,0-62.4,0C238.6,197.7,238.6,201.8,238.6,206.4z M168.2,206.4
		c0-4.5,0-8.8,0-13.1c-0.4-0.1-0.6-0.1-0.8-0.1c-12.3,0-24.6,0-36.8,0c-1.1,0-1.4,0.4-1.4,1.5c0,3.2,0.1,6.5,0,9.7
		c-0.1,1.7,0.5,2.1,2.1,2.1c11.7-0.1,23.4,0,35.1,0C166.8,206.4,167.4,206.4,168.2,206.4z M215.2,276.7c7.1,0,14.1,0,21.1,0
		c0-7.4,0-14.6,0-21.8c-7.1,0-14.1,0-21.1,0C215.2,262.2,215.2,269.4,215.2,276.7z M213.7,184.3c-6.7,0-13.1,0-19.4,0
		c-1.3,0-1,0.9-1,1.6c0,6.3,0,12.5,0,18.8c0,1.3,0.4,1.7,1.7,1.7c5.7-0.1,11.3-0.1,17,0c1.5,0,1.8-0.5,1.8-1.9c-0.1-5,0-10,0-15.1
		C213.7,187.8,213.7,186.2,213.7,184.3z M215.2,207.9c0,7.4,0,14.6,0,21.8c0.3,0.1,0.4,0.2,0.6,0.2c6,0,11.9,0,17.9,0
		c1.3,0,1.2-0.8,1.2-1.7c0-6.3,0-12.6,0-19c0-0.4-0.1-0.9-0.2-1.4C228.2,207.9,221.8,207.9,215.2,207.9z"/>
	<path id="XMLID_183_" class="st2" d="M131.7,131.6c11.3,0,22.6,0,34,0c0,0.6,0.1,1.1,0.1,1.6c0,10.3,0,20.6,0,30.8
		c0,1,0,1.8-1.4,1.8c-10.6-0.1-21.1,0-31.7,0c-0.3,0-0.6-0.1-1-0.1C131.7,154.4,131.7,143.1,131.7,131.6z"/>
	<path id="XMLID_182_" class="st2" d="M264.6,131.6c11.4,0,22.6,0,34,0c0,11.3,0,22.6,0,34.1c-0.5,0-1,0.1-1.5,0.1
		c-10.3,0-20.6,0-30.8,0c-1,0-1.8,0-1.8-1.4c0-10.6,0-21.1,0-31.7C264.5,132.3,264.6,132.1,264.6,131.6z"/>
	<path id="XMLID_181_" class="st2" d="M165.6,298.7c-11.3,0-22.6,0-34,0c0-11.3,0-22.6,0-34c0.4,0,0.9-0.1,1.5-0.1
		c10.3,0,20.7,0,31,0c1.1,0,1.7,0.2,1.7,1.5c0,10.5,0,20.9,0,31.4C165.8,297.8,165.7,298.2,165.6,298.7z"/>
</g>
</svg>
