<?xml version="1.0" encoding="utf-8"?>
<!-- Generator: Adobe Illustrator 21.0.2, SVG Export Plug-In . SVG Version: 6.00 Build 0)  -->
<svg version="1.1" id="Layer_1" xmlns="http://www.w3.org/2000/svg" xmlns:xlink="http://www.w3.org/1999/xlink" x="0px" y="0px"
	 viewBox="0 0 430 430" style="enable-background:new 0 0 430 430;" xml:space="preserve">
<style type="text/css">
	.st0{fill:#FFFFFF;}
	.st1{fill:#45C5E6;}
	.st2{fill:#D81117;}
</style>
<g id="XMLID_388_">
	<path class="st0" d="M214.9,418.7c-112.3,0-203.6-91.3-203.6-203.6c0-112.3,91.3-203.6,203.6-203.6s203.6,91.3,203.6,203.6
		C418.5,327.3,327.2,418.7,214.9,418.7z"/>
	<path class="st1" d="M214.9,22.9c51.3,0,99.6,20,135.8,56.3C387,115.5,407,163.7,407,215.1s-20,99.6-56.3,135.8
		c-36.3,36.3-84.5,56.3-135.8,56.3c-51.3,0-99.6-20-135.8-56.3c-36.3-36.3-56.3-84.5-56.3-135.8s20-99.6,56.3-135.8
		C115.3,42.9,163.6,22.9,214.9,22.9 M214.9-0.1C96.1-0.1-0.2,96.2-0.2,215.1s96.3,215.1,215.1,215.1S430,333.9,430,215.1
		S333.7-0.1,214.9-0.1L214.9-0.1z"/>
</g>
<g id="XMLID_308_">
	<g>
		<path id="XMLID_54_" class="st2" d="M106.5,219.1c0-37.5,0.2-74.9-0.1-112.4c-0.1-6.8,1.8-9,8.8-8.9c41.5,0.3,83,0,124.6,0.4
			c3.8,0,8.4,2.1,11.2,4.8c11.4,10.7,22.5,21.8,33.3,33.2c2.5,2.6,4.3,6.9,4.4,10.4c0.4,17.1,0.3,34.3,0.1,51.4
			c-0.1,4.8,1.2,6.8,6.4,8c35.8,8,57.4,38.9,53.3,75.4c-3.9,34.1-33.4,59.5-69.2,59.5c-54,0-108-0.2-162,0.2
			c-8.2,0.1-10.9-1.9-10.8-10.5C106.8,293.5,106.5,256.3,106.5,219.1z M222.8,234.1c-29,0-57,0-84.9,0c0-5.3,0-9.5,0-14.4
			c3.7,0,6.8,0,10,0c27.6,0,55.2,0.1,82.8-0.1c3.5,0,7.2-1.3,10.6-2.6c9.1-3.6,18.1-7.5,27-11.4c1.9-0.8,4.9-2.3,4.9-3.5
			c0.3-14.4,0.2-28.7,0.2-43.9c-15.8,0-30.2,0-45.4,0c0-15.2,0-29.6,0-44.4c-35.8,0-70.7,0-105.9,0c0,70.8,0,140.9,0,211.6
			c38.1,0,75.6,0,115.4,0c-18.8-16.9-25.7-37.1-25-60.5c-13.3,0-25.5,0-37.6,0c-12.4,0-24.8,0-37.2,0c0-5.5,0-9.8,0-15
			c3.6,0,6.7,0,9.8,0c18.9,0,37.8,0,56.6,0C217.7,249.7,217.7,249.7,222.8,234.1z M229.1,272.2c-0.1,29,22.7,52.2,51.4,52.4
			c29,0.2,52.7-23.4,52.6-52.3c-0.1-28.7-23.3-51.7-52.1-51.7C251.9,220.6,229.2,243.2,229.1,272.2z M267.1,143.3
			c-7.7-8.1-15.3-16.1-23.5-24.7c0,8.6,0,16.5,0,24.7C252,143.3,259.8,143.3,267.1,143.3z"/>
		<path id="XMLID_53_" class="st2" d="M137.7,203.4c0-4.7,0-8.7,0-13.3c39.9,0,79.4,0,119.6,0c0,4.3,0,8.5,0,13.3
			C217.6,203.4,178.1,203.4,137.7,203.4z"/>
		<path id="XMLID_52_" class="st2" d="M272.8,300.2c-8.7-8.9-18.3-18.7-27.7-28.4c3.9-4.1,8.5-8.9,14.5-15.2
			c4.4,5.4,8.6,10.5,13.7,16.7c10.2-11.3,19.5-21.6,29.2-32.3c6,6.4,10.5,11.2,14.3,15.2C302.2,270.8,287.4,285.6,272.8,300.2z"/>
	</g>
</g>
</svg>
