<?xml version="1.0" encoding="utf-8"?>
<!-- Generator: Adobe Illustrator 22.0.0, SVG Export Plug-In . SVG Version: 6.00 Build 0)  -->
<svg version="1.1" id="Layer_1" xmlns="http://www.w3.org/2000/svg" xmlns:xlink="http://www.w3.org/1999/xlink" x="0px" y="0px"
	 viewBox="0 0 430 430" style="enable-background:new 0 0 430 430;" xml:space="preserve">
<style type="text/css">
	.st0{fill:#FFFFFF;}
	.st1{fill:#45C5E6;}
	.st2{fill:#D81117;}
</style>
<g id="XMLID_388_">
	<path class="st0" d="M214.9,418.7c-112.3,0-203.6-91.3-203.6-203.6S102.6,11.5,214.9,11.5s203.6,91.3,203.6,203.6
		C418.5,327.3,327.2,418.7,214.9,418.7z"/>
	<path class="st1" d="M214.9,22.9c51.3,0,99.6,20,135.8,56.3C387,115.5,407,163.7,407,215.1s-20,99.6-56.3,135.8
		c-36.3,36.3-84.5,56.3-135.8,56.3s-99.6-20-135.8-56.3c-36.3-36.3-56.3-84.5-56.3-135.8s20-99.6,56.3-135.8
		C115.3,42.9,163.6,22.9,214.9,22.9 M214.9-0.1C96.1-0.1-0.2,96.2-0.2,215.1s96.3,215.1,215.1,215.1S430,333.9,430,215.1
		S333.7-0.1,214.9-0.1L214.9-0.1z"/>
</g>
<path id="XMLID_5_" class="st2" d="M126.9,191.7c0-4.7,0-8.7,0-13.3c39.9,0,79.4,0,119.6,0c0,4.3,0,8.5,0,13.3
	C206.8,191.7,167.3,191.7,126.9,191.7z"/>
<path id="XMLID_4_" class="st2" d="M126.9,227.1c0-4.7,0-8.7,0-13.3c39.9,0,79.4,0,119.6,0c0,4.3,0,8.5,0,13.3
	C206.8,227.1,167.3,227.1,126.9,227.1z"/>
<path id="XMLID_3_" class="st2" d="M126.9,262.4c0-4.7,0-8.7,0-13.3c39.9,0,79.4,0,119.6,0c0,4.3,0,8.5,0,13.3
	C206.8,262.4,167.3,262.4,126.9,262.4z"/>
<path class="st2" d="M256.3,131.6c-7.7-8.1-15.3-16.1-23.5-24.7c0,8.6,0,16.5,0,24.7C241.2,131.6,249,131.6,256.3,131.6z
	 M147.1,313.7c39.8,0,77.3,0,115.4,0c0-8.7,0-44.6,0-81.1c0-38.2,0-77,0-86.1c-15.8,0-30.1,0-45.3,0c0-15.2,0-29.6,0-44.4
	c-35.8,0-70.7,0-105.9,0c0,70.8,0,140.9,0,211.6c38.1,0,75.6,0,115.4,0 M348.2,286.8c0,43.6-35.3,78.9-78.9,78.9
	c-28,0-52.5-14.6-66.6-36.5c-32.1,0-64.1,0-96.2,0.2c-8.2,0.1-10.9-1.9-10.8-10.5L95.6,95c-0.1-6.8,1.8-9,8.8-8.9h123.7l0.9,0
	c3.8,0,8.4,2.5,11.2,5.2c11.4,10.7,22.5,21.8,33.3,33.2c2.5,2.6,4.5,6.9,4.6,10.4l0,3.1c0,15.1,0,41.7-0.1,70.4
	C317.5,212.8,348.2,246.2,348.2,286.8z"/>
<circle class="st2" cx="269.3" cy="286.8" r="64.2"/>
<circle class="st2" cx="269.3" cy="286.8" r="78.9"/>
<circle class="st0" cx="269.3" cy="286.8" r="64.2"/>
<g id="XMLID_38_">
	<g>
		<path id="XMLID_30_" class="st2" d="M285.7,336.5h-32.2l3.9-66.7h25.1L285.7,336.5z M253.5,248.5c0-8.8,7.1-16.1,16.1-16.1
			c8.9,0,16.1,7.3,16.1,16.1c0,8.9-7.1,16.1-16.1,16.1C260.6,264.5,253.5,257.4,253.5,248.5z"/>
	</g>
</g>
</svg>
