<?xml version="1.0" encoding="utf-8"?>
<!-- Generator: Adobe Illustrator 22.0.0, SVG Export Plug-In . SVG Version: 6.00 Build 0)  -->
<svg version="1.1" id="Layer_1" xmlns="http://www.w3.org/2000/svg" xmlns:xlink="http://www.w3.org/1999/xlink" x="0px" y="0px"
	 viewBox="0 0 430 430" style="enable-background:new 0 0 430 430;" xml:space="preserve">
<style type="text/css">
	.st0{fill:#FFFFFF;}
	.st1{fill:#45C5E6;}
	.st2{fill:#ED1C24;}
	.st3{fill:#00A651;}
	.st4{fill:#231F20;}
	.st5{font-family:'ArialNarrow';}
	.st6{font-size:23.7124px;}
</style>
<g id="XMLID_388_">
	<path class="st0" d="M214.9,418.7c-112.3,0-203.6-91.3-203.6-203.6S102.6,11.5,214.9,11.5s203.6,91.3,203.6,203.6
		C418.5,327.3,327.2,418.7,214.9,418.7z"/>
	<path class="st1" d="M214.9,22.9c51.3,0,99.6,20,135.8,56.3C387,115.5,407,163.7,407,215.1s-20,99.6-56.3,135.8
		c-36.3,36.3-84.5,56.3-135.8,56.3s-99.6-20-135.8-56.3c-36.3-36.3-56.3-84.5-56.3-135.8s20-99.6,56.3-135.8
		C115.3,42.9,163.6,22.9,214.9,22.9 M214.9-0.1C96.1-0.1-0.2,96.2-0.2,215.1s96.3,215.1,215.1,215.1S430,333.9,430,215.1
		S333.7-0.1,214.9-0.1L214.9-0.1z"/>
</g>
<g>
	<g>
		<path class="st2" d="M280.7,235.3c-9.7,21.1-12,5.8-21.9-17.9h-16.5v69.4H261l-1.8-38.7l0.2-0.2l15.4,38.9H295v-69.4h-4.6
			C286.1,224.8,282.7,231,280.7,235.3z"/>
		<g>
			<g>
				<path class="st2" d="M70,206.5V110h38.7l14.2,56.9h0.3l14.7-56.9h38.3v96.4H150l2.8-75.6h-0.3l-19.3,75.6h-20.4l-18.9-75.6h-0.3
					l2.5,75.6H70z"/>
				<path class="st2" d="M191.6,206.5V110H219v96.4H191.6z"/>
			</g>
			<g>
				<path class="st2" d="M68.8,286.8v-69.4h23.5c7.6,0,18.6,0.6,24.1,5.7c4.6,4.3,5.5,9.4,5.5,15.1c0,7.5-2.1,15.9-11.1,19.3
					c-6.8,2.8-14.8,1.9-22.2,2.2v27H68.8z M88.6,247.3c3.7-0.1,8,0.3,11.1-1.8c2-1.9,2.5-4.6,2.5-7c0-2.7-0.3-6.8-3.7-8.1
					c-1.9-0.6-4.6-0.6-7.7-0.6h-2.1V247.3z"/>
				<path class="st2" d="M129.4,286.8v-69.4h19.7v55.5h24.1v13.9H129.4z"/>
				<path class="st2" d="M176.1,286.8l18.4-69.4h23.8l18.3,69.4h-20l-2.8-13.5h-15.5l-2.4,13.5H176.1z M206.4,230h-0.2l-5.7,31.1
					h11.4L206.4,230z"/>
				<path class="st2" d="M357.9,264.7c0,15.6-6.6,23.8-26.6,23.8c-20,0-26.9-8.1-26.9-23.8v-28.2c0-13.3,9.7-20.7,26.9-20.7
					c17.3,0,26.6,7.4,26.6,20.7V264.7z M338.1,237.6c0-4.3-0.4-9.3-7-9.3c-6.3,0-7.1,5.1-7.1,9.3v28.5c0,4,0.8,9.9,7.2,9.9
					c6.4,0,6.8-5.9,6.8-9.9V237.6z"/>
			</g>
			<g>
				<path class="st3" d="M234.2,187c0,0,13.2-9.1,24.2,15.6c11,24.8,12.6,43.1,22.1,22.1S336.8,128.9,361,116c0,0-2.1-5.4-8.4-2.2
					c-6.3,3.2-69.5,54.4-77.3,78.6c0,0-21-24.2-29.5-21C237.4,174.6,234.2,187,234.2,187z"/>
			</g>
		</g>
	</g>
	<text transform="matrix(1 0 0 1 67.6113 313.7266)" class="st4 st5 st6">LEY MUNICIPAL N° 0204/17</text>
</g>
</svg>
