<?xml version="1.0" encoding="utf-8"?>
<!-- Generator: Adobe Illustrator 22.0.0, SVG Export Plug-In . SVG Version: 6.00 Build 0)  -->
<svg version="1.1" id="Layer_1" xmlns="http://www.w3.org/2000/svg" xmlns:xlink="http://www.w3.org/1999/xlink" x="0px" y="0px"
	 viewBox="0 0 430 430" style="enable-background:new 0 0 430 430;" xml:space="preserve">
<style type="text/css">
	.st0{fill:#FFFFFF;}
	.st1{fill:#45C5E6;}
	.st2{fill:#D81117;}
</style>
<g id="XMLID_388_">
	<path class="st0" d="M214.9,418.7c-112.3,0-203.6-91.3-203.6-203.6S102.6,11.5,214.9,11.5s203.6,91.3,203.6,203.6
		C418.5,327.3,327.2,418.7,214.9,418.7z"/>
	<path class="st1" d="M214.9,22.9c51.3,0,99.6,20,135.8,56.3C387,115.5,407,163.7,407,215.1s-20,99.6-56.3,135.8
		c-36.3,36.3-84.5,56.3-135.8,56.3s-99.6-20-135.8-56.3c-36.3-36.3-56.3-84.5-56.3-135.8s20-99.6,56.3-135.8
		C115.3,42.9,163.6,22.9,214.9,22.9 M214.9-0.1C96.1-0.1-0.2,96.2-0.2,215.1s96.3,215.1,215.1,215.1S430,333.9,430,215.1
		S333.7-0.1,214.9-0.1L214.9-0.1z"/>
</g>
<path id="XMLID_53_" class="st2" d="M197.6,203.4c0-4.7,0-8.7,0-13.3c39.9,0,36.8,0,77,0c0,4.3,0,8.5,0,13.3
	C234.9,203.4,238,203.4,197.6,203.4z"/>
<path id="XMLID_52_" class="st2" d="M169.1,210.1c-4.4-4.5-9.3-9.5-14.1-14.5c2-2.1,4.3-4.5,7.4-7.8c2.2,2.8,4.4,5.4,7,8.5
	c5.2-5.8,9.9-11,14.9-16.5c3.1,3.3,5.4,5.7,7.3,7.8C184.1,195.1,176.5,202.6,169.1,210.1z"/>
<path id="XMLID_4_" class="st2" d="M197.6,238.6c0-4.7,0-8.7,0-13.3c39.9,0,36.8,0,77,0c0,4.3,0,8.5,0,13.3
	C234.9,238.6,238,238.6,197.6,238.6z"/>
<path id="XMLID_3_" class="st2" d="M169.1,245.3c-4.4-4.5-9.3-9.5-14.1-14.5c2-2.1,4.3-4.5,7.4-7.8c2.2,2.8,4.4,5.4,7,8.5
	c5.2-5.8,9.9-11,14.9-16.5c3.1,3.3,5.4,5.7,7.3,7.8C184.1,230.3,176.5,237.8,169.1,245.3z"/>
<path id="XMLID_6_" class="st2" d="M197.6,273.8c0-4.7,0-8.7,0-13.3c39.9,0,36.8,0,77,0c0,4.3,0,8.5,0,13.3
	C234.9,273.8,238,273.8,197.6,273.8z"/>
<path id="XMLID_5_" class="st2" d="M169.1,280.5c-4.4-4.5-9.3-9.5-14.1-14.5c2-2.1,4.3-4.5,7.4-7.8c2.2,2.8,4.4,5.4,7,8.5
	c5.2-5.8,9.9-11,14.9-16.5c3.1,3.3,5.4,5.7,7.3,7.8C184.1,265.5,176.5,273,169.1,280.5z"/>
<path class="st2" d="M284.4,143.3c-7.7-8.1-15.3-16.1-23.5-24.7c0,8.6,0,16.5,0,24.7C269.3,143.3,277.1,143.3,284.4,143.3z
	 M296.6,340.9c-54,0-108-0.2-162,0.2c-8.2,0.1-10.9-1.9-10.8-10.5l-0.1-223.9c-0.1-6.8,1.8-9,8.8-8.9h123.7l0.9,0
	c3.8,0,8.4,2.5,11.2,5.2c11.4,10.7,22.5,21.8,33.3,33.2c2.5,2.6,4.5,6.9,4.6,10.4l0,3.1c0,37.2-0.3,143.8,0,180.9
	c0.1,8.6-2.6,10.6-10.8,10.5 M175.1,325.4c39.8,0,77.3,0,115.4,0c0-17.8,0-149.4,0-167.2c-15.8,0-30.1,0-45.3,0
	c0-15.2,0-29.6,0-44.4c-35.8,0-70.7,0-105.9,0c0,70.8,0,140.9,0,211.6c38.1,0,75.6,0,115.4,0"/>
</svg>
