<?xml version="1.0" encoding="utf-8"?>
<!-- Generator: Adobe Illustrator 21.0.2, SVG Export Plug-In . SVG Version: 6.00 Build 0)  -->
<svg version="1.1" id="Layer_1" xmlns="http://www.w3.org/2000/svg" xmlns:xlink="http://www.w3.org/1999/xlink" x="0px" y="0px"
	 viewBox="0 0 430 430" style="enable-background:new 0 0 430 430;" xml:space="preserve">
<style type="text/css">
	.st0{fill:#FFFFFF;}
	.st1{fill:#45C5E6;}
	.st2{fill:#D81117;}
</style>
<g id="XMLID_388_">
	<path class="st0" d="M214.9,418.7c-112.3,0-203.6-91.3-203.6-203.6c0-112.3,91.3-203.6,203.6-203.6s203.6,91.3,203.6,203.6
		C418.5,327.3,327.2,418.7,214.9,418.7z"/>
	<path class="st1" d="M214.9,22.9c51.3,0,99.6,20,135.8,56.3C387,115.5,407,163.7,407,215.1s-20,99.6-56.3,135.8
		c-36.3,36.3-84.5,56.3-135.8,56.3c-51.3,0-99.6-20-135.8-56.3c-36.3-36.3-56.3-84.5-56.3-135.8s20-99.6,56.3-135.8
		C115.3,42.9,163.6,22.9,214.9,22.9 M214.9-0.1C96.1-0.1-0.2,96.2-0.2,215.1s96.3,215.1,215.1,215.1S430,333.9,430,215.1
		S333.7-0.1,214.9-0.1L214.9-0.1z"/>
</g>
<g>
	<path id="XMLID_370_" class="st2" d="M121.9,188c0-4.1,0-7.5,0-11.6c34.6,0,68.8,0,103.7,0c0,3.8,0,7.4,0,11.6
		C191.2,188,156.9,188,121.9,188z"/>
	<path id="XMLID_333_" class="st2" d="M243.6,215c14.7,0.7,25.9,7.3,33.1,20.3c0.5,0.9,0.2,2.4,0.3,3.6c-1.1-0.3-2.4-0.3-3.2-0.9
		c-11.6-8.4-24.3-14.5-38.2-17.9c-1.2-0.3-2.1-1.3-3.2-2.1c1.1-0.7,2.2-1.7,3.4-2.2c1.4-0.5,2.9-0.5,4.4-0.6
		C241.3,215.2,242.4,215.1,243.6,215z"/>
	<path class="st2" d="M328.7,308.5c-10.5-10.8-21.3-21.3-31.2-31.2c3.7-6.5,6.2-13.8,7.1-21.7c3.6-31.6-15.1-58.4-46.2-65.3
		c-4.5-1-5.6-2.7-5.6-6.9c0.2-14.9,0.3-29.7-0.1-44.6c-0.1-3.1-1.6-6.8-3.8-9.1c-9.3-9.9-18.9-19.5-28.9-28.8
		c-2.4-2.3-6.4-4.1-9.7-4.1c-36-0.3-72,0-108-0.3c-6.1,0-7.6,1.8-7.6,7.7c0.3,32.5,0.1,64.9,0.1,97.4c0,32.2,0.2,64.4-0.2,96.7
		c-0.1,7.5,2.3,9.1,9.4,9.1c46.8-0.3,93.6-0.1,140.5-0.2c13.8,0,26.6-4.4,36.8-11.8c0.5,0.7,1.1,1.3,1.7,1.9
		c10.1,10.1,20.1,20.3,30.4,30.3c2.2,2.1,5.1,3.6,7.6,5.4c1.8,0,3.6,0,5.4,0c4.6-1.8,7.8-5,9.5-9.5c0-1.8,0-3.6,0-5.4
		C333.6,314.8,331.5,311.3,328.7,308.5z M213.7,114.5c7.1,7.5,13.7,14.4,20.4,21.4c-6.3,0-13.1,0-20.4,0
		C213.7,128.8,213.7,122,213.7,114.5z M108.4,293.7c0-61.3,0-122,0-183.4c30.5,0,60.8,0,91.8,0c0,12.8,0,25.2,0,38.5
		c13.2,0,25.7,0,39.3,0c0,13.2,0.1,25.6-0.2,38.1c0,1.1-2.6,2.3-4.3,3.1c-7.8,3.4-15.6,6.8-23.4,9.9c-2.9,1.2-6.1,2.2-9.2,2.2
		c-23.9,0.2-47.8,0.1-71.8,0.1c-2.7,0-5.4,0-8.7,0c0,4.2,0,7.9,0,12.5c24.2,0,48.5,0,73.6,0c-4.5,13.5-4.5,13.5-16.1,13.5
		c-16.4,0-32.7,0-49.1,0c-2.7,0-5.4,0-8.5,0c0,4.6,0,8.2,0,13c10.8,0,21.5,0,32.2,0c10.5,0,21.1,0,32.6,0
		c-0.6,20.4,5.3,37.9,21.7,52.5C174,293.7,141.5,293.7,108.4,293.7z M245.8,287.8c-21.9-0.2-39.3-17.9-39.3-40
		c0.1-22.2,17.5-39.5,39.7-39.5c22,0,39.8,17.6,39.8,39.5C286.1,269.9,267.9,287.9,245.8,287.8z"/>
</g>
</svg>
