<?xml version="1.0" encoding="UTF-8" standalone="no"?>
<!-- Generator: Adobe Illustrator 21.0.2, SVG Export Plug-In . SVG Version: 6.00 Build 0)  -->

<svg
   xmlns:dc="http://purl.org/dc/elements/1.1/"
   xmlns:cc="http://creativecommons.org/ns#"
   xmlns:rdf="http://www.w3.org/1999/02/22-rdf-syntax-ns#"
   xmlns:svg="http://www.w3.org/2000/svg"
   xmlns="http://www.w3.org/2000/svg"
   xmlns:sodipodi="http://sodipodi.sourceforge.net/DTD/sodipodi-0.dtd"
   xmlns:inkscape="http://www.inkscape.org/namespaces/inkscape"
   version="1.1"
   id="Layer_1"
   x="0px"
   y="0px"
   viewBox="0 0 200 200"
   xml:space="preserve"
   inkscape:version="0.91 r13725"
   sodipodi:docname="zoom.svg"
   style="enable-background:new 0 0 200 200;"><metadata
     id="metadata12"><rdf:RDF><cc:Work
         rdf:about=""><dc:format>image/svg+xml</dc:format><dc:type
           rdf:resource="http://purl.org/dc/dcmitype/StillImage" /><dc:title></dc:title></cc:Work></rdf:RDF></metadata><defs
     id="defs10" /><sodipodi:namedview
     pagecolor="#ffffff"
     bordercolor="#666666"
     borderopacity="1"
     objecttolerance="10"
     gridtolerance="10"
     guidetolerance="10"
     inkscape:pageopacity="0"
     inkscape:pageshadow="2"
     inkscape:window-width="1536"
     inkscape:window-height="872"
     id="namedview8"
     showgrid="false"
     fit-margin-left="0"
     inkscape:zoom="1.18"
     inkscape:cx="75.490819"
     inkscape:cy="75.1375"
     inkscape:window-x="0"
     inkscape:window-y="24"
     inkscape:window-maximized="0"
     inkscape:current-layer="Layer_1" /><style
     type="text/css"
     id="style3">
	.st0{fill:#FFFFFF;}
</style><g
     id="XMLID_1588_"
     transform="matrix(0.72,0,0,0.72,28.057062,28.07)"><path
       id="XMLID_1596_"
       class="st0"
       d="m 187.6,200.1 c -2.4,0 -4.7,0 -7.1,0 -3.3,-2.3 -7.1,-4.2 -9.9,-7 -13.3,-13 -26.4,-26.3 -39.6,-39.5 -1.9,-1.9 -3.6,-4.2 -5.2,-6.1 -19,12 -38.5,16.2 -59.2,12.5 C 29.7,153.4 3.2,123.8 0.6,85.7 -1.9,49.4 20.2,17.2 53,5.5 59.5,3.2 66.3,2.1 73,0.4 c 5,0 10.1,0 15.1,0 1,0.3 1.9,0.7 2.9,0.8 45.3,5 78.3,50.6 68.3,95.1 -2.3,10.1 -6.7,19.6 -10.4,30.4 13.2,13.1 27.5,27.2 41.6,41.5 3.6,3.7 6.4,8.3 9.5,12.4 0,2.4 0,4.7 0,7.1 -2.3,6 -6.4,10.1 -12.4,12.4 z M 139.8,80.9 c 0,-32.7 -26.4,-59.2 -59.1,-59.2 -32.7,0 -59.2,26.4 -59.2,59.2 0,32.7 26.4,59.1 59.2,59.2 32.7,-0.1 59.1,-26.4 59.1,-59.2 z"
       inkscape:connector-curvature="0"
       style="fill:#ffffff" /><path
       id="XMLID_1595_"
       class="st0"
       d="m 80.5,30.9 c 19.2,0.9 33.7,9.5 43.2,26.4 0.7,1.2 0.3,3.1 0.4,4.7 -1.4,-0.4 -3.1,-0.3 -4.2,-1.1 C 104.8,49.9 88.3,42 70.1,37.6 68.6,37.2 67.3,35.8 66,34.9 c 1.5,-1 2.8,-2.3 4.4,-2.8 1.8,-0.6 3.8,-0.6 5.7,-0.8 C 77.5,31 79,31 80.5,30.9 Z"
       inkscape:connector-curvature="0"
       style="fill:#ffffff" /></g></svg>